%TF.GenerationSoftware,KiCad,Pcbnew,7.0.1*%
%TF.CreationDate,2023-12-30T18:25:03+00:00*%
%TF.ProjectId,watch_test_rig,77617463-685f-4746-9573-745f7269672e,rev?*%
%TF.SameCoordinates,Original*%
%TF.FileFunction,Soldermask,Top*%
%TF.FilePolarity,Negative*%
%FSLAX46Y46*%
G04 Gerber Fmt 4.6, Leading zero omitted, Abs format (unit mm)*
G04 Created by KiCad (PCBNEW 7.0.1) date 2023-12-30 18:25:03*
%MOMM*%
%LPD*%
G01*
G04 APERTURE LIST*
G04 Aperture macros list*
%AMRoundRect*
0 Rectangle with rounded corners*
0 $1 Rounding radius*
0 $2 $3 $4 $5 $6 $7 $8 $9 X,Y pos of 4 corners*
0 Add a 4 corners polygon primitive as box body*
4,1,4,$2,$3,$4,$5,$6,$7,$8,$9,$2,$3,0*
0 Add four circle primitives for the rounded corners*
1,1,$1+$1,$2,$3*
1,1,$1+$1,$4,$5*
1,1,$1+$1,$6,$7*
1,1,$1+$1,$8,$9*
0 Add four rect primitives between the rounded corners*
20,1,$1+$1,$2,$3,$4,$5,0*
20,1,$1+$1,$4,$5,$6,$7,0*
20,1,$1+$1,$6,$7,$8,$9,0*
20,1,$1+$1,$8,$9,$2,$3,0*%
G04 Aperture macros list end*
%ADD10C,0.010000*%
%ADD11C,0.600000*%
%ADD12O,2.000000X0.900000*%
%ADD13O,1.700000X0.900000*%
%ADD14RoundRect,0.218750X-0.218750X-0.256250X0.218750X-0.256250X0.218750X0.256250X-0.218750X0.256250X0*%
%ADD15C,2.000000*%
%ADD16RoundRect,0.140000X-0.140000X-0.170000X0.140000X-0.170000X0.140000X0.170000X-0.140000X0.170000X0*%
%ADD17RoundRect,0.135000X0.135000X0.185000X-0.135000X0.185000X-0.135000X-0.185000X0.135000X-0.185000X0*%
%ADD18C,3.600000*%
%ADD19C,5.600000*%
%ADD20R,1.700000X1.700000*%
%ADD21O,1.700000X1.700000*%
%ADD22R,0.400000X0.250000*%
%ADD23R,0.400000X0.700000*%
%ADD24RoundRect,0.140000X0.140000X0.170000X-0.140000X0.170000X-0.140000X-0.170000X0.140000X-0.170000X0*%
%ADD25RoundRect,0.135000X-0.185000X0.135000X-0.185000X-0.135000X0.185000X-0.135000X0.185000X0.135000X0*%
%ADD26R,0.740000X2.400000*%
%ADD27RoundRect,0.135000X0.185000X-0.135000X0.185000X0.135000X-0.185000X0.135000X-0.185000X-0.135000X0*%
G04 APERTURE END LIST*
%TO.C,J103*%
D10*
X134470000Y-92150000D02*
X133230000Y-92150000D01*
X133230000Y-91450000D01*
X134470000Y-91450000D01*
X134470000Y-92150000D01*
G36*
X134470000Y-92150000D02*
G01*
X133230000Y-92150000D01*
X133230000Y-91450000D01*
X134470000Y-91450000D01*
X134470000Y-92150000D01*
G37*
X134470000Y-92950000D02*
X133230000Y-92950000D01*
X133230000Y-92250000D01*
X134470000Y-92250000D01*
X134470000Y-92950000D01*
G36*
X134470000Y-92950000D02*
G01*
X133230000Y-92950000D01*
X133230000Y-92250000D01*
X134470000Y-92250000D01*
X134470000Y-92950000D01*
G37*
X134470000Y-93450000D02*
X133230000Y-93450000D01*
X133230000Y-93050000D01*
X134470000Y-93050000D01*
X134470000Y-93450000D01*
G36*
X134470000Y-93450000D02*
G01*
X133230000Y-93450000D01*
X133230000Y-93050000D01*
X134470000Y-93050000D01*
X134470000Y-93450000D01*
G37*
X134470000Y-93950000D02*
X133230000Y-93950000D01*
X133230000Y-93550000D01*
X134470000Y-93550000D01*
X134470000Y-93950000D01*
G36*
X134470000Y-93950000D02*
G01*
X133230000Y-93950000D01*
X133230000Y-93550000D01*
X134470000Y-93550000D01*
X134470000Y-93950000D01*
G37*
X134470000Y-94450000D02*
X133230000Y-94450000D01*
X133230000Y-94050000D01*
X134470000Y-94050000D01*
X134470000Y-94450000D01*
G36*
X134470000Y-94450000D02*
G01*
X133230000Y-94450000D01*
X133230000Y-94050000D01*
X134470000Y-94050000D01*
X134470000Y-94450000D01*
G37*
X134470000Y-94950000D02*
X133230000Y-94950000D01*
X133230000Y-94550000D01*
X134470000Y-94550000D01*
X134470000Y-94950000D01*
G36*
X134470000Y-94950000D02*
G01*
X133230000Y-94950000D01*
X133230000Y-94550000D01*
X134470000Y-94550000D01*
X134470000Y-94950000D01*
G37*
X134470000Y-95450000D02*
X133230000Y-95450000D01*
X133230000Y-95050000D01*
X134470000Y-95050000D01*
X134470000Y-95450000D01*
G36*
X134470000Y-95450000D02*
G01*
X133230000Y-95450000D01*
X133230000Y-95050000D01*
X134470000Y-95050000D01*
X134470000Y-95450000D01*
G37*
X134470000Y-95950000D02*
X133230000Y-95950000D01*
X133230000Y-95550000D01*
X134470000Y-95550000D01*
X134470000Y-95950000D01*
G36*
X134470000Y-95950000D02*
G01*
X133230000Y-95950000D01*
X133230000Y-95550000D01*
X134470000Y-95550000D01*
X134470000Y-95950000D01*
G37*
X134470000Y-96450000D02*
X133230000Y-96450000D01*
X133230000Y-96050000D01*
X134470000Y-96050000D01*
X134470000Y-96450000D01*
G36*
X134470000Y-96450000D02*
G01*
X133230000Y-96450000D01*
X133230000Y-96050000D01*
X134470000Y-96050000D01*
X134470000Y-96450000D01*
G37*
X134470000Y-96950000D02*
X133230000Y-96950000D01*
X133230000Y-96550000D01*
X134470000Y-96550000D01*
X134470000Y-96950000D01*
G36*
X134470000Y-96950000D02*
G01*
X133230000Y-96950000D01*
X133230000Y-96550000D01*
X134470000Y-96550000D01*
X134470000Y-96950000D01*
G37*
X134470000Y-97750000D02*
X133230000Y-97750000D01*
X133230000Y-97050000D01*
X134470000Y-97050000D01*
X134470000Y-97750000D01*
G36*
X134470000Y-97750000D02*
G01*
X133230000Y-97750000D01*
X133230000Y-97050000D01*
X134470000Y-97050000D01*
X134470000Y-97750000D01*
G37*
X134470000Y-98550000D02*
X133230000Y-98550000D01*
X133230000Y-97850000D01*
X134470000Y-97850000D01*
X134470000Y-98550000D01*
G36*
X134470000Y-98550000D02*
G01*
X133230000Y-98550000D01*
X133230000Y-97850000D01*
X134470000Y-97850000D01*
X134470000Y-98550000D01*
G37*
%TD*%
D11*
%TO.C,J103*%
X132780000Y-92110000D03*
X132780000Y-97890000D03*
D12*
X133270000Y-90675000D03*
X133270000Y-99325000D03*
D13*
X129100000Y-90675000D03*
X129100000Y-99325000D03*
%TD*%
D14*
%TO.C,D104*%
X154940000Y-81090000D03*
X156515000Y-81090000D03*
%TD*%
D15*
%TO.C,SW102*%
X180200000Y-111250000D03*
X173700000Y-111250000D03*
X180200000Y-106750000D03*
X173700000Y-106750000D03*
%TD*%
D16*
%TO.C,C101*%
X176720000Y-103000000D03*
X177680000Y-103000000D03*
%TD*%
D17*
%TO.C,R104*%
X152237500Y-77090000D03*
X151217500Y-77090000D03*
%TD*%
D18*
%TO.C,H108*%
X180000000Y-120000000D03*
D19*
X180000000Y-120000000D03*
%TD*%
D14*
%TO.C,D102*%
X154940000Y-77090000D03*
X156515000Y-77090000D03*
%TD*%
D20*
%TO.C,SW101*%
X132080000Y-77470000D03*
D21*
X132080000Y-80010000D03*
X132080000Y-82550000D03*
%TD*%
D22*
%TO.C,Q102*%
X147877500Y-76865000D03*
X147877500Y-77315000D03*
D23*
X148577500Y-77090000D03*
%TD*%
D22*
%TO.C,Q104*%
X147877500Y-80865000D03*
X147877500Y-81315000D03*
D23*
X148577500Y-81090000D03*
%TD*%
D15*
%TO.C,SW103*%
X136250000Y-111250000D03*
X129750000Y-111250000D03*
X136250000Y-106750000D03*
X129750000Y-106750000D03*
%TD*%
D18*
%TO.C,H106*%
X180000000Y-70000000D03*
D19*
X180000000Y-70000000D03*
%TD*%
D14*
%TO.C,D103*%
X154930000Y-89090000D03*
X156505000Y-89090000D03*
%TD*%
D24*
%TO.C,C102*%
X133480000Y-103000000D03*
X132520000Y-103000000D03*
%TD*%
D17*
%TO.C,R108*%
X152237500Y-85090000D03*
X151217500Y-85090000D03*
%TD*%
D25*
%TO.C,R102*%
X136762500Y-97190000D03*
X136762500Y-98210000D03*
%TD*%
D26*
%TO.C,J101*%
X160190000Y-118950000D03*
X160190000Y-115050000D03*
X161460000Y-118950000D03*
X161460000Y-115050000D03*
X162730000Y-118950000D03*
X162730000Y-115050000D03*
X164000000Y-118950000D03*
X164000000Y-115050000D03*
X165270000Y-118950000D03*
X165270000Y-115050000D03*
X166540000Y-118950000D03*
X166540000Y-115050000D03*
X167810000Y-118950000D03*
X167810000Y-115050000D03*
%TD*%
D17*
%TO.C,R107*%
X152237500Y-97090000D03*
X151217500Y-97090000D03*
%TD*%
D14*
%TO.C,D101*%
X154940000Y-93090000D03*
X156515000Y-93090000D03*
%TD*%
D20*
%TO.C,J106*%
X171450000Y-78740000D03*
D21*
X173990000Y-78740000D03*
X171450000Y-81280000D03*
X173990000Y-81280000D03*
X171450000Y-83820000D03*
X173990000Y-83820000D03*
%TD*%
D26*
%TO.C,J102*%
X142460000Y-118950000D03*
X142460000Y-115050000D03*
X143730000Y-118950000D03*
X143730000Y-115050000D03*
X145000000Y-118950000D03*
X145000000Y-115050000D03*
X146270000Y-118950000D03*
X146270000Y-115050000D03*
X147540000Y-118950000D03*
X147540000Y-115050000D03*
%TD*%
D18*
%TO.C,H107*%
X130000000Y-120000000D03*
D19*
X130000000Y-120000000D03*
%TD*%
D17*
%TO.C,R105*%
X152237500Y-89090000D03*
X151217500Y-89090000D03*
%TD*%
%TO.C,R106*%
X152237500Y-81090000D03*
X151217500Y-81090000D03*
%TD*%
D27*
%TO.C,R101*%
X136762500Y-92810000D03*
X136762500Y-91790000D03*
%TD*%
D22*
%TO.C,Q103*%
X147877500Y-88865000D03*
X147877500Y-89315000D03*
D23*
X148577500Y-89090000D03*
%TD*%
D14*
%TO.C,D105*%
X154940000Y-97090000D03*
X156515000Y-97090000D03*
%TD*%
%TO.C,D106*%
X154940000Y-85090000D03*
X156515000Y-85090000D03*
%TD*%
D18*
%TO.C,H105*%
X130000000Y-70000000D03*
D19*
X130000000Y-70000000D03*
%TD*%
D20*
%TO.C,J104*%
X171445000Y-90180000D03*
D21*
X173985000Y-90180000D03*
X171445000Y-92720000D03*
X173985000Y-92720000D03*
X171445000Y-95260000D03*
X173985000Y-95260000D03*
X171445000Y-97800000D03*
X173985000Y-97800000D03*
%TD*%
D17*
%TO.C,R103*%
X152237500Y-93090000D03*
X151217500Y-93090000D03*
%TD*%
D22*
%TO.C,Q105*%
X147877500Y-84865000D03*
X147877500Y-85315000D03*
D23*
X148577500Y-85090000D03*
%TD*%
D22*
%TO.C,Q101*%
X147877500Y-92865000D03*
X147877500Y-93315000D03*
D23*
X148577500Y-93090000D03*
%TD*%
M02*
