M48
; DRILL file {KiCad 7.0.1} date Sat Dec 30 18:25:06 2023
; FORMAT={-:-/ absolute / inch / decimal}
; #@! TF.CreationDate,2023-12-30T18:25:06+00:00
; #@! TF.GenerationSoftware,Kicad,Pcbnew,7.0.1
; #@! TF.FileFunction,Plated,1,4,PTH
FMAT,2
INCH
; #@! TA.AperFunction,Plated,PTH,ViaDrill
T1C0.0118
; #@! TA.AperFunction,Plated,PTH,ComponentDrill
T2C0.0236
; #@! TA.AperFunction,Plated,PTH,ComponentDrill
T3C0.0394
; #@! TA.AperFunction,Plated,PTH,ComponentDrill
T4C0.0433
; #@! TA.AperFunction,Plated,PTH,ComponentDrill
T5C0.1260
%
G90
G05
T1
X5.2874Y-4.0551
X5.3135Y-3.5827
X5.3135Y-3.8976
X5.3583Y-3.7598
X5.4213Y-3.6142
X5.4213Y-3.689
X5.4291Y-3.8661
X5.4308Y-3.7942
X5.4865Y-3.7385
X5.4865Y-3.8498
X5.5422Y-3.7942
X5.5422Y-3.9055
X5.5744Y-3.2594
X5.5967Y-3.9601
X5.5979Y-3.8498
X5.6087Y-4.4543
X5.6524Y-3.9044
X5.6524Y-4.0157
X5.6587Y-4.7559
X5.689Y-3.6334
X5.6929Y-4.3701
X5.7081Y-3.9601
X5.7081Y-4.0714
X5.7087Y-4.7559
X5.7638Y-4.0157
X5.7677Y-4.1181
X5.8087Y-4.7559
X5.8219Y-3.0748
X5.8219Y-3.2323
X5.8219Y-3.3889
X5.8219Y-3.5464
X5.8219Y-3.7047
X5.8465Y-4.0512
X5.8465Y-4.1299
X5.9091Y-3.8224
X5.9252Y-4.0512
X5.9252Y-4.1299
X5.9626Y-4.5295
X6.0039Y-4.0512
X6.0039Y-4.1299
X6.063Y-4.374
X6.0827Y-4.0512
X6.0827Y-4.1299
X6.122Y-4.25
X6.1496Y-4.0512
X6.1496Y-4.1299
X6.1732Y-3.9528
X6.2165Y-4.0512
X6.2165Y-4.1299
X6.2169Y-3.1925
X6.2169Y-3.35
X6.2169Y-3.5075
X6.2169Y-3.8224
X6.2205Y-3.0315
X6.2677Y-4.0472
X6.2677Y-4.1339
X6.2913Y-4.0719
X6.2913Y-4.1093
X6.315Y-4.0472
X6.315Y-4.1339
X6.3268Y-4.4291
X6.3567Y-4.4567
X6.4067Y-4.4567
X6.4067Y-4.752
X6.4425Y-4.0921
X6.4567Y-4.752
X6.4685Y-4.0472
X6.4685Y-4.1378
X6.5236Y-4.0472
X6.5236Y-4.1378
X6.5496Y-4.0921
X6.5551Y-3.937
X6.5567Y-4.4236
X6.5567Y-4.752
X6.6531Y-4.0429
X6.6535Y-4.1413
X6.9213Y-4.0551
T3
X5.2Y-3.05
X5.2Y-3.15
X5.2Y-3.25
X6.7498Y-3.5504
X6.7498Y-3.6504
X6.7498Y-3.7504
X6.7498Y-3.8504
X6.75Y-3.1
X6.75Y-3.2
X6.75Y-3.3
X6.8498Y-3.5504
X6.8498Y-3.6504
X6.8498Y-3.7504
X6.8498Y-3.8504
X6.85Y-3.1
X6.85Y-3.2
X6.85Y-3.3
T4
X5.1083Y-4.2028
X5.1083Y-4.3799
X5.3642Y-4.2028
X5.3642Y-4.3799
X6.8386Y-4.2028
X6.8386Y-4.3799
X7.0945Y-4.2028
X7.0945Y-4.3799
T5
X5.1181Y-2.7559
X5.1181Y-4.7244
X7.0866Y-2.7559
X7.0866Y-4.7244
T2
G00X5.0984Y-3.5699
M15
G01X5.0669Y-3.5699
M16
G05
G00X5.0984Y-3.9104
M15
G01X5.0669Y-3.9104
M16
G05
G00X5.2685Y-3.5699
M15
G01X5.2252Y-3.5699
M16
G05
G00X5.2685Y-3.9104
M15
G01X5.2252Y-3.9104
M16
G05
T0
M30
