M48
; DRILL file {KiCad 7.0.1} date Sat Jan  6 02:19:07 2024
; FORMAT={-:-/ absolute / inch / decimal}
; #@! TF.CreationDate,2024-01-06T02:19:07+00:00
; #@! TF.GenerationSoftware,Kicad,Pcbnew,7.0.1
; #@! TF.FileFunction,Plated,1,2,PTH
FMAT,2
INCH
; #@! TA.AperFunction,Plated,PTH,ViaDrill
T1C0.0118
; #@! TA.AperFunction,Plated,PTH,ComponentDrill
T2C0.0236
; #@! TA.AperFunction,Plated,PTH,ComponentDrill
T3C0.0394
; #@! TA.AperFunction,Plated,PTH,ComponentDrill
T4C0.0433
; #@! TA.AperFunction,Plated,PTH,ComponentDrill
T5C0.1260
%
G90
G05
T1
X5.5157Y-3.4843
X5.5197Y-3.2165
X5.6024Y-3.3819
X5.6496Y-3.2283
X5.9173Y-3.0945
X5.9823Y-3.1634
X6.2598Y-3.1378
X6.9551Y-3.2465
X6.9567Y-3.3465
X6.9567Y-3.3965
T3
X5.6102Y-2.9724
X5.7102Y-2.9724
X5.8102Y-2.9724
T4
X5.6476Y-3.5886
X5.6476Y-3.7657
X5.9035Y-3.5886
X5.9035Y-3.7657
T5
X5.315Y-2.9528
X5.315Y-3.7402
X6.8898Y-2.9528
X6.8898Y-3.7402
T2
G00X5.2953Y-3.186
M15
G01X5.2638Y-3.186
M16
G05
G00X5.2953Y-3.5266
M15
G01X5.2638Y-3.5266
M16
G05
G00X5.4654Y-3.186
M15
G01X5.422Y-3.186
M16
G05
G00X5.4654Y-3.5266
M15
G01X5.422Y-3.5266
M16
G05
T0
M30
