%TF.GenerationSoftware,KiCad,Pcbnew,7.0.1*%
%TF.CreationDate,2024-01-06T02:19:03+00:00*%
%TF.ProjectId,module_test_rig,6d6f6475-6c65-45f7-9465-73745f726967,rev?*%
%TF.SameCoordinates,Original*%
%TF.FileFunction,Copper,L2,Bot*%
%TF.FilePolarity,Positive*%
%FSLAX46Y46*%
G04 Gerber Fmt 4.6, Leading zero omitted, Abs format (unit mm)*
G04 Created by KiCad (PCBNEW 7.0.1) date 2024-01-06 02:19:03*
%MOMM*%
%LPD*%
G01*
G04 APERTURE LIST*
%TA.AperFunction,ComponentPad*%
%ADD10C,3.600000*%
%TD*%
%TA.AperFunction,ConnectorPad*%
%ADD11C,5.600000*%
%TD*%
%TA.AperFunction,ComponentPad*%
%ADD12R,1.700000X1.700000*%
%TD*%
%TA.AperFunction,ComponentPad*%
%ADD13O,1.700000X1.700000*%
%TD*%
%TA.AperFunction,ComponentPad*%
%ADD14C,2.000000*%
%TD*%
%TA.AperFunction,ComponentPad*%
%ADD15O,2.000000X0.900000*%
%TD*%
%TA.AperFunction,ComponentPad*%
%ADD16O,1.700000X0.900000*%
%TD*%
%TA.AperFunction,ViaPad*%
%ADD17C,0.450000*%
%TD*%
G04 APERTURE END LIST*
D10*
%TO.P,H105,1,1*%
%TO.N,GND*%
X135000000Y-75000000D03*
D11*
X135000000Y-75000000D03*
%TD*%
D12*
%TO.P,SW101,1,A*%
%TO.N,VBUS*%
X147580000Y-75500000D03*
D13*
%TO.P,SW101,2,B*%
%TO.N,/VIN*%
X145040000Y-75500000D03*
%TO.P,SW101,3,C*%
%TO.N,unconnected-(SW101-C-Pad3)*%
X142500000Y-75500000D03*
%TD*%
D10*
%TO.P,H107,1,1*%
%TO.N,GND*%
X175000001Y-74999999D03*
D11*
X175000001Y-74999999D03*
%TD*%
D14*
%TO.P,SW102,1,1*%
%TO.N,/STM32_RST*%
X143450000Y-91150000D03*
X149950000Y-91150000D03*
%TO.P,SW102,2,2*%
%TO.N,GND*%
X143450000Y-95650000D03*
X149950000Y-95650000D03*
%TD*%
D10*
%TO.P,H108,1,1*%
%TO.N,GND*%
X175000001Y-94999999D03*
D11*
X175000001Y-94999999D03*
%TD*%
D10*
%TO.P,H106,1,1*%
%TO.N,GND*%
X135000000Y-95000000D03*
D11*
X135000000Y-95000000D03*
%TD*%
D15*
%TO.P,J103,S1,SHIELD*%
%TO.N,unconnected-(J103-SHIELD-PadS1)*%
X138270000Y-80925000D03*
%TO.P,J103,S2,SHIELD*%
%TO.N,unconnected-(J103-SHIELD-PadS2)*%
X138270000Y-89575000D03*
D16*
%TO.P,J103,S3,SHIELD*%
%TO.N,unconnected-(J103-SHIELD-PadS3)*%
X134100000Y-80925000D03*
%TO.P,J103,S4,SHIELD*%
%TO.N,unconnected-(J103-SHIELD-PadS4)*%
X134100000Y-89575000D03*
%TD*%
D17*
%TO.N,GND*%
X176660000Y-82460000D03*
X143500000Y-82000000D03*
X151950000Y-80350000D03*
X142300000Y-85900000D03*
X176700000Y-86270000D03*
X140100000Y-88500000D03*
X159000000Y-79700000D03*
X150300000Y-78600000D03*
X176700000Y-85000000D03*
X140200000Y-81700000D03*
%TD*%
%TA.AperFunction,Conductor*%
%TO.N,GND*%
G36*
X175003473Y-72300694D02*
G01*
X175295307Y-72317083D01*
X175309104Y-72318637D01*
X175593828Y-72367014D01*
X175607385Y-72370108D01*
X175884900Y-72450059D01*
X175898025Y-72454652D01*
X175945323Y-72474243D01*
X176164842Y-72565171D01*
X176177356Y-72571197D01*
X176343444Y-72662991D01*
X176430125Y-72710898D01*
X176441899Y-72718296D01*
X176519846Y-72773602D01*
X176677440Y-72885421D01*
X176688308Y-72894089D01*
X176903642Y-73086525D01*
X176913474Y-73096357D01*
X177105910Y-73311691D01*
X177114581Y-73322563D01*
X177281703Y-73558100D01*
X177289101Y-73569874D01*
X177428798Y-73822636D01*
X177434831Y-73835164D01*
X177545347Y-74101974D01*
X177549940Y-74115099D01*
X177629891Y-74392614D01*
X177632985Y-74406171D01*
X177681360Y-74690884D01*
X177682917Y-74704702D01*
X177699306Y-74996527D01*
X177699501Y-75003480D01*
X177699501Y-94996518D01*
X177699306Y-95003471D01*
X177682917Y-95295295D01*
X177681360Y-95309113D01*
X177632985Y-95593827D01*
X177629891Y-95607384D01*
X177549940Y-95884899D01*
X177545347Y-95898023D01*
X177434832Y-96164833D01*
X177428798Y-96177363D01*
X177289100Y-96430125D01*
X177281703Y-96441898D01*
X177114585Y-96677430D01*
X177105915Y-96688302D01*
X176913476Y-96903642D01*
X176903643Y-96913475D01*
X176688303Y-97105914D01*
X176677431Y-97114584D01*
X176441900Y-97281702D01*
X176430126Y-97289100D01*
X176177363Y-97428798D01*
X176164835Y-97434831D01*
X175898026Y-97545347D01*
X175884901Y-97549940D01*
X175607385Y-97629891D01*
X175593828Y-97632985D01*
X175309115Y-97681360D01*
X175295297Y-97682917D01*
X175003508Y-97699304D01*
X174996555Y-97699499D01*
X174952406Y-97699499D01*
X174952405Y-97699499D01*
X135003479Y-97699499D01*
X134996527Y-97699304D01*
X134976026Y-97698152D01*
X134704704Y-97682916D01*
X134690886Y-97681359D01*
X134406172Y-97632984D01*
X134392615Y-97629890D01*
X134115100Y-97549939D01*
X134101975Y-97545346D01*
X133835165Y-97434830D01*
X133822637Y-97428797D01*
X133569874Y-97289100D01*
X133558100Y-97281702D01*
X133322569Y-97114584D01*
X133311697Y-97105914D01*
X133096357Y-96913475D01*
X133086524Y-96903642D01*
X133019489Y-96828630D01*
X132989458Y-96795025D01*
X133558528Y-96795025D01*
X133596843Y-96828628D01*
X133847532Y-96996132D01*
X134117941Y-97129483D01*
X134403438Y-97226396D01*
X134699139Y-97285215D01*
X135000000Y-97304934D01*
X135300860Y-97285215D01*
X135596561Y-97226396D01*
X135882058Y-97129483D01*
X136152467Y-96996132D01*
X136335835Y-96873610D01*
X142579942Y-96873610D01*
X142626766Y-96910055D01*
X142845393Y-97028368D01*
X143080506Y-97109083D01*
X143325707Y-97150000D01*
X143574293Y-97150000D01*
X143819493Y-97109083D01*
X144054606Y-97028368D01*
X144273233Y-96910053D01*
X144320055Y-96873610D01*
X149079942Y-96873610D01*
X149126766Y-96910055D01*
X149345393Y-97028368D01*
X149580506Y-97109083D01*
X149825707Y-97150000D01*
X150074293Y-97150000D01*
X150319493Y-97109083D01*
X150554606Y-97028368D01*
X150773233Y-96910053D01*
X150820056Y-96873609D01*
X150741471Y-96795024D01*
X173558529Y-96795024D01*
X173596844Y-96828627D01*
X173847533Y-96996131D01*
X174117942Y-97129482D01*
X174403439Y-97226395D01*
X174699140Y-97285214D01*
X175000001Y-97304933D01*
X175300861Y-97285214D01*
X175596562Y-97226395D01*
X175882059Y-97129482D01*
X176152468Y-96996131D01*
X176403154Y-96828629D01*
X176441471Y-96795023D01*
X176441471Y-96795022D01*
X175000002Y-95353552D01*
X175000001Y-95353552D01*
X173558529Y-96795023D01*
X173558529Y-96795024D01*
X150741471Y-96795024D01*
X149950000Y-96003553D01*
X149079942Y-96873609D01*
X149079942Y-96873610D01*
X144320055Y-96873610D01*
X144320056Y-96873609D01*
X143450000Y-96003553D01*
X142579942Y-96873609D01*
X142579942Y-96873610D01*
X136335835Y-96873610D01*
X136403153Y-96828630D01*
X136441470Y-96795024D01*
X136441470Y-96795023D01*
X135000001Y-95353553D01*
X135000000Y-95353553D01*
X133558528Y-96795024D01*
X133558528Y-96795025D01*
X132989458Y-96795025D01*
X132894085Y-96688302D01*
X132885415Y-96677430D01*
X132718297Y-96441899D01*
X132710899Y-96430125D01*
X132571202Y-96177362D01*
X132565172Y-96164841D01*
X132454653Y-95898024D01*
X132450060Y-95884899D01*
X132370109Y-95607384D01*
X132367015Y-95593827D01*
X132353965Y-95517020D01*
X132318638Y-95309103D01*
X132317084Y-95295306D01*
X132300695Y-95003471D01*
X132300598Y-95000000D01*
X132695065Y-95000000D01*
X132714784Y-95300860D01*
X132773603Y-95596561D01*
X132870516Y-95882058D01*
X133003867Y-96152467D01*
X133171371Y-96403156D01*
X133204973Y-96441470D01*
X133204974Y-96441470D01*
X134646446Y-95000001D01*
X135353553Y-95000001D01*
X136795023Y-96441470D01*
X136795024Y-96441470D01*
X136828630Y-96403153D01*
X136996132Y-96152467D01*
X137129483Y-95882058D01*
X137208256Y-95650000D01*
X141944858Y-95650000D01*
X141965386Y-95897732D01*
X142026413Y-96138721D01*
X142126268Y-96366370D01*
X142226563Y-96519882D01*
X142226564Y-96519882D01*
X143096447Y-95650001D01*
X143803553Y-95650001D01*
X144673434Y-96519882D01*
X144773730Y-96366369D01*
X144873586Y-96138721D01*
X144934613Y-95897732D01*
X144955141Y-95650000D01*
X148444858Y-95650000D01*
X148465386Y-95897732D01*
X148526413Y-96138721D01*
X148626268Y-96366370D01*
X148726563Y-96519882D01*
X148726564Y-96519882D01*
X149596447Y-95650001D01*
X150303553Y-95650001D01*
X151173434Y-96519882D01*
X151273730Y-96366369D01*
X151373586Y-96138721D01*
X151434613Y-95897732D01*
X151455141Y-95650000D01*
X151434613Y-95402267D01*
X151373586Y-95161278D01*
X151302842Y-94999999D01*
X172695066Y-94999999D01*
X172714785Y-95300859D01*
X172773604Y-95596560D01*
X172870517Y-95882057D01*
X173003868Y-96152466D01*
X173171372Y-96403155D01*
X173204974Y-96441469D01*
X173204975Y-96441469D01*
X174646447Y-95000000D01*
X174646447Y-94999999D01*
X175353554Y-94999999D01*
X176795024Y-96441469D01*
X176795025Y-96441469D01*
X176828631Y-96403152D01*
X176996133Y-96152466D01*
X177129484Y-95882057D01*
X177226397Y-95596560D01*
X177285216Y-95300859D01*
X177304935Y-94999999D01*
X177285216Y-94699138D01*
X177226397Y-94403437D01*
X177129484Y-94117941D01*
X176996131Y-93847528D01*
X176828632Y-93596845D01*
X176795026Y-93558527D01*
X176795025Y-93558527D01*
X175353554Y-94999999D01*
X174646447Y-94999999D01*
X174036319Y-94389871D01*
X174009439Y-94349643D01*
X174000000Y-94302190D01*
X174000000Y-93945807D01*
X174013515Y-93889512D01*
X174051115Y-93845489D01*
X174104602Y-93823334D01*
X174162318Y-93827876D01*
X174211681Y-93858126D01*
X175000001Y-94646445D01*
X175000002Y-94646445D01*
X176441471Y-93204973D01*
X176441471Y-93204972D01*
X176403157Y-93171370D01*
X176152468Y-93003866D01*
X175882059Y-92870515D01*
X175596562Y-92773602D01*
X175300861Y-92714783D01*
X175000001Y-92695064D01*
X174699140Y-92714783D01*
X174403439Y-92773602D01*
X174117943Y-92870515D01*
X173847534Y-93003866D01*
X173596845Y-93171370D01*
X173558528Y-93204972D01*
X173558528Y-93204973D01*
X173841874Y-93488319D01*
X173872124Y-93537682D01*
X173876666Y-93595398D01*
X173854511Y-93648885D01*
X173810488Y-93686485D01*
X173754193Y-93700000D01*
X173397810Y-93700000D01*
X173350357Y-93690561D01*
X173310128Y-93663681D01*
X173204974Y-93558527D01*
X173171372Y-93596843D01*
X173003868Y-93847532D01*
X172870517Y-94117941D01*
X172773604Y-94403437D01*
X172714785Y-94699138D01*
X172695066Y-94999999D01*
X151302842Y-94999999D01*
X151273730Y-94933630D01*
X151173434Y-94780116D01*
X150303553Y-95650000D01*
X150303553Y-95650001D01*
X149596447Y-95650001D01*
X149596447Y-95650000D01*
X148726564Y-94780116D01*
X148626266Y-94933634D01*
X148526413Y-95161278D01*
X148465386Y-95402267D01*
X148444858Y-95650000D01*
X144955141Y-95650000D01*
X144934613Y-95402267D01*
X144873586Y-95161278D01*
X144773730Y-94933630D01*
X144673434Y-94780116D01*
X143803553Y-95650000D01*
X143803553Y-95650001D01*
X143096447Y-95650001D01*
X143096447Y-95650000D01*
X142226564Y-94780116D01*
X142126266Y-94933634D01*
X142026413Y-95161278D01*
X141965386Y-95402267D01*
X141944858Y-95650000D01*
X137208256Y-95650000D01*
X137226396Y-95596561D01*
X137285215Y-95300860D01*
X137304934Y-95000000D01*
X137285215Y-94699139D01*
X137230961Y-94426390D01*
X142579942Y-94426390D01*
X143450000Y-95296447D01*
X143450001Y-95296447D01*
X144320057Y-94426390D01*
X149079942Y-94426390D01*
X149950000Y-95296447D01*
X149950001Y-95296447D01*
X150820057Y-94426390D01*
X150820056Y-94426388D01*
X150773235Y-94389947D01*
X150554606Y-94271631D01*
X150319493Y-94190916D01*
X150074293Y-94150000D01*
X149825707Y-94150000D01*
X149580506Y-94190916D01*
X149345393Y-94271631D01*
X149126764Y-94389946D01*
X149079942Y-94426388D01*
X149079942Y-94426390D01*
X144320057Y-94426390D01*
X144320056Y-94426388D01*
X144273235Y-94389947D01*
X144054606Y-94271631D01*
X143819493Y-94190916D01*
X143574293Y-94150000D01*
X143325707Y-94150000D01*
X143080506Y-94190916D01*
X142845393Y-94271631D01*
X142626764Y-94389946D01*
X142579942Y-94426388D01*
X142579942Y-94426390D01*
X137230961Y-94426390D01*
X137226396Y-94403438D01*
X137129483Y-94117942D01*
X136996130Y-93847529D01*
X136828631Y-93596846D01*
X136795025Y-93558528D01*
X136795024Y-93558528D01*
X135353553Y-95000000D01*
X135353553Y-95000001D01*
X134646446Y-95000001D01*
X134646446Y-95000000D01*
X133204974Y-93558527D01*
X133204973Y-93558527D01*
X133171371Y-93596844D01*
X133003867Y-93847533D01*
X132870516Y-94117942D01*
X132773603Y-94403438D01*
X132714784Y-94699139D01*
X132695065Y-95000000D01*
X132300598Y-95000000D01*
X132300500Y-94996519D01*
X132300500Y-93204974D01*
X133558527Y-93204974D01*
X135000000Y-94646446D01*
X135000001Y-94646446D01*
X136441470Y-93204974D01*
X136441470Y-93204973D01*
X136403156Y-93171371D01*
X136152467Y-93003867D01*
X135882058Y-92870516D01*
X135596561Y-92773603D01*
X135300860Y-92714784D01*
X135000000Y-92695065D01*
X134699139Y-92714784D01*
X134403438Y-92773603D01*
X134117942Y-92870516D01*
X133847533Y-93003867D01*
X133596844Y-93171371D01*
X133558527Y-93204973D01*
X133558527Y-93204974D01*
X132300500Y-93204974D01*
X132300500Y-91149999D01*
X142194722Y-91149999D01*
X142213792Y-91367974D01*
X142213793Y-91367977D01*
X142270425Y-91579330D01*
X142362898Y-91777639D01*
X142488402Y-91956877D01*
X142643123Y-92111598D01*
X142822361Y-92237102D01*
X143020670Y-92329575D01*
X143232023Y-92386207D01*
X143450000Y-92405277D01*
X143667977Y-92386207D01*
X143879330Y-92329575D01*
X144077639Y-92237102D01*
X144256877Y-92111598D01*
X144411598Y-91956877D01*
X144537102Y-91777639D01*
X144629575Y-91579330D01*
X144686207Y-91367977D01*
X144705277Y-91150000D01*
X144705277Y-91149999D01*
X148694722Y-91149999D01*
X148713792Y-91367974D01*
X148713793Y-91367977D01*
X148770425Y-91579330D01*
X148862898Y-91777639D01*
X148988402Y-91956877D01*
X149143123Y-92111598D01*
X149322361Y-92237102D01*
X149520670Y-92329575D01*
X149732023Y-92386207D01*
X149950000Y-92405277D01*
X150167977Y-92386207D01*
X150379330Y-92329575D01*
X150577639Y-92237102D01*
X150756877Y-92111598D01*
X150911598Y-91956877D01*
X151037102Y-91777639D01*
X151129575Y-91579330D01*
X151186207Y-91367977D01*
X151205277Y-91150000D01*
X151186207Y-90932023D01*
X151129575Y-90720670D01*
X151037102Y-90522362D01*
X150911598Y-90343123D01*
X150756877Y-90188402D01*
X150577639Y-90062898D01*
X150486205Y-90020261D01*
X150379331Y-89970425D01*
X150167974Y-89913792D01*
X149950000Y-89894722D01*
X149732025Y-89913792D01*
X149520668Y-89970425D01*
X149322361Y-90062898D01*
X149143122Y-90188402D01*
X148988402Y-90343122D01*
X148862898Y-90522361D01*
X148770425Y-90720668D01*
X148713792Y-90932025D01*
X148694722Y-91149999D01*
X144705277Y-91149999D01*
X144686207Y-90932023D01*
X144629575Y-90720670D01*
X144537102Y-90522362D01*
X144411598Y-90343123D01*
X144256877Y-90188402D01*
X144077639Y-90062898D01*
X143986205Y-90020261D01*
X143879331Y-89970425D01*
X143667974Y-89913792D01*
X143450000Y-89894722D01*
X143232025Y-89913792D01*
X143020668Y-89970425D01*
X142822361Y-90062898D01*
X142643122Y-90188402D01*
X142488402Y-90343122D01*
X142362898Y-90522361D01*
X142270425Y-90720668D01*
X142213792Y-90932025D01*
X142194722Y-91149999D01*
X132300500Y-91149999D01*
X132300500Y-89660055D01*
X132999500Y-89660055D01*
X133040209Y-89825224D01*
X133111780Y-89961588D01*
X133119266Y-89975852D01*
X133232071Y-90103183D01*
X133372070Y-90199818D01*
X133531128Y-90260140D01*
X133657628Y-90275500D01*
X134542371Y-90275500D01*
X134542372Y-90275500D01*
X134668872Y-90260140D01*
X134827930Y-90199818D01*
X134967929Y-90103183D01*
X135080734Y-89975852D01*
X135159790Y-89825225D01*
X135200500Y-89660056D01*
X135200500Y-89660055D01*
X137019500Y-89660055D01*
X137060209Y-89825224D01*
X137131780Y-89961588D01*
X137139266Y-89975852D01*
X137252071Y-90103183D01*
X137392070Y-90199818D01*
X137551128Y-90260140D01*
X137677628Y-90275500D01*
X138862371Y-90275500D01*
X138862372Y-90275500D01*
X138988872Y-90260140D01*
X139147930Y-90199818D01*
X139287929Y-90103183D01*
X139400734Y-89975852D01*
X139479790Y-89825225D01*
X139520500Y-89660056D01*
X139520500Y-89489944D01*
X139479790Y-89324775D01*
X139400734Y-89174148D01*
X139287929Y-89046817D01*
X139287928Y-89046816D01*
X139287927Y-89046815D01*
X139147930Y-88950182D01*
X138988872Y-88889860D01*
X138862372Y-88874500D01*
X138174503Y-88874500D01*
X138115335Y-88859473D01*
X138070508Y-88818035D01*
X138050885Y-88760229D01*
X138061223Y-88700064D01*
X138099017Y-88652124D01*
X138208282Y-88568282D01*
X138208281Y-88568282D01*
X138304536Y-88442841D01*
X138365044Y-88296762D01*
X138385682Y-88140000D01*
X138365044Y-87983238D01*
X138304536Y-87837159D01*
X138208282Y-87711717D01*
X138082840Y-87615463D01*
X137936762Y-87554956D01*
X137819362Y-87539500D01*
X137819361Y-87539500D01*
X137740639Y-87539500D01*
X137740638Y-87539500D01*
X137623237Y-87554956D01*
X137477159Y-87615463D01*
X137351717Y-87711717D01*
X137255463Y-87837159D01*
X137194956Y-87983237D01*
X137174317Y-88139999D01*
X137194956Y-88296762D01*
X137255463Y-88442840D01*
X137351717Y-88568282D01*
X137447970Y-88642139D01*
X137477159Y-88664536D01*
X137500063Y-88674023D01*
X137507650Y-88677166D01*
X137554972Y-88711767D01*
X137581112Y-88764239D01*
X137580226Y-88822855D01*
X137552514Y-88874514D01*
X137504168Y-88907669D01*
X137392070Y-88950181D01*
X137252072Y-89046815D01*
X137139265Y-89174149D01*
X137060209Y-89324775D01*
X137019500Y-89489945D01*
X137019500Y-89660055D01*
X135200500Y-89660055D01*
X135200500Y-89489944D01*
X135159790Y-89324775D01*
X135080734Y-89174148D01*
X134967929Y-89046817D01*
X134967928Y-89046816D01*
X134967927Y-89046815D01*
X134827930Y-88950182D01*
X134668872Y-88889860D01*
X134542372Y-88874500D01*
X133657628Y-88874500D01*
X133594377Y-88882180D01*
X133531127Y-88889860D01*
X133372069Y-88950182D01*
X133232072Y-89046815D01*
X133119265Y-89174149D01*
X133040209Y-89324775D01*
X132999500Y-89489945D01*
X132999500Y-89660055D01*
X132300500Y-89660055D01*
X132300500Y-81010055D01*
X132999500Y-81010055D01*
X133040209Y-81175224D01*
X133040210Y-81175225D01*
X133119266Y-81325852D01*
X133232071Y-81453183D01*
X133372070Y-81549818D01*
X133531128Y-81610140D01*
X133657628Y-81625500D01*
X134542371Y-81625500D01*
X134542372Y-81625500D01*
X134668872Y-81610140D01*
X134827930Y-81549818D01*
X134967929Y-81453183D01*
X135080734Y-81325852D01*
X135159790Y-81175225D01*
X135200500Y-81010056D01*
X135200500Y-81010055D01*
X137019500Y-81010055D01*
X137060209Y-81175224D01*
X137060210Y-81175225D01*
X137139266Y-81325852D01*
X137252071Y-81453183D01*
X137392070Y-81549818D01*
X137504167Y-81592330D01*
X137552513Y-81625485D01*
X137580226Y-81677143D01*
X137581112Y-81735758D01*
X137554974Y-81788231D01*
X137507652Y-81822832D01*
X137477159Y-81835462D01*
X137351717Y-81931717D01*
X137255463Y-82057159D01*
X137194956Y-82203237D01*
X137174317Y-82360000D01*
X137194956Y-82516762D01*
X137255463Y-82662840D01*
X137351717Y-82788282D01*
X137477159Y-82884536D01*
X137623238Y-82945044D01*
X137725182Y-82958465D01*
X137740638Y-82960500D01*
X137740639Y-82960500D01*
X137819361Y-82960500D01*
X137819362Y-82960500D01*
X137833019Y-82958701D01*
X137936762Y-82945044D01*
X138082841Y-82884536D01*
X138208282Y-82788282D01*
X138304536Y-82662841D01*
X138365044Y-82516762D01*
X138385682Y-82360000D01*
X138365044Y-82203238D01*
X138304536Y-82057159D01*
X138208282Y-81931717D01*
X138099017Y-81847876D01*
X138061223Y-81799936D01*
X138050885Y-81739771D01*
X138070508Y-81681965D01*
X138115335Y-81640527D01*
X138174503Y-81625500D01*
X138862371Y-81625500D01*
X138862372Y-81625500D01*
X138988872Y-81610140D01*
X139147930Y-81549818D01*
X139287929Y-81453183D01*
X139400734Y-81325852D01*
X139479790Y-81175225D01*
X139520500Y-81010056D01*
X139520500Y-80839944D01*
X139479790Y-80674775D01*
X139400734Y-80524148D01*
X139287929Y-80396817D01*
X139287928Y-80396816D01*
X139287927Y-80396815D01*
X139147930Y-80300182D01*
X138988872Y-80239860D01*
X138862372Y-80224500D01*
X137677628Y-80224500D01*
X137614377Y-80232180D01*
X137551127Y-80239860D01*
X137392069Y-80300182D01*
X137252072Y-80396815D01*
X137139265Y-80524149D01*
X137060209Y-80674775D01*
X137019500Y-80839945D01*
X137019500Y-81010055D01*
X135200500Y-81010055D01*
X135200500Y-80839944D01*
X135159790Y-80674775D01*
X135080734Y-80524148D01*
X134967929Y-80396817D01*
X134967928Y-80396816D01*
X134967927Y-80396815D01*
X134827930Y-80300182D01*
X134668872Y-80239860D01*
X134542372Y-80224500D01*
X133657628Y-80224500D01*
X133594377Y-80232180D01*
X133531127Y-80239860D01*
X133372069Y-80300182D01*
X133232072Y-80396815D01*
X133119265Y-80524149D01*
X133040209Y-80674775D01*
X132999500Y-80839945D01*
X132999500Y-81010055D01*
X132300500Y-81010055D01*
X132300500Y-76795025D01*
X133558528Y-76795025D01*
X133596843Y-76828628D01*
X133847532Y-76996132D01*
X134117941Y-77129483D01*
X134403438Y-77226396D01*
X134699139Y-77285215D01*
X135000000Y-77304934D01*
X135300860Y-77285215D01*
X135596561Y-77226396D01*
X135882058Y-77129483D01*
X136152467Y-76996132D01*
X136403153Y-76828630D01*
X136441470Y-76795024D01*
X173558529Y-76795024D01*
X173596844Y-76828627D01*
X173847533Y-76996131D01*
X174117942Y-77129482D01*
X174403439Y-77226395D01*
X174699140Y-77285214D01*
X175000001Y-77304933D01*
X175300861Y-77285214D01*
X175596562Y-77226395D01*
X175882059Y-77129482D01*
X176152468Y-76996131D01*
X176403154Y-76828629D01*
X176441471Y-76795023D01*
X176441471Y-76795022D01*
X175000002Y-75353552D01*
X175000001Y-75353552D01*
X173558529Y-76795023D01*
X173558529Y-76795024D01*
X136441470Y-76795024D01*
X136441470Y-76795023D01*
X135000001Y-75353553D01*
X135000000Y-75353553D01*
X133558528Y-76795024D01*
X133558528Y-76795025D01*
X132300500Y-76795025D01*
X132300500Y-75003480D01*
X132300598Y-75000000D01*
X132695065Y-75000000D01*
X132714784Y-75300860D01*
X132773603Y-75596561D01*
X132870516Y-75882058D01*
X133003867Y-76152467D01*
X133171371Y-76403156D01*
X133204973Y-76441470D01*
X133204974Y-76441470D01*
X134646446Y-75000001D01*
X135353553Y-75000001D01*
X136795023Y-76441470D01*
X136795024Y-76441470D01*
X136828630Y-76403153D01*
X136996132Y-76152467D01*
X137129483Y-75882058D01*
X137226396Y-75596561D01*
X137245603Y-75500000D01*
X141394785Y-75500000D01*
X141413602Y-75703083D01*
X141469418Y-75899251D01*
X141560324Y-76081818D01*
X141683236Y-76244580D01*
X141833958Y-76381981D01*
X142007361Y-76489347D01*
X142007363Y-76489348D01*
X142197544Y-76563024D01*
X142398024Y-76600500D01*
X142601974Y-76600500D01*
X142601976Y-76600500D01*
X142802456Y-76563024D01*
X142992637Y-76489348D01*
X143166041Y-76381981D01*
X143316764Y-76244579D01*
X143439673Y-76081821D01*
X143439673Y-76081819D01*
X143439675Y-76081818D01*
X143485313Y-75990161D01*
X143530582Y-75899250D01*
X143586397Y-75703083D01*
X143605215Y-75500000D01*
X143934785Y-75500000D01*
X143953602Y-75703083D01*
X144009418Y-75899251D01*
X144100324Y-76081818D01*
X144223236Y-76244580D01*
X144373958Y-76381981D01*
X144547361Y-76489347D01*
X144547363Y-76489348D01*
X144737544Y-76563024D01*
X144938024Y-76600500D01*
X145141974Y-76600500D01*
X145141976Y-76600500D01*
X145342456Y-76563024D01*
X145532637Y-76489348D01*
X145706041Y-76381981D01*
X145714055Y-76374675D01*
X146479500Y-76374675D01*
X146494033Y-76447738D01*
X146494033Y-76447739D01*
X146494034Y-76447740D01*
X146549399Y-76530601D01*
X146632260Y-76585966D01*
X146668792Y-76593232D01*
X146705325Y-76600500D01*
X146705326Y-76600500D01*
X148454674Y-76600500D01*
X148454675Y-76600500D01*
X148479029Y-76595655D01*
X148527740Y-76585966D01*
X148610601Y-76530601D01*
X148665966Y-76447740D01*
X148680500Y-76374674D01*
X148680500Y-74999999D01*
X172695066Y-74999999D01*
X172714785Y-75300859D01*
X172773604Y-75596560D01*
X172870517Y-75882057D01*
X173003868Y-76152466D01*
X173171372Y-76403155D01*
X173204974Y-76441469D01*
X173204975Y-76441469D01*
X174646447Y-75000000D01*
X174646447Y-74999999D01*
X175353554Y-74999999D01*
X176795024Y-76441469D01*
X176795025Y-76441469D01*
X176828631Y-76403152D01*
X176996133Y-76152466D01*
X177129484Y-75882057D01*
X177226397Y-75596560D01*
X177285216Y-75300859D01*
X177304935Y-74999999D01*
X177285216Y-74699138D01*
X177226397Y-74403437D01*
X177129484Y-74117941D01*
X176996131Y-73847528D01*
X176828632Y-73596845D01*
X176795026Y-73558527D01*
X176795025Y-73558527D01*
X175353554Y-74999999D01*
X174646447Y-74999999D01*
X173204975Y-73558526D01*
X173204974Y-73558526D01*
X173171372Y-73596843D01*
X173003868Y-73847532D01*
X172870517Y-74117941D01*
X172773604Y-74403437D01*
X172714785Y-74699138D01*
X172695066Y-74999999D01*
X148680500Y-74999999D01*
X148680500Y-74625326D01*
X148665966Y-74552260D01*
X148610601Y-74469399D01*
X148527740Y-74414034D01*
X148527739Y-74414033D01*
X148527738Y-74414033D01*
X148454675Y-74399500D01*
X148454674Y-74399500D01*
X146705326Y-74399500D01*
X146705325Y-74399500D01*
X146632261Y-74414033D01*
X146549399Y-74469399D01*
X146494033Y-74552261D01*
X146479500Y-74625325D01*
X146479500Y-76374675D01*
X145714055Y-76374675D01*
X145856764Y-76244579D01*
X145979673Y-76081821D01*
X145979673Y-76081819D01*
X145979675Y-76081818D01*
X146025313Y-75990161D01*
X146070582Y-75899250D01*
X146126397Y-75703083D01*
X146145215Y-75500000D01*
X146126397Y-75296917D01*
X146070582Y-75100750D01*
X146022148Y-75003480D01*
X145979675Y-74918181D01*
X145856763Y-74755419D01*
X145706041Y-74618018D01*
X145532638Y-74510652D01*
X145342457Y-74436976D01*
X145219726Y-74414034D01*
X145141976Y-74399500D01*
X144938024Y-74399500D01*
X144860279Y-74414033D01*
X144737542Y-74436976D01*
X144547361Y-74510652D01*
X144373958Y-74618018D01*
X144223236Y-74755419D01*
X144100324Y-74918181D01*
X144009418Y-75100748D01*
X143953602Y-75296916D01*
X143934785Y-75500000D01*
X143605215Y-75500000D01*
X143586397Y-75296917D01*
X143530582Y-75100750D01*
X143482148Y-75003480D01*
X143439675Y-74918181D01*
X143316763Y-74755419D01*
X143166041Y-74618018D01*
X142992638Y-74510652D01*
X142802457Y-74436976D01*
X142679726Y-74414034D01*
X142601976Y-74399500D01*
X142398024Y-74399500D01*
X142320279Y-74414033D01*
X142197542Y-74436976D01*
X142007361Y-74510652D01*
X141833958Y-74618018D01*
X141683236Y-74755419D01*
X141560324Y-74918181D01*
X141469418Y-75100748D01*
X141413602Y-75296916D01*
X141394785Y-75500000D01*
X137245603Y-75500000D01*
X137285215Y-75300860D01*
X137304934Y-75000000D01*
X137285215Y-74699139D01*
X137226396Y-74403438D01*
X137129483Y-74117942D01*
X136996130Y-73847529D01*
X136828631Y-73596846D01*
X136795025Y-73558528D01*
X136795024Y-73558528D01*
X135353553Y-75000000D01*
X135353553Y-75000001D01*
X134646446Y-75000001D01*
X134646446Y-75000000D01*
X133204974Y-73558527D01*
X133204973Y-73558527D01*
X133171371Y-73596844D01*
X133003867Y-73847533D01*
X132870516Y-74117942D01*
X132773603Y-74403438D01*
X132714784Y-74699139D01*
X132695065Y-75000000D01*
X132300598Y-75000000D01*
X132300695Y-74996527D01*
X132302064Y-74972155D01*
X132317084Y-74704691D01*
X132318638Y-74690898D01*
X132367015Y-74406167D01*
X132370109Y-74392615D01*
X132370110Y-74392614D01*
X132450061Y-74115096D01*
X132454653Y-74101975D01*
X132565175Y-73835151D01*
X132571195Y-73822651D01*
X132710902Y-73569868D01*
X132718297Y-73558100D01*
X132885422Y-73322559D01*
X132894077Y-73311705D01*
X132989458Y-73204974D01*
X133558527Y-73204974D01*
X135000000Y-74646446D01*
X135000001Y-74646446D01*
X136135246Y-73511199D01*
X155564276Y-73511199D01*
X155582628Y-73697531D01*
X155636978Y-73876699D01*
X155636979Y-73876700D01*
X155725239Y-74041824D01*
X155844018Y-74186556D01*
X155988750Y-74305335D01*
X156153874Y-74393595D01*
X156333044Y-74447946D01*
X156519375Y-74466298D01*
X156705706Y-74447946D01*
X156884876Y-74393595D01*
X157050000Y-74305335D01*
X157194732Y-74186556D01*
X157313511Y-74041824D01*
X157401771Y-73876700D01*
X157456122Y-73697530D01*
X157474474Y-73511199D01*
X157456122Y-73324868D01*
X157419752Y-73204973D01*
X173558528Y-73204973D01*
X175000001Y-74646445D01*
X175000002Y-74646445D01*
X176441471Y-73204973D01*
X176441471Y-73204972D01*
X176403157Y-73171370D01*
X176152468Y-73003866D01*
X175882059Y-72870515D01*
X175596562Y-72773602D01*
X175300861Y-72714783D01*
X175000001Y-72695064D01*
X174699140Y-72714783D01*
X174403439Y-72773602D01*
X174117943Y-72870515D01*
X173847534Y-73003866D01*
X173596845Y-73171370D01*
X173558528Y-73204972D01*
X173558528Y-73204973D01*
X157419752Y-73204973D01*
X157401771Y-73145698D01*
X157313511Y-72980574D01*
X157194732Y-72835842D01*
X157051504Y-72718297D01*
X157049999Y-72717062D01*
X156884875Y-72628802D01*
X156705707Y-72574452D01*
X156519375Y-72556100D01*
X156333042Y-72574452D01*
X156153874Y-72628802D01*
X155988750Y-72717062D01*
X155844018Y-72835842D01*
X155725238Y-72980574D01*
X155636978Y-73145698D01*
X155582628Y-73324866D01*
X155564276Y-73511199D01*
X136135246Y-73511199D01*
X136441470Y-73204974D01*
X136441470Y-73204973D01*
X136403156Y-73171371D01*
X136152467Y-73003867D01*
X135882058Y-72870516D01*
X135596561Y-72773603D01*
X135300860Y-72714784D01*
X135000000Y-72695065D01*
X134699139Y-72714784D01*
X134403438Y-72773603D01*
X134117942Y-72870516D01*
X133847533Y-73003867D01*
X133596844Y-73171371D01*
X133558527Y-73204973D01*
X133558527Y-73204974D01*
X132989458Y-73204974D01*
X133086534Y-73096346D01*
X133096346Y-73086534D01*
X133311705Y-72894077D01*
X133322559Y-72885422D01*
X133558105Y-72718293D01*
X133569868Y-72710902D01*
X133822651Y-72571195D01*
X133835151Y-72565175D01*
X134101979Y-72454651D01*
X134115096Y-72450061D01*
X134392621Y-72370107D01*
X134406167Y-72367015D01*
X134690898Y-72318638D01*
X134704691Y-72317084D01*
X134996527Y-72300695D01*
X135003481Y-72300500D01*
X135098953Y-72300500D01*
X135098958Y-72300499D01*
X174996520Y-72300499D01*
X175003473Y-72300694D01*
G37*
%TD.AperFunction*%
%TD*%
M02*
