%TF.GenerationSoftware,KiCad,Pcbnew,7.0.1*%
%TF.CreationDate,2024-01-02T22:47:16+00:00*%
%TF.ProjectId,module_test_rig,6d6f6475-6c65-45f7-9465-73745f726967,rev?*%
%TF.SameCoordinates,Original*%
%TF.FileFunction,Legend,Bot*%
%TF.FilePolarity,Positive*%
%FSLAX46Y46*%
G04 Gerber Fmt 4.6, Leading zero omitted, Abs format (unit mm)*
G04 Created by KiCad (PCBNEW 7.0.1) date 2024-01-02 22:47:16*
%MOMM*%
%LPD*%
G01*
G04 APERTURE LIST*
%ADD10C,0.150000*%
%ADD11C,3.600000*%
%ADD12C,5.600000*%
%ADD13R,1.700000X1.700000*%
%ADD14O,1.700000X1.700000*%
%ADD15C,2.000000*%
%ADD16C,0.600000*%
%ADD17O,2.000000X0.900000*%
%ADD18O,1.700000X0.900000*%
G04 APERTURE END LIST*
D10*
G36*
X151464304Y-82181555D02*
G01*
X151474331Y-82182348D01*
X151484164Y-82183669D01*
X151493802Y-82185519D01*
X151507894Y-82189285D01*
X151521548Y-82194240D01*
X151534764Y-82200385D01*
X151543332Y-82205142D01*
X151551705Y-82210427D01*
X151559883Y-82216241D01*
X151567867Y-82222584D01*
X151575656Y-82229455D01*
X151583250Y-82236855D01*
X151590650Y-82244783D01*
X151594277Y-82248946D01*
X151601257Y-82257659D01*
X151607787Y-82266886D01*
X151613866Y-82276626D01*
X151619495Y-82286880D01*
X151624674Y-82297646D01*
X151629402Y-82308926D01*
X151633680Y-82320720D01*
X151637508Y-82333026D01*
X151640885Y-82345846D01*
X151643813Y-82359179D01*
X151646289Y-82373026D01*
X151648316Y-82387386D01*
X151649892Y-82402259D01*
X151651018Y-82417645D01*
X151651693Y-82433545D01*
X151651918Y-82449958D01*
X151651696Y-82467786D01*
X151651029Y-82485003D01*
X151649918Y-82501606D01*
X151648362Y-82517598D01*
X151646361Y-82532976D01*
X151643916Y-82547743D01*
X151641026Y-82561896D01*
X151637691Y-82575437D01*
X151633912Y-82588366D01*
X151629688Y-82600682D01*
X151625020Y-82612386D01*
X151619907Y-82623477D01*
X151614350Y-82633955D01*
X151608348Y-82643822D01*
X151601901Y-82653075D01*
X151595010Y-82661716D01*
X151587754Y-82669791D01*
X151580275Y-82677344D01*
X151572573Y-82684376D01*
X151564647Y-82690888D01*
X151556499Y-82696879D01*
X151548127Y-82702348D01*
X151539531Y-82707297D01*
X151530713Y-82711725D01*
X151521671Y-82715632D01*
X151512406Y-82719018D01*
X151502918Y-82721883D01*
X151493206Y-82724227D01*
X151483272Y-82726050D01*
X151473114Y-82727353D01*
X151462732Y-82728134D01*
X151452128Y-82728394D01*
X151441580Y-82728136D01*
X151431249Y-82727360D01*
X151421133Y-82726067D01*
X151411232Y-82724258D01*
X151401548Y-82721931D01*
X151392078Y-82719087D01*
X151382825Y-82715725D01*
X151373787Y-82711847D01*
X151364965Y-82707452D01*
X151356358Y-82702539D01*
X151347967Y-82697109D01*
X151339791Y-82691163D01*
X151331831Y-82684699D01*
X151324087Y-82677718D01*
X151316559Y-82670220D01*
X151309246Y-82662205D01*
X151302236Y-82653607D01*
X151295679Y-82644421D01*
X151289574Y-82634647D01*
X151283921Y-82624286D01*
X151278720Y-82613337D01*
X151273972Y-82601800D01*
X151269675Y-82589676D01*
X151265831Y-82576964D01*
X151262440Y-82563664D01*
X151259500Y-82549777D01*
X151257013Y-82535301D01*
X151254978Y-82520239D01*
X151253395Y-82504588D01*
X151252265Y-82488350D01*
X151251586Y-82471524D01*
X151251360Y-82454110D01*
X151251593Y-82437456D01*
X151252291Y-82421324D01*
X151253455Y-82405712D01*
X151255085Y-82390622D01*
X151257180Y-82376052D01*
X151259741Y-82362003D01*
X151262767Y-82348476D01*
X151266259Y-82335469D01*
X151270216Y-82322983D01*
X151274639Y-82311018D01*
X151279528Y-82299574D01*
X151284882Y-82288650D01*
X151290702Y-82278248D01*
X151296988Y-82268367D01*
X151303739Y-82259006D01*
X151310955Y-82250167D01*
X151318470Y-82241826D01*
X151326175Y-82234024D01*
X151334071Y-82226760D01*
X151342157Y-82220034D01*
X151350435Y-82213845D01*
X151358903Y-82208195D01*
X151367562Y-82203083D01*
X151376412Y-82198510D01*
X151385453Y-82194474D01*
X151394685Y-82190976D01*
X151404107Y-82188017D01*
X151413721Y-82185595D01*
X151423525Y-82183712D01*
X151433519Y-82182367D01*
X151443705Y-82181560D01*
X151454082Y-82181290D01*
X151464304Y-82181555D01*
G37*
G36*
X159511896Y-82181563D02*
G01*
X159523125Y-82182382D01*
X159534106Y-82183746D01*
X159544840Y-82185656D01*
X159555325Y-82188112D01*
X159565562Y-82191114D01*
X159575551Y-82194661D01*
X159585292Y-82198754D01*
X159594785Y-82203393D01*
X159604030Y-82208577D01*
X159613027Y-82214307D01*
X159621776Y-82220583D01*
X159630277Y-82227405D01*
X159638530Y-82234772D01*
X159646534Y-82242685D01*
X159654291Y-82251144D01*
X159661685Y-82260155D01*
X159668602Y-82269725D01*
X159675042Y-82279855D01*
X159681005Y-82290543D01*
X159686491Y-82301791D01*
X159691500Y-82313598D01*
X159696032Y-82325963D01*
X159700087Y-82338888D01*
X159703664Y-82352372D01*
X159706765Y-82366415D01*
X159709389Y-82381017D01*
X159711535Y-82396178D01*
X159713205Y-82411899D01*
X159714398Y-82428178D01*
X159715113Y-82445016D01*
X159715352Y-82462414D01*
X159715113Y-82479784D01*
X159714398Y-82496600D01*
X159713205Y-82512864D01*
X159711535Y-82528573D01*
X159709389Y-82543730D01*
X159706765Y-82558333D01*
X159703664Y-82572382D01*
X159700087Y-82585879D01*
X159696032Y-82598822D01*
X159691500Y-82611211D01*
X159686491Y-82623048D01*
X159681005Y-82634330D01*
X159675042Y-82645060D01*
X159668602Y-82655236D01*
X159661685Y-82664859D01*
X159654291Y-82673928D01*
X159646534Y-82682417D01*
X159638530Y-82690357D01*
X159630277Y-82697751D01*
X159621776Y-82704596D01*
X159613027Y-82710894D01*
X159604030Y-82716644D01*
X159594785Y-82721847D01*
X159585292Y-82726502D01*
X159575551Y-82730609D01*
X159565562Y-82734169D01*
X159555325Y-82737181D01*
X159544840Y-82739645D01*
X159534106Y-82741562D01*
X159523125Y-82742931D01*
X159511896Y-82743752D01*
X159500418Y-82744026D01*
X159489029Y-82743750D01*
X159477883Y-82742923D01*
X159466979Y-82741544D01*
X159456317Y-82739614D01*
X159445897Y-82737133D01*
X159435720Y-82734100D01*
X159425786Y-82730515D01*
X159416093Y-82726379D01*
X159406643Y-82721692D01*
X159397435Y-82716453D01*
X159388470Y-82710663D01*
X159379747Y-82704321D01*
X159371266Y-82697428D01*
X159363028Y-82689983D01*
X159355032Y-82681987D01*
X159347278Y-82673440D01*
X159339884Y-82664327D01*
X159332967Y-82654637D01*
X159326527Y-82644368D01*
X159320564Y-82633521D01*
X159315078Y-82622096D01*
X159310069Y-82610093D01*
X159305537Y-82597512D01*
X159301482Y-82584352D01*
X159297904Y-82570615D01*
X159294804Y-82556299D01*
X159292180Y-82541405D01*
X159290033Y-82525932D01*
X159288364Y-82509882D01*
X159287171Y-82493253D01*
X159286456Y-82476047D01*
X159286217Y-82458262D01*
X159286457Y-82441455D01*
X159287179Y-82425167D01*
X159288381Y-82409398D01*
X159290064Y-82394148D01*
X159292228Y-82379417D01*
X159294872Y-82365205D01*
X159297998Y-82351512D01*
X159301604Y-82338339D01*
X159305692Y-82325684D01*
X159310260Y-82313548D01*
X159315309Y-82301931D01*
X159320838Y-82290833D01*
X159326849Y-82280255D01*
X159333341Y-82270195D01*
X159340313Y-82260654D01*
X159347766Y-82251632D01*
X159355547Y-82243114D01*
X159363562Y-82235146D01*
X159371812Y-82227727D01*
X159380296Y-82220858D01*
X159389016Y-82214538D01*
X159397970Y-82208768D01*
X159407158Y-82203547D01*
X159416582Y-82198876D01*
X159426240Y-82194754D01*
X159436133Y-82191182D01*
X159446260Y-82188160D01*
X159456622Y-82185687D01*
X159467219Y-82183763D01*
X159478051Y-82182390D01*
X159489117Y-82181565D01*
X159500418Y-82181290D01*
X159511896Y-82181563D01*
G37*
G36*
X158752502Y-82181556D02*
G01*
X158762503Y-82182351D01*
X158772293Y-82183678D01*
X158786580Y-82186661D01*
X158800391Y-82190839D01*
X158813726Y-82196210D01*
X158826583Y-82202774D01*
X158838965Y-82210532D01*
X158846954Y-82216367D01*
X158854732Y-82222733D01*
X158862298Y-82229629D01*
X158869652Y-82237056D01*
X158876794Y-82245013D01*
X158880285Y-82249190D01*
X158886970Y-82257953D01*
X158893223Y-82267329D01*
X158899044Y-82277317D01*
X158904435Y-82287918D01*
X158909394Y-82299131D01*
X158913922Y-82310957D01*
X158918019Y-82323395D01*
X158921685Y-82336446D01*
X158924919Y-82350109D01*
X158927722Y-82364385D01*
X158930094Y-82379273D01*
X158932034Y-82394774D01*
X158933544Y-82410887D01*
X158934622Y-82427613D01*
X158935269Y-82444952D01*
X158935484Y-82462903D01*
X158935253Y-82480300D01*
X158934561Y-82497138D01*
X158933406Y-82513418D01*
X158931790Y-82529138D01*
X158929712Y-82544299D01*
X158927172Y-82558901D01*
X158924171Y-82572944D01*
X158920708Y-82586428D01*
X158916783Y-82599353D01*
X158912396Y-82611719D01*
X158907547Y-82623526D01*
X158902237Y-82634773D01*
X158896465Y-82645462D01*
X158890231Y-82655591D01*
X158883535Y-82665161D01*
X158876378Y-82674173D01*
X158868906Y-82682631D01*
X158861269Y-82690544D01*
X158853465Y-82697912D01*
X158845496Y-82704733D01*
X158837361Y-82711009D01*
X158829059Y-82716740D01*
X158820592Y-82721924D01*
X158811958Y-82726563D01*
X158798697Y-82732497D01*
X158785062Y-82737204D01*
X158771054Y-82740683D01*
X158756672Y-82742935D01*
X158746876Y-82743753D01*
X158736915Y-82744026D01*
X158726874Y-82743766D01*
X158717024Y-82742984D01*
X158702607Y-82740835D01*
X158688620Y-82737514D01*
X158675061Y-82733021D01*
X158661932Y-82727356D01*
X158649233Y-82720519D01*
X158636962Y-82712510D01*
X158629021Y-82706519D01*
X158621270Y-82700008D01*
X158613710Y-82692975D01*
X158606340Y-82685422D01*
X158599162Y-82677348D01*
X158592300Y-82668709D01*
X158585881Y-82659522D01*
X158579905Y-82649787D01*
X158574371Y-82639505D01*
X158569280Y-82628676D01*
X158564632Y-82617298D01*
X158560427Y-82605373D01*
X158556664Y-82592901D01*
X158553343Y-82579881D01*
X158550466Y-82566313D01*
X158548031Y-82552197D01*
X158546039Y-82537534D01*
X158544490Y-82522323D01*
X158543383Y-82506565D01*
X158542719Y-82490259D01*
X158542498Y-82473405D01*
X158542724Y-82454851D01*
X158543402Y-82436925D01*
X158544533Y-82419627D01*
X158546115Y-82402956D01*
X158548150Y-82386913D01*
X158550638Y-82371498D01*
X158553577Y-82356711D01*
X158556969Y-82342552D01*
X158560813Y-82329020D01*
X158565109Y-82316116D01*
X158569858Y-82303840D01*
X158575058Y-82292192D01*
X158580711Y-82281172D01*
X158586816Y-82270779D01*
X158593374Y-82261014D01*
X158600383Y-82251877D01*
X158607692Y-82243329D01*
X158615209Y-82235333D01*
X158622935Y-82227888D01*
X158630868Y-82220995D01*
X158639009Y-82214653D01*
X158647358Y-82208863D01*
X158655915Y-82203624D01*
X158664680Y-82198937D01*
X158673653Y-82194801D01*
X158682834Y-82191217D01*
X158692223Y-82188184D01*
X158701820Y-82185702D01*
X158711625Y-82183772D01*
X158721638Y-82182393D01*
X158731859Y-82181566D01*
X158742288Y-82181290D01*
X158752502Y-82181556D01*
G37*
G36*
X156859467Y-82181523D02*
G01*
X156869804Y-82182222D01*
X156879930Y-82183386D01*
X156889844Y-82185015D01*
X156899546Y-82187110D01*
X156909036Y-82189671D01*
X156922874Y-82194385D01*
X156936235Y-82200147D01*
X156949120Y-82206956D01*
X156957446Y-82212077D01*
X156965559Y-82217665D01*
X156973461Y-82223717D01*
X156981151Y-82230235D01*
X156988629Y-82237219D01*
X156992288Y-82240886D01*
X156999323Y-82248492D01*
X157005954Y-82256410D01*
X157012184Y-82264642D01*
X157018010Y-82273187D01*
X157023434Y-82282044D01*
X157028455Y-82291215D01*
X157033074Y-82300699D01*
X157037290Y-82310495D01*
X157041103Y-82320604D01*
X157044514Y-82331027D01*
X157047522Y-82341762D01*
X157050128Y-82352810D01*
X157052331Y-82364171D01*
X157054131Y-82375845D01*
X157055529Y-82387832D01*
X157056524Y-82400132D01*
X156649127Y-82400132D01*
X156650282Y-82388292D01*
X156651672Y-82376830D01*
X156653297Y-82365745D01*
X156655157Y-82355039D01*
X156657251Y-82344710D01*
X156659580Y-82334759D01*
X156662143Y-82325186D01*
X156666429Y-82311534D01*
X156671242Y-82298733D01*
X156676584Y-82286782D01*
X156682454Y-82275681D01*
X156688852Y-82265430D01*
X156695777Y-82256029D01*
X156703302Y-82246978D01*
X156711100Y-82238512D01*
X156719170Y-82230629D01*
X156727514Y-82223331D01*
X156736130Y-82216616D01*
X156745019Y-82210485D01*
X156754181Y-82204938D01*
X156763616Y-82199975D01*
X156773324Y-82195596D01*
X156783304Y-82191801D01*
X156793558Y-82188589D01*
X156804084Y-82185962D01*
X156814883Y-82183918D01*
X156825955Y-82182458D01*
X156837300Y-82181582D01*
X156848918Y-82181290D01*
X156859467Y-82181523D01*
G37*
G36*
X155017876Y-82181523D02*
G01*
X155028213Y-82182222D01*
X155038339Y-82183386D01*
X155048253Y-82185015D01*
X155057955Y-82187110D01*
X155067445Y-82189671D01*
X155081283Y-82194385D01*
X155094644Y-82200147D01*
X155107529Y-82206956D01*
X155115855Y-82212077D01*
X155123968Y-82217665D01*
X155131870Y-82223717D01*
X155139560Y-82230235D01*
X155147038Y-82237219D01*
X155150697Y-82240886D01*
X155157732Y-82248492D01*
X155164363Y-82256410D01*
X155170592Y-82264642D01*
X155176419Y-82273187D01*
X155181843Y-82282044D01*
X155186864Y-82291215D01*
X155191483Y-82300699D01*
X155195699Y-82310495D01*
X155199512Y-82320604D01*
X155202923Y-82331027D01*
X155205931Y-82341762D01*
X155208537Y-82352810D01*
X155210740Y-82364171D01*
X155212540Y-82375845D01*
X155213938Y-82387832D01*
X155214933Y-82400132D01*
X154807536Y-82400132D01*
X154808691Y-82388292D01*
X154810081Y-82376830D01*
X154811706Y-82365745D01*
X154813566Y-82355039D01*
X154815660Y-82344710D01*
X154817989Y-82334759D01*
X154820552Y-82325186D01*
X154824838Y-82311534D01*
X154829651Y-82298733D01*
X154834993Y-82286782D01*
X154840863Y-82275681D01*
X154847260Y-82265430D01*
X154854186Y-82256029D01*
X154861711Y-82246978D01*
X154869509Y-82238512D01*
X154877579Y-82230629D01*
X154885923Y-82223331D01*
X154894539Y-82216616D01*
X154903428Y-82210485D01*
X154912590Y-82204938D01*
X154922025Y-82199975D01*
X154931732Y-82195596D01*
X154941713Y-82191801D01*
X154951966Y-82188589D01*
X154962493Y-82185962D01*
X154973292Y-82183918D01*
X154984364Y-82182458D01*
X154995709Y-82181582D01*
X155007327Y-82181290D01*
X155017876Y-82181523D01*
G37*
G36*
X152901465Y-82267264D02*
G01*
X152614968Y-82267264D01*
X152603705Y-82267189D01*
X152592753Y-82266962D01*
X152582112Y-82266586D01*
X152571783Y-82266058D01*
X152561764Y-82265380D01*
X152547319Y-82264080D01*
X152533574Y-82262440D01*
X152520529Y-82260462D01*
X152508183Y-82258144D01*
X152496538Y-82255487D01*
X152485592Y-82252491D01*
X152475346Y-82249156D01*
X152472086Y-82247969D01*
X152462640Y-82244149D01*
X152453627Y-82239926D01*
X152442285Y-82233667D01*
X152431714Y-82226691D01*
X152421914Y-82218997D01*
X152412885Y-82210586D01*
X152404626Y-82201458D01*
X152397139Y-82191612D01*
X152393684Y-82186420D01*
X152387387Y-82175681D01*
X152381930Y-82164713D01*
X152377312Y-82153516D01*
X152373534Y-82142090D01*
X152370595Y-82130435D01*
X152368496Y-82118551D01*
X152367237Y-82106438D01*
X152366817Y-82094096D01*
X152367274Y-82080676D01*
X152368646Y-82067712D01*
X152370932Y-82055203D01*
X152374133Y-82043148D01*
X152378248Y-82031549D01*
X152383278Y-82020405D01*
X152389222Y-82009716D01*
X152396081Y-81999482D01*
X152403854Y-81989703D01*
X152412541Y-81980380D01*
X152418841Y-81974417D01*
X152429080Y-81965993D01*
X152440379Y-81958397D01*
X152452739Y-81951630D01*
X152466159Y-81945692D01*
X152475695Y-81942193D01*
X152485702Y-81939063D01*
X152496181Y-81936301D01*
X152507131Y-81933907D01*
X152518552Y-81931881D01*
X152530445Y-81930224D01*
X152542808Y-81928935D01*
X152555644Y-81928014D01*
X152568950Y-81927462D01*
X152582728Y-81927278D01*
X152901465Y-81927278D01*
X152901465Y-82267264D01*
G37*
G36*
X161318101Y-83494856D02*
G01*
X148831863Y-83494856D01*
X148831863Y-81813949D01*
X149199720Y-81813949D01*
X149199720Y-82830000D01*
X149323307Y-82830000D01*
X149323307Y-82038164D01*
X149331932Y-82046270D01*
X149341047Y-82054376D01*
X149350651Y-82062482D01*
X149360745Y-82070587D01*
X149371328Y-82078693D01*
X149382400Y-82086799D01*
X149393962Y-82094905D01*
X149406014Y-82103011D01*
X149414320Y-82108415D01*
X149422844Y-82113818D01*
X149431585Y-82119222D01*
X149440544Y-82124626D01*
X149449553Y-82129916D01*
X149458446Y-82135037D01*
X149467222Y-82139991D01*
X149475883Y-82144776D01*
X149488654Y-82151640D01*
X149501165Y-82158126D01*
X149513413Y-82164234D01*
X149525399Y-82169964D01*
X149537123Y-82175316D01*
X149548586Y-82180291D01*
X149559786Y-82184887D01*
X149570725Y-82189106D01*
X149570725Y-82064054D01*
X149557852Y-82057930D01*
X149545183Y-82051647D01*
X149532718Y-82045206D01*
X149520457Y-82038607D01*
X149508400Y-82031849D01*
X149496548Y-82024933D01*
X149484899Y-82017859D01*
X149473455Y-82010626D01*
X149462215Y-82003235D01*
X149451180Y-81995685D01*
X149440348Y-81987977D01*
X149429721Y-81980111D01*
X149419297Y-81972086D01*
X149409078Y-81963903D01*
X149399063Y-81955561D01*
X149389253Y-81947062D01*
X149379721Y-81938499D01*
X149370545Y-81929968D01*
X149361724Y-81921470D01*
X149353257Y-81913005D01*
X149345146Y-81904572D01*
X149337389Y-81896171D01*
X149329987Y-81887803D01*
X149322941Y-81879467D01*
X149316249Y-81871164D01*
X149309912Y-81862893D01*
X149303930Y-81854655D01*
X149298303Y-81846449D01*
X149290527Y-81834201D01*
X149283551Y-81822025D01*
X149279343Y-81813949D01*
X149729483Y-81813949D01*
X150123691Y-82830000D01*
X150260467Y-82830000D01*
X150299028Y-82729616D01*
X151136077Y-82729616D01*
X151136111Y-82740234D01*
X151136213Y-82750657D01*
X151136382Y-82760884D01*
X151136619Y-82770916D01*
X151136924Y-82780752D01*
X151137737Y-82799837D01*
X151138821Y-82818140D01*
X151140176Y-82835660D01*
X151141801Y-82852399D01*
X151143698Y-82868355D01*
X151145866Y-82883528D01*
X151148304Y-82897920D01*
X151151014Y-82911528D01*
X151153995Y-82924355D01*
X151157246Y-82936399D01*
X151160768Y-82947661D01*
X151164562Y-82958141D01*
X151168626Y-82967838D01*
X151170760Y-82972393D01*
X151175254Y-82981221D01*
X151180064Y-82989814D01*
X151185191Y-82998173D01*
X151190635Y-83006297D01*
X151199395Y-83018043D01*
X151205631Y-83025580D01*
X151212183Y-83032883D01*
X151219053Y-83039950D01*
X151226239Y-83046783D01*
X151233742Y-83053382D01*
X151241561Y-83059745D01*
X151249698Y-83065874D01*
X151258151Y-83071769D01*
X151266921Y-83077428D01*
X151276007Y-83082853D01*
X151280669Y-83085478D01*
X151290208Y-83090505D01*
X151300018Y-83095209D01*
X151310099Y-83099588D01*
X151320450Y-83103643D01*
X151331073Y-83107374D01*
X151341967Y-83110780D01*
X151353131Y-83113861D01*
X151364567Y-83116618D01*
X151376273Y-83119051D01*
X151388251Y-83121160D01*
X151400499Y-83122944D01*
X151413018Y-83124404D01*
X151425809Y-83125539D01*
X151438870Y-83126350D01*
X151452202Y-83126837D01*
X151465805Y-83126999D01*
X151481913Y-83126770D01*
X151497629Y-83126083D01*
X151512955Y-83124938D01*
X151527889Y-83123335D01*
X151542432Y-83121274D01*
X151556584Y-83118756D01*
X151570344Y-83115779D01*
X151583714Y-83112344D01*
X151596692Y-83108452D01*
X151609279Y-83104101D01*
X151621475Y-83099293D01*
X151633280Y-83094026D01*
X151644693Y-83088302D01*
X151655716Y-83082119D01*
X151666347Y-83075479D01*
X151676587Y-83068381D01*
X151686307Y-83060853D01*
X151695378Y-83052863D01*
X151703801Y-83044412D01*
X151711575Y-83035499D01*
X151718700Y-83026125D01*
X151725176Y-83016288D01*
X151731003Y-83005990D01*
X151736182Y-82995230D01*
X151740712Y-82984008D01*
X151744593Y-82972324D01*
X151747826Y-82960179D01*
X151750409Y-82947572D01*
X151752344Y-82934503D01*
X151753630Y-82920972D01*
X151754268Y-82906980D01*
X151754256Y-82892526D01*
X151634089Y-82910355D01*
X151632433Y-82920487D01*
X151630305Y-82930090D01*
X151626733Y-82942074D01*
X151622321Y-82953118D01*
X151617070Y-82963223D01*
X151610979Y-82972390D01*
X151604049Y-82980618D01*
X151596279Y-82987907D01*
X151592079Y-82991200D01*
X151583173Y-82997311D01*
X151573675Y-83002820D01*
X151563584Y-83007729D01*
X151552901Y-83012037D01*
X151541625Y-83015743D01*
X151529757Y-83018849D01*
X151517296Y-83021353D01*
X151504243Y-83023257D01*
X151490597Y-83024559D01*
X151476359Y-83025260D01*
X151466538Y-83025394D01*
X151455945Y-83025259D01*
X151445659Y-83024856D01*
X151435680Y-83024183D01*
X151421288Y-83022670D01*
X151407588Y-83020551D01*
X151394578Y-83017827D01*
X151382260Y-83014497D01*
X151370633Y-83010562D01*
X151359697Y-83006022D01*
X151349452Y-83000877D01*
X151339899Y-82995126D01*
X151333914Y-82990956D01*
X151325431Y-82984256D01*
X151317476Y-82977071D01*
X151310050Y-82969401D01*
X151303151Y-82961246D01*
X151296780Y-82952605D01*
X151290938Y-82943480D01*
X151285624Y-82933869D01*
X151280837Y-82923773D01*
X151276579Y-82913193D01*
X151272849Y-82902127D01*
X151270655Y-82894480D01*
X151268434Y-82883710D01*
X151266979Y-82873920D01*
X151265704Y-82862661D01*
X151264609Y-82849934D01*
X151263694Y-82835739D01*
X151263185Y-82825460D01*
X151262756Y-82814528D01*
X151262406Y-82802944D01*
X151262137Y-82790707D01*
X151261948Y-82777817D01*
X151261840Y-82764275D01*
X151261811Y-82750081D01*
X151261863Y-82735233D01*
X151272125Y-82746709D01*
X151282700Y-82757444D01*
X151293587Y-82767439D01*
X151304788Y-82776693D01*
X151316302Y-82785208D01*
X151328129Y-82792981D01*
X151340268Y-82800015D01*
X151352721Y-82806308D01*
X151365486Y-82811861D01*
X151378565Y-82816673D01*
X151391956Y-82820745D01*
X151405661Y-82824077D01*
X151419678Y-82826668D01*
X151434008Y-82828519D01*
X151448651Y-82829629D01*
X151463607Y-82830000D01*
X151482149Y-82829573D01*
X151500160Y-82828294D01*
X151517640Y-82826161D01*
X151534590Y-82823176D01*
X151551010Y-82819338D01*
X151566899Y-82814647D01*
X151582258Y-82809102D01*
X151597086Y-82802705D01*
X151611384Y-82795455D01*
X151625151Y-82787352D01*
X151638388Y-82778397D01*
X151651094Y-82768588D01*
X151663270Y-82757926D01*
X151674915Y-82746411D01*
X151686030Y-82734044D01*
X151696615Y-82720823D01*
X151706582Y-82707006D01*
X151715906Y-82692850D01*
X151724587Y-82678353D01*
X151732625Y-82663517D01*
X151740020Y-82648342D01*
X151746772Y-82632827D01*
X151752881Y-82616972D01*
X151758347Y-82600778D01*
X151763170Y-82584243D01*
X151767350Y-82567370D01*
X151770887Y-82550156D01*
X151773780Y-82532603D01*
X151776031Y-82514711D01*
X151777639Y-82496478D01*
X151778603Y-82477906D01*
X151778925Y-82458995D01*
X151778778Y-82445930D01*
X151778337Y-82432994D01*
X151777602Y-82420186D01*
X151776574Y-82407505D01*
X151775251Y-82394952D01*
X151773635Y-82382528D01*
X151771725Y-82370230D01*
X151769521Y-82358061D01*
X151767024Y-82346020D01*
X151764232Y-82334106D01*
X151761146Y-82322321D01*
X151757767Y-82310663D01*
X151754094Y-82299133D01*
X151750127Y-82287731D01*
X151745866Y-82276456D01*
X151741311Y-82265310D01*
X151736446Y-82254355D01*
X151731316Y-82243717D01*
X151725921Y-82233396D01*
X151720261Y-82223392D01*
X151714335Y-82213704D01*
X151708144Y-82204333D01*
X151701688Y-82195279D01*
X151694966Y-82186542D01*
X151687979Y-82178121D01*
X151680728Y-82170017D01*
X151673210Y-82162230D01*
X151665428Y-82154760D01*
X151657380Y-82147606D01*
X151649068Y-82140769D01*
X151640490Y-82134249D01*
X151631646Y-82128046D01*
X151622573Y-82122189D01*
X151613305Y-82116711D01*
X151603843Y-82111611D01*
X151594185Y-82106888D01*
X151584334Y-82102543D01*
X151574287Y-82098576D01*
X151564988Y-82095317D01*
X151917899Y-82095317D01*
X151917899Y-82830000D01*
X152041486Y-82830000D01*
X152146999Y-82830000D01*
X152314793Y-82830000D01*
X152447906Y-82619462D01*
X152455122Y-82608241D01*
X152462179Y-82597354D01*
X152469075Y-82586801D01*
X152475811Y-82576582D01*
X152482386Y-82566697D01*
X152488801Y-82557146D01*
X152495056Y-82547929D01*
X152501151Y-82539045D01*
X152507085Y-82530496D01*
X152512859Y-82522280D01*
X152521220Y-82510583D01*
X152529220Y-82499637D01*
X152536859Y-82489443D01*
X152544137Y-82480000D01*
X152551165Y-82471187D01*
X152558051Y-82462886D01*
X152564795Y-82455096D01*
X152571397Y-82447817D01*
X152579980Y-82438906D01*
X152588311Y-82430903D01*
X152596390Y-82423808D01*
X152604217Y-82417622D01*
X152611793Y-82412344D01*
X152621134Y-82406601D01*
X152630536Y-82401430D01*
X152639996Y-82396831D01*
X152649517Y-82392805D01*
X152659097Y-82389351D01*
X152668737Y-82386470D01*
X152672609Y-82385478D01*
X152683926Y-82383574D01*
X152693698Y-82382501D01*
X152704877Y-82381666D01*
X152714834Y-82381170D01*
X152725691Y-82380826D01*
X152737450Y-82380636D01*
X152746859Y-82380593D01*
X152901465Y-82380593D01*
X152901465Y-82830000D01*
X153034577Y-82830000D01*
X153542358Y-82830000D01*
X153552060Y-82832793D01*
X153561564Y-82835312D01*
X153573928Y-82838243D01*
X153585942Y-82840685D01*
X153597605Y-82842639D01*
X153608916Y-82844105D01*
X153619876Y-82845081D01*
X153630486Y-82845570D01*
X153635659Y-82845631D01*
X153648032Y-82845442D01*
X153659873Y-82844875D01*
X153671182Y-82843931D01*
X153681958Y-82842609D01*
X153692202Y-82840908D01*
X153701913Y-82838830D01*
X153714034Y-82835472D01*
X153725208Y-82831442D01*
X153735436Y-82826740D01*
X153740195Y-82824138D01*
X153749132Y-82818493D01*
X153757383Y-82812429D01*
X153764947Y-82805945D01*
X153773436Y-82797250D01*
X153780852Y-82787899D01*
X153787194Y-82777892D01*
X153792463Y-82767229D01*
X153795955Y-82757219D01*
X153798981Y-82744774D01*
X153800945Y-82733842D01*
X153802647Y-82721541D01*
X153804088Y-82707871D01*
X153804903Y-82697996D01*
X153805601Y-82687513D01*
X153806183Y-82676421D01*
X153806649Y-82664720D01*
X153806998Y-82652410D01*
X153807231Y-82639492D01*
X153807347Y-82625965D01*
X153807361Y-82618974D01*
X153807361Y-82613600D01*
X153973202Y-82613600D01*
X153973520Y-82625214D01*
X153974473Y-82636698D01*
X153976062Y-82648054D01*
X153978286Y-82659281D01*
X153981145Y-82670380D01*
X153984640Y-82681349D01*
X153988770Y-82692190D01*
X153993536Y-82702902D01*
X153998937Y-82713485D01*
X154004973Y-82723939D01*
X154009350Y-82730837D01*
X154016366Y-82740878D01*
X154023948Y-82750486D01*
X154032096Y-82759660D01*
X154040812Y-82768401D01*
X154050094Y-82776708D01*
X154059943Y-82784581D01*
X154070359Y-82792020D01*
X154081341Y-82799026D01*
X154092890Y-82805599D01*
X154105006Y-82811738D01*
X154113398Y-82815589D01*
X154126288Y-82820958D01*
X154139496Y-82825799D01*
X154153021Y-82830111D01*
X154166864Y-82833896D01*
X154181025Y-82837152D01*
X154190642Y-82839030D01*
X154200400Y-82840673D01*
X154210300Y-82842081D01*
X154220340Y-82843255D01*
X154230522Y-82844193D01*
X154240845Y-82844898D01*
X154251310Y-82845367D01*
X154261915Y-82845602D01*
X154267271Y-82845631D01*
X154284775Y-82845404D01*
X154301751Y-82844723D01*
X154318198Y-82843587D01*
X154334117Y-82841998D01*
X154349507Y-82839954D01*
X154364369Y-82837457D01*
X154378702Y-82834505D01*
X154392506Y-82831099D01*
X154405782Y-82827238D01*
X154418530Y-82822924D01*
X154430748Y-82818156D01*
X154442439Y-82812933D01*
X154453600Y-82807256D01*
X154464234Y-82801125D01*
X154474338Y-82794540D01*
X154483914Y-82787501D01*
X154493016Y-82779985D01*
X154501698Y-82772030D01*
X154509960Y-82763636D01*
X154517803Y-82754803D01*
X154525226Y-82745532D01*
X154532228Y-82735821D01*
X154538812Y-82725672D01*
X154544975Y-82715083D01*
X154550718Y-82704056D01*
X154556042Y-82692590D01*
X154560946Y-82680685D01*
X154565430Y-82668341D01*
X154569495Y-82655559D01*
X154573139Y-82642337D01*
X154576364Y-82628677D01*
X154579169Y-82614577D01*
X154456803Y-82595526D01*
X154454558Y-82608696D01*
X154451668Y-82621278D01*
X154448135Y-82633271D01*
X154443958Y-82644676D01*
X154439136Y-82655493D01*
X154433671Y-82665722D01*
X154427561Y-82675363D01*
X154420808Y-82684415D01*
X154413411Y-82692880D01*
X154405369Y-82700756D01*
X154399650Y-82705680D01*
X154390483Y-82712533D01*
X154380660Y-82718712D01*
X154370179Y-82724216D01*
X154359041Y-82729047D01*
X154347247Y-82733204D01*
X154334795Y-82736686D01*
X154321687Y-82739495D01*
X154307922Y-82741629D01*
X154293500Y-82743090D01*
X154283520Y-82743689D01*
X154273249Y-82743989D01*
X154268004Y-82744026D01*
X154257520Y-82743890D01*
X154247380Y-82743480D01*
X154237584Y-82742798D01*
X154223533Y-82741263D01*
X154210255Y-82739114D01*
X154197750Y-82736352D01*
X154186018Y-82732975D01*
X154175059Y-82728984D01*
X154164872Y-82724380D01*
X154155458Y-82719161D01*
X154146817Y-82713329D01*
X154141486Y-82709099D01*
X154134109Y-82702397D01*
X154125402Y-82693128D01*
X154117985Y-82683476D01*
X154111858Y-82673443D01*
X154107021Y-82663029D01*
X154103474Y-82652232D01*
X154101216Y-82641054D01*
X154100249Y-82629495D01*
X154100209Y-82626545D01*
X154100781Y-82616260D01*
X154102498Y-82606533D01*
X154106255Y-82595156D01*
X154111801Y-82584651D01*
X154119135Y-82575016D01*
X154126291Y-82567935D01*
X154134591Y-82561411D01*
X154136845Y-82559867D01*
X154146626Y-82554456D01*
X154157103Y-82549810D01*
X154166509Y-82546140D01*
X154177242Y-82542311D01*
X154189301Y-82538323D01*
X154202687Y-82534176D01*
X154212348Y-82531324D01*
X154222598Y-82528400D01*
X154233439Y-82525406D01*
X154244868Y-82522342D01*
X154256888Y-82519207D01*
X154263119Y-82517613D01*
X154279798Y-82513344D01*
X154295824Y-82509148D01*
X154311198Y-82505025D01*
X154325920Y-82500974D01*
X154339988Y-82496995D01*
X154353405Y-82493089D01*
X154366168Y-82489256D01*
X154378279Y-82485495D01*
X154389738Y-82481807D01*
X154400543Y-82478191D01*
X154410697Y-82474647D01*
X154420197Y-82471176D01*
X154428276Y-82468032D01*
X154677110Y-82468032D01*
X154677179Y-82478038D01*
X154677341Y-82488790D01*
X154677540Y-82498972D01*
X154677599Y-82501737D01*
X155221772Y-82501737D01*
X155220705Y-82516208D01*
X155219215Y-82530249D01*
X155217301Y-82543860D01*
X155214964Y-82557043D01*
X155212202Y-82569796D01*
X155209018Y-82582120D01*
X155205409Y-82594014D01*
X155201378Y-82605479D01*
X155196922Y-82616515D01*
X155192043Y-82627121D01*
X155186740Y-82637299D01*
X155181014Y-82647046D01*
X155174864Y-82656365D01*
X155168290Y-82665254D01*
X155161293Y-82673714D01*
X155153872Y-82681744D01*
X155146092Y-82689286D01*
X155138077Y-82696341D01*
X155129827Y-82702910D01*
X155121342Y-82708992D01*
X155112623Y-82714588D01*
X155103669Y-82719697D01*
X155094480Y-82724320D01*
X155085057Y-82728456D01*
X155075399Y-82732105D01*
X155065506Y-82735268D01*
X155055379Y-82737944D01*
X155045016Y-82740133D01*
X155034419Y-82741836D01*
X155023588Y-82743053D01*
X155012522Y-82743783D01*
X155001221Y-82744026D01*
X154988663Y-82743715D01*
X154976454Y-82742781D01*
X154964592Y-82741225D01*
X154953078Y-82739046D01*
X154941912Y-82736244D01*
X154931093Y-82732820D01*
X154920623Y-82728774D01*
X154910500Y-82724105D01*
X154900724Y-82718813D01*
X154891297Y-82712899D01*
X154885205Y-82708611D01*
X154876359Y-82701599D01*
X154867866Y-82693845D01*
X154859724Y-82685347D01*
X154851935Y-82676107D01*
X154844497Y-82666125D01*
X154837412Y-82655399D01*
X154830678Y-82643931D01*
X154824297Y-82631720D01*
X154818268Y-82618766D01*
X154814444Y-82609718D01*
X154810776Y-82600339D01*
X154809001Y-82595526D01*
X154681018Y-82611158D01*
X154685005Y-82624885D01*
X154689395Y-82638223D01*
X154694187Y-82651172D01*
X154699382Y-82663731D01*
X154704980Y-82675901D01*
X154710980Y-82687682D01*
X154717383Y-82699074D01*
X154724188Y-82710076D01*
X154731396Y-82720689D01*
X154739007Y-82730913D01*
X154747020Y-82740748D01*
X154755436Y-82750193D01*
X154764254Y-82759249D01*
X154773476Y-82767916D01*
X154783099Y-82776194D01*
X154793126Y-82784082D01*
X154803530Y-82791535D01*
X154814287Y-82798507D01*
X154825397Y-82804999D01*
X154836860Y-82811010D01*
X154848677Y-82816539D01*
X154860846Y-82821588D01*
X154873368Y-82826156D01*
X154886243Y-82830244D01*
X154899471Y-82833850D01*
X154913053Y-82836976D01*
X154926987Y-82839620D01*
X154941274Y-82841784D01*
X154955914Y-82843467D01*
X154970908Y-82844669D01*
X154986254Y-82845391D01*
X155001953Y-82845631D01*
X155011887Y-82845534D01*
X155021692Y-82845245D01*
X155040914Y-82844085D01*
X155059618Y-82842153D01*
X155077806Y-82839449D01*
X155095476Y-82835971D01*
X155112630Y-82831721D01*
X155129266Y-82826697D01*
X155145385Y-82820901D01*
X155160987Y-82814333D01*
X155176072Y-82806991D01*
X155190639Y-82798877D01*
X155204690Y-82789989D01*
X155218224Y-82780329D01*
X155231240Y-82769897D01*
X155243739Y-82758691D01*
X155255722Y-82746713D01*
X155267079Y-82734006D01*
X155277703Y-82720678D01*
X155287595Y-82706727D01*
X155296754Y-82692155D01*
X155305181Y-82676960D01*
X155312874Y-82661144D01*
X155319835Y-82644705D01*
X155326064Y-82627644D01*
X155331559Y-82609962D01*
X155336322Y-82591657D01*
X155340352Y-82572730D01*
X155342092Y-82563033D01*
X155343649Y-82553181D01*
X155345023Y-82543173D01*
X155346214Y-82533010D01*
X155347221Y-82522691D01*
X155348045Y-82512217D01*
X155348687Y-82501587D01*
X155349144Y-82490802D01*
X155349419Y-82479861D01*
X155349511Y-82468764D01*
X155349418Y-82457289D01*
X155349141Y-82445976D01*
X155348678Y-82434825D01*
X155348030Y-82423835D01*
X155347197Y-82413007D01*
X155346179Y-82402341D01*
X155344976Y-82391836D01*
X155343588Y-82381493D01*
X155342015Y-82371312D01*
X155340256Y-82361293D01*
X155338313Y-82351435D01*
X155336184Y-82341739D01*
X155333871Y-82332205D01*
X155328688Y-82313621D01*
X155322765Y-82295685D01*
X155316102Y-82278395D01*
X155308698Y-82261752D01*
X155300554Y-82245756D01*
X155291670Y-82230407D01*
X155282045Y-82215705D01*
X155271680Y-82201649D01*
X155260575Y-82188241D01*
X155254745Y-82181779D01*
X155242678Y-82169416D01*
X155230171Y-82157851D01*
X155217224Y-82147083D01*
X155203835Y-82137113D01*
X155190006Y-82127941D01*
X155175736Y-82119566D01*
X155161025Y-82111988D01*
X155145873Y-82105209D01*
X155130281Y-82099227D01*
X155114248Y-82094042D01*
X155097774Y-82089656D01*
X155080859Y-82086066D01*
X155063503Y-82083275D01*
X155045707Y-82081281D01*
X155027470Y-82080084D01*
X155008792Y-82079685D01*
X154990714Y-82080083D01*
X154973056Y-82081277D01*
X154955818Y-82083266D01*
X154939000Y-82086051D01*
X154922601Y-82089632D01*
X154906622Y-82094008D01*
X154891063Y-82099180D01*
X154875924Y-82105148D01*
X154861205Y-82111911D01*
X154846905Y-82119470D01*
X154833025Y-82127825D01*
X154819565Y-82136976D01*
X154806525Y-82146922D01*
X154793904Y-82157664D01*
X154781703Y-82169201D01*
X154769923Y-82181535D01*
X154758684Y-82194589D01*
X154748170Y-82208291D01*
X154738381Y-82222639D01*
X154729317Y-82237634D01*
X154720979Y-82253276D01*
X154713365Y-82269565D01*
X154706477Y-82286501D01*
X154700313Y-82304084D01*
X154694875Y-82322313D01*
X154690162Y-82341189D01*
X154688077Y-82350870D01*
X154686174Y-82360713D01*
X154684452Y-82370717D01*
X154682911Y-82380883D01*
X154681551Y-82391210D01*
X154680549Y-82400132D01*
X154680373Y-82401700D01*
X154679376Y-82412351D01*
X154678560Y-82423163D01*
X154677926Y-82434138D01*
X154677473Y-82445274D01*
X154677201Y-82456572D01*
X154677110Y-82468032D01*
X154428276Y-82468032D01*
X154433225Y-82466106D01*
X154444784Y-82461199D01*
X154451674Y-82458018D01*
X154461297Y-82453133D01*
X154470473Y-82447914D01*
X154479203Y-82442360D01*
X154487486Y-82436471D01*
X154495323Y-82430247D01*
X154502713Y-82423688D01*
X154509657Y-82416795D01*
X154518221Y-82407082D01*
X154525991Y-82396774D01*
X154531297Y-82388653D01*
X154537651Y-82377395D01*
X154543158Y-82365846D01*
X154547818Y-82354008D01*
X154551631Y-82341880D01*
X154554596Y-82329462D01*
X154556714Y-82316754D01*
X154557746Y-82307032D01*
X154558302Y-82297147D01*
X154558408Y-82290467D01*
X154558061Y-82278366D01*
X154557019Y-82266485D01*
X154555283Y-82254827D01*
X154552852Y-82243389D01*
X154549726Y-82232173D01*
X154545906Y-82221178D01*
X154541391Y-82210405D01*
X154536182Y-82199853D01*
X154530370Y-82189637D01*
X154524046Y-82179871D01*
X154517211Y-82170555D01*
X154509865Y-82161690D01*
X154502007Y-82153275D01*
X154493638Y-82145310D01*
X154484758Y-82137796D01*
X154475366Y-82130732D01*
X154465846Y-82124183D01*
X154455302Y-82117967D01*
X154446127Y-82113235D01*
X154436296Y-82108716D01*
X154425809Y-82104411D01*
X154414666Y-82100320D01*
X154402866Y-82096443D01*
X154396719Y-82094584D01*
X154387315Y-82091922D01*
X154377786Y-82089521D01*
X154368132Y-82087382D01*
X154358354Y-82085505D01*
X154348452Y-82083890D01*
X154338425Y-82082537D01*
X154328273Y-82081446D01*
X154317997Y-82080617D01*
X154307596Y-82080049D01*
X154297071Y-82079744D01*
X154289985Y-82079685D01*
X154279322Y-82079781D01*
X154268824Y-82080067D01*
X154258492Y-82080544D01*
X154248327Y-82081212D01*
X154238327Y-82082071D01*
X154228493Y-82083120D01*
X154214054Y-82085052D01*
X154199989Y-82087413D01*
X154186296Y-82090204D01*
X154172978Y-82093424D01*
X154160033Y-82097073D01*
X154147461Y-82101152D01*
X154139288Y-82104110D01*
X154127404Y-82108842D01*
X154116118Y-82113879D01*
X154105428Y-82119220D01*
X154095335Y-82124867D01*
X154085839Y-82130818D01*
X154076940Y-82137074D01*
X154068637Y-82143635D01*
X154060931Y-82150501D01*
X154053822Y-82157671D01*
X154047310Y-82165147D01*
X154043300Y-82170300D01*
X154037656Y-82178380D01*
X154032355Y-82186958D01*
X154027398Y-82196034D01*
X154022784Y-82205608D01*
X154018513Y-82215680D01*
X154014586Y-82226250D01*
X154011003Y-82237318D01*
X154007763Y-82248885D01*
X154004866Y-82260949D01*
X154002313Y-82273511D01*
X154000802Y-82282163D01*
X154121702Y-82298527D01*
X154123490Y-82288390D01*
X154125832Y-82278678D01*
X154129816Y-82266389D01*
X154134785Y-82254856D01*
X154140739Y-82244079D01*
X154147677Y-82234057D01*
X154155599Y-82224791D01*
X154164507Y-82216281D01*
X154169329Y-82212309D01*
X154179729Y-82205039D01*
X154191143Y-82198739D01*
X154200370Y-82194649D01*
X154210169Y-82191105D01*
X154220538Y-82188106D01*
X154231478Y-82185653D01*
X154242989Y-82183744D01*
X154255071Y-82182381D01*
X154267724Y-82181563D01*
X154280948Y-82181290D01*
X154291413Y-82181401D01*
X154301495Y-82181733D01*
X154315904Y-82182646D01*
X154329453Y-82184057D01*
X154342145Y-82185966D01*
X154353977Y-82188374D01*
X154364951Y-82191279D01*
X154375066Y-82194682D01*
X154384322Y-82198583D01*
X154395328Y-82204559D01*
X154402581Y-82209623D01*
X154411111Y-82216858D01*
X154418503Y-82224399D01*
X154424758Y-82232246D01*
X154430977Y-82242483D01*
X154435420Y-82253197D01*
X154438085Y-82264388D01*
X154438973Y-82276057D01*
X154438249Y-82286402D01*
X154436075Y-82296279D01*
X154432452Y-82305689D01*
X154427380Y-82314632D01*
X154423830Y-82319532D01*
X154416387Y-82327967D01*
X154408705Y-82334676D01*
X154399821Y-82340904D01*
X154389734Y-82346651D01*
X154380411Y-82351074D01*
X154376447Y-82352749D01*
X154366953Y-82355949D01*
X154355172Y-82359586D01*
X154343213Y-82363132D01*
X154332767Y-82366161D01*
X154321054Y-82369509D01*
X154308075Y-82373174D01*
X154293829Y-82377157D01*
X154283628Y-82379988D01*
X154272864Y-82382961D01*
X154267271Y-82384501D01*
X154251186Y-82388847D01*
X154235721Y-82393095D01*
X154220877Y-82397243D01*
X154206653Y-82401292D01*
X154193049Y-82405242D01*
X154180065Y-82409093D01*
X154167701Y-82412844D01*
X154155957Y-82416496D01*
X154144834Y-82420049D01*
X154134330Y-82423503D01*
X154124447Y-82426858D01*
X154115184Y-82430113D01*
X154102452Y-82434810D01*
X154091115Y-82439283D01*
X154084333Y-82442142D01*
X154074776Y-82446533D01*
X154065614Y-82451281D01*
X154056847Y-82456385D01*
X154048475Y-82461845D01*
X154040498Y-82467662D01*
X154032916Y-82473835D01*
X154023421Y-82482620D01*
X154014628Y-82492039D01*
X154006538Y-82502091D01*
X154002756Y-82507355D01*
X153995829Y-82518365D01*
X153991240Y-82527048D01*
X153987171Y-82536096D01*
X153983621Y-82545509D01*
X153980591Y-82555287D01*
X153978080Y-82565430D01*
X153976088Y-82575938D01*
X153974617Y-82586811D01*
X153973664Y-82598049D01*
X153973231Y-82609652D01*
X153973202Y-82613600D01*
X153807361Y-82613600D01*
X153807361Y-82193014D01*
X153898220Y-82193014D01*
X153898220Y-82095317D01*
X153807361Y-82095317D01*
X153807361Y-81917997D01*
X153684507Y-81845212D01*
X153684507Y-82095317D01*
X153560188Y-82095317D01*
X153560188Y-82193014D01*
X153684507Y-82193014D01*
X153684507Y-82628988D01*
X153684452Y-82638813D01*
X153684203Y-82650851D01*
X153683757Y-82661676D01*
X153682920Y-82673501D01*
X153681772Y-82683429D01*
X153679645Y-82694143D01*
X153678157Y-82698597D01*
X153673248Y-82707618D01*
X153666765Y-82715446D01*
X153658708Y-82722081D01*
X153656908Y-82723265D01*
X153647523Y-82727634D01*
X153637493Y-82730317D01*
X153627416Y-82731738D01*
X153616122Y-82732294D01*
X153614410Y-82732302D01*
X153603327Y-82731325D01*
X153592278Y-82728868D01*
X153581802Y-82725570D01*
X153572364Y-82721983D01*
X153562281Y-82717633D01*
X153560188Y-82716671D01*
X153542358Y-82830000D01*
X153034577Y-82830000D01*
X153034577Y-81813949D01*
X155269399Y-81813949D01*
X155269399Y-81931186D01*
X155602546Y-81931186D01*
X155602546Y-82830000D01*
X155735903Y-82830000D01*
X155735903Y-82468032D01*
X156518701Y-82468032D01*
X156518770Y-82478038D01*
X156518932Y-82488790D01*
X156519131Y-82498972D01*
X156519190Y-82501737D01*
X157063363Y-82501737D01*
X157062296Y-82516208D01*
X157060806Y-82530249D01*
X157058892Y-82543860D01*
X157056555Y-82557043D01*
X157053794Y-82569796D01*
X157050609Y-82582120D01*
X157047001Y-82594014D01*
X157042969Y-82605479D01*
X157038513Y-82616515D01*
X157033634Y-82627121D01*
X157028331Y-82637299D01*
X157022605Y-82647046D01*
X157016455Y-82656365D01*
X157009881Y-82665254D01*
X157002884Y-82673714D01*
X156995463Y-82681744D01*
X156987683Y-82689286D01*
X156979668Y-82696341D01*
X156971418Y-82702910D01*
X156962933Y-82708992D01*
X156954214Y-82714588D01*
X156945260Y-82719697D01*
X156936071Y-82724320D01*
X156926648Y-82728456D01*
X156916990Y-82732105D01*
X156907097Y-82735268D01*
X156896970Y-82737944D01*
X156886607Y-82740133D01*
X156876011Y-82741836D01*
X156865179Y-82743053D01*
X156854113Y-82743783D01*
X156842812Y-82744026D01*
X156830254Y-82743715D01*
X156818045Y-82742781D01*
X156806183Y-82741225D01*
X156794669Y-82739046D01*
X156783503Y-82736244D01*
X156772684Y-82732820D01*
X156762214Y-82728774D01*
X156752091Y-82724105D01*
X156742315Y-82718813D01*
X156732888Y-82712899D01*
X156726796Y-82708611D01*
X156717951Y-82701599D01*
X156709457Y-82693845D01*
X156701315Y-82685347D01*
X156693526Y-82676107D01*
X156686088Y-82666125D01*
X156679003Y-82655399D01*
X156672270Y-82643931D01*
X156665888Y-82631720D01*
X156659859Y-82618766D01*
X156656035Y-82609718D01*
X156652368Y-82600339D01*
X156650592Y-82595526D01*
X156522609Y-82611158D01*
X156526596Y-82624885D01*
X156530986Y-82638223D01*
X156535778Y-82651172D01*
X156540973Y-82663731D01*
X156546571Y-82675901D01*
X156552571Y-82687682D01*
X156558974Y-82699074D01*
X156565779Y-82710076D01*
X156572987Y-82720689D01*
X156580598Y-82730913D01*
X156588611Y-82740748D01*
X156597027Y-82750193D01*
X156605845Y-82759249D01*
X156615067Y-82767916D01*
X156624690Y-82776194D01*
X156634717Y-82784082D01*
X156645121Y-82791535D01*
X156655878Y-82798507D01*
X156666988Y-82804999D01*
X156678451Y-82811010D01*
X156690268Y-82816539D01*
X156702437Y-82821588D01*
X156714959Y-82826156D01*
X156727834Y-82830244D01*
X156741063Y-82833850D01*
X156754644Y-82836976D01*
X156768578Y-82839620D01*
X156782865Y-82841784D01*
X156797506Y-82843467D01*
X156812499Y-82844669D01*
X156827845Y-82845391D01*
X156843544Y-82845631D01*
X156853478Y-82845534D01*
X156863283Y-82845245D01*
X156882505Y-82844085D01*
X156901209Y-82842153D01*
X156919397Y-82839449D01*
X156937067Y-82835971D01*
X156954221Y-82831721D01*
X156970857Y-82826697D01*
X156986976Y-82820901D01*
X157002578Y-82814333D01*
X157017663Y-82806991D01*
X157032231Y-82798877D01*
X157046281Y-82789989D01*
X157059815Y-82780329D01*
X157072831Y-82769897D01*
X157085330Y-82758691D01*
X157097313Y-82746713D01*
X157108670Y-82734006D01*
X157119295Y-82720678D01*
X157129186Y-82706727D01*
X157138345Y-82692155D01*
X157146772Y-82676960D01*
X157154465Y-82661144D01*
X157161426Y-82644705D01*
X157167655Y-82627644D01*
X157173150Y-82609962D01*
X157177913Y-82591657D01*
X157181943Y-82572730D01*
X157183683Y-82563033D01*
X157185240Y-82553181D01*
X157186614Y-82543173D01*
X157187805Y-82533010D01*
X157188812Y-82522691D01*
X157189636Y-82512217D01*
X157190278Y-82501587D01*
X157190736Y-82490802D01*
X157191010Y-82479861D01*
X157191102Y-82468764D01*
X157191009Y-82457289D01*
X157190732Y-82445976D01*
X157190269Y-82434825D01*
X157189621Y-82423835D01*
X157188788Y-82413007D01*
X157187770Y-82402341D01*
X157186567Y-82391836D01*
X157185179Y-82381493D01*
X157183606Y-82371312D01*
X157181847Y-82361293D01*
X157179904Y-82351435D01*
X157177775Y-82341739D01*
X157175462Y-82332205D01*
X157170279Y-82313621D01*
X157164356Y-82295685D01*
X157157693Y-82278395D01*
X157150289Y-82261752D01*
X157142146Y-82245756D01*
X157133261Y-82230407D01*
X157123636Y-82215705D01*
X157113271Y-82201649D01*
X157102166Y-82188241D01*
X157096336Y-82181779D01*
X157084270Y-82169416D01*
X157071763Y-82157851D01*
X157058815Y-82147083D01*
X157045426Y-82137113D01*
X157031597Y-82127941D01*
X157017327Y-82119566D01*
X157002616Y-82111988D01*
X156987464Y-82105209D01*
X156971872Y-82099227D01*
X156955839Y-82094042D01*
X156939365Y-82089656D01*
X156922450Y-82086066D01*
X156905094Y-82083275D01*
X156887298Y-82081281D01*
X156869061Y-82080084D01*
X156850383Y-82079685D01*
X156832305Y-82080083D01*
X156814647Y-82081277D01*
X156797409Y-82083266D01*
X156780591Y-82086051D01*
X156764192Y-82089632D01*
X156748213Y-82094008D01*
X156732654Y-82099180D01*
X156717515Y-82105148D01*
X156702796Y-82111911D01*
X156688496Y-82119470D01*
X156674616Y-82127825D01*
X156661156Y-82136976D01*
X156648116Y-82146922D01*
X156635495Y-82157664D01*
X156623295Y-82169201D01*
X156611514Y-82181535D01*
X156600275Y-82194589D01*
X156589761Y-82208291D01*
X156579972Y-82222639D01*
X156570908Y-82237634D01*
X156562570Y-82253276D01*
X156554956Y-82269565D01*
X156548068Y-82286501D01*
X156541904Y-82304084D01*
X156536466Y-82322313D01*
X156531753Y-82341189D01*
X156529668Y-82350870D01*
X156527765Y-82360713D01*
X156526043Y-82370717D01*
X156524502Y-82380883D01*
X156523143Y-82391210D01*
X156522140Y-82400132D01*
X156521964Y-82401700D01*
X156520967Y-82412351D01*
X156520152Y-82423163D01*
X156519517Y-82434138D01*
X156519064Y-82445274D01*
X156518792Y-82456572D01*
X156518701Y-82468032D01*
X155735903Y-82468032D01*
X155735903Y-81931186D01*
X156067585Y-81931186D01*
X156067585Y-81813949D01*
X157339602Y-81813949D01*
X157339602Y-82830000D01*
X157463433Y-82830000D01*
X157463433Y-82095317D01*
X157650523Y-82095317D01*
X157650523Y-82830000D01*
X157761165Y-82830000D01*
X157761165Y-82722777D01*
X157772058Y-82737654D01*
X157783429Y-82751571D01*
X157795277Y-82764528D01*
X157807601Y-82776526D01*
X157820403Y-82787563D01*
X157833682Y-82797641D01*
X157847438Y-82806759D01*
X157861671Y-82814918D01*
X157876381Y-82822116D01*
X157891567Y-82828355D01*
X157907231Y-82833634D01*
X157923372Y-82837953D01*
X157939991Y-82841312D01*
X157957086Y-82843711D01*
X157974658Y-82845151D01*
X157992707Y-82845631D01*
X158004722Y-82845412D01*
X158016586Y-82844755D01*
X158028301Y-82843660D01*
X158039865Y-82842128D01*
X158051279Y-82840157D01*
X158062542Y-82837748D01*
X158073656Y-82834902D01*
X158084619Y-82831618D01*
X158095431Y-82827895D01*
X158106094Y-82823735D01*
X158113119Y-82820718D01*
X158123355Y-82815936D01*
X158133088Y-82810929D01*
X158142320Y-82805700D01*
X158151049Y-82800248D01*
X158159276Y-82794572D01*
X158169463Y-82786657D01*
X158178758Y-82778345D01*
X158187159Y-82769636D01*
X158194668Y-82760531D01*
X158196405Y-82758192D01*
X158202931Y-82748525D01*
X158208953Y-82738332D01*
X158214472Y-82727612D01*
X158219486Y-82716366D01*
X158223997Y-82704592D01*
X158228004Y-82692292D01*
X158230679Y-82682722D01*
X158233071Y-82672855D01*
X158234507Y-82666113D01*
X158236282Y-82656282D01*
X158237820Y-82645108D01*
X158239121Y-82632590D01*
X158239942Y-82622321D01*
X158240630Y-82611295D01*
X158241184Y-82599514D01*
X158241606Y-82586978D01*
X158241894Y-82573686D01*
X158242049Y-82559638D01*
X158242079Y-82549853D01*
X158242079Y-82095317D01*
X158118248Y-82095317D01*
X158118248Y-82503203D01*
X158118218Y-82515166D01*
X158118129Y-82526631D01*
X158117982Y-82537598D01*
X158117775Y-82548067D01*
X158117508Y-82558038D01*
X158116998Y-82572061D01*
X158116355Y-82584963D01*
X158115578Y-82596744D01*
X158114669Y-82607406D01*
X158113249Y-82619877D01*
X158111593Y-82630357D01*
X158110676Y-82634849D01*
X158107394Y-82646794D01*
X158103288Y-82658083D01*
X158098357Y-82668715D01*
X158092602Y-82678691D01*
X158086023Y-82688010D01*
X158078619Y-82696673D01*
X158070391Y-82704680D01*
X158061339Y-82712030D01*
X158051596Y-82718613D01*
X158041296Y-82724319D01*
X158030439Y-82729146D01*
X158019024Y-82733096D01*
X158007052Y-82736168D01*
X157994523Y-82738363D01*
X157984761Y-82739432D01*
X157974685Y-82740008D01*
X157967794Y-82740118D01*
X157957457Y-82739867D01*
X157947235Y-82739113D01*
X157937129Y-82737858D01*
X157927139Y-82736100D01*
X157917265Y-82733839D01*
X157907507Y-82731076D01*
X157897865Y-82727811D01*
X157888339Y-82724044D01*
X157878929Y-82719774D01*
X157869634Y-82715002D01*
X157863502Y-82711542D01*
X157854595Y-82705955D01*
X157846189Y-82700004D01*
X157838286Y-82693688D01*
X157830885Y-82687007D01*
X157823986Y-82679961D01*
X157817590Y-82672550D01*
X157809842Y-82662101D01*
X157804618Y-82653838D01*
X157799896Y-82645211D01*
X157795677Y-82636218D01*
X157794382Y-82633140D01*
X157790759Y-82623450D01*
X157787492Y-82612975D01*
X157784582Y-82601715D01*
X157782028Y-82589668D01*
X157779831Y-82576836D01*
X157777990Y-82563219D01*
X157776505Y-82548815D01*
X157775713Y-82538776D01*
X157775080Y-82528388D01*
X157774605Y-82517651D01*
X157774288Y-82506565D01*
X157774129Y-82495129D01*
X157774110Y-82489281D01*
X157774110Y-82095317D01*
X157650523Y-82095317D01*
X157463433Y-82095317D01*
X157463433Y-81813949D01*
X158429902Y-81813949D01*
X158429902Y-82473405D01*
X158429902Y-82830000D01*
X158544452Y-82830000D01*
X158544452Y-82737920D01*
X158553406Y-82750963D01*
X158562869Y-82763165D01*
X158572839Y-82774525D01*
X158583317Y-82785044D01*
X158594302Y-82794721D01*
X158605795Y-82803556D01*
X158617795Y-82811551D01*
X158630303Y-82818703D01*
X158643318Y-82825014D01*
X158656841Y-82830484D01*
X158670872Y-82835112D01*
X158685410Y-82838899D01*
X158700456Y-82841844D01*
X158716009Y-82843948D01*
X158732070Y-82845210D01*
X158748639Y-82845631D01*
X158759483Y-82845442D01*
X158770220Y-82844875D01*
X158780847Y-82843931D01*
X158791366Y-82842609D01*
X158801776Y-82840908D01*
X158812077Y-82838830D01*
X158822269Y-82836375D01*
X158832353Y-82833541D01*
X158842328Y-82830330D01*
X158852194Y-82826740D01*
X158861951Y-82822773D01*
X158871600Y-82818428D01*
X158881139Y-82813706D01*
X158890570Y-82808605D01*
X158899893Y-82803127D01*
X158909106Y-82797271D01*
X158918107Y-82791077D01*
X158926852Y-82784586D01*
X158935341Y-82777796D01*
X158943575Y-82770710D01*
X158951553Y-82763325D01*
X158959275Y-82755643D01*
X158966742Y-82747663D01*
X158973953Y-82739385D01*
X158980908Y-82730810D01*
X158987607Y-82721937D01*
X158994051Y-82712767D01*
X159000239Y-82703299D01*
X159006172Y-82693533D01*
X159011848Y-82683469D01*
X159017269Y-82673108D01*
X159022435Y-82662449D01*
X159027285Y-82651510D01*
X159031823Y-82640372D01*
X159036047Y-82629032D01*
X159039959Y-82617493D01*
X159043558Y-82605753D01*
X159046844Y-82593813D01*
X159049817Y-82581672D01*
X159052477Y-82569331D01*
X159054824Y-82556790D01*
X159056858Y-82544048D01*
X159058579Y-82531106D01*
X159059987Y-82517964D01*
X159061082Y-82504621D01*
X159061865Y-82491078D01*
X159062334Y-82477335D01*
X159062491Y-82463391D01*
X159062376Y-82452400D01*
X159158967Y-82452400D01*
X159159022Y-82458262D01*
X159159132Y-82469841D01*
X159159627Y-82486812D01*
X159160452Y-82503310D01*
X159161607Y-82519338D01*
X159163093Y-82534894D01*
X159164908Y-82549979D01*
X159167054Y-82564592D01*
X159169530Y-82578735D01*
X159172336Y-82592406D01*
X159175472Y-82605605D01*
X159178938Y-82618333D01*
X159182734Y-82630590D01*
X159186861Y-82642376D01*
X159191317Y-82653691D01*
X159196104Y-82664534D01*
X159201221Y-82674905D01*
X159206653Y-82684900D01*
X159212387Y-82694613D01*
X159218422Y-82704043D01*
X159224759Y-82713190D01*
X159231398Y-82722056D01*
X159238338Y-82730638D01*
X159245579Y-82738939D01*
X159253122Y-82746957D01*
X159260967Y-82754693D01*
X159269112Y-82762146D01*
X159277560Y-82769317D01*
X159286309Y-82776205D01*
X159295359Y-82782811D01*
X159304711Y-82789135D01*
X159314364Y-82795176D01*
X159324319Y-82800935D01*
X159334452Y-82806347D01*
X159344702Y-82811410D01*
X159355068Y-82816124D01*
X159365550Y-82820489D01*
X159376149Y-82824505D01*
X159386864Y-82828171D01*
X159397696Y-82831489D01*
X159408644Y-82834457D01*
X159419708Y-82837076D01*
X159430889Y-82839346D01*
X159442186Y-82841266D01*
X159453600Y-82842838D01*
X159465130Y-82844060D01*
X159476776Y-82844933D01*
X159488539Y-82845456D01*
X159500418Y-82845631D01*
X159519332Y-82845246D01*
X159537787Y-82844089D01*
X159555785Y-82842162D01*
X159573325Y-82839464D01*
X159590406Y-82835995D01*
X159607030Y-82831755D01*
X159623196Y-82826744D01*
X159638904Y-82820963D01*
X159654154Y-82814410D01*
X159668946Y-82807086D01*
X159683280Y-82798992D01*
X159697156Y-82790127D01*
X159710574Y-82780491D01*
X159723534Y-82770084D01*
X159736036Y-82758906D01*
X159748080Y-82746957D01*
X159759526Y-82734283D01*
X159770234Y-82720930D01*
X159780203Y-82706897D01*
X159789434Y-82692185D01*
X159797926Y-82676794D01*
X159805680Y-82660724D01*
X159812695Y-82643974D01*
X159818972Y-82626545D01*
X159824510Y-82608437D01*
X159829310Y-82589649D01*
X159831433Y-82580001D01*
X159833372Y-82570182D01*
X159835125Y-82560194D01*
X159836695Y-82550036D01*
X159838079Y-82539708D01*
X159839279Y-82529211D01*
X159840295Y-82518543D01*
X159841125Y-82507706D01*
X159841771Y-82496699D01*
X159842233Y-82485522D01*
X159842510Y-82474175D01*
X159842602Y-82462658D01*
X159842492Y-82450045D01*
X159842161Y-82437638D01*
X159841610Y-82425436D01*
X159840839Y-82413440D01*
X159839847Y-82401649D01*
X159838635Y-82390064D01*
X159837203Y-82378684D01*
X159835550Y-82367510D01*
X159833676Y-82356542D01*
X159831583Y-82345779D01*
X159829269Y-82335222D01*
X159826734Y-82324871D01*
X159823979Y-82314725D01*
X159821004Y-82304785D01*
X159817808Y-82295050D01*
X159814392Y-82285521D01*
X159810756Y-82276198D01*
X159806899Y-82267080D01*
X159802822Y-82258168D01*
X159794006Y-82240960D01*
X159784309Y-82224575D01*
X159773730Y-82209012D01*
X159762270Y-82194271D01*
X159749928Y-82180353D01*
X159736704Y-82167258D01*
X159729762Y-82161018D01*
X159717847Y-82151169D01*
X159705609Y-82141956D01*
X159693048Y-82133378D01*
X159680165Y-82125435D01*
X159666960Y-82118128D01*
X159653432Y-82111456D01*
X159639582Y-82105420D01*
X159625409Y-82100019D01*
X159610914Y-82095253D01*
X159596096Y-82091123D01*
X159580956Y-82087628D01*
X159565493Y-82084769D01*
X159549708Y-82082545D01*
X159533601Y-82080956D01*
X159517171Y-82080003D01*
X159500418Y-82079685D01*
X159481826Y-82080073D01*
X159463663Y-82081235D01*
X159445930Y-82083172D01*
X159428626Y-82085883D01*
X159411751Y-82089369D01*
X159395306Y-82093630D01*
X159379290Y-82098666D01*
X159363703Y-82104476D01*
X159348546Y-82111061D01*
X159333818Y-82118421D01*
X159319519Y-82126555D01*
X159305650Y-82135464D01*
X159292210Y-82145148D01*
X159279199Y-82155607D01*
X159266618Y-82166840D01*
X159254465Y-82178848D01*
X159242901Y-82191509D01*
X159232083Y-82204761D01*
X159222011Y-82218604D01*
X159212685Y-82233039D01*
X159204105Y-82248066D01*
X159196271Y-82263684D01*
X159189183Y-82279894D01*
X159182841Y-82296695D01*
X159177246Y-82314088D01*
X159172396Y-82332072D01*
X159168293Y-82350648D01*
X159164935Y-82369815D01*
X159163536Y-82379621D01*
X159162324Y-82389574D01*
X159161298Y-82399676D01*
X159160459Y-82409925D01*
X159159806Y-82420322D01*
X159159340Y-82430867D01*
X159159060Y-82441559D01*
X159158967Y-82452400D01*
X159062376Y-82452400D01*
X159062348Y-82449762D01*
X159061922Y-82436291D01*
X159061211Y-82422979D01*
X159060216Y-82409825D01*
X159058937Y-82396830D01*
X159057373Y-82383993D01*
X159055525Y-82371314D01*
X159053393Y-82358794D01*
X159050976Y-82346432D01*
X159048275Y-82334228D01*
X159045290Y-82322183D01*
X159042020Y-82310297D01*
X159038466Y-82298568D01*
X159034628Y-82286998D01*
X159030505Y-82275586D01*
X159026098Y-82264333D01*
X159021407Y-82253322D01*
X159016432Y-82242637D01*
X159011172Y-82232279D01*
X159005628Y-82222247D01*
X158999799Y-82212541D01*
X158993687Y-82203162D01*
X158987290Y-82194108D01*
X158980608Y-82185382D01*
X158973642Y-82176981D01*
X158966392Y-82168907D01*
X158958858Y-82161159D01*
X158951040Y-82153737D01*
X158942937Y-82146641D01*
X158934549Y-82139872D01*
X158925878Y-82133429D01*
X158916922Y-82127313D01*
X158907756Y-82121545D01*
X158898455Y-82116150D01*
X158889018Y-82111127D01*
X158879446Y-82106476D01*
X158869738Y-82102197D01*
X158859895Y-82098290D01*
X158849916Y-82094755D01*
X158839802Y-82091592D01*
X158829553Y-82088802D01*
X158819167Y-82086383D01*
X158808647Y-82084337D01*
X158797991Y-82082662D01*
X158787199Y-82081360D01*
X158776272Y-82080430D01*
X158765210Y-82079872D01*
X158754012Y-82079685D01*
X158741774Y-82079941D01*
X158729789Y-82080707D01*
X158718057Y-82081985D01*
X158706579Y-82083773D01*
X158695354Y-82086072D01*
X158684383Y-82088882D01*
X158673664Y-82092203D01*
X158663199Y-82096034D01*
X158652988Y-82100377D01*
X158643029Y-82105231D01*
X158636531Y-82108750D01*
X158627038Y-82114311D01*
X158617884Y-82120185D01*
X158609069Y-82126372D01*
X158600593Y-82132873D01*
X158592456Y-82139687D01*
X158584659Y-82146815D01*
X158577201Y-82154256D01*
X158570082Y-82162011D01*
X158563302Y-82170078D01*
X158556861Y-82178460D01*
X158552756Y-82184221D01*
X158552756Y-81813949D01*
X159989392Y-81813949D01*
X159989392Y-82830000D01*
X160117864Y-82830000D01*
X160117864Y-81978080D01*
X160410467Y-82830000D01*
X160530634Y-82830000D01*
X160822016Y-81963670D01*
X160822016Y-82830000D01*
X160950244Y-82830000D01*
X160950244Y-81813949D01*
X160749720Y-81813949D01*
X160511339Y-82534466D01*
X160507287Y-82546847D01*
X160503375Y-82558833D01*
X160499601Y-82570424D01*
X160495967Y-82581620D01*
X160492472Y-82592421D01*
X160489117Y-82602827D01*
X160485901Y-82612838D01*
X160482824Y-82622454D01*
X160478470Y-82636138D01*
X160474429Y-82648933D01*
X160470702Y-82660839D01*
X160467288Y-82671856D01*
X160464187Y-82681985D01*
X160463223Y-82685163D01*
X160459848Y-82674309D01*
X160456134Y-82662535D01*
X160452080Y-82649842D01*
X160447687Y-82636231D01*
X160444570Y-82626646D01*
X160441303Y-82616653D01*
X160437884Y-82606252D01*
X160434315Y-82595442D01*
X160430595Y-82584224D01*
X160426724Y-82572598D01*
X160422703Y-82560563D01*
X160418531Y-82548120D01*
X160414208Y-82535269D01*
X160409734Y-82522009D01*
X160168666Y-81813949D01*
X159989392Y-81813949D01*
X158552756Y-81813949D01*
X158429902Y-81813949D01*
X157463433Y-81813949D01*
X157339602Y-81813949D01*
X156067585Y-81813949D01*
X155269399Y-81813949D01*
X153034577Y-81813949D01*
X152588101Y-81813949D01*
X152571531Y-81814057D01*
X152555464Y-81814380D01*
X152539901Y-81814920D01*
X152524842Y-81815674D01*
X152510287Y-81816645D01*
X152496235Y-81817830D01*
X152482688Y-81819232D01*
X152469643Y-81820849D01*
X152457103Y-81822682D01*
X152445066Y-81824730D01*
X152433534Y-81826994D01*
X152422505Y-81829474D01*
X152411979Y-81832169D01*
X152401958Y-81835080D01*
X152392440Y-81838207D01*
X152383426Y-81841549D01*
X152370531Y-81847049D01*
X152358135Y-81853292D01*
X152346237Y-81860278D01*
X152334837Y-81868007D01*
X152323934Y-81876479D01*
X152313530Y-81885693D01*
X152303624Y-81895650D01*
X152294216Y-81906349D01*
X152285306Y-81917792D01*
X152279643Y-81925833D01*
X152274200Y-81934204D01*
X152271562Y-81938513D01*
X152266475Y-81947271D01*
X152261716Y-81956141D01*
X152257286Y-81965123D01*
X152253183Y-81974218D01*
X152249409Y-81983426D01*
X152245963Y-81992746D01*
X152242845Y-82002179D01*
X152240055Y-82011725D01*
X152237594Y-82021383D01*
X152235460Y-82031154D01*
X152233655Y-82041037D01*
X152232178Y-82051033D01*
X152231030Y-82061141D01*
X152230209Y-82071362D01*
X152229717Y-82081696D01*
X152229553Y-82092142D01*
X152229592Y-82094096D01*
X152229824Y-82105594D01*
X152230637Y-82118780D01*
X152231991Y-82131698D01*
X152233888Y-82144349D01*
X152236327Y-82156733D01*
X152239307Y-82168849D01*
X152242830Y-82180699D01*
X152246894Y-82192281D01*
X152251500Y-82203597D01*
X152256648Y-82214645D01*
X152262338Y-82225426D01*
X152268570Y-82235940D01*
X152275344Y-82246187D01*
X152282660Y-82256166D01*
X152290518Y-82265879D01*
X152298918Y-82275324D01*
X152307883Y-82284394D01*
X152317438Y-82293043D01*
X152327583Y-82301270D01*
X152338317Y-82309075D01*
X152349641Y-82316459D01*
X152361555Y-82323421D01*
X152374058Y-82329961D01*
X152387150Y-82336079D01*
X152400833Y-82341776D01*
X152415105Y-82347051D01*
X152429966Y-82351905D01*
X152445418Y-82356336D01*
X152461458Y-82360346D01*
X152478089Y-82363935D01*
X152495309Y-82367101D01*
X152513119Y-82369846D01*
X152503448Y-82374646D01*
X152494219Y-82379429D01*
X152485433Y-82384194D01*
X152474406Y-82390522D01*
X152464165Y-82396819D01*
X152454710Y-82403085D01*
X152446041Y-82409321D01*
X152438159Y-82415526D01*
X152432763Y-82420160D01*
X152425491Y-82427011D01*
X152418268Y-82434070D01*
X152411096Y-82441338D01*
X152403973Y-82448813D01*
X152396899Y-82456496D01*
X152389875Y-82464387D01*
X152382901Y-82472486D01*
X152375976Y-82480793D01*
X152369101Y-82489308D01*
X152362276Y-82498031D01*
X152355500Y-82506963D01*
X152348774Y-82516102D01*
X152342097Y-82525449D01*
X152335470Y-82535004D01*
X152328893Y-82544767D01*
X152322365Y-82554738D01*
X152146999Y-82830000D01*
X152041486Y-82830000D01*
X152041486Y-82095317D01*
X151917899Y-82095317D01*
X151564988Y-82095317D01*
X151564046Y-82094987D01*
X151553611Y-82091775D01*
X151542980Y-82088942D01*
X151532155Y-82086486D01*
X151521136Y-82084408D01*
X151509922Y-82082708D01*
X151498513Y-82081386D01*
X151486909Y-82080441D01*
X151475111Y-82079874D01*
X151463119Y-82079685D01*
X151447146Y-82080090D01*
X151431527Y-82081304D01*
X151416264Y-82083326D01*
X151401356Y-82086158D01*
X151386802Y-82089799D01*
X151372604Y-82094248D01*
X151358760Y-82099507D01*
X151345271Y-82105575D01*
X151332138Y-82112452D01*
X151319359Y-82120138D01*
X151306935Y-82128633D01*
X151294866Y-82137937D01*
X151283152Y-82148051D01*
X151271793Y-82158973D01*
X151260788Y-82170704D01*
X151250139Y-82183244D01*
X151250139Y-82095317D01*
X151136077Y-82095317D01*
X151136077Y-82454110D01*
X151136077Y-82729616D01*
X150299028Y-82729616D01*
X150650767Y-81813949D01*
X151917899Y-81813949D01*
X151917899Y-81954633D01*
X152041486Y-81954633D01*
X152041486Y-81813949D01*
X151917899Y-81813949D01*
X150650767Y-81813949D01*
X150506419Y-81813949D01*
X150244591Y-82552784D01*
X150240693Y-82563853D01*
X150236875Y-82574834D01*
X150233136Y-82585728D01*
X150229479Y-82596534D01*
X150225901Y-82607252D01*
X150222403Y-82617882D01*
X150218986Y-82628425D01*
X150215648Y-82638879D01*
X150212391Y-82649246D01*
X150209214Y-82659526D01*
X150206117Y-82669717D01*
X150203100Y-82679821D01*
X150200164Y-82689837D01*
X150197307Y-82699765D01*
X150194531Y-82709605D01*
X150191835Y-82719357D01*
X150188875Y-82708947D01*
X150185858Y-82698536D01*
X150182784Y-82688125D01*
X150179653Y-82677714D01*
X150176465Y-82667303D01*
X150173219Y-82656892D01*
X150169916Y-82646482D01*
X150166555Y-82636071D01*
X150163138Y-82625660D01*
X150159663Y-82615249D01*
X150156131Y-82604838D01*
X150152542Y-82594427D01*
X150148896Y-82584016D01*
X150145192Y-82573606D01*
X150141431Y-82563195D01*
X150137613Y-82552784D01*
X149865526Y-81813949D01*
X149729483Y-81813949D01*
X149279343Y-81813949D01*
X149199720Y-81813949D01*
X148831863Y-81813949D01*
X148831863Y-81446092D01*
X161318101Y-81446092D01*
X161318101Y-83494856D01*
G37*
G36*
X163955896Y-86830000D02*
G01*
X163592462Y-86830000D01*
X163581126Y-86829932D01*
X163569954Y-86829729D01*
X163558946Y-86829390D01*
X163548102Y-86828916D01*
X163537422Y-86828306D01*
X163526906Y-86827561D01*
X163516554Y-86826680D01*
X163506367Y-86825664D01*
X163496343Y-86824513D01*
X163486484Y-86823226D01*
X163472002Y-86821041D01*
X163457890Y-86818552D01*
X163444147Y-86815757D01*
X163430774Y-86812658D01*
X163422031Y-86810428D01*
X163409222Y-86806846D01*
X163396778Y-86802980D01*
X163384699Y-86798831D01*
X163372984Y-86794399D01*
X163361635Y-86789684D01*
X163350650Y-86784685D01*
X163340031Y-86779403D01*
X163329776Y-86773837D01*
X163319887Y-86767988D01*
X163310362Y-86761856D01*
X163304165Y-86757545D01*
X163294988Y-86750715D01*
X163285953Y-86743446D01*
X163277059Y-86735739D01*
X163268307Y-86727595D01*
X163259697Y-86719013D01*
X163251228Y-86709992D01*
X163242901Y-86700534D01*
X163234716Y-86690638D01*
X163226673Y-86680304D01*
X163218771Y-86669532D01*
X163216160Y-86665838D01*
X163208509Y-86654397D01*
X163201128Y-86642414D01*
X163194017Y-86629890D01*
X163189427Y-86621241D01*
X163184957Y-86612351D01*
X163180608Y-86603220D01*
X163176378Y-86593849D01*
X163172269Y-86584238D01*
X163168280Y-86574386D01*
X163164411Y-86564294D01*
X163160663Y-86553961D01*
X163157035Y-86543388D01*
X163153526Y-86532575D01*
X163150139Y-86521521D01*
X163146885Y-86510244D01*
X163143842Y-86498760D01*
X163141008Y-86487071D01*
X163138384Y-86475176D01*
X163135971Y-86463074D01*
X163133767Y-86450767D01*
X163131773Y-86438253D01*
X163129988Y-86425533D01*
X163128414Y-86412608D01*
X163127050Y-86399476D01*
X163125896Y-86386138D01*
X163124951Y-86372594D01*
X163124216Y-86358844D01*
X163123692Y-86344887D01*
X163123377Y-86330725D01*
X163123272Y-86316357D01*
X163123290Y-86314403D01*
X163260536Y-86314403D01*
X163260640Y-86328740D01*
X163260952Y-86342808D01*
X163261472Y-86356606D01*
X163262200Y-86370136D01*
X163263136Y-86383397D01*
X163264280Y-86396388D01*
X163265632Y-86409111D01*
X163267192Y-86421564D01*
X163268960Y-86433749D01*
X163270936Y-86445664D01*
X163273120Y-86457311D01*
X163275511Y-86468688D01*
X163278111Y-86479796D01*
X163280919Y-86490636D01*
X163283935Y-86501206D01*
X163287159Y-86511507D01*
X163288828Y-86516558D01*
X163292289Y-86526465D01*
X163295915Y-86536112D01*
X163299704Y-86545500D01*
X163303658Y-86554629D01*
X163307776Y-86563498D01*
X163314260Y-86576315D01*
X163321114Y-86588548D01*
X163328337Y-86600198D01*
X163335929Y-86611263D01*
X163343890Y-86621744D01*
X163352220Y-86631642D01*
X163360920Y-86640956D01*
X163365223Y-86645170D01*
X163374367Y-86653237D01*
X163384228Y-86660824D01*
X163394807Y-86667930D01*
X163403212Y-86672944D01*
X163412020Y-86677687D01*
X163421232Y-86682160D01*
X163430848Y-86686363D01*
X163440867Y-86690295D01*
X163451290Y-86693956D01*
X163454873Y-86695113D01*
X163466128Y-86698364D01*
X163478138Y-86701284D01*
X163490903Y-86703874D01*
X163504424Y-86706133D01*
X163518701Y-86708061D01*
X163528639Y-86709163D01*
X163538912Y-86710118D01*
X163549521Y-86710926D01*
X163560467Y-86711588D01*
X163571747Y-86712102D01*
X163583364Y-86712469D01*
X163595317Y-86712689D01*
X163607605Y-86712763D01*
X163822539Y-86712763D01*
X163822539Y-85931186D01*
X163611025Y-85931186D01*
X163596412Y-85931268D01*
X163582311Y-85931514D01*
X163568721Y-85931924D01*
X163555643Y-85932499D01*
X163543076Y-85933237D01*
X163531020Y-85934140D01*
X163519476Y-85935206D01*
X163508443Y-85936437D01*
X163497921Y-85937832D01*
X163487911Y-85939391D01*
X163473855Y-85942037D01*
X163460949Y-85945052D01*
X163449194Y-85948437D01*
X163438589Y-85952191D01*
X163429396Y-85956077D01*
X163420378Y-85960407D01*
X163411536Y-85965182D01*
X163402869Y-85970402D01*
X163394378Y-85976066D01*
X163386062Y-85982175D01*
X163377922Y-85988729D01*
X163369957Y-85995727D01*
X163362168Y-86003170D01*
X163354555Y-86011057D01*
X163347117Y-86019389D01*
X163339854Y-86028165D01*
X163332767Y-86037387D01*
X163325856Y-86047052D01*
X163319120Y-86057163D01*
X163312560Y-86067718D01*
X163306260Y-86078756D01*
X163300367Y-86090379D01*
X163294880Y-86102585D01*
X163289800Y-86115375D01*
X163285126Y-86128750D01*
X163280858Y-86142708D01*
X163276997Y-86157250D01*
X163273542Y-86172376D01*
X163270494Y-86188085D01*
X163267852Y-86204379D01*
X163265617Y-86221257D01*
X163263788Y-86238718D01*
X163262365Y-86256763D01*
X163261349Y-86275393D01*
X163260740Y-86294606D01*
X163260587Y-86304431D01*
X163260536Y-86314403D01*
X163123290Y-86314403D01*
X163123426Y-86299500D01*
X163123890Y-86282880D01*
X163124663Y-86266497D01*
X163125745Y-86250350D01*
X163127136Y-86234440D01*
X163128836Y-86218767D01*
X163130845Y-86203330D01*
X163133164Y-86188129D01*
X163135791Y-86173166D01*
X163138728Y-86158439D01*
X163141974Y-86143948D01*
X163145528Y-86129694D01*
X163149392Y-86115677D01*
X163153566Y-86101896D01*
X163158048Y-86088352D01*
X163162839Y-86075045D01*
X163167913Y-86061973D01*
X163173303Y-86049197D01*
X163179011Y-86036717D01*
X163185035Y-86024532D01*
X163191375Y-86012644D01*
X163198033Y-86001051D01*
X163205007Y-85989754D01*
X163212298Y-85978752D01*
X163219906Y-85968046D01*
X163227831Y-85957637D01*
X163236072Y-85947522D01*
X163244630Y-85937704D01*
X163253505Y-85928181D01*
X163262696Y-85918955D01*
X163272205Y-85910024D01*
X163282030Y-85901388D01*
X163289761Y-85894921D01*
X163297692Y-85888710D01*
X163305820Y-85882755D01*
X163314148Y-85877056D01*
X163322673Y-85871612D01*
X163331397Y-85866423D01*
X163340320Y-85861491D01*
X163349441Y-85856814D01*
X163358760Y-85852393D01*
X163368278Y-85848227D01*
X163377994Y-85844317D01*
X163387909Y-85840663D01*
X163398022Y-85837265D01*
X163408334Y-85834122D01*
X163418844Y-85831235D01*
X163429552Y-85828604D01*
X163437494Y-85826829D01*
X163450222Y-85824382D01*
X163463930Y-85822192D01*
X163473611Y-85820876D01*
X163483728Y-85819674D01*
X163494281Y-85818586D01*
X163505268Y-85817613D01*
X163516690Y-85816754D01*
X163528547Y-85816010D01*
X163540839Y-85815380D01*
X163553567Y-85814865D01*
X163566729Y-85814464D01*
X163580327Y-85814178D01*
X163594359Y-85814007D01*
X163608827Y-85813949D01*
X163955896Y-85813949D01*
X163955896Y-86830000D01*
G37*
G36*
X162680575Y-86080084D02*
G01*
X162698812Y-86081281D01*
X162716608Y-86083275D01*
X162733964Y-86086066D01*
X162750879Y-86089656D01*
X162767353Y-86094042D01*
X162783386Y-86099227D01*
X162798978Y-86105209D01*
X162814130Y-86111988D01*
X162828841Y-86119566D01*
X162843111Y-86127941D01*
X162856940Y-86137113D01*
X162870329Y-86147083D01*
X162883276Y-86157851D01*
X162895783Y-86169416D01*
X162907850Y-86181779D01*
X162913680Y-86188241D01*
X162924785Y-86201649D01*
X162935150Y-86215705D01*
X162944775Y-86230407D01*
X162953659Y-86245756D01*
X162961803Y-86261752D01*
X162969207Y-86278395D01*
X162975870Y-86295685D01*
X162981793Y-86313621D01*
X162986976Y-86332205D01*
X162989289Y-86341739D01*
X162991418Y-86351435D01*
X162993361Y-86361293D01*
X162995120Y-86371312D01*
X162996693Y-86381493D01*
X162998081Y-86391836D01*
X162999284Y-86402341D01*
X163000302Y-86413007D01*
X163001135Y-86423835D01*
X163001783Y-86434825D01*
X163002246Y-86445976D01*
X163002523Y-86457289D01*
X163002616Y-86468764D01*
X163002524Y-86479861D01*
X163002249Y-86490802D01*
X163001792Y-86501587D01*
X163001150Y-86512217D01*
X163000326Y-86522691D01*
X162999319Y-86533010D01*
X162998128Y-86543173D01*
X162996754Y-86553181D01*
X162995197Y-86563033D01*
X162993457Y-86572730D01*
X162989427Y-86591657D01*
X162984664Y-86609962D01*
X162979169Y-86627644D01*
X162972940Y-86644705D01*
X162965979Y-86661144D01*
X162958286Y-86676960D01*
X162949859Y-86692155D01*
X162940700Y-86706727D01*
X162930808Y-86720678D01*
X162920184Y-86734006D01*
X162908827Y-86746713D01*
X162896844Y-86758691D01*
X162884345Y-86769897D01*
X162871329Y-86780329D01*
X162857795Y-86789989D01*
X162843744Y-86798877D01*
X162829177Y-86806991D01*
X162814092Y-86814333D01*
X162798490Y-86820901D01*
X162782371Y-86826697D01*
X162765735Y-86831721D01*
X162748581Y-86835971D01*
X162730911Y-86839449D01*
X162712723Y-86842153D01*
X162694019Y-86844085D01*
X162674797Y-86845245D01*
X162664992Y-86845534D01*
X162655058Y-86845631D01*
X162639359Y-86845391D01*
X162624013Y-86844669D01*
X162609019Y-86843467D01*
X162594379Y-86841784D01*
X162580092Y-86839620D01*
X162566158Y-86836976D01*
X162552576Y-86833850D01*
X162539348Y-86830244D01*
X162526473Y-86826156D01*
X162513951Y-86821588D01*
X162501782Y-86816539D01*
X162489965Y-86811010D01*
X162478502Y-86804999D01*
X162467392Y-86798507D01*
X162456635Y-86791535D01*
X162446231Y-86784082D01*
X162436204Y-86776194D01*
X162426581Y-86767916D01*
X162417359Y-86759249D01*
X162408541Y-86750193D01*
X162400125Y-86740748D01*
X162392112Y-86730913D01*
X162384501Y-86720689D01*
X162377293Y-86710076D01*
X162370488Y-86699074D01*
X162364085Y-86687682D01*
X162358085Y-86675901D01*
X162352487Y-86663731D01*
X162347292Y-86651172D01*
X162342500Y-86638223D01*
X162338110Y-86624885D01*
X162334123Y-86611158D01*
X162462106Y-86595526D01*
X162463881Y-86600339D01*
X162467549Y-86609718D01*
X162471373Y-86618766D01*
X162477402Y-86631720D01*
X162483783Y-86643931D01*
X162490517Y-86655399D01*
X162497602Y-86666125D01*
X162505040Y-86676107D01*
X162512829Y-86685347D01*
X162520971Y-86693845D01*
X162529464Y-86701599D01*
X162538310Y-86708611D01*
X162544402Y-86712899D01*
X162553829Y-86718813D01*
X162563605Y-86724105D01*
X162573728Y-86728774D01*
X162584198Y-86732820D01*
X162595017Y-86736244D01*
X162606183Y-86739046D01*
X162617697Y-86741225D01*
X162629559Y-86742781D01*
X162641768Y-86743715D01*
X162654326Y-86744026D01*
X162665627Y-86743783D01*
X162676693Y-86743053D01*
X162687524Y-86741836D01*
X162698121Y-86740133D01*
X162708484Y-86737944D01*
X162718611Y-86735268D01*
X162728504Y-86732105D01*
X162738162Y-86728456D01*
X162747585Y-86724320D01*
X162756774Y-86719697D01*
X162765728Y-86714588D01*
X162774447Y-86708992D01*
X162782932Y-86702910D01*
X162791182Y-86696341D01*
X162799197Y-86689286D01*
X162806977Y-86681744D01*
X162814398Y-86673714D01*
X162821395Y-86665254D01*
X162827969Y-86656365D01*
X162834119Y-86647046D01*
X162839845Y-86637299D01*
X162845148Y-86627121D01*
X162850027Y-86616515D01*
X162854483Y-86605479D01*
X162858514Y-86594014D01*
X162862123Y-86582120D01*
X162865307Y-86569796D01*
X162868069Y-86557043D01*
X162870406Y-86543860D01*
X162872320Y-86530249D01*
X162873810Y-86516208D01*
X162874877Y-86501737D01*
X162330704Y-86501737D01*
X162330645Y-86498972D01*
X162330446Y-86488790D01*
X162330284Y-86478038D01*
X162330215Y-86468032D01*
X162330306Y-86456572D01*
X162330578Y-86445274D01*
X162331031Y-86434138D01*
X162331665Y-86423163D01*
X162332481Y-86412351D01*
X162333478Y-86401700D01*
X162333654Y-86400132D01*
X162460641Y-86400132D01*
X162868038Y-86400132D01*
X162867043Y-86387832D01*
X162865645Y-86375845D01*
X162863845Y-86364171D01*
X162861642Y-86352810D01*
X162859036Y-86341762D01*
X162856028Y-86331027D01*
X162852617Y-86320604D01*
X162848804Y-86310495D01*
X162844588Y-86300699D01*
X162839969Y-86291215D01*
X162834948Y-86282044D01*
X162829524Y-86273187D01*
X162823697Y-86264642D01*
X162817468Y-86256410D01*
X162810837Y-86248492D01*
X162803802Y-86240886D01*
X162800143Y-86237219D01*
X162792665Y-86230235D01*
X162784975Y-86223717D01*
X162777073Y-86217665D01*
X162768960Y-86212077D01*
X162760634Y-86206956D01*
X162747749Y-86200147D01*
X162734388Y-86194385D01*
X162720550Y-86189671D01*
X162711060Y-86187110D01*
X162701358Y-86185015D01*
X162691444Y-86183386D01*
X162681318Y-86182222D01*
X162670981Y-86181523D01*
X162660432Y-86181290D01*
X162648814Y-86181582D01*
X162637469Y-86182458D01*
X162626397Y-86183918D01*
X162615598Y-86185962D01*
X162605071Y-86188589D01*
X162594818Y-86191801D01*
X162584837Y-86195596D01*
X162575130Y-86199975D01*
X162565695Y-86204938D01*
X162556533Y-86210485D01*
X162547644Y-86216616D01*
X162539028Y-86223331D01*
X162530684Y-86230629D01*
X162522614Y-86238512D01*
X162514816Y-86246978D01*
X162507291Y-86256029D01*
X162500365Y-86265430D01*
X162493968Y-86275681D01*
X162488098Y-86286782D01*
X162482756Y-86298733D01*
X162477943Y-86311534D01*
X162473657Y-86325186D01*
X162471094Y-86334759D01*
X162468765Y-86344710D01*
X162466671Y-86355039D01*
X162464811Y-86365745D01*
X162463186Y-86376830D01*
X162461796Y-86388292D01*
X162460641Y-86400132D01*
X162333654Y-86400132D01*
X162334656Y-86391210D01*
X162336016Y-86380883D01*
X162337557Y-86370717D01*
X162339279Y-86360713D01*
X162341182Y-86350870D01*
X162343267Y-86341189D01*
X162347980Y-86322313D01*
X162353418Y-86304084D01*
X162359582Y-86286501D01*
X162366470Y-86269565D01*
X162374084Y-86253276D01*
X162382422Y-86237634D01*
X162391486Y-86222639D01*
X162401275Y-86208291D01*
X162411789Y-86194589D01*
X162423028Y-86181535D01*
X162434808Y-86169201D01*
X162447009Y-86157664D01*
X162459630Y-86146922D01*
X162472670Y-86136976D01*
X162486130Y-86127825D01*
X162500010Y-86119470D01*
X162514310Y-86111911D01*
X162529029Y-86105148D01*
X162544168Y-86099180D01*
X162559727Y-86094008D01*
X162575706Y-86089632D01*
X162592105Y-86086051D01*
X162608923Y-86083266D01*
X162626161Y-86081277D01*
X162643819Y-86080083D01*
X162661897Y-86079685D01*
X162680575Y-86080084D01*
G37*
G36*
X162232274Y-86614577D02*
G01*
X162109908Y-86595526D01*
X162107663Y-86608696D01*
X162104773Y-86621278D01*
X162101240Y-86633271D01*
X162097063Y-86644676D01*
X162092241Y-86655493D01*
X162086776Y-86665722D01*
X162080666Y-86675363D01*
X162073913Y-86684415D01*
X162066516Y-86692880D01*
X162058474Y-86700756D01*
X162052755Y-86705680D01*
X162043588Y-86712533D01*
X162033765Y-86718712D01*
X162023284Y-86724216D01*
X162012146Y-86729047D01*
X162000352Y-86733204D01*
X161987900Y-86736686D01*
X161974792Y-86739495D01*
X161961027Y-86741629D01*
X161946605Y-86743090D01*
X161936625Y-86743689D01*
X161926354Y-86743989D01*
X161921109Y-86744026D01*
X161910625Y-86743890D01*
X161900485Y-86743480D01*
X161890689Y-86742798D01*
X161876638Y-86741263D01*
X161863360Y-86739114D01*
X161850855Y-86736352D01*
X161839123Y-86732975D01*
X161828164Y-86728984D01*
X161817977Y-86724380D01*
X161808563Y-86719161D01*
X161799922Y-86713329D01*
X161794591Y-86709099D01*
X161787214Y-86702397D01*
X161778507Y-86693128D01*
X161771090Y-86683476D01*
X161764963Y-86673443D01*
X161760126Y-86663029D01*
X161756579Y-86652232D01*
X161754321Y-86641054D01*
X161753354Y-86629495D01*
X161753314Y-86626545D01*
X161753886Y-86616260D01*
X161755603Y-86606533D01*
X161759360Y-86595156D01*
X161764906Y-86584651D01*
X161772240Y-86575016D01*
X161779396Y-86567935D01*
X161787696Y-86561411D01*
X161789950Y-86559867D01*
X161799731Y-86554456D01*
X161810208Y-86549810D01*
X161819614Y-86546140D01*
X161830347Y-86542311D01*
X161842406Y-86538323D01*
X161855792Y-86534176D01*
X161865453Y-86531324D01*
X161875703Y-86528400D01*
X161886544Y-86525406D01*
X161897973Y-86522342D01*
X161909993Y-86519207D01*
X161916224Y-86517613D01*
X161932903Y-86513344D01*
X161948929Y-86509148D01*
X161964303Y-86505025D01*
X161979025Y-86500974D01*
X161993093Y-86496995D01*
X162006510Y-86493089D01*
X162019273Y-86489256D01*
X162031384Y-86485495D01*
X162042843Y-86481807D01*
X162053648Y-86478191D01*
X162063802Y-86474647D01*
X162073302Y-86471176D01*
X162086330Y-86466106D01*
X162097889Y-86461199D01*
X162104779Y-86458018D01*
X162114402Y-86453133D01*
X162123578Y-86447914D01*
X162132308Y-86442360D01*
X162140591Y-86436471D01*
X162148428Y-86430247D01*
X162155818Y-86423688D01*
X162162762Y-86416795D01*
X162171326Y-86407082D01*
X162179096Y-86396774D01*
X162184402Y-86388653D01*
X162190756Y-86377395D01*
X162196263Y-86365846D01*
X162200923Y-86354008D01*
X162204736Y-86341880D01*
X162207701Y-86329462D01*
X162209819Y-86316754D01*
X162210851Y-86307032D01*
X162211407Y-86297147D01*
X162211513Y-86290467D01*
X162211166Y-86278366D01*
X162210124Y-86266485D01*
X162208388Y-86254827D01*
X162205957Y-86243389D01*
X162202831Y-86232173D01*
X162199011Y-86221178D01*
X162194496Y-86210405D01*
X162189287Y-86199853D01*
X162183475Y-86189637D01*
X162177151Y-86179871D01*
X162170316Y-86170555D01*
X162162970Y-86161690D01*
X162155112Y-86153275D01*
X162146743Y-86145310D01*
X162137863Y-86137796D01*
X162128471Y-86130732D01*
X162118951Y-86124183D01*
X162108407Y-86117967D01*
X162099232Y-86113235D01*
X162089401Y-86108716D01*
X162078914Y-86104411D01*
X162067771Y-86100320D01*
X162055971Y-86096443D01*
X162049824Y-86094584D01*
X162040420Y-86091922D01*
X162030891Y-86089521D01*
X162021237Y-86087382D01*
X162011459Y-86085505D01*
X162001557Y-86083890D01*
X161991530Y-86082537D01*
X161981378Y-86081446D01*
X161971102Y-86080617D01*
X161960701Y-86080049D01*
X161950176Y-86079744D01*
X161943090Y-86079685D01*
X161932427Y-86079781D01*
X161921929Y-86080067D01*
X161911597Y-86080544D01*
X161901432Y-86081212D01*
X161891432Y-86082071D01*
X161881598Y-86083120D01*
X161867159Y-86085052D01*
X161853094Y-86087413D01*
X161839401Y-86090204D01*
X161826083Y-86093424D01*
X161813138Y-86097073D01*
X161800566Y-86101152D01*
X161792393Y-86104110D01*
X161780509Y-86108842D01*
X161769223Y-86113879D01*
X161758533Y-86119220D01*
X161748440Y-86124867D01*
X161738944Y-86130818D01*
X161730045Y-86137074D01*
X161721742Y-86143635D01*
X161714036Y-86150501D01*
X161706927Y-86157671D01*
X161700415Y-86165147D01*
X161696405Y-86170300D01*
X161690761Y-86178380D01*
X161685460Y-86186958D01*
X161680503Y-86196034D01*
X161675889Y-86205608D01*
X161671618Y-86215680D01*
X161667691Y-86226250D01*
X161664108Y-86237318D01*
X161660868Y-86248885D01*
X161657971Y-86260949D01*
X161655418Y-86273511D01*
X161653907Y-86282163D01*
X161774807Y-86298527D01*
X161776595Y-86288390D01*
X161778937Y-86278678D01*
X161782921Y-86266389D01*
X161787890Y-86254856D01*
X161793844Y-86244079D01*
X161800782Y-86234057D01*
X161808704Y-86224791D01*
X161817612Y-86216281D01*
X161822434Y-86212309D01*
X161832834Y-86205039D01*
X161844248Y-86198739D01*
X161853475Y-86194649D01*
X161863274Y-86191105D01*
X161873643Y-86188106D01*
X161884583Y-86185653D01*
X161896094Y-86183744D01*
X161908176Y-86182381D01*
X161920829Y-86181563D01*
X161934053Y-86181290D01*
X161944518Y-86181401D01*
X161954600Y-86181733D01*
X161969009Y-86182646D01*
X161982558Y-86184057D01*
X161995250Y-86185966D01*
X162007082Y-86188374D01*
X162018056Y-86191279D01*
X162028171Y-86194682D01*
X162037427Y-86198583D01*
X162048433Y-86204559D01*
X162055686Y-86209623D01*
X162064216Y-86216858D01*
X162071608Y-86224399D01*
X162077863Y-86232246D01*
X162084082Y-86242483D01*
X162088525Y-86253197D01*
X162091190Y-86264388D01*
X162092079Y-86276057D01*
X162091354Y-86286402D01*
X162089180Y-86296279D01*
X162085557Y-86305689D01*
X162080485Y-86314632D01*
X162076935Y-86319532D01*
X162069492Y-86327967D01*
X162061810Y-86334676D01*
X162052926Y-86340904D01*
X162042839Y-86346651D01*
X162033516Y-86351074D01*
X162029552Y-86352749D01*
X162020058Y-86355949D01*
X162008277Y-86359586D01*
X161996318Y-86363132D01*
X161985872Y-86366161D01*
X161974159Y-86369509D01*
X161961180Y-86373174D01*
X161946934Y-86377157D01*
X161936733Y-86379988D01*
X161925969Y-86382961D01*
X161920376Y-86384501D01*
X161904291Y-86388847D01*
X161888826Y-86393095D01*
X161873982Y-86397243D01*
X161859758Y-86401292D01*
X161846154Y-86405242D01*
X161833170Y-86409093D01*
X161820806Y-86412844D01*
X161809062Y-86416496D01*
X161797939Y-86420049D01*
X161787435Y-86423503D01*
X161777552Y-86426858D01*
X161768289Y-86430113D01*
X161755557Y-86434810D01*
X161744220Y-86439283D01*
X161737438Y-86442142D01*
X161727881Y-86446533D01*
X161718719Y-86451281D01*
X161709952Y-86456385D01*
X161701580Y-86461845D01*
X161693603Y-86467662D01*
X161686021Y-86473835D01*
X161676526Y-86482620D01*
X161667733Y-86492039D01*
X161659643Y-86502091D01*
X161655861Y-86507355D01*
X161648934Y-86518365D01*
X161644345Y-86527048D01*
X161640276Y-86536096D01*
X161636726Y-86545509D01*
X161633696Y-86555287D01*
X161631185Y-86565430D01*
X161629193Y-86575938D01*
X161627722Y-86586811D01*
X161626769Y-86598049D01*
X161626336Y-86609652D01*
X161626307Y-86613600D01*
X161626625Y-86625214D01*
X161627578Y-86636698D01*
X161629167Y-86648054D01*
X161631391Y-86659281D01*
X161634250Y-86670380D01*
X161637745Y-86681349D01*
X161641875Y-86692190D01*
X161646641Y-86702902D01*
X161652042Y-86713485D01*
X161658078Y-86723939D01*
X161662455Y-86730837D01*
X161669471Y-86740878D01*
X161677053Y-86750486D01*
X161685201Y-86759660D01*
X161693917Y-86768401D01*
X161703199Y-86776708D01*
X161713048Y-86784581D01*
X161723464Y-86792020D01*
X161734446Y-86799026D01*
X161745995Y-86805599D01*
X161758111Y-86811738D01*
X161766503Y-86815589D01*
X161779393Y-86820958D01*
X161792601Y-86825799D01*
X161806126Y-86830111D01*
X161819969Y-86833896D01*
X161834130Y-86837152D01*
X161843747Y-86839030D01*
X161853505Y-86840673D01*
X161863405Y-86842081D01*
X161873445Y-86843255D01*
X161883627Y-86844193D01*
X161893950Y-86844898D01*
X161904415Y-86845367D01*
X161915020Y-86845602D01*
X161920376Y-86845631D01*
X161937880Y-86845404D01*
X161954856Y-86844723D01*
X161971303Y-86843587D01*
X161987222Y-86841998D01*
X162002612Y-86839954D01*
X162017474Y-86837457D01*
X162031807Y-86834505D01*
X162045611Y-86831099D01*
X162058887Y-86827238D01*
X162071635Y-86822924D01*
X162083853Y-86818156D01*
X162095544Y-86812933D01*
X162106705Y-86807256D01*
X162117339Y-86801125D01*
X162127443Y-86794540D01*
X162137019Y-86787501D01*
X162146121Y-86779985D01*
X162154803Y-86772030D01*
X162163065Y-86763636D01*
X162170908Y-86754803D01*
X162178331Y-86745532D01*
X162185333Y-86735821D01*
X162191917Y-86725672D01*
X162198080Y-86715083D01*
X162203823Y-86704056D01*
X162209147Y-86692590D01*
X162214051Y-86680685D01*
X162218535Y-86668341D01*
X162222600Y-86655559D01*
X162226244Y-86642337D01*
X162229469Y-86628677D01*
X162232274Y-86614577D01*
G37*
G36*
X161482448Y-85954633D02*
G01*
X161482448Y-85813949D01*
X161358861Y-85813949D01*
X161358861Y-85954633D01*
X161482448Y-85954633D01*
G37*
G36*
X161482448Y-86830000D02*
G01*
X161482448Y-86095317D01*
X161358861Y-86095317D01*
X161358861Y-86830000D01*
X161482448Y-86830000D01*
G37*
G36*
X160916074Y-86079874D02*
G01*
X160927872Y-86080441D01*
X160939476Y-86081386D01*
X160950884Y-86082708D01*
X160962099Y-86084408D01*
X160973118Y-86086486D01*
X160983943Y-86088942D01*
X160994573Y-86091775D01*
X161005009Y-86094987D01*
X161015250Y-86098576D01*
X161025296Y-86102543D01*
X161035148Y-86106888D01*
X161044805Y-86111611D01*
X161054268Y-86116711D01*
X161063536Y-86122189D01*
X161072609Y-86128046D01*
X161081452Y-86134249D01*
X161090030Y-86140769D01*
X161098343Y-86147606D01*
X161106391Y-86154760D01*
X161114173Y-86162230D01*
X161121690Y-86170017D01*
X161128942Y-86178121D01*
X161135929Y-86186542D01*
X161142650Y-86195279D01*
X161149106Y-86204333D01*
X161155297Y-86213704D01*
X161161223Y-86223392D01*
X161166884Y-86233396D01*
X161172279Y-86243717D01*
X161177409Y-86254355D01*
X161182274Y-86265310D01*
X161186829Y-86276456D01*
X161191090Y-86287731D01*
X161195057Y-86299133D01*
X161198730Y-86310663D01*
X161202109Y-86322321D01*
X161205195Y-86334106D01*
X161207986Y-86346020D01*
X161210484Y-86358061D01*
X161212688Y-86370230D01*
X161214598Y-86382528D01*
X161216214Y-86394952D01*
X161217536Y-86407505D01*
X161218565Y-86420186D01*
X161219300Y-86432994D01*
X161219740Y-86445930D01*
X161219887Y-86458995D01*
X161219566Y-86477906D01*
X161218601Y-86496478D01*
X161216994Y-86514711D01*
X161214743Y-86532603D01*
X161211849Y-86550156D01*
X161208312Y-86567370D01*
X161204133Y-86584243D01*
X161199310Y-86600778D01*
X161193844Y-86616972D01*
X161187735Y-86632827D01*
X161180983Y-86648342D01*
X161173588Y-86663517D01*
X161165550Y-86678353D01*
X161156869Y-86692850D01*
X161147545Y-86707006D01*
X161137577Y-86720823D01*
X161126993Y-86734044D01*
X161115878Y-86746411D01*
X161104233Y-86757926D01*
X161092057Y-86768588D01*
X161079350Y-86778397D01*
X161066114Y-86787352D01*
X161052346Y-86795455D01*
X161038049Y-86802705D01*
X161023220Y-86809102D01*
X161007862Y-86814647D01*
X160991972Y-86819338D01*
X160975553Y-86823176D01*
X160958603Y-86826161D01*
X160941122Y-86828294D01*
X160923111Y-86829573D01*
X160904570Y-86830000D01*
X160889614Y-86829629D01*
X160874971Y-86828519D01*
X160860640Y-86826668D01*
X160846623Y-86824077D01*
X160832919Y-86820745D01*
X160819527Y-86816673D01*
X160806449Y-86811861D01*
X160793684Y-86806308D01*
X160781231Y-86800015D01*
X160769091Y-86792981D01*
X160757265Y-86785208D01*
X160745751Y-86776693D01*
X160734550Y-86767439D01*
X160723662Y-86757444D01*
X160713087Y-86746709D01*
X160702825Y-86735233D01*
X160702774Y-86750081D01*
X160702802Y-86764275D01*
X160702911Y-86777817D01*
X160703100Y-86790707D01*
X160703369Y-86802944D01*
X160703718Y-86814528D01*
X160704148Y-86825460D01*
X160704657Y-86835739D01*
X160705571Y-86849934D01*
X160706666Y-86862661D01*
X160707941Y-86873920D01*
X160709397Y-86883710D01*
X160711618Y-86894480D01*
X160713811Y-86902127D01*
X160717542Y-86913193D01*
X160721800Y-86923773D01*
X160726586Y-86933869D01*
X160731901Y-86943480D01*
X160737743Y-86952605D01*
X160744114Y-86961246D01*
X160751012Y-86969401D01*
X160758439Y-86977071D01*
X160766394Y-86984256D01*
X160774877Y-86990956D01*
X160780862Y-86995126D01*
X160790415Y-87000877D01*
X160800660Y-87006022D01*
X160811596Y-87010562D01*
X160823223Y-87014497D01*
X160835541Y-87017827D01*
X160848550Y-87020551D01*
X160862251Y-87022670D01*
X160876643Y-87024183D01*
X160886622Y-87024856D01*
X160896908Y-87025259D01*
X160907501Y-87025394D01*
X160917322Y-87025260D01*
X160931560Y-87024559D01*
X160945206Y-87023257D01*
X160958259Y-87021353D01*
X160970720Y-87018849D01*
X160982588Y-87015743D01*
X160993863Y-87012037D01*
X161004547Y-87007729D01*
X161014637Y-87002820D01*
X161024136Y-86997311D01*
X161033042Y-86991200D01*
X161037241Y-86987907D01*
X161045011Y-86980618D01*
X161051942Y-86972390D01*
X161058033Y-86963223D01*
X161063284Y-86953118D01*
X161067695Y-86942074D01*
X161071267Y-86930090D01*
X161073395Y-86920487D01*
X161075051Y-86910355D01*
X161195219Y-86892526D01*
X161195230Y-86906980D01*
X161194593Y-86920972D01*
X161193307Y-86934503D01*
X161191372Y-86947572D01*
X161188788Y-86960179D01*
X161185556Y-86972324D01*
X161181675Y-86984008D01*
X161177145Y-86995230D01*
X161171966Y-87005990D01*
X161166139Y-87016288D01*
X161159662Y-87026125D01*
X161152537Y-87035499D01*
X161144764Y-87044412D01*
X161136341Y-87052863D01*
X161127270Y-87060853D01*
X161117550Y-87068381D01*
X161107309Y-87075479D01*
X161096678Y-87082119D01*
X161085656Y-87088302D01*
X161074242Y-87094026D01*
X161062437Y-87099293D01*
X161050242Y-87104101D01*
X161037654Y-87108452D01*
X161024676Y-87112344D01*
X161011307Y-87115779D01*
X160997546Y-87118756D01*
X160983394Y-87121274D01*
X160968851Y-87123335D01*
X160953917Y-87124938D01*
X160938592Y-87126083D01*
X160922876Y-87126770D01*
X160906768Y-87126999D01*
X160893165Y-87126837D01*
X160879833Y-87126350D01*
X160866771Y-87125539D01*
X160853981Y-87124404D01*
X160841462Y-87122944D01*
X160829213Y-87121160D01*
X160817236Y-87119051D01*
X160805529Y-87116618D01*
X160794094Y-87113861D01*
X160782929Y-87110780D01*
X160772036Y-87107374D01*
X160761413Y-87103643D01*
X160751061Y-87099588D01*
X160740981Y-87095209D01*
X160731171Y-87090505D01*
X160721632Y-87085478D01*
X160716970Y-87082853D01*
X160707883Y-87077428D01*
X160699113Y-87071769D01*
X160690660Y-87065874D01*
X160682524Y-87059745D01*
X160674704Y-87053382D01*
X160667202Y-87046783D01*
X160660015Y-87039950D01*
X160653146Y-87032883D01*
X160646594Y-87025580D01*
X160640358Y-87018043D01*
X160631598Y-87006297D01*
X160626154Y-86998173D01*
X160621027Y-86989814D01*
X160616216Y-86981221D01*
X160611723Y-86972393D01*
X160609589Y-86967838D01*
X160605524Y-86958141D01*
X160601731Y-86947661D01*
X160598209Y-86936399D01*
X160594957Y-86924355D01*
X160591977Y-86911528D01*
X160589267Y-86897920D01*
X160586828Y-86883528D01*
X160584661Y-86868355D01*
X160582764Y-86852399D01*
X160581138Y-86835660D01*
X160579784Y-86818140D01*
X160578700Y-86799837D01*
X160577887Y-86780752D01*
X160577582Y-86770916D01*
X160577345Y-86760884D01*
X160577176Y-86750657D01*
X160577074Y-86740234D01*
X160577040Y-86729616D01*
X160577040Y-86454110D01*
X160692323Y-86454110D01*
X160692549Y-86471524D01*
X160693227Y-86488350D01*
X160694358Y-86504588D01*
X160695941Y-86520239D01*
X160697976Y-86535301D01*
X160700463Y-86549777D01*
X160703402Y-86563664D01*
X160706794Y-86576964D01*
X160710638Y-86589676D01*
X160714934Y-86601800D01*
X160719683Y-86613337D01*
X160724883Y-86624286D01*
X160730536Y-86634647D01*
X160736641Y-86644421D01*
X160743199Y-86653607D01*
X160750208Y-86662205D01*
X160757521Y-86670220D01*
X160765050Y-86677718D01*
X160772794Y-86684699D01*
X160780754Y-86691163D01*
X160788929Y-86697109D01*
X160797320Y-86702539D01*
X160805927Y-86707452D01*
X160814749Y-86711847D01*
X160823787Y-86715725D01*
X160833041Y-86719087D01*
X160842510Y-86721931D01*
X160852195Y-86724258D01*
X160862095Y-86726067D01*
X160872211Y-86727360D01*
X160882543Y-86728136D01*
X160893090Y-86728394D01*
X160903695Y-86728134D01*
X160914076Y-86727353D01*
X160924234Y-86726050D01*
X160934169Y-86724227D01*
X160943880Y-86721883D01*
X160953369Y-86719018D01*
X160962634Y-86715632D01*
X160971676Y-86711725D01*
X160980494Y-86707297D01*
X160989089Y-86702348D01*
X160997461Y-86696879D01*
X161005610Y-86690888D01*
X161013535Y-86684376D01*
X161021238Y-86677344D01*
X161028717Y-86669791D01*
X161035972Y-86661716D01*
X161042864Y-86653075D01*
X161049310Y-86643822D01*
X161055312Y-86633955D01*
X161060870Y-86623477D01*
X161065983Y-86612386D01*
X161070651Y-86600682D01*
X161074875Y-86588366D01*
X161078654Y-86575437D01*
X161081988Y-86561896D01*
X161084878Y-86547743D01*
X161087324Y-86532976D01*
X161089324Y-86517598D01*
X161090880Y-86501606D01*
X161091992Y-86485003D01*
X161092659Y-86467786D01*
X161092881Y-86449958D01*
X161092656Y-86433545D01*
X161091980Y-86417645D01*
X161090855Y-86402259D01*
X161089278Y-86387386D01*
X161087252Y-86373026D01*
X161084775Y-86359179D01*
X161081848Y-86345846D01*
X161078471Y-86333026D01*
X161074643Y-86320720D01*
X161070365Y-86308926D01*
X161065636Y-86297646D01*
X161060458Y-86286880D01*
X161054829Y-86276626D01*
X161048749Y-86266886D01*
X161042220Y-86257659D01*
X161035240Y-86248946D01*
X161031613Y-86244783D01*
X161024213Y-86236855D01*
X161016619Y-86229455D01*
X161008830Y-86222584D01*
X161000846Y-86216241D01*
X160992668Y-86210427D01*
X160984295Y-86205142D01*
X160975727Y-86200385D01*
X160962511Y-86194240D01*
X160948856Y-86189285D01*
X160934764Y-86185519D01*
X160925126Y-86183669D01*
X160915294Y-86182348D01*
X160905266Y-86181555D01*
X160895044Y-86181290D01*
X160884668Y-86181560D01*
X160874482Y-86182367D01*
X160864487Y-86183712D01*
X160854683Y-86185595D01*
X160845070Y-86188017D01*
X160835648Y-86190976D01*
X160826416Y-86194474D01*
X160817375Y-86198510D01*
X160808525Y-86203083D01*
X160799866Y-86208195D01*
X160791398Y-86213845D01*
X160783120Y-86220034D01*
X160775033Y-86226760D01*
X160767137Y-86234024D01*
X160759432Y-86241826D01*
X160751918Y-86250167D01*
X160744701Y-86259006D01*
X160737950Y-86268367D01*
X160731665Y-86278248D01*
X160725845Y-86288650D01*
X160720491Y-86299574D01*
X160715602Y-86311018D01*
X160711179Y-86322983D01*
X160707222Y-86335469D01*
X160703730Y-86348476D01*
X160700703Y-86362003D01*
X160698143Y-86376052D01*
X160696047Y-86390622D01*
X160694418Y-86405712D01*
X160693254Y-86421324D01*
X160692556Y-86437456D01*
X160692323Y-86454110D01*
X160577040Y-86454110D01*
X160577040Y-86095317D01*
X160691102Y-86095317D01*
X160691102Y-86183244D01*
X160701751Y-86170704D01*
X160712755Y-86158973D01*
X160724114Y-86148051D01*
X160735829Y-86137937D01*
X160747898Y-86128633D01*
X160760321Y-86120138D01*
X160773100Y-86112452D01*
X160786234Y-86105575D01*
X160799723Y-86099507D01*
X160813566Y-86094248D01*
X160827765Y-86089799D01*
X160842318Y-86086158D01*
X160857227Y-86083326D01*
X160872490Y-86081304D01*
X160888108Y-86080090D01*
X160904081Y-86079685D01*
X160916074Y-86079874D01*
G37*
G36*
X160393858Y-86830000D02*
G01*
X160393858Y-86095317D01*
X160282727Y-86095317D01*
X160282727Y-86198387D01*
X160272403Y-86184013D01*
X160261520Y-86170567D01*
X160250078Y-86158047D01*
X160238077Y-86146455D01*
X160225516Y-86135791D01*
X160212397Y-86126053D01*
X160198718Y-86117244D01*
X160184481Y-86109361D01*
X160169684Y-86102406D01*
X160154328Y-86096378D01*
X160138413Y-86091277D01*
X160121939Y-86087104D01*
X160104906Y-86083859D01*
X160087314Y-86081540D01*
X160069163Y-86080149D01*
X160050453Y-86079685D01*
X160038182Y-86079896D01*
X160026101Y-86080527D01*
X160014208Y-86081579D01*
X160002505Y-86083051D01*
X159990990Y-86084945D01*
X159979664Y-86087259D01*
X159968527Y-86089994D01*
X159957579Y-86093149D01*
X159946820Y-86096726D01*
X159936250Y-86100723D01*
X159929308Y-86103621D01*
X159919159Y-86108197D01*
X159909504Y-86113038D01*
X159900343Y-86118146D01*
X159891676Y-86123519D01*
X159883502Y-86129159D01*
X159873371Y-86137094D01*
X159864119Y-86145501D01*
X159855744Y-86154381D01*
X159848247Y-86163735D01*
X159846510Y-86166147D01*
X159839869Y-86176024D01*
X159833748Y-86186359D01*
X159828146Y-86197151D01*
X159823062Y-86208401D01*
X159818498Y-86220110D01*
X159814453Y-86232276D01*
X159811760Y-86241701D01*
X159809358Y-86251384D01*
X159807919Y-86257983D01*
X159805949Y-86270015D01*
X159804614Y-86281469D01*
X159803492Y-86294550D01*
X159802790Y-86305427D01*
X159802209Y-86317219D01*
X159801748Y-86329925D01*
X159801408Y-86343545D01*
X159801187Y-86358080D01*
X159801107Y-86368278D01*
X159801081Y-86378883D01*
X159801081Y-86830000D01*
X159924667Y-86830000D01*
X159924667Y-86382058D01*
X159924794Y-86368109D01*
X159925174Y-86354838D01*
X159925807Y-86342246D01*
X159926694Y-86330332D01*
X159927834Y-86319096D01*
X159929227Y-86308539D01*
X159930873Y-86298660D01*
X159933463Y-86286543D01*
X159936503Y-86275633D01*
X159939078Y-86268241D01*
X159943031Y-86259017D01*
X159947687Y-86250274D01*
X159953045Y-86242012D01*
X159959106Y-86234230D01*
X159965868Y-86226930D01*
X159973333Y-86220110D01*
X159981500Y-86213771D01*
X159990369Y-86207913D01*
X159999730Y-86202589D01*
X160009496Y-86197975D01*
X160019667Y-86194071D01*
X160030241Y-86190877D01*
X160041221Y-86188393D01*
X160052605Y-86186618D01*
X160064393Y-86185553D01*
X160076587Y-86185198D01*
X160086364Y-86185396D01*
X160100715Y-86186433D01*
X160114688Y-86188358D01*
X160128284Y-86191173D01*
X160141502Y-86194876D01*
X160154342Y-86199467D01*
X160166804Y-86204948D01*
X160178888Y-86211317D01*
X160190595Y-86218575D01*
X160201923Y-86226721D01*
X160212874Y-86235757D01*
X160223132Y-86246037D01*
X160229409Y-86253780D01*
X160235239Y-86262235D01*
X160240620Y-86271402D01*
X160245552Y-86281281D01*
X160250036Y-86291871D01*
X160254072Y-86303173D01*
X160257659Y-86315186D01*
X160260798Y-86327912D01*
X160263489Y-86341349D01*
X160265731Y-86355498D01*
X160267525Y-86370359D01*
X160268870Y-86385931D01*
X160269767Y-86402215D01*
X160270215Y-86419211D01*
X160270271Y-86427976D01*
X160270271Y-86830000D01*
X160393858Y-86830000D01*
G37*
G36*
X159334448Y-86080084D02*
G01*
X159352685Y-86081281D01*
X159370481Y-86083275D01*
X159387837Y-86086066D01*
X159404752Y-86089656D01*
X159421226Y-86094042D01*
X159437259Y-86099227D01*
X159452851Y-86105209D01*
X159468003Y-86111988D01*
X159482714Y-86119566D01*
X159496984Y-86127941D01*
X159510813Y-86137113D01*
X159524202Y-86147083D01*
X159537149Y-86157851D01*
X159549656Y-86169416D01*
X159561723Y-86181779D01*
X159567553Y-86188241D01*
X159578658Y-86201649D01*
X159589023Y-86215705D01*
X159598648Y-86230407D01*
X159607532Y-86245756D01*
X159615676Y-86261752D01*
X159623080Y-86278395D01*
X159629743Y-86295685D01*
X159635666Y-86313621D01*
X159640849Y-86332205D01*
X159643162Y-86341739D01*
X159645291Y-86351435D01*
X159647234Y-86361293D01*
X159648993Y-86371312D01*
X159650566Y-86381493D01*
X159651954Y-86391836D01*
X159653157Y-86402341D01*
X159654175Y-86413007D01*
X159655008Y-86423835D01*
X159655656Y-86434825D01*
X159656119Y-86445976D01*
X159656396Y-86457289D01*
X159656489Y-86468764D01*
X159656397Y-86479861D01*
X159656122Y-86490802D01*
X159655665Y-86501587D01*
X159655023Y-86512217D01*
X159654199Y-86522691D01*
X159653192Y-86533010D01*
X159652001Y-86543173D01*
X159650627Y-86553181D01*
X159649070Y-86563033D01*
X159647330Y-86572730D01*
X159643300Y-86591657D01*
X159638537Y-86609962D01*
X159633042Y-86627644D01*
X159626813Y-86644705D01*
X159619852Y-86661144D01*
X159612159Y-86676960D01*
X159603732Y-86692155D01*
X159594573Y-86706727D01*
X159584681Y-86720678D01*
X159574057Y-86734006D01*
X159562700Y-86746713D01*
X159550717Y-86758691D01*
X159538218Y-86769897D01*
X159525202Y-86780329D01*
X159511668Y-86789989D01*
X159497617Y-86798877D01*
X159483050Y-86806991D01*
X159467965Y-86814333D01*
X159452363Y-86820901D01*
X159436244Y-86826697D01*
X159419608Y-86831721D01*
X159402454Y-86835971D01*
X159384784Y-86839449D01*
X159366596Y-86842153D01*
X159347892Y-86844085D01*
X159328670Y-86845245D01*
X159318865Y-86845534D01*
X159308931Y-86845631D01*
X159293232Y-86845391D01*
X159277886Y-86844669D01*
X159262892Y-86843467D01*
X159248252Y-86841784D01*
X159233965Y-86839620D01*
X159220031Y-86836976D01*
X159206449Y-86833850D01*
X159193221Y-86830244D01*
X159180346Y-86826156D01*
X159167824Y-86821588D01*
X159155655Y-86816539D01*
X159143838Y-86811010D01*
X159132375Y-86804999D01*
X159121265Y-86798507D01*
X159110508Y-86791535D01*
X159100104Y-86784082D01*
X159090077Y-86776194D01*
X159080454Y-86767916D01*
X159071232Y-86759249D01*
X159062414Y-86750193D01*
X159053998Y-86740748D01*
X159045985Y-86730913D01*
X159038374Y-86720689D01*
X159031166Y-86710076D01*
X159024361Y-86699074D01*
X159017958Y-86687682D01*
X159011958Y-86675901D01*
X159006360Y-86663731D01*
X159001165Y-86651172D01*
X158996373Y-86638223D01*
X158991983Y-86624885D01*
X158987996Y-86611158D01*
X159115979Y-86595526D01*
X159117754Y-86600339D01*
X159121422Y-86609718D01*
X159125246Y-86618766D01*
X159131275Y-86631720D01*
X159137656Y-86643931D01*
X159144390Y-86655399D01*
X159151475Y-86666125D01*
X159158913Y-86676107D01*
X159166702Y-86685347D01*
X159174844Y-86693845D01*
X159183337Y-86701599D01*
X159192183Y-86708611D01*
X159198275Y-86712899D01*
X159207702Y-86718813D01*
X159217478Y-86724105D01*
X159227601Y-86728774D01*
X159238071Y-86732820D01*
X159248890Y-86736244D01*
X159260056Y-86739046D01*
X159271570Y-86741225D01*
X159283432Y-86742781D01*
X159295641Y-86743715D01*
X159308199Y-86744026D01*
X159319500Y-86743783D01*
X159330566Y-86743053D01*
X159341397Y-86741836D01*
X159351994Y-86740133D01*
X159362357Y-86737944D01*
X159372484Y-86735268D01*
X159382377Y-86732105D01*
X159392035Y-86728456D01*
X159401458Y-86724320D01*
X159410647Y-86719697D01*
X159419601Y-86714588D01*
X159428320Y-86708992D01*
X159436805Y-86702910D01*
X159445055Y-86696341D01*
X159453070Y-86689286D01*
X159460850Y-86681744D01*
X159468271Y-86673714D01*
X159475268Y-86665254D01*
X159481842Y-86656365D01*
X159487992Y-86647046D01*
X159493718Y-86637299D01*
X159499021Y-86627121D01*
X159503900Y-86616515D01*
X159508356Y-86605479D01*
X159512387Y-86594014D01*
X159515996Y-86582120D01*
X159519180Y-86569796D01*
X159521942Y-86557043D01*
X159524279Y-86543860D01*
X159526193Y-86530249D01*
X159527683Y-86516208D01*
X159528750Y-86501737D01*
X158984577Y-86501737D01*
X158984518Y-86498972D01*
X158984319Y-86488790D01*
X158984157Y-86478038D01*
X158984088Y-86468032D01*
X158984179Y-86456572D01*
X158984451Y-86445274D01*
X158984904Y-86434138D01*
X158985538Y-86423163D01*
X158986354Y-86412351D01*
X158987351Y-86401700D01*
X158987527Y-86400132D01*
X159114514Y-86400132D01*
X159521911Y-86400132D01*
X159520916Y-86387832D01*
X159519518Y-86375845D01*
X159517718Y-86364171D01*
X159515515Y-86352810D01*
X159512909Y-86341762D01*
X159509901Y-86331027D01*
X159506490Y-86320604D01*
X159502677Y-86310495D01*
X159498461Y-86300699D01*
X159493842Y-86291215D01*
X159488821Y-86282044D01*
X159483397Y-86273187D01*
X159477570Y-86264642D01*
X159471341Y-86256410D01*
X159464710Y-86248492D01*
X159457675Y-86240886D01*
X159454016Y-86237219D01*
X159446538Y-86230235D01*
X159438848Y-86223717D01*
X159430946Y-86217665D01*
X159422833Y-86212077D01*
X159414507Y-86206956D01*
X159401622Y-86200147D01*
X159388261Y-86194385D01*
X159374423Y-86189671D01*
X159364933Y-86187110D01*
X159355231Y-86185015D01*
X159345317Y-86183386D01*
X159335191Y-86182222D01*
X159324854Y-86181523D01*
X159314305Y-86181290D01*
X159302687Y-86181582D01*
X159291342Y-86182458D01*
X159280270Y-86183918D01*
X159269471Y-86185962D01*
X159258944Y-86188589D01*
X159248691Y-86191801D01*
X159238710Y-86195596D01*
X159229003Y-86199975D01*
X159219568Y-86204938D01*
X159210406Y-86210485D01*
X159201517Y-86216616D01*
X159192901Y-86223331D01*
X159184557Y-86230629D01*
X159176487Y-86238512D01*
X159168689Y-86246978D01*
X159161164Y-86256029D01*
X159154238Y-86265430D01*
X159147841Y-86275681D01*
X159141971Y-86286782D01*
X159136629Y-86298733D01*
X159131816Y-86311534D01*
X159127530Y-86325186D01*
X159124967Y-86334759D01*
X159122638Y-86344710D01*
X159120544Y-86355039D01*
X159118684Y-86365745D01*
X159117059Y-86376830D01*
X159115669Y-86388292D01*
X159114514Y-86400132D01*
X158987527Y-86400132D01*
X158988529Y-86391210D01*
X158989889Y-86380883D01*
X158991430Y-86370717D01*
X158993152Y-86360713D01*
X158995055Y-86350870D01*
X158997140Y-86341189D01*
X159001853Y-86322313D01*
X159007291Y-86304084D01*
X159013455Y-86286501D01*
X159020343Y-86269565D01*
X159027957Y-86253276D01*
X159036295Y-86237634D01*
X159045359Y-86222639D01*
X159055148Y-86208291D01*
X159065662Y-86194589D01*
X159076901Y-86181535D01*
X159088681Y-86169201D01*
X159100882Y-86157664D01*
X159113503Y-86146922D01*
X159126543Y-86136976D01*
X159140003Y-86127825D01*
X159153883Y-86119470D01*
X159168183Y-86111911D01*
X159182902Y-86105148D01*
X159198041Y-86099180D01*
X159213600Y-86094008D01*
X159229579Y-86089632D01*
X159245978Y-86086051D01*
X159262796Y-86083266D01*
X159280034Y-86081277D01*
X159297692Y-86080083D01*
X159315770Y-86079685D01*
X159334448Y-86080084D01*
G37*
G36*
X158371527Y-86184221D02*
G01*
X158375633Y-86178460D01*
X158382073Y-86170078D01*
X158388853Y-86162011D01*
X158395972Y-86154256D01*
X158403430Y-86146815D01*
X158411228Y-86139687D01*
X158419364Y-86132873D01*
X158427840Y-86126372D01*
X158436655Y-86120185D01*
X158445809Y-86114311D01*
X158455303Y-86108750D01*
X158461801Y-86105231D01*
X158471759Y-86100377D01*
X158481971Y-86096034D01*
X158492436Y-86092203D01*
X158503154Y-86088882D01*
X158514126Y-86086072D01*
X158525351Y-86083773D01*
X158536829Y-86081985D01*
X158548560Y-86080707D01*
X158560545Y-86079941D01*
X158572783Y-86079685D01*
X158583981Y-86079872D01*
X158595044Y-86080430D01*
X158605971Y-86081360D01*
X158616762Y-86082662D01*
X158627418Y-86084337D01*
X158637939Y-86086383D01*
X158648324Y-86088802D01*
X158658574Y-86091592D01*
X158668688Y-86094755D01*
X158678666Y-86098290D01*
X158688510Y-86102197D01*
X158698217Y-86106476D01*
X158707790Y-86111127D01*
X158717226Y-86116150D01*
X158726528Y-86121545D01*
X158735693Y-86127313D01*
X158744649Y-86133429D01*
X158753321Y-86139872D01*
X158761708Y-86146641D01*
X158769811Y-86153737D01*
X158777630Y-86161159D01*
X158785164Y-86168907D01*
X158792414Y-86176981D01*
X158799380Y-86185382D01*
X158806061Y-86194108D01*
X158812458Y-86203162D01*
X158818571Y-86212541D01*
X158824399Y-86222247D01*
X158829943Y-86232279D01*
X158835203Y-86242637D01*
X158840179Y-86253322D01*
X158844870Y-86264333D01*
X158849277Y-86275586D01*
X158853399Y-86286998D01*
X158857238Y-86298568D01*
X158860791Y-86310297D01*
X158864061Y-86322183D01*
X158867046Y-86334228D01*
X158869747Y-86346432D01*
X158872164Y-86358794D01*
X158874296Y-86371314D01*
X158876144Y-86383993D01*
X158877708Y-86396830D01*
X158878988Y-86409825D01*
X158879983Y-86422979D01*
X158880693Y-86436291D01*
X158881120Y-86449762D01*
X158881262Y-86463391D01*
X158881106Y-86477335D01*
X158880636Y-86491078D01*
X158879854Y-86504621D01*
X158878759Y-86517964D01*
X158877350Y-86531106D01*
X158875629Y-86544048D01*
X158873595Y-86556790D01*
X158871248Y-86569331D01*
X158868588Y-86581672D01*
X158865615Y-86593813D01*
X158862329Y-86605753D01*
X158858731Y-86617493D01*
X158854819Y-86629032D01*
X158850594Y-86640372D01*
X158846057Y-86651510D01*
X158841206Y-86662449D01*
X158836041Y-86673108D01*
X158830620Y-86683469D01*
X158824943Y-86693533D01*
X158819011Y-86703299D01*
X158812823Y-86712767D01*
X158806379Y-86721937D01*
X158799679Y-86730810D01*
X158792724Y-86739385D01*
X158785513Y-86747663D01*
X158778047Y-86755643D01*
X158770324Y-86763325D01*
X158762346Y-86770710D01*
X158754113Y-86777796D01*
X158745623Y-86784586D01*
X158736878Y-86791077D01*
X158727878Y-86797271D01*
X158718664Y-86803127D01*
X158709342Y-86808605D01*
X158699911Y-86813706D01*
X158690371Y-86818428D01*
X158680722Y-86822773D01*
X158670965Y-86826740D01*
X158661099Y-86830330D01*
X158651124Y-86833541D01*
X158641041Y-86836375D01*
X158630848Y-86838830D01*
X158620547Y-86840908D01*
X158610137Y-86842609D01*
X158599619Y-86843931D01*
X158588991Y-86844875D01*
X158578255Y-86845442D01*
X158567410Y-86845631D01*
X158550842Y-86845210D01*
X158534781Y-86843948D01*
X158519227Y-86841844D01*
X158504182Y-86838899D01*
X158489643Y-86835112D01*
X158475613Y-86830484D01*
X158462090Y-86825014D01*
X158449074Y-86818703D01*
X158436566Y-86811551D01*
X158424566Y-86803556D01*
X158413073Y-86794721D01*
X158402088Y-86785044D01*
X158391610Y-86774525D01*
X158381640Y-86763165D01*
X158372178Y-86750963D01*
X158363223Y-86737920D01*
X158363223Y-86830000D01*
X158248673Y-86830000D01*
X158248673Y-86473405D01*
X158361269Y-86473405D01*
X158361490Y-86490259D01*
X158362154Y-86506565D01*
X158363261Y-86522323D01*
X158364811Y-86537534D01*
X158366803Y-86552197D01*
X158369237Y-86566313D01*
X158372115Y-86579881D01*
X158375435Y-86592901D01*
X158379198Y-86605373D01*
X158383404Y-86617298D01*
X158388052Y-86628676D01*
X158393143Y-86639505D01*
X158398676Y-86649787D01*
X158404653Y-86659522D01*
X158411072Y-86668709D01*
X158417933Y-86677348D01*
X158425112Y-86685422D01*
X158432481Y-86692975D01*
X158440041Y-86700008D01*
X158447792Y-86706519D01*
X158455734Y-86712510D01*
X158468004Y-86720519D01*
X158480704Y-86727356D01*
X158493833Y-86733021D01*
X158507391Y-86737514D01*
X158521379Y-86740835D01*
X158535796Y-86742984D01*
X158545646Y-86743766D01*
X158555686Y-86744026D01*
X158565648Y-86743753D01*
X158575443Y-86742935D01*
X158589825Y-86740683D01*
X158603834Y-86737204D01*
X158617469Y-86732497D01*
X158630730Y-86726563D01*
X158639363Y-86721924D01*
X158647831Y-86716740D01*
X158656132Y-86711009D01*
X158664268Y-86704733D01*
X158672237Y-86697912D01*
X158680040Y-86690544D01*
X158687678Y-86682631D01*
X158695149Y-86674173D01*
X158702306Y-86665161D01*
X158709002Y-86655591D01*
X158715236Y-86645462D01*
X158721008Y-86634773D01*
X158726319Y-86623526D01*
X158731167Y-86611719D01*
X158735554Y-86599353D01*
X158739479Y-86586428D01*
X158742942Y-86572944D01*
X158745944Y-86558901D01*
X158748484Y-86544299D01*
X158750562Y-86529138D01*
X158752178Y-86513418D01*
X158753332Y-86497138D01*
X158754025Y-86480300D01*
X158754256Y-86462903D01*
X158754040Y-86444952D01*
X158753393Y-86427613D01*
X158752315Y-86410887D01*
X158750806Y-86394774D01*
X158748865Y-86379273D01*
X158746493Y-86364385D01*
X158743690Y-86350109D01*
X158740456Y-86336446D01*
X158736790Y-86323395D01*
X158732694Y-86310957D01*
X158728166Y-86299131D01*
X158723206Y-86287918D01*
X158717816Y-86277317D01*
X158711994Y-86267329D01*
X158705741Y-86257953D01*
X158699057Y-86249190D01*
X158695565Y-86245013D01*
X158688423Y-86237056D01*
X158681069Y-86229629D01*
X158673503Y-86222733D01*
X158665726Y-86216367D01*
X158657736Y-86210532D01*
X158645355Y-86202774D01*
X158632497Y-86196210D01*
X158619163Y-86190839D01*
X158605352Y-86186661D01*
X158591064Y-86183678D01*
X158581275Y-86182351D01*
X158571273Y-86181556D01*
X158561060Y-86181290D01*
X158550631Y-86181566D01*
X158540410Y-86182393D01*
X158530397Y-86183772D01*
X158520592Y-86185702D01*
X158510995Y-86188184D01*
X158501606Y-86191217D01*
X158492425Y-86194801D01*
X158483452Y-86198937D01*
X158474686Y-86203624D01*
X158466129Y-86208863D01*
X158457780Y-86214653D01*
X158449639Y-86220995D01*
X158441706Y-86227888D01*
X158433981Y-86235333D01*
X158426464Y-86243329D01*
X158419155Y-86251877D01*
X158412145Y-86261014D01*
X158405588Y-86270779D01*
X158399483Y-86281172D01*
X158393830Y-86292192D01*
X158388629Y-86303840D01*
X158383881Y-86316116D01*
X158379584Y-86329020D01*
X158375740Y-86342552D01*
X158372349Y-86356711D01*
X158369409Y-86371498D01*
X158366922Y-86386913D01*
X158364887Y-86402956D01*
X158363304Y-86419627D01*
X158362173Y-86436925D01*
X158361495Y-86454851D01*
X158361269Y-86473405D01*
X158248673Y-86473405D01*
X158248673Y-85813949D01*
X158371527Y-85813949D01*
X158371527Y-86184221D01*
G37*
G36*
X157669818Y-86830000D02*
G01*
X157555023Y-86830000D01*
X157555023Y-86737920D01*
X157545617Y-86750963D01*
X157535778Y-86763165D01*
X157525505Y-86774525D01*
X157514800Y-86785044D01*
X157503661Y-86794721D01*
X157492089Y-86803556D01*
X157480084Y-86811551D01*
X157467646Y-86818703D01*
X157454774Y-86825014D01*
X157441470Y-86830484D01*
X157427732Y-86835112D01*
X157413561Y-86838899D01*
X157398957Y-86841844D01*
X157383920Y-86843948D01*
X157368450Y-86845210D01*
X157352546Y-86845631D01*
X157336450Y-86845229D01*
X157320646Y-86844024D01*
X157305133Y-86842016D01*
X157289913Y-86839204D01*
X157274985Y-86835589D01*
X157260348Y-86831171D01*
X157246004Y-86825949D01*
X157231951Y-86819924D01*
X157218191Y-86813096D01*
X157204722Y-86805465D01*
X157191545Y-86797030D01*
X157178660Y-86787791D01*
X157166068Y-86777750D01*
X157153767Y-86766905D01*
X157141758Y-86755256D01*
X157130041Y-86742805D01*
X157118802Y-86729618D01*
X157108288Y-86715763D01*
X157098499Y-86701240D01*
X157089435Y-86686049D01*
X157081097Y-86670190D01*
X157073483Y-86653664D01*
X157066595Y-86636469D01*
X157060432Y-86618607D01*
X157054993Y-86600077D01*
X157052546Y-86590562D01*
X157050280Y-86580879D01*
X157048196Y-86571030D01*
X157046292Y-86561014D01*
X157044570Y-86550830D01*
X157043029Y-86540480D01*
X157041670Y-86529963D01*
X157040491Y-86519279D01*
X157039494Y-86508428D01*
X157038679Y-86497409D01*
X157038044Y-86486224D01*
X157037591Y-86474872D01*
X157037319Y-86463353D01*
X157037308Y-86461926D01*
X157163502Y-86461926D01*
X157163733Y-86479209D01*
X157164426Y-86495948D01*
X157165580Y-86512143D01*
X157167196Y-86527795D01*
X157169274Y-86542903D01*
X157171814Y-86557466D01*
X157174816Y-86571487D01*
X157178279Y-86584963D01*
X157182204Y-86597895D01*
X157186591Y-86610284D01*
X157191439Y-86622129D01*
X157196750Y-86633430D01*
X157202522Y-86644187D01*
X157208756Y-86654400D01*
X157215451Y-86664070D01*
X157222609Y-86673196D01*
X157226325Y-86677553D01*
X157233885Y-86685854D01*
X157241616Y-86693601D01*
X157249520Y-86700795D01*
X157257595Y-86707435D01*
X157265842Y-86713522D01*
X157274261Y-86719056D01*
X157282851Y-86724036D01*
X157291614Y-86728463D01*
X157305079Y-86734065D01*
X157318931Y-86738423D01*
X157333169Y-86741536D01*
X157342876Y-86742919D01*
X157352754Y-86743749D01*
X157362804Y-86744026D01*
X157375099Y-86743651D01*
X157387072Y-86742526D01*
X157398722Y-86740651D01*
X157410050Y-86738027D01*
X157421055Y-86734652D01*
X157431738Y-86730528D01*
X157442098Y-86725653D01*
X157452136Y-86720029D01*
X157461851Y-86713655D01*
X157471244Y-86706531D01*
X157480315Y-86698657D01*
X157489063Y-86690033D01*
X157497488Y-86680659D01*
X157505591Y-86670536D01*
X157513371Y-86659662D01*
X157520829Y-86648039D01*
X157527202Y-86636358D01*
X157532948Y-86623389D01*
X157536430Y-86614028D01*
X157539634Y-86604094D01*
X157542559Y-86593588D01*
X157545206Y-86582509D01*
X157547574Y-86570858D01*
X157549663Y-86558634D01*
X157551474Y-86545838D01*
X157553006Y-86532470D01*
X157554260Y-86518529D01*
X157555235Y-86504015D01*
X157555932Y-86488930D01*
X157556350Y-86473271D01*
X157556489Y-86457041D01*
X157556258Y-86440527D01*
X157555565Y-86424507D01*
X157554411Y-86408981D01*
X157552795Y-86393950D01*
X157550717Y-86379412D01*
X157548177Y-86365369D01*
X157545175Y-86351821D01*
X157541712Y-86338766D01*
X157537787Y-86326206D01*
X157533400Y-86314140D01*
X157528552Y-86302568D01*
X157523241Y-86291490D01*
X157517469Y-86280906D01*
X157511235Y-86270817D01*
X157504540Y-86261222D01*
X157497382Y-86252121D01*
X157493666Y-86247763D01*
X157486106Y-86239463D01*
X157478375Y-86231716D01*
X157470471Y-86224522D01*
X157462396Y-86217882D01*
X157454149Y-86211795D01*
X157445730Y-86206261D01*
X157437139Y-86201281D01*
X157428377Y-86196854D01*
X157414912Y-86191251D01*
X157401060Y-86186893D01*
X157386822Y-86183781D01*
X157377115Y-86182397D01*
X157367237Y-86181567D01*
X157357187Y-86181290D01*
X157347235Y-86181558D01*
X157332654Y-86182960D01*
X157318489Y-86185565D01*
X157304741Y-86189372D01*
X157291410Y-86194380D01*
X157278495Y-86200591D01*
X157265996Y-86208005D01*
X157257895Y-86213615D01*
X157249979Y-86219759D01*
X157242248Y-86226437D01*
X157234703Y-86233650D01*
X157227342Y-86241397D01*
X157220166Y-86249678D01*
X157213305Y-86258522D01*
X157206886Y-86267955D01*
X157200909Y-86277977D01*
X157195376Y-86288589D01*
X157190285Y-86299791D01*
X157185637Y-86311583D01*
X157181431Y-86323964D01*
X157177668Y-86336934D01*
X157174348Y-86350495D01*
X157171471Y-86364644D01*
X157169036Y-86379384D01*
X157167044Y-86394713D01*
X157165494Y-86410632D01*
X157164387Y-86427140D01*
X157163723Y-86444238D01*
X157163502Y-86461926D01*
X157037308Y-86461926D01*
X157037229Y-86451667D01*
X157037250Y-86446716D01*
X157037422Y-86436870D01*
X157037765Y-86427100D01*
X157038602Y-86412588D01*
X157039826Y-86398249D01*
X157041436Y-86384081D01*
X157043432Y-86370084D01*
X157045815Y-86356260D01*
X157048584Y-86342607D01*
X157051740Y-86329126D01*
X157055282Y-86315817D01*
X157059210Y-86302679D01*
X157062024Y-86294028D01*
X157066491Y-86281351D01*
X157071255Y-86269035D01*
X157076314Y-86257079D01*
X157081670Y-86245484D01*
X157087322Y-86234250D01*
X157093271Y-86223377D01*
X157099515Y-86212864D01*
X157106056Y-86202711D01*
X157112893Y-86192920D01*
X157120027Y-86183489D01*
X157124964Y-86177408D01*
X157132681Y-86168613D01*
X157140772Y-86160209D01*
X157149237Y-86152196D01*
X157158074Y-86144573D01*
X157167286Y-86137341D01*
X157176871Y-86130499D01*
X157186829Y-86124049D01*
X157197161Y-86117989D01*
X157207866Y-86112319D01*
X157218945Y-86107041D01*
X157226483Y-86103728D01*
X157237894Y-86099160D01*
X157249430Y-86095073D01*
X157261090Y-86091466D01*
X157272874Y-86088341D01*
X157284783Y-86085696D01*
X157296817Y-86083532D01*
X157308975Y-86081849D01*
X157321257Y-86080647D01*
X157333664Y-86079926D01*
X157346196Y-86079685D01*
X157361231Y-86080069D01*
X157375928Y-86081220D01*
X157390288Y-86083137D01*
X157404310Y-86085822D01*
X157417995Y-86089274D01*
X157431341Y-86093493D01*
X157444350Y-86098479D01*
X157457021Y-86104232D01*
X157469354Y-86110752D01*
X157481350Y-86118039D01*
X157493008Y-86126094D01*
X157504328Y-86134915D01*
X157515310Y-86144503D01*
X157525955Y-86154859D01*
X157536262Y-86165981D01*
X157546231Y-86177871D01*
X157546231Y-85813949D01*
X157669818Y-85813949D01*
X157669818Y-86830000D01*
G37*
G36*
X156896056Y-87112344D02*
G01*
X156909734Y-86998771D01*
X156899758Y-87001347D01*
X156890103Y-87003580D01*
X156878485Y-87005888D01*
X156867367Y-87007659D01*
X156856751Y-87008893D01*
X156846635Y-87009591D01*
X156838903Y-87009762D01*
X156828901Y-87009541D01*
X156817117Y-87008642D01*
X156806132Y-87007051D01*
X156795946Y-87004768D01*
X156786559Y-87001794D01*
X156776350Y-86997312D01*
X156773202Y-86995596D01*
X156764177Y-86989889D01*
X156755788Y-86983392D01*
X156748035Y-86976104D01*
X156740916Y-86968027D01*
X156734433Y-86959160D01*
X156732413Y-86956029D01*
X156727593Y-86946884D01*
X156722790Y-86936207D01*
X156718432Y-86925664D01*
X156713615Y-86913343D01*
X156709703Y-86902936D01*
X156705532Y-86891527D01*
X156701105Y-86879119D01*
X156696419Y-86865710D01*
X156694800Y-86861018D01*
X156691652Y-86851733D01*
X156688136Y-86841844D01*
X156684739Y-86832525D01*
X156683809Y-86830000D01*
X156960536Y-86095317D01*
X156827424Y-86095317D01*
X156675505Y-86520544D01*
X156671835Y-86530682D01*
X156668212Y-86540885D01*
X156664637Y-86551152D01*
X156661110Y-86561485D01*
X156657630Y-86571883D01*
X156654199Y-86582345D01*
X156650814Y-86592872D01*
X156647478Y-86603464D01*
X156644189Y-86614121D01*
X156640948Y-86624843D01*
X156637755Y-86635630D01*
X156634609Y-86646482D01*
X156631512Y-86657398D01*
X156628461Y-86668379D01*
X156625459Y-86679426D01*
X156622504Y-86690537D01*
X156619816Y-86679837D01*
X156617062Y-86669169D01*
X156614244Y-86658534D01*
X156611361Y-86647932D01*
X156608413Y-86637362D01*
X156605400Y-86626824D01*
X156602322Y-86616318D01*
X156599179Y-86605846D01*
X156595971Y-86595405D01*
X156592699Y-86584997D01*
X156589362Y-86574622D01*
X156585959Y-86564279D01*
X156582492Y-86553968D01*
X156578960Y-86543690D01*
X156575363Y-86533444D01*
X156571702Y-86523230D01*
X156415875Y-86095317D01*
X156292288Y-86095317D01*
X156569748Y-86841723D01*
X156575257Y-86856541D01*
X156580609Y-86870769D01*
X156585805Y-86884407D01*
X156590844Y-86897456D01*
X156595727Y-86909916D01*
X156600454Y-86921785D01*
X156605024Y-86933065D01*
X156609437Y-86943756D01*
X156613694Y-86953856D01*
X156617795Y-86963368D01*
X156623652Y-86976529D01*
X156629158Y-86988363D01*
X156634311Y-86998871D01*
X156639113Y-87008053D01*
X156645381Y-87019303D01*
X156651821Y-87029974D01*
X156658433Y-87040066D01*
X156665216Y-87049578D01*
X156672171Y-87058510D01*
X156679298Y-87066863D01*
X156686597Y-87074636D01*
X156694067Y-87081829D01*
X156701709Y-87088443D01*
X156709523Y-87094477D01*
X156714828Y-87098178D01*
X156725712Y-87104933D01*
X156737115Y-87110787D01*
X156749037Y-87115741D01*
X156758319Y-87118865D01*
X156767894Y-87121482D01*
X156777760Y-87123593D01*
X156787918Y-87125198D01*
X156798368Y-87126295D01*
X156809110Y-87126886D01*
X156816433Y-87126999D01*
X156827779Y-87126641D01*
X156839531Y-87125568D01*
X156849225Y-87124194D01*
X156859177Y-87122362D01*
X156869390Y-87120072D01*
X156879862Y-87117324D01*
X156890593Y-87114119D01*
X156896056Y-87112344D01*
G37*
G36*
X155791834Y-86830000D02*
G01*
X155407885Y-86830000D01*
X155395973Y-86829933D01*
X155384296Y-86829732D01*
X155372854Y-86829398D01*
X155361646Y-86828931D01*
X155350673Y-86828330D01*
X155339935Y-86827595D01*
X155329432Y-86826727D01*
X155319163Y-86825725D01*
X155309129Y-86824590D01*
X155299330Y-86823321D01*
X155285071Y-86821167D01*
X155271340Y-86818713D01*
X155258138Y-86815958D01*
X155245463Y-86812903D01*
X155237247Y-86810672D01*
X155225251Y-86807090D01*
X155213650Y-86803224D01*
X155202445Y-86799076D01*
X155191634Y-86794643D01*
X155181219Y-86789928D01*
X155171198Y-86784929D01*
X155161572Y-86779647D01*
X155152342Y-86774081D01*
X155143506Y-86768232D01*
X155135065Y-86762100D01*
X155129625Y-86757776D01*
X155121672Y-86750875D01*
X155113969Y-86743476D01*
X155106514Y-86735580D01*
X155099308Y-86727185D01*
X155092352Y-86718292D01*
X155085644Y-86708901D01*
X155079186Y-86699012D01*
X155072976Y-86688625D01*
X155067015Y-86677740D01*
X155061304Y-86666357D01*
X155057696Y-86658563D01*
X155052720Y-86646726D01*
X155048267Y-86634712D01*
X155044339Y-86622523D01*
X155040934Y-86610157D01*
X155038054Y-86597616D01*
X155035697Y-86584898D01*
X155033863Y-86572004D01*
X155032554Y-86558935D01*
X155031768Y-86545689D01*
X155031520Y-86533000D01*
X155169503Y-86533000D01*
X155169816Y-86545277D01*
X155170755Y-86557196D01*
X155172320Y-86568755D01*
X155174510Y-86579956D01*
X155177327Y-86590798D01*
X155180769Y-86601281D01*
X155184837Y-86611406D01*
X155189531Y-86621172D01*
X155194653Y-86630415D01*
X155200125Y-86639093D01*
X155205949Y-86647207D01*
X155213722Y-86656554D01*
X155222044Y-86665019D01*
X155230915Y-86672602D01*
X155240334Y-86679302D01*
X155246239Y-86682956D01*
X155256683Y-86688598D01*
X155265579Y-86692708D01*
X155274955Y-86696460D01*
X155284813Y-86699852D01*
X155295151Y-86702886D01*
X155305970Y-86705562D01*
X155317270Y-86707878D01*
X155328419Y-86709538D01*
X155339769Y-86710659D01*
X155350197Y-86711384D01*
X155361823Y-86711957D01*
X155374648Y-86712377D01*
X155385053Y-86712591D01*
X155396132Y-86712720D01*
X155407885Y-86712763D01*
X155658478Y-86712763D01*
X155658478Y-86353237D01*
X155425714Y-86353237D01*
X155413862Y-86353306D01*
X155402362Y-86353512D01*
X155391216Y-86353856D01*
X155380422Y-86354337D01*
X155369982Y-86354955D01*
X155359895Y-86355710D01*
X155350160Y-86356603D01*
X155336220Y-86358201D01*
X155323075Y-86360107D01*
X155310724Y-86362322D01*
X155299167Y-86364847D01*
X155288404Y-86367680D01*
X155278436Y-86370823D01*
X155275252Y-86371932D01*
X155265964Y-86375563D01*
X155254195Y-86381112D01*
X155243127Y-86387470D01*
X155232762Y-86394637D01*
X155223100Y-86402613D01*
X155214139Y-86411398D01*
X155205880Y-86420992D01*
X155198324Y-86431395D01*
X155193174Y-86439634D01*
X155187094Y-86451033D01*
X155181916Y-86462906D01*
X155178623Y-86472121D01*
X155175836Y-86481602D01*
X155173556Y-86491349D01*
X155171783Y-86501363D01*
X155170517Y-86511642D01*
X155169757Y-86522188D01*
X155169503Y-86533000D01*
X155031520Y-86533000D01*
X155031506Y-86532267D01*
X155031698Y-86521127D01*
X155032273Y-86510175D01*
X155033232Y-86499412D01*
X155034575Y-86488838D01*
X155036301Y-86478453D01*
X155038410Y-86468257D01*
X155040903Y-86458249D01*
X155043779Y-86448431D01*
X155047040Y-86438802D01*
X155050683Y-86429361D01*
X155054710Y-86420109D01*
X155059121Y-86411047D01*
X155063915Y-86402173D01*
X155069093Y-86393488D01*
X155074654Y-86384992D01*
X155080599Y-86376685D01*
X155086901Y-86368592D01*
X155093533Y-86360801D01*
X155100494Y-86353312D01*
X155107786Y-86346124D01*
X155115408Y-86339237D01*
X155123361Y-86332652D01*
X155131643Y-86326369D01*
X155140255Y-86320387D01*
X155149198Y-86314706D01*
X155158471Y-86309327D01*
X155168073Y-86304250D01*
X155178006Y-86299474D01*
X155188269Y-86294999D01*
X155198862Y-86290826D01*
X155209785Y-86286954D01*
X155221039Y-86283384D01*
X155212325Y-86278933D01*
X155199781Y-86271939D01*
X155187868Y-86264562D01*
X155176585Y-86256803D01*
X155165934Y-86248662D01*
X155155914Y-86240139D01*
X155146526Y-86231234D01*
X155137768Y-86221947D01*
X155129641Y-86212278D01*
X155122146Y-86202226D01*
X155115282Y-86191793D01*
X155111023Y-86184651D01*
X155105149Y-86173830D01*
X155099894Y-86162881D01*
X155095257Y-86151802D01*
X155091239Y-86140595D01*
X155087839Y-86129260D01*
X155085057Y-86117795D01*
X155082893Y-86106202D01*
X155081347Y-86094479D01*
X155080687Y-86086036D01*
X155211513Y-86086036D01*
X155211914Y-86099007D01*
X155213116Y-86111422D01*
X155215120Y-86123279D01*
X155217925Y-86134579D01*
X155221531Y-86145322D01*
X155225939Y-86155508D01*
X155231148Y-86165136D01*
X155237159Y-86174207D01*
X155238786Y-86176371D01*
X155245793Y-86184639D01*
X155253594Y-86192289D01*
X155262188Y-86199320D01*
X155271576Y-86205734D01*
X155281758Y-86211529D01*
X155292734Y-86216705D01*
X155304503Y-86221264D01*
X155313851Y-86224277D01*
X155324224Y-86227025D01*
X155336169Y-86229406D01*
X155346159Y-86230952D01*
X155357034Y-86232291D01*
X155368794Y-86233425D01*
X155381438Y-86234352D01*
X155394966Y-86235074D01*
X155409379Y-86235589D01*
X155419478Y-86235818D01*
X155429971Y-86235955D01*
X155440857Y-86236001D01*
X155658478Y-86236001D01*
X155658478Y-85931186D01*
X155457222Y-85931186D01*
X155443915Y-85931241D01*
X155431107Y-85931407D01*
X155418796Y-85931684D01*
X155406984Y-85932071D01*
X155395670Y-85932569D01*
X155384853Y-85933178D01*
X155374535Y-85933897D01*
X155364715Y-85934727D01*
X155350918Y-85936180D01*
X155338242Y-85937882D01*
X155326686Y-85939832D01*
X155316251Y-85942032D01*
X155304081Y-85945352D01*
X155293232Y-85949267D01*
X155283031Y-85953931D01*
X155273478Y-85959342D01*
X155264575Y-85965502D01*
X155256320Y-85972409D01*
X155248715Y-85980065D01*
X155241757Y-85988468D01*
X155235449Y-85997620D01*
X155229839Y-86007336D01*
X155224977Y-86017434D01*
X155220863Y-86027914D01*
X155217497Y-86038775D01*
X155214879Y-86050018D01*
X155213009Y-86061642D01*
X155211887Y-86073648D01*
X155211513Y-86086036D01*
X155080687Y-86086036D01*
X155080420Y-86082628D01*
X155080111Y-86070648D01*
X155080265Y-86062031D01*
X155081077Y-86049191D01*
X155082584Y-86036454D01*
X155084786Y-86023821D01*
X155087684Y-86011290D01*
X155091278Y-85998862D01*
X155095567Y-85986537D01*
X155100551Y-85974316D01*
X155106231Y-85962197D01*
X155112607Y-85950181D01*
X155119678Y-85938269D01*
X155124742Y-85930461D01*
X155132782Y-85919235D01*
X155141355Y-85908593D01*
X155150459Y-85898536D01*
X155160096Y-85889062D01*
X155170266Y-85880172D01*
X155180968Y-85871865D01*
X155192202Y-85864143D01*
X155203968Y-85857005D01*
X155216267Y-85850450D01*
X155229099Y-85844480D01*
X155237978Y-85840783D01*
X155247215Y-85837324D01*
X155256808Y-85834104D01*
X155266758Y-85831123D01*
X155277065Y-85828380D01*
X155287728Y-85825875D01*
X155298749Y-85823609D01*
X155310126Y-85821582D01*
X155321860Y-85819793D01*
X155333951Y-85818243D01*
X155346399Y-85816931D01*
X155359204Y-85815857D01*
X155372365Y-85815023D01*
X155385884Y-85814426D01*
X155399759Y-85814069D01*
X155413991Y-85813949D01*
X155791834Y-85813949D01*
X155791834Y-86830000D01*
G37*
G36*
X154588321Y-86080084D02*
G01*
X154606558Y-86081281D01*
X154624354Y-86083275D01*
X154641710Y-86086066D01*
X154658625Y-86089656D01*
X154675099Y-86094042D01*
X154691132Y-86099227D01*
X154706724Y-86105209D01*
X154721876Y-86111988D01*
X154736587Y-86119566D01*
X154750857Y-86127941D01*
X154764686Y-86137113D01*
X154778075Y-86147083D01*
X154791022Y-86157851D01*
X154803529Y-86169416D01*
X154815596Y-86181779D01*
X154821426Y-86188241D01*
X154832531Y-86201649D01*
X154842896Y-86215705D01*
X154852521Y-86230407D01*
X154861405Y-86245756D01*
X154869549Y-86261752D01*
X154876953Y-86278395D01*
X154883616Y-86295685D01*
X154889539Y-86313621D01*
X154894722Y-86332205D01*
X154897035Y-86341739D01*
X154899164Y-86351435D01*
X154901107Y-86361293D01*
X154902866Y-86371312D01*
X154904439Y-86381493D01*
X154905827Y-86391836D01*
X154907030Y-86402341D01*
X154908048Y-86413007D01*
X154908881Y-86423835D01*
X154909529Y-86434825D01*
X154909992Y-86445976D01*
X154910269Y-86457289D01*
X154910362Y-86468764D01*
X154910270Y-86479861D01*
X154909995Y-86490802D01*
X154909538Y-86501587D01*
X154908896Y-86512217D01*
X154908072Y-86522691D01*
X154907065Y-86533010D01*
X154905874Y-86543173D01*
X154904500Y-86553181D01*
X154902943Y-86563033D01*
X154901203Y-86572730D01*
X154897173Y-86591657D01*
X154892410Y-86609962D01*
X154886915Y-86627644D01*
X154880686Y-86644705D01*
X154873725Y-86661144D01*
X154866032Y-86676960D01*
X154857605Y-86692155D01*
X154848446Y-86706727D01*
X154838554Y-86720678D01*
X154827930Y-86734006D01*
X154816573Y-86746713D01*
X154804590Y-86758691D01*
X154792091Y-86769897D01*
X154779075Y-86780329D01*
X154765541Y-86789989D01*
X154751490Y-86798877D01*
X154736923Y-86806991D01*
X154721838Y-86814333D01*
X154706236Y-86820901D01*
X154690117Y-86826697D01*
X154673481Y-86831721D01*
X154656327Y-86835971D01*
X154638657Y-86839449D01*
X154620469Y-86842153D01*
X154601765Y-86844085D01*
X154582543Y-86845245D01*
X154572738Y-86845534D01*
X154562804Y-86845631D01*
X154547105Y-86845391D01*
X154531759Y-86844669D01*
X154516765Y-86843467D01*
X154502125Y-86841784D01*
X154487838Y-86839620D01*
X154473904Y-86836976D01*
X154460322Y-86833850D01*
X154447094Y-86830244D01*
X154434219Y-86826156D01*
X154421697Y-86821588D01*
X154409528Y-86816539D01*
X154397711Y-86811010D01*
X154386248Y-86804999D01*
X154375138Y-86798507D01*
X154364381Y-86791535D01*
X154353977Y-86784082D01*
X154343950Y-86776194D01*
X154334327Y-86767916D01*
X154325105Y-86759249D01*
X154316287Y-86750193D01*
X154307871Y-86740748D01*
X154299858Y-86730913D01*
X154292247Y-86720689D01*
X154285039Y-86710076D01*
X154278234Y-86699074D01*
X154271831Y-86687682D01*
X154265831Y-86675901D01*
X154260233Y-86663731D01*
X154255038Y-86651172D01*
X154250246Y-86638223D01*
X154245856Y-86624885D01*
X154241869Y-86611158D01*
X154369852Y-86595526D01*
X154371627Y-86600339D01*
X154375295Y-86609718D01*
X154379119Y-86618766D01*
X154385148Y-86631720D01*
X154391529Y-86643931D01*
X154398263Y-86655399D01*
X154405348Y-86666125D01*
X154412786Y-86676107D01*
X154420575Y-86685347D01*
X154428717Y-86693845D01*
X154437210Y-86701599D01*
X154446056Y-86708611D01*
X154452148Y-86712899D01*
X154461575Y-86718813D01*
X154471351Y-86724105D01*
X154481474Y-86728774D01*
X154491944Y-86732820D01*
X154502763Y-86736244D01*
X154513929Y-86739046D01*
X154525443Y-86741225D01*
X154537305Y-86742781D01*
X154549514Y-86743715D01*
X154562072Y-86744026D01*
X154573373Y-86743783D01*
X154584439Y-86743053D01*
X154595270Y-86741836D01*
X154605867Y-86740133D01*
X154616230Y-86737944D01*
X154626357Y-86735268D01*
X154636250Y-86732105D01*
X154645908Y-86728456D01*
X154655331Y-86724320D01*
X154664520Y-86719697D01*
X154673474Y-86714588D01*
X154682193Y-86708992D01*
X154690678Y-86702910D01*
X154698928Y-86696341D01*
X154706943Y-86689286D01*
X154714723Y-86681744D01*
X154722144Y-86673714D01*
X154729141Y-86665254D01*
X154735715Y-86656365D01*
X154741865Y-86647046D01*
X154747591Y-86637299D01*
X154752894Y-86627121D01*
X154757773Y-86616515D01*
X154762229Y-86605479D01*
X154766260Y-86594014D01*
X154769869Y-86582120D01*
X154773053Y-86569796D01*
X154775815Y-86557043D01*
X154778152Y-86543860D01*
X154780066Y-86530249D01*
X154781556Y-86516208D01*
X154782623Y-86501737D01*
X154238450Y-86501737D01*
X154238391Y-86498972D01*
X154238192Y-86488790D01*
X154238030Y-86478038D01*
X154237961Y-86468032D01*
X154238052Y-86456572D01*
X154238324Y-86445274D01*
X154238777Y-86434138D01*
X154239411Y-86423163D01*
X154240227Y-86412351D01*
X154241224Y-86401700D01*
X154241400Y-86400132D01*
X154368387Y-86400132D01*
X154775784Y-86400132D01*
X154774789Y-86387832D01*
X154773391Y-86375845D01*
X154771591Y-86364171D01*
X154769388Y-86352810D01*
X154766782Y-86341762D01*
X154763774Y-86331027D01*
X154760363Y-86320604D01*
X154756550Y-86310495D01*
X154752334Y-86300699D01*
X154747715Y-86291215D01*
X154742694Y-86282044D01*
X154737270Y-86273187D01*
X154731443Y-86264642D01*
X154725214Y-86256410D01*
X154718583Y-86248492D01*
X154711548Y-86240886D01*
X154707889Y-86237219D01*
X154700411Y-86230235D01*
X154692721Y-86223717D01*
X154684819Y-86217665D01*
X154676706Y-86212077D01*
X154668380Y-86206956D01*
X154655495Y-86200147D01*
X154642134Y-86194385D01*
X154628296Y-86189671D01*
X154618806Y-86187110D01*
X154609104Y-86185015D01*
X154599190Y-86183386D01*
X154589064Y-86182222D01*
X154578727Y-86181523D01*
X154568178Y-86181290D01*
X154556560Y-86181582D01*
X154545215Y-86182458D01*
X154534143Y-86183918D01*
X154523344Y-86185962D01*
X154512817Y-86188589D01*
X154502564Y-86191801D01*
X154492583Y-86195596D01*
X154482876Y-86199975D01*
X154473441Y-86204938D01*
X154464279Y-86210485D01*
X154455390Y-86216616D01*
X154446774Y-86223331D01*
X154438430Y-86230629D01*
X154430360Y-86238512D01*
X154422562Y-86246978D01*
X154415037Y-86256029D01*
X154408111Y-86265430D01*
X154401714Y-86275681D01*
X154395844Y-86286782D01*
X154390502Y-86298733D01*
X154385689Y-86311534D01*
X154381403Y-86325186D01*
X154378840Y-86334759D01*
X154376511Y-86344710D01*
X154374417Y-86355039D01*
X154372557Y-86365745D01*
X154370932Y-86376830D01*
X154369542Y-86388292D01*
X154368387Y-86400132D01*
X154241400Y-86400132D01*
X154242402Y-86391210D01*
X154243762Y-86380883D01*
X154245303Y-86370717D01*
X154247025Y-86360713D01*
X154248928Y-86350870D01*
X154251013Y-86341189D01*
X154255726Y-86322313D01*
X154261164Y-86304084D01*
X154267328Y-86286501D01*
X154274216Y-86269565D01*
X154281830Y-86253276D01*
X154290168Y-86237634D01*
X154299232Y-86222639D01*
X154309021Y-86208291D01*
X154319535Y-86194589D01*
X154330774Y-86181535D01*
X154342554Y-86169201D01*
X154354755Y-86157664D01*
X154367376Y-86146922D01*
X154380416Y-86136976D01*
X154393876Y-86127825D01*
X154407756Y-86119470D01*
X154422056Y-86111911D01*
X154436775Y-86105148D01*
X154451914Y-86099180D01*
X154467473Y-86094008D01*
X154483452Y-86089632D01*
X154499851Y-86086051D01*
X154516669Y-86083266D01*
X154533907Y-86081277D01*
X154551565Y-86080083D01*
X154569643Y-86079685D01*
X154588321Y-86080084D01*
G37*
G36*
X154090439Y-86830000D02*
G01*
X154090439Y-86095317D01*
X153979308Y-86095317D01*
X153979308Y-86198387D01*
X153968984Y-86184013D01*
X153958101Y-86170567D01*
X153946659Y-86158047D01*
X153934657Y-86146455D01*
X153922097Y-86135791D01*
X153908978Y-86126053D01*
X153895299Y-86117244D01*
X153881061Y-86109361D01*
X153866265Y-86102406D01*
X153850909Y-86096378D01*
X153834994Y-86091277D01*
X153818520Y-86087104D01*
X153801487Y-86083859D01*
X153783895Y-86081540D01*
X153765743Y-86080149D01*
X153747033Y-86079685D01*
X153734763Y-86079896D01*
X153722681Y-86080527D01*
X153710789Y-86081579D01*
X153699085Y-86083051D01*
X153687571Y-86084945D01*
X153676245Y-86087259D01*
X153665108Y-86089994D01*
X153654160Y-86093149D01*
X153643401Y-86096726D01*
X153632831Y-86100723D01*
X153625889Y-86103621D01*
X153615740Y-86108197D01*
X153606085Y-86113038D01*
X153596924Y-86118146D01*
X153588256Y-86123519D01*
X153580082Y-86129159D01*
X153569952Y-86137094D01*
X153560699Y-86145501D01*
X153552325Y-86154381D01*
X153544828Y-86163735D01*
X153543090Y-86166147D01*
X153536450Y-86176024D01*
X153530329Y-86186359D01*
X153524726Y-86197151D01*
X153519643Y-86208401D01*
X153515079Y-86220110D01*
X153511033Y-86232276D01*
X153508340Y-86241701D01*
X153505939Y-86251384D01*
X153504500Y-86257983D01*
X153502530Y-86270015D01*
X153501194Y-86281469D01*
X153500072Y-86294550D01*
X153499371Y-86305427D01*
X153498790Y-86317219D01*
X153498329Y-86329925D01*
X153497988Y-86343545D01*
X153497768Y-86358080D01*
X153497688Y-86368278D01*
X153497661Y-86378883D01*
X153497661Y-86830000D01*
X153621248Y-86830000D01*
X153621248Y-86382058D01*
X153621375Y-86368109D01*
X153621755Y-86354838D01*
X153622388Y-86342246D01*
X153623275Y-86330332D01*
X153624414Y-86319096D01*
X153625808Y-86308539D01*
X153627454Y-86298660D01*
X153630043Y-86286543D01*
X153633083Y-86275633D01*
X153635658Y-86268241D01*
X153639612Y-86259017D01*
X153644268Y-86250274D01*
X153649626Y-86242012D01*
X153655686Y-86234230D01*
X153662449Y-86226930D01*
X153669913Y-86220110D01*
X153678080Y-86213771D01*
X153686949Y-86207913D01*
X153696311Y-86202589D01*
X153706077Y-86197975D01*
X153716247Y-86194071D01*
X153726822Y-86190877D01*
X153737802Y-86188393D01*
X153749186Y-86186618D01*
X153760974Y-86185553D01*
X153773167Y-86185198D01*
X153782944Y-86185396D01*
X153797296Y-86186433D01*
X153811269Y-86188358D01*
X153824865Y-86191173D01*
X153838082Y-86194876D01*
X153850922Y-86199467D01*
X153863384Y-86204948D01*
X153875469Y-86211317D01*
X153887175Y-86218575D01*
X153898504Y-86226721D01*
X153909455Y-86235757D01*
X153919712Y-86246037D01*
X153925990Y-86253780D01*
X153931819Y-86262235D01*
X153937200Y-86271402D01*
X153942133Y-86281281D01*
X153946617Y-86291871D01*
X153950653Y-86303173D01*
X153954240Y-86315186D01*
X153957379Y-86327912D01*
X153960069Y-86341349D01*
X153962312Y-86355498D01*
X153964105Y-86370359D01*
X153965450Y-86385931D01*
X153966347Y-86402215D01*
X153966796Y-86419211D01*
X153966852Y-86427976D01*
X153966852Y-86830000D01*
X154090439Y-86830000D01*
G37*
G36*
X152952511Y-86497341D02*
G01*
X152826970Y-86486106D01*
X152825749Y-86495856D01*
X152823574Y-86510067D01*
X152820986Y-86523780D01*
X152817987Y-86536995D01*
X152814575Y-86549712D01*
X152810751Y-86561931D01*
X152806515Y-86573651D01*
X152801867Y-86584874D01*
X152796806Y-86595599D01*
X152791334Y-86605826D01*
X152785449Y-86615554D01*
X152778997Y-86624864D01*
X152771914Y-86633835D01*
X152764199Y-86642467D01*
X152755854Y-86650760D01*
X152746877Y-86658713D01*
X152737269Y-86666327D01*
X152727030Y-86673602D01*
X152716160Y-86680538D01*
X152704659Y-86687135D01*
X152692527Y-86693392D01*
X152684088Y-86697376D01*
X152671026Y-86702919D01*
X152657667Y-86707917D01*
X152644012Y-86712370D01*
X152630061Y-86716278D01*
X152615814Y-86719640D01*
X152606151Y-86721579D01*
X152596356Y-86723275D01*
X152586430Y-86724729D01*
X152576372Y-86725941D01*
X152566183Y-86726910D01*
X152555861Y-86727637D01*
X152545409Y-86728122D01*
X152534824Y-86728364D01*
X152529483Y-86728394D01*
X152515351Y-86728195D01*
X152501533Y-86727596D01*
X152488028Y-86726598D01*
X152474837Y-86725200D01*
X152461959Y-86723403D01*
X152449395Y-86721207D01*
X152437144Y-86718612D01*
X152425206Y-86715618D01*
X152413582Y-86712224D01*
X152402271Y-86708430D01*
X152394905Y-86705680D01*
X152384180Y-86701227D01*
X152373988Y-86696478D01*
X152364328Y-86691432D01*
X152355200Y-86686091D01*
X152346605Y-86680453D01*
X152338542Y-86674519D01*
X152331011Y-86668289D01*
X152321799Y-86659521D01*
X152313533Y-86650226D01*
X152307954Y-86642909D01*
X152301257Y-86632785D01*
X152295452Y-86622439D01*
X152290541Y-86611872D01*
X152286522Y-86601083D01*
X152283396Y-86590073D01*
X152281164Y-86578842D01*
X152279824Y-86567389D01*
X152279378Y-86555715D01*
X152279809Y-86543995D01*
X152281103Y-86532649D01*
X152283259Y-86521677D01*
X152286278Y-86511079D01*
X152290159Y-86500856D01*
X152294903Y-86491006D01*
X152300509Y-86481530D01*
X152306977Y-86472428D01*
X152314377Y-86463635D01*
X152322899Y-86455209D01*
X152332543Y-86447149D01*
X152340512Y-86441344D01*
X152349112Y-86435746D01*
X152358343Y-86430353D01*
X152368206Y-86425167D01*
X152378700Y-86420187D01*
X152389824Y-86415413D01*
X152397591Y-86412344D01*
X152409262Y-86408101D01*
X152420028Y-86404557D01*
X152432520Y-86400705D01*
X152446738Y-86396543D01*
X152457176Y-86393597D01*
X152468380Y-86390513D01*
X152480352Y-86387292D01*
X152493091Y-86383934D01*
X152506597Y-86380438D01*
X152520870Y-86376805D01*
X152535910Y-86373034D01*
X152551717Y-86369127D01*
X152568291Y-86365081D01*
X152576866Y-86363007D01*
X152593883Y-86358809D01*
X152610251Y-86354642D01*
X152625970Y-86350505D01*
X152641040Y-86346399D01*
X152655462Y-86342323D01*
X152669235Y-86338278D01*
X152682359Y-86334263D01*
X152694835Y-86330279D01*
X152706662Y-86326325D01*
X152717840Y-86322402D01*
X152728369Y-86318509D01*
X152738249Y-86314647D01*
X152747481Y-86310816D01*
X152760112Y-86305125D01*
X152771283Y-86299504D01*
X152780146Y-86294640D01*
X152788723Y-86289635D01*
X152801052Y-86281863D01*
X152812737Y-86273773D01*
X152823778Y-86265365D01*
X152834176Y-86256639D01*
X152843929Y-86247596D01*
X152853038Y-86238235D01*
X152861503Y-86228557D01*
X152869324Y-86218560D01*
X152876501Y-86208246D01*
X152878750Y-86204738D01*
X152885079Y-86194039D01*
X152890785Y-86183099D01*
X152895869Y-86171920D01*
X152900331Y-86160499D01*
X152904170Y-86148839D01*
X152907386Y-86136938D01*
X152909980Y-86124796D01*
X152911952Y-86112414D01*
X152913300Y-86099792D01*
X152914027Y-86086929D01*
X152914165Y-86078220D01*
X152913785Y-86063885D01*
X152912645Y-86049729D01*
X152910745Y-86035755D01*
X152908086Y-86021960D01*
X152904666Y-86008346D01*
X152900486Y-85994912D01*
X152895547Y-85981659D01*
X152889848Y-85968586D01*
X152883388Y-85955693D01*
X152876169Y-85942980D01*
X152870934Y-85934605D01*
X152865345Y-85926366D01*
X152859447Y-85918378D01*
X152853240Y-85910643D01*
X152846723Y-85903159D01*
X152839898Y-85895927D01*
X152832763Y-85888947D01*
X152825320Y-85882219D01*
X152817567Y-85875743D01*
X152809505Y-85869518D01*
X152801134Y-85863546D01*
X152792454Y-85857825D01*
X152783465Y-85852356D01*
X152774166Y-85847140D01*
X152764559Y-85842175D01*
X152754642Y-85837461D01*
X152744416Y-85833000D01*
X152733962Y-85828800D01*
X152723362Y-85824871D01*
X152712614Y-85821214D01*
X152701720Y-85817827D01*
X152690678Y-85814711D01*
X152679490Y-85811866D01*
X152668154Y-85809291D01*
X152656672Y-85806988D01*
X152645043Y-85804956D01*
X152633267Y-85803195D01*
X152621344Y-85801705D01*
X152609274Y-85800485D01*
X152597057Y-85799537D01*
X152584693Y-85798860D01*
X152572182Y-85798453D01*
X152559524Y-85798318D01*
X152545645Y-85798460D01*
X152531971Y-85798886D01*
X152518503Y-85799597D01*
X152505241Y-85800592D01*
X152492186Y-85801872D01*
X152479336Y-85803435D01*
X152466693Y-85805283D01*
X152454256Y-85807416D01*
X152442025Y-85809832D01*
X152429999Y-85812533D01*
X152418180Y-85815519D01*
X152406567Y-85818788D01*
X152395160Y-85822342D01*
X152383960Y-85826180D01*
X152372965Y-85830303D01*
X152362176Y-85834710D01*
X152351645Y-85839363D01*
X152341423Y-85844285D01*
X152331510Y-85849476D01*
X152321907Y-85854936D01*
X152312612Y-85860665D01*
X152303627Y-85866664D01*
X152294950Y-85872931D01*
X152286583Y-85879467D01*
X152278525Y-85886273D01*
X152270776Y-85893347D01*
X152263336Y-85900691D01*
X152256205Y-85908303D01*
X152249384Y-85916185D01*
X152242871Y-85924336D01*
X152236668Y-85932755D01*
X152230774Y-85941444D01*
X152225170Y-85950340D01*
X152219901Y-85959381D01*
X152214966Y-85968566D01*
X152210364Y-85977897D01*
X152206096Y-85987373D01*
X152202163Y-85996994D01*
X152198563Y-86006760D01*
X152195297Y-86016671D01*
X152192365Y-86026727D01*
X152189767Y-86036928D01*
X152187503Y-86047274D01*
X152185573Y-86057765D01*
X152183977Y-86068401D01*
X152182715Y-86079182D01*
X152181787Y-86090108D01*
X152181192Y-86101179D01*
X152308931Y-86110949D01*
X152310406Y-86099044D01*
X152312267Y-86087509D01*
X152314513Y-86076344D01*
X152317144Y-86065550D01*
X152320161Y-86055126D01*
X152323563Y-86045072D01*
X152327351Y-86035388D01*
X152331524Y-86026074D01*
X152336082Y-86017131D01*
X152341026Y-86008557D01*
X152346356Y-86000354D01*
X152355073Y-85988744D01*
X152364657Y-85977966D01*
X152375108Y-85968021D01*
X152378785Y-85964891D01*
X152390411Y-85956074D01*
X152398715Y-85950678D01*
X152407462Y-85945667D01*
X152416652Y-85941042D01*
X152426284Y-85936802D01*
X152436359Y-85932948D01*
X152446877Y-85929479D01*
X152457837Y-85926395D01*
X152469240Y-85923697D01*
X152481086Y-85921384D01*
X152493375Y-85919457D01*
X152506106Y-85917915D01*
X152519280Y-85916759D01*
X152532896Y-85915988D01*
X152546955Y-85915602D01*
X152554151Y-85915554D01*
X152569008Y-85915729D01*
X152583353Y-85916253D01*
X152597187Y-85917126D01*
X152610510Y-85918348D01*
X152623321Y-85919919D01*
X152635621Y-85921840D01*
X152647410Y-85924109D01*
X152658687Y-85926728D01*
X152669453Y-85929697D01*
X152679707Y-85933014D01*
X152689450Y-85936680D01*
X152698682Y-85940696D01*
X152711570Y-85947374D01*
X152723308Y-85954838D01*
X152730494Y-85960251D01*
X152740359Y-85968749D01*
X152749253Y-85977573D01*
X152757177Y-85986723D01*
X152764131Y-85996200D01*
X152770115Y-86006003D01*
X152775128Y-86016133D01*
X152779171Y-86026588D01*
X152782243Y-86037370D01*
X152784346Y-86048479D01*
X152785478Y-86059913D01*
X152785693Y-86067718D01*
X152785348Y-86077804D01*
X152784311Y-86087547D01*
X152781853Y-86100003D01*
X152778167Y-86111849D01*
X152773251Y-86123084D01*
X152767107Y-86133709D01*
X152759734Y-86143723D01*
X152751132Y-86153126D01*
X152746370Y-86157599D01*
X152738090Y-86164211D01*
X152727628Y-86170857D01*
X152714986Y-86177537D01*
X152705346Y-86182010D01*
X152694737Y-86186498D01*
X152683158Y-86191001D01*
X152670610Y-86195520D01*
X152657093Y-86200053D01*
X152642606Y-86204602D01*
X152627150Y-86209167D01*
X152610725Y-86213746D01*
X152593330Y-86218341D01*
X152574966Y-86222951D01*
X152565421Y-86225262D01*
X152555633Y-86227576D01*
X152545603Y-86229895D01*
X152535551Y-86232191D01*
X152525698Y-86234470D01*
X152516044Y-86236731D01*
X152497332Y-86241199D01*
X152479417Y-86245598D01*
X152462297Y-86249925D01*
X152445973Y-86254182D01*
X152430444Y-86258369D01*
X152415711Y-86262485D01*
X152401774Y-86266530D01*
X152388633Y-86270505D01*
X152376287Y-86274409D01*
X152364737Y-86278242D01*
X152353983Y-86282005D01*
X152344024Y-86285697D01*
X152334861Y-86289319D01*
X152322609Y-86294619D01*
X152311798Y-86299803D01*
X152301348Y-86305156D01*
X152291259Y-86310679D01*
X152281530Y-86316372D01*
X152272162Y-86322235D01*
X152263155Y-86328267D01*
X152254508Y-86334470D01*
X152246222Y-86340842D01*
X152238296Y-86347384D01*
X152230732Y-86354096D01*
X152223527Y-86360978D01*
X152216684Y-86368029D01*
X152207095Y-86378925D01*
X152198317Y-86390203D01*
X152192916Y-86397934D01*
X152185408Y-86409825D01*
X152178639Y-86422051D01*
X152172608Y-86434612D01*
X152167316Y-86447508D01*
X152162762Y-86460738D01*
X152158947Y-86474304D01*
X152155870Y-86488204D01*
X152153532Y-86502439D01*
X152151932Y-86517009D01*
X152151275Y-86526909D01*
X152150947Y-86536957D01*
X152150906Y-86542037D01*
X152151086Y-86552106D01*
X152151627Y-86562103D01*
X152152529Y-86572028D01*
X152153791Y-86581879D01*
X152155414Y-86591659D01*
X152157398Y-86601365D01*
X152159742Y-86611000D01*
X152162447Y-86620561D01*
X152165512Y-86630050D01*
X152168938Y-86639467D01*
X152172725Y-86648811D01*
X152176872Y-86658083D01*
X152181380Y-86667282D01*
X152186249Y-86676409D01*
X152191478Y-86685463D01*
X152197068Y-86694445D01*
X152202965Y-86703266D01*
X152209177Y-86711839D01*
X152215704Y-86720165D01*
X152222546Y-86728242D01*
X152229702Y-86736071D01*
X152237173Y-86743652D01*
X152244960Y-86750985D01*
X152253061Y-86758070D01*
X152261477Y-86764907D01*
X152270207Y-86771496D01*
X152279253Y-86777836D01*
X152288613Y-86783929D01*
X152298289Y-86789774D01*
X152308279Y-86795370D01*
X152318584Y-86800719D01*
X152329203Y-86805819D01*
X152340065Y-86810640D01*
X152351094Y-86815150D01*
X152362291Y-86819349D01*
X152373656Y-86823237D01*
X152385188Y-86826814D01*
X152396889Y-86830080D01*
X152408758Y-86833034D01*
X152420794Y-86835678D01*
X152432999Y-86838011D01*
X152445371Y-86840033D01*
X152457912Y-86841743D01*
X152470620Y-86843143D01*
X152483496Y-86844231D01*
X152496540Y-86845009D01*
X152509752Y-86845476D01*
X152523132Y-86845631D01*
X152540057Y-86845472D01*
X152556635Y-86844994D01*
X152572869Y-86844197D01*
X152588757Y-86843082D01*
X152604300Y-86841648D01*
X152619497Y-86839895D01*
X152634350Y-86837824D01*
X152648856Y-86835434D01*
X152663018Y-86832725D01*
X152676834Y-86829698D01*
X152690304Y-86826352D01*
X152703429Y-86822687D01*
X152716209Y-86818704D01*
X152728644Y-86814402D01*
X152740733Y-86809782D01*
X152752476Y-86804842D01*
X152763861Y-86799585D01*
X152774935Y-86794008D01*
X152785698Y-86788113D01*
X152796150Y-86781899D01*
X152806291Y-86775366D01*
X152816121Y-86768515D01*
X152825639Y-86761345D01*
X152834847Y-86753857D01*
X152843744Y-86746050D01*
X152852330Y-86737924D01*
X152860604Y-86729479D01*
X152868568Y-86720716D01*
X152876221Y-86711634D01*
X152883562Y-86702234D01*
X152890593Y-86692515D01*
X152897312Y-86682477D01*
X152903682Y-86672165D01*
X152909662Y-86661686D01*
X152915253Y-86651038D01*
X152920454Y-86640223D01*
X152925267Y-86629240D01*
X152929690Y-86618088D01*
X152933724Y-86606769D01*
X152937368Y-86595282D01*
X152940623Y-86583627D01*
X152943489Y-86571804D01*
X152945966Y-86559813D01*
X152948054Y-86547655D01*
X152949752Y-86535328D01*
X152951061Y-86522834D01*
X152951981Y-86510171D01*
X152952511Y-86497341D01*
G37*
G36*
X151989950Y-86830000D02*
G01*
X151989950Y-86095317D01*
X151879308Y-86095317D01*
X151879308Y-86196922D01*
X151872697Y-86187211D01*
X151865687Y-86177860D01*
X151858277Y-86168869D01*
X151850468Y-86160240D01*
X151842260Y-86151971D01*
X151833653Y-86144063D01*
X151824646Y-86136515D01*
X151815240Y-86129328D01*
X151805435Y-86122501D01*
X151795230Y-86116036D01*
X151788206Y-86111926D01*
X151777352Y-86106164D01*
X151766224Y-86100969D01*
X151754821Y-86096341D01*
X151743143Y-86092279D01*
X151731190Y-86088784D01*
X151718963Y-86085856D01*
X151706460Y-86083495D01*
X151693684Y-86081700D01*
X151680632Y-86080473D01*
X151667305Y-86079811D01*
X151658268Y-86079685D01*
X151648247Y-86079815D01*
X151638454Y-86080204D01*
X151624195Y-86081275D01*
X151610450Y-86082929D01*
X151597221Y-86085168D01*
X151584507Y-86087990D01*
X151572308Y-86091396D01*
X151560625Y-86095386D01*
X151549456Y-86099960D01*
X151538803Y-86105117D01*
X151528665Y-86110859D01*
X151525400Y-86112903D01*
X151515916Y-86119365D01*
X151506973Y-86126295D01*
X151498571Y-86133693D01*
X151490710Y-86141559D01*
X151483390Y-86149893D01*
X151476611Y-86158695D01*
X151470373Y-86167965D01*
X151464675Y-86177703D01*
X151459519Y-86187909D01*
X151454904Y-86198583D01*
X151452127Y-86205959D01*
X151441115Y-86190668D01*
X151429695Y-86176364D01*
X151417867Y-86163046D01*
X151405630Y-86150714D01*
X151392984Y-86139369D01*
X151379931Y-86129011D01*
X151366469Y-86119639D01*
X151352598Y-86111254D01*
X151338320Y-86103855D01*
X151323633Y-86097443D01*
X151308537Y-86092017D01*
X151293034Y-86087578D01*
X151277122Y-86084125D01*
X151260801Y-86081658D01*
X151244073Y-86080179D01*
X151226935Y-86079685D01*
X151213546Y-86079922D01*
X151200550Y-86080632D01*
X151187946Y-86081815D01*
X151175736Y-86083471D01*
X151163919Y-86085601D01*
X151152495Y-86088203D01*
X151141464Y-86091279D01*
X151130826Y-86094829D01*
X151120581Y-86098851D01*
X151110729Y-86103346D01*
X151101271Y-86108315D01*
X151092205Y-86113757D01*
X151083532Y-86119673D01*
X151075253Y-86126061D01*
X151067367Y-86132923D01*
X151059873Y-86140258D01*
X151052805Y-86148054D01*
X151046192Y-86156362D01*
X151040035Y-86165182D01*
X151034335Y-86174513D01*
X151029090Y-86184355D01*
X151024302Y-86194709D01*
X151019969Y-86205574D01*
X151016093Y-86216950D01*
X151012672Y-86228838D01*
X151009708Y-86241237D01*
X151007200Y-86254147D01*
X151005148Y-86267569D01*
X151003552Y-86281503D01*
X151002411Y-86295947D01*
X151001727Y-86310903D01*
X151001499Y-86326371D01*
X151001499Y-86830000D01*
X151124598Y-86830000D01*
X151124598Y-86366182D01*
X151124703Y-86352494D01*
X151125018Y-86339549D01*
X151125544Y-86327347D01*
X151126281Y-86315887D01*
X151127227Y-86305171D01*
X151128384Y-86295196D01*
X151130254Y-86283053D01*
X151132498Y-86272230D01*
X151135116Y-86262727D01*
X151136566Y-86258471D01*
X151140789Y-86248483D01*
X151145978Y-86239127D01*
X151152133Y-86230404D01*
X151159253Y-86222312D01*
X151167340Y-86214852D01*
X151176393Y-86208025D01*
X151180285Y-86205471D01*
X151190399Y-86199630D01*
X151201050Y-86194780D01*
X151212238Y-86190920D01*
X151223963Y-86188049D01*
X151233728Y-86186465D01*
X151243838Y-86185515D01*
X151254291Y-86185198D01*
X151268487Y-86185653D01*
X151282223Y-86187019D01*
X151295500Y-86189294D01*
X151308318Y-86192480D01*
X151320676Y-86196576D01*
X151332575Y-86201582D01*
X151344015Y-86207498D01*
X151354995Y-86214324D01*
X151365516Y-86222061D01*
X151375577Y-86230708D01*
X151382030Y-86236978D01*
X151391109Y-86247188D01*
X151399295Y-86258493D01*
X151406588Y-86270893D01*
X151410953Y-86279768D01*
X151414922Y-86289129D01*
X151418494Y-86298977D01*
X151421670Y-86309312D01*
X151424448Y-86320133D01*
X151426829Y-86331440D01*
X151428814Y-86343235D01*
X151430401Y-86355516D01*
X151431592Y-86368283D01*
X151432386Y-86381537D01*
X151432783Y-86395278D01*
X151432832Y-86402330D01*
X151432832Y-86830000D01*
X151556663Y-86830000D01*
X151556663Y-86351528D01*
X151556782Y-86341310D01*
X151557137Y-86331416D01*
X151558113Y-86317183D01*
X151559621Y-86303681D01*
X151561662Y-86290908D01*
X151564235Y-86278866D01*
X151567340Y-86267553D01*
X151570978Y-86256970D01*
X151575148Y-86247116D01*
X151579851Y-86237993D01*
X151585086Y-86229600D01*
X151586949Y-86226964D01*
X151595063Y-86217175D01*
X151604382Y-86208691D01*
X151614908Y-86201513D01*
X151623593Y-86196986D01*
X151632957Y-86193193D01*
X151642999Y-86190134D01*
X151653719Y-86187809D01*
X151665118Y-86186218D01*
X151677195Y-86185362D01*
X151685624Y-86185198D01*
X151698568Y-86185633D01*
X151711269Y-86186939D01*
X151723725Y-86189114D01*
X151735938Y-86192159D01*
X151747905Y-86196075D01*
X151759629Y-86200860D01*
X151771109Y-86206516D01*
X151782344Y-86213042D01*
X151793018Y-86220346D01*
X151802936Y-86228460D01*
X151812099Y-86237382D01*
X151820507Y-86247114D01*
X151828158Y-86257655D01*
X151833401Y-86266091D01*
X151838219Y-86274982D01*
X151842612Y-86284329D01*
X151846580Y-86294131D01*
X151850115Y-86304531D01*
X151853303Y-86315763D01*
X151856143Y-86327829D01*
X151858635Y-86340728D01*
X151860780Y-86354459D01*
X151862577Y-86369024D01*
X151863581Y-86379196D01*
X151864431Y-86389738D01*
X151865127Y-86400651D01*
X151865668Y-86411934D01*
X151866054Y-86423587D01*
X151866286Y-86435610D01*
X151866363Y-86448004D01*
X151866363Y-86830000D01*
X151989950Y-86830000D01*
G37*
G36*
X150823691Y-85954633D02*
G01*
X150823691Y-85813949D01*
X150700104Y-85813949D01*
X150700104Y-85954633D01*
X150823691Y-85954633D01*
G37*
G36*
X150823691Y-86830000D02*
G01*
X150823691Y-86095317D01*
X150700104Y-86095317D01*
X150700104Y-86830000D01*
X150823691Y-86830000D01*
G37*
G36*
X150243858Y-86716671D02*
G01*
X150226028Y-86830000D01*
X150235730Y-86832793D01*
X150245234Y-86835312D01*
X150257599Y-86838243D01*
X150269612Y-86840685D01*
X150281275Y-86842639D01*
X150292586Y-86844105D01*
X150303547Y-86845081D01*
X150314156Y-86845570D01*
X150319329Y-86845631D01*
X150331702Y-86845442D01*
X150343543Y-86844875D01*
X150354852Y-86843931D01*
X150365628Y-86842609D01*
X150375872Y-86840908D01*
X150385584Y-86838830D01*
X150397704Y-86835472D01*
X150408878Y-86831442D01*
X150419106Y-86826740D01*
X150423865Y-86824138D01*
X150432803Y-86818493D01*
X150441054Y-86812429D01*
X150448617Y-86805945D01*
X150457106Y-86797250D01*
X150464522Y-86787899D01*
X150470864Y-86777892D01*
X150476133Y-86767229D01*
X150479625Y-86757219D01*
X150482651Y-86744774D01*
X150484615Y-86733842D01*
X150486318Y-86721541D01*
X150487758Y-86707871D01*
X150488573Y-86697996D01*
X150489271Y-86687513D01*
X150489853Y-86676421D01*
X150490319Y-86664720D01*
X150490668Y-86652410D01*
X150490901Y-86639492D01*
X150491017Y-86625965D01*
X150491032Y-86618974D01*
X150491032Y-86193014D01*
X150581890Y-86193014D01*
X150581890Y-86095317D01*
X150491032Y-86095317D01*
X150491032Y-85917997D01*
X150368178Y-85845212D01*
X150368178Y-86095317D01*
X150243858Y-86095317D01*
X150243858Y-86193014D01*
X150368178Y-86193014D01*
X150368178Y-86628988D01*
X150368122Y-86638813D01*
X150367874Y-86650851D01*
X150367427Y-86661676D01*
X150366590Y-86673501D01*
X150365443Y-86683429D01*
X150363316Y-86694143D01*
X150361827Y-86698597D01*
X150356919Y-86707618D01*
X150350436Y-86715446D01*
X150342378Y-86722081D01*
X150340578Y-86723265D01*
X150331193Y-86727634D01*
X150321164Y-86730317D01*
X150311086Y-86731738D01*
X150299792Y-86732294D01*
X150298080Y-86732302D01*
X150286997Y-86731325D01*
X150275948Y-86728868D01*
X150265472Y-86725570D01*
X150256034Y-86721983D01*
X150245952Y-86717633D01*
X150243858Y-86716671D01*
G37*
G36*
X150124912Y-86830000D02*
G01*
X150124912Y-85813949D01*
X150001325Y-85813949D01*
X150001325Y-86179092D01*
X149990340Y-86167055D01*
X149979000Y-86155794D01*
X149967304Y-86145310D01*
X149955255Y-86135602D01*
X149942850Y-86126671D01*
X149930090Y-86118516D01*
X149916975Y-86111138D01*
X149903506Y-86104537D01*
X149889681Y-86098713D01*
X149875502Y-86093665D01*
X149860967Y-86089393D01*
X149846078Y-86085898D01*
X149830834Y-86083180D01*
X149815235Y-86081239D01*
X149799281Y-86080074D01*
X149782972Y-86079685D01*
X149772919Y-86079811D01*
X149763032Y-86080189D01*
X149748512Y-86081228D01*
X149734366Y-86082834D01*
X149720594Y-86085006D01*
X149707195Y-86087745D01*
X149694170Y-86091051D01*
X149681518Y-86094924D01*
X149669240Y-86099363D01*
X149657336Y-86104369D01*
X149645804Y-86109942D01*
X149642044Y-86111926D01*
X149631124Y-86118142D01*
X149620806Y-86124791D01*
X149611089Y-86131874D01*
X149601973Y-86139391D01*
X149593457Y-86147342D01*
X149585543Y-86155726D01*
X149578230Y-86164544D01*
X149571518Y-86173795D01*
X149565408Y-86183480D01*
X149559898Y-86193599D01*
X149556559Y-86200586D01*
X149551932Y-86211659D01*
X149547760Y-86223629D01*
X149544044Y-86236497D01*
X149540782Y-86250262D01*
X149538861Y-86259938D01*
X149537141Y-86270012D01*
X149535624Y-86280485D01*
X149534310Y-86291356D01*
X149533197Y-86302627D01*
X149532287Y-86314296D01*
X149531579Y-86326364D01*
X149531073Y-86338831D01*
X149530770Y-86351697D01*
X149530669Y-86364961D01*
X149530669Y-86830000D01*
X149654500Y-86830000D01*
X149654500Y-86363984D01*
X149654657Y-86352490D01*
X149655130Y-86341396D01*
X149655917Y-86330699D01*
X149657019Y-86320402D01*
X149658436Y-86310504D01*
X149661151Y-86296404D01*
X149664575Y-86283201D01*
X149668707Y-86270895D01*
X149673548Y-86259487D01*
X149679097Y-86248977D01*
X149685355Y-86239363D01*
X149692321Y-86230647D01*
X149694800Y-86227941D01*
X149702605Y-86220302D01*
X149710997Y-86213415D01*
X149719978Y-86207279D01*
X149729547Y-86201895D01*
X149739705Y-86197261D01*
X149750450Y-86193380D01*
X149761784Y-86190249D01*
X149773706Y-86187870D01*
X149786216Y-86186242D01*
X149799314Y-86185365D01*
X149808373Y-86185198D01*
X149818619Y-86185452D01*
X149828749Y-86186212D01*
X149838763Y-86187478D01*
X149848662Y-86189251D01*
X149858444Y-86191531D01*
X149868110Y-86194317D01*
X149877661Y-86197610D01*
X149887096Y-86201410D01*
X149896414Y-86205716D01*
X149905617Y-86210529D01*
X149911688Y-86214019D01*
X149920513Y-86219560D01*
X149928852Y-86225465D01*
X149936707Y-86231735D01*
X149944077Y-86238371D01*
X149950961Y-86245371D01*
X149959385Y-86255272D01*
X149966947Y-86265823D01*
X149972053Y-86274161D01*
X149976673Y-86282864D01*
X149980808Y-86291933D01*
X149984475Y-86301466D01*
X149987781Y-86311656D01*
X149990726Y-86322503D01*
X149993311Y-86334007D01*
X149995535Y-86346168D01*
X149997398Y-86358986D01*
X149998901Y-86372460D01*
X150000043Y-86386592D01*
X150000604Y-86396378D01*
X150001004Y-86406456D01*
X150001245Y-86416826D01*
X150001325Y-86427487D01*
X150001325Y-86830000D01*
X150124912Y-86830000D01*
G37*
G36*
X148341939Y-86712763D02*
G01*
X148341939Y-86830000D01*
X149007745Y-86830000D01*
X149007787Y-86818879D01*
X149007302Y-86807865D01*
X149006291Y-86796958D01*
X149004753Y-86786158D01*
X149002688Y-86775465D01*
X149000097Y-86764878D01*
X148996979Y-86754399D01*
X148993335Y-86744026D01*
X148988260Y-86731268D01*
X148982653Y-86718549D01*
X148976513Y-86705869D01*
X148969842Y-86693227D01*
X148962637Y-86680624D01*
X148957539Y-86672244D01*
X148952204Y-86663880D01*
X148946632Y-86655534D01*
X148940823Y-86647205D01*
X148934778Y-86638893D01*
X148928497Y-86630598D01*
X148921978Y-86622321D01*
X148915224Y-86614060D01*
X148911758Y-86609937D01*
X148904571Y-86601583D01*
X148896996Y-86593069D01*
X148889031Y-86584394D01*
X148880678Y-86575560D01*
X148871934Y-86566565D01*
X148862802Y-86557409D01*
X148853280Y-86548094D01*
X148843370Y-86538618D01*
X148833069Y-86528982D01*
X148822380Y-86519185D01*
X148811301Y-86509228D01*
X148799833Y-86499112D01*
X148787976Y-86488834D01*
X148775730Y-86478397D01*
X148763094Y-86467799D01*
X148750069Y-86457041D01*
X148739915Y-86448608D01*
X148729968Y-86440286D01*
X148720230Y-86432074D01*
X148710700Y-86423972D01*
X148701378Y-86415981D01*
X148692263Y-86408100D01*
X148683357Y-86400328D01*
X148674659Y-86392667D01*
X148666168Y-86385117D01*
X148657886Y-86377676D01*
X148649812Y-86370346D01*
X148641945Y-86363125D01*
X148634287Y-86356015D01*
X148626837Y-86349016D01*
X148619594Y-86342126D01*
X148605734Y-86328677D01*
X148592705Y-86315670D01*
X148580508Y-86303103D01*
X148569143Y-86290976D01*
X148558610Y-86279291D01*
X148548909Y-86268046D01*
X148540040Y-86257242D01*
X148532003Y-86246879D01*
X148528296Y-86241863D01*
X148521287Y-86231974D01*
X148514729Y-86222152D01*
X148508624Y-86212396D01*
X148502971Y-86202708D01*
X148497771Y-86193086D01*
X148493022Y-86183531D01*
X148488726Y-86174042D01*
X148484882Y-86164621D01*
X148481490Y-86155266D01*
X148477251Y-86141359D01*
X148474029Y-86127603D01*
X148471824Y-86113997D01*
X148470637Y-86100541D01*
X148470411Y-86091653D01*
X148470874Y-86077938D01*
X148472265Y-86064634D01*
X148474584Y-86051743D01*
X148477830Y-86039263D01*
X148482003Y-86027196D01*
X148487103Y-86015541D01*
X148493131Y-86004298D01*
X148500086Y-85993468D01*
X148507969Y-85983049D01*
X148516779Y-85973043D01*
X148523167Y-85966601D01*
X148533292Y-85957478D01*
X148543975Y-85949253D01*
X148555217Y-85941925D01*
X148567016Y-85935494D01*
X148579374Y-85929961D01*
X148592290Y-85925325D01*
X148605764Y-85921586D01*
X148619796Y-85918745D01*
X148634386Y-85916801D01*
X148644423Y-85916003D01*
X148654708Y-85915604D01*
X148659943Y-85915554D01*
X148670978Y-85915773D01*
X148681734Y-85916428D01*
X148692212Y-85917521D01*
X148702411Y-85919050D01*
X148712331Y-85921016D01*
X148721973Y-85923420D01*
X148731336Y-85926260D01*
X148744859Y-85931340D01*
X148757755Y-85937403D01*
X148770024Y-85944449D01*
X148781666Y-85952478D01*
X148792681Y-85961490D01*
X148803069Y-85971486D01*
X148812635Y-85982353D01*
X148821273Y-85993980D01*
X148828984Y-86006367D01*
X148833609Y-86015047D01*
X148837823Y-86024065D01*
X148841624Y-86033421D01*
X148845012Y-86043114D01*
X148847989Y-86053145D01*
X148850554Y-86063514D01*
X148852706Y-86074221D01*
X148854446Y-86085265D01*
X148855774Y-86096647D01*
X148856690Y-86108367D01*
X148857194Y-86120425D01*
X148857291Y-86126580D01*
X148984298Y-86113147D01*
X148982397Y-86095162D01*
X148979932Y-86077720D01*
X148976902Y-86060822D01*
X148973307Y-86044469D01*
X148969147Y-86028659D01*
X148964422Y-86013393D01*
X148959133Y-85998670D01*
X148953279Y-85984492D01*
X148946860Y-85970857D01*
X148939876Y-85957766D01*
X148932327Y-85945219D01*
X148924214Y-85933216D01*
X148915536Y-85921757D01*
X148906293Y-85910841D01*
X148896485Y-85900469D01*
X148886112Y-85890642D01*
X148875229Y-85881355D01*
X148863890Y-85872667D01*
X148852095Y-85864578D01*
X148839843Y-85857089D01*
X148827136Y-85850198D01*
X148813973Y-85843907D01*
X148800353Y-85838215D01*
X148786278Y-85833122D01*
X148771746Y-85828629D01*
X148756759Y-85824734D01*
X148741315Y-85821439D01*
X148725415Y-85818743D01*
X148709060Y-85816645D01*
X148692248Y-85815148D01*
X148674980Y-85814249D01*
X148657256Y-85813949D01*
X148639388Y-85814265D01*
X148621990Y-85815212D01*
X148605064Y-85816791D01*
X148588609Y-85819002D01*
X148572625Y-85821844D01*
X148557113Y-85825318D01*
X148542072Y-85829423D01*
X148527502Y-85834160D01*
X148513404Y-85839529D01*
X148499777Y-85845529D01*
X148486621Y-85852161D01*
X148473937Y-85859424D01*
X148461724Y-85867319D01*
X148449982Y-85875846D01*
X148438712Y-85885004D01*
X148427912Y-85894794D01*
X148417679Y-85905050D01*
X148408106Y-85915608D01*
X148399193Y-85926467D01*
X148390940Y-85937628D01*
X148383348Y-85949090D01*
X148376415Y-85960854D01*
X148370143Y-85972919D01*
X148364531Y-85985286D01*
X148359580Y-85997954D01*
X148355288Y-86010923D01*
X148351657Y-86024195D01*
X148348686Y-86037767D01*
X148346375Y-86051641D01*
X148344725Y-86065817D01*
X148343735Y-86080294D01*
X148343404Y-86095073D01*
X148343621Y-86106459D01*
X148344272Y-86117810D01*
X148345356Y-86129127D01*
X148346873Y-86140410D01*
X148348825Y-86151659D01*
X148351210Y-86162873D01*
X148354028Y-86174053D01*
X148357280Y-86185198D01*
X148360966Y-86196310D01*
X148365086Y-86207386D01*
X148368073Y-86214752D01*
X148372986Y-86225799D01*
X148378474Y-86236957D01*
X148384538Y-86248227D01*
X148391177Y-86259608D01*
X148398391Y-86271102D01*
X148406181Y-86282707D01*
X148414545Y-86294423D01*
X148420442Y-86302296D01*
X148426593Y-86310219D01*
X148433001Y-86318191D01*
X148439664Y-86326213D01*
X148446583Y-86334284D01*
X148450139Y-86338339D01*
X148457610Y-86346649D01*
X148465675Y-86355336D01*
X148474333Y-86364402D01*
X148483585Y-86373845D01*
X148493430Y-86383667D01*
X148503868Y-86393866D01*
X148514900Y-86404443D01*
X148526525Y-86415397D01*
X148538744Y-86426730D01*
X148551557Y-86438440D01*
X148564962Y-86450528D01*
X148578961Y-86462994D01*
X148593554Y-86475838D01*
X148601073Y-86482401D01*
X148608740Y-86489059D01*
X148616555Y-86495812D01*
X148624519Y-86502659D01*
X148632632Y-86509600D01*
X148640892Y-86516636D01*
X148654473Y-86528214D01*
X148667435Y-86539316D01*
X148679775Y-86549944D01*
X148691496Y-86560096D01*
X148702597Y-86569773D01*
X148713077Y-86578975D01*
X148722938Y-86587702D01*
X148732178Y-86595954D01*
X148740798Y-86603730D01*
X148748798Y-86611032D01*
X148756178Y-86617858D01*
X148766085Y-86627207D01*
X148774596Y-86635487D01*
X148781712Y-86642697D01*
X148783774Y-86644863D01*
X148791479Y-86653297D01*
X148798841Y-86661747D01*
X148805859Y-86670211D01*
X148812534Y-86678691D01*
X148818865Y-86687186D01*
X148824853Y-86695696D01*
X148830497Y-86704222D01*
X148835798Y-86712763D01*
X148341939Y-86712763D01*
G37*
G36*
X147898553Y-85814181D02*
G01*
X147911854Y-85814877D01*
X147924863Y-85816036D01*
X147937580Y-85817659D01*
X147950005Y-85819745D01*
X147962137Y-85822295D01*
X147973979Y-85825309D01*
X147985528Y-85828787D01*
X147996785Y-85832728D01*
X148007750Y-85837133D01*
X148018423Y-85842002D01*
X148028804Y-85847334D01*
X148038894Y-85853130D01*
X148048691Y-85859390D01*
X148058196Y-85866113D01*
X148067410Y-85873300D01*
X148076309Y-85880885D01*
X148084931Y-85888863D01*
X148093276Y-85897234D01*
X148101344Y-85905998D01*
X148109136Y-85915155D01*
X148116652Y-85924706D01*
X148123890Y-85934649D01*
X148130852Y-85944986D01*
X148137537Y-85955715D01*
X148143946Y-85966838D01*
X148150078Y-85978353D01*
X148155933Y-85990262D01*
X148161511Y-86002564D01*
X148166813Y-86015259D01*
X148171838Y-86028347D01*
X148176587Y-86041828D01*
X148178841Y-86048720D01*
X148183134Y-86062912D01*
X148187141Y-86077651D01*
X148190862Y-86092935D01*
X148194297Y-86108765D01*
X148197445Y-86125141D01*
X148200307Y-86142062D01*
X148202883Y-86159530D01*
X148205173Y-86177542D01*
X148207177Y-86196101D01*
X148208894Y-86215205D01*
X148209645Y-86224962D01*
X148210325Y-86234856D01*
X148210933Y-86244885D01*
X148211470Y-86255051D01*
X148211935Y-86265354D01*
X148212329Y-86275793D01*
X148212651Y-86286368D01*
X148212901Y-86297080D01*
X148213080Y-86307929D01*
X148213187Y-86318913D01*
X148213223Y-86330034D01*
X148213126Y-86347679D01*
X148212834Y-86365013D01*
X148212347Y-86382037D01*
X148211666Y-86398751D01*
X148210790Y-86415154D01*
X148209720Y-86431248D01*
X148208455Y-86447032D01*
X148206995Y-86462506D01*
X148205340Y-86477669D01*
X148203491Y-86492523D01*
X148201448Y-86507066D01*
X148199210Y-86521299D01*
X148196777Y-86535223D01*
X148194149Y-86548836D01*
X148191327Y-86562139D01*
X148188310Y-86575132D01*
X148185099Y-86587815D01*
X148181693Y-86600188D01*
X148178092Y-86612251D01*
X148174297Y-86624004D01*
X148170307Y-86635446D01*
X148166122Y-86646579D01*
X148161743Y-86657401D01*
X148157169Y-86667914D01*
X148152401Y-86678116D01*
X148147438Y-86688009D01*
X148142280Y-86697591D01*
X148136928Y-86706863D01*
X148131381Y-86715825D01*
X148125639Y-86724477D01*
X148119703Y-86732819D01*
X148113572Y-86740851D01*
X148102947Y-86753539D01*
X148091834Y-86765409D01*
X148080233Y-86776460D01*
X148068143Y-86786692D01*
X148055564Y-86796106D01*
X148042497Y-86804701D01*
X148028942Y-86812478D01*
X148014898Y-86819436D01*
X148000365Y-86825575D01*
X147985344Y-86830896D01*
X147969835Y-86835399D01*
X147953837Y-86839082D01*
X147937351Y-86841947D01*
X147920376Y-86843994D01*
X147902912Y-86845222D01*
X147884961Y-86845631D01*
X147871279Y-86845398D01*
X147857895Y-86844700D01*
X147844809Y-86843536D01*
X147832021Y-86841906D01*
X147819530Y-86839811D01*
X147807337Y-86837250D01*
X147795442Y-86834224D01*
X147783844Y-86830732D01*
X147772544Y-86826775D01*
X147761542Y-86822352D01*
X147750837Y-86817463D01*
X147740430Y-86812109D01*
X147730321Y-86806289D01*
X147720509Y-86800003D01*
X147710995Y-86793252D01*
X147701778Y-86786036D01*
X147692852Y-86778393D01*
X147684208Y-86770362D01*
X147675847Y-86761944D01*
X147667768Y-86753139D01*
X147659971Y-86743947D01*
X147652457Y-86734367D01*
X147645225Y-86724400D01*
X147638275Y-86714045D01*
X147631608Y-86703303D01*
X147625224Y-86692174D01*
X147619121Y-86680657D01*
X147613301Y-86668753D01*
X147607764Y-86656462D01*
X147602509Y-86643783D01*
X147597536Y-86630717D01*
X147592846Y-86617264D01*
X147588439Y-86603319D01*
X147584317Y-86588840D01*
X147580478Y-86573827D01*
X147576925Y-86558279D01*
X147573655Y-86542197D01*
X147570670Y-86525581D01*
X147567969Y-86508431D01*
X147565552Y-86490746D01*
X147563420Y-86472527D01*
X147561572Y-86453774D01*
X147560008Y-86434486D01*
X147559333Y-86424642D01*
X147558728Y-86414665D01*
X147558195Y-86404553D01*
X147557733Y-86394308D01*
X147557342Y-86383930D01*
X147557023Y-86373418D01*
X147556774Y-86362772D01*
X147556596Y-86351993D01*
X147556489Y-86341081D01*
X147556454Y-86330034D01*
X147556455Y-86329790D01*
X147683460Y-86329790D01*
X147683517Y-86345168D01*
X147683687Y-86360222D01*
X147683971Y-86374952D01*
X147684369Y-86389359D01*
X147684879Y-86403441D01*
X147685504Y-86417200D01*
X147686242Y-86430634D01*
X147687093Y-86443745D01*
X147688058Y-86456531D01*
X147689137Y-86468994D01*
X147690329Y-86481133D01*
X147691635Y-86492948D01*
X147693054Y-86504439D01*
X147694587Y-86515606D01*
X147696233Y-86526450D01*
X147697993Y-86536969D01*
X147699866Y-86547165D01*
X147701853Y-86557036D01*
X147706167Y-86575808D01*
X147710936Y-86593283D01*
X147716158Y-86609463D01*
X147721835Y-86624348D01*
X147727966Y-86637937D01*
X147734551Y-86650230D01*
X147741590Y-86661228D01*
X147748962Y-86671254D01*
X147756546Y-86680634D01*
X147764342Y-86689366D01*
X147772349Y-86697452D01*
X147780569Y-86704891D01*
X147789000Y-86711683D01*
X147797643Y-86717828D01*
X147806498Y-86723326D01*
X147815564Y-86728178D01*
X147824842Y-86732383D01*
X147834333Y-86735940D01*
X147844035Y-86738851D01*
X147853948Y-86741115D01*
X147864074Y-86742732D01*
X147874411Y-86743703D01*
X147884961Y-86744026D01*
X147895480Y-86743704D01*
X147905790Y-86742736D01*
X147915890Y-86741124D01*
X147925780Y-86738866D01*
X147935460Y-86735964D01*
X147944930Y-86732417D01*
X147954190Y-86728225D01*
X147963240Y-86723387D01*
X147972081Y-86717905D01*
X147980711Y-86711778D01*
X147989132Y-86705006D01*
X147997343Y-86697589D01*
X148005344Y-86689527D01*
X148013135Y-86680821D01*
X148020716Y-86671469D01*
X148028087Y-86661472D01*
X148031663Y-86656150D01*
X148038475Y-86644529D01*
X148044833Y-86631607D01*
X148050737Y-86617384D01*
X148056187Y-86601859D01*
X148061182Y-86585033D01*
X148065724Y-86566906D01*
X148067824Y-86557354D01*
X148069811Y-86547477D01*
X148071684Y-86537274D01*
X148073444Y-86526747D01*
X148075090Y-86515894D01*
X148076623Y-86504715D01*
X148078042Y-86493212D01*
X148079348Y-86481382D01*
X148080540Y-86469228D01*
X148081619Y-86456748D01*
X148082584Y-86443943D01*
X148083435Y-86430813D01*
X148084173Y-86417357D01*
X148084797Y-86403576D01*
X148085308Y-86389469D01*
X148085706Y-86375038D01*
X148085990Y-86360280D01*
X148086160Y-86345198D01*
X148086217Y-86329790D01*
X148086154Y-86314373D01*
X148085967Y-86299261D01*
X148085654Y-86284455D01*
X148085217Y-86269954D01*
X148084654Y-86255760D01*
X148083967Y-86241871D01*
X148083155Y-86228288D01*
X148082217Y-86215011D01*
X148081155Y-86202040D01*
X148079967Y-86189374D01*
X148078655Y-86177015D01*
X148077218Y-86164961D01*
X148075656Y-86153212D01*
X148073968Y-86141770D01*
X148072156Y-86130633D01*
X148070219Y-86119802D01*
X148068157Y-86109277D01*
X148065969Y-86099058D01*
X148063657Y-86089144D01*
X148061220Y-86079537D01*
X148055971Y-86061238D01*
X148050221Y-86044163D01*
X148043972Y-86028311D01*
X148037223Y-86013683D01*
X148029974Y-86000277D01*
X148022225Y-85988094D01*
X148019016Y-85983631D01*
X148012397Y-85975131D01*
X148005508Y-85967197D01*
X147998351Y-85959829D01*
X147990925Y-85953029D01*
X147983229Y-85946795D01*
X147975264Y-85941128D01*
X147962813Y-85933689D01*
X147949756Y-85927526D01*
X147936094Y-85922638D01*
X147926650Y-85920088D01*
X147916936Y-85918105D01*
X147906954Y-85916688D01*
X147896702Y-85915838D01*
X147886182Y-85915554D01*
X147875485Y-85915876D01*
X147865009Y-85916840D01*
X147854755Y-85918448D01*
X147844722Y-85920699D01*
X147834910Y-85923592D01*
X147825320Y-85927129D01*
X147815951Y-85931309D01*
X147806803Y-85936132D01*
X147797877Y-85941598D01*
X147789172Y-85947707D01*
X147780688Y-85954459D01*
X147772426Y-85961854D01*
X147764385Y-85969892D01*
X147756565Y-85978573D01*
X147748967Y-85987897D01*
X147741590Y-85997864D01*
X147738014Y-86003157D01*
X147731202Y-86014726D01*
X147724844Y-86027606D01*
X147718940Y-86041797D01*
X147713490Y-86057299D01*
X147708495Y-86074112D01*
X147703953Y-86092235D01*
X147701853Y-86101788D01*
X147699866Y-86111670D01*
X147697993Y-86121878D01*
X147696233Y-86132415D01*
X147694587Y-86143279D01*
X147693054Y-86154471D01*
X147691635Y-86165991D01*
X147690329Y-86177838D01*
X147689137Y-86190014D01*
X147688058Y-86202516D01*
X147687093Y-86215347D01*
X147686242Y-86228505D01*
X147685504Y-86241992D01*
X147684879Y-86255805D01*
X147684369Y-86269947D01*
X147683971Y-86284416D01*
X147683687Y-86299213D01*
X147683517Y-86314338D01*
X147683460Y-86329790D01*
X147556455Y-86329790D01*
X147556543Y-86311500D01*
X147556809Y-86293448D01*
X147557253Y-86275878D01*
X147557874Y-86258792D01*
X147558672Y-86242188D01*
X147559648Y-86226067D01*
X147560802Y-86210429D01*
X147562133Y-86195273D01*
X147563641Y-86180601D01*
X147565327Y-86166411D01*
X147567190Y-86152704D01*
X147569231Y-86139479D01*
X147571449Y-86126738D01*
X147573845Y-86114479D01*
X147576418Y-86102702D01*
X147579169Y-86091409D01*
X147582075Y-86080433D01*
X147585114Y-86069668D01*
X147588288Y-86059115D01*
X147591594Y-86048773D01*
X147595035Y-86038644D01*
X147598609Y-86028726D01*
X147602316Y-86019021D01*
X147606157Y-86009527D01*
X147610132Y-86000245D01*
X147614240Y-85991174D01*
X147620653Y-85977966D01*
X147627366Y-85965234D01*
X147634380Y-85952979D01*
X147641695Y-85941200D01*
X147646755Y-85933589D01*
X147654661Y-85922599D01*
X147662944Y-85912120D01*
X147671605Y-85902151D01*
X147680644Y-85892694D01*
X147690061Y-85883747D01*
X147699855Y-85875311D01*
X147710027Y-85867387D01*
X147720578Y-85859973D01*
X147731505Y-85853070D01*
X147742811Y-85846678D01*
X147746647Y-85844664D01*
X147758389Y-85839007D01*
X147770484Y-85833925D01*
X147782930Y-85829419D01*
X147795728Y-85825487D01*
X147808879Y-85822131D01*
X147822381Y-85819351D01*
X147836236Y-85817145D01*
X147850443Y-85815515D01*
X147865001Y-85814461D01*
X147874903Y-85814077D01*
X147884961Y-85813949D01*
X147898553Y-85814181D01*
G37*
G36*
X146784647Y-86712763D02*
G01*
X146784647Y-86830000D01*
X147450453Y-86830000D01*
X147450495Y-86818879D01*
X147450010Y-86807865D01*
X147448999Y-86796958D01*
X147447461Y-86786158D01*
X147445396Y-86775465D01*
X147442805Y-86764878D01*
X147439687Y-86754399D01*
X147436042Y-86744026D01*
X147430968Y-86731268D01*
X147425360Y-86718549D01*
X147419221Y-86705869D01*
X147412549Y-86693227D01*
X147405345Y-86680624D01*
X147400246Y-86672244D01*
X147394911Y-86663880D01*
X147389339Y-86655534D01*
X147383531Y-86647205D01*
X147377486Y-86638893D01*
X147371204Y-86630598D01*
X147364686Y-86622321D01*
X147357931Y-86614060D01*
X147354465Y-86609937D01*
X147347279Y-86601583D01*
X147339704Y-86593069D01*
X147331739Y-86584394D01*
X147323385Y-86575560D01*
X147314642Y-86566565D01*
X147305510Y-86557409D01*
X147295988Y-86548094D01*
X147286077Y-86538618D01*
X147275777Y-86528982D01*
X147265087Y-86519185D01*
X147254009Y-86509228D01*
X147242541Y-86499112D01*
X147230684Y-86488834D01*
X147218437Y-86478397D01*
X147205801Y-86467799D01*
X147192776Y-86457041D01*
X147182622Y-86448608D01*
X147172676Y-86440286D01*
X147162938Y-86432074D01*
X147153407Y-86423972D01*
X147144085Y-86415981D01*
X147134971Y-86408100D01*
X147126065Y-86400328D01*
X147117366Y-86392667D01*
X147108876Y-86385117D01*
X147100594Y-86377676D01*
X147092519Y-86370346D01*
X147084653Y-86363125D01*
X147076995Y-86356015D01*
X147069544Y-86349016D01*
X147062302Y-86342126D01*
X147048441Y-86328677D01*
X147035412Y-86315670D01*
X147023216Y-86303103D01*
X147011851Y-86290976D01*
X147001318Y-86279291D01*
X146991617Y-86268046D01*
X146982748Y-86257242D01*
X146974710Y-86246879D01*
X146971004Y-86241863D01*
X146963994Y-86231974D01*
X146957437Y-86222152D01*
X146951332Y-86212396D01*
X146945679Y-86202708D01*
X146940478Y-86193086D01*
X146935730Y-86183531D01*
X146931434Y-86174042D01*
X146927590Y-86164621D01*
X146924198Y-86155266D01*
X146919958Y-86141359D01*
X146916736Y-86127603D01*
X146914532Y-86113997D01*
X146913344Y-86100541D01*
X146913118Y-86091653D01*
X146913582Y-86077938D01*
X146914973Y-86064634D01*
X146917291Y-86051743D01*
X146920537Y-86039263D01*
X146924710Y-86027196D01*
X146929811Y-86015541D01*
X146935839Y-86004298D01*
X146942794Y-85993468D01*
X146950676Y-85983049D01*
X146959486Y-85973043D01*
X146965875Y-85966601D01*
X146976000Y-85957478D01*
X146986683Y-85949253D01*
X146997924Y-85941925D01*
X147009724Y-85935494D01*
X147022082Y-85929961D01*
X147034997Y-85925325D01*
X147048471Y-85921586D01*
X147062503Y-85918745D01*
X147077093Y-85916801D01*
X147087130Y-85916003D01*
X147097415Y-85915604D01*
X147102651Y-85915554D01*
X147113686Y-85915773D01*
X147124442Y-85916428D01*
X147134919Y-85917521D01*
X147145118Y-85919050D01*
X147155039Y-85921016D01*
X147164681Y-85923420D01*
X147174044Y-85926260D01*
X147187567Y-85931340D01*
X147200462Y-85937403D01*
X147212731Y-85944449D01*
X147224373Y-85952478D01*
X147235389Y-85961490D01*
X147245777Y-85971486D01*
X147255343Y-85982353D01*
X147263981Y-85993980D01*
X147271692Y-86006367D01*
X147276317Y-86015047D01*
X147280530Y-86024065D01*
X147284331Y-86033421D01*
X147287720Y-86043114D01*
X147290697Y-86053145D01*
X147293261Y-86063514D01*
X147295414Y-86074221D01*
X147297154Y-86085265D01*
X147298482Y-86096647D01*
X147299398Y-86108367D01*
X147299902Y-86120425D01*
X147299999Y-86126580D01*
X147427005Y-86113147D01*
X147425105Y-86095162D01*
X147422639Y-86077720D01*
X147419609Y-86060822D01*
X147416014Y-86044469D01*
X147411855Y-86028659D01*
X147407130Y-86013393D01*
X147401841Y-85998670D01*
X147395986Y-85984492D01*
X147389567Y-85970857D01*
X147382584Y-85957766D01*
X147375035Y-85945219D01*
X147366921Y-85933216D01*
X147358243Y-85921757D01*
X147349000Y-85910841D01*
X147339192Y-85900469D01*
X147328820Y-85890642D01*
X147317936Y-85881355D01*
X147306597Y-85872667D01*
X147294802Y-85864578D01*
X147282551Y-85857089D01*
X147269844Y-85850198D01*
X147256680Y-85843907D01*
X147243061Y-85838215D01*
X147228985Y-85833122D01*
X147214454Y-85828629D01*
X147199466Y-85824734D01*
X147184023Y-85821439D01*
X147168123Y-85818743D01*
X147151767Y-85816645D01*
X147134956Y-85815148D01*
X147117688Y-85814249D01*
X147099964Y-85813949D01*
X147082095Y-85814265D01*
X147064698Y-85815212D01*
X147047771Y-85816791D01*
X147031317Y-85819002D01*
X147015333Y-85821844D01*
X146999821Y-85825318D01*
X146984780Y-85829423D01*
X146970210Y-85834160D01*
X146956112Y-85839529D01*
X146942485Y-85845529D01*
X146929329Y-85852161D01*
X146916645Y-85859424D01*
X146904431Y-85867319D01*
X146892690Y-85875846D01*
X146881419Y-85885004D01*
X146870620Y-85894794D01*
X146860387Y-85905050D01*
X146850813Y-85915608D01*
X146841901Y-85926467D01*
X146833648Y-85937628D01*
X146826055Y-85949090D01*
X146819123Y-85960854D01*
X146812851Y-85972919D01*
X146807239Y-85985286D01*
X146802287Y-85997954D01*
X146797996Y-86010923D01*
X146794365Y-86024195D01*
X146791394Y-86037767D01*
X146789083Y-86051641D01*
X146787432Y-86065817D01*
X146786442Y-86080294D01*
X146786112Y-86095073D01*
X146786329Y-86106459D01*
X146786979Y-86117810D01*
X146788063Y-86129127D01*
X146789581Y-86140410D01*
X146791532Y-86151659D01*
X146793917Y-86162873D01*
X146796736Y-86174053D01*
X146799988Y-86185198D01*
X146803674Y-86196310D01*
X146807793Y-86207386D01*
X146810781Y-86214752D01*
X146815694Y-86225799D01*
X146821182Y-86236957D01*
X146827245Y-86248227D01*
X146833884Y-86259608D01*
X146841099Y-86271102D01*
X146848888Y-86282707D01*
X146857253Y-86294423D01*
X146863149Y-86302296D01*
X146869301Y-86310219D01*
X146875709Y-86318191D01*
X146882372Y-86326213D01*
X146889291Y-86334284D01*
X146892846Y-86338339D01*
X146900317Y-86346649D01*
X146908382Y-86355336D01*
X146917040Y-86364402D01*
X146926292Y-86373845D01*
X146936137Y-86383667D01*
X146946576Y-86393866D01*
X146957608Y-86404443D01*
X146969233Y-86415397D01*
X146981452Y-86426730D01*
X146994264Y-86438440D01*
X147007670Y-86450528D01*
X147021669Y-86462994D01*
X147036262Y-86475838D01*
X147043780Y-86482401D01*
X147051448Y-86489059D01*
X147059263Y-86495812D01*
X147067227Y-86502659D01*
X147075339Y-86509600D01*
X147083600Y-86516636D01*
X147097181Y-86528214D01*
X147110142Y-86539316D01*
X147122483Y-86549944D01*
X147134204Y-86560096D01*
X147145305Y-86569773D01*
X147155785Y-86578975D01*
X147165645Y-86587702D01*
X147174886Y-86595954D01*
X147183506Y-86603730D01*
X147191506Y-86611032D01*
X147198885Y-86617858D01*
X147208792Y-86627207D01*
X147217304Y-86635487D01*
X147224420Y-86642697D01*
X147226482Y-86644863D01*
X147234187Y-86653297D01*
X147241549Y-86661747D01*
X147248567Y-86670211D01*
X147255241Y-86678691D01*
X147261573Y-86687186D01*
X147267560Y-86695696D01*
X147273205Y-86704222D01*
X147278506Y-86712763D01*
X146784647Y-86712763D01*
G37*
G36*
X146655198Y-86565240D02*
G01*
X146531611Y-86548632D01*
X146528838Y-86561381D01*
X146525833Y-86573678D01*
X146522595Y-86585523D01*
X146519124Y-86596915D01*
X146515420Y-86607856D01*
X146511484Y-86618344D01*
X146507315Y-86628380D01*
X146502912Y-86637964D01*
X146498278Y-86647095D01*
X146493410Y-86655774D01*
X146485672Y-86667945D01*
X146477410Y-86679098D01*
X146468624Y-86689234D01*
X146459315Y-86698353D01*
X146449503Y-86706515D01*
X146439300Y-86713874D01*
X146428706Y-86720431D01*
X146417721Y-86726185D01*
X146406346Y-86731136D01*
X146394580Y-86735284D01*
X146382424Y-86738629D01*
X146369876Y-86741171D01*
X146356938Y-86742911D01*
X146343610Y-86743848D01*
X146334507Y-86744026D01*
X146323684Y-86743789D01*
X146313075Y-86743080D01*
X146302679Y-86741897D01*
X146292497Y-86740240D01*
X146282529Y-86738111D01*
X146272775Y-86735508D01*
X146263234Y-86732432D01*
X146253907Y-86728883D01*
X146244794Y-86724861D01*
X146235894Y-86720365D01*
X146227208Y-86715396D01*
X146218736Y-86709954D01*
X146210477Y-86704039D01*
X146202433Y-86697650D01*
X146194602Y-86690789D01*
X146186984Y-86683454D01*
X146179709Y-86675770D01*
X146172902Y-86667860D01*
X146166565Y-86659726D01*
X146160698Y-86651366D01*
X146155300Y-86642782D01*
X146150371Y-86633972D01*
X146145911Y-86624937D01*
X146141921Y-86615676D01*
X146138401Y-86606191D01*
X146135350Y-86596480D01*
X146132768Y-86586545D01*
X146130656Y-86576384D01*
X146129013Y-86565998D01*
X146127839Y-86555387D01*
X146127135Y-86544550D01*
X146126901Y-86533489D01*
X146127118Y-86522951D01*
X146127771Y-86512648D01*
X146128858Y-86502580D01*
X146130381Y-86492746D01*
X146132339Y-86483147D01*
X146136091Y-86469189D01*
X146140822Y-86455758D01*
X146146533Y-86442856D01*
X146153222Y-86430482D01*
X146160889Y-86418636D01*
X146169536Y-86407318D01*
X146179162Y-86396528D01*
X146182588Y-86393049D01*
X146193293Y-86383141D01*
X146204527Y-86374207D01*
X146216288Y-86366248D01*
X146228578Y-86359263D01*
X146241396Y-86353253D01*
X146254742Y-86348218D01*
X146268616Y-86344157D01*
X146278158Y-86341992D01*
X146287936Y-86340259D01*
X146297948Y-86338960D01*
X146308194Y-86338093D01*
X146318676Y-86337660D01*
X146324005Y-86337606D01*
X146335413Y-86337940D01*
X146347656Y-86338942D01*
X146358052Y-86340224D01*
X146368981Y-86341934D01*
X146380446Y-86344071D01*
X146392444Y-86346635D01*
X146404977Y-86349627D01*
X146411443Y-86351284D01*
X146397522Y-86234780D01*
X146387724Y-86235614D01*
X146377738Y-86236001D01*
X146367909Y-86235843D01*
X146353402Y-86235011D01*
X146339178Y-86233467D01*
X146325238Y-86231210D01*
X146311581Y-86228240D01*
X146298207Y-86224558D01*
X146285116Y-86220163D01*
X146272309Y-86215056D01*
X146259786Y-86209235D01*
X146247546Y-86202702D01*
X146235589Y-86195457D01*
X146224284Y-86187468D01*
X146214090Y-86178707D01*
X146205009Y-86169173D01*
X146197040Y-86158866D01*
X146190183Y-86147786D01*
X146184438Y-86135934D01*
X146179805Y-86123309D01*
X146176283Y-86109911D01*
X146173874Y-86095740D01*
X146172886Y-86085863D01*
X146172392Y-86075643D01*
X146172330Y-86070404D01*
X146172735Y-86058058D01*
X146173953Y-86046115D01*
X146175981Y-86034576D01*
X146178821Y-86023441D01*
X146182473Y-86012709D01*
X146186936Y-86002381D01*
X146192210Y-85992456D01*
X146198296Y-85982935D01*
X146205193Y-85973817D01*
X146212902Y-85965103D01*
X146218492Y-85959518D01*
X146227337Y-85951661D01*
X146236655Y-85944577D01*
X146246446Y-85938266D01*
X146256708Y-85932728D01*
X146267443Y-85927962D01*
X146278650Y-85923969D01*
X146290329Y-85920749D01*
X146302481Y-85918302D01*
X146315104Y-85916628D01*
X146328201Y-85915726D01*
X146337194Y-85915554D01*
X146350493Y-85915949D01*
X146363372Y-85917134D01*
X146375829Y-85919109D01*
X146387866Y-85921874D01*
X146399483Y-85925429D01*
X146410678Y-85929774D01*
X146421453Y-85934909D01*
X146431807Y-85940833D01*
X146441741Y-85947548D01*
X146451253Y-85955053D01*
X146457361Y-85960495D01*
X146466080Y-85969316D01*
X146474194Y-85978928D01*
X146481702Y-85989329D01*
X146488605Y-86000520D01*
X146494903Y-86012502D01*
X146500595Y-86025273D01*
X146505682Y-86038834D01*
X146508737Y-86048314D01*
X146511523Y-86058144D01*
X146514040Y-86068326D01*
X146516287Y-86078859D01*
X146518266Y-86089743D01*
X146519155Y-86095317D01*
X146642741Y-86073335D01*
X146639707Y-86058104D01*
X146636219Y-86043309D01*
X146632280Y-86028948D01*
X146627888Y-86015022D01*
X146623045Y-86001532D01*
X146617749Y-85988476D01*
X146612000Y-85975856D01*
X146605800Y-85963670D01*
X146599147Y-85951920D01*
X146592042Y-85940604D01*
X146584485Y-85929724D01*
X146576475Y-85919279D01*
X146568014Y-85909269D01*
X146559100Y-85899694D01*
X146549734Y-85890554D01*
X146539915Y-85881849D01*
X146529717Y-85873627D01*
X146519212Y-85865935D01*
X146508399Y-85858774D01*
X146497280Y-85852143D01*
X146485853Y-85846042D01*
X146474118Y-85840473D01*
X146462077Y-85835433D01*
X146449729Y-85830924D01*
X146437073Y-85826946D01*
X146424110Y-85823498D01*
X146410840Y-85820580D01*
X146397262Y-85818193D01*
X146383377Y-85816336D01*
X146369186Y-85815010D01*
X146354687Y-85814214D01*
X146339880Y-85813949D01*
X146329642Y-85814087D01*
X146319505Y-85814499D01*
X146309469Y-85815186D01*
X146299534Y-85816147D01*
X146289701Y-85817384D01*
X146279968Y-85818895D01*
X146270337Y-85820681D01*
X146256080Y-85823875D01*
X146242050Y-85827688D01*
X146228247Y-85832119D01*
X146214672Y-85837168D01*
X146201325Y-85842835D01*
X146188206Y-85849120D01*
X146175487Y-85855942D01*
X146163344Y-85863220D01*
X146151777Y-85870952D01*
X146140784Y-85879139D01*
X146130367Y-85887782D01*
X146120525Y-85896879D01*
X146111259Y-85906432D01*
X146102568Y-85916440D01*
X146094452Y-85926903D01*
X146086912Y-85937820D01*
X146082204Y-85945352D01*
X146075613Y-85956822D01*
X146069670Y-85968424D01*
X146064376Y-85980160D01*
X146059730Y-85992029D01*
X146055732Y-86004031D01*
X146052383Y-86016166D01*
X146049681Y-86028434D01*
X146047628Y-86040836D01*
X146046224Y-86053370D01*
X146045468Y-86066037D01*
X146045323Y-86074556D01*
X146045630Y-86086637D01*
X146046551Y-86098516D01*
X146048086Y-86110193D01*
X146050235Y-86121669D01*
X146052998Y-86132942D01*
X146056374Y-86144014D01*
X146060365Y-86154884D01*
X146064970Y-86165552D01*
X146070188Y-86176019D01*
X146076021Y-86186283D01*
X146080250Y-86193014D01*
X146087097Y-86202807D01*
X146094541Y-86212217D01*
X146102582Y-86221245D01*
X146111219Y-86229891D01*
X146120454Y-86238155D01*
X146130285Y-86246037D01*
X146140712Y-86253537D01*
X146151737Y-86260654D01*
X146163358Y-86267390D01*
X146175576Y-86273743D01*
X146184053Y-86277766D01*
X146173036Y-86280536D01*
X146162331Y-86283655D01*
X146151939Y-86287123D01*
X146141860Y-86290940D01*
X146132095Y-86295107D01*
X146122642Y-86299622D01*
X146113502Y-86304487D01*
X146104674Y-86309701D01*
X146096160Y-86315264D01*
X146087959Y-86321177D01*
X146080071Y-86327438D01*
X146072495Y-86334049D01*
X146065233Y-86341009D01*
X146058284Y-86348318D01*
X146051647Y-86355977D01*
X146045323Y-86363984D01*
X146039319Y-86372295D01*
X146033703Y-86380864D01*
X146028474Y-86389690D01*
X146023632Y-86398773D01*
X146019177Y-86408115D01*
X146015110Y-86417714D01*
X146011430Y-86427570D01*
X146008137Y-86437684D01*
X146005232Y-86448056D01*
X146002715Y-86458685D01*
X146000584Y-86469572D01*
X145998841Y-86480717D01*
X145997485Y-86492119D01*
X145996517Y-86503779D01*
X145995936Y-86515696D01*
X145995742Y-86527871D01*
X145996118Y-86544322D01*
X145997246Y-86560458D01*
X145999125Y-86576280D01*
X146001757Y-86591786D01*
X146005140Y-86606978D01*
X146009275Y-86621855D01*
X146014161Y-86636417D01*
X146019800Y-86650664D01*
X146026190Y-86664597D01*
X146033333Y-86678214D01*
X146041227Y-86691517D01*
X146049872Y-86704504D01*
X146059270Y-86717177D01*
X146069420Y-86729536D01*
X146080321Y-86741579D01*
X146091974Y-86753307D01*
X146104200Y-86764487D01*
X146116822Y-86774946D01*
X146129838Y-86784683D01*
X146143250Y-86793699D01*
X146157056Y-86801994D01*
X146171257Y-86809567D01*
X146185854Y-86816419D01*
X146200845Y-86822550D01*
X146216231Y-86827960D01*
X146232013Y-86832648D01*
X146248189Y-86836615D01*
X146264760Y-86839861D01*
X146281727Y-86842385D01*
X146299088Y-86844188D01*
X146316844Y-86845270D01*
X146334995Y-86845631D01*
X146351398Y-86845327D01*
X146367449Y-86844414D01*
X146383149Y-86842892D01*
X146398499Y-86840761D01*
X146413497Y-86838022D01*
X146428144Y-86834674D01*
X146442439Y-86830718D01*
X146456384Y-86826153D01*
X146469978Y-86820979D01*
X146483220Y-86815196D01*
X146496112Y-86808805D01*
X146508652Y-86801805D01*
X146520841Y-86794196D01*
X146532680Y-86785979D01*
X146544167Y-86777152D01*
X146555303Y-86767718D01*
X146565939Y-86757768D01*
X146575991Y-86747457D01*
X146585456Y-86736786D01*
X146594336Y-86725754D01*
X146602629Y-86714361D01*
X146610337Y-86702608D01*
X146617459Y-86690494D01*
X146623996Y-86678019D01*
X146629946Y-86665184D01*
X146635311Y-86651988D01*
X146640090Y-86638432D01*
X146644283Y-86624515D01*
X146647891Y-86610237D01*
X146650912Y-86595599D01*
X146653348Y-86580600D01*
X146655198Y-86565240D01*
G37*
%LPC*%
D11*
%TO.C,H105*%
X135000000Y-75000000D03*
D12*
X135000000Y-75000000D03*
%TD*%
D13*
%TO.C,SW101*%
X147580000Y-75500000D03*
D14*
X145040000Y-75500000D03*
X142500000Y-75500000D03*
%TD*%
D11*
%TO.C,H107*%
X175000001Y-74999999D03*
D12*
X175000001Y-74999999D03*
%TD*%
D15*
%TO.C,SW102*%
X143450000Y-91150000D03*
X149950000Y-91150000D03*
X143450000Y-95650000D03*
X149950000Y-95650000D03*
%TD*%
D11*
%TO.C,H108*%
X175000001Y-94999999D03*
D12*
X175000001Y-94999999D03*
%TD*%
D11*
%TO.C,H106*%
X135000000Y-95000000D03*
D12*
X135000000Y-95000000D03*
%TD*%
D16*
%TO.C,J103*%
X137780000Y-82360000D03*
X137780000Y-88140000D03*
D17*
X138270000Y-80925000D03*
X138270000Y-89575000D03*
D18*
X134100000Y-80925000D03*
X134100000Y-89575000D03*
%TD*%
M02*
