%TF.GenerationSoftware,KiCad,Pcbnew,7.0.1*%
%TF.CreationDate,2024-01-06T02:19:08+00:00*%
%TF.ProjectId,module_test_rig,6d6f6475-6c65-45f7-9465-73745f726967,rev?*%
%TF.SameCoordinates,Original*%
%TF.FileFunction,Drillmap*%
%TF.FilePolarity,Positive*%
%FSLAX45Y45*%
G04 Gerber Fmt 4.5, Leading zero omitted, Abs format (unit mm)*
G04 Created by KiCad (PCBNEW 7.0.1) date 2024-01-06 02:19:08*
%MOMM*%
%LPD*%
G01*
G04 APERTURE LIST*
%ADD10C,0.100000*%
%ADD11C,0.200000*%
%ADD12C,0.060000*%
G04 APERTURE END LIST*
D10*
X17800000Y-7500000D02*
G75*
G03*
X17500000Y-7200000I-300000J0D01*
G01*
X13200000Y-9500000D02*
G75*
G03*
X13500000Y-9800000I300000J0D01*
G01*
X17500000Y-7200000D02*
X13500000Y-7200000D01*
X13500000Y-7200000D02*
G75*
G03*
X13200000Y-7500000I0J-300000D01*
G01*
X17500000Y-9800000D02*
G75*
G03*
X17800000Y-9500000I0J300000D01*
G01*
X13500000Y-9800000D02*
X17500000Y-9800000D01*
X17800000Y-9500000D02*
X17800000Y-7500000D01*
X13200000Y-7500000D02*
X13200000Y-9500000D01*
D11*
D12*
X13748000Y-8206000D02*
X13808000Y-8266000D01*
X13808000Y-8206000D02*
X13748000Y-8266000D01*
X13748000Y-8784000D02*
X13808000Y-8844000D01*
X13808000Y-8784000D02*
X13748000Y-8844000D01*
D11*
X13442619Y-10117524D02*
X13442619Y-9917524D01*
X13442619Y-9917524D02*
X13490238Y-9917524D01*
X13490238Y-9917524D02*
X13518809Y-9927048D01*
X13518809Y-9927048D02*
X13537857Y-9946095D01*
X13537857Y-9946095D02*
X13547381Y-9965143D01*
X13547381Y-9965143D02*
X13556905Y-10003238D01*
X13556905Y-10003238D02*
X13556905Y-10031810D01*
X13556905Y-10031810D02*
X13547381Y-10069905D01*
X13547381Y-10069905D02*
X13537857Y-10088952D01*
X13537857Y-10088952D02*
X13518809Y-10108000D01*
X13518809Y-10108000D02*
X13490238Y-10117524D01*
X13490238Y-10117524D02*
X13442619Y-10117524D01*
X13642619Y-10117524D02*
X13642619Y-9984190D01*
X13642619Y-10022286D02*
X13652143Y-10003238D01*
X13652143Y-10003238D02*
X13661667Y-9993714D01*
X13661667Y-9993714D02*
X13680714Y-9984190D01*
X13680714Y-9984190D02*
X13699762Y-9984190D01*
X13766428Y-10117524D02*
X13766428Y-9984190D01*
X13766428Y-9917524D02*
X13756905Y-9927048D01*
X13756905Y-9927048D02*
X13766428Y-9936571D01*
X13766428Y-9936571D02*
X13775952Y-9927048D01*
X13775952Y-9927048D02*
X13766428Y-9917524D01*
X13766428Y-9917524D02*
X13766428Y-9936571D01*
X13890238Y-10117524D02*
X13871190Y-10108000D01*
X13871190Y-10108000D02*
X13861667Y-10088952D01*
X13861667Y-10088952D02*
X13861667Y-9917524D01*
X13995000Y-10117524D02*
X13975952Y-10108000D01*
X13975952Y-10108000D02*
X13966428Y-10088952D01*
X13966428Y-10088952D02*
X13966428Y-9917524D01*
X14223571Y-10117524D02*
X14223571Y-9917524D01*
X14223571Y-9917524D02*
X14290238Y-10060381D01*
X14290238Y-10060381D02*
X14356905Y-9917524D01*
X14356905Y-9917524D02*
X14356905Y-10117524D01*
X14537857Y-10117524D02*
X14537857Y-10012762D01*
X14537857Y-10012762D02*
X14528333Y-9993714D01*
X14528333Y-9993714D02*
X14509286Y-9984190D01*
X14509286Y-9984190D02*
X14471190Y-9984190D01*
X14471190Y-9984190D02*
X14452143Y-9993714D01*
X14537857Y-10108000D02*
X14518809Y-10117524D01*
X14518809Y-10117524D02*
X14471190Y-10117524D01*
X14471190Y-10117524D02*
X14452143Y-10108000D01*
X14452143Y-10108000D02*
X14442619Y-10088952D01*
X14442619Y-10088952D02*
X14442619Y-10069905D01*
X14442619Y-10069905D02*
X14452143Y-10050857D01*
X14452143Y-10050857D02*
X14471190Y-10041333D01*
X14471190Y-10041333D02*
X14518809Y-10041333D01*
X14518809Y-10041333D02*
X14537857Y-10031810D01*
X14633095Y-9984190D02*
X14633095Y-10184190D01*
X14633095Y-9993714D02*
X14652143Y-9984190D01*
X14652143Y-9984190D02*
X14690238Y-9984190D01*
X14690238Y-9984190D02*
X14709286Y-9993714D01*
X14709286Y-9993714D02*
X14718809Y-10003238D01*
X14718809Y-10003238D02*
X14728333Y-10022286D01*
X14728333Y-10022286D02*
X14728333Y-10079429D01*
X14728333Y-10079429D02*
X14718809Y-10098476D01*
X14718809Y-10098476D02*
X14709286Y-10108000D01*
X14709286Y-10108000D02*
X14690238Y-10117524D01*
X14690238Y-10117524D02*
X14652143Y-10117524D01*
X14652143Y-10117524D02*
X14633095Y-10108000D01*
X14814048Y-10098476D02*
X14823571Y-10108000D01*
X14823571Y-10108000D02*
X14814048Y-10117524D01*
X14814048Y-10117524D02*
X14804524Y-10108000D01*
X14804524Y-10108000D02*
X14814048Y-10098476D01*
X14814048Y-10098476D02*
X14814048Y-10117524D01*
X14814048Y-9993714D02*
X14823571Y-10003238D01*
X14823571Y-10003238D02*
X14814048Y-10012762D01*
X14814048Y-10012762D02*
X14804524Y-10003238D01*
X14804524Y-10003238D02*
X14814048Y-9993714D01*
X14814048Y-9993714D02*
X14814048Y-10012762D01*
D12*
X13135000Y-10415000D02*
X13195000Y-10475000D01*
X13195000Y-10415000D02*
X13135000Y-10475000D01*
D11*
X13480714Y-10337524D02*
X13499762Y-10337524D01*
X13499762Y-10337524D02*
X13518809Y-10347048D01*
X13518809Y-10347048D02*
X13528333Y-10356571D01*
X13528333Y-10356571D02*
X13537857Y-10375619D01*
X13537857Y-10375619D02*
X13547381Y-10413714D01*
X13547381Y-10413714D02*
X13547381Y-10461333D01*
X13547381Y-10461333D02*
X13537857Y-10499429D01*
X13537857Y-10499429D02*
X13528333Y-10518476D01*
X13528333Y-10518476D02*
X13518809Y-10528000D01*
X13518809Y-10528000D02*
X13499762Y-10537524D01*
X13499762Y-10537524D02*
X13480714Y-10537524D01*
X13480714Y-10537524D02*
X13461667Y-10528000D01*
X13461667Y-10528000D02*
X13452143Y-10518476D01*
X13452143Y-10518476D02*
X13442619Y-10499429D01*
X13442619Y-10499429D02*
X13433095Y-10461333D01*
X13433095Y-10461333D02*
X13433095Y-10413714D01*
X13433095Y-10413714D02*
X13442619Y-10375619D01*
X13442619Y-10375619D02*
X13452143Y-10356571D01*
X13452143Y-10356571D02*
X13461667Y-10347048D01*
X13461667Y-10347048D02*
X13480714Y-10337524D01*
X13633095Y-10518476D02*
X13642619Y-10528000D01*
X13642619Y-10528000D02*
X13633095Y-10537524D01*
X13633095Y-10537524D02*
X13623571Y-10528000D01*
X13623571Y-10528000D02*
X13633095Y-10518476D01*
X13633095Y-10518476D02*
X13633095Y-10537524D01*
X13814048Y-10337524D02*
X13775952Y-10337524D01*
X13775952Y-10337524D02*
X13756905Y-10347048D01*
X13756905Y-10347048D02*
X13747381Y-10356571D01*
X13747381Y-10356571D02*
X13728333Y-10385143D01*
X13728333Y-10385143D02*
X13718809Y-10423238D01*
X13718809Y-10423238D02*
X13718809Y-10499429D01*
X13718809Y-10499429D02*
X13728333Y-10518476D01*
X13728333Y-10518476D02*
X13737857Y-10528000D01*
X13737857Y-10528000D02*
X13756905Y-10537524D01*
X13756905Y-10537524D02*
X13795000Y-10537524D01*
X13795000Y-10537524D02*
X13814048Y-10528000D01*
X13814048Y-10528000D02*
X13823571Y-10518476D01*
X13823571Y-10518476D02*
X13833095Y-10499429D01*
X13833095Y-10499429D02*
X13833095Y-10451810D01*
X13833095Y-10451810D02*
X13823571Y-10432762D01*
X13823571Y-10432762D02*
X13814048Y-10423238D01*
X13814048Y-10423238D02*
X13795000Y-10413714D01*
X13795000Y-10413714D02*
X13756905Y-10413714D01*
X13756905Y-10413714D02*
X13737857Y-10423238D01*
X13737857Y-10423238D02*
X13728333Y-10432762D01*
X13728333Y-10432762D02*
X13718809Y-10451810D01*
X13956905Y-10337524D02*
X13975952Y-10337524D01*
X13975952Y-10337524D02*
X13995000Y-10347048D01*
X13995000Y-10347048D02*
X14004524Y-10356571D01*
X14004524Y-10356571D02*
X14014048Y-10375619D01*
X14014048Y-10375619D02*
X14023571Y-10413714D01*
X14023571Y-10413714D02*
X14023571Y-10461333D01*
X14023571Y-10461333D02*
X14014048Y-10499429D01*
X14014048Y-10499429D02*
X14004524Y-10518476D01*
X14004524Y-10518476D02*
X13995000Y-10528000D01*
X13995000Y-10528000D02*
X13975952Y-10537524D01*
X13975952Y-10537524D02*
X13956905Y-10537524D01*
X13956905Y-10537524D02*
X13937857Y-10528000D01*
X13937857Y-10528000D02*
X13928333Y-10518476D01*
X13928333Y-10518476D02*
X13918809Y-10499429D01*
X13918809Y-10499429D02*
X13909286Y-10461333D01*
X13909286Y-10461333D02*
X13909286Y-10413714D01*
X13909286Y-10413714D02*
X13918809Y-10375619D01*
X13918809Y-10375619D02*
X13928333Y-10356571D01*
X13928333Y-10356571D02*
X13937857Y-10347048D01*
X13937857Y-10347048D02*
X13956905Y-10337524D01*
X14147381Y-10337524D02*
X14166429Y-10337524D01*
X14166429Y-10337524D02*
X14185476Y-10347048D01*
X14185476Y-10347048D02*
X14195000Y-10356571D01*
X14195000Y-10356571D02*
X14204524Y-10375619D01*
X14204524Y-10375619D02*
X14214048Y-10413714D01*
X14214048Y-10413714D02*
X14214048Y-10461333D01*
X14214048Y-10461333D02*
X14204524Y-10499429D01*
X14204524Y-10499429D02*
X14195000Y-10518476D01*
X14195000Y-10518476D02*
X14185476Y-10528000D01*
X14185476Y-10528000D02*
X14166429Y-10537524D01*
X14166429Y-10537524D02*
X14147381Y-10537524D01*
X14147381Y-10537524D02*
X14128333Y-10528000D01*
X14128333Y-10528000D02*
X14118809Y-10518476D01*
X14118809Y-10518476D02*
X14109286Y-10499429D01*
X14109286Y-10499429D02*
X14099762Y-10461333D01*
X14099762Y-10461333D02*
X14099762Y-10413714D01*
X14099762Y-10413714D02*
X14109286Y-10375619D01*
X14109286Y-10375619D02*
X14118809Y-10356571D01*
X14118809Y-10356571D02*
X14128333Y-10347048D01*
X14128333Y-10347048D02*
X14147381Y-10337524D01*
X14299762Y-10537524D02*
X14299762Y-10404190D01*
X14299762Y-10423238D02*
X14309286Y-10413714D01*
X14309286Y-10413714D02*
X14328333Y-10404190D01*
X14328333Y-10404190D02*
X14356905Y-10404190D01*
X14356905Y-10404190D02*
X14375952Y-10413714D01*
X14375952Y-10413714D02*
X14385476Y-10432762D01*
X14385476Y-10432762D02*
X14385476Y-10537524D01*
X14385476Y-10432762D02*
X14395000Y-10413714D01*
X14395000Y-10413714D02*
X14414048Y-10404190D01*
X14414048Y-10404190D02*
X14442619Y-10404190D01*
X14442619Y-10404190D02*
X14461667Y-10413714D01*
X14461667Y-10413714D02*
X14471190Y-10432762D01*
X14471190Y-10432762D02*
X14471190Y-10537524D01*
X14566429Y-10537524D02*
X14566429Y-10404190D01*
X14566429Y-10423238D02*
X14575952Y-10413714D01*
X14575952Y-10413714D02*
X14595000Y-10404190D01*
X14595000Y-10404190D02*
X14623571Y-10404190D01*
X14623571Y-10404190D02*
X14642619Y-10413714D01*
X14642619Y-10413714D02*
X14652143Y-10432762D01*
X14652143Y-10432762D02*
X14652143Y-10537524D01*
X14652143Y-10432762D02*
X14661667Y-10413714D01*
X14661667Y-10413714D02*
X14680714Y-10404190D01*
X14680714Y-10404190D02*
X14709286Y-10404190D01*
X14709286Y-10404190D02*
X14728333Y-10413714D01*
X14728333Y-10413714D02*
X14737857Y-10432762D01*
X14737857Y-10432762D02*
X14737857Y-10537524D01*
X15128333Y-10328000D02*
X14956905Y-10585143D01*
X15385476Y-10337524D02*
X15404524Y-10337524D01*
X15404524Y-10337524D02*
X15423572Y-10347048D01*
X15423572Y-10347048D02*
X15433095Y-10356571D01*
X15433095Y-10356571D02*
X15442619Y-10375619D01*
X15442619Y-10375619D02*
X15452143Y-10413714D01*
X15452143Y-10413714D02*
X15452143Y-10461333D01*
X15452143Y-10461333D02*
X15442619Y-10499429D01*
X15442619Y-10499429D02*
X15433095Y-10518476D01*
X15433095Y-10518476D02*
X15423572Y-10528000D01*
X15423572Y-10528000D02*
X15404524Y-10537524D01*
X15404524Y-10537524D02*
X15385476Y-10537524D01*
X15385476Y-10537524D02*
X15366429Y-10528000D01*
X15366429Y-10528000D02*
X15356905Y-10518476D01*
X15356905Y-10518476D02*
X15347381Y-10499429D01*
X15347381Y-10499429D02*
X15337857Y-10461333D01*
X15337857Y-10461333D02*
X15337857Y-10413714D01*
X15337857Y-10413714D02*
X15347381Y-10375619D01*
X15347381Y-10375619D02*
X15356905Y-10356571D01*
X15356905Y-10356571D02*
X15366429Y-10347048D01*
X15366429Y-10347048D02*
X15385476Y-10337524D01*
X15537857Y-10518476D02*
X15547381Y-10528000D01*
X15547381Y-10528000D02*
X15537857Y-10537524D01*
X15537857Y-10537524D02*
X15528333Y-10528000D01*
X15528333Y-10528000D02*
X15537857Y-10518476D01*
X15537857Y-10518476D02*
X15537857Y-10537524D01*
X15671191Y-10337524D02*
X15690238Y-10337524D01*
X15690238Y-10337524D02*
X15709286Y-10347048D01*
X15709286Y-10347048D02*
X15718810Y-10356571D01*
X15718810Y-10356571D02*
X15728333Y-10375619D01*
X15728333Y-10375619D02*
X15737857Y-10413714D01*
X15737857Y-10413714D02*
X15737857Y-10461333D01*
X15737857Y-10461333D02*
X15728333Y-10499429D01*
X15728333Y-10499429D02*
X15718810Y-10518476D01*
X15718810Y-10518476D02*
X15709286Y-10528000D01*
X15709286Y-10528000D02*
X15690238Y-10537524D01*
X15690238Y-10537524D02*
X15671191Y-10537524D01*
X15671191Y-10537524D02*
X15652143Y-10528000D01*
X15652143Y-10528000D02*
X15642619Y-10518476D01*
X15642619Y-10518476D02*
X15633095Y-10499429D01*
X15633095Y-10499429D02*
X15623572Y-10461333D01*
X15623572Y-10461333D02*
X15623572Y-10413714D01*
X15623572Y-10413714D02*
X15633095Y-10375619D01*
X15633095Y-10375619D02*
X15642619Y-10356571D01*
X15642619Y-10356571D02*
X15652143Y-10347048D01*
X15652143Y-10347048D02*
X15671191Y-10337524D01*
X15814048Y-10356571D02*
X15823572Y-10347048D01*
X15823572Y-10347048D02*
X15842619Y-10337524D01*
X15842619Y-10337524D02*
X15890238Y-10337524D01*
X15890238Y-10337524D02*
X15909286Y-10347048D01*
X15909286Y-10347048D02*
X15918810Y-10356571D01*
X15918810Y-10356571D02*
X15928333Y-10375619D01*
X15928333Y-10375619D02*
X15928333Y-10394667D01*
X15928333Y-10394667D02*
X15918810Y-10423238D01*
X15918810Y-10423238D02*
X15804524Y-10537524D01*
X15804524Y-10537524D02*
X15928333Y-10537524D01*
X15995000Y-10337524D02*
X16118810Y-10337524D01*
X16118810Y-10337524D02*
X16052143Y-10413714D01*
X16052143Y-10413714D02*
X16080714Y-10413714D01*
X16080714Y-10413714D02*
X16099762Y-10423238D01*
X16099762Y-10423238D02*
X16109286Y-10432762D01*
X16109286Y-10432762D02*
X16118810Y-10451810D01*
X16118810Y-10451810D02*
X16118810Y-10499429D01*
X16118810Y-10499429D02*
X16109286Y-10518476D01*
X16109286Y-10518476D02*
X16099762Y-10528000D01*
X16099762Y-10528000D02*
X16080714Y-10537524D01*
X16080714Y-10537524D02*
X16023572Y-10537524D01*
X16023572Y-10537524D02*
X16004524Y-10528000D01*
X16004524Y-10528000D02*
X15995000Y-10518476D01*
X16290238Y-10337524D02*
X16252143Y-10337524D01*
X16252143Y-10337524D02*
X16233095Y-10347048D01*
X16233095Y-10347048D02*
X16223572Y-10356571D01*
X16223572Y-10356571D02*
X16204524Y-10385143D01*
X16204524Y-10385143D02*
X16195000Y-10423238D01*
X16195000Y-10423238D02*
X16195000Y-10499429D01*
X16195000Y-10499429D02*
X16204524Y-10518476D01*
X16204524Y-10518476D02*
X16214048Y-10528000D01*
X16214048Y-10528000D02*
X16233095Y-10537524D01*
X16233095Y-10537524D02*
X16271191Y-10537524D01*
X16271191Y-10537524D02*
X16290238Y-10528000D01*
X16290238Y-10528000D02*
X16299762Y-10518476D01*
X16299762Y-10518476D02*
X16309286Y-10499429D01*
X16309286Y-10499429D02*
X16309286Y-10451810D01*
X16309286Y-10451810D02*
X16299762Y-10432762D01*
X16299762Y-10432762D02*
X16290238Y-10423238D01*
X16290238Y-10423238D02*
X16271191Y-10413714D01*
X16271191Y-10413714D02*
X16233095Y-10413714D01*
X16233095Y-10413714D02*
X16214048Y-10423238D01*
X16214048Y-10423238D02*
X16204524Y-10432762D01*
X16204524Y-10432762D02*
X16195000Y-10451810D01*
X16385476Y-10337524D02*
X16385476Y-10375619D01*
X16461667Y-10337524D02*
X16461667Y-10375619D01*
X16756905Y-10613714D02*
X16747381Y-10604190D01*
X16747381Y-10604190D02*
X16728334Y-10575619D01*
X16728334Y-10575619D02*
X16718810Y-10556571D01*
X16718810Y-10556571D02*
X16709286Y-10528000D01*
X16709286Y-10528000D02*
X16699762Y-10480381D01*
X16699762Y-10480381D02*
X16699762Y-10442286D01*
X16699762Y-10442286D02*
X16709286Y-10394667D01*
X16709286Y-10394667D02*
X16718810Y-10366095D01*
X16718810Y-10366095D02*
X16728334Y-10347048D01*
X16728334Y-10347048D02*
X16747381Y-10318476D01*
X16747381Y-10318476D02*
X16756905Y-10308952D01*
X16823572Y-10356571D02*
X16833096Y-10347048D01*
X16833096Y-10347048D02*
X16852143Y-10337524D01*
X16852143Y-10337524D02*
X16899762Y-10337524D01*
X16899762Y-10337524D02*
X16918810Y-10347048D01*
X16918810Y-10347048D02*
X16928334Y-10356571D01*
X16928334Y-10356571D02*
X16937857Y-10375619D01*
X16937857Y-10375619D02*
X16937857Y-10394667D01*
X16937857Y-10394667D02*
X16928334Y-10423238D01*
X16928334Y-10423238D02*
X16814048Y-10537524D01*
X16814048Y-10537524D02*
X16937857Y-10537524D01*
X17175953Y-10537524D02*
X17175953Y-10337524D01*
X17261667Y-10537524D02*
X17261667Y-10432762D01*
X17261667Y-10432762D02*
X17252143Y-10413714D01*
X17252143Y-10413714D02*
X17233096Y-10404190D01*
X17233096Y-10404190D02*
X17204524Y-10404190D01*
X17204524Y-10404190D02*
X17185477Y-10413714D01*
X17185477Y-10413714D02*
X17175953Y-10423238D01*
X17385477Y-10537524D02*
X17366429Y-10528000D01*
X17366429Y-10528000D02*
X17356905Y-10518476D01*
X17356905Y-10518476D02*
X17347381Y-10499429D01*
X17347381Y-10499429D02*
X17347381Y-10442286D01*
X17347381Y-10442286D02*
X17356905Y-10423238D01*
X17356905Y-10423238D02*
X17366429Y-10413714D01*
X17366429Y-10413714D02*
X17385477Y-10404190D01*
X17385477Y-10404190D02*
X17414048Y-10404190D01*
X17414048Y-10404190D02*
X17433096Y-10413714D01*
X17433096Y-10413714D02*
X17442619Y-10423238D01*
X17442619Y-10423238D02*
X17452143Y-10442286D01*
X17452143Y-10442286D02*
X17452143Y-10499429D01*
X17452143Y-10499429D02*
X17442619Y-10518476D01*
X17442619Y-10518476D02*
X17433096Y-10528000D01*
X17433096Y-10528000D02*
X17414048Y-10537524D01*
X17414048Y-10537524D02*
X17385477Y-10537524D01*
X17566429Y-10537524D02*
X17547381Y-10528000D01*
X17547381Y-10528000D02*
X17537858Y-10508952D01*
X17537858Y-10508952D02*
X17537858Y-10337524D01*
X17718810Y-10528000D02*
X17699762Y-10537524D01*
X17699762Y-10537524D02*
X17661667Y-10537524D01*
X17661667Y-10537524D02*
X17642619Y-10528000D01*
X17642619Y-10528000D02*
X17633096Y-10508952D01*
X17633096Y-10508952D02*
X17633096Y-10432762D01*
X17633096Y-10432762D02*
X17642619Y-10413714D01*
X17642619Y-10413714D02*
X17661667Y-10404190D01*
X17661667Y-10404190D02*
X17699762Y-10404190D01*
X17699762Y-10404190D02*
X17718810Y-10413714D01*
X17718810Y-10413714D02*
X17728334Y-10432762D01*
X17728334Y-10432762D02*
X17728334Y-10451810D01*
X17728334Y-10451810D02*
X17633096Y-10470857D01*
X17804524Y-10528000D02*
X17823572Y-10537524D01*
X17823572Y-10537524D02*
X17861667Y-10537524D01*
X17861667Y-10537524D02*
X17880715Y-10528000D01*
X17880715Y-10528000D02*
X17890239Y-10508952D01*
X17890239Y-10508952D02*
X17890239Y-10499429D01*
X17890239Y-10499429D02*
X17880715Y-10480381D01*
X17880715Y-10480381D02*
X17861667Y-10470857D01*
X17861667Y-10470857D02*
X17833096Y-10470857D01*
X17833096Y-10470857D02*
X17814048Y-10461333D01*
X17814048Y-10461333D02*
X17804524Y-10442286D01*
X17804524Y-10442286D02*
X17804524Y-10432762D01*
X17804524Y-10432762D02*
X17814048Y-10413714D01*
X17814048Y-10413714D02*
X17833096Y-10404190D01*
X17833096Y-10404190D02*
X17861667Y-10404190D01*
X17861667Y-10404190D02*
X17880715Y-10413714D01*
X17956905Y-10613714D02*
X17966429Y-10604190D01*
X17966429Y-10604190D02*
X17985477Y-10575619D01*
X17985477Y-10575619D02*
X17995000Y-10556571D01*
X17995000Y-10556571D02*
X18004524Y-10528000D01*
X18004524Y-10528000D02*
X18014048Y-10480381D01*
X18014048Y-10480381D02*
X18014048Y-10442286D01*
X18014048Y-10442286D02*
X18004524Y-10394667D01*
X18004524Y-10394667D02*
X17995000Y-10366095D01*
X17995000Y-10366095D02*
X17985477Y-10347048D01*
X17985477Y-10347048D02*
X17966429Y-10318476D01*
X17966429Y-10318476D02*
X17956905Y-10308952D01*
X18318810Y-10613714D02*
X18309286Y-10604190D01*
X18309286Y-10604190D02*
X18290239Y-10575619D01*
X18290239Y-10575619D02*
X18280715Y-10556571D01*
X18280715Y-10556571D02*
X18271191Y-10528000D01*
X18271191Y-10528000D02*
X18261667Y-10480381D01*
X18261667Y-10480381D02*
X18261667Y-10442286D01*
X18261667Y-10442286D02*
X18271191Y-10394667D01*
X18271191Y-10394667D02*
X18280715Y-10366095D01*
X18280715Y-10366095D02*
X18290239Y-10347048D01*
X18290239Y-10347048D02*
X18309286Y-10318476D01*
X18309286Y-10318476D02*
X18318810Y-10308952D01*
X18395000Y-10404190D02*
X18395000Y-10537524D01*
X18395000Y-10423238D02*
X18404524Y-10413714D01*
X18404524Y-10413714D02*
X18423572Y-10404190D01*
X18423572Y-10404190D02*
X18452143Y-10404190D01*
X18452143Y-10404190D02*
X18471191Y-10413714D01*
X18471191Y-10413714D02*
X18480715Y-10432762D01*
X18480715Y-10432762D02*
X18480715Y-10537524D01*
X18604524Y-10537524D02*
X18585477Y-10528000D01*
X18585477Y-10528000D02*
X18575953Y-10518476D01*
X18575953Y-10518476D02*
X18566429Y-10499429D01*
X18566429Y-10499429D02*
X18566429Y-10442286D01*
X18566429Y-10442286D02*
X18575953Y-10423238D01*
X18575953Y-10423238D02*
X18585477Y-10413714D01*
X18585477Y-10413714D02*
X18604524Y-10404190D01*
X18604524Y-10404190D02*
X18633096Y-10404190D01*
X18633096Y-10404190D02*
X18652143Y-10413714D01*
X18652143Y-10413714D02*
X18661667Y-10423238D01*
X18661667Y-10423238D02*
X18671191Y-10442286D01*
X18671191Y-10442286D02*
X18671191Y-10499429D01*
X18671191Y-10499429D02*
X18661667Y-10518476D01*
X18661667Y-10518476D02*
X18652143Y-10528000D01*
X18652143Y-10528000D02*
X18633096Y-10537524D01*
X18633096Y-10537524D02*
X18604524Y-10537524D01*
X18728334Y-10404190D02*
X18804524Y-10404190D01*
X18756905Y-10337524D02*
X18756905Y-10508952D01*
X18756905Y-10508952D02*
X18766429Y-10528000D01*
X18766429Y-10528000D02*
X18785477Y-10537524D01*
X18785477Y-10537524D02*
X18804524Y-10537524D01*
X19023572Y-10404190D02*
X19023572Y-10604190D01*
X19023572Y-10413714D02*
X19042620Y-10404190D01*
X19042620Y-10404190D02*
X19080715Y-10404190D01*
X19080715Y-10404190D02*
X19099762Y-10413714D01*
X19099762Y-10413714D02*
X19109286Y-10423238D01*
X19109286Y-10423238D02*
X19118810Y-10442286D01*
X19118810Y-10442286D02*
X19118810Y-10499429D01*
X19118810Y-10499429D02*
X19109286Y-10518476D01*
X19109286Y-10518476D02*
X19099762Y-10528000D01*
X19099762Y-10528000D02*
X19080715Y-10537524D01*
X19080715Y-10537524D02*
X19042620Y-10537524D01*
X19042620Y-10537524D02*
X19023572Y-10528000D01*
X19233096Y-10537524D02*
X19214048Y-10528000D01*
X19214048Y-10528000D02*
X19204524Y-10508952D01*
X19204524Y-10508952D02*
X19204524Y-10337524D01*
X19395001Y-10537524D02*
X19395001Y-10432762D01*
X19395001Y-10432762D02*
X19385477Y-10413714D01*
X19385477Y-10413714D02*
X19366429Y-10404190D01*
X19366429Y-10404190D02*
X19328334Y-10404190D01*
X19328334Y-10404190D02*
X19309286Y-10413714D01*
X19395001Y-10528000D02*
X19375953Y-10537524D01*
X19375953Y-10537524D02*
X19328334Y-10537524D01*
X19328334Y-10537524D02*
X19309286Y-10528000D01*
X19309286Y-10528000D02*
X19299762Y-10508952D01*
X19299762Y-10508952D02*
X19299762Y-10489905D01*
X19299762Y-10489905D02*
X19309286Y-10470857D01*
X19309286Y-10470857D02*
X19328334Y-10461333D01*
X19328334Y-10461333D02*
X19375953Y-10461333D01*
X19375953Y-10461333D02*
X19395001Y-10451810D01*
X19461667Y-10404190D02*
X19537858Y-10404190D01*
X19490239Y-10337524D02*
X19490239Y-10508952D01*
X19490239Y-10508952D02*
X19499762Y-10528000D01*
X19499762Y-10528000D02*
X19518810Y-10537524D01*
X19518810Y-10537524D02*
X19537858Y-10537524D01*
X19680715Y-10528000D02*
X19661667Y-10537524D01*
X19661667Y-10537524D02*
X19623572Y-10537524D01*
X19623572Y-10537524D02*
X19604524Y-10528000D01*
X19604524Y-10528000D02*
X19595001Y-10508952D01*
X19595001Y-10508952D02*
X19595001Y-10432762D01*
X19595001Y-10432762D02*
X19604524Y-10413714D01*
X19604524Y-10413714D02*
X19623572Y-10404190D01*
X19623572Y-10404190D02*
X19661667Y-10404190D01*
X19661667Y-10404190D02*
X19680715Y-10413714D01*
X19680715Y-10413714D02*
X19690239Y-10432762D01*
X19690239Y-10432762D02*
X19690239Y-10451810D01*
X19690239Y-10451810D02*
X19595001Y-10470857D01*
X19861667Y-10537524D02*
X19861667Y-10337524D01*
X19861667Y-10528000D02*
X19842620Y-10537524D01*
X19842620Y-10537524D02*
X19804524Y-10537524D01*
X19804524Y-10537524D02*
X19785477Y-10528000D01*
X19785477Y-10528000D02*
X19775953Y-10518476D01*
X19775953Y-10518476D02*
X19766429Y-10499429D01*
X19766429Y-10499429D02*
X19766429Y-10442286D01*
X19766429Y-10442286D02*
X19775953Y-10423238D01*
X19775953Y-10423238D02*
X19785477Y-10413714D01*
X19785477Y-10413714D02*
X19804524Y-10404190D01*
X19804524Y-10404190D02*
X19842620Y-10404190D01*
X19842620Y-10404190D02*
X19861667Y-10413714D01*
X19937858Y-10613714D02*
X19947382Y-10604190D01*
X19947382Y-10604190D02*
X19966429Y-10575619D01*
X19966429Y-10575619D02*
X19975953Y-10556571D01*
X19975953Y-10556571D02*
X19985477Y-10528000D01*
X19985477Y-10528000D02*
X19995001Y-10480381D01*
X19995001Y-10480381D02*
X19995001Y-10442286D01*
X19995001Y-10442286D02*
X19985477Y-10394667D01*
X19985477Y-10394667D02*
X19975953Y-10366095D01*
X19975953Y-10366095D02*
X19966429Y-10347048D01*
X19966429Y-10347048D02*
X19947382Y-10318476D01*
X19947382Y-10318476D02*
X19937858Y-10308952D01*
M02*
