%TF.GenerationSoftware,KiCad,Pcbnew,7.0.1*%
%TF.CreationDate,2023-12-24T21:56:31+00:00*%
%TF.ProjectId,watch_main,77617463-685f-46d6-9169-6e2e6b696361,rev?*%
%TF.SameCoordinates,Original*%
%TF.FileFunction,Drillmap*%
%TF.FilePolarity,Positive*%
%FSLAX45Y45*%
G04 Gerber Fmt 4.5, Leading zero omitted, Abs format (unit mm)*
G04 Created by KiCad (PCBNEW 7.0.1) date 2023-12-24 21:56:31*
%MOMM*%
%LPD*%
G01*
G04 APERTURE LIST*
%ADD10C,0.200000*%
%ADD11C,0.060960*%
G04 APERTURE END LIST*
D10*
D11*
X15479780Y-8969520D02*
X15540740Y-9030480D01*
X15540740Y-8969520D02*
X15479780Y-9030480D01*
D10*
X13447722Y-12199242D02*
X13447722Y-11999242D01*
X13447722Y-11999242D02*
X13495341Y-11999242D01*
X13495341Y-11999242D02*
X13523913Y-12008766D01*
X13523913Y-12008766D02*
X13542961Y-12027813D01*
X13542961Y-12027813D02*
X13552484Y-12046861D01*
X13552484Y-12046861D02*
X13562008Y-12084956D01*
X13562008Y-12084956D02*
X13562008Y-12113528D01*
X13562008Y-12113528D02*
X13552484Y-12151623D01*
X13552484Y-12151623D02*
X13542961Y-12170670D01*
X13542961Y-12170670D02*
X13523913Y-12189718D01*
X13523913Y-12189718D02*
X13495341Y-12199242D01*
X13495341Y-12199242D02*
X13447722Y-12199242D01*
X13647722Y-12199242D02*
X13647722Y-12065909D01*
X13647722Y-12104004D02*
X13657246Y-12084956D01*
X13657246Y-12084956D02*
X13666770Y-12075432D01*
X13666770Y-12075432D02*
X13685818Y-12065909D01*
X13685818Y-12065909D02*
X13704865Y-12065909D01*
X13771532Y-12199242D02*
X13771532Y-12065909D01*
X13771532Y-11999242D02*
X13762008Y-12008766D01*
X13762008Y-12008766D02*
X13771532Y-12018290D01*
X13771532Y-12018290D02*
X13781056Y-12008766D01*
X13781056Y-12008766D02*
X13771532Y-11999242D01*
X13771532Y-11999242D02*
X13771532Y-12018290D01*
X13895341Y-12199242D02*
X13876294Y-12189718D01*
X13876294Y-12189718D02*
X13866770Y-12170670D01*
X13866770Y-12170670D02*
X13866770Y-11999242D01*
X14000103Y-12199242D02*
X13981056Y-12189718D01*
X13981056Y-12189718D02*
X13971532Y-12170670D01*
X13971532Y-12170670D02*
X13971532Y-11999242D01*
X14228675Y-12199242D02*
X14228675Y-11999242D01*
X14228675Y-11999242D02*
X14295342Y-12142099D01*
X14295342Y-12142099D02*
X14362008Y-11999242D01*
X14362008Y-11999242D02*
X14362008Y-12199242D01*
X14542961Y-12199242D02*
X14542961Y-12094480D01*
X14542961Y-12094480D02*
X14533437Y-12075432D01*
X14533437Y-12075432D02*
X14514389Y-12065909D01*
X14514389Y-12065909D02*
X14476294Y-12065909D01*
X14476294Y-12065909D02*
X14457246Y-12075432D01*
X14542961Y-12189718D02*
X14523913Y-12199242D01*
X14523913Y-12199242D02*
X14476294Y-12199242D01*
X14476294Y-12199242D02*
X14457246Y-12189718D01*
X14457246Y-12189718D02*
X14447722Y-12170670D01*
X14447722Y-12170670D02*
X14447722Y-12151623D01*
X14447722Y-12151623D02*
X14457246Y-12132575D01*
X14457246Y-12132575D02*
X14476294Y-12123051D01*
X14476294Y-12123051D02*
X14523913Y-12123051D01*
X14523913Y-12123051D02*
X14542961Y-12113528D01*
X14638199Y-12065909D02*
X14638199Y-12265909D01*
X14638199Y-12075432D02*
X14657246Y-12065909D01*
X14657246Y-12065909D02*
X14695342Y-12065909D01*
X14695342Y-12065909D02*
X14714389Y-12075432D01*
X14714389Y-12075432D02*
X14723913Y-12084956D01*
X14723913Y-12084956D02*
X14733437Y-12104004D01*
X14733437Y-12104004D02*
X14733437Y-12161147D01*
X14733437Y-12161147D02*
X14723913Y-12180194D01*
X14723913Y-12180194D02*
X14714389Y-12189718D01*
X14714389Y-12189718D02*
X14695342Y-12199242D01*
X14695342Y-12199242D02*
X14657246Y-12199242D01*
X14657246Y-12199242D02*
X14638199Y-12189718D01*
X14819151Y-12180194D02*
X14828675Y-12189718D01*
X14828675Y-12189718D02*
X14819151Y-12199242D01*
X14819151Y-12199242D02*
X14809627Y-12189718D01*
X14809627Y-12189718D02*
X14819151Y-12180194D01*
X14819151Y-12180194D02*
X14819151Y-12199242D01*
X14819151Y-12075432D02*
X14828675Y-12084956D01*
X14828675Y-12084956D02*
X14819151Y-12094480D01*
X14819151Y-12094480D02*
X14809627Y-12084956D01*
X14809627Y-12084956D02*
X14819151Y-12075432D01*
X14819151Y-12075432D02*
X14819151Y-12094480D01*
D11*
X13139143Y-12496238D02*
X13200103Y-12557198D01*
X13200103Y-12496238D02*
X13139143Y-12557198D01*
D10*
X13485818Y-12419242D02*
X13504865Y-12419242D01*
X13504865Y-12419242D02*
X13523913Y-12428766D01*
X13523913Y-12428766D02*
X13533437Y-12438290D01*
X13533437Y-12438290D02*
X13542961Y-12457337D01*
X13542961Y-12457337D02*
X13552484Y-12495432D01*
X13552484Y-12495432D02*
X13552484Y-12543051D01*
X13552484Y-12543051D02*
X13542961Y-12581147D01*
X13542961Y-12581147D02*
X13533437Y-12600194D01*
X13533437Y-12600194D02*
X13523913Y-12609718D01*
X13523913Y-12609718D02*
X13504865Y-12619242D01*
X13504865Y-12619242D02*
X13485818Y-12619242D01*
X13485818Y-12619242D02*
X13466770Y-12609718D01*
X13466770Y-12609718D02*
X13457246Y-12600194D01*
X13457246Y-12600194D02*
X13447722Y-12581147D01*
X13447722Y-12581147D02*
X13438199Y-12543051D01*
X13438199Y-12543051D02*
X13438199Y-12495432D01*
X13438199Y-12495432D02*
X13447722Y-12457337D01*
X13447722Y-12457337D02*
X13457246Y-12438290D01*
X13457246Y-12438290D02*
X13466770Y-12428766D01*
X13466770Y-12428766D02*
X13485818Y-12419242D01*
X13638199Y-12600194D02*
X13647722Y-12609718D01*
X13647722Y-12609718D02*
X13638199Y-12619242D01*
X13638199Y-12619242D02*
X13628675Y-12609718D01*
X13628675Y-12609718D02*
X13638199Y-12600194D01*
X13638199Y-12600194D02*
X13638199Y-12619242D01*
X13819151Y-12419242D02*
X13781056Y-12419242D01*
X13781056Y-12419242D02*
X13762008Y-12428766D01*
X13762008Y-12428766D02*
X13752484Y-12438290D01*
X13752484Y-12438290D02*
X13733437Y-12466861D01*
X13733437Y-12466861D02*
X13723913Y-12504956D01*
X13723913Y-12504956D02*
X13723913Y-12581147D01*
X13723913Y-12581147D02*
X13733437Y-12600194D01*
X13733437Y-12600194D02*
X13742961Y-12609718D01*
X13742961Y-12609718D02*
X13762008Y-12619242D01*
X13762008Y-12619242D02*
X13800103Y-12619242D01*
X13800103Y-12619242D02*
X13819151Y-12609718D01*
X13819151Y-12609718D02*
X13828675Y-12600194D01*
X13828675Y-12600194D02*
X13838199Y-12581147D01*
X13838199Y-12581147D02*
X13838199Y-12533528D01*
X13838199Y-12533528D02*
X13828675Y-12514480D01*
X13828675Y-12514480D02*
X13819151Y-12504956D01*
X13819151Y-12504956D02*
X13800103Y-12495432D01*
X13800103Y-12495432D02*
X13762008Y-12495432D01*
X13762008Y-12495432D02*
X13742961Y-12504956D01*
X13742961Y-12504956D02*
X13733437Y-12514480D01*
X13733437Y-12514480D02*
X13723913Y-12533528D01*
X14028675Y-12619242D02*
X13914389Y-12619242D01*
X13971532Y-12619242D02*
X13971532Y-12419242D01*
X13971532Y-12419242D02*
X13952484Y-12447813D01*
X13952484Y-12447813D02*
X13933437Y-12466861D01*
X13933437Y-12466861D02*
X13914389Y-12476385D01*
X14152484Y-12419242D02*
X14171532Y-12419242D01*
X14171532Y-12419242D02*
X14190580Y-12428766D01*
X14190580Y-12428766D02*
X14200103Y-12438290D01*
X14200103Y-12438290D02*
X14209627Y-12457337D01*
X14209627Y-12457337D02*
X14219151Y-12495432D01*
X14219151Y-12495432D02*
X14219151Y-12543051D01*
X14219151Y-12543051D02*
X14209627Y-12581147D01*
X14209627Y-12581147D02*
X14200103Y-12600194D01*
X14200103Y-12600194D02*
X14190580Y-12609718D01*
X14190580Y-12609718D02*
X14171532Y-12619242D01*
X14171532Y-12619242D02*
X14152484Y-12619242D01*
X14152484Y-12619242D02*
X14133437Y-12609718D01*
X14133437Y-12609718D02*
X14123913Y-12600194D01*
X14123913Y-12600194D02*
X14114389Y-12581147D01*
X14114389Y-12581147D02*
X14104865Y-12543051D01*
X14104865Y-12543051D02*
X14104865Y-12495432D01*
X14104865Y-12495432D02*
X14114389Y-12457337D01*
X14114389Y-12457337D02*
X14123913Y-12438290D01*
X14123913Y-12438290D02*
X14133437Y-12428766D01*
X14133437Y-12428766D02*
X14152484Y-12419242D01*
X14304865Y-12619242D02*
X14304865Y-12485909D01*
X14304865Y-12504956D02*
X14314389Y-12495432D01*
X14314389Y-12495432D02*
X14333437Y-12485909D01*
X14333437Y-12485909D02*
X14362008Y-12485909D01*
X14362008Y-12485909D02*
X14381056Y-12495432D01*
X14381056Y-12495432D02*
X14390580Y-12514480D01*
X14390580Y-12514480D02*
X14390580Y-12619242D01*
X14390580Y-12514480D02*
X14400103Y-12495432D01*
X14400103Y-12495432D02*
X14419151Y-12485909D01*
X14419151Y-12485909D02*
X14447722Y-12485909D01*
X14447722Y-12485909D02*
X14466770Y-12495432D01*
X14466770Y-12495432D02*
X14476294Y-12514480D01*
X14476294Y-12514480D02*
X14476294Y-12619242D01*
X14571532Y-12619242D02*
X14571532Y-12485909D01*
X14571532Y-12504956D02*
X14581056Y-12495432D01*
X14581056Y-12495432D02*
X14600103Y-12485909D01*
X14600103Y-12485909D02*
X14628675Y-12485909D01*
X14628675Y-12485909D02*
X14647723Y-12495432D01*
X14647723Y-12495432D02*
X14657246Y-12514480D01*
X14657246Y-12514480D02*
X14657246Y-12619242D01*
X14657246Y-12514480D02*
X14666770Y-12495432D01*
X14666770Y-12495432D02*
X14685818Y-12485909D01*
X14685818Y-12485909D02*
X14714389Y-12485909D01*
X14714389Y-12485909D02*
X14733437Y-12495432D01*
X14733437Y-12495432D02*
X14742961Y-12514480D01*
X14742961Y-12514480D02*
X14742961Y-12619242D01*
X15133437Y-12409718D02*
X14962008Y-12666861D01*
X15390580Y-12419242D02*
X15409627Y-12419242D01*
X15409627Y-12419242D02*
X15428675Y-12428766D01*
X15428675Y-12428766D02*
X15438199Y-12438290D01*
X15438199Y-12438290D02*
X15447723Y-12457337D01*
X15447723Y-12457337D02*
X15457246Y-12495432D01*
X15457246Y-12495432D02*
X15457246Y-12543051D01*
X15457246Y-12543051D02*
X15447723Y-12581147D01*
X15447723Y-12581147D02*
X15438199Y-12600194D01*
X15438199Y-12600194D02*
X15428675Y-12609718D01*
X15428675Y-12609718D02*
X15409627Y-12619242D01*
X15409627Y-12619242D02*
X15390580Y-12619242D01*
X15390580Y-12619242D02*
X15371532Y-12609718D01*
X15371532Y-12609718D02*
X15362008Y-12600194D01*
X15362008Y-12600194D02*
X15352485Y-12581147D01*
X15352485Y-12581147D02*
X15342961Y-12543051D01*
X15342961Y-12543051D02*
X15342961Y-12495432D01*
X15342961Y-12495432D02*
X15352485Y-12457337D01*
X15352485Y-12457337D02*
X15362008Y-12438290D01*
X15362008Y-12438290D02*
X15371532Y-12428766D01*
X15371532Y-12428766D02*
X15390580Y-12419242D01*
X15542961Y-12600194D02*
X15552485Y-12609718D01*
X15552485Y-12609718D02*
X15542961Y-12619242D01*
X15542961Y-12619242D02*
X15533437Y-12609718D01*
X15533437Y-12609718D02*
X15542961Y-12600194D01*
X15542961Y-12600194D02*
X15542961Y-12619242D01*
X15676294Y-12419242D02*
X15695342Y-12419242D01*
X15695342Y-12419242D02*
X15714389Y-12428766D01*
X15714389Y-12428766D02*
X15723913Y-12438290D01*
X15723913Y-12438290D02*
X15733437Y-12457337D01*
X15733437Y-12457337D02*
X15742961Y-12495432D01*
X15742961Y-12495432D02*
X15742961Y-12543051D01*
X15742961Y-12543051D02*
X15733437Y-12581147D01*
X15733437Y-12581147D02*
X15723913Y-12600194D01*
X15723913Y-12600194D02*
X15714389Y-12609718D01*
X15714389Y-12609718D02*
X15695342Y-12619242D01*
X15695342Y-12619242D02*
X15676294Y-12619242D01*
X15676294Y-12619242D02*
X15657246Y-12609718D01*
X15657246Y-12609718D02*
X15647723Y-12600194D01*
X15647723Y-12600194D02*
X15638199Y-12581147D01*
X15638199Y-12581147D02*
X15628675Y-12543051D01*
X15628675Y-12543051D02*
X15628675Y-12495432D01*
X15628675Y-12495432D02*
X15638199Y-12457337D01*
X15638199Y-12457337D02*
X15647723Y-12438290D01*
X15647723Y-12438290D02*
X15657246Y-12428766D01*
X15657246Y-12428766D02*
X15676294Y-12419242D01*
X15819151Y-12438290D02*
X15828675Y-12428766D01*
X15828675Y-12428766D02*
X15847723Y-12419242D01*
X15847723Y-12419242D02*
X15895342Y-12419242D01*
X15895342Y-12419242D02*
X15914389Y-12428766D01*
X15914389Y-12428766D02*
X15923913Y-12438290D01*
X15923913Y-12438290D02*
X15933437Y-12457337D01*
X15933437Y-12457337D02*
X15933437Y-12476385D01*
X15933437Y-12476385D02*
X15923913Y-12504956D01*
X15923913Y-12504956D02*
X15809627Y-12619242D01*
X15809627Y-12619242D02*
X15933437Y-12619242D01*
X16104866Y-12485909D02*
X16104866Y-12619242D01*
X16057246Y-12409718D02*
X16009627Y-12552575D01*
X16009627Y-12552575D02*
X16133437Y-12552575D01*
X16247723Y-12419242D02*
X16266770Y-12419242D01*
X16266770Y-12419242D02*
X16285818Y-12428766D01*
X16285818Y-12428766D02*
X16295342Y-12438290D01*
X16295342Y-12438290D02*
X16304866Y-12457337D01*
X16304866Y-12457337D02*
X16314389Y-12495432D01*
X16314389Y-12495432D02*
X16314389Y-12543051D01*
X16314389Y-12543051D02*
X16304866Y-12581147D01*
X16304866Y-12581147D02*
X16295342Y-12600194D01*
X16295342Y-12600194D02*
X16285818Y-12609718D01*
X16285818Y-12609718D02*
X16266770Y-12619242D01*
X16266770Y-12619242D02*
X16247723Y-12619242D01*
X16247723Y-12619242D02*
X16228675Y-12609718D01*
X16228675Y-12609718D02*
X16219151Y-12600194D01*
X16219151Y-12600194D02*
X16209627Y-12581147D01*
X16209627Y-12581147D02*
X16200104Y-12543051D01*
X16200104Y-12543051D02*
X16200104Y-12495432D01*
X16200104Y-12495432D02*
X16209627Y-12457337D01*
X16209627Y-12457337D02*
X16219151Y-12438290D01*
X16219151Y-12438290D02*
X16228675Y-12428766D01*
X16228675Y-12428766D02*
X16247723Y-12419242D01*
X16390580Y-12419242D02*
X16390580Y-12457337D01*
X16466770Y-12419242D02*
X16466770Y-12457337D01*
X16762009Y-12695432D02*
X16752485Y-12685909D01*
X16752485Y-12685909D02*
X16733437Y-12657337D01*
X16733437Y-12657337D02*
X16723913Y-12638290D01*
X16723913Y-12638290D02*
X16714389Y-12609718D01*
X16714389Y-12609718D02*
X16704866Y-12562099D01*
X16704866Y-12562099D02*
X16704866Y-12524004D01*
X16704866Y-12524004D02*
X16714389Y-12476385D01*
X16714389Y-12476385D02*
X16723913Y-12447813D01*
X16723913Y-12447813D02*
X16733437Y-12428766D01*
X16733437Y-12428766D02*
X16752485Y-12400194D01*
X16752485Y-12400194D02*
X16762009Y-12390670D01*
X16942961Y-12619242D02*
X16828675Y-12619242D01*
X16885818Y-12619242D02*
X16885818Y-12419242D01*
X16885818Y-12419242D02*
X16866770Y-12447813D01*
X16866770Y-12447813D02*
X16847723Y-12466861D01*
X16847723Y-12466861D02*
X16828675Y-12476385D01*
X17181056Y-12619242D02*
X17181056Y-12419242D01*
X17266771Y-12619242D02*
X17266771Y-12514480D01*
X17266771Y-12514480D02*
X17257247Y-12495432D01*
X17257247Y-12495432D02*
X17238199Y-12485909D01*
X17238199Y-12485909D02*
X17209628Y-12485909D01*
X17209628Y-12485909D02*
X17190580Y-12495432D01*
X17190580Y-12495432D02*
X17181056Y-12504956D01*
X17390580Y-12619242D02*
X17371532Y-12609718D01*
X17371532Y-12609718D02*
X17362009Y-12600194D01*
X17362009Y-12600194D02*
X17352485Y-12581147D01*
X17352485Y-12581147D02*
X17352485Y-12524004D01*
X17352485Y-12524004D02*
X17362009Y-12504956D01*
X17362009Y-12504956D02*
X17371532Y-12495432D01*
X17371532Y-12495432D02*
X17390580Y-12485909D01*
X17390580Y-12485909D02*
X17419152Y-12485909D01*
X17419152Y-12485909D02*
X17438199Y-12495432D01*
X17438199Y-12495432D02*
X17447723Y-12504956D01*
X17447723Y-12504956D02*
X17457247Y-12524004D01*
X17457247Y-12524004D02*
X17457247Y-12581147D01*
X17457247Y-12581147D02*
X17447723Y-12600194D01*
X17447723Y-12600194D02*
X17438199Y-12609718D01*
X17438199Y-12609718D02*
X17419152Y-12619242D01*
X17419152Y-12619242D02*
X17390580Y-12619242D01*
X17571532Y-12619242D02*
X17552485Y-12609718D01*
X17552485Y-12609718D02*
X17542961Y-12590670D01*
X17542961Y-12590670D02*
X17542961Y-12419242D01*
X17723913Y-12609718D02*
X17704866Y-12619242D01*
X17704866Y-12619242D02*
X17666771Y-12619242D01*
X17666771Y-12619242D02*
X17647723Y-12609718D01*
X17647723Y-12609718D02*
X17638199Y-12590670D01*
X17638199Y-12590670D02*
X17638199Y-12514480D01*
X17638199Y-12514480D02*
X17647723Y-12495432D01*
X17647723Y-12495432D02*
X17666771Y-12485909D01*
X17666771Y-12485909D02*
X17704866Y-12485909D01*
X17704866Y-12485909D02*
X17723913Y-12495432D01*
X17723913Y-12495432D02*
X17733437Y-12514480D01*
X17733437Y-12514480D02*
X17733437Y-12533528D01*
X17733437Y-12533528D02*
X17638199Y-12552575D01*
X17800104Y-12695432D02*
X17809628Y-12685909D01*
X17809628Y-12685909D02*
X17828675Y-12657337D01*
X17828675Y-12657337D02*
X17838199Y-12638290D01*
X17838199Y-12638290D02*
X17847723Y-12609718D01*
X17847723Y-12609718D02*
X17857247Y-12562099D01*
X17857247Y-12562099D02*
X17857247Y-12524004D01*
X17857247Y-12524004D02*
X17847723Y-12476385D01*
X17847723Y-12476385D02*
X17838199Y-12447813D01*
X17838199Y-12447813D02*
X17828675Y-12428766D01*
X17828675Y-12428766D02*
X17809628Y-12400194D01*
X17809628Y-12400194D02*
X17800104Y-12390670D01*
X18162009Y-12695432D02*
X18152485Y-12685909D01*
X18152485Y-12685909D02*
X18133437Y-12657337D01*
X18133437Y-12657337D02*
X18123913Y-12638290D01*
X18123913Y-12638290D02*
X18114390Y-12609718D01*
X18114390Y-12609718D02*
X18104866Y-12562099D01*
X18104866Y-12562099D02*
X18104866Y-12524004D01*
X18104866Y-12524004D02*
X18114390Y-12476385D01*
X18114390Y-12476385D02*
X18123913Y-12447813D01*
X18123913Y-12447813D02*
X18133437Y-12428766D01*
X18133437Y-12428766D02*
X18152485Y-12400194D01*
X18152485Y-12400194D02*
X18162009Y-12390670D01*
X18238199Y-12485909D02*
X18238199Y-12619242D01*
X18238199Y-12504956D02*
X18247723Y-12495432D01*
X18247723Y-12495432D02*
X18266771Y-12485909D01*
X18266771Y-12485909D02*
X18295342Y-12485909D01*
X18295342Y-12485909D02*
X18314390Y-12495432D01*
X18314390Y-12495432D02*
X18323913Y-12514480D01*
X18323913Y-12514480D02*
X18323913Y-12619242D01*
X18447723Y-12619242D02*
X18428675Y-12609718D01*
X18428675Y-12609718D02*
X18419152Y-12600194D01*
X18419152Y-12600194D02*
X18409628Y-12581147D01*
X18409628Y-12581147D02*
X18409628Y-12524004D01*
X18409628Y-12524004D02*
X18419152Y-12504956D01*
X18419152Y-12504956D02*
X18428675Y-12495432D01*
X18428675Y-12495432D02*
X18447723Y-12485909D01*
X18447723Y-12485909D02*
X18476294Y-12485909D01*
X18476294Y-12485909D02*
X18495342Y-12495432D01*
X18495342Y-12495432D02*
X18504866Y-12504956D01*
X18504866Y-12504956D02*
X18514390Y-12524004D01*
X18514390Y-12524004D02*
X18514390Y-12581147D01*
X18514390Y-12581147D02*
X18504866Y-12600194D01*
X18504866Y-12600194D02*
X18495342Y-12609718D01*
X18495342Y-12609718D02*
X18476294Y-12619242D01*
X18476294Y-12619242D02*
X18447723Y-12619242D01*
X18571533Y-12485909D02*
X18647723Y-12485909D01*
X18600104Y-12419242D02*
X18600104Y-12590670D01*
X18600104Y-12590670D02*
X18609628Y-12609718D01*
X18609628Y-12609718D02*
X18628675Y-12619242D01*
X18628675Y-12619242D02*
X18647723Y-12619242D01*
X18866771Y-12485909D02*
X18866771Y-12685909D01*
X18866771Y-12495432D02*
X18885818Y-12485909D01*
X18885818Y-12485909D02*
X18923914Y-12485909D01*
X18923914Y-12485909D02*
X18942961Y-12495432D01*
X18942961Y-12495432D02*
X18952485Y-12504956D01*
X18952485Y-12504956D02*
X18962009Y-12524004D01*
X18962009Y-12524004D02*
X18962009Y-12581147D01*
X18962009Y-12581147D02*
X18952485Y-12600194D01*
X18952485Y-12600194D02*
X18942961Y-12609718D01*
X18942961Y-12609718D02*
X18923914Y-12619242D01*
X18923914Y-12619242D02*
X18885818Y-12619242D01*
X18885818Y-12619242D02*
X18866771Y-12609718D01*
X19076294Y-12619242D02*
X19057247Y-12609718D01*
X19057247Y-12609718D02*
X19047723Y-12590670D01*
X19047723Y-12590670D02*
X19047723Y-12419242D01*
X19238199Y-12619242D02*
X19238199Y-12514480D01*
X19238199Y-12514480D02*
X19228675Y-12495432D01*
X19228675Y-12495432D02*
X19209628Y-12485909D01*
X19209628Y-12485909D02*
X19171533Y-12485909D01*
X19171533Y-12485909D02*
X19152485Y-12495432D01*
X19238199Y-12609718D02*
X19219152Y-12619242D01*
X19219152Y-12619242D02*
X19171533Y-12619242D01*
X19171533Y-12619242D02*
X19152485Y-12609718D01*
X19152485Y-12609718D02*
X19142961Y-12590670D01*
X19142961Y-12590670D02*
X19142961Y-12571623D01*
X19142961Y-12571623D02*
X19152485Y-12552575D01*
X19152485Y-12552575D02*
X19171533Y-12543051D01*
X19171533Y-12543051D02*
X19219152Y-12543051D01*
X19219152Y-12543051D02*
X19238199Y-12533528D01*
X19304866Y-12485909D02*
X19381056Y-12485909D01*
X19333437Y-12419242D02*
X19333437Y-12590670D01*
X19333437Y-12590670D02*
X19342961Y-12609718D01*
X19342961Y-12609718D02*
X19362009Y-12619242D01*
X19362009Y-12619242D02*
X19381056Y-12619242D01*
X19523914Y-12609718D02*
X19504866Y-12619242D01*
X19504866Y-12619242D02*
X19466771Y-12619242D01*
X19466771Y-12619242D02*
X19447723Y-12609718D01*
X19447723Y-12609718D02*
X19438199Y-12590670D01*
X19438199Y-12590670D02*
X19438199Y-12514480D01*
X19438199Y-12514480D02*
X19447723Y-12495432D01*
X19447723Y-12495432D02*
X19466771Y-12485909D01*
X19466771Y-12485909D02*
X19504866Y-12485909D01*
X19504866Y-12485909D02*
X19523914Y-12495432D01*
X19523914Y-12495432D02*
X19533437Y-12514480D01*
X19533437Y-12514480D02*
X19533437Y-12533528D01*
X19533437Y-12533528D02*
X19438199Y-12552575D01*
X19704866Y-12619242D02*
X19704866Y-12419242D01*
X19704866Y-12609718D02*
X19685818Y-12619242D01*
X19685818Y-12619242D02*
X19647723Y-12619242D01*
X19647723Y-12619242D02*
X19628675Y-12609718D01*
X19628675Y-12609718D02*
X19619152Y-12600194D01*
X19619152Y-12600194D02*
X19609628Y-12581147D01*
X19609628Y-12581147D02*
X19609628Y-12524004D01*
X19609628Y-12524004D02*
X19619152Y-12504956D01*
X19619152Y-12504956D02*
X19628675Y-12495432D01*
X19628675Y-12495432D02*
X19647723Y-12485909D01*
X19647723Y-12485909D02*
X19685818Y-12485909D01*
X19685818Y-12485909D02*
X19704866Y-12495432D01*
X19781056Y-12695432D02*
X19790580Y-12685909D01*
X19790580Y-12685909D02*
X19809628Y-12657337D01*
X19809628Y-12657337D02*
X19819152Y-12638290D01*
X19819152Y-12638290D02*
X19828675Y-12609718D01*
X19828675Y-12609718D02*
X19838199Y-12562099D01*
X19838199Y-12562099D02*
X19838199Y-12524004D01*
X19838199Y-12524004D02*
X19828675Y-12476385D01*
X19828675Y-12476385D02*
X19819152Y-12447813D01*
X19819152Y-12447813D02*
X19809628Y-12428766D01*
X19809628Y-12428766D02*
X19790580Y-12400194D01*
X19790580Y-12400194D02*
X19781056Y-12390670D01*
M02*
