%TF.GenerationSoftware,KiCad,Pcbnew,7.0.1*%
%TF.CreationDate,2023-12-24T21:56:31+00:00*%
%TF.ProjectId,watch_main,77617463-685f-46d6-9169-6e2e6b696361,rev?*%
%TF.SameCoordinates,Original*%
%TF.FileFunction,Drillmap*%
%TF.FilePolarity,Positive*%
%FSLAX45Y45*%
G04 Gerber Fmt 4.5, Leading zero omitted, Abs format (unit mm)*
G04 Created by KiCad (PCBNEW 7.0.1) date 2023-12-24 21:56:31*
%MOMM*%
%LPD*%
G01*
G04 APERTURE LIST*
%ADD10C,0.200000*%
%ADD11C,0.020000*%
%ADD12C,0.030500*%
G04 APERTURE END LIST*
D10*
D11*
X13260000Y-8830000D02*
X13280000Y-8850000D01*
X13280000Y-8830000D02*
X13260000Y-8850000D01*
X13261300Y-9990000D02*
X13281300Y-10010000D01*
X13281300Y-9990000D02*
X13261300Y-10010000D01*
X13261300Y-10090000D02*
X13281300Y-10110000D01*
X13281300Y-10090000D02*
X13261300Y-10110000D01*
X13261300Y-10190000D02*
X13281300Y-10210000D01*
X13281300Y-10190000D02*
X13261300Y-10210000D01*
X13261300Y-10290000D02*
X13281300Y-10310000D01*
X13281300Y-10290000D02*
X13261300Y-10310000D01*
X13261300Y-10390000D02*
X13281300Y-10410000D01*
X13281300Y-10390000D02*
X13261300Y-10410000D01*
X13270000Y-8760000D02*
X13290000Y-8780000D01*
X13290000Y-8760000D02*
X13270000Y-8780000D01*
X13280000Y-10740000D02*
X13300000Y-10760000D01*
X13300000Y-10740000D02*
X13280000Y-10760000D01*
X13290000Y-8680000D02*
X13310000Y-8700000D01*
X13310000Y-8680000D02*
X13290000Y-8700000D01*
X13330000Y-8750000D02*
X13350000Y-8770000D01*
X13350000Y-8750000D02*
X13330000Y-8770000D01*
X13330000Y-8820000D02*
X13350000Y-8840000D01*
X13350000Y-8820000D02*
X13330000Y-8840000D01*
X13330000Y-9080000D02*
X13350000Y-9100000D01*
X13350000Y-9080000D02*
X13330000Y-9100000D01*
X13330000Y-10800000D02*
X13350000Y-10820000D01*
X13350000Y-10800000D02*
X13330000Y-10820000D01*
X13340000Y-9140000D02*
X13360000Y-9160000D01*
X13360000Y-9140000D02*
X13340000Y-9160000D01*
X13340000Y-10540000D02*
X13360000Y-10560000D01*
X13360000Y-10540000D02*
X13340000Y-10560000D01*
X13370000Y-10620000D02*
X13390000Y-10640000D01*
X13390000Y-10620000D02*
X13370000Y-10640000D01*
X13380000Y-8770000D02*
X13400000Y-8790000D01*
X13400000Y-8770000D02*
X13380000Y-8790000D01*
X13380000Y-9040000D02*
X13400000Y-9060000D01*
X13400000Y-9040000D02*
X13380000Y-9060000D01*
X13380000Y-10850000D02*
X13400000Y-10870000D01*
X13400000Y-10850000D02*
X13380000Y-10870000D01*
X13393600Y-10907200D02*
X13413600Y-10927200D01*
X13413600Y-10907200D02*
X13393600Y-10927200D01*
X13400000Y-8650000D02*
X13420000Y-8670000D01*
X13420000Y-8650000D02*
X13400000Y-8670000D01*
X13410000Y-8540000D02*
X13430000Y-8560000D01*
X13430000Y-8540000D02*
X13410000Y-8560000D01*
X13420000Y-10680000D02*
X13440000Y-10700000D01*
X13440000Y-10680000D02*
X13420000Y-10700000D01*
X13430000Y-9000000D02*
X13450000Y-9020000D01*
X13450000Y-9000000D02*
X13430000Y-9020000D01*
X13430000Y-9070000D02*
X13450000Y-9090000D01*
X13450000Y-9070000D02*
X13430000Y-9090000D01*
X13430000Y-10960000D02*
X13450000Y-10980000D01*
X13450000Y-10960000D02*
X13430000Y-10980000D01*
X13440000Y-8880000D02*
X13460000Y-8900000D01*
X13460000Y-8880000D02*
X13440000Y-8900000D01*
X13440000Y-9140000D02*
X13460000Y-9160000D01*
X13460000Y-9140000D02*
X13440000Y-9160000D01*
X13440000Y-10540000D02*
X13460000Y-10560000D01*
X13460000Y-10540000D02*
X13440000Y-10560000D01*
X13449400Y-8505000D02*
X13469400Y-8525000D01*
X13469400Y-8505000D02*
X13449400Y-8525000D01*
X13460000Y-8820000D02*
X13480000Y-8840000D01*
X13480000Y-8820000D02*
X13460000Y-8840000D01*
X13467100Y-8558500D02*
X13487100Y-8578500D01*
X13487100Y-8558500D02*
X13467100Y-8578500D01*
X13470000Y-10740000D02*
X13490000Y-10760000D01*
X13490000Y-10740000D02*
X13470000Y-10760000D01*
X13477100Y-8450000D02*
X13497100Y-8470000D01*
X13497100Y-8450000D02*
X13477100Y-8470000D01*
X13480000Y-9020000D02*
X13500000Y-9040000D01*
X13500000Y-9020000D02*
X13480000Y-9040000D01*
X13480000Y-11050000D02*
X13500000Y-11070000D01*
X13500000Y-11050000D02*
X13480000Y-11070000D01*
X13490000Y-9080000D02*
X13510000Y-9100000D01*
X13510000Y-9080000D02*
X13490000Y-9100000D01*
X13490000Y-10610000D02*
X13510000Y-10630000D01*
X13510000Y-10610000D02*
X13490000Y-10630000D01*
X13500000Y-8870000D02*
X13520000Y-8890000D01*
X13520000Y-8870000D02*
X13500000Y-8890000D01*
X13520000Y-8590000D02*
X13540000Y-8610000D01*
X13540000Y-8590000D02*
X13520000Y-8610000D01*
X13520000Y-8680000D02*
X13540000Y-8700000D01*
X13540000Y-8680000D02*
X13520000Y-8700000D01*
X13520000Y-10790000D02*
X13540000Y-10810000D01*
X13540000Y-10790000D02*
X13520000Y-10810000D01*
X13530000Y-8820000D02*
X13550000Y-8840000D01*
X13550000Y-8820000D02*
X13530000Y-8840000D01*
X13536000Y-8398300D02*
X13556000Y-8418300D01*
X13556000Y-8398300D02*
X13536000Y-8418300D01*
X13540000Y-9010000D02*
X13560000Y-9030000D01*
X13560000Y-9010000D02*
X13540000Y-9030000D01*
X13540000Y-9140000D02*
X13560000Y-9160000D01*
X13560000Y-9140000D02*
X13540000Y-9160000D01*
X13540000Y-10540000D02*
X13560000Y-10560000D01*
X13560000Y-10540000D02*
X13540000Y-10560000D01*
X13540000Y-10680000D02*
X13560000Y-10700000D01*
X13560000Y-10680000D02*
X13540000Y-10700000D01*
X13550000Y-11130000D02*
X13570000Y-11150000D01*
X13570000Y-11130000D02*
X13550000Y-11150000D01*
X13560000Y-8870000D02*
X13580000Y-8890000D01*
X13580000Y-8870000D02*
X13560000Y-8890000D01*
X13576800Y-8357800D02*
X13596800Y-8377800D01*
X13596800Y-8357800D02*
X13576800Y-8377800D01*
X13580000Y-8680000D02*
X13600000Y-8700000D01*
X13600000Y-8680000D02*
X13580000Y-8700000D01*
X13580000Y-10840000D02*
X13600000Y-10860000D01*
X13600000Y-10840000D02*
X13580000Y-10860000D01*
X13590000Y-8820000D02*
X13610000Y-8840000D01*
X13610000Y-8820000D02*
X13590000Y-8840000D01*
X13590000Y-9080000D02*
X13610000Y-9100000D01*
X13610000Y-9080000D02*
X13590000Y-9100000D01*
X13590000Y-10610000D02*
X13610000Y-10630000D01*
X13610000Y-10610000D02*
X13590000Y-10630000D01*
X13590000Y-10740000D02*
X13610000Y-10760000D01*
X13610000Y-10740000D02*
X13590000Y-10760000D01*
X13590000Y-10970000D02*
X13610000Y-10990000D01*
X13610000Y-10970000D02*
X13590000Y-10990000D01*
X13600000Y-9020000D02*
X13620000Y-9040000D01*
X13620000Y-9020000D02*
X13600000Y-9040000D01*
X13600100Y-8304500D02*
X13620100Y-8324500D01*
X13620100Y-8304500D02*
X13600100Y-8324500D01*
X13620000Y-8870000D02*
X13640000Y-8890000D01*
X13640000Y-8870000D02*
X13620000Y-8890000D01*
X13640000Y-9140000D02*
X13660000Y-9160000D01*
X13660000Y-9140000D02*
X13640000Y-9160000D01*
X13640000Y-10540000D02*
X13660000Y-10560000D01*
X13660000Y-10540000D02*
X13640000Y-10560000D01*
X13640000Y-10680000D02*
X13660000Y-10700000D01*
X13660000Y-10680000D02*
X13640000Y-10700000D01*
X13640000Y-10800000D02*
X13660000Y-10820000D01*
X13660000Y-10800000D02*
X13640000Y-10820000D01*
X13640000Y-11200000D02*
X13660000Y-11220000D01*
X13660000Y-11200000D02*
X13640000Y-11220000D01*
X13650000Y-8820000D02*
X13670000Y-8840000D01*
X13670000Y-8820000D02*
X13650000Y-8840000D01*
X13650000Y-11030000D02*
X13670000Y-11050000D01*
X13670000Y-11030000D02*
X13650000Y-11050000D01*
X13658800Y-8310300D02*
X13678800Y-8330300D01*
X13678800Y-8310300D02*
X13658800Y-8330300D01*
X13660000Y-9000000D02*
X13680000Y-9020000D01*
X13680000Y-9000000D02*
X13660000Y-9020000D01*
X13660600Y-8254500D02*
X13680600Y-8274500D01*
X13680600Y-8254500D02*
X13660600Y-8274500D01*
X13680000Y-8890000D02*
X13700000Y-8910000D01*
X13700000Y-8890000D02*
X13680000Y-8910000D01*
X13680000Y-10770000D02*
X13700000Y-10790000D01*
X13700000Y-10770000D02*
X13680000Y-10790000D01*
X13680000Y-10840000D02*
X13700000Y-10860000D01*
X13700000Y-10840000D02*
X13680000Y-10860000D01*
X13690000Y-9080000D02*
X13710000Y-9100000D01*
X13710000Y-9080000D02*
X13690000Y-9100000D01*
X13690000Y-10610000D02*
X13710000Y-10630000D01*
X13710000Y-10610000D02*
X13690000Y-10630000D01*
X13690000Y-10970000D02*
X13710000Y-10990000D01*
X13710000Y-10970000D02*
X13690000Y-10990000D01*
X13700000Y-10700000D02*
X13720000Y-10720000D01*
X13720000Y-10700000D02*
X13700000Y-10720000D01*
X13710000Y-8230000D02*
X13730000Y-8250000D01*
X13730000Y-8230000D02*
X13710000Y-8250000D01*
X13710000Y-8780000D02*
X13730000Y-8800000D01*
X13730000Y-8780000D02*
X13710000Y-8800000D01*
X13710000Y-8850000D02*
X13730000Y-8870000D01*
X13730000Y-8850000D02*
X13710000Y-8870000D01*
X13720000Y-9000000D02*
X13740000Y-9020000D01*
X13740000Y-9000000D02*
X13720000Y-9020000D01*
X13740000Y-9140000D02*
X13760000Y-9160000D01*
X13760000Y-9140000D02*
X13740000Y-9160000D01*
X13740000Y-10540000D02*
X13760000Y-10560000D01*
X13760000Y-10540000D02*
X13740000Y-10560000D01*
X13740000Y-11030000D02*
X13760000Y-11050000D01*
X13760000Y-11030000D02*
X13740000Y-11050000D01*
X13740000Y-11200000D02*
X13760000Y-11220000D01*
X13760000Y-11200000D02*
X13740000Y-11220000D01*
X13740000Y-11300000D02*
X13760000Y-11320000D01*
X13760000Y-11300000D02*
X13740000Y-11320000D01*
X13749400Y-8188100D02*
X13769400Y-8208100D01*
X13769400Y-8188100D02*
X13749400Y-8208100D01*
X13750000Y-10650000D02*
X13770000Y-10670000D01*
X13770000Y-10650000D02*
X13750000Y-10670000D01*
X13780000Y-10960000D02*
X13800000Y-10980000D01*
X13800000Y-10960000D02*
X13780000Y-10980000D01*
X13788836Y-8148100D02*
X13808836Y-8168100D01*
X13808836Y-8148100D02*
X13788836Y-8168100D01*
X13790000Y-9090000D02*
X13810000Y-9110000D01*
X13810000Y-9090000D02*
X13790000Y-9110000D01*
X13810000Y-10600000D02*
X13830000Y-10620000D01*
X13830000Y-10600000D02*
X13810000Y-10620000D01*
X13810000Y-11010000D02*
X13830000Y-11030000D01*
X13830000Y-11010000D02*
X13810000Y-11030000D01*
X13820000Y-8975000D02*
X13840000Y-8995000D01*
X13840000Y-8975000D02*
X13820000Y-8995000D01*
X13820000Y-10810000D02*
X13840000Y-10830000D01*
X13840000Y-10810000D02*
X13820000Y-10830000D01*
X13821000Y-8914000D02*
X13841000Y-8934000D01*
X13841000Y-8914000D02*
X13821000Y-8934000D01*
X13826400Y-8109100D02*
X13846400Y-8129100D01*
X13846400Y-8109100D02*
X13826400Y-8129100D01*
X13840000Y-9140000D02*
X13860000Y-9160000D01*
X13860000Y-9140000D02*
X13840000Y-9160000D01*
X13840000Y-9240000D02*
X13860000Y-9260000D01*
X13860000Y-9240000D02*
X13840000Y-9260000D01*
X13840000Y-9340000D02*
X13860000Y-9360000D01*
X13860000Y-9340000D02*
X13840000Y-9360000D01*
X13840000Y-9440000D02*
X13860000Y-9460000D01*
X13860000Y-9440000D02*
X13840000Y-9460000D01*
X13840000Y-9540000D02*
X13860000Y-9560000D01*
X13860000Y-9540000D02*
X13840000Y-9560000D01*
X13840000Y-9640000D02*
X13860000Y-9660000D01*
X13860000Y-9640000D02*
X13840000Y-9660000D01*
X13840000Y-9740000D02*
X13860000Y-9760000D01*
X13860000Y-9740000D02*
X13840000Y-9760000D01*
X13840000Y-9840000D02*
X13860000Y-9860000D01*
X13860000Y-9840000D02*
X13840000Y-9860000D01*
X13840000Y-9940000D02*
X13860000Y-9960000D01*
X13860000Y-9940000D02*
X13840000Y-9960000D01*
X13840000Y-10040000D02*
X13860000Y-10060000D01*
X13860000Y-10040000D02*
X13840000Y-10060000D01*
X13840000Y-10140000D02*
X13860000Y-10160000D01*
X13860000Y-10140000D02*
X13840000Y-10160000D01*
X13840000Y-10240000D02*
X13860000Y-10260000D01*
X13860000Y-10240000D02*
X13840000Y-10260000D01*
X13840000Y-10340000D02*
X13860000Y-10360000D01*
X13860000Y-10340000D02*
X13840000Y-10360000D01*
X13840000Y-10440000D02*
X13860000Y-10460000D01*
X13860000Y-10440000D02*
X13840000Y-10460000D01*
X13840000Y-10540000D02*
X13860000Y-10560000D01*
X13860000Y-10540000D02*
X13840000Y-10560000D01*
X13840000Y-11200000D02*
X13860000Y-11220000D01*
X13860000Y-11200000D02*
X13840000Y-11220000D01*
X13840000Y-11300000D02*
X13860000Y-11320000D01*
X13860000Y-11300000D02*
X13840000Y-11320000D01*
X13840000Y-11400000D02*
X13860000Y-11420000D01*
X13860000Y-11400000D02*
X13840000Y-11420000D01*
X13870000Y-8930000D02*
X13890000Y-8950000D01*
X13890000Y-8930000D02*
X13870000Y-8950000D01*
X13870000Y-10950000D02*
X13890000Y-10970000D01*
X13890000Y-10950000D02*
X13870000Y-10970000D01*
X13873900Y-8060600D02*
X13893900Y-8080600D01*
X13893900Y-8060600D02*
X13873900Y-8080600D01*
X13875200Y-10851100D02*
X13895200Y-10871100D01*
X13895200Y-10851100D02*
X13875200Y-10871100D01*
X13880000Y-10630000D02*
X13900000Y-10650000D01*
X13900000Y-10630000D02*
X13880000Y-10650000D01*
X13880000Y-10740000D02*
X13900000Y-10760000D01*
X13900000Y-10740000D02*
X13880000Y-10760000D01*
X13880000Y-11100000D02*
X13900000Y-11120000D01*
X13900000Y-11100000D02*
X13880000Y-11120000D01*
X13890000Y-9190000D02*
X13910000Y-9210000D01*
X13910000Y-9190000D02*
X13890000Y-9210000D01*
X13890000Y-9290000D02*
X13910000Y-9310000D01*
X13910000Y-9290000D02*
X13890000Y-9310000D01*
X13890000Y-9390000D02*
X13910000Y-9410000D01*
X13910000Y-9390000D02*
X13890000Y-9410000D01*
X13890000Y-9490000D02*
X13910000Y-9510000D01*
X13910000Y-9490000D02*
X13890000Y-9510000D01*
X13890000Y-9590000D02*
X13910000Y-9610000D01*
X13910000Y-9590000D02*
X13890000Y-9610000D01*
X13890000Y-9690000D02*
X13910000Y-9710000D01*
X13910000Y-9690000D02*
X13890000Y-9710000D01*
X13890000Y-9790000D02*
X13910000Y-9810000D01*
X13910000Y-9790000D02*
X13890000Y-9810000D01*
X13890000Y-9890000D02*
X13910000Y-9910000D01*
X13910000Y-9890000D02*
X13890000Y-9910000D01*
X13890000Y-9990000D02*
X13910000Y-10010000D01*
X13910000Y-9990000D02*
X13890000Y-10010000D01*
X13890000Y-10090000D02*
X13910000Y-10110000D01*
X13910000Y-10090000D02*
X13890000Y-10110000D01*
X13890000Y-10190000D02*
X13910000Y-10210000D01*
X13910000Y-10190000D02*
X13890000Y-10210000D01*
X13890000Y-10290000D02*
X13910000Y-10310000D01*
X13910000Y-10290000D02*
X13890000Y-10310000D01*
X13890000Y-10390000D02*
X13910000Y-10410000D01*
X13910000Y-10390000D02*
X13890000Y-10410000D01*
X13890000Y-10490000D02*
X13910000Y-10510000D01*
X13910000Y-10490000D02*
X13890000Y-10510000D01*
X13910000Y-10800000D02*
X13930000Y-10820000D01*
X13930000Y-10800000D02*
X13910000Y-10820000D01*
X13920000Y-9020000D02*
X13940000Y-9040000D01*
X13940000Y-9020000D02*
X13920000Y-9040000D01*
X13940000Y-9085000D02*
X13960000Y-9105000D01*
X13960000Y-9085000D02*
X13940000Y-9105000D01*
X13940000Y-9740000D02*
X13960000Y-9760000D01*
X13960000Y-9740000D02*
X13940000Y-9760000D01*
X13940000Y-9840000D02*
X13960000Y-9860000D01*
X13960000Y-9840000D02*
X13940000Y-9860000D01*
X13940000Y-9940000D02*
X13960000Y-9960000D01*
X13960000Y-9940000D02*
X13940000Y-9960000D01*
X13940000Y-10040000D02*
X13960000Y-10060000D01*
X13960000Y-10040000D02*
X13940000Y-10060000D01*
X13940000Y-10140000D02*
X13960000Y-10160000D01*
X13960000Y-10140000D02*
X13940000Y-10160000D01*
X13940000Y-10240000D02*
X13960000Y-10260000D01*
X13960000Y-10240000D02*
X13940000Y-10260000D01*
X13940000Y-10340000D02*
X13960000Y-10360000D01*
X13960000Y-10340000D02*
X13940000Y-10360000D01*
X13940000Y-10440000D02*
X13960000Y-10460000D01*
X13960000Y-10440000D02*
X13940000Y-10460000D01*
X13940000Y-10540000D02*
X13960000Y-10560000D01*
X13960000Y-10540000D02*
X13940000Y-10560000D01*
X13963100Y-7970900D02*
X13983100Y-7990900D01*
X13983100Y-7970900D02*
X13963100Y-7990900D01*
X13975800Y-9627100D02*
X13995800Y-9647100D01*
X13995800Y-9627100D02*
X13975800Y-9647100D01*
X13990000Y-9490000D02*
X14010000Y-9510000D01*
X14010000Y-9490000D02*
X13990000Y-9510000D01*
X13991400Y-9570200D02*
X14011400Y-9590200D01*
X14011400Y-9570200D02*
X13991400Y-9590200D01*
X14000000Y-10790000D02*
X14020000Y-10810000D01*
X14020000Y-10790000D02*
X14000000Y-10810000D01*
X14000000Y-10900000D02*
X14020000Y-10920000D01*
X14020000Y-10900000D02*
X14000000Y-10920000D01*
X14010000Y-10450000D02*
X14030000Y-10470000D01*
X14030000Y-10450000D02*
X14010000Y-10470000D01*
X14015000Y-9740000D02*
X14035000Y-9760000D01*
X14035000Y-9740000D02*
X14015000Y-9760000D01*
X14018352Y-7982452D02*
X14038352Y-8002452D01*
X14038352Y-7982452D02*
X14018352Y-8002452D01*
X14020000Y-9440000D02*
X14040000Y-9460000D01*
X14040000Y-9440000D02*
X14020000Y-9460000D01*
X14020000Y-9800000D02*
X14040000Y-9820000D01*
X14040000Y-9800000D02*
X14020000Y-9820000D01*
X14020000Y-9880000D02*
X14040000Y-9900000D01*
X14040000Y-9880000D02*
X14020000Y-9900000D01*
X14020400Y-9309600D02*
X14040400Y-9329600D01*
X14040400Y-9309600D02*
X14020400Y-9329600D01*
X14029600Y-8034100D02*
X14049600Y-8054100D01*
X14049600Y-8034100D02*
X14029600Y-8054100D01*
X14070000Y-9010000D02*
X14090000Y-9030000D01*
X14090000Y-9010000D02*
X14070000Y-9030000D01*
X14080000Y-9110000D02*
X14100000Y-9130000D01*
X14100000Y-9110000D02*
X14080000Y-9130000D01*
X14080000Y-10430000D02*
X14100000Y-10450000D01*
X14100000Y-10430000D02*
X14080000Y-10450000D01*
X14090000Y-8110000D02*
X14110000Y-8130000D01*
X14110000Y-8110000D02*
X14090000Y-8130000D01*
X14100000Y-8930000D02*
X14120000Y-8950000D01*
X14120000Y-8930000D02*
X14100000Y-8950000D01*
X14120000Y-9520000D02*
X14140000Y-9540000D01*
X14140000Y-9520000D02*
X14120000Y-9540000D01*
X14120000Y-9760000D02*
X14140000Y-9780000D01*
X14140000Y-9760000D02*
X14120000Y-9780000D01*
X14120000Y-9840000D02*
X14140000Y-9860000D01*
X14140000Y-9840000D02*
X14120000Y-9860000D01*
X14150000Y-8070000D02*
X14170000Y-8090000D01*
X14170000Y-8070000D02*
X14150000Y-8090000D01*
X14150000Y-10930000D02*
X14170000Y-10950000D01*
X14170000Y-10930000D02*
X14150000Y-10950000D01*
X14150000Y-11070000D02*
X14170000Y-11090000D01*
X14170000Y-11070000D02*
X14150000Y-11090000D01*
X14170000Y-8170000D02*
X14190000Y-8190000D01*
X14190000Y-8170000D02*
X14170000Y-8190000D01*
X14180000Y-8920000D02*
X14200000Y-8940000D01*
X14200000Y-8920000D02*
X14180000Y-8940000D01*
X14190000Y-8870000D02*
X14210000Y-8890000D01*
X14210000Y-8870000D02*
X14190000Y-8890000D01*
X14190000Y-11190000D02*
X14210000Y-11210000D01*
X14210000Y-11190000D02*
X14190000Y-11210000D01*
X14190000Y-11290000D02*
X14210000Y-11310000D01*
X14210000Y-11290000D02*
X14190000Y-11310000D01*
X14190000Y-11390000D02*
X14210000Y-11410000D01*
X14210000Y-11390000D02*
X14190000Y-11410000D01*
X14190000Y-11490000D02*
X14210000Y-11510000D01*
X14210000Y-11490000D02*
X14190000Y-11510000D01*
X14200000Y-9200000D02*
X14220000Y-9220000D01*
X14220000Y-9200000D02*
X14200000Y-9220000D01*
X14200000Y-9440000D02*
X14220000Y-9460000D01*
X14220000Y-9440000D02*
X14200000Y-9460000D01*
X14200000Y-9520000D02*
X14220000Y-9540000D01*
X14220000Y-9520000D02*
X14200000Y-9540000D01*
X14200000Y-9600000D02*
X14220000Y-9620000D01*
X14220000Y-9600000D02*
X14200000Y-9620000D01*
X14200000Y-9680000D02*
X14220000Y-9700000D01*
X14220000Y-9680000D02*
X14200000Y-9700000D01*
X14200000Y-9760000D02*
X14220000Y-9780000D01*
X14220000Y-9760000D02*
X14200000Y-9780000D01*
X14200000Y-9840000D02*
X14220000Y-9860000D01*
X14220000Y-9840000D02*
X14200000Y-9860000D01*
X14200000Y-10080000D02*
X14220000Y-10100000D01*
X14220000Y-10080000D02*
X14200000Y-10100000D01*
X14220000Y-8210000D02*
X14240000Y-8230000D01*
X14240000Y-8210000D02*
X14220000Y-8230000D01*
X14240000Y-9110000D02*
X14260000Y-9130000D01*
X14260000Y-9110000D02*
X14240000Y-9130000D01*
X14246053Y-10882738D02*
X14266053Y-10902738D01*
X14266053Y-10882738D02*
X14246053Y-10902738D01*
X14250000Y-8080000D02*
X14270000Y-8100000D01*
X14270000Y-8080000D02*
X14250000Y-8100000D01*
X14250000Y-8850000D02*
X14270000Y-8870000D01*
X14270000Y-8850000D02*
X14250000Y-8870000D01*
X14260000Y-8796569D02*
X14280000Y-8816569D01*
X14280000Y-8796569D02*
X14260000Y-8816569D01*
X14265000Y-10990000D02*
X14285000Y-11010000D01*
X14285000Y-10990000D02*
X14265000Y-11010000D01*
X14265000Y-11090000D02*
X14285000Y-11110000D01*
X14285000Y-11090000D02*
X14265000Y-11110000D01*
X14270000Y-8230000D02*
X14290000Y-8250000D01*
X14290000Y-8230000D02*
X14270000Y-8250000D01*
X14270993Y-11626439D02*
X14290993Y-11646439D01*
X14290993Y-11626439D02*
X14270993Y-11646439D01*
X14280000Y-9200000D02*
X14300000Y-9220000D01*
X14300000Y-9200000D02*
X14280000Y-9220000D01*
X14280000Y-9360000D02*
X14300000Y-9380000D01*
X14300000Y-9360000D02*
X14280000Y-9380000D01*
X14280000Y-9440000D02*
X14300000Y-9460000D01*
X14300000Y-9440000D02*
X14280000Y-9460000D01*
X14280000Y-9520000D02*
X14300000Y-9540000D01*
X14300000Y-9520000D02*
X14280000Y-9540000D01*
X14280000Y-9600000D02*
X14300000Y-9620000D01*
X14300000Y-9600000D02*
X14280000Y-9620000D01*
X14280000Y-10000000D02*
X14300000Y-10020000D01*
X14300000Y-10000000D02*
X14280000Y-10020000D01*
X14280000Y-10080000D02*
X14300000Y-10100000D01*
X14300000Y-10080000D02*
X14280000Y-10100000D01*
X14280000Y-10160000D02*
X14300000Y-10180000D01*
X14300000Y-10160000D02*
X14280000Y-10180000D01*
X14280000Y-10240000D02*
X14300000Y-10260000D01*
X14300000Y-10240000D02*
X14280000Y-10260000D01*
X14280000Y-10320000D02*
X14300000Y-10340000D01*
X14300000Y-10320000D02*
X14280000Y-10340000D01*
X14290000Y-8165000D02*
X14310000Y-8185000D01*
X14310000Y-8165000D02*
X14290000Y-8185000D01*
X14290000Y-11190000D02*
X14310000Y-11210000D01*
X14310000Y-11190000D02*
X14290000Y-11210000D01*
X14290000Y-11290000D02*
X14310000Y-11310000D01*
X14310000Y-11290000D02*
X14290000Y-11310000D01*
X14290000Y-11390000D02*
X14310000Y-11410000D01*
X14310000Y-11390000D02*
X14290000Y-11410000D01*
X14290000Y-11490000D02*
X14310000Y-11510000D01*
X14310000Y-11490000D02*
X14290000Y-11510000D01*
X14300000Y-10520000D02*
X14320000Y-10540000D01*
X14320000Y-10520000D02*
X14300000Y-10540000D01*
X14300000Y-10580000D02*
X14320000Y-10600000D01*
X14320000Y-10580000D02*
X14300000Y-10600000D01*
X14310000Y-8690000D02*
X14330000Y-8710000D01*
X14330000Y-8690000D02*
X14310000Y-8710000D01*
X14315000Y-11040000D02*
X14335000Y-11060000D01*
X14335000Y-11040000D02*
X14315000Y-11060000D01*
X14320000Y-7880000D02*
X14340000Y-7900000D01*
X14340000Y-7880000D02*
X14320000Y-7900000D01*
X14320000Y-8770000D02*
X14340000Y-8790000D01*
X14340000Y-8770000D02*
X14320000Y-8790000D01*
X14320000Y-9110000D02*
X14340000Y-9130000D01*
X14340000Y-9110000D02*
X14320000Y-9130000D01*
X14320000Y-10640000D02*
X14340000Y-10660000D01*
X14340000Y-10640000D02*
X14320000Y-10660000D01*
X14360000Y-8340000D02*
X14380000Y-8360000D01*
X14380000Y-8340000D02*
X14360000Y-8360000D01*
X14360000Y-8650000D02*
X14380000Y-8670000D01*
X14380000Y-8650000D02*
X14360000Y-8670000D01*
X14360000Y-9200000D02*
X14380000Y-9220000D01*
X14380000Y-9200000D02*
X14360000Y-9220000D01*
X14360000Y-9360000D02*
X14380000Y-9380000D01*
X14380000Y-9360000D02*
X14360000Y-9380000D01*
X14360000Y-9440000D02*
X14380000Y-9460000D01*
X14380000Y-9440000D02*
X14360000Y-9460000D01*
X14360000Y-9520000D02*
X14380000Y-9540000D01*
X14380000Y-9520000D02*
X14360000Y-9540000D01*
X14360000Y-9600000D02*
X14380000Y-9620000D01*
X14380000Y-9600000D02*
X14360000Y-9620000D01*
X14360000Y-9680000D02*
X14380000Y-9700000D01*
X14380000Y-9680000D02*
X14360000Y-9700000D01*
X14360000Y-9760000D02*
X14380000Y-9780000D01*
X14380000Y-9760000D02*
X14360000Y-9780000D01*
X14360000Y-9840000D02*
X14380000Y-9860000D01*
X14380000Y-9840000D02*
X14360000Y-9860000D01*
X14360000Y-9920000D02*
X14380000Y-9940000D01*
X14380000Y-9920000D02*
X14360000Y-9940000D01*
X14360000Y-10160000D02*
X14380000Y-10180000D01*
X14380000Y-10160000D02*
X14360000Y-10180000D01*
X14360000Y-10240000D02*
X14380000Y-10260000D01*
X14380000Y-10240000D02*
X14360000Y-10260000D01*
X14360000Y-10320000D02*
X14380000Y-10340000D01*
X14380000Y-10320000D02*
X14360000Y-10340000D01*
X14365000Y-10990000D02*
X14385000Y-11010000D01*
X14385000Y-10990000D02*
X14365000Y-11010000D01*
X14365000Y-11090000D02*
X14385000Y-11110000D01*
X14385000Y-11090000D02*
X14365000Y-11110000D01*
X14372500Y-10630000D02*
X14392500Y-10650000D01*
X14392500Y-10630000D02*
X14372500Y-10650000D01*
X14390000Y-7880000D02*
X14410000Y-7900000D01*
X14410000Y-7880000D02*
X14390000Y-7900000D01*
X14390000Y-11190000D02*
X14410000Y-11210000D01*
X14410000Y-11190000D02*
X14390000Y-11210000D01*
X14390000Y-11290000D02*
X14410000Y-11310000D01*
X14410000Y-11290000D02*
X14390000Y-11310000D01*
X14390000Y-11390000D02*
X14410000Y-11410000D01*
X14410000Y-11390000D02*
X14390000Y-11410000D01*
X14390000Y-11490000D02*
X14410000Y-11510000D01*
X14410000Y-11490000D02*
X14390000Y-11510000D01*
X14400000Y-9110000D02*
X14420000Y-9130000D01*
X14420000Y-9110000D02*
X14400000Y-9130000D01*
X14400000Y-10690000D02*
X14420000Y-10710000D01*
X14420000Y-10690000D02*
X14400000Y-10710000D01*
X14403941Y-8716059D02*
X14423941Y-8736059D01*
X14423941Y-8716059D02*
X14403941Y-8736059D01*
X14410000Y-8020000D02*
X14430000Y-8040000D01*
X14430000Y-8020000D02*
X14410000Y-8040000D01*
X14410000Y-8620000D02*
X14430000Y-8640000D01*
X14430000Y-8620000D02*
X14410000Y-8640000D01*
X14410000Y-8830000D02*
X14430000Y-8850000D01*
X14430000Y-8830000D02*
X14410000Y-8850000D01*
X14415000Y-11040000D02*
X14435000Y-11060000D01*
X14435000Y-11040000D02*
X14415000Y-11060000D01*
X14430000Y-10730000D02*
X14450000Y-10750000D01*
X14450000Y-10730000D02*
X14430000Y-10750000D01*
X14432000Y-8450000D02*
X14452000Y-8470000D01*
X14452000Y-8450000D02*
X14432000Y-8470000D01*
X14440000Y-9360000D02*
X14460000Y-9380000D01*
X14460000Y-9360000D02*
X14440000Y-9380000D01*
X14440000Y-9440000D02*
X14460000Y-9460000D01*
X14460000Y-9440000D02*
X14440000Y-9460000D01*
X14440000Y-10000000D02*
X14460000Y-10020000D01*
X14460000Y-10000000D02*
X14440000Y-10020000D01*
X14440000Y-10080000D02*
X14460000Y-10100000D01*
X14460000Y-10080000D02*
X14440000Y-10100000D01*
X14440000Y-10160000D02*
X14460000Y-10180000D01*
X14460000Y-10160000D02*
X14440000Y-10180000D01*
X14444000Y-11611000D02*
X14464000Y-11631000D01*
X14464000Y-11611000D02*
X14444000Y-11631000D01*
X14460000Y-8790000D02*
X14480000Y-8810000D01*
X14480000Y-8790000D02*
X14460000Y-8810000D01*
X14460000Y-10690000D02*
X14480000Y-10710000D01*
X14480000Y-10690000D02*
X14460000Y-10710000D01*
X14465000Y-10990000D02*
X14485000Y-11010000D01*
X14485000Y-10990000D02*
X14465000Y-11010000D01*
X14465000Y-11090000D02*
X14485000Y-11110000D01*
X14485000Y-11090000D02*
X14465000Y-11110000D01*
X14479000Y-8742000D02*
X14499000Y-8762000D01*
X14499000Y-8742000D02*
X14479000Y-8762000D01*
X14480000Y-8390000D02*
X14500000Y-8410000D01*
X14500000Y-8390000D02*
X14480000Y-8410000D01*
X14481000Y-8634000D02*
X14501000Y-8654000D01*
X14501000Y-8634000D02*
X14481000Y-8654000D01*
X14490000Y-8690000D02*
X14510000Y-8710000D01*
X14510000Y-8690000D02*
X14490000Y-8710000D01*
X14490000Y-11290000D02*
X14510000Y-11310000D01*
X14510000Y-11290000D02*
X14490000Y-11310000D01*
X14490000Y-11390000D02*
X14510000Y-11410000D01*
X14510000Y-11390000D02*
X14490000Y-11410000D01*
X14490000Y-11490000D02*
X14510000Y-11510000D01*
X14510000Y-11490000D02*
X14490000Y-11510000D01*
X14500000Y-8520000D02*
X14520000Y-8540000D01*
X14520000Y-8520000D02*
X14500000Y-8540000D01*
X14520000Y-9360000D02*
X14540000Y-9380000D01*
X14540000Y-9360000D02*
X14520000Y-9380000D01*
X14520000Y-9440000D02*
X14540000Y-9460000D01*
X14540000Y-9440000D02*
X14520000Y-9460000D01*
X14520000Y-10000000D02*
X14540000Y-10020000D01*
X14540000Y-10000000D02*
X14520000Y-10020000D01*
X14520000Y-10080000D02*
X14540000Y-10100000D01*
X14540000Y-10080000D02*
X14520000Y-10100000D01*
X14520000Y-10690000D02*
X14540000Y-10710000D01*
X14540000Y-10690000D02*
X14520000Y-10710000D01*
X14530000Y-8230000D02*
X14550000Y-8250000D01*
X14550000Y-8230000D02*
X14530000Y-8250000D01*
X14530000Y-8940000D02*
X14550000Y-8960000D01*
X14550000Y-8940000D02*
X14530000Y-8960000D01*
X14540000Y-9620000D02*
X14560000Y-9640000D01*
X14560000Y-9620000D02*
X14540000Y-9640000D01*
X14540000Y-9670000D02*
X14560000Y-9690000D01*
X14560000Y-9670000D02*
X14540000Y-9690000D01*
X14540000Y-9720000D02*
X14560000Y-9740000D01*
X14560000Y-9720000D02*
X14540000Y-9740000D01*
X14540000Y-9770000D02*
X14560000Y-9790000D01*
X14560000Y-9770000D02*
X14540000Y-9790000D01*
X14540000Y-9820000D02*
X14560000Y-9840000D01*
X14560000Y-9820000D02*
X14540000Y-9840000D01*
X14550000Y-7890000D02*
X14570000Y-7910000D01*
X14570000Y-7890000D02*
X14550000Y-7910000D01*
X14550000Y-7990000D02*
X14570000Y-8010000D01*
X14570000Y-7990000D02*
X14550000Y-8010000D01*
X14550000Y-8060000D02*
X14570000Y-8080000D01*
X14570000Y-8060000D02*
X14550000Y-8080000D01*
X14550000Y-10730000D02*
X14570000Y-10750000D01*
X14570000Y-10730000D02*
X14550000Y-10750000D01*
X14570000Y-8390000D02*
X14590000Y-8410000D01*
X14590000Y-8390000D02*
X14570000Y-8410000D01*
X14580000Y-10690000D02*
X14600000Y-10710000D01*
X14600000Y-10690000D02*
X14580000Y-10710000D01*
X14590000Y-8940000D02*
X14610000Y-8960000D01*
X14610000Y-8940000D02*
X14590000Y-8960000D01*
X14590000Y-9620000D02*
X14610000Y-9640000D01*
X14610000Y-9620000D02*
X14590000Y-9640000D01*
X14590000Y-9670000D02*
X14610000Y-9690000D01*
X14610000Y-9670000D02*
X14590000Y-9690000D01*
X14590000Y-9720000D02*
X14610000Y-9740000D01*
X14610000Y-9720000D02*
X14590000Y-9740000D01*
X14590000Y-9770000D02*
X14610000Y-9790000D01*
X14610000Y-9770000D02*
X14590000Y-9790000D01*
X14590000Y-9820000D02*
X14610000Y-9840000D01*
X14610000Y-9820000D02*
X14590000Y-9840000D01*
X14590000Y-11490000D02*
X14610000Y-11510000D01*
X14610000Y-11490000D02*
X14590000Y-11510000D01*
X14600000Y-8200000D02*
X14620000Y-8220000D01*
X14620000Y-8200000D02*
X14600000Y-8220000D01*
X14600000Y-8450000D02*
X14620000Y-8470000D01*
X14620000Y-8450000D02*
X14600000Y-8470000D01*
X14600000Y-9280000D02*
X14620000Y-9300000D01*
X14620000Y-9280000D02*
X14600000Y-9300000D01*
X14600000Y-9360000D02*
X14620000Y-9380000D01*
X14620000Y-9360000D02*
X14600000Y-9380000D01*
X14600000Y-9440000D02*
X14620000Y-9460000D01*
X14620000Y-9440000D02*
X14600000Y-9460000D01*
X14600000Y-9920000D02*
X14620000Y-9940000D01*
X14620000Y-9920000D02*
X14600000Y-9940000D01*
X14600000Y-10160000D02*
X14620000Y-10180000D01*
X14620000Y-10160000D02*
X14600000Y-10180000D01*
X14607500Y-10637500D02*
X14627500Y-10657500D01*
X14627500Y-10637500D02*
X14607500Y-10657500D01*
X14610000Y-8350000D02*
X14630000Y-8370000D01*
X14630000Y-8350000D02*
X14610000Y-8370000D01*
X14630000Y-8500000D02*
X14650000Y-8520000D01*
X14650000Y-8500000D02*
X14630000Y-8520000D01*
X14630000Y-10890000D02*
X14650000Y-10910000D01*
X14650000Y-10890000D02*
X14630000Y-10910000D01*
X14630000Y-11180000D02*
X14650000Y-11200000D01*
X14650000Y-11180000D02*
X14630000Y-11200000D01*
X14630000Y-11250000D02*
X14650000Y-11270000D01*
X14650000Y-11250000D02*
X14630000Y-11270000D01*
X14634000Y-11610000D02*
X14654000Y-11630000D01*
X14654000Y-11610000D02*
X14634000Y-11630000D01*
X14637200Y-10686400D02*
X14657200Y-10706400D01*
X14657200Y-10686400D02*
X14637200Y-10706400D01*
X14640000Y-9620000D02*
X14660000Y-9640000D01*
X14660000Y-9620000D02*
X14640000Y-9640000D01*
X14640000Y-9670000D02*
X14660000Y-9690000D01*
X14660000Y-9670000D02*
X14640000Y-9690000D01*
X14640000Y-9720000D02*
X14660000Y-9740000D01*
X14660000Y-9720000D02*
X14640000Y-9740000D01*
X14640000Y-9770000D02*
X14660000Y-9790000D01*
X14660000Y-9770000D02*
X14640000Y-9790000D01*
X14640000Y-9820000D02*
X14660000Y-9840000D01*
X14660000Y-9820000D02*
X14640000Y-9840000D01*
X14649850Y-8940000D02*
X14669850Y-8960000D01*
X14669850Y-8940000D02*
X14649850Y-8960000D01*
X14660000Y-8150000D02*
X14680000Y-8170000D01*
X14680000Y-8150000D02*
X14660000Y-8170000D01*
X14660000Y-8200000D02*
X14680000Y-8220000D01*
X14680000Y-8200000D02*
X14660000Y-8220000D01*
X14680000Y-9200000D02*
X14700000Y-9220000D01*
X14700000Y-9200000D02*
X14680000Y-9220000D01*
X14680000Y-9280000D02*
X14700000Y-9300000D01*
X14700000Y-9280000D02*
X14680000Y-9300000D01*
X14680000Y-9360000D02*
X14700000Y-9380000D01*
X14700000Y-9360000D02*
X14680000Y-9380000D01*
X14680000Y-9440000D02*
X14700000Y-9460000D01*
X14700000Y-9440000D02*
X14680000Y-9460000D01*
X14680000Y-10000000D02*
X14700000Y-10020000D01*
X14700000Y-10000000D02*
X14680000Y-10020000D01*
X14680000Y-10160000D02*
X14700000Y-10180000D01*
X14700000Y-10160000D02*
X14680000Y-10180000D01*
X14680000Y-10240000D02*
X14700000Y-10260000D01*
X14700000Y-10240000D02*
X14680000Y-10260000D01*
X14680000Y-11310000D02*
X14700000Y-11330000D01*
X14700000Y-11310000D02*
X14680000Y-11330000D01*
X14690000Y-8340000D02*
X14710000Y-8360000D01*
X14710000Y-8340000D02*
X14690000Y-8360000D01*
X14690000Y-9620000D02*
X14710000Y-9640000D01*
X14710000Y-9620000D02*
X14690000Y-9640000D01*
X14690000Y-9670000D02*
X14710000Y-9690000D01*
X14710000Y-9670000D02*
X14690000Y-9690000D01*
X14690000Y-9720000D02*
X14710000Y-9740000D01*
X14710000Y-9720000D02*
X14690000Y-9740000D01*
X14690000Y-9770000D02*
X14710000Y-9790000D01*
X14710000Y-9770000D02*
X14690000Y-9790000D01*
X14690000Y-9820000D02*
X14710000Y-9840000D01*
X14710000Y-9820000D02*
X14690000Y-9840000D01*
X14690000Y-10860000D02*
X14710000Y-10880000D01*
X14710000Y-10860000D02*
X14690000Y-10880000D01*
X14710000Y-8940000D02*
X14730000Y-8960000D01*
X14730000Y-8940000D02*
X14710000Y-8960000D01*
X14720000Y-8890000D02*
X14740000Y-8910000D01*
X14740000Y-8890000D02*
X14720000Y-8910000D01*
X14722000Y-10510000D02*
X14742000Y-10530000D01*
X14742000Y-10510000D02*
X14722000Y-10530000D01*
X14722000Y-10610000D02*
X14742000Y-10630000D01*
X14742000Y-10610000D02*
X14722000Y-10630000D01*
X14736000Y-11680000D02*
X14756000Y-11700000D01*
X14756000Y-11680000D02*
X14736000Y-11700000D01*
X14740000Y-9620000D02*
X14760000Y-9640000D01*
X14760000Y-9620000D02*
X14740000Y-9640000D01*
X14740000Y-9670000D02*
X14760000Y-9690000D01*
X14760000Y-9670000D02*
X14740000Y-9690000D01*
X14740000Y-9720000D02*
X14760000Y-9740000D01*
X14760000Y-9720000D02*
X14740000Y-9740000D01*
X14740000Y-9770000D02*
X14760000Y-9790000D01*
X14760000Y-9770000D02*
X14740000Y-9790000D01*
X14740000Y-9820000D02*
X14760000Y-9840000D01*
X14760000Y-9820000D02*
X14740000Y-9840000D01*
X14750000Y-8060000D02*
X14770000Y-8080000D01*
X14770000Y-8060000D02*
X14750000Y-8080000D01*
X14760000Y-8150000D02*
X14780000Y-8170000D01*
X14780000Y-8150000D02*
X14760000Y-8170000D01*
X14760000Y-9280000D02*
X14780000Y-9300000D01*
X14780000Y-9280000D02*
X14760000Y-9300000D01*
X14760000Y-9360000D02*
X14780000Y-9380000D01*
X14780000Y-9360000D02*
X14760000Y-9380000D01*
X14760000Y-9440000D02*
X14780000Y-9460000D01*
X14780000Y-9440000D02*
X14760000Y-9460000D01*
X14760000Y-10000000D02*
X14780000Y-10020000D01*
X14780000Y-10000000D02*
X14760000Y-10020000D01*
X14760000Y-10080000D02*
X14780000Y-10100000D01*
X14780000Y-10080000D02*
X14760000Y-10100000D01*
X14770000Y-8928000D02*
X14790000Y-8948000D01*
X14790000Y-8928000D02*
X14770000Y-8948000D01*
X14780000Y-8330000D02*
X14800000Y-8350000D01*
X14800000Y-8330000D02*
X14780000Y-8350000D01*
X14785800Y-8438600D02*
X14805800Y-8458600D01*
X14805800Y-8438600D02*
X14785800Y-8458600D01*
X14786609Y-11398164D02*
X14806609Y-11418164D01*
X14806609Y-11398164D02*
X14786609Y-11418164D01*
X14790000Y-10730000D02*
X14810000Y-10750000D01*
X14810000Y-10730000D02*
X14790000Y-10750000D01*
X14797000Y-8516000D02*
X14817000Y-8536000D01*
X14817000Y-8516000D02*
X14797000Y-8536000D01*
X14800000Y-8110000D02*
X14820000Y-8130000D01*
X14820000Y-8110000D02*
X14800000Y-8130000D01*
X14800000Y-9110000D02*
X14820000Y-9130000D01*
X14820000Y-9110000D02*
X14800000Y-9130000D01*
X14810000Y-11735000D02*
X14830000Y-11755000D01*
X14830000Y-11735000D02*
X14810000Y-11755000D01*
X14820000Y-8880000D02*
X14840000Y-8900000D01*
X14840000Y-8880000D02*
X14820000Y-8900000D01*
X14830000Y-8670000D02*
X14850000Y-8690000D01*
X14850000Y-8670000D02*
X14830000Y-8690000D01*
X14830000Y-10330000D02*
X14850000Y-10350000D01*
X14850000Y-10330000D02*
X14830000Y-10350000D01*
X14840000Y-8550000D02*
X14860000Y-8570000D01*
X14860000Y-8550000D02*
X14840000Y-8570000D01*
X14840000Y-8730000D02*
X14860000Y-8750000D01*
X14860000Y-8730000D02*
X14840000Y-8750000D01*
X14840000Y-8830000D02*
X14860000Y-8850000D01*
X14860000Y-8830000D02*
X14840000Y-8850000D01*
X14840000Y-9280000D02*
X14860000Y-9300000D01*
X14860000Y-9280000D02*
X14840000Y-9300000D01*
X14840000Y-9360000D02*
X14860000Y-9380000D01*
X14860000Y-9360000D02*
X14840000Y-9380000D01*
X14840000Y-9440000D02*
X14860000Y-9460000D01*
X14860000Y-9440000D02*
X14840000Y-9460000D01*
X14840000Y-10000000D02*
X14860000Y-10020000D01*
X14860000Y-10000000D02*
X14840000Y-10020000D01*
X14840000Y-10080000D02*
X14860000Y-10100000D01*
X14860000Y-10080000D02*
X14840000Y-10100000D01*
X14840000Y-10160000D02*
X14860000Y-10180000D01*
X14860000Y-10160000D02*
X14840000Y-10180000D01*
X14840000Y-10240000D02*
X14860000Y-10260000D01*
X14860000Y-10240000D02*
X14840000Y-10260000D01*
X14850000Y-8060000D02*
X14870000Y-8080000D01*
X14870000Y-8060000D02*
X14850000Y-8080000D01*
X14850000Y-8160000D02*
X14870000Y-8180000D01*
X14870000Y-8160000D02*
X14850000Y-8180000D01*
X14860000Y-8780000D02*
X14880000Y-8800000D01*
X14880000Y-8780000D02*
X14860000Y-8800000D01*
X14870000Y-11580000D02*
X14890000Y-11600000D01*
X14890000Y-11580000D02*
X14870000Y-11600000D01*
X14880000Y-11340000D02*
X14900000Y-11360000D01*
X14900000Y-11340000D02*
X14880000Y-11360000D01*
X14920000Y-9280000D02*
X14940000Y-9300000D01*
X14940000Y-9280000D02*
X14920000Y-9300000D01*
X14920000Y-9360000D02*
X14940000Y-9380000D01*
X14940000Y-9360000D02*
X14920000Y-9380000D01*
X14920000Y-9440000D02*
X14940000Y-9460000D01*
X14940000Y-9440000D02*
X14920000Y-9460000D01*
X14920000Y-9520000D02*
X14940000Y-9540000D01*
X14940000Y-9520000D02*
X14920000Y-9540000D01*
X14920000Y-9600000D02*
X14940000Y-9620000D01*
X14940000Y-9600000D02*
X14920000Y-9620000D01*
X14920000Y-9680000D02*
X14940000Y-9700000D01*
X14940000Y-9680000D02*
X14920000Y-9700000D01*
X14920000Y-9760000D02*
X14940000Y-9780000D01*
X14940000Y-9760000D02*
X14920000Y-9780000D01*
X14920000Y-9840000D02*
X14940000Y-9860000D01*
X14940000Y-9840000D02*
X14920000Y-9860000D01*
X14920000Y-10000000D02*
X14940000Y-10020000D01*
X14940000Y-10000000D02*
X14920000Y-10020000D01*
X14920000Y-10160000D02*
X14940000Y-10180000D01*
X14940000Y-10160000D02*
X14920000Y-10180000D01*
X14920000Y-11230000D02*
X14940000Y-11250000D01*
X14940000Y-11230000D02*
X14920000Y-11250000D01*
X14920000Y-11450000D02*
X14940000Y-11470000D01*
X14940000Y-11450000D02*
X14920000Y-11470000D01*
X14921250Y-9921250D02*
X14941250Y-9941250D01*
X14941250Y-9921250D02*
X14921250Y-9941250D01*
X14950000Y-8060000D02*
X14970000Y-8080000D01*
X14970000Y-8060000D02*
X14950000Y-8080000D01*
X14950000Y-8160000D02*
X14970000Y-8180000D01*
X14970000Y-8160000D02*
X14950000Y-8180000D01*
X14950000Y-11670000D02*
X14970000Y-11690000D01*
X14970000Y-11670000D02*
X14950000Y-11690000D01*
X14970000Y-10380000D02*
X14990000Y-10400000D01*
X14990000Y-10380000D02*
X14970000Y-10400000D01*
X14980000Y-10460000D02*
X15000000Y-10480000D01*
X15000000Y-10460000D02*
X14980000Y-10480000D01*
X15000000Y-9360000D02*
X15020000Y-9380000D01*
X15020000Y-9360000D02*
X15000000Y-9380000D01*
X15000000Y-9440000D02*
X15020000Y-9460000D01*
X15020000Y-9440000D02*
X15000000Y-9460000D01*
X15000000Y-9520000D02*
X15020000Y-9540000D01*
X15020000Y-9520000D02*
X15000000Y-9540000D01*
X15000000Y-9600000D02*
X15020000Y-9620000D01*
X15020000Y-9600000D02*
X15000000Y-9620000D01*
X15000000Y-9760000D02*
X15020000Y-9780000D01*
X15020000Y-9760000D02*
X15000000Y-9780000D01*
X15000000Y-10080000D02*
X15020000Y-10100000D01*
X15020000Y-10080000D02*
X15000000Y-10100000D01*
X15025000Y-11590000D02*
X15045000Y-11610000D01*
X15045000Y-11590000D02*
X15025000Y-11610000D01*
X15025000Y-11710000D02*
X15045000Y-11730000D01*
X15045000Y-11710000D02*
X15025000Y-11730000D01*
X15030000Y-9080000D02*
X15050000Y-9100000D01*
X15050000Y-9080000D02*
X15030000Y-9100000D01*
X15030000Y-10680000D02*
X15050000Y-10700000D01*
X15050000Y-10680000D02*
X15030000Y-10700000D01*
X15030000Y-10790000D02*
X15050000Y-10810000D01*
X15050000Y-10790000D02*
X15030000Y-10810000D01*
X15030000Y-10900000D02*
X15050000Y-10920000D01*
X15050000Y-10900000D02*
X15030000Y-10920000D01*
X15040000Y-11060000D02*
X15060000Y-11080000D01*
X15060000Y-11060000D02*
X15040000Y-11080000D01*
X15048000Y-7892000D02*
X15068000Y-7912000D01*
X15068000Y-7892000D02*
X15048000Y-7912000D01*
X15048100Y-11333000D02*
X15068100Y-11353000D01*
X15068100Y-11333000D02*
X15048100Y-11353000D01*
X15050000Y-8060000D02*
X15070000Y-8080000D01*
X15070000Y-8060000D02*
X15050000Y-8080000D01*
X15050000Y-8260000D02*
X15070000Y-8280000D01*
X15070000Y-8260000D02*
X15050000Y-8280000D01*
X15050000Y-8360000D02*
X15070000Y-8380000D01*
X15070000Y-8360000D02*
X15050000Y-8380000D01*
X15060000Y-11010000D02*
X15080000Y-11030000D01*
X15080000Y-11010000D02*
X15060000Y-11030000D01*
X15080000Y-9520000D02*
X15100000Y-9540000D01*
X15100000Y-9520000D02*
X15080000Y-9540000D01*
X15080000Y-9600000D02*
X15100000Y-9620000D01*
X15100000Y-9600000D02*
X15080000Y-9620000D01*
X15080000Y-9680000D02*
X15100000Y-9700000D01*
X15100000Y-9680000D02*
X15080000Y-9700000D01*
X15080000Y-9760000D02*
X15100000Y-9780000D01*
X15100000Y-9760000D02*
X15080000Y-9780000D01*
X15080000Y-9920000D02*
X15100000Y-9940000D01*
X15100000Y-9920000D02*
X15080000Y-9940000D01*
X15080000Y-10000000D02*
X15100000Y-10020000D01*
X15100000Y-10000000D02*
X15080000Y-10020000D01*
X15080000Y-10080000D02*
X15100000Y-10100000D01*
X15100000Y-10080000D02*
X15080000Y-10100000D01*
X15080000Y-10240000D02*
X15100000Y-10260000D01*
X15100000Y-10240000D02*
X15080000Y-10260000D01*
X15080000Y-11436000D02*
X15100000Y-11456000D01*
X15100000Y-11436000D02*
X15080000Y-11456000D01*
X15100000Y-8110000D02*
X15120000Y-8130000D01*
X15120000Y-8110000D02*
X15100000Y-8130000D01*
X15100000Y-8210000D02*
X15120000Y-8230000D01*
X15120000Y-8210000D02*
X15100000Y-8230000D01*
X15130000Y-10440000D02*
X15150000Y-10460000D01*
X15150000Y-10440000D02*
X15130000Y-10460000D01*
X15140000Y-11290000D02*
X15160000Y-11310000D01*
X15160000Y-11290000D02*
X15140000Y-11310000D01*
X15149000Y-10670000D02*
X15169000Y-10690000D01*
X15169000Y-10670000D02*
X15149000Y-10690000D01*
X15150000Y-7960000D02*
X15170000Y-7980000D01*
X15170000Y-7960000D02*
X15150000Y-7980000D01*
X15150000Y-8160000D02*
X15170000Y-8180000D01*
X15170000Y-8160000D02*
X15150000Y-8180000D01*
X15150000Y-8260000D02*
X15170000Y-8280000D01*
X15170000Y-8260000D02*
X15150000Y-8280000D01*
X15150000Y-8360000D02*
X15170000Y-8380000D01*
X15170000Y-8360000D02*
X15150000Y-8380000D01*
X15150000Y-11160000D02*
X15170000Y-11180000D01*
X15170000Y-11160000D02*
X15150000Y-11180000D01*
X15150000Y-11380000D02*
X15170000Y-11400000D01*
X15170000Y-11380000D02*
X15150000Y-11400000D01*
X15160000Y-9680000D02*
X15180000Y-9700000D01*
X15180000Y-9680000D02*
X15160000Y-9700000D01*
X15160000Y-10080000D02*
X15180000Y-10100000D01*
X15180000Y-10080000D02*
X15160000Y-10100000D01*
X15160000Y-10240000D02*
X15180000Y-10260000D01*
X15180000Y-10240000D02*
X15160000Y-10260000D01*
X15180000Y-10940000D02*
X15200000Y-10960000D01*
X15200000Y-10940000D02*
X15180000Y-10960000D01*
X15194300Y-11315000D02*
X15214300Y-11335000D01*
X15214300Y-11315000D02*
X15194300Y-11335000D01*
X15200000Y-10480000D02*
X15220000Y-10500000D01*
X15220000Y-10480000D02*
X15200000Y-10500000D01*
X15210000Y-11150000D02*
X15230000Y-11170000D01*
X15230000Y-11150000D02*
X15210000Y-11170000D01*
X15230000Y-10420000D02*
X15250000Y-10440000D01*
X15250000Y-10420000D02*
X15230000Y-10440000D01*
X15240000Y-9440000D02*
X15260000Y-9460000D01*
X15260000Y-9440000D02*
X15240000Y-9460000D01*
X15240000Y-10000000D02*
X15260000Y-10020000D01*
X15260000Y-10000000D02*
X15240000Y-10020000D01*
X15241000Y-9919000D02*
X15261000Y-9939000D01*
X15261000Y-9919000D02*
X15241000Y-9939000D01*
X15248000Y-10570000D02*
X15268000Y-10590000D01*
X15268000Y-10570000D02*
X15248000Y-10590000D01*
X15250000Y-7960000D02*
X15270000Y-7980000D01*
X15270000Y-7960000D02*
X15250000Y-7980000D01*
X15250000Y-10280000D02*
X15270000Y-10300000D01*
X15270000Y-10280000D02*
X15250000Y-10300000D01*
X15251000Y-10670000D02*
X15271000Y-10690000D01*
X15271000Y-10670000D02*
X15251000Y-10690000D01*
X15285100Y-9952600D02*
X15305100Y-9972600D01*
X15305100Y-9952600D02*
X15285100Y-9972600D01*
X15290000Y-9070000D02*
X15310000Y-9090000D01*
X15310000Y-9070000D02*
X15290000Y-9090000D01*
X15290000Y-9460000D02*
X15310000Y-9480000D01*
X15310000Y-9460000D02*
X15290000Y-9480000D01*
X15300000Y-9510000D02*
X15320000Y-9530000D01*
X15320000Y-9510000D02*
X15300000Y-9530000D01*
X15300000Y-10770000D02*
X15320000Y-10790000D01*
X15320000Y-10770000D02*
X15300000Y-10790000D01*
X15310000Y-10720000D02*
X15330000Y-10740000D01*
X15330000Y-10720000D02*
X15310000Y-10740000D01*
X15330000Y-11240000D02*
X15350000Y-11260000D01*
X15350000Y-11240000D02*
X15330000Y-11260000D01*
X15330000Y-11340000D02*
X15350000Y-11360000D01*
X15350000Y-11340000D02*
X15330000Y-11360000D01*
X15337500Y-9950000D02*
X15357500Y-9970000D01*
X15357500Y-9950000D02*
X15337500Y-9970000D01*
X15359200Y-11033800D02*
X15379200Y-11053800D01*
X15379200Y-11033800D02*
X15359200Y-11053800D01*
X15361200Y-9899100D02*
X15381200Y-9919100D01*
X15381200Y-9899100D02*
X15361200Y-9919100D01*
X15370000Y-8058000D02*
X15390000Y-8078000D01*
X15390000Y-8058000D02*
X15370000Y-8078000D01*
X15380000Y-11290000D02*
X15400000Y-11310000D01*
X15400000Y-11290000D02*
X15380000Y-11310000D01*
X15380000Y-11520000D02*
X15400000Y-11540000D01*
X15400000Y-11520000D02*
X15380000Y-11540000D01*
X15400000Y-9120000D02*
X15420000Y-9140000D01*
X15420000Y-9120000D02*
X15400000Y-9140000D01*
X15405000Y-9460000D02*
X15425000Y-9480000D01*
X15425000Y-9460000D02*
X15405000Y-9480000D01*
X15412000Y-9580000D02*
X15432000Y-9600000D01*
X15432000Y-9580000D02*
X15412000Y-9600000D01*
X15420000Y-9752500D02*
X15440000Y-9772500D01*
X15440000Y-9752500D02*
X15420000Y-9772500D01*
X15420000Y-9807500D02*
X15440000Y-9827500D01*
X15440000Y-9807500D02*
X15420000Y-9827500D01*
X15430000Y-11240000D02*
X15450000Y-11260000D01*
X15450000Y-11240000D02*
X15430000Y-11260000D01*
X15430000Y-11340000D02*
X15450000Y-11360000D01*
X15450000Y-11340000D02*
X15430000Y-11360000D01*
X15440000Y-8250000D02*
X15460000Y-8270000D01*
X15460000Y-8250000D02*
X15440000Y-8270000D01*
X15455000Y-11060000D02*
X15475000Y-11080000D01*
X15475000Y-11060000D02*
X15455000Y-11080000D01*
X15460000Y-11540000D02*
X15480000Y-11560000D01*
X15480000Y-11540000D02*
X15460000Y-11560000D01*
X15462200Y-9147200D02*
X15482200Y-9167200D01*
X15482200Y-9147200D02*
X15462200Y-9167200D01*
X15469500Y-9786500D02*
X15489500Y-9806500D01*
X15489500Y-9786500D02*
X15469500Y-9806500D01*
X15480000Y-8290000D02*
X15500000Y-8310000D01*
X15500000Y-8290000D02*
X15480000Y-8310000D01*
X15490554Y-9739446D02*
X15510554Y-9759446D01*
X15510554Y-9739446D02*
X15490554Y-9759446D01*
X15500000Y-9320000D02*
X15520000Y-9340000D01*
X15520000Y-9320000D02*
X15500000Y-9340000D01*
X15510000Y-9120000D02*
X15530000Y-9140000D01*
X15530000Y-9120000D02*
X15510000Y-9140000D01*
X15529445Y-9700555D02*
X15549445Y-9720555D01*
X15549445Y-9700555D02*
X15529445Y-9720555D01*
X15530000Y-11060000D02*
X15550000Y-11080000D01*
X15550000Y-11060000D02*
X15530000Y-11080000D01*
X15530000Y-11440000D02*
X15550000Y-11460000D01*
X15550000Y-11440000D02*
X15530000Y-11460000D01*
X15531000Y-9648700D02*
X15551000Y-9668700D01*
X15551000Y-9648700D02*
X15531000Y-9668700D01*
X15533000Y-7962000D02*
X15553000Y-7982000D01*
X15553000Y-7962000D02*
X15533000Y-7982000D01*
X15540000Y-8060000D02*
X15560000Y-8080000D01*
X15560000Y-8060000D02*
X15540000Y-8080000D01*
X15540000Y-10950000D02*
X15560000Y-10970000D01*
X15560000Y-10950000D02*
X15540000Y-10970000D01*
X15540000Y-11510000D02*
X15560000Y-11530000D01*
X15560000Y-11510000D02*
X15540000Y-11530000D01*
X15540300Y-8412694D02*
X15560300Y-8432694D01*
X15560300Y-8412694D02*
X15540300Y-8432694D01*
X15550000Y-11650000D02*
X15570000Y-11670000D01*
X15570000Y-11650000D02*
X15550000Y-11670000D01*
X15565000Y-8110000D02*
X15585000Y-8130000D01*
X15585000Y-8110000D02*
X15565000Y-8130000D01*
X15590000Y-8060000D02*
X15610000Y-8080000D01*
X15610000Y-8060000D02*
X15590000Y-8080000D01*
X15590000Y-8650000D02*
X15610000Y-8670000D01*
X15610000Y-8650000D02*
X15590000Y-8670000D01*
X15590000Y-8750000D02*
X15610000Y-8770000D01*
X15610000Y-8750000D02*
X15590000Y-8770000D01*
X15600000Y-8310000D02*
X15620000Y-8330000D01*
X15620000Y-8310000D02*
X15600000Y-8330000D01*
X15600000Y-11410000D02*
X15620000Y-11430000D01*
X15620000Y-11410000D02*
X15600000Y-11430000D01*
X15610000Y-11215000D02*
X15630000Y-11235000D01*
X15630000Y-11215000D02*
X15610000Y-11235000D01*
X15625300Y-8977500D02*
X15645300Y-8997500D01*
X15645300Y-8977500D02*
X15625300Y-8997500D01*
X15626100Y-11011000D02*
X15646100Y-11031000D01*
X15646100Y-11011000D02*
X15626100Y-11031000D01*
X15640000Y-8700000D02*
X15660000Y-8720000D01*
X15660000Y-8700000D02*
X15640000Y-8720000D01*
X15659700Y-8425600D02*
X15679700Y-8445600D01*
X15679700Y-8425600D02*
X15659700Y-8445600D01*
X15679000Y-11310000D02*
X15699000Y-11330000D01*
X15699000Y-11310000D02*
X15679000Y-11330000D01*
X15680000Y-8130000D02*
X15700000Y-8150000D01*
X15700000Y-8130000D02*
X15680000Y-8150000D01*
X15680000Y-11570000D02*
X15700000Y-11590000D01*
X15700000Y-11570000D02*
X15680000Y-11590000D01*
X15690000Y-8650000D02*
X15710000Y-8670000D01*
X15710000Y-8650000D02*
X15690000Y-8670000D01*
X15690000Y-8750000D02*
X15710000Y-8770000D01*
X15710000Y-8750000D02*
X15690000Y-8770000D01*
X15707660Y-8980000D02*
X15727660Y-9000000D01*
X15727660Y-8980000D02*
X15707660Y-9000000D01*
X15707660Y-9073750D02*
X15727660Y-9093750D01*
X15727660Y-9073750D02*
X15707660Y-9093750D01*
X15710000Y-8440000D02*
X15730000Y-8460000D01*
X15730000Y-8440000D02*
X15710000Y-8460000D01*
X15720000Y-8100000D02*
X15740000Y-8120000D01*
X15740000Y-8100000D02*
X15720000Y-8120000D01*
X15720000Y-8300000D02*
X15740000Y-8320000D01*
X15740000Y-8300000D02*
X15720000Y-8320000D01*
X15720000Y-11022000D02*
X15740000Y-11042000D01*
X15740000Y-11022000D02*
X15720000Y-11042000D01*
X15730000Y-8500000D02*
X15750000Y-8520000D01*
X15750000Y-8500000D02*
X15730000Y-8520000D01*
X15760000Y-8130000D02*
X15780000Y-8150000D01*
X15780000Y-8130000D02*
X15760000Y-8150000D01*
X15760000Y-8840000D02*
X15780000Y-8860000D01*
X15780000Y-8840000D02*
X15760000Y-8860000D01*
X15770000Y-8550000D02*
X15790000Y-8570000D01*
X15790000Y-8550000D02*
X15770000Y-8570000D01*
X15800000Y-8100000D02*
X15820000Y-8120000D01*
X15820000Y-8100000D02*
X15800000Y-8120000D01*
X15810000Y-8450000D02*
X15830000Y-8470000D01*
X15830000Y-8450000D02*
X15810000Y-8470000D01*
X15810000Y-8600000D02*
X15830000Y-8620000D01*
X15830000Y-8600000D02*
X15810000Y-8620000D01*
X15820000Y-11019000D02*
X15840000Y-11039000D01*
X15840000Y-11019000D02*
X15820000Y-11039000D01*
X15840000Y-8130000D02*
X15860000Y-8150000D01*
X15860000Y-8130000D02*
X15840000Y-8150000D01*
X15850000Y-11510000D02*
X15870000Y-11530000D01*
X15870000Y-11510000D02*
X15850000Y-11530000D01*
X15870000Y-8450000D02*
X15890000Y-8470000D01*
X15890000Y-8450000D02*
X15870000Y-8470000D01*
X15878000Y-11272000D02*
X15898000Y-11292000D01*
X15898000Y-11272000D02*
X15878000Y-11292000D01*
X15880000Y-8100000D02*
X15900000Y-8120000D01*
X15900000Y-8100000D02*
X15880000Y-8120000D01*
X15920000Y-8500000D02*
X15940000Y-8520000D01*
X15940000Y-8500000D02*
X15920000Y-8520000D01*
X15921000Y-8141000D02*
X15941000Y-8161000D01*
X15941000Y-8141000D02*
X15921000Y-8161000D01*
X15922000Y-8788000D02*
X15942000Y-8808000D01*
X15942000Y-8788000D02*
X15922000Y-8808000D01*
X15940000Y-10940000D02*
X15960000Y-10960000D01*
X15960000Y-10940000D02*
X15940000Y-10960000D01*
X15990000Y-8140000D02*
X16010000Y-8160000D01*
X16010000Y-8140000D02*
X15990000Y-8160000D01*
X16000000Y-8510000D02*
X16020000Y-8530000D01*
X16020000Y-8510000D02*
X16000000Y-8530000D01*
X16010000Y-8290000D02*
X16030000Y-8310000D01*
X16030000Y-8290000D02*
X16010000Y-8310000D01*
X16040000Y-8820000D02*
X16060000Y-8840000D01*
X16060000Y-8820000D02*
X16040000Y-8840000D01*
X16042900Y-8664600D02*
X16062900Y-8684600D01*
X16062900Y-8664600D02*
X16042900Y-8684600D01*
X16060000Y-8468000D02*
X16080000Y-8488000D01*
X16080000Y-8468000D02*
X16060000Y-8488000D01*
X16067700Y-8280600D02*
X16087700Y-8300600D01*
X16087700Y-8280600D02*
X16067700Y-8300600D01*
X16070000Y-9820000D02*
X16090000Y-9840000D01*
X16090000Y-9820000D02*
X16070000Y-9840000D01*
X16080000Y-8930000D02*
X16100000Y-8950000D01*
X16100000Y-8930000D02*
X16080000Y-8950000D01*
X16080000Y-9010000D02*
X16100000Y-9030000D01*
X16100000Y-9010000D02*
X16080000Y-9030000D01*
X16080000Y-9460000D02*
X16100000Y-9480000D01*
X16100000Y-9460000D02*
X16080000Y-9480000D01*
X16080000Y-9520000D02*
X16100000Y-9540000D01*
X16100000Y-9520000D02*
X16080000Y-9540000D01*
X16080000Y-9640000D02*
X16100000Y-9660000D01*
X16100000Y-9640000D02*
X16080000Y-9660000D01*
X16084300Y-8636200D02*
X16104300Y-8656200D01*
X16104300Y-8636200D02*
X16084300Y-8656200D01*
X16090000Y-9880000D02*
X16110000Y-9900000D01*
X16110000Y-9880000D02*
X16090000Y-9900000D01*
X16099000Y-10211800D02*
X16119000Y-10231800D01*
X16119000Y-10211800D02*
X16099000Y-10231800D01*
X16110000Y-8320000D02*
X16130000Y-8340000D01*
X16130000Y-8320000D02*
X16110000Y-8340000D01*
X16112200Y-9357100D02*
X16132200Y-9377100D01*
X16132200Y-9357100D02*
X16112200Y-9377100D01*
X16120000Y-8510000D02*
X16140000Y-8530000D01*
X16140000Y-8510000D02*
X16120000Y-8530000D01*
X16120000Y-9840000D02*
X16140000Y-9860000D01*
X16140000Y-9840000D02*
X16120000Y-9860000D01*
X16122000Y-8880000D02*
X16142000Y-8900000D01*
X16142000Y-8880000D02*
X16122000Y-8900000D01*
X16125000Y-9760000D02*
X16145000Y-9780000D01*
X16145000Y-9760000D02*
X16125000Y-9780000D01*
X16127500Y-8970000D02*
X16147500Y-8990000D01*
X16147500Y-8970000D02*
X16127500Y-8990000D01*
X16130000Y-10000000D02*
X16150000Y-10020000D01*
X16150000Y-10000000D02*
X16130000Y-10020000D01*
X16130000Y-10060000D02*
X16150000Y-10080000D01*
X16150000Y-10060000D02*
X16130000Y-10080000D01*
X16133400Y-10117300D02*
X16153400Y-10137300D01*
X16153400Y-10117300D02*
X16133400Y-10137300D01*
X16140000Y-9415000D02*
X16160000Y-9435000D01*
X16160000Y-9415000D02*
X16140000Y-9435000D01*
X16140000Y-9490000D02*
X16160000Y-9510000D01*
X16160000Y-9490000D02*
X16140000Y-9510000D01*
X16145000Y-9310000D02*
X16165000Y-9330000D01*
X16165000Y-9310000D02*
X16145000Y-9330000D01*
X16150000Y-9880000D02*
X16170000Y-9900000D01*
X16170000Y-9880000D02*
X16150000Y-9900000D01*
X16160000Y-9930000D02*
X16180000Y-9950000D01*
X16180000Y-9930000D02*
X16160000Y-9950000D01*
X16170000Y-9010000D02*
X16190000Y-9030000D01*
X16190000Y-9010000D02*
X16170000Y-9030000D01*
X16170600Y-8935700D02*
X16190600Y-8955700D01*
X16190600Y-8935700D02*
X16170600Y-8955700D01*
X16180000Y-8468000D02*
X16200000Y-8488000D01*
X16200000Y-8468000D02*
X16180000Y-8488000D01*
X16180000Y-9110000D02*
X16200000Y-9130000D01*
X16200000Y-9110000D02*
X16180000Y-9130000D01*
X16180000Y-9670000D02*
X16200000Y-9690000D01*
X16200000Y-9670000D02*
X16180000Y-9690000D01*
X16180000Y-9740000D02*
X16200000Y-9760000D01*
X16200000Y-9740000D02*
X16180000Y-9760000D01*
X16200000Y-9790000D02*
X16220000Y-9810000D01*
X16220000Y-9790000D02*
X16200000Y-9810000D01*
X16210000Y-9625000D02*
X16230000Y-9645000D01*
X16230000Y-9625000D02*
X16210000Y-9645000D01*
X16220000Y-9395000D02*
X16240000Y-9415000D01*
X16240000Y-9395000D02*
X16220000Y-9415000D01*
X16240000Y-9670000D02*
X16260000Y-9690000D01*
X16260000Y-9670000D02*
X16240000Y-9690000D01*
X16240000Y-11150000D02*
X16260000Y-11170000D01*
X16260000Y-11150000D02*
X16240000Y-11170000D01*
X16250000Y-9120000D02*
X16270000Y-9140000D01*
X16270000Y-9120000D02*
X16250000Y-9140000D01*
X16250000Y-9550000D02*
X16270000Y-9570000D01*
X16270000Y-9550000D02*
X16250000Y-9570000D01*
X16250000Y-10990000D02*
X16270000Y-11010000D01*
X16270000Y-10990000D02*
X16250000Y-11010000D01*
X16260000Y-10730000D02*
X16280000Y-10750000D01*
X16280000Y-10730000D02*
X16260000Y-10750000D01*
X16287850Y-8452150D02*
X16307850Y-8472150D01*
X16307850Y-8452150D02*
X16287850Y-8472150D01*
X16290000Y-8712000D02*
X16310000Y-8732000D01*
X16310000Y-8712000D02*
X16290000Y-8732000D01*
X16290000Y-8808000D02*
X16310000Y-8828000D01*
X16310000Y-8808000D02*
X16290000Y-8828000D01*
X16290000Y-10680000D02*
X16310000Y-10700000D01*
X16310000Y-10680000D02*
X16290000Y-10700000D01*
X16307500Y-10567500D02*
X16327500Y-10587500D01*
X16327500Y-10567500D02*
X16307500Y-10587500D01*
X16310000Y-9140000D02*
X16330000Y-9160000D01*
X16330000Y-9140000D02*
X16310000Y-9160000D01*
X16310000Y-9200000D02*
X16330000Y-9220000D01*
X16330000Y-9200000D02*
X16310000Y-9220000D01*
X16355000Y-10645000D02*
X16375000Y-10665000D01*
X16375000Y-10645000D02*
X16355000Y-10665000D01*
X16360000Y-8720000D02*
X16380000Y-8740000D01*
X16380000Y-8720000D02*
X16360000Y-8740000D01*
X16365000Y-10995000D02*
X16385000Y-11015000D01*
X16385000Y-10995000D02*
X16365000Y-11015000D01*
X16370000Y-9140000D02*
X16390000Y-9160000D01*
X16390000Y-9140000D02*
X16370000Y-9160000D01*
X16370000Y-10330000D02*
X16390000Y-10350000D01*
X16390000Y-10330000D02*
X16370000Y-10350000D01*
X16370000Y-10390000D02*
X16390000Y-10410000D01*
X16390000Y-10390000D02*
X16370000Y-10410000D01*
X16370000Y-10450000D02*
X16390000Y-10470000D01*
X16390000Y-10450000D02*
X16370000Y-10470000D01*
X16380000Y-9375000D02*
X16400000Y-9395000D01*
X16400000Y-9375000D02*
X16380000Y-9395000D01*
X16380000Y-9435000D02*
X16400000Y-9455000D01*
X16400000Y-9435000D02*
X16380000Y-9455000D01*
X16390000Y-9930000D02*
X16410000Y-9950000D01*
X16410000Y-9930000D02*
X16390000Y-9950000D01*
X16390000Y-10030000D02*
X16410000Y-10050000D01*
X16410000Y-10030000D02*
X16390000Y-10050000D01*
X16390000Y-10150000D02*
X16410000Y-10170000D01*
X16410000Y-10150000D02*
X16390000Y-10170000D01*
X16390000Y-10210000D02*
X16410000Y-10230000D01*
X16410000Y-10210000D02*
X16390000Y-10230000D01*
X16401000Y-8370000D02*
X16421000Y-8390000D01*
X16421000Y-8370000D02*
X16401000Y-8390000D01*
X16410000Y-10280000D02*
X16430000Y-10300000D01*
X16430000Y-10280000D02*
X16410000Y-10300000D01*
X16410000Y-10850000D02*
X16430000Y-10870000D01*
X16430000Y-10850000D02*
X16410000Y-10870000D01*
X16420000Y-8618000D02*
X16440000Y-8638000D01*
X16440000Y-8618000D02*
X16420000Y-8638000D01*
X16420000Y-8690000D02*
X16440000Y-8710000D01*
X16440000Y-8690000D02*
X16420000Y-8710000D01*
X16430000Y-10720000D02*
X16450000Y-10740000D01*
X16450000Y-10720000D02*
X16430000Y-10740000D01*
X16430000Y-10995000D02*
X16450000Y-11015000D01*
X16450000Y-10995000D02*
X16430000Y-11015000D01*
X16442900Y-9785900D02*
X16462900Y-9805900D01*
X16462900Y-9785900D02*
X16442900Y-9805900D01*
X16446700Y-9578300D02*
X16466700Y-9598300D01*
X16466700Y-9578300D02*
X16446700Y-9598300D01*
X16460000Y-9670000D02*
X16480000Y-9690000D01*
X16480000Y-9670000D02*
X16460000Y-9690000D01*
X16460000Y-9730000D02*
X16480000Y-9750000D01*
X16480000Y-9730000D02*
X16460000Y-9750000D01*
X16495000Y-9615000D02*
X16515000Y-9635000D01*
X16515000Y-9615000D02*
X16495000Y-9635000D01*
X16500000Y-10470000D02*
X16520000Y-10490000D01*
X16520000Y-10470000D02*
X16500000Y-10490000D01*
X16520000Y-10530000D02*
X16540000Y-10550000D01*
X16540000Y-10530000D02*
X16520000Y-10550000D01*
X16520000Y-10580000D02*
X16540000Y-10600000D01*
X16540000Y-10580000D02*
X16520000Y-10600000D01*
X16520000Y-10630000D02*
X16540000Y-10650000D01*
X16540000Y-10630000D02*
X16520000Y-10650000D01*
X16528750Y-9033750D02*
X16548750Y-9053750D01*
X16548750Y-9033750D02*
X16528750Y-9053750D01*
X16528750Y-9103750D02*
X16548750Y-9123750D01*
X16548750Y-9103750D02*
X16528750Y-9123750D01*
X16528750Y-9173750D02*
X16548750Y-9193750D01*
X16548750Y-9173750D02*
X16528750Y-9193750D01*
X16530000Y-9950000D02*
X16550000Y-9970000D01*
X16550000Y-9950000D02*
X16530000Y-9970000D01*
X16535000Y-10065000D02*
X16555000Y-10085000D01*
X16555000Y-10065000D02*
X16535000Y-10085000D01*
X16538000Y-8531000D02*
X16558000Y-8551000D01*
X16558000Y-8531000D02*
X16538000Y-8551000D01*
X16538000Y-8633000D02*
X16558000Y-8653000D01*
X16558000Y-8633000D02*
X16538000Y-8653000D01*
X16540000Y-9420000D02*
X16560000Y-9440000D01*
X16560000Y-9420000D02*
X16540000Y-9440000D01*
X16540000Y-10780000D02*
X16560000Y-10800000D01*
X16560000Y-10780000D02*
X16540000Y-10800000D01*
X16550000Y-10010000D02*
X16570000Y-10030000D01*
X16570000Y-10010000D02*
X16550000Y-10030000D01*
X16550000Y-10200000D02*
X16570000Y-10220000D01*
X16570000Y-10200000D02*
X16550000Y-10220000D01*
X16560000Y-10260000D02*
X16580000Y-10280000D01*
X16580000Y-10260000D02*
X16560000Y-10280000D01*
X16560750Y-8900000D02*
X16580750Y-8920000D01*
X16580750Y-8900000D02*
X16560750Y-8920000D01*
X16560750Y-8963750D02*
X16580750Y-8983750D01*
X16580750Y-8963750D02*
X16560750Y-8983750D01*
X16590000Y-10440000D02*
X16610000Y-10460000D01*
X16610000Y-10440000D02*
X16590000Y-10460000D01*
X16598750Y-9033750D02*
X16618750Y-9053750D01*
X16618750Y-9033750D02*
X16598750Y-9053750D01*
X16598750Y-9103750D02*
X16618750Y-9123750D01*
X16618750Y-9103750D02*
X16598750Y-9123750D01*
X16598750Y-9173750D02*
X16618750Y-9193750D01*
X16618750Y-9173750D02*
X16598750Y-9193750D01*
X16600000Y-8770000D02*
X16620000Y-8790000D01*
X16620000Y-8770000D02*
X16600000Y-8790000D01*
X16600000Y-9420000D02*
X16620000Y-9440000D01*
X16620000Y-9420000D02*
X16600000Y-9440000D01*
X16600000Y-10225000D02*
X16620000Y-10245000D01*
X16620000Y-10225000D02*
X16600000Y-10245000D01*
X16645019Y-10074981D02*
X16665019Y-10094981D01*
X16665019Y-10074981D02*
X16645019Y-10094981D01*
X16656750Y-8900000D02*
X16676750Y-8920000D01*
X16676750Y-8900000D02*
X16656750Y-8920000D01*
X16656750Y-8963750D02*
X16676750Y-8983750D01*
X16676750Y-8963750D02*
X16656750Y-8983750D01*
X16665000Y-9540000D02*
X16685000Y-9560000D01*
X16685000Y-9540000D02*
X16665000Y-9560000D01*
X16670000Y-9650000D02*
X16690000Y-9670000D01*
X16690000Y-9650000D02*
X16670000Y-9670000D01*
X16670000Y-9765000D02*
X16690000Y-9785000D01*
X16690000Y-9765000D02*
X16670000Y-9785000D01*
X16670000Y-9880000D02*
X16690000Y-9900000D01*
X16690000Y-9880000D02*
X16670000Y-9900000D01*
X16688750Y-9103750D02*
X16708750Y-9123750D01*
X16708750Y-9103750D02*
X16688750Y-9123750D01*
X16688750Y-9203750D02*
X16708750Y-9223750D01*
X16708750Y-9203750D02*
X16688750Y-9223750D01*
X16750000Y-10225000D02*
X16770000Y-10245000D01*
X16770000Y-10225000D02*
X16750000Y-10245000D01*
X16815000Y-10140000D02*
X16835000Y-10160000D01*
X16835000Y-10140000D02*
X16815000Y-10160000D01*
D12*
X13729635Y-8565077D02*
G75*
G03*
X13729635Y-8565077I-15250J0D01*
G01*
X13814488Y-8649929D02*
G75*
G03*
X13814488Y-8649929I-15250J0D01*
G01*
X13823893Y-8470819D02*
G75*
G03*
X13823893Y-8470819I-15250J0D01*
G01*
X13899341Y-8734782D02*
G75*
G03*
X13899341Y-8734782I-15250J0D01*
G01*
X13908745Y-8555672D02*
G75*
G03*
X13908745Y-8555672I-15250J0D01*
G01*
X13918150Y-8376562D02*
G75*
G03*
X13918150Y-8376562I-15250J0D01*
G01*
X13984194Y-8819635D02*
G75*
G03*
X13984194Y-8819635I-15250J0D01*
G01*
X13993598Y-8640525D02*
G75*
G03*
X13993598Y-8640525I-15250J0D01*
G01*
X14003003Y-8461415D02*
G75*
G03*
X14003003Y-8461415I-15250J0D01*
G01*
X14012407Y-8282304D02*
G75*
G03*
X14012407Y-8282304I-15250J0D01*
G01*
X14078451Y-8725378D02*
G75*
G03*
X14078451Y-8725378I-15250J0D01*
G01*
X14087856Y-8546267D02*
G75*
G03*
X14087856Y-8546267I-15250J0D01*
G01*
X14097260Y-8367157D02*
G75*
G03*
X14097260Y-8367157I-15250J0D01*
G01*
X14172708Y-8631120D02*
G75*
G03*
X14172708Y-8631120I-15250J0D01*
G01*
X14182113Y-8452010D02*
G75*
G03*
X14182113Y-8452010I-15250J0D01*
G01*
X14266966Y-8536863D02*
G75*
G03*
X14266966Y-8536863I-15250J0D01*
G01*
D10*
X13447722Y-12199242D02*
X13447722Y-11999242D01*
X13447722Y-11999242D02*
X13495341Y-11999242D01*
X13495341Y-11999242D02*
X13523913Y-12008766D01*
X13523913Y-12008766D02*
X13542961Y-12027813D01*
X13542961Y-12027813D02*
X13552484Y-12046861D01*
X13552484Y-12046861D02*
X13562008Y-12084956D01*
X13562008Y-12084956D02*
X13562008Y-12113528D01*
X13562008Y-12113528D02*
X13552484Y-12151623D01*
X13552484Y-12151623D02*
X13542961Y-12170670D01*
X13542961Y-12170670D02*
X13523913Y-12189718D01*
X13523913Y-12189718D02*
X13495341Y-12199242D01*
X13495341Y-12199242D02*
X13447722Y-12199242D01*
X13647722Y-12199242D02*
X13647722Y-12065909D01*
X13647722Y-12104004D02*
X13657246Y-12084956D01*
X13657246Y-12084956D02*
X13666770Y-12075432D01*
X13666770Y-12075432D02*
X13685818Y-12065909D01*
X13685818Y-12065909D02*
X13704865Y-12065909D01*
X13771532Y-12199242D02*
X13771532Y-12065909D01*
X13771532Y-11999242D02*
X13762008Y-12008766D01*
X13762008Y-12008766D02*
X13771532Y-12018290D01*
X13771532Y-12018290D02*
X13781056Y-12008766D01*
X13781056Y-12008766D02*
X13771532Y-11999242D01*
X13771532Y-11999242D02*
X13771532Y-12018290D01*
X13895341Y-12199242D02*
X13876294Y-12189718D01*
X13876294Y-12189718D02*
X13866770Y-12170670D01*
X13866770Y-12170670D02*
X13866770Y-11999242D01*
X14000103Y-12199242D02*
X13981056Y-12189718D01*
X13981056Y-12189718D02*
X13971532Y-12170670D01*
X13971532Y-12170670D02*
X13971532Y-11999242D01*
X14228675Y-12199242D02*
X14228675Y-11999242D01*
X14228675Y-11999242D02*
X14295342Y-12142099D01*
X14295342Y-12142099D02*
X14362008Y-11999242D01*
X14362008Y-11999242D02*
X14362008Y-12199242D01*
X14542961Y-12199242D02*
X14542961Y-12094480D01*
X14542961Y-12094480D02*
X14533437Y-12075432D01*
X14533437Y-12075432D02*
X14514389Y-12065909D01*
X14514389Y-12065909D02*
X14476294Y-12065909D01*
X14476294Y-12065909D02*
X14457246Y-12075432D01*
X14542961Y-12189718D02*
X14523913Y-12199242D01*
X14523913Y-12199242D02*
X14476294Y-12199242D01*
X14476294Y-12199242D02*
X14457246Y-12189718D01*
X14457246Y-12189718D02*
X14447722Y-12170670D01*
X14447722Y-12170670D02*
X14447722Y-12151623D01*
X14447722Y-12151623D02*
X14457246Y-12132575D01*
X14457246Y-12132575D02*
X14476294Y-12123051D01*
X14476294Y-12123051D02*
X14523913Y-12123051D01*
X14523913Y-12123051D02*
X14542961Y-12113528D01*
X14638199Y-12065909D02*
X14638199Y-12265909D01*
X14638199Y-12075432D02*
X14657246Y-12065909D01*
X14657246Y-12065909D02*
X14695342Y-12065909D01*
X14695342Y-12065909D02*
X14714389Y-12075432D01*
X14714389Y-12075432D02*
X14723913Y-12084956D01*
X14723913Y-12084956D02*
X14733437Y-12104004D01*
X14733437Y-12104004D02*
X14733437Y-12161147D01*
X14733437Y-12161147D02*
X14723913Y-12180194D01*
X14723913Y-12180194D02*
X14714389Y-12189718D01*
X14714389Y-12189718D02*
X14695342Y-12199242D01*
X14695342Y-12199242D02*
X14657246Y-12199242D01*
X14657246Y-12199242D02*
X14638199Y-12189718D01*
X14819151Y-12180194D02*
X14828675Y-12189718D01*
X14828675Y-12189718D02*
X14819151Y-12199242D01*
X14819151Y-12199242D02*
X14809627Y-12189718D01*
X14809627Y-12189718D02*
X14819151Y-12180194D01*
X14819151Y-12180194D02*
X14819151Y-12199242D01*
X14819151Y-12075432D02*
X14828675Y-12084956D01*
X14828675Y-12084956D02*
X14819151Y-12094480D01*
X14819151Y-12094480D02*
X14809627Y-12084956D01*
X14809627Y-12084956D02*
X14819151Y-12075432D01*
X14819151Y-12075432D02*
X14819151Y-12094480D01*
D11*
X13180103Y-12516718D02*
X13200103Y-12536718D01*
X13200103Y-12516718D02*
X13180103Y-12536718D01*
D10*
X13485818Y-12419242D02*
X13504865Y-12419242D01*
X13504865Y-12419242D02*
X13523913Y-12428766D01*
X13523913Y-12428766D02*
X13533437Y-12438290D01*
X13533437Y-12438290D02*
X13542961Y-12457337D01*
X13542961Y-12457337D02*
X13552484Y-12495432D01*
X13552484Y-12495432D02*
X13552484Y-12543051D01*
X13552484Y-12543051D02*
X13542961Y-12581147D01*
X13542961Y-12581147D02*
X13533437Y-12600194D01*
X13533437Y-12600194D02*
X13523913Y-12609718D01*
X13523913Y-12609718D02*
X13504865Y-12619242D01*
X13504865Y-12619242D02*
X13485818Y-12619242D01*
X13485818Y-12619242D02*
X13466770Y-12609718D01*
X13466770Y-12609718D02*
X13457246Y-12600194D01*
X13457246Y-12600194D02*
X13447722Y-12581147D01*
X13447722Y-12581147D02*
X13438199Y-12543051D01*
X13438199Y-12543051D02*
X13438199Y-12495432D01*
X13438199Y-12495432D02*
X13447722Y-12457337D01*
X13447722Y-12457337D02*
X13457246Y-12438290D01*
X13457246Y-12438290D02*
X13466770Y-12428766D01*
X13466770Y-12428766D02*
X13485818Y-12419242D01*
X13638199Y-12600194D02*
X13647722Y-12609718D01*
X13647722Y-12609718D02*
X13638199Y-12619242D01*
X13638199Y-12619242D02*
X13628675Y-12609718D01*
X13628675Y-12609718D02*
X13638199Y-12600194D01*
X13638199Y-12600194D02*
X13638199Y-12619242D01*
X13723913Y-12438290D02*
X13733437Y-12428766D01*
X13733437Y-12428766D02*
X13752484Y-12419242D01*
X13752484Y-12419242D02*
X13800103Y-12419242D01*
X13800103Y-12419242D02*
X13819151Y-12428766D01*
X13819151Y-12428766D02*
X13828675Y-12438290D01*
X13828675Y-12438290D02*
X13838199Y-12457337D01*
X13838199Y-12457337D02*
X13838199Y-12476385D01*
X13838199Y-12476385D02*
X13828675Y-12504956D01*
X13828675Y-12504956D02*
X13714389Y-12619242D01*
X13714389Y-12619242D02*
X13838199Y-12619242D01*
X13962008Y-12419242D02*
X13981056Y-12419242D01*
X13981056Y-12419242D02*
X14000103Y-12428766D01*
X14000103Y-12428766D02*
X14009627Y-12438290D01*
X14009627Y-12438290D02*
X14019151Y-12457337D01*
X14019151Y-12457337D02*
X14028675Y-12495432D01*
X14028675Y-12495432D02*
X14028675Y-12543051D01*
X14028675Y-12543051D02*
X14019151Y-12581147D01*
X14019151Y-12581147D02*
X14009627Y-12600194D01*
X14009627Y-12600194D02*
X14000103Y-12609718D01*
X14000103Y-12609718D02*
X13981056Y-12619242D01*
X13981056Y-12619242D02*
X13962008Y-12619242D01*
X13962008Y-12619242D02*
X13942961Y-12609718D01*
X13942961Y-12609718D02*
X13933437Y-12600194D01*
X13933437Y-12600194D02*
X13923913Y-12581147D01*
X13923913Y-12581147D02*
X13914389Y-12543051D01*
X13914389Y-12543051D02*
X13914389Y-12495432D01*
X13914389Y-12495432D02*
X13923913Y-12457337D01*
X13923913Y-12457337D02*
X13933437Y-12438290D01*
X13933437Y-12438290D02*
X13942961Y-12428766D01*
X13942961Y-12428766D02*
X13962008Y-12419242D01*
X14152484Y-12419242D02*
X14171532Y-12419242D01*
X14171532Y-12419242D02*
X14190580Y-12428766D01*
X14190580Y-12428766D02*
X14200103Y-12438290D01*
X14200103Y-12438290D02*
X14209627Y-12457337D01*
X14209627Y-12457337D02*
X14219151Y-12495432D01*
X14219151Y-12495432D02*
X14219151Y-12543051D01*
X14219151Y-12543051D02*
X14209627Y-12581147D01*
X14209627Y-12581147D02*
X14200103Y-12600194D01*
X14200103Y-12600194D02*
X14190580Y-12609718D01*
X14190580Y-12609718D02*
X14171532Y-12619242D01*
X14171532Y-12619242D02*
X14152484Y-12619242D01*
X14152484Y-12619242D02*
X14133437Y-12609718D01*
X14133437Y-12609718D02*
X14123913Y-12600194D01*
X14123913Y-12600194D02*
X14114389Y-12581147D01*
X14114389Y-12581147D02*
X14104865Y-12543051D01*
X14104865Y-12543051D02*
X14104865Y-12495432D01*
X14104865Y-12495432D02*
X14114389Y-12457337D01*
X14114389Y-12457337D02*
X14123913Y-12438290D01*
X14123913Y-12438290D02*
X14133437Y-12428766D01*
X14133437Y-12428766D02*
X14152484Y-12419242D01*
X14304865Y-12619242D02*
X14304865Y-12485909D01*
X14304865Y-12504956D02*
X14314389Y-12495432D01*
X14314389Y-12495432D02*
X14333437Y-12485909D01*
X14333437Y-12485909D02*
X14362008Y-12485909D01*
X14362008Y-12485909D02*
X14381056Y-12495432D01*
X14381056Y-12495432D02*
X14390580Y-12514480D01*
X14390580Y-12514480D02*
X14390580Y-12619242D01*
X14390580Y-12514480D02*
X14400103Y-12495432D01*
X14400103Y-12495432D02*
X14419151Y-12485909D01*
X14419151Y-12485909D02*
X14447722Y-12485909D01*
X14447722Y-12485909D02*
X14466770Y-12495432D01*
X14466770Y-12495432D02*
X14476294Y-12514480D01*
X14476294Y-12514480D02*
X14476294Y-12619242D01*
X14571532Y-12619242D02*
X14571532Y-12485909D01*
X14571532Y-12504956D02*
X14581056Y-12495432D01*
X14581056Y-12495432D02*
X14600103Y-12485909D01*
X14600103Y-12485909D02*
X14628675Y-12485909D01*
X14628675Y-12485909D02*
X14647723Y-12495432D01*
X14647723Y-12495432D02*
X14657246Y-12514480D01*
X14657246Y-12514480D02*
X14657246Y-12619242D01*
X14657246Y-12514480D02*
X14666770Y-12495432D01*
X14666770Y-12495432D02*
X14685818Y-12485909D01*
X14685818Y-12485909D02*
X14714389Y-12485909D01*
X14714389Y-12485909D02*
X14733437Y-12495432D01*
X14733437Y-12495432D02*
X14742961Y-12514480D01*
X14742961Y-12514480D02*
X14742961Y-12619242D01*
X15133437Y-12409718D02*
X14962008Y-12666861D01*
X15390580Y-12419242D02*
X15409627Y-12419242D01*
X15409627Y-12419242D02*
X15428675Y-12428766D01*
X15428675Y-12428766D02*
X15438199Y-12438290D01*
X15438199Y-12438290D02*
X15447723Y-12457337D01*
X15447723Y-12457337D02*
X15457246Y-12495432D01*
X15457246Y-12495432D02*
X15457246Y-12543051D01*
X15457246Y-12543051D02*
X15447723Y-12581147D01*
X15447723Y-12581147D02*
X15438199Y-12600194D01*
X15438199Y-12600194D02*
X15428675Y-12609718D01*
X15428675Y-12609718D02*
X15409627Y-12619242D01*
X15409627Y-12619242D02*
X15390580Y-12619242D01*
X15390580Y-12619242D02*
X15371532Y-12609718D01*
X15371532Y-12609718D02*
X15362008Y-12600194D01*
X15362008Y-12600194D02*
X15352485Y-12581147D01*
X15352485Y-12581147D02*
X15342961Y-12543051D01*
X15342961Y-12543051D02*
X15342961Y-12495432D01*
X15342961Y-12495432D02*
X15352485Y-12457337D01*
X15352485Y-12457337D02*
X15362008Y-12438290D01*
X15362008Y-12438290D02*
X15371532Y-12428766D01*
X15371532Y-12428766D02*
X15390580Y-12419242D01*
X15542961Y-12600194D02*
X15552485Y-12609718D01*
X15552485Y-12609718D02*
X15542961Y-12619242D01*
X15542961Y-12619242D02*
X15533437Y-12609718D01*
X15533437Y-12609718D02*
X15542961Y-12600194D01*
X15542961Y-12600194D02*
X15542961Y-12619242D01*
X15676294Y-12419242D02*
X15695342Y-12419242D01*
X15695342Y-12419242D02*
X15714389Y-12428766D01*
X15714389Y-12428766D02*
X15723913Y-12438290D01*
X15723913Y-12438290D02*
X15733437Y-12457337D01*
X15733437Y-12457337D02*
X15742961Y-12495432D01*
X15742961Y-12495432D02*
X15742961Y-12543051D01*
X15742961Y-12543051D02*
X15733437Y-12581147D01*
X15733437Y-12581147D02*
X15723913Y-12600194D01*
X15723913Y-12600194D02*
X15714389Y-12609718D01*
X15714389Y-12609718D02*
X15695342Y-12619242D01*
X15695342Y-12619242D02*
X15676294Y-12619242D01*
X15676294Y-12619242D02*
X15657246Y-12609718D01*
X15657246Y-12609718D02*
X15647723Y-12600194D01*
X15647723Y-12600194D02*
X15638199Y-12581147D01*
X15638199Y-12581147D02*
X15628675Y-12543051D01*
X15628675Y-12543051D02*
X15628675Y-12495432D01*
X15628675Y-12495432D02*
X15638199Y-12457337D01*
X15638199Y-12457337D02*
X15647723Y-12438290D01*
X15647723Y-12438290D02*
X15657246Y-12428766D01*
X15657246Y-12428766D02*
X15676294Y-12419242D01*
X15866770Y-12419242D02*
X15885818Y-12419242D01*
X15885818Y-12419242D02*
X15904866Y-12428766D01*
X15904866Y-12428766D02*
X15914389Y-12438290D01*
X15914389Y-12438290D02*
X15923913Y-12457337D01*
X15923913Y-12457337D02*
X15933437Y-12495432D01*
X15933437Y-12495432D02*
X15933437Y-12543051D01*
X15933437Y-12543051D02*
X15923913Y-12581147D01*
X15923913Y-12581147D02*
X15914389Y-12600194D01*
X15914389Y-12600194D02*
X15904866Y-12609718D01*
X15904866Y-12609718D02*
X15885818Y-12619242D01*
X15885818Y-12619242D02*
X15866770Y-12619242D01*
X15866770Y-12619242D02*
X15847723Y-12609718D01*
X15847723Y-12609718D02*
X15838199Y-12600194D01*
X15838199Y-12600194D02*
X15828675Y-12581147D01*
X15828675Y-12581147D02*
X15819151Y-12543051D01*
X15819151Y-12543051D02*
X15819151Y-12495432D01*
X15819151Y-12495432D02*
X15828675Y-12457337D01*
X15828675Y-12457337D02*
X15838199Y-12438290D01*
X15838199Y-12438290D02*
X15847723Y-12428766D01*
X15847723Y-12428766D02*
X15866770Y-12419242D01*
X16000104Y-12419242D02*
X16133437Y-12419242D01*
X16133437Y-12419242D02*
X16047723Y-12619242D01*
X16219151Y-12619242D02*
X16257246Y-12619242D01*
X16257246Y-12619242D02*
X16276294Y-12609718D01*
X16276294Y-12609718D02*
X16285818Y-12600194D01*
X16285818Y-12600194D02*
X16304866Y-12571623D01*
X16304866Y-12571623D02*
X16314389Y-12533528D01*
X16314389Y-12533528D02*
X16314389Y-12457337D01*
X16314389Y-12457337D02*
X16304866Y-12438290D01*
X16304866Y-12438290D02*
X16295342Y-12428766D01*
X16295342Y-12428766D02*
X16276294Y-12419242D01*
X16276294Y-12419242D02*
X16238199Y-12419242D01*
X16238199Y-12419242D02*
X16219151Y-12428766D01*
X16219151Y-12428766D02*
X16209627Y-12438290D01*
X16209627Y-12438290D02*
X16200104Y-12457337D01*
X16200104Y-12457337D02*
X16200104Y-12504956D01*
X16200104Y-12504956D02*
X16209627Y-12524004D01*
X16209627Y-12524004D02*
X16219151Y-12533528D01*
X16219151Y-12533528D02*
X16238199Y-12543051D01*
X16238199Y-12543051D02*
X16276294Y-12543051D01*
X16276294Y-12543051D02*
X16295342Y-12533528D01*
X16295342Y-12533528D02*
X16304866Y-12524004D01*
X16304866Y-12524004D02*
X16314389Y-12504956D01*
X16390580Y-12419242D02*
X16390580Y-12457337D01*
X16466770Y-12419242D02*
X16466770Y-12457337D01*
X16762009Y-12695432D02*
X16752485Y-12685909D01*
X16752485Y-12685909D02*
X16733437Y-12657337D01*
X16733437Y-12657337D02*
X16723913Y-12638290D01*
X16723913Y-12638290D02*
X16714389Y-12609718D01*
X16714389Y-12609718D02*
X16704866Y-12562099D01*
X16704866Y-12562099D02*
X16704866Y-12524004D01*
X16704866Y-12524004D02*
X16714389Y-12476385D01*
X16714389Y-12476385D02*
X16723913Y-12447813D01*
X16723913Y-12447813D02*
X16733437Y-12428766D01*
X16733437Y-12428766D02*
X16752485Y-12400194D01*
X16752485Y-12400194D02*
X16762009Y-12390670D01*
X16923913Y-12419242D02*
X16885818Y-12419242D01*
X16885818Y-12419242D02*
X16866770Y-12428766D01*
X16866770Y-12428766D02*
X16857247Y-12438290D01*
X16857247Y-12438290D02*
X16838199Y-12466861D01*
X16838199Y-12466861D02*
X16828675Y-12504956D01*
X16828675Y-12504956D02*
X16828675Y-12581147D01*
X16828675Y-12581147D02*
X16838199Y-12600194D01*
X16838199Y-12600194D02*
X16847723Y-12609718D01*
X16847723Y-12609718D02*
X16866770Y-12619242D01*
X16866770Y-12619242D02*
X16904866Y-12619242D01*
X16904866Y-12619242D02*
X16923913Y-12609718D01*
X16923913Y-12609718D02*
X16933437Y-12600194D01*
X16933437Y-12600194D02*
X16942961Y-12581147D01*
X16942961Y-12581147D02*
X16942961Y-12533528D01*
X16942961Y-12533528D02*
X16933437Y-12514480D01*
X16933437Y-12514480D02*
X16923913Y-12504956D01*
X16923913Y-12504956D02*
X16904866Y-12495432D01*
X16904866Y-12495432D02*
X16866770Y-12495432D01*
X16866770Y-12495432D02*
X16847723Y-12504956D01*
X16847723Y-12504956D02*
X16838199Y-12514480D01*
X16838199Y-12514480D02*
X16828675Y-12533528D01*
X17114390Y-12485909D02*
X17114390Y-12619242D01*
X17066770Y-12409718D02*
X17019151Y-12552575D01*
X17019151Y-12552575D02*
X17142961Y-12552575D01*
X17200104Y-12419242D02*
X17323913Y-12419242D01*
X17323913Y-12419242D02*
X17257247Y-12495432D01*
X17257247Y-12495432D02*
X17285818Y-12495432D01*
X17285818Y-12495432D02*
X17304866Y-12504956D01*
X17304866Y-12504956D02*
X17314390Y-12514480D01*
X17314390Y-12514480D02*
X17323913Y-12533528D01*
X17323913Y-12533528D02*
X17323913Y-12581147D01*
X17323913Y-12581147D02*
X17314390Y-12600194D01*
X17314390Y-12600194D02*
X17304866Y-12609718D01*
X17304866Y-12609718D02*
X17285818Y-12619242D01*
X17285818Y-12619242D02*
X17228675Y-12619242D01*
X17228675Y-12619242D02*
X17209628Y-12609718D01*
X17209628Y-12609718D02*
X17200104Y-12600194D01*
X17562009Y-12619242D02*
X17562009Y-12419242D01*
X17647723Y-12619242D02*
X17647723Y-12514480D01*
X17647723Y-12514480D02*
X17638199Y-12495432D01*
X17638199Y-12495432D02*
X17619152Y-12485909D01*
X17619152Y-12485909D02*
X17590580Y-12485909D01*
X17590580Y-12485909D02*
X17571532Y-12495432D01*
X17571532Y-12495432D02*
X17562009Y-12504956D01*
X17771532Y-12619242D02*
X17752485Y-12609718D01*
X17752485Y-12609718D02*
X17742961Y-12600194D01*
X17742961Y-12600194D02*
X17733437Y-12581147D01*
X17733437Y-12581147D02*
X17733437Y-12524004D01*
X17733437Y-12524004D02*
X17742961Y-12504956D01*
X17742961Y-12504956D02*
X17752485Y-12495432D01*
X17752485Y-12495432D02*
X17771532Y-12485909D01*
X17771532Y-12485909D02*
X17800104Y-12485909D01*
X17800104Y-12485909D02*
X17819152Y-12495432D01*
X17819152Y-12495432D02*
X17828675Y-12504956D01*
X17828675Y-12504956D02*
X17838199Y-12524004D01*
X17838199Y-12524004D02*
X17838199Y-12581147D01*
X17838199Y-12581147D02*
X17828675Y-12600194D01*
X17828675Y-12600194D02*
X17819152Y-12609718D01*
X17819152Y-12609718D02*
X17800104Y-12619242D01*
X17800104Y-12619242D02*
X17771532Y-12619242D01*
X17952485Y-12619242D02*
X17933437Y-12609718D01*
X17933437Y-12609718D02*
X17923913Y-12590670D01*
X17923913Y-12590670D02*
X17923913Y-12419242D01*
X18104866Y-12609718D02*
X18085818Y-12619242D01*
X18085818Y-12619242D02*
X18047723Y-12619242D01*
X18047723Y-12619242D02*
X18028675Y-12609718D01*
X18028675Y-12609718D02*
X18019152Y-12590670D01*
X18019152Y-12590670D02*
X18019152Y-12514480D01*
X18019152Y-12514480D02*
X18028675Y-12495432D01*
X18028675Y-12495432D02*
X18047723Y-12485909D01*
X18047723Y-12485909D02*
X18085818Y-12485909D01*
X18085818Y-12485909D02*
X18104866Y-12495432D01*
X18104866Y-12495432D02*
X18114390Y-12514480D01*
X18114390Y-12514480D02*
X18114390Y-12533528D01*
X18114390Y-12533528D02*
X18019152Y-12552575D01*
X18190580Y-12609718D02*
X18209628Y-12619242D01*
X18209628Y-12619242D02*
X18247723Y-12619242D01*
X18247723Y-12619242D02*
X18266771Y-12609718D01*
X18266771Y-12609718D02*
X18276294Y-12590670D01*
X18276294Y-12590670D02*
X18276294Y-12581147D01*
X18276294Y-12581147D02*
X18266771Y-12562099D01*
X18266771Y-12562099D02*
X18247723Y-12552575D01*
X18247723Y-12552575D02*
X18219152Y-12552575D01*
X18219152Y-12552575D02*
X18200104Y-12543051D01*
X18200104Y-12543051D02*
X18190580Y-12524004D01*
X18190580Y-12524004D02*
X18190580Y-12514480D01*
X18190580Y-12514480D02*
X18200104Y-12495432D01*
X18200104Y-12495432D02*
X18219152Y-12485909D01*
X18219152Y-12485909D02*
X18247723Y-12485909D01*
X18247723Y-12485909D02*
X18266771Y-12495432D01*
X18342961Y-12695432D02*
X18352485Y-12685909D01*
X18352485Y-12685909D02*
X18371533Y-12657337D01*
X18371533Y-12657337D02*
X18381056Y-12638290D01*
X18381056Y-12638290D02*
X18390580Y-12609718D01*
X18390580Y-12609718D02*
X18400104Y-12562099D01*
X18400104Y-12562099D02*
X18400104Y-12524004D01*
X18400104Y-12524004D02*
X18390580Y-12476385D01*
X18390580Y-12476385D02*
X18381056Y-12447813D01*
X18381056Y-12447813D02*
X18371533Y-12428766D01*
X18371533Y-12428766D02*
X18352485Y-12400194D01*
X18352485Y-12400194D02*
X18342961Y-12390670D01*
D12*
X13200103Y-12790718D02*
G75*
G03*
X13200103Y-12790718I-15250J0D01*
G01*
D10*
X13485818Y-12683242D02*
X13504865Y-12683242D01*
X13504865Y-12683242D02*
X13523913Y-12692766D01*
X13523913Y-12692766D02*
X13533437Y-12702290D01*
X13533437Y-12702290D02*
X13542961Y-12721337D01*
X13542961Y-12721337D02*
X13552484Y-12759432D01*
X13552484Y-12759432D02*
X13552484Y-12807051D01*
X13552484Y-12807051D02*
X13542961Y-12845147D01*
X13542961Y-12845147D02*
X13533437Y-12864194D01*
X13533437Y-12864194D02*
X13523913Y-12873718D01*
X13523913Y-12873718D02*
X13504865Y-12883242D01*
X13504865Y-12883242D02*
X13485818Y-12883242D01*
X13485818Y-12883242D02*
X13466770Y-12873718D01*
X13466770Y-12873718D02*
X13457246Y-12864194D01*
X13457246Y-12864194D02*
X13447722Y-12845147D01*
X13447722Y-12845147D02*
X13438199Y-12807051D01*
X13438199Y-12807051D02*
X13438199Y-12759432D01*
X13438199Y-12759432D02*
X13447722Y-12721337D01*
X13447722Y-12721337D02*
X13457246Y-12702290D01*
X13457246Y-12702290D02*
X13466770Y-12692766D01*
X13466770Y-12692766D02*
X13485818Y-12683242D01*
X13638199Y-12864194D02*
X13647722Y-12873718D01*
X13647722Y-12873718D02*
X13638199Y-12883242D01*
X13638199Y-12883242D02*
X13628675Y-12873718D01*
X13628675Y-12873718D02*
X13638199Y-12864194D01*
X13638199Y-12864194D02*
X13638199Y-12883242D01*
X13714389Y-12683242D02*
X13838199Y-12683242D01*
X13838199Y-12683242D02*
X13771532Y-12759432D01*
X13771532Y-12759432D02*
X13800103Y-12759432D01*
X13800103Y-12759432D02*
X13819151Y-12768956D01*
X13819151Y-12768956D02*
X13828675Y-12778480D01*
X13828675Y-12778480D02*
X13838199Y-12797528D01*
X13838199Y-12797528D02*
X13838199Y-12845147D01*
X13838199Y-12845147D02*
X13828675Y-12864194D01*
X13828675Y-12864194D02*
X13819151Y-12873718D01*
X13819151Y-12873718D02*
X13800103Y-12883242D01*
X13800103Y-12883242D02*
X13742961Y-12883242D01*
X13742961Y-12883242D02*
X13723913Y-12873718D01*
X13723913Y-12873718D02*
X13714389Y-12864194D01*
X13962008Y-12683242D02*
X13981056Y-12683242D01*
X13981056Y-12683242D02*
X14000103Y-12692766D01*
X14000103Y-12692766D02*
X14009627Y-12702290D01*
X14009627Y-12702290D02*
X14019151Y-12721337D01*
X14019151Y-12721337D02*
X14028675Y-12759432D01*
X14028675Y-12759432D02*
X14028675Y-12807051D01*
X14028675Y-12807051D02*
X14019151Y-12845147D01*
X14019151Y-12845147D02*
X14009627Y-12864194D01*
X14009627Y-12864194D02*
X14000103Y-12873718D01*
X14000103Y-12873718D02*
X13981056Y-12883242D01*
X13981056Y-12883242D02*
X13962008Y-12883242D01*
X13962008Y-12883242D02*
X13942961Y-12873718D01*
X13942961Y-12873718D02*
X13933437Y-12864194D01*
X13933437Y-12864194D02*
X13923913Y-12845147D01*
X13923913Y-12845147D02*
X13914389Y-12807051D01*
X13914389Y-12807051D02*
X13914389Y-12759432D01*
X13914389Y-12759432D02*
X13923913Y-12721337D01*
X13923913Y-12721337D02*
X13933437Y-12702290D01*
X13933437Y-12702290D02*
X13942961Y-12692766D01*
X13942961Y-12692766D02*
X13962008Y-12683242D01*
X14209627Y-12683242D02*
X14114389Y-12683242D01*
X14114389Y-12683242D02*
X14104865Y-12778480D01*
X14104865Y-12778480D02*
X14114389Y-12768956D01*
X14114389Y-12768956D02*
X14133437Y-12759432D01*
X14133437Y-12759432D02*
X14181056Y-12759432D01*
X14181056Y-12759432D02*
X14200103Y-12768956D01*
X14200103Y-12768956D02*
X14209627Y-12778480D01*
X14209627Y-12778480D02*
X14219151Y-12797528D01*
X14219151Y-12797528D02*
X14219151Y-12845147D01*
X14219151Y-12845147D02*
X14209627Y-12864194D01*
X14209627Y-12864194D02*
X14200103Y-12873718D01*
X14200103Y-12873718D02*
X14181056Y-12883242D01*
X14181056Y-12883242D02*
X14133437Y-12883242D01*
X14133437Y-12883242D02*
X14114389Y-12873718D01*
X14114389Y-12873718D02*
X14104865Y-12864194D01*
X14304865Y-12883242D02*
X14304865Y-12749909D01*
X14304865Y-12768956D02*
X14314389Y-12759432D01*
X14314389Y-12759432D02*
X14333437Y-12749909D01*
X14333437Y-12749909D02*
X14362008Y-12749909D01*
X14362008Y-12749909D02*
X14381056Y-12759432D01*
X14381056Y-12759432D02*
X14390580Y-12778480D01*
X14390580Y-12778480D02*
X14390580Y-12883242D01*
X14390580Y-12778480D02*
X14400103Y-12759432D01*
X14400103Y-12759432D02*
X14419151Y-12749909D01*
X14419151Y-12749909D02*
X14447722Y-12749909D01*
X14447722Y-12749909D02*
X14466770Y-12759432D01*
X14466770Y-12759432D02*
X14476294Y-12778480D01*
X14476294Y-12778480D02*
X14476294Y-12883242D01*
X14571532Y-12883242D02*
X14571532Y-12749909D01*
X14571532Y-12768956D02*
X14581056Y-12759432D01*
X14581056Y-12759432D02*
X14600103Y-12749909D01*
X14600103Y-12749909D02*
X14628675Y-12749909D01*
X14628675Y-12749909D02*
X14647723Y-12759432D01*
X14647723Y-12759432D02*
X14657246Y-12778480D01*
X14657246Y-12778480D02*
X14657246Y-12883242D01*
X14657246Y-12778480D02*
X14666770Y-12759432D01*
X14666770Y-12759432D02*
X14685818Y-12749909D01*
X14685818Y-12749909D02*
X14714389Y-12749909D01*
X14714389Y-12749909D02*
X14733437Y-12759432D01*
X14733437Y-12759432D02*
X14742961Y-12778480D01*
X14742961Y-12778480D02*
X14742961Y-12883242D01*
X15133437Y-12673718D02*
X14962008Y-12930861D01*
X15390580Y-12683242D02*
X15409627Y-12683242D01*
X15409627Y-12683242D02*
X15428675Y-12692766D01*
X15428675Y-12692766D02*
X15438199Y-12702290D01*
X15438199Y-12702290D02*
X15447723Y-12721337D01*
X15447723Y-12721337D02*
X15457246Y-12759432D01*
X15457246Y-12759432D02*
X15457246Y-12807051D01*
X15457246Y-12807051D02*
X15447723Y-12845147D01*
X15447723Y-12845147D02*
X15438199Y-12864194D01*
X15438199Y-12864194D02*
X15428675Y-12873718D01*
X15428675Y-12873718D02*
X15409627Y-12883242D01*
X15409627Y-12883242D02*
X15390580Y-12883242D01*
X15390580Y-12883242D02*
X15371532Y-12873718D01*
X15371532Y-12873718D02*
X15362008Y-12864194D01*
X15362008Y-12864194D02*
X15352485Y-12845147D01*
X15352485Y-12845147D02*
X15342961Y-12807051D01*
X15342961Y-12807051D02*
X15342961Y-12759432D01*
X15342961Y-12759432D02*
X15352485Y-12721337D01*
X15352485Y-12721337D02*
X15362008Y-12702290D01*
X15362008Y-12702290D02*
X15371532Y-12692766D01*
X15371532Y-12692766D02*
X15390580Y-12683242D01*
X15542961Y-12864194D02*
X15552485Y-12873718D01*
X15552485Y-12873718D02*
X15542961Y-12883242D01*
X15542961Y-12883242D02*
X15533437Y-12873718D01*
X15533437Y-12873718D02*
X15542961Y-12864194D01*
X15542961Y-12864194D02*
X15542961Y-12883242D01*
X15676294Y-12683242D02*
X15695342Y-12683242D01*
X15695342Y-12683242D02*
X15714389Y-12692766D01*
X15714389Y-12692766D02*
X15723913Y-12702290D01*
X15723913Y-12702290D02*
X15733437Y-12721337D01*
X15733437Y-12721337D02*
X15742961Y-12759432D01*
X15742961Y-12759432D02*
X15742961Y-12807051D01*
X15742961Y-12807051D02*
X15733437Y-12845147D01*
X15733437Y-12845147D02*
X15723913Y-12864194D01*
X15723913Y-12864194D02*
X15714389Y-12873718D01*
X15714389Y-12873718D02*
X15695342Y-12883242D01*
X15695342Y-12883242D02*
X15676294Y-12883242D01*
X15676294Y-12883242D02*
X15657246Y-12873718D01*
X15657246Y-12873718D02*
X15647723Y-12864194D01*
X15647723Y-12864194D02*
X15638199Y-12845147D01*
X15638199Y-12845147D02*
X15628675Y-12807051D01*
X15628675Y-12807051D02*
X15628675Y-12759432D01*
X15628675Y-12759432D02*
X15638199Y-12721337D01*
X15638199Y-12721337D02*
X15647723Y-12702290D01*
X15647723Y-12702290D02*
X15657246Y-12692766D01*
X15657246Y-12692766D02*
X15676294Y-12683242D01*
X15933437Y-12883242D02*
X15819151Y-12883242D01*
X15876294Y-12883242D02*
X15876294Y-12683242D01*
X15876294Y-12683242D02*
X15857246Y-12711813D01*
X15857246Y-12711813D02*
X15838199Y-12730861D01*
X15838199Y-12730861D02*
X15819151Y-12740385D01*
X16009627Y-12702290D02*
X16019151Y-12692766D01*
X16019151Y-12692766D02*
X16038199Y-12683242D01*
X16038199Y-12683242D02*
X16085818Y-12683242D01*
X16085818Y-12683242D02*
X16104866Y-12692766D01*
X16104866Y-12692766D02*
X16114389Y-12702290D01*
X16114389Y-12702290D02*
X16123913Y-12721337D01*
X16123913Y-12721337D02*
X16123913Y-12740385D01*
X16123913Y-12740385D02*
X16114389Y-12768956D01*
X16114389Y-12768956D02*
X16000104Y-12883242D01*
X16000104Y-12883242D02*
X16123913Y-12883242D01*
X16247723Y-12683242D02*
X16266770Y-12683242D01*
X16266770Y-12683242D02*
X16285818Y-12692766D01*
X16285818Y-12692766D02*
X16295342Y-12702290D01*
X16295342Y-12702290D02*
X16304866Y-12721337D01*
X16304866Y-12721337D02*
X16314389Y-12759432D01*
X16314389Y-12759432D02*
X16314389Y-12807051D01*
X16314389Y-12807051D02*
X16304866Y-12845147D01*
X16304866Y-12845147D02*
X16295342Y-12864194D01*
X16295342Y-12864194D02*
X16285818Y-12873718D01*
X16285818Y-12873718D02*
X16266770Y-12883242D01*
X16266770Y-12883242D02*
X16247723Y-12883242D01*
X16247723Y-12883242D02*
X16228675Y-12873718D01*
X16228675Y-12873718D02*
X16219151Y-12864194D01*
X16219151Y-12864194D02*
X16209627Y-12845147D01*
X16209627Y-12845147D02*
X16200104Y-12807051D01*
X16200104Y-12807051D02*
X16200104Y-12759432D01*
X16200104Y-12759432D02*
X16209627Y-12721337D01*
X16209627Y-12721337D02*
X16219151Y-12702290D01*
X16219151Y-12702290D02*
X16228675Y-12692766D01*
X16228675Y-12692766D02*
X16247723Y-12683242D01*
X16390580Y-12683242D02*
X16390580Y-12721337D01*
X16466770Y-12683242D02*
X16466770Y-12721337D01*
X16762009Y-12959432D02*
X16752485Y-12949909D01*
X16752485Y-12949909D02*
X16733437Y-12921337D01*
X16733437Y-12921337D02*
X16723913Y-12902290D01*
X16723913Y-12902290D02*
X16714389Y-12873718D01*
X16714389Y-12873718D02*
X16704866Y-12826099D01*
X16704866Y-12826099D02*
X16704866Y-12788004D01*
X16704866Y-12788004D02*
X16714389Y-12740385D01*
X16714389Y-12740385D02*
X16723913Y-12711813D01*
X16723913Y-12711813D02*
X16733437Y-12692766D01*
X16733437Y-12692766D02*
X16752485Y-12664194D01*
X16752485Y-12664194D02*
X16762009Y-12654670D01*
X16942961Y-12883242D02*
X16828675Y-12883242D01*
X16885818Y-12883242D02*
X16885818Y-12683242D01*
X16885818Y-12683242D02*
X16866770Y-12711813D01*
X16866770Y-12711813D02*
X16847723Y-12730861D01*
X16847723Y-12730861D02*
X16828675Y-12740385D01*
X17114390Y-12683242D02*
X17076294Y-12683242D01*
X17076294Y-12683242D02*
X17057247Y-12692766D01*
X17057247Y-12692766D02*
X17047723Y-12702290D01*
X17047723Y-12702290D02*
X17028675Y-12730861D01*
X17028675Y-12730861D02*
X17019151Y-12768956D01*
X17019151Y-12768956D02*
X17019151Y-12845147D01*
X17019151Y-12845147D02*
X17028675Y-12864194D01*
X17028675Y-12864194D02*
X17038199Y-12873718D01*
X17038199Y-12873718D02*
X17057247Y-12883242D01*
X17057247Y-12883242D02*
X17095342Y-12883242D01*
X17095342Y-12883242D02*
X17114390Y-12873718D01*
X17114390Y-12873718D02*
X17123913Y-12864194D01*
X17123913Y-12864194D02*
X17133437Y-12845147D01*
X17133437Y-12845147D02*
X17133437Y-12797528D01*
X17133437Y-12797528D02*
X17123913Y-12778480D01*
X17123913Y-12778480D02*
X17114390Y-12768956D01*
X17114390Y-12768956D02*
X17095342Y-12759432D01*
X17095342Y-12759432D02*
X17057247Y-12759432D01*
X17057247Y-12759432D02*
X17038199Y-12768956D01*
X17038199Y-12768956D02*
X17028675Y-12778480D01*
X17028675Y-12778480D02*
X17019151Y-12797528D01*
X17371532Y-12883242D02*
X17371532Y-12683242D01*
X17457247Y-12883242D02*
X17457247Y-12778480D01*
X17457247Y-12778480D02*
X17447723Y-12759432D01*
X17447723Y-12759432D02*
X17428675Y-12749909D01*
X17428675Y-12749909D02*
X17400104Y-12749909D01*
X17400104Y-12749909D02*
X17381056Y-12759432D01*
X17381056Y-12759432D02*
X17371532Y-12768956D01*
X17581056Y-12883242D02*
X17562009Y-12873718D01*
X17562009Y-12873718D02*
X17552485Y-12864194D01*
X17552485Y-12864194D02*
X17542961Y-12845147D01*
X17542961Y-12845147D02*
X17542961Y-12788004D01*
X17542961Y-12788004D02*
X17552485Y-12768956D01*
X17552485Y-12768956D02*
X17562009Y-12759432D01*
X17562009Y-12759432D02*
X17581056Y-12749909D01*
X17581056Y-12749909D02*
X17609628Y-12749909D01*
X17609628Y-12749909D02*
X17628675Y-12759432D01*
X17628675Y-12759432D02*
X17638199Y-12768956D01*
X17638199Y-12768956D02*
X17647723Y-12788004D01*
X17647723Y-12788004D02*
X17647723Y-12845147D01*
X17647723Y-12845147D02*
X17638199Y-12864194D01*
X17638199Y-12864194D02*
X17628675Y-12873718D01*
X17628675Y-12873718D02*
X17609628Y-12883242D01*
X17609628Y-12883242D02*
X17581056Y-12883242D01*
X17762009Y-12883242D02*
X17742961Y-12873718D01*
X17742961Y-12873718D02*
X17733437Y-12854670D01*
X17733437Y-12854670D02*
X17733437Y-12683242D01*
X17914390Y-12873718D02*
X17895342Y-12883242D01*
X17895342Y-12883242D02*
X17857247Y-12883242D01*
X17857247Y-12883242D02*
X17838199Y-12873718D01*
X17838199Y-12873718D02*
X17828675Y-12854670D01*
X17828675Y-12854670D02*
X17828675Y-12778480D01*
X17828675Y-12778480D02*
X17838199Y-12759432D01*
X17838199Y-12759432D02*
X17857247Y-12749909D01*
X17857247Y-12749909D02*
X17895342Y-12749909D01*
X17895342Y-12749909D02*
X17914390Y-12759432D01*
X17914390Y-12759432D02*
X17923913Y-12778480D01*
X17923913Y-12778480D02*
X17923913Y-12797528D01*
X17923913Y-12797528D02*
X17828675Y-12816575D01*
X18000104Y-12873718D02*
X18019152Y-12883242D01*
X18019152Y-12883242D02*
X18057247Y-12883242D01*
X18057247Y-12883242D02*
X18076294Y-12873718D01*
X18076294Y-12873718D02*
X18085818Y-12854670D01*
X18085818Y-12854670D02*
X18085818Y-12845147D01*
X18085818Y-12845147D02*
X18076294Y-12826099D01*
X18076294Y-12826099D02*
X18057247Y-12816575D01*
X18057247Y-12816575D02*
X18028675Y-12816575D01*
X18028675Y-12816575D02*
X18009628Y-12807051D01*
X18009628Y-12807051D02*
X18000104Y-12788004D01*
X18000104Y-12788004D02*
X18000104Y-12778480D01*
X18000104Y-12778480D02*
X18009628Y-12759432D01*
X18009628Y-12759432D02*
X18028675Y-12749909D01*
X18028675Y-12749909D02*
X18057247Y-12749909D01*
X18057247Y-12749909D02*
X18076294Y-12759432D01*
X18152485Y-12959432D02*
X18162009Y-12949909D01*
X18162009Y-12949909D02*
X18181056Y-12921337D01*
X18181056Y-12921337D02*
X18190580Y-12902290D01*
X18190580Y-12902290D02*
X18200104Y-12873718D01*
X18200104Y-12873718D02*
X18209628Y-12826099D01*
X18209628Y-12826099D02*
X18209628Y-12788004D01*
X18209628Y-12788004D02*
X18200104Y-12740385D01*
X18200104Y-12740385D02*
X18190580Y-12711813D01*
X18190580Y-12711813D02*
X18181056Y-12692766D01*
X18181056Y-12692766D02*
X18162009Y-12664194D01*
X18162009Y-12664194D02*
X18152485Y-12654670D01*
M02*
