%TF.GenerationSoftware,KiCad,Pcbnew,8.0.1*%
%TF.CreationDate,2024-03-29T03:09:59+00:00*%
%TF.ProjectId,watch_main,77617463-685f-46d6-9169-6e2e6b696361,rev?*%
%TF.SameCoordinates,Original*%
%TF.FileFunction,Paste,Bot*%
%TF.FilePolarity,Positive*%
%FSLAX46Y46*%
G04 Gerber Fmt 4.6, Leading zero omitted, Abs format (unit mm)*
G04 Created by KiCad (PCBNEW 8.0.1) date 2024-03-29 03:09:59*
%MOMM*%
%LPD*%
G01*
G04 APERTURE LIST*
G04 Aperture macros list*
%AMRoundRect*
0 Rectangle with rounded corners*
0 $1 Rounding radius*
0 $2 $3 $4 $5 $6 $7 $8 $9 X,Y pos of 4 corners*
0 Add a 4 corners polygon primitive as box body*
4,1,4,$2,$3,$4,$5,$6,$7,$8,$9,$2,$3,0*
0 Add four circle primitives for the rounded corners*
1,1,$1+$1,$2,$3*
1,1,$1+$1,$4,$5*
1,1,$1+$1,$6,$7*
1,1,$1+$1,$8,$9*
0 Add four rect primitives between the rounded corners*
20,1,$1+$1,$2,$3,$4,$5,0*
20,1,$1+$1,$4,$5,$6,$7,0*
20,1,$1+$1,$6,$7,$8,$9,0*
20,1,$1+$1,$8,$9,$2,$3,0*%
G04 Aperture macros list end*
%ADD10R,1.600000X0.550000*%
%ADD11RoundRect,0.135000X-0.185000X0.135000X-0.185000X-0.135000X0.185000X-0.135000X0.185000X0.135000X0*%
%ADD12RoundRect,0.079500X0.100500X-0.079500X0.100500X0.079500X-0.100500X0.079500X-0.100500X-0.079500X0*%
%ADD13RoundRect,0.140000X-0.140000X-0.170000X0.140000X-0.170000X0.140000X0.170000X-0.140000X0.170000X0*%
%ADD14RoundRect,0.135000X-0.135000X-0.185000X0.135000X-0.185000X0.135000X0.185000X-0.135000X0.185000X0*%
%ADD15RoundRect,0.140000X0.170000X-0.140000X0.170000X0.140000X-0.170000X0.140000X-0.170000X-0.140000X0*%
%ADD16RoundRect,0.140000X-0.170000X0.140000X-0.170000X-0.140000X0.170000X-0.140000X0.170000X0.140000X0*%
%ADD17RoundRect,0.140000X0.140000X0.170000X-0.140000X0.170000X-0.140000X-0.170000X0.140000X-0.170000X0*%
%ADD18R,0.900000X0.220000*%
%ADD19R,0.850000X0.220000*%
%ADD20R,0.220000X0.550000*%
%ADD21RoundRect,0.079500X-0.079500X-0.100500X0.079500X-0.100500X0.079500X0.100500X-0.079500X0.100500X0*%
%ADD22RoundRect,0.135000X0.185000X-0.135000X0.185000X0.135000X-0.185000X0.135000X-0.185000X-0.135000X0*%
%ADD23R,0.533400X0.304800*%
%ADD24R,0.304800X0.533400*%
%ADD25RoundRect,0.135000X0.135000X0.185000X-0.135000X0.185000X-0.135000X-0.185000X0.135000X-0.185000X0*%
%ADD26RoundRect,0.079500X0.079500X0.100500X-0.079500X0.100500X-0.079500X-0.100500X0.079500X-0.100500X0*%
%ADD27RoundRect,0.079500X-0.100500X0.079500X-0.100500X-0.079500X0.100500X-0.079500X0.100500X0.079500X0*%
%ADD28R,0.500000X1.000000*%
%ADD29R,0.720000X0.780000*%
%ADD30R,1.050000X1.080000*%
%ADD31R,1.050000X1.105000*%
%ADD32R,1.050000X1.200000*%
%ADD33R,1.050000X2.390000*%
%ADD34R,2.910000X0.550000*%
G04 APERTURE END LIST*
D10*
%TO.C,L301*%
X146400000Y-82325000D03*
X146400000Y-80875000D03*
%TD*%
D11*
%TO.C,R302*%
X145800000Y-87190000D03*
X145800000Y-88210000D03*
%TD*%
D12*
%TO.C,C909*%
X150600000Y-97145000D03*
X150600000Y-96455000D03*
%TD*%
D13*
%TO.C,C206*%
X161320000Y-88900000D03*
X162280000Y-88900000D03*
%TD*%
%TO.C,C305*%
X145220000Y-83600000D03*
X146180000Y-83600000D03*
%TD*%
D11*
%TO.C,R303*%
X142950000Y-87200000D03*
X142950000Y-88220000D03*
%TD*%
D14*
%TO.C,R1403*%
X151590000Y-111100000D03*
X152610000Y-111100000D03*
%TD*%
D11*
%TO.C,R1404*%
X153600000Y-111090000D03*
X153600000Y-112110000D03*
%TD*%
D14*
%TO.C,R206*%
X155890000Y-89300000D03*
X156910000Y-89300000D03*
%TD*%
D15*
%TO.C,C403*%
X146800000Y-106680000D03*
X146800000Y-105720000D03*
%TD*%
D13*
%TO.C,C1003*%
X152020000Y-85900000D03*
X152980000Y-85900000D03*
%TD*%
D12*
%TO.C,C912*%
X149800000Y-97145000D03*
X149800000Y-96455000D03*
%TD*%
D16*
%TO.C,C1304*%
X156599874Y-110650000D03*
X156599874Y-111610000D03*
%TD*%
D14*
%TO.C,R1402*%
X151190000Y-106000000D03*
X152210000Y-106000000D03*
%TD*%
D17*
%TO.C,C1401*%
X152580000Y-112100000D03*
X151620000Y-112100000D03*
%TD*%
D18*
%TO.C,IC1102*%
X149300000Y-103800000D03*
D19*
X149275000Y-103400000D03*
X149275000Y-103000000D03*
X149275000Y-102600000D03*
D20*
X149300000Y-102025000D03*
X149700000Y-102025000D03*
X150100000Y-102025000D03*
X150500000Y-102025000D03*
D19*
X150525000Y-102600000D03*
X150525000Y-103000000D03*
X150525000Y-103400000D03*
X150525000Y-103800000D03*
D20*
X150500000Y-104375000D03*
X150100000Y-104375000D03*
X149700000Y-104375000D03*
X149300000Y-104375000D03*
%TD*%
D12*
%TO.C,C908*%
X149800000Y-93145000D03*
X149800000Y-92455000D03*
%TD*%
D15*
%TO.C,C1005*%
X147900000Y-83780000D03*
X147900000Y-82820000D03*
%TD*%
D21*
%TO.C,C903*%
X151455000Y-98000000D03*
X152145000Y-98000000D03*
%TD*%
%TO.C,C910*%
X151455000Y-98800000D03*
X152145000Y-98800000D03*
%TD*%
D15*
%TO.C,C203*%
X158800000Y-84180000D03*
X158800000Y-83220000D03*
%TD*%
D14*
%TO.C,R806*%
X155890000Y-87300000D03*
X156910000Y-87300000D03*
%TD*%
D22*
%TO.C,R805*%
X147800000Y-106710000D03*
X147800000Y-105690000D03*
%TD*%
D21*
%TO.C,C911*%
X151455000Y-95600000D03*
X152145000Y-95600000D03*
%TD*%
D23*
%TO.C,U1301*%
X159881600Y-109149811D03*
X159881600Y-109649937D03*
X159881600Y-110150063D03*
X159881600Y-110650189D03*
D24*
X159251426Y-110789000D03*
X158751300Y-110789000D03*
X158251174Y-110789000D03*
D23*
X157621000Y-110650189D03*
X157621000Y-110150063D03*
X157621000Y-109649937D03*
X157621000Y-109149811D03*
D24*
X158251174Y-109011000D03*
X158751300Y-109011000D03*
X159251426Y-109011000D03*
%TD*%
D17*
%TO.C,C208*%
X160280000Y-88900000D03*
X159320000Y-88900000D03*
%TD*%
D25*
%TO.C,R1401*%
X152710000Y-107000000D03*
X151690000Y-107000000D03*
%TD*%
D14*
%TO.C,R808*%
X155890000Y-86300000D03*
X156910000Y-86300000D03*
%TD*%
D26*
%TO.C,C904*%
X149745000Y-94000000D03*
X149055000Y-94000000D03*
%TD*%
D22*
%TO.C,R401*%
X138500000Y-106510000D03*
X138500000Y-105490000D03*
%TD*%
D21*
%TO.C,C905*%
X151455000Y-97200000D03*
X152145000Y-97200000D03*
%TD*%
D16*
%TO.C,C1102*%
X149800000Y-105710000D03*
X149800000Y-106670000D03*
%TD*%
D26*
%TO.C,C919*%
X148145000Y-98000000D03*
X147455000Y-98000000D03*
%TD*%
D21*
%TO.C,C901*%
X149055000Y-98000000D03*
X149745000Y-98000000D03*
%TD*%
D17*
%TO.C,C913*%
X148280000Y-96000000D03*
X147320000Y-96000000D03*
%TD*%
%TO.C,C917*%
X149480000Y-91400000D03*
X148520000Y-91400000D03*
%TD*%
%TO.C,C1302*%
X159231300Y-111900000D03*
X158271300Y-111900000D03*
%TD*%
D27*
%TO.C,C915*%
X150600000Y-94855000D03*
X150600000Y-95545000D03*
%TD*%
%TO.C,C920*%
X152200000Y-93255000D03*
X152200000Y-93945000D03*
%TD*%
D15*
%TO.C,C302*%
X144100000Y-80380000D03*
X144100000Y-79420000D03*
%TD*%
D17*
%TO.C,C1002*%
X152480000Y-80800000D03*
X151520000Y-80800000D03*
%TD*%
D22*
%TO.C,R807*%
X148800000Y-106710000D03*
X148800000Y-105690000D03*
%TD*%
D12*
%TO.C,C902*%
X153000000Y-92345000D03*
X153000000Y-91655000D03*
%TD*%
D27*
%TO.C,C918*%
X148200000Y-92455000D03*
X148200000Y-93145000D03*
%TD*%
D14*
%TO.C,R101*%
X148190000Y-108300000D03*
X149210000Y-108300000D03*
%TD*%
D17*
%TO.C,C1402*%
X152580000Y-113100000D03*
X151620000Y-113100000D03*
%TD*%
D11*
%TO.C,R304*%
X143900000Y-87200000D03*
X143900000Y-88220000D03*
%TD*%
D12*
%TO.C,C916*%
X146600000Y-98745000D03*
X146600000Y-98055000D03*
%TD*%
D11*
%TO.C,R301*%
X144850000Y-87200000D03*
X144850000Y-88220000D03*
%TD*%
D14*
%TO.C,R803*%
X155090000Y-85300000D03*
X156110000Y-85300000D03*
%TD*%
D15*
%TO.C,C201*%
X159800000Y-84180000D03*
X159800000Y-83220000D03*
%TD*%
D28*
%TO.C,J1101*%
X162850000Y-100628285D03*
X161750000Y-100628285D03*
X160650000Y-100628285D03*
X159550000Y-100628285D03*
X158450000Y-100628285D03*
X157350000Y-100628285D03*
X156250000Y-100628285D03*
X155150000Y-100628285D03*
D29*
X164610000Y-103308285D03*
D30*
X164625000Y-104578285D03*
D31*
X164625000Y-107140785D03*
D32*
X153975000Y-106618285D03*
D33*
X153975000Y-103433285D03*
D34*
X161286000Y-107863285D03*
X157096000Y-107863285D03*
%TD*%
D17*
%TO.C,C204*%
X161280000Y-85900000D03*
X160320000Y-85900000D03*
%TD*%
D12*
%TO.C,C907*%
X149000000Y-93145000D03*
X149000000Y-92455000D03*
%TD*%
D14*
%TO.C,R801*%
X155090000Y-84300000D03*
X156110000Y-84300000D03*
%TD*%
D12*
%TO.C,C914*%
X152200000Y-92345000D03*
X152200000Y-91655000D03*
%TD*%
D14*
%TO.C,R205*%
X155890000Y-90300000D03*
X156910000Y-90300000D03*
%TD*%
%TO.C,R204*%
X155890000Y-88300000D03*
X156910000Y-88300000D03*
%TD*%
D11*
%TO.C,R305*%
X142000000Y-87190000D03*
X142000000Y-88210000D03*
%TD*%
D17*
%TO.C,C1004*%
X152480000Y-81799293D03*
X151520000Y-81799293D03*
%TD*%
M02*
