%TF.GenerationSoftware,KiCad,Pcbnew,8.0.1*%
%TF.CreationDate,2024-03-29T03:10:12+00:00*%
%TF.ProjectId,watch_main,77617463-685f-46d6-9169-6e2e6b696361,rev?*%
%TF.SameCoordinates,Original*%
%TF.FileFunction,Drillmap*%
%TF.FilePolarity,Positive*%
%FSLAX45Y45*%
G04 Gerber Fmt 4.5, Leading zero omitted, Abs format (unit mm)*
G04 Created by KiCad (PCBNEW 8.0.1) date 2024-03-29 03:10:12*
%MOMM*%
%LPD*%
G01*
G04 APERTURE LIST*
%ADD10C,0.100000*%
%ADD11C,0.200000*%
G04 APERTURE END LIST*
D10*
X13205103Y-9016370D02*
X13205103Y-10600206D01*
X13439418Y-8450685D02*
X13971109Y-7918994D01*
X14051464Y-7928639D02*
X14041819Y-7918994D01*
X14205103Y-7864999D02*
X14205103Y-7862552D01*
X14605042Y-11454999D02*
X14605042Y-11404999D01*
X14630042Y-11379999D02*
X15380042Y-11379999D01*
X15380042Y-11479999D02*
X14630042Y-11479999D01*
X15405042Y-11404999D02*
X15405042Y-11454999D01*
X15805103Y-7864999D02*
X15805103Y-7862552D01*
X15825042Y-9874999D02*
X15825042Y-9574999D01*
X15925042Y-9474999D02*
X16075042Y-9474999D01*
X15962000Y-7925206D02*
X15970320Y-7915962D01*
X16075042Y-9974999D02*
X15925042Y-9974999D01*
X16175042Y-9574999D02*
X16175042Y-9874999D01*
X16455103Y-8284999D02*
X16040933Y-7912246D01*
X16805104Y-9234999D02*
X16805104Y-9405000D01*
X16805104Y-10254999D02*
X16805104Y-10434999D01*
X16825104Y-9425000D02*
X16905104Y-9425000D01*
X16905104Y-9425000D02*
X16905104Y-9584999D01*
X16905104Y-9964999D02*
X16905104Y-10234999D01*
X16905104Y-10234999D02*
X16825104Y-10234999D01*
X13205103Y-9016370D02*
G75*
G02*
X13439418Y-8450685I799998J1D01*
G01*
X13243813Y-10771872D02*
G75*
G02*
X13205103Y-10600206I361289J171666D01*
G01*
X13971109Y-7918994D02*
G75*
G02*
X14041819Y-7918994I35355J-35355D01*
G01*
X14205103Y-7862552D02*
G75*
G02*
X14231083Y-7825090I39998J2D01*
G01*
X14205103Y-7864999D02*
G75*
G02*
X14051464Y-7928639I-90000J-1D01*
G01*
X14231083Y-7825090D02*
G75*
G02*
X15779123Y-7825090I774020J-2068243D01*
G01*
X14605042Y-11404999D02*
G75*
G02*
X14630042Y-11379999I25000J0D01*
G01*
X14630042Y-11479999D02*
G75*
G02*
X14605042Y-11454999I-3J24998D01*
G01*
X14915103Y-11882921D02*
G75*
G02*
X15095086Y-11882800I90000J-13013D01*
G01*
X14915103Y-11882921D02*
G75*
G02*
X13243813Y-10771872I90000J1947922D01*
G01*
X15380042Y-11379999D02*
G75*
G02*
X15405041Y-11404999I-3J-25001D01*
G01*
X15405042Y-11454999D02*
G75*
G02*
X15380042Y-11479999I-24998J-3D01*
G01*
X15779123Y-7825090D02*
G75*
G02*
X15805102Y-7862552I-14034J-37470D01*
G01*
X15825042Y-9574999D02*
G75*
G02*
X15925042Y-9475000I100003J-3D01*
G01*
X15925042Y-9974999D02*
G75*
G02*
X15825041Y-9874999I-3J99999D01*
G01*
X15962000Y-7925206D02*
G75*
G02*
X15805103Y-7864999I-66898J60203D01*
G01*
X15970320Y-7915962D02*
G75*
G02*
X16040933Y-7912245I37165J-33451D01*
G01*
X16075042Y-9474999D02*
G75*
G02*
X16175041Y-9574999I-3J-100001D01*
G01*
X16175042Y-9874999D02*
G75*
G02*
X16075042Y-9975000I-99998J-3D01*
G01*
X16455103Y-8284999D02*
G75*
G02*
X16805104Y-9234999I-1114281J-949999D01*
G01*
X16805104Y-10254999D02*
G75*
G02*
X16825104Y-10234994I20007J-1D01*
G01*
X16805103Y-10434999D02*
G75*
G02*
X15095086Y-11882800I-1800000J392242D01*
G01*
X16825104Y-9425000D02*
G75*
G02*
X16805100Y-9405000I-4J20000D01*
G01*
X16770000Y-9935000D02*
X16770000Y-9615000D01*
X16800000Y-9585000D02*
X16905000Y-9585000D01*
X16800000Y-9965000D02*
X16905000Y-9965000D01*
X16770000Y-9615000D02*
G75*
G02*
X16800000Y-9585000I30000J0D01*
G01*
X16800000Y-9965000D02*
G75*
G02*
X16770000Y-9935000I0J30000D01*
G01*
D11*
D10*
X16529520Y-9004120D02*
X16590480Y-9065080D01*
X16590480Y-9004120D02*
X16529520Y-9065080D01*
D11*
X13460880Y-12199405D02*
X13460880Y-11999405D01*
X13460880Y-11999405D02*
X13508499Y-11999405D01*
X13508499Y-11999405D02*
X13537071Y-12008929D01*
X13537071Y-12008929D02*
X13556118Y-12027977D01*
X13556118Y-12027977D02*
X13565642Y-12047024D01*
X13565642Y-12047024D02*
X13575166Y-12085119D01*
X13575166Y-12085119D02*
X13575166Y-12113691D01*
X13575166Y-12113691D02*
X13565642Y-12151786D01*
X13565642Y-12151786D02*
X13556118Y-12170834D01*
X13556118Y-12170834D02*
X13537071Y-12189881D01*
X13537071Y-12189881D02*
X13508499Y-12199405D01*
X13508499Y-12199405D02*
X13460880Y-12199405D01*
X13660880Y-12199405D02*
X13660880Y-12066072D01*
X13660880Y-12104167D02*
X13670404Y-12085119D01*
X13670404Y-12085119D02*
X13679928Y-12075596D01*
X13679928Y-12075596D02*
X13698975Y-12066072D01*
X13698975Y-12066072D02*
X13718023Y-12066072D01*
X13784690Y-12199405D02*
X13784690Y-12066072D01*
X13784690Y-11999405D02*
X13775166Y-12008929D01*
X13775166Y-12008929D02*
X13784690Y-12018453D01*
X13784690Y-12018453D02*
X13794214Y-12008929D01*
X13794214Y-12008929D02*
X13784690Y-11999405D01*
X13784690Y-11999405D02*
X13784690Y-12018453D01*
X13908499Y-12199405D02*
X13889452Y-12189881D01*
X13889452Y-12189881D02*
X13879928Y-12170834D01*
X13879928Y-12170834D02*
X13879928Y-11999405D01*
X14013261Y-12199405D02*
X13994214Y-12189881D01*
X13994214Y-12189881D02*
X13984690Y-12170834D01*
X13984690Y-12170834D02*
X13984690Y-11999405D01*
X14241833Y-12199405D02*
X14241833Y-11999405D01*
X14241833Y-11999405D02*
X14308499Y-12142262D01*
X14308499Y-12142262D02*
X14375166Y-11999405D01*
X14375166Y-11999405D02*
X14375166Y-12199405D01*
X14556118Y-12199405D02*
X14556118Y-12094643D01*
X14556118Y-12094643D02*
X14546595Y-12075596D01*
X14546595Y-12075596D02*
X14527547Y-12066072D01*
X14527547Y-12066072D02*
X14489452Y-12066072D01*
X14489452Y-12066072D02*
X14470404Y-12075596D01*
X14556118Y-12189881D02*
X14537071Y-12199405D01*
X14537071Y-12199405D02*
X14489452Y-12199405D01*
X14489452Y-12199405D02*
X14470404Y-12189881D01*
X14470404Y-12189881D02*
X14460880Y-12170834D01*
X14460880Y-12170834D02*
X14460880Y-12151786D01*
X14460880Y-12151786D02*
X14470404Y-12132738D01*
X14470404Y-12132738D02*
X14489452Y-12123215D01*
X14489452Y-12123215D02*
X14537071Y-12123215D01*
X14537071Y-12123215D02*
X14556118Y-12113691D01*
X14651356Y-12066072D02*
X14651356Y-12266072D01*
X14651356Y-12075596D02*
X14670404Y-12066072D01*
X14670404Y-12066072D02*
X14708499Y-12066072D01*
X14708499Y-12066072D02*
X14727547Y-12075596D01*
X14727547Y-12075596D02*
X14737071Y-12085119D01*
X14737071Y-12085119D02*
X14746595Y-12104167D01*
X14746595Y-12104167D02*
X14746595Y-12161310D01*
X14746595Y-12161310D02*
X14737071Y-12180357D01*
X14737071Y-12180357D02*
X14727547Y-12189881D01*
X14727547Y-12189881D02*
X14708499Y-12199405D01*
X14708499Y-12199405D02*
X14670404Y-12199405D01*
X14670404Y-12199405D02*
X14651356Y-12189881D01*
X14832309Y-12180357D02*
X14841833Y-12189881D01*
X14841833Y-12189881D02*
X14832309Y-12199405D01*
X14832309Y-12199405D02*
X14822785Y-12189881D01*
X14822785Y-12189881D02*
X14832309Y-12180357D01*
X14832309Y-12180357D02*
X14832309Y-12199405D01*
X14832309Y-12075596D02*
X14841833Y-12085119D01*
X14841833Y-12085119D02*
X14832309Y-12094643D01*
X14832309Y-12094643D02*
X14822785Y-12085119D01*
X14822785Y-12085119D02*
X14832309Y-12075596D01*
X14832309Y-12075596D02*
X14832309Y-12094643D01*
D10*
X13139143Y-12497441D02*
X13200103Y-12558401D01*
X13200103Y-12497441D02*
X13139143Y-12558401D01*
D11*
X13498975Y-12419405D02*
X13518023Y-12419405D01*
X13518023Y-12419405D02*
X13537071Y-12428929D01*
X13537071Y-12428929D02*
X13546595Y-12438453D01*
X13546595Y-12438453D02*
X13556118Y-12457500D01*
X13556118Y-12457500D02*
X13565642Y-12495596D01*
X13565642Y-12495596D02*
X13565642Y-12543215D01*
X13565642Y-12543215D02*
X13556118Y-12581310D01*
X13556118Y-12581310D02*
X13546595Y-12600357D01*
X13546595Y-12600357D02*
X13537071Y-12609881D01*
X13537071Y-12609881D02*
X13518023Y-12619405D01*
X13518023Y-12619405D02*
X13498975Y-12619405D01*
X13498975Y-12619405D02*
X13479928Y-12609881D01*
X13479928Y-12609881D02*
X13470404Y-12600357D01*
X13470404Y-12600357D02*
X13460880Y-12581310D01*
X13460880Y-12581310D02*
X13451356Y-12543215D01*
X13451356Y-12543215D02*
X13451356Y-12495596D01*
X13451356Y-12495596D02*
X13460880Y-12457500D01*
X13460880Y-12457500D02*
X13470404Y-12438453D01*
X13470404Y-12438453D02*
X13479928Y-12428929D01*
X13479928Y-12428929D02*
X13498975Y-12419405D01*
X13651356Y-12600357D02*
X13660880Y-12609881D01*
X13660880Y-12609881D02*
X13651356Y-12619405D01*
X13651356Y-12619405D02*
X13641833Y-12609881D01*
X13641833Y-12609881D02*
X13651356Y-12600357D01*
X13651356Y-12600357D02*
X13651356Y-12619405D01*
X13832309Y-12419405D02*
X13794214Y-12419405D01*
X13794214Y-12419405D02*
X13775166Y-12428929D01*
X13775166Y-12428929D02*
X13765642Y-12438453D01*
X13765642Y-12438453D02*
X13746595Y-12467024D01*
X13746595Y-12467024D02*
X13737071Y-12505119D01*
X13737071Y-12505119D02*
X13737071Y-12581310D01*
X13737071Y-12581310D02*
X13746595Y-12600357D01*
X13746595Y-12600357D02*
X13756118Y-12609881D01*
X13756118Y-12609881D02*
X13775166Y-12619405D01*
X13775166Y-12619405D02*
X13813261Y-12619405D01*
X13813261Y-12619405D02*
X13832309Y-12609881D01*
X13832309Y-12609881D02*
X13841833Y-12600357D01*
X13841833Y-12600357D02*
X13851356Y-12581310D01*
X13851356Y-12581310D02*
X13851356Y-12533691D01*
X13851356Y-12533691D02*
X13841833Y-12514643D01*
X13841833Y-12514643D02*
X13832309Y-12505119D01*
X13832309Y-12505119D02*
X13813261Y-12495596D01*
X13813261Y-12495596D02*
X13775166Y-12495596D01*
X13775166Y-12495596D02*
X13756118Y-12505119D01*
X13756118Y-12505119D02*
X13746595Y-12514643D01*
X13746595Y-12514643D02*
X13737071Y-12533691D01*
X14041833Y-12619405D02*
X13927547Y-12619405D01*
X13984690Y-12619405D02*
X13984690Y-12419405D01*
X13984690Y-12419405D02*
X13965642Y-12447977D01*
X13965642Y-12447977D02*
X13946595Y-12467024D01*
X13946595Y-12467024D02*
X13927547Y-12476548D01*
X14165642Y-12419405D02*
X14184690Y-12419405D01*
X14184690Y-12419405D02*
X14203737Y-12428929D01*
X14203737Y-12428929D02*
X14213261Y-12438453D01*
X14213261Y-12438453D02*
X14222785Y-12457500D01*
X14222785Y-12457500D02*
X14232309Y-12495596D01*
X14232309Y-12495596D02*
X14232309Y-12543215D01*
X14232309Y-12543215D02*
X14222785Y-12581310D01*
X14222785Y-12581310D02*
X14213261Y-12600357D01*
X14213261Y-12600357D02*
X14203737Y-12609881D01*
X14203737Y-12609881D02*
X14184690Y-12619405D01*
X14184690Y-12619405D02*
X14165642Y-12619405D01*
X14165642Y-12619405D02*
X14146595Y-12609881D01*
X14146595Y-12609881D02*
X14137071Y-12600357D01*
X14137071Y-12600357D02*
X14127547Y-12581310D01*
X14127547Y-12581310D02*
X14118023Y-12543215D01*
X14118023Y-12543215D02*
X14118023Y-12495596D01*
X14118023Y-12495596D02*
X14127547Y-12457500D01*
X14127547Y-12457500D02*
X14137071Y-12438453D01*
X14137071Y-12438453D02*
X14146595Y-12428929D01*
X14146595Y-12428929D02*
X14165642Y-12419405D01*
X14318023Y-12619405D02*
X14318023Y-12486072D01*
X14318023Y-12505119D02*
X14327547Y-12495596D01*
X14327547Y-12495596D02*
X14346595Y-12486072D01*
X14346595Y-12486072D02*
X14375166Y-12486072D01*
X14375166Y-12486072D02*
X14394214Y-12495596D01*
X14394214Y-12495596D02*
X14403737Y-12514643D01*
X14403737Y-12514643D02*
X14403737Y-12619405D01*
X14403737Y-12514643D02*
X14413261Y-12495596D01*
X14413261Y-12495596D02*
X14432309Y-12486072D01*
X14432309Y-12486072D02*
X14460880Y-12486072D01*
X14460880Y-12486072D02*
X14479928Y-12495596D01*
X14479928Y-12495596D02*
X14489452Y-12514643D01*
X14489452Y-12514643D02*
X14489452Y-12619405D01*
X14584690Y-12619405D02*
X14584690Y-12486072D01*
X14584690Y-12505119D02*
X14594214Y-12495596D01*
X14594214Y-12495596D02*
X14613261Y-12486072D01*
X14613261Y-12486072D02*
X14641833Y-12486072D01*
X14641833Y-12486072D02*
X14660880Y-12495596D01*
X14660880Y-12495596D02*
X14670404Y-12514643D01*
X14670404Y-12514643D02*
X14670404Y-12619405D01*
X14670404Y-12514643D02*
X14679928Y-12495596D01*
X14679928Y-12495596D02*
X14698976Y-12486072D01*
X14698976Y-12486072D02*
X14727547Y-12486072D01*
X14727547Y-12486072D02*
X14746595Y-12495596D01*
X14746595Y-12495596D02*
X14756118Y-12514643D01*
X14756118Y-12514643D02*
X14756118Y-12619405D01*
X15146595Y-12409881D02*
X14975166Y-12667024D01*
X15403738Y-12419405D02*
X15422785Y-12419405D01*
X15422785Y-12419405D02*
X15441833Y-12428929D01*
X15441833Y-12428929D02*
X15451357Y-12438453D01*
X15451357Y-12438453D02*
X15460880Y-12457500D01*
X15460880Y-12457500D02*
X15470404Y-12495596D01*
X15470404Y-12495596D02*
X15470404Y-12543215D01*
X15470404Y-12543215D02*
X15460880Y-12581310D01*
X15460880Y-12581310D02*
X15451357Y-12600357D01*
X15451357Y-12600357D02*
X15441833Y-12609881D01*
X15441833Y-12609881D02*
X15422785Y-12619405D01*
X15422785Y-12619405D02*
X15403738Y-12619405D01*
X15403738Y-12619405D02*
X15384690Y-12609881D01*
X15384690Y-12609881D02*
X15375166Y-12600357D01*
X15375166Y-12600357D02*
X15365642Y-12581310D01*
X15365642Y-12581310D02*
X15356119Y-12543215D01*
X15356119Y-12543215D02*
X15356119Y-12495596D01*
X15356119Y-12495596D02*
X15365642Y-12457500D01*
X15365642Y-12457500D02*
X15375166Y-12438453D01*
X15375166Y-12438453D02*
X15384690Y-12428929D01*
X15384690Y-12428929D02*
X15403738Y-12419405D01*
X15556119Y-12600357D02*
X15565642Y-12609881D01*
X15565642Y-12609881D02*
X15556119Y-12619405D01*
X15556119Y-12619405D02*
X15546595Y-12609881D01*
X15546595Y-12609881D02*
X15556119Y-12600357D01*
X15556119Y-12600357D02*
X15556119Y-12619405D01*
X15689452Y-12419405D02*
X15708500Y-12419405D01*
X15708500Y-12419405D02*
X15727547Y-12428929D01*
X15727547Y-12428929D02*
X15737071Y-12438453D01*
X15737071Y-12438453D02*
X15746595Y-12457500D01*
X15746595Y-12457500D02*
X15756119Y-12495596D01*
X15756119Y-12495596D02*
X15756119Y-12543215D01*
X15756119Y-12543215D02*
X15746595Y-12581310D01*
X15746595Y-12581310D02*
X15737071Y-12600357D01*
X15737071Y-12600357D02*
X15727547Y-12609881D01*
X15727547Y-12609881D02*
X15708500Y-12619405D01*
X15708500Y-12619405D02*
X15689452Y-12619405D01*
X15689452Y-12619405D02*
X15670404Y-12609881D01*
X15670404Y-12609881D02*
X15660880Y-12600357D01*
X15660880Y-12600357D02*
X15651357Y-12581310D01*
X15651357Y-12581310D02*
X15641833Y-12543215D01*
X15641833Y-12543215D02*
X15641833Y-12495596D01*
X15641833Y-12495596D02*
X15651357Y-12457500D01*
X15651357Y-12457500D02*
X15660880Y-12438453D01*
X15660880Y-12438453D02*
X15670404Y-12428929D01*
X15670404Y-12428929D02*
X15689452Y-12419405D01*
X15832309Y-12438453D02*
X15841833Y-12428929D01*
X15841833Y-12428929D02*
X15860880Y-12419405D01*
X15860880Y-12419405D02*
X15908500Y-12419405D01*
X15908500Y-12419405D02*
X15927547Y-12428929D01*
X15927547Y-12428929D02*
X15937071Y-12438453D01*
X15937071Y-12438453D02*
X15946595Y-12457500D01*
X15946595Y-12457500D02*
X15946595Y-12476548D01*
X15946595Y-12476548D02*
X15937071Y-12505119D01*
X15937071Y-12505119D02*
X15822785Y-12619405D01*
X15822785Y-12619405D02*
X15946595Y-12619405D01*
X16118023Y-12486072D02*
X16118023Y-12619405D01*
X16070404Y-12409881D02*
X16022785Y-12552738D01*
X16022785Y-12552738D02*
X16146595Y-12552738D01*
X16260880Y-12419405D02*
X16279928Y-12419405D01*
X16279928Y-12419405D02*
X16298976Y-12428929D01*
X16298976Y-12428929D02*
X16308500Y-12438453D01*
X16308500Y-12438453D02*
X16318023Y-12457500D01*
X16318023Y-12457500D02*
X16327547Y-12495596D01*
X16327547Y-12495596D02*
X16327547Y-12543215D01*
X16327547Y-12543215D02*
X16318023Y-12581310D01*
X16318023Y-12581310D02*
X16308500Y-12600357D01*
X16308500Y-12600357D02*
X16298976Y-12609881D01*
X16298976Y-12609881D02*
X16279928Y-12619405D01*
X16279928Y-12619405D02*
X16260880Y-12619405D01*
X16260880Y-12619405D02*
X16241833Y-12609881D01*
X16241833Y-12609881D02*
X16232309Y-12600357D01*
X16232309Y-12600357D02*
X16222785Y-12581310D01*
X16222785Y-12581310D02*
X16213261Y-12543215D01*
X16213261Y-12543215D02*
X16213261Y-12495596D01*
X16213261Y-12495596D02*
X16222785Y-12457500D01*
X16222785Y-12457500D02*
X16232309Y-12438453D01*
X16232309Y-12438453D02*
X16241833Y-12428929D01*
X16241833Y-12428929D02*
X16260880Y-12419405D01*
X16403738Y-12419405D02*
X16403738Y-12457500D01*
X16479928Y-12419405D02*
X16479928Y-12457500D01*
X16775166Y-12695596D02*
X16765642Y-12686072D01*
X16765642Y-12686072D02*
X16746595Y-12657500D01*
X16746595Y-12657500D02*
X16737071Y-12638453D01*
X16737071Y-12638453D02*
X16727547Y-12609881D01*
X16727547Y-12609881D02*
X16718023Y-12562262D01*
X16718023Y-12562262D02*
X16718023Y-12524167D01*
X16718023Y-12524167D02*
X16727547Y-12476548D01*
X16727547Y-12476548D02*
X16737071Y-12447977D01*
X16737071Y-12447977D02*
X16746595Y-12428929D01*
X16746595Y-12428929D02*
X16765642Y-12400357D01*
X16765642Y-12400357D02*
X16775166Y-12390834D01*
X16956119Y-12619405D02*
X16841833Y-12619405D01*
X16898976Y-12619405D02*
X16898976Y-12419405D01*
X16898976Y-12419405D02*
X16879928Y-12447977D01*
X16879928Y-12447977D02*
X16860881Y-12467024D01*
X16860881Y-12467024D02*
X16841833Y-12476548D01*
X17194214Y-12619405D02*
X17194214Y-12419405D01*
X17279928Y-12619405D02*
X17279928Y-12514643D01*
X17279928Y-12514643D02*
X17270405Y-12495596D01*
X17270405Y-12495596D02*
X17251357Y-12486072D01*
X17251357Y-12486072D02*
X17222785Y-12486072D01*
X17222785Y-12486072D02*
X17203738Y-12495596D01*
X17203738Y-12495596D02*
X17194214Y-12505119D01*
X17403738Y-12619405D02*
X17384690Y-12609881D01*
X17384690Y-12609881D02*
X17375166Y-12600357D01*
X17375166Y-12600357D02*
X17365643Y-12581310D01*
X17365643Y-12581310D02*
X17365643Y-12524167D01*
X17365643Y-12524167D02*
X17375166Y-12505119D01*
X17375166Y-12505119D02*
X17384690Y-12495596D01*
X17384690Y-12495596D02*
X17403738Y-12486072D01*
X17403738Y-12486072D02*
X17432309Y-12486072D01*
X17432309Y-12486072D02*
X17451357Y-12495596D01*
X17451357Y-12495596D02*
X17460881Y-12505119D01*
X17460881Y-12505119D02*
X17470405Y-12524167D01*
X17470405Y-12524167D02*
X17470405Y-12581310D01*
X17470405Y-12581310D02*
X17460881Y-12600357D01*
X17460881Y-12600357D02*
X17451357Y-12609881D01*
X17451357Y-12609881D02*
X17432309Y-12619405D01*
X17432309Y-12619405D02*
X17403738Y-12619405D01*
X17584690Y-12619405D02*
X17565643Y-12609881D01*
X17565643Y-12609881D02*
X17556119Y-12590834D01*
X17556119Y-12590834D02*
X17556119Y-12419405D01*
X17737071Y-12609881D02*
X17718024Y-12619405D01*
X17718024Y-12619405D02*
X17679928Y-12619405D01*
X17679928Y-12619405D02*
X17660881Y-12609881D01*
X17660881Y-12609881D02*
X17651357Y-12590834D01*
X17651357Y-12590834D02*
X17651357Y-12514643D01*
X17651357Y-12514643D02*
X17660881Y-12495596D01*
X17660881Y-12495596D02*
X17679928Y-12486072D01*
X17679928Y-12486072D02*
X17718024Y-12486072D01*
X17718024Y-12486072D02*
X17737071Y-12495596D01*
X17737071Y-12495596D02*
X17746595Y-12514643D01*
X17746595Y-12514643D02*
X17746595Y-12533691D01*
X17746595Y-12533691D02*
X17651357Y-12552738D01*
X17813262Y-12695596D02*
X17822786Y-12686072D01*
X17822786Y-12686072D02*
X17841833Y-12657500D01*
X17841833Y-12657500D02*
X17851357Y-12638453D01*
X17851357Y-12638453D02*
X17860881Y-12609881D01*
X17860881Y-12609881D02*
X17870405Y-12562262D01*
X17870405Y-12562262D02*
X17870405Y-12524167D01*
X17870405Y-12524167D02*
X17860881Y-12476548D01*
X17860881Y-12476548D02*
X17851357Y-12447977D01*
X17851357Y-12447977D02*
X17841833Y-12428929D01*
X17841833Y-12428929D02*
X17822786Y-12400357D01*
X17822786Y-12400357D02*
X17813262Y-12390834D01*
X18175167Y-12695596D02*
X18165643Y-12686072D01*
X18165643Y-12686072D02*
X18146595Y-12657500D01*
X18146595Y-12657500D02*
X18137071Y-12638453D01*
X18137071Y-12638453D02*
X18127547Y-12609881D01*
X18127547Y-12609881D02*
X18118024Y-12562262D01*
X18118024Y-12562262D02*
X18118024Y-12524167D01*
X18118024Y-12524167D02*
X18127547Y-12476548D01*
X18127547Y-12476548D02*
X18137071Y-12447977D01*
X18137071Y-12447977D02*
X18146595Y-12428929D01*
X18146595Y-12428929D02*
X18165643Y-12400357D01*
X18165643Y-12400357D02*
X18175167Y-12390834D01*
X18251357Y-12486072D02*
X18251357Y-12619405D01*
X18251357Y-12505119D02*
X18260881Y-12495596D01*
X18260881Y-12495596D02*
X18279928Y-12486072D01*
X18279928Y-12486072D02*
X18308500Y-12486072D01*
X18308500Y-12486072D02*
X18327547Y-12495596D01*
X18327547Y-12495596D02*
X18337071Y-12514643D01*
X18337071Y-12514643D02*
X18337071Y-12619405D01*
X18460881Y-12619405D02*
X18441833Y-12609881D01*
X18441833Y-12609881D02*
X18432309Y-12600357D01*
X18432309Y-12600357D02*
X18422786Y-12581310D01*
X18422786Y-12581310D02*
X18422786Y-12524167D01*
X18422786Y-12524167D02*
X18432309Y-12505119D01*
X18432309Y-12505119D02*
X18441833Y-12495596D01*
X18441833Y-12495596D02*
X18460881Y-12486072D01*
X18460881Y-12486072D02*
X18489452Y-12486072D01*
X18489452Y-12486072D02*
X18508500Y-12495596D01*
X18508500Y-12495596D02*
X18518024Y-12505119D01*
X18518024Y-12505119D02*
X18527547Y-12524167D01*
X18527547Y-12524167D02*
X18527547Y-12581310D01*
X18527547Y-12581310D02*
X18518024Y-12600357D01*
X18518024Y-12600357D02*
X18508500Y-12609881D01*
X18508500Y-12609881D02*
X18489452Y-12619405D01*
X18489452Y-12619405D02*
X18460881Y-12619405D01*
X18584690Y-12486072D02*
X18660881Y-12486072D01*
X18613262Y-12419405D02*
X18613262Y-12590834D01*
X18613262Y-12590834D02*
X18622786Y-12609881D01*
X18622786Y-12609881D02*
X18641833Y-12619405D01*
X18641833Y-12619405D02*
X18660881Y-12619405D01*
X18879928Y-12486072D02*
X18879928Y-12686072D01*
X18879928Y-12495596D02*
X18898976Y-12486072D01*
X18898976Y-12486072D02*
X18937071Y-12486072D01*
X18937071Y-12486072D02*
X18956119Y-12495596D01*
X18956119Y-12495596D02*
X18965643Y-12505119D01*
X18965643Y-12505119D02*
X18975167Y-12524167D01*
X18975167Y-12524167D02*
X18975167Y-12581310D01*
X18975167Y-12581310D02*
X18965643Y-12600357D01*
X18965643Y-12600357D02*
X18956119Y-12609881D01*
X18956119Y-12609881D02*
X18937071Y-12619405D01*
X18937071Y-12619405D02*
X18898976Y-12619405D01*
X18898976Y-12619405D02*
X18879928Y-12609881D01*
X19089452Y-12619405D02*
X19070405Y-12609881D01*
X19070405Y-12609881D02*
X19060881Y-12590834D01*
X19060881Y-12590834D02*
X19060881Y-12419405D01*
X19251357Y-12619405D02*
X19251357Y-12514643D01*
X19251357Y-12514643D02*
X19241833Y-12495596D01*
X19241833Y-12495596D02*
X19222786Y-12486072D01*
X19222786Y-12486072D02*
X19184690Y-12486072D01*
X19184690Y-12486072D02*
X19165643Y-12495596D01*
X19251357Y-12609881D02*
X19232309Y-12619405D01*
X19232309Y-12619405D02*
X19184690Y-12619405D01*
X19184690Y-12619405D02*
X19165643Y-12609881D01*
X19165643Y-12609881D02*
X19156119Y-12590834D01*
X19156119Y-12590834D02*
X19156119Y-12571786D01*
X19156119Y-12571786D02*
X19165643Y-12552738D01*
X19165643Y-12552738D02*
X19184690Y-12543215D01*
X19184690Y-12543215D02*
X19232309Y-12543215D01*
X19232309Y-12543215D02*
X19251357Y-12533691D01*
X19318024Y-12486072D02*
X19394214Y-12486072D01*
X19346595Y-12419405D02*
X19346595Y-12590834D01*
X19346595Y-12590834D02*
X19356119Y-12609881D01*
X19356119Y-12609881D02*
X19375167Y-12619405D01*
X19375167Y-12619405D02*
X19394214Y-12619405D01*
X19537071Y-12609881D02*
X19518024Y-12619405D01*
X19518024Y-12619405D02*
X19479928Y-12619405D01*
X19479928Y-12619405D02*
X19460881Y-12609881D01*
X19460881Y-12609881D02*
X19451357Y-12590834D01*
X19451357Y-12590834D02*
X19451357Y-12514643D01*
X19451357Y-12514643D02*
X19460881Y-12495596D01*
X19460881Y-12495596D02*
X19479928Y-12486072D01*
X19479928Y-12486072D02*
X19518024Y-12486072D01*
X19518024Y-12486072D02*
X19537071Y-12495596D01*
X19537071Y-12495596D02*
X19546595Y-12514643D01*
X19546595Y-12514643D02*
X19546595Y-12533691D01*
X19546595Y-12533691D02*
X19451357Y-12552738D01*
X19718024Y-12619405D02*
X19718024Y-12419405D01*
X19718024Y-12609881D02*
X19698976Y-12619405D01*
X19698976Y-12619405D02*
X19660881Y-12619405D01*
X19660881Y-12619405D02*
X19641833Y-12609881D01*
X19641833Y-12609881D02*
X19632309Y-12600357D01*
X19632309Y-12600357D02*
X19622786Y-12581310D01*
X19622786Y-12581310D02*
X19622786Y-12524167D01*
X19622786Y-12524167D02*
X19632309Y-12505119D01*
X19632309Y-12505119D02*
X19641833Y-12495596D01*
X19641833Y-12495596D02*
X19660881Y-12486072D01*
X19660881Y-12486072D02*
X19698976Y-12486072D01*
X19698976Y-12486072D02*
X19718024Y-12495596D01*
X19794214Y-12695596D02*
X19803738Y-12686072D01*
X19803738Y-12686072D02*
X19822786Y-12657500D01*
X19822786Y-12657500D02*
X19832309Y-12638453D01*
X19832309Y-12638453D02*
X19841833Y-12609881D01*
X19841833Y-12609881D02*
X19851357Y-12562262D01*
X19851357Y-12562262D02*
X19851357Y-12524167D01*
X19851357Y-12524167D02*
X19841833Y-12476548D01*
X19841833Y-12476548D02*
X19832309Y-12447977D01*
X19832309Y-12447977D02*
X19822786Y-12428929D01*
X19822786Y-12428929D02*
X19803738Y-12400357D01*
X19803738Y-12400357D02*
X19794214Y-12390834D01*
M02*
