%TF.GenerationSoftware,KiCad,Pcbnew,8.0.1*%
%TF.CreationDate,2024-03-29T03:10:12+00:00*%
%TF.ProjectId,watch_main,77617463-685f-46d6-9169-6e2e6b696361,rev?*%
%TF.SameCoordinates,Original*%
%TF.FileFunction,Drillmap*%
%TF.FilePolarity,Positive*%
%FSLAX45Y45*%
G04 Gerber Fmt 4.5, Leading zero omitted, Abs format (unit mm)*
G04 Created by KiCad (PCBNEW 8.0.1) date 2024-03-29 03:10:12*
%MOMM*%
%LPD*%
G01*
G04 APERTURE LIST*
%ADD10C,0.100000*%
%ADD11C,0.200000*%
G04 APERTURE END LIST*
D10*
X13205103Y-9016370D02*
X13205103Y-10600206D01*
X13439418Y-8450685D02*
X13971109Y-7918994D01*
X14051464Y-7928639D02*
X14041819Y-7918994D01*
X14205103Y-7864999D02*
X14205103Y-7862552D01*
X14605042Y-11454999D02*
X14605042Y-11404999D01*
X14630042Y-11379999D02*
X15380042Y-11379999D01*
X15380042Y-11479999D02*
X14630042Y-11479999D01*
X15405042Y-11404999D02*
X15405042Y-11454999D01*
X15805103Y-7864999D02*
X15805103Y-7862552D01*
X15825042Y-9874999D02*
X15825042Y-9574999D01*
X15925042Y-9474999D02*
X16075042Y-9474999D01*
X15962000Y-7925206D02*
X15970320Y-7915962D01*
X16075042Y-9974999D02*
X15925042Y-9974999D01*
X16175042Y-9574999D02*
X16175042Y-9874999D01*
X16455103Y-8284999D02*
X16040933Y-7912246D01*
X16805104Y-9234999D02*
X16805104Y-9405000D01*
X16805104Y-10254999D02*
X16805104Y-10434999D01*
X16825104Y-9425000D02*
X16905104Y-9425000D01*
X16905104Y-9425000D02*
X16905104Y-9584999D01*
X16905104Y-9964999D02*
X16905104Y-10234999D01*
X16905104Y-10234999D02*
X16825104Y-10234999D01*
X13205103Y-9016370D02*
G75*
G02*
X13439418Y-8450685I799998J1D01*
G01*
X13243813Y-10771872D02*
G75*
G02*
X13205103Y-10600206I361289J171666D01*
G01*
X13971109Y-7918994D02*
G75*
G02*
X14041819Y-7918994I35355J-35355D01*
G01*
X14205103Y-7862552D02*
G75*
G02*
X14231083Y-7825090I39998J2D01*
G01*
X14205103Y-7864999D02*
G75*
G02*
X14051464Y-7928639I-90000J-1D01*
G01*
X14231083Y-7825090D02*
G75*
G02*
X15779123Y-7825090I774020J-2068243D01*
G01*
X14605042Y-11404999D02*
G75*
G02*
X14630042Y-11379999I25000J0D01*
G01*
X14630042Y-11479999D02*
G75*
G02*
X14605042Y-11454999I-3J24998D01*
G01*
X14915103Y-11882921D02*
G75*
G02*
X15095086Y-11882800I90000J-13013D01*
G01*
X14915103Y-11882921D02*
G75*
G02*
X13243813Y-10771872I90000J1947922D01*
G01*
X15380042Y-11379999D02*
G75*
G02*
X15405041Y-11404999I-3J-25001D01*
G01*
X15405042Y-11454999D02*
G75*
G02*
X15380042Y-11479999I-24998J-3D01*
G01*
X15779123Y-7825090D02*
G75*
G02*
X15805102Y-7862552I-14034J-37470D01*
G01*
X15825042Y-9574999D02*
G75*
G02*
X15925042Y-9475000I100003J-3D01*
G01*
X15925042Y-9974999D02*
G75*
G02*
X15825041Y-9874999I-3J99999D01*
G01*
X15962000Y-7925206D02*
G75*
G02*
X15805103Y-7864999I-66898J60203D01*
G01*
X15970320Y-7915962D02*
G75*
G02*
X16040933Y-7912245I37165J-33451D01*
G01*
X16075042Y-9474999D02*
G75*
G02*
X16175041Y-9574999I-3J-100001D01*
G01*
X16175042Y-9874999D02*
G75*
G02*
X16075042Y-9975000I-99998J-3D01*
G01*
X16455103Y-8284999D02*
G75*
G02*
X16805104Y-9234999I-1114281J-949999D01*
G01*
X16805104Y-10254999D02*
G75*
G02*
X16825104Y-10234994I20007J-1D01*
G01*
X16805103Y-10434999D02*
G75*
G02*
X15095086Y-11882800I-1800000J392242D01*
G01*
X16825104Y-9425000D02*
G75*
G02*
X16805100Y-9405000I-4J20000D01*
G01*
X16770000Y-9935000D02*
X16770000Y-9615000D01*
X16800000Y-9585000D02*
X16905000Y-9585000D01*
X16800000Y-9965000D02*
X16905000Y-9965000D01*
X16770000Y-9615000D02*
G75*
G02*
X16800000Y-9585000I30000J0D01*
G01*
X16800000Y-9965000D02*
G75*
G02*
X16770000Y-9935000I0J30000D01*
G01*
D11*
D10*
X13250000Y-10540000D02*
X13270000Y-10560000D01*
X13270000Y-10540000D02*
X13250000Y-10560000D01*
X13261300Y-9820000D02*
X13281300Y-9840000D01*
X13281300Y-9820000D02*
X13261300Y-9840000D01*
X13261300Y-9920000D02*
X13281300Y-9940000D01*
X13281300Y-9920000D02*
X13261300Y-9940000D01*
X13261300Y-10020000D02*
X13281300Y-10040000D01*
X13281300Y-10020000D02*
X13261300Y-10040000D01*
X13261300Y-10120000D02*
X13281300Y-10140000D01*
X13281300Y-10120000D02*
X13261300Y-10140000D01*
X13261300Y-10220000D02*
X13281300Y-10240000D01*
X13281300Y-10220000D02*
X13261300Y-10240000D01*
X13280000Y-10650000D02*
X13300000Y-10670000D01*
X13300000Y-10650000D02*
X13280000Y-10670000D01*
X13287500Y-8807500D02*
X13307500Y-8827500D01*
X13307500Y-8807500D02*
X13287500Y-8827500D01*
X13290000Y-10720000D02*
X13310000Y-10740000D01*
X13310000Y-10720000D02*
X13290000Y-10740000D01*
X13300000Y-10590000D02*
X13320000Y-10610000D01*
X13320000Y-10590000D02*
X13300000Y-10610000D01*
X13310000Y-10770000D02*
X13330000Y-10790000D01*
X13330000Y-10770000D02*
X13310000Y-10790000D01*
X13320000Y-10820000D02*
X13340000Y-10840000D01*
X13340000Y-10820000D02*
X13320000Y-10840000D01*
X13340000Y-8640000D02*
X13360000Y-8660000D01*
X13360000Y-8640000D02*
X13340000Y-8660000D01*
X13340000Y-8750000D02*
X13360000Y-8770000D01*
X13360000Y-8750000D02*
X13340000Y-8770000D01*
X13340000Y-8970000D02*
X13360000Y-8990000D01*
X13360000Y-8970000D02*
X13340000Y-8990000D01*
X13340000Y-10370000D02*
X13360000Y-10390000D01*
X13360000Y-10370000D02*
X13340000Y-10390000D01*
X13390000Y-8560000D02*
X13410000Y-8580000D01*
X13410000Y-8560000D02*
X13390000Y-8580000D01*
X13390000Y-8690000D02*
X13410000Y-8710000D01*
X13410000Y-8690000D02*
X13390000Y-8710000D01*
X13390000Y-8805000D02*
X13410000Y-8825000D01*
X13410000Y-8805000D02*
X13390000Y-8825000D01*
X13390000Y-8915000D02*
X13410000Y-8935000D01*
X13410000Y-8915000D02*
X13390000Y-8935000D01*
X13390000Y-10420000D02*
X13410000Y-10440000D01*
X13410000Y-10420000D02*
X13390000Y-10440000D01*
X13420000Y-10900000D02*
X13440000Y-10920000D01*
X13440000Y-10900000D02*
X13420000Y-10920000D01*
X13430000Y-10470000D02*
X13450000Y-10490000D01*
X13450000Y-10470000D02*
X13430000Y-10490000D01*
X13430000Y-10540000D02*
X13450000Y-10560000D01*
X13450000Y-10540000D02*
X13430000Y-10560000D01*
X13430000Y-10610000D02*
X13450000Y-10630000D01*
X13450000Y-10610000D02*
X13430000Y-10630000D01*
X13440000Y-8500000D02*
X13460000Y-8520000D01*
X13460000Y-8500000D02*
X13440000Y-8520000D01*
X13440000Y-8630000D02*
X13460000Y-8650000D01*
X13460000Y-8630000D02*
X13440000Y-8650000D01*
X13440000Y-8750000D02*
X13460000Y-8770000D01*
X13460000Y-8750000D02*
X13440000Y-8770000D01*
X13440000Y-8970000D02*
X13460000Y-8990000D01*
X13460000Y-8970000D02*
X13440000Y-8990000D01*
X13440000Y-10370000D02*
X13460000Y-10390000D01*
X13460000Y-10370000D02*
X13440000Y-10390000D01*
X13460000Y-10680000D02*
X13480000Y-10700000D01*
X13480000Y-10680000D02*
X13460000Y-10700000D01*
X13460000Y-10750000D02*
X13480000Y-10770000D01*
X13480000Y-10750000D02*
X13460000Y-10770000D01*
X13460000Y-11030000D02*
X13480000Y-11050000D01*
X13480000Y-11030000D02*
X13460000Y-11050000D01*
X13470000Y-10920000D02*
X13490000Y-10940000D01*
X13490000Y-10920000D02*
X13470000Y-10940000D01*
X13490000Y-8570000D02*
X13510000Y-8590000D01*
X13510000Y-8570000D02*
X13490000Y-8590000D01*
X13490000Y-8690000D02*
X13510000Y-8710000D01*
X13510000Y-8690000D02*
X13490000Y-8710000D01*
X13490000Y-8807500D02*
X13510000Y-8827500D01*
X13510000Y-8807500D02*
X13490000Y-8827500D01*
X13490000Y-8912500D02*
X13510000Y-8932500D01*
X13510000Y-8912500D02*
X13490000Y-8932500D01*
X13490000Y-10420000D02*
X13510000Y-10440000D01*
X13510000Y-10420000D02*
X13490000Y-10440000D01*
X13540000Y-8500000D02*
X13560000Y-8520000D01*
X13560000Y-8500000D02*
X13540000Y-8520000D01*
X13540000Y-8630000D02*
X13560000Y-8650000D01*
X13560000Y-8630000D02*
X13540000Y-8650000D01*
X13540000Y-8750000D02*
X13560000Y-8770000D01*
X13560000Y-8750000D02*
X13540000Y-8770000D01*
X13540000Y-8970000D02*
X13560000Y-8990000D01*
X13560000Y-8970000D02*
X13540000Y-8990000D01*
X13540000Y-10370000D02*
X13560000Y-10390000D01*
X13560000Y-10370000D02*
X13540000Y-10390000D01*
X13540000Y-11130000D02*
X13560000Y-11150000D01*
X13560000Y-11130000D02*
X13540000Y-11150000D01*
X13560000Y-8400000D02*
X13580000Y-8420000D01*
X13580000Y-8400000D02*
X13560000Y-8420000D01*
X13570000Y-10640000D02*
X13590000Y-10660000D01*
X13590000Y-10640000D02*
X13570000Y-10660000D01*
X13570000Y-10710000D02*
X13590000Y-10730000D01*
X13590000Y-10710000D02*
X13570000Y-10730000D01*
X13570000Y-10780000D02*
X13590000Y-10800000D01*
X13590000Y-10780000D02*
X13570000Y-10800000D01*
X13570000Y-11180000D02*
X13590000Y-11200000D01*
X13590000Y-11180000D02*
X13570000Y-11200000D01*
X13580000Y-10560000D02*
X13600000Y-10580000D01*
X13600000Y-10560000D02*
X13580000Y-10580000D01*
X13582500Y-10417500D02*
X13602500Y-10437500D01*
X13602500Y-10417500D02*
X13582500Y-10437500D01*
X13590000Y-8570000D02*
X13610000Y-8590000D01*
X13610000Y-8570000D02*
X13590000Y-8590000D01*
X13590000Y-8690000D02*
X13610000Y-8710000D01*
X13610000Y-8690000D02*
X13590000Y-8710000D01*
X13590000Y-8915000D02*
X13610000Y-8935000D01*
X13610000Y-8915000D02*
X13590000Y-8935000D01*
X13640000Y-8630000D02*
X13660000Y-8650000D01*
X13660000Y-8630000D02*
X13640000Y-8650000D01*
X13640000Y-8970000D02*
X13660000Y-8990000D01*
X13660000Y-8970000D02*
X13640000Y-8990000D01*
X13640000Y-10370000D02*
X13660000Y-10390000D01*
X13660000Y-10370000D02*
X13640000Y-10390000D01*
X13690000Y-8570000D02*
X13710000Y-8590000D01*
X13710000Y-8570000D02*
X13690000Y-8590000D01*
X13690000Y-10600000D02*
X13710000Y-10620000D01*
X13710000Y-10600000D02*
X13690000Y-10620000D01*
X13690663Y-8912767D02*
X13710663Y-8932767D01*
X13710663Y-8912767D02*
X13690663Y-8932767D01*
X13740000Y-8290000D02*
X13760000Y-8310000D01*
X13760000Y-8290000D02*
X13740000Y-8310000D01*
X13740000Y-8500000D02*
X13760000Y-8520000D01*
X13760000Y-8500000D02*
X13740000Y-8520000D01*
X13740000Y-8630000D02*
X13760000Y-8650000D01*
X13760000Y-8630000D02*
X13740000Y-8650000D01*
X13740000Y-8852767D02*
X13760000Y-8872767D01*
X13760000Y-8852767D02*
X13740000Y-8872767D01*
X13740000Y-8970000D02*
X13760000Y-8990000D01*
X13760000Y-8970000D02*
X13740000Y-8990000D01*
X13740000Y-10370000D02*
X13760000Y-10390000D01*
X13760000Y-10370000D02*
X13740000Y-10390000D01*
X13789337Y-8910000D02*
X13809337Y-8930000D01*
X13809337Y-8910000D02*
X13789337Y-8930000D01*
X13790000Y-8570000D02*
X13810000Y-8590000D01*
X13810000Y-8570000D02*
X13790000Y-8590000D01*
X13790000Y-8690000D02*
X13810000Y-8710000D01*
X13810000Y-8690000D02*
X13790000Y-8710000D01*
X13797500Y-10420000D02*
X13817500Y-10440000D01*
X13817500Y-10420000D02*
X13797500Y-10440000D01*
X13820000Y-8290000D02*
X13840000Y-8310000D01*
X13840000Y-8290000D02*
X13820000Y-8310000D01*
X13820000Y-8380000D02*
X13840000Y-8400000D01*
X13840000Y-8380000D02*
X13820000Y-8400000D01*
X13823750Y-8456250D02*
X13843750Y-8476250D01*
X13843750Y-8456250D02*
X13823750Y-8476250D01*
X13830000Y-8216250D02*
X13850000Y-8236250D01*
X13850000Y-8216250D02*
X13830000Y-8236250D01*
X13830000Y-8630000D02*
X13850000Y-8650000D01*
X13850000Y-8630000D02*
X13830000Y-8650000D01*
X13840000Y-8852767D02*
X13860000Y-8872767D01*
X13860000Y-8852767D02*
X13840000Y-8872767D01*
X13840000Y-8970000D02*
X13860000Y-8990000D01*
X13860000Y-8970000D02*
X13840000Y-8990000D01*
X13840000Y-9070000D02*
X13860000Y-9090000D01*
X13860000Y-9070000D02*
X13840000Y-9090000D01*
X13840000Y-9170000D02*
X13860000Y-9190000D01*
X13860000Y-9170000D02*
X13840000Y-9190000D01*
X13840000Y-9270000D02*
X13860000Y-9290000D01*
X13860000Y-9270000D02*
X13840000Y-9290000D01*
X13840000Y-9370000D02*
X13860000Y-9390000D01*
X13860000Y-9370000D02*
X13840000Y-9390000D01*
X13840000Y-9470000D02*
X13860000Y-9490000D01*
X13860000Y-9470000D02*
X13840000Y-9490000D01*
X13840000Y-9570000D02*
X13860000Y-9590000D01*
X13860000Y-9570000D02*
X13840000Y-9590000D01*
X13840000Y-9670000D02*
X13860000Y-9690000D01*
X13860000Y-9670000D02*
X13840000Y-9690000D01*
X13840000Y-9770000D02*
X13860000Y-9790000D01*
X13860000Y-9770000D02*
X13840000Y-9790000D01*
X13840000Y-9870000D02*
X13860000Y-9890000D01*
X13860000Y-9870000D02*
X13840000Y-9890000D01*
X13840000Y-9970000D02*
X13860000Y-9990000D01*
X13860000Y-9970000D02*
X13840000Y-9990000D01*
X13840000Y-10070000D02*
X13860000Y-10090000D01*
X13860000Y-10070000D02*
X13840000Y-10090000D01*
X13840000Y-10170000D02*
X13860000Y-10190000D01*
X13860000Y-10170000D02*
X13840000Y-10190000D01*
X13840000Y-10270000D02*
X13860000Y-10290000D01*
X13860000Y-10270000D02*
X13840000Y-10290000D01*
X13840000Y-10370000D02*
X13860000Y-10390000D01*
X13860000Y-10370000D02*
X13840000Y-10390000D01*
X13840000Y-10710000D02*
X13860000Y-10730000D01*
X13860000Y-10710000D02*
X13840000Y-10730000D01*
X13850000Y-8150000D02*
X13870000Y-8170000D01*
X13870000Y-8150000D02*
X13850000Y-8170000D01*
X13890000Y-8920000D02*
X13910000Y-8940000D01*
X13910000Y-8920000D02*
X13890000Y-8940000D01*
X13890000Y-9020000D02*
X13910000Y-9040000D01*
X13910000Y-9020000D02*
X13890000Y-9040000D01*
X13890000Y-9120000D02*
X13910000Y-9140000D01*
X13910000Y-9120000D02*
X13890000Y-9140000D01*
X13890000Y-9220000D02*
X13910000Y-9240000D01*
X13910000Y-9220000D02*
X13890000Y-9240000D01*
X13890000Y-9320000D02*
X13910000Y-9340000D01*
X13910000Y-9320000D02*
X13890000Y-9340000D01*
X13890000Y-9420000D02*
X13910000Y-9440000D01*
X13910000Y-9420000D02*
X13890000Y-9440000D01*
X13890000Y-9520000D02*
X13910000Y-9540000D01*
X13910000Y-9520000D02*
X13890000Y-9540000D01*
X13890000Y-9620000D02*
X13910000Y-9640000D01*
X13910000Y-9620000D02*
X13890000Y-9640000D01*
X13890000Y-9720000D02*
X13910000Y-9740000D01*
X13910000Y-9720000D02*
X13890000Y-9740000D01*
X13890000Y-9820000D02*
X13910000Y-9840000D01*
X13910000Y-9820000D02*
X13890000Y-9840000D01*
X13890000Y-9920000D02*
X13910000Y-9940000D01*
X13910000Y-9920000D02*
X13890000Y-9940000D01*
X13890000Y-10020000D02*
X13910000Y-10040000D01*
X13910000Y-10020000D02*
X13890000Y-10040000D01*
X13890000Y-10120000D02*
X13910000Y-10140000D01*
X13910000Y-10120000D02*
X13890000Y-10140000D01*
X13890000Y-10220000D02*
X13910000Y-10240000D01*
X13910000Y-10220000D02*
X13890000Y-10240000D01*
X13890000Y-10320000D02*
X13910000Y-10340000D01*
X13910000Y-10320000D02*
X13890000Y-10340000D01*
X13890000Y-10420000D02*
X13910000Y-10440000D01*
X13910000Y-10420000D02*
X13890000Y-10440000D01*
X13910000Y-8090000D02*
X13930000Y-8110000D01*
X13930000Y-8090000D02*
X13910000Y-8110000D01*
X13920000Y-10870000D02*
X13940000Y-10890000D01*
X13940000Y-10870000D02*
X13920000Y-10890000D01*
X13920000Y-11020000D02*
X13940000Y-11040000D01*
X13940000Y-11020000D02*
X13920000Y-11040000D01*
X13920000Y-11170000D02*
X13940000Y-11190000D01*
X13940000Y-11170000D02*
X13920000Y-11190000D01*
X13920000Y-11330000D02*
X13940000Y-11350000D01*
X13940000Y-11330000D02*
X13920000Y-11350000D01*
X13940000Y-8970000D02*
X13960000Y-8990000D01*
X13960000Y-8970000D02*
X13940000Y-8990000D01*
X13940000Y-9070000D02*
X13960000Y-9090000D01*
X13960000Y-9070000D02*
X13940000Y-9090000D01*
X13940000Y-9170000D02*
X13960000Y-9190000D01*
X13960000Y-9170000D02*
X13940000Y-9190000D01*
X13940000Y-9270000D02*
X13960000Y-9290000D01*
X13960000Y-9270000D02*
X13940000Y-9290000D01*
X13940000Y-9370000D02*
X13960000Y-9390000D01*
X13960000Y-9370000D02*
X13940000Y-9390000D01*
X13940000Y-9470000D02*
X13960000Y-9490000D01*
X13960000Y-9470000D02*
X13940000Y-9490000D01*
X13940000Y-9570000D02*
X13960000Y-9590000D01*
X13960000Y-9570000D02*
X13940000Y-9590000D01*
X13940000Y-9670000D02*
X13960000Y-9690000D01*
X13960000Y-9670000D02*
X13940000Y-9690000D01*
X13940000Y-9770000D02*
X13960000Y-9790000D01*
X13960000Y-9770000D02*
X13940000Y-9790000D01*
X13940000Y-9870000D02*
X13960000Y-9890000D01*
X13960000Y-9870000D02*
X13940000Y-9890000D01*
X13940000Y-9970000D02*
X13960000Y-9990000D01*
X13960000Y-9970000D02*
X13940000Y-9990000D01*
X13940000Y-10070000D02*
X13960000Y-10090000D01*
X13960000Y-10070000D02*
X13940000Y-10090000D01*
X13940000Y-10170000D02*
X13960000Y-10190000D01*
X13960000Y-10170000D02*
X13940000Y-10190000D01*
X13940000Y-10270000D02*
X13960000Y-10290000D01*
X13960000Y-10270000D02*
X13940000Y-10290000D01*
X13940000Y-10370000D02*
X13960000Y-10390000D01*
X13960000Y-10370000D02*
X13940000Y-10390000D01*
X13953750Y-8336250D02*
X13973750Y-8356250D01*
X13973750Y-8336250D02*
X13953750Y-8356250D01*
X13960000Y-10510000D02*
X13980000Y-10530000D01*
X13980000Y-10510000D02*
X13960000Y-10530000D01*
X13960000Y-10690000D02*
X13980000Y-10710000D01*
X13980000Y-10690000D02*
X13960000Y-10710000D01*
X13970000Y-8090000D02*
X13990000Y-8110000D01*
X13990000Y-8090000D02*
X13970000Y-8110000D01*
X13970000Y-8740000D02*
X13990000Y-8760000D01*
X13990000Y-8740000D02*
X13970000Y-8760000D01*
X13980000Y-11420000D02*
X14000000Y-11440000D01*
X14000000Y-11420000D02*
X13980000Y-11440000D01*
X14030000Y-8090000D02*
X14050000Y-8110000D01*
X14050000Y-8090000D02*
X14030000Y-8110000D01*
X14045000Y-8705000D02*
X14065000Y-8725000D01*
X14065000Y-8705000D02*
X14045000Y-8725000D01*
X14075000Y-8395000D02*
X14095000Y-8415000D01*
X14095000Y-8395000D02*
X14075000Y-8415000D01*
X14080000Y-8640000D02*
X14100000Y-8660000D01*
X14100000Y-8640000D02*
X14080000Y-8660000D01*
X14100000Y-8070000D02*
X14120000Y-8090000D01*
X14120000Y-8070000D02*
X14100000Y-8090000D01*
X14120000Y-9060000D02*
X14140000Y-9080000D01*
X14140000Y-9060000D02*
X14120000Y-9080000D01*
X14140000Y-11490000D02*
X14160000Y-11510000D01*
X14160000Y-11490000D02*
X14140000Y-11510000D01*
X14150000Y-8895000D02*
X14170000Y-8915000D01*
X14170000Y-8895000D02*
X14150000Y-8915000D01*
X14160451Y-8967431D02*
X14180451Y-8987431D01*
X14180451Y-8967431D02*
X14160451Y-8987431D01*
X14160451Y-9017431D02*
X14180451Y-9037431D01*
X14180451Y-9017431D02*
X14160451Y-9037431D01*
X14170000Y-8070000D02*
X14190000Y-8090000D01*
X14190000Y-8070000D02*
X14170000Y-8090000D01*
X14170000Y-9210000D02*
X14190000Y-9230000D01*
X14190000Y-9210000D02*
X14170000Y-9230000D01*
X14190000Y-8435000D02*
X14210000Y-8455000D01*
X14210000Y-8435000D02*
X14190000Y-8455000D01*
X14190000Y-8535000D02*
X14210000Y-8555000D01*
X14210000Y-8535000D02*
X14190000Y-8555000D01*
X14200000Y-9060000D02*
X14220000Y-9080000D01*
X14220000Y-9060000D02*
X14200000Y-9080000D01*
X14200000Y-9160000D02*
X14220000Y-9180000D01*
X14220000Y-9160000D02*
X14200000Y-9180000D01*
X14200000Y-9260000D02*
X14220000Y-9280000D01*
X14220000Y-9260000D02*
X14200000Y-9280000D01*
X14200000Y-9360000D02*
X14220000Y-9380000D01*
X14220000Y-9360000D02*
X14200000Y-9380000D01*
X14200000Y-9460000D02*
X14220000Y-9480000D01*
X14220000Y-9460000D02*
X14200000Y-9480000D01*
X14210000Y-8895000D02*
X14230000Y-8915000D01*
X14230000Y-8895000D02*
X14210000Y-8915000D01*
X14220000Y-9310000D02*
X14240000Y-9330000D01*
X14240000Y-9310000D02*
X14220000Y-9330000D01*
X14240000Y-7930000D02*
X14260000Y-7950000D01*
X14260000Y-7930000D02*
X14240000Y-7950000D01*
X14242000Y-8070000D02*
X14262000Y-8090000D01*
X14262000Y-8070000D02*
X14242000Y-8090000D01*
X14250000Y-9110000D02*
X14270000Y-9130000D01*
X14270000Y-9110000D02*
X14250000Y-9130000D01*
X14250000Y-9210000D02*
X14270000Y-9230000D01*
X14270000Y-9210000D02*
X14250000Y-9230000D01*
X14250000Y-9410000D02*
X14270000Y-9430000D01*
X14270000Y-9410000D02*
X14250000Y-9430000D01*
X14260000Y-10840000D02*
X14280000Y-10860000D01*
X14280000Y-10840000D02*
X14260000Y-10860000D01*
X14260000Y-11650000D02*
X14280000Y-11670000D01*
X14280000Y-11650000D02*
X14260000Y-11670000D01*
X14270000Y-8895000D02*
X14290000Y-8915000D01*
X14290000Y-8895000D02*
X14270000Y-8915000D01*
X14280000Y-7890000D02*
X14300000Y-7910000D01*
X14300000Y-7890000D02*
X14280000Y-7910000D01*
X14290000Y-8435000D02*
X14310000Y-8455000D01*
X14310000Y-8435000D02*
X14290000Y-8455000D01*
X14290000Y-8535000D02*
X14310000Y-8555000D01*
X14310000Y-8535000D02*
X14290000Y-8555000D01*
X14310000Y-9310000D02*
X14330000Y-9330000D01*
X14330000Y-9310000D02*
X14310000Y-9330000D01*
X14310000Y-9460000D02*
X14330000Y-9480000D01*
X14330000Y-9460000D02*
X14310000Y-9480000D01*
X14310000Y-9560000D02*
X14330000Y-9580000D01*
X14330000Y-9560000D02*
X14310000Y-9580000D01*
X14310000Y-9610000D02*
X14330000Y-9630000D01*
X14330000Y-9610000D02*
X14310000Y-9630000D01*
X14310000Y-10530000D02*
X14330000Y-10550000D01*
X14330000Y-10530000D02*
X14310000Y-10550000D01*
X14310000Y-10640000D02*
X14330000Y-10660000D01*
X14330000Y-10640000D02*
X14310000Y-10660000D01*
X14320000Y-7850000D02*
X14340000Y-7870000D01*
X14340000Y-7850000D02*
X14320000Y-7870000D01*
X14320000Y-9660000D02*
X14340000Y-9680000D01*
X14340000Y-9660000D02*
X14320000Y-9680000D01*
X14330000Y-8210000D02*
X14350000Y-8230000D01*
X14350000Y-8210000D02*
X14330000Y-8230000D01*
X14330000Y-8895000D02*
X14350000Y-8915000D01*
X14350000Y-8895000D02*
X14330000Y-8915000D01*
X14340000Y-10250000D02*
X14360000Y-10270000D01*
X14360000Y-10250000D02*
X14340000Y-10270000D01*
X14349313Y-9880938D02*
X14369313Y-9900938D01*
X14369313Y-9880938D02*
X14349313Y-9900938D01*
X14350000Y-9820000D02*
X14370000Y-9840000D01*
X14370000Y-9820000D02*
X14350000Y-9840000D01*
X14370000Y-9660000D02*
X14390000Y-9680000D01*
X14390000Y-9660000D02*
X14370000Y-9680000D01*
X14380000Y-11240000D02*
X14400000Y-11260000D01*
X14400000Y-11240000D02*
X14380000Y-11260000D01*
X14390000Y-8210000D02*
X14410000Y-8230000D01*
X14410000Y-8210000D02*
X14390000Y-8230000D01*
X14390000Y-8895000D02*
X14410000Y-8915000D01*
X14410000Y-8895000D02*
X14390000Y-8915000D01*
X14390000Y-9910000D02*
X14410000Y-9930000D01*
X14410000Y-9910000D02*
X14390000Y-9930000D01*
X14390000Y-11590000D02*
X14410000Y-11610000D01*
X14410000Y-11590000D02*
X14390000Y-11610000D01*
X14400000Y-8090000D02*
X14420000Y-8110000D01*
X14420000Y-8090000D02*
X14400000Y-8110000D01*
X14400000Y-8396250D02*
X14420000Y-8416250D01*
X14420000Y-8396250D02*
X14400000Y-8416250D01*
X14400000Y-8456250D02*
X14420000Y-8476250D01*
X14420000Y-8456250D02*
X14400000Y-8476250D01*
X14400000Y-8636250D02*
X14420000Y-8656250D01*
X14420000Y-8636250D02*
X14400000Y-8656250D01*
X14420000Y-10330000D02*
X14440000Y-10350000D01*
X14440000Y-10330000D02*
X14420000Y-10350000D01*
X14420000Y-10460000D02*
X14440000Y-10480000D01*
X14440000Y-10460000D02*
X14420000Y-10480000D01*
X14420000Y-10530000D02*
X14440000Y-10550000D01*
X14440000Y-10530000D02*
X14420000Y-10550000D01*
X14420000Y-10640000D02*
X14440000Y-10660000D01*
X14440000Y-10640000D02*
X14420000Y-10660000D01*
X14420000Y-10750000D02*
X14440000Y-10770000D01*
X14440000Y-10750000D02*
X14420000Y-10770000D01*
X14430000Y-9050000D02*
X14450000Y-9070000D01*
X14450000Y-9050000D02*
X14430000Y-9070000D01*
X14470000Y-10350000D02*
X14490000Y-10370000D01*
X14490000Y-10350000D02*
X14470000Y-10370000D01*
X14480000Y-7930000D02*
X14500000Y-7950000D01*
X14500000Y-7930000D02*
X14480000Y-7950000D01*
X14480000Y-10000000D02*
X14500000Y-10020000D01*
X14500000Y-10000000D02*
X14480000Y-10020000D01*
X14490000Y-11360000D02*
X14510000Y-11380000D01*
X14510000Y-11360000D02*
X14490000Y-11380000D01*
X14500000Y-10240000D02*
X14520000Y-10260000D01*
X14520000Y-10240000D02*
X14500000Y-10260000D01*
X14500000Y-10600000D02*
X14520000Y-10620000D01*
X14520000Y-10600000D02*
X14500000Y-10620000D01*
X14500000Y-10710000D02*
X14520000Y-10730000D01*
X14520000Y-10710000D02*
X14500000Y-10730000D01*
X14500000Y-10820000D02*
X14520000Y-10840000D01*
X14520000Y-10820000D02*
X14500000Y-10840000D01*
X14500000Y-11040000D02*
X14520000Y-11060000D01*
X14520000Y-11040000D02*
X14500000Y-11060000D01*
X14500000Y-11150000D02*
X14520000Y-11170000D01*
X14520000Y-11150000D02*
X14500000Y-11170000D01*
X14510000Y-8100000D02*
X14530000Y-8120000D01*
X14530000Y-8100000D02*
X14510000Y-8120000D01*
X14515000Y-8220000D02*
X14535000Y-8240000D01*
X14535000Y-8220000D02*
X14515000Y-8240000D01*
X14530000Y-7880000D02*
X14550000Y-7900000D01*
X14550000Y-7880000D02*
X14530000Y-7900000D01*
X14530000Y-9430000D02*
X14550000Y-9450000D01*
X14550000Y-9430000D02*
X14530000Y-9450000D01*
X14530000Y-9670000D02*
X14550000Y-9690000D01*
X14550000Y-9670000D02*
X14530000Y-9690000D01*
X14530000Y-10020000D02*
X14550000Y-10040000D01*
X14550000Y-10020000D02*
X14530000Y-10040000D01*
X14546250Y-8276250D02*
X14566250Y-8296250D01*
X14566250Y-8276250D02*
X14546250Y-8296250D01*
X14565000Y-7835000D02*
X14585000Y-7855000D01*
X14585000Y-7835000D02*
X14565000Y-7855000D01*
X14580000Y-10000000D02*
X14600000Y-10020000D01*
X14600000Y-10000000D02*
X14580000Y-10020000D01*
X14610000Y-9270000D02*
X14630000Y-9290000D01*
X14630000Y-9270000D02*
X14610000Y-9290000D01*
X14610000Y-9350000D02*
X14630000Y-9370000D01*
X14630000Y-9350000D02*
X14610000Y-9370000D01*
X14610000Y-9430000D02*
X14630000Y-9450000D01*
X14630000Y-9430000D02*
X14610000Y-9450000D01*
X14610000Y-9510000D02*
X14630000Y-9530000D01*
X14630000Y-9510000D02*
X14610000Y-9530000D01*
X14610000Y-9590000D02*
X14630000Y-9610000D01*
X14630000Y-9590000D02*
X14610000Y-9610000D01*
X14610000Y-9750000D02*
X14630000Y-9770000D01*
X14630000Y-9750000D02*
X14610000Y-9770000D01*
X14610000Y-9830000D02*
X14630000Y-9850000D01*
X14630000Y-9830000D02*
X14610000Y-9850000D01*
X14610000Y-9910000D02*
X14630000Y-9930000D01*
X14630000Y-9910000D02*
X14610000Y-9930000D01*
X14640000Y-8825000D02*
X14660000Y-8845000D01*
X14660000Y-8825000D02*
X14640000Y-8845000D01*
X14640000Y-11640000D02*
X14660000Y-11660000D01*
X14660000Y-11640000D02*
X14640000Y-11660000D01*
X14650000Y-8760000D02*
X14670000Y-8780000D01*
X14670000Y-8760000D02*
X14650000Y-8780000D01*
X14660000Y-8396250D02*
X14680000Y-8416250D01*
X14680000Y-8396250D02*
X14660000Y-8416250D01*
X14660000Y-8490000D02*
X14680000Y-8510000D01*
X14680000Y-8490000D02*
X14660000Y-8510000D01*
X14690000Y-8960000D02*
X14710000Y-8980000D01*
X14710000Y-8960000D02*
X14690000Y-8980000D01*
X14690000Y-9510000D02*
X14710000Y-9530000D01*
X14710000Y-9510000D02*
X14690000Y-9530000D01*
X14690000Y-9590000D02*
X14710000Y-9610000D01*
X14710000Y-9590000D02*
X14690000Y-9610000D01*
X14690000Y-9750000D02*
X14710000Y-9770000D01*
X14710000Y-9750000D02*
X14690000Y-9770000D01*
X14690000Y-9830000D02*
X14710000Y-9850000D01*
X14710000Y-9830000D02*
X14690000Y-9850000D01*
X14693798Y-8854614D02*
X14713798Y-8874614D01*
X14713798Y-8854614D02*
X14693798Y-8874614D01*
X14700000Y-8805000D02*
X14720000Y-8825000D01*
X14720000Y-8805000D02*
X14700000Y-8825000D01*
X14710000Y-8450000D02*
X14730000Y-8470000D01*
X14730000Y-8450000D02*
X14710000Y-8470000D01*
X14720000Y-7930000D02*
X14740000Y-7950000D01*
X14740000Y-7930000D02*
X14720000Y-7950000D01*
X14720000Y-8167500D02*
X14740000Y-8187500D01*
X14740000Y-8167500D02*
X14720000Y-8187500D01*
X14720000Y-10710000D02*
X14740000Y-10730000D01*
X14740000Y-10710000D02*
X14720000Y-10730000D01*
X14725000Y-8910000D02*
X14745000Y-8930000D01*
X14745000Y-8910000D02*
X14725000Y-8930000D01*
X14725000Y-9005000D02*
X14745000Y-9025000D01*
X14745000Y-9005000D02*
X14725000Y-9025000D01*
X14730000Y-10100000D02*
X14750000Y-10120000D01*
X14750000Y-10100000D02*
X14730000Y-10120000D01*
X14730000Y-10510000D02*
X14750000Y-10530000D01*
X14750000Y-10510000D02*
X14730000Y-10530000D01*
X14730000Y-11280000D02*
X14750000Y-11300000D01*
X14750000Y-11280000D02*
X14730000Y-11300000D01*
X14740000Y-11100000D02*
X14760000Y-11120000D01*
X14760000Y-11100000D02*
X14740000Y-11120000D01*
X14750000Y-10192500D02*
X14770000Y-10212500D01*
X14770000Y-10192500D02*
X14750000Y-10212500D01*
X14750000Y-10870000D02*
X14770000Y-10890000D01*
X14770000Y-10870000D02*
X14750000Y-10890000D01*
X14760000Y-10350000D02*
X14780000Y-10370000D01*
X14780000Y-10350000D02*
X14760000Y-10370000D01*
X14770000Y-9190000D02*
X14790000Y-9210000D01*
X14790000Y-9190000D02*
X14770000Y-9210000D01*
X14770000Y-9270000D02*
X14790000Y-9290000D01*
X14790000Y-9270000D02*
X14770000Y-9290000D01*
X14770000Y-9350000D02*
X14790000Y-9370000D01*
X14790000Y-9350000D02*
X14770000Y-9370000D01*
X14770000Y-9430000D02*
X14790000Y-9450000D01*
X14790000Y-9430000D02*
X14770000Y-9450000D01*
X14770000Y-9510000D02*
X14790000Y-9530000D01*
X14790000Y-9510000D02*
X14770000Y-9530000D01*
X14770000Y-9750000D02*
X14790000Y-9770000D01*
X14790000Y-9750000D02*
X14770000Y-9770000D01*
X14770000Y-9830000D02*
X14790000Y-9850000D01*
X14790000Y-9830000D02*
X14770000Y-9850000D01*
X14770000Y-11190000D02*
X14790000Y-11210000D01*
X14790000Y-11190000D02*
X14770000Y-11210000D01*
X14780000Y-11010000D02*
X14800000Y-11030000D01*
X14800000Y-11010000D02*
X14780000Y-11030000D01*
X14790000Y-7790000D02*
X14810000Y-7810000D01*
X14810000Y-7790000D02*
X14790000Y-7810000D01*
X14810000Y-10510000D02*
X14830000Y-10530000D01*
X14830000Y-10510000D02*
X14810000Y-10530000D01*
X14810000Y-11280000D02*
X14830000Y-11300000D01*
X14830000Y-11280000D02*
X14810000Y-11300000D01*
X14810000Y-11790000D02*
X14830000Y-11810000D01*
X14830000Y-11790000D02*
X14810000Y-11810000D01*
X14820000Y-11110000D02*
X14840000Y-11130000D01*
X14840000Y-11110000D02*
X14820000Y-11130000D01*
X14840000Y-8270000D02*
X14860000Y-8290000D01*
X14860000Y-8270000D02*
X14840000Y-8290000D01*
X14840000Y-8370000D02*
X14860000Y-8390000D01*
X14860000Y-8370000D02*
X14840000Y-8390000D01*
X14850000Y-9190000D02*
X14870000Y-9210000D01*
X14870000Y-9190000D02*
X14850000Y-9210000D01*
X14850000Y-9270000D02*
X14870000Y-9290000D01*
X14870000Y-9270000D02*
X14850000Y-9290000D01*
X14850000Y-9350000D02*
X14870000Y-9370000D01*
X14870000Y-9350000D02*
X14850000Y-9370000D01*
X14850000Y-9430000D02*
X14870000Y-9450000D01*
X14870000Y-9430000D02*
X14850000Y-9450000D01*
X14850000Y-9510000D02*
X14870000Y-9530000D01*
X14870000Y-9510000D02*
X14850000Y-9530000D01*
X14850000Y-9590000D02*
X14870000Y-9610000D01*
X14870000Y-9590000D02*
X14850000Y-9610000D01*
X14850000Y-9750000D02*
X14870000Y-9770000D01*
X14870000Y-9750000D02*
X14850000Y-9770000D01*
X14850000Y-9830000D02*
X14870000Y-9850000D01*
X14870000Y-9830000D02*
X14850000Y-9850000D01*
X14880000Y-8090000D02*
X14900000Y-8110000D01*
X14900000Y-8090000D02*
X14880000Y-8110000D01*
X14885000Y-8225000D02*
X14905000Y-8245000D01*
X14905000Y-8225000D02*
X14885000Y-8245000D01*
X14890000Y-7790000D02*
X14910000Y-7810000D01*
X14910000Y-7790000D02*
X14890000Y-7810000D01*
X14890000Y-7890000D02*
X14910000Y-7910000D01*
X14910000Y-7890000D02*
X14890000Y-7910000D01*
X14890000Y-10735000D02*
X14910000Y-10755000D01*
X14910000Y-10735000D02*
X14890000Y-10755000D01*
X14920000Y-11320000D02*
X14940000Y-11340000D01*
X14940000Y-11320000D02*
X14920000Y-11340000D01*
X14930000Y-9190000D02*
X14950000Y-9210000D01*
X14950000Y-9190000D02*
X14930000Y-9210000D01*
X14930000Y-9270000D02*
X14950000Y-9290000D01*
X14950000Y-9270000D02*
X14930000Y-9290000D01*
X14930000Y-9350000D02*
X14950000Y-9370000D01*
X14950000Y-9350000D02*
X14930000Y-9370000D01*
X14930000Y-9430000D02*
X14950000Y-9450000D01*
X14950000Y-9430000D02*
X14930000Y-9450000D01*
X14930000Y-9670000D02*
X14950000Y-9690000D01*
X14950000Y-9670000D02*
X14930000Y-9690000D01*
X14930000Y-9750000D02*
X14950000Y-9770000D01*
X14950000Y-9750000D02*
X14930000Y-9770000D01*
X14930000Y-9830000D02*
X14950000Y-9850000D01*
X14950000Y-9830000D02*
X14930000Y-9850000D01*
X14934000Y-10500000D02*
X14954000Y-10520000D01*
X14954000Y-10500000D02*
X14934000Y-10520000D01*
X14970000Y-10730000D02*
X14990000Y-10750000D01*
X14990000Y-10730000D02*
X14970000Y-10750000D01*
X14980000Y-10860000D02*
X15000000Y-10880000D01*
X15000000Y-10860000D02*
X14980000Y-10880000D01*
X14990000Y-7790000D02*
X15010000Y-7810000D01*
X15010000Y-7790000D02*
X14990000Y-7810000D01*
X14990000Y-7890000D02*
X15010000Y-7910000D01*
X15010000Y-7890000D02*
X14990000Y-7910000D01*
X14990000Y-8120000D02*
X15010000Y-8140000D01*
X15010000Y-8120000D02*
X14990000Y-8140000D01*
X14990000Y-8225000D02*
X15010000Y-8245000D01*
X15010000Y-8225000D02*
X14990000Y-8245000D01*
X14990000Y-8320000D02*
X15010000Y-8340000D01*
X15010000Y-8320000D02*
X14990000Y-8340000D01*
X15000000Y-10120000D02*
X15020000Y-10140000D01*
X15020000Y-10120000D02*
X15000000Y-10140000D01*
X15000000Y-10500000D02*
X15020000Y-10520000D01*
X15020000Y-10500000D02*
X15000000Y-10520000D01*
X15010000Y-9190000D02*
X15030000Y-9210000D01*
X15030000Y-9190000D02*
X15010000Y-9210000D01*
X15010000Y-9270000D02*
X15030000Y-9290000D01*
X15030000Y-9270000D02*
X15010000Y-9290000D01*
X15010000Y-9350000D02*
X15030000Y-9370000D01*
X15030000Y-9350000D02*
X15010000Y-9370000D01*
X15010000Y-9510000D02*
X15030000Y-9530000D01*
X15030000Y-9510000D02*
X15010000Y-9530000D01*
X15010000Y-9590000D02*
X15030000Y-9610000D01*
X15030000Y-9590000D02*
X15010000Y-9610000D01*
X15010000Y-9670000D02*
X15030000Y-9690000D01*
X15030000Y-9670000D02*
X15010000Y-9690000D01*
X15010000Y-9750000D02*
X15030000Y-9770000D01*
X15030000Y-9750000D02*
X15010000Y-9770000D01*
X15010000Y-9830000D02*
X15030000Y-9850000D01*
X15030000Y-9830000D02*
X15010000Y-9850000D01*
X15010000Y-9910000D02*
X15030000Y-9930000D01*
X15030000Y-9910000D02*
X15010000Y-9930000D01*
X15040000Y-10680000D02*
X15060000Y-10700000D01*
X15060000Y-10680000D02*
X15040000Y-10700000D01*
X15040000Y-10740000D02*
X15060000Y-10760000D01*
X15060000Y-10740000D02*
X15040000Y-10760000D01*
X15052000Y-11000000D02*
X15072000Y-11020000D01*
X15072000Y-11000000D02*
X15052000Y-11020000D01*
X15060000Y-10500000D02*
X15080000Y-10520000D01*
X15080000Y-10500000D02*
X15060000Y-10520000D01*
X15060000Y-10850000D02*
X15080000Y-10870000D01*
X15080000Y-10850000D02*
X15060000Y-10870000D01*
X15060000Y-11050000D02*
X15080000Y-11070000D01*
X15080000Y-11050000D02*
X15060000Y-11070000D01*
X15060000Y-11310000D02*
X15080000Y-11330000D01*
X15080000Y-11310000D02*
X15060000Y-11330000D01*
X15080000Y-8940000D02*
X15100000Y-8960000D01*
X15100000Y-8940000D02*
X15080000Y-8960000D01*
X15090000Y-7790000D02*
X15110000Y-7810000D01*
X15110000Y-7790000D02*
X15090000Y-7810000D01*
X15090000Y-7890000D02*
X15110000Y-7910000D01*
X15110000Y-7890000D02*
X15090000Y-7910000D01*
X15090000Y-8220000D02*
X15110000Y-8240000D01*
X15110000Y-8220000D02*
X15090000Y-8240000D01*
X15090000Y-8320000D02*
X15110000Y-8340000D01*
X15110000Y-8320000D02*
X15090000Y-8340000D01*
X15090000Y-8420000D02*
X15110000Y-8440000D01*
X15110000Y-8420000D02*
X15090000Y-8440000D01*
X15090000Y-9430000D02*
X15110000Y-9450000D01*
X15110000Y-9430000D02*
X15090000Y-9450000D01*
X15090000Y-9510000D02*
X15110000Y-9530000D01*
X15110000Y-9510000D02*
X15090000Y-9530000D01*
X15090000Y-9590000D02*
X15110000Y-9610000D01*
X15110000Y-9590000D02*
X15090000Y-9610000D01*
X15090000Y-9670000D02*
X15110000Y-9690000D01*
X15110000Y-9670000D02*
X15090000Y-9690000D01*
X15090000Y-9750000D02*
X15110000Y-9770000D01*
X15110000Y-9750000D02*
X15090000Y-9770000D01*
X15090000Y-9830000D02*
X15110000Y-9850000D01*
X15110000Y-9830000D02*
X15090000Y-9850000D01*
X15100000Y-10690000D02*
X15120000Y-10710000D01*
X15120000Y-10690000D02*
X15100000Y-10710000D01*
X15100000Y-11280000D02*
X15120000Y-11300000D01*
X15120000Y-11280000D02*
X15100000Y-11300000D01*
X15108145Y-10877354D02*
X15128145Y-10897354D01*
X15128145Y-10877354D02*
X15108145Y-10897354D01*
X15110000Y-10740000D02*
X15130000Y-10760000D01*
X15130000Y-10740000D02*
X15110000Y-10760000D01*
X15140000Y-11640000D02*
X15160000Y-11660000D01*
X15160000Y-11640000D02*
X15140000Y-11660000D01*
X15142000Y-7982000D02*
X15162000Y-8002000D01*
X15162000Y-7982000D02*
X15142000Y-8002000D01*
X15160000Y-10070000D02*
X15180000Y-10090000D01*
X15180000Y-10070000D02*
X15160000Y-10090000D01*
X15160000Y-11000000D02*
X15180000Y-11020000D01*
X15180000Y-11000000D02*
X15160000Y-11020000D01*
X15165000Y-10845000D02*
X15185000Y-10865000D01*
X15185000Y-10845000D02*
X15165000Y-10865000D01*
X15170000Y-9110000D02*
X15190000Y-9130000D01*
X15190000Y-9110000D02*
X15170000Y-9130000D01*
X15170000Y-9190000D02*
X15190000Y-9210000D01*
X15190000Y-9190000D02*
X15170000Y-9210000D01*
X15170000Y-9270000D02*
X15190000Y-9290000D01*
X15190000Y-9270000D02*
X15170000Y-9290000D01*
X15170000Y-9350000D02*
X15190000Y-9370000D01*
X15190000Y-9350000D02*
X15170000Y-9370000D01*
X15170000Y-9510000D02*
X15190000Y-9530000D01*
X15190000Y-9510000D02*
X15170000Y-9530000D01*
X15170000Y-9590000D02*
X15190000Y-9610000D01*
X15190000Y-9590000D02*
X15170000Y-9610000D01*
X15170000Y-9670000D02*
X15190000Y-9690000D01*
X15190000Y-9670000D02*
X15170000Y-9690000D01*
X15170000Y-9750000D02*
X15190000Y-9770000D01*
X15190000Y-9750000D02*
X15170000Y-9770000D01*
X15170000Y-9830000D02*
X15190000Y-9850000D01*
X15190000Y-9830000D02*
X15170000Y-9850000D01*
X15170000Y-9910000D02*
X15190000Y-9930000D01*
X15190000Y-9910000D02*
X15170000Y-9930000D01*
X15190000Y-7790000D02*
X15210000Y-7810000D01*
X15210000Y-7790000D02*
X15190000Y-7810000D01*
X15190000Y-7890000D02*
X15210000Y-7910000D01*
X15210000Y-7890000D02*
X15190000Y-7910000D01*
X15190000Y-8120000D02*
X15210000Y-8140000D01*
X15210000Y-8120000D02*
X15190000Y-8140000D01*
X15190000Y-8220000D02*
X15210000Y-8240000D01*
X15210000Y-8220000D02*
X15190000Y-8240000D01*
X15190000Y-8320000D02*
X15210000Y-8340000D01*
X15210000Y-8320000D02*
X15190000Y-8340000D01*
X15190000Y-8420000D02*
X15210000Y-8440000D01*
X15210000Y-8420000D02*
X15190000Y-8440000D01*
X15190000Y-8520000D02*
X15210000Y-8540000D01*
X15210000Y-8520000D02*
X15190000Y-8540000D01*
X15200000Y-11800000D02*
X15220000Y-11820000D01*
X15220000Y-11800000D02*
X15200000Y-11820000D01*
X15210000Y-10750000D02*
X15230000Y-10770000D01*
X15230000Y-10750000D02*
X15210000Y-10770000D01*
X15238000Y-7982000D02*
X15258000Y-8002000D01*
X15258000Y-7982000D02*
X15238000Y-8002000D01*
X15240000Y-10320000D02*
X15260000Y-10340000D01*
X15260000Y-10320000D02*
X15240000Y-10340000D01*
X15250000Y-9110000D02*
X15270000Y-9130000D01*
X15270000Y-9110000D02*
X15250000Y-9130000D01*
X15250000Y-9270000D02*
X15270000Y-9290000D01*
X15270000Y-9270000D02*
X15250000Y-9290000D01*
X15250000Y-9350000D02*
X15270000Y-9370000D01*
X15270000Y-9350000D02*
X15250000Y-9370000D01*
X15250000Y-9430000D02*
X15270000Y-9450000D01*
X15270000Y-9430000D02*
X15250000Y-9450000D01*
X15250000Y-9510000D02*
X15270000Y-9530000D01*
X15270000Y-9510000D02*
X15250000Y-9530000D01*
X15250000Y-9590000D02*
X15270000Y-9610000D01*
X15270000Y-9590000D02*
X15250000Y-9610000D01*
X15250000Y-9670000D02*
X15270000Y-9690000D01*
X15270000Y-9670000D02*
X15250000Y-9690000D01*
X15250000Y-9750000D02*
X15270000Y-9770000D01*
X15270000Y-9750000D02*
X15250000Y-9770000D01*
X15250000Y-9830000D02*
X15270000Y-9850000D01*
X15270000Y-9830000D02*
X15250000Y-9850000D01*
X15250000Y-9910000D02*
X15270000Y-9930000D01*
X15270000Y-9910000D02*
X15250000Y-9930000D01*
X15270000Y-11610000D02*
X15290000Y-11630000D01*
X15290000Y-11610000D02*
X15270000Y-11630000D01*
X15290000Y-7790000D02*
X15310000Y-7810000D01*
X15310000Y-7790000D02*
X15290000Y-7810000D01*
X15290000Y-7890000D02*
X15310000Y-7910000D01*
X15310000Y-7890000D02*
X15290000Y-7910000D01*
X15290000Y-8120000D02*
X15310000Y-8140000D01*
X15310000Y-8120000D02*
X15290000Y-8140000D01*
X15290000Y-8220000D02*
X15310000Y-8240000D01*
X15310000Y-8220000D02*
X15290000Y-8240000D01*
X15290000Y-8320000D02*
X15310000Y-8340000D01*
X15310000Y-8320000D02*
X15290000Y-8340000D01*
X15290000Y-8420000D02*
X15310000Y-8440000D01*
X15310000Y-8420000D02*
X15290000Y-8440000D01*
X15290000Y-8520000D02*
X15310000Y-8540000D01*
X15310000Y-8520000D02*
X15290000Y-8540000D01*
X15290000Y-10880000D02*
X15310000Y-10900000D01*
X15310000Y-10880000D02*
X15290000Y-10900000D01*
X15296671Y-10333329D02*
X15316671Y-10353329D01*
X15316671Y-10333329D02*
X15296671Y-10353329D01*
X15300000Y-10390000D02*
X15320000Y-10410000D01*
X15320000Y-10390000D02*
X15300000Y-10410000D01*
X15310000Y-11270000D02*
X15330000Y-11290000D01*
X15330000Y-11270000D02*
X15310000Y-11290000D01*
X15330000Y-9270000D02*
X15350000Y-9290000D01*
X15350000Y-9270000D02*
X15330000Y-9290000D01*
X15330000Y-9430000D02*
X15350000Y-9450000D01*
X15350000Y-9430000D02*
X15330000Y-9450000D01*
X15330000Y-9510000D02*
X15350000Y-9530000D01*
X15350000Y-9510000D02*
X15330000Y-9530000D01*
X15340000Y-10840000D02*
X15360000Y-10860000D01*
X15360000Y-10840000D02*
X15340000Y-10860000D01*
X15360000Y-11305000D02*
X15380000Y-11325000D01*
X15380000Y-11305000D02*
X15360000Y-11325000D01*
X15390000Y-7790000D02*
X15410000Y-7810000D01*
X15410000Y-7790000D02*
X15390000Y-7810000D01*
X15390000Y-7890000D02*
X15410000Y-7910000D01*
X15410000Y-7890000D02*
X15390000Y-7910000D01*
X15390000Y-7990000D02*
X15410000Y-8010000D01*
X15410000Y-7990000D02*
X15390000Y-8010000D01*
X15410000Y-9030000D02*
X15430000Y-9050000D01*
X15430000Y-9030000D02*
X15410000Y-9050000D01*
X15410000Y-10860000D02*
X15430000Y-10880000D01*
X15430000Y-10860000D02*
X15410000Y-10880000D01*
X15420000Y-8920000D02*
X15440000Y-8940000D01*
X15440000Y-8920000D02*
X15420000Y-8940000D01*
X15425000Y-11305000D02*
X15445000Y-11325000D01*
X15445000Y-11305000D02*
X15425000Y-11325000D01*
X15434188Y-9535812D02*
X15454188Y-9555812D01*
X15454188Y-9535812D02*
X15434188Y-9555812D01*
X15435000Y-9595000D02*
X15455000Y-9615000D01*
X15455000Y-9595000D02*
X15435000Y-9615000D01*
X15440000Y-9960000D02*
X15460000Y-9980000D01*
X15460000Y-9960000D02*
X15440000Y-9980000D01*
X15440000Y-10750000D02*
X15460000Y-10770000D01*
X15460000Y-10750000D02*
X15440000Y-10770000D01*
X15476671Y-10333329D02*
X15496671Y-10353329D01*
X15496671Y-10333329D02*
X15476671Y-10353329D01*
X15481603Y-9932265D02*
X15501603Y-9952265D01*
X15501603Y-9932265D02*
X15481603Y-9952265D01*
X15490000Y-7790000D02*
X15510000Y-7810000D01*
X15510000Y-7790000D02*
X15490000Y-7810000D01*
X15490000Y-7890000D02*
X15510000Y-7910000D01*
X15510000Y-7890000D02*
X15490000Y-7910000D01*
X15490000Y-11305000D02*
X15510000Y-11325000D01*
X15510000Y-11305000D02*
X15490000Y-11325000D01*
X15510000Y-9385000D02*
X15530000Y-9405000D01*
X15530000Y-9385000D02*
X15510000Y-9405000D01*
X15530000Y-8920000D02*
X15550000Y-8940000D01*
X15550000Y-8920000D02*
X15530000Y-8940000D01*
X15540000Y-10710000D02*
X15560000Y-10730000D01*
X15560000Y-10710000D02*
X15540000Y-10730000D01*
X15552500Y-9612500D02*
X15572500Y-9632500D01*
X15572500Y-9612500D02*
X15552500Y-9632500D01*
X15560000Y-11000000D02*
X15580000Y-11020000D01*
X15580000Y-11000000D02*
X15560000Y-11020000D01*
X15560000Y-11440000D02*
X15580000Y-11460000D01*
X15580000Y-11440000D02*
X15560000Y-11460000D01*
X15565000Y-9370000D02*
X15585000Y-9390000D01*
X15585000Y-9370000D02*
X15565000Y-9390000D01*
X15570000Y-8300000D02*
X15590000Y-8320000D01*
X15590000Y-8300000D02*
X15570000Y-8320000D01*
X15570000Y-9550000D02*
X15590000Y-9570000D01*
X15590000Y-9550000D02*
X15570000Y-9570000D01*
X15580000Y-11070000D02*
X15600000Y-11090000D01*
X15600000Y-11070000D02*
X15580000Y-11090000D01*
X15580000Y-11150000D02*
X15600000Y-11170000D01*
X15600000Y-11150000D02*
X15580000Y-11170000D01*
X15590000Y-10830000D02*
X15610000Y-10850000D01*
X15610000Y-10830000D02*
X15590000Y-10850000D01*
X15620000Y-9220000D02*
X15640000Y-9240000D01*
X15640000Y-9220000D02*
X15620000Y-9240000D01*
X15630000Y-10660000D02*
X15650000Y-10680000D01*
X15650000Y-10660000D02*
X15630000Y-10680000D01*
X15635000Y-9755000D02*
X15655000Y-9775000D01*
X15655000Y-9755000D02*
X15635000Y-9775000D01*
X15638715Y-10871285D02*
X15658715Y-10891285D01*
X15658715Y-10871285D02*
X15638715Y-10891285D01*
X15638715Y-10921285D02*
X15658715Y-10941285D01*
X15658715Y-10921285D02*
X15638715Y-10941285D01*
X15640000Y-8300000D02*
X15660000Y-8320000D01*
X15660000Y-8300000D02*
X15640000Y-8320000D01*
X15640000Y-11200000D02*
X15660000Y-11220000D01*
X15660000Y-11200000D02*
X15640000Y-11220000D01*
X15650000Y-7920000D02*
X15670000Y-7940000D01*
X15670000Y-7920000D02*
X15650000Y-7940000D01*
X15650000Y-10210000D02*
X15670000Y-10230000D01*
X15670000Y-10210000D02*
X15650000Y-10230000D01*
X15660000Y-10520000D02*
X15680000Y-10540000D01*
X15680000Y-10520000D02*
X15660000Y-10540000D01*
X15660000Y-10980000D02*
X15680000Y-11000000D01*
X15680000Y-10980000D02*
X15660000Y-11000000D01*
X15670000Y-8480000D02*
X15690000Y-8500000D01*
X15690000Y-8480000D02*
X15670000Y-8500000D01*
X15680000Y-8420000D02*
X15700000Y-8440000D01*
X15700000Y-8420000D02*
X15680000Y-8440000D01*
X15680000Y-9220000D02*
X15700000Y-9240000D01*
X15700000Y-9220000D02*
X15680000Y-9240000D01*
X15690000Y-8540000D02*
X15710000Y-8560000D01*
X15710000Y-8540000D02*
X15690000Y-8560000D01*
X15690000Y-10570000D02*
X15710000Y-10590000D01*
X15710000Y-10570000D02*
X15690000Y-10590000D01*
X15690000Y-10830000D02*
X15710000Y-10850000D01*
X15710000Y-10830000D02*
X15690000Y-10850000D01*
X15710000Y-7920000D02*
X15730000Y-7940000D01*
X15730000Y-7920000D02*
X15710000Y-7940000D01*
X15710000Y-8300000D02*
X15730000Y-8320000D01*
X15730000Y-8300000D02*
X15710000Y-8320000D01*
X15710000Y-11440000D02*
X15730000Y-11460000D01*
X15730000Y-11440000D02*
X15710000Y-11460000D01*
X15711000Y-8170000D02*
X15731000Y-8190000D01*
X15731000Y-8170000D02*
X15711000Y-8190000D01*
X15715000Y-11365000D02*
X15735000Y-11385000D01*
X15735000Y-11365000D02*
X15715000Y-11385000D01*
X15730000Y-8440000D02*
X15750000Y-8460000D01*
X15750000Y-8440000D02*
X15730000Y-8460000D01*
X15750000Y-8850000D02*
X15770000Y-8870000D01*
X15770000Y-8850000D02*
X15750000Y-8870000D01*
X15750000Y-8910000D02*
X15770000Y-8930000D01*
X15770000Y-8910000D02*
X15750000Y-8930000D01*
X15750000Y-8980000D02*
X15770000Y-9000000D01*
X15770000Y-8980000D02*
X15750000Y-9000000D01*
X15750000Y-9040000D02*
X15770000Y-9060000D01*
X15770000Y-9040000D02*
X15750000Y-9060000D01*
X15760000Y-7940000D02*
X15780000Y-7960000D01*
X15780000Y-7940000D02*
X15760000Y-7960000D01*
X15760000Y-8014500D02*
X15780000Y-8034500D01*
X15780000Y-8014500D02*
X15760000Y-8034500D01*
X15760000Y-9710000D02*
X15780000Y-9730000D01*
X15780000Y-9710000D02*
X15760000Y-9730000D01*
X15760000Y-9775000D02*
X15780000Y-9795000D01*
X15780000Y-9775000D02*
X15760000Y-9795000D01*
X15760000Y-9840000D02*
X15780000Y-9860000D01*
X15780000Y-9840000D02*
X15760000Y-9860000D01*
X15770000Y-8610000D02*
X15790000Y-8630000D01*
X15790000Y-8610000D02*
X15770000Y-8630000D01*
X15780000Y-9410000D02*
X15800000Y-9430000D01*
X15800000Y-9410000D02*
X15780000Y-9430000D01*
X15800000Y-8290000D02*
X15820000Y-8310000D01*
X15820000Y-8290000D02*
X15800000Y-8310000D01*
X15800000Y-11290000D02*
X15820000Y-11310000D01*
X15820000Y-11290000D02*
X15800000Y-11310000D01*
X15815000Y-8065000D02*
X15835000Y-8085000D01*
X15835000Y-8065000D02*
X15815000Y-8085000D01*
X15820000Y-8560000D02*
X15840000Y-8580000D01*
X15840000Y-8560000D02*
X15820000Y-8580000D01*
X15820000Y-10770000D02*
X15840000Y-10790000D01*
X15840000Y-10770000D02*
X15820000Y-10790000D01*
X15820000Y-11390000D02*
X15840000Y-11410000D01*
X15840000Y-11390000D02*
X15820000Y-11410000D01*
X15835130Y-10990000D02*
X15855130Y-11010000D01*
X15855130Y-10990000D02*
X15835130Y-11010000D01*
X15840000Y-10500000D02*
X15860000Y-10520000D01*
X15860000Y-10500000D02*
X15840000Y-10520000D01*
X15850000Y-8680000D02*
X15870000Y-8700000D01*
X15870000Y-8680000D02*
X15850000Y-8700000D01*
X15850000Y-10380000D02*
X15870000Y-10400000D01*
X15870000Y-10380000D02*
X15850000Y-10400000D01*
X15850000Y-10440000D02*
X15870000Y-10460000D01*
X15870000Y-10440000D02*
X15850000Y-10460000D01*
X15860000Y-11060000D02*
X15880000Y-11080000D01*
X15880000Y-11060000D02*
X15860000Y-11080000D01*
X15870000Y-8510000D02*
X15890000Y-8530000D01*
X15890000Y-8510000D02*
X15870000Y-8530000D01*
X15870000Y-11310000D02*
X15890000Y-11330000D01*
X15890000Y-11310000D02*
X15870000Y-11330000D01*
X15885000Y-8065000D02*
X15905000Y-8085000D01*
X15905000Y-8065000D02*
X15885000Y-8085000D01*
X15886000Y-8130000D02*
X15906000Y-8150000D01*
X15906000Y-8130000D02*
X15886000Y-8150000D01*
X15900000Y-10960000D02*
X15920000Y-10980000D01*
X15920000Y-10960000D02*
X15900000Y-10980000D01*
X15905000Y-10445000D02*
X15925000Y-10465000D01*
X15925000Y-10445000D02*
X15905000Y-10465000D01*
X15910000Y-11390000D02*
X15930000Y-11410000D01*
X15930000Y-11390000D02*
X15910000Y-11410000D01*
X15920000Y-8460000D02*
X15940000Y-8480000D01*
X15940000Y-8460000D02*
X15920000Y-8480000D01*
X15922000Y-8788000D02*
X15942000Y-8808000D01*
X15942000Y-8788000D02*
X15922000Y-8808000D01*
X15950000Y-8100000D02*
X15970000Y-8120000D01*
X15970000Y-8100000D02*
X15950000Y-8120000D01*
X15950000Y-10170000D02*
X15970000Y-10190000D01*
X15970000Y-10170000D02*
X15950000Y-10190000D01*
X15975130Y-11180000D02*
X15995130Y-11200000D01*
X15995130Y-11180000D02*
X15975130Y-11200000D01*
X16000000Y-8510000D02*
X16020000Y-8530000D01*
X16020000Y-8510000D02*
X16000000Y-8530000D01*
X16000000Y-10140000D02*
X16020000Y-10160000D01*
X16020000Y-10140000D02*
X16000000Y-10160000D01*
X16010000Y-7980000D02*
X16030000Y-8000000D01*
X16030000Y-7980000D02*
X16010000Y-8000000D01*
X16010000Y-8130000D02*
X16030000Y-8150000D01*
X16030000Y-8130000D02*
X16010000Y-8150000D01*
X16020000Y-9121500D02*
X16040000Y-9141500D01*
X16040000Y-9121500D02*
X16020000Y-9141500D01*
X16030000Y-10660000D02*
X16050000Y-10680000D01*
X16050000Y-10660000D02*
X16030000Y-10680000D01*
X16040000Y-8820000D02*
X16060000Y-8840000D01*
X16060000Y-8820000D02*
X16040000Y-8840000D01*
X16050000Y-8300000D02*
X16070000Y-8320000D01*
X16070000Y-8300000D02*
X16050000Y-8320000D01*
X16055000Y-10135000D02*
X16075000Y-10155000D01*
X16075000Y-10135000D02*
X16055000Y-10155000D01*
X16055000Y-10330000D02*
X16075000Y-10350000D01*
X16075000Y-10330000D02*
X16055000Y-10350000D01*
X16060000Y-8650000D02*
X16080000Y-8670000D01*
X16080000Y-8650000D02*
X16060000Y-8670000D01*
X16070000Y-8130000D02*
X16090000Y-8150000D01*
X16090000Y-8130000D02*
X16070000Y-8150000D01*
X16070000Y-11160000D02*
X16090000Y-11180000D01*
X16090000Y-11160000D02*
X16070000Y-11180000D01*
X16080000Y-8420000D02*
X16100000Y-8440000D01*
X16100000Y-8420000D02*
X16080000Y-8440000D01*
X16080000Y-8930000D02*
X16100000Y-8950000D01*
X16100000Y-8930000D02*
X16080000Y-8950000D01*
X16080000Y-9010000D02*
X16100000Y-9030000D01*
X16100000Y-9010000D02*
X16080000Y-9030000D01*
X16080000Y-9090000D02*
X16100000Y-9110000D01*
X16100000Y-9090000D02*
X16080000Y-9110000D01*
X16100000Y-8060000D02*
X16120000Y-8080000D01*
X16120000Y-8060000D02*
X16100000Y-8080000D01*
X16100000Y-10600000D02*
X16120000Y-10620000D01*
X16120000Y-10600000D02*
X16100000Y-10620000D01*
X16100000Y-10700000D02*
X16120000Y-10720000D01*
X16120000Y-10700000D02*
X16100000Y-10720000D01*
X16105019Y-11055019D02*
X16125019Y-11075019D01*
X16125019Y-11055019D02*
X16105019Y-11075019D01*
X16110000Y-10840000D02*
X16130000Y-10860000D01*
X16130000Y-10840000D02*
X16110000Y-10860000D01*
X16120000Y-8300000D02*
X16140000Y-8320000D01*
X16140000Y-8300000D02*
X16120000Y-8320000D01*
X16120000Y-9230000D02*
X16140000Y-9250000D01*
X16140000Y-9230000D02*
X16120000Y-9250000D01*
X16120000Y-10320000D02*
X16140000Y-10340000D01*
X16140000Y-10320000D02*
X16120000Y-10340000D01*
X16127500Y-8970000D02*
X16147500Y-8990000D01*
X16147500Y-8970000D02*
X16127500Y-8990000D01*
X16130000Y-8500000D02*
X16150000Y-8520000D01*
X16150000Y-8500000D02*
X16130000Y-8520000D01*
X16130000Y-8880000D02*
X16150000Y-8900000D01*
X16150000Y-8880000D02*
X16130000Y-8900000D01*
X16150000Y-10530000D02*
X16170000Y-10550000D01*
X16170000Y-10530000D02*
X16150000Y-10550000D01*
X16150000Y-11160000D02*
X16170000Y-11180000D01*
X16170000Y-11160000D02*
X16150000Y-11180000D01*
X16160000Y-8450000D02*
X16180000Y-8470000D01*
X16180000Y-8450000D02*
X16160000Y-8470000D01*
X16170000Y-9010000D02*
X16190000Y-9030000D01*
X16190000Y-9010000D02*
X16170000Y-9030000D01*
X16170000Y-9090000D02*
X16190000Y-9110000D01*
X16190000Y-9090000D02*
X16170000Y-9110000D01*
X16170600Y-8935700D02*
X16190600Y-8955700D01*
X16190600Y-8935700D02*
X16170600Y-8955700D01*
X16180000Y-8140000D02*
X16200000Y-8160000D01*
X16200000Y-8140000D02*
X16180000Y-8160000D01*
X16200000Y-11030000D02*
X16220000Y-11050000D01*
X16220000Y-11030000D02*
X16200000Y-11050000D01*
X16210000Y-11100000D02*
X16230000Y-11120000D01*
X16230000Y-11100000D02*
X16210000Y-11120000D01*
X16210000Y-11160000D02*
X16230000Y-11180000D01*
X16230000Y-11160000D02*
X16210000Y-11180000D01*
X16210000Y-11220000D02*
X16230000Y-11240000D01*
X16230000Y-11220000D02*
X16210000Y-11240000D01*
X16220000Y-8260000D02*
X16240000Y-8280000D01*
X16240000Y-8260000D02*
X16220000Y-8280000D01*
X16230000Y-8460000D02*
X16250000Y-8480000D01*
X16250000Y-8460000D02*
X16230000Y-8480000D01*
X16240000Y-9180000D02*
X16260000Y-9200000D01*
X16260000Y-9180000D02*
X16240000Y-9200000D01*
X16240000Y-9230000D02*
X16260000Y-9250000D01*
X16260000Y-9230000D02*
X16240000Y-9250000D01*
X16240000Y-9400000D02*
X16260000Y-9420000D01*
X16260000Y-9400000D02*
X16240000Y-9420000D01*
X16250000Y-10160000D02*
X16270000Y-10180000D01*
X16270000Y-10160000D02*
X16250000Y-10180000D01*
X16250000Y-10530000D02*
X16270000Y-10550000D01*
X16270000Y-10530000D02*
X16250000Y-10550000D01*
X16270000Y-11160000D02*
X16290000Y-11180000D01*
X16290000Y-11160000D02*
X16270000Y-11180000D01*
X16290000Y-8618000D02*
X16310000Y-8638000D01*
X16310000Y-8618000D02*
X16290000Y-8638000D01*
X16290000Y-8712000D02*
X16310000Y-8732000D01*
X16310000Y-8712000D02*
X16290000Y-8732000D01*
X16300000Y-9400000D02*
X16320000Y-9420000D01*
X16320000Y-9400000D02*
X16300000Y-9420000D01*
X16320000Y-8350000D02*
X16340000Y-8370000D01*
X16340000Y-8350000D02*
X16320000Y-8370000D01*
X16320000Y-9630000D02*
X16340000Y-9650000D01*
X16340000Y-9630000D02*
X16320000Y-9650000D01*
X16320000Y-9700000D02*
X16340000Y-9720000D01*
X16340000Y-9700000D02*
X16320000Y-9720000D01*
X16320000Y-9800000D02*
X16340000Y-9820000D01*
X16340000Y-9800000D02*
X16320000Y-9820000D01*
X16320000Y-10160000D02*
X16340000Y-10180000D01*
X16340000Y-10160000D02*
X16320000Y-10180000D01*
X16330000Y-10390000D02*
X16350000Y-10410000D01*
X16350000Y-10390000D02*
X16330000Y-10410000D01*
X16330000Y-10530000D02*
X16350000Y-10550000D01*
X16350000Y-10530000D02*
X16330000Y-10550000D01*
X16330000Y-10690000D02*
X16350000Y-10710000D01*
X16350000Y-10690000D02*
X16330000Y-10710000D01*
X16330000Y-10755000D02*
X16350000Y-10775000D01*
X16350000Y-10755000D02*
X16330000Y-10775000D01*
X16350000Y-8665000D02*
X16370000Y-8685000D01*
X16370000Y-8665000D02*
X16350000Y-8685000D01*
X16350000Y-8740000D02*
X16370000Y-8760000D01*
X16370000Y-8740000D02*
X16350000Y-8760000D01*
X16350000Y-8810000D02*
X16370000Y-8830000D01*
X16370000Y-8810000D02*
X16350000Y-8830000D01*
X16350000Y-9980000D02*
X16370000Y-10000000D01*
X16370000Y-9980000D02*
X16350000Y-10000000D01*
X16360000Y-10840000D02*
X16380000Y-10860000D01*
X16380000Y-10840000D02*
X16360000Y-10860000D01*
X16370000Y-11090000D02*
X16390000Y-11110000D01*
X16390000Y-11090000D02*
X16370000Y-11110000D01*
X16389000Y-9840000D02*
X16409000Y-9860000D01*
X16409000Y-9840000D02*
X16389000Y-9860000D01*
X16390000Y-8940000D02*
X16410000Y-8960000D01*
X16410000Y-8940000D02*
X16390000Y-8960000D01*
X16390000Y-9080000D02*
X16410000Y-9100000D01*
X16410000Y-9080000D02*
X16390000Y-9100000D01*
X16390000Y-9150000D02*
X16410000Y-9170000D01*
X16410000Y-9150000D02*
X16390000Y-9170000D01*
X16410000Y-8621000D02*
X16430000Y-8641000D01*
X16430000Y-8621000D02*
X16410000Y-8641000D01*
X16420000Y-9000000D02*
X16440000Y-9020000D01*
X16440000Y-9000000D02*
X16420000Y-9020000D01*
X16420000Y-9630000D02*
X16440000Y-9650000D01*
X16440000Y-9630000D02*
X16420000Y-9650000D01*
X16420000Y-10240000D02*
X16440000Y-10260000D01*
X16440000Y-10240000D02*
X16420000Y-10260000D01*
X16440000Y-9680000D02*
X16460000Y-9700000D01*
X16460000Y-9680000D02*
X16440000Y-9700000D01*
X16450000Y-8890000D02*
X16470000Y-8910000D01*
X16470000Y-8890000D02*
X16450000Y-8910000D01*
X16470000Y-9460000D02*
X16490000Y-9480000D01*
X16490000Y-9460000D02*
X16470000Y-9480000D01*
X16490000Y-10640000D02*
X16510000Y-10660000D01*
X16510000Y-10640000D02*
X16490000Y-10660000D01*
X16490000Y-10690000D02*
X16510000Y-10710000D01*
X16510000Y-10690000D02*
X16490000Y-10710000D01*
X16490000Y-10740000D02*
X16510000Y-10760000D01*
X16510000Y-10740000D02*
X16490000Y-10760000D01*
X16497500Y-10240000D02*
X16517500Y-10260000D01*
X16517500Y-10240000D02*
X16497500Y-10260000D01*
X16497850Y-8452150D02*
X16517850Y-8472150D01*
X16517850Y-8452150D02*
X16497850Y-8472150D01*
X16502000Y-9320000D02*
X16522000Y-9340000D01*
X16522000Y-9320000D02*
X16502000Y-9340000D01*
X16510000Y-10950000D02*
X16530000Y-10970000D01*
X16530000Y-10950000D02*
X16510000Y-10970000D01*
X16550000Y-9232000D02*
X16570000Y-9252000D01*
X16570000Y-9232000D02*
X16550000Y-9252000D01*
X16550000Y-10140000D02*
X16570000Y-10160000D01*
X16570000Y-10140000D02*
X16550000Y-10160000D01*
X16550460Y-9147460D02*
X16570460Y-9167460D01*
X16570460Y-9147460D02*
X16550460Y-9167460D01*
X16557500Y-10515000D02*
X16577500Y-10535000D01*
X16577500Y-10515000D02*
X16557500Y-10535000D01*
X16560000Y-9760000D02*
X16580000Y-9780000D01*
X16580000Y-9760000D02*
X16560000Y-9780000D01*
X16560000Y-10240000D02*
X16580000Y-10260000D01*
X16580000Y-10240000D02*
X16560000Y-10260000D01*
X16570000Y-9880000D02*
X16590000Y-9900000D01*
X16590000Y-9880000D02*
X16570000Y-9900000D01*
X16600000Y-8640000D02*
X16620000Y-8660000D01*
X16620000Y-8640000D02*
X16600000Y-8660000D01*
X16600000Y-9310000D02*
X16620000Y-9330000D01*
X16620000Y-9310000D02*
X16600000Y-9330000D01*
X16610000Y-10290000D02*
X16630000Y-10310000D01*
X16630000Y-10290000D02*
X16610000Y-10310000D01*
X16610000Y-10435000D02*
X16630000Y-10455000D01*
X16630000Y-10435000D02*
X16610000Y-10455000D01*
X16630000Y-10000000D02*
X16650000Y-10020000D01*
X16650000Y-10000000D02*
X16630000Y-10020000D01*
X16634942Y-8720000D02*
X16654942Y-8740000D01*
X16654942Y-8720000D02*
X16634942Y-8740000D01*
X16634942Y-8800000D02*
X16654942Y-8820000D01*
X16654942Y-8800000D02*
X16634942Y-8820000D01*
X16662500Y-10655000D02*
X16682500Y-10675000D01*
X16682500Y-10655000D02*
X16662500Y-10675000D01*
X16672500Y-10597500D02*
X16692500Y-10617500D01*
X16692500Y-10597500D02*
X16672500Y-10617500D01*
X16680000Y-9530000D02*
X16700000Y-9550000D01*
X16700000Y-9530000D02*
X16680000Y-9550000D01*
X16690000Y-9310000D02*
X16710000Y-9330000D01*
X16710000Y-9310000D02*
X16690000Y-9330000D01*
X16710000Y-10140000D02*
X16730000Y-10160000D01*
X16730000Y-10140000D02*
X16710000Y-10160000D01*
D11*
X13460880Y-12199405D02*
X13460880Y-11999405D01*
X13460880Y-11999405D02*
X13508499Y-11999405D01*
X13508499Y-11999405D02*
X13537071Y-12008929D01*
X13537071Y-12008929D02*
X13556118Y-12027977D01*
X13556118Y-12027977D02*
X13565642Y-12047024D01*
X13565642Y-12047024D02*
X13575166Y-12085119D01*
X13575166Y-12085119D02*
X13575166Y-12113691D01*
X13575166Y-12113691D02*
X13565642Y-12151786D01*
X13565642Y-12151786D02*
X13556118Y-12170834D01*
X13556118Y-12170834D02*
X13537071Y-12189881D01*
X13537071Y-12189881D02*
X13508499Y-12199405D01*
X13508499Y-12199405D02*
X13460880Y-12199405D01*
X13660880Y-12199405D02*
X13660880Y-12066072D01*
X13660880Y-12104167D02*
X13670404Y-12085119D01*
X13670404Y-12085119D02*
X13679928Y-12075596D01*
X13679928Y-12075596D02*
X13698975Y-12066072D01*
X13698975Y-12066072D02*
X13718023Y-12066072D01*
X13784690Y-12199405D02*
X13784690Y-12066072D01*
X13784690Y-11999405D02*
X13775166Y-12008929D01*
X13775166Y-12008929D02*
X13784690Y-12018453D01*
X13784690Y-12018453D02*
X13794214Y-12008929D01*
X13794214Y-12008929D02*
X13784690Y-11999405D01*
X13784690Y-11999405D02*
X13784690Y-12018453D01*
X13908499Y-12199405D02*
X13889452Y-12189881D01*
X13889452Y-12189881D02*
X13879928Y-12170834D01*
X13879928Y-12170834D02*
X13879928Y-11999405D01*
X14013261Y-12199405D02*
X13994214Y-12189881D01*
X13994214Y-12189881D02*
X13984690Y-12170834D01*
X13984690Y-12170834D02*
X13984690Y-11999405D01*
X14241833Y-12199405D02*
X14241833Y-11999405D01*
X14241833Y-11999405D02*
X14308499Y-12142262D01*
X14308499Y-12142262D02*
X14375166Y-11999405D01*
X14375166Y-11999405D02*
X14375166Y-12199405D01*
X14556118Y-12199405D02*
X14556118Y-12094643D01*
X14556118Y-12094643D02*
X14546595Y-12075596D01*
X14546595Y-12075596D02*
X14527547Y-12066072D01*
X14527547Y-12066072D02*
X14489452Y-12066072D01*
X14489452Y-12066072D02*
X14470404Y-12075596D01*
X14556118Y-12189881D02*
X14537071Y-12199405D01*
X14537071Y-12199405D02*
X14489452Y-12199405D01*
X14489452Y-12199405D02*
X14470404Y-12189881D01*
X14470404Y-12189881D02*
X14460880Y-12170834D01*
X14460880Y-12170834D02*
X14460880Y-12151786D01*
X14460880Y-12151786D02*
X14470404Y-12132738D01*
X14470404Y-12132738D02*
X14489452Y-12123215D01*
X14489452Y-12123215D02*
X14537071Y-12123215D01*
X14537071Y-12123215D02*
X14556118Y-12113691D01*
X14651356Y-12066072D02*
X14651356Y-12266072D01*
X14651356Y-12075596D02*
X14670404Y-12066072D01*
X14670404Y-12066072D02*
X14708499Y-12066072D01*
X14708499Y-12066072D02*
X14727547Y-12075596D01*
X14727547Y-12075596D02*
X14737071Y-12085119D01*
X14737071Y-12085119D02*
X14746595Y-12104167D01*
X14746595Y-12104167D02*
X14746595Y-12161310D01*
X14746595Y-12161310D02*
X14737071Y-12180357D01*
X14737071Y-12180357D02*
X14727547Y-12189881D01*
X14727547Y-12189881D02*
X14708499Y-12199405D01*
X14708499Y-12199405D02*
X14670404Y-12199405D01*
X14670404Y-12199405D02*
X14651356Y-12189881D01*
X14832309Y-12180357D02*
X14841833Y-12189881D01*
X14841833Y-12189881D02*
X14832309Y-12199405D01*
X14832309Y-12199405D02*
X14822785Y-12189881D01*
X14822785Y-12189881D02*
X14832309Y-12180357D01*
X14832309Y-12180357D02*
X14832309Y-12199405D01*
X14832309Y-12075596D02*
X14841833Y-12085119D01*
X14841833Y-12085119D02*
X14832309Y-12094643D01*
X14832309Y-12094643D02*
X14822785Y-12085119D01*
X14822785Y-12085119D02*
X14832309Y-12075596D01*
X14832309Y-12075596D02*
X14832309Y-12094643D01*
D10*
X13180103Y-12517921D02*
X13200103Y-12537921D01*
X13200103Y-12517921D02*
X13180103Y-12537921D01*
D11*
X13498975Y-12419405D02*
X13518023Y-12419405D01*
X13518023Y-12419405D02*
X13537071Y-12428929D01*
X13537071Y-12428929D02*
X13546595Y-12438453D01*
X13546595Y-12438453D02*
X13556118Y-12457500D01*
X13556118Y-12457500D02*
X13565642Y-12495596D01*
X13565642Y-12495596D02*
X13565642Y-12543215D01*
X13565642Y-12543215D02*
X13556118Y-12581310D01*
X13556118Y-12581310D02*
X13546595Y-12600357D01*
X13546595Y-12600357D02*
X13537071Y-12609881D01*
X13537071Y-12609881D02*
X13518023Y-12619405D01*
X13518023Y-12619405D02*
X13498975Y-12619405D01*
X13498975Y-12619405D02*
X13479928Y-12609881D01*
X13479928Y-12609881D02*
X13470404Y-12600357D01*
X13470404Y-12600357D02*
X13460880Y-12581310D01*
X13460880Y-12581310D02*
X13451356Y-12543215D01*
X13451356Y-12543215D02*
X13451356Y-12495596D01*
X13451356Y-12495596D02*
X13460880Y-12457500D01*
X13460880Y-12457500D02*
X13470404Y-12438453D01*
X13470404Y-12438453D02*
X13479928Y-12428929D01*
X13479928Y-12428929D02*
X13498975Y-12419405D01*
X13651356Y-12600357D02*
X13660880Y-12609881D01*
X13660880Y-12609881D02*
X13651356Y-12619405D01*
X13651356Y-12619405D02*
X13641833Y-12609881D01*
X13641833Y-12609881D02*
X13651356Y-12600357D01*
X13651356Y-12600357D02*
X13651356Y-12619405D01*
X13737071Y-12438453D02*
X13746595Y-12428929D01*
X13746595Y-12428929D02*
X13765642Y-12419405D01*
X13765642Y-12419405D02*
X13813261Y-12419405D01*
X13813261Y-12419405D02*
X13832309Y-12428929D01*
X13832309Y-12428929D02*
X13841833Y-12438453D01*
X13841833Y-12438453D02*
X13851356Y-12457500D01*
X13851356Y-12457500D02*
X13851356Y-12476548D01*
X13851356Y-12476548D02*
X13841833Y-12505119D01*
X13841833Y-12505119D02*
X13727547Y-12619405D01*
X13727547Y-12619405D02*
X13851356Y-12619405D01*
X13975166Y-12419405D02*
X13994214Y-12419405D01*
X13994214Y-12419405D02*
X14013261Y-12428929D01*
X14013261Y-12428929D02*
X14022785Y-12438453D01*
X14022785Y-12438453D02*
X14032309Y-12457500D01*
X14032309Y-12457500D02*
X14041833Y-12495596D01*
X14041833Y-12495596D02*
X14041833Y-12543215D01*
X14041833Y-12543215D02*
X14032309Y-12581310D01*
X14032309Y-12581310D02*
X14022785Y-12600357D01*
X14022785Y-12600357D02*
X14013261Y-12609881D01*
X14013261Y-12609881D02*
X13994214Y-12619405D01*
X13994214Y-12619405D02*
X13975166Y-12619405D01*
X13975166Y-12619405D02*
X13956118Y-12609881D01*
X13956118Y-12609881D02*
X13946595Y-12600357D01*
X13946595Y-12600357D02*
X13937071Y-12581310D01*
X13937071Y-12581310D02*
X13927547Y-12543215D01*
X13927547Y-12543215D02*
X13927547Y-12495596D01*
X13927547Y-12495596D02*
X13937071Y-12457500D01*
X13937071Y-12457500D02*
X13946595Y-12438453D01*
X13946595Y-12438453D02*
X13956118Y-12428929D01*
X13956118Y-12428929D02*
X13975166Y-12419405D01*
X14165642Y-12419405D02*
X14184690Y-12419405D01*
X14184690Y-12419405D02*
X14203737Y-12428929D01*
X14203737Y-12428929D02*
X14213261Y-12438453D01*
X14213261Y-12438453D02*
X14222785Y-12457500D01*
X14222785Y-12457500D02*
X14232309Y-12495596D01*
X14232309Y-12495596D02*
X14232309Y-12543215D01*
X14232309Y-12543215D02*
X14222785Y-12581310D01*
X14222785Y-12581310D02*
X14213261Y-12600357D01*
X14213261Y-12600357D02*
X14203737Y-12609881D01*
X14203737Y-12609881D02*
X14184690Y-12619405D01*
X14184690Y-12619405D02*
X14165642Y-12619405D01*
X14165642Y-12619405D02*
X14146595Y-12609881D01*
X14146595Y-12609881D02*
X14137071Y-12600357D01*
X14137071Y-12600357D02*
X14127547Y-12581310D01*
X14127547Y-12581310D02*
X14118023Y-12543215D01*
X14118023Y-12543215D02*
X14118023Y-12495596D01*
X14118023Y-12495596D02*
X14127547Y-12457500D01*
X14127547Y-12457500D02*
X14137071Y-12438453D01*
X14137071Y-12438453D02*
X14146595Y-12428929D01*
X14146595Y-12428929D02*
X14165642Y-12419405D01*
X14318023Y-12619405D02*
X14318023Y-12486072D01*
X14318023Y-12505119D02*
X14327547Y-12495596D01*
X14327547Y-12495596D02*
X14346595Y-12486072D01*
X14346595Y-12486072D02*
X14375166Y-12486072D01*
X14375166Y-12486072D02*
X14394214Y-12495596D01*
X14394214Y-12495596D02*
X14403737Y-12514643D01*
X14403737Y-12514643D02*
X14403737Y-12619405D01*
X14403737Y-12514643D02*
X14413261Y-12495596D01*
X14413261Y-12495596D02*
X14432309Y-12486072D01*
X14432309Y-12486072D02*
X14460880Y-12486072D01*
X14460880Y-12486072D02*
X14479928Y-12495596D01*
X14479928Y-12495596D02*
X14489452Y-12514643D01*
X14489452Y-12514643D02*
X14489452Y-12619405D01*
X14584690Y-12619405D02*
X14584690Y-12486072D01*
X14584690Y-12505119D02*
X14594214Y-12495596D01*
X14594214Y-12495596D02*
X14613261Y-12486072D01*
X14613261Y-12486072D02*
X14641833Y-12486072D01*
X14641833Y-12486072D02*
X14660880Y-12495596D01*
X14660880Y-12495596D02*
X14670404Y-12514643D01*
X14670404Y-12514643D02*
X14670404Y-12619405D01*
X14670404Y-12514643D02*
X14679928Y-12495596D01*
X14679928Y-12495596D02*
X14698976Y-12486072D01*
X14698976Y-12486072D02*
X14727547Y-12486072D01*
X14727547Y-12486072D02*
X14746595Y-12495596D01*
X14746595Y-12495596D02*
X14756118Y-12514643D01*
X14756118Y-12514643D02*
X14756118Y-12619405D01*
X15146595Y-12409881D02*
X14975166Y-12667024D01*
X15403738Y-12419405D02*
X15422785Y-12419405D01*
X15422785Y-12419405D02*
X15441833Y-12428929D01*
X15441833Y-12428929D02*
X15451357Y-12438453D01*
X15451357Y-12438453D02*
X15460880Y-12457500D01*
X15460880Y-12457500D02*
X15470404Y-12495596D01*
X15470404Y-12495596D02*
X15470404Y-12543215D01*
X15470404Y-12543215D02*
X15460880Y-12581310D01*
X15460880Y-12581310D02*
X15451357Y-12600357D01*
X15451357Y-12600357D02*
X15441833Y-12609881D01*
X15441833Y-12609881D02*
X15422785Y-12619405D01*
X15422785Y-12619405D02*
X15403738Y-12619405D01*
X15403738Y-12619405D02*
X15384690Y-12609881D01*
X15384690Y-12609881D02*
X15375166Y-12600357D01*
X15375166Y-12600357D02*
X15365642Y-12581310D01*
X15365642Y-12581310D02*
X15356119Y-12543215D01*
X15356119Y-12543215D02*
X15356119Y-12495596D01*
X15356119Y-12495596D02*
X15365642Y-12457500D01*
X15365642Y-12457500D02*
X15375166Y-12438453D01*
X15375166Y-12438453D02*
X15384690Y-12428929D01*
X15384690Y-12428929D02*
X15403738Y-12419405D01*
X15556119Y-12600357D02*
X15565642Y-12609881D01*
X15565642Y-12609881D02*
X15556119Y-12619405D01*
X15556119Y-12619405D02*
X15546595Y-12609881D01*
X15546595Y-12609881D02*
X15556119Y-12600357D01*
X15556119Y-12600357D02*
X15556119Y-12619405D01*
X15689452Y-12419405D02*
X15708500Y-12419405D01*
X15708500Y-12419405D02*
X15727547Y-12428929D01*
X15727547Y-12428929D02*
X15737071Y-12438453D01*
X15737071Y-12438453D02*
X15746595Y-12457500D01*
X15746595Y-12457500D02*
X15756119Y-12495596D01*
X15756119Y-12495596D02*
X15756119Y-12543215D01*
X15756119Y-12543215D02*
X15746595Y-12581310D01*
X15746595Y-12581310D02*
X15737071Y-12600357D01*
X15737071Y-12600357D02*
X15727547Y-12609881D01*
X15727547Y-12609881D02*
X15708500Y-12619405D01*
X15708500Y-12619405D02*
X15689452Y-12619405D01*
X15689452Y-12619405D02*
X15670404Y-12609881D01*
X15670404Y-12609881D02*
X15660880Y-12600357D01*
X15660880Y-12600357D02*
X15651357Y-12581310D01*
X15651357Y-12581310D02*
X15641833Y-12543215D01*
X15641833Y-12543215D02*
X15641833Y-12495596D01*
X15641833Y-12495596D02*
X15651357Y-12457500D01*
X15651357Y-12457500D02*
X15660880Y-12438453D01*
X15660880Y-12438453D02*
X15670404Y-12428929D01*
X15670404Y-12428929D02*
X15689452Y-12419405D01*
X15879928Y-12419405D02*
X15898976Y-12419405D01*
X15898976Y-12419405D02*
X15918023Y-12428929D01*
X15918023Y-12428929D02*
X15927547Y-12438453D01*
X15927547Y-12438453D02*
X15937071Y-12457500D01*
X15937071Y-12457500D02*
X15946595Y-12495596D01*
X15946595Y-12495596D02*
X15946595Y-12543215D01*
X15946595Y-12543215D02*
X15937071Y-12581310D01*
X15937071Y-12581310D02*
X15927547Y-12600357D01*
X15927547Y-12600357D02*
X15918023Y-12609881D01*
X15918023Y-12609881D02*
X15898976Y-12619405D01*
X15898976Y-12619405D02*
X15879928Y-12619405D01*
X15879928Y-12619405D02*
X15860880Y-12609881D01*
X15860880Y-12609881D02*
X15851357Y-12600357D01*
X15851357Y-12600357D02*
X15841833Y-12581310D01*
X15841833Y-12581310D02*
X15832309Y-12543215D01*
X15832309Y-12543215D02*
X15832309Y-12495596D01*
X15832309Y-12495596D02*
X15841833Y-12457500D01*
X15841833Y-12457500D02*
X15851357Y-12438453D01*
X15851357Y-12438453D02*
X15860880Y-12428929D01*
X15860880Y-12428929D02*
X15879928Y-12419405D01*
X16013261Y-12419405D02*
X16146595Y-12419405D01*
X16146595Y-12419405D02*
X16060880Y-12619405D01*
X16232309Y-12619405D02*
X16270404Y-12619405D01*
X16270404Y-12619405D02*
X16289452Y-12609881D01*
X16289452Y-12609881D02*
X16298976Y-12600357D01*
X16298976Y-12600357D02*
X16318023Y-12571786D01*
X16318023Y-12571786D02*
X16327547Y-12533691D01*
X16327547Y-12533691D02*
X16327547Y-12457500D01*
X16327547Y-12457500D02*
X16318023Y-12438453D01*
X16318023Y-12438453D02*
X16308500Y-12428929D01*
X16308500Y-12428929D02*
X16289452Y-12419405D01*
X16289452Y-12419405D02*
X16251357Y-12419405D01*
X16251357Y-12419405D02*
X16232309Y-12428929D01*
X16232309Y-12428929D02*
X16222785Y-12438453D01*
X16222785Y-12438453D02*
X16213261Y-12457500D01*
X16213261Y-12457500D02*
X16213261Y-12505119D01*
X16213261Y-12505119D02*
X16222785Y-12524167D01*
X16222785Y-12524167D02*
X16232309Y-12533691D01*
X16232309Y-12533691D02*
X16251357Y-12543215D01*
X16251357Y-12543215D02*
X16289452Y-12543215D01*
X16289452Y-12543215D02*
X16308500Y-12533691D01*
X16308500Y-12533691D02*
X16318023Y-12524167D01*
X16318023Y-12524167D02*
X16327547Y-12505119D01*
X16403738Y-12419405D02*
X16403738Y-12457500D01*
X16479928Y-12419405D02*
X16479928Y-12457500D01*
X16775166Y-12695596D02*
X16765642Y-12686072D01*
X16765642Y-12686072D02*
X16746595Y-12657500D01*
X16746595Y-12657500D02*
X16737071Y-12638453D01*
X16737071Y-12638453D02*
X16727547Y-12609881D01*
X16727547Y-12609881D02*
X16718023Y-12562262D01*
X16718023Y-12562262D02*
X16718023Y-12524167D01*
X16718023Y-12524167D02*
X16727547Y-12476548D01*
X16727547Y-12476548D02*
X16737071Y-12447977D01*
X16737071Y-12447977D02*
X16746595Y-12428929D01*
X16746595Y-12428929D02*
X16765642Y-12400357D01*
X16765642Y-12400357D02*
X16775166Y-12390834D01*
X16946595Y-12419405D02*
X16851357Y-12419405D01*
X16851357Y-12419405D02*
X16841833Y-12514643D01*
X16841833Y-12514643D02*
X16851357Y-12505119D01*
X16851357Y-12505119D02*
X16870404Y-12495596D01*
X16870404Y-12495596D02*
X16918024Y-12495596D01*
X16918024Y-12495596D02*
X16937071Y-12505119D01*
X16937071Y-12505119D02*
X16946595Y-12514643D01*
X16946595Y-12514643D02*
X16956119Y-12533691D01*
X16956119Y-12533691D02*
X16956119Y-12581310D01*
X16956119Y-12581310D02*
X16946595Y-12600357D01*
X16946595Y-12600357D02*
X16937071Y-12609881D01*
X16937071Y-12609881D02*
X16918024Y-12619405D01*
X16918024Y-12619405D02*
X16870404Y-12619405D01*
X16870404Y-12619405D02*
X16851357Y-12609881D01*
X16851357Y-12609881D02*
X16841833Y-12600357D01*
X17127547Y-12419405D02*
X17089452Y-12419405D01*
X17089452Y-12419405D02*
X17070404Y-12428929D01*
X17070404Y-12428929D02*
X17060881Y-12438453D01*
X17060881Y-12438453D02*
X17041833Y-12467024D01*
X17041833Y-12467024D02*
X17032309Y-12505119D01*
X17032309Y-12505119D02*
X17032309Y-12581310D01*
X17032309Y-12581310D02*
X17041833Y-12600357D01*
X17041833Y-12600357D02*
X17051357Y-12609881D01*
X17051357Y-12609881D02*
X17070404Y-12619405D01*
X17070404Y-12619405D02*
X17108500Y-12619405D01*
X17108500Y-12619405D02*
X17127547Y-12609881D01*
X17127547Y-12609881D02*
X17137071Y-12600357D01*
X17137071Y-12600357D02*
X17146595Y-12581310D01*
X17146595Y-12581310D02*
X17146595Y-12533691D01*
X17146595Y-12533691D02*
X17137071Y-12514643D01*
X17137071Y-12514643D02*
X17127547Y-12505119D01*
X17127547Y-12505119D02*
X17108500Y-12495596D01*
X17108500Y-12495596D02*
X17070404Y-12495596D01*
X17070404Y-12495596D02*
X17051357Y-12505119D01*
X17051357Y-12505119D02*
X17041833Y-12514643D01*
X17041833Y-12514643D02*
X17032309Y-12533691D01*
X17241833Y-12619405D02*
X17279928Y-12619405D01*
X17279928Y-12619405D02*
X17298976Y-12609881D01*
X17298976Y-12609881D02*
X17308500Y-12600357D01*
X17308500Y-12600357D02*
X17327547Y-12571786D01*
X17327547Y-12571786D02*
X17337071Y-12533691D01*
X17337071Y-12533691D02*
X17337071Y-12457500D01*
X17337071Y-12457500D02*
X17327547Y-12438453D01*
X17327547Y-12438453D02*
X17318024Y-12428929D01*
X17318024Y-12428929D02*
X17298976Y-12419405D01*
X17298976Y-12419405D02*
X17260881Y-12419405D01*
X17260881Y-12419405D02*
X17241833Y-12428929D01*
X17241833Y-12428929D02*
X17232309Y-12438453D01*
X17232309Y-12438453D02*
X17222785Y-12457500D01*
X17222785Y-12457500D02*
X17222785Y-12505119D01*
X17222785Y-12505119D02*
X17232309Y-12524167D01*
X17232309Y-12524167D02*
X17241833Y-12533691D01*
X17241833Y-12533691D02*
X17260881Y-12543215D01*
X17260881Y-12543215D02*
X17298976Y-12543215D01*
X17298976Y-12543215D02*
X17318024Y-12533691D01*
X17318024Y-12533691D02*
X17327547Y-12524167D01*
X17327547Y-12524167D02*
X17337071Y-12505119D01*
X17575166Y-12619405D02*
X17575166Y-12419405D01*
X17660881Y-12619405D02*
X17660881Y-12514643D01*
X17660881Y-12514643D02*
X17651357Y-12495596D01*
X17651357Y-12495596D02*
X17632309Y-12486072D01*
X17632309Y-12486072D02*
X17603738Y-12486072D01*
X17603738Y-12486072D02*
X17584690Y-12495596D01*
X17584690Y-12495596D02*
X17575166Y-12505119D01*
X17784690Y-12619405D02*
X17765643Y-12609881D01*
X17765643Y-12609881D02*
X17756119Y-12600357D01*
X17756119Y-12600357D02*
X17746595Y-12581310D01*
X17746595Y-12581310D02*
X17746595Y-12524167D01*
X17746595Y-12524167D02*
X17756119Y-12505119D01*
X17756119Y-12505119D02*
X17765643Y-12495596D01*
X17765643Y-12495596D02*
X17784690Y-12486072D01*
X17784690Y-12486072D02*
X17813262Y-12486072D01*
X17813262Y-12486072D02*
X17832309Y-12495596D01*
X17832309Y-12495596D02*
X17841833Y-12505119D01*
X17841833Y-12505119D02*
X17851357Y-12524167D01*
X17851357Y-12524167D02*
X17851357Y-12581310D01*
X17851357Y-12581310D02*
X17841833Y-12600357D01*
X17841833Y-12600357D02*
X17832309Y-12609881D01*
X17832309Y-12609881D02*
X17813262Y-12619405D01*
X17813262Y-12619405D02*
X17784690Y-12619405D01*
X17965643Y-12619405D02*
X17946595Y-12609881D01*
X17946595Y-12609881D02*
X17937071Y-12590834D01*
X17937071Y-12590834D02*
X17937071Y-12419405D01*
X18118024Y-12609881D02*
X18098976Y-12619405D01*
X18098976Y-12619405D02*
X18060881Y-12619405D01*
X18060881Y-12619405D02*
X18041833Y-12609881D01*
X18041833Y-12609881D02*
X18032309Y-12590834D01*
X18032309Y-12590834D02*
X18032309Y-12514643D01*
X18032309Y-12514643D02*
X18041833Y-12495596D01*
X18041833Y-12495596D02*
X18060881Y-12486072D01*
X18060881Y-12486072D02*
X18098976Y-12486072D01*
X18098976Y-12486072D02*
X18118024Y-12495596D01*
X18118024Y-12495596D02*
X18127547Y-12514643D01*
X18127547Y-12514643D02*
X18127547Y-12533691D01*
X18127547Y-12533691D02*
X18032309Y-12552738D01*
X18203738Y-12609881D02*
X18222786Y-12619405D01*
X18222786Y-12619405D02*
X18260881Y-12619405D01*
X18260881Y-12619405D02*
X18279928Y-12609881D01*
X18279928Y-12609881D02*
X18289452Y-12590834D01*
X18289452Y-12590834D02*
X18289452Y-12581310D01*
X18289452Y-12581310D02*
X18279928Y-12562262D01*
X18279928Y-12562262D02*
X18260881Y-12552738D01*
X18260881Y-12552738D02*
X18232309Y-12552738D01*
X18232309Y-12552738D02*
X18213262Y-12543215D01*
X18213262Y-12543215D02*
X18203738Y-12524167D01*
X18203738Y-12524167D02*
X18203738Y-12514643D01*
X18203738Y-12514643D02*
X18213262Y-12495596D01*
X18213262Y-12495596D02*
X18232309Y-12486072D01*
X18232309Y-12486072D02*
X18260881Y-12486072D01*
X18260881Y-12486072D02*
X18279928Y-12495596D01*
X18356119Y-12695596D02*
X18365643Y-12686072D01*
X18365643Y-12686072D02*
X18384690Y-12657500D01*
X18384690Y-12657500D02*
X18394214Y-12638453D01*
X18394214Y-12638453D02*
X18403738Y-12609881D01*
X18403738Y-12609881D02*
X18413262Y-12562262D01*
X18413262Y-12562262D02*
X18413262Y-12524167D01*
X18413262Y-12524167D02*
X18403738Y-12476548D01*
X18403738Y-12476548D02*
X18394214Y-12447977D01*
X18394214Y-12447977D02*
X18384690Y-12428929D01*
X18384690Y-12428929D02*
X18365643Y-12400357D01*
X18365643Y-12400357D02*
X18356119Y-12390834D01*
M02*
