%TF.GenerationSoftware,KiCad,Pcbnew,8.0.1*%
%TF.CreationDate,2024-03-29T03:09:59+00:00*%
%TF.ProjectId,watch_main,77617463-685f-46d6-9169-6e2e6b696361,rev?*%
%TF.SameCoordinates,Original*%
%TF.FileFunction,Soldermask,Top*%
%TF.FilePolarity,Negative*%
%FSLAX46Y46*%
G04 Gerber Fmt 4.6, Leading zero omitted, Abs format (unit mm)*
G04 Created by KiCad (PCBNEW 8.0.1) date 2024-03-29 03:09:59*
%MOMM*%
%LPD*%
G01*
G04 APERTURE LIST*
G04 Aperture macros list*
%AMRoundRect*
0 Rectangle with rounded corners*
0 $1 Rounding radius*
0 $2 $3 $4 $5 $6 $7 $8 $9 X,Y pos of 4 corners*
0 Add a 4 corners polygon primitive as box body*
4,1,4,$2,$3,$4,$5,$6,$7,$8,$9,$2,$3,0*
0 Add four circle primitives for the rounded corners*
1,1,$1+$1,$2,$3*
1,1,$1+$1,$4,$5*
1,1,$1+$1,$6,$7*
1,1,$1+$1,$8,$9*
0 Add four rect primitives between the rounded corners*
20,1,$1+$1,$2,$3,$4,$5,0*
20,1,$1+$1,$4,$5,$6,$7,0*
20,1,$1+$1,$6,$7,$8,$9,0*
20,1,$1+$1,$8,$9,$2,$3,0*%
%AMFreePoly0*
4,1,59,0.799098,0.828199,0.965410,0.754152,1.112692,0.647145,1.234508,0.511855,1.325534,0.354194,1.381790,0.181054,1.400820,0.000000,1.381790,-0.181054,1.325534,-0.354194,1.234508,-0.511855,1.112692,-0.647145,0.965410,-0.754152,0.799098,-0.828199,0.621025,-0.866050,0.438975,-0.866050,0.260902,-0.828199,0.094590,-0.754152,-0.052692,-0.647145,-0.174508,-0.511855,-0.265534,-0.354194,
-0.321790,-0.181054,-0.339094,-0.016420,0.056698,-0.016420,0.073606,-0.134009,0.129848,-0.257162,0.218508,-0.359481,0.332403,-0.432677,0.462306,-0.470820,0.597694,-0.470820,0.727597,-0.432677,0.841492,-0.359481,0.930152,-0.257162,0.986394,-0.134009,1.005662,0.000000,0.986394,0.134009,0.930152,0.257162,0.841492,0.359481,0.727597,0.432677,0.597694,0.470820,0.462306,0.470820,
0.332403,0.432677,0.218508,0.359481,0.129848,0.257162,0.073606,0.134009,0.056698,0.016420,0.063500,0.000000,0.056698,-0.016420,-0.339094,-0.016420,-0.339094,-0.016419,-0.340820,0.000000,-0.321790,0.181054,-0.265534,0.354194,-0.174508,0.511855,-0.052692,0.647145,0.094590,0.754152,0.260902,0.828199,0.438975,0.866050,0.621025,0.866050,0.799098,0.828199,0.799098,0.828199,
$1*%
%AMFreePoly1*
4,1,6,0.450000,-0.400000,-0.450000,-0.400000,-0.450000,0.650000,0.150000,1.200000,0.450000,1.200000,0.450000,-0.400000,0.450000,-0.400000,$1*%
G04 Aperture macros list end*
%ADD10C,0.304800*%
%ADD11C,0.000000*%
%ADD12RoundRect,0.140000X-0.170000X0.140000X-0.170000X-0.140000X0.170000X-0.140000X0.170000X0.140000X0*%
%ADD13RoundRect,0.140000X0.170000X-0.140000X0.170000X0.140000X-0.170000X0.140000X-0.170000X-0.140000X0*%
%ADD14C,1.500000*%
%ADD15RoundRect,0.135000X-0.185000X0.135000X-0.185000X-0.135000X0.185000X-0.135000X0.185000X0.135000X0*%
%ADD16RoundRect,0.140000X-0.140000X-0.170000X0.140000X-0.170000X0.140000X0.170000X-0.140000X0.170000X0*%
%ADD17RoundRect,0.140000X0.140000X0.170000X-0.140000X0.170000X-0.140000X-0.170000X0.140000X-0.170000X0*%
%ADD18R,1.600000X0.550000*%
%ADD19R,0.200000X0.400000*%
%ADD20R,0.400000X0.400000*%
%ADD21R,0.360000X0.220000*%
%ADD22R,0.360000X0.210000*%
%ADD23C,0.298000*%
%ADD24RoundRect,0.147500X-0.147500X-0.172500X0.147500X-0.172500X0.147500X0.172500X-0.147500X0.172500X0*%
%ADD25RoundRect,0.147500X0.172500X-0.147500X0.172500X0.147500X-0.172500X0.147500X-0.172500X-0.147500X0*%
%ADD26RoundRect,0.135000X0.185000X-0.135000X0.185000X0.135000X-0.185000X0.135000X-0.185000X-0.135000X0*%
%ADD27RoundRect,0.135000X-0.135000X-0.185000X0.135000X-0.185000X0.135000X0.185000X-0.135000X0.185000X0*%
%ADD28R,0.900000X0.800000*%
%ADD29C,0.400000*%
%ADD30RoundRect,0.050000X0.200000X-0.050000X0.200000X0.050000X-0.200000X0.050000X-0.200000X-0.050000X0*%
%ADD31RoundRect,0.050000X0.410000X-0.400000X0.410000X0.400000X-0.410000X0.400000X-0.410000X-0.400000X0*%
%ADD32RoundRect,0.135000X0.135000X0.185000X-0.135000X0.185000X-0.135000X-0.185000X0.135000X-0.185000X0*%
%ADD33R,0.300000X0.375000*%
%ADD34R,0.750000X0.300000*%
%ADD35R,0.750000X1.450000*%
%ADD36R,0.400000X0.220000*%
%ADD37R,0.220000X0.400000*%
%ADD38C,0.250000*%
%ADD39R,0.762000X0.533400*%
%ADD40FreePoly0,270.000000*%
%ADD41R,0.400000X0.480000*%
%ADD42R,0.750000X0.750000*%
%ADD43R,1.600000X0.900000*%
%ADD44FreePoly1,90.000000*%
%ADD45R,0.300000X0.450000*%
%ADD46R,0.450000X0.300000*%
%ADD47C,0.304800*%
%ADD48R,0.300000X0.350000*%
%ADD49R,0.350000X0.300000*%
%ADD50C,0.300000*%
%ADD51R,0.200000X0.300000*%
%ADD52R,0.250000X0.250000*%
%ADD53RoundRect,0.050000X0.075000X-0.050000X0.075000X0.050000X-0.075000X0.050000X-0.075000X-0.050000X0*%
%ADD54R,0.550000X1.600000*%
%ADD55R,0.600000X1.100000*%
%ADD56R,1.200000X0.800000*%
%ADD57R,0.800000X1.000000*%
%ADD58R,0.800000X0.990000*%
%ADD59RoundRect,0.147500X0.017678X-0.226274X0.226274X-0.017678X-0.017678X0.226274X-0.226274X0.017678X0*%
%ADD60C,0.370000*%
%ADD61RoundRect,0.147500X-0.226274X-0.017678X-0.017678X-0.226274X0.226274X0.017678X0.017678X0.226274X0*%
%ADD62R,0.800000X0.350000*%
%ADD63R,0.260000X0.600000*%
G04 APERTURE END LIST*
%TO.C,MIC1201*%
D10*
X165752400Y-90345600D02*
G75*
G02*
X165447600Y-90345600I-152400J0D01*
G01*
X165447600Y-90345600D02*
G75*
G02*
X165752400Y-90345600I152400J0D01*
G01*
D11*
G36*
X165866867Y-89524668D02*
G01*
X166107611Y-89647333D01*
X166298667Y-89838389D01*
X166421332Y-90079133D01*
X166463600Y-90346000D01*
X166421332Y-90612867D01*
X166298667Y-90853611D01*
X166107611Y-91044667D01*
X165866867Y-91167332D01*
X165600000Y-91209600D01*
X165524732Y-91206314D01*
X165556832Y-90839415D01*
X165600000Y-90841300D01*
X165753056Y-90817058D01*
X165891130Y-90746706D01*
X166000706Y-90637130D01*
X166071058Y-90499056D01*
X166095300Y-90346000D01*
X166071058Y-90192944D01*
X166000706Y-90054870D01*
X165891130Y-89945294D01*
X165753056Y-89874942D01*
X165600000Y-89850700D01*
X165556832Y-89852585D01*
X165524732Y-89485686D01*
X165600000Y-89482400D01*
X165866867Y-89524668D01*
G37*
G36*
X165675268Y-89485686D02*
G01*
X165643168Y-89852585D01*
X165600000Y-89850700D01*
X165446944Y-89874942D01*
X165308870Y-89945294D01*
X165199294Y-90054870D01*
X165128942Y-90192944D01*
X165104700Y-90346000D01*
X165128942Y-90499056D01*
X165199294Y-90637130D01*
X165308870Y-90746706D01*
X165446944Y-90817058D01*
X165600000Y-90841300D01*
X165643168Y-90839415D01*
X165675268Y-91206314D01*
X165600000Y-91209600D01*
X165333133Y-91167332D01*
X165092389Y-91044667D01*
X164901333Y-90853611D01*
X164778668Y-90612867D01*
X164736400Y-90346000D01*
X164778668Y-90079133D01*
X164901333Y-89838389D01*
X165092389Y-89647333D01*
X165333133Y-89524668D01*
X165600000Y-89482400D01*
X165675268Y-89485686D01*
G37*
%TD*%
D12*
%TO.C,C207*%
X157700000Y-86920000D03*
X157700000Y-87880000D03*
%TD*%
D13*
%TO.C,C803*%
X142800000Y-102080000D03*
X142800000Y-101120000D03*
%TD*%
%TO.C,C402*%
X135200000Y-105980000D03*
X135200000Y-105020000D03*
%TD*%
%TO.C,C1601*%
X132720000Y-97442000D03*
X132720000Y-96482000D03*
%TD*%
D14*
%TO.C,TP899*%
X154000000Y-116500000D03*
%TD*%
D15*
%TO.C,R202*%
X165400000Y-85290000D03*
X165400000Y-86310000D03*
%TD*%
D14*
%TO.C,TP803*%
X158300000Y-115200000D03*
%TD*%
D13*
%TO.C,C1403*%
X150000000Y-112730000D03*
X150000000Y-111770000D03*
%TD*%
D16*
%TO.C,C906*%
X156320000Y-93900000D03*
X157280000Y-93900000D03*
%TD*%
D14*
%TO.C,TP203*%
X141000000Y-93750000D03*
%TD*%
D17*
%TO.C,C301*%
X145380000Y-80100000D03*
X144420000Y-80100000D03*
%TD*%
D18*
%TO.C,L1401*%
X154700000Y-112275000D03*
X154700000Y-110825000D03*
%TD*%
D19*
%TO.C,J501*%
X154350000Y-108000000D03*
X154000000Y-108000000D03*
X153650000Y-108000000D03*
X153300000Y-108000000D03*
X152950000Y-108000000D03*
X152600000Y-108000000D03*
X152250000Y-108000000D03*
X151900000Y-108000000D03*
X151550000Y-108000000D03*
X151200000Y-108000000D03*
X150850000Y-108000000D03*
X150500000Y-108000000D03*
X150150000Y-108000000D03*
X149800000Y-108000000D03*
X149450000Y-108000000D03*
X149450000Y-106400000D03*
X149800000Y-106400000D03*
X150150000Y-106400000D03*
X150500000Y-106400000D03*
X150850000Y-106400000D03*
X151200000Y-106400000D03*
X151550000Y-106400000D03*
X151900000Y-106400000D03*
X152250000Y-106400000D03*
X152600000Y-106400000D03*
X152950000Y-106400000D03*
X153300000Y-106400000D03*
X153650000Y-106400000D03*
X154000000Y-106400000D03*
X154350000Y-106400000D03*
D20*
X155500000Y-106400000D03*
D21*
X155030000Y-106490000D03*
X148770000Y-106490000D03*
D20*
X148300000Y-106400000D03*
X148300000Y-108000000D03*
D21*
X148770000Y-107910000D03*
X155030000Y-107910000D03*
D20*
X155500000Y-108000000D03*
%TD*%
D19*
%TO.C,J701*%
X157210000Y-83900000D03*
X157210000Y-82300000D03*
X157560000Y-83900000D03*
X157560000Y-82300000D03*
X157910000Y-83900000D03*
X157910000Y-82300000D03*
X158260000Y-83900000D03*
X158260000Y-82300000D03*
X158610000Y-83900000D03*
X158610000Y-82300000D03*
X158960000Y-83900000D03*
X158960000Y-82300000D03*
X159310000Y-83900000D03*
X159310000Y-82300000D03*
X159660000Y-83900000D03*
X159660000Y-82300000D03*
X160010000Y-83900000D03*
X160010000Y-82300000D03*
X160360000Y-83900000D03*
X160360000Y-82300000D03*
D20*
X156060000Y-82300000D03*
D22*
X156530000Y-82395000D03*
D20*
X156060000Y-83900000D03*
D22*
X156530000Y-83805000D03*
X161040000Y-83805000D03*
D20*
X161510000Y-83900000D03*
D22*
X161040000Y-82395000D03*
D20*
X161540000Y-82300000D03*
%TD*%
D12*
%TO.C,C205*%
X163000000Y-87220000D03*
X163000000Y-88180000D03*
%TD*%
%TO.C,C401*%
X135400000Y-109820000D03*
X135400000Y-110780000D03*
%TD*%
D23*
%TO.C,IC301*%
X146300000Y-78950000D03*
X146300000Y-78450000D03*
X146800000Y-78950000D03*
X146800000Y-78450000D03*
X147300000Y-78950000D03*
X147300000Y-78450000D03*
%TD*%
D24*
%TO.C,L1601*%
X132715000Y-103800000D03*
X133685000Y-103800000D03*
%TD*%
D14*
%TO.C,TP804*%
X141000000Y-96300000D03*
%TD*%
%TO.C,TP301*%
X141500000Y-115000000D03*
%TD*%
D25*
%TO.C,L1602*%
X132720000Y-91665000D03*
X132720000Y-90695000D03*
%TD*%
D14*
%TO.C,TP204*%
X149000000Y-116500000D03*
%TD*%
D16*
%TO.C,C1305*%
X164020000Y-101700000D03*
X164980000Y-101700000D03*
%TD*%
D26*
%TO.C,R203*%
X164200000Y-88210000D03*
X164200000Y-87190000D03*
%TD*%
D17*
%TO.C,C1407*%
X151580000Y-109500000D03*
X150620000Y-109500000D03*
%TD*%
D27*
%TO.C,R804*%
X140490000Y-101300000D03*
X141510000Y-101300000D03*
%TD*%
D14*
%TO.C,J1701*%
X157800000Y-106700000D03*
X157800000Y-109200000D03*
X157800000Y-111700000D03*
X160000000Y-105450000D03*
X160000000Y-107950000D03*
X160000000Y-110450000D03*
X160000000Y-112950000D03*
X162200000Y-106700000D03*
X162200000Y-109200000D03*
X162200000Y-111700000D03*
%TD*%
D28*
%TO.C,Y801*%
X154800000Y-101650000D03*
X153400000Y-101650000D03*
X153400000Y-102750000D03*
X154800000Y-102750000D03*
%TD*%
D29*
%TO.C,U801*%
X145000000Y-99600000D03*
X145000000Y-98800000D03*
X145000000Y-98000000D03*
X145000000Y-97200000D03*
X145000000Y-96400000D03*
X145000000Y-95600000D03*
X145000000Y-94800000D03*
X145000000Y-94000000D03*
X145000000Y-93200000D03*
X145000000Y-92400001D03*
X145000000Y-91600001D03*
X145000000Y-90800001D03*
X145800000Y-99600000D03*
X145800000Y-98800000D03*
X145800000Y-98000000D03*
X145800000Y-97200000D03*
X145800000Y-96400000D03*
X145800000Y-95600000D03*
X145800000Y-94800000D03*
X145800000Y-94000000D03*
X145800000Y-93200000D03*
X145800000Y-92400001D03*
X145800000Y-91600001D03*
X145800000Y-90800001D03*
X146600000Y-99600000D03*
X146600000Y-98800000D03*
X146600000Y-98000000D03*
X146600000Y-97200000D03*
X146600000Y-96400000D03*
X146600000Y-95600000D03*
X146600000Y-94800000D03*
X146600000Y-94000000D03*
X146600000Y-93200000D03*
X146600000Y-92400001D03*
X146600000Y-91600001D03*
X146600000Y-90800001D03*
X147400000Y-99600000D03*
X147400000Y-98800000D03*
X147400000Y-98000000D03*
X147400000Y-97200000D03*
X147400000Y-96400000D03*
X147400000Y-95600000D03*
X147400000Y-94800000D03*
X147400000Y-94000000D03*
X147400000Y-93200000D03*
X147400000Y-92400001D03*
X147400000Y-91600001D03*
X147400000Y-90800001D03*
X148200000Y-99600000D03*
X148200000Y-98800000D03*
X148200000Y-98000000D03*
X148200000Y-97200000D03*
X148200000Y-96400000D03*
X148200000Y-95600000D03*
X148200000Y-94800000D03*
X148200000Y-94000000D03*
X148200000Y-93200000D03*
X148200000Y-92400001D03*
X148200000Y-91600001D03*
X148200000Y-90800001D03*
X149000000Y-99600000D03*
X149000000Y-98800000D03*
X149000000Y-98000000D03*
X149000000Y-97200000D03*
X149000000Y-96400000D03*
X149000000Y-95600000D03*
X149000000Y-94800000D03*
X149000000Y-94000000D03*
X149000000Y-93200000D03*
X149000000Y-92400001D03*
X149000000Y-91600001D03*
X149000000Y-90800001D03*
X149800000Y-99600000D03*
X149800000Y-98800000D03*
X149800000Y-98000000D03*
X149800000Y-97200000D03*
X149800000Y-96400000D03*
X149800000Y-95600000D03*
X149800000Y-94800000D03*
X149800000Y-94000000D03*
X149800000Y-93200000D03*
X149800000Y-92400001D03*
X149800000Y-91600001D03*
X149800000Y-90800001D03*
X150600000Y-99600000D03*
X150600000Y-98800000D03*
X150600000Y-98000000D03*
X150600000Y-97200000D03*
X150600000Y-96400000D03*
X150600000Y-95600000D03*
X150600000Y-94800000D03*
X150600000Y-94000000D03*
X150600000Y-93200000D03*
X150600000Y-92400001D03*
X150600000Y-91600001D03*
X150600000Y-90800001D03*
X151400000Y-99600000D03*
X151400000Y-98800000D03*
X151400000Y-98000000D03*
X151400000Y-97200000D03*
X151400000Y-96400000D03*
X151400000Y-95600000D03*
X151400000Y-94800000D03*
X151400000Y-94000000D03*
X151400000Y-93200000D03*
X151400000Y-92400001D03*
X151400000Y-91600001D03*
X151400000Y-90800001D03*
X152199999Y-99600000D03*
X152199999Y-98800000D03*
X152199999Y-98000000D03*
X152199999Y-97200000D03*
X152199999Y-96400000D03*
X152199999Y-95600000D03*
X152199999Y-94800000D03*
X152199999Y-94000000D03*
X152199999Y-93200000D03*
X152199999Y-92400001D03*
X152199999Y-91600001D03*
X152199999Y-90800001D03*
X152999999Y-99600000D03*
X152999999Y-98800000D03*
X152999999Y-98000000D03*
X152999999Y-97200000D03*
X152999999Y-96400000D03*
X152999999Y-95600000D03*
X152999999Y-94800000D03*
X152999999Y-94000000D03*
X152999999Y-93200000D03*
X152999999Y-92400001D03*
X152999999Y-91600001D03*
X152999999Y-90800001D03*
X153799999Y-99600000D03*
X153799999Y-98800000D03*
X153799999Y-98000000D03*
X153799999Y-97200000D03*
X153799999Y-96400000D03*
X153799999Y-95600000D03*
X153799999Y-94800000D03*
X153799999Y-94000000D03*
X153799999Y-93200000D03*
X153799999Y-92400001D03*
X153799999Y-91600001D03*
X153799999Y-90800001D03*
%TD*%
D12*
%TO.C,C1306*%
X163100000Y-102320000D03*
X163100000Y-103280000D03*
%TD*%
D30*
%TO.C,J601*%
X162650000Y-96550000D03*
X162650000Y-96900000D03*
X162650000Y-97250000D03*
X162650000Y-97600000D03*
X162650000Y-97950000D03*
X165050000Y-97950000D03*
X165050000Y-97600000D03*
X165050000Y-97250000D03*
X165050000Y-96900000D03*
X165050000Y-96550000D03*
D31*
X162865000Y-95550000D03*
X162865000Y-98950000D03*
X164845000Y-98950000D03*
X164845000Y-95550000D03*
%TD*%
D32*
%TO.C,R809*%
X163010000Y-100600000D03*
X161990000Y-100600000D03*
%TD*%
D33*
%TO.C,FL401*%
X134200000Y-108487500D03*
X134700000Y-108775000D03*
X135200000Y-108775000D03*
X135200000Y-108200000D03*
X134700000Y-108200000D03*
%TD*%
D34*
%TO.C,IC1302*%
X166000000Y-107650000D03*
X166000000Y-107000000D03*
X166000000Y-106350000D03*
X164000000Y-106350000D03*
X164000000Y-107000000D03*
X164000000Y-107650000D03*
D35*
X165000000Y-107000000D03*
%TD*%
D27*
%TO.C,R811*%
X163990000Y-100600000D03*
X165010000Y-100600000D03*
%TD*%
D17*
%TO.C,C1408*%
X149680000Y-109500000D03*
X148720000Y-109500000D03*
%TD*%
D13*
%TO.C,C804*%
X146600000Y-102080000D03*
X146600000Y-101120000D03*
%TD*%
D14*
%TO.C,TP202*%
X135000000Y-86800000D03*
%TD*%
D36*
%TO.C,U202*%
X160700000Y-91900000D03*
X160700000Y-92400000D03*
X160700000Y-92900000D03*
D37*
X161300000Y-93000000D03*
D36*
X161900000Y-92900000D03*
X161900000Y-92400000D03*
X161900000Y-91900000D03*
D37*
X161300000Y-91800000D03*
%TD*%
D38*
%TO.C,IC201*%
X159700000Y-87600000D03*
X159700000Y-87200000D03*
X159700000Y-86800000D03*
X159700000Y-86400000D03*
X159700000Y-86000000D03*
X159700000Y-85600000D03*
X160100000Y-87600000D03*
X160100000Y-87200000D03*
X160100000Y-86800000D03*
X160100000Y-86400000D03*
X160100000Y-86000000D03*
X160100000Y-85600000D03*
X160500000Y-87600000D03*
X160500000Y-87200000D03*
X160500000Y-86000000D03*
X160500000Y-85600000D03*
X160900000Y-87600000D03*
X160900000Y-87200000D03*
X160900000Y-86000000D03*
X160900000Y-85600000D03*
X161300000Y-87600000D03*
X161300000Y-87200000D03*
X161300000Y-86800000D03*
X161300000Y-86400000D03*
X161300000Y-86000000D03*
X161300000Y-85600000D03*
X161700000Y-87600000D03*
X161700000Y-87200000D03*
X161700000Y-86800000D03*
X161700000Y-86400000D03*
X161700000Y-86000000D03*
X161700000Y-85600000D03*
%TD*%
D14*
%TO.C,TP802*%
X151500000Y-116500000D03*
%TD*%
D13*
%TO.C,C1602*%
X132720000Y-93522000D03*
X132720000Y-92562000D03*
%TD*%
D14*
%TO.C,TP303*%
X146500000Y-116500000D03*
%TD*%
D12*
%TO.C,C1405*%
X149000000Y-111770000D03*
X149000000Y-112730000D03*
%TD*%
D39*
%TO.C,MIC1201*%
X164762500Y-92420000D03*
X164762500Y-91598000D03*
X166437500Y-92420000D03*
X166437500Y-91598000D03*
D40*
X165600000Y-89828600D03*
%TD*%
D13*
%TO.C,C802*%
X156000000Y-102680000D03*
X156000000Y-101720000D03*
%TD*%
%TO.C,C1201*%
X163300000Y-92580000D03*
X163300000Y-91620000D03*
%TD*%
D12*
%TO.C,C202*%
X163000000Y-85320000D03*
X163000000Y-86280000D03*
%TD*%
D14*
%TO.C,TP801*%
X155700000Y-114500000D03*
%TD*%
D41*
%TO.C,Q201*%
X157075000Y-79820000D03*
D42*
X156800000Y-80580000D03*
D41*
X156525000Y-79820000D03*
%TD*%
D25*
%TO.C,D201*%
X159700000Y-92285000D03*
X159700000Y-91315000D03*
%TD*%
D15*
%TO.C,R201*%
X164200000Y-85290000D03*
X164200000Y-86310000D03*
%TD*%
D32*
%TO.C,R1406*%
X154710000Y-104400000D03*
X153690000Y-104400000D03*
%TD*%
D43*
%TO.C,U401*%
X146200000Y-112700000D03*
X146200000Y-111600000D03*
X146200000Y-110500000D03*
X146200000Y-109400000D03*
X146200000Y-108300000D03*
X146200000Y-107200000D03*
X146200000Y-106100000D03*
X146200000Y-105000000D03*
X146200000Y-103900000D03*
X137000000Y-103900000D03*
X137000000Y-105000000D03*
X137000000Y-106100000D03*
X137000000Y-107200000D03*
X137000000Y-108300000D03*
X137000000Y-109400000D03*
X137000000Y-110500000D03*
X137000000Y-111600000D03*
D44*
X137400000Y-112700000D03*
%TD*%
D45*
%TO.C,U301*%
X145800000Y-81587500D03*
X145200000Y-81587500D03*
X144600000Y-81587500D03*
X144000000Y-81587500D03*
X143400000Y-81587500D03*
X142800000Y-81587500D03*
X142200000Y-81587500D03*
X141600000Y-81587500D03*
X141000000Y-81587500D03*
X140400000Y-81587500D03*
X139800000Y-81587500D03*
X139200000Y-81587500D03*
D46*
X139025000Y-82262500D03*
X139025000Y-82862500D03*
X139025000Y-83462500D03*
X139025000Y-84062500D03*
X139025000Y-84662500D03*
X139025000Y-85262500D03*
X139025000Y-85862500D03*
X139025000Y-86462500D03*
X139025000Y-87062500D03*
X139025000Y-87662500D03*
D45*
X139200000Y-88337500D03*
X139800000Y-88337500D03*
X140400000Y-88337500D03*
X141000000Y-88337500D03*
X141600000Y-88337500D03*
X142200000Y-88337500D03*
X142800000Y-88337500D03*
X143400000Y-88337500D03*
X144000000Y-88337500D03*
X144600000Y-88337500D03*
X145200000Y-88337500D03*
X145800000Y-88337500D03*
D46*
X145975000Y-87662500D03*
X145975000Y-87062500D03*
X145975000Y-86462500D03*
X145975000Y-85862500D03*
X145975000Y-85262500D03*
X145975000Y-84662500D03*
X145975000Y-84062500D03*
X145975000Y-83462500D03*
X145975000Y-82862500D03*
X145975000Y-82262500D03*
D45*
X144000000Y-82787500D03*
X143400000Y-82787500D03*
X142800000Y-82787500D03*
X142200000Y-82787500D03*
X141600000Y-82787500D03*
X141000000Y-82787500D03*
D46*
X140225000Y-83462500D03*
X140225000Y-84062500D03*
X140225000Y-84662500D03*
X140225000Y-85262500D03*
X140225000Y-85862500D03*
X140225000Y-86462500D03*
D45*
X141000000Y-87137500D03*
X141600000Y-87137500D03*
X142200000Y-87137500D03*
X142800000Y-87137500D03*
X143400000Y-87137500D03*
X144000000Y-87137500D03*
D46*
X144775000Y-86462500D03*
X144775000Y-85862500D03*
X144775000Y-85262500D03*
X144775000Y-84662500D03*
X144775000Y-84062500D03*
X144775000Y-83462500D03*
D45*
X143500000Y-83962500D03*
X142500000Y-83962500D03*
X141500000Y-83962500D03*
X141500000Y-84962500D03*
X141500000Y-85962500D03*
X142500000Y-85962500D03*
X143500000Y-85962500D03*
X143500000Y-84962500D03*
X142500000Y-84962500D03*
%TD*%
D17*
%TO.C,C1307*%
X165480000Y-108812500D03*
X164520000Y-108812500D03*
%TD*%
D47*
%TO.C,U201*%
X165395421Y-87954000D03*
X165395421Y-87446000D03*
X165903421Y-87954000D03*
X165903421Y-87446000D03*
%TD*%
D48*
%TO.C,IC1301*%
X164100000Y-104450000D03*
X164600000Y-104450000D03*
X165100000Y-104450000D03*
X165600000Y-104450000D03*
D49*
X165600000Y-103950000D03*
X165600000Y-103450000D03*
D48*
X165600000Y-102950000D03*
X165100000Y-102950000D03*
X164600000Y-102950000D03*
X164100000Y-102950000D03*
D49*
X164100000Y-103450000D03*
X164100000Y-103950000D03*
%TD*%
D17*
%TO.C,C1409*%
X149680000Y-110500000D03*
X148720000Y-110500000D03*
%TD*%
D24*
%TO.C,L1603*%
X132715000Y-89700000D03*
X133685000Y-89700000D03*
%TD*%
D12*
%TO.C,C801*%
X152200000Y-101720000D03*
X152200000Y-102680000D03*
%TD*%
D27*
%TO.C,R1601*%
X135098000Y-95035000D03*
X136118000Y-95035000D03*
%TD*%
D16*
%TO.C,C303*%
X146320000Y-80100000D03*
X147280000Y-80100000D03*
%TD*%
D50*
%TO.C,U1401*%
X152800000Y-112300000D03*
X152300000Y-112300000D03*
X151800000Y-112300000D03*
X151300000Y-112300000D03*
X152800000Y-111800000D03*
X152300000Y-111800000D03*
X151800000Y-111800000D03*
X151300000Y-111800000D03*
X152800000Y-111300000D03*
X152300000Y-111300000D03*
X151800000Y-111300000D03*
X151300000Y-111296000D03*
D51*
X152800000Y-110800000D03*
X152304000Y-110800000D03*
X151800000Y-110800000D03*
X151300000Y-110800000D03*
%TD*%
D14*
%TO.C,TP201*%
X163300000Y-83600000D03*
%TD*%
D52*
%TO.C,IC401*%
X133400000Y-106987500D03*
X133800000Y-106987500D03*
X134200000Y-106987500D03*
X134200000Y-106587500D03*
X133800000Y-106587500D03*
X133400000Y-106587500D03*
%TD*%
D16*
%TO.C,C1501*%
X165920000Y-94100000D03*
X166880000Y-94100000D03*
%TD*%
D53*
%TO.C,IC1801*%
X140800000Y-99550000D03*
X141200000Y-99550000D03*
X140800000Y-100050000D03*
X141200000Y-100050000D03*
%TD*%
D16*
%TO.C,C1404*%
X154470000Y-109500000D03*
X155430000Y-109500000D03*
%TD*%
D54*
%TO.C,L202*%
X160025000Y-89800000D03*
X158575000Y-89800000D03*
%TD*%
D17*
%TO.C,C304*%
X143480000Y-80100000D03*
X142520000Y-80100000D03*
%TD*%
D55*
%TO.C,Y802*%
X145400000Y-101600000D03*
X144000000Y-101600000D03*
%TD*%
D32*
%TO.C,R1405*%
X156610000Y-104400000D03*
X155590000Y-104400000D03*
%TD*%
D25*
%TO.C,D202*%
X158700000Y-92285000D03*
X158700000Y-91315000D03*
%TD*%
D14*
%TO.C,TP302*%
X144000000Y-116000000D03*
%TD*%
D13*
%TO.C,C1001*%
X155500000Y-80780000D03*
X155500000Y-79820000D03*
%TD*%
D56*
%TO.C,SW1501*%
X166800000Y-98900000D03*
X166800000Y-96600000D03*
X166800000Y-97750000D03*
D57*
X168350000Y-100450000D03*
D58*
X168350000Y-95050000D03*
%TD*%
D27*
%TO.C,R802*%
X140490000Y-98300000D03*
X141510000Y-98300000D03*
%TD*%
D59*
%TO.C,L1604*%
X136407053Y-88342947D03*
X137092947Y-87657053D03*
%TD*%
D32*
%TO.C,R810*%
X165010000Y-105400000D03*
X163990000Y-105400000D03*
%TD*%
D14*
%TO.C,TP205*%
X136800000Y-84200000D03*
%TD*%
D16*
%TO.C,C1406*%
X152520000Y-109500000D03*
X153480000Y-109500000D03*
%TD*%
D60*
%TO.C,IC1001*%
X150500000Y-80800000D03*
X151500000Y-80800000D03*
X152500000Y-80800000D03*
X153500000Y-80800000D03*
X149500000Y-81800000D03*
X150500000Y-81800000D03*
X151500000Y-81800000D03*
X152500000Y-81800000D03*
X153500000Y-81800000D03*
X149500000Y-82800000D03*
X150500000Y-82800000D03*
X151500000Y-82800000D03*
X152500000Y-82800000D03*
X153500000Y-82800000D03*
X149500000Y-83800000D03*
X150500000Y-83800000D03*
X151500000Y-83800000D03*
X152500000Y-83800000D03*
X153500000Y-83800000D03*
X149500000Y-84800000D03*
X150500000Y-84800000D03*
X151500000Y-84800000D03*
X152500000Y-84800000D03*
X153500000Y-84800000D03*
%TD*%
D18*
%TO.C,L901*%
X156800000Y-96225000D03*
X156800000Y-94775000D03*
%TD*%
D61*
%TO.C,L401*%
X132857053Y-104757053D03*
X133542947Y-105442947D03*
%TD*%
D12*
%TO.C,C1303*%
X162100000Y-102320000D03*
X162100000Y-103280000D03*
%TD*%
D13*
%TO.C,C1301*%
X167000000Y-103480000D03*
X167000000Y-102520000D03*
%TD*%
D62*
%TO.C,ANT1601*%
X132931000Y-95661000D03*
D63*
X133184000Y-95036000D03*
D62*
X132931000Y-94411000D03*
D63*
X132678000Y-95036000D03*
%TD*%
D25*
%TO.C,D203*%
X157700000Y-92285000D03*
X157700000Y-91315000D03*
%TD*%
D32*
%TO.C,R601*%
X164810000Y-94100000D03*
X163790000Y-94100000D03*
%TD*%
D16*
%TO.C,C1101*%
X160020000Y-100600000D03*
X160980000Y-100600000D03*
%TD*%
D26*
%TO.C,R812*%
X167000000Y-105410000D03*
X167000000Y-104390000D03*
%TD*%
D54*
%TO.C,L201*%
X162825000Y-89800000D03*
X161375000Y-89800000D03*
%TD*%
D23*
%TO.C,IC302*%
X143900000Y-78950000D03*
X143900000Y-78450000D03*
X144400000Y-78950000D03*
X144400000Y-78450000D03*
X144900000Y-78950000D03*
X144900000Y-78450000D03*
%TD*%
%TO.C,IC1101*%
X160600000Y-102250000D03*
X160600000Y-102750000D03*
X160100000Y-102250000D03*
X160100000Y-102750000D03*
X159600000Y-102250000D03*
X159600000Y-102750000D03*
%TD*%
M02*
