%TF.GenerationSoftware,KiCad,Pcbnew,8.0.1*%
%TF.CreationDate,2024-03-29T03:09:59+00:00*%
%TF.ProjectId,watch_main,77617463-685f-46d6-9169-6e2e6b696361,rev?*%
%TF.SameCoordinates,Original*%
%TF.FileFunction,Legend,Bot*%
%TF.FilePolarity,Positive*%
%FSLAX46Y46*%
G04 Gerber Fmt 4.6, Leading zero omitted, Abs format (unit mm)*
G04 Created by KiCad (PCBNEW 8.0.1) date 2024-03-29 03:09:59*
%MOMM*%
%LPD*%
G01*
G04 APERTURE LIST*
G04 Aperture macros list*
%AMRoundRect*
0 Rectangle with rounded corners*
0 $1 Rounding radius*
0 $2 $3 $4 $5 $6 $7 $8 $9 X,Y pos of 4 corners*
0 Add a 4 corners polygon primitive as box body*
4,1,4,$2,$3,$4,$5,$6,$7,$8,$9,$2,$3,0*
0 Add four circle primitives for the rounded corners*
1,1,$1+$1,$2,$3*
1,1,$1+$1,$4,$5*
1,1,$1+$1,$6,$7*
1,1,$1+$1,$8,$9*
0 Add four rect primitives between the rounded corners*
20,1,$1+$1,$2,$3,$4,$5,0*
20,1,$1+$1,$4,$5,$6,$7,0*
20,1,$1+$1,$6,$7,$8,$9,0*
20,1,$1+$1,$8,$9,$2,$3,0*%
G04 Aperture macros list end*
%ADD10C,0.100000*%
%ADD11C,0.150000*%
%ADD12C,0.120000*%
%ADD13C,0.152400*%
%ADD14C,0.250000*%
%ADD15C,0.200000*%
%ADD16C,0.304800*%
%ADD17R,1.600000X0.550000*%
%ADD18RoundRect,0.135000X-0.185000X0.135000X-0.185000X-0.135000X0.185000X-0.135000X0.185000X0.135000X0*%
%ADD19RoundRect,0.100000X0.100000X-0.130000X0.100000X0.130000X-0.100000X0.130000X-0.100000X-0.130000X0*%
%ADD20RoundRect,0.140000X-0.140000X-0.170000X0.140000X-0.170000X0.140000X0.170000X-0.140000X0.170000X0*%
%ADD21RoundRect,0.135000X-0.135000X-0.185000X0.135000X-0.185000X0.135000X0.185000X-0.135000X0.185000X0*%
%ADD22RoundRect,0.140000X0.170000X-0.140000X0.170000X0.140000X-0.170000X0.140000X-0.170000X-0.140000X0*%
%ADD23RoundRect,0.140000X-0.170000X0.140000X-0.170000X-0.140000X0.170000X-0.140000X0.170000X0.140000X0*%
%ADD24RoundRect,0.140000X0.140000X0.170000X-0.140000X0.170000X-0.140000X-0.170000X0.140000X-0.170000X0*%
%ADD25R,0.900000X0.220000*%
%ADD26R,0.850000X0.220000*%
%ADD27R,0.220000X0.550000*%
%ADD28RoundRect,0.100000X-0.130000X-0.100000X0.130000X-0.100000X0.130000X0.100000X-0.130000X0.100000X0*%
%ADD29RoundRect,0.135000X0.185000X-0.135000X0.185000X0.135000X-0.185000X0.135000X-0.185000X-0.135000X0*%
%ADD30R,0.533400X0.304800*%
%ADD31R,0.304800X0.533400*%
%ADD32RoundRect,0.135000X0.135000X0.185000X-0.135000X0.185000X-0.135000X-0.185000X0.135000X-0.185000X0*%
%ADD33RoundRect,0.100000X0.130000X0.100000X-0.130000X0.100000X-0.130000X-0.100000X0.130000X-0.100000X0*%
%ADD34RoundRect,0.100000X-0.100000X0.130000X-0.100000X-0.130000X0.100000X-0.130000X0.100000X0.130000X0*%
%ADD35R,0.500000X1.000000*%
%ADD36R,0.720000X0.780000*%
%ADD37R,1.050000X1.080000*%
%ADD38R,1.050000X1.105000*%
%ADD39R,1.050000X1.200000*%
%ADD40R,1.050000X2.390000*%
%ADD41R,2.910000X0.550000*%
G04 APERTURE END LIST*
D10*
X140150000Y-108950000D02*
X141050000Y-108050000D01*
X139550000Y-113250000D02*
X139550000Y-104750000D01*
X139950000Y-107950000D02*
X139550000Y-108350000D01*
X139550000Y-109000000D02*
X145650000Y-109000000D01*
X140750000Y-107950000D02*
X139750000Y-108950000D01*
X144650000Y-113250000D02*
X144650000Y-104750000D01*
X139550000Y-107950000D02*
X145650000Y-107950000D01*
X139550000Y-108750000D02*
X140350000Y-107950000D01*
X141050000Y-104750000D02*
X145650000Y-104750000D01*
X145650000Y-113250000D01*
X141050000Y-113250000D01*
X141050000Y-104750000D01*
X139550000Y-104750000D02*
X141050000Y-104750000D01*
X141050000Y-108450000D02*
X140500000Y-109000000D01*
X141050000Y-113250000D02*
X139550000Y-113250000D01*
X141050000Y-108850000D02*
X140950000Y-108950000D01*
D11*
G36*
X140599000Y-105338542D02*
G01*
X139989369Y-105338542D01*
X139989369Y-105418556D01*
X140528658Y-105418556D01*
X140528658Y-105716044D01*
X140599000Y-105716044D01*
X140599000Y-105338542D01*
G37*
G36*
X140599000Y-106036099D02*
G01*
X140598959Y-106043246D01*
X140597787Y-106073665D01*
X140594582Y-106104119D01*
X140588741Y-106133552D01*
X140585254Y-106145679D01*
X140573976Y-106174129D01*
X140558260Y-106199791D01*
X140550078Y-106209384D01*
X140526340Y-106229444D01*
X140500814Y-106244048D01*
X140481827Y-106251870D01*
X140451939Y-106259412D01*
X140420360Y-106261926D01*
X140413676Y-106261811D01*
X140381954Y-106257784D01*
X140353065Y-106248004D01*
X140327011Y-106232471D01*
X140319795Y-106226725D01*
X140298684Y-106204354D01*
X140282094Y-106177031D01*
X140271030Y-106148207D01*
X140259737Y-106168110D01*
X140239740Y-106192915D01*
X140216076Y-106211661D01*
X140203117Y-106218833D01*
X140173978Y-106229281D01*
X140143389Y-106232764D01*
X140120339Y-106230886D01*
X140090471Y-106222540D01*
X140063961Y-106209023D01*
X140042094Y-106192411D01*
X140022536Y-106170038D01*
X140007688Y-106143371D01*
X140000550Y-106123787D01*
X139993949Y-106094754D01*
X139990514Y-106065308D01*
X139989369Y-106032436D01*
X139989369Y-105885743D01*
X140059711Y-105885743D01*
X140059711Y-106006497D01*
X140060243Y-106036640D01*
X140062401Y-106067595D01*
X140068211Y-106098381D01*
X140077487Y-106118115D01*
X140099572Y-106139561D01*
X140122614Y-106149869D01*
X140152621Y-106153922D01*
X140178399Y-106150977D01*
X140205524Y-106138535D01*
X140223513Y-106119337D01*
X140235566Y-106092519D01*
X140238966Y-106077190D01*
X140241913Y-106046615D01*
X140242600Y-106016316D01*
X140242600Y-105885743D01*
X140312942Y-105885743D01*
X140312942Y-106025402D01*
X140313602Y-106052577D01*
X140316662Y-106084409D01*
X140323494Y-106113769D01*
X140337782Y-106141173D01*
X140359837Y-106161836D01*
X140361467Y-106162899D01*
X140389961Y-106175328D01*
X140420800Y-106179128D01*
X140445640Y-106176828D01*
X140473703Y-106167111D01*
X140488139Y-106158154D01*
X140508581Y-106136630D01*
X140517777Y-106118706D01*
X140525727Y-106090468D01*
X140528097Y-106065548D01*
X140528658Y-106036099D01*
X140528658Y-105885743D01*
X140312942Y-105885743D01*
X140242600Y-105885743D01*
X140059711Y-105885743D01*
X139989369Y-105885743D01*
X139989369Y-105805730D01*
X140599000Y-105805730D01*
X140599000Y-106036099D01*
G37*
G36*
X140599000Y-106370517D02*
G01*
X139989369Y-106370517D01*
X139989369Y-106807369D01*
X140059711Y-106807369D01*
X140059711Y-106450384D01*
X140251979Y-106450384D01*
X140251979Y-106784655D01*
X140322321Y-106784655D01*
X140322321Y-106450384D01*
X140528658Y-106450384D01*
X140528658Y-106821438D01*
X140599000Y-106821438D01*
X140599000Y-106370517D01*
G37*
G36*
X140599000Y-106930321D02*
G01*
X139989369Y-106930321D01*
X139989369Y-107367174D01*
X140059711Y-107367174D01*
X140059711Y-107010189D01*
X140251979Y-107010189D01*
X140251979Y-107344459D01*
X140322321Y-107344459D01*
X140322321Y-107010189D01*
X140528658Y-107010189D01*
X140528658Y-107381242D01*
X140599000Y-107381242D01*
X140599000Y-106930321D01*
G37*
G36*
X137770110Y-92817166D02*
G01*
X137826672Y-92846154D01*
X137869616Y-92890358D01*
X137873467Y-92895713D01*
X137903388Y-92953302D01*
X137923185Y-93016973D01*
X137935559Y-93080124D01*
X137944183Y-93152448D01*
X137948382Y-93216912D01*
X137950182Y-93287247D01*
X137950257Y-93305748D01*
X137949167Y-93377363D01*
X137945897Y-93442732D01*
X137940447Y-93501854D01*
X137930570Y-93566972D01*
X137914221Y-93632231D01*
X137888948Y-93690602D01*
X137880501Y-93703766D01*
X137838713Y-93751654D01*
X137786300Y-93786482D01*
X137727590Y-93801961D01*
X137708750Y-93802831D01*
X137647996Y-93793128D01*
X137593597Y-93764020D01*
X137550070Y-93721230D01*
X137536705Y-93703473D01*
X137509525Y-93650481D01*
X137491541Y-93589901D01*
X137480301Y-93528728D01*
X137472467Y-93457838D01*
X137468652Y-93394129D01*
X137467017Y-93324202D01*
X137466949Y-93305748D01*
X137468039Y-93233936D01*
X137471309Y-93168417D01*
X137476759Y-93109189D01*
X137486636Y-93044004D01*
X137502985Y-92978759D01*
X137528258Y-92920533D01*
X137536705Y-92907437D01*
X137578632Y-92859691D01*
X137631526Y-92824966D01*
X137691060Y-92809533D01*
X137710215Y-92808665D01*
X137770110Y-92817166D01*
G37*
G36*
X141430838Y-93135506D02*
G01*
X141488111Y-93162639D01*
X141533506Y-93204015D01*
X141537696Y-93209028D01*
X141569715Y-93262137D01*
X141589380Y-93321841D01*
X141599795Y-93383729D01*
X141603676Y-93443942D01*
X141603934Y-93465483D01*
X141601441Y-93526102D01*
X141592229Y-93589191D01*
X141573388Y-93651231D01*
X141541595Y-93708194D01*
X141533006Y-93719007D01*
X141486186Y-93763211D01*
X141434386Y-93791044D01*
X141371653Y-93802749D01*
X141365651Y-93802831D01*
X141302216Y-93793377D01*
X141245708Y-93765012D01*
X141200348Y-93722817D01*
X141167478Y-93670991D01*
X141147291Y-93613751D01*
X141136600Y-93555041D01*
X141132417Y-93488280D01*
X141132350Y-93478086D01*
X141134792Y-93413552D01*
X141143814Y-93346832D01*
X141159484Y-93289340D01*
X141185533Y-93234935D01*
X141201813Y-93212252D01*
X141248164Y-93167584D01*
X141300754Y-93139460D01*
X141359584Y-93127880D01*
X141372099Y-93127549D01*
X141430838Y-93135506D01*
G37*
G36*
X142695804Y-93479889D02*
G01*
X142753882Y-93494040D01*
X142812965Y-93505430D01*
X142879761Y-93515895D01*
X142940843Y-93526460D01*
X142998949Y-93541957D01*
X143009308Y-93546083D01*
X143058008Y-93581668D01*
X143067926Y-93595030D01*
X143087721Y-93652257D01*
X143088442Y-93666837D01*
X143075787Y-93725280D01*
X143043599Y-93767367D01*
X142992204Y-93796188D01*
X142932971Y-93806893D01*
X142912001Y-93807521D01*
X142850315Y-93802204D01*
X142789627Y-93784444D01*
X142759594Y-93769712D01*
X142711152Y-93734159D01*
X142672074Y-93685593D01*
X142661408Y-93665665D01*
X142644158Y-93607438D01*
X142637962Y-93545463D01*
X142637375Y-93515602D01*
X142637375Y-93460501D01*
X142695804Y-93479889D01*
G37*
G36*
X143835083Y-93134179D02*
G01*
X143894274Y-93157100D01*
X143946023Y-93196393D01*
X143960096Y-93211373D01*
X143995516Y-93265317D01*
X144017269Y-93324672D01*
X144028790Y-93385414D01*
X144033083Y-93444020D01*
X144033369Y-93464897D01*
X144030793Y-93525436D01*
X144021276Y-93588512D01*
X144001813Y-93650638D01*
X143973191Y-93702140D01*
X143960096Y-93718714D01*
X143915866Y-93759376D01*
X143859652Y-93788949D01*
X143795997Y-93802092D01*
X143775449Y-93802831D01*
X143716239Y-93796131D01*
X143657358Y-93772970D01*
X143605746Y-93733265D01*
X143591680Y-93718128D01*
X143556260Y-93663457D01*
X143534508Y-93603067D01*
X143522987Y-93541119D01*
X143518694Y-93481256D01*
X143518408Y-93459914D01*
X143521004Y-93401278D01*
X143530597Y-93339953D01*
X143550216Y-93279210D01*
X143583323Y-93222785D01*
X143592267Y-93211959D01*
X143636499Y-93171155D01*
X143692335Y-93141480D01*
X143755213Y-93128291D01*
X143775449Y-93127549D01*
X143835083Y-93134179D01*
G37*
G36*
X145077947Y-93765316D02*
G01*
X144777235Y-93765316D01*
X144718339Y-93764194D01*
X144668498Y-93759454D01*
X144612022Y-93743555D01*
X144576175Y-93725162D01*
X144533126Y-93684278D01*
X144515211Y-93655406D01*
X144495778Y-93599280D01*
X144491178Y-93549600D01*
X144498777Y-93487922D01*
X144523635Y-93430934D01*
X144525763Y-93427674D01*
X144567089Y-93383564D01*
X144621897Y-93354988D01*
X144680616Y-93341325D01*
X144744281Y-93335204D01*
X144798631Y-93333885D01*
X145077947Y-93333885D01*
X145077947Y-93765316D01*
G37*
G36*
X145077947Y-93193201D02*
G01*
X144816803Y-93193201D01*
X144756204Y-93191827D01*
X144695055Y-93185933D01*
X144664395Y-93179133D01*
X144610759Y-93155026D01*
X144572364Y-93119049D01*
X144547480Y-93064799D01*
X144541590Y-93013243D01*
X144549696Y-92953229D01*
X144570313Y-92907144D01*
X144613204Y-92862975D01*
X144652671Y-92844422D01*
X144714245Y-92832802D01*
X144776154Y-92828486D01*
X144836440Y-92827423D01*
X145077947Y-92827423D01*
X145077947Y-93193201D01*
G37*
G36*
X138527459Y-91463889D02*
G01*
X138585537Y-91478040D01*
X138644620Y-91489430D01*
X138711416Y-91499895D01*
X138772498Y-91510460D01*
X138830603Y-91525957D01*
X138840962Y-91530083D01*
X138889663Y-91565668D01*
X138899581Y-91579030D01*
X138919376Y-91636257D01*
X138920097Y-91650837D01*
X138907441Y-91709280D01*
X138875254Y-91751367D01*
X138823859Y-91780188D01*
X138764626Y-91790893D01*
X138743656Y-91791521D01*
X138681970Y-91786204D01*
X138621282Y-91768444D01*
X138591249Y-91753712D01*
X138542806Y-91718159D01*
X138503729Y-91669593D01*
X138493063Y-91649665D01*
X138475812Y-91591438D01*
X138469616Y-91529463D01*
X138469029Y-91499602D01*
X138469029Y-91444501D01*
X138527459Y-91463889D01*
G37*
G36*
X143567459Y-91463889D02*
G01*
X143625537Y-91478040D01*
X143684620Y-91489430D01*
X143751416Y-91499895D01*
X143812498Y-91510460D01*
X143870603Y-91525957D01*
X143880962Y-91530083D01*
X143929663Y-91565668D01*
X143939581Y-91579030D01*
X143959376Y-91636257D01*
X143960097Y-91650837D01*
X143947441Y-91709280D01*
X143915254Y-91751367D01*
X143863859Y-91780188D01*
X143804626Y-91790893D01*
X143783656Y-91791521D01*
X143721970Y-91786204D01*
X143661282Y-91768444D01*
X143631249Y-91753712D01*
X143582806Y-91718159D01*
X143543729Y-91669593D01*
X143533063Y-91649665D01*
X143515812Y-91591438D01*
X143509616Y-91529463D01*
X143509029Y-91499602D01*
X143509029Y-91444501D01*
X143567459Y-91463889D01*
G37*
G36*
X145815049Y-94058090D02*
G01*
X136876101Y-94058090D01*
X136876101Y-93306041D01*
X137314542Y-93306041D01*
X137315608Y-93370716D01*
X137318806Y-93431384D01*
X137325459Y-93498896D01*
X137335183Y-93560637D01*
X137350408Y-93625376D01*
X137358212Y-93650717D01*
X137382759Y-93712504D01*
X137412727Y-93766854D01*
X137448118Y-93813767D01*
X137488931Y-93853243D01*
X137541512Y-93887813D01*
X137601327Y-93911069D01*
X137660568Y-93922243D01*
X137708750Y-93924757D01*
X137771618Y-93920337D01*
X137829210Y-93907076D01*
X137889733Y-93880430D01*
X137943076Y-93841752D01*
X137983083Y-93799021D01*
X138017533Y-93747109D01*
X138022174Y-93737179D01*
X138316914Y-93737179D01*
X138316914Y-93906000D01*
X138486028Y-93906000D01*
X138486028Y-93737179D01*
X138316914Y-93737179D01*
X138022174Y-93737179D01*
X138046144Y-93685895D01*
X138064828Y-93630226D01*
X138079776Y-93568603D01*
X138083950Y-93543445D01*
X138711415Y-93543445D01*
X138716941Y-93610887D01*
X138733518Y-93673701D01*
X138761147Y-93731886D01*
X138799828Y-93785443D01*
X138826893Y-93813969D01*
X138872330Y-93851620D01*
X138930732Y-93885700D01*
X138994940Y-93909178D01*
X139054597Y-93920862D01*
X139118519Y-93924757D01*
X139185566Y-93920283D01*
X139247452Y-93906862D01*
X139304177Y-93884492D01*
X139355740Y-93853174D01*
X139382888Y-93831261D01*
X139424487Y-93787578D01*
X139457476Y-93738593D01*
X139481853Y-93684306D01*
X139497619Y-93624719D01*
X139502762Y-93588288D01*
X139354458Y-93568358D01*
X139339474Y-93626299D01*
X139317274Y-93681103D01*
X139282458Y-93733163D01*
X139267703Y-93748023D01*
X139217790Y-93781422D01*
X139160376Y-93799406D01*
X139117933Y-93802831D01*
X139055560Y-93795733D01*
X138999597Y-93774438D01*
X138950047Y-93738947D01*
X138940906Y-93730145D01*
X138902884Y-93681338D01*
X138878944Y-93625777D01*
X138869087Y-93563460D01*
X138868805Y-93550187D01*
X138875331Y-93489776D01*
X138897584Y-93431458D01*
X138935630Y-93381659D01*
X138985832Y-93343780D01*
X139044554Y-93321624D01*
X139105330Y-93315127D01*
X139166101Y-93321539D01*
X139210257Y-93331540D01*
X139193551Y-93191736D01*
X139169810Y-93193201D01*
X139106810Y-93187452D01*
X139048381Y-93170205D01*
X138999231Y-93144548D01*
X138956012Y-93104865D01*
X138929325Y-93047355D01*
X138923320Y-92994485D01*
X138932463Y-92933783D01*
X138962756Y-92878581D01*
X138978715Y-92861422D01*
X139028805Y-92827264D01*
X139089538Y-92810520D01*
X139121157Y-92808665D01*
X139181964Y-92816249D01*
X139238723Y-92841581D01*
X139265358Y-92862594D01*
X139302851Y-92910624D01*
X139327009Y-92967976D01*
X139339510Y-93024381D01*
X139588638Y-93024381D01*
X139920124Y-93906000D01*
X140058756Y-93906000D01*
X140391708Y-93024381D01*
X140234904Y-93024381D01*
X140047033Y-93553411D01*
X140026666Y-93613045D01*
X140007476Y-93674273D01*
X139991052Y-93731317D01*
X139973961Y-93675002D01*
X139954529Y-93616356D01*
X139935951Y-93563376D01*
X139741338Y-93024381D01*
X139588638Y-93024381D01*
X139339510Y-93024381D01*
X139487814Y-92998002D01*
X139472694Y-92936317D01*
X139450925Y-92881027D01*
X139417906Y-92825669D01*
X139376205Y-92778665D01*
X139364423Y-92768219D01*
X139313260Y-92732571D01*
X139256199Y-92707109D01*
X139193239Y-92691832D01*
X139133311Y-92686819D01*
X139124381Y-92686739D01*
X140997235Y-92686739D01*
X140997235Y-93478086D01*
X140997235Y-93906000D01*
X141134695Y-93906000D01*
X141134695Y-93795504D01*
X141174971Y-93845867D01*
X141222707Y-93883861D01*
X141277905Y-93909484D01*
X141340564Y-93922738D01*
X141379720Y-93924757D01*
X141443484Y-93919090D01*
X141503986Y-93902089D01*
X141561224Y-93873753D01*
X141572281Y-93866725D01*
X141618468Y-93830465D01*
X141658443Y-93786972D01*
X141692204Y-93736246D01*
X141708275Y-93704939D01*
X141731511Y-93643978D01*
X141745780Y-93585703D01*
X141754042Y-93523581D01*
X141756342Y-93466069D01*
X141753613Y-93401791D01*
X141745424Y-93340553D01*
X141731777Y-93282356D01*
X141712671Y-93227200D01*
X141684652Y-93170824D01*
X141649724Y-93122377D01*
X141602812Y-93077847D01*
X141581660Y-93062775D01*
X141564592Y-93053690D01*
X141787996Y-93053690D01*
X141838994Y-93192322D01*
X141893509Y-93168362D01*
X141948024Y-93160375D01*
X142007589Y-93173124D01*
X142035365Y-93189977D01*
X142075024Y-93235544D01*
X142090466Y-93271457D01*
X142105647Y-93333129D01*
X142113408Y-93393356D01*
X142115379Y-93445260D01*
X142115379Y-93906000D01*
X142263683Y-93906000D01*
X142440417Y-93906000D01*
X142595463Y-93906000D01*
X142616225Y-93847576D01*
X142625065Y-93795211D01*
X142670928Y-93831816D01*
X142720799Y-93864766D01*
X142774335Y-93891622D01*
X142783920Y-93895448D01*
X142842640Y-93913308D01*
X142904491Y-93922926D01*
X142947466Y-93924757D01*
X143007370Y-93921349D01*
X143068035Y-93909108D01*
X143126343Y-93884695D01*
X143169336Y-93853536D01*
X143210140Y-93805159D01*
X143235831Y-93749054D01*
X143246410Y-93685220D01*
X143246712Y-93671526D01*
X143240272Y-93613038D01*
X143219206Y-93556188D01*
X143217403Y-93552824D01*
X143183624Y-93504318D01*
X143140906Y-93466655D01*
X143116266Y-93452880D01*
X143365707Y-93452880D01*
X143365912Y-93459914D01*
X143367490Y-93513973D01*
X143374075Y-93578814D01*
X143385514Y-93636726D01*
X143404528Y-93694429D01*
X143416412Y-93719886D01*
X143448596Y-93771190D01*
X143488107Y-93815631D01*
X143534944Y-93853210D01*
X143564130Y-93871122D01*
X143619949Y-93897049D01*
X143678597Y-93914491D01*
X143740073Y-93923448D01*
X143775449Y-93924757D01*
X143841889Y-93920595D01*
X143903383Y-93908106D01*
X143959931Y-93887292D01*
X144011534Y-93858152D01*
X144058190Y-93820687D01*
X144072643Y-93806348D01*
X144111191Y-93758277D01*
X144141763Y-93702869D01*
X144164359Y-93640124D01*
X144177098Y-93582233D01*
X144180929Y-93548721D01*
X144325581Y-93548721D01*
X144325651Y-93549600D01*
X144330610Y-93611878D01*
X144345695Y-93671655D01*
X144361338Y-93709628D01*
X144390547Y-93760681D01*
X144430666Y-93808157D01*
X144449852Y-93824520D01*
X144501175Y-93855952D01*
X144558075Y-93878508D01*
X144582329Y-93885483D01*
X144641196Y-93897164D01*
X144702104Y-93903575D01*
X144762941Y-93905919D01*
X144777235Y-93906000D01*
X145237975Y-93906000D01*
X145237975Y-92686739D01*
X144784563Y-92686739D01*
X144718818Y-92689029D01*
X144659925Y-92695898D01*
X144601860Y-92709100D01*
X144562692Y-92723376D01*
X144509358Y-92753072D01*
X144464612Y-92792188D01*
X144431387Y-92835923D01*
X144404355Y-92888943D01*
X144387662Y-92948678D01*
X144383907Y-92994778D01*
X144386009Y-93013243D01*
X144390872Y-93055957D01*
X144411769Y-93114234D01*
X144426112Y-93140152D01*
X144463605Y-93187481D01*
X144513215Y-93227475D01*
X144553020Y-93250061D01*
X144495372Y-93272189D01*
X144440726Y-93305368D01*
X144395984Y-93347591D01*
X144384493Y-93362022D01*
X144353426Y-93414131D01*
X144333866Y-93471908D01*
X144325811Y-93535352D01*
X144325581Y-93548721D01*
X144180929Y-93548721D01*
X144184298Y-93519247D01*
X144186070Y-93465190D01*
X144183954Y-93406128D01*
X144175359Y-93337851D01*
X144160152Y-93275742D01*
X144138333Y-93219801D01*
X144103423Y-93160814D01*
X144058992Y-93110709D01*
X144050662Y-93103222D01*
X143998924Y-93065193D01*
X143942446Y-93036504D01*
X143881227Y-93017155D01*
X143815268Y-93007148D01*
X143775449Y-93005623D01*
X143710063Y-93009806D01*
X143649314Y-93022356D01*
X143593202Y-93043273D01*
X143541727Y-93072557D01*
X143494888Y-93110208D01*
X143480306Y-93124618D01*
X143441360Y-93172325D01*
X143410472Y-93226421D01*
X143387642Y-93286906D01*
X143372869Y-93353779D01*
X143366714Y-93414386D01*
X143365707Y-93452880D01*
X143116266Y-93452880D01*
X143087066Y-93436556D01*
X143033927Y-93417416D01*
X142974954Y-93405208D01*
X142912890Y-93396207D01*
X142902036Y-93394848D01*
X142837990Y-93386426D01*
X142771682Y-93375872D01*
X142706996Y-93362847D01*
X142648369Y-93346969D01*
X142637375Y-93343264D01*
X142636789Y-93304576D01*
X142642682Y-93244552D01*
X142666626Y-93190503D01*
X142678701Y-93177667D01*
X142729135Y-93147126D01*
X142789053Y-93131513D01*
X142847814Y-93127549D01*
X142907858Y-93130983D01*
X142965780Y-93144172D01*
X143002274Y-93162720D01*
X143043318Y-93207542D01*
X143069721Y-93265558D01*
X143076133Y-93286990D01*
X143221213Y-93267060D01*
X143204532Y-93209119D01*
X143179542Y-93155312D01*
X143156147Y-93121394D01*
X143112608Y-93080404D01*
X143060656Y-93050124D01*
X143025135Y-93035811D01*
X142962874Y-93018624D01*
X142900684Y-93009190D01*
X142840161Y-93005741D01*
X142826126Y-93005623D01*
X142766463Y-93007732D01*
X142707948Y-93015025D01*
X142648535Y-93030653D01*
X142644116Y-93032294D01*
X142589948Y-93058012D01*
X142543329Y-93096330D01*
X142541241Y-93098826D01*
X142510288Y-93150768D01*
X142494932Y-93200528D01*
X142489008Y-93262775D01*
X142487634Y-93325808D01*
X142487605Y-93337988D01*
X142487605Y-93460501D01*
X142487605Y-93536997D01*
X142487376Y-93598292D01*
X142486497Y-93661984D01*
X142484638Y-93722696D01*
X142480424Y-93784028D01*
X142478226Y-93800193D01*
X142462738Y-93857498D01*
X142440417Y-93906000D01*
X142263683Y-93906000D01*
X142263683Y-93024381D01*
X142130034Y-93024381D01*
X142130034Y-93159496D01*
X142098933Y-93106962D01*
X142060812Y-93057411D01*
X142035951Y-93035518D01*
X141981341Y-93010557D01*
X141940403Y-93005623D01*
X141879053Y-93013556D01*
X141821736Y-93034960D01*
X141787996Y-93053690D01*
X141564592Y-93053690D01*
X141525039Y-93032636D01*
X141464354Y-93013660D01*
X141399605Y-93005846D01*
X141386168Y-93005623D01*
X141324725Y-93011379D01*
X141264938Y-93030453D01*
X141245191Y-93040501D01*
X141195510Y-93074858D01*
X141154694Y-93117405D01*
X141144660Y-93131066D01*
X141144660Y-92686739D01*
X140997235Y-92686739D01*
X139124381Y-92686739D01*
X139064166Y-92690861D01*
X139001433Y-92704915D01*
X138942371Y-92728944D01*
X138889786Y-92761632D01*
X138846482Y-92801661D01*
X138815170Y-92844422D01*
X138788201Y-92900435D01*
X138773679Y-92959003D01*
X138770913Y-92999468D01*
X138777830Y-93060539D01*
X138798581Y-93117063D01*
X138812825Y-93141617D01*
X138853602Y-93189226D01*
X138903178Y-93225530D01*
X138937389Y-93243320D01*
X138880851Y-93261576D01*
X138826949Y-93291812D01*
X138782436Y-93332525D01*
X138770913Y-93346781D01*
X138739537Y-93399738D01*
X138719782Y-93460423D01*
X138711938Y-93521646D01*
X138711415Y-93543445D01*
X138083950Y-93543445D01*
X138090987Y-93501027D01*
X138098460Y-93427498D01*
X138101613Y-93368444D01*
X138102664Y-93306041D01*
X138101591Y-93240952D01*
X138098371Y-93179955D01*
X138091673Y-93112161D01*
X138081885Y-93050262D01*
X138066557Y-92985495D01*
X138058701Y-92960193D01*
X138033916Y-92898315D01*
X138003819Y-92843983D01*
X137968410Y-92797198D01*
X137927689Y-92757960D01*
X137875177Y-92723532D01*
X137815571Y-92700371D01*
X137756632Y-92689243D01*
X137708750Y-92686739D01*
X137644691Y-92691380D01*
X137586313Y-92705302D01*
X137538170Y-92726013D01*
X137486623Y-92760374D01*
X137442329Y-92804544D01*
X137416830Y-92839440D01*
X137386410Y-92894062D01*
X137362963Y-92950391D01*
X137345286Y-93006519D01*
X137341799Y-93019691D01*
X137329874Y-93077375D01*
X137321356Y-93144328D01*
X137316698Y-93210516D01*
X137314781Y-93272896D01*
X137314544Y-93305748D01*
X137314542Y-93306041D01*
X136876101Y-93306041D01*
X136876101Y-91890000D01*
X137009434Y-91890000D01*
X137157738Y-91890000D01*
X137157738Y-91352470D01*
X137160170Y-91290399D01*
X137170049Y-91231125D01*
X137175031Y-91215889D01*
X137207179Y-91166316D01*
X137236580Y-91143496D01*
X137290954Y-91121455D01*
X137340041Y-91116238D01*
X137402078Y-91123407D01*
X137458020Y-91144914D01*
X137503586Y-91176908D01*
X137539908Y-91225503D01*
X137561095Y-91287494D01*
X137570041Y-91347667D01*
X137572463Y-91407571D01*
X137572463Y-91890000D01*
X137720767Y-91890000D01*
X137720767Y-91008381D01*
X137944396Y-91008381D01*
X137944396Y-91890000D01*
X138092700Y-91890000D01*
X138272072Y-91890000D01*
X138427117Y-91890000D01*
X138447880Y-91831576D01*
X138456720Y-91779211D01*
X138502583Y-91815816D01*
X138552454Y-91848766D01*
X138605990Y-91875622D01*
X138615575Y-91879448D01*
X138674294Y-91897308D01*
X138736146Y-91906926D01*
X138779120Y-91908757D01*
X138839024Y-91905349D01*
X138899690Y-91893108D01*
X138957998Y-91868695D01*
X139000990Y-91837536D01*
X139041794Y-91789159D01*
X139067485Y-91733054D01*
X139078064Y-91669220D01*
X139078366Y-91655526D01*
X139071926Y-91597038D01*
X139050861Y-91540188D01*
X139049057Y-91536824D01*
X139015279Y-91488318D01*
X138972560Y-91450655D01*
X138918721Y-91420556D01*
X138865582Y-91401416D01*
X138806609Y-91389208D01*
X138744545Y-91380207D01*
X138733691Y-91378848D01*
X138669645Y-91370426D01*
X138603337Y-91359872D01*
X138538651Y-91346847D01*
X138480024Y-91330969D01*
X138469029Y-91327264D01*
X138468443Y-91288576D01*
X138474337Y-91228552D01*
X138498281Y-91174503D01*
X138510355Y-91161667D01*
X138560790Y-91131126D01*
X138620708Y-91115513D01*
X138679469Y-91111549D01*
X138739513Y-91114983D01*
X138797435Y-91128172D01*
X138833928Y-91146720D01*
X138874972Y-91191542D01*
X138901376Y-91249558D01*
X138907787Y-91270990D01*
X139052868Y-91251060D01*
X139036187Y-91193119D01*
X139011196Y-91139312D01*
X138987801Y-91105394D01*
X138944263Y-91064404D01*
X138892310Y-91034124D01*
X138856789Y-91019811D01*
X138794529Y-91002624D01*
X138732339Y-90993190D01*
X138671815Y-90989741D01*
X138657780Y-90989623D01*
X138598118Y-90991732D01*
X138539602Y-90999025D01*
X138480190Y-91014653D01*
X138475771Y-91016294D01*
X138421602Y-91042012D01*
X138374983Y-91080330D01*
X138372895Y-91082826D01*
X138341942Y-91134768D01*
X138326587Y-91184528D01*
X138320662Y-91246775D01*
X138319288Y-91309808D01*
X138319260Y-91321988D01*
X138319260Y-91444501D01*
X138319260Y-91520997D01*
X138319031Y-91582292D01*
X138318151Y-91645984D01*
X138316292Y-91706696D01*
X138312079Y-91768028D01*
X138309881Y-91784193D01*
X138294393Y-91841498D01*
X138272072Y-91890000D01*
X138092700Y-91890000D01*
X138092700Y-91008381D01*
X137944396Y-91008381D01*
X137720767Y-91008381D01*
X137587410Y-91008381D01*
X137587410Y-91132065D01*
X137548231Y-91083657D01*
X137503014Y-91045264D01*
X137442629Y-91013131D01*
X137384329Y-90996439D01*
X137319991Y-90989762D01*
X137308681Y-90989623D01*
X137246512Y-90994363D01*
X137188600Y-91008584D01*
X137163307Y-91018346D01*
X137111543Y-91046700D01*
X137068184Y-91087623D01*
X137063949Y-91093377D01*
X137034385Y-91147543D01*
X137017641Y-91203579D01*
X137011237Y-91265107D01*
X137009506Y-91329754D01*
X137009434Y-91348660D01*
X137009434Y-91890000D01*
X136876101Y-91890000D01*
X136876101Y-90670739D01*
X137944396Y-90670739D01*
X137944396Y-90839560D01*
X138092700Y-90839560D01*
X138092700Y-90670739D01*
X139259497Y-90670739D01*
X139259497Y-91890000D01*
X139413663Y-91890000D01*
X139413663Y-90867697D01*
X139764787Y-91890000D01*
X139908988Y-91890000D01*
X140258646Y-90850404D01*
X140258646Y-91890000D01*
X140412519Y-91890000D01*
X141114473Y-91890000D01*
X141263070Y-91890000D01*
X141263070Y-91330781D01*
X141267793Y-91266604D01*
X141283897Y-91209828D01*
X141311430Y-91167529D01*
X141361174Y-91132467D01*
X141421129Y-91117490D01*
X141447717Y-91116238D01*
X141507803Y-91123837D01*
X141564410Y-91146635D01*
X141571695Y-91150823D01*
X141618823Y-91188445D01*
X141653051Y-91240643D01*
X141654640Y-91244319D01*
X141671470Y-91304450D01*
X141678082Y-91363738D01*
X141679260Y-91406985D01*
X141679260Y-91890000D01*
X141827564Y-91890000D01*
X141827564Y-91590167D01*
X141949783Y-91590167D01*
X141963860Y-91652464D01*
X141985062Y-91708561D01*
X142018016Y-91765082D01*
X142060276Y-91813506D01*
X142072295Y-91824347D01*
X142124356Y-91861277D01*
X142182058Y-91887655D01*
X142245402Y-91903482D01*
X142305457Y-91908675D01*
X142314389Y-91908757D01*
X142379290Y-91904615D01*
X142439246Y-91892189D01*
X142445060Y-91890000D01*
X142788318Y-91890000D01*
X142847669Y-91904068D01*
X142900279Y-91908757D01*
X142960006Y-91904501D01*
X143008876Y-91890000D01*
X143312072Y-91890000D01*
X143467117Y-91890000D01*
X143487880Y-91831576D01*
X143496720Y-91779211D01*
X143542583Y-91815816D01*
X143592454Y-91848766D01*
X143645990Y-91875622D01*
X143655575Y-91879448D01*
X143714294Y-91897308D01*
X143776146Y-91906926D01*
X143819120Y-91908757D01*
X143879024Y-91905349D01*
X143939690Y-91893108D01*
X143997998Y-91868695D01*
X144040990Y-91837536D01*
X144081794Y-91789159D01*
X144107485Y-91733054D01*
X144118064Y-91669220D01*
X144118366Y-91655526D01*
X144111926Y-91597038D01*
X144090861Y-91540188D01*
X144089057Y-91536824D01*
X144055279Y-91488318D01*
X144012560Y-91450655D01*
X143958721Y-91420556D01*
X143905582Y-91401416D01*
X143846609Y-91389208D01*
X143784545Y-91380207D01*
X143773691Y-91378848D01*
X143709645Y-91370426D01*
X143643337Y-91359872D01*
X143578651Y-91346847D01*
X143520024Y-91330969D01*
X143509029Y-91327264D01*
X143508443Y-91288576D01*
X143514337Y-91228552D01*
X143538281Y-91174503D01*
X143550355Y-91161667D01*
X143600790Y-91131126D01*
X143660708Y-91115513D01*
X143719469Y-91111549D01*
X143779513Y-91114983D01*
X143837435Y-91128172D01*
X143873928Y-91146720D01*
X143914972Y-91191542D01*
X143941376Y-91249558D01*
X143947787Y-91270990D01*
X144092868Y-91251060D01*
X144076187Y-91193119D01*
X144051196Y-91139312D01*
X144027801Y-91105394D01*
X143984263Y-91064404D01*
X143932310Y-91034124D01*
X143896789Y-91019811D01*
X143834529Y-91002624D01*
X143772339Y-90993190D01*
X143711815Y-90989741D01*
X143697780Y-90989623D01*
X143638118Y-90991732D01*
X143579602Y-90999025D01*
X143520190Y-91014653D01*
X143515771Y-91016294D01*
X143461602Y-91042012D01*
X143414983Y-91080330D01*
X143412895Y-91082826D01*
X143381942Y-91134768D01*
X143366587Y-91184528D01*
X143360662Y-91246775D01*
X143359288Y-91309808D01*
X143359260Y-91321988D01*
X143359260Y-91444501D01*
X143359260Y-91520997D01*
X143359031Y-91582292D01*
X143358151Y-91645984D01*
X143356292Y-91706696D01*
X143352079Y-91768028D01*
X143349881Y-91784193D01*
X143334393Y-91841498D01*
X143312072Y-91890000D01*
X143008876Y-91890000D01*
X143017049Y-91887575D01*
X143025722Y-91882965D01*
X143071105Y-91844062D01*
X143088443Y-91814675D01*
X143101276Y-91754564D01*
X143105466Y-91691664D01*
X143106322Y-91636769D01*
X143106322Y-91125617D01*
X143215352Y-91125617D01*
X143215352Y-91008381D01*
X143106322Y-91008381D01*
X143106322Y-90795596D01*
X142958897Y-90708255D01*
X142958897Y-91008381D01*
X142809713Y-91008381D01*
X142809713Y-91125617D01*
X142958897Y-91125617D01*
X142958897Y-91648785D01*
X142956210Y-91709623D01*
X142951276Y-91732316D01*
X142925778Y-91761919D01*
X142874780Y-91772763D01*
X142817158Y-91757357D01*
X142809713Y-91754005D01*
X142788318Y-91890000D01*
X142445060Y-91890000D01*
X142494255Y-91871477D01*
X142552182Y-91836844D01*
X142596476Y-91798183D01*
X142603377Y-91790935D01*
X142640430Y-91743045D01*
X142669817Y-91687963D01*
X142691538Y-91625689D01*
X142703783Y-91568300D01*
X142710703Y-91505917D01*
X142712407Y-91452414D01*
X142710163Y-91391806D01*
X142702103Y-91326731D01*
X142688181Y-91266125D01*
X142668397Y-91209989D01*
X142665512Y-91203286D01*
X142635121Y-91147354D01*
X142597032Y-91099906D01*
X142551246Y-91060944D01*
X142522484Y-91042965D01*
X142467087Y-91017180D01*
X142409047Y-90999833D01*
X142348364Y-90990925D01*
X142313510Y-90989623D01*
X142253559Y-90993087D01*
X142191158Y-91005529D01*
X142135278Y-91027021D01*
X142080209Y-91062016D01*
X142034271Y-91107537D01*
X141998673Y-91162655D01*
X141975711Y-91219707D01*
X141963851Y-91267473D01*
X142108052Y-91289748D01*
X142126099Y-91233923D01*
X142157072Y-91181433D01*
X142181325Y-91156392D01*
X142235065Y-91124205D01*
X142293937Y-91111943D01*
X142307648Y-91111549D01*
X142367452Y-91117947D01*
X142426070Y-91140067D01*
X142476445Y-91177985D01*
X142489951Y-91192442D01*
X142523812Y-91245386D01*
X142544608Y-91304944D01*
X142555621Y-91366703D01*
X142559726Y-91426806D01*
X142559999Y-91448311D01*
X142557619Y-91511505D01*
X142548826Y-91576611D01*
X142530842Y-91639648D01*
X142500494Y-91696070D01*
X142492295Y-91706524D01*
X142445973Y-91748874D01*
X142391637Y-91775538D01*
X142329286Y-91786518D01*
X142315854Y-91786831D01*
X142254429Y-91779412D01*
X142197094Y-91754631D01*
X142170188Y-91734075D01*
X142132242Y-91686292D01*
X142108030Y-91628442D01*
X142095743Y-91571116D01*
X141949783Y-91590167D01*
X141827564Y-91590167D01*
X141827564Y-90670739D01*
X144127745Y-90670739D01*
X144459232Y-91890000D01*
X144613398Y-91890000D01*
X144868094Y-90960020D01*
X144884001Y-90901522D01*
X144899692Y-90842155D01*
X144905903Y-90816699D01*
X144919820Y-90876283D01*
X144935120Y-90936943D01*
X144941367Y-90960020D01*
X145197822Y-91890000D01*
X145361074Y-91890000D01*
X145681716Y-90670739D01*
X145517585Y-90670739D01*
X145333817Y-91471172D01*
X145319510Y-91533930D01*
X145306193Y-91596468D01*
X145293865Y-91658787D01*
X145282526Y-91720886D01*
X145269069Y-91663753D01*
X145255358Y-91605886D01*
X145241211Y-91546874D01*
X145228304Y-91495205D01*
X144998227Y-90670739D01*
X144805373Y-90670739D01*
X144632156Y-91288576D01*
X144616457Y-91345660D01*
X144598431Y-91415792D01*
X144582179Y-91484564D01*
X144567702Y-91551976D01*
X144554999Y-91618029D01*
X144544071Y-91682722D01*
X144538366Y-91720886D01*
X144525910Y-91660875D01*
X144511695Y-91596615D01*
X144497815Y-91536901D01*
X144482588Y-91473933D01*
X144477990Y-91455345D01*
X144288653Y-90670739D01*
X144127745Y-90670739D01*
X141827564Y-90670739D01*
X141679260Y-90670739D01*
X141679260Y-91108911D01*
X141631259Y-91062430D01*
X141578040Y-91027366D01*
X141519604Y-91003718D01*
X141455952Y-90991487D01*
X141417236Y-90989623D01*
X141353351Y-90994194D01*
X141295492Y-91007909D01*
X141248122Y-91028311D01*
X141196551Y-91064392D01*
X141158523Y-91110245D01*
X141145540Y-91134703D01*
X141126608Y-91194315D01*
X141117507Y-91257152D01*
X141114594Y-91316036D01*
X141114473Y-91331953D01*
X141114473Y-91890000D01*
X140412519Y-91890000D01*
X140412519Y-90670739D01*
X140171891Y-90670739D01*
X139885833Y-91535359D01*
X139867387Y-91591944D01*
X139848090Y-91652010D01*
X139830449Y-91708449D01*
X139828094Y-91716196D01*
X139809451Y-91657477D01*
X139788940Y-91595069D01*
X139769276Y-91536323D01*
X139763907Y-91520411D01*
X139474626Y-90670739D01*
X139259497Y-90670739D01*
X138092700Y-90670739D01*
X137944396Y-90670739D01*
X136876101Y-90670739D01*
X136876101Y-90537406D01*
X145815049Y-90537406D01*
X145815049Y-94058090D01*
G37*
G36*
X156202986Y-116532000D02*
G01*
X156202986Y-115719159D01*
X156042567Y-115719159D01*
X155851862Y-116295572D01*
X155839565Y-116333296D01*
X155826700Y-116373340D01*
X155814940Y-116410966D01*
X155813370Y-116416131D01*
X155800941Y-116376985D01*
X155787267Y-116335379D01*
X155774157Y-116296215D01*
X155770578Y-116285607D01*
X155577724Y-115719159D01*
X155434305Y-115719159D01*
X155434305Y-116532000D01*
X155537082Y-116532000D01*
X155537082Y-115850464D01*
X155771164Y-116532000D01*
X155867298Y-116532000D01*
X156100404Y-115838936D01*
X156100404Y-116532000D01*
X156202986Y-116532000D01*
G37*
G36*
X155042517Y-115931827D02*
G01*
X155082866Y-115934126D01*
X155124326Y-115940416D01*
X155165833Y-115951874D01*
X155189514Y-115961416D01*
X155224149Y-115981603D01*
X155253174Y-116008929D01*
X155268771Y-116031541D01*
X155285431Y-116067413D01*
X155296552Y-116106040D01*
X155199832Y-116119327D01*
X155195557Y-116105039D01*
X155177955Y-116066361D01*
X155150592Y-116036480D01*
X155126263Y-116024115D01*
X155087648Y-116015322D01*
X155047619Y-116013032D01*
X155008445Y-116015675D01*
X154968500Y-116026084D01*
X154934877Y-116046445D01*
X154926827Y-116055002D01*
X154910865Y-116091034D01*
X154906936Y-116131050D01*
X154907326Y-116156842D01*
X154914656Y-116159312D01*
X154953741Y-116169898D01*
X154996865Y-116178581D01*
X155041070Y-116185617D01*
X155083767Y-116191232D01*
X155091003Y-116192138D01*
X155132379Y-116198138D01*
X155171695Y-116206277D01*
X155207120Y-116219037D01*
X155243014Y-116239103D01*
X155271492Y-116264212D01*
X155294012Y-116296549D01*
X155295214Y-116298792D01*
X155309258Y-116336692D01*
X155313551Y-116375684D01*
X155313349Y-116384813D01*
X155306297Y-116427369D01*
X155289169Y-116464772D01*
X155261967Y-116497024D01*
X155233305Y-116517797D01*
X155194433Y-116534072D01*
X155153990Y-116542233D01*
X155114053Y-116544505D01*
X155085404Y-116543284D01*
X155044169Y-116536872D01*
X155005023Y-116524965D01*
X154998633Y-116522414D01*
X154962943Y-116504510D01*
X154929695Y-116482544D01*
X154899120Y-116458140D01*
X154893227Y-116493050D01*
X154879385Y-116532000D01*
X154776021Y-116532000D01*
X154790902Y-116499665D01*
X154801227Y-116461462D01*
X154802693Y-116450685D01*
X154805501Y-116409797D01*
X154806741Y-116369323D01*
X154807327Y-116326861D01*
X154807480Y-116285998D01*
X154807480Y-116235000D01*
X154907326Y-116235000D01*
X154907326Y-116271734D01*
X154907717Y-116291642D01*
X154911848Y-116332959D01*
X154923349Y-116371776D01*
X154930459Y-116385062D01*
X154956511Y-116417439D01*
X154988806Y-116441141D01*
X155008828Y-116450963D01*
X155049286Y-116462802D01*
X155090411Y-116466347D01*
X155104391Y-116465929D01*
X155143879Y-116458792D01*
X155178143Y-116439578D01*
X155199601Y-116411520D01*
X155208038Y-116372558D01*
X155207557Y-116362838D01*
X155194360Y-116324686D01*
X155187749Y-116315778D01*
X155155282Y-116292055D01*
X155148376Y-116289305D01*
X155109639Y-116278973D01*
X155068917Y-116271930D01*
X155024386Y-116264953D01*
X154984998Y-116257360D01*
X154946279Y-116247926D01*
X154907326Y-116235000D01*
X154807480Y-116235000D01*
X154807480Y-116153325D01*
X154807499Y-116145205D01*
X154808415Y-116103183D01*
X154812365Y-116061685D01*
X154822602Y-116028512D01*
X154843237Y-115993884D01*
X154844629Y-115992220D01*
X154875708Y-115966674D01*
X154911820Y-115949529D01*
X154914766Y-115948435D01*
X154954375Y-115938017D01*
X154993385Y-115933155D01*
X155033160Y-115931748D01*
X155042517Y-115931827D01*
G37*
G36*
X154284996Y-116015377D02*
G01*
X154291685Y-116006270D01*
X154318896Y-115977905D01*
X154352016Y-115955000D01*
X154365181Y-115948302D01*
X154405038Y-115935586D01*
X154446000Y-115931748D01*
X154454959Y-115931897D01*
X154498125Y-115937106D01*
X154538581Y-115949757D01*
X154576328Y-115969850D01*
X154590430Y-115979898D01*
X154621705Y-116009585D01*
X154644990Y-116041883D01*
X154663670Y-116079466D01*
X154676407Y-116116237D01*
X154685505Y-116155035D01*
X154690964Y-116195860D01*
X154692783Y-116238713D01*
X154691250Y-116277054D01*
X154685742Y-116318468D01*
X154676229Y-116357318D01*
X154660739Y-116397959D01*
X154650024Y-116418830D01*
X154627517Y-116452648D01*
X154600868Y-116481643D01*
X154570076Y-116505817D01*
X154562705Y-116510502D01*
X154524546Y-116529392D01*
X154484211Y-116540727D01*
X154441702Y-116544505D01*
X154415598Y-116543158D01*
X154373825Y-116534323D01*
X154337027Y-116517240D01*
X154305202Y-116491911D01*
X154278352Y-116458336D01*
X154278352Y-116532000D01*
X154186712Y-116532000D01*
X154186712Y-116246724D01*
X154276789Y-116246724D01*
X154276833Y-116253520D01*
X154279622Y-116298027D01*
X154286749Y-116337167D01*
X154300207Y-116375327D01*
X154322120Y-116409878D01*
X154352361Y-116438008D01*
X154390033Y-116456918D01*
X154432323Y-116463221D01*
X154436324Y-116463166D01*
X154478146Y-116455362D01*
X154512679Y-116436807D01*
X154543893Y-116407338D01*
X154549619Y-116400129D01*
X154570814Y-116362154D01*
X154583374Y-116320794D01*
X154589516Y-116278734D01*
X154591178Y-116238322D01*
X154591006Y-116223961D01*
X154588418Y-116183819D01*
X154581475Y-116142561D01*
X154568366Y-116102758D01*
X154547019Y-116067352D01*
X154544226Y-116064010D01*
X154513963Y-116036426D01*
X154475780Y-116018337D01*
X154436621Y-116013032D01*
X154428278Y-116013253D01*
X154389058Y-116020973D01*
X154353998Y-116039723D01*
X154323097Y-116069501D01*
X154312244Y-116084623D01*
X154294878Y-116120893D01*
X154284432Y-116159221D01*
X154278417Y-116203701D01*
X154276789Y-116246724D01*
X154186712Y-116246724D01*
X154186712Y-115719159D01*
X154284996Y-115719159D01*
X154284996Y-116015377D01*
G37*
G36*
X153809498Y-115932067D02*
G01*
X153852209Y-115936853D01*
X153891747Y-115947381D01*
X153928111Y-115963653D01*
X153961301Y-115985666D01*
X153991318Y-116013423D01*
X154013159Y-116040564D01*
X154034481Y-116077402D01*
X154050473Y-116118897D01*
X154059727Y-116157034D01*
X154065280Y-116198406D01*
X154067131Y-116243011D01*
X154066471Y-116269269D01*
X154062441Y-116310545D01*
X154052769Y-116355969D01*
X154037822Y-116396915D01*
X154017598Y-116433382D01*
X153992099Y-116465370D01*
X153982514Y-116474953D01*
X153951274Y-116499991D01*
X153916312Y-116519466D01*
X153877626Y-116533376D01*
X153835217Y-116541723D01*
X153789085Y-116544505D01*
X153776525Y-116544312D01*
X153734791Y-116540610D01*
X153696517Y-116532195D01*
X153657011Y-116516808D01*
X153622023Y-116495265D01*
X153617972Y-116492149D01*
X153588464Y-116464415D01*
X153564110Y-116431699D01*
X153544910Y-116394000D01*
X153532337Y-116356926D01*
X153634723Y-116344421D01*
X153645321Y-116369988D01*
X153667055Y-116406290D01*
X153695686Y-116434889D01*
X153708102Y-116443051D01*
X153746976Y-116458545D01*
X153788499Y-116463221D01*
X153797539Y-116463026D01*
X153839927Y-116456214D01*
X153877621Y-116439670D01*
X153910620Y-116413395D01*
X153932333Y-116385637D01*
X153950279Y-116347840D01*
X153960470Y-116308404D01*
X153964940Y-116269390D01*
X153529601Y-116269390D01*
X153529210Y-116242425D01*
X153530371Y-116206531D01*
X153532441Y-116188106D01*
X153633551Y-116188106D01*
X153959469Y-116188106D01*
X153958154Y-116173440D01*
X153949861Y-116132821D01*
X153932997Y-116093635D01*
X153908080Y-116060709D01*
X153905152Y-116057775D01*
X153873546Y-116033565D01*
X153833886Y-116017688D01*
X153793384Y-116013032D01*
X153775013Y-116013967D01*
X153736873Y-116022900D01*
X153699680Y-116043920D01*
X153670871Y-116072823D01*
X153651243Y-116106986D01*
X153639189Y-116147862D01*
X153633551Y-116188106D01*
X153532441Y-116188106D01*
X153535084Y-116164573D01*
X153543422Y-116125850D01*
X153558214Y-116083652D01*
X153578227Y-116046111D01*
X153603460Y-116013228D01*
X153632742Y-115985537D01*
X153670724Y-115960473D01*
X153712820Y-115943206D01*
X153752177Y-115934613D01*
X153794556Y-115931748D01*
X153809498Y-115932067D01*
G37*
G36*
X153100711Y-116532000D02*
G01*
X153008875Y-116532000D01*
X153008875Y-116458336D01*
X152993479Y-116478532D01*
X152963200Y-116507395D01*
X152928676Y-116528011D01*
X152889907Y-116540381D01*
X152846894Y-116544505D01*
X152815139Y-116542496D01*
X152773135Y-116532937D01*
X152733993Y-116515505D01*
X152697711Y-116490200D01*
X152668889Y-116462244D01*
X152647499Y-116434868D01*
X152626616Y-116397608D01*
X152610954Y-116355541D01*
X152601891Y-116316811D01*
X152596452Y-116274742D01*
X152594967Y-116237540D01*
X152695658Y-116237540D01*
X152695705Y-116244508D01*
X152698614Y-116290236D01*
X152706048Y-116330634D01*
X152720086Y-116370278D01*
X152742944Y-116406556D01*
X152748923Y-116413418D01*
X152780881Y-116441086D01*
X152816273Y-116457687D01*
X152855100Y-116463221D01*
X152883835Y-116460521D01*
X152922583Y-116446348D01*
X152956107Y-116420026D01*
X152981520Y-116386431D01*
X152994001Y-116359222D01*
X153003780Y-116319854D01*
X153008683Y-116277075D01*
X153010048Y-116233632D01*
X153010002Y-116226977D01*
X153007093Y-116183160D01*
X152999658Y-116144185D01*
X152985620Y-116105573D01*
X152962762Y-116069697D01*
X152956783Y-116062835D01*
X152924825Y-116035167D01*
X152889433Y-116018566D01*
X152850606Y-116013032D01*
X152808650Y-116019497D01*
X152771173Y-116038892D01*
X152740990Y-116067743D01*
X152735501Y-116074817D01*
X152715181Y-116112490D01*
X152703140Y-116153996D01*
X152697252Y-116196505D01*
X152695658Y-116237540D01*
X152594967Y-116237540D01*
X152594640Y-116229334D01*
X152596357Y-116190408D01*
X152602213Y-116149352D01*
X152612225Y-116110143D01*
X152620564Y-116086480D01*
X152637861Y-116049569D01*
X152660878Y-116014791D01*
X152673126Y-116000615D01*
X152703764Y-115974189D01*
X152740013Y-115953632D01*
X152761313Y-115945105D01*
X152802310Y-115934826D01*
X152841813Y-115931748D01*
X152859754Y-115932439D01*
X152899252Y-115939419D01*
X152940340Y-115956602D01*
X152972746Y-115979690D01*
X153001841Y-116010297D01*
X153001841Y-115719159D01*
X153100711Y-115719159D01*
X153100711Y-116532000D01*
G37*
G36*
X152481702Y-116757875D02*
G01*
X152492644Y-116667017D01*
X152453607Y-116674771D01*
X152435979Y-116675810D01*
X152397031Y-116670453D01*
X152383418Y-116664477D01*
X152354076Y-116637763D01*
X152350788Y-116632823D01*
X152334729Y-116595988D01*
X152320697Y-116556815D01*
X152311904Y-116532000D01*
X152533286Y-115944254D01*
X152426796Y-115944254D01*
X152305261Y-116284435D01*
X152292348Y-116321340D01*
X152280208Y-116359297D01*
X152268841Y-116398304D01*
X152262860Y-116420429D01*
X152252773Y-116382114D01*
X152241634Y-116344324D01*
X152229444Y-116307060D01*
X152222218Y-116286584D01*
X152097557Y-115944254D01*
X151998687Y-115944254D01*
X152220655Y-116541378D01*
X152235532Y-116580804D01*
X152250657Y-116618787D01*
X152266746Y-116655653D01*
X152276147Y-116674442D01*
X152297030Y-116707662D01*
X152324171Y-116737042D01*
X152336719Y-116746542D01*
X152374039Y-116763835D01*
X152415061Y-116769576D01*
X152418003Y-116769599D01*
X152458307Y-116764550D01*
X152481702Y-116757875D01*
G37*
G36*
X151598324Y-116532000D02*
G01*
X151291164Y-116532000D01*
X151281635Y-116531946D01*
X151241077Y-116530383D01*
X151200471Y-116526109D01*
X151161227Y-116518322D01*
X151145058Y-116513672D01*
X151107124Y-116498634D01*
X151072909Y-116477680D01*
X151060118Y-116466771D01*
X151033372Y-116435121D01*
X151013900Y-116401085D01*
X151003471Y-116375770D01*
X150993414Y-116335918D01*
X150990109Y-116294400D01*
X151100460Y-116294400D01*
X151103526Y-116327520D01*
X151116482Y-116364937D01*
X151128425Y-116384185D01*
X151157124Y-116411441D01*
X151181022Y-116423703D01*
X151218673Y-116434302D01*
X151251900Y-116437462D01*
X151291164Y-116438210D01*
X151491639Y-116438210D01*
X151491639Y-116150590D01*
X151305428Y-116150590D01*
X151269195Y-116151469D01*
X151226752Y-116155550D01*
X151187605Y-116164658D01*
X151151067Y-116183709D01*
X151123516Y-116213116D01*
X151122098Y-116215289D01*
X151105526Y-116253281D01*
X151100460Y-116294400D01*
X150990109Y-116294400D01*
X150990062Y-116293814D01*
X150990215Y-116284901D01*
X150995585Y-116242605D01*
X151008625Y-116204087D01*
X151029336Y-116169348D01*
X151036997Y-116159727D01*
X151066825Y-116131578D01*
X151103256Y-116109459D01*
X151141688Y-116094707D01*
X151115151Y-116079650D01*
X151082077Y-116052987D01*
X151057082Y-116021434D01*
X151047520Y-116004156D01*
X151033589Y-115965305D01*
X151030347Y-115936829D01*
X151134067Y-115936829D01*
X151137994Y-115971199D01*
X151154584Y-116007366D01*
X151180180Y-116031351D01*
X151215938Y-116047422D01*
X151236377Y-116051955D01*
X151277143Y-116055885D01*
X151317543Y-116056801D01*
X151491639Y-116056801D01*
X151491639Y-115812949D01*
X151330634Y-115812949D01*
X151290444Y-115813657D01*
X151249171Y-115816534D01*
X151208122Y-115824281D01*
X151181810Y-115836650D01*
X151153216Y-115866096D01*
X151139472Y-115896819D01*
X151134067Y-115936829D01*
X151030347Y-115936829D01*
X151028945Y-115924519D01*
X151031449Y-115893785D01*
X151042577Y-115853962D01*
X151060599Y-115818615D01*
X151082749Y-115789459D01*
X151112579Y-115763381D01*
X151148136Y-115743584D01*
X151174247Y-115734067D01*
X151212958Y-115725265D01*
X151252220Y-115720686D01*
X151296049Y-115719159D01*
X151598324Y-115719159D01*
X151598324Y-116532000D01*
G37*
G36*
X150635514Y-115932067D02*
G01*
X150678225Y-115936853D01*
X150717762Y-115947381D01*
X150754126Y-115963653D01*
X150787317Y-115985666D01*
X150817333Y-116013423D01*
X150839174Y-116040564D01*
X150860496Y-116077402D01*
X150876488Y-116118897D01*
X150885743Y-116157034D01*
X150891295Y-116198406D01*
X150893146Y-116243011D01*
X150892487Y-116269269D01*
X150888457Y-116310545D01*
X150878785Y-116355969D01*
X150863837Y-116396915D01*
X150843614Y-116433382D01*
X150818115Y-116465370D01*
X150808529Y-116474953D01*
X150777290Y-116499991D01*
X150742327Y-116519466D01*
X150703641Y-116533376D01*
X150661232Y-116541723D01*
X150615100Y-116544505D01*
X150602541Y-116544312D01*
X150560807Y-116540610D01*
X150522532Y-116532195D01*
X150483026Y-116516808D01*
X150448038Y-116495265D01*
X150443987Y-116492149D01*
X150414480Y-116464415D01*
X150390126Y-116431699D01*
X150370925Y-116394000D01*
X150358352Y-116356926D01*
X150460739Y-116344421D01*
X150471336Y-116369988D01*
X150493071Y-116406290D01*
X150521702Y-116434889D01*
X150534117Y-116443051D01*
X150572991Y-116458545D01*
X150614514Y-116463221D01*
X150623555Y-116463026D01*
X150665942Y-116456214D01*
X150703636Y-116439670D01*
X150736635Y-116413395D01*
X150758349Y-116385637D01*
X150776295Y-116347840D01*
X150786486Y-116308404D01*
X150790955Y-116269390D01*
X150355617Y-116269390D01*
X150355226Y-116242425D01*
X150356386Y-116206531D01*
X150358456Y-116188106D01*
X150459566Y-116188106D01*
X150785484Y-116188106D01*
X150784169Y-116173440D01*
X150775876Y-116132821D01*
X150759012Y-116093635D01*
X150734095Y-116060709D01*
X150731168Y-116057775D01*
X150699561Y-116033565D01*
X150659901Y-116017688D01*
X150619399Y-116013032D01*
X150601029Y-116013967D01*
X150562889Y-116022900D01*
X150525695Y-116043920D01*
X150496887Y-116072823D01*
X150477259Y-116106986D01*
X150465204Y-116147862D01*
X150459566Y-116188106D01*
X150358456Y-116188106D01*
X150361099Y-116164573D01*
X150369438Y-116125850D01*
X150384230Y-116083652D01*
X150404242Y-116046111D01*
X150429476Y-116013228D01*
X150458757Y-115985537D01*
X150496739Y-115960473D01*
X150538835Y-115943206D01*
X150578192Y-115934613D01*
X150620571Y-115931748D01*
X150635514Y-115932067D01*
G37*
G36*
X150237208Y-116532000D02*
G01*
X150237208Y-115944254D01*
X150148303Y-115944254D01*
X150148303Y-116026710D01*
X150122184Y-115994438D01*
X150092039Y-115968843D01*
X150051782Y-115947421D01*
X150012915Y-115936292D01*
X149970023Y-115931841D01*
X149962483Y-115931748D01*
X149921038Y-115934909D01*
X149882430Y-115944389D01*
X149865568Y-115950897D01*
X149831059Y-115969800D01*
X149802152Y-115997082D01*
X149799329Y-116000918D01*
X149779619Y-116037028D01*
X149768457Y-116074386D01*
X149764188Y-116115405D01*
X149763034Y-116158503D01*
X149762986Y-116171106D01*
X149762986Y-116532000D01*
X149861855Y-116532000D01*
X149861855Y-116173646D01*
X149863476Y-116132266D01*
X149870062Y-116092750D01*
X149873384Y-116082593D01*
X149894816Y-116049544D01*
X149914416Y-116034330D01*
X149950666Y-116019637D01*
X149983390Y-116016159D01*
X150024748Y-116020938D01*
X150062043Y-116035276D01*
X150092421Y-116056605D01*
X150116635Y-116089002D01*
X150130760Y-116130329D01*
X150136724Y-116170445D01*
X150138338Y-116210381D01*
X150138338Y-116532000D01*
X150237208Y-116532000D01*
G37*
G36*
X149326866Y-116265872D02*
G01*
X149226433Y-116256884D01*
X149219246Y-116297596D01*
X149206350Y-116335899D01*
X149193216Y-116360443D01*
X149167202Y-116390759D01*
X149134774Y-116414220D01*
X149112127Y-116425900D01*
X149072652Y-116440029D01*
X149034001Y-116447783D01*
X148992716Y-116450691D01*
X148988443Y-116450715D01*
X148948216Y-116448568D01*
X148908177Y-116441328D01*
X148880781Y-116432544D01*
X148844385Y-116413892D01*
X148814148Y-116386256D01*
X148811220Y-116382327D01*
X148793382Y-116346681D01*
X148788359Y-116312572D01*
X148795345Y-116272736D01*
X148810439Y-116245942D01*
X148839504Y-116219564D01*
X148876716Y-116200330D01*
X148882930Y-116197875D01*
X148922247Y-116185234D01*
X148964655Y-116173762D01*
X149006230Y-116163301D01*
X149026349Y-116158406D01*
X149065633Y-116148404D01*
X149105560Y-116137013D01*
X149143405Y-116124361D01*
X149181883Y-116107603D01*
X149218048Y-116084804D01*
X149247287Y-116058588D01*
X149267857Y-116031790D01*
X149285122Y-115996399D01*
X149294418Y-115957931D01*
X149296189Y-115930576D01*
X149292102Y-115889231D01*
X149279842Y-115849825D01*
X149261604Y-115815684D01*
X149236775Y-115784742D01*
X149205764Y-115758837D01*
X149168570Y-115737969D01*
X149160390Y-115734400D01*
X149121831Y-115720988D01*
X149080891Y-115711965D01*
X149037571Y-115707331D01*
X149012476Y-115706654D01*
X148969050Y-115708474D01*
X148928261Y-115713933D01*
X148890111Y-115723031D01*
X148854598Y-115735768D01*
X148818633Y-115754214D01*
X148784546Y-115779821D01*
X148756641Y-115810809D01*
X148749476Y-115821155D01*
X148729734Y-115857898D01*
X148716671Y-115897542D01*
X148710286Y-115940086D01*
X148709811Y-115948943D01*
X148812002Y-115956759D01*
X148819740Y-115916233D01*
X148835662Y-115878238D01*
X148862079Y-115844995D01*
X148867885Y-115839913D01*
X148901987Y-115819099D01*
X148940249Y-115806957D01*
X148980281Y-115801407D01*
X149008178Y-115800443D01*
X149047987Y-115802154D01*
X149087347Y-115808300D01*
X149127341Y-115822268D01*
X149149252Y-115836200D01*
X149176162Y-115864960D01*
X149191859Y-115903792D01*
X149193411Y-115922174D01*
X149185547Y-115962034D01*
X149161953Y-115994079D01*
X149124987Y-116015401D01*
X149084833Y-116029861D01*
X149046576Y-116040833D01*
X149001339Y-116051916D01*
X148962723Y-116060959D01*
X148921635Y-116071346D01*
X148880940Y-116082821D01*
X148840076Y-116096558D01*
X148822944Y-116103695D01*
X148786298Y-116123426D01*
X148752432Y-116148575D01*
X148723510Y-116180162D01*
X148719190Y-116186347D01*
X148700055Y-116222537D01*
X148688864Y-116262329D01*
X148685582Y-116301630D01*
X148689188Y-116341327D01*
X148700007Y-116379574D01*
X148718039Y-116416370D01*
X148722511Y-116423556D01*
X148748618Y-116456857D01*
X148781023Y-116485196D01*
X148815570Y-116506460D01*
X148828220Y-116512655D01*
X148868378Y-116528051D01*
X148906357Y-116537507D01*
X148946486Y-116542981D01*
X148983363Y-116544505D01*
X149023152Y-116543358D01*
X149066430Y-116539119D01*
X149106324Y-116531758D01*
X149147772Y-116519522D01*
X149166838Y-116511874D01*
X149201777Y-116493519D01*
X149236324Y-116467994D01*
X149265833Y-116437307D01*
X149282707Y-116413981D01*
X149303184Y-116375802D01*
X149317356Y-116334902D01*
X149324658Y-116296262D01*
X149326866Y-116265872D01*
G37*
G36*
X148556817Y-116532000D02*
G01*
X148556817Y-115944254D01*
X148468303Y-115944254D01*
X148468303Y-116025538D01*
X148443078Y-115993955D01*
X148411855Y-115967789D01*
X148395421Y-115957540D01*
X148359371Y-115941823D01*
X148319804Y-115933360D01*
X148291471Y-115931748D01*
X148249643Y-115934888D01*
X148210332Y-115945476D01*
X148185177Y-115958322D01*
X148153473Y-115985650D01*
X148131193Y-116021132D01*
X148126559Y-116032767D01*
X148099150Y-115998436D01*
X148068801Y-115971209D01*
X148029679Y-115948420D01*
X147986554Y-115935300D01*
X147946405Y-115931748D01*
X147905446Y-115934777D01*
X147865380Y-115945424D01*
X147828332Y-115966246D01*
X147812755Y-115980206D01*
X147788129Y-116015484D01*
X147773763Y-116055979D01*
X147767196Y-116098929D01*
X147766056Y-116129096D01*
X147766056Y-116532000D01*
X147864535Y-116532000D01*
X147864535Y-116160946D01*
X147865881Y-116120710D01*
X147871865Y-116081851D01*
X147874109Y-116074777D01*
X147896049Y-116042208D01*
X147909085Y-116032376D01*
X147945954Y-116018075D01*
X147968289Y-116016159D01*
X148008134Y-116021053D01*
X148045966Y-116037558D01*
X148070481Y-116057582D01*
X148093619Y-116091814D01*
X148106320Y-116133152D01*
X148110765Y-116173229D01*
X148111123Y-116189864D01*
X148111123Y-116532000D01*
X148210187Y-116532000D01*
X148210187Y-116149222D01*
X148213050Y-116107474D01*
X148223816Y-116068256D01*
X148234416Y-116049571D01*
X148266168Y-116024512D01*
X148306613Y-116016289D01*
X148313356Y-116016159D01*
X148353607Y-116021727D01*
X148390732Y-116038434D01*
X148421262Y-116065691D01*
X148441100Y-116100650D01*
X148442120Y-116103304D01*
X148452368Y-116144170D01*
X148456695Y-116184119D01*
X148457947Y-116226403D01*
X148457947Y-116532000D01*
X148556817Y-116532000D01*
G37*
G36*
X147623809Y-115831706D02*
G01*
X147623809Y-115719159D01*
X147524940Y-115719159D01*
X147524940Y-115831706D01*
X147623809Y-115831706D01*
G37*
G36*
X147623809Y-116532000D02*
G01*
X147623809Y-115944254D01*
X147524940Y-115944254D01*
X147524940Y-116532000D01*
X147623809Y-116532000D01*
G37*
G36*
X147159943Y-116441337D02*
G01*
X147145679Y-116532000D01*
X147185247Y-116541378D01*
X147220320Y-116544505D01*
X147260138Y-116541667D01*
X147298167Y-116530383D01*
X147303949Y-116527310D01*
X147334204Y-116501375D01*
X147345763Y-116481783D01*
X147354318Y-116441709D01*
X147357112Y-116399776D01*
X147357682Y-116363179D01*
X147357682Y-116022411D01*
X147430369Y-116022411D01*
X147430369Y-115944254D01*
X147357682Y-115944254D01*
X147357682Y-115802397D01*
X147259399Y-115744170D01*
X147259399Y-115944254D01*
X147159943Y-115944254D01*
X147159943Y-116022411D01*
X147259399Y-116022411D01*
X147259399Y-116371190D01*
X147257608Y-116411748D01*
X147254319Y-116426877D01*
X147237319Y-116446612D01*
X147203321Y-116453842D01*
X147164906Y-116443571D01*
X147159943Y-116441337D01*
G37*
G36*
X147064786Y-116532000D02*
G01*
X147064786Y-115719159D01*
X146965917Y-115719159D01*
X146965917Y-116011274D01*
X146933916Y-115980287D01*
X146898437Y-115956911D01*
X146859480Y-115941145D01*
X146817045Y-115932991D01*
X146791234Y-115931748D01*
X146748644Y-115934796D01*
X146710072Y-115943939D01*
X146678492Y-115957540D01*
X146644111Y-115981595D01*
X146618759Y-116012163D01*
X146610104Y-116028468D01*
X146597482Y-116068210D01*
X146591415Y-116110101D01*
X146589473Y-116149357D01*
X146589392Y-116159969D01*
X146589392Y-116532000D01*
X146688457Y-116532000D01*
X146688457Y-116159187D01*
X146691605Y-116116403D01*
X146702341Y-116078552D01*
X146720697Y-116050353D01*
X146753860Y-116026978D01*
X146793829Y-116016993D01*
X146811555Y-116016159D01*
X146851612Y-116021225D01*
X146889350Y-116036423D01*
X146894207Y-116039215D01*
X146925626Y-116064297D01*
X146948444Y-116099095D01*
X146949504Y-116101546D01*
X146960723Y-116141633D01*
X146965131Y-116181159D01*
X146965917Y-116209990D01*
X146965917Y-116532000D01*
X147064786Y-116532000D01*
G37*
G36*
X145638408Y-116438210D02*
G01*
X145638408Y-116532000D01*
X146171053Y-116532000D01*
X146167886Y-116492638D01*
X146159524Y-116463221D01*
X146142556Y-116425949D01*
X146122162Y-116392427D01*
X146097036Y-116359248D01*
X146094263Y-116355949D01*
X146065941Y-116324866D01*
X146035471Y-116295056D01*
X146004723Y-116267289D01*
X145970161Y-116237952D01*
X145964912Y-116233632D01*
X145933417Y-116207178D01*
X145897792Y-116176093D01*
X145866326Y-116147212D01*
X145834059Y-116115465D01*
X145803984Y-116082437D01*
X145787494Y-116061490D01*
X145765108Y-116026311D01*
X145748828Y-115988491D01*
X145741366Y-115948432D01*
X145741185Y-115941323D01*
X145747120Y-115899411D01*
X145764926Y-115862774D01*
X145783390Y-115841281D01*
X145815274Y-115818031D01*
X145853160Y-115804431D01*
X145892811Y-115800443D01*
X145934722Y-115804813D01*
X145974388Y-115819714D01*
X146007312Y-115845189D01*
X146031744Y-115880038D01*
X146045300Y-115918811D01*
X146050452Y-115959483D01*
X146050690Y-115969264D01*
X146152295Y-115958517D01*
X146146378Y-115916658D01*
X146136395Y-115878714D01*
X146119608Y-115839395D01*
X146097285Y-115805405D01*
X146073746Y-115780513D01*
X146041677Y-115756607D01*
X146005139Y-115738572D01*
X145964132Y-115726409D01*
X145925426Y-115720657D01*
X145890662Y-115719159D01*
X145848908Y-115721433D01*
X145804484Y-115729833D01*
X145764678Y-115744423D01*
X145729492Y-115765203D01*
X145707187Y-115783835D01*
X145680844Y-115813608D01*
X145658661Y-115851252D01*
X145644928Y-115892755D01*
X145639844Y-115932235D01*
X145639580Y-115944058D01*
X145642837Y-115983331D01*
X145652608Y-116022088D01*
X145659315Y-116039801D01*
X145677798Y-116075687D01*
X145701210Y-116109837D01*
X145724968Y-116138671D01*
X145755603Y-116170967D01*
X145786077Y-116200318D01*
X145816827Y-116228422D01*
X145851849Y-116259247D01*
X145877571Y-116281309D01*
X145908677Y-116307955D01*
X145939325Y-116334718D01*
X145969799Y-116362287D01*
X145991876Y-116383891D01*
X146017451Y-116414349D01*
X146033495Y-116438210D01*
X145638408Y-116438210D01*
G37*
G36*
X145304747Y-115720829D02*
G01*
X145344040Y-115728247D01*
X145383777Y-115743688D01*
X145418785Y-115766640D01*
X145445932Y-115792799D01*
X145469538Y-115823988D01*
X145489603Y-115860210D01*
X145506126Y-115901462D01*
X145511364Y-115918330D01*
X145521582Y-115961508D01*
X145528108Y-116002774D01*
X145532573Y-116047970D01*
X145534720Y-116088634D01*
X145535435Y-116132027D01*
X145534734Y-116173629D01*
X145532632Y-116212998D01*
X145527650Y-116262018D01*
X145520176Y-116307069D01*
X145510211Y-116348150D01*
X145497755Y-116385263D01*
X145478681Y-116426073D01*
X145455714Y-116460681D01*
X145429043Y-116489168D01*
X145393481Y-116514953D01*
X145353132Y-116532717D01*
X145314737Y-116541558D01*
X145272825Y-116544505D01*
X145240704Y-116542829D01*
X145201210Y-116535379D01*
X145161334Y-116519875D01*
X145126280Y-116496829D01*
X145099071Y-116470511D01*
X145075477Y-116439236D01*
X145055498Y-116403003D01*
X145039134Y-116361811D01*
X145033931Y-116344917D01*
X145023781Y-116301758D01*
X145017298Y-116260597D01*
X145012863Y-116215589D01*
X145010731Y-116175144D01*
X145010020Y-116132027D01*
X145010021Y-116131832D01*
X145111625Y-116131832D01*
X145111670Y-116144134D01*
X145112760Y-116190753D01*
X145115303Y-116233225D01*
X145120526Y-116280485D01*
X145128019Y-116321267D01*
X145140009Y-116361654D01*
X145158129Y-116396982D01*
X145167039Y-116408820D01*
X145196057Y-116437346D01*
X145232323Y-116456752D01*
X145272825Y-116463221D01*
X145285386Y-116462640D01*
X145324526Y-116452321D01*
X145359468Y-116429103D01*
X145387326Y-116397177D01*
X145392958Y-116388401D01*
X145409806Y-116349487D01*
X145420706Y-116305981D01*
X145427291Y-116262569D01*
X145430924Y-116223154D01*
X145433104Y-116179575D01*
X145433830Y-116131832D01*
X145433780Y-116119498D01*
X145432580Y-116072608D01*
X145429781Y-116029632D01*
X145424031Y-115981416D01*
X145415782Y-115939315D01*
X145402584Y-115896868D01*
X145382637Y-115858475D01*
X145380070Y-115854905D01*
X145351440Y-115825436D01*
X145313732Y-115806111D01*
X145273802Y-115800443D01*
X145261032Y-115801022D01*
X145221343Y-115811311D01*
X145186080Y-115834460D01*
X145158129Y-115866291D01*
X145152497Y-115875022D01*
X145135649Y-115913839D01*
X145124750Y-115957336D01*
X145118165Y-116000793D01*
X145114531Y-116040278D01*
X145112352Y-116083957D01*
X145111625Y-116131832D01*
X145010021Y-116131832D01*
X145010180Y-116109930D01*
X145011457Y-116068344D01*
X145014563Y-116024219D01*
X145020242Y-115979583D01*
X145028192Y-115941127D01*
X145030516Y-115932346D01*
X145042301Y-115894927D01*
X145057932Y-115857375D01*
X145078213Y-115820960D01*
X145095212Y-115797696D01*
X145124741Y-115768249D01*
X145159106Y-115745342D01*
X145191201Y-115731535D01*
X145230120Y-115722253D01*
X145272825Y-115719159D01*
X145304747Y-115720829D01*
G37*
G36*
X144392574Y-116438210D02*
G01*
X144392574Y-116532000D01*
X144925219Y-116532000D01*
X144922052Y-116492638D01*
X144913691Y-116463221D01*
X144896723Y-116425949D01*
X144876328Y-116392427D01*
X144851202Y-116359248D01*
X144848429Y-116355949D01*
X144820107Y-116324866D01*
X144789637Y-116295056D01*
X144758889Y-116267289D01*
X144724327Y-116237952D01*
X144719078Y-116233632D01*
X144687583Y-116207178D01*
X144651958Y-116176093D01*
X144620492Y-116147212D01*
X144588225Y-116115465D01*
X144558150Y-116082437D01*
X144541660Y-116061490D01*
X144519274Y-116026311D01*
X144502994Y-115988491D01*
X144495532Y-115948432D01*
X144495351Y-115941323D01*
X144501287Y-115899411D01*
X144519092Y-115862774D01*
X144537557Y-115841281D01*
X144569440Y-115818031D01*
X144607326Y-115804431D01*
X144646977Y-115800443D01*
X144688888Y-115804813D01*
X144728554Y-115819714D01*
X144761478Y-115845189D01*
X144785910Y-115880038D01*
X144799466Y-115918811D01*
X144804618Y-115959483D01*
X144804856Y-115969264D01*
X144906461Y-115958517D01*
X144900544Y-115916658D01*
X144890561Y-115878714D01*
X144873774Y-115839395D01*
X144851451Y-115805405D01*
X144827912Y-115780513D01*
X144795844Y-115756607D01*
X144759305Y-115738572D01*
X144718298Y-115726409D01*
X144679592Y-115720657D01*
X144644828Y-115719159D01*
X144603074Y-115721433D01*
X144558650Y-115729833D01*
X144518845Y-115744423D01*
X144483658Y-115765203D01*
X144461353Y-115783835D01*
X144435010Y-115813608D01*
X144412827Y-115851252D01*
X144399094Y-115892755D01*
X144394010Y-115932235D01*
X144393746Y-115944058D01*
X144397003Y-115983331D01*
X144406774Y-116022088D01*
X144413481Y-116039801D01*
X144431964Y-116075687D01*
X144455376Y-116109837D01*
X144479134Y-116138671D01*
X144509769Y-116170967D01*
X144540243Y-116200318D01*
X144570993Y-116228422D01*
X144606015Y-116259247D01*
X144631737Y-116281309D01*
X144662843Y-116307955D01*
X144693491Y-116334718D01*
X144723965Y-116362287D01*
X144746042Y-116383891D01*
X144771617Y-116414349D01*
X144787661Y-116438210D01*
X144392574Y-116438210D01*
G37*
G36*
X144322037Y-116244379D02*
G01*
X144322037Y-116335042D01*
X143972476Y-116335042D01*
X143972476Y-116532000D01*
X143873607Y-116532000D01*
X143873607Y-116335042D01*
X143764772Y-116335042D01*
X143764772Y-116244379D01*
X143873607Y-116244379D01*
X143873607Y-115878992D01*
X143972476Y-115878992D01*
X143972476Y-116244379D01*
X144224730Y-116244379D01*
X143972476Y-115878992D01*
X143873607Y-115878992D01*
X143873607Y-115719159D01*
X143954305Y-115719159D01*
X144322037Y-116244379D01*
G37*
G36*
X140399404Y-110187955D02*
G01*
X140392663Y-110263279D01*
X140423197Y-110268669D01*
X140451924Y-110278341D01*
X140470332Y-110288192D01*
X140493069Y-110307703D01*
X140510665Y-110332023D01*
X140519425Y-110349009D01*
X140530021Y-110378615D01*
X140535837Y-110407604D01*
X140538018Y-110438567D01*
X140538036Y-110441772D01*
X140536426Y-110471942D01*
X140530996Y-110501971D01*
X140524408Y-110522519D01*
X140510419Y-110549815D01*
X140489692Y-110572493D01*
X140486745Y-110574689D01*
X140460010Y-110588067D01*
X140434429Y-110591835D01*
X140404552Y-110586595D01*
X140384457Y-110575275D01*
X140364673Y-110553476D01*
X140350247Y-110525567D01*
X140348406Y-110520907D01*
X140338926Y-110491419D01*
X140330322Y-110459613D01*
X140322476Y-110428431D01*
X140318804Y-110413342D01*
X140311303Y-110383880D01*
X140302760Y-110353934D01*
X140293271Y-110325550D01*
X140280702Y-110296692D01*
X140263603Y-110269568D01*
X140243941Y-110247639D01*
X140223842Y-110232212D01*
X140197299Y-110219263D01*
X140168448Y-110212291D01*
X140147932Y-110210963D01*
X140116923Y-110214028D01*
X140087368Y-110223223D01*
X140061763Y-110236901D01*
X140038556Y-110255523D01*
X140019127Y-110278781D01*
X140003477Y-110306676D01*
X140000800Y-110312812D01*
X139990741Y-110341731D01*
X139983973Y-110372436D01*
X139980498Y-110404926D01*
X139979990Y-110423747D01*
X139981355Y-110456317D01*
X139985449Y-110486908D01*
X139992273Y-110515521D01*
X140001826Y-110542156D01*
X140015660Y-110569129D01*
X140034866Y-110594694D01*
X140058107Y-110615623D01*
X140065866Y-110620997D01*
X140093424Y-110635804D01*
X140123156Y-110645601D01*
X140155064Y-110650390D01*
X140161707Y-110650746D01*
X140167569Y-110574103D01*
X140137175Y-110568299D01*
X140108678Y-110556358D01*
X140083746Y-110536545D01*
X140079935Y-110532191D01*
X140064324Y-110506614D01*
X140055218Y-110477917D01*
X140051055Y-110447894D01*
X140050332Y-110426971D01*
X140051616Y-110397114D01*
X140056225Y-110367594D01*
X140066701Y-110337598D01*
X140077150Y-110321165D01*
X140098720Y-110300983D01*
X140127844Y-110289210D01*
X140141630Y-110288046D01*
X140171526Y-110293944D01*
X140195559Y-110311639D01*
X140211551Y-110339364D01*
X140222395Y-110369479D01*
X140230625Y-110398172D01*
X140238937Y-110432100D01*
X140245719Y-110461062D01*
X140253509Y-110491878D01*
X140262116Y-110522399D01*
X140272418Y-110553047D01*
X140277771Y-110565896D01*
X140292569Y-110593381D01*
X140311431Y-110618780D01*
X140335122Y-110640471D01*
X140339760Y-110643712D01*
X140366903Y-110658063D01*
X140396747Y-110666456D01*
X140426222Y-110668918D01*
X140455995Y-110666213D01*
X140484680Y-110658099D01*
X140512278Y-110644575D01*
X140517667Y-110641221D01*
X140542642Y-110621640D01*
X140563897Y-110597337D01*
X140579845Y-110571426D01*
X140584491Y-110561939D01*
X140596038Y-110531821D01*
X140603130Y-110503336D01*
X140607235Y-110473239D01*
X140608378Y-110445582D01*
X140607518Y-110415740D01*
X140604339Y-110383282D01*
X140598819Y-110353361D01*
X140589641Y-110322275D01*
X140583905Y-110307976D01*
X140570139Y-110281772D01*
X140550996Y-110255861D01*
X140527980Y-110233729D01*
X140510486Y-110221074D01*
X140481851Y-110205716D01*
X140451176Y-110195087D01*
X140422197Y-110189610D01*
X140399404Y-110187955D01*
G37*
G36*
X140599000Y-110928597D02*
G01*
X140059711Y-110928597D01*
X140059711Y-110729588D01*
X139989369Y-110729588D01*
X139989369Y-111208499D01*
X140059711Y-111208499D01*
X140059711Y-111008611D01*
X140599000Y-111008611D01*
X140599000Y-110928597D01*
G37*
G36*
X140599000Y-111285436D02*
G01*
X139989369Y-111285436D01*
X139989369Y-111405750D01*
X140421679Y-111548778D01*
X140449972Y-111558002D01*
X140480005Y-111567650D01*
X140508224Y-111576470D01*
X140512098Y-111577648D01*
X140482738Y-111586969D01*
X140451534Y-111597225D01*
X140422161Y-111607057D01*
X140414205Y-111609741D01*
X139989369Y-111754382D01*
X139989369Y-111861946D01*
X140599000Y-111861946D01*
X140599000Y-111784863D01*
X140087848Y-111784863D01*
X140599000Y-111609302D01*
X140599000Y-111537201D01*
X140079202Y-111362372D01*
X140599000Y-111362372D01*
X140599000Y-111285436D01*
G37*
G36*
X145085512Y-105771000D02*
G01*
X145159665Y-105771000D01*
X145159665Y-105295898D01*
X145182127Y-105315352D01*
X145206846Y-105333185D01*
X145230006Y-105347775D01*
X145256336Y-105362636D01*
X145283282Y-105376074D01*
X145308115Y-105386464D01*
X145308115Y-105311432D01*
X145281617Y-105298156D01*
X145253171Y-105281557D01*
X145226686Y-105263438D01*
X145202160Y-105243799D01*
X145199232Y-105241237D01*
X145177635Y-105220803D01*
X145157411Y-105198187D01*
X145139997Y-105173520D01*
X145133286Y-105161369D01*
X145085512Y-105161369D01*
X145085512Y-105771000D01*
G37*
G36*
X144428255Y-105571404D02*
G01*
X144352930Y-105564663D01*
X144347540Y-105595197D01*
X144337868Y-105623924D01*
X144328018Y-105642332D01*
X144308507Y-105665069D01*
X144284186Y-105682665D01*
X144267201Y-105691425D01*
X144237595Y-105702021D01*
X144208606Y-105707837D01*
X144177643Y-105710018D01*
X144174438Y-105710036D01*
X144144268Y-105708426D01*
X144114239Y-105702996D01*
X144093691Y-105696408D01*
X144066395Y-105682419D01*
X144043717Y-105661692D01*
X144041521Y-105658745D01*
X144028142Y-105632010D01*
X144024375Y-105606429D01*
X144029615Y-105576552D01*
X144040935Y-105556457D01*
X144062733Y-105536673D01*
X144090643Y-105522247D01*
X144095303Y-105520406D01*
X144124791Y-105510926D01*
X144156597Y-105502322D01*
X144187778Y-105494476D01*
X144202868Y-105490804D01*
X144232330Y-105483303D01*
X144262275Y-105474760D01*
X144290659Y-105465271D01*
X144319518Y-105452702D01*
X144346642Y-105435603D01*
X144368571Y-105415941D01*
X144383998Y-105395842D01*
X144396947Y-105369299D01*
X144403919Y-105340448D01*
X144405247Y-105319932D01*
X144402182Y-105288923D01*
X144392987Y-105259368D01*
X144379309Y-105233763D01*
X144360687Y-105210556D01*
X144337429Y-105191127D01*
X144309533Y-105175477D01*
X144303398Y-105172800D01*
X144274479Y-105162741D01*
X144243774Y-105155973D01*
X144211284Y-105152498D01*
X144192463Y-105151990D01*
X144159893Y-105153355D01*
X144129302Y-105157449D01*
X144100689Y-105164273D01*
X144074054Y-105173826D01*
X144047081Y-105187660D01*
X144021515Y-105206866D01*
X144000587Y-105230107D01*
X143995212Y-105237866D01*
X143980406Y-105265424D01*
X143970609Y-105295156D01*
X143965820Y-105327064D01*
X143965464Y-105333707D01*
X144042107Y-105339569D01*
X144047911Y-105309175D01*
X144059852Y-105280678D01*
X144079665Y-105255746D01*
X144084019Y-105251935D01*
X144109596Y-105236324D01*
X144138292Y-105227218D01*
X144168316Y-105223055D01*
X144189239Y-105222332D01*
X144219096Y-105223616D01*
X144248616Y-105228225D01*
X144278612Y-105238701D01*
X144295045Y-105249150D01*
X144315227Y-105270720D01*
X144327000Y-105299844D01*
X144328164Y-105313630D01*
X144322266Y-105343526D01*
X144304570Y-105367559D01*
X144276846Y-105383551D01*
X144246731Y-105394395D01*
X144218037Y-105402625D01*
X144184110Y-105410937D01*
X144155148Y-105417719D01*
X144124332Y-105425509D01*
X144093811Y-105434116D01*
X144063163Y-105444418D01*
X144050314Y-105449771D01*
X144022829Y-105464569D01*
X143997430Y-105483431D01*
X143975738Y-105507122D01*
X143972498Y-105511760D01*
X143958147Y-105538903D01*
X143949753Y-105568747D01*
X143947292Y-105598222D01*
X143949997Y-105627995D01*
X143958111Y-105656680D01*
X143971635Y-105684278D01*
X143974989Y-105689667D01*
X143994569Y-105714642D01*
X144018873Y-105735897D01*
X144044783Y-105751845D01*
X144054270Y-105756491D01*
X144084389Y-105768038D01*
X144112874Y-105775130D01*
X144142970Y-105779235D01*
X144170628Y-105780378D01*
X144200470Y-105779518D01*
X144232928Y-105776339D01*
X144262848Y-105770819D01*
X144293934Y-105761641D01*
X144308234Y-105755905D01*
X144334438Y-105742139D01*
X144360349Y-105722996D01*
X144382481Y-105699980D01*
X144395136Y-105682486D01*
X144410494Y-105653851D01*
X144421122Y-105623176D01*
X144426599Y-105594197D01*
X144428255Y-105571404D01*
G37*
G36*
X143735826Y-105771000D02*
G01*
X143896147Y-105161369D01*
X143814082Y-105161369D01*
X143722198Y-105561586D01*
X143715044Y-105592965D01*
X143708386Y-105624234D01*
X143702222Y-105655393D01*
X143696552Y-105686443D01*
X143689824Y-105657876D01*
X143682968Y-105628943D01*
X143675895Y-105599437D01*
X143669441Y-105573602D01*
X143554403Y-105161369D01*
X143457976Y-105161369D01*
X143371367Y-105470288D01*
X143363518Y-105498830D01*
X143354505Y-105533896D01*
X143346379Y-105568282D01*
X143339140Y-105601988D01*
X143332789Y-105635014D01*
X143327325Y-105667361D01*
X143324473Y-105686443D01*
X143318244Y-105656437D01*
X143311137Y-105624307D01*
X143304197Y-105594450D01*
X143296583Y-105562966D01*
X143294284Y-105553672D01*
X143199616Y-105161369D01*
X143119162Y-105161369D01*
X143284905Y-105771000D01*
X143361988Y-105771000D01*
X143489337Y-105306010D01*
X143497290Y-105276761D01*
X143505135Y-105247077D01*
X143508241Y-105234349D01*
X143515200Y-105264141D01*
X143522849Y-105294471D01*
X143525973Y-105306010D01*
X143654200Y-105771000D01*
X143735826Y-105771000D01*
G37*
G36*
X142617683Y-105555284D02*
G01*
X142537669Y-105575508D01*
X142546526Y-105605581D01*
X142557344Y-105633336D01*
X142572913Y-105663581D01*
X142591306Y-105690489D01*
X142612522Y-105714057D01*
X142628234Y-105727915D01*
X142653714Y-105745744D01*
X142681245Y-105759885D01*
X142710826Y-105770337D01*
X142742457Y-105777099D01*
X142776139Y-105780173D01*
X142787822Y-105780378D01*
X142817477Y-105779402D01*
X142850711Y-105775651D01*
X142881379Y-105769087D01*
X142909481Y-105759711D01*
X142939025Y-105745216D01*
X142946824Y-105740371D01*
X142972164Y-105721157D01*
X142994713Y-105698521D01*
X143014471Y-105672463D01*
X143031438Y-105642983D01*
X143039881Y-105624600D01*
X143050738Y-105595742D01*
X143059349Y-105566101D01*
X143065713Y-105535677D01*
X143069831Y-105504469D01*
X143071703Y-105472479D01*
X143071828Y-105461642D01*
X143070560Y-105426886D01*
X143066758Y-105393841D01*
X143060421Y-105362507D01*
X143051550Y-105332883D01*
X143040143Y-105304969D01*
X143035778Y-105296045D01*
X143018547Y-105266769D01*
X142998399Y-105240747D01*
X142975334Y-105217978D01*
X142949352Y-105198464D01*
X142933196Y-105188773D01*
X142903393Y-105174441D01*
X142872328Y-105163629D01*
X142840000Y-105156337D01*
X142806411Y-105152565D01*
X142786650Y-105151990D01*
X142753648Y-105153634D01*
X142722676Y-105158564D01*
X142693734Y-105166782D01*
X142662533Y-105180523D01*
X142634096Y-105198739D01*
X142608835Y-105221014D01*
X142587165Y-105246936D01*
X142571448Y-105272057D01*
X142558368Y-105299857D01*
X142547927Y-105330337D01*
X142626769Y-105348948D01*
X142636848Y-105321209D01*
X142650601Y-105293800D01*
X142668919Y-105268439D01*
X142687732Y-105250762D01*
X142714739Y-105234533D01*
X142745754Y-105224315D01*
X142777094Y-105220258D01*
X142788262Y-105219988D01*
X142817629Y-105221600D01*
X142848530Y-105227394D01*
X142876591Y-105237400D01*
X142904766Y-105253693D01*
X142928871Y-105274472D01*
X142948594Y-105298892D01*
X142963935Y-105326951D01*
X142970565Y-105344112D01*
X142978835Y-105372697D01*
X142984743Y-105401741D01*
X142988288Y-105431242D01*
X142989469Y-105461202D01*
X142988396Y-105494300D01*
X142985178Y-105525504D01*
X142979813Y-105554815D01*
X142971055Y-105585995D01*
X142967048Y-105597050D01*
X142954216Y-105624170D01*
X142936079Y-105650323D01*
X142914025Y-105671862D01*
X142897145Y-105683658D01*
X142869823Y-105697543D01*
X142841272Y-105706883D01*
X142811492Y-105711680D01*
X142794417Y-105712381D01*
X142762140Y-105709908D01*
X142732428Y-105702489D01*
X142705280Y-105690125D01*
X142680697Y-105672814D01*
X142659283Y-105650631D01*
X142641643Y-105623648D01*
X142629303Y-105596101D01*
X142619852Y-105564880D01*
X142617683Y-105555284D01*
G37*
G36*
X142445931Y-105771000D02*
G01*
X142445931Y-105161369D01*
X142365917Y-105161369D01*
X142365917Y-105700658D01*
X142068429Y-105700658D01*
X142068429Y-105771000D01*
X142445931Y-105771000D01*
G37*
G36*
X141978743Y-105771000D02*
G01*
X141978743Y-105161369D01*
X141898729Y-105161369D01*
X141898729Y-105460176D01*
X141598750Y-105161369D01*
X141490307Y-105161369D01*
X141743831Y-105405661D01*
X141479169Y-105771000D01*
X141584682Y-105771000D01*
X141799811Y-105459297D01*
X141898729Y-105555284D01*
X141898729Y-105771000D01*
X141978743Y-105771000D01*
G37*
G36*
X144975017Y-106708658D02*
G01*
X144975017Y-106779000D01*
X145374501Y-106779000D01*
X145372125Y-106749479D01*
X145365854Y-106727415D01*
X145353128Y-106699462D01*
X145337833Y-106674320D01*
X145318988Y-106649436D01*
X145316908Y-106646962D01*
X145295666Y-106623649D01*
X145272814Y-106601292D01*
X145249754Y-106580467D01*
X145223832Y-106558464D01*
X145219895Y-106555224D01*
X145196273Y-106535383D01*
X145169555Y-106512070D01*
X145145956Y-106490409D01*
X145121755Y-106466598D01*
X145099199Y-106441827D01*
X145086831Y-106426117D01*
X145070042Y-106399733D01*
X145057832Y-106371368D01*
X145052236Y-106341324D01*
X145052100Y-106335992D01*
X145056551Y-106304558D01*
X145069905Y-106277080D01*
X145083754Y-106260960D01*
X145107666Y-106243523D01*
X145136081Y-106233323D01*
X145165819Y-106230332D01*
X145197252Y-106233610D01*
X145227002Y-106244785D01*
X145251695Y-106263891D01*
X145270019Y-106290028D01*
X145280186Y-106319108D01*
X145284050Y-106349612D01*
X145284228Y-106356948D01*
X145360432Y-106348888D01*
X145355995Y-106317493D01*
X145348507Y-106289035D01*
X145335917Y-106259546D01*
X145319175Y-106234054D01*
X145301521Y-106215385D01*
X145277469Y-106197455D01*
X145250065Y-106183929D01*
X145219310Y-106174807D01*
X145190280Y-106170493D01*
X145164207Y-106169369D01*
X145132892Y-106171075D01*
X145099574Y-106177375D01*
X145069720Y-106188317D01*
X145043330Y-106203902D01*
X145026601Y-106217876D01*
X145006844Y-106240206D01*
X144990206Y-106268439D01*
X144979907Y-106299566D01*
X144976094Y-106329176D01*
X144975896Y-106338043D01*
X144978339Y-106367498D01*
X144985667Y-106396566D01*
X144990697Y-106409851D01*
X145004560Y-106436765D01*
X145022119Y-106462377D01*
X145039937Y-106484003D01*
X145062913Y-106508225D01*
X145085769Y-106530238D01*
X145108831Y-106551317D01*
X145135098Y-106574435D01*
X145154389Y-106590981D01*
X145177719Y-106610966D01*
X145200705Y-106631039D01*
X145223560Y-106651715D01*
X145240118Y-106667918D01*
X145259299Y-106690762D01*
X145271332Y-106708658D01*
X144975017Y-106708658D01*
G37*
G36*
X144428255Y-106579404D02*
G01*
X144352930Y-106572663D01*
X144347540Y-106603197D01*
X144337868Y-106631924D01*
X144328018Y-106650332D01*
X144308507Y-106673069D01*
X144284186Y-106690665D01*
X144267201Y-106699425D01*
X144237595Y-106710021D01*
X144208606Y-106715837D01*
X144177643Y-106718018D01*
X144174438Y-106718036D01*
X144144268Y-106716426D01*
X144114239Y-106710996D01*
X144093691Y-106704408D01*
X144066395Y-106690419D01*
X144043717Y-106669692D01*
X144041521Y-106666745D01*
X144028142Y-106640010D01*
X144024375Y-106614429D01*
X144029615Y-106584552D01*
X144040935Y-106564457D01*
X144062733Y-106544673D01*
X144090643Y-106530247D01*
X144095303Y-106528406D01*
X144124791Y-106518926D01*
X144156597Y-106510322D01*
X144187778Y-106502476D01*
X144202868Y-106498804D01*
X144232330Y-106491303D01*
X144262275Y-106482760D01*
X144290659Y-106473271D01*
X144319518Y-106460702D01*
X144346642Y-106443603D01*
X144368571Y-106423941D01*
X144383998Y-106403842D01*
X144396947Y-106377299D01*
X144403919Y-106348448D01*
X144405247Y-106327932D01*
X144402182Y-106296923D01*
X144392987Y-106267368D01*
X144379309Y-106241763D01*
X144360687Y-106218556D01*
X144337429Y-106199127D01*
X144309533Y-106183477D01*
X144303398Y-106180800D01*
X144274479Y-106170741D01*
X144243774Y-106163973D01*
X144211284Y-106160498D01*
X144192463Y-106159990D01*
X144159893Y-106161355D01*
X144129302Y-106165449D01*
X144100689Y-106172273D01*
X144074054Y-106181826D01*
X144047081Y-106195660D01*
X144021515Y-106214866D01*
X144000587Y-106238107D01*
X143995212Y-106245866D01*
X143980406Y-106273424D01*
X143970609Y-106303156D01*
X143965820Y-106335064D01*
X143965464Y-106341707D01*
X144042107Y-106347569D01*
X144047911Y-106317175D01*
X144059852Y-106288678D01*
X144079665Y-106263746D01*
X144084019Y-106259935D01*
X144109596Y-106244324D01*
X144138292Y-106235218D01*
X144168316Y-106231055D01*
X144189239Y-106230332D01*
X144219096Y-106231616D01*
X144248616Y-106236225D01*
X144278612Y-106246701D01*
X144295045Y-106257150D01*
X144315227Y-106278720D01*
X144327000Y-106307844D01*
X144328164Y-106321630D01*
X144322266Y-106351526D01*
X144304570Y-106375559D01*
X144276846Y-106391551D01*
X144246731Y-106402395D01*
X144218037Y-106410625D01*
X144184110Y-106418937D01*
X144155148Y-106425719D01*
X144124332Y-106433509D01*
X144093811Y-106442116D01*
X144063163Y-106452418D01*
X144050314Y-106457771D01*
X144022829Y-106472569D01*
X143997430Y-106491431D01*
X143975738Y-106515122D01*
X143972498Y-106519760D01*
X143958147Y-106546903D01*
X143949753Y-106576747D01*
X143947292Y-106606222D01*
X143949997Y-106635995D01*
X143958111Y-106664680D01*
X143971635Y-106692278D01*
X143974989Y-106697667D01*
X143994569Y-106722642D01*
X144018873Y-106743897D01*
X144044783Y-106759845D01*
X144054270Y-106764491D01*
X144084389Y-106776038D01*
X144112874Y-106783130D01*
X144142970Y-106787235D01*
X144170628Y-106788378D01*
X144200470Y-106787518D01*
X144232928Y-106784339D01*
X144262848Y-106778819D01*
X144293934Y-106769641D01*
X144308234Y-106763905D01*
X144334438Y-106750139D01*
X144360349Y-106730996D01*
X144382481Y-106707980D01*
X144395136Y-106690486D01*
X144410494Y-106661851D01*
X144421122Y-106631176D01*
X144426599Y-106602197D01*
X144428255Y-106579404D01*
G37*
G36*
X143735826Y-106779000D02*
G01*
X143896147Y-106169369D01*
X143814082Y-106169369D01*
X143722198Y-106569586D01*
X143715044Y-106600965D01*
X143708386Y-106632234D01*
X143702222Y-106663393D01*
X143696552Y-106694443D01*
X143689824Y-106665876D01*
X143682968Y-106636943D01*
X143675895Y-106607437D01*
X143669441Y-106581602D01*
X143554403Y-106169369D01*
X143457976Y-106169369D01*
X143371367Y-106478288D01*
X143363518Y-106506830D01*
X143354505Y-106541896D01*
X143346379Y-106576282D01*
X143339140Y-106609988D01*
X143332789Y-106643014D01*
X143327325Y-106675361D01*
X143324473Y-106694443D01*
X143318244Y-106664437D01*
X143311137Y-106632307D01*
X143304197Y-106602450D01*
X143296583Y-106570966D01*
X143294284Y-106561672D01*
X143199616Y-106169369D01*
X143119162Y-106169369D01*
X143284905Y-106779000D01*
X143361988Y-106779000D01*
X143489337Y-106314010D01*
X143497290Y-106284761D01*
X143505135Y-106255077D01*
X143508241Y-106242349D01*
X143515200Y-106272141D01*
X143522849Y-106302471D01*
X143525973Y-106314010D01*
X143654200Y-106779000D01*
X143735826Y-106779000D01*
G37*
G36*
X143048820Y-106779000D02*
G01*
X142830760Y-106779000D01*
X142823958Y-106778959D01*
X142794569Y-106777770D01*
X142764252Y-106774519D01*
X142733747Y-106768595D01*
X142715814Y-106763580D01*
X142687846Y-106752829D01*
X142661500Y-106738113D01*
X142648652Y-106728550D01*
X142626020Y-106706995D01*
X142606545Y-106682719D01*
X142603431Y-106678250D01*
X142587589Y-106651095D01*
X142575081Y-106622622D01*
X142565366Y-106593912D01*
X142557573Y-106562490D01*
X142552788Y-106532458D01*
X142550017Y-106500446D01*
X142549246Y-106470814D01*
X142549268Y-106469642D01*
X142631605Y-106469642D01*
X142632166Y-106494964D01*
X142634662Y-106526466D01*
X142639856Y-106558820D01*
X142647578Y-106587904D01*
X142657478Y-106613777D01*
X142672285Y-106641118D01*
X142691835Y-106665573D01*
X142694417Y-106668102D01*
X142718945Y-106685733D01*
X142746057Y-106697374D01*
X142748207Y-106698068D01*
X142777937Y-106704680D01*
X142808254Y-106707765D01*
X142839846Y-106708658D01*
X142968806Y-106708658D01*
X142968806Y-106239711D01*
X142841898Y-106239711D01*
X142828861Y-106239822D01*
X142797473Y-106241201D01*
X142768029Y-106244634D01*
X142738436Y-106252314D01*
X142727510Y-106257244D01*
X142702036Y-106274237D01*
X142681361Y-106295233D01*
X142662819Y-106321630D01*
X142652211Y-106342551D01*
X142642609Y-106370943D01*
X142635994Y-106403627D01*
X142632702Y-106435058D01*
X142631605Y-106469642D01*
X142549268Y-106469642D01*
X142549617Y-106450728D01*
X142552051Y-106416944D01*
X142556757Y-106384899D01*
X142563736Y-106354593D01*
X142572986Y-106326027D01*
X142586304Y-106295719D01*
X142602662Y-106268251D01*
X142622061Y-106243622D01*
X142644501Y-106221833D01*
X142649140Y-106217953D01*
X142674121Y-106200854D01*
X142702079Y-106187590D01*
X142733014Y-106178162D01*
X142745416Y-106175629D01*
X142775115Y-106171851D01*
X142807423Y-106169919D01*
X142840579Y-106169369D01*
X143048820Y-106169369D01*
X143048820Y-106779000D01*
G37*
G36*
X142429078Y-106779000D02*
G01*
X142429078Y-106169369D01*
X142349064Y-106169369D01*
X142349064Y-106779000D01*
X142429078Y-106779000D01*
G37*
G36*
X141967853Y-106160743D02*
G01*
X141997968Y-106164086D01*
X142033551Y-106172025D01*
X142066845Y-106184144D01*
X142097848Y-106200442D01*
X142126562Y-106220918D01*
X142152986Y-106245573D01*
X142171911Y-106267960D01*
X142188313Y-106292404D01*
X142202191Y-106318903D01*
X142213546Y-106347459D01*
X142222378Y-106378071D01*
X142228686Y-106410739D01*
X142232471Y-106445464D01*
X142233733Y-106482244D01*
X142232517Y-106511956D01*
X142228869Y-106541080D01*
X142221540Y-106574316D01*
X142210902Y-106606753D01*
X142199148Y-106633919D01*
X142189959Y-106651363D01*
X142171443Y-106679619D01*
X142149828Y-106704986D01*
X142125113Y-106727464D01*
X142097299Y-106747053D01*
X142088820Y-106752057D01*
X142062540Y-106765133D01*
X142034992Y-106775303D01*
X142006177Y-106782567D01*
X141976095Y-106786926D01*
X141944745Y-106788378D01*
X141925238Y-106787792D01*
X141891906Y-106783945D01*
X141859598Y-106776508D01*
X141828313Y-106765481D01*
X141798053Y-106750863D01*
X141777558Y-106738277D01*
X141751403Y-106717759D01*
X141728207Y-106693862D01*
X141707970Y-106666585D01*
X141692979Y-106640514D01*
X141688472Y-106631316D01*
X141676694Y-106602815D01*
X141667534Y-106572954D01*
X141660991Y-106541733D01*
X141657065Y-106509152D01*
X141655757Y-106475210D01*
X141655764Y-106474624D01*
X141738262Y-106474624D01*
X141739686Y-106510088D01*
X141743958Y-106542934D01*
X141751077Y-106573160D01*
X141761045Y-106600768D01*
X141776766Y-106630440D01*
X141796587Y-106656341D01*
X141804003Y-106664096D01*
X141827746Y-106684358D01*
X141853736Y-106700118D01*
X141881973Y-106711376D01*
X141912456Y-106718130D01*
X141945184Y-106720381D01*
X141956132Y-106720133D01*
X141987582Y-106716415D01*
X142016940Y-106708236D01*
X142044206Y-106695594D01*
X142069380Y-106678491D01*
X142092463Y-106656927D01*
X142109392Y-106635956D01*
X142125920Y-106607778D01*
X142138315Y-106576313D01*
X142145489Y-106547582D01*
X142149793Y-106516567D01*
X142151228Y-106483270D01*
X142150989Y-106466377D01*
X142149079Y-106434440D01*
X142145260Y-106404966D01*
X142137800Y-106371588D01*
X142127357Y-106342060D01*
X142110886Y-106311708D01*
X142090118Y-106286899D01*
X142082368Y-106279765D01*
X142058006Y-106261125D01*
X142031975Y-106246628D01*
X142004274Y-106236272D01*
X141974905Y-106230059D01*
X141943866Y-106227988D01*
X141925509Y-106228735D01*
X141893893Y-106233850D01*
X141864108Y-106243810D01*
X141836154Y-106258616D01*
X141818943Y-106270927D01*
X141796179Y-106292698D01*
X141777078Y-106318434D01*
X141763175Y-106344638D01*
X141760158Y-106351654D01*
X141750037Y-106381197D01*
X141743030Y-106413103D01*
X141739454Y-106442959D01*
X141738262Y-106474624D01*
X141655764Y-106474624D01*
X141655895Y-106463892D01*
X141657964Y-106430844D01*
X141662517Y-106399155D01*
X141669553Y-106368827D01*
X141679072Y-106339859D01*
X141691074Y-106312251D01*
X141700368Y-106294760D01*
X141719047Y-106266541D01*
X141740796Y-106241365D01*
X141765617Y-106219233D01*
X141793510Y-106200144D01*
X141823666Y-106184498D01*
X141855407Y-106172695D01*
X141883876Y-106165637D01*
X141913508Y-106161402D01*
X141944305Y-106159990D01*
X141967853Y-106160743D01*
G37*
G36*
X145364535Y-107628144D02*
G01*
X145290383Y-107618179D01*
X145282891Y-107647149D01*
X145271791Y-107674551D01*
X145254383Y-107700581D01*
X145247006Y-107708011D01*
X145222050Y-107724711D01*
X145193343Y-107733703D01*
X145172121Y-107735415D01*
X145140934Y-107731866D01*
X145112953Y-107721219D01*
X145088178Y-107703473D01*
X145083607Y-107699072D01*
X145064596Y-107674669D01*
X145052627Y-107646888D01*
X145047698Y-107615730D01*
X145047557Y-107609093D01*
X145050820Y-107578888D01*
X145061947Y-107549729D01*
X145080969Y-107524829D01*
X145106070Y-107505890D01*
X145135431Y-107494812D01*
X145165819Y-107491563D01*
X145196205Y-107494769D01*
X145218283Y-107499770D01*
X145209930Y-107429868D01*
X145198060Y-107430600D01*
X145166559Y-107427726D01*
X145137345Y-107419102D01*
X145112770Y-107406274D01*
X145091161Y-107386432D01*
X145077817Y-107357677D01*
X145074815Y-107331242D01*
X145079386Y-107300891D01*
X145094533Y-107273290D01*
X145102512Y-107264711D01*
X145127557Y-107247632D01*
X145157923Y-107239260D01*
X145173733Y-107238332D01*
X145204137Y-107242124D01*
X145232516Y-107254790D01*
X145245833Y-107265297D01*
X145264580Y-107289312D01*
X145276659Y-107317988D01*
X145282909Y-107346190D01*
X145357062Y-107333001D01*
X145349501Y-107302158D01*
X145338617Y-107274513D01*
X145322108Y-107246834D01*
X145301257Y-107223332D01*
X145295366Y-107218109D01*
X145269784Y-107200285D01*
X145241254Y-107187554D01*
X145209774Y-107179916D01*
X145179810Y-107177409D01*
X145175345Y-107177369D01*
X145145237Y-107179430D01*
X145113871Y-107186457D01*
X145084340Y-107198472D01*
X145058047Y-107214816D01*
X145036396Y-107234830D01*
X145020739Y-107256211D01*
X145007255Y-107284217D01*
X144999994Y-107313501D01*
X144998611Y-107333734D01*
X145002069Y-107364269D01*
X145012445Y-107392531D01*
X145019567Y-107404808D01*
X145039955Y-107428613D01*
X145064743Y-107446765D01*
X145081849Y-107455660D01*
X145053580Y-107464788D01*
X145026629Y-107479906D01*
X145004372Y-107500262D01*
X144998611Y-107507390D01*
X144982923Y-107533869D01*
X144973045Y-107564211D01*
X144969123Y-107594823D01*
X144968862Y-107605722D01*
X144971625Y-107639443D01*
X144979914Y-107670850D01*
X144993728Y-107699943D01*
X145013068Y-107726721D01*
X145026601Y-107740984D01*
X145049320Y-107759810D01*
X145078520Y-107776850D01*
X145110624Y-107788589D01*
X145140453Y-107794431D01*
X145172414Y-107796378D01*
X145205937Y-107794141D01*
X145236880Y-107787431D01*
X145265243Y-107776246D01*
X145291024Y-107760587D01*
X145304598Y-107749630D01*
X145325398Y-107727789D01*
X145341892Y-107703296D01*
X145354081Y-107676153D01*
X145361964Y-107646359D01*
X145364535Y-107628144D01*
G37*
G36*
X144399825Y-107787000D02*
G01*
X144319958Y-107787000D01*
X144319958Y-107517355D01*
X144227194Y-107517355D01*
X144212814Y-107517539D01*
X144182644Y-107520286D01*
X144173384Y-107522997D01*
X144146154Y-107536406D01*
X144125794Y-107553629D01*
X144105561Y-107577000D01*
X144099690Y-107584654D01*
X144081562Y-107609837D01*
X144064565Y-107634949D01*
X144047822Y-107660677D01*
X143967955Y-107787000D01*
X143867278Y-107787000D01*
X143972498Y-107621842D01*
X143978384Y-107612915D01*
X143996444Y-107587819D01*
X144017218Y-107562897D01*
X144038736Y-107541096D01*
X144060591Y-107525204D01*
X144086950Y-107510907D01*
X144071054Y-107508342D01*
X144041650Y-107501504D01*
X144011369Y-107490647D01*
X143982069Y-107474445D01*
X143958429Y-107454194D01*
X143942213Y-107433658D01*
X143927215Y-107404369D01*
X143919412Y-107375609D01*
X143916907Y-107345457D01*
X143999169Y-107345457D01*
X144002711Y-107372518D01*
X144015289Y-107400852D01*
X144035109Y-107422760D01*
X144062330Y-107437781D01*
X144086411Y-107444372D01*
X144116137Y-107448228D01*
X144148060Y-107449358D01*
X144319958Y-107449358D01*
X144319958Y-107245367D01*
X144128715Y-107245367D01*
X144116422Y-107245615D01*
X144086748Y-107248709D01*
X144056020Y-107257547D01*
X144030383Y-107273650D01*
X144016727Y-107288689D01*
X144003559Y-107314889D01*
X143999169Y-107345457D01*
X143916907Y-107345457D01*
X143916810Y-107344285D01*
X143916909Y-107338017D01*
X143920355Y-107307692D01*
X143928724Y-107279055D01*
X143942016Y-107252108D01*
X143959338Y-107228480D01*
X143982228Y-107208209D01*
X144009134Y-107193929D01*
X144039199Y-107185196D01*
X144068691Y-107180539D01*
X144098464Y-107178162D01*
X144131939Y-107177369D01*
X144399825Y-107177369D01*
X144399825Y-107787000D01*
G37*
G36*
X143822142Y-107587404D02*
G01*
X143746817Y-107580663D01*
X143741427Y-107611197D01*
X143731755Y-107639924D01*
X143721905Y-107658332D01*
X143702394Y-107681069D01*
X143678073Y-107698665D01*
X143661088Y-107707425D01*
X143631482Y-107718021D01*
X143602493Y-107723837D01*
X143571530Y-107726018D01*
X143568325Y-107726036D01*
X143538155Y-107724426D01*
X143508125Y-107718996D01*
X143487578Y-107712408D01*
X143460282Y-107698419D01*
X143437604Y-107677692D01*
X143435408Y-107674745D01*
X143422029Y-107648010D01*
X143418262Y-107622429D01*
X143423501Y-107592552D01*
X143434822Y-107572457D01*
X143456620Y-107552673D01*
X143484530Y-107538247D01*
X143489190Y-107536406D01*
X143518678Y-107526926D01*
X143550484Y-107518322D01*
X143581665Y-107510476D01*
X143596755Y-107506804D01*
X143626217Y-107499303D01*
X143656162Y-107490760D01*
X143684546Y-107481271D01*
X143713405Y-107468702D01*
X143740529Y-107451603D01*
X143762458Y-107431941D01*
X143777885Y-107411842D01*
X143790834Y-107385299D01*
X143797806Y-107356448D01*
X143799134Y-107335932D01*
X143796069Y-107304923D01*
X143786874Y-107275368D01*
X143773196Y-107249763D01*
X143754574Y-107226556D01*
X143731316Y-107207127D01*
X143703420Y-107191477D01*
X143697285Y-107188800D01*
X143668365Y-107178741D01*
X143637661Y-107171973D01*
X143605171Y-107168498D01*
X143586350Y-107167990D01*
X143553780Y-107169355D01*
X143523189Y-107173449D01*
X143494576Y-107180273D01*
X143467941Y-107189826D01*
X143440968Y-107203660D01*
X143415402Y-107222866D01*
X143394474Y-107246107D01*
X143389099Y-107253866D01*
X143374293Y-107281424D01*
X143364496Y-107311156D01*
X143359707Y-107343064D01*
X143359351Y-107349707D01*
X143435994Y-107355569D01*
X143441798Y-107325175D01*
X143453739Y-107296678D01*
X143473552Y-107271746D01*
X143477906Y-107267935D01*
X143503483Y-107252324D01*
X143532179Y-107243218D01*
X143562203Y-107239055D01*
X143583126Y-107238332D01*
X143612983Y-107239616D01*
X143642503Y-107244225D01*
X143672499Y-107254701D01*
X143688932Y-107265150D01*
X143709114Y-107286720D01*
X143720887Y-107315844D01*
X143722051Y-107329630D01*
X143716153Y-107359526D01*
X143698457Y-107383559D01*
X143670733Y-107399551D01*
X143640618Y-107410395D01*
X143611924Y-107418625D01*
X143577997Y-107426937D01*
X143549035Y-107433719D01*
X143518219Y-107441509D01*
X143487698Y-107450116D01*
X143457050Y-107460418D01*
X143444200Y-107465771D01*
X143416716Y-107480569D01*
X143391317Y-107499431D01*
X143369625Y-107523122D01*
X143366385Y-107527760D01*
X143352034Y-107554903D01*
X143343640Y-107584747D01*
X143341179Y-107614222D01*
X143343884Y-107643995D01*
X143351998Y-107672680D01*
X143365522Y-107700278D01*
X143368876Y-107705667D01*
X143388456Y-107730642D01*
X143412760Y-107751897D01*
X143438670Y-107767845D01*
X143448157Y-107772491D01*
X143478276Y-107784038D01*
X143506761Y-107791130D01*
X143536857Y-107795235D01*
X143564515Y-107796378D01*
X143594357Y-107795518D01*
X143626815Y-107792339D01*
X143656735Y-107786819D01*
X143687821Y-107777641D01*
X143702121Y-107771905D01*
X143728325Y-107758139D01*
X143754236Y-107738996D01*
X143776368Y-107715980D01*
X143789023Y-107698486D01*
X143804381Y-107669851D01*
X143815009Y-107639176D01*
X143820486Y-107610197D01*
X143822142Y-107587404D01*
G37*
G36*
X143081500Y-107787000D02*
G01*
X143081500Y-107247711D01*
X143280509Y-107247711D01*
X143280509Y-107177369D01*
X142801598Y-107177369D01*
X142801598Y-107247711D01*
X143001486Y-107247711D01*
X143001486Y-107787000D01*
X143081500Y-107787000D01*
G37*
G36*
X145389302Y-108579284D02*
G01*
X145389302Y-108647281D01*
X145127131Y-108647281D01*
X145127131Y-108795000D01*
X145052979Y-108795000D01*
X145052979Y-108647281D01*
X144971353Y-108647281D01*
X144971353Y-108579284D01*
X145052979Y-108579284D01*
X145052979Y-108305244D01*
X145127131Y-108305244D01*
X145127131Y-108579284D01*
X145316322Y-108579284D01*
X145127131Y-108305244D01*
X145052979Y-108305244D01*
X145052979Y-108185369D01*
X145113503Y-108185369D01*
X145389302Y-108579284D01*
G37*
G36*
X144118311Y-108555837D02*
G01*
X144118311Y-108485495D01*
X143862442Y-108485055D01*
X143862442Y-108710589D01*
X143888398Y-108729933D01*
X143914719Y-108747062D01*
X143941404Y-108761974D01*
X143968454Y-108774671D01*
X143984075Y-108780931D01*
X144015573Y-108791189D01*
X144047493Y-108798517D01*
X144079833Y-108802913D01*
X144112595Y-108804378D01*
X144145386Y-108803034D01*
X144177044Y-108799000D01*
X144207567Y-108792276D01*
X144236958Y-108782864D01*
X144265215Y-108770762D01*
X144274382Y-108766130D01*
X144300387Y-108750531D01*
X144323889Y-108732532D01*
X144348143Y-108708498D01*
X144366220Y-108685297D01*
X144381793Y-108659695D01*
X144384145Y-108655195D01*
X144396745Y-108627395D01*
X144406738Y-108598399D01*
X144414124Y-108568209D01*
X144418903Y-108536823D01*
X144421076Y-108504241D01*
X144421221Y-108493115D01*
X144419928Y-108460280D01*
X144416048Y-108428269D01*
X144409582Y-108397082D01*
X144400530Y-108366720D01*
X144388892Y-108337182D01*
X144384438Y-108327519D01*
X144369456Y-108300064D01*
X144352207Y-108275401D01*
X144332691Y-108253531D01*
X144307058Y-108231545D01*
X144278339Y-108213360D01*
X144251608Y-108200660D01*
X144223405Y-108190588D01*
X144193727Y-108183143D01*
X144162577Y-108178326D01*
X144129953Y-108176136D01*
X144118750Y-108175990D01*
X144086785Y-108177300D01*
X144056395Y-108181229D01*
X144027581Y-108187778D01*
X144000341Y-108196946D01*
X143972321Y-108210044D01*
X143945456Y-108227670D01*
X143923085Y-108248530D01*
X143917250Y-108255418D01*
X143899813Y-108281084D01*
X143886568Y-108307976D01*
X143875640Y-108338462D01*
X143871528Y-108353164D01*
X143943628Y-108372948D01*
X143953777Y-108343935D01*
X143966626Y-108317577D01*
X143977480Y-108301434D01*
X143998385Y-108280601D01*
X144023775Y-108264822D01*
X144035073Y-108259668D01*
X144064364Y-108250113D01*
X144095963Y-108244968D01*
X144118311Y-108243988D01*
X144147969Y-108245332D01*
X144178177Y-108249981D01*
X144208067Y-108258928D01*
X144213126Y-108260987D01*
X144240967Y-108275241D01*
X144266245Y-108294078D01*
X144277752Y-108305683D01*
X144295823Y-108328987D01*
X144311226Y-108356139D01*
X144315708Y-108366353D01*
X144325838Y-108395461D01*
X144333073Y-108425778D01*
X144337415Y-108457303D01*
X144338862Y-108490038D01*
X144337883Y-108519875D01*
X144334267Y-108552314D01*
X144327986Y-108582201D01*
X144317544Y-108613232D01*
X144311018Y-108627498D01*
X144295521Y-108653345D01*
X144274321Y-108678175D01*
X144249133Y-108698507D01*
X144230125Y-108709563D01*
X144203115Y-108721296D01*
X144171743Y-108730489D01*
X144139328Y-108735438D01*
X144117138Y-108736381D01*
X144084881Y-108734406D01*
X144053139Y-108728481D01*
X144025012Y-108719772D01*
X144015729Y-108716158D01*
X143987118Y-108703261D01*
X143961068Y-108688479D01*
X143940697Y-108673073D01*
X143940697Y-108555837D01*
X144118311Y-108555837D01*
G37*
G36*
X143748869Y-108795000D02*
G01*
X143748869Y-108185369D01*
X143666950Y-108185369D01*
X143349532Y-108663988D01*
X143349532Y-108185369D01*
X143272889Y-108185369D01*
X143272889Y-108795000D01*
X143354808Y-108795000D01*
X143672226Y-108315942D01*
X143672226Y-108795000D01*
X143748869Y-108795000D01*
G37*
G36*
X143142023Y-108795000D02*
G01*
X142923963Y-108795000D01*
X142917161Y-108794959D01*
X142887772Y-108793770D01*
X142857455Y-108790519D01*
X142826950Y-108784595D01*
X142809017Y-108779580D01*
X142781049Y-108768829D01*
X142754703Y-108754113D01*
X142741855Y-108744550D01*
X142719223Y-108722995D01*
X142699748Y-108698719D01*
X142696634Y-108694250D01*
X142680792Y-108667095D01*
X142668284Y-108638622D01*
X142658569Y-108609912D01*
X142650777Y-108578490D01*
X142645991Y-108548458D01*
X142643220Y-108516446D01*
X142642449Y-108486814D01*
X142642471Y-108485642D01*
X142724808Y-108485642D01*
X142725369Y-108510964D01*
X142727865Y-108542466D01*
X142733060Y-108574820D01*
X142740781Y-108603904D01*
X142750681Y-108629777D01*
X142765488Y-108657118D01*
X142785038Y-108681573D01*
X142787620Y-108684102D01*
X142812148Y-108701733D01*
X142839260Y-108713374D01*
X142841410Y-108714068D01*
X142871140Y-108720680D01*
X142901457Y-108723765D01*
X142933049Y-108724658D01*
X143062009Y-108724658D01*
X143062009Y-108255711D01*
X142935101Y-108255711D01*
X142922064Y-108255822D01*
X142890676Y-108257201D01*
X142861232Y-108260634D01*
X142831639Y-108268314D01*
X142820713Y-108273244D01*
X142795239Y-108290237D01*
X142774564Y-108311233D01*
X142756022Y-108337630D01*
X142745414Y-108358551D01*
X142735812Y-108386943D01*
X142729197Y-108419627D01*
X142725905Y-108451058D01*
X142724808Y-108485642D01*
X142642471Y-108485642D01*
X142642820Y-108466728D01*
X142645254Y-108432944D01*
X142649961Y-108400899D01*
X142656939Y-108370593D01*
X142666189Y-108342027D01*
X142679507Y-108311719D01*
X142695865Y-108284251D01*
X142715264Y-108259622D01*
X142737704Y-108237833D01*
X142742343Y-108233953D01*
X142767324Y-108216854D01*
X142795282Y-108203590D01*
X142826217Y-108194162D01*
X142838619Y-108191629D01*
X142868318Y-108187851D01*
X142900626Y-108185919D01*
X142933782Y-108185369D01*
X143142023Y-108185369D01*
X143142023Y-108795000D01*
G37*
G36*
X145364975Y-109643558D02*
G01*
X145287013Y-109636963D01*
X145280341Y-109666792D01*
X145268686Y-109694687D01*
X145250708Y-109718992D01*
X145246859Y-109722692D01*
X145221395Y-109740196D01*
X145192262Y-109749620D01*
X145170802Y-109751415D01*
X145138974Y-109747380D01*
X145110352Y-109735272D01*
X145084935Y-109715094D01*
X145080237Y-109710090D01*
X145062243Y-109684722D01*
X145050139Y-109655113D01*
X145044323Y-109625231D01*
X145043014Y-109600620D01*
X145045249Y-109569873D01*
X145053106Y-109539377D01*
X145066619Y-109513216D01*
X145078771Y-109498184D01*
X145103189Y-109478401D01*
X145131928Y-109465944D01*
X145161489Y-109460998D01*
X145172121Y-109460669D01*
X145202090Y-109463922D01*
X145231274Y-109474630D01*
X145236748Y-109477668D01*
X145261108Y-109495721D01*
X145280059Y-109518283D01*
X145282177Y-109521632D01*
X145351786Y-109512546D01*
X145293314Y-109202748D01*
X144992749Y-109202748D01*
X144992749Y-109273090D01*
X145233963Y-109273090D01*
X145266496Y-109435463D01*
X145238918Y-109419819D01*
X145210699Y-109408645D01*
X145181839Y-109401941D01*
X145152337Y-109399706D01*
X145118901Y-109402342D01*
X145087835Y-109410252D01*
X145059139Y-109423436D01*
X145032813Y-109441893D01*
X145018834Y-109454807D01*
X144997592Y-109480364D01*
X144981568Y-109508951D01*
X144970761Y-109540567D01*
X144965650Y-109570078D01*
X144964319Y-109596370D01*
X144965999Y-109626466D01*
X144972204Y-109659586D01*
X144982981Y-109690560D01*
X144998330Y-109719388D01*
X145012093Y-109738666D01*
X145035399Y-109763717D01*
X145061683Y-109783584D01*
X145090944Y-109798269D01*
X145123184Y-109807771D01*
X145152325Y-109811731D01*
X145170802Y-109812378D01*
X145200675Y-109810756D01*
X145232831Y-109804760D01*
X145262084Y-109794346D01*
X145288434Y-109779515D01*
X145305478Y-109766217D01*
X145326106Y-109744519D01*
X145342471Y-109719946D01*
X145354573Y-109692499D01*
X145362411Y-109662176D01*
X145364975Y-109643558D01*
G37*
G36*
X144428255Y-109603404D02*
G01*
X144352930Y-109596663D01*
X144347540Y-109627197D01*
X144337868Y-109655924D01*
X144328018Y-109674332D01*
X144308507Y-109697069D01*
X144284186Y-109714665D01*
X144267201Y-109723425D01*
X144237595Y-109734021D01*
X144208606Y-109739837D01*
X144177643Y-109742018D01*
X144174438Y-109742036D01*
X144144268Y-109740426D01*
X144114239Y-109734996D01*
X144093691Y-109728408D01*
X144066395Y-109714419D01*
X144043717Y-109693692D01*
X144041521Y-109690745D01*
X144028142Y-109664010D01*
X144024375Y-109638429D01*
X144029615Y-109608552D01*
X144040935Y-109588457D01*
X144062733Y-109568673D01*
X144090643Y-109554247D01*
X144095303Y-109552406D01*
X144124791Y-109542926D01*
X144156597Y-109534322D01*
X144187778Y-109526476D01*
X144202868Y-109522804D01*
X144232330Y-109515303D01*
X144262275Y-109506760D01*
X144290659Y-109497271D01*
X144319518Y-109484702D01*
X144346642Y-109467603D01*
X144368571Y-109447941D01*
X144383998Y-109427842D01*
X144396947Y-109401299D01*
X144403919Y-109372448D01*
X144405247Y-109351932D01*
X144402182Y-109320923D01*
X144392987Y-109291368D01*
X144379309Y-109265763D01*
X144360687Y-109242556D01*
X144337429Y-109223127D01*
X144309533Y-109207477D01*
X144303398Y-109204800D01*
X144274479Y-109194741D01*
X144243774Y-109187973D01*
X144211284Y-109184498D01*
X144192463Y-109183990D01*
X144159893Y-109185355D01*
X144129302Y-109189449D01*
X144100689Y-109196273D01*
X144074054Y-109205826D01*
X144047081Y-109219660D01*
X144021515Y-109238866D01*
X144000587Y-109262107D01*
X143995212Y-109269866D01*
X143980406Y-109297424D01*
X143970609Y-109327156D01*
X143965820Y-109359064D01*
X143965464Y-109365707D01*
X144042107Y-109371569D01*
X144047911Y-109341175D01*
X144059852Y-109312678D01*
X144079665Y-109287746D01*
X144084019Y-109283935D01*
X144109596Y-109268324D01*
X144138292Y-109259218D01*
X144168316Y-109255055D01*
X144189239Y-109254332D01*
X144219096Y-109255616D01*
X144248616Y-109260225D01*
X144278612Y-109270701D01*
X144295045Y-109281150D01*
X144315227Y-109302720D01*
X144327000Y-109331844D01*
X144328164Y-109345630D01*
X144322266Y-109375526D01*
X144304570Y-109399559D01*
X144276846Y-109415551D01*
X144246731Y-109426395D01*
X144218037Y-109434625D01*
X144184110Y-109442937D01*
X144155148Y-109449719D01*
X144124332Y-109457509D01*
X144093811Y-109466116D01*
X144063163Y-109476418D01*
X144050314Y-109481771D01*
X144022829Y-109496569D01*
X143997430Y-109515431D01*
X143975738Y-109539122D01*
X143972498Y-109543760D01*
X143958147Y-109570903D01*
X143949753Y-109600747D01*
X143947292Y-109630222D01*
X143949997Y-109659995D01*
X143958111Y-109688680D01*
X143971635Y-109716278D01*
X143974989Y-109721667D01*
X143994569Y-109746642D01*
X144018873Y-109767897D01*
X144044783Y-109783845D01*
X144054270Y-109788491D01*
X144084389Y-109800038D01*
X144112874Y-109807130D01*
X144142970Y-109811235D01*
X144170628Y-109812378D01*
X144200470Y-109811518D01*
X144232928Y-109808339D01*
X144262848Y-109802819D01*
X144293934Y-109793641D01*
X144308234Y-109787905D01*
X144334438Y-109774139D01*
X144360349Y-109754996D01*
X144382481Y-109731980D01*
X144395136Y-109714486D01*
X144410494Y-109685851D01*
X144421122Y-109655176D01*
X144426599Y-109626197D01*
X144428255Y-109603404D01*
G37*
G36*
X143735826Y-109803000D02*
G01*
X143896147Y-109193369D01*
X143814082Y-109193369D01*
X143722198Y-109593586D01*
X143715044Y-109624965D01*
X143708386Y-109656234D01*
X143702222Y-109687393D01*
X143696552Y-109718443D01*
X143689824Y-109689876D01*
X143682968Y-109660943D01*
X143675895Y-109631437D01*
X143669441Y-109605602D01*
X143554403Y-109193369D01*
X143457976Y-109193369D01*
X143371367Y-109502288D01*
X143363518Y-109530830D01*
X143354505Y-109565896D01*
X143346379Y-109600282D01*
X143339140Y-109633988D01*
X143332789Y-109667014D01*
X143327325Y-109699361D01*
X143324473Y-109718443D01*
X143318244Y-109688437D01*
X143311137Y-109656307D01*
X143304197Y-109626450D01*
X143296583Y-109594966D01*
X143294284Y-109585672D01*
X143199616Y-109193369D01*
X143119162Y-109193369D01*
X143284905Y-109803000D01*
X143361988Y-109803000D01*
X143489337Y-109338010D01*
X143497290Y-109308761D01*
X143505135Y-109279077D01*
X143508241Y-109266349D01*
X143515200Y-109296141D01*
X143522849Y-109326471D01*
X143525973Y-109338010D01*
X143654200Y-109803000D01*
X143735826Y-109803000D01*
G37*
G36*
X142617683Y-109587284D02*
G01*
X142537669Y-109607508D01*
X142546526Y-109637581D01*
X142557344Y-109665336D01*
X142572913Y-109695581D01*
X142591306Y-109722489D01*
X142612522Y-109746057D01*
X142628234Y-109759915D01*
X142653714Y-109777744D01*
X142681245Y-109791885D01*
X142710826Y-109802337D01*
X142742457Y-109809099D01*
X142776139Y-109812173D01*
X142787822Y-109812378D01*
X142817477Y-109811402D01*
X142850711Y-109807651D01*
X142881379Y-109801087D01*
X142909481Y-109791711D01*
X142939025Y-109777216D01*
X142946824Y-109772371D01*
X142972164Y-109753157D01*
X142994713Y-109730521D01*
X143014471Y-109704463D01*
X143031438Y-109674983D01*
X143039881Y-109656600D01*
X143050738Y-109627742D01*
X143059349Y-109598101D01*
X143065713Y-109567677D01*
X143069831Y-109536469D01*
X143071703Y-109504479D01*
X143071828Y-109493642D01*
X143070560Y-109458886D01*
X143066758Y-109425841D01*
X143060421Y-109394507D01*
X143051550Y-109364883D01*
X143040143Y-109336969D01*
X143035778Y-109328045D01*
X143018547Y-109298769D01*
X142998399Y-109272747D01*
X142975334Y-109249978D01*
X142949352Y-109230464D01*
X142933196Y-109220773D01*
X142903393Y-109206441D01*
X142872328Y-109195629D01*
X142840000Y-109188337D01*
X142806411Y-109184565D01*
X142786650Y-109183990D01*
X142753648Y-109185634D01*
X142722676Y-109190564D01*
X142693734Y-109198782D01*
X142662533Y-109212523D01*
X142634096Y-109230739D01*
X142608835Y-109253014D01*
X142587165Y-109278936D01*
X142571448Y-109304057D01*
X142558368Y-109331857D01*
X142547927Y-109362337D01*
X142626769Y-109380948D01*
X142636848Y-109353209D01*
X142650601Y-109325800D01*
X142668919Y-109300439D01*
X142687732Y-109282762D01*
X142714739Y-109266533D01*
X142745754Y-109256315D01*
X142777094Y-109252258D01*
X142788262Y-109251988D01*
X142817629Y-109253600D01*
X142848530Y-109259394D01*
X142876591Y-109269400D01*
X142904766Y-109285693D01*
X142928871Y-109306472D01*
X142948594Y-109330892D01*
X142963935Y-109358951D01*
X142970565Y-109376112D01*
X142978835Y-109404697D01*
X142984743Y-109433741D01*
X142988288Y-109463242D01*
X142989469Y-109493202D01*
X142988396Y-109526300D01*
X142985178Y-109557504D01*
X142979813Y-109586815D01*
X142971055Y-109617995D01*
X142967048Y-109629050D01*
X142954216Y-109656170D01*
X142936079Y-109682323D01*
X142914025Y-109703862D01*
X142897145Y-109715658D01*
X142869823Y-109729543D01*
X142841272Y-109738883D01*
X142811492Y-109743680D01*
X142794417Y-109744381D01*
X142762140Y-109741908D01*
X142732428Y-109734489D01*
X142705280Y-109722125D01*
X142680697Y-109704814D01*
X142659283Y-109682631D01*
X142641643Y-109655648D01*
X142629303Y-109628101D01*
X142619852Y-109596880D01*
X142617683Y-109587284D01*
G37*
G36*
X142445931Y-109803000D02*
G01*
X142445931Y-109193369D01*
X142365917Y-109193369D01*
X142365917Y-109732658D01*
X142068429Y-109732658D01*
X142068429Y-109803000D01*
X142445931Y-109803000D01*
G37*
G36*
X141978743Y-109803000D02*
G01*
X141978743Y-109193369D01*
X141898729Y-109193369D01*
X141898729Y-109492176D01*
X141598750Y-109193369D01*
X141490307Y-109193369D01*
X141743831Y-109437661D01*
X141479169Y-109803000D01*
X141584682Y-109803000D01*
X141799811Y-109491297D01*
X141898729Y-109587284D01*
X141898729Y-109803000D01*
X141978743Y-109803000D01*
G37*
G36*
X145163266Y-110201641D02*
G01*
X145196851Y-110205711D01*
X145227673Y-110214665D01*
X145255734Y-110228503D01*
X145281034Y-110247226D01*
X145303572Y-110270832D01*
X145322190Y-110298130D01*
X145337653Y-110330109D01*
X145347751Y-110359061D01*
X145355829Y-110391008D01*
X145361888Y-110425950D01*
X145365927Y-110463887D01*
X145367631Y-110494305D01*
X145368199Y-110526408D01*
X145367285Y-110564297D01*
X145364545Y-110599415D01*
X145359976Y-110631763D01*
X145353581Y-110661340D01*
X145343017Y-110694415D01*
X145329599Y-110723161D01*
X145309727Y-110751942D01*
X145302284Y-110760229D01*
X145278348Y-110781883D01*
X145252001Y-110798725D01*
X145223242Y-110810754D01*
X145192073Y-110817972D01*
X145158492Y-110820378D01*
X145151741Y-110820277D01*
X145119344Y-110816731D01*
X145089208Y-110808118D01*
X145061332Y-110794440D01*
X145053444Y-110789348D01*
X145029493Y-110769473D01*
X145009148Y-110745132D01*
X144993921Y-110719408D01*
X144986829Y-110703874D01*
X144977091Y-110674938D01*
X144971249Y-110644749D01*
X144969438Y-110615508D01*
X145045066Y-110615508D01*
X145045892Y-110635619D01*
X145050653Y-110664969D01*
X145061066Y-110693828D01*
X145078918Y-110720727D01*
X145101349Y-110741129D01*
X145128966Y-110754844D01*
X145159665Y-110759415D01*
X145163683Y-110759343D01*
X145193092Y-110754163D01*
X145221214Y-110740804D01*
X145230012Y-110734527D01*
X145251298Y-110712536D01*
X145266643Y-110686289D01*
X145272171Y-110672762D01*
X145280225Y-110642639D01*
X145282909Y-110611404D01*
X145282602Y-110600396D01*
X145277984Y-110569797D01*
X145266355Y-110540067D01*
X145247885Y-110514831D01*
X145245681Y-110512568D01*
X145222005Y-110493889D01*
X145192523Y-110481640D01*
X145162595Y-110478048D01*
X145159443Y-110478084D01*
X145129779Y-110482394D01*
X145101050Y-110495433D01*
X145078478Y-110514831D01*
X145068853Y-110526987D01*
X145054496Y-110555272D01*
X145047154Y-110585255D01*
X145045066Y-110615508D01*
X144969438Y-110615508D01*
X144969302Y-110613309D01*
X144970575Y-110586982D01*
X144975466Y-110557458D01*
X144985809Y-110525864D01*
X145001144Y-110497343D01*
X145021472Y-110471893D01*
X145034826Y-110459047D01*
X145059870Y-110440689D01*
X145087047Y-110427575D01*
X145116355Y-110419707D01*
X145147794Y-110417085D01*
X145168750Y-110418257D01*
X145199360Y-110424412D01*
X145228981Y-110435842D01*
X145252002Y-110449421D01*
X145274647Y-110468853D01*
X145294487Y-110492995D01*
X145294302Y-110481982D01*
X145292847Y-110450873D01*
X145289444Y-110418238D01*
X145283305Y-110385766D01*
X145273531Y-110355389D01*
X145259446Y-110327425D01*
X145240613Y-110301888D01*
X145218283Y-110281823D01*
X145213178Y-110278340D01*
X145185377Y-110266063D01*
X145156001Y-110262332D01*
X145134825Y-110264384D01*
X145106359Y-110275155D01*
X145081849Y-110295159D01*
X145075323Y-110303718D01*
X145062340Y-110330421D01*
X145053712Y-110360811D01*
X144980000Y-110354949D01*
X144980603Y-110350483D01*
X144986823Y-110320923D01*
X144998208Y-110290799D01*
X145014154Y-110264576D01*
X145034661Y-110242256D01*
X145037526Y-110239740D01*
X145062267Y-110222491D01*
X145090250Y-110210353D01*
X145121476Y-110203326D01*
X145151458Y-110201369D01*
X145163266Y-110201641D01*
G37*
G36*
X144401877Y-110811000D02*
G01*
X144401877Y-110201369D01*
X144319958Y-110201369D01*
X144002540Y-110679988D01*
X144002540Y-110201369D01*
X143925896Y-110201369D01*
X143925896Y-110811000D01*
X144007815Y-110811000D01*
X144325233Y-110331942D01*
X144325233Y-110811000D01*
X144401877Y-110811000D01*
G37*
G36*
X143363893Y-110595284D02*
G01*
X143283879Y-110615508D01*
X143292737Y-110645581D01*
X143303554Y-110673336D01*
X143319124Y-110703581D01*
X143337516Y-110730489D01*
X143358732Y-110754057D01*
X143374445Y-110767915D01*
X143399925Y-110785744D01*
X143427455Y-110799885D01*
X143457036Y-110810337D01*
X143488668Y-110817099D01*
X143522350Y-110820173D01*
X143534033Y-110820378D01*
X143563688Y-110819402D01*
X143596922Y-110815651D01*
X143627590Y-110809087D01*
X143655692Y-110799711D01*
X143685236Y-110785216D01*
X143693035Y-110780371D01*
X143718375Y-110761157D01*
X143740924Y-110738521D01*
X143760682Y-110712463D01*
X143777649Y-110682983D01*
X143786092Y-110664600D01*
X143796949Y-110635742D01*
X143805559Y-110606101D01*
X143811924Y-110575677D01*
X143816042Y-110544469D01*
X143817914Y-110512479D01*
X143818039Y-110501642D01*
X143816771Y-110466886D01*
X143812969Y-110433841D01*
X143806632Y-110402507D01*
X143797760Y-110372883D01*
X143786354Y-110344969D01*
X143781988Y-110336045D01*
X143764758Y-110306769D01*
X143744610Y-110280747D01*
X143721545Y-110257978D01*
X143695563Y-110238464D01*
X143679406Y-110228773D01*
X143649603Y-110214441D01*
X143618538Y-110203629D01*
X143586211Y-110196337D01*
X143552621Y-110192565D01*
X143532861Y-110191990D01*
X143499859Y-110193634D01*
X143468887Y-110198564D01*
X143439944Y-110206782D01*
X143408744Y-110220523D01*
X143380307Y-110238739D01*
X143355046Y-110261014D01*
X143333375Y-110286936D01*
X143317658Y-110312057D01*
X143304579Y-110339857D01*
X143294138Y-110370337D01*
X143372979Y-110388948D01*
X143383059Y-110361209D01*
X143396812Y-110333800D01*
X143415129Y-110308439D01*
X143433942Y-110290762D01*
X143460950Y-110274533D01*
X143491965Y-110264315D01*
X143523305Y-110260258D01*
X143534473Y-110259988D01*
X143563840Y-110261600D01*
X143594740Y-110267394D01*
X143622801Y-110277400D01*
X143650976Y-110293693D01*
X143675081Y-110314472D01*
X143694805Y-110338892D01*
X143710146Y-110366951D01*
X143716775Y-110384112D01*
X143725046Y-110412697D01*
X143730954Y-110441741D01*
X143734498Y-110471242D01*
X143735680Y-110501202D01*
X143734607Y-110534300D01*
X143731388Y-110565504D01*
X143726024Y-110594815D01*
X143717265Y-110625995D01*
X143713258Y-110637050D01*
X143700426Y-110664170D01*
X143682290Y-110690323D01*
X143660236Y-110711862D01*
X143643356Y-110723658D01*
X143616034Y-110737543D01*
X143587483Y-110746883D01*
X143557703Y-110751680D01*
X143540628Y-110752381D01*
X143508351Y-110749908D01*
X143478639Y-110742489D01*
X143451491Y-110730125D01*
X143426908Y-110712814D01*
X143405494Y-110690631D01*
X143387854Y-110663648D01*
X143375514Y-110636101D01*
X143366063Y-110604880D01*
X143363893Y-110595284D01*
G37*
G36*
X145359993Y-111289090D02*
G01*
X145359993Y-111218748D01*
X144968862Y-111218748D01*
X144968862Y-111276487D01*
X144990478Y-111301110D01*
X145012022Y-111328598D01*
X145029920Y-111353693D01*
X145047768Y-111380776D01*
X145065566Y-111409849D01*
X145083314Y-111440912D01*
X145100365Y-111473069D01*
X145116164Y-111505520D01*
X145130710Y-111538265D01*
X145144005Y-111571303D01*
X145156047Y-111604634D01*
X145166837Y-111638259D01*
X145170802Y-111651791D01*
X145178588Y-111680932D01*
X145185241Y-111711094D01*
X145190761Y-111742275D01*
X145195147Y-111774477D01*
X145198400Y-111807699D01*
X145199232Y-111819000D01*
X145275582Y-111819000D01*
X145273792Y-111786089D01*
X145270326Y-111755603D01*
X145265078Y-111723015D01*
X145259343Y-111694252D01*
X145252370Y-111664030D01*
X145247592Y-111645196D01*
X145238643Y-111613505D01*
X145228555Y-111582179D01*
X145217330Y-111551217D01*
X145204968Y-111520621D01*
X145191467Y-111490389D01*
X145176829Y-111460523D01*
X145170655Y-111448678D01*
X145154840Y-111419821D01*
X145138716Y-111392416D01*
X145122285Y-111366463D01*
X145105546Y-111341963D01*
X145085053Y-111314481D01*
X145064117Y-111289090D01*
X145359993Y-111289090D01*
G37*
G36*
X144428255Y-111619404D02*
G01*
X144352930Y-111612663D01*
X144347540Y-111643197D01*
X144337868Y-111671924D01*
X144328018Y-111690332D01*
X144308507Y-111713069D01*
X144284186Y-111730665D01*
X144267201Y-111739425D01*
X144237595Y-111750021D01*
X144208606Y-111755837D01*
X144177643Y-111758018D01*
X144174438Y-111758036D01*
X144144268Y-111756426D01*
X144114239Y-111750996D01*
X144093691Y-111744408D01*
X144066395Y-111730419D01*
X144043717Y-111709692D01*
X144041521Y-111706745D01*
X144028142Y-111680010D01*
X144024375Y-111654429D01*
X144029615Y-111624552D01*
X144040935Y-111604457D01*
X144062733Y-111584673D01*
X144090643Y-111570247D01*
X144095303Y-111568406D01*
X144124791Y-111558926D01*
X144156597Y-111550322D01*
X144187778Y-111542476D01*
X144202868Y-111538804D01*
X144232330Y-111531303D01*
X144262275Y-111522760D01*
X144290659Y-111513271D01*
X144319518Y-111500702D01*
X144346642Y-111483603D01*
X144368571Y-111463941D01*
X144383998Y-111443842D01*
X144396947Y-111417299D01*
X144403919Y-111388448D01*
X144405247Y-111367932D01*
X144402182Y-111336923D01*
X144392987Y-111307368D01*
X144379309Y-111281763D01*
X144360687Y-111258556D01*
X144337429Y-111239127D01*
X144309533Y-111223477D01*
X144303398Y-111220800D01*
X144274479Y-111210741D01*
X144243774Y-111203973D01*
X144211284Y-111200498D01*
X144192463Y-111199990D01*
X144159893Y-111201355D01*
X144129302Y-111205449D01*
X144100689Y-111212273D01*
X144074054Y-111221826D01*
X144047081Y-111235660D01*
X144021515Y-111254866D01*
X144000587Y-111278107D01*
X143995212Y-111285866D01*
X143980406Y-111313424D01*
X143970609Y-111343156D01*
X143965820Y-111375064D01*
X143965464Y-111381707D01*
X144042107Y-111387569D01*
X144047911Y-111357175D01*
X144059852Y-111328678D01*
X144079665Y-111303746D01*
X144084019Y-111299935D01*
X144109596Y-111284324D01*
X144138292Y-111275218D01*
X144168316Y-111271055D01*
X144189239Y-111270332D01*
X144219096Y-111271616D01*
X144248616Y-111276225D01*
X144278612Y-111286701D01*
X144295045Y-111297150D01*
X144315227Y-111318720D01*
X144327000Y-111347844D01*
X144328164Y-111361630D01*
X144322266Y-111391526D01*
X144304570Y-111415559D01*
X144276846Y-111431551D01*
X144246731Y-111442395D01*
X144218037Y-111450625D01*
X144184110Y-111458937D01*
X144155148Y-111465719D01*
X144124332Y-111473509D01*
X144093811Y-111482116D01*
X144063163Y-111492418D01*
X144050314Y-111497771D01*
X144022829Y-111512569D01*
X143997430Y-111531431D01*
X143975738Y-111555122D01*
X143972498Y-111559760D01*
X143958147Y-111586903D01*
X143949753Y-111616747D01*
X143947292Y-111646222D01*
X143949997Y-111675995D01*
X143958111Y-111704680D01*
X143971635Y-111732278D01*
X143974989Y-111737667D01*
X143994569Y-111762642D01*
X144018873Y-111783897D01*
X144044783Y-111799845D01*
X144054270Y-111804491D01*
X144084389Y-111816038D01*
X144112874Y-111823130D01*
X144142970Y-111827235D01*
X144170628Y-111828378D01*
X144200470Y-111827518D01*
X144232928Y-111824339D01*
X144262848Y-111818819D01*
X144293934Y-111809641D01*
X144308234Y-111803905D01*
X144334438Y-111790139D01*
X144360349Y-111770996D01*
X144382481Y-111747980D01*
X144395136Y-111730486D01*
X144410494Y-111701851D01*
X144421122Y-111671176D01*
X144426599Y-111642197D01*
X144428255Y-111619404D01*
G37*
G36*
X143735826Y-111819000D02*
G01*
X143896147Y-111209369D01*
X143814082Y-111209369D01*
X143722198Y-111609586D01*
X143715044Y-111640965D01*
X143708386Y-111672234D01*
X143702222Y-111703393D01*
X143696552Y-111734443D01*
X143689824Y-111705876D01*
X143682968Y-111676943D01*
X143675895Y-111647437D01*
X143669441Y-111621602D01*
X143554403Y-111209369D01*
X143457976Y-111209369D01*
X143371367Y-111518288D01*
X143363518Y-111546830D01*
X143354505Y-111581896D01*
X143346379Y-111616282D01*
X143339140Y-111649988D01*
X143332789Y-111683014D01*
X143327325Y-111715361D01*
X143324473Y-111734443D01*
X143318244Y-111704437D01*
X143311137Y-111672307D01*
X143304197Y-111642450D01*
X143296583Y-111610966D01*
X143294284Y-111601672D01*
X143199616Y-111209369D01*
X143119162Y-111209369D01*
X143284905Y-111819000D01*
X143361988Y-111819000D01*
X143489337Y-111354010D01*
X143497290Y-111324761D01*
X143505135Y-111295077D01*
X143508241Y-111282349D01*
X143515200Y-111312141D01*
X143522849Y-111342471D01*
X143525973Y-111354010D01*
X143654200Y-111819000D01*
X143735826Y-111819000D01*
G37*
G36*
X143048820Y-111819000D02*
G01*
X142830760Y-111819000D01*
X142823958Y-111818959D01*
X142794569Y-111817770D01*
X142764252Y-111814519D01*
X142733747Y-111808595D01*
X142715814Y-111803580D01*
X142687846Y-111792829D01*
X142661500Y-111778113D01*
X142648652Y-111768550D01*
X142626020Y-111746995D01*
X142606545Y-111722719D01*
X142603431Y-111718250D01*
X142587589Y-111691095D01*
X142575081Y-111662622D01*
X142565366Y-111633912D01*
X142557573Y-111602490D01*
X142552788Y-111572458D01*
X142550017Y-111540446D01*
X142549246Y-111510814D01*
X142549268Y-111509642D01*
X142631605Y-111509642D01*
X142632166Y-111534964D01*
X142634662Y-111566466D01*
X142639856Y-111598820D01*
X142647578Y-111627904D01*
X142657478Y-111653777D01*
X142672285Y-111681118D01*
X142691835Y-111705573D01*
X142694417Y-111708102D01*
X142718945Y-111725733D01*
X142746057Y-111737374D01*
X142748207Y-111738068D01*
X142777937Y-111744680D01*
X142808254Y-111747765D01*
X142839846Y-111748658D01*
X142968806Y-111748658D01*
X142968806Y-111279711D01*
X142841898Y-111279711D01*
X142828861Y-111279822D01*
X142797473Y-111281201D01*
X142768029Y-111284634D01*
X142738436Y-111292314D01*
X142727510Y-111297244D01*
X142702036Y-111314237D01*
X142681361Y-111335233D01*
X142662819Y-111361630D01*
X142652211Y-111382551D01*
X142642609Y-111410943D01*
X142635994Y-111443627D01*
X142632702Y-111475058D01*
X142631605Y-111509642D01*
X142549268Y-111509642D01*
X142549617Y-111490728D01*
X142552051Y-111456944D01*
X142556757Y-111424899D01*
X142563736Y-111394593D01*
X142572986Y-111366027D01*
X142586304Y-111335719D01*
X142602662Y-111308251D01*
X142622061Y-111283622D01*
X142644501Y-111261833D01*
X142649140Y-111257953D01*
X142674121Y-111240854D01*
X142702079Y-111227590D01*
X142733014Y-111218162D01*
X142745416Y-111215629D01*
X142775115Y-111211851D01*
X142807423Y-111209919D01*
X142840579Y-111209369D01*
X143048820Y-111209369D01*
X143048820Y-111819000D01*
G37*
G36*
X142429078Y-111819000D02*
G01*
X142429078Y-111209369D01*
X142349064Y-111209369D01*
X142349064Y-111819000D01*
X142429078Y-111819000D01*
G37*
G36*
X141967853Y-111200743D02*
G01*
X141997968Y-111204086D01*
X142033551Y-111212025D01*
X142066845Y-111224144D01*
X142097848Y-111240442D01*
X142126562Y-111260918D01*
X142152986Y-111285573D01*
X142171911Y-111307960D01*
X142188313Y-111332404D01*
X142202191Y-111358903D01*
X142213546Y-111387459D01*
X142222378Y-111418071D01*
X142228686Y-111450739D01*
X142232471Y-111485464D01*
X142233733Y-111522244D01*
X142232517Y-111551956D01*
X142228869Y-111581080D01*
X142221540Y-111614316D01*
X142210902Y-111646753D01*
X142199148Y-111673919D01*
X142189959Y-111691363D01*
X142171443Y-111719619D01*
X142149828Y-111744986D01*
X142125113Y-111767464D01*
X142097299Y-111787053D01*
X142088820Y-111792057D01*
X142062540Y-111805133D01*
X142034992Y-111815303D01*
X142006177Y-111822567D01*
X141976095Y-111826926D01*
X141944745Y-111828378D01*
X141925238Y-111827792D01*
X141891906Y-111823945D01*
X141859598Y-111816508D01*
X141828313Y-111805481D01*
X141798053Y-111790863D01*
X141777558Y-111778277D01*
X141751403Y-111757759D01*
X141728207Y-111733862D01*
X141707970Y-111706585D01*
X141692979Y-111680514D01*
X141688472Y-111671316D01*
X141676694Y-111642815D01*
X141667534Y-111612954D01*
X141660991Y-111581733D01*
X141657065Y-111549152D01*
X141655757Y-111515210D01*
X141655764Y-111514624D01*
X141738262Y-111514624D01*
X141739686Y-111550088D01*
X141743958Y-111582934D01*
X141751077Y-111613160D01*
X141761045Y-111640768D01*
X141776766Y-111670440D01*
X141796587Y-111696341D01*
X141804003Y-111704096D01*
X141827746Y-111724358D01*
X141853736Y-111740118D01*
X141881973Y-111751376D01*
X141912456Y-111758130D01*
X141945184Y-111760381D01*
X141956132Y-111760133D01*
X141987582Y-111756415D01*
X142016940Y-111748236D01*
X142044206Y-111735594D01*
X142069380Y-111718491D01*
X142092463Y-111696927D01*
X142109392Y-111675956D01*
X142125920Y-111647778D01*
X142138315Y-111616313D01*
X142145489Y-111587582D01*
X142149793Y-111556567D01*
X142151228Y-111523270D01*
X142150989Y-111506377D01*
X142149079Y-111474440D01*
X142145260Y-111444966D01*
X142137800Y-111411588D01*
X142127357Y-111382060D01*
X142110886Y-111351708D01*
X142090118Y-111326899D01*
X142082368Y-111319765D01*
X142058006Y-111301125D01*
X142031975Y-111286628D01*
X142004274Y-111276272D01*
X141974905Y-111270059D01*
X141943866Y-111267988D01*
X141925509Y-111268735D01*
X141893893Y-111273850D01*
X141864108Y-111283810D01*
X141836154Y-111298616D01*
X141818943Y-111310927D01*
X141796179Y-111332698D01*
X141777078Y-111358434D01*
X141763175Y-111384638D01*
X141760158Y-111391654D01*
X141750037Y-111421197D01*
X141743030Y-111453103D01*
X141739454Y-111482959D01*
X141738262Y-111514624D01*
X141655764Y-111514624D01*
X141655895Y-111503892D01*
X141657964Y-111470844D01*
X141662517Y-111439155D01*
X141669553Y-111408827D01*
X141679072Y-111379859D01*
X141691074Y-111352251D01*
X141700368Y-111334760D01*
X141719047Y-111306541D01*
X141740796Y-111281365D01*
X141765617Y-111259233D01*
X141793510Y-111240144D01*
X141823666Y-111224498D01*
X141855407Y-111212695D01*
X141883876Y-111205637D01*
X141913508Y-111201402D01*
X141944305Y-111199990D01*
X141967853Y-111200743D01*
G37*
G36*
X145177733Y-112217547D02*
G01*
X145209815Y-112220963D01*
X145238909Y-112228727D01*
X145268502Y-112242923D01*
X145294193Y-112262799D01*
X145314902Y-112286777D01*
X145329694Y-112313430D01*
X145338569Y-112342758D01*
X145341528Y-112374759D01*
X145340462Y-112393462D01*
X145333675Y-112422749D01*
X145319253Y-112450524D01*
X145304834Y-112467170D01*
X145279730Y-112485758D01*
X145250816Y-112499177D01*
X145260952Y-112502092D01*
X145288687Y-112513513D01*
X145314799Y-112530907D01*
X145335959Y-112553252D01*
X145342966Y-112563478D01*
X145356395Y-112591648D01*
X145363490Y-112620183D01*
X145365854Y-112651731D01*
X145364998Y-112671070D01*
X145359378Y-112702953D01*
X145348513Y-112732339D01*
X145332402Y-112759229D01*
X145311046Y-112783622D01*
X145289228Y-112801551D01*
X145260712Y-112817780D01*
X145228901Y-112828960D01*
X145199010Y-112834524D01*
X145166699Y-112836378D01*
X145139608Y-112835094D01*
X145109328Y-112830162D01*
X145077075Y-112819732D01*
X145048131Y-112804268D01*
X145022498Y-112783769D01*
X145009652Y-112770229D01*
X144991294Y-112744673D01*
X144978180Y-112716746D01*
X144970312Y-112686449D01*
X144967761Y-112654662D01*
X145043454Y-112654662D01*
X145043488Y-112657932D01*
X145047558Y-112688649D01*
X145059870Y-112718273D01*
X145078185Y-112741417D01*
X145080365Y-112743509D01*
X145106720Y-112762135D01*
X145134467Y-112772095D01*
X145165819Y-112775415D01*
X145170088Y-112775352D01*
X145200972Y-112770866D01*
X145229860Y-112759295D01*
X145233504Y-112757210D01*
X145257218Y-112738248D01*
X145274556Y-112713427D01*
X145275476Y-112711575D01*
X145285767Y-112683348D01*
X145289504Y-112652317D01*
X145289471Y-112649101D01*
X145285452Y-112618796D01*
X145273296Y-112589361D01*
X145255212Y-112566148D01*
X145250837Y-112561960D01*
X145226849Y-112545073D01*
X145199340Y-112534941D01*
X145168311Y-112531563D01*
X145161694Y-112531700D01*
X145130708Y-112536468D01*
X145103214Y-112548049D01*
X145079211Y-112566441D01*
X145074881Y-112570873D01*
X145057421Y-112595196D01*
X145046946Y-112623126D01*
X145043454Y-112654662D01*
X144967761Y-112654662D01*
X144967690Y-112653782D01*
X144967945Y-112643424D01*
X144971770Y-112614002D01*
X144981404Y-112584221D01*
X144996706Y-112557502D01*
X145004376Y-112547775D01*
X145027200Y-112526503D01*
X145052195Y-112511078D01*
X145081409Y-112499177D01*
X145062827Y-112491052D01*
X145036095Y-112473927D01*
X145014438Y-112450817D01*
X145005815Y-112436506D01*
X144995421Y-112407139D01*
X144992309Y-112376811D01*
X144992378Y-112376078D01*
X145068660Y-112376078D01*
X145069623Y-112390538D01*
X145078321Y-112418899D01*
X145096064Y-112443196D01*
X145108789Y-112453874D01*
X145136329Y-112466747D01*
X145166259Y-112470600D01*
X145184772Y-112469282D01*
X145212854Y-112460888D01*
X145238066Y-112443050D01*
X145248802Y-112430232D01*
X145261743Y-112402372D01*
X145265617Y-112371975D01*
X145264934Y-112360199D01*
X145255749Y-112330082D01*
X145237627Y-112305883D01*
X145224687Y-112295148D01*
X145196972Y-112282207D01*
X145167138Y-112278332D01*
X145151856Y-112279327D01*
X145122102Y-112288303D01*
X145096943Y-112306616D01*
X145085922Y-112319557D01*
X145072637Y-112346939D01*
X145068660Y-112376078D01*
X144992378Y-112376078D01*
X144995332Y-112344745D01*
X145004399Y-112315225D01*
X145019512Y-112288252D01*
X145040669Y-112263824D01*
X145049981Y-112255522D01*
X145077470Y-112237376D01*
X145104693Y-112226261D01*
X145134876Y-112219592D01*
X145168018Y-112217369D01*
X145177733Y-112217547D01*
G37*
G36*
X144399825Y-112827000D02*
G01*
X144319958Y-112827000D01*
X144319958Y-112557355D01*
X144227194Y-112557355D01*
X144212814Y-112557539D01*
X144182644Y-112560286D01*
X144173384Y-112562997D01*
X144146154Y-112576406D01*
X144125794Y-112593629D01*
X144105561Y-112617000D01*
X144099690Y-112624654D01*
X144081562Y-112649837D01*
X144064565Y-112674949D01*
X144047822Y-112700677D01*
X143967955Y-112827000D01*
X143867278Y-112827000D01*
X143972498Y-112661842D01*
X143978384Y-112652915D01*
X143996444Y-112627819D01*
X144017218Y-112602897D01*
X144038736Y-112581096D01*
X144060591Y-112565204D01*
X144086950Y-112550907D01*
X144071054Y-112548342D01*
X144041650Y-112541504D01*
X144011369Y-112530647D01*
X143982069Y-112514445D01*
X143958429Y-112494194D01*
X143942213Y-112473658D01*
X143927215Y-112444369D01*
X143919412Y-112415609D01*
X143916907Y-112385457D01*
X143999169Y-112385457D01*
X144002711Y-112412518D01*
X144015289Y-112440852D01*
X144035109Y-112462760D01*
X144062330Y-112477781D01*
X144086411Y-112484372D01*
X144116137Y-112488228D01*
X144148060Y-112489358D01*
X144319958Y-112489358D01*
X144319958Y-112285367D01*
X144128715Y-112285367D01*
X144116422Y-112285615D01*
X144086748Y-112288709D01*
X144056020Y-112297547D01*
X144030383Y-112313650D01*
X144016727Y-112328689D01*
X144003559Y-112354889D01*
X143999169Y-112385457D01*
X143916907Y-112385457D01*
X143916810Y-112384285D01*
X143916909Y-112378017D01*
X143920355Y-112347692D01*
X143928724Y-112319055D01*
X143942016Y-112292108D01*
X143959338Y-112268480D01*
X143982228Y-112248209D01*
X144009134Y-112233929D01*
X144039199Y-112225196D01*
X144068691Y-112220539D01*
X144098464Y-112218162D01*
X144131939Y-112217369D01*
X144399825Y-112217369D01*
X144399825Y-112827000D01*
G37*
G36*
X143822142Y-112627404D02*
G01*
X143746817Y-112620663D01*
X143741427Y-112651197D01*
X143731755Y-112679924D01*
X143721905Y-112698332D01*
X143702394Y-112721069D01*
X143678073Y-112738665D01*
X143661088Y-112747425D01*
X143631482Y-112758021D01*
X143602493Y-112763837D01*
X143571530Y-112766018D01*
X143568325Y-112766036D01*
X143538155Y-112764426D01*
X143508125Y-112758996D01*
X143487578Y-112752408D01*
X143460282Y-112738419D01*
X143437604Y-112717692D01*
X143435408Y-112714745D01*
X143422029Y-112688010D01*
X143418262Y-112662429D01*
X143423501Y-112632552D01*
X143434822Y-112612457D01*
X143456620Y-112592673D01*
X143484530Y-112578247D01*
X143489190Y-112576406D01*
X143518678Y-112566926D01*
X143550484Y-112558322D01*
X143581665Y-112550476D01*
X143596755Y-112546804D01*
X143626217Y-112539303D01*
X143656162Y-112530760D01*
X143684546Y-112521271D01*
X143713405Y-112508702D01*
X143740529Y-112491603D01*
X143762458Y-112471941D01*
X143777885Y-112451842D01*
X143790834Y-112425299D01*
X143797806Y-112396448D01*
X143799134Y-112375932D01*
X143796069Y-112344923D01*
X143786874Y-112315368D01*
X143773196Y-112289763D01*
X143754574Y-112266556D01*
X143731316Y-112247127D01*
X143703420Y-112231477D01*
X143697285Y-112228800D01*
X143668365Y-112218741D01*
X143637661Y-112211973D01*
X143605171Y-112208498D01*
X143586350Y-112207990D01*
X143553780Y-112209355D01*
X143523189Y-112213449D01*
X143494576Y-112220273D01*
X143467941Y-112229826D01*
X143440968Y-112243660D01*
X143415402Y-112262866D01*
X143394474Y-112286107D01*
X143389099Y-112293866D01*
X143374293Y-112321424D01*
X143364496Y-112351156D01*
X143359707Y-112383064D01*
X143359351Y-112389707D01*
X143435994Y-112395569D01*
X143441798Y-112365175D01*
X143453739Y-112336678D01*
X143473552Y-112311746D01*
X143477906Y-112307935D01*
X143503483Y-112292324D01*
X143532179Y-112283218D01*
X143562203Y-112279055D01*
X143583126Y-112278332D01*
X143612983Y-112279616D01*
X143642503Y-112284225D01*
X143672499Y-112294701D01*
X143688932Y-112305150D01*
X143709114Y-112326720D01*
X143720887Y-112355844D01*
X143722051Y-112369630D01*
X143716153Y-112399526D01*
X143698457Y-112423559D01*
X143670733Y-112439551D01*
X143640618Y-112450395D01*
X143611924Y-112458625D01*
X143577997Y-112466937D01*
X143549035Y-112473719D01*
X143518219Y-112481509D01*
X143487698Y-112490116D01*
X143457050Y-112500418D01*
X143444200Y-112505771D01*
X143416716Y-112520569D01*
X143391317Y-112539431D01*
X143369625Y-112563122D01*
X143366385Y-112567760D01*
X143352034Y-112594903D01*
X143343640Y-112624747D01*
X143341179Y-112654222D01*
X143343884Y-112683995D01*
X143351998Y-112712680D01*
X143365522Y-112740278D01*
X143368876Y-112745667D01*
X143388456Y-112770642D01*
X143412760Y-112791897D01*
X143438670Y-112807845D01*
X143448157Y-112812491D01*
X143478276Y-112824038D01*
X143506761Y-112831130D01*
X143536857Y-112835235D01*
X143564515Y-112836378D01*
X143594357Y-112835518D01*
X143626815Y-112832339D01*
X143656735Y-112826819D01*
X143687821Y-112817641D01*
X143702121Y-112811905D01*
X143728325Y-112798139D01*
X143754236Y-112778996D01*
X143776368Y-112755980D01*
X143789023Y-112738486D01*
X143804381Y-112709851D01*
X143815009Y-112679176D01*
X143820486Y-112650197D01*
X143822142Y-112627404D01*
G37*
G36*
X143081500Y-112827000D02*
G01*
X143081500Y-112287711D01*
X143280509Y-112287711D01*
X143280509Y-112217369D01*
X142801598Y-112217369D01*
X142801598Y-112287711D01*
X143001486Y-112287711D01*
X143001486Y-112827000D01*
X143081500Y-112827000D01*
G37*
D12*
%TO.C,L301*%
X145340000Y-82860000D02*
X145340000Y-80340000D01*
X147460000Y-82860000D02*
X147460000Y-80340000D01*
%TO.C,R302*%
X145420000Y-87853641D02*
X145420000Y-87546359D01*
X146180000Y-87853641D02*
X146180000Y-87546359D01*
%TO.C,C206*%
X161692164Y-88540000D02*
X161907836Y-88540000D01*
X161692164Y-89260000D02*
X161907836Y-89260000D01*
%TO.C,C305*%
X145807836Y-83240000D02*
X145592164Y-83240000D01*
X145807836Y-83960000D02*
X145592164Y-83960000D01*
%TO.C,R303*%
X142570000Y-87863641D02*
X142570000Y-87556359D01*
X143330000Y-87863641D02*
X143330000Y-87556359D01*
%TO.C,R1403*%
X152253641Y-110720000D02*
X151946359Y-110720000D01*
X152253641Y-111480000D02*
X151946359Y-111480000D01*
%TO.C,R1404*%
X153220000Y-111753641D02*
X153220000Y-111446359D01*
X153980000Y-111753641D02*
X153980000Y-111446359D01*
%TO.C,R206*%
X156553641Y-88920000D02*
X156246359Y-88920000D01*
X156553641Y-89680000D02*
X156246359Y-89680000D01*
%TO.C,C403*%
X146440000Y-106307836D02*
X146440000Y-106092164D01*
X147160000Y-106307836D02*
X147160000Y-106092164D01*
%TO.C,C1003*%
X152392164Y-85540000D02*
X152607836Y-85540000D01*
X152392164Y-86260000D02*
X152607836Y-86260000D01*
%TO.C,C1304*%
X156239874Y-111022164D02*
X156239874Y-111237836D01*
X156959874Y-111022164D02*
X156959874Y-111237836D01*
%TO.C,R1402*%
X151853641Y-105620000D02*
X151546359Y-105620000D01*
X151853641Y-106380000D02*
X151546359Y-106380000D01*
%TO.C,C1401*%
X151992164Y-111740000D02*
X152207836Y-111740000D01*
X151992164Y-112460000D02*
X152207836Y-112460000D01*
D10*
%TO.C,IC1102*%
X148400000Y-103800000D02*
X148400000Y-103800000D01*
X148500000Y-103800000D02*
X148500000Y-103800000D01*
X148400000Y-103800000D02*
G75*
G02*
X148500000Y-103800000I50000J0D01*
G01*
X148500000Y-103800000D02*
G75*
G02*
X148400000Y-103800000I-50000J0D01*
G01*
D12*
%TO.C,C1005*%
X147540000Y-83407836D02*
X147540000Y-83192164D01*
X148260000Y-83407836D02*
X148260000Y-83192164D01*
%TO.C,C203*%
X158440000Y-83807836D02*
X158440000Y-83592164D01*
X159160000Y-83807836D02*
X159160000Y-83592164D01*
%TO.C,R806*%
X156246359Y-86920000D02*
X156553641Y-86920000D01*
X156246359Y-87680000D02*
X156553641Y-87680000D01*
%TO.C,R805*%
X147420000Y-106353641D02*
X147420000Y-106046359D01*
X148180000Y-106353641D02*
X148180000Y-106046359D01*
D13*
%TO.C,U1301*%
X157074900Y-108477600D02*
X157074900Y-108816714D01*
X157074900Y-110983286D02*
X157074900Y-111322400D01*
X157074900Y-111322400D02*
X157899809Y-111322400D01*
X157899809Y-108477600D02*
X157074900Y-108477600D01*
X159602791Y-111322400D02*
X160427700Y-111322400D01*
X160427700Y-108477600D02*
X159602791Y-108477600D01*
X160427700Y-108816714D02*
X160427700Y-108477600D01*
X160427700Y-111322400D02*
X160427700Y-110983286D01*
D14*
X161076300Y-109100000D02*
G75*
G02*
X160826300Y-109100000I-125000J0D01*
G01*
X160826300Y-109100000D02*
G75*
G02*
X161076300Y-109100000I125000J0D01*
G01*
D12*
%TO.C,C208*%
X159692164Y-88540000D02*
X159907836Y-88540000D01*
X159692164Y-89260000D02*
X159907836Y-89260000D01*
%TO.C,R1401*%
X152046359Y-106620000D02*
X152353641Y-106620000D01*
X152046359Y-107380000D02*
X152353641Y-107380000D01*
%TO.C,R808*%
X156246359Y-85920000D02*
X156553641Y-85920000D01*
X156246359Y-86680000D02*
X156553641Y-86680000D01*
%TO.C,R401*%
X138120000Y-106153641D02*
X138120000Y-105846359D01*
X138880000Y-106153641D02*
X138880000Y-105846359D01*
%TO.C,C1102*%
X149440000Y-106082164D02*
X149440000Y-106297836D01*
X150160000Y-106082164D02*
X150160000Y-106297836D01*
%TO.C,C913*%
X147692164Y-95640000D02*
X147907836Y-95640000D01*
X147692164Y-96360000D02*
X147907836Y-96360000D01*
%TO.C,C917*%
X148892164Y-91040000D02*
X149107836Y-91040000D01*
X148892164Y-91760000D02*
X149107836Y-91760000D01*
%TO.C,C1302*%
X158859136Y-111540000D02*
X158643464Y-111540000D01*
X158859136Y-112260000D02*
X158643464Y-112260000D01*
%TO.C,C302*%
X143740000Y-80007836D02*
X143740000Y-79792164D01*
X144460000Y-80007836D02*
X144460000Y-79792164D01*
%TO.C,C1002*%
X152107836Y-80440000D02*
X151892164Y-80440000D01*
X152107836Y-81160000D02*
X151892164Y-81160000D01*
%TO.C,R807*%
X148420000Y-106353641D02*
X148420000Y-106046359D01*
X149180000Y-106353641D02*
X149180000Y-106046359D01*
%TO.C,R101*%
X148853641Y-107920000D02*
X148546359Y-107920000D01*
X148853641Y-108680000D02*
X148546359Y-108680000D01*
%TO.C,C1402*%
X152207836Y-112740000D02*
X151992164Y-112740000D01*
X152207836Y-113460000D02*
X151992164Y-113460000D01*
%TO.C,R304*%
X143520000Y-87863641D02*
X143520000Y-87556359D01*
X144280000Y-87863641D02*
X144280000Y-87556359D01*
%TO.C,R301*%
X144470000Y-87863641D02*
X144470000Y-87556359D01*
X145230000Y-87863641D02*
X145230000Y-87556359D01*
%TO.C,R803*%
X155753641Y-84920000D02*
X155446359Y-84920000D01*
X155753641Y-85680000D02*
X155446359Y-85680000D01*
%TO.C,C201*%
X159440000Y-83807836D02*
X159440000Y-83592164D01*
X160160000Y-83807836D02*
X160160000Y-83592164D01*
D15*
%TO.C,J1101*%
X153650000Y-101940285D02*
X153650000Y-101518285D01*
X164950000Y-101518285D02*
X153650000Y-101518285D01*
X164950000Y-102613285D02*
X164950000Y-101518285D01*
X162940570Y-99818285D02*
G75*
G02*
X162827430Y-99818285I-56570J0D01*
G01*
X162827430Y-99818285D02*
G75*
G02*
X162940570Y-99818285I56570J0D01*
G01*
D12*
%TO.C,C204*%
X160692164Y-85540000D02*
X160907836Y-85540000D01*
X160692164Y-86260000D02*
X160907836Y-86260000D01*
%TO.C,R801*%
X155446359Y-83920000D02*
X155753641Y-83920000D01*
X155446359Y-84680000D02*
X155753641Y-84680000D01*
%TO.C,R205*%
X156553641Y-89920000D02*
X156246359Y-89920000D01*
X156553641Y-90680000D02*
X156246359Y-90680000D01*
%TO.C,R204*%
X156553641Y-87920000D02*
X156246359Y-87920000D01*
X156553641Y-88680000D02*
X156246359Y-88680000D01*
%TO.C,R305*%
X141620000Y-87853641D02*
X141620000Y-87546359D01*
X142380000Y-87853641D02*
X142380000Y-87546359D01*
%TO.C,C1004*%
X152107836Y-81439293D02*
X151892164Y-81439293D01*
X152107836Y-82159293D02*
X151892164Y-82159293D01*
%TD*%
%LPC*%
%TO.C,MIC1201*%
D16*
X165752400Y-90343600D02*
G75*
G02*
X165447600Y-90343600I-152400J0D01*
G01*
X165447600Y-90343600D02*
G75*
G02*
X165752400Y-90343600I152400J0D01*
G01*
%TD*%
D17*
%TO.C,L301*%
X146400000Y-82325000D03*
X146400000Y-80875000D03*
%TD*%
D18*
%TO.C,R302*%
X145800000Y-87190000D03*
X145800000Y-88210000D03*
%TD*%
D19*
%TO.C,C909*%
X150600000Y-97120000D03*
X150600000Y-96480000D03*
%TD*%
D20*
%TO.C,C206*%
X161320000Y-88900000D03*
X162280000Y-88900000D03*
%TD*%
%TO.C,C305*%
X145220000Y-83600000D03*
X146180000Y-83600000D03*
%TD*%
D18*
%TO.C,R303*%
X142950000Y-87200000D03*
X142950000Y-88220000D03*
%TD*%
D21*
%TO.C,R1403*%
X151590000Y-111100000D03*
X152610000Y-111100000D03*
%TD*%
D18*
%TO.C,R1404*%
X153600000Y-111090000D03*
X153600000Y-112110000D03*
%TD*%
D21*
%TO.C,R206*%
X155890000Y-89300000D03*
X156910000Y-89300000D03*
%TD*%
D22*
%TO.C,C403*%
X146800000Y-106680000D03*
X146800000Y-105720000D03*
%TD*%
D20*
%TO.C,C1003*%
X152020000Y-85900000D03*
X152980000Y-85900000D03*
%TD*%
D19*
%TO.C,C912*%
X149800000Y-97120000D03*
X149800000Y-96480000D03*
%TD*%
D23*
%TO.C,C1304*%
X156599874Y-110650000D03*
X156599874Y-111610000D03*
%TD*%
D21*
%TO.C,R1402*%
X151190000Y-106000000D03*
X152210000Y-106000000D03*
%TD*%
D24*
%TO.C,C1401*%
X152580000Y-112100000D03*
X151620000Y-112100000D03*
%TD*%
D25*
%TO.C,IC1102*%
X149300000Y-103800000D03*
D26*
X149275000Y-103400000D03*
X149275000Y-103000000D03*
X149275000Y-102600000D03*
D27*
X149300000Y-102025000D03*
X149700000Y-102025000D03*
X150100000Y-102025000D03*
X150500000Y-102025000D03*
D26*
X150525000Y-102600000D03*
X150525000Y-103000000D03*
X150525000Y-103400000D03*
X150525000Y-103800000D03*
D27*
X150500000Y-104375000D03*
X150100000Y-104375000D03*
X149700000Y-104375000D03*
X149300000Y-104375000D03*
%TD*%
D19*
%TO.C,C908*%
X149800000Y-93120000D03*
X149800000Y-92480000D03*
%TD*%
D22*
%TO.C,C1005*%
X147900000Y-83780000D03*
X147900000Y-82820000D03*
%TD*%
D28*
%TO.C,C903*%
X151480000Y-98000000D03*
X152120000Y-98000000D03*
%TD*%
%TO.C,C910*%
X151480000Y-98800000D03*
X152120000Y-98800000D03*
%TD*%
D22*
%TO.C,C203*%
X158800000Y-84180000D03*
X158800000Y-83220000D03*
%TD*%
D21*
%TO.C,R806*%
X155890000Y-87300000D03*
X156910000Y-87300000D03*
%TD*%
D29*
%TO.C,R805*%
X147800000Y-106710000D03*
X147800000Y-105690000D03*
%TD*%
D28*
%TO.C,C911*%
X151480000Y-95600000D03*
X152120000Y-95600000D03*
%TD*%
D30*
%TO.C,U1301*%
X159881600Y-109149811D03*
X159881600Y-109649937D03*
X159881600Y-110150063D03*
X159881600Y-110650189D03*
D31*
X159251426Y-110789000D03*
X158751300Y-110789000D03*
X158251174Y-110789000D03*
D30*
X157621000Y-110650189D03*
X157621000Y-110150063D03*
X157621000Y-109649937D03*
X157621000Y-109149811D03*
D31*
X158251174Y-109011000D03*
X158751300Y-109011000D03*
X159251426Y-109011000D03*
%TD*%
D24*
%TO.C,C208*%
X160280000Y-88900000D03*
X159320000Y-88900000D03*
%TD*%
D32*
%TO.C,R1401*%
X152710000Y-107000000D03*
X151690000Y-107000000D03*
%TD*%
D21*
%TO.C,R808*%
X155890000Y-86300000D03*
X156910000Y-86300000D03*
%TD*%
D33*
%TO.C,C904*%
X149720000Y-94000000D03*
X149080000Y-94000000D03*
%TD*%
D29*
%TO.C,R401*%
X138500000Y-106510000D03*
X138500000Y-105490000D03*
%TD*%
D28*
%TO.C,C905*%
X151480000Y-97200000D03*
X152120000Y-97200000D03*
%TD*%
D23*
%TO.C,C1102*%
X149800000Y-105710000D03*
X149800000Y-106670000D03*
%TD*%
D33*
%TO.C,C919*%
X148120000Y-98000000D03*
X147480000Y-98000000D03*
%TD*%
D28*
%TO.C,C901*%
X149080000Y-98000000D03*
X149720000Y-98000000D03*
%TD*%
D24*
%TO.C,C913*%
X148280000Y-96000000D03*
X147320000Y-96000000D03*
%TD*%
%TO.C,C917*%
X149480000Y-91400000D03*
X148520000Y-91400000D03*
%TD*%
%TO.C,C1302*%
X159231300Y-111900000D03*
X158271300Y-111900000D03*
%TD*%
D34*
%TO.C,C915*%
X150600000Y-94880000D03*
X150600000Y-95520000D03*
%TD*%
%TO.C,C920*%
X152200000Y-93280000D03*
X152200000Y-93920000D03*
%TD*%
D22*
%TO.C,C302*%
X144100000Y-80380000D03*
X144100000Y-79420000D03*
%TD*%
D24*
%TO.C,C1002*%
X152480000Y-80800000D03*
X151520000Y-80800000D03*
%TD*%
D29*
%TO.C,R807*%
X148800000Y-106710000D03*
X148800000Y-105690000D03*
%TD*%
D19*
%TO.C,C902*%
X153000000Y-92320000D03*
X153000000Y-91680000D03*
%TD*%
D34*
%TO.C,C918*%
X148200000Y-92480000D03*
X148200000Y-93120000D03*
%TD*%
D21*
%TO.C,R101*%
X148190000Y-108300000D03*
X149210000Y-108300000D03*
%TD*%
D24*
%TO.C,C1402*%
X152580000Y-113100000D03*
X151620000Y-113100000D03*
%TD*%
D18*
%TO.C,R304*%
X143900000Y-87200000D03*
X143900000Y-88220000D03*
%TD*%
D19*
%TO.C,C916*%
X146600000Y-98720000D03*
X146600000Y-98080000D03*
%TD*%
D18*
%TO.C,R301*%
X144850000Y-87200000D03*
X144850000Y-88220000D03*
%TD*%
D21*
%TO.C,R803*%
X155090000Y-85300000D03*
X156110000Y-85300000D03*
%TD*%
D22*
%TO.C,C201*%
X159800000Y-84180000D03*
X159800000Y-83220000D03*
%TD*%
D35*
%TO.C,J1101*%
X162850000Y-100628285D03*
X161750000Y-100628285D03*
X160650000Y-100628285D03*
X159550000Y-100628285D03*
X158450000Y-100628285D03*
X157350000Y-100628285D03*
X156250000Y-100628285D03*
X155150000Y-100628285D03*
D36*
X164610000Y-103308285D03*
D37*
X164625000Y-104578285D03*
D38*
X164625000Y-107140785D03*
D39*
X153975000Y-106618285D03*
D40*
X153975000Y-103433285D03*
D41*
X161286000Y-107863285D03*
X157096000Y-107863285D03*
%TD*%
D24*
%TO.C,C204*%
X161280000Y-85900000D03*
X160320000Y-85900000D03*
%TD*%
D19*
%TO.C,C907*%
X149000000Y-93120000D03*
X149000000Y-92480000D03*
%TD*%
D21*
%TO.C,R801*%
X155090000Y-84300000D03*
X156110000Y-84300000D03*
%TD*%
D19*
%TO.C,C914*%
X152200000Y-92320000D03*
X152200000Y-91680000D03*
%TD*%
D21*
%TO.C,R205*%
X155890000Y-90300000D03*
X156910000Y-90300000D03*
%TD*%
%TO.C,R204*%
X155890000Y-88300000D03*
X156910000Y-88300000D03*
%TD*%
D18*
%TO.C,R305*%
X142000000Y-87190000D03*
X142000000Y-88210000D03*
%TD*%
D24*
%TO.C,C1004*%
X152480000Y-81799293D03*
X151520000Y-81799293D03*
%TD*%
%LPD*%
M02*
