%TF.GenerationSoftware,KiCad,Pcbnew,8.0.1*%
%TF.CreationDate,2024-03-29T03:09:59+00:00*%
%TF.ProjectId,watch_main,77617463-685f-46d6-9169-6e2e6b696361,rev?*%
%TF.SameCoordinates,Original*%
%TF.FileFunction,Legend,Top*%
%TF.FilePolarity,Positive*%
%FSLAX46Y46*%
G04 Gerber Fmt 4.6, Leading zero omitted, Abs format (unit mm)*
G04 Created by KiCad (PCBNEW 8.0.1) date 2024-03-29 03:09:59*
%MOMM*%
%LPD*%
G01*
G04 APERTURE LIST*
G04 Aperture macros list*
%AMRoundRect*
0 Rectangle with rounded corners*
0 $1 Rounding radius*
0 $2 $3 $4 $5 $6 $7 $8 $9 X,Y pos of 4 corners*
0 Add a 4 corners polygon primitive as box body*
4,1,4,$2,$3,$4,$5,$6,$7,$8,$9,$2,$3,0*
0 Add four circle primitives for the rounded corners*
1,1,$1+$1,$2,$3*
1,1,$1+$1,$4,$5*
1,1,$1+$1,$6,$7*
1,1,$1+$1,$8,$9*
0 Add four rect primitives between the rounded corners*
20,1,$1+$1,$2,$3,$4,$5,0*
20,1,$1+$1,$4,$5,$6,$7,0*
20,1,$1+$1,$6,$7,$8,$9,0*
20,1,$1+$1,$8,$9,$2,$3,0*%
%AMFreePoly0*
4,1,59,0.799098,0.828199,0.965410,0.754152,1.112692,0.647145,1.234508,0.511855,1.325534,0.354194,1.381790,0.181054,1.400820,0.000000,1.381790,-0.181054,1.325534,-0.354194,1.234508,-0.511855,1.112692,-0.647145,0.965410,-0.754152,0.799098,-0.828199,0.621025,-0.866050,0.438975,-0.866050,0.260902,-0.828199,0.094590,-0.754152,-0.052692,-0.647145,-0.174508,-0.511855,-0.265534,-0.354194,
-0.321790,-0.181054,-0.339094,-0.016420,0.056698,-0.016420,0.073606,-0.134009,0.129848,-0.257162,0.218508,-0.359481,0.332403,-0.432677,0.462306,-0.470820,0.597694,-0.470820,0.727597,-0.432677,0.841492,-0.359481,0.930152,-0.257162,0.986394,-0.134009,1.005662,0.000000,0.986394,0.134009,0.930152,0.257162,0.841492,0.359481,0.727597,0.432677,0.597694,0.470820,0.462306,0.470820,
0.332403,0.432677,0.218508,0.359481,0.129848,0.257162,0.073606,0.134009,0.056698,0.016420,0.063500,0.000000,0.056698,-0.016420,-0.339094,-0.016420,-0.339094,-0.016419,-0.340820,0.000000,-0.321790,0.181054,-0.265534,0.354194,-0.174508,0.511855,-0.052692,0.647145,0.094590,0.754152,0.260902,0.828199,0.438975,0.866050,0.621025,0.866050,0.799098,0.828199,0.799098,0.828199,
$1*%
%AMFreePoly1*
4,1,6,0.450000,-0.400000,-0.450000,-0.400000,-0.450000,0.650000,0.150000,1.200000,0.450000,1.200000,0.450000,-0.400000,0.450000,-0.400000,$1*%
G04 Aperture macros list end*
%ADD10C,0.150000*%
%ADD11C,0.120000*%
%ADD12C,0.100000*%
%ADD13C,0.150003*%
%ADD14C,0.152400*%
%ADD15C,0.175000*%
%ADD16C,0.250000*%
%ADD17C,0.200000*%
%ADD18C,0.110000*%
%ADD19C,0.304800*%
%ADD20C,0.000000*%
%ADD21RoundRect,0.140000X-0.170000X0.140000X-0.170000X-0.140000X0.170000X-0.140000X0.170000X0.140000X0*%
%ADD22RoundRect,0.140000X0.170000X-0.140000X0.170000X0.140000X-0.170000X0.140000X-0.170000X-0.140000X0*%
%ADD23C,1.500000*%
%ADD24RoundRect,0.135000X-0.185000X0.135000X-0.185000X-0.135000X0.185000X-0.135000X0.185000X0.135000X0*%
%ADD25RoundRect,0.140000X-0.140000X-0.170000X0.140000X-0.170000X0.140000X0.170000X-0.140000X0.170000X0*%
%ADD26RoundRect,0.140000X0.140000X0.170000X-0.140000X0.170000X-0.140000X-0.170000X0.140000X-0.170000X0*%
%ADD27R,1.600000X0.550000*%
%ADD28R,0.200000X0.400000*%
%ADD29R,0.400000X0.400000*%
%ADD30R,0.360000X0.220000*%
%ADD31R,0.360000X0.210000*%
%ADD32C,0.298000*%
%ADD33RoundRect,0.147500X-0.147500X-0.172500X0.147500X-0.172500X0.147500X0.172500X-0.147500X0.172500X0*%
%ADD34RoundRect,0.147500X0.172500X-0.147500X0.172500X0.147500X-0.172500X0.147500X-0.172500X-0.147500X0*%
%ADD35RoundRect,0.135000X0.185000X-0.135000X0.185000X0.135000X-0.185000X0.135000X-0.185000X-0.135000X0*%
%ADD36RoundRect,0.135000X-0.135000X-0.185000X0.135000X-0.185000X0.135000X0.185000X-0.135000X0.185000X0*%
%ADD37R,0.900000X0.800000*%
%ADD38C,0.400000*%
%ADD39RoundRect,0.050000X0.200000X-0.050000X0.200000X0.050000X-0.200000X0.050000X-0.200000X-0.050000X0*%
%ADD40RoundRect,0.050000X0.410000X-0.400000X0.410000X0.400000X-0.410000X0.400000X-0.410000X-0.400000X0*%
%ADD41RoundRect,0.135000X0.135000X0.185000X-0.135000X0.185000X-0.135000X-0.185000X0.135000X-0.185000X0*%
%ADD42R,0.300000X0.375000*%
%ADD43R,0.750000X0.300000*%
%ADD44R,0.750000X1.450000*%
%ADD45R,0.400000X0.220000*%
%ADD46R,0.220000X0.400000*%
%ADD47C,0.250000*%
%ADD48R,0.762000X0.533400*%
%ADD49FreePoly0,270.000000*%
%ADD50R,0.400000X0.480000*%
%ADD51R,0.750000X0.750000*%
%ADD52R,1.600000X0.900000*%
%ADD53FreePoly1,90.000000*%
%ADD54R,0.300000X0.450000*%
%ADD55R,0.450000X0.300000*%
%ADD56C,0.304800*%
%ADD57R,0.300000X0.350000*%
%ADD58R,0.350000X0.300000*%
%ADD59C,0.300000*%
%ADD60R,0.200000X0.300000*%
%ADD61R,0.250000X0.250000*%
%ADD62RoundRect,0.050000X0.075000X-0.050000X0.075000X0.050000X-0.075000X0.050000X-0.075000X-0.050000X0*%
%ADD63R,0.550000X1.600000*%
%ADD64R,0.600000X1.100000*%
%ADD65R,1.200000X0.800000*%
%ADD66R,0.800000X1.000000*%
%ADD67R,0.800000X0.990000*%
%ADD68RoundRect,0.147500X0.017678X-0.226274X0.226274X-0.017678X-0.017678X0.226274X-0.226274X0.017678X0*%
%ADD69C,0.370000*%
%ADD70RoundRect,0.147500X-0.226274X-0.017678X-0.017678X-0.226274X0.226274X0.017678X0.017678X0.226274X0*%
%ADD71R,0.800000X0.350000*%
%ADD72R,0.260000X0.600000*%
G04 APERTURE END LIST*
D10*
X150000000Y-116500000D02*
G75*
G02*
X148000000Y-116500000I-1000000J0D01*
G01*
X148000000Y-116500000D02*
G75*
G02*
X150000000Y-116500000I1000000J0D01*
G01*
X141900000Y-93750000D02*
G75*
G02*
X140100000Y-93750000I-900000J0D01*
G01*
X140100000Y-93750000D02*
G75*
G02*
X141900000Y-93750000I900000J0D01*
G01*
X149900000Y-116500000D02*
G75*
G02*
X148100000Y-116500000I-900000J0D01*
G01*
X148100000Y-116500000D02*
G75*
G02*
X149900000Y-116500000I900000J0D01*
G01*
X135900000Y-86800000D02*
G75*
G02*
X134100000Y-86800000I-900000J0D01*
G01*
X134100000Y-86800000D02*
G75*
G02*
X135900000Y-86800000I900000J0D01*
G01*
X142000000Y-93750000D02*
G75*
G02*
X140000000Y-93750000I-1000000J0D01*
G01*
X140000000Y-93750000D02*
G75*
G02*
X142000000Y-93750000I1000000J0D01*
G01*
X136000000Y-86800000D02*
G75*
G02*
X134000000Y-86800000I-1000000J0D01*
G01*
X134000000Y-86800000D02*
G75*
G02*
X136000000Y-86800000I1000000J0D01*
G01*
G36*
X143130894Y-114799000D02*
G01*
X143056741Y-114799000D01*
X143056741Y-114323898D01*
X143034279Y-114343352D01*
X143009560Y-114361185D01*
X142986400Y-114375775D01*
X142960070Y-114390636D01*
X142933124Y-114404074D01*
X142908291Y-114414464D01*
X142908291Y-114339432D01*
X142934789Y-114326156D01*
X142963235Y-114309557D01*
X142989720Y-114291438D01*
X143014246Y-114271799D01*
X143017174Y-114269237D01*
X143038771Y-114248803D01*
X143058995Y-114226187D01*
X143076409Y-114201520D01*
X143083120Y-114189369D01*
X143130894Y-114189369D01*
X143130894Y-114799000D01*
G37*
G36*
X165597300Y-96049000D02*
G01*
X165523147Y-96049000D01*
X165523147Y-95573898D01*
X165500685Y-95593352D01*
X165475966Y-95611185D01*
X165452806Y-95625775D01*
X165426476Y-95640636D01*
X165399530Y-95654074D01*
X165374697Y-95664464D01*
X165374697Y-95589432D01*
X165401195Y-95576156D01*
X165429641Y-95559557D01*
X165456126Y-95541438D01*
X165480652Y-95521799D01*
X165483580Y-95519237D01*
X165505177Y-95498803D01*
X165525401Y-95476187D01*
X165542815Y-95451520D01*
X165549526Y-95439369D01*
X165597300Y-95439369D01*
X165597300Y-96049000D01*
G37*
G36*
X166014011Y-95441690D02*
G01*
X166043200Y-95448651D01*
X166067272Y-95459006D01*
X166093045Y-95476187D01*
X166115192Y-95498272D01*
X166127942Y-95515720D01*
X166143152Y-95543031D01*
X166154875Y-95571195D01*
X166163714Y-95599259D01*
X166165457Y-95605845D01*
X166171420Y-95634687D01*
X166175679Y-95668164D01*
X166178008Y-95701258D01*
X166178966Y-95732448D01*
X166179086Y-95749020D01*
X166178553Y-95781358D01*
X166176954Y-95811692D01*
X166173627Y-95845448D01*
X166168765Y-95876318D01*
X166161153Y-95908688D01*
X166157251Y-95921358D01*
X166144978Y-95952252D01*
X166129993Y-95979427D01*
X166112298Y-96002883D01*
X166091891Y-96022621D01*
X166065601Y-96039906D01*
X166035693Y-96051534D01*
X166006073Y-96057121D01*
X165981982Y-96058378D01*
X165950548Y-96056168D01*
X165921752Y-96049538D01*
X165891490Y-96036215D01*
X165864819Y-96016876D01*
X165844815Y-95995510D01*
X165827590Y-95969554D01*
X165813285Y-95938947D01*
X165803943Y-95911113D01*
X165796469Y-95880301D01*
X165790864Y-95846513D01*
X165787127Y-95809749D01*
X165785550Y-95780222D01*
X165785025Y-95749020D01*
X165785027Y-95748874D01*
X165861228Y-95748874D01*
X165861773Y-95784681D01*
X165863408Y-95817366D01*
X165866133Y-95846927D01*
X165871072Y-95879486D01*
X165879246Y-95912115D01*
X165891883Y-95941301D01*
X165896106Y-95947883D01*
X165917000Y-95971827D01*
X165943207Y-95989241D01*
X165972562Y-95996980D01*
X165981982Y-95997415D01*
X166012359Y-95992564D01*
X166039559Y-95978010D01*
X166061322Y-95956615D01*
X166068004Y-95947736D01*
X166081595Y-95921240D01*
X166090586Y-95890950D01*
X166096206Y-95860364D01*
X166100123Y-95824919D01*
X166102031Y-95793064D01*
X166102848Y-95758101D01*
X166102882Y-95748874D01*
X166102337Y-95712968D01*
X166100702Y-95680208D01*
X166097978Y-95650594D01*
X166093039Y-95618002D01*
X166084864Y-95585379D01*
X166072228Y-95556266D01*
X166068004Y-95549718D01*
X166047041Y-95525845D01*
X166020594Y-95508483D01*
X165990827Y-95500766D01*
X165981249Y-95500332D01*
X165951302Y-95504583D01*
X165923021Y-95519077D01*
X165901549Y-95541179D01*
X165899623Y-95543856D01*
X165884663Y-95572651D01*
X165874764Y-95604486D01*
X165868577Y-95636062D01*
X165864266Y-95672224D01*
X165862166Y-95704456D01*
X165861266Y-95739623D01*
X165861228Y-95748874D01*
X165785027Y-95748874D01*
X165785561Y-95716476D01*
X165787171Y-95685977D01*
X165790520Y-95652080D01*
X165795415Y-95621131D01*
X165803078Y-95588747D01*
X165807006Y-95576096D01*
X165819399Y-95545157D01*
X165834447Y-95517991D01*
X165852152Y-95494599D01*
X165872512Y-95474980D01*
X165898768Y-95457766D01*
X165928571Y-95446185D01*
X165958041Y-95440621D01*
X165981982Y-95439369D01*
X166014011Y-95441690D01*
G37*
G36*
X156606413Y-113019090D02*
G01*
X156606413Y-112948748D01*
X156997544Y-112948748D01*
X156997544Y-113006487D01*
X156975928Y-113031110D01*
X156954384Y-113058598D01*
X156936486Y-113083693D01*
X156918638Y-113110776D01*
X156900840Y-113139849D01*
X156883092Y-113170912D01*
X156866041Y-113203069D01*
X156850242Y-113235520D01*
X156835696Y-113268265D01*
X156822401Y-113301303D01*
X156810359Y-113334634D01*
X156799569Y-113368259D01*
X156795604Y-113381791D01*
X156787818Y-113410932D01*
X156781165Y-113441094D01*
X156775645Y-113472275D01*
X156771259Y-113504477D01*
X156768006Y-113537699D01*
X156767174Y-113549000D01*
X156690824Y-113549000D01*
X156692614Y-113516089D01*
X156696080Y-113485603D01*
X156701328Y-113453015D01*
X156707063Y-113424252D01*
X156714036Y-113394030D01*
X156718814Y-113375196D01*
X156727763Y-113343505D01*
X156737851Y-113312179D01*
X156749076Y-113281217D01*
X156761438Y-113250621D01*
X156774939Y-113220389D01*
X156789577Y-113190523D01*
X156795751Y-113178678D01*
X156811566Y-113149821D01*
X156827690Y-113122416D01*
X156844121Y-113096463D01*
X156860860Y-113071963D01*
X156881353Y-113044481D01*
X156902289Y-113019090D01*
X156606413Y-113019090D01*
G37*
G36*
X139071396Y-93809837D02*
G01*
X139071396Y-93739495D01*
X139327265Y-93739055D01*
X139327265Y-93964589D01*
X139301309Y-93983933D01*
X139274988Y-94001062D01*
X139248303Y-94015974D01*
X139221253Y-94028671D01*
X139205632Y-94034931D01*
X139174134Y-94045189D01*
X139142214Y-94052517D01*
X139109873Y-94056913D01*
X139077111Y-94058378D01*
X139044321Y-94057034D01*
X139012663Y-94053000D01*
X138982139Y-94046276D01*
X138952749Y-94036864D01*
X138924492Y-94024762D01*
X138915325Y-94020130D01*
X138889319Y-94004531D01*
X138865818Y-93986532D01*
X138841564Y-93962498D01*
X138823487Y-93939297D01*
X138807914Y-93913695D01*
X138805562Y-93909195D01*
X138792962Y-93881395D01*
X138782969Y-93852399D01*
X138775583Y-93822209D01*
X138770803Y-93790823D01*
X138768631Y-93758241D01*
X138768486Y-93747115D01*
X138769779Y-93714280D01*
X138773659Y-93682269D01*
X138780124Y-93651082D01*
X138789176Y-93620720D01*
X138800815Y-93591182D01*
X138805269Y-93581519D01*
X138820251Y-93554064D01*
X138837500Y-93529401D01*
X138857016Y-93507531D01*
X138882649Y-93485545D01*
X138911368Y-93467360D01*
X138938098Y-93454660D01*
X138966302Y-93444588D01*
X138995979Y-93437143D01*
X139027130Y-93432326D01*
X139059754Y-93430136D01*
X139070956Y-93429990D01*
X139102922Y-93431300D01*
X139133312Y-93435229D01*
X139162126Y-93441778D01*
X139189365Y-93450946D01*
X139217386Y-93464044D01*
X139244251Y-93481670D01*
X139266622Y-93502530D01*
X139272457Y-93509418D01*
X139289893Y-93535084D01*
X139303139Y-93561976D01*
X139314067Y-93592462D01*
X139318179Y-93607164D01*
X139246078Y-93626948D01*
X139235929Y-93597935D01*
X139223080Y-93571577D01*
X139212226Y-93555434D01*
X139191321Y-93534601D01*
X139165932Y-93518822D01*
X139154634Y-93513668D01*
X139125343Y-93504113D01*
X139093744Y-93498968D01*
X139071396Y-93497988D01*
X139041737Y-93499332D01*
X139011529Y-93503981D01*
X138981640Y-93512928D01*
X138976581Y-93514987D01*
X138948740Y-93529241D01*
X138923462Y-93548078D01*
X138911954Y-93559683D01*
X138893884Y-93582987D01*
X138878480Y-93610139D01*
X138873999Y-93620353D01*
X138863869Y-93649461D01*
X138856633Y-93679778D01*
X138852292Y-93711303D01*
X138850845Y-93744038D01*
X138851824Y-93773875D01*
X138855440Y-93806314D01*
X138861721Y-93836201D01*
X138872163Y-93867232D01*
X138878688Y-93881498D01*
X138894186Y-93907345D01*
X138915386Y-93932175D01*
X138940574Y-93952507D01*
X138959582Y-93963563D01*
X138986592Y-93975296D01*
X139017964Y-93984489D01*
X139050379Y-93989438D01*
X139072568Y-93990381D01*
X139104826Y-93988406D01*
X139136568Y-93982481D01*
X139164695Y-93973772D01*
X139173978Y-93970158D01*
X139202589Y-93957261D01*
X139228639Y-93942479D01*
X139249009Y-93927073D01*
X139249009Y-93809837D01*
X139071396Y-93809837D01*
G37*
G36*
X133521396Y-87509837D02*
G01*
X133521396Y-87439495D01*
X133777265Y-87439055D01*
X133777265Y-87664589D01*
X133751309Y-87683933D01*
X133724988Y-87701062D01*
X133698303Y-87715974D01*
X133671253Y-87728671D01*
X133655632Y-87734931D01*
X133624134Y-87745189D01*
X133592214Y-87752517D01*
X133559873Y-87756913D01*
X133527111Y-87758378D01*
X133494321Y-87757034D01*
X133462663Y-87753000D01*
X133432139Y-87746276D01*
X133402749Y-87736864D01*
X133374492Y-87724762D01*
X133365325Y-87720130D01*
X133339319Y-87704531D01*
X133315818Y-87686532D01*
X133291564Y-87662498D01*
X133273487Y-87639297D01*
X133257914Y-87613695D01*
X133255562Y-87609195D01*
X133242962Y-87581395D01*
X133232969Y-87552399D01*
X133225583Y-87522209D01*
X133220803Y-87490823D01*
X133218631Y-87458241D01*
X133218486Y-87447115D01*
X133219779Y-87414280D01*
X133223659Y-87382269D01*
X133230124Y-87351082D01*
X133239176Y-87320720D01*
X133250815Y-87291182D01*
X133255269Y-87281519D01*
X133270251Y-87254064D01*
X133287500Y-87229401D01*
X133307016Y-87207531D01*
X133332649Y-87185545D01*
X133361368Y-87167360D01*
X133388098Y-87154660D01*
X133416302Y-87144588D01*
X133445979Y-87137143D01*
X133477130Y-87132326D01*
X133509754Y-87130136D01*
X133520956Y-87129990D01*
X133552922Y-87131300D01*
X133583312Y-87135229D01*
X133612126Y-87141778D01*
X133639365Y-87150946D01*
X133667386Y-87164044D01*
X133694251Y-87181670D01*
X133716622Y-87202530D01*
X133722457Y-87209418D01*
X133739893Y-87235084D01*
X133753139Y-87261976D01*
X133764067Y-87292462D01*
X133768179Y-87307164D01*
X133696078Y-87326948D01*
X133685929Y-87297935D01*
X133673080Y-87271577D01*
X133662226Y-87255434D01*
X133641321Y-87234601D01*
X133615932Y-87218822D01*
X133604634Y-87213668D01*
X133575343Y-87204113D01*
X133543744Y-87198968D01*
X133521396Y-87197988D01*
X133491737Y-87199332D01*
X133461529Y-87203981D01*
X133431640Y-87212928D01*
X133426581Y-87214987D01*
X133398740Y-87229241D01*
X133373462Y-87248078D01*
X133361954Y-87259683D01*
X133343884Y-87282987D01*
X133328480Y-87310139D01*
X133323999Y-87320353D01*
X133313869Y-87349461D01*
X133306633Y-87379778D01*
X133302292Y-87411303D01*
X133300845Y-87444038D01*
X133301824Y-87473875D01*
X133305440Y-87506314D01*
X133311721Y-87536201D01*
X133322163Y-87567232D01*
X133328688Y-87581498D01*
X133344186Y-87607345D01*
X133365386Y-87632175D01*
X133390574Y-87652507D01*
X133409582Y-87663563D01*
X133436592Y-87675296D01*
X133467964Y-87684489D01*
X133500379Y-87689438D01*
X133522568Y-87690381D01*
X133554826Y-87688406D01*
X133586568Y-87682481D01*
X133614695Y-87673772D01*
X133623978Y-87670158D01*
X133652589Y-87657261D01*
X133678639Y-87642479D01*
X133699009Y-87627073D01*
X133699009Y-87509837D01*
X133521396Y-87509837D01*
G37*
G36*
X154568277Y-105690144D02*
G01*
X154642429Y-105680179D01*
X154649921Y-105709149D01*
X154661021Y-105736551D01*
X154678429Y-105762581D01*
X154685806Y-105770011D01*
X154710762Y-105786711D01*
X154739469Y-105795703D01*
X154760691Y-105797415D01*
X154791878Y-105793866D01*
X154819859Y-105783219D01*
X154844634Y-105765473D01*
X154849205Y-105761072D01*
X154868216Y-105736669D01*
X154880185Y-105708888D01*
X154885114Y-105677730D01*
X154885255Y-105671093D01*
X154881992Y-105640888D01*
X154870865Y-105611729D01*
X154851843Y-105586829D01*
X154826742Y-105567890D01*
X154797381Y-105556812D01*
X154766993Y-105553563D01*
X154736607Y-105556769D01*
X154714529Y-105561770D01*
X154722882Y-105491868D01*
X154734752Y-105492600D01*
X154766253Y-105489726D01*
X154795467Y-105481102D01*
X154820042Y-105468274D01*
X154841651Y-105448432D01*
X154854995Y-105419677D01*
X154857997Y-105393242D01*
X154853426Y-105362891D01*
X154838279Y-105335290D01*
X154830300Y-105326711D01*
X154805255Y-105309632D01*
X154774889Y-105301260D01*
X154759079Y-105300332D01*
X154728675Y-105304124D01*
X154700296Y-105316790D01*
X154686979Y-105327297D01*
X154668232Y-105351312D01*
X154656153Y-105379988D01*
X154649903Y-105408190D01*
X154575750Y-105395001D01*
X154583311Y-105364158D01*
X154594195Y-105336513D01*
X154610704Y-105308834D01*
X154631555Y-105285332D01*
X154637446Y-105280109D01*
X154663028Y-105262285D01*
X154691558Y-105249554D01*
X154723038Y-105241916D01*
X154753002Y-105239409D01*
X154757467Y-105239369D01*
X154787575Y-105241430D01*
X154818941Y-105248457D01*
X154848472Y-105260472D01*
X154874765Y-105276816D01*
X154896416Y-105296830D01*
X154912073Y-105318211D01*
X154925557Y-105346217D01*
X154932818Y-105375501D01*
X154934201Y-105395734D01*
X154930743Y-105426269D01*
X154920367Y-105454531D01*
X154913245Y-105466808D01*
X154892857Y-105490613D01*
X154868069Y-105508765D01*
X154850963Y-105517660D01*
X154879232Y-105526788D01*
X154906183Y-105541906D01*
X154928440Y-105562262D01*
X154934201Y-105569390D01*
X154949889Y-105595869D01*
X154959767Y-105626211D01*
X154963689Y-105656823D01*
X154963950Y-105667722D01*
X154961187Y-105701443D01*
X154952898Y-105732850D01*
X154939084Y-105761943D01*
X154919744Y-105788721D01*
X154906211Y-105802984D01*
X154883492Y-105821810D01*
X154854292Y-105838850D01*
X154822188Y-105850589D01*
X154792359Y-105856431D01*
X154760398Y-105858378D01*
X154726875Y-105856141D01*
X154695932Y-105849431D01*
X154667569Y-105838246D01*
X154641788Y-105822587D01*
X154628214Y-105811630D01*
X154607414Y-105789789D01*
X154590920Y-105765296D01*
X154578731Y-105738153D01*
X154570848Y-105708359D01*
X154568277Y-105690144D01*
G37*
G36*
X155264011Y-105241690D02*
G01*
X155293200Y-105248651D01*
X155317272Y-105259006D01*
X155343045Y-105276187D01*
X155365192Y-105298272D01*
X155377942Y-105315720D01*
X155393152Y-105343031D01*
X155404875Y-105371195D01*
X155413714Y-105399259D01*
X155415457Y-105405845D01*
X155421420Y-105434687D01*
X155425679Y-105468164D01*
X155428008Y-105501258D01*
X155428966Y-105532448D01*
X155429086Y-105549020D01*
X155428553Y-105581358D01*
X155426954Y-105611692D01*
X155423627Y-105645448D01*
X155418765Y-105676318D01*
X155411153Y-105708688D01*
X155407251Y-105721358D01*
X155394978Y-105752252D01*
X155379993Y-105779427D01*
X155362298Y-105802883D01*
X155341891Y-105822621D01*
X155315601Y-105839906D01*
X155285693Y-105851534D01*
X155256073Y-105857121D01*
X155231982Y-105858378D01*
X155200548Y-105856168D01*
X155171752Y-105849538D01*
X155141490Y-105836215D01*
X155114819Y-105816876D01*
X155094815Y-105795510D01*
X155077590Y-105769554D01*
X155063285Y-105738947D01*
X155053943Y-105711113D01*
X155046469Y-105680301D01*
X155040864Y-105646513D01*
X155037127Y-105609749D01*
X155035550Y-105580222D01*
X155035025Y-105549020D01*
X155035027Y-105548874D01*
X155111228Y-105548874D01*
X155111773Y-105584681D01*
X155113408Y-105617366D01*
X155116133Y-105646927D01*
X155121072Y-105679486D01*
X155129246Y-105712115D01*
X155141883Y-105741301D01*
X155146106Y-105747883D01*
X155167000Y-105771827D01*
X155193207Y-105789241D01*
X155222562Y-105796980D01*
X155231982Y-105797415D01*
X155262359Y-105792564D01*
X155289559Y-105778010D01*
X155311322Y-105756615D01*
X155318004Y-105747736D01*
X155331595Y-105721240D01*
X155340586Y-105690950D01*
X155346206Y-105660364D01*
X155350123Y-105624919D01*
X155352031Y-105593064D01*
X155352848Y-105558101D01*
X155352882Y-105548874D01*
X155352337Y-105512968D01*
X155350702Y-105480208D01*
X155347978Y-105450594D01*
X155343039Y-105418002D01*
X155334864Y-105385379D01*
X155322228Y-105356266D01*
X155318004Y-105349718D01*
X155297041Y-105325845D01*
X155270594Y-105308483D01*
X155240827Y-105300766D01*
X155231249Y-105300332D01*
X155201302Y-105304583D01*
X155173021Y-105319077D01*
X155151549Y-105341179D01*
X155149623Y-105343856D01*
X155134663Y-105372651D01*
X155124764Y-105404486D01*
X155118577Y-105436062D01*
X155114266Y-105472224D01*
X155112166Y-105504456D01*
X155111266Y-105539623D01*
X155111228Y-105548874D01*
X155035027Y-105548874D01*
X155035561Y-105516476D01*
X155037171Y-105485977D01*
X155040520Y-105452080D01*
X155045415Y-105421131D01*
X155053078Y-105388747D01*
X155057006Y-105376096D01*
X155069399Y-105345157D01*
X155084447Y-105317991D01*
X155102152Y-105294599D01*
X155122512Y-105274980D01*
X155148768Y-105257766D01*
X155178571Y-105246185D01*
X155208041Y-105240621D01*
X155231982Y-105239369D01*
X155264011Y-105241690D01*
G37*
G36*
X160357795Y-81778658D02*
G01*
X160357795Y-81849000D01*
X159958311Y-81849000D01*
X159960687Y-81819479D01*
X159966958Y-81797415D01*
X159979684Y-81769462D01*
X159994979Y-81744320D01*
X160013824Y-81719436D01*
X160015904Y-81716962D01*
X160037146Y-81693649D01*
X160059998Y-81671292D01*
X160083058Y-81650467D01*
X160108980Y-81628464D01*
X160112917Y-81625224D01*
X160136539Y-81605383D01*
X160163257Y-81582070D01*
X160186856Y-81560409D01*
X160211057Y-81536598D01*
X160233613Y-81511827D01*
X160245981Y-81496117D01*
X160262770Y-81469733D01*
X160274980Y-81441368D01*
X160280576Y-81411324D01*
X160280712Y-81405992D01*
X160276261Y-81374558D01*
X160262907Y-81347080D01*
X160249058Y-81330960D01*
X160225146Y-81313523D01*
X160196731Y-81303323D01*
X160166993Y-81300332D01*
X160135560Y-81303610D01*
X160105810Y-81314785D01*
X160081117Y-81333891D01*
X160062793Y-81360028D01*
X160052626Y-81389108D01*
X160048762Y-81419612D01*
X160048584Y-81426948D01*
X159972380Y-81418888D01*
X159976817Y-81387493D01*
X159984305Y-81359035D01*
X159996895Y-81329546D01*
X160013637Y-81304054D01*
X160031291Y-81285385D01*
X160055343Y-81267455D01*
X160082747Y-81253929D01*
X160113502Y-81244807D01*
X160142532Y-81240493D01*
X160168605Y-81239369D01*
X160199920Y-81241075D01*
X160233238Y-81247375D01*
X160263092Y-81258317D01*
X160289482Y-81273902D01*
X160306211Y-81287876D01*
X160325968Y-81310206D01*
X160342606Y-81338439D01*
X160352905Y-81369566D01*
X160356718Y-81399176D01*
X160356916Y-81408043D01*
X160354473Y-81437498D01*
X160347145Y-81466566D01*
X160342115Y-81479851D01*
X160328252Y-81506765D01*
X160310693Y-81532377D01*
X160292875Y-81554003D01*
X160269899Y-81578225D01*
X160247043Y-81600238D01*
X160223981Y-81621317D01*
X160197714Y-81644435D01*
X160178423Y-81660981D01*
X160155093Y-81680966D01*
X160132107Y-81701039D01*
X160109252Y-81721715D01*
X160092694Y-81737918D01*
X160073513Y-81760762D01*
X160061480Y-81778658D01*
X160357795Y-81778658D01*
G37*
G36*
X160664011Y-81241690D02*
G01*
X160693200Y-81248651D01*
X160717272Y-81259006D01*
X160743045Y-81276187D01*
X160765192Y-81298272D01*
X160777942Y-81315720D01*
X160793152Y-81343031D01*
X160804875Y-81371195D01*
X160813714Y-81399259D01*
X160815457Y-81405845D01*
X160821420Y-81434687D01*
X160825679Y-81468164D01*
X160828008Y-81501258D01*
X160828966Y-81532448D01*
X160829086Y-81549020D01*
X160828553Y-81581358D01*
X160826954Y-81611692D01*
X160823627Y-81645448D01*
X160818765Y-81676318D01*
X160811153Y-81708688D01*
X160807251Y-81721358D01*
X160794978Y-81752252D01*
X160779993Y-81779427D01*
X160762298Y-81802883D01*
X160741891Y-81822621D01*
X160715601Y-81839906D01*
X160685693Y-81851534D01*
X160656073Y-81857121D01*
X160631982Y-81858378D01*
X160600548Y-81856168D01*
X160571752Y-81849538D01*
X160541490Y-81836215D01*
X160514819Y-81816876D01*
X160494815Y-81795510D01*
X160477590Y-81769554D01*
X160463285Y-81738947D01*
X160453943Y-81711113D01*
X160446469Y-81680301D01*
X160440864Y-81646513D01*
X160437127Y-81609749D01*
X160435550Y-81580222D01*
X160435025Y-81549020D01*
X160435027Y-81548874D01*
X160511228Y-81548874D01*
X160511773Y-81584681D01*
X160513408Y-81617366D01*
X160516133Y-81646927D01*
X160521072Y-81679486D01*
X160529246Y-81712115D01*
X160541883Y-81741301D01*
X160546106Y-81747883D01*
X160567000Y-81771827D01*
X160593207Y-81789241D01*
X160622562Y-81796980D01*
X160631982Y-81797415D01*
X160662359Y-81792564D01*
X160689559Y-81778010D01*
X160711322Y-81756615D01*
X160718004Y-81747736D01*
X160731595Y-81721240D01*
X160740586Y-81690950D01*
X160746206Y-81660364D01*
X160750123Y-81624919D01*
X160752031Y-81593064D01*
X160752848Y-81558101D01*
X160752882Y-81548874D01*
X160752337Y-81512968D01*
X160750702Y-81480208D01*
X160747978Y-81450594D01*
X160743039Y-81418002D01*
X160734864Y-81385379D01*
X160722228Y-81356266D01*
X160718004Y-81349718D01*
X160697041Y-81325845D01*
X160670594Y-81308483D01*
X160640827Y-81300766D01*
X160631249Y-81300332D01*
X160601302Y-81304583D01*
X160573021Y-81319077D01*
X160551549Y-81341179D01*
X160549623Y-81343856D01*
X160534663Y-81372651D01*
X160524764Y-81404486D01*
X160518577Y-81436062D01*
X160514266Y-81472224D01*
X160512166Y-81504456D01*
X160511266Y-81539623D01*
X160511228Y-81548874D01*
X160435027Y-81548874D01*
X160435561Y-81516476D01*
X160437171Y-81485977D01*
X160440520Y-81452080D01*
X160445415Y-81421131D01*
X160453078Y-81388747D01*
X160457006Y-81376096D01*
X160469399Y-81345157D01*
X160484447Y-81317991D01*
X160502152Y-81294599D01*
X160522512Y-81274980D01*
X160548768Y-81257766D01*
X160578571Y-81246185D01*
X160608041Y-81240621D01*
X160631982Y-81239369D01*
X160664011Y-81241690D01*
G37*
G36*
X145391389Y-115178658D02*
G01*
X145391389Y-115249000D01*
X144991905Y-115249000D01*
X144994281Y-115219479D01*
X145000552Y-115197415D01*
X145013278Y-115169462D01*
X145028573Y-115144320D01*
X145047418Y-115119436D01*
X145049498Y-115116962D01*
X145070740Y-115093649D01*
X145093592Y-115071292D01*
X145116652Y-115050467D01*
X145142574Y-115028464D01*
X145146511Y-115025224D01*
X145170133Y-115005383D01*
X145196851Y-114982070D01*
X145220450Y-114960409D01*
X145244651Y-114936598D01*
X145267207Y-114911827D01*
X145279575Y-114896117D01*
X145296364Y-114869733D01*
X145308574Y-114841368D01*
X145314170Y-114811324D01*
X145314306Y-114805992D01*
X145309855Y-114774558D01*
X145296501Y-114747080D01*
X145282652Y-114730960D01*
X145258740Y-114713523D01*
X145230325Y-114703323D01*
X145200587Y-114700332D01*
X145169154Y-114703610D01*
X145139404Y-114714785D01*
X145114711Y-114733891D01*
X145096387Y-114760028D01*
X145086220Y-114789108D01*
X145082356Y-114819612D01*
X145082178Y-114826948D01*
X145005974Y-114818888D01*
X145010411Y-114787493D01*
X145017899Y-114759035D01*
X145030489Y-114729546D01*
X145047231Y-114704054D01*
X145064885Y-114685385D01*
X145088937Y-114667455D01*
X145116341Y-114653929D01*
X145147096Y-114644807D01*
X145176126Y-114640493D01*
X145202199Y-114639369D01*
X145233514Y-114641075D01*
X145266832Y-114647375D01*
X145296686Y-114658317D01*
X145323076Y-114673902D01*
X145339805Y-114687876D01*
X145359562Y-114710206D01*
X145376200Y-114738439D01*
X145386499Y-114769566D01*
X145390312Y-114799176D01*
X145390510Y-114808043D01*
X145388067Y-114837498D01*
X145380739Y-114866566D01*
X145375709Y-114879851D01*
X145361846Y-114906765D01*
X145344287Y-114932377D01*
X145326469Y-114954003D01*
X145303493Y-114978225D01*
X145280637Y-115000238D01*
X145257575Y-115021317D01*
X145231308Y-115044435D01*
X145212017Y-115060981D01*
X145188687Y-115080966D01*
X145165701Y-115101039D01*
X145142846Y-115121715D01*
X145126288Y-115137918D01*
X145107107Y-115160762D01*
X145095074Y-115178658D01*
X145391389Y-115178658D01*
G37*
G36*
X161851431Y-98989558D02*
G01*
X161929393Y-98982963D01*
X161936065Y-99012792D01*
X161947720Y-99040687D01*
X161965698Y-99064992D01*
X161969547Y-99068692D01*
X161995011Y-99086196D01*
X162024144Y-99095620D01*
X162045604Y-99097415D01*
X162077432Y-99093380D01*
X162106054Y-99081272D01*
X162131471Y-99061094D01*
X162136169Y-99056090D01*
X162154163Y-99030722D01*
X162166267Y-99001113D01*
X162172083Y-98971231D01*
X162173392Y-98946620D01*
X162171157Y-98915873D01*
X162163300Y-98885377D01*
X162149787Y-98859216D01*
X162137635Y-98844184D01*
X162113217Y-98824401D01*
X162084478Y-98811944D01*
X162054917Y-98806998D01*
X162044285Y-98806669D01*
X162014316Y-98809922D01*
X161985132Y-98820630D01*
X161979658Y-98823668D01*
X161955298Y-98841721D01*
X161936347Y-98864283D01*
X161934229Y-98867632D01*
X161864620Y-98858546D01*
X161923092Y-98548748D01*
X162223657Y-98548748D01*
X162223657Y-98619090D01*
X161982443Y-98619090D01*
X161949910Y-98781463D01*
X161977488Y-98765819D01*
X162005707Y-98754645D01*
X162034567Y-98747941D01*
X162064069Y-98745706D01*
X162097505Y-98748342D01*
X162128571Y-98756252D01*
X162157267Y-98769436D01*
X162183593Y-98787893D01*
X162197572Y-98800807D01*
X162218814Y-98826364D01*
X162234838Y-98854951D01*
X162245645Y-98886567D01*
X162250756Y-98916078D01*
X162252087Y-98942370D01*
X162250407Y-98972466D01*
X162244202Y-99005586D01*
X162233425Y-99036560D01*
X162218076Y-99065388D01*
X162204313Y-99084666D01*
X162181007Y-99109717D01*
X162154723Y-99129584D01*
X162125462Y-99144269D01*
X162093222Y-99153771D01*
X162064081Y-99157731D01*
X162045604Y-99158378D01*
X162015731Y-99156756D01*
X161983575Y-99150760D01*
X161954322Y-99140346D01*
X161927972Y-99125515D01*
X161910928Y-99112217D01*
X161890300Y-99090519D01*
X161873935Y-99065946D01*
X161861833Y-99038499D01*
X161853995Y-99008176D01*
X161851431Y-98989558D01*
G37*
G36*
X155544930Y-115941326D02*
G01*
X155576156Y-115948353D01*
X155604139Y-115960491D01*
X155628880Y-115977740D01*
X155631745Y-115980256D01*
X155652252Y-116002576D01*
X155668198Y-116028799D01*
X155679583Y-116058923D01*
X155685803Y-116088483D01*
X155686407Y-116092949D01*
X155612694Y-116098811D01*
X155604066Y-116068421D01*
X155591083Y-116041718D01*
X155584557Y-116033159D01*
X155560047Y-116013155D01*
X155531581Y-116002384D01*
X155510405Y-116000332D01*
X155481029Y-116004063D01*
X155453228Y-116016340D01*
X155448123Y-116019823D01*
X155425793Y-116039888D01*
X155406960Y-116065425D01*
X155392875Y-116093389D01*
X155383101Y-116123766D01*
X155376962Y-116156238D01*
X155373559Y-116188873D01*
X155372104Y-116219982D01*
X155371919Y-116230995D01*
X155391759Y-116206853D01*
X155414404Y-116187421D01*
X155437425Y-116173842D01*
X155467046Y-116162412D01*
X155497656Y-116156257D01*
X155518612Y-116155085D01*
X155550051Y-116157707D01*
X155579359Y-116165575D01*
X155606536Y-116178689D01*
X155631580Y-116197047D01*
X155644934Y-116209893D01*
X155665262Y-116235343D01*
X155680597Y-116263864D01*
X155690940Y-116295458D01*
X155695831Y-116324982D01*
X155697104Y-116351309D01*
X155695157Y-116382749D01*
X155689315Y-116412938D01*
X155679577Y-116441874D01*
X155672485Y-116457408D01*
X155657258Y-116483132D01*
X155636913Y-116507473D01*
X155612962Y-116527348D01*
X155605074Y-116532440D01*
X155577198Y-116546118D01*
X155547062Y-116554731D01*
X155514665Y-116558277D01*
X155507914Y-116558378D01*
X155474333Y-116555972D01*
X155443164Y-116548754D01*
X155414405Y-116536725D01*
X155388058Y-116519883D01*
X155364122Y-116498229D01*
X155356679Y-116489942D01*
X155336807Y-116461161D01*
X155323389Y-116432415D01*
X155312825Y-116399340D01*
X155306430Y-116369763D01*
X155303554Y-116349404D01*
X155383497Y-116349404D01*
X155386181Y-116380639D01*
X155394235Y-116410762D01*
X155399763Y-116424289D01*
X155415108Y-116450536D01*
X155436394Y-116472527D01*
X155445192Y-116478804D01*
X155473314Y-116492163D01*
X155502723Y-116497343D01*
X155506741Y-116497415D01*
X155537440Y-116492844D01*
X155565057Y-116479129D01*
X155587488Y-116458727D01*
X155605340Y-116431828D01*
X155615753Y-116402969D01*
X155620514Y-116373619D01*
X155621340Y-116353508D01*
X155619252Y-116323255D01*
X155611910Y-116293272D01*
X155597553Y-116264987D01*
X155587928Y-116252831D01*
X155565356Y-116233433D01*
X155536627Y-116220394D01*
X155506963Y-116216084D01*
X155503811Y-116216048D01*
X155473883Y-116219640D01*
X155444401Y-116231889D01*
X155420725Y-116250568D01*
X155418521Y-116252831D01*
X155400051Y-116278067D01*
X155388422Y-116307797D01*
X155383804Y-116338396D01*
X155383497Y-116349404D01*
X155303554Y-116349404D01*
X155301861Y-116337415D01*
X155299121Y-116302297D01*
X155298207Y-116264408D01*
X155298775Y-116232305D01*
X155300479Y-116201887D01*
X155304518Y-116163950D01*
X155310577Y-116129008D01*
X155318655Y-116097061D01*
X155328753Y-116068109D01*
X155344216Y-116036130D01*
X155362834Y-116008832D01*
X155385372Y-115985226D01*
X155410672Y-115966503D01*
X155438733Y-115952665D01*
X155469555Y-115943711D01*
X155503140Y-115939641D01*
X155514948Y-115939369D01*
X155544930Y-115941326D01*
G37*
G36*
X154980894Y-108949000D02*
G01*
X154906741Y-108949000D01*
X154906741Y-108473898D01*
X154884279Y-108493352D01*
X154859560Y-108511185D01*
X154836400Y-108525775D01*
X154810070Y-108540636D01*
X154783124Y-108554074D01*
X154758291Y-108564464D01*
X154758291Y-108489432D01*
X154784789Y-108476156D01*
X154813235Y-108459557D01*
X154839720Y-108441438D01*
X154864246Y-108421799D01*
X154867174Y-108419237D01*
X154888771Y-108398803D01*
X154908995Y-108376187D01*
X154926409Y-108351520D01*
X154933120Y-108339369D01*
X154980894Y-108339369D01*
X154980894Y-108949000D01*
G37*
G36*
X148747300Y-105849000D02*
G01*
X148673147Y-105849000D01*
X148673147Y-105373898D01*
X148650685Y-105393352D01*
X148625966Y-105411185D01*
X148602806Y-105425775D01*
X148576476Y-105440636D01*
X148549530Y-105454074D01*
X148524697Y-105464464D01*
X148524697Y-105389432D01*
X148551195Y-105376156D01*
X148579641Y-105359557D01*
X148606126Y-105341438D01*
X148630652Y-105321799D01*
X148633580Y-105319237D01*
X148655177Y-105298803D01*
X148675401Y-105276187D01*
X148692815Y-105251520D01*
X148699526Y-105239369D01*
X148747300Y-105239369D01*
X148747300Y-105849000D01*
G37*
G36*
X149178524Y-105241326D02*
G01*
X149209750Y-105248353D01*
X149237733Y-105260491D01*
X149262474Y-105277740D01*
X149265339Y-105280256D01*
X149285846Y-105302576D01*
X149301792Y-105328799D01*
X149313177Y-105358923D01*
X149319397Y-105388483D01*
X149320000Y-105392949D01*
X149246288Y-105398811D01*
X149237660Y-105368421D01*
X149224677Y-105341718D01*
X149218151Y-105333159D01*
X149193641Y-105313155D01*
X149165175Y-105302384D01*
X149143999Y-105300332D01*
X149114623Y-105304063D01*
X149086821Y-105316340D01*
X149081717Y-105319823D01*
X149059387Y-105339888D01*
X149040554Y-105365425D01*
X149026469Y-105393389D01*
X149016695Y-105423766D01*
X149010556Y-105456238D01*
X149007153Y-105488873D01*
X149005698Y-105519982D01*
X149005513Y-105530995D01*
X149025353Y-105506853D01*
X149047998Y-105487421D01*
X149071019Y-105473842D01*
X149100640Y-105462412D01*
X149131249Y-105456257D01*
X149152205Y-105455085D01*
X149183645Y-105457707D01*
X149212953Y-105465575D01*
X149240129Y-105478689D01*
X149265174Y-105497047D01*
X149278528Y-105509893D01*
X149298856Y-105535343D01*
X149314191Y-105563864D01*
X149324533Y-105595458D01*
X149329424Y-105624982D01*
X149330698Y-105651309D01*
X149328751Y-105682749D01*
X149322908Y-105712938D01*
X149313171Y-105741874D01*
X149306078Y-105757408D01*
X149290852Y-105783132D01*
X149270507Y-105807473D01*
X149246556Y-105827348D01*
X149238667Y-105832440D01*
X149210792Y-105846118D01*
X149180656Y-105854731D01*
X149148258Y-105858277D01*
X149141508Y-105858378D01*
X149107927Y-105855972D01*
X149076757Y-105848754D01*
X149047999Y-105836725D01*
X149021651Y-105819883D01*
X148997715Y-105798229D01*
X148990272Y-105789942D01*
X148970401Y-105761161D01*
X148956982Y-105732415D01*
X148946419Y-105699340D01*
X148940023Y-105669763D01*
X148937148Y-105649404D01*
X149017090Y-105649404D01*
X149019775Y-105680639D01*
X149027829Y-105710762D01*
X149033357Y-105724289D01*
X149048702Y-105750536D01*
X149069988Y-105772527D01*
X149078786Y-105778804D01*
X149106907Y-105792163D01*
X149136317Y-105797343D01*
X149140335Y-105797415D01*
X149171034Y-105792844D01*
X149198651Y-105779129D01*
X149221082Y-105758727D01*
X149238934Y-105731828D01*
X149249347Y-105702969D01*
X149254107Y-105673619D01*
X149254934Y-105653508D01*
X149252846Y-105623255D01*
X149245504Y-105593272D01*
X149231147Y-105564987D01*
X149221522Y-105552831D01*
X149198950Y-105533433D01*
X149170220Y-105520394D01*
X149140556Y-105516084D01*
X149137404Y-105516048D01*
X149107477Y-105519640D01*
X149077995Y-105531889D01*
X149054319Y-105550568D01*
X149052115Y-105552831D01*
X149033645Y-105578067D01*
X149022016Y-105607797D01*
X149017398Y-105638396D01*
X149017090Y-105649404D01*
X148937148Y-105649404D01*
X148935455Y-105637415D01*
X148932714Y-105602297D01*
X148931801Y-105564408D01*
X148932369Y-105532305D01*
X148934073Y-105501887D01*
X148938112Y-105463950D01*
X148944171Y-105429008D01*
X148952249Y-105397061D01*
X148962347Y-105368109D01*
X148977809Y-105336130D01*
X148996427Y-105308832D01*
X149018966Y-105285226D01*
X149044265Y-105266503D01*
X149072327Y-105252665D01*
X149103149Y-105243711D01*
X149136733Y-105239641D01*
X149148542Y-105239369D01*
X149178524Y-105241326D01*
G37*
G36*
X156780894Y-84949000D02*
G01*
X156706741Y-84949000D01*
X156706741Y-84473898D01*
X156684279Y-84493352D01*
X156659560Y-84511185D01*
X156636400Y-84525775D01*
X156610070Y-84540636D01*
X156583124Y-84554074D01*
X156558291Y-84564464D01*
X156558291Y-84489432D01*
X156584789Y-84476156D01*
X156613235Y-84459557D01*
X156639720Y-84441438D01*
X156664246Y-84421799D01*
X156667174Y-84419237D01*
X156688771Y-84398803D01*
X156708995Y-84376187D01*
X156726409Y-84351520D01*
X156733120Y-84339369D01*
X156780894Y-84339369D01*
X156780894Y-84949000D01*
G37*
G36*
X161238976Y-81291115D02*
G01*
X161504459Y-80694451D01*
X161565700Y-80755692D01*
X161363324Y-81180238D01*
X161349659Y-81208252D01*
X161336059Y-81234825D01*
X161321026Y-81262657D01*
X161315035Y-81273292D01*
X161343641Y-81257728D01*
X161369905Y-81244240D01*
X161396661Y-81231243D01*
X161408711Y-81225625D01*
X161837608Y-81027600D01*
X161895327Y-81085319D01*
X161297005Y-81349144D01*
X161238976Y-81291115D01*
G37*
G36*
X162101745Y-81291737D02*
G01*
X162124179Y-81315790D01*
X162142572Y-81339041D01*
X162158434Y-81364238D01*
X162167235Y-81383132D01*
X162175592Y-81412488D01*
X162177582Y-81442138D01*
X162173866Y-81469347D01*
X162164679Y-81497650D01*
X162149461Y-81524671D01*
X162134490Y-81542298D01*
X162110397Y-81561465D01*
X162082405Y-81574681D01*
X162068171Y-81578774D01*
X162038181Y-81582251D01*
X162006502Y-81578851D01*
X161984443Y-81572763D01*
X161997001Y-81600968D01*
X162004591Y-81632019D01*
X162005481Y-81662766D01*
X162004442Y-81671931D01*
X161997002Y-81701338D01*
X161983491Y-81728681D01*
X161963908Y-81753960D01*
X161959262Y-81758767D01*
X161935155Y-81779319D01*
X161908688Y-81795120D01*
X161889731Y-81803015D01*
X161861354Y-81810738D01*
X161830385Y-81813339D01*
X161817816Y-81812341D01*
X161788558Y-81805308D01*
X161760466Y-81793166D01*
X161749425Y-81787057D01*
X161724483Y-81770374D01*
X161700682Y-81751107D01*
X161678344Y-81730426D01*
X161673262Y-81725401D01*
X161517204Y-81569344D01*
X161616683Y-81569344D01*
X161723001Y-81675661D01*
X161744221Y-81696088D01*
X161763518Y-81712033D01*
X161789106Y-81726379D01*
X161808283Y-81732551D01*
X161837958Y-81733316D01*
X161854499Y-81729442D01*
X161881213Y-81716469D01*
X161900404Y-81700531D01*
X161919524Y-81676038D01*
X161930884Y-81647101D01*
X161931284Y-81645196D01*
X161932268Y-81614990D01*
X161922994Y-81585509D01*
X161907064Y-81559918D01*
X161886719Y-81535245D01*
X161867970Y-81515563D01*
X161769217Y-81416810D01*
X161616683Y-81569344D01*
X161517204Y-81569344D01*
X161510365Y-81562505D01*
X161705799Y-81367071D01*
X161818956Y-81367071D01*
X161911285Y-81459399D01*
X161933195Y-81480339D01*
X161956899Y-81499874D01*
X161970143Y-81508310D01*
X161997629Y-81518750D01*
X162023923Y-81519605D01*
X162051902Y-81509222D01*
X162072212Y-81493077D01*
X162090564Y-81468993D01*
X162099568Y-81445410D01*
X162100020Y-81414630D01*
X162092626Y-81394117D01*
X162074965Y-81368239D01*
X162054602Y-81344824D01*
X162033664Y-81323134D01*
X161948278Y-81237749D01*
X161818956Y-81367071D01*
X161705799Y-81367071D01*
X161941439Y-81131431D01*
X162101745Y-81291737D01*
G37*
G36*
X162517689Y-81707681D02*
G01*
X162261428Y-82313568D01*
X162197078Y-82249217D01*
X162279873Y-82066736D01*
X162101226Y-81888090D01*
X161921647Y-81973786D01*
X161861649Y-81913788D01*
X161986121Y-81857935D01*
X162163919Y-81857935D01*
X162308784Y-82002801D01*
X162382668Y-81839801D01*
X162394948Y-81812946D01*
X162408493Y-81784258D01*
X162422940Y-81754957D01*
X162437878Y-81726437D01*
X162441008Y-81720738D01*
X162416009Y-81736799D01*
X162390232Y-81751928D01*
X162363679Y-81766125D01*
X162336348Y-81779389D01*
X162163919Y-81857935D01*
X161986121Y-81857935D01*
X162456759Y-81646751D01*
X162517689Y-81707681D01*
G37*
G36*
X162369093Y-82421232D02*
G01*
X162750427Y-82039898D01*
X162609707Y-81899177D01*
X162659446Y-81849438D01*
X162998088Y-82188079D01*
X162948348Y-82237819D01*
X162807006Y-82096476D01*
X162425672Y-82477811D01*
X162369093Y-82421232D01*
G37*
G36*
X159831530Y-114541592D02*
G01*
X159861713Y-114548261D01*
X159888936Y-114559376D01*
X159916425Y-114577522D01*
X159925737Y-114585824D01*
X159946894Y-114610252D01*
X159962007Y-114637225D01*
X159971074Y-114666745D01*
X159974097Y-114698811D01*
X159970985Y-114729139D01*
X159960591Y-114758506D01*
X159951968Y-114772817D01*
X159930311Y-114795927D01*
X159903579Y-114813052D01*
X159884997Y-114821177D01*
X159914211Y-114833078D01*
X159939206Y-114848503D01*
X159962030Y-114869775D01*
X159969700Y-114879502D01*
X159985002Y-114906221D01*
X159994636Y-114936002D01*
X159998461Y-114965424D01*
X159998716Y-114975782D01*
X159996094Y-115008449D01*
X159988226Y-115038746D01*
X159975112Y-115066673D01*
X159956754Y-115092229D01*
X159943908Y-115105769D01*
X159918275Y-115126268D01*
X159889331Y-115141732D01*
X159857078Y-115152162D01*
X159826798Y-115157094D01*
X159799707Y-115158378D01*
X159767396Y-115156524D01*
X159737505Y-115150960D01*
X159705694Y-115139780D01*
X159677178Y-115123551D01*
X159655360Y-115105622D01*
X159634004Y-115081229D01*
X159617893Y-115054339D01*
X159607028Y-115024953D01*
X159601408Y-114993070D01*
X159600578Y-114974317D01*
X159676902Y-114974317D01*
X159680639Y-115005348D01*
X159690930Y-115033575D01*
X159691850Y-115035427D01*
X159709188Y-115060248D01*
X159732902Y-115079210D01*
X159736546Y-115081295D01*
X159765434Y-115092866D01*
X159796318Y-115097352D01*
X159800587Y-115097415D01*
X159831939Y-115094095D01*
X159859686Y-115084135D01*
X159886041Y-115065509D01*
X159888221Y-115063417D01*
X159906536Y-115040273D01*
X159918848Y-115010649D01*
X159922918Y-114979932D01*
X159922952Y-114976662D01*
X159919460Y-114945126D01*
X159908985Y-114917196D01*
X159891525Y-114892873D01*
X159887195Y-114888441D01*
X159863192Y-114870049D01*
X159835698Y-114858468D01*
X159804712Y-114853700D01*
X159798095Y-114853563D01*
X159767066Y-114856941D01*
X159739557Y-114867073D01*
X159715569Y-114883960D01*
X159711194Y-114888148D01*
X159693110Y-114911361D01*
X159680954Y-114940796D01*
X159676935Y-114971101D01*
X159676902Y-114974317D01*
X159600578Y-114974317D01*
X159600552Y-114973731D01*
X159602916Y-114942183D01*
X159610011Y-114913648D01*
X159623440Y-114885478D01*
X159630447Y-114875252D01*
X159651607Y-114852907D01*
X159677719Y-114835513D01*
X159705454Y-114824092D01*
X159715590Y-114821177D01*
X159686676Y-114807758D01*
X159661572Y-114789170D01*
X159647153Y-114772524D01*
X159632731Y-114744749D01*
X159625944Y-114715462D01*
X159624878Y-114696759D01*
X159625135Y-114693975D01*
X159700789Y-114693975D01*
X159704663Y-114724372D01*
X159717604Y-114752232D01*
X159728340Y-114765050D01*
X159753552Y-114782888D01*
X159781634Y-114791282D01*
X159800147Y-114792600D01*
X159830077Y-114788747D01*
X159857617Y-114775874D01*
X159870342Y-114765196D01*
X159888085Y-114740899D01*
X159896783Y-114712538D01*
X159897746Y-114698078D01*
X159893769Y-114668939D01*
X159880484Y-114641557D01*
X159869463Y-114628616D01*
X159844304Y-114610303D01*
X159814550Y-114601327D01*
X159799268Y-114600332D01*
X159769434Y-114604207D01*
X159741719Y-114617148D01*
X159728779Y-114627883D01*
X159710657Y-114652082D01*
X159701472Y-114682199D01*
X159700789Y-114693975D01*
X159625135Y-114693975D01*
X159627837Y-114664758D01*
X159636712Y-114635430D01*
X159651504Y-114608777D01*
X159672213Y-114584799D01*
X159697904Y-114564923D01*
X159727497Y-114550727D01*
X159756591Y-114542963D01*
X159788673Y-114539547D01*
X159798388Y-114539369D01*
X159831530Y-114541592D01*
G37*
G36*
X148747300Y-108949000D02*
G01*
X148673147Y-108949000D01*
X148673147Y-108473898D01*
X148650685Y-108493352D01*
X148625966Y-108511185D01*
X148602806Y-108525775D01*
X148576476Y-108540636D01*
X148549530Y-108554074D01*
X148524697Y-108564464D01*
X148524697Y-108489432D01*
X148551195Y-108476156D01*
X148579641Y-108459557D01*
X148606126Y-108441438D01*
X148630652Y-108421799D01*
X148633580Y-108419237D01*
X148655177Y-108398803D01*
X148675401Y-108376187D01*
X148692815Y-108351520D01*
X148699526Y-108339369D01*
X148747300Y-108339369D01*
X148747300Y-108949000D01*
G37*
G36*
X148935025Y-108789558D02*
G01*
X149012987Y-108782963D01*
X149019659Y-108812792D01*
X149031314Y-108840687D01*
X149049291Y-108864992D01*
X149053140Y-108868692D01*
X149078605Y-108886196D01*
X149107738Y-108895620D01*
X149129198Y-108897415D01*
X149161026Y-108893380D01*
X149189648Y-108881272D01*
X149215064Y-108861094D01*
X149219763Y-108856090D01*
X149237756Y-108830722D01*
X149249861Y-108801113D01*
X149255677Y-108771231D01*
X149256986Y-108746620D01*
X149254751Y-108715873D01*
X149246894Y-108685377D01*
X149233380Y-108659216D01*
X149221228Y-108644184D01*
X149196811Y-108624401D01*
X149168071Y-108611944D01*
X149138510Y-108606998D01*
X149127879Y-108606669D01*
X149097910Y-108609922D01*
X149068726Y-108620630D01*
X149063252Y-108623668D01*
X149038892Y-108641721D01*
X149019941Y-108664283D01*
X149017823Y-108667632D01*
X148948214Y-108658546D01*
X149006685Y-108348748D01*
X149307251Y-108348748D01*
X149307251Y-108419090D01*
X149066037Y-108419090D01*
X149033503Y-108581463D01*
X149061081Y-108565819D01*
X149089301Y-108554645D01*
X149118161Y-108547941D01*
X149147662Y-108545706D01*
X149181099Y-108548342D01*
X149212165Y-108556252D01*
X149240861Y-108569436D01*
X149267187Y-108587893D01*
X149281166Y-108600807D01*
X149302407Y-108626364D01*
X149318432Y-108654951D01*
X149329239Y-108686567D01*
X149334350Y-108716078D01*
X149335681Y-108742370D01*
X149334001Y-108772466D01*
X149327796Y-108805586D01*
X149317019Y-108836560D01*
X149301670Y-108865388D01*
X149287907Y-108884666D01*
X149264601Y-108909717D01*
X149238317Y-108929584D01*
X149209055Y-108944269D01*
X149176816Y-108953771D01*
X149147675Y-108957731D01*
X149129198Y-108958378D01*
X149099325Y-108956756D01*
X149067169Y-108950760D01*
X149037916Y-108940346D01*
X149011566Y-108925515D01*
X148994522Y-108912217D01*
X148973894Y-108890519D01*
X148957529Y-108865946D01*
X148945427Y-108838499D01*
X148937589Y-108808176D01*
X148935025Y-108789558D01*
G37*
G36*
X136118234Y-86049000D02*
G01*
X135884054Y-85439369D01*
X135970663Y-85439369D01*
X136127760Y-85882670D01*
X136137907Y-85912142D01*
X136147080Y-85940548D01*
X136156130Y-85970859D01*
X136159414Y-85982614D01*
X136168636Y-85951382D01*
X136177670Y-85923272D01*
X136187399Y-85895163D01*
X136191947Y-85882670D01*
X136355199Y-85439369D01*
X136436825Y-85439369D01*
X136200300Y-86049000D01*
X136118234Y-86049000D01*
G37*
G36*
X136478150Y-85849404D02*
G01*
X136553475Y-85842663D01*
X136558865Y-85873197D01*
X136568537Y-85901924D01*
X136578388Y-85920332D01*
X136597898Y-85943069D01*
X136622219Y-85960665D01*
X136639204Y-85969425D01*
X136668811Y-85980021D01*
X136697799Y-85985837D01*
X136728763Y-85988018D01*
X136731968Y-85988036D01*
X136762138Y-85986426D01*
X136792167Y-85980996D01*
X136812714Y-85974408D01*
X136840011Y-85960419D01*
X136862689Y-85939692D01*
X136864885Y-85936745D01*
X136878263Y-85910010D01*
X136882030Y-85884429D01*
X136876791Y-85854552D01*
X136865471Y-85834457D01*
X136843672Y-85814673D01*
X136815763Y-85800247D01*
X136811102Y-85798406D01*
X136781614Y-85788926D01*
X136749808Y-85780322D01*
X136718627Y-85772476D01*
X136703538Y-85768804D01*
X136674075Y-85761303D01*
X136644130Y-85752760D01*
X136615746Y-85743271D01*
X136586887Y-85730702D01*
X136559764Y-85713603D01*
X136537835Y-85693941D01*
X136522407Y-85673842D01*
X136509459Y-85647299D01*
X136502486Y-85618448D01*
X136501158Y-85597932D01*
X136504223Y-85566923D01*
X136513418Y-85537368D01*
X136527097Y-85511763D01*
X136545718Y-85488556D01*
X136568977Y-85469127D01*
X136596872Y-85453477D01*
X136603007Y-85450800D01*
X136631927Y-85440741D01*
X136662631Y-85433973D01*
X136695121Y-85430498D01*
X136713942Y-85429990D01*
X136746512Y-85431355D01*
X136777104Y-85435449D01*
X136805717Y-85442273D01*
X136832351Y-85451826D01*
X136859325Y-85465660D01*
X136884890Y-85484866D01*
X136905819Y-85508107D01*
X136911193Y-85515866D01*
X136925999Y-85543424D01*
X136935797Y-85573156D01*
X136940585Y-85605064D01*
X136940942Y-85611707D01*
X136864298Y-85617569D01*
X136858495Y-85587175D01*
X136846553Y-85558678D01*
X136826740Y-85533746D01*
X136822386Y-85529935D01*
X136796810Y-85514324D01*
X136768113Y-85505218D01*
X136738089Y-85501055D01*
X136717166Y-85500332D01*
X136687310Y-85501616D01*
X136657790Y-85506225D01*
X136627794Y-85516701D01*
X136611360Y-85527150D01*
X136591178Y-85548720D01*
X136579406Y-85577844D01*
X136578241Y-85591630D01*
X136584140Y-85621526D01*
X136601835Y-85645559D01*
X136629560Y-85661551D01*
X136659675Y-85672395D01*
X136688368Y-85680625D01*
X136722296Y-85688937D01*
X136751258Y-85695719D01*
X136782074Y-85703509D01*
X136812595Y-85712116D01*
X136843243Y-85722418D01*
X136856092Y-85727771D01*
X136883576Y-85742569D01*
X136908976Y-85761431D01*
X136930667Y-85785122D01*
X136933908Y-85789760D01*
X136948258Y-85816903D01*
X136956652Y-85846747D01*
X136959113Y-85876222D01*
X136956409Y-85905995D01*
X136948294Y-85934680D01*
X136934770Y-85962278D01*
X136931416Y-85967667D01*
X136911836Y-85992642D01*
X136887533Y-86013897D01*
X136861622Y-86029845D01*
X136852135Y-86034491D01*
X136822017Y-86046038D01*
X136793532Y-86053130D01*
X136763435Y-86057235D01*
X136735778Y-86058378D01*
X136705936Y-86057518D01*
X136673477Y-86054339D01*
X136643557Y-86048819D01*
X136612471Y-86039641D01*
X136598171Y-86033905D01*
X136571967Y-86020139D01*
X136546056Y-86000996D01*
X136523925Y-85977980D01*
X136511270Y-85960486D01*
X136495912Y-85931851D01*
X136485283Y-85901176D01*
X136479806Y-85872197D01*
X136478150Y-85849404D01*
G37*
G36*
X137235352Y-86049000D02*
G01*
X137235352Y-85786390D01*
X137002491Y-85439369D01*
X137099797Y-85439369D01*
X137218792Y-85618155D01*
X137235004Y-85643214D01*
X137250666Y-85668274D01*
X137267629Y-85696465D01*
X137280342Y-85718392D01*
X137296519Y-85691322D01*
X137312456Y-85665684D01*
X137329858Y-85638561D01*
X137346287Y-85613612D01*
X137463231Y-85439369D01*
X137556434Y-85439369D01*
X137315366Y-85786390D01*
X137315366Y-86049000D01*
X137235352Y-86049000D01*
G37*
G36*
X137597760Y-85849404D02*
G01*
X137673084Y-85842663D01*
X137678474Y-85873197D01*
X137688146Y-85901924D01*
X137697997Y-85920332D01*
X137717507Y-85943069D01*
X137741828Y-85960665D01*
X137758813Y-85969425D01*
X137788420Y-85980021D01*
X137817408Y-85985837D01*
X137848372Y-85988018D01*
X137851577Y-85988036D01*
X137881747Y-85986426D01*
X137911776Y-85980996D01*
X137932324Y-85974408D01*
X137959620Y-85960419D01*
X137982298Y-85939692D01*
X137984494Y-85936745D01*
X137997872Y-85910010D01*
X138001640Y-85884429D01*
X137996400Y-85854552D01*
X137985080Y-85834457D01*
X137963281Y-85814673D01*
X137935372Y-85800247D01*
X137930712Y-85798406D01*
X137901223Y-85788926D01*
X137869418Y-85780322D01*
X137838236Y-85772476D01*
X137823147Y-85768804D01*
X137793684Y-85761303D01*
X137763739Y-85752760D01*
X137735355Y-85743271D01*
X137706497Y-85730702D01*
X137679373Y-85713603D01*
X137657444Y-85693941D01*
X137642016Y-85673842D01*
X137629068Y-85647299D01*
X137622095Y-85618448D01*
X137620767Y-85597932D01*
X137623832Y-85566923D01*
X137633027Y-85537368D01*
X137646706Y-85511763D01*
X137665328Y-85488556D01*
X137688586Y-85469127D01*
X137716481Y-85453477D01*
X137722617Y-85450800D01*
X137751536Y-85440741D01*
X137782241Y-85433973D01*
X137814730Y-85430498D01*
X137833552Y-85429990D01*
X137866121Y-85431355D01*
X137896713Y-85435449D01*
X137925326Y-85442273D01*
X137951961Y-85451826D01*
X137978934Y-85465660D01*
X138004499Y-85484866D01*
X138025428Y-85508107D01*
X138030802Y-85515866D01*
X138045608Y-85543424D01*
X138055406Y-85573156D01*
X138060194Y-85605064D01*
X138060551Y-85611707D01*
X137983908Y-85617569D01*
X137978104Y-85587175D01*
X137966163Y-85558678D01*
X137946350Y-85533746D01*
X137941996Y-85529935D01*
X137916419Y-85514324D01*
X137887722Y-85505218D01*
X137857699Y-85501055D01*
X137836776Y-85500332D01*
X137806919Y-85501616D01*
X137777399Y-85506225D01*
X137747403Y-85516701D01*
X137730970Y-85527150D01*
X137710788Y-85548720D01*
X137699015Y-85577844D01*
X137697850Y-85591630D01*
X137703749Y-85621526D01*
X137721444Y-85645559D01*
X137749169Y-85661551D01*
X137779284Y-85672395D01*
X137807977Y-85680625D01*
X137841905Y-85688937D01*
X137870867Y-85695719D01*
X137901683Y-85703509D01*
X137932204Y-85712116D01*
X137962852Y-85722418D01*
X137975701Y-85727771D01*
X138003186Y-85742569D01*
X138028585Y-85761431D01*
X138050276Y-85785122D01*
X138053517Y-85789760D01*
X138067867Y-85816903D01*
X138076261Y-85846747D01*
X138078723Y-85876222D01*
X138076018Y-85905995D01*
X138067903Y-85934680D01*
X138054379Y-85962278D01*
X138051026Y-85967667D01*
X138031445Y-85992642D01*
X138007142Y-86013897D01*
X137981231Y-86029845D01*
X137971744Y-86034491D01*
X137941626Y-86046038D01*
X137913141Y-86053130D01*
X137883044Y-86057235D01*
X137855387Y-86058378D01*
X137825545Y-86057518D01*
X137793086Y-86054339D01*
X137763166Y-86048819D01*
X137732080Y-86039641D01*
X137717781Y-86033905D01*
X137691576Y-86020139D01*
X137665666Y-86000996D01*
X137643534Y-85977980D01*
X137630879Y-85960486D01*
X137615521Y-85931851D01*
X137604892Y-85901176D01*
X137599415Y-85872197D01*
X137597760Y-85849404D01*
G37*
G36*
X162130894Y-96049000D02*
G01*
X162056741Y-96049000D01*
X162056741Y-95573898D01*
X162034279Y-95593352D01*
X162009560Y-95611185D01*
X161986400Y-95625775D01*
X161960070Y-95640636D01*
X161933124Y-95654074D01*
X161908291Y-95664464D01*
X161908291Y-95589432D01*
X161934789Y-95576156D01*
X161963235Y-95559557D01*
X161989720Y-95541438D01*
X162014246Y-95521799D01*
X162017174Y-95519237D01*
X162038771Y-95498803D01*
X162058995Y-95476187D01*
X162076409Y-95451520D01*
X162083120Y-95439369D01*
X162130894Y-95439369D01*
X162130894Y-96049000D01*
G37*
G36*
X156791389Y-81778658D02*
G01*
X156791389Y-81849000D01*
X156391905Y-81849000D01*
X156394281Y-81819479D01*
X156400552Y-81797415D01*
X156413278Y-81769462D01*
X156428573Y-81744320D01*
X156447418Y-81719436D01*
X156449498Y-81716962D01*
X156470740Y-81693649D01*
X156493592Y-81671292D01*
X156516652Y-81650467D01*
X156542574Y-81628464D01*
X156546511Y-81625224D01*
X156570133Y-81605383D01*
X156596851Y-81582070D01*
X156620450Y-81560409D01*
X156644651Y-81536598D01*
X156667207Y-81511827D01*
X156679575Y-81496117D01*
X156696364Y-81469733D01*
X156708574Y-81441368D01*
X156714170Y-81411324D01*
X156714306Y-81405992D01*
X156709855Y-81374558D01*
X156696501Y-81347080D01*
X156682652Y-81330960D01*
X156658740Y-81313523D01*
X156630325Y-81303323D01*
X156600587Y-81300332D01*
X156569154Y-81303610D01*
X156539404Y-81314785D01*
X156514711Y-81333891D01*
X156496387Y-81360028D01*
X156486220Y-81389108D01*
X156482356Y-81419612D01*
X156482178Y-81426948D01*
X156405974Y-81418888D01*
X156410411Y-81387493D01*
X156417899Y-81359035D01*
X156430489Y-81329546D01*
X156447231Y-81304054D01*
X156464885Y-81285385D01*
X156488937Y-81267455D01*
X156516341Y-81253929D01*
X156547096Y-81244807D01*
X156576126Y-81240493D01*
X156602199Y-81239369D01*
X156633514Y-81241075D01*
X156666832Y-81247375D01*
X156696686Y-81258317D01*
X156723076Y-81273902D01*
X156739805Y-81287876D01*
X156759562Y-81310206D01*
X156776200Y-81338439D01*
X156786499Y-81369566D01*
X156790312Y-81399176D01*
X156790510Y-81408043D01*
X156788067Y-81437498D01*
X156780739Y-81466566D01*
X156775709Y-81479851D01*
X156761846Y-81506765D01*
X156744287Y-81532377D01*
X156726469Y-81554003D01*
X156703493Y-81578225D01*
X156680637Y-81600238D01*
X156657575Y-81621317D01*
X156631308Y-81644435D01*
X156612017Y-81660981D01*
X156588687Y-81680966D01*
X156565701Y-81701039D01*
X156542846Y-81721715D01*
X156526288Y-81737918D01*
X156507107Y-81760762D01*
X156495074Y-81778658D01*
X156791389Y-81778658D01*
G37*
G36*
X150113427Y-115533284D02*
G01*
X150195053Y-115533284D01*
X150195053Y-115601281D01*
X150113427Y-115601281D01*
X150113427Y-115749000D01*
X150039275Y-115749000D01*
X150039275Y-115601281D01*
X149777104Y-115601281D01*
X149777104Y-115533284D01*
X149850084Y-115533284D01*
X150039275Y-115533284D01*
X150039275Y-115259244D01*
X149850084Y-115533284D01*
X149777104Y-115533284D01*
X150052903Y-115139369D01*
X150113427Y-115139369D01*
X150113427Y-115533284D01*
G37*
G36*
X160747300Y-84849000D02*
G01*
X160673147Y-84849000D01*
X160673147Y-84373898D01*
X160650685Y-84393352D01*
X160625966Y-84411185D01*
X160602806Y-84425775D01*
X160576476Y-84440636D01*
X160549530Y-84454074D01*
X160524697Y-84464464D01*
X160524697Y-84389432D01*
X160551195Y-84376156D01*
X160579641Y-84359557D01*
X160606126Y-84341438D01*
X160630652Y-84321799D01*
X160633580Y-84319237D01*
X160655177Y-84298803D01*
X160675401Y-84276187D01*
X160692815Y-84251520D01*
X160699526Y-84239369D01*
X160747300Y-84239369D01*
X160747300Y-84849000D01*
G37*
G36*
X161157432Y-84241896D02*
G01*
X161188170Y-84249478D01*
X161217309Y-84262113D01*
X161232806Y-84271316D01*
X161258401Y-84291349D01*
X161280286Y-84315670D01*
X161296626Y-84340889D01*
X161306958Y-84362028D01*
X161316836Y-84390326D01*
X161324288Y-84423673D01*
X161328745Y-84456275D01*
X161331097Y-84486277D01*
X161332211Y-84518855D01*
X161332310Y-84532607D01*
X161331695Y-84567725D01*
X161329849Y-84600539D01*
X161326772Y-84631049D01*
X161321455Y-84664620D01*
X161314366Y-84694872D01*
X161307104Y-84717548D01*
X161294963Y-84746111D01*
X161278201Y-84774907D01*
X161258363Y-84799600D01*
X161235447Y-84820190D01*
X161232366Y-84822475D01*
X161206464Y-84838183D01*
X161178437Y-84849403D01*
X161148285Y-84856134D01*
X161116009Y-84858378D01*
X161086219Y-84856464D01*
X161055213Y-84849588D01*
X161027449Y-84837711D01*
X161002928Y-84820833D01*
X161000091Y-84818371D01*
X160979904Y-84796271D01*
X160964187Y-84770121D01*
X160952940Y-84739924D01*
X160946765Y-84710180D01*
X160946162Y-84705678D01*
X161017530Y-84698937D01*
X161024734Y-84728506D01*
X161037648Y-84756698D01*
X161051968Y-84774115D01*
X161077157Y-84790043D01*
X161107843Y-84797051D01*
X161117621Y-84797415D01*
X161147796Y-84794034D01*
X161175938Y-84782975D01*
X161177558Y-84782028D01*
X161201005Y-84764076D01*
X161219763Y-84740995D01*
X161234096Y-84712855D01*
X161243847Y-84684639D01*
X161247460Y-84671386D01*
X161253801Y-84641089D01*
X161257510Y-84610445D01*
X161258598Y-84582286D01*
X161258158Y-84567632D01*
X161239164Y-84590919D01*
X161215596Y-84610661D01*
X161197341Y-84621854D01*
X161170100Y-84633701D01*
X161141368Y-84640631D01*
X161113957Y-84642663D01*
X161082232Y-84640055D01*
X161052708Y-84632229D01*
X161025387Y-84619185D01*
X161000267Y-84600925D01*
X160986902Y-84588148D01*
X160966688Y-84562572D01*
X160951439Y-84533671D01*
X160941155Y-84501447D01*
X160936291Y-84471181D01*
X160935244Y-84448783D01*
X161011228Y-84448783D01*
X161013987Y-84480253D01*
X161023524Y-84511113D01*
X161039873Y-84537652D01*
X161046106Y-84544771D01*
X161069479Y-84564245D01*
X161098826Y-84577336D01*
X161128810Y-84581664D01*
X161131982Y-84581700D01*
X161162419Y-84578094D01*
X161191734Y-84565796D01*
X161214598Y-84547043D01*
X161216685Y-84544771D01*
X161234228Y-84518913D01*
X161244461Y-84490894D01*
X161249432Y-84458377D01*
X161249951Y-84442482D01*
X161247826Y-84411487D01*
X161240356Y-84380647D01*
X161227507Y-84354073D01*
X161215953Y-84338727D01*
X161193358Y-84318480D01*
X161165397Y-84304869D01*
X161134180Y-84300332D01*
X161104468Y-84304368D01*
X161077245Y-84316475D01*
X161052513Y-84336654D01*
X161047865Y-84341658D01*
X161030155Y-84366840D01*
X161018241Y-84395893D01*
X161012516Y-84424969D01*
X161011228Y-84448783D01*
X160935244Y-84448783D01*
X160935025Y-84444094D01*
X160936931Y-84410789D01*
X160942650Y-84380010D01*
X160952181Y-84351754D01*
X160968119Y-84321981D01*
X160989247Y-84295643D01*
X161014280Y-84273716D01*
X161041936Y-84257175D01*
X161072215Y-84246019D01*
X161105116Y-84240249D01*
X161125094Y-84239369D01*
X161157432Y-84241896D01*
G37*
G36*
X152401431Y-115589558D02*
G01*
X152479393Y-115582963D01*
X152486065Y-115612792D01*
X152497720Y-115640687D01*
X152515698Y-115664992D01*
X152519547Y-115668692D01*
X152545011Y-115686196D01*
X152574144Y-115695620D01*
X152595604Y-115697415D01*
X152627432Y-115693380D01*
X152656054Y-115681272D01*
X152681471Y-115661094D01*
X152686169Y-115656090D01*
X152704163Y-115630722D01*
X152716267Y-115601113D01*
X152722083Y-115571231D01*
X152723392Y-115546620D01*
X152721157Y-115515873D01*
X152713300Y-115485377D01*
X152699787Y-115459216D01*
X152687635Y-115444184D01*
X152663217Y-115424401D01*
X152634478Y-115411944D01*
X152604917Y-115406998D01*
X152594285Y-115406669D01*
X152564316Y-115409922D01*
X152535132Y-115420630D01*
X152529658Y-115423668D01*
X152505298Y-115441721D01*
X152486347Y-115464283D01*
X152484229Y-115467632D01*
X152414620Y-115458546D01*
X152473092Y-115148748D01*
X152773657Y-115148748D01*
X152773657Y-115219090D01*
X152532443Y-115219090D01*
X152499910Y-115381463D01*
X152527488Y-115365819D01*
X152555707Y-115354645D01*
X152584567Y-115347941D01*
X152614069Y-115345706D01*
X152647505Y-115348342D01*
X152678571Y-115356252D01*
X152707267Y-115369436D01*
X152733593Y-115387893D01*
X152747572Y-115400807D01*
X152768814Y-115426364D01*
X152784838Y-115454951D01*
X152795645Y-115486567D01*
X152800756Y-115516078D01*
X152802087Y-115542370D01*
X152800407Y-115572466D01*
X152794202Y-115605586D01*
X152783425Y-115636560D01*
X152768076Y-115665388D01*
X152754313Y-115684666D01*
X152731007Y-115709717D01*
X152704723Y-115729584D01*
X152675462Y-115744269D01*
X152643222Y-115753771D01*
X152614081Y-115757731D01*
X152595604Y-115758378D01*
X152565731Y-115756756D01*
X152533575Y-115750760D01*
X152504322Y-115740346D01*
X152477972Y-115725515D01*
X152460928Y-115712217D01*
X152440300Y-115690519D01*
X152423935Y-115665946D01*
X152411833Y-115638499D01*
X152403995Y-115608176D01*
X152401431Y-115589558D01*
G37*
G36*
X165794930Y-98541326D02*
G01*
X165826156Y-98548353D01*
X165854139Y-98560491D01*
X165878880Y-98577740D01*
X165881745Y-98580256D01*
X165902252Y-98602576D01*
X165918198Y-98628799D01*
X165929583Y-98658923D01*
X165935803Y-98688483D01*
X165936407Y-98692949D01*
X165862694Y-98698811D01*
X165854066Y-98668421D01*
X165841083Y-98641718D01*
X165834557Y-98633159D01*
X165810047Y-98613155D01*
X165781581Y-98602384D01*
X165760405Y-98600332D01*
X165731029Y-98604063D01*
X165703228Y-98616340D01*
X165698123Y-98619823D01*
X165675793Y-98639888D01*
X165656960Y-98665425D01*
X165642875Y-98693389D01*
X165633101Y-98723766D01*
X165626962Y-98756238D01*
X165623559Y-98788873D01*
X165622104Y-98819982D01*
X165621919Y-98830995D01*
X165641759Y-98806853D01*
X165664404Y-98787421D01*
X165687425Y-98773842D01*
X165717046Y-98762412D01*
X165747656Y-98756257D01*
X165768612Y-98755085D01*
X165800051Y-98757707D01*
X165829359Y-98765575D01*
X165856536Y-98778689D01*
X165881580Y-98797047D01*
X165894934Y-98809893D01*
X165915262Y-98835343D01*
X165930597Y-98863864D01*
X165940940Y-98895458D01*
X165945831Y-98924982D01*
X165947104Y-98951309D01*
X165945157Y-98982749D01*
X165939315Y-99012938D01*
X165929577Y-99041874D01*
X165922485Y-99057408D01*
X165907258Y-99083132D01*
X165886913Y-99107473D01*
X165862962Y-99127348D01*
X165855074Y-99132440D01*
X165827198Y-99146118D01*
X165797062Y-99154731D01*
X165764665Y-99158277D01*
X165757914Y-99158378D01*
X165724333Y-99155972D01*
X165693164Y-99148754D01*
X165664405Y-99136725D01*
X165638058Y-99119883D01*
X165614122Y-99098229D01*
X165606679Y-99089942D01*
X165586807Y-99061161D01*
X165573389Y-99032415D01*
X165562825Y-98999340D01*
X165556430Y-98969763D01*
X165553554Y-98949404D01*
X165633497Y-98949404D01*
X165636181Y-98980639D01*
X165644235Y-99010762D01*
X165649763Y-99024289D01*
X165665108Y-99050536D01*
X165686394Y-99072527D01*
X165695192Y-99078804D01*
X165723314Y-99092163D01*
X165752723Y-99097343D01*
X165756741Y-99097415D01*
X165787440Y-99092844D01*
X165815057Y-99079129D01*
X165837488Y-99058727D01*
X165855340Y-99031828D01*
X165865753Y-99002969D01*
X165870514Y-98973619D01*
X165871340Y-98953508D01*
X165869252Y-98923255D01*
X165861910Y-98893272D01*
X165847553Y-98864987D01*
X165837928Y-98852831D01*
X165815356Y-98833433D01*
X165786627Y-98820394D01*
X165756963Y-98816084D01*
X165753811Y-98816048D01*
X165723883Y-98819640D01*
X165694401Y-98831889D01*
X165670725Y-98850568D01*
X165668521Y-98852831D01*
X165650051Y-98878067D01*
X165638422Y-98907797D01*
X165633804Y-98938396D01*
X165633497Y-98949404D01*
X165553554Y-98949404D01*
X165551861Y-98937415D01*
X165549121Y-98902297D01*
X165548207Y-98864408D01*
X165548775Y-98832305D01*
X165550479Y-98801887D01*
X165554518Y-98763950D01*
X165560577Y-98729008D01*
X165568655Y-98697061D01*
X165578753Y-98668109D01*
X165594216Y-98636130D01*
X165612834Y-98608832D01*
X165635372Y-98585226D01*
X165660672Y-98566503D01*
X165688733Y-98552665D01*
X165719555Y-98543711D01*
X165753140Y-98539641D01*
X165764948Y-98539369D01*
X165794930Y-98541326D01*
G37*
G36*
X147401871Y-115590144D02*
G01*
X147476023Y-115580179D01*
X147483515Y-115609149D01*
X147494615Y-115636551D01*
X147512023Y-115662581D01*
X147519400Y-115670011D01*
X147544356Y-115686711D01*
X147573063Y-115695703D01*
X147594285Y-115697415D01*
X147625472Y-115693866D01*
X147653453Y-115683219D01*
X147678228Y-115665473D01*
X147682799Y-115661072D01*
X147701810Y-115636669D01*
X147713779Y-115608888D01*
X147718708Y-115577730D01*
X147718849Y-115571093D01*
X147715586Y-115540888D01*
X147704459Y-115511729D01*
X147685437Y-115486829D01*
X147660336Y-115467890D01*
X147630975Y-115456812D01*
X147600587Y-115453563D01*
X147570201Y-115456769D01*
X147548123Y-115461770D01*
X147556476Y-115391868D01*
X147568346Y-115392600D01*
X147599847Y-115389726D01*
X147629061Y-115381102D01*
X147653636Y-115368274D01*
X147675245Y-115348432D01*
X147688589Y-115319677D01*
X147691591Y-115293242D01*
X147687020Y-115262891D01*
X147671873Y-115235290D01*
X147663894Y-115226711D01*
X147638849Y-115209632D01*
X147608483Y-115201260D01*
X147592673Y-115200332D01*
X147562269Y-115204124D01*
X147533890Y-115216790D01*
X147520573Y-115227297D01*
X147501826Y-115251312D01*
X147489747Y-115279988D01*
X147483497Y-115308190D01*
X147409344Y-115295001D01*
X147416905Y-115264158D01*
X147427789Y-115236513D01*
X147444298Y-115208834D01*
X147465149Y-115185332D01*
X147471040Y-115180109D01*
X147496622Y-115162285D01*
X147525152Y-115149554D01*
X147556632Y-115141916D01*
X147586596Y-115139409D01*
X147591061Y-115139369D01*
X147621169Y-115141430D01*
X147652535Y-115148457D01*
X147682066Y-115160472D01*
X147708359Y-115176816D01*
X147730010Y-115196830D01*
X147745667Y-115218211D01*
X147759151Y-115246217D01*
X147766412Y-115275501D01*
X147767795Y-115295734D01*
X147764337Y-115326269D01*
X147753961Y-115354531D01*
X147746839Y-115366808D01*
X147726451Y-115390613D01*
X147701663Y-115408765D01*
X147684557Y-115417660D01*
X147712826Y-115426788D01*
X147739777Y-115441906D01*
X147762034Y-115462262D01*
X147767795Y-115469390D01*
X147783483Y-115495869D01*
X147793361Y-115526211D01*
X147797283Y-115556823D01*
X147797544Y-115567722D01*
X147794781Y-115601443D01*
X147786492Y-115632850D01*
X147772678Y-115661943D01*
X147753338Y-115688721D01*
X147739805Y-115702984D01*
X147717086Y-115721810D01*
X147687886Y-115738850D01*
X147655782Y-115750589D01*
X147625953Y-115756431D01*
X147593992Y-115758378D01*
X147560469Y-115756141D01*
X147529526Y-115749431D01*
X147501163Y-115738246D01*
X147475382Y-115722587D01*
X147461808Y-115711630D01*
X147441008Y-115689789D01*
X147424514Y-115665296D01*
X147412325Y-115638153D01*
X147404442Y-115608359D01*
X147401871Y-115590144D01*
G37*
G36*
X138451947Y-96499000D02*
G01*
X138451947Y-95889369D01*
X138531961Y-95889369D01*
X138531961Y-96499000D01*
X138451947Y-96499000D01*
G37*
G36*
X138967517Y-95881402D02*
G01*
X138997149Y-95885637D01*
X139025617Y-95892695D01*
X139057359Y-95904498D01*
X139087515Y-95920144D01*
X139115408Y-95939233D01*
X139140229Y-95961365D01*
X139161978Y-95986541D01*
X139180657Y-96014760D01*
X139189951Y-96032251D01*
X139201953Y-96059859D01*
X139211472Y-96088827D01*
X139218508Y-96119155D01*
X139223061Y-96150844D01*
X139225130Y-96183892D01*
X139225268Y-96195210D01*
X139223960Y-96229152D01*
X139220034Y-96261733D01*
X139213491Y-96292954D01*
X139204331Y-96322815D01*
X139192553Y-96351316D01*
X139188046Y-96360514D01*
X139173055Y-96386585D01*
X139152818Y-96413862D01*
X139129622Y-96437759D01*
X139103467Y-96458277D01*
X139082972Y-96470863D01*
X139052712Y-96485481D01*
X139021427Y-96496508D01*
X138989119Y-96503945D01*
X138955787Y-96507792D01*
X138936280Y-96508378D01*
X138904930Y-96506926D01*
X138874848Y-96502567D01*
X138846033Y-96495303D01*
X138818485Y-96485133D01*
X138792204Y-96472057D01*
X138783726Y-96467053D01*
X138755912Y-96447464D01*
X138731197Y-96424986D01*
X138709581Y-96399619D01*
X138691066Y-96371363D01*
X138681877Y-96353919D01*
X138670123Y-96326753D01*
X138659484Y-96294316D01*
X138652155Y-96261080D01*
X138648508Y-96231956D01*
X138647334Y-96203270D01*
X138729797Y-96203270D01*
X138731232Y-96236567D01*
X138735536Y-96267582D01*
X138742709Y-96296313D01*
X138755105Y-96327778D01*
X138771633Y-96355956D01*
X138788562Y-96376927D01*
X138811645Y-96398491D01*
X138836819Y-96415594D01*
X138864085Y-96428236D01*
X138893443Y-96436415D01*
X138924892Y-96440133D01*
X138935840Y-96440381D01*
X138968569Y-96438130D01*
X138999052Y-96431376D01*
X139027288Y-96420118D01*
X139053279Y-96404358D01*
X139077022Y-96384096D01*
X139084438Y-96376341D01*
X139104259Y-96350440D01*
X139119980Y-96320768D01*
X139129947Y-96293160D01*
X139137067Y-96262934D01*
X139141339Y-96230088D01*
X139142763Y-96194624D01*
X139141571Y-96162959D01*
X139137995Y-96133103D01*
X139130988Y-96101197D01*
X139120867Y-96071654D01*
X139117850Y-96064638D01*
X139103947Y-96038434D01*
X139084846Y-96012698D01*
X139062082Y-95990927D01*
X139044870Y-95978616D01*
X139016917Y-95963810D01*
X138987132Y-95953850D01*
X138955516Y-95948735D01*
X138937159Y-95947988D01*
X138906120Y-95950059D01*
X138876750Y-95956272D01*
X138849050Y-95966628D01*
X138823019Y-95981125D01*
X138798657Y-95999765D01*
X138790907Y-96006899D01*
X138770139Y-96031708D01*
X138753668Y-96062060D01*
X138743225Y-96091588D01*
X138735765Y-96124966D01*
X138731946Y-96154440D01*
X138730036Y-96186377D01*
X138729797Y-96203270D01*
X138647334Y-96203270D01*
X138647292Y-96202244D01*
X138648554Y-96165464D01*
X138652339Y-96130739D01*
X138658647Y-96098071D01*
X138667479Y-96067459D01*
X138678834Y-96038903D01*
X138692712Y-96012404D01*
X138709114Y-95987960D01*
X138728039Y-95965573D01*
X138754463Y-95940918D01*
X138783176Y-95920442D01*
X138814180Y-95904144D01*
X138847473Y-95892025D01*
X138883057Y-95884086D01*
X138913172Y-95880743D01*
X138936720Y-95879990D01*
X138967517Y-95881402D01*
G37*
G36*
X139295024Y-96340144D02*
G01*
X139369176Y-96330179D01*
X139376668Y-96359149D01*
X139387768Y-96386551D01*
X139405176Y-96412581D01*
X139412554Y-96420011D01*
X139437510Y-96436711D01*
X139466217Y-96445703D01*
X139487439Y-96447415D01*
X139518625Y-96443866D01*
X139546606Y-96433219D01*
X139571382Y-96415473D01*
X139575952Y-96411072D01*
X139594963Y-96386669D01*
X139606933Y-96358888D01*
X139611862Y-96327730D01*
X139612002Y-96321093D01*
X139608739Y-96290888D01*
X139597613Y-96261729D01*
X139578590Y-96236829D01*
X139553489Y-96217890D01*
X139524128Y-96206812D01*
X139493740Y-96203563D01*
X139463355Y-96206769D01*
X139441277Y-96211770D01*
X139449630Y-96141868D01*
X139461500Y-96142600D01*
X139493000Y-96139726D01*
X139522215Y-96131102D01*
X139546790Y-96118274D01*
X139568399Y-96098432D01*
X139581743Y-96069677D01*
X139584745Y-96043242D01*
X139580174Y-96012891D01*
X139565027Y-95985290D01*
X139557048Y-95976711D01*
X139532002Y-95959632D01*
X139501636Y-95951260D01*
X139485827Y-95950332D01*
X139455423Y-95954124D01*
X139427044Y-95966790D01*
X139413726Y-95977297D01*
X139394980Y-96001312D01*
X139382901Y-96029988D01*
X139376650Y-96058190D01*
X139302498Y-96045001D01*
X139310058Y-96014158D01*
X139320943Y-95986513D01*
X139337452Y-95958834D01*
X139358303Y-95935332D01*
X139364194Y-95930109D01*
X139389775Y-95912285D01*
X139418306Y-95899554D01*
X139449785Y-95891916D01*
X139479750Y-95889409D01*
X139484215Y-95889369D01*
X139514322Y-95891430D01*
X139545689Y-95898457D01*
X139575219Y-95910472D01*
X139601512Y-95926816D01*
X139623164Y-95946830D01*
X139638820Y-95968211D01*
X139652305Y-95996217D01*
X139659566Y-96025501D01*
X139660949Y-96045734D01*
X139657490Y-96076269D01*
X139647114Y-96104531D01*
X139639993Y-96116808D01*
X139619604Y-96140613D01*
X139594816Y-96158765D01*
X139577711Y-96167660D01*
X139605980Y-96176788D01*
X139632930Y-96191906D01*
X139655187Y-96212262D01*
X139660949Y-96219390D01*
X139676636Y-96245869D01*
X139686514Y-96276211D01*
X139690436Y-96306823D01*
X139690697Y-96317722D01*
X139687935Y-96351443D01*
X139679646Y-96382850D01*
X139665831Y-96411943D01*
X139646491Y-96438721D01*
X139632958Y-96452984D01*
X139610240Y-96471810D01*
X139581039Y-96488850D01*
X139548935Y-96500589D01*
X139519107Y-96506431D01*
X139487145Y-96508378D01*
X139453622Y-96506141D01*
X139422679Y-96499431D01*
X139394317Y-96488246D01*
X139368535Y-96472587D01*
X139354961Y-96461630D01*
X139334161Y-96439789D01*
X139317667Y-96415296D01*
X139305478Y-96388153D01*
X139297595Y-96358359D01*
X139295024Y-96340144D01*
G37*
D11*
%TO.C,C207*%
X157340000Y-87292164D02*
X157340000Y-87507836D01*
X158060000Y-87292164D02*
X158060000Y-87507836D01*
%TO.C,C803*%
X142440000Y-101707836D02*
X142440000Y-101492164D01*
X143160000Y-101707836D02*
X143160000Y-101492164D01*
%TO.C,C402*%
X134840000Y-105607836D02*
X134840000Y-105392164D01*
X135560000Y-105607836D02*
X135560000Y-105392164D01*
%TO.C,C1601*%
X132360000Y-97069836D02*
X132360000Y-96854164D01*
X133080000Y-97069836D02*
X133080000Y-96854164D01*
%TO.C,TP899*%
X154950000Y-116500000D02*
G75*
G02*
X153050000Y-116500000I-950000J0D01*
G01*
X153050000Y-116500000D02*
G75*
G02*
X154950000Y-116500000I950000J0D01*
G01*
%TO.C,R202*%
X165020000Y-85646359D02*
X165020000Y-85953641D01*
X165780000Y-85646359D02*
X165780000Y-85953641D01*
%TO.C,TP803*%
X159250000Y-115200000D02*
G75*
G02*
X157350000Y-115200000I-950000J0D01*
G01*
X157350000Y-115200000D02*
G75*
G02*
X159250000Y-115200000I950000J0D01*
G01*
%TO.C,C1403*%
X149640000Y-112357836D02*
X149640000Y-112142164D01*
X150360000Y-112357836D02*
X150360000Y-112142164D01*
%TO.C,C906*%
X156907836Y-93540000D02*
X156692164Y-93540000D01*
X156907836Y-94260000D02*
X156692164Y-94260000D01*
%TO.C,TP203*%
X141950000Y-93750000D02*
G75*
G02*
X140050000Y-93750000I-950000J0D01*
G01*
X140050000Y-93750000D02*
G75*
G02*
X141950000Y-93750000I950000J0D01*
G01*
%TO.C,C301*%
X145007836Y-79740000D02*
X144792164Y-79740000D01*
X145007836Y-80460000D02*
X144792164Y-80460000D01*
%TO.C,L1401*%
X153640000Y-112810000D02*
X153640000Y-110290000D01*
X155760000Y-112810000D02*
X155760000Y-110290000D01*
D12*
%TO.C,J501*%
X148025000Y-107450000D02*
X148025000Y-106950000D01*
X155775000Y-107450000D02*
X155775000Y-106950000D01*
%TO.C,J701*%
X155800000Y-83400000D02*
X155800000Y-82800000D01*
X161800000Y-82900000D02*
X161800000Y-82800000D01*
X161800000Y-83400000D02*
X161800000Y-82900000D01*
D11*
%TO.C,C205*%
X162640000Y-87592164D02*
X162640000Y-87807836D01*
X163360000Y-87592164D02*
X163360000Y-87807836D01*
%TO.C,C401*%
X135040000Y-110192164D02*
X135040000Y-110407836D01*
X135760000Y-110192164D02*
X135760000Y-110407836D01*
D12*
%TO.C,IC301*%
X145950000Y-78100000D02*
X147650000Y-78100000D01*
X145950000Y-78949500D02*
X145950000Y-78100000D01*
X146300000Y-79300000D02*
X145950500Y-78950500D01*
X147650000Y-78100000D02*
X147650000Y-79300000D01*
X147650000Y-79300000D02*
X146300000Y-79300000D01*
D13*
X145925001Y-79400000D02*
G75*
G02*
X145774999Y-79400000I-75001J0D01*
G01*
X145774999Y-79400000D02*
G75*
G02*
X145925001Y-79400000I75001J0D01*
G01*
D11*
%TO.C,TP804*%
X141950000Y-96300000D02*
G75*
G02*
X140050000Y-96300000I-950000J0D01*
G01*
X140050000Y-96300000D02*
G75*
G02*
X141950000Y-96300000I950000J0D01*
G01*
%TO.C,TP301*%
X142450000Y-115000000D02*
G75*
G02*
X140550000Y-115000000I-950000J0D01*
G01*
X140550000Y-115000000D02*
G75*
G02*
X142450000Y-115000000I950000J0D01*
G01*
%TO.C,TP204*%
X149950000Y-116500000D02*
G75*
G02*
X148050000Y-116500000I-950000J0D01*
G01*
X148050000Y-116500000D02*
G75*
G02*
X149950000Y-116500000I950000J0D01*
G01*
%TO.C,C1305*%
X164392164Y-101340000D02*
X164607836Y-101340000D01*
X164392164Y-102060000D02*
X164607836Y-102060000D01*
%TO.C,R203*%
X163820000Y-87853641D02*
X163820000Y-87546359D01*
X164580000Y-87853641D02*
X164580000Y-87546359D01*
%TO.C,C1407*%
X151207836Y-109140000D02*
X150992164Y-109140000D01*
X151207836Y-109860000D02*
X150992164Y-109860000D01*
%TO.C,R804*%
X140846359Y-100920000D02*
X141153641Y-100920000D01*
X140846359Y-101680000D02*
X141153641Y-101680000D01*
%TO.C,J1701*%
X156599997Y-106699999D02*
X156600000Y-111700000D01*
X157189701Y-112733216D02*
X159384042Y-114030945D01*
X159384042Y-104369055D02*
X157189698Y-105666783D01*
X160615958Y-104369055D02*
X162810299Y-105666784D01*
X160615958Y-114030945D02*
X162810302Y-112733217D01*
X163400003Y-111700001D02*
X163400000Y-106700000D01*
X156599997Y-106699999D02*
G75*
G02*
X157189698Y-105666783I1200003J-1D01*
G01*
X157189701Y-112733216D02*
G75*
G02*
X156600001Y-111700000I610302J1033217D01*
G01*
X159384042Y-104369055D02*
G75*
G02*
X160615958Y-104369055I615958J-1030944D01*
G01*
X160615958Y-114030945D02*
G75*
G02*
X159384042Y-114030945I-615958J1030944D01*
G01*
X162810299Y-105666784D02*
G75*
G02*
X163400000Y-106700000I-610299J-1033216D01*
G01*
X163400003Y-111700001D02*
G75*
G02*
X162810302Y-112733217I-1200003J1D01*
G01*
X160900000Y-107950000D02*
G75*
G02*
X159100000Y-107950000I-900000J0D01*
G01*
X159100000Y-107950000D02*
G75*
G02*
X160900000Y-107950000I900000J0D01*
G01*
X161000000Y-107950000D02*
G75*
G02*
X159000000Y-107950000I-1000000J0D01*
G01*
X159000000Y-107950000D02*
G75*
G02*
X161000000Y-107950000I1000000J0D01*
G01*
%TO.C,Y801*%
X155450000Y-101050000D02*
X152750000Y-101050000D01*
X155450000Y-103350000D02*
X155450000Y-101050000D01*
D14*
%TO.C,U801*%
X144269200Y-90069200D02*
X144269200Y-100330800D01*
X144269200Y-100330800D02*
X154530800Y-100330800D01*
X144396200Y-92399904D02*
X144142200Y-92399904D01*
X144396200Y-96399896D02*
X144142200Y-96399896D01*
X148200104Y-90196200D02*
X148200104Y-89942200D01*
X148200104Y-100203800D02*
X148200104Y-100457800D01*
X152200096Y-90196200D02*
X152200096Y-89942200D01*
X152200096Y-100203800D02*
X152200096Y-100457800D01*
X154403800Y-92399904D02*
X154657800Y-92399904D01*
X154403800Y-96399896D02*
X154657800Y-96399896D01*
X154530800Y-90069200D02*
X144269200Y-90069200D01*
X154530800Y-100330800D02*
X154530800Y-90069200D01*
D11*
%TO.C,C1306*%
X162740000Y-102692164D02*
X162740000Y-102907836D01*
X163460000Y-102692164D02*
X163460000Y-102907836D01*
%TO.C,R809*%
X162346359Y-100220000D02*
X162653641Y-100220000D01*
X162346359Y-100980000D02*
X162653641Y-100980000D01*
%TO.C,FL401*%
D10*
X133900000Y-107837500D02*
X135500000Y-107837500D01*
X135500000Y-109137500D01*
X133900000Y-109137500D01*
X133900000Y-107837500D01*
D15*
X133587500Y-108487500D02*
G75*
G02*
X133412500Y-108487500I-87500J0D01*
G01*
X133412500Y-108487500D02*
G75*
G02*
X133587500Y-108487500I87500J0D01*
G01*
D16*
%TO.C,IC1302*%
X166500000Y-108300000D02*
G75*
G02*
X166250000Y-108300000I-125000J0D01*
G01*
X166250000Y-108300000D02*
G75*
G02*
X166500000Y-108300000I125000J0D01*
G01*
D11*
%TO.C,R811*%
X164346359Y-100220000D02*
X164653641Y-100220000D01*
X164346359Y-100980000D02*
X164653641Y-100980000D01*
%TO.C,C1408*%
X149307836Y-109140000D02*
X149092164Y-109140000D01*
X149307836Y-109860000D02*
X149092164Y-109860000D01*
%TO.C,C804*%
X146240000Y-101707836D02*
X146240000Y-101492164D01*
X146960000Y-101707836D02*
X146960000Y-101492164D01*
%TO.C,TP202*%
X135950000Y-86800000D02*
G75*
G02*
X134050000Y-86800000I-950000J0D01*
G01*
X134050000Y-86800000D02*
G75*
G02*
X135950000Y-86800000I950000J0D01*
G01*
D12*
%TO.C,U202*%
X160250000Y-91850000D02*
X160250000Y-91850000D01*
X160250000Y-91950000D02*
X160250000Y-91950000D01*
X160500000Y-91600000D02*
X161100000Y-91600000D01*
X161100000Y-93200000D02*
X160500000Y-93200000D01*
X161500000Y-91600000D02*
X162100000Y-91600000D01*
X162100000Y-93200000D02*
X161500000Y-93200000D01*
X160250000Y-91850000D02*
G75*
G02*
X160250000Y-91950000I0J-50000D01*
G01*
X160250000Y-91950000D02*
G75*
G02*
X160250000Y-91850000I0J50000D01*
G01*
D17*
%TO.C,IC201*%
X159235000Y-85135000D02*
X162165000Y-85135000D01*
X159235000Y-87600000D02*
X159235000Y-85135000D01*
D12*
X159235000Y-88015000D02*
X159235000Y-88015000D01*
X159235000Y-88115000D02*
X159235000Y-88115000D01*
D17*
X159700000Y-88065000D02*
X159235000Y-87600000D01*
X162165000Y-85135000D02*
X162165000Y-88065000D01*
X162165000Y-88065000D02*
X159700000Y-88065000D01*
D12*
X159235000Y-88015000D02*
G75*
G02*
X159235000Y-88115000I0J-50000D01*
G01*
X159235000Y-88115000D02*
G75*
G02*
X159235000Y-88015000I0J50000D01*
G01*
D11*
%TO.C,TP802*%
X152450000Y-116500000D02*
G75*
G02*
X150550000Y-116500000I-950000J0D01*
G01*
X150550000Y-116500000D02*
G75*
G02*
X152450000Y-116500000I950000J0D01*
G01*
%TO.C,C1602*%
X132360000Y-93149836D02*
X132360000Y-92934164D01*
X133080000Y-93149836D02*
X133080000Y-92934164D01*
%TO.C,TP303*%
X147450000Y-116500000D02*
G75*
G02*
X145550000Y-116500000I-950000J0D01*
G01*
X145550000Y-116500000D02*
G75*
G02*
X147450000Y-116500000I950000J0D01*
G01*
%TO.C,C1405*%
X148640000Y-112142164D02*
X148640000Y-112357836D01*
X149360000Y-112142164D02*
X149360000Y-112357836D01*
D14*
%TO.C,MIC1201*%
X164152200Y-89179000D02*
X164152200Y-91049360D01*
X165244434Y-92938200D02*
X165955566Y-92938200D01*
X165388567Y-89179000D02*
X164152200Y-89179000D01*
X167047800Y-89179000D02*
X165811433Y-89179000D01*
X167047800Y-91049360D02*
X167047800Y-89179000D01*
X164676200Y-93358600D02*
G75*
G02*
X164523800Y-93358600I-76200J0D01*
G01*
X164523800Y-93358600D02*
G75*
G02*
X164676200Y-93358600I76200J0D01*
G01*
D11*
%TO.C,C802*%
X155640000Y-102307836D02*
X155640000Y-102092164D01*
X156360000Y-102307836D02*
X156360000Y-102092164D01*
%TO.C,C1201*%
X162940000Y-92207836D02*
X162940000Y-91992164D01*
X163660000Y-92207836D02*
X163660000Y-91992164D01*
%TO.C,C202*%
X162640000Y-85692164D02*
X162640000Y-85907836D01*
X163360000Y-85692164D02*
X163360000Y-85907836D01*
%TO.C,TP801*%
X156650000Y-114500000D02*
G75*
G02*
X154750000Y-114500000I-950000J0D01*
G01*
X154750000Y-114500000D02*
G75*
G02*
X156650000Y-114500000I950000J0D01*
G01*
D12*
%TO.C,Q201*%
X157800000Y-79700000D02*
X157800000Y-79700000D01*
X157800000Y-79800000D02*
X157800000Y-79800000D01*
X157800000Y-79700000D02*
G75*
G02*
X157800000Y-79800000I0J-50000D01*
G01*
X157800000Y-79800000D02*
G75*
G02*
X157800000Y-79700000I0J50000D01*
G01*
%TO.C,D201*%
X159750000Y-92890000D02*
G75*
G02*
X159650000Y-92890000I-50000J0D01*
G01*
X159650000Y-92890000D02*
G75*
G02*
X159750000Y-92890000I50000J0D01*
G01*
D11*
%TO.C,R201*%
X163820000Y-85646359D02*
X163820000Y-85953641D01*
X164580000Y-85646359D02*
X164580000Y-85953641D01*
%TO.C,R1406*%
X154353641Y-104020000D02*
X154046359Y-104020000D01*
X154353641Y-104780000D02*
X154046359Y-104780000D01*
D17*
%TO.C,U401*%
X138000000Y-103250000D02*
X145200000Y-103250000D01*
X138000000Y-113350000D02*
X145200000Y-113350000D01*
D12*
X147400000Y-112700000D02*
X147400000Y-112700000D01*
X147500000Y-112700000D02*
X147500000Y-112700000D01*
X147400000Y-112700000D02*
G75*
G02*
X147500000Y-112700000I50000J0D01*
G01*
X147500000Y-112700000D02*
G75*
G02*
X147400000Y-112700000I-50000J0D01*
G01*
%TO.C,U301*%
X146650000Y-89012500D02*
X138350000Y-89012500D01*
X138350000Y-80912500D01*
X146650000Y-80912500D01*
X146650000Y-89012500D01*
D10*
X145875000Y-80462500D02*
G75*
G02*
X145725000Y-80462500I-75000J0D01*
G01*
X145725000Y-80462500D02*
G75*
G02*
X145875000Y-80462500I75000J0D01*
G01*
D11*
%TO.C,C1307*%
X165107836Y-108452500D02*
X164892164Y-108452500D01*
X165107836Y-109172500D02*
X164892164Y-109172500D01*
%TO.C,U201*%
D12*
X165049421Y-88300000D02*
X166249421Y-88300000D01*
X166249421Y-87100000D01*
X165049421Y-87100000D01*
X165049421Y-88300000D01*
X164899421Y-88500000D02*
G75*
G02*
X164799421Y-88500000I-50000J0D01*
G01*
X164799421Y-88500000D02*
G75*
G02*
X164899421Y-88500000I50000J0D01*
G01*
%TO.C,IC1301*%
X164100000Y-105000000D02*
X164100000Y-105000000D01*
X164100000Y-105100000D02*
X164100000Y-105100000D01*
X164100000Y-105000000D02*
G75*
G02*
X164100000Y-105100000I0J-50000D01*
G01*
X164100000Y-105100000D02*
G75*
G02*
X164100000Y-105000000I0J50000D01*
G01*
D11*
%TO.C,C1409*%
X149307836Y-110140000D02*
X149092164Y-110140000D01*
X149307836Y-110860000D02*
X149092164Y-110860000D01*
%TO.C,C801*%
X151840000Y-102092164D02*
X151840000Y-102307836D01*
X152560000Y-102092164D02*
X152560000Y-102307836D01*
%TO.C,R1601*%
X135454359Y-94655000D02*
X135761641Y-94655000D01*
X135454359Y-95415000D02*
X135761641Y-95415000D01*
%TO.C,C303*%
X146692164Y-79740000D02*
X146907836Y-79740000D01*
X146692164Y-80460000D02*
X146907836Y-80460000D01*
D14*
%TO.C,U1401*%
X150729200Y-110229200D02*
X150729200Y-112870800D01*
X150729200Y-112870800D02*
X153370800Y-112870800D01*
X153370800Y-110229200D02*
X150729200Y-110229200D01*
X153370800Y-112870800D02*
X153370800Y-110229200D01*
D17*
X153750000Y-113150000D02*
G75*
G02*
X153550000Y-113150000I-100000J0D01*
G01*
X153550000Y-113150000D02*
G75*
G02*
X153750000Y-113150000I100000J0D01*
G01*
D11*
%TO.C,TP201*%
X164250000Y-83600000D02*
G75*
G02*
X162350000Y-83600000I-950000J0D01*
G01*
X162350000Y-83600000D02*
G75*
G02*
X164250000Y-83600000I950000J0D01*
G01*
D12*
%TO.C,IC401*%
X133400000Y-107387500D02*
X133400000Y-107387500D01*
X133400000Y-107487500D02*
X133400000Y-107487500D01*
D11*
X133125000Y-107262500D02*
X134475000Y-107262500D01*
X134475000Y-106312500D01*
X133125000Y-106312500D01*
X133125000Y-107262500D01*
D12*
X133400000Y-107387500D02*
G75*
G02*
X133400000Y-107487500I0J-50000D01*
G01*
X133400000Y-107487500D02*
G75*
G02*
X133400000Y-107387500I0J50000D01*
G01*
D11*
%TO.C,C1501*%
X166292164Y-93740000D02*
X166507836Y-93740000D01*
X166292164Y-94460000D02*
X166507836Y-94460000D01*
%TO.C,IC1801*%
X140550000Y-99200000D02*
X141450000Y-99200000D01*
X141450000Y-100400000D01*
X140550000Y-100400000D01*
X140550000Y-99200000D01*
D18*
X140755000Y-99000000D02*
G75*
G02*
X140645000Y-99000000I-55000J0D01*
G01*
X140645000Y-99000000D02*
G75*
G02*
X140755000Y-99000000I55000J0D01*
G01*
D11*
%TO.C,C1404*%
X154842164Y-109140000D02*
X155057836Y-109140000D01*
X154842164Y-109860000D02*
X155057836Y-109860000D01*
%TO.C,L202*%
X160560000Y-88740000D02*
X158040000Y-88740000D01*
X160560000Y-90860000D02*
X158040000Y-90860000D01*
%TO.C,C304*%
X143107836Y-79740000D02*
X142892164Y-79740000D01*
X143107836Y-80460000D02*
X142892164Y-80460000D01*
%TO.C,Y802*%
X143500000Y-102400000D02*
X145900000Y-102400000D01*
X145900000Y-100800000D02*
X143500000Y-100800000D01*
X145900000Y-102400000D02*
X145900000Y-100800000D01*
%TO.C,R1405*%
X156253641Y-104020000D02*
X155946359Y-104020000D01*
X156253641Y-104780000D02*
X155946359Y-104780000D01*
D12*
%TO.C,D202*%
X158750000Y-92890000D02*
G75*
G02*
X158650000Y-92890000I-50000J0D01*
G01*
X158650000Y-92890000D02*
G75*
G02*
X158750000Y-92890000I50000J0D01*
G01*
D11*
%TO.C,TP302*%
X144950000Y-116000000D02*
G75*
G02*
X143050000Y-116000000I-950000J0D01*
G01*
X143050000Y-116000000D02*
G75*
G02*
X144950000Y-116000000I950000J0D01*
G01*
%TO.C,C1001*%
X155140000Y-80192164D02*
X155140000Y-80407836D01*
X155860000Y-80192164D02*
X155860000Y-80407836D01*
D10*
%TO.C,SW1501*%
X166700000Y-95825000D02*
X166700000Y-95250000D01*
X166700000Y-100250000D02*
X166700000Y-99675000D01*
X167675000Y-95250000D02*
X166700000Y-95250000D01*
X167675000Y-100250000D02*
X166700000Y-100250000D01*
D11*
%TO.C,R802*%
X141153641Y-97920000D02*
X140846359Y-97920000D01*
X141153641Y-98680000D02*
X140846359Y-98680000D01*
%TO.C,R810*%
X164346359Y-105020000D02*
X164653641Y-105020000D01*
X164346359Y-105780000D02*
X164653641Y-105780000D01*
%TO.C,TP205*%
X137750000Y-84200000D02*
G75*
G02*
X135850000Y-84200000I-950000J0D01*
G01*
X135850000Y-84200000D02*
G75*
G02*
X137750000Y-84200000I950000J0D01*
G01*
%TO.C,C1406*%
X152892164Y-109140000D02*
X153107836Y-109140000D01*
X152892164Y-109860000D02*
X153107836Y-109860000D01*
D17*
%TO.C,IC1001*%
X148500000Y-80800000D02*
X150500000Y-78800000D01*
X148500000Y-86800000D02*
X148500000Y-80800000D01*
X150500000Y-78800000D02*
X154500000Y-78800000D01*
X154500000Y-78800000D02*
X154500000Y-86800000D01*
X154500000Y-86800000D02*
X148500000Y-86800000D01*
X148600000Y-78800000D02*
G75*
G02*
X148400000Y-78800000I-100000J0D01*
G01*
X148400000Y-78800000D02*
G75*
G02*
X148600000Y-78800000I100000J0D01*
G01*
D11*
%TO.C,L901*%
X155740000Y-94240000D02*
X155740000Y-96760000D01*
X157860000Y-94240000D02*
X157860000Y-96760000D01*
%TO.C,C1303*%
X161740000Y-102692164D02*
X161740000Y-102907836D01*
X162460000Y-102692164D02*
X162460000Y-102907836D01*
%TO.C,C1301*%
X166640000Y-103107836D02*
X166640000Y-102892164D01*
X167360000Y-103107836D02*
X167360000Y-102892164D01*
D17*
%TO.C,ANT1601*%
X132931000Y-96436000D02*
X132931000Y-96436000D01*
X132931000Y-96536000D02*
X132931000Y-96536000D01*
X132931000Y-96536000D02*
X132931000Y-96536000D01*
X132931000Y-96436000D02*
G75*
G02*
X132931000Y-96536000I0J-50000D01*
G01*
X132931000Y-96436000D02*
G75*
G02*
X132931000Y-96536000I0J-50000D01*
G01*
X132931000Y-96536000D02*
G75*
G02*
X132931000Y-96436000I0J50000D01*
G01*
D12*
%TO.C,D203*%
X157750000Y-92890000D02*
G75*
G02*
X157650000Y-92890000I-50000J0D01*
G01*
X157650000Y-92890000D02*
G75*
G02*
X157750000Y-92890000I50000J0D01*
G01*
D11*
%TO.C,R601*%
X164453641Y-93720000D02*
X164146359Y-93720000D01*
X164453641Y-94480000D02*
X164146359Y-94480000D01*
%TO.C,C1101*%
X160392164Y-100240000D02*
X160607836Y-100240000D01*
X160392164Y-100960000D02*
X160607836Y-100960000D01*
%TO.C,R812*%
X166620000Y-105053641D02*
X166620000Y-104746359D01*
X167380000Y-105053641D02*
X167380000Y-104746359D01*
%TO.C,L201*%
X163360000Y-88740000D02*
X160840000Y-88740000D01*
X163360000Y-90860000D02*
X160840000Y-90860000D01*
D12*
%TO.C,IC302*%
X143550000Y-78100000D02*
X145250000Y-78100000D01*
X143550000Y-78949500D02*
X143550000Y-78100000D01*
X143900000Y-79300000D02*
X143550500Y-78950500D01*
X145250000Y-78100000D02*
X145250000Y-79300000D01*
X145250000Y-79300000D02*
X143900000Y-79300000D01*
D13*
X143525001Y-79400000D02*
G75*
G02*
X143374999Y-79400000I-75001J0D01*
G01*
X143374999Y-79400000D02*
G75*
G02*
X143525001Y-79400000I75001J0D01*
G01*
D12*
%TO.C,IC1101*%
X159250000Y-101900000D02*
X160600000Y-101900000D01*
X159250000Y-103100000D02*
X159250000Y-101900000D01*
X160600000Y-101900000D02*
X160949500Y-102249500D01*
X160950000Y-102250500D02*
X160950000Y-103100000D01*
X160950000Y-103100000D02*
X159250000Y-103100000D01*
D13*
X161125001Y-101800000D02*
G75*
G02*
X160974999Y-101800000I-75001J0D01*
G01*
X160974999Y-101800000D02*
G75*
G02*
X161125001Y-101800000I75001J0D01*
G01*
%TD*%
%LPC*%
%TO.C,MIC1201*%
D19*
X165752400Y-90345600D02*
G75*
G02*
X165447600Y-90345600I-152400J0D01*
G01*
X165447600Y-90345600D02*
G75*
G02*
X165752400Y-90345600I152400J0D01*
G01*
D20*
G36*
X165866867Y-89524668D02*
G01*
X166107611Y-89647333D01*
X166298667Y-89838389D01*
X166421332Y-90079133D01*
X166463600Y-90346000D01*
X166421332Y-90612867D01*
X166298667Y-90853611D01*
X166107611Y-91044667D01*
X165866867Y-91167332D01*
X165600000Y-91209600D01*
X165524732Y-91206314D01*
X165556832Y-90839415D01*
X165600000Y-90841300D01*
X165753056Y-90817058D01*
X165891130Y-90746706D01*
X166000706Y-90637130D01*
X166071058Y-90499056D01*
X166095300Y-90346000D01*
X166071058Y-90192944D01*
X166000706Y-90054870D01*
X165891130Y-89945294D01*
X165753056Y-89874942D01*
X165600000Y-89850700D01*
X165556832Y-89852585D01*
X165524732Y-89485686D01*
X165600000Y-89482400D01*
X165866867Y-89524668D01*
G37*
G36*
X165675268Y-89485686D02*
G01*
X165643168Y-89852585D01*
X165600000Y-89850700D01*
X165446944Y-89874942D01*
X165308870Y-89945294D01*
X165199294Y-90054870D01*
X165128942Y-90192944D01*
X165104700Y-90346000D01*
X165128942Y-90499056D01*
X165199294Y-90637130D01*
X165308870Y-90746706D01*
X165446944Y-90817058D01*
X165600000Y-90841300D01*
X165643168Y-90839415D01*
X165675268Y-91206314D01*
X165600000Y-91209600D01*
X165333133Y-91167332D01*
X165092389Y-91044667D01*
X164901333Y-90853611D01*
X164778668Y-90612867D01*
X164736400Y-90346000D01*
X164778668Y-90079133D01*
X164901333Y-89838389D01*
X165092389Y-89647333D01*
X165333133Y-89524668D01*
X165600000Y-89482400D01*
X165675268Y-89485686D01*
G37*
%TD*%
D21*
%TO.C,C207*%
X157700000Y-86920000D03*
X157700000Y-87880000D03*
%TD*%
D22*
%TO.C,C803*%
X142800000Y-102080000D03*
X142800000Y-101120000D03*
%TD*%
%TO.C,C402*%
X135200000Y-105980000D03*
X135200000Y-105020000D03*
%TD*%
%TO.C,C1601*%
X132720000Y-97442000D03*
X132720000Y-96482000D03*
%TD*%
D23*
%TO.C,TP899*%
X154000000Y-116500000D03*
%TD*%
D24*
%TO.C,R202*%
X165400000Y-85290000D03*
X165400000Y-86310000D03*
%TD*%
D23*
%TO.C,TP803*%
X158300000Y-115200000D03*
%TD*%
D22*
%TO.C,C1403*%
X150000000Y-112730000D03*
X150000000Y-111770000D03*
%TD*%
D25*
%TO.C,C906*%
X156320000Y-93900000D03*
X157280000Y-93900000D03*
%TD*%
D23*
%TO.C,TP203*%
X141000000Y-93750000D03*
%TD*%
D26*
%TO.C,C301*%
X145380000Y-80100000D03*
X144420000Y-80100000D03*
%TD*%
D27*
%TO.C,L1401*%
X154700000Y-112275000D03*
X154700000Y-110825000D03*
%TD*%
D28*
%TO.C,J501*%
X154350000Y-108000000D03*
X154000000Y-108000000D03*
X153650000Y-108000000D03*
X153300000Y-108000000D03*
X152950000Y-108000000D03*
X152600000Y-108000000D03*
X152250000Y-108000000D03*
X151900000Y-108000000D03*
X151550000Y-108000000D03*
X151200000Y-108000000D03*
X150850000Y-108000000D03*
X150500000Y-108000000D03*
X150150000Y-108000000D03*
X149800000Y-108000000D03*
X149450000Y-108000000D03*
X149450000Y-106400000D03*
X149800000Y-106400000D03*
X150150000Y-106400000D03*
X150500000Y-106400000D03*
X150850000Y-106400000D03*
X151200000Y-106400000D03*
X151550000Y-106400000D03*
X151900000Y-106400000D03*
X152250000Y-106400000D03*
X152600000Y-106400000D03*
X152950000Y-106400000D03*
X153300000Y-106400000D03*
X153650000Y-106400000D03*
X154000000Y-106400000D03*
X154350000Y-106400000D03*
D29*
X155500000Y-106400000D03*
D30*
X155030000Y-106490000D03*
X148770000Y-106490000D03*
D29*
X148300000Y-106400000D03*
X148300000Y-108000000D03*
D30*
X148770000Y-107910000D03*
X155030000Y-107910000D03*
D29*
X155500000Y-108000000D03*
%TD*%
D28*
%TO.C,J701*%
X157210000Y-83900000D03*
X157210000Y-82300000D03*
X157560000Y-83900000D03*
X157560000Y-82300000D03*
X157910000Y-83900000D03*
X157910000Y-82300000D03*
X158260000Y-83900000D03*
X158260000Y-82300000D03*
X158610000Y-83900000D03*
X158610000Y-82300000D03*
X158960000Y-83900000D03*
X158960000Y-82300000D03*
X159310000Y-83900000D03*
X159310000Y-82300000D03*
X159660000Y-83900000D03*
X159660000Y-82300000D03*
X160010000Y-83900000D03*
X160010000Y-82300000D03*
X160360000Y-83900000D03*
X160360000Y-82300000D03*
D29*
X156060000Y-82300000D03*
D31*
X156530000Y-82395000D03*
D29*
X156060000Y-83900000D03*
D31*
X156530000Y-83805000D03*
X161040000Y-83805000D03*
D29*
X161510000Y-83900000D03*
D31*
X161040000Y-82395000D03*
D29*
X161540000Y-82300000D03*
%TD*%
D21*
%TO.C,C205*%
X163000000Y-87220000D03*
X163000000Y-88180000D03*
%TD*%
%TO.C,C401*%
X135400000Y-109820000D03*
X135400000Y-110780000D03*
%TD*%
D32*
%TO.C,IC301*%
X146300000Y-78950000D03*
X146300000Y-78450000D03*
X146800000Y-78950000D03*
X146800000Y-78450000D03*
X147300000Y-78950000D03*
X147300000Y-78450000D03*
%TD*%
D33*
%TO.C,L1601*%
X132715000Y-103800000D03*
X133685000Y-103800000D03*
%TD*%
D23*
%TO.C,TP804*%
X141000000Y-96300000D03*
%TD*%
%TO.C,TP301*%
X141500000Y-115000000D03*
%TD*%
D34*
%TO.C,L1602*%
X132720000Y-91665000D03*
X132720000Y-90695000D03*
%TD*%
D23*
%TO.C,TP204*%
X149000000Y-116500000D03*
%TD*%
D25*
%TO.C,C1305*%
X164020000Y-101700000D03*
X164980000Y-101700000D03*
%TD*%
D35*
%TO.C,R203*%
X164200000Y-88210000D03*
X164200000Y-87190000D03*
%TD*%
D26*
%TO.C,C1407*%
X151580000Y-109500000D03*
X150620000Y-109500000D03*
%TD*%
D36*
%TO.C,R804*%
X140490000Y-101300000D03*
X141510000Y-101300000D03*
%TD*%
D23*
%TO.C,J1701*%
X157800000Y-106700000D03*
X157800000Y-109200000D03*
X157800000Y-111700000D03*
X160000000Y-105450000D03*
X160000000Y-107950000D03*
X160000000Y-110450000D03*
X160000000Y-112950000D03*
X162200000Y-106700000D03*
X162200000Y-109200000D03*
X162200000Y-111700000D03*
%TD*%
D37*
%TO.C,Y801*%
X154800000Y-101650000D03*
X153400000Y-101650000D03*
X153400000Y-102750000D03*
X154800000Y-102750000D03*
%TD*%
D38*
%TO.C,U801*%
X145000000Y-99600000D03*
X145000000Y-98800000D03*
X145000000Y-98000000D03*
X145000000Y-97200000D03*
X145000000Y-96400000D03*
X145000000Y-95600000D03*
X145000000Y-94800000D03*
X145000000Y-94000000D03*
X145000000Y-93200000D03*
X145000000Y-92400001D03*
X145000000Y-91600001D03*
X145000000Y-90800001D03*
X145800000Y-99600000D03*
X145800000Y-98800000D03*
X145800000Y-98000000D03*
X145800000Y-97200000D03*
X145800000Y-96400000D03*
X145800000Y-95600000D03*
X145800000Y-94800000D03*
X145800000Y-94000000D03*
X145800000Y-93200000D03*
X145800000Y-92400001D03*
X145800000Y-91600001D03*
X145800000Y-90800001D03*
X146600000Y-99600000D03*
X146600000Y-98800000D03*
X146600000Y-98000000D03*
X146600000Y-97200000D03*
X146600000Y-96400000D03*
X146600000Y-95600000D03*
X146600000Y-94800000D03*
X146600000Y-94000000D03*
X146600000Y-93200000D03*
X146600000Y-92400001D03*
X146600000Y-91600001D03*
X146600000Y-90800001D03*
X147400000Y-99600000D03*
X147400000Y-98800000D03*
X147400000Y-98000000D03*
X147400000Y-97200000D03*
X147400000Y-96400000D03*
X147400000Y-95600000D03*
X147400000Y-94800000D03*
X147400000Y-94000000D03*
X147400000Y-93200000D03*
X147400000Y-92400001D03*
X147400000Y-91600001D03*
X147400000Y-90800001D03*
X148200000Y-99600000D03*
X148200000Y-98800000D03*
X148200000Y-98000000D03*
X148200000Y-97200000D03*
X148200000Y-96400000D03*
X148200000Y-95600000D03*
X148200000Y-94800000D03*
X148200000Y-94000000D03*
X148200000Y-93200000D03*
X148200000Y-92400001D03*
X148200000Y-91600001D03*
X148200000Y-90800001D03*
X149000000Y-99600000D03*
X149000000Y-98800000D03*
X149000000Y-98000000D03*
X149000000Y-97200000D03*
X149000000Y-96400000D03*
X149000000Y-95600000D03*
X149000000Y-94800000D03*
X149000000Y-94000000D03*
X149000000Y-93200000D03*
X149000000Y-92400001D03*
X149000000Y-91600001D03*
X149000000Y-90800001D03*
X149800000Y-99600000D03*
X149800000Y-98800000D03*
X149800000Y-98000000D03*
X149800000Y-97200000D03*
X149800000Y-96400000D03*
X149800000Y-95600000D03*
X149800000Y-94800000D03*
X149800000Y-94000000D03*
X149800000Y-93200000D03*
X149800000Y-92400001D03*
X149800000Y-91600001D03*
X149800000Y-90800001D03*
X150600000Y-99600000D03*
X150600000Y-98800000D03*
X150600000Y-98000000D03*
X150600000Y-97200000D03*
X150600000Y-96400000D03*
X150600000Y-95600000D03*
X150600000Y-94800000D03*
X150600000Y-94000000D03*
X150600000Y-93200000D03*
X150600000Y-92400001D03*
X150600000Y-91600001D03*
X150600000Y-90800001D03*
X151400000Y-99600000D03*
X151400000Y-98800000D03*
X151400000Y-98000000D03*
X151400000Y-97200000D03*
X151400000Y-96400000D03*
X151400000Y-95600000D03*
X151400000Y-94800000D03*
X151400000Y-94000000D03*
X151400000Y-93200000D03*
X151400000Y-92400001D03*
X151400000Y-91600001D03*
X151400000Y-90800001D03*
X152199999Y-99600000D03*
X152199999Y-98800000D03*
X152199999Y-98000000D03*
X152199999Y-97200000D03*
X152199999Y-96400000D03*
X152199999Y-95600000D03*
X152199999Y-94800000D03*
X152199999Y-94000000D03*
X152199999Y-93200000D03*
X152199999Y-92400001D03*
X152199999Y-91600001D03*
X152199999Y-90800001D03*
X152999999Y-99600000D03*
X152999999Y-98800000D03*
X152999999Y-98000000D03*
X152999999Y-97200000D03*
X152999999Y-96400000D03*
X152999999Y-95600000D03*
X152999999Y-94800000D03*
X152999999Y-94000000D03*
X152999999Y-93200000D03*
X152999999Y-92400001D03*
X152999999Y-91600001D03*
X152999999Y-90800001D03*
X153799999Y-99600000D03*
X153799999Y-98800000D03*
X153799999Y-98000000D03*
X153799999Y-97200000D03*
X153799999Y-96400000D03*
X153799999Y-95600000D03*
X153799999Y-94800000D03*
X153799999Y-94000000D03*
X153799999Y-93200000D03*
X153799999Y-92400001D03*
X153799999Y-91600001D03*
X153799999Y-90800001D03*
%TD*%
D21*
%TO.C,C1306*%
X163100000Y-102320000D03*
X163100000Y-103280000D03*
%TD*%
D39*
%TO.C,J601*%
X162650000Y-96550000D03*
X162650000Y-96900000D03*
X162650000Y-97250000D03*
X162650000Y-97600000D03*
X162650000Y-97950000D03*
X165050000Y-97950000D03*
X165050000Y-97600000D03*
X165050000Y-97250000D03*
X165050000Y-96900000D03*
X165050000Y-96550000D03*
D40*
X162865000Y-95550000D03*
X162865000Y-98950000D03*
X164845000Y-98950000D03*
X164845000Y-95550000D03*
%TD*%
D41*
%TO.C,R809*%
X163010000Y-100600000D03*
X161990000Y-100600000D03*
%TD*%
D42*
%TO.C,FL401*%
X134200000Y-108487500D03*
X134700000Y-108775000D03*
X135200000Y-108775000D03*
X135200000Y-108200000D03*
X134700000Y-108200000D03*
%TD*%
D43*
%TO.C,IC1302*%
X166000000Y-107650000D03*
X166000000Y-107000000D03*
X166000000Y-106350000D03*
X164000000Y-106350000D03*
X164000000Y-107000000D03*
X164000000Y-107650000D03*
D44*
X165000000Y-107000000D03*
%TD*%
D36*
%TO.C,R811*%
X163990000Y-100600000D03*
X165010000Y-100600000D03*
%TD*%
D26*
%TO.C,C1408*%
X149680000Y-109500000D03*
X148720000Y-109500000D03*
%TD*%
D22*
%TO.C,C804*%
X146600000Y-102080000D03*
X146600000Y-101120000D03*
%TD*%
D23*
%TO.C,TP202*%
X135000000Y-86800000D03*
%TD*%
D45*
%TO.C,U202*%
X160700000Y-91900000D03*
X160700000Y-92400000D03*
X160700000Y-92900000D03*
D46*
X161300000Y-93000000D03*
D45*
X161900000Y-92900000D03*
X161900000Y-92400000D03*
X161900000Y-91900000D03*
D46*
X161300000Y-91800000D03*
%TD*%
D47*
%TO.C,IC201*%
X159700000Y-87600000D03*
X159700000Y-87200000D03*
X159700000Y-86800000D03*
X159700000Y-86400000D03*
X159700000Y-86000000D03*
X159700000Y-85600000D03*
X160100000Y-87600000D03*
X160100000Y-87200000D03*
X160100000Y-86800000D03*
X160100000Y-86400000D03*
X160100000Y-86000000D03*
X160100000Y-85600000D03*
X160500000Y-87600000D03*
X160500000Y-87200000D03*
X160500000Y-86000000D03*
X160500000Y-85600000D03*
X160900000Y-87600000D03*
X160900000Y-87200000D03*
X160900000Y-86000000D03*
X160900000Y-85600000D03*
X161300000Y-87600000D03*
X161300000Y-87200000D03*
X161300000Y-86800000D03*
X161300000Y-86400000D03*
X161300000Y-86000000D03*
X161300000Y-85600000D03*
X161700000Y-87600000D03*
X161700000Y-87200000D03*
X161700000Y-86800000D03*
X161700000Y-86400000D03*
X161700000Y-86000000D03*
X161700000Y-85600000D03*
%TD*%
D23*
%TO.C,TP802*%
X151500000Y-116500000D03*
%TD*%
D22*
%TO.C,C1602*%
X132720000Y-93522000D03*
X132720000Y-92562000D03*
%TD*%
D23*
%TO.C,TP303*%
X146500000Y-116500000D03*
%TD*%
D21*
%TO.C,C1405*%
X149000000Y-111770000D03*
X149000000Y-112730000D03*
%TD*%
D48*
%TO.C,MIC1201*%
X164762500Y-92420000D03*
X164762500Y-91598000D03*
X166437500Y-92420000D03*
X166437500Y-91598000D03*
D49*
X165600000Y-89828600D03*
%TD*%
D22*
%TO.C,C802*%
X156000000Y-102680000D03*
X156000000Y-101720000D03*
%TD*%
%TO.C,C1201*%
X163300000Y-92580000D03*
X163300000Y-91620000D03*
%TD*%
D21*
%TO.C,C202*%
X163000000Y-85320000D03*
X163000000Y-86280000D03*
%TD*%
D23*
%TO.C,TP801*%
X155700000Y-114500000D03*
%TD*%
D50*
%TO.C,Q201*%
X157075000Y-79820000D03*
D51*
X156800000Y-80580000D03*
D50*
X156525000Y-79820000D03*
%TD*%
D34*
%TO.C,D201*%
X159700000Y-92285000D03*
X159700000Y-91315000D03*
%TD*%
D24*
%TO.C,R201*%
X164200000Y-85290000D03*
X164200000Y-86310000D03*
%TD*%
D41*
%TO.C,R1406*%
X154710000Y-104400000D03*
X153690000Y-104400000D03*
%TD*%
D52*
%TO.C,U401*%
X146200000Y-112700000D03*
X146200000Y-111600000D03*
X146200000Y-110500000D03*
X146200000Y-109400000D03*
X146200000Y-108300000D03*
X146200000Y-107200000D03*
X146200000Y-106100000D03*
X146200000Y-105000000D03*
X146200000Y-103900000D03*
X137000000Y-103900000D03*
X137000000Y-105000000D03*
X137000000Y-106100000D03*
X137000000Y-107200000D03*
X137000000Y-108300000D03*
X137000000Y-109400000D03*
X137000000Y-110500000D03*
X137000000Y-111600000D03*
D53*
X137400000Y-112700000D03*
%TD*%
D54*
%TO.C,U301*%
X145800000Y-81587500D03*
X145200000Y-81587500D03*
X144600000Y-81587500D03*
X144000000Y-81587500D03*
X143400000Y-81587500D03*
X142800000Y-81587500D03*
X142200000Y-81587500D03*
X141600000Y-81587500D03*
X141000000Y-81587500D03*
X140400000Y-81587500D03*
X139800000Y-81587500D03*
X139200000Y-81587500D03*
D55*
X139025000Y-82262500D03*
X139025000Y-82862500D03*
X139025000Y-83462500D03*
X139025000Y-84062500D03*
X139025000Y-84662500D03*
X139025000Y-85262500D03*
X139025000Y-85862500D03*
X139025000Y-86462500D03*
X139025000Y-87062500D03*
X139025000Y-87662500D03*
D54*
X139200000Y-88337500D03*
X139800000Y-88337500D03*
X140400000Y-88337500D03*
X141000000Y-88337500D03*
X141600000Y-88337500D03*
X142200000Y-88337500D03*
X142800000Y-88337500D03*
X143400000Y-88337500D03*
X144000000Y-88337500D03*
X144600000Y-88337500D03*
X145200000Y-88337500D03*
X145800000Y-88337500D03*
D55*
X145975000Y-87662500D03*
X145975000Y-87062500D03*
X145975000Y-86462500D03*
X145975000Y-85862500D03*
X145975000Y-85262500D03*
X145975000Y-84662500D03*
X145975000Y-84062500D03*
X145975000Y-83462500D03*
X145975000Y-82862500D03*
X145975000Y-82262500D03*
D54*
X144000000Y-82787500D03*
X143400000Y-82787500D03*
X142800000Y-82787500D03*
X142200000Y-82787500D03*
X141600000Y-82787500D03*
X141000000Y-82787500D03*
D55*
X140225000Y-83462500D03*
X140225000Y-84062500D03*
X140225000Y-84662500D03*
X140225000Y-85262500D03*
X140225000Y-85862500D03*
X140225000Y-86462500D03*
D54*
X141000000Y-87137500D03*
X141600000Y-87137500D03*
X142200000Y-87137500D03*
X142800000Y-87137500D03*
X143400000Y-87137500D03*
X144000000Y-87137500D03*
D55*
X144775000Y-86462500D03*
X144775000Y-85862500D03*
X144775000Y-85262500D03*
X144775000Y-84662500D03*
X144775000Y-84062500D03*
X144775000Y-83462500D03*
D54*
X143500000Y-83962500D03*
X142500000Y-83962500D03*
X141500000Y-83962500D03*
X141500000Y-84962500D03*
X141500000Y-85962500D03*
X142500000Y-85962500D03*
X143500000Y-85962500D03*
X143500000Y-84962500D03*
X142500000Y-84962500D03*
%TD*%
D26*
%TO.C,C1307*%
X165480000Y-108812500D03*
X164520000Y-108812500D03*
%TD*%
D56*
%TO.C,U201*%
X165395421Y-87954000D03*
X165395421Y-87446000D03*
X165903421Y-87954000D03*
X165903421Y-87446000D03*
%TD*%
D57*
%TO.C,IC1301*%
X164100000Y-104450000D03*
X164600000Y-104450000D03*
X165100000Y-104450000D03*
X165600000Y-104450000D03*
D58*
X165600000Y-103950000D03*
X165600000Y-103450000D03*
D57*
X165600000Y-102950000D03*
X165100000Y-102950000D03*
X164600000Y-102950000D03*
X164100000Y-102950000D03*
D58*
X164100000Y-103450000D03*
X164100000Y-103950000D03*
%TD*%
D26*
%TO.C,C1409*%
X149680000Y-110500000D03*
X148720000Y-110500000D03*
%TD*%
D33*
%TO.C,L1603*%
X132715000Y-89700000D03*
X133685000Y-89700000D03*
%TD*%
D21*
%TO.C,C801*%
X152200000Y-101720000D03*
X152200000Y-102680000D03*
%TD*%
D36*
%TO.C,R1601*%
X135098000Y-95035000D03*
X136118000Y-95035000D03*
%TD*%
D25*
%TO.C,C303*%
X146320000Y-80100000D03*
X147280000Y-80100000D03*
%TD*%
D59*
%TO.C,U1401*%
X152800000Y-112300000D03*
X152300000Y-112300000D03*
X151800000Y-112300000D03*
X151300000Y-112300000D03*
X152800000Y-111800000D03*
X152300000Y-111800000D03*
X151800000Y-111800000D03*
X151300000Y-111800000D03*
X152800000Y-111300000D03*
X152300000Y-111300000D03*
X151800000Y-111300000D03*
X151300000Y-111296000D03*
D60*
X152800000Y-110800000D03*
X152304000Y-110800000D03*
X151800000Y-110800000D03*
X151300000Y-110800000D03*
%TD*%
D23*
%TO.C,TP201*%
X163300000Y-83600000D03*
%TD*%
D61*
%TO.C,IC401*%
X133400000Y-106987500D03*
X133800000Y-106987500D03*
X134200000Y-106987500D03*
X134200000Y-106587500D03*
X133800000Y-106587500D03*
X133400000Y-106587500D03*
%TD*%
D25*
%TO.C,C1501*%
X165920000Y-94100000D03*
X166880000Y-94100000D03*
%TD*%
D62*
%TO.C,IC1801*%
X140800000Y-99550000D03*
X141200000Y-99550000D03*
X140800000Y-100050000D03*
X141200000Y-100050000D03*
%TD*%
D25*
%TO.C,C1404*%
X154470000Y-109500000D03*
X155430000Y-109500000D03*
%TD*%
D63*
%TO.C,L202*%
X160025000Y-89800000D03*
X158575000Y-89800000D03*
%TD*%
D26*
%TO.C,C304*%
X143480000Y-80100000D03*
X142520000Y-80100000D03*
%TD*%
D64*
%TO.C,Y802*%
X145400000Y-101600000D03*
X144000000Y-101600000D03*
%TD*%
D41*
%TO.C,R1405*%
X156610000Y-104400000D03*
X155590000Y-104400000D03*
%TD*%
D34*
%TO.C,D202*%
X158700000Y-92285000D03*
X158700000Y-91315000D03*
%TD*%
D23*
%TO.C,TP302*%
X144000000Y-116000000D03*
%TD*%
D22*
%TO.C,C1001*%
X155500000Y-80780000D03*
X155500000Y-79820000D03*
%TD*%
D65*
%TO.C,SW1501*%
X166800000Y-98900000D03*
X166800000Y-96600000D03*
X166800000Y-97750000D03*
D66*
X168350000Y-100450000D03*
D67*
X168350000Y-95050000D03*
%TD*%
D36*
%TO.C,R802*%
X140490000Y-98300000D03*
X141510000Y-98300000D03*
%TD*%
D68*
%TO.C,L1604*%
X136407053Y-88342947D03*
X137092947Y-87657053D03*
%TD*%
D41*
%TO.C,R810*%
X165010000Y-105400000D03*
X163990000Y-105400000D03*
%TD*%
D23*
%TO.C,TP205*%
X136800000Y-84200000D03*
%TD*%
D25*
%TO.C,C1406*%
X152520000Y-109500000D03*
X153480000Y-109500000D03*
%TD*%
D69*
%TO.C,IC1001*%
X150500000Y-80800000D03*
X151500000Y-80800000D03*
X152500000Y-80800000D03*
X153500000Y-80800000D03*
X149500000Y-81800000D03*
X150500000Y-81800000D03*
X151500000Y-81800000D03*
X152500000Y-81800000D03*
X153500000Y-81800000D03*
X149500000Y-82800000D03*
X150500000Y-82800000D03*
X151500000Y-82800000D03*
X152500000Y-82800000D03*
X153500000Y-82800000D03*
X149500000Y-83800000D03*
X150500000Y-83800000D03*
X151500000Y-83800000D03*
X152500000Y-83800000D03*
X153500000Y-83800000D03*
X149500000Y-84800000D03*
X150500000Y-84800000D03*
X151500000Y-84800000D03*
X152500000Y-84800000D03*
X153500000Y-84800000D03*
%TD*%
D27*
%TO.C,L901*%
X156800000Y-96225000D03*
X156800000Y-94775000D03*
%TD*%
D70*
%TO.C,L401*%
X132857053Y-104757053D03*
X133542947Y-105442947D03*
%TD*%
D21*
%TO.C,C1303*%
X162100000Y-102320000D03*
X162100000Y-103280000D03*
%TD*%
D22*
%TO.C,C1301*%
X167000000Y-103480000D03*
X167000000Y-102520000D03*
%TD*%
D71*
%TO.C,ANT1601*%
X132931000Y-95661000D03*
D72*
X133184000Y-95036000D03*
D71*
X132931000Y-94411000D03*
D72*
X132678000Y-95036000D03*
%TD*%
D34*
%TO.C,D203*%
X157700000Y-92285000D03*
X157700000Y-91315000D03*
%TD*%
D41*
%TO.C,R601*%
X164810000Y-94100000D03*
X163790000Y-94100000D03*
%TD*%
D25*
%TO.C,C1101*%
X160020000Y-100600000D03*
X160980000Y-100600000D03*
%TD*%
D35*
%TO.C,R812*%
X167000000Y-105410000D03*
X167000000Y-104390000D03*
%TD*%
D63*
%TO.C,L201*%
X162825000Y-89800000D03*
X161375000Y-89800000D03*
%TD*%
D32*
%TO.C,IC302*%
X143900000Y-78950000D03*
X143900000Y-78450000D03*
X144400000Y-78950000D03*
X144400000Y-78450000D03*
X144900000Y-78950000D03*
X144900000Y-78450000D03*
%TD*%
%TO.C,IC1101*%
X160600000Y-102250000D03*
X160600000Y-102750000D03*
X160100000Y-102250000D03*
X160100000Y-102750000D03*
X159600000Y-102250000D03*
X159600000Y-102750000D03*
%TD*%
%LPD*%
M02*
