M48
; DRILL file {KiCad 8.0.1} date 2024-03-29T03:10:10+0000
; FORMAT={-:-/ absolute / inch / decimal}
; #@! TF.CreationDate,2024-03-29T03:10:10+00:00
; #@! TF.GenerationSoftware,Kicad,Pcbnew,8.0.1
; #@! TF.FileFunction,Plated,1,8,PTH
FMAT,2
INCH
; #@! TA.AperFunction,Plated,PTH,ViaDrill
T1C0.0079
%
G90
G05
T1
X5.2205Y-4.1535
X5.2249Y-3.8701
X5.2249Y-3.9094
X5.2249Y-3.9488
X5.2249Y-3.9882
X5.2249Y-4.0276
X5.2323Y-4.1969
X5.2352Y-3.4715
X5.2362Y-4.2244
X5.2402Y-4.1732
X5.2441Y-4.2441
X5.248Y-4.2638
X5.2559Y-3.4055
X5.2559Y-3.4488
X5.2559Y-3.5354
X5.2559Y-4.0866
X5.2756Y-3.374
X5.2756Y-3.4252
X5.2756Y-3.4705
X5.2756Y-3.5138
X5.2756Y-4.1063
X5.2874Y-4.2953
X5.2913Y-4.126
X5.2913Y-4.1535
X5.2913Y-4.1811
X5.2953Y-3.3504
X5.2953Y-3.4016
X5.2953Y-3.4488
X5.2953Y-3.5354
X5.2953Y-4.0866
X5.3031Y-4.2087
X5.3031Y-4.2362
X5.3031Y-4.3465
X5.3071Y-4.3031
X5.315Y-3.378
X5.315Y-3.4252
X5.315Y-3.4715
X5.315Y-3.5128
X5.315Y-4.1063
X5.3346Y-3.3504
X5.3346Y-3.4016
X5.3346Y-3.4488
X5.3346Y-3.5354
X5.3346Y-4.0866
X5.3346Y-4.3858
X5.3425Y-3.311
X5.3465Y-4.1929
X5.3465Y-4.2205
X5.3465Y-4.248
X5.3465Y-4.4055
X5.3504Y-4.1614
X5.3514Y-4.1053
X5.3543Y-3.378
X5.3543Y-3.4252
X5.3543Y-3.5138
X5.374Y-3.4016
X5.374Y-3.5354
X5.374Y-4.0866
X5.3937Y-3.378
X5.3937Y-4.1772
X5.394Y-3.5129
X5.4134Y-3.2677
X5.4134Y-3.3504
X5.4134Y-3.4016
X5.4134Y-3.4893
X5.4134Y-3.5354
X5.4134Y-4.0866
X5.4328Y-3.5118
X5.4331Y-3.378
X5.4331Y-3.4252
X5.436Y-4.1063
X5.4449Y-3.2677
X5.4449Y-3.3031
X5.4464Y-3.3332
X5.4488Y-3.2387
X5.4488Y-3.4016
X5.4528Y-3.4893
X5.4528Y-3.5354
X5.4528Y-3.5748
X5.4528Y-3.6142
X5.4528Y-3.6535
X5.4528Y-3.6929
X5.4528Y-3.7323
X5.4528Y-3.7717
X5.4528Y-3.811
X5.4528Y-3.8504
X5.4528Y-3.8898
X5.4528Y-3.9291
X5.4528Y-3.9685
X5.4528Y-4.0079
X5.4528Y-4.0472
X5.4528Y-4.0866
X5.4528Y-4.2205
X5.4567Y-3.2126
X5.4724Y-3.5157
X5.4724Y-3.5551
X5.4724Y-3.5945
X5.4724Y-3.6339
X5.4724Y-3.6732
X5.4724Y-3.7126
X5.4724Y-3.752
X5.4724Y-3.7913
X5.4724Y-3.8307
X5.4724Y-3.8701
X5.4724Y-3.9094
X5.4724Y-3.9488
X5.4724Y-3.9882
X5.4724Y-4.0276
X5.4724Y-4.0669
X5.4724Y-4.1063
X5.4803Y-3.189
X5.4843Y-4.2835
X5.4843Y-4.3425
X5.4843Y-4.4016
X5.4843Y-4.4646
X5.4921Y-3.5354
X5.4921Y-3.5748
X5.4921Y-3.6142
X5.4921Y-3.6535
X5.4921Y-3.6929
X5.4921Y-3.7323
X5.4921Y-3.7717
X5.4921Y-3.811
X5.4921Y-3.8504
X5.4921Y-3.8898
X5.4921Y-3.9291
X5.4921Y-3.9685
X5.4921Y-4.0079
X5.4921Y-4.0472
X5.4921Y-4.0866
X5.4975Y-3.2859
X5.5Y-4.1417
X5.5Y-4.2126
X5.5039Y-3.189
X5.5039Y-3.4449
X5.5079Y-4.5
X5.5276Y-3.189
X5.5335Y-3.4311
X5.5453Y-3.3091
X5.5472Y-3.4055
X5.5551Y-3.1811
X5.563Y-3.5709
X5.5709Y-4.5276
X5.5748Y-3.5059
X5.5789Y-3.5344
X5.5789Y-3.5541
X5.5827Y-3.1811
X5.5827Y-3.6299
X5.5906Y-3.3248
X5.5906Y-3.3642
X5.5945Y-3.5709
X5.5945Y-3.6102
X5.5945Y-3.6496
X5.5945Y-3.689
X5.5945Y-3.7283
X5.5984Y-3.5059
X5.6024Y-3.6693
X5.6102Y-3.126
X5.611Y-3.1811
X5.6142Y-3.5906
X5.6142Y-3.6299
X5.6142Y-3.7087
X5.6181Y-4.2717
X5.6181Y-4.5906
X5.622Y-3.5059
X5.626Y-3.1102
X5.6299Y-3.3248
X5.6299Y-3.3642
X5.6378Y-3.6693
X5.6378Y-3.7283
X5.6378Y-3.7677
X5.6378Y-3.7874
X5.6378Y-4.1496
X5.6378Y-4.1929
X5.6417Y-3.0945
X5.6417Y-3.8071
X5.6457Y-3.2362
X5.6457Y-3.5059
X5.6496Y-4.0394
X5.6533Y-3.8941
X5.6535Y-3.8701
X5.6614Y-3.8071
X5.6654Y-4.4291
X5.6693Y-3.2362
X5.6693Y-3.5059
X5.6693Y-3.9055
X5.6693Y-4.5669
X5.6732Y-3.189
X5.6732Y-3.3095
X5.6732Y-3.3332
X5.6732Y-3.404
X5.6811Y-4.0709
X5.6811Y-4.122
X5.6811Y-4.1496
X5.6811Y-4.1929
X5.6811Y-4.2362
X5.685Y-3.5669
X5.7008Y-4.0787
X5.7047Y-3.126
X5.7047Y-3.9409
X5.7087Y-4.4764
X5.7126Y-4.0354
X5.7126Y-4.1772
X5.7126Y-4.2205
X5.7126Y-4.2638
X5.7126Y-4.3504
X5.7126Y-4.3937
X5.7165Y-3.1929
X5.7185Y-3.2402
X5.7244Y-3.1063
X5.7244Y-3.7165
X5.7244Y-3.811
X5.7244Y-3.9488
X5.7308Y-3.2623
X5.7382Y-3.0886
X5.7441Y-3.9409
X5.7559Y-3.6535
X5.7559Y-3.685
X5.7559Y-3.7165
X5.7559Y-3.748
X5.7559Y-3.7795
X5.7559Y-3.8425
X5.7559Y-3.874
X5.7559Y-3.9055
X5.7677Y-3.4783
X5.7677Y-4.5866
X5.7717Y-3.4528
X5.7756Y-3.3095
X5.7756Y-3.3465
X5.7874Y-3.5315
X5.7874Y-3.748
X5.7874Y-3.7795
X5.7874Y-3.8425
X5.7874Y-3.874
X5.7889Y-3.49
X5.7913Y-3.4705
X5.7953Y-3.3307
X5.7992Y-3.126
X5.7992Y-3.2195
X5.7992Y-4.2205
X5.8012Y-3.5118
X5.8012Y-3.5492
X5.8031Y-3.9803
X5.8031Y-4.1417
X5.8031Y-4.4449
X5.8071Y-4.374
X5.811Y-4.0167
X5.811Y-4.2835
X5.815Y-4.0787
X5.8189Y-3.622
X5.8189Y-3.6535
X5.8189Y-3.685
X5.8189Y-3.7165
X5.8189Y-3.748
X5.8189Y-3.8425
X5.8189Y-3.874
X5.8189Y-4.4094
X5.8228Y-4.3386
X5.8268Y-3.0709
X5.8346Y-4.1417
X5.8346Y-4.4449
X5.8346Y-4.6457
X5.8386Y-4.378
X5.8465Y-3.2598
X5.8465Y-3.2992
X5.8504Y-3.622
X5.8504Y-3.6535
X5.8504Y-3.685
X5.8504Y-3.7165
X5.8504Y-3.748
X5.8504Y-3.7795
X5.8504Y-3.8425
X5.8504Y-3.874
X5.8622Y-3.189
X5.8642Y-3.2421
X5.8661Y-3.0709
X5.8661Y-3.1102
X5.8661Y-4.2303
X5.878Y-4.4606
X5.8819Y-3.622
X5.8819Y-3.6535
X5.8819Y-3.685
X5.8819Y-3.7165
X5.8819Y-3.811
X5.8819Y-3.8425
X5.8819Y-3.874
X5.8835Y-4.1378
X5.8976Y-4.2283
X5.9016Y-4.2795
X5.9055Y-3.0709
X5.9055Y-3.1102
X5.9055Y-3.2008
X5.9055Y-3.2421
X5.9055Y-3.2795
X5.9094Y-3.9882
X5.9094Y-4.1378
X5.9134Y-3.622
X5.9134Y-3.6535
X5.9134Y-3.685
X5.9134Y-3.748
X5.9134Y-3.7795
X5.9134Y-3.811
X5.9134Y-3.8425
X5.9134Y-3.874
X5.9134Y-3.9055
X5.9252Y-4.2087
X5.9252Y-4.2323
X5.9299Y-4.3346
X5.9331Y-4.1378
X5.9331Y-4.2756
X5.9331Y-4.3543
X5.9331Y-4.4567
X5.9409Y-3.5236
X5.9449Y-3.0709
X5.9449Y-3.1102
X5.9449Y-3.2402
X5.9449Y-3.2795
X5.9449Y-3.3189
X5.9449Y-3.7165
X5.9449Y-3.748
X5.9449Y-3.7795
X5.9449Y-3.811
X5.9449Y-3.8425
X5.9449Y-3.874
X5.9488Y-4.2126
X5.9488Y-4.4449
X5.952Y-4.2864
X5.9528Y-4.2323
X5.9646Y-4.5866
X5.9654Y-3.1465
X5.9724Y-3.9685
X5.9724Y-4.3346
X5.9744Y-4.2736
X5.9764Y-3.5906
X5.9764Y-3.622
X5.9764Y-3.6535
X5.9764Y-3.685
X5.9764Y-3.748
X5.9764Y-3.7795
X5.9764Y-3.811
X5.9764Y-3.8425
X5.9764Y-3.874
X5.9764Y-3.9055
X5.9843Y-3.0709
X5.9843Y-3.1102
X5.9843Y-3.2008
X5.9843Y-3.2402
X5.9843Y-3.2795
X5.9843Y-3.3189
X5.9843Y-3.3583
X5.9882Y-4.6496
X5.9921Y-4.2362
X6.0031Y-3.1465
X6.0039Y-4.0669
X6.0079Y-3.5906
X6.0079Y-3.6535
X6.0079Y-3.685
X6.0079Y-3.7165
X6.0079Y-3.748
X6.0079Y-3.7795
X6.0079Y-3.811
X6.0079Y-3.8425
X6.0079Y-3.874
X6.0079Y-3.9055
X6.0157Y-4.5748
X6.0236Y-3.0709
X6.0236Y-3.1102
X6.0236Y-3.2008
X6.0236Y-3.2402
X6.0236Y-3.2795
X6.0236Y-3.3189
X6.0236Y-3.3583
X6.0236Y-4.2874
X6.0262Y-4.0722
X6.0276Y-4.0945
X6.0315Y-4.4409
X6.0394Y-3.6535
X6.0394Y-3.7165
X6.0394Y-3.748
X6.0433Y-4.2717
X6.0512Y-4.4547
X6.063Y-3.0709
X6.063Y-3.1102
X6.063Y-3.1496
X6.0709Y-3.5591
X6.0709Y-4.2795
X6.0748Y-3.5157
X6.0768Y-4.4547
X6.0804Y-3.7582
X6.0807Y-3.7815
X6.0827Y-3.9252
X6.0827Y-4.2362
X6.0971Y-4.0722
X6.0991Y-3.9143
X6.1024Y-3.0709
X6.1024Y-3.1102
X6.1024Y-4.4547
X6.1102Y-3.6988
X6.1181Y-3.5157
X6.122Y-4.2205
X6.127Y-3.7884
X6.1299Y-4.3346
X6.1299Y-4.5079
X6.1319Y-3.6929
X6.1339Y-3.2717
X6.1339Y-3.7638
X6.1378Y-4.3622
X6.1378Y-4.3937
X6.1417Y-4.2677
X6.1535Y-3.6339
X6.1575Y-4.2008
X6.1594Y-3.8445
X6.1609Y-4.284
X6.1609Y-4.3037
X6.1614Y-3.2717
X6.1614Y-4.4134
X6.1654Y-3.122
X6.1654Y-4.0236
X6.1693Y-4.1457
X6.1693Y-4.3268
X6.1732Y-3.3425
X6.1772Y-3.3189
X6.1772Y-3.6339
X6.1811Y-3.3661
X6.1811Y-4.1654
X6.1811Y-4.2677
X6.189Y-3.122
X6.189Y-3.2717
X6.189Y-4.5079
X6.1894Y-3.2205
X6.1909Y-4.4783
X6.1969Y-3.3268
X6.2047Y-3.4882
X6.2047Y-3.5118
X6.2047Y-3.5394
X6.2047Y-3.563
X6.2087Y-3.1299
X6.2087Y-3.1593
X6.2087Y-3.8268
X6.2087Y-3.8524
X6.2087Y-3.878
X6.2126Y-3.3937
X6.2165Y-3.7087
X6.2244Y-3.2677
X6.2244Y-4.4488
X6.2303Y-3.1791
X6.2323Y-3.374
X6.2323Y-4.2441
X6.2323Y-4.4882
X6.2382Y-4.3307
X6.2402Y-4.1378
X6.2441Y-3.4213
X6.2441Y-4.0906
X6.2441Y-4.1142
X6.248Y-4.3583
X6.252Y-3.3543
X6.252Y-4.4567
X6.2579Y-3.1791
X6.2583Y-3.2047
X6.2638Y-4.3189
X6.2657Y-4.1161
X6.2677Y-4.4882
X6.2717Y-3.3346
X6.2724Y-3.4638
X6.2835Y-3.1929
X6.2835Y-4.0079
X6.2934Y-4.4055
X6.3031Y-3.3543
X6.3031Y-3.9961
X6.3071Y-3.1457
X6.3071Y-3.2047
X6.311Y-3.5951
X6.315Y-4.2008
X6.3189Y-3.4764
X6.3228Y-3.2717
X6.3248Y-3.9941
X6.3248Y-4.0709
X6.3268Y-3.4094
X6.3307Y-3.2047
X6.3307Y-4.3976
X6.3346Y-3.3189
X6.3346Y-3.5197
X6.3346Y-3.5512
X6.3346Y-3.5827
X6.3425Y-3.1772
X6.3425Y-4.1772
X6.3425Y-4.2165
X6.3445Y-4.3563
X6.3465Y-4.2717
X6.3504Y-3.2717
X6.3504Y-3.6378
X6.3504Y-4.0669
X6.3533Y-3.5354
X6.3543Y-3.3504
X6.3543Y-3.5
X6.3622Y-4.1496
X6.3622Y-4.3976
X6.3661Y-3.3307
X6.3701Y-3.5512
X6.3701Y-3.5827
X6.3703Y-3.5219
X6.374Y-3.2087
X6.3819Y-4.3465
X6.3858Y-4.374
X6.3858Y-4.3976
X6.3858Y-4.4213
X6.3898Y-3.2559
X6.3937Y-3.3346
X6.3976Y-3.6181
X6.3976Y-3.6378
X6.3976Y-3.7047
X6.4016Y-4.0039
X6.4016Y-4.1496
X6.4094Y-4.3976
X6.4173Y-3.3969
X6.4173Y-3.4339
X6.4213Y-3.7047
X6.4291Y-3.2913
X6.4291Y-3.7953
X6.4291Y-3.8228
X6.4291Y-3.8622
X6.4291Y-4.0039
X6.4331Y-4.0945
X6.4331Y-4.1496
X6.4331Y-4.2126
X6.4331Y-4.2382
X6.4409Y-3.4154
X6.4409Y-3.4449
X6.4409Y-3.4724
X6.4409Y-3.9331
X6.4449Y-4.2717
X6.4488Y-4.3701
X6.4563Y-3.878
X6.4567Y-3.5236
X6.4567Y-3.5787
X6.4567Y-3.6063
X6.4646Y-3.398
X6.4685Y-3.5472
X6.4685Y-3.7953
X6.4685Y-4.0354
X6.4764Y-3.815
X6.4803Y-3.5039
X6.4882Y-3.7283
X6.4961Y-4.1929
X6.4961Y-4.2126
X6.4961Y-4.2323
X6.499Y-4.0354
X6.4992Y-3.3316
X6.5008Y-3.6732
X6.5039Y-4.315
X6.5197Y-3.6386
X6.5197Y-3.9961
X6.5199Y-3.6053
X6.5226Y-4.1437
X6.5236Y-3.8465
X6.5236Y-4.0354
X6.5276Y-3.8937
X6.5394Y-3.4055
X6.5394Y-3.6693
X6.5433Y-4.0551
X6.5433Y-4.1122
X6.5512Y-3.9409
X6.5531Y-3.437
X6.5531Y-3.4685
X6.564Y-4.1988
X6.5679Y-4.1762
X6.5709Y-3.7559
X6.5748Y-3.6693
X6.5827Y-3.9961
M30
