%TF.GenerationSoftware,KiCad,Pcbnew,7.0.1*%
%TF.CreationDate,2023-12-30T18:27:53+00:00*%
%TF.ProjectId,watch_main,77617463-685f-46d6-9169-6e2e6b696361,rev?*%
%TF.SameCoordinates,Original*%
%TF.FileFunction,Copper,L4,Inr*%
%TF.FilePolarity,Positive*%
%FSLAX46Y46*%
G04 Gerber Fmt 4.6, Leading zero omitted, Abs format (unit mm)*
G04 Created by KiCad (PCBNEW 7.0.1) date 2023-12-30 18:27:53*
%MOMM*%
%LPD*%
G01*
G04 APERTURE LIST*
%TA.AperFunction,ComponentPad*%
%ADD10C,0.500000*%
%TD*%
%TA.AperFunction,ViaPad*%
%ADD11C,0.300000*%
%TD*%
G04 APERTURE END LIST*
D10*
%TO.N,GND*%
%TO.C,U301*%
X143327207Y-84751472D03*
X142478679Y-83902944D03*
X141630151Y-83054416D03*
X140781623Y-82205888D03*
X142384634Y-85694045D03*
X141536106Y-84845517D03*
X140687578Y-83996989D03*
X139839050Y-83148461D03*
X141442061Y-86636619D03*
X140593533Y-85788091D03*
X139745004Y-84939562D03*
X138896476Y-84091034D03*
X140499487Y-87579192D03*
X139650959Y-86730664D03*
X138802431Y-85882136D03*
X137953903Y-85033608D03*
%TD*%
D11*
%TO.N,GND*%
X165000000Y-107500000D03*
X165000000Y-107000000D03*
X165000000Y-106500000D03*
X139500000Y-97800000D03*
X154700000Y-81400000D03*
X134700000Y-107600000D03*
X134700000Y-106900000D03*
X150100000Y-95800000D03*
X165495400Y-89045400D03*
X146000000Y-81000000D03*
X139500000Y-96800000D03*
X138500000Y-94800000D03*
X147800000Y-92500000D03*
X138500000Y-99800000D03*
X157600000Y-88500000D03*
X150600000Y-95800000D03*
X160200000Y-83000000D03*
X137500000Y-89800000D03*
X139500000Y-100800000D03*
X137500000Y-103800000D03*
X154200000Y-93300000D03*
X138500000Y-91800000D03*
X163000000Y-88180000D03*
X138500000Y-95800000D03*
X136500000Y-87600000D03*
X165075000Y-102550000D03*
X157650000Y-107950000D03*
X149000000Y-79000000D03*
X138500000Y-90800000D03*
X135500000Y-86400000D03*
X160600000Y-97750000D03*
X133500000Y-89800000D03*
X142300000Y-93700000D03*
X158300000Y-104800000D03*
X138500000Y-97800000D03*
X134000000Y-85700000D03*
X139000000Y-90300000D03*
X155000000Y-91700000D03*
X148400000Y-105300000D03*
X136500000Y-103800000D03*
X136500000Y-89800000D03*
X139500000Y-90800000D03*
X151600000Y-107000000D03*
X158900000Y-101000000D03*
X166800000Y-98900000D03*
X158500000Y-97600000D03*
X139500000Y-89800000D03*
X145000000Y-80000000D03*
X147000000Y-80000000D03*
X135925000Y-104275000D03*
X139000000Y-101300000D03*
X164300000Y-96400000D03*
X138500000Y-100800000D03*
X134400000Y-105500000D03*
X150550000Y-89150000D03*
X143800000Y-92000000D03*
X159100000Y-111400000D03*
X139000000Y-98300000D03*
X157400000Y-95700000D03*
X151100000Y-95800000D03*
X157763631Y-81286369D03*
X148000000Y-79000000D03*
X134500000Y-89800000D03*
X165675000Y-105250000D03*
X150600000Y-94800000D03*
X154200000Y-108700000D03*
X135900000Y-105700000D03*
X143800000Y-90600000D03*
X151600000Y-95900000D03*
X146200000Y-98100000D03*
X145000000Y-79000000D03*
X135500000Y-89800000D03*
X136800000Y-86900000D03*
X139000000Y-99300000D03*
X139000000Y-97300000D03*
X140700000Y-89900000D03*
X133200000Y-107800000D03*
X139500000Y-92800000D03*
X163250000Y-103900000D03*
X139500000Y-101800000D03*
X151100000Y-112900000D03*
X134500000Y-103800000D03*
X139000000Y-104300000D03*
X155700000Y-110100000D03*
X150600000Y-95300000D03*
X139000000Y-91300000D03*
X166200000Y-103000000D03*
X132600000Y-105500000D03*
X137000000Y-106100000D03*
X154500000Y-102500000D03*
X138500000Y-102800000D03*
X139500000Y-94800000D03*
X139025000Y-88650000D03*
X156000000Y-83200000D03*
X135000000Y-88175000D03*
X151100000Y-94800000D03*
X166090000Y-86310000D03*
X136000000Y-88150000D03*
X151100000Y-94300000D03*
X146000000Y-80000000D03*
X146000000Y-88500000D03*
X144400000Y-89300000D03*
X139000000Y-103300000D03*
X144600000Y-104400000D03*
X138500000Y-98800000D03*
X138500000Y-92800000D03*
X156700000Y-108600000D03*
X143200000Y-90600000D03*
X152100000Y-118100000D03*
X139500000Y-99800000D03*
X147900000Y-110200000D03*
X135800000Y-111900000D03*
X139300000Y-108800000D03*
X166800000Y-96600000D03*
X162500000Y-103900000D03*
X147000000Y-79000000D03*
X139000000Y-92300000D03*
X150100000Y-94800000D03*
X151100000Y-80200000D03*
X146000000Y-79000000D03*
X136000000Y-89250000D03*
X147800000Y-112000000D03*
X133000000Y-107300000D03*
X148200000Y-118000000D03*
X135000000Y-87000000D03*
X157400000Y-101100000D03*
X150100000Y-96300000D03*
X134000000Y-88150000D03*
X139000000Y-93300000D03*
X164300000Y-94400000D03*
X150700000Y-113200000D03*
X133500000Y-87600000D03*
X139300000Y-110300000D03*
X164300000Y-87000000D03*
X165900000Y-93700000D03*
X138500000Y-103800000D03*
X160800000Y-106300000D03*
X139000000Y-100300000D03*
X153675000Y-107175000D03*
X144000000Y-79000000D03*
X147600000Y-108800000D03*
X132975000Y-88175000D03*
X146700000Y-81700000D03*
X138500000Y-96800000D03*
X159100000Y-107000000D03*
X151000000Y-79000000D03*
X156700000Y-107300000D03*
X134000000Y-104300000D03*
X151600000Y-94700000D03*
X144600000Y-108900000D03*
X154000000Y-79000000D03*
X139900000Y-114300000D03*
X147400000Y-112900000D03*
X149100000Y-81200000D03*
X138500000Y-89800000D03*
X150100000Y-94300000D03*
X139500000Y-95800000D03*
X136200000Y-86300000D03*
X151400000Y-89200000D03*
X139000000Y-96300000D03*
X150100000Y-95300000D03*
X133100000Y-106000000D03*
X151100000Y-95300000D03*
X153100000Y-81200000D03*
X155000000Y-79000000D03*
X134300000Y-109100000D03*
X142700000Y-116600000D03*
X150620000Y-110100000D03*
X148200000Y-112900000D03*
X165800000Y-92000000D03*
X137800000Y-89225000D03*
X139500000Y-102800000D03*
X154200000Y-95700000D03*
X156500000Y-112100000D03*
X158500000Y-100600000D03*
X139000000Y-94300000D03*
X164850000Y-103700000D03*
X167400000Y-93800000D03*
X137875000Y-88100000D03*
X139700000Y-105200000D03*
X135500000Y-103800000D03*
X135800000Y-107900000D03*
X135800000Y-106500000D03*
X139000000Y-89300000D03*
X159500000Y-81500000D03*
X134000000Y-89250000D03*
X153400000Y-93300000D03*
X139500000Y-93800000D03*
X164300000Y-92900000D03*
X139300000Y-111800000D03*
X134000000Y-87000000D03*
X152600000Y-90100000D03*
X149600000Y-95900000D03*
X137025000Y-88200000D03*
X133500000Y-103800000D03*
X137006630Y-89227668D03*
X155430000Y-79720000D03*
X147000000Y-91700000D03*
X139700000Y-107000000D03*
X148300000Y-111200000D03*
X137200000Y-87500000D03*
X157300000Y-83100000D03*
X147500000Y-111100000D03*
X139000000Y-95300000D03*
X149150000Y-87900000D03*
X135800000Y-107200000D03*
X148700000Y-108800000D03*
X134400000Y-106200000D03*
X153400000Y-96500000D03*
X134800000Y-109300000D03*
X135000000Y-104300000D03*
X155000000Y-82500000D03*
X134400000Y-104800000D03*
X134500000Y-87600000D03*
X139000000Y-102300000D03*
X150600000Y-83700000D03*
X135000000Y-89225000D03*
X136000000Y-87000000D03*
X134500000Y-86400000D03*
X153050000Y-102850000D03*
X143200000Y-92900000D03*
X143200000Y-92000000D03*
X153000000Y-79000000D03*
X146500000Y-101700000D03*
X150900000Y-106975000D03*
X153080000Y-79700000D03*
X138075000Y-104300000D03*
X139300000Y-113400000D03*
X151100000Y-96300000D03*
X152000000Y-79000000D03*
X167400000Y-92000000D03*
X159320000Y-87980000D03*
X133500000Y-86500000D03*
X138500000Y-101800000D03*
X146200000Y-94900000D03*
X144300000Y-100900000D03*
X149600000Y-88200000D03*
X139500000Y-98800000D03*
X134500000Y-85100000D03*
X164600000Y-98300000D03*
X147800000Y-93300000D03*
X135500000Y-111400000D03*
X163600000Y-92000000D03*
X133300000Y-108300000D03*
X149300000Y-113300000D03*
X151000000Y-100500000D03*
X135500000Y-87600000D03*
X139500000Y-91800000D03*
X149600000Y-94700000D03*
X150000000Y-79000000D03*
X139500000Y-103800000D03*
X134700000Y-110400000D03*
X145300000Y-85400000D03*
X138500000Y-93800000D03*
X154400000Y-105200000D03*
X135000000Y-85800000D03*
%TO.N,VBUS*%
X161900000Y-111800000D03*
X162500000Y-111300000D03*
%TO.N,/GNSS/ANT_OFF*%
X138500000Y-107200000D03*
X132900000Y-106600000D03*
%TD*%
%TA.AperFunction,Conductor*%
%TO.N,GND*%
G36*
X156974449Y-78650541D02*
G01*
X156981202Y-78650535D01*
X156981206Y-78650536D01*
X156991410Y-78650526D01*
X157019580Y-78660694D01*
X157034718Y-78686538D01*
X157049340Y-78765741D01*
X157124457Y-78988606D01*
X157230413Y-79198578D01*
X157365068Y-79391409D01*
X157513361Y-79550003D01*
X157525699Y-79563198D01*
X157624041Y-79642188D01*
X157709064Y-79710480D01*
X157871568Y-79806669D01*
X157911456Y-79830279D01*
X158128788Y-79920174D01*
X158356670Y-79978349D01*
X158590498Y-80003630D01*
X158825548Y-79995504D01*
X159006707Y-79963136D01*
X159057072Y-79954138D01*
X159112901Y-79935694D01*
X159280392Y-79880365D01*
X159490998Y-79775677D01*
X159684635Y-79642188D01*
X159768885Y-79564312D01*
X159773095Y-79560879D01*
X159866254Y-79494065D01*
X159875733Y-79488899D01*
X159979833Y-79447815D01*
X159990297Y-79445112D01*
X160101275Y-79430646D01*
X160112069Y-79430577D01*
X160223228Y-79443606D01*
X160233726Y-79446174D01*
X160338342Y-79485907D01*
X160347899Y-79490957D01*
X160442135Y-79556716D01*
X160446390Y-79560094D01*
X164330288Y-83055602D01*
X164335046Y-83060614D01*
X164776825Y-83606065D01*
X164778177Y-83607824D01*
X165203109Y-84190213D01*
X165204370Y-84192034D01*
X165219020Y-84214400D01*
X165225428Y-84246790D01*
X165207499Y-84274518D01*
X165175331Y-84281967D01*
X165078500Y-84266631D01*
X164968838Y-84283999D01*
X164869915Y-84334402D01*
X164791402Y-84412915D01*
X164740999Y-84511838D01*
X164723631Y-84621500D01*
X164740999Y-84731161D01*
X164791402Y-84830084D01*
X164869915Y-84908597D01*
X164968838Y-84959000D01*
X164983832Y-84961374D01*
X165078500Y-84976369D01*
X165188161Y-84959000D01*
X165188161Y-84958999D01*
X165287084Y-84908597D01*
X165287084Y-84908596D01*
X165287087Y-84908595D01*
X165365595Y-84830087D01*
X165374352Y-84812902D01*
X165416000Y-84731161D01*
X165425731Y-84669725D01*
X165437243Y-84646352D01*
X165459956Y-84633588D01*
X165485907Y-84635908D01*
X165505992Y-84652495D01*
X165599417Y-84795117D01*
X165600585Y-84797003D01*
X165964731Y-85419232D01*
X165965803Y-85421174D01*
X166298120Y-86060965D01*
X166299093Y-86062959D01*
X166598751Y-86718711D01*
X166599621Y-86720752D01*
X166865826Y-87390732D01*
X166866593Y-87392814D01*
X167098687Y-88075358D01*
X167099349Y-88077475D01*
X167296761Y-88770907D01*
X167297314Y-88773056D01*
X167459512Y-89475516D01*
X167459956Y-89477689D01*
X167586538Y-90187421D01*
X167586873Y-90189615D01*
X167677524Y-90904861D01*
X167677747Y-90907068D01*
X167732227Y-91625945D01*
X167732339Y-91628161D01*
X167750519Y-92349062D01*
X167750533Y-92350199D01*
X167749534Y-93945474D01*
X167749500Y-93945695D01*
X167749500Y-94000001D01*
X167749480Y-94031608D01*
X167749500Y-94031823D01*
X167749500Y-94062026D01*
X167777104Y-94182967D01*
X167830930Y-94294739D01*
X167908274Y-94391725D01*
X167987453Y-94454868D01*
X168005263Y-94469071D01*
X168117031Y-94522895D01*
X168237974Y-94550500D01*
X168237978Y-94550500D01*
X168237987Y-94550502D01*
X168243826Y-94550501D01*
X168243829Y-94550503D01*
X168706536Y-94550499D01*
X168728535Y-94556394D01*
X168744640Y-94572499D01*
X168750535Y-94594499D01*
X168750535Y-95505500D01*
X168737648Y-95536613D01*
X168706535Y-95549500D01*
X168047595Y-95549500D01*
X168000000Y-95549500D01*
X167932340Y-95549500D01*
X167902229Y-95556372D01*
X167800413Y-95579610D01*
X167678491Y-95638325D01*
X167572694Y-95722694D01*
X167488325Y-95828491D01*
X167429610Y-95950413D01*
X167399500Y-96082341D01*
X167399500Y-99417659D01*
X167429610Y-99549586D01*
X167488325Y-99671508D01*
X167572694Y-99777305D01*
X167678491Y-99861674D01*
X167678492Y-99861674D01*
X167678493Y-99861675D01*
X167800412Y-99920389D01*
X167932340Y-99950500D01*
X167943827Y-99950500D01*
X168000000Y-99950500D01*
X168047595Y-99950500D01*
X168706535Y-99950500D01*
X168737648Y-99963387D01*
X168750535Y-99994500D01*
X168750535Y-102005497D01*
X168737648Y-102036610D01*
X168706535Y-102049497D01*
X168272154Y-102049500D01*
X168237974Y-102049500D01*
X168117032Y-102077104D01*
X168005260Y-102130930D01*
X167908274Y-102208274D01*
X167830930Y-102305260D01*
X167777104Y-102417032D01*
X167749463Y-102538134D01*
X167749500Y-102599786D01*
X167749500Y-102654371D01*
X167749532Y-102654574D01*
X167750510Y-104309351D01*
X167749279Y-104319712D01*
X167565782Y-105079090D01*
X167565273Y-105081007D01*
X167338358Y-105863697D01*
X167337763Y-105865589D01*
X167264743Y-106080691D01*
X167247162Y-106103370D01*
X167219339Y-106110388D01*
X167193105Y-106098759D01*
X167179620Y-106073430D01*
X167162500Y-105965338D01*
X167112097Y-105866415D01*
X167033584Y-105787902D01*
X166934661Y-105737499D01*
X166825000Y-105720131D01*
X166715338Y-105737499D01*
X166616415Y-105787902D01*
X166537902Y-105866415D01*
X166487499Y-105965338D01*
X166470131Y-106075000D01*
X166487499Y-106184661D01*
X166537902Y-106283584D01*
X166540372Y-106286054D01*
X166552717Y-106310283D01*
X166548464Y-106337141D01*
X166529237Y-106356370D01*
X166516414Y-106362903D01*
X166437902Y-106441415D01*
X166387499Y-106540338D01*
X166370131Y-106650000D01*
X166387499Y-106759661D01*
X166437902Y-106858584D01*
X166516415Y-106937097D01*
X166615338Y-106987500D01*
X166630332Y-106989874D01*
X166725000Y-107004869D01*
X166834661Y-106987500D01*
X166861975Y-106973582D01*
X166887755Y-106969172D01*
X166911486Y-106980174D01*
X166924778Y-107002702D01*
X166922934Y-107028794D01*
X166778660Y-107398195D01*
X166777897Y-107400026D01*
X166447522Y-108144973D01*
X166446677Y-108146768D01*
X166083061Y-108876077D01*
X166082136Y-108877831D01*
X165686030Y-109589996D01*
X165685027Y-109591707D01*
X165626915Y-109685924D01*
X165603791Y-109704429D01*
X165574177Y-109704084D01*
X165551490Y-109685047D01*
X165546008Y-109655943D01*
X165554869Y-109600000D01*
X165537500Y-109490339D01*
X165537500Y-109490338D01*
X165487097Y-109391415D01*
X165408584Y-109312902D01*
X165309661Y-109262499D01*
X165200000Y-109245131D01*
X165090338Y-109262499D01*
X164991415Y-109312902D01*
X164912902Y-109391415D01*
X164862499Y-109490338D01*
X164845131Y-109600000D01*
X164862499Y-109709661D01*
X164912902Y-109808584D01*
X164991415Y-109887097D01*
X165090338Y-109937500D01*
X165105332Y-109939874D01*
X165200000Y-109954869D01*
X165309661Y-109937500D01*
X165309660Y-109937500D01*
X165406249Y-109888287D01*
X165433991Y-109884182D01*
X165458577Y-109897671D01*
X165470021Y-109923273D01*
X165463673Y-109950589D01*
X165257232Y-110285291D01*
X165256153Y-110286956D01*
X164797533Y-110960561D01*
X164796381Y-110962175D01*
X164307846Y-111614459D01*
X164306621Y-111616019D01*
X163789215Y-112245589D01*
X163787921Y-112247093D01*
X163242660Y-112852713D01*
X163241301Y-112854156D01*
X162669294Y-113434597D01*
X162667870Y-113435978D01*
X162070296Y-113990038D01*
X162068811Y-113991354D01*
X161446868Y-114517928D01*
X161445326Y-114519175D01*
X160800277Y-115017189D01*
X160798680Y-115018365D01*
X160131857Y-115486793D01*
X160130209Y-115487896D01*
X159442954Y-115925797D01*
X159441258Y-115926825D01*
X158734963Y-116333310D01*
X158733222Y-116334261D01*
X158009313Y-116708509D01*
X158007531Y-116709380D01*
X157267480Y-117050629D01*
X157265660Y-117051418D01*
X156511024Y-117358952D01*
X156509171Y-117359659D01*
X155741425Y-117632877D01*
X155739542Y-117633500D01*
X154960248Y-117871845D01*
X154958339Y-117872382D01*
X154169115Y-118075361D01*
X154167183Y-118075812D01*
X153369596Y-118243020D01*
X153367646Y-118243383D01*
X153006103Y-118302309D01*
X152979181Y-118298153D01*
X152959865Y-118278945D01*
X152955559Y-118252047D01*
X152967913Y-118227769D01*
X152987096Y-118208586D01*
X153037500Y-118109661D01*
X153040562Y-118090327D01*
X153054869Y-118000000D01*
X153038425Y-117896179D01*
X153037500Y-117890338D01*
X152998323Y-117813448D01*
X152994069Y-117786590D01*
X153006414Y-117762360D01*
X153030642Y-117750015D01*
X153109661Y-117737500D01*
X153157938Y-117712902D01*
X153208584Y-117687097D01*
X153208584Y-117687096D01*
X153208587Y-117687095D01*
X153287095Y-117608587D01*
X153337500Y-117509661D01*
X153354869Y-117400000D01*
X153337500Y-117290339D01*
X153337500Y-117290338D01*
X153287097Y-117191415D01*
X153208584Y-117112902D01*
X153109661Y-117062499D01*
X153000000Y-117045131D01*
X152890338Y-117062499D01*
X152791415Y-117112902D01*
X152712902Y-117191415D01*
X152662499Y-117290338D01*
X152645131Y-117400000D01*
X152662499Y-117509661D01*
X152701676Y-117586551D01*
X152705930Y-117613409D01*
X152693585Y-117637639D01*
X152669356Y-117649984D01*
X152590338Y-117662500D01*
X152491415Y-117712902D01*
X152412902Y-117791415D01*
X152362499Y-117890338D01*
X152345131Y-118000000D01*
X152362499Y-118109661D01*
X152412902Y-118208584D01*
X152412904Y-118208586D01*
X152412905Y-118208587D01*
X152491413Y-118287095D01*
X152514835Y-118299029D01*
X152534264Y-118318656D01*
X152538169Y-118345996D01*
X152525010Y-118370278D01*
X152499973Y-118381935D01*
X151751984Y-118469461D01*
X151750009Y-118469647D01*
X151210203Y-118508256D01*
X151185606Y-118502781D01*
X151168047Y-118484708D01*
X151076840Y-118309750D01*
X151053500Y-118278945D01*
X150953921Y-118147515D01*
X150953916Y-118147510D01*
X150805633Y-118008094D01*
X150793459Y-118000000D01*
X151145131Y-118000000D01*
X151162499Y-118109661D01*
X151212902Y-118208584D01*
X151291415Y-118287097D01*
X151390338Y-118337500D01*
X151405332Y-118339874D01*
X151500000Y-118354869D01*
X151609661Y-118337500D01*
X151678728Y-118302309D01*
X151708584Y-118287097D01*
X151708584Y-118287096D01*
X151708587Y-118287095D01*
X151787095Y-118208587D01*
X151837500Y-118109661D01*
X151854869Y-118000000D01*
X151838425Y-117896179D01*
X151837500Y-117890338D01*
X151787097Y-117791415D01*
X151708584Y-117712902D01*
X151609661Y-117662499D01*
X151500000Y-117645131D01*
X151390338Y-117662499D01*
X151291415Y-117712902D01*
X151212902Y-117791415D01*
X151162499Y-117890338D01*
X151145131Y-118000000D01*
X150793459Y-118000000D01*
X150636127Y-117895397D01*
X150450188Y-117812603D01*
X150253033Y-117762034D01*
X150090759Y-117748493D01*
X150050192Y-117745108D01*
X150050191Y-117745108D01*
X149847377Y-117762304D01*
X149650285Y-117813137D01*
X149464452Y-117896179D01*
X149295103Y-118009097D01*
X149147000Y-118148716D01*
X149024297Y-118311115D01*
X149024295Y-118311117D01*
X149024296Y-118311117D01*
X148988085Y-118380806D01*
X148932997Y-118486822D01*
X148915505Y-118504894D01*
X148890972Y-118510433D01*
X148337593Y-118472860D01*
X148335698Y-118472690D01*
X147668253Y-118398272D01*
X147643109Y-118386711D01*
X147629841Y-118362424D01*
X147633698Y-118335019D01*
X147653151Y-118315340D01*
X147708587Y-118287095D01*
X147787095Y-118208587D01*
X147837500Y-118109661D01*
X147854869Y-118000000D01*
X147838425Y-117896179D01*
X147837500Y-117890338D01*
X147787097Y-117791415D01*
X147708584Y-117712902D01*
X147609661Y-117662499D01*
X147500000Y-117645131D01*
X147390338Y-117662499D01*
X147291415Y-117712902D01*
X147212902Y-117791415D01*
X147162499Y-117890338D01*
X147145131Y-118000000D01*
X147162499Y-118109661D01*
X147212902Y-118208584D01*
X147266533Y-118262215D01*
X147278873Y-118286414D01*
X147274652Y-118313249D01*
X147255478Y-118332490D01*
X147228659Y-118336805D01*
X146692226Y-118253382D01*
X146690353Y-118253049D01*
X145878216Y-118090517D01*
X145876358Y-118090104D01*
X145071955Y-117892602D01*
X145070118Y-117892108D01*
X144275055Y-117660033D01*
X144273241Y-117659461D01*
X143488934Y-117393227D01*
X143487146Y-117392577D01*
X142715073Y-117092685D01*
X142713315Y-117091958D01*
X141954923Y-116758967D01*
X141953198Y-116758164D01*
X141209941Y-116392716D01*
X141208252Y-116391840D01*
X140674315Y-116100000D01*
X142145131Y-116100000D01*
X142162499Y-116209661D01*
X142212902Y-116308584D01*
X142291415Y-116387097D01*
X142390338Y-116437500D01*
X142405332Y-116439874D01*
X142500000Y-116454869D01*
X142609661Y-116437500D01*
X142609661Y-116437499D01*
X142708584Y-116387097D01*
X142708584Y-116387096D01*
X142708587Y-116387095D01*
X142787095Y-116308587D01*
X142837500Y-116209661D01*
X142854869Y-116100000D01*
X142838101Y-115994135D01*
X142837500Y-115990338D01*
X142787097Y-115891415D01*
X142708584Y-115812902D01*
X142609661Y-115762499D01*
X142500000Y-115745131D01*
X142390338Y-115762499D01*
X142291415Y-115812902D01*
X142212902Y-115891415D01*
X142162499Y-115990338D01*
X142145131Y-116100000D01*
X140674315Y-116100000D01*
X140481466Y-115994592D01*
X140479817Y-115993644D01*
X139770881Y-115565349D01*
X139769274Y-115564330D01*
X139079523Y-115105793D01*
X139077962Y-115104706D01*
X138408671Y-114616777D01*
X138407158Y-114615623D01*
X138402647Y-114612026D01*
X145749500Y-114612026D01*
X145777104Y-114732967D01*
X145830930Y-114844739D01*
X145908274Y-114941725D01*
X146005260Y-115019069D01*
X146005263Y-115019071D01*
X146117031Y-115072895D01*
X146237974Y-115100500D01*
X146243827Y-115100500D01*
X146300000Y-115100500D01*
X146347595Y-115100500D01*
X153752405Y-115100500D01*
X153827844Y-115100500D01*
X153862026Y-115100500D01*
X153862028Y-115100500D01*
X153891374Y-115093801D01*
X153896420Y-115092649D01*
X153920120Y-115093801D01*
X153939776Y-115107094D01*
X153949670Y-115128661D01*
X153962500Y-115209661D01*
X154012902Y-115308584D01*
X154091415Y-115387097D01*
X154190338Y-115437500D01*
X154205332Y-115439874D01*
X154300000Y-115454869D01*
X154409661Y-115437500D01*
X154409660Y-115437500D01*
X154508584Y-115387097D01*
X154508584Y-115387096D01*
X154508587Y-115387095D01*
X154587095Y-115308587D01*
X154591471Y-115300000D01*
X156445131Y-115300000D01*
X156462499Y-115409661D01*
X156512902Y-115508584D01*
X156591415Y-115587097D01*
X156690338Y-115637500D01*
X156705332Y-115639874D01*
X156800000Y-115654869D01*
X156909661Y-115637500D01*
X156909661Y-115637499D01*
X157008584Y-115587097D01*
X157008584Y-115587096D01*
X157008587Y-115587095D01*
X157087095Y-115508587D01*
X157123316Y-115437500D01*
X157137500Y-115409661D01*
X157146352Y-115353770D01*
X157154869Y-115300000D01*
X157137500Y-115190339D01*
X157137500Y-115190338D01*
X157087097Y-115091415D01*
X157008584Y-115012902D01*
X156909661Y-114962499D01*
X156800000Y-114945131D01*
X156690338Y-114962499D01*
X156591415Y-115012902D01*
X156512902Y-115091415D01*
X156462499Y-115190338D01*
X156445131Y-115300000D01*
X154591471Y-115300000D01*
X154637500Y-115209661D01*
X154640560Y-115190339D01*
X154654869Y-115100000D01*
X154637500Y-114990339D01*
X154637500Y-114990338D01*
X154587097Y-114891415D01*
X154508584Y-114812902D01*
X154409661Y-114762499D01*
X154365904Y-114755569D01*
X154344336Y-114745675D01*
X154331043Y-114726020D01*
X154329890Y-114702322D01*
X154350500Y-114612026D01*
X154350500Y-114550000D01*
X154350500Y-114502405D01*
X154350500Y-114500000D01*
X156845131Y-114500000D01*
X156862499Y-114609661D01*
X156912902Y-114708584D01*
X156991415Y-114787097D01*
X157090338Y-114837500D01*
X157105332Y-114839874D01*
X157200000Y-114854869D01*
X157309661Y-114837500D01*
X157357938Y-114812902D01*
X157408584Y-114787097D01*
X157408584Y-114787096D01*
X157408587Y-114787095D01*
X157487095Y-114708587D01*
X157490289Y-114702320D01*
X157537500Y-114609661D01*
X157546178Y-114554869D01*
X157554869Y-114500000D01*
X157537500Y-114390339D01*
X157537500Y-114390338D01*
X157487097Y-114291415D01*
X157408584Y-114212902D01*
X157329885Y-114172804D01*
X157310656Y-114153576D01*
X157306402Y-114126716D01*
X157318748Y-114102487D01*
X157342976Y-114090142D01*
X157359661Y-114087500D01*
X157426890Y-114053245D01*
X157458584Y-114037097D01*
X157458584Y-114037096D01*
X157458587Y-114037095D01*
X157495683Y-113999999D01*
X157945131Y-113999999D01*
X157962499Y-114109661D01*
X158012902Y-114208584D01*
X158091415Y-114287097D01*
X158190338Y-114337500D01*
X158205332Y-114339874D01*
X158300000Y-114354869D01*
X158409661Y-114337500D01*
X158409661Y-114337499D01*
X158508584Y-114287097D01*
X158508584Y-114287096D01*
X158508587Y-114287095D01*
X158587095Y-114208587D01*
X158591471Y-114200000D01*
X158637500Y-114109661D01*
X158640560Y-114090339D01*
X158654869Y-114000000D01*
X158654869Y-113999999D01*
X158845131Y-113999999D01*
X158862499Y-114109661D01*
X158912902Y-114208584D01*
X158991415Y-114287097D01*
X159090338Y-114337500D01*
X159105332Y-114339874D01*
X159200000Y-114354869D01*
X159309661Y-114337500D01*
X159309661Y-114337499D01*
X159408584Y-114287097D01*
X159408584Y-114287096D01*
X159408587Y-114287095D01*
X159487095Y-114208587D01*
X159491471Y-114200000D01*
X159537500Y-114109661D01*
X159540560Y-114090339D01*
X159554869Y-114000000D01*
X159537500Y-113890339D01*
X159537500Y-113890338D01*
X159487097Y-113791415D01*
X159408584Y-113712902D01*
X159309661Y-113662499D01*
X159200000Y-113645131D01*
X159090338Y-113662499D01*
X158991415Y-113712902D01*
X158912902Y-113791415D01*
X158862499Y-113890338D01*
X158845131Y-113999999D01*
X158654869Y-113999999D01*
X158637500Y-113890339D01*
X158637500Y-113890338D01*
X158587097Y-113791415D01*
X158508584Y-113712902D01*
X158409661Y-113662499D01*
X158300000Y-113645131D01*
X158190338Y-113662499D01*
X158091415Y-113712902D01*
X158012902Y-113791415D01*
X157962499Y-113890338D01*
X157945131Y-113999999D01*
X157495683Y-113999999D01*
X157537095Y-113958587D01*
X157571870Y-113890338D01*
X157587500Y-113859661D01*
X157598309Y-113791415D01*
X157604869Y-113750000D01*
X157587500Y-113640339D01*
X157587500Y-113640338D01*
X157537097Y-113541415D01*
X157458584Y-113462902D01*
X157359661Y-113412499D01*
X157250000Y-113395131D01*
X157140338Y-113412499D01*
X157041415Y-113462902D01*
X156962902Y-113541415D01*
X156912499Y-113640338D01*
X156895131Y-113749999D01*
X156912499Y-113859661D01*
X156962902Y-113958584D01*
X156962905Y-113958587D01*
X157041413Y-114037095D01*
X157120115Y-114077195D01*
X157139343Y-114096423D01*
X157143597Y-114123281D01*
X157131252Y-114147511D01*
X157107023Y-114159857D01*
X157090338Y-114162499D01*
X156991415Y-114212902D01*
X156912902Y-114291415D01*
X156862499Y-114390338D01*
X156845131Y-114500000D01*
X154350500Y-114500000D01*
X154350500Y-114022156D01*
X154350500Y-113987974D01*
X154322895Y-113867031D01*
X154269071Y-113755263D01*
X154264873Y-113749999D01*
X154191725Y-113658274D01*
X154094739Y-113580930D01*
X153982967Y-113527104D01*
X153926742Y-113514271D01*
X153901131Y-113497502D01*
X153892656Y-113468086D01*
X153905420Y-113440261D01*
X153908585Y-113437096D01*
X153908587Y-113437095D01*
X153987095Y-113358587D01*
X153987095Y-113358586D01*
X153992023Y-113353659D01*
X153993008Y-113354644D01*
X154009231Y-113340036D01*
X154040769Y-113340036D01*
X154056991Y-113354644D01*
X154057977Y-113353659D01*
X154141415Y-113437097D01*
X154240338Y-113487500D01*
X154255332Y-113489874D01*
X154350000Y-113504869D01*
X154459661Y-113487500D01*
X154461402Y-113486613D01*
X154558584Y-113437097D01*
X154558584Y-113437096D01*
X154558587Y-113437095D01*
X154637095Y-113358587D01*
X154637095Y-113358586D01*
X154642023Y-113353659D01*
X154643008Y-113354644D01*
X154659231Y-113340036D01*
X154690769Y-113340036D01*
X154706991Y-113354644D01*
X154707977Y-113353659D01*
X154791415Y-113437097D01*
X154890338Y-113487500D01*
X154905332Y-113489874D01*
X155000000Y-113504869D01*
X155109661Y-113487500D01*
X155111402Y-113486613D01*
X155208584Y-113437097D01*
X155208584Y-113437096D01*
X155208587Y-113437095D01*
X155287095Y-113358587D01*
X155296548Y-113340036D01*
X155337500Y-113259661D01*
X155350785Y-113175782D01*
X155354869Y-113150000D01*
X155337500Y-113040339D01*
X155337500Y-113040338D01*
X155287097Y-112941415D01*
X155208584Y-112862902D01*
X155109661Y-112812499D01*
X155000000Y-112795131D01*
X154890338Y-112812499D01*
X154791415Y-112862902D01*
X154749696Y-112904621D01*
X154712905Y-112941413D01*
X154712904Y-112941414D01*
X154707978Y-112946341D01*
X154706993Y-112945356D01*
X154690768Y-112959966D01*
X154659232Y-112959966D01*
X154643006Y-112945356D01*
X154642022Y-112946341D01*
X154637095Y-112941414D01*
X154637095Y-112941413D01*
X154558587Y-112862905D01*
X154558586Y-112862904D01*
X154558584Y-112862902D01*
X154459661Y-112812499D01*
X154350000Y-112795131D01*
X154240338Y-112812499D01*
X154141415Y-112862902D01*
X154099696Y-112904621D01*
X154062905Y-112941413D01*
X154062904Y-112941414D01*
X154057978Y-112946341D01*
X154056993Y-112945356D01*
X154040768Y-112959966D01*
X154009232Y-112959966D01*
X153993006Y-112945356D01*
X153992022Y-112946341D01*
X153987095Y-112941414D01*
X153987095Y-112941413D01*
X153908587Y-112862905D01*
X153908586Y-112862904D01*
X153908584Y-112862902D01*
X153809661Y-112812499D01*
X153714993Y-112797505D01*
X153700000Y-112795131D01*
X153699999Y-112795131D01*
X153601126Y-112810791D01*
X153568380Y-112802930D01*
X153550785Y-112774216D01*
X153537500Y-112690338D01*
X153487097Y-112591415D01*
X153408584Y-112512902D01*
X153383260Y-112499999D01*
X161045131Y-112499999D01*
X161062499Y-112609661D01*
X161112902Y-112708584D01*
X161191415Y-112787097D01*
X161290338Y-112837500D01*
X161305332Y-112839874D01*
X161400000Y-112854869D01*
X161509661Y-112837500D01*
X161562081Y-112810791D01*
X161608584Y-112787097D01*
X161608584Y-112787096D01*
X161608587Y-112787095D01*
X161687095Y-112708587D01*
X161696394Y-112690338D01*
X161737500Y-112609661D01*
X161741074Y-112587095D01*
X161754869Y-112500000D01*
X161737500Y-112390339D01*
X161737500Y-112390338D01*
X161687097Y-112291415D01*
X161608584Y-112212902D01*
X161509661Y-112162499D01*
X161400000Y-112145131D01*
X161290338Y-112162499D01*
X161191415Y-112212902D01*
X161112902Y-112291415D01*
X161062499Y-112390338D01*
X161045131Y-112499999D01*
X153383260Y-112499999D01*
X153309661Y-112462499D01*
X153200000Y-112445131D01*
X153090338Y-112462499D01*
X152991415Y-112512902D01*
X152912902Y-112591415D01*
X152862499Y-112690338D01*
X152845131Y-112799999D01*
X152862499Y-112909661D01*
X152912902Y-113008584D01*
X152991415Y-113087097D01*
X153090338Y-113137500D01*
X153107707Y-113140250D01*
X153200000Y-113154869D01*
X153298874Y-113139208D01*
X153331618Y-113147069D01*
X153349214Y-113175782D01*
X153362500Y-113259661D01*
X153412902Y-113358584D01*
X153478705Y-113424387D01*
X153491592Y-113455500D01*
X153478705Y-113486613D01*
X153447592Y-113499500D01*
X146237974Y-113499500D01*
X146117032Y-113527104D01*
X146005260Y-113580930D01*
X145908274Y-113658274D01*
X145830930Y-113755260D01*
X145777104Y-113867032D01*
X145749500Y-113987974D01*
X145749500Y-114612026D01*
X138402647Y-114612026D01*
X137885965Y-114199999D01*
X140045131Y-114199999D01*
X140062499Y-114309661D01*
X140112902Y-114408584D01*
X140191415Y-114487097D01*
X140290338Y-114537500D01*
X140305332Y-114539874D01*
X140400000Y-114554869D01*
X140509661Y-114537500D01*
X140545626Y-114519175D01*
X140608584Y-114487097D01*
X140608584Y-114487096D01*
X140608587Y-114487095D01*
X140687095Y-114408587D01*
X140696394Y-114390338D01*
X140737500Y-114309661D01*
X140741218Y-114286186D01*
X140754869Y-114200000D01*
X140737500Y-114090339D01*
X140737500Y-114090338D01*
X140687097Y-113991415D01*
X140608584Y-113912902D01*
X140509661Y-113862499D01*
X140400000Y-113845131D01*
X140290338Y-113862499D01*
X140191415Y-113912902D01*
X140112902Y-113991415D01*
X140062499Y-114090338D01*
X140045131Y-114199999D01*
X137885965Y-114199999D01*
X137759586Y-114099218D01*
X137758125Y-114098000D01*
X137133496Y-113554096D01*
X137132088Y-113552816D01*
X136531536Y-112982401D01*
X136530185Y-112981061D01*
X135954853Y-112385218D01*
X135953562Y-112383821D01*
X135879353Y-112299999D01*
X144045131Y-112299999D01*
X144062499Y-112409661D01*
X144112902Y-112508584D01*
X144191415Y-112587097D01*
X144290338Y-112637500D01*
X144305332Y-112639874D01*
X144400000Y-112654869D01*
X144509661Y-112637500D01*
X144509661Y-112637499D01*
X144608584Y-112587097D01*
X144608584Y-112587096D01*
X144608587Y-112587095D01*
X144687095Y-112508587D01*
X144691471Y-112500000D01*
X144737500Y-112409661D01*
X144740560Y-112390339D01*
X144754869Y-112300000D01*
X144737500Y-112190339D01*
X144737500Y-112190338D01*
X144687097Y-112091415D01*
X144608584Y-112012902D01*
X144509661Y-111962499D01*
X144400000Y-111945131D01*
X144290338Y-111962499D01*
X144191415Y-112012902D01*
X144112902Y-112091415D01*
X144062499Y-112190338D01*
X144045131Y-112299999D01*
X135879353Y-112299999D01*
X135404543Y-111763685D01*
X135403313Y-111762234D01*
X135283470Y-111614459D01*
X135271743Y-111599999D01*
X144745131Y-111599999D01*
X144762499Y-111709661D01*
X144812902Y-111808584D01*
X144891415Y-111887097D01*
X144990338Y-111937500D01*
X145005332Y-111939874D01*
X145100000Y-111954869D01*
X145209661Y-111937500D01*
X145209660Y-111937500D01*
X145308584Y-111887097D01*
X145308584Y-111887096D01*
X145308587Y-111887095D01*
X145387095Y-111808587D01*
X145391471Y-111800000D01*
X145437500Y-111709661D01*
X145440560Y-111690339D01*
X145454869Y-111600000D01*
X145454869Y-111599999D01*
X155645131Y-111599999D01*
X155662499Y-111709661D01*
X155712902Y-111808584D01*
X155791415Y-111887097D01*
X155890338Y-111937500D01*
X155905332Y-111939874D01*
X156000000Y-111954869D01*
X156109661Y-111937500D01*
X156109660Y-111937500D01*
X156183260Y-111900000D01*
X159945131Y-111900000D01*
X159962499Y-112009661D01*
X160012902Y-112108584D01*
X160091415Y-112187097D01*
X160190338Y-112237500D01*
X160205332Y-112239874D01*
X160300000Y-112254869D01*
X160409661Y-112237500D01*
X160457938Y-112212902D01*
X160508584Y-112187097D01*
X160508584Y-112187096D01*
X160508587Y-112187095D01*
X160587095Y-112108587D01*
X160637500Y-112009661D01*
X160654869Y-111900000D01*
X160639030Y-111799999D01*
X161545131Y-111799999D01*
X161562499Y-111909661D01*
X161612902Y-112008584D01*
X161691415Y-112087097D01*
X161790338Y-112137500D01*
X161805332Y-112139874D01*
X161900000Y-112154869D01*
X162009661Y-112137500D01*
X162009660Y-112137500D01*
X162108584Y-112087097D01*
X162108584Y-112087096D01*
X162108587Y-112087095D01*
X162187095Y-112008587D01*
X162210578Y-111962500D01*
X162237500Y-111909661D01*
X162241074Y-111887095D01*
X162254869Y-111800000D01*
X162240250Y-111707707D01*
X162237500Y-111690338D01*
X162200361Y-111617448D01*
X162196781Y-111587201D01*
X162213703Y-111561876D01*
X162243017Y-111553609D01*
X162270678Y-111566360D01*
X162291415Y-111587097D01*
X162390338Y-111637500D01*
X162405332Y-111639874D01*
X162500000Y-111654869D01*
X162609661Y-111637500D01*
X162651820Y-111616019D01*
X162708584Y-111587097D01*
X162708584Y-111587096D01*
X162708587Y-111587095D01*
X162787095Y-111508587D01*
X162796394Y-111490338D01*
X162837500Y-111409661D01*
X162840390Y-111391413D01*
X162854869Y-111300000D01*
X162837500Y-111190339D01*
X162837500Y-111190338D01*
X162787097Y-111091415D01*
X162708584Y-111012902D01*
X162609661Y-110962499D01*
X162500000Y-110945131D01*
X162390338Y-110962499D01*
X162291415Y-111012902D01*
X162212902Y-111091415D01*
X162162499Y-111190338D01*
X162145131Y-111299999D01*
X162162499Y-111409661D01*
X162199638Y-111482551D01*
X162203218Y-111512798D01*
X162186296Y-111538123D01*
X162156982Y-111546390D01*
X162129321Y-111533639D01*
X162108584Y-111512902D01*
X162009661Y-111462499D01*
X161900000Y-111445131D01*
X161790338Y-111462499D01*
X161691415Y-111512902D01*
X161612902Y-111591415D01*
X161562499Y-111690338D01*
X161545131Y-111799999D01*
X160639030Y-111799999D01*
X160637500Y-111790339D01*
X160637500Y-111790338D01*
X160587097Y-111691415D01*
X160508584Y-111612902D01*
X160409661Y-111562499D01*
X160300000Y-111545131D01*
X160190338Y-111562499D01*
X160091415Y-111612902D01*
X160012902Y-111691415D01*
X159962499Y-111790338D01*
X159945131Y-111900000D01*
X156183260Y-111900000D01*
X156208584Y-111887097D01*
X156208584Y-111887096D01*
X156208587Y-111887095D01*
X156287095Y-111808587D01*
X156291471Y-111800000D01*
X156337500Y-111709661D01*
X156340560Y-111690339D01*
X156354869Y-111600000D01*
X156337500Y-111490339D01*
X156337500Y-111490338D01*
X156287097Y-111391415D01*
X156208584Y-111312902D01*
X156109661Y-111262499D01*
X156000000Y-111245131D01*
X155890338Y-111262499D01*
X155791415Y-111312902D01*
X155712902Y-111391415D01*
X155662499Y-111490338D01*
X155645131Y-111599999D01*
X145454869Y-111599999D01*
X145437500Y-111490339D01*
X145437500Y-111490338D01*
X145387097Y-111391415D01*
X145308584Y-111312902D01*
X145209661Y-111262499D01*
X145100000Y-111245131D01*
X144990338Y-111262499D01*
X144891415Y-111312902D01*
X144812902Y-111391415D01*
X144762499Y-111490338D01*
X144745131Y-111599999D01*
X135271743Y-111599999D01*
X134881594Y-111118917D01*
X134880435Y-111117424D01*
X134861144Y-111091415D01*
X134422498Y-110500000D01*
X144745131Y-110500000D01*
X144762499Y-110609661D01*
X144812902Y-110708584D01*
X144891415Y-110787097D01*
X144990338Y-110837500D01*
X145005332Y-110839874D01*
X145100000Y-110854869D01*
X145209661Y-110837500D01*
X145209660Y-110837500D01*
X145308584Y-110787097D01*
X145308584Y-110787096D01*
X145308587Y-110787095D01*
X145387095Y-110708587D01*
X145423316Y-110637500D01*
X145437500Y-110609661D01*
X145446178Y-110554869D01*
X145454869Y-110500000D01*
X145437500Y-110390339D01*
X145437500Y-110390338D01*
X145387097Y-110291415D01*
X145308584Y-110212902D01*
X145209661Y-110162499D01*
X145100000Y-110145131D01*
X144990338Y-110162499D01*
X144891415Y-110212902D01*
X144812902Y-110291415D01*
X144762499Y-110390338D01*
X144745131Y-110500000D01*
X134422498Y-110500000D01*
X134387024Y-110452172D01*
X134385926Y-110450623D01*
X134342936Y-110387095D01*
X134148657Y-110099999D01*
X151345131Y-110099999D01*
X151362499Y-110209661D01*
X151412902Y-110308584D01*
X151491415Y-110387097D01*
X151590338Y-110437500D01*
X151605332Y-110439874D01*
X151700000Y-110454869D01*
X151809661Y-110437500D01*
X151809661Y-110437499D01*
X151908584Y-110387097D01*
X151908584Y-110387096D01*
X151908587Y-110387095D01*
X151987095Y-110308587D01*
X151991471Y-110300000D01*
X152037500Y-110209661D01*
X152039030Y-110200000D01*
X152545131Y-110200000D01*
X152562499Y-110309661D01*
X152612902Y-110408584D01*
X152691415Y-110487097D01*
X152790338Y-110537500D01*
X152805332Y-110539874D01*
X152900000Y-110554869D01*
X153009661Y-110537500D01*
X153009661Y-110537499D01*
X153083260Y-110500000D01*
X155945131Y-110500000D01*
X155962499Y-110609661D01*
X156012902Y-110708584D01*
X156091415Y-110787097D01*
X156190338Y-110837500D01*
X156205332Y-110839874D01*
X156300000Y-110854869D01*
X156409661Y-110837500D01*
X156409660Y-110837500D01*
X156508584Y-110787097D01*
X156508584Y-110787096D01*
X156508587Y-110787095D01*
X156587095Y-110708587D01*
X156623316Y-110637500D01*
X156637500Y-110609661D01*
X156646178Y-110554869D01*
X156654869Y-110500000D01*
X156637500Y-110390339D01*
X156637500Y-110390338D01*
X156587097Y-110291415D01*
X156518373Y-110222691D01*
X156505546Y-110193881D01*
X156515292Y-110163888D01*
X156542601Y-110148121D01*
X156609661Y-110137500D01*
X156612387Y-110136111D01*
X156708584Y-110087097D01*
X156708584Y-110087096D01*
X156708587Y-110087095D01*
X156787095Y-110008587D01*
X156791471Y-110000000D01*
X158545131Y-110000000D01*
X158562499Y-110109661D01*
X158612902Y-110208584D01*
X158691415Y-110287097D01*
X158790338Y-110337500D01*
X158805332Y-110339874D01*
X158900000Y-110354869D01*
X159009661Y-110337500D01*
X159009661Y-110337499D01*
X159083260Y-110300000D01*
X162645131Y-110300000D01*
X162662499Y-110409661D01*
X162712902Y-110508584D01*
X162791415Y-110587097D01*
X162890338Y-110637500D01*
X162905332Y-110639874D01*
X163000000Y-110654869D01*
X163109661Y-110637500D01*
X163109660Y-110637500D01*
X163208584Y-110587097D01*
X163208584Y-110587096D01*
X163208587Y-110587095D01*
X163287095Y-110508587D01*
X163291471Y-110500000D01*
X163337500Y-110409661D01*
X163340560Y-110390339D01*
X163354869Y-110300000D01*
X163337500Y-110190339D01*
X163337500Y-110190338D01*
X163287097Y-110091415D01*
X163208584Y-110012902D01*
X163109661Y-109962499D01*
X163000000Y-109945131D01*
X162890338Y-109962499D01*
X162791415Y-110012902D01*
X162712902Y-110091415D01*
X162662499Y-110190338D01*
X162645131Y-110300000D01*
X159083260Y-110300000D01*
X159108584Y-110287097D01*
X159108584Y-110287096D01*
X159108587Y-110287095D01*
X159187095Y-110208587D01*
X159191471Y-110200000D01*
X159237500Y-110109661D01*
X159240560Y-110090339D01*
X159254869Y-110000000D01*
X159238661Y-109897671D01*
X159237500Y-109890338D01*
X159187097Y-109791415D01*
X159108584Y-109712902D01*
X159009661Y-109662499D01*
X158900000Y-109645131D01*
X158790338Y-109662499D01*
X158691415Y-109712902D01*
X158612902Y-109791415D01*
X158562499Y-109890338D01*
X158545131Y-110000000D01*
X156791471Y-110000000D01*
X156837500Y-109909661D01*
X156840560Y-109890339D01*
X156854869Y-109800000D01*
X156837500Y-109690339D01*
X156837500Y-109690338D01*
X156787097Y-109591415D01*
X156708584Y-109512902D01*
X156609661Y-109462499D01*
X156500000Y-109445131D01*
X156390338Y-109462499D01*
X156291415Y-109512902D01*
X156212902Y-109591415D01*
X156162499Y-109690338D01*
X156145131Y-109800000D01*
X156162499Y-109909661D01*
X156212902Y-110008584D01*
X156281626Y-110077308D01*
X156294453Y-110106118D01*
X156284707Y-110136111D01*
X156257396Y-110151879D01*
X156190338Y-110162499D01*
X156091415Y-110212902D01*
X156012902Y-110291415D01*
X155962499Y-110390338D01*
X155945131Y-110500000D01*
X153083260Y-110500000D01*
X153108584Y-110487097D01*
X153108584Y-110487096D01*
X153108587Y-110487095D01*
X153187095Y-110408587D01*
X153196394Y-110390338D01*
X153237500Y-110309661D01*
X153241360Y-110285291D01*
X153254869Y-110200000D01*
X153239030Y-110099999D01*
X153237500Y-110090338D01*
X153187097Y-109991415D01*
X153108584Y-109912902D01*
X153009661Y-109862499D01*
X152900000Y-109845131D01*
X152790338Y-109862499D01*
X152691415Y-109912902D01*
X152612902Y-109991415D01*
X152562499Y-110090338D01*
X152545131Y-110200000D01*
X152039030Y-110200000D01*
X152040560Y-110190339D01*
X152054869Y-110100000D01*
X152039030Y-110000000D01*
X152037500Y-109990338D01*
X151987097Y-109891415D01*
X151908584Y-109812902D01*
X151809661Y-109762499D01*
X151700000Y-109745131D01*
X151590338Y-109762499D01*
X151491415Y-109812902D01*
X151412902Y-109891415D01*
X151362499Y-109990338D01*
X151345131Y-110099999D01*
X134148657Y-110099999D01*
X133921719Y-109764640D01*
X133920691Y-109763046D01*
X133900444Y-109730146D01*
X133697267Y-109399999D01*
X144745131Y-109399999D01*
X144762499Y-109509661D01*
X144812902Y-109608584D01*
X144891415Y-109687097D01*
X144990338Y-109737500D01*
X145005332Y-109739874D01*
X145100000Y-109754869D01*
X145209661Y-109737500D01*
X145257938Y-109712902D01*
X145308584Y-109687097D01*
X145308584Y-109687096D01*
X145308587Y-109687095D01*
X145387095Y-109608587D01*
X145391471Y-109600000D01*
X145437500Y-109509661D01*
X145440560Y-109490339D01*
X145454869Y-109400000D01*
X145454869Y-109399999D01*
X163245131Y-109399999D01*
X163262499Y-109509661D01*
X163312902Y-109608584D01*
X163391415Y-109687097D01*
X163490338Y-109737500D01*
X163505332Y-109739874D01*
X163600000Y-109754869D01*
X163709661Y-109737500D01*
X163757938Y-109712902D01*
X163808584Y-109687097D01*
X163808584Y-109687096D01*
X163808587Y-109687095D01*
X163887095Y-109608587D01*
X163891471Y-109600000D01*
X163937500Y-109509661D01*
X163940560Y-109490339D01*
X163954869Y-109400000D01*
X163937500Y-109290339D01*
X163937500Y-109290338D01*
X163887097Y-109191415D01*
X163808584Y-109112902D01*
X163709661Y-109062499D01*
X163600000Y-109045131D01*
X163490338Y-109062499D01*
X163391415Y-109112902D01*
X163312902Y-109191415D01*
X163262499Y-109290338D01*
X163245131Y-109399999D01*
X145454869Y-109399999D01*
X145437500Y-109290339D01*
X145437500Y-109290338D01*
X145387097Y-109191415D01*
X145308584Y-109112902D01*
X145209661Y-109062499D01*
X145100000Y-109045131D01*
X144990338Y-109062499D01*
X144891415Y-109112902D01*
X144812902Y-109191415D01*
X144762499Y-109290338D01*
X144745131Y-109399999D01*
X133697267Y-109399999D01*
X133486592Y-109057669D01*
X133485634Y-109056035D01*
X133479557Y-109045131D01*
X133217550Y-108574999D01*
X150645131Y-108574999D01*
X150662499Y-108684661D01*
X150712902Y-108783584D01*
X150791415Y-108862097D01*
X150890338Y-108912500D01*
X150905332Y-108914874D01*
X151000000Y-108929869D01*
X151109661Y-108912500D01*
X151208587Y-108862095D01*
X151219179Y-108851502D01*
X151243406Y-108839158D01*
X151270265Y-108843412D01*
X151289493Y-108862639D01*
X151296788Y-108876955D01*
X151312904Y-108908586D01*
X151391415Y-108987097D01*
X151490338Y-109037500D01*
X151505332Y-109039874D01*
X151600000Y-109054869D01*
X151709661Y-109037500D01*
X151709661Y-109037499D01*
X151808584Y-108987097D01*
X151808584Y-108987096D01*
X151808587Y-108987095D01*
X151887095Y-108908587D01*
X151891471Y-108900000D01*
X151891472Y-108899999D01*
X160545131Y-108899999D01*
X160562499Y-109009661D01*
X160612902Y-109108584D01*
X160691415Y-109187097D01*
X160790338Y-109237500D01*
X160805332Y-109239874D01*
X160900000Y-109254869D01*
X161009661Y-109237500D01*
X161009660Y-109237500D01*
X161108584Y-109187097D01*
X161108584Y-109187096D01*
X161108587Y-109187095D01*
X161187095Y-109108587D01*
X161210578Y-109062500D01*
X161237500Y-109009661D01*
X161237500Y-109009660D01*
X161254869Y-108900000D01*
X161237500Y-108790339D01*
X161237500Y-108790338D01*
X161187097Y-108691415D01*
X161108584Y-108612902D01*
X161009661Y-108562499D01*
X160900000Y-108545131D01*
X160790338Y-108562499D01*
X160691415Y-108612902D01*
X160612902Y-108691415D01*
X160562499Y-108790338D01*
X160545131Y-108899999D01*
X151891472Y-108899999D01*
X151937500Y-108809661D01*
X151940560Y-108790339D01*
X151954869Y-108700000D01*
X151937500Y-108590339D01*
X151937500Y-108590338D01*
X151887097Y-108491415D01*
X151808584Y-108412902D01*
X151709661Y-108362499D01*
X151600000Y-108345131D01*
X151490338Y-108362499D01*
X151391414Y-108412903D01*
X151380821Y-108423496D01*
X151356591Y-108435840D01*
X151329733Y-108431586D01*
X151310504Y-108412357D01*
X151308583Y-108408587D01*
X151287095Y-108366413D01*
X151208587Y-108287905D01*
X151208584Y-108287902D01*
X151109661Y-108237499D01*
X151000000Y-108220131D01*
X150890338Y-108237499D01*
X150791415Y-108287902D01*
X150712902Y-108366415D01*
X150662499Y-108465338D01*
X150645131Y-108574999D01*
X133217550Y-108574999D01*
X133082414Y-108332519D01*
X133081531Y-108330849D01*
X133070355Y-108308584D01*
X133015853Y-108199999D01*
X156801556Y-108199999D01*
X156818924Y-108309661D01*
X156869327Y-108408584D01*
X156947840Y-108487097D01*
X157046763Y-108537500D01*
X157061757Y-108539874D01*
X157156425Y-108554869D01*
X157266086Y-108537500D01*
X157266085Y-108537500D01*
X157365009Y-108487097D01*
X157365009Y-108487096D01*
X157365012Y-108487095D01*
X157443520Y-108408587D01*
X157467003Y-108362500D01*
X157493925Y-108309661D01*
X157505354Y-108237500D01*
X157511294Y-108200000D01*
X157495455Y-108100000D01*
X158045131Y-108100000D01*
X158062499Y-108209661D01*
X158112902Y-108308584D01*
X158191415Y-108387097D01*
X158290338Y-108437500D01*
X158305332Y-108439874D01*
X158400000Y-108454869D01*
X158509661Y-108437500D01*
X158557938Y-108412902D01*
X158608584Y-108387097D01*
X158608584Y-108387096D01*
X158608587Y-108387095D01*
X158687095Y-108308587D01*
X158697635Y-108287902D01*
X158737500Y-108209661D01*
X158739030Y-108199999D01*
X158752889Y-108112499D01*
X163645131Y-108112499D01*
X163662499Y-108222161D01*
X163712902Y-108321084D01*
X163791415Y-108399597D01*
X163890338Y-108450000D01*
X163905332Y-108452374D01*
X164000000Y-108467369D01*
X164109661Y-108450000D01*
X164145801Y-108431586D01*
X164208584Y-108399597D01*
X164208584Y-108399596D01*
X164208587Y-108399595D01*
X164287095Y-108321087D01*
X164304004Y-108287902D01*
X164337500Y-108222161D01*
X164349441Y-108146768D01*
X164354869Y-108112500D01*
X164337500Y-108002839D01*
X164337500Y-108002838D01*
X164287097Y-107903915D01*
X164208584Y-107825402D01*
X164109661Y-107774999D01*
X164000000Y-107757631D01*
X163890338Y-107774999D01*
X163791415Y-107825402D01*
X163712902Y-107903915D01*
X163662499Y-108002838D01*
X163645131Y-108112499D01*
X158752889Y-108112499D01*
X158754869Y-108100000D01*
X158739603Y-108003616D01*
X158743857Y-107976758D01*
X158763087Y-107957529D01*
X158789945Y-107953276D01*
X158800000Y-107954869D01*
X158800001Y-107954868D01*
X158800002Y-107954869D01*
X158909661Y-107937500D01*
X159008584Y-107887097D01*
X159008584Y-107887096D01*
X159008587Y-107887095D01*
X159087095Y-107808587D01*
X159104209Y-107775000D01*
X159137500Y-107709661D01*
X159141074Y-107687095D01*
X159154869Y-107600000D01*
X159139030Y-107499999D01*
X159137500Y-107490338D01*
X159087097Y-107391415D01*
X159008584Y-107312902D01*
X158909661Y-107262499D01*
X158800000Y-107245131D01*
X158690338Y-107262499D01*
X158591415Y-107312902D01*
X158512902Y-107391415D01*
X158462499Y-107490338D01*
X158445131Y-107600000D01*
X158460396Y-107696382D01*
X158456142Y-107723240D01*
X158436915Y-107742469D01*
X158410057Y-107746723D01*
X158400000Y-107745131D01*
X158399999Y-107745131D01*
X158290338Y-107762499D01*
X158191415Y-107812902D01*
X158112902Y-107891415D01*
X158062499Y-107990338D01*
X158045131Y-108100000D01*
X157495455Y-108100000D01*
X157493925Y-108090339D01*
X157493925Y-108090338D01*
X157443522Y-107991415D01*
X157433220Y-107981113D01*
X157420333Y-107950000D01*
X157433220Y-107918887D01*
X157433220Y-107918886D01*
X157443520Y-107908587D01*
X157445901Y-107903915D01*
X157493925Y-107809661D01*
X157499415Y-107774999D01*
X157511294Y-107700000D01*
X157495455Y-107600000D01*
X157493925Y-107590338D01*
X157443522Y-107491415D01*
X157365009Y-107412902D01*
X157266086Y-107362499D01*
X157156425Y-107345131D01*
X157046763Y-107362499D01*
X156947840Y-107412902D01*
X156869327Y-107491415D01*
X156818924Y-107590338D01*
X156802129Y-107696382D01*
X156801556Y-107700000D01*
X156802916Y-107708584D01*
X156818924Y-107809661D01*
X156869327Y-107908584D01*
X156879630Y-107918887D01*
X156892517Y-107950000D01*
X156879630Y-107981113D01*
X156869327Y-107991415D01*
X156818924Y-108090338D01*
X156801556Y-108199999D01*
X133015853Y-108199999D01*
X132710192Y-107591030D01*
X132708976Y-107588394D01*
X132582792Y-107289270D01*
X132581436Y-107285611D01*
X132553966Y-107200000D01*
X138145131Y-107200000D01*
X138162499Y-107309661D01*
X138212902Y-107408584D01*
X138291415Y-107487097D01*
X138390338Y-107537500D01*
X138405332Y-107539874D01*
X138500000Y-107554869D01*
X138609661Y-107537500D01*
X138622928Y-107530740D01*
X138708584Y-107487097D01*
X138708584Y-107487096D01*
X138708587Y-107487095D01*
X138787095Y-107408587D01*
X138789628Y-107403617D01*
X138837500Y-107309661D01*
X138840560Y-107290339D01*
X138854869Y-107200000D01*
X144745131Y-107200000D01*
X144762499Y-107309661D01*
X144812902Y-107408584D01*
X144891415Y-107487097D01*
X144990338Y-107537500D01*
X145005332Y-107539874D01*
X145100000Y-107554869D01*
X145209661Y-107537500D01*
X145222928Y-107530740D01*
X145308584Y-107487097D01*
X145308584Y-107487096D01*
X145308587Y-107487095D01*
X145387095Y-107408587D01*
X145389628Y-107403617D01*
X145437500Y-107309661D01*
X145440560Y-107290339D01*
X145454869Y-107200000D01*
X146945131Y-107200000D01*
X146962499Y-107309661D01*
X147012902Y-107408584D01*
X147091415Y-107487097D01*
X147190338Y-107537500D01*
X147205332Y-107539874D01*
X147300000Y-107554869D01*
X147409661Y-107537500D01*
X147422928Y-107530740D01*
X147508584Y-107487097D01*
X147508584Y-107487096D01*
X147508587Y-107487095D01*
X147587095Y-107408587D01*
X147589628Y-107403617D01*
X147591471Y-107400000D01*
X149345131Y-107400000D01*
X149362499Y-107509661D01*
X149412902Y-107608584D01*
X149491415Y-107687097D01*
X149590338Y-107737500D01*
X149605332Y-107739874D01*
X149700000Y-107754869D01*
X149809661Y-107737500D01*
X149837648Y-107723240D01*
X149908584Y-107687097D01*
X149908584Y-107687096D01*
X149908587Y-107687095D01*
X149987095Y-107608587D01*
X149991471Y-107600000D01*
X150037500Y-107509661D01*
X150055960Y-107393117D01*
X150057875Y-107393420D01*
X150060100Y-107379340D01*
X150079340Y-107360100D01*
X150093417Y-107357875D01*
X150093114Y-107355960D01*
X150099999Y-107354868D01*
X150100000Y-107354869D01*
X150110054Y-107353276D01*
X150136912Y-107357529D01*
X150156142Y-107376757D01*
X150160396Y-107403617D01*
X150145131Y-107499999D01*
X150162499Y-107609661D01*
X150212902Y-107708584D01*
X150291415Y-107787097D01*
X150390338Y-107837500D01*
X150405332Y-107839874D01*
X150500000Y-107854869D01*
X150609661Y-107837500D01*
X150657938Y-107812902D01*
X150708584Y-107787097D01*
X150708584Y-107787096D01*
X150708587Y-107787095D01*
X150787095Y-107708587D01*
X150810795Y-107662071D01*
X150834232Y-107640970D01*
X150865768Y-107640970D01*
X150889205Y-107662072D01*
X150912904Y-107708586D01*
X150991415Y-107787097D01*
X151090338Y-107837500D01*
X151105332Y-107839874D01*
X151200000Y-107854869D01*
X151309661Y-107837500D01*
X151357938Y-107812902D01*
X151408584Y-107787097D01*
X151408584Y-107787096D01*
X151408587Y-107787095D01*
X151487095Y-107708587D01*
X151489414Y-107704037D01*
X151537500Y-107609661D01*
X151540560Y-107590339D01*
X151554869Y-107500000D01*
X151539030Y-107400000D01*
X152745131Y-107400000D01*
X152762499Y-107509661D01*
X152812902Y-107608584D01*
X152891415Y-107687097D01*
X152990338Y-107737500D01*
X153005332Y-107739874D01*
X153100000Y-107754869D01*
X153209661Y-107737500D01*
X153237648Y-107723240D01*
X153308584Y-107687097D01*
X153308584Y-107687096D01*
X153308587Y-107687095D01*
X153387095Y-107608587D01*
X153391471Y-107600000D01*
X153437500Y-107509661D01*
X153439030Y-107499999D01*
X154145131Y-107499999D01*
X154162499Y-107609661D01*
X154212902Y-107708584D01*
X154291415Y-107787097D01*
X154390338Y-107837500D01*
X154405332Y-107839874D01*
X154500000Y-107854869D01*
X154609661Y-107837500D01*
X154657938Y-107812902D01*
X154708584Y-107787097D01*
X154708584Y-107787096D01*
X154708587Y-107787095D01*
X154787095Y-107708587D01*
X154789414Y-107704037D01*
X154837500Y-107609661D01*
X154840560Y-107590339D01*
X154854869Y-107500000D01*
X154837940Y-107393117D01*
X154837500Y-107390338D01*
X154787097Y-107291415D01*
X154751795Y-107256113D01*
X154738908Y-107225000D01*
X154751795Y-107193887D01*
X154754269Y-107191413D01*
X154787095Y-107158587D01*
X154793140Y-107146724D01*
X154837500Y-107059661D01*
X154839974Y-107044041D01*
X154854869Y-106950000D01*
X154837500Y-106840339D01*
X154837500Y-106840338D01*
X154787097Y-106741415D01*
X154708584Y-106662902D01*
X154609661Y-106612499D01*
X154500000Y-106595131D01*
X154390338Y-106612499D01*
X154291415Y-106662902D01*
X154212902Y-106741415D01*
X154162499Y-106840338D01*
X154145131Y-106950000D01*
X154162499Y-107059661D01*
X154212902Y-107158584D01*
X154248205Y-107193887D01*
X154261092Y-107225000D01*
X154248205Y-107256113D01*
X154212902Y-107291415D01*
X154162499Y-107390338D01*
X154145131Y-107499999D01*
X153439030Y-107499999D01*
X153440560Y-107490339D01*
X153454869Y-107400000D01*
X153439874Y-107305332D01*
X153437500Y-107290338D01*
X153387097Y-107191415D01*
X153308584Y-107112902D01*
X153209661Y-107062499D01*
X153100000Y-107045131D01*
X152990338Y-107062499D01*
X152891415Y-107112902D01*
X152812902Y-107191415D01*
X152762499Y-107290338D01*
X152745131Y-107400000D01*
X151539030Y-107400000D01*
X151537940Y-107393117D01*
X151537500Y-107390338D01*
X151487097Y-107291415D01*
X151408584Y-107212902D01*
X151309661Y-107162499D01*
X151200000Y-107145131D01*
X151090338Y-107162499D01*
X150991415Y-107212902D01*
X150912902Y-107291415D01*
X150889204Y-107337927D01*
X150865768Y-107359030D01*
X150834232Y-107359030D01*
X150810796Y-107337927D01*
X150787097Y-107291415D01*
X150708584Y-107212902D01*
X150609661Y-107162499D01*
X150500001Y-107145131D01*
X150500000Y-107145131D01*
X150489942Y-107146724D01*
X150463084Y-107142469D01*
X150443856Y-107123240D01*
X150439603Y-107096382D01*
X150440560Y-107090339D01*
X150454869Y-107000000D01*
X150437500Y-106890339D01*
X150437500Y-106890338D01*
X150387097Y-106791415D01*
X150308584Y-106712902D01*
X150209661Y-106662499D01*
X150100000Y-106645131D01*
X149990338Y-106662499D01*
X149891415Y-106712902D01*
X149812902Y-106791415D01*
X149762499Y-106890338D01*
X149744041Y-107006883D01*
X149742131Y-107006580D01*
X149739891Y-107020679D01*
X149720679Y-107039891D01*
X149706580Y-107042131D01*
X149706883Y-107044041D01*
X149700000Y-107045131D01*
X149690799Y-107046588D01*
X149590338Y-107062499D01*
X149491415Y-107112902D01*
X149412902Y-107191415D01*
X149362499Y-107290338D01*
X149345131Y-107400000D01*
X147591471Y-107400000D01*
X147637500Y-107309661D01*
X147640560Y-107290339D01*
X147654869Y-107200000D01*
X147637500Y-107090339D01*
X147637500Y-107090338D01*
X147587097Y-106991415D01*
X147508584Y-106912902D01*
X147409661Y-106862499D01*
X147300000Y-106845131D01*
X147190338Y-106862499D01*
X147091415Y-106912902D01*
X147012902Y-106991415D01*
X146962499Y-107090338D01*
X146945131Y-107200000D01*
X145454869Y-107200000D01*
X145437500Y-107090339D01*
X145437500Y-107090338D01*
X145387097Y-106991415D01*
X145308584Y-106912902D01*
X145209661Y-106862499D01*
X145100000Y-106845131D01*
X144990338Y-106862499D01*
X144891415Y-106912902D01*
X144812902Y-106991415D01*
X144762499Y-107090338D01*
X144745131Y-107200000D01*
X138854869Y-107200000D01*
X138837500Y-107090339D01*
X138837500Y-107090338D01*
X138787097Y-106991415D01*
X138708584Y-106912902D01*
X138609661Y-106862499D01*
X138500000Y-106845131D01*
X138390338Y-106862499D01*
X138291415Y-106912902D01*
X138212902Y-106991415D01*
X138162499Y-107090338D01*
X138145131Y-107200000D01*
X132553966Y-107200000D01*
X132520718Y-107096382D01*
X132482385Y-106976921D01*
X132481361Y-106973161D01*
X132476138Y-106950000D01*
X132410050Y-106656919D01*
X132409362Y-106653079D01*
X132402256Y-106600000D01*
X132545131Y-106600000D01*
X132562499Y-106709661D01*
X132612902Y-106808584D01*
X132691415Y-106887097D01*
X132790338Y-106937500D01*
X132805332Y-106939874D01*
X132900000Y-106954869D01*
X133009661Y-106937500D01*
X133091491Y-106895806D01*
X133108584Y-106887097D01*
X133108584Y-106887096D01*
X133108587Y-106887095D01*
X133187095Y-106808587D01*
X133195087Y-106792903D01*
X133237500Y-106709661D01*
X133237500Y-106709660D01*
X133254869Y-106600000D01*
X133237500Y-106490339D01*
X133237500Y-106490338D01*
X133187097Y-106391415D01*
X133108584Y-106312902D01*
X133009661Y-106262499D01*
X132900000Y-106245131D01*
X132790338Y-106262499D01*
X132691415Y-106312902D01*
X132612902Y-106391415D01*
X132562499Y-106490338D01*
X132545131Y-106600000D01*
X132402256Y-106600000D01*
X132402256Y-106599999D01*
X132366346Y-106331752D01*
X132366001Y-106327875D01*
X132365336Y-106312905D01*
X132355884Y-106099999D01*
X144745131Y-106099999D01*
X144762499Y-106209661D01*
X144812902Y-106308584D01*
X144891415Y-106387097D01*
X144990338Y-106437500D01*
X144999462Y-106438945D01*
X145100000Y-106454869D01*
X145209661Y-106437500D01*
X145209660Y-106437500D01*
X145308584Y-106387097D01*
X145308584Y-106387096D01*
X145308587Y-106387095D01*
X145387095Y-106308587D01*
X145388163Y-106306492D01*
X145437500Y-106209661D01*
X145437499Y-106209661D01*
X145454869Y-106100000D01*
X145454869Y-106099999D01*
X146945131Y-106099999D01*
X146962499Y-106209661D01*
X147012902Y-106308584D01*
X147091415Y-106387097D01*
X147190338Y-106437500D01*
X147199462Y-106438945D01*
X147300000Y-106454869D01*
X147409661Y-106437500D01*
X147409660Y-106437500D01*
X147508584Y-106387097D01*
X147508584Y-106387096D01*
X147508587Y-106387095D01*
X147587095Y-106308587D01*
X147588163Y-106306492D01*
X147637500Y-106209661D01*
X147637499Y-106209661D01*
X147654869Y-106100000D01*
X147637500Y-105990339D01*
X147637500Y-105990338D01*
X147587097Y-105891415D01*
X147508584Y-105812902D01*
X147483260Y-105799999D01*
X149445131Y-105799999D01*
X149462499Y-105909661D01*
X149512902Y-106008584D01*
X149591415Y-106087097D01*
X149690338Y-106137500D01*
X149705332Y-106139874D01*
X149800000Y-106154869D01*
X149909661Y-106137500D01*
X149962872Y-106110388D01*
X150008584Y-106087097D01*
X150008584Y-106087096D01*
X150008587Y-106087095D01*
X150087095Y-106008587D01*
X150089930Y-106003024D01*
X150137500Y-105909661D01*
X150140390Y-105891413D01*
X150154869Y-105800000D01*
X150137500Y-105690339D01*
X150137500Y-105690338D01*
X150087097Y-105591415D01*
X150008584Y-105512902D01*
X149909661Y-105462499D01*
X149800000Y-105445131D01*
X149690338Y-105462499D01*
X149591415Y-105512902D01*
X149512902Y-105591415D01*
X149462499Y-105690338D01*
X149445131Y-105799999D01*
X147483260Y-105799999D01*
X147409661Y-105762499D01*
X147300000Y-105745131D01*
X147190338Y-105762499D01*
X147091415Y-105812902D01*
X147012902Y-105891415D01*
X146962499Y-105990338D01*
X146945131Y-106099999D01*
X145454869Y-106099999D01*
X145437500Y-105990339D01*
X145437500Y-105990338D01*
X145387097Y-105891415D01*
X145308584Y-105812902D01*
X145209661Y-105762499D01*
X145100000Y-105745131D01*
X144990338Y-105762499D01*
X144891415Y-105812902D01*
X144812902Y-105891415D01*
X144762499Y-105990338D01*
X144745131Y-106099999D01*
X132355884Y-106099999D01*
X132351579Y-106003024D01*
X132351536Y-106001073D01*
X132351536Y-105299999D01*
X150345131Y-105299999D01*
X150362499Y-105409661D01*
X150412902Y-105508584D01*
X150491415Y-105587097D01*
X150590338Y-105637500D01*
X150605332Y-105639874D01*
X150700000Y-105654869D01*
X150809661Y-105637500D01*
X150908587Y-105587095D01*
X150927616Y-105568065D01*
X150951844Y-105555720D01*
X150978703Y-105559974D01*
X150997932Y-105579202D01*
X151012903Y-105608585D01*
X151091415Y-105687097D01*
X151190338Y-105737500D01*
X151207707Y-105740250D01*
X151300000Y-105754869D01*
X151396382Y-105739603D01*
X151423240Y-105743856D01*
X151442469Y-105763084D01*
X151446724Y-105789942D01*
X151445131Y-105800000D01*
X151462499Y-105909661D01*
X151512902Y-106008584D01*
X151591415Y-106087097D01*
X151690338Y-106137500D01*
X151705332Y-106139874D01*
X151800000Y-106154869D01*
X151909661Y-106137500D01*
X151962872Y-106110388D01*
X152008584Y-106087097D01*
X152008584Y-106087096D01*
X152008587Y-106087095D01*
X152087095Y-106008587D01*
X152089930Y-106003024D01*
X152137500Y-105909661D01*
X152140390Y-105891413D01*
X152154869Y-105800000D01*
X152137500Y-105690339D01*
X152137500Y-105690338D01*
X152087097Y-105591415D01*
X152008584Y-105512902D01*
X151909661Y-105462499D01*
X151814993Y-105447505D01*
X151800000Y-105445131D01*
X151799999Y-105445131D01*
X151703617Y-105460396D01*
X151676757Y-105456142D01*
X151657529Y-105436912D01*
X151653276Y-105410054D01*
X151654869Y-105400000D01*
X151639030Y-105299999D01*
X158145131Y-105299999D01*
X158162499Y-105409661D01*
X158212902Y-105508584D01*
X158291415Y-105587097D01*
X158390338Y-105637500D01*
X158405332Y-105639874D01*
X158500000Y-105654869D01*
X158609661Y-105637500D01*
X158609660Y-105637500D01*
X158708584Y-105587097D01*
X158708584Y-105587096D01*
X158708587Y-105587095D01*
X158787095Y-105508587D01*
X158791471Y-105500000D01*
X162845131Y-105500000D01*
X162862499Y-105609661D01*
X162912902Y-105708584D01*
X162991415Y-105787097D01*
X163090338Y-105837500D01*
X163105332Y-105839874D01*
X163200000Y-105854869D01*
X163309661Y-105837500D01*
X163357938Y-105812902D01*
X163408584Y-105787097D01*
X163408584Y-105787096D01*
X163408587Y-105787095D01*
X163487095Y-105708587D01*
X163496394Y-105690338D01*
X163537500Y-105609661D01*
X163544088Y-105568066D01*
X163554869Y-105500000D01*
X163537500Y-105390339D01*
X163537500Y-105390338D01*
X163487097Y-105291415D01*
X163408584Y-105212902D01*
X163309661Y-105162499D01*
X163200000Y-105145131D01*
X163090338Y-105162499D01*
X162991415Y-105212902D01*
X162912902Y-105291415D01*
X162862499Y-105390338D01*
X162845131Y-105500000D01*
X158791471Y-105500000D01*
X158837500Y-105409661D01*
X158840560Y-105390339D01*
X158854869Y-105300000D01*
X158840250Y-105207706D01*
X158837500Y-105190338D01*
X158787097Y-105091415D01*
X158708584Y-105012902D01*
X158609661Y-104962499D01*
X158500000Y-104945131D01*
X158390338Y-104962499D01*
X158291415Y-105012902D01*
X158212902Y-105091415D01*
X158162499Y-105190338D01*
X158145131Y-105299999D01*
X151639030Y-105299999D01*
X151637670Y-105291415D01*
X151637500Y-105290338D01*
X151587097Y-105191415D01*
X151508584Y-105112902D01*
X151409661Y-105062499D01*
X151300000Y-105045131D01*
X151190338Y-105062499D01*
X151091412Y-105112904D01*
X151072382Y-105131934D01*
X151048152Y-105144279D01*
X151021293Y-105140025D01*
X151002066Y-105120796D01*
X150987095Y-105091413D01*
X150908587Y-105012905D01*
X150908584Y-105012902D01*
X150809661Y-104962499D01*
X150700000Y-104945131D01*
X150590338Y-104962499D01*
X150491415Y-105012902D01*
X150412902Y-105091415D01*
X150362499Y-105190338D01*
X150345131Y-105299999D01*
X132351536Y-105299999D01*
X132351536Y-104450000D01*
X165795131Y-104450000D01*
X165812499Y-104559661D01*
X165862902Y-104658584D01*
X165941415Y-104737097D01*
X166040338Y-104787500D01*
X166055332Y-104789874D01*
X166150000Y-104804869D01*
X166259661Y-104787500D01*
X166259660Y-104787500D01*
X166358584Y-104737097D01*
X166358584Y-104737096D01*
X166358587Y-104737095D01*
X166437095Y-104658587D01*
X166487500Y-104559661D01*
X166504869Y-104450000D01*
X166487500Y-104340339D01*
X166487500Y-104340338D01*
X166437097Y-104241415D01*
X166358584Y-104162902D01*
X166259661Y-104112499D01*
X166150000Y-104095131D01*
X166040338Y-104112499D01*
X165941415Y-104162902D01*
X165862902Y-104241415D01*
X165812499Y-104340338D01*
X165795131Y-104450000D01*
X132351536Y-104450000D01*
X132351536Y-103800000D01*
X160045131Y-103800000D01*
X160062499Y-103909661D01*
X160112902Y-104008584D01*
X160191415Y-104087097D01*
X160290338Y-104137500D01*
X160305332Y-104139874D01*
X160400000Y-104154869D01*
X160509661Y-104137500D01*
X160558729Y-104112499D01*
X160608584Y-104087097D01*
X160608584Y-104087096D01*
X160608587Y-104087095D01*
X160687095Y-104008587D01*
X160737500Y-103909661D01*
X160754869Y-103800000D01*
X160737500Y-103690339D01*
X160737500Y-103690338D01*
X160687097Y-103591415D01*
X160608584Y-103512902D01*
X160509661Y-103462499D01*
X160400000Y-103445131D01*
X160290338Y-103462499D01*
X160191415Y-103512902D01*
X160112902Y-103591415D01*
X160062499Y-103690338D01*
X160045131Y-103800000D01*
X132351536Y-103800000D01*
X132351536Y-103304000D01*
X132364423Y-103272887D01*
X132395536Y-103260000D01*
X138041532Y-103260000D01*
X138041533Y-103260000D01*
X138041533Y-102899999D01*
X153445131Y-102899999D01*
X153462499Y-103009661D01*
X153512902Y-103108584D01*
X153591415Y-103187097D01*
X153690338Y-103237500D01*
X153705332Y-103239874D01*
X153800000Y-103254869D01*
X153909661Y-103237500D01*
X153909660Y-103237500D01*
X154008584Y-103187097D01*
X154008584Y-103187096D01*
X154008587Y-103187095D01*
X154087095Y-103108587D01*
X154123316Y-103037500D01*
X154137500Y-103009661D01*
X154141074Y-102987095D01*
X154154869Y-102900000D01*
X154137500Y-102790339D01*
X154137500Y-102790338D01*
X154091471Y-102699999D01*
X160145131Y-102699999D01*
X160162499Y-102809661D01*
X160212902Y-102908584D01*
X160291415Y-102987097D01*
X160390338Y-103037500D01*
X160405332Y-103039874D01*
X160500000Y-103054869D01*
X160609661Y-103037500D01*
X160609661Y-103037499D01*
X160708584Y-102987097D01*
X160708584Y-102987096D01*
X160708587Y-102987095D01*
X160787095Y-102908587D01*
X160791471Y-102900000D01*
X160837500Y-102809661D01*
X160840560Y-102790339D01*
X160854869Y-102700000D01*
X160837500Y-102590339D01*
X160837500Y-102590338D01*
X160791471Y-102500000D01*
X163945131Y-102500000D01*
X163962499Y-102609661D01*
X164012902Y-102708584D01*
X164091415Y-102787097D01*
X164190338Y-102837500D01*
X164205332Y-102839874D01*
X164300000Y-102854869D01*
X164409661Y-102837500D01*
X164409661Y-102837499D01*
X164508584Y-102787097D01*
X164508584Y-102787096D01*
X164508587Y-102787095D01*
X164587095Y-102708587D01*
X164591471Y-102700000D01*
X164637500Y-102609661D01*
X164640560Y-102590339D01*
X164654869Y-102500000D01*
X164637500Y-102390339D01*
X164637500Y-102390338D01*
X164587097Y-102291415D01*
X164508584Y-102212902D01*
X164409661Y-102162499D01*
X164300000Y-102145131D01*
X164190338Y-102162499D01*
X164091415Y-102212902D01*
X164012902Y-102291415D01*
X163962499Y-102390338D01*
X163945131Y-102500000D01*
X160791471Y-102500000D01*
X160787097Y-102491415D01*
X160708584Y-102412902D01*
X160609661Y-102362499D01*
X160500000Y-102345131D01*
X160390338Y-102362499D01*
X160291415Y-102412902D01*
X160212902Y-102491415D01*
X160162499Y-102590338D01*
X160145131Y-102699999D01*
X154091471Y-102699999D01*
X154087097Y-102691415D01*
X154008586Y-102612904D01*
X153964296Y-102590338D01*
X153962071Y-102589204D01*
X153940970Y-102565768D01*
X153940970Y-102534232D01*
X153962071Y-102510795D01*
X154008587Y-102487095D01*
X154087095Y-102408587D01*
X154088329Y-102406167D01*
X154137500Y-102309661D01*
X154140390Y-102291413D01*
X154154869Y-102200000D01*
X154137500Y-102090339D01*
X154137500Y-102090338D01*
X154087097Y-101991415D01*
X154008586Y-101912904D01*
X153983756Y-101900253D01*
X153962071Y-101889204D01*
X153940970Y-101865768D01*
X153940970Y-101834232D01*
X153962071Y-101810795D01*
X154008587Y-101787095D01*
X154087095Y-101708587D01*
X154091471Y-101700000D01*
X154091472Y-101699999D01*
X162145131Y-101699999D01*
X162162499Y-101809661D01*
X162212902Y-101908584D01*
X162291415Y-101987097D01*
X162390338Y-102037500D01*
X162405332Y-102039874D01*
X162500000Y-102054869D01*
X162609661Y-102037500D01*
X162672471Y-102005497D01*
X162708584Y-101987097D01*
X162708584Y-101987096D01*
X162708587Y-101987095D01*
X162787095Y-101908587D01*
X162808913Y-101865768D01*
X162837500Y-101809661D01*
X162841074Y-101787095D01*
X162854869Y-101700000D01*
X162854869Y-101699999D01*
X162945131Y-101699999D01*
X162962499Y-101809661D01*
X163012902Y-101908584D01*
X163091415Y-101987097D01*
X163190338Y-102037500D01*
X163205332Y-102039874D01*
X163300000Y-102054869D01*
X163409661Y-102037500D01*
X163472471Y-102005497D01*
X163508584Y-101987097D01*
X163508584Y-101987096D01*
X163508587Y-101987095D01*
X163587095Y-101908587D01*
X163608913Y-101865768D01*
X163637500Y-101809661D01*
X163641074Y-101787095D01*
X163654869Y-101700000D01*
X163637500Y-101590339D01*
X163637500Y-101590338D01*
X163587097Y-101491415D01*
X163508584Y-101412902D01*
X163409661Y-101362499D01*
X163300000Y-101345131D01*
X163190338Y-101362499D01*
X163091415Y-101412902D01*
X163012902Y-101491415D01*
X162962499Y-101590338D01*
X162945131Y-101699999D01*
X162854869Y-101699999D01*
X162837500Y-101590339D01*
X162837500Y-101590338D01*
X162787097Y-101491415D01*
X162708584Y-101412902D01*
X162609661Y-101362499D01*
X162500000Y-101345131D01*
X162390338Y-101362499D01*
X162291415Y-101412902D01*
X162212902Y-101491415D01*
X162162499Y-101590338D01*
X162145131Y-101699999D01*
X154091472Y-101699999D01*
X154137500Y-101609661D01*
X154140560Y-101590339D01*
X154154869Y-101500000D01*
X154140250Y-101407706D01*
X154137500Y-101390338D01*
X154087097Y-101291415D01*
X154008584Y-101212902D01*
X153909661Y-101162499D01*
X153800000Y-101145131D01*
X153690338Y-101162499D01*
X153591415Y-101212902D01*
X153512902Y-101291415D01*
X153462499Y-101390338D01*
X153445131Y-101499999D01*
X153462499Y-101609661D01*
X153512902Y-101708584D01*
X153591415Y-101787097D01*
X153637927Y-101810796D01*
X153659030Y-101834232D01*
X153659030Y-101865768D01*
X153637927Y-101889204D01*
X153591415Y-101912902D01*
X153512902Y-101991415D01*
X153462499Y-102090338D01*
X153445131Y-102199999D01*
X153462499Y-102309661D01*
X153512902Y-102408584D01*
X153591415Y-102487097D01*
X153637927Y-102510796D01*
X153659030Y-102534232D01*
X153659030Y-102565768D01*
X153637927Y-102589204D01*
X153591415Y-102612902D01*
X153512902Y-102691415D01*
X153462499Y-102790338D01*
X153445131Y-102899999D01*
X138041533Y-102899999D01*
X138041533Y-101600000D01*
X152145131Y-101600000D01*
X152162499Y-101709661D01*
X152212902Y-101808584D01*
X152291415Y-101887097D01*
X152390338Y-101937500D01*
X152405332Y-101939874D01*
X152500000Y-101954869D01*
X152609661Y-101937500D01*
X152657938Y-101912902D01*
X152708584Y-101887097D01*
X152708584Y-101887096D01*
X152708587Y-101887095D01*
X152787095Y-101808587D01*
X152837500Y-101709661D01*
X152854869Y-101600000D01*
X152839030Y-101499999D01*
X152837500Y-101490338D01*
X152787097Y-101391415D01*
X152708584Y-101312902D01*
X152609661Y-101262499D01*
X152500000Y-101245131D01*
X152390338Y-101262499D01*
X152291415Y-101312902D01*
X152212902Y-101391415D01*
X152162499Y-101490338D01*
X152145131Y-101600000D01*
X138041533Y-101600000D01*
X138041533Y-100999999D01*
X160145131Y-100999999D01*
X160162499Y-101109661D01*
X160212902Y-101208584D01*
X160291415Y-101287097D01*
X160390338Y-101337500D01*
X160405332Y-101339874D01*
X160500000Y-101354869D01*
X160609661Y-101337500D01*
X160657938Y-101312902D01*
X160708584Y-101287097D01*
X160708584Y-101287096D01*
X160708587Y-101287095D01*
X160787095Y-101208587D01*
X160810578Y-101162500D01*
X160837500Y-101109661D01*
X160837671Y-101108584D01*
X160854869Y-101000000D01*
X160839030Y-100900000D01*
X165845131Y-100900000D01*
X165862499Y-101009661D01*
X165912902Y-101108584D01*
X165991415Y-101187097D01*
X166090338Y-101237500D01*
X166105332Y-101239874D01*
X166200000Y-101254869D01*
X166309661Y-101237500D01*
X166357938Y-101212902D01*
X166408584Y-101187097D01*
X166408584Y-101187096D01*
X166408587Y-101187095D01*
X166487095Y-101108587D01*
X166537500Y-101009661D01*
X166554869Y-100900000D01*
X166539874Y-100805332D01*
X166537500Y-100790338D01*
X166487097Y-100691415D01*
X166408584Y-100612902D01*
X166309661Y-100562499D01*
X166200000Y-100545131D01*
X166090338Y-100562499D01*
X165991415Y-100612902D01*
X165912902Y-100691415D01*
X165862499Y-100790338D01*
X165845131Y-100900000D01*
X160839030Y-100900000D01*
X160837500Y-100890339D01*
X160837500Y-100890338D01*
X160787097Y-100791415D01*
X160708584Y-100712902D01*
X160609661Y-100662499D01*
X160500000Y-100645131D01*
X160390338Y-100662499D01*
X160291415Y-100712902D01*
X160212902Y-100791415D01*
X160162499Y-100890338D01*
X160145131Y-100999999D01*
X138041533Y-100999999D01*
X138041533Y-100499999D01*
X145845131Y-100499999D01*
X145862499Y-100609661D01*
X145912902Y-100708584D01*
X145991415Y-100787097D01*
X146090338Y-100837500D01*
X146105332Y-100839874D01*
X146200000Y-100854869D01*
X146309661Y-100837500D01*
X146309660Y-100837500D01*
X146408584Y-100787097D01*
X146408584Y-100787096D01*
X146408587Y-100787095D01*
X146487095Y-100708587D01*
X146510578Y-100662500D01*
X146537500Y-100609661D01*
X146537499Y-100609661D01*
X146554869Y-100500000D01*
X146554869Y-100499999D01*
X148245131Y-100499999D01*
X148262499Y-100609661D01*
X148312902Y-100708584D01*
X148391415Y-100787097D01*
X148490338Y-100837500D01*
X148505332Y-100839874D01*
X148600000Y-100854869D01*
X148709661Y-100837500D01*
X148709660Y-100837500D01*
X148808584Y-100787097D01*
X148808584Y-100787096D01*
X148808587Y-100787095D01*
X148887095Y-100708587D01*
X148910578Y-100662500D01*
X148937500Y-100609661D01*
X148937499Y-100609661D01*
X148954869Y-100500000D01*
X148937500Y-100390339D01*
X148937500Y-100390338D01*
X148887097Y-100291415D01*
X148808584Y-100212902D01*
X148734194Y-100174999D01*
X157545131Y-100174999D01*
X157562499Y-100284661D01*
X157612902Y-100383584D01*
X157691415Y-100462097D01*
X157790338Y-100512500D01*
X157805332Y-100514874D01*
X157900000Y-100529869D01*
X158009661Y-100512500D01*
X158059518Y-100487097D01*
X158108584Y-100462097D01*
X158108584Y-100462096D01*
X158108587Y-100462095D01*
X158187095Y-100383587D01*
X158237500Y-100284661D01*
X158250909Y-100200000D01*
X159345131Y-100200000D01*
X159362499Y-100309661D01*
X159412902Y-100408584D01*
X159491415Y-100487097D01*
X159590338Y-100537500D01*
X159605332Y-100539874D01*
X159700000Y-100554869D01*
X159809661Y-100537500D01*
X159858727Y-100512500D01*
X159908584Y-100487097D01*
X159908584Y-100487096D01*
X159908587Y-100487095D01*
X159987095Y-100408587D01*
X159996394Y-100390338D01*
X160037500Y-100309661D01*
X160040390Y-100291413D01*
X160054869Y-100200000D01*
X160145131Y-100200000D01*
X160162499Y-100309661D01*
X160212902Y-100408584D01*
X160291415Y-100487097D01*
X160390338Y-100537500D01*
X160405332Y-100539874D01*
X160500000Y-100554869D01*
X160609661Y-100537500D01*
X160658727Y-100512500D01*
X160708584Y-100487097D01*
X160708584Y-100487096D01*
X160708587Y-100487095D01*
X160787095Y-100408587D01*
X160796394Y-100390338D01*
X160837500Y-100309661D01*
X160840390Y-100291413D01*
X160854869Y-100200000D01*
X160837500Y-100090339D01*
X160837500Y-100090338D01*
X160787097Y-99991415D01*
X160708584Y-99912902D01*
X160609661Y-99862499D01*
X160500000Y-99845131D01*
X160390338Y-99862499D01*
X160291415Y-99912902D01*
X160212902Y-99991415D01*
X160162499Y-100090338D01*
X160145131Y-100200000D01*
X160054869Y-100200000D01*
X160037500Y-100090339D01*
X160037500Y-100090338D01*
X159987097Y-99991415D01*
X159908584Y-99912902D01*
X159809661Y-99862499D01*
X159700000Y-99845131D01*
X159590338Y-99862499D01*
X159491415Y-99912902D01*
X159412902Y-99991415D01*
X159362499Y-100090338D01*
X159345131Y-100200000D01*
X158250909Y-100200000D01*
X158254869Y-100175000D01*
X158237500Y-100065339D01*
X158237500Y-100065338D01*
X158187097Y-99966415D01*
X158108584Y-99887902D01*
X158009661Y-99837499D01*
X157900000Y-99820131D01*
X157790338Y-99837499D01*
X157691415Y-99887902D01*
X157612902Y-99966415D01*
X157562499Y-100065338D01*
X157545131Y-100174999D01*
X148734194Y-100174999D01*
X148709661Y-100162499D01*
X148600000Y-100145131D01*
X148490338Y-100162499D01*
X148391415Y-100212902D01*
X148312902Y-100291415D01*
X148262499Y-100390338D01*
X148245131Y-100499999D01*
X146554869Y-100499999D01*
X146537500Y-100390339D01*
X146537500Y-100390338D01*
X146487097Y-100291415D01*
X146408584Y-100212902D01*
X146309661Y-100162499D01*
X146200000Y-100145131D01*
X146090338Y-100162499D01*
X145991415Y-100212902D01*
X145912902Y-100291415D01*
X145862499Y-100390338D01*
X145845131Y-100499999D01*
X138041533Y-100499999D01*
X138041533Y-99700000D01*
X164345131Y-99700000D01*
X164362499Y-99809661D01*
X164412902Y-99908584D01*
X164491415Y-99987097D01*
X164590338Y-100037500D01*
X164605332Y-100039874D01*
X164700000Y-100054869D01*
X164809661Y-100037500D01*
X164890849Y-99996132D01*
X164922212Y-99992836D01*
X164947725Y-100011373D01*
X164954282Y-100042220D01*
X164945131Y-100099999D01*
X164962499Y-100209661D01*
X165012902Y-100308584D01*
X165091415Y-100387097D01*
X165190338Y-100437500D01*
X165205332Y-100439874D01*
X165300000Y-100454869D01*
X165409661Y-100437500D01*
X165409661Y-100437499D01*
X165508584Y-100387097D01*
X165508584Y-100387096D01*
X165508587Y-100387095D01*
X165587095Y-100308587D01*
X165637500Y-100209661D01*
X165654869Y-100100000D01*
X165638159Y-99994500D01*
X165637500Y-99990338D01*
X165587097Y-99891415D01*
X165508586Y-99812904D01*
X165483756Y-99800253D01*
X165462071Y-99789204D01*
X165440970Y-99765768D01*
X165440970Y-99734232D01*
X165462071Y-99710795D01*
X165508587Y-99687095D01*
X165587095Y-99608587D01*
X165596394Y-99590338D01*
X165637500Y-99509661D01*
X165644451Y-99465772D01*
X165654869Y-99400000D01*
X165637500Y-99290339D01*
X165637500Y-99290338D01*
X165587097Y-99191415D01*
X165508584Y-99112902D01*
X165409661Y-99062499D01*
X165300000Y-99045131D01*
X165190338Y-99062499D01*
X165091415Y-99112902D01*
X165012902Y-99191415D01*
X164962500Y-99290338D01*
X164949984Y-99369356D01*
X164937639Y-99393585D01*
X164913409Y-99405930D01*
X164886551Y-99401676D01*
X164809661Y-99362499D01*
X164700000Y-99345131D01*
X164590338Y-99362499D01*
X164491415Y-99412902D01*
X164412902Y-99491415D01*
X164362499Y-99590338D01*
X164345131Y-99700000D01*
X138041533Y-99700000D01*
X138041533Y-99299999D01*
X144045131Y-99299999D01*
X144062499Y-99409661D01*
X144112902Y-99508584D01*
X144191415Y-99587097D01*
X144290338Y-99637500D01*
X144305332Y-99639874D01*
X144400000Y-99654869D01*
X144509661Y-99637500D01*
X144509661Y-99637499D01*
X144608584Y-99587097D01*
X144608584Y-99587096D01*
X144608587Y-99587095D01*
X144687095Y-99508587D01*
X144737500Y-99409661D01*
X144754869Y-99300000D01*
X144739874Y-99205332D01*
X144737500Y-99190338D01*
X144687097Y-99091415D01*
X144608584Y-99012902D01*
X144509661Y-98962499D01*
X144400000Y-98945131D01*
X144290338Y-98962499D01*
X144191415Y-99012902D01*
X144112902Y-99091415D01*
X144062499Y-99190338D01*
X144045131Y-99299999D01*
X138041533Y-99299999D01*
X138041533Y-98500000D01*
X144045131Y-98500000D01*
X144062499Y-98609661D01*
X144112902Y-98708584D01*
X144191415Y-98787097D01*
X144290338Y-98837500D01*
X144305332Y-98839874D01*
X144400000Y-98854869D01*
X144509661Y-98837500D01*
X144509660Y-98837500D01*
X144608584Y-98787097D01*
X144608584Y-98787096D01*
X144608587Y-98787095D01*
X144687095Y-98708587D01*
X144723316Y-98637500D01*
X144737500Y-98609661D01*
X144746178Y-98554869D01*
X144754869Y-98500000D01*
X144737500Y-98390339D01*
X144737500Y-98390338D01*
X144687097Y-98291415D01*
X144608584Y-98212902D01*
X144509661Y-98162499D01*
X144400000Y-98145131D01*
X144290338Y-98162499D01*
X144191415Y-98212902D01*
X144112902Y-98291415D01*
X144062499Y-98390338D01*
X144045131Y-98500000D01*
X138041533Y-98500000D01*
X138041533Y-98099999D01*
X149045131Y-98099999D01*
X149062499Y-98209661D01*
X149112902Y-98308584D01*
X149191415Y-98387097D01*
X149290338Y-98437500D01*
X149305332Y-98439874D01*
X149400000Y-98454869D01*
X149509661Y-98437500D01*
X149509661Y-98437499D01*
X149608584Y-98387097D01*
X149608584Y-98387096D01*
X149608587Y-98387095D01*
X149687095Y-98308587D01*
X149691471Y-98300000D01*
X149737500Y-98209661D01*
X149740560Y-98190339D01*
X149754869Y-98100000D01*
X149754869Y-98099999D01*
X149845131Y-98099999D01*
X149862499Y-98209661D01*
X149912902Y-98308584D01*
X149991415Y-98387097D01*
X150090338Y-98437500D01*
X150105332Y-98439874D01*
X150200000Y-98454869D01*
X150309661Y-98437500D01*
X150309661Y-98437499D01*
X150408584Y-98387097D01*
X150408584Y-98387096D01*
X150408587Y-98387095D01*
X150487095Y-98308587D01*
X150491471Y-98300000D01*
X150537500Y-98209661D01*
X150540560Y-98190339D01*
X150554869Y-98100000D01*
X150554869Y-98099999D01*
X150645131Y-98099999D01*
X150662499Y-98209661D01*
X150712902Y-98308584D01*
X150791415Y-98387097D01*
X150890338Y-98437500D01*
X150905332Y-98439874D01*
X151000000Y-98454869D01*
X151109661Y-98437500D01*
X151109661Y-98437499D01*
X151208584Y-98387097D01*
X151208584Y-98387096D01*
X151208587Y-98387095D01*
X151287095Y-98308587D01*
X151291471Y-98300000D01*
X151337500Y-98209661D01*
X151340560Y-98190339D01*
X151354869Y-98100000D01*
X151354869Y-98099999D01*
X151445131Y-98099999D01*
X151462499Y-98209661D01*
X151512902Y-98308584D01*
X151591415Y-98387097D01*
X151690338Y-98437500D01*
X151705332Y-98439874D01*
X151800000Y-98454869D01*
X151909661Y-98437500D01*
X151909661Y-98437499D01*
X152008584Y-98387097D01*
X152008584Y-98387096D01*
X152008587Y-98387095D01*
X152087095Y-98308587D01*
X152091471Y-98300000D01*
X152137500Y-98209661D01*
X152140560Y-98190339D01*
X152154869Y-98100000D01*
X152154869Y-98099999D01*
X152245131Y-98099999D01*
X152262499Y-98209661D01*
X152312902Y-98308584D01*
X152391415Y-98387097D01*
X152490338Y-98437500D01*
X152505332Y-98439874D01*
X152600000Y-98454869D01*
X152709661Y-98437500D01*
X152709661Y-98437499D01*
X152808584Y-98387097D01*
X152808584Y-98387096D01*
X152808587Y-98387095D01*
X152887095Y-98308587D01*
X152891471Y-98300000D01*
X152937500Y-98209661D01*
X152940560Y-98190339D01*
X152954869Y-98100000D01*
X152940250Y-98007707D01*
X152937500Y-97990338D01*
X152887097Y-97891415D01*
X152808584Y-97812902D01*
X152709661Y-97762499D01*
X152600000Y-97745131D01*
X152490338Y-97762499D01*
X152391415Y-97812902D01*
X152312902Y-97891415D01*
X152262499Y-97990338D01*
X152245131Y-98099999D01*
X152154869Y-98099999D01*
X152140250Y-98007707D01*
X152137500Y-97990338D01*
X152087097Y-97891415D01*
X152008584Y-97812902D01*
X151909661Y-97762499D01*
X151800000Y-97745131D01*
X151690338Y-97762499D01*
X151591415Y-97812902D01*
X151512902Y-97891415D01*
X151462499Y-97990338D01*
X151445131Y-98099999D01*
X151354869Y-98099999D01*
X151340250Y-98007707D01*
X151337500Y-97990338D01*
X151287097Y-97891415D01*
X151208584Y-97812902D01*
X151109661Y-97762499D01*
X151000000Y-97745131D01*
X150890338Y-97762499D01*
X150791415Y-97812902D01*
X150712902Y-97891415D01*
X150662499Y-97990338D01*
X150645131Y-98099999D01*
X150554869Y-98099999D01*
X150540250Y-98007707D01*
X150537500Y-97990338D01*
X150487097Y-97891415D01*
X150408584Y-97812902D01*
X150309661Y-97762499D01*
X150200000Y-97745131D01*
X150090338Y-97762499D01*
X149991415Y-97812902D01*
X149912902Y-97891415D01*
X149862499Y-97990338D01*
X149845131Y-98099999D01*
X149754869Y-98099999D01*
X149739874Y-98005332D01*
X149737500Y-97990338D01*
X149687097Y-97891415D01*
X149608584Y-97812902D01*
X149509661Y-97762499D01*
X149400000Y-97745131D01*
X149290338Y-97762499D01*
X149191415Y-97812902D01*
X149112902Y-97891415D01*
X149062499Y-97990338D01*
X149045131Y-98099999D01*
X138041533Y-98099999D01*
X138041533Y-95350000D01*
X143895131Y-95350000D01*
X143912499Y-95459661D01*
X143962902Y-95558584D01*
X143962904Y-95558586D01*
X143962905Y-95558587D01*
X144041413Y-95637095D01*
X144137044Y-95685821D01*
X144156271Y-95705048D01*
X144160525Y-95731907D01*
X144148180Y-95756136D01*
X144112903Y-95791412D01*
X144062499Y-95890338D01*
X144045131Y-96000000D01*
X144062499Y-96109660D01*
X144062500Y-96109661D01*
X144089422Y-96162499D01*
X144092595Y-96168725D01*
X144096849Y-96195584D01*
X144084504Y-96219814D01*
X144012902Y-96291415D01*
X143962499Y-96390338D01*
X143945131Y-96500000D01*
X143962499Y-96609661D01*
X144012902Y-96708584D01*
X144023205Y-96718887D01*
X144036092Y-96750000D01*
X144023205Y-96781113D01*
X144012902Y-96791415D01*
X143962499Y-96890338D01*
X143945131Y-97000000D01*
X143962499Y-97109661D01*
X144012902Y-97208584D01*
X144091415Y-97287097D01*
X144190338Y-97337500D01*
X144205332Y-97339874D01*
X144300000Y-97354869D01*
X144409661Y-97337500D01*
X144457938Y-97312902D01*
X144483260Y-97300000D01*
X146645131Y-97300000D01*
X146662499Y-97409661D01*
X146712902Y-97508584D01*
X146791415Y-97587097D01*
X146890338Y-97637500D01*
X146905332Y-97639874D01*
X147000000Y-97654869D01*
X147109661Y-97637500D01*
X147109660Y-97637500D01*
X147208584Y-97587097D01*
X147208584Y-97587096D01*
X147208587Y-97587095D01*
X147287095Y-97508587D01*
X147296394Y-97490338D01*
X147337500Y-97409661D01*
X147345003Y-97362287D01*
X147354869Y-97300000D01*
X147445131Y-97300000D01*
X147462499Y-97409661D01*
X147512902Y-97508584D01*
X147591415Y-97587097D01*
X147690338Y-97637500D01*
X147705332Y-97639874D01*
X147800000Y-97654869D01*
X147909661Y-97637500D01*
X147909660Y-97637500D01*
X148008584Y-97587097D01*
X148008584Y-97587096D01*
X148008587Y-97587095D01*
X148087095Y-97508587D01*
X148096394Y-97490338D01*
X148137500Y-97409661D01*
X148145003Y-97362287D01*
X148154869Y-97300000D01*
X153045131Y-97300000D01*
X153062499Y-97409661D01*
X153112902Y-97508584D01*
X153191415Y-97587097D01*
X153290338Y-97637500D01*
X153305332Y-97639874D01*
X153400000Y-97654869D01*
X153509661Y-97637500D01*
X153509660Y-97637500D01*
X153608584Y-97587097D01*
X153608584Y-97587096D01*
X153608587Y-97587095D01*
X153687095Y-97508587D01*
X153696394Y-97490338D01*
X153737500Y-97409661D01*
X153745003Y-97362287D01*
X153754869Y-97300000D01*
X154645131Y-97300000D01*
X154662499Y-97409661D01*
X154712902Y-97508584D01*
X154791415Y-97587097D01*
X154890338Y-97637500D01*
X154905332Y-97639874D01*
X155000000Y-97654869D01*
X155109661Y-97637500D01*
X155109660Y-97637500D01*
X155183262Y-97599999D01*
X156595131Y-97599999D01*
X156612499Y-97709661D01*
X156662902Y-97808584D01*
X156741415Y-97887097D01*
X156840338Y-97937500D01*
X156855332Y-97939874D01*
X156950000Y-97954869D01*
X157059661Y-97937500D01*
X157107938Y-97912902D01*
X157158584Y-97887097D01*
X157158584Y-97887096D01*
X157158587Y-97887095D01*
X157237095Y-97808587D01*
X157260578Y-97762500D01*
X157287500Y-97709661D01*
X157304869Y-97600002D01*
X157304563Y-97598070D01*
X157308816Y-97571210D01*
X157328045Y-97551980D01*
X157354903Y-97547726D01*
X157400000Y-97554869D01*
X157509661Y-97537500D01*
X157548892Y-97517511D01*
X157608584Y-97487097D01*
X157608584Y-97487096D01*
X157608587Y-97487095D01*
X157687095Y-97408587D01*
X157710685Y-97362290D01*
X157737500Y-97309661D01*
X157741074Y-97287095D01*
X157754869Y-97200000D01*
X157738589Y-97097215D01*
X157737500Y-97090338D01*
X157687097Y-96991415D01*
X157608584Y-96912902D01*
X157509661Y-96862499D01*
X157400000Y-96845131D01*
X157290338Y-96862499D01*
X157191415Y-96912902D01*
X157112902Y-96991415D01*
X157062499Y-97090338D01*
X157045131Y-97200000D01*
X157045437Y-97201933D01*
X157041183Y-97228791D01*
X157021955Y-97248019D01*
X156995096Y-97252273D01*
X156950000Y-97245131D01*
X156840338Y-97262499D01*
X156741415Y-97312902D01*
X156662902Y-97391415D01*
X156612499Y-97490338D01*
X156595131Y-97599999D01*
X155183262Y-97599999D01*
X155208584Y-97587097D01*
X155208584Y-97587096D01*
X155208587Y-97587095D01*
X155287095Y-97508587D01*
X155296394Y-97490338D01*
X155337500Y-97409661D01*
X155345003Y-97362287D01*
X155354869Y-97300000D01*
X155337500Y-97190339D01*
X155337500Y-97190338D01*
X155287097Y-97091415D01*
X155208584Y-97012902D01*
X155109661Y-96962499D01*
X155000000Y-96945131D01*
X154890338Y-96962499D01*
X154791415Y-97012902D01*
X154712902Y-97091415D01*
X154662499Y-97190338D01*
X154645131Y-97300000D01*
X153754869Y-97300000D01*
X153737500Y-97190339D01*
X153737500Y-97190338D01*
X153687097Y-97091415D01*
X153608584Y-97012902D01*
X153509661Y-96962499D01*
X153400000Y-96945131D01*
X153290338Y-96962499D01*
X153191415Y-97012902D01*
X153112902Y-97091415D01*
X153062499Y-97190338D01*
X153045131Y-97300000D01*
X148154869Y-97300000D01*
X148137500Y-97190339D01*
X148137500Y-97190338D01*
X148087097Y-97091415D01*
X148008584Y-97012902D01*
X147909661Y-96962499D01*
X147800000Y-96945131D01*
X147690338Y-96962499D01*
X147591415Y-97012902D01*
X147512902Y-97091415D01*
X147462499Y-97190338D01*
X147445131Y-97300000D01*
X147354869Y-97300000D01*
X147337500Y-97190339D01*
X147337500Y-97190338D01*
X147287097Y-97091415D01*
X147208584Y-97012902D01*
X147109661Y-96962499D01*
X147000000Y-96945131D01*
X146890338Y-96962499D01*
X146791415Y-97012902D01*
X146712902Y-97091415D01*
X146662499Y-97190338D01*
X146645131Y-97300000D01*
X144483260Y-97300000D01*
X144508584Y-97287097D01*
X144508584Y-97287096D01*
X144508587Y-97287095D01*
X144587095Y-97208587D01*
X144590486Y-97201933D01*
X144637500Y-97109661D01*
X144640560Y-97090339D01*
X144654869Y-97000000D01*
X144637500Y-96890339D01*
X144637500Y-96890338D01*
X144587097Y-96791415D01*
X144576795Y-96781113D01*
X144563908Y-96750000D01*
X144576795Y-96718887D01*
X144576794Y-96718887D01*
X144587095Y-96708587D01*
X144623316Y-96637500D01*
X144637500Y-96609661D01*
X144646231Y-96554535D01*
X144654869Y-96500000D01*
X145845131Y-96500000D01*
X145862499Y-96609661D01*
X145912902Y-96708584D01*
X145991415Y-96787097D01*
X146090338Y-96837500D01*
X146105332Y-96839874D01*
X146200000Y-96854869D01*
X146309661Y-96837500D01*
X146321217Y-96831612D01*
X146408584Y-96787097D01*
X146408584Y-96787096D01*
X146408587Y-96787095D01*
X146487095Y-96708587D01*
X146523316Y-96637500D01*
X146537500Y-96609661D01*
X146546231Y-96554535D01*
X146554869Y-96500000D01*
X146645131Y-96500000D01*
X146662499Y-96609661D01*
X146712902Y-96708584D01*
X146791415Y-96787097D01*
X146890338Y-96837500D01*
X146905332Y-96839874D01*
X147000000Y-96854869D01*
X147109661Y-96837500D01*
X147121217Y-96831612D01*
X147208584Y-96787097D01*
X147208584Y-96787096D01*
X147208587Y-96787095D01*
X147287095Y-96708587D01*
X147323316Y-96637500D01*
X147337500Y-96609661D01*
X147346231Y-96554535D01*
X147354869Y-96500000D01*
X147445131Y-96500000D01*
X147462499Y-96609661D01*
X147512902Y-96708584D01*
X147591415Y-96787097D01*
X147690338Y-96837500D01*
X147705332Y-96839874D01*
X147800000Y-96854869D01*
X147909661Y-96837500D01*
X147921217Y-96831612D01*
X148008584Y-96787097D01*
X148008584Y-96787096D01*
X148008587Y-96787095D01*
X148087095Y-96708587D01*
X148123316Y-96637500D01*
X148137500Y-96609661D01*
X148146231Y-96554535D01*
X148154869Y-96500000D01*
X148154869Y-96499999D01*
X154645131Y-96499999D01*
X154662499Y-96609661D01*
X154712902Y-96708584D01*
X154791415Y-96787097D01*
X154890338Y-96837500D01*
X154905332Y-96839874D01*
X155000000Y-96854869D01*
X155109661Y-96837500D01*
X155121217Y-96831612D01*
X155208584Y-96787097D01*
X155208584Y-96787096D01*
X155208587Y-96787095D01*
X155287095Y-96708587D01*
X155323316Y-96637500D01*
X155337500Y-96609661D01*
X155346231Y-96554535D01*
X155354869Y-96500000D01*
X155337500Y-96390339D01*
X155337500Y-96390338D01*
X155287097Y-96291415D01*
X155208584Y-96212902D01*
X155109661Y-96162499D01*
X155000000Y-96145131D01*
X154890338Y-96162499D01*
X154791415Y-96212902D01*
X154712902Y-96291415D01*
X154662499Y-96390338D01*
X154645131Y-96499999D01*
X148154869Y-96499999D01*
X148137500Y-96390339D01*
X148137500Y-96390338D01*
X148087097Y-96291415D01*
X148008584Y-96212902D01*
X147909661Y-96162499D01*
X147800000Y-96145131D01*
X147690338Y-96162499D01*
X147591415Y-96212902D01*
X147512902Y-96291415D01*
X147462499Y-96390338D01*
X147445131Y-96500000D01*
X147354869Y-96500000D01*
X147337500Y-96390339D01*
X147337500Y-96390338D01*
X147287097Y-96291415D01*
X147208584Y-96212902D01*
X147109661Y-96162499D01*
X147000000Y-96145131D01*
X146890338Y-96162499D01*
X146791415Y-96212902D01*
X146712902Y-96291415D01*
X146662499Y-96390338D01*
X146645131Y-96500000D01*
X146554869Y-96500000D01*
X146537500Y-96390339D01*
X146537500Y-96390338D01*
X146487097Y-96291415D01*
X146408584Y-96212902D01*
X146309661Y-96162499D01*
X146200000Y-96145131D01*
X146090338Y-96162499D01*
X145991415Y-96212902D01*
X145912902Y-96291415D01*
X145862499Y-96390338D01*
X145845131Y-96500000D01*
X144654869Y-96500000D01*
X144637500Y-96390339D01*
X144607403Y-96331272D01*
X144603150Y-96304415D01*
X144615494Y-96280187D01*
X144687095Y-96208587D01*
X144689779Y-96203321D01*
X144737500Y-96109661D01*
X144741827Y-96082340D01*
X144754869Y-96000000D01*
X144737500Y-95890339D01*
X144737500Y-95890338D01*
X144687097Y-95791415D01*
X144608584Y-95712902D01*
X144583260Y-95699999D01*
X147445131Y-95699999D01*
X147462499Y-95809661D01*
X147512902Y-95908584D01*
X147591415Y-95987097D01*
X147690338Y-96037500D01*
X147705332Y-96039874D01*
X147800000Y-96054869D01*
X147909661Y-96037500D01*
X147961814Y-96010927D01*
X148008584Y-95987097D01*
X148008584Y-95987096D01*
X148008587Y-95987095D01*
X148087095Y-95908587D01*
X148088329Y-95906167D01*
X148137500Y-95809661D01*
X148143404Y-95772384D01*
X148154869Y-95700000D01*
X148154869Y-95699999D01*
X153045131Y-95699999D01*
X153062499Y-95809661D01*
X153112902Y-95908584D01*
X153191415Y-95987097D01*
X153290338Y-96037500D01*
X153305332Y-96039874D01*
X153400000Y-96054869D01*
X153509661Y-96037500D01*
X153561814Y-96010927D01*
X153608584Y-95987097D01*
X153608584Y-95987096D01*
X153608587Y-95987095D01*
X153687095Y-95908587D01*
X153688329Y-95906167D01*
X153737500Y-95809661D01*
X153743404Y-95772384D01*
X153754869Y-95700000D01*
X153738058Y-95593862D01*
X153737500Y-95590338D01*
X153687097Y-95491415D01*
X153608584Y-95412902D01*
X153583262Y-95400000D01*
X156445131Y-95400000D01*
X156462499Y-95509661D01*
X156512902Y-95608584D01*
X156512904Y-95608586D01*
X156512905Y-95608587D01*
X156591413Y-95687095D01*
X156620796Y-95702066D01*
X156640025Y-95721295D01*
X156644279Y-95748154D01*
X156631934Y-95772384D01*
X156562902Y-95841415D01*
X156512499Y-95940338D01*
X156495131Y-96050000D01*
X156512499Y-96159661D01*
X156562902Y-96258584D01*
X156641415Y-96337097D01*
X156740338Y-96387500D01*
X156755332Y-96389874D01*
X156850000Y-96404869D01*
X156959661Y-96387500D01*
X156997614Y-96368161D01*
X157024471Y-96363908D01*
X157048700Y-96376253D01*
X157061046Y-96400482D01*
X157062500Y-96409661D01*
X157112902Y-96508584D01*
X157191415Y-96587097D01*
X157290338Y-96637500D01*
X157305332Y-96639874D01*
X157400000Y-96654869D01*
X157509661Y-96637500D01*
X157509660Y-96637500D01*
X157608584Y-96587097D01*
X157608584Y-96587096D01*
X157608587Y-96587095D01*
X157687095Y-96508587D01*
X157691471Y-96500000D01*
X157737500Y-96409661D01*
X157740560Y-96390339D01*
X157746577Y-96352352D01*
X157949501Y-96352352D01*
X157981522Y-96554527D01*
X157981524Y-96554533D01*
X158044780Y-96749218D01*
X158137714Y-96931609D01*
X158258035Y-97097218D01*
X158402782Y-97241965D01*
X158568391Y-97362286D01*
X158750782Y-97455220D01*
X158942500Y-97517512D01*
X158963096Y-97531667D01*
X158972661Y-97554757D01*
X158968108Y-97579331D01*
X158962499Y-97590339D01*
X158945131Y-97700000D01*
X158962499Y-97809661D01*
X159012902Y-97908584D01*
X159091415Y-97987097D01*
X159190338Y-98037500D01*
X159207706Y-98040250D01*
X159300000Y-98054869D01*
X159357780Y-98045717D01*
X159388626Y-98052273D01*
X159407163Y-98077786D01*
X159403867Y-98109150D01*
X159362499Y-98190340D01*
X159345131Y-98300000D01*
X159362499Y-98409661D01*
X159412902Y-98508584D01*
X159491415Y-98587097D01*
X159590338Y-98637500D01*
X159605332Y-98639874D01*
X159700000Y-98654869D01*
X159809661Y-98637500D01*
X159809660Y-98637500D01*
X159908584Y-98587097D01*
X159908584Y-98587096D01*
X159908587Y-98587095D01*
X159987095Y-98508587D01*
X159991471Y-98500000D01*
X160037500Y-98409661D01*
X160040560Y-98390339D01*
X160054869Y-98300000D01*
X160039030Y-98199999D01*
X162445131Y-98199999D01*
X162462499Y-98309661D01*
X162512902Y-98408584D01*
X162591415Y-98487097D01*
X162690338Y-98537500D01*
X162705332Y-98539874D01*
X162800000Y-98554869D01*
X162909661Y-98537500D01*
X162909660Y-98537500D01*
X163008584Y-98487097D01*
X163008584Y-98487096D01*
X163008587Y-98487095D01*
X163018887Y-98476794D01*
X163050000Y-98463908D01*
X163081113Y-98476795D01*
X163091415Y-98487097D01*
X163190338Y-98537500D01*
X163205332Y-98539874D01*
X163300000Y-98554869D01*
X163409661Y-98537500D01*
X163409660Y-98537500D01*
X163508584Y-98487097D01*
X163508584Y-98487096D01*
X163508587Y-98487095D01*
X163587095Y-98408587D01*
X163596394Y-98390338D01*
X163637500Y-98309661D01*
X163640390Y-98291413D01*
X163654869Y-98200000D01*
X163639030Y-98099999D01*
X163637500Y-98090338D01*
X163587097Y-97991415D01*
X163508584Y-97912902D01*
X163409661Y-97862499D01*
X163300000Y-97845131D01*
X163190338Y-97862499D01*
X163091415Y-97912902D01*
X163081113Y-97923205D01*
X163050000Y-97936092D01*
X163018887Y-97923205D01*
X163008584Y-97912902D01*
X162909661Y-97862499D01*
X162800000Y-97845131D01*
X162690338Y-97862499D01*
X162591415Y-97912902D01*
X162512902Y-97991415D01*
X162462499Y-98090338D01*
X162445131Y-98199999D01*
X160039030Y-98199999D01*
X160037500Y-98190339D01*
X160037500Y-98190338D01*
X159987097Y-98091415D01*
X159908584Y-98012902D01*
X159809661Y-97962499D01*
X159714993Y-97947505D01*
X159700000Y-97945131D01*
X159699999Y-97945131D01*
X159642220Y-97954282D01*
X159611373Y-97947725D01*
X159592836Y-97922212D01*
X159596133Y-97890848D01*
X159637500Y-97809661D01*
X159654869Y-97700000D01*
X159639249Y-97601381D01*
X159642511Y-97576603D01*
X159658743Y-97557598D01*
X159682706Y-97550499D01*
X160693652Y-97550499D01*
X160693656Y-97550501D01*
X160702404Y-97550501D01*
X160749999Y-97550501D01*
X160777843Y-97550501D01*
X160781799Y-97550501D01*
X160781821Y-97550499D01*
X160852352Y-97550499D01*
X161054533Y-97518476D01*
X161057503Y-97517511D01*
X161249217Y-97455220D01*
X161431609Y-97362287D01*
X161597217Y-97241966D01*
X161741964Y-97097219D01*
X161862285Y-96931611D01*
X161955219Y-96749219D01*
X162018476Y-96554535D01*
X162027114Y-96499999D01*
X162050498Y-96352355D01*
X162050498Y-96314928D01*
X162050499Y-96314923D01*
X162050499Y-95800000D01*
X162445131Y-95800000D01*
X162462499Y-95909661D01*
X162512902Y-96008584D01*
X162591415Y-96087097D01*
X162690338Y-96137500D01*
X162705332Y-96139874D01*
X162800000Y-96154869D01*
X162909661Y-96137500D01*
X162914448Y-96135061D01*
X163008584Y-96087097D01*
X163008584Y-96087096D01*
X163008587Y-96087095D01*
X163087095Y-96008587D01*
X163091471Y-96000000D01*
X163137500Y-95909661D01*
X163140560Y-95890339D01*
X163154869Y-95800000D01*
X163137500Y-95690339D01*
X163137500Y-95690338D01*
X163087097Y-95591415D01*
X163008586Y-95512904D01*
X162966406Y-95491413D01*
X162962071Y-95489204D01*
X162940970Y-95465768D01*
X162940970Y-95434232D01*
X162962071Y-95410795D01*
X163008587Y-95387095D01*
X163087095Y-95308587D01*
X163096394Y-95290338D01*
X163137500Y-95209661D01*
X163139030Y-95199999D01*
X165345131Y-95199999D01*
X165362499Y-95309661D01*
X165412902Y-95408584D01*
X165491415Y-95487097D01*
X165590338Y-95537500D01*
X165605332Y-95539874D01*
X165700000Y-95554869D01*
X165809661Y-95537500D01*
X165857938Y-95512902D01*
X165908584Y-95487097D01*
X165908584Y-95487096D01*
X165908587Y-95487095D01*
X165987095Y-95408587D01*
X165991471Y-95400000D01*
X166037500Y-95309661D01*
X166040560Y-95290339D01*
X166054869Y-95200000D01*
X166037500Y-95090339D01*
X166037500Y-95090338D01*
X165987097Y-94991415D01*
X165908584Y-94912902D01*
X165883262Y-94900000D01*
X166545131Y-94900000D01*
X166562499Y-95009661D01*
X166612902Y-95108584D01*
X166691415Y-95187097D01*
X166790338Y-95237500D01*
X166805332Y-95239874D01*
X166900000Y-95254869D01*
X167009661Y-95237500D01*
X167023667Y-95230363D01*
X167045943Y-95225628D01*
X167067604Y-95232666D01*
X167082845Y-95249592D01*
X167103607Y-95290338D01*
X167112905Y-95308587D01*
X167154318Y-95350000D01*
X167191415Y-95387097D01*
X167290338Y-95437500D01*
X167305332Y-95439874D01*
X167400000Y-95454869D01*
X167509661Y-95437500D01*
X167562073Y-95410795D01*
X167608584Y-95387097D01*
X167608584Y-95387096D01*
X167608587Y-95387095D01*
X167687095Y-95308587D01*
X167696394Y-95290338D01*
X167737500Y-95209661D01*
X167748309Y-95141415D01*
X167754869Y-95100000D01*
X167738259Y-94995131D01*
X167737500Y-94990338D01*
X167687097Y-94891415D01*
X167608584Y-94812902D01*
X167509661Y-94762499D01*
X167400000Y-94745131D01*
X167290339Y-94762499D01*
X167276330Y-94769637D01*
X167242759Y-94772277D01*
X167217154Y-94750407D01*
X167187095Y-94691413D01*
X167108587Y-94612905D01*
X167108584Y-94612902D01*
X167009661Y-94562499D01*
X166900000Y-94545131D01*
X166790338Y-94562499D01*
X166691415Y-94612902D01*
X166612902Y-94691415D01*
X166562499Y-94790338D01*
X166545131Y-94900000D01*
X165883262Y-94900000D01*
X165809661Y-94862499D01*
X165700000Y-94845131D01*
X165590338Y-94862499D01*
X165491415Y-94912902D01*
X165412902Y-94991415D01*
X165362499Y-95090338D01*
X165345131Y-95199999D01*
X163139030Y-95199999D01*
X163148309Y-95141415D01*
X163154869Y-95100000D01*
X163138259Y-94995131D01*
X163137500Y-94990338D01*
X163087097Y-94891415D01*
X163008586Y-94812904D01*
X162964296Y-94790338D01*
X162962071Y-94789204D01*
X162940970Y-94765768D01*
X162940970Y-94734232D01*
X162962071Y-94710795D01*
X163008587Y-94687095D01*
X163087095Y-94608587D01*
X163094274Y-94594499D01*
X163137500Y-94509661D01*
X163146178Y-94454869D01*
X163154869Y-94400000D01*
X163137500Y-94290339D01*
X163137500Y-94290338D01*
X163087097Y-94191415D01*
X163008584Y-94112902D01*
X162909661Y-94062499D01*
X162800000Y-94045131D01*
X162690338Y-94062499D01*
X162591415Y-94112902D01*
X162512902Y-94191415D01*
X162462499Y-94290338D01*
X162445131Y-94400000D01*
X162462499Y-94509661D01*
X162512902Y-94608584D01*
X162591415Y-94687097D01*
X162637927Y-94710796D01*
X162659030Y-94734232D01*
X162659030Y-94765768D01*
X162637927Y-94789204D01*
X162591415Y-94812902D01*
X162512902Y-94891415D01*
X162462499Y-94990338D01*
X162445131Y-95100000D01*
X162462499Y-95209661D01*
X162512902Y-95308584D01*
X162591415Y-95387097D01*
X162637927Y-95410796D01*
X162659030Y-95434232D01*
X162659030Y-95465768D01*
X162637927Y-95489204D01*
X162591415Y-95512902D01*
X162512902Y-95591415D01*
X162462499Y-95690338D01*
X162445131Y-95800000D01*
X162050499Y-95800000D01*
X162050499Y-94765768D01*
X162050500Y-93222158D01*
X162050499Y-93222153D01*
X162050499Y-93218202D01*
X162050498Y-93218180D01*
X162050498Y-93147649D01*
X162018476Y-92945467D01*
X161983395Y-92837500D01*
X161977709Y-92820000D01*
X165745131Y-92820000D01*
X165762499Y-92929661D01*
X165812902Y-93028584D01*
X165891415Y-93107097D01*
X165990338Y-93157500D01*
X166005332Y-93159874D01*
X166100000Y-93174869D01*
X166209661Y-93157500D01*
X166229001Y-93147646D01*
X166308584Y-93107097D01*
X166308584Y-93107096D01*
X166308587Y-93107095D01*
X166387095Y-93028587D01*
X166395086Y-93012905D01*
X166437500Y-92929661D01*
X166439481Y-92917152D01*
X166454869Y-92820000D01*
X166437500Y-92710339D01*
X166437500Y-92710338D01*
X166387097Y-92611415D01*
X166308584Y-92532902D01*
X166209661Y-92482499D01*
X166100000Y-92465131D01*
X165990338Y-92482499D01*
X165891415Y-92532902D01*
X165812902Y-92611415D01*
X165762499Y-92710338D01*
X165745131Y-92820000D01*
X161977709Y-92820000D01*
X161955219Y-92750784D01*
X161862286Y-92568392D01*
X161741965Y-92402784D01*
X161597218Y-92258037D01*
X161431610Y-92137715D01*
X161431608Y-92137714D01*
X161431604Y-92137711D01*
X161249218Y-92044782D01*
X161054534Y-91981524D01*
X160852354Y-91949502D01*
X160852352Y-91949502D01*
X160806173Y-91949502D01*
X159297597Y-91949500D01*
X159250003Y-91949500D01*
X159222158Y-91949500D01*
X159218202Y-91949500D01*
X159218180Y-91949502D01*
X159147649Y-91949502D01*
X158945467Y-91981523D01*
X158750783Y-92044781D01*
X158568397Y-92137710D01*
X158402784Y-92258035D01*
X158258037Y-92402782D01*
X158137711Y-92568395D01*
X158044782Y-92750781D01*
X157981524Y-92945465D01*
X157949502Y-93147646D01*
X157949502Y-93193827D01*
X157949501Y-96202403D01*
X157949501Y-96352352D01*
X157746577Y-96352352D01*
X157754869Y-96300000D01*
X157737500Y-96190339D01*
X157737500Y-96190338D01*
X157687097Y-96091415D01*
X157608584Y-96012902D01*
X157509661Y-95962499D01*
X157400000Y-95945131D01*
X157290339Y-95962499D01*
X157252385Y-95981837D01*
X157225527Y-95986090D01*
X157201297Y-95973744D01*
X157188953Y-95949514D01*
X157187500Y-95940339D01*
X157162024Y-95890339D01*
X157137097Y-95841415D01*
X157058585Y-95762903D01*
X157029203Y-95747932D01*
X157009975Y-95728703D01*
X157005721Y-95701845D01*
X157018067Y-95677615D01*
X157087096Y-95608586D01*
X157137500Y-95509661D01*
X157144452Y-95465768D01*
X157154869Y-95400000D01*
X157137500Y-95290339D01*
X157137500Y-95290338D01*
X157087097Y-95191415D01*
X157008584Y-95112902D01*
X156909661Y-95062499D01*
X156800000Y-95045131D01*
X156690338Y-95062499D01*
X156591415Y-95112902D01*
X156512902Y-95191415D01*
X156462499Y-95290338D01*
X156445131Y-95400000D01*
X153583262Y-95400000D01*
X153509661Y-95362499D01*
X153400000Y-95345131D01*
X153290338Y-95362499D01*
X153191415Y-95412902D01*
X153112902Y-95491415D01*
X153062499Y-95590338D01*
X153045131Y-95699999D01*
X148154869Y-95699999D01*
X148138058Y-95593862D01*
X148137500Y-95590338D01*
X148087097Y-95491415D01*
X148008584Y-95412902D01*
X147909661Y-95362499D01*
X147800000Y-95345131D01*
X147690338Y-95362499D01*
X147591415Y-95412902D01*
X147512902Y-95491415D01*
X147462499Y-95590338D01*
X147445131Y-95699999D01*
X144583260Y-95699999D01*
X144512957Y-95664179D01*
X144493728Y-95644951D01*
X144489474Y-95618092D01*
X144501820Y-95593862D01*
X144537096Y-95558586D01*
X144587500Y-95459661D01*
X144591010Y-95437500D01*
X144604869Y-95350000D01*
X144587500Y-95240339D01*
X144587500Y-95240338D01*
X144537097Y-95141415D01*
X144458584Y-95062902D01*
X144359661Y-95012499D01*
X144250000Y-94995131D01*
X144140338Y-95012499D01*
X144041415Y-95062902D01*
X143962902Y-95141415D01*
X143912499Y-95240338D01*
X143895131Y-95350000D01*
X138041533Y-95350000D01*
X138041533Y-95260000D01*
X138041533Y-95243943D01*
X138040000Y-95240242D01*
X138040000Y-94900000D01*
X141945131Y-94900000D01*
X141962499Y-95009661D01*
X142012902Y-95108584D01*
X142091415Y-95187097D01*
X142190338Y-95237500D01*
X142205332Y-95239874D01*
X142300000Y-95254869D01*
X142409661Y-95237500D01*
X142462872Y-95210388D01*
X142508584Y-95187097D01*
X142508584Y-95187096D01*
X142508587Y-95187095D01*
X142587095Y-95108587D01*
X142591471Y-95100000D01*
X142637500Y-95009661D01*
X142640560Y-94990339D01*
X142654869Y-94900000D01*
X147445131Y-94900000D01*
X147462499Y-95009661D01*
X147512902Y-95108584D01*
X147591415Y-95187097D01*
X147690338Y-95237500D01*
X147705332Y-95239874D01*
X147800000Y-95254869D01*
X147909661Y-95237500D01*
X147962872Y-95210388D01*
X148008584Y-95187097D01*
X148008584Y-95187096D01*
X148008587Y-95187095D01*
X148087095Y-95108587D01*
X148091471Y-95100000D01*
X148137500Y-95009661D01*
X148140560Y-94990339D01*
X148154869Y-94900000D01*
X153045131Y-94900000D01*
X153062499Y-95009661D01*
X153112902Y-95108584D01*
X153191415Y-95187097D01*
X153290338Y-95237500D01*
X153305332Y-95239874D01*
X153400000Y-95254869D01*
X153509661Y-95237500D01*
X153562872Y-95210388D01*
X153608584Y-95187097D01*
X153608584Y-95187096D01*
X153608587Y-95187095D01*
X153687095Y-95108587D01*
X153691471Y-95100000D01*
X153737500Y-95009661D01*
X153740560Y-94990339D01*
X153754869Y-94900000D01*
X153737500Y-94790339D01*
X153737500Y-94790338D01*
X153687097Y-94691415D01*
X153608584Y-94612902D01*
X153509661Y-94562499D01*
X153400000Y-94545131D01*
X153290338Y-94562499D01*
X153191415Y-94612902D01*
X153112902Y-94691415D01*
X153062499Y-94790338D01*
X153045131Y-94900000D01*
X148154869Y-94900000D01*
X148137500Y-94790339D01*
X148137500Y-94790338D01*
X148087097Y-94691415D01*
X148008584Y-94612902D01*
X147909661Y-94562499D01*
X147800000Y-94545131D01*
X147690338Y-94562499D01*
X147591415Y-94612902D01*
X147512902Y-94691415D01*
X147462499Y-94790338D01*
X147445131Y-94900000D01*
X142654869Y-94900000D01*
X142637500Y-94790339D01*
X142637500Y-94790338D01*
X142587097Y-94691415D01*
X142508584Y-94612902D01*
X142409661Y-94562499D01*
X142300000Y-94545131D01*
X142190338Y-94562499D01*
X142091415Y-94612902D01*
X142012902Y-94691415D01*
X141962499Y-94790338D01*
X141945131Y-94900000D01*
X138040000Y-94900000D01*
X138040000Y-94829758D01*
X138041533Y-94826057D01*
X138041533Y-94399999D01*
X143945131Y-94399999D01*
X143962499Y-94509661D01*
X144012902Y-94608584D01*
X144091415Y-94687097D01*
X144190338Y-94737500D01*
X144205332Y-94739874D01*
X144300000Y-94754869D01*
X144409661Y-94737500D01*
X144462073Y-94710795D01*
X144508584Y-94687097D01*
X144508584Y-94687096D01*
X144508587Y-94687095D01*
X144587095Y-94608587D01*
X144594274Y-94594499D01*
X144637500Y-94509661D01*
X144646178Y-94454869D01*
X144654869Y-94400000D01*
X144637500Y-94290339D01*
X144637500Y-94290338D01*
X144587097Y-94191415D01*
X144584627Y-94188945D01*
X144572282Y-94164714D01*
X144576536Y-94137855D01*
X144595767Y-94118627D01*
X144608585Y-94112096D01*
X144608584Y-94112096D01*
X144608587Y-94112095D01*
X144620682Y-94100000D01*
X147445131Y-94100000D01*
X147462499Y-94209661D01*
X147512902Y-94308584D01*
X147591415Y-94387097D01*
X147690338Y-94437500D01*
X147705332Y-94439874D01*
X147800000Y-94454869D01*
X147909661Y-94437500D01*
X147909660Y-94437500D01*
X148008584Y-94387097D01*
X148008584Y-94387096D01*
X148008587Y-94387095D01*
X148087095Y-94308587D01*
X148096394Y-94290338D01*
X148137500Y-94209661D01*
X148140781Y-94188945D01*
X148154869Y-94100000D01*
X153045131Y-94100000D01*
X153062499Y-94209661D01*
X153112902Y-94308584D01*
X153191415Y-94387097D01*
X153290338Y-94437500D01*
X153305332Y-94439874D01*
X153400000Y-94454869D01*
X153509661Y-94437500D01*
X153509660Y-94437500D01*
X153608584Y-94387097D01*
X153608584Y-94387096D01*
X153608587Y-94387095D01*
X153687095Y-94308587D01*
X153696394Y-94290338D01*
X153737500Y-94209661D01*
X153740781Y-94188945D01*
X153754869Y-94100000D01*
X154645131Y-94100000D01*
X154662499Y-94209661D01*
X154712902Y-94308584D01*
X154791415Y-94387097D01*
X154890338Y-94437500D01*
X154905332Y-94439874D01*
X155000000Y-94454869D01*
X155109661Y-94437500D01*
X155109660Y-94437500D01*
X155208584Y-94387097D01*
X155208584Y-94387096D01*
X155208587Y-94387095D01*
X155287095Y-94308587D01*
X155296394Y-94290338D01*
X155337500Y-94209661D01*
X155340781Y-94188945D01*
X155354869Y-94100000D01*
X155337500Y-93990339D01*
X155337500Y-93990338D01*
X155287097Y-93891415D01*
X155208584Y-93812902D01*
X155109661Y-93762499D01*
X155000000Y-93745131D01*
X154890338Y-93762499D01*
X154791415Y-93812902D01*
X154712902Y-93891415D01*
X154662499Y-93990338D01*
X154645131Y-94100000D01*
X153754869Y-94100000D01*
X153737500Y-93990339D01*
X153737500Y-93990338D01*
X153687097Y-93891415D01*
X153608584Y-93812902D01*
X153509661Y-93762499D01*
X153400000Y-93745131D01*
X153290338Y-93762499D01*
X153191415Y-93812902D01*
X153112902Y-93891415D01*
X153062499Y-93990338D01*
X153045131Y-94100000D01*
X148154869Y-94100000D01*
X148137500Y-93990339D01*
X148137500Y-93990338D01*
X148087097Y-93891415D01*
X148008584Y-93812902D01*
X147909661Y-93762499D01*
X147800000Y-93745131D01*
X147690338Y-93762499D01*
X147591415Y-93812902D01*
X147512902Y-93891415D01*
X147462499Y-93990338D01*
X147445131Y-94100000D01*
X144620682Y-94100000D01*
X144687095Y-94033587D01*
X144688104Y-94031608D01*
X144737500Y-93934661D01*
X144737499Y-93934661D01*
X144754869Y-93825000D01*
X144737500Y-93715339D01*
X144737500Y-93715338D01*
X144687097Y-93616415D01*
X144608584Y-93537902D01*
X144509661Y-93487499D01*
X144400000Y-93470131D01*
X144290338Y-93487499D01*
X144191415Y-93537902D01*
X144112902Y-93616415D01*
X144062499Y-93715338D01*
X144045131Y-93825000D01*
X144062499Y-93934661D01*
X144112902Y-94033584D01*
X144115372Y-94036054D01*
X144127717Y-94060283D01*
X144123464Y-94087141D01*
X144104237Y-94106370D01*
X144091414Y-94112903D01*
X144012902Y-94191415D01*
X143962499Y-94290338D01*
X143945131Y-94399999D01*
X138041533Y-94399999D01*
X138041533Y-93299999D01*
X142545131Y-93299999D01*
X142562499Y-93409661D01*
X142612902Y-93508584D01*
X142691415Y-93587097D01*
X142790338Y-93637500D01*
X142805332Y-93639874D01*
X142900000Y-93654869D01*
X143009661Y-93637500D01*
X143051047Y-93616413D01*
X143108584Y-93587097D01*
X143108584Y-93587096D01*
X143108587Y-93587095D01*
X143187095Y-93508587D01*
X143197840Y-93487500D01*
X143237500Y-93409661D01*
X143241074Y-93387095D01*
X143254869Y-93300000D01*
X143239874Y-93205332D01*
X143237500Y-93190338D01*
X143191471Y-93099999D01*
X143345131Y-93099999D01*
X143362499Y-93209661D01*
X143412902Y-93308584D01*
X143491415Y-93387097D01*
X143590338Y-93437500D01*
X143605332Y-93439874D01*
X143700000Y-93454869D01*
X143809661Y-93437500D01*
X143809660Y-93437500D01*
X143908584Y-93387097D01*
X143908584Y-93387096D01*
X143908587Y-93387095D01*
X143987095Y-93308587D01*
X143991471Y-93300000D01*
X143991472Y-93299999D01*
X154645131Y-93299999D01*
X154662499Y-93409661D01*
X154712902Y-93508584D01*
X154791415Y-93587097D01*
X154890338Y-93637500D01*
X154905332Y-93639874D01*
X155000000Y-93654869D01*
X155109661Y-93637500D01*
X155151047Y-93616413D01*
X155208584Y-93587097D01*
X155208584Y-93587096D01*
X155208587Y-93587095D01*
X155287095Y-93508587D01*
X155297840Y-93487500D01*
X155337500Y-93409661D01*
X155341074Y-93387095D01*
X155354869Y-93300000D01*
X155340250Y-93207706D01*
X155337500Y-93190338D01*
X155287097Y-93091415D01*
X155208584Y-93012902D01*
X155109661Y-92962499D01*
X155000000Y-92945131D01*
X154890338Y-92962499D01*
X154791415Y-93012902D01*
X154712902Y-93091415D01*
X154662499Y-93190338D01*
X154645131Y-93299999D01*
X143991472Y-93299999D01*
X144037500Y-93209661D01*
X144040560Y-93190339D01*
X144054869Y-93100000D01*
X144037500Y-92990339D01*
X144030362Y-92976331D01*
X144025627Y-92954054D01*
X144032666Y-92932392D01*
X144049589Y-92917155D01*
X144108587Y-92887095D01*
X144187095Y-92808587D01*
X144213259Y-92757238D01*
X144237500Y-92709661D01*
X144244037Y-92668388D01*
X144254869Y-92600000D01*
X144239030Y-92500000D01*
X145845131Y-92500000D01*
X145862499Y-92609661D01*
X145912902Y-92708584D01*
X145991415Y-92787097D01*
X146090338Y-92837500D01*
X146105332Y-92839874D01*
X146200000Y-92854869D01*
X146309661Y-92837500D01*
X146357934Y-92812904D01*
X146408584Y-92787097D01*
X146408584Y-92787096D01*
X146408587Y-92787095D01*
X146487095Y-92708587D01*
X146507578Y-92668388D01*
X146537500Y-92609661D01*
X146537500Y-92609660D01*
X146554869Y-92500000D01*
X146645131Y-92500000D01*
X146662499Y-92609661D01*
X146712902Y-92708584D01*
X146791415Y-92787097D01*
X146890338Y-92837500D01*
X146905332Y-92839874D01*
X147000000Y-92854869D01*
X147109661Y-92837500D01*
X147157934Y-92812904D01*
X147208584Y-92787097D01*
X147208584Y-92787096D01*
X147208587Y-92787095D01*
X147287095Y-92708587D01*
X147307578Y-92668388D01*
X147337500Y-92609661D01*
X147337500Y-92609660D01*
X147354869Y-92500000D01*
X148245131Y-92500000D01*
X148262499Y-92609661D01*
X148312902Y-92708584D01*
X148391415Y-92787097D01*
X148490338Y-92837500D01*
X148505332Y-92839874D01*
X148600000Y-92854869D01*
X148709661Y-92837500D01*
X148757934Y-92812904D01*
X148808584Y-92787097D01*
X148808584Y-92787096D01*
X148808587Y-92787095D01*
X148887095Y-92708587D01*
X148907578Y-92668388D01*
X148937500Y-92609661D01*
X148937500Y-92609660D01*
X148954869Y-92500000D01*
X149845131Y-92500000D01*
X149862499Y-92609661D01*
X149912902Y-92708584D01*
X149991415Y-92787097D01*
X150090338Y-92837500D01*
X150105332Y-92839874D01*
X150200000Y-92854869D01*
X150309661Y-92837500D01*
X150357934Y-92812904D01*
X150408584Y-92787097D01*
X150408584Y-92787096D01*
X150408587Y-92787095D01*
X150487095Y-92708587D01*
X150507578Y-92668388D01*
X150537500Y-92609661D01*
X150537500Y-92609660D01*
X150554869Y-92500000D01*
X150645131Y-92500000D01*
X150662499Y-92609661D01*
X150712902Y-92708584D01*
X150791415Y-92787097D01*
X150890338Y-92837500D01*
X150905332Y-92839874D01*
X151000000Y-92854869D01*
X151109661Y-92837500D01*
X151157934Y-92812904D01*
X151208584Y-92787097D01*
X151208584Y-92787096D01*
X151208587Y-92787095D01*
X151287095Y-92708587D01*
X151307578Y-92668388D01*
X151337500Y-92609661D01*
X151337500Y-92609660D01*
X151354869Y-92500000D01*
X151445131Y-92500000D01*
X151462499Y-92609661D01*
X151512902Y-92708584D01*
X151591415Y-92787097D01*
X151690338Y-92837500D01*
X151705332Y-92839874D01*
X151800000Y-92854869D01*
X151909661Y-92837500D01*
X151957934Y-92812904D01*
X152008584Y-92787097D01*
X152008584Y-92787096D01*
X152008587Y-92787095D01*
X152087095Y-92708587D01*
X152107578Y-92668388D01*
X152137500Y-92609661D01*
X152137500Y-92609660D01*
X152154869Y-92500000D01*
X152245131Y-92500000D01*
X152262499Y-92609661D01*
X152312902Y-92708584D01*
X152391415Y-92787097D01*
X152490338Y-92837500D01*
X152505332Y-92839874D01*
X152600000Y-92854869D01*
X152709661Y-92837500D01*
X152757934Y-92812904D01*
X152808584Y-92787097D01*
X152808584Y-92787096D01*
X152808587Y-92787095D01*
X152887095Y-92708587D01*
X152907578Y-92668388D01*
X152937500Y-92609661D01*
X152937500Y-92609660D01*
X152954869Y-92500000D01*
X153045131Y-92500000D01*
X153062499Y-92609661D01*
X153112902Y-92708584D01*
X153191415Y-92787097D01*
X153290338Y-92837500D01*
X153305332Y-92839874D01*
X153400000Y-92854869D01*
X153509661Y-92837500D01*
X153557934Y-92812904D01*
X153608584Y-92787097D01*
X153608584Y-92787096D01*
X153608587Y-92787095D01*
X153687095Y-92708587D01*
X153707578Y-92668388D01*
X153737500Y-92609661D01*
X153737500Y-92609660D01*
X153754869Y-92500000D01*
X153845131Y-92500000D01*
X153862499Y-92609661D01*
X153912902Y-92708584D01*
X153991415Y-92787097D01*
X154090338Y-92837500D01*
X154105332Y-92839874D01*
X154200000Y-92854869D01*
X154309661Y-92837500D01*
X154357934Y-92812904D01*
X154408584Y-92787097D01*
X154408584Y-92787096D01*
X154408587Y-92787095D01*
X154487095Y-92708587D01*
X154507578Y-92668388D01*
X154537500Y-92609661D01*
X154537500Y-92609660D01*
X154554869Y-92500000D01*
X154645131Y-92500000D01*
X154662499Y-92609661D01*
X154712902Y-92708584D01*
X154791415Y-92787097D01*
X154890338Y-92837500D01*
X154905332Y-92839874D01*
X155000000Y-92854869D01*
X155109661Y-92837500D01*
X155157934Y-92812904D01*
X155208584Y-92787097D01*
X155208584Y-92787096D01*
X155208587Y-92787095D01*
X155287095Y-92708587D01*
X155307578Y-92668388D01*
X155337500Y-92609661D01*
X155337500Y-92609660D01*
X155354869Y-92500000D01*
X155445131Y-92500000D01*
X155462499Y-92609661D01*
X155512902Y-92708584D01*
X155591415Y-92787097D01*
X155690338Y-92837500D01*
X155705332Y-92839874D01*
X155800000Y-92854869D01*
X155909661Y-92837500D01*
X155957934Y-92812904D01*
X156008584Y-92787097D01*
X156008584Y-92787096D01*
X156008587Y-92787095D01*
X156087095Y-92708587D01*
X156107578Y-92668388D01*
X156137500Y-92609661D01*
X156137500Y-92609660D01*
X156154869Y-92500000D01*
X156138648Y-92397588D01*
X156137500Y-92390338D01*
X156087097Y-92291415D01*
X156008584Y-92212902D01*
X155934194Y-92174999D01*
X156345131Y-92174999D01*
X156362499Y-92284661D01*
X156412902Y-92383584D01*
X156491415Y-92462097D01*
X156590338Y-92512500D01*
X156605332Y-92514874D01*
X156700000Y-92529869D01*
X156809661Y-92512500D01*
X156868542Y-92482499D01*
X156908584Y-92462097D01*
X156908584Y-92462096D01*
X156908587Y-92462095D01*
X156987095Y-92383587D01*
X157004212Y-92349994D01*
X157037500Y-92284661D01*
X157048865Y-92212905D01*
X157054869Y-92175000D01*
X157037500Y-92065339D01*
X157037500Y-92065338D01*
X156987097Y-91966415D01*
X156908584Y-91887902D01*
X156809661Y-91837499D01*
X156700000Y-91820131D01*
X156590338Y-91837499D01*
X156491415Y-91887902D01*
X156412902Y-91966415D01*
X156362499Y-92065338D01*
X156345131Y-92174999D01*
X155934194Y-92174999D01*
X155909661Y-92162499D01*
X155800000Y-92145131D01*
X155690338Y-92162499D01*
X155591415Y-92212902D01*
X155512902Y-92291415D01*
X155462499Y-92390338D01*
X155445131Y-92500000D01*
X155354869Y-92500000D01*
X155338648Y-92397588D01*
X155337500Y-92390338D01*
X155287097Y-92291415D01*
X155208584Y-92212902D01*
X155109661Y-92162499D01*
X155000000Y-92145131D01*
X154890338Y-92162499D01*
X154791415Y-92212902D01*
X154712902Y-92291415D01*
X154662499Y-92390338D01*
X154645131Y-92500000D01*
X154554869Y-92500000D01*
X154538648Y-92397588D01*
X154537500Y-92390338D01*
X154487097Y-92291415D01*
X154408584Y-92212902D01*
X154309661Y-92162499D01*
X154200000Y-92145131D01*
X154090338Y-92162499D01*
X153991415Y-92212902D01*
X153912902Y-92291415D01*
X153862499Y-92390338D01*
X153845131Y-92500000D01*
X153754869Y-92500000D01*
X153738648Y-92397588D01*
X153737500Y-92390338D01*
X153687097Y-92291415D01*
X153608584Y-92212902D01*
X153509661Y-92162499D01*
X153400000Y-92145131D01*
X153290338Y-92162499D01*
X153191415Y-92212902D01*
X153112902Y-92291415D01*
X153062499Y-92390338D01*
X153045131Y-92500000D01*
X152954869Y-92500000D01*
X152938648Y-92397588D01*
X152937500Y-92390338D01*
X152887097Y-92291415D01*
X152808584Y-92212902D01*
X152709661Y-92162499D01*
X152600000Y-92145131D01*
X152490338Y-92162499D01*
X152391415Y-92212902D01*
X152312902Y-92291415D01*
X152262499Y-92390338D01*
X152245131Y-92500000D01*
X152154869Y-92500000D01*
X152138648Y-92397588D01*
X152137500Y-92390338D01*
X152087097Y-92291415D01*
X152008584Y-92212902D01*
X151909661Y-92162499D01*
X151800000Y-92145131D01*
X151690338Y-92162499D01*
X151591415Y-92212902D01*
X151512902Y-92291415D01*
X151462499Y-92390338D01*
X151445131Y-92500000D01*
X151354869Y-92500000D01*
X151338648Y-92397588D01*
X151337500Y-92390338D01*
X151287097Y-92291415D01*
X151208584Y-92212902D01*
X151109661Y-92162499D01*
X151000000Y-92145131D01*
X150890338Y-92162499D01*
X150791415Y-92212902D01*
X150712902Y-92291415D01*
X150662499Y-92390338D01*
X150645131Y-92500000D01*
X150554869Y-92500000D01*
X150538648Y-92397588D01*
X150537500Y-92390338D01*
X150487097Y-92291415D01*
X150408584Y-92212902D01*
X150309661Y-92162499D01*
X150200000Y-92145131D01*
X150090338Y-92162499D01*
X149991415Y-92212902D01*
X149912902Y-92291415D01*
X149862499Y-92390338D01*
X149845131Y-92500000D01*
X148954869Y-92500000D01*
X148938648Y-92397588D01*
X148937500Y-92390338D01*
X148887097Y-92291415D01*
X148808584Y-92212902D01*
X148709661Y-92162499D01*
X148600000Y-92145131D01*
X148490338Y-92162499D01*
X148391415Y-92212902D01*
X148312902Y-92291415D01*
X148262499Y-92390338D01*
X148245131Y-92500000D01*
X147354869Y-92500000D01*
X147338648Y-92397588D01*
X147337500Y-92390338D01*
X147287097Y-92291415D01*
X147208584Y-92212902D01*
X147109661Y-92162499D01*
X147000000Y-92145131D01*
X146890338Y-92162499D01*
X146791415Y-92212902D01*
X146712902Y-92291415D01*
X146662499Y-92390338D01*
X146645131Y-92500000D01*
X146554869Y-92500000D01*
X146538648Y-92397588D01*
X146537500Y-92390338D01*
X146487097Y-92291415D01*
X146408584Y-92212902D01*
X146309661Y-92162499D01*
X146200000Y-92145131D01*
X146090338Y-92162499D01*
X145991415Y-92212902D01*
X145912902Y-92291415D01*
X145862499Y-92390338D01*
X145845131Y-92500000D01*
X144239030Y-92500000D01*
X144237500Y-92490339D01*
X144237500Y-92490338D01*
X144187097Y-92391415D01*
X144108584Y-92312902D01*
X144009661Y-92262499D01*
X143900000Y-92245131D01*
X143790338Y-92262499D01*
X143691415Y-92312902D01*
X143612902Y-92391415D01*
X143562499Y-92490338D01*
X143545131Y-92599999D01*
X143562499Y-92709659D01*
X143569636Y-92723666D01*
X143572277Y-92757238D01*
X143550407Y-92782845D01*
X143491414Y-92812904D01*
X143412902Y-92891415D01*
X143362499Y-92990338D01*
X143345131Y-93099999D01*
X143191471Y-93099999D01*
X143187097Y-93091415D01*
X143108584Y-93012902D01*
X143009661Y-92962499D01*
X142900000Y-92945131D01*
X142790338Y-92962499D01*
X142691415Y-93012902D01*
X142612902Y-93091415D01*
X142562499Y-93190338D01*
X142545131Y-93299999D01*
X138041533Y-93299999D01*
X138041533Y-91550000D01*
X143145131Y-91550000D01*
X143162499Y-91659661D01*
X143212902Y-91758584D01*
X143291415Y-91837097D01*
X143390338Y-91887500D01*
X143405332Y-91889874D01*
X143500000Y-91904869D01*
X143609661Y-91887500D01*
X143609660Y-91887500D01*
X143708584Y-91837097D01*
X143708584Y-91837096D01*
X143708587Y-91837095D01*
X143787095Y-91758587D01*
X143816947Y-91700000D01*
X145845131Y-91700000D01*
X145862499Y-91809661D01*
X145912902Y-91908584D01*
X145991415Y-91987097D01*
X146090338Y-92037500D01*
X146105332Y-92039874D01*
X146200000Y-92054869D01*
X146309661Y-92037500D01*
X146386653Y-91998271D01*
X146408584Y-91987097D01*
X146408584Y-91987096D01*
X146408587Y-91987095D01*
X146487095Y-91908587D01*
X146488990Y-91904869D01*
X146537500Y-91809661D01*
X146537499Y-91809661D01*
X146554869Y-91700000D01*
X151445131Y-91700000D01*
X151462499Y-91809661D01*
X151512902Y-91908584D01*
X151591415Y-91987097D01*
X151690338Y-92037500D01*
X151705332Y-92039874D01*
X151800000Y-92054869D01*
X151909661Y-92037500D01*
X151986653Y-91998271D01*
X152008584Y-91987097D01*
X152008584Y-91987096D01*
X152008587Y-91987095D01*
X152087095Y-91908587D01*
X152088990Y-91904869D01*
X152137500Y-91809661D01*
X152137499Y-91809661D01*
X152154869Y-91700000D01*
X153845131Y-91700000D01*
X153862499Y-91809661D01*
X153912902Y-91908584D01*
X153991415Y-91987097D01*
X154090338Y-92037500D01*
X154105332Y-92039874D01*
X154200000Y-92054869D01*
X154309661Y-92037500D01*
X154386653Y-91998271D01*
X154408584Y-91987097D01*
X154408584Y-91987096D01*
X154408587Y-91987095D01*
X154487095Y-91908587D01*
X154488990Y-91904869D01*
X154537500Y-91809661D01*
X154537499Y-91809661D01*
X154554869Y-91700000D01*
X154537500Y-91590339D01*
X154537500Y-91590338D01*
X154487097Y-91491415D01*
X154408584Y-91412902D01*
X154309661Y-91362499D01*
X154200000Y-91345131D01*
X154090338Y-91362499D01*
X153991415Y-91412902D01*
X153912902Y-91491415D01*
X153862499Y-91590338D01*
X153845131Y-91700000D01*
X152154869Y-91700000D01*
X152137500Y-91590339D01*
X152137500Y-91590338D01*
X152087097Y-91491415D01*
X152008584Y-91412902D01*
X151909661Y-91362499D01*
X151800000Y-91345131D01*
X151690338Y-91362499D01*
X151591415Y-91412902D01*
X151512902Y-91491415D01*
X151462499Y-91590338D01*
X151445131Y-91700000D01*
X146554869Y-91700000D01*
X146537500Y-91590339D01*
X146537500Y-91590338D01*
X146487097Y-91491415D01*
X146408584Y-91412902D01*
X146309661Y-91362499D01*
X146200000Y-91345131D01*
X146090338Y-91362499D01*
X145991415Y-91412902D01*
X145912902Y-91491415D01*
X145862499Y-91590338D01*
X145845131Y-91700000D01*
X143816947Y-91700000D01*
X143837500Y-91659661D01*
X143842840Y-91625945D01*
X143854869Y-91550000D01*
X143837500Y-91440339D01*
X143837500Y-91440338D01*
X143787097Y-91341415D01*
X143776795Y-91331113D01*
X143763908Y-91300000D01*
X143776795Y-91268887D01*
X143776794Y-91268887D01*
X143787095Y-91258587D01*
X143788990Y-91254869D01*
X143837500Y-91159661D01*
X143844520Y-91115338D01*
X143854869Y-91050000D01*
X143837500Y-90940339D01*
X143837500Y-90940338D01*
X143816947Y-90900000D01*
X145845131Y-90900000D01*
X145846491Y-90908584D01*
X145862499Y-91009661D01*
X145912902Y-91108584D01*
X145991415Y-91187097D01*
X146090338Y-91237500D01*
X146105332Y-91239874D01*
X146200000Y-91254869D01*
X146309661Y-91237500D01*
X146334196Y-91224999D01*
X146408584Y-91187097D01*
X146408584Y-91187096D01*
X146408587Y-91187095D01*
X146487095Y-91108587D01*
X146516947Y-91050000D01*
X146537500Y-91009661D01*
X146541074Y-90987095D01*
X146554869Y-90900000D01*
X146645131Y-90900000D01*
X146646491Y-90908584D01*
X146662499Y-91009661D01*
X146712902Y-91108584D01*
X146791415Y-91187097D01*
X146890338Y-91237500D01*
X146905332Y-91239874D01*
X147000000Y-91254869D01*
X147109661Y-91237500D01*
X147134196Y-91224999D01*
X147208584Y-91187097D01*
X147208584Y-91187096D01*
X147208587Y-91187095D01*
X147287095Y-91108587D01*
X147316947Y-91050000D01*
X147337500Y-91009661D01*
X147341074Y-90987095D01*
X147354869Y-90900000D01*
X148245131Y-90900000D01*
X148246491Y-90908584D01*
X148262499Y-91009661D01*
X148312902Y-91108584D01*
X148391415Y-91187097D01*
X148490338Y-91237500D01*
X148505332Y-91239874D01*
X148600000Y-91254869D01*
X148709661Y-91237500D01*
X148734196Y-91224999D01*
X148808584Y-91187097D01*
X148808584Y-91187096D01*
X148808587Y-91187095D01*
X148887095Y-91108587D01*
X148916947Y-91050000D01*
X148937500Y-91009661D01*
X148941074Y-90987095D01*
X148954869Y-90900000D01*
X153045131Y-90900000D01*
X153046491Y-90908584D01*
X153062499Y-91009661D01*
X153112902Y-91108584D01*
X153191415Y-91187097D01*
X153290338Y-91237500D01*
X153305332Y-91239874D01*
X153400000Y-91254869D01*
X153509661Y-91237500D01*
X153534196Y-91224999D01*
X153608584Y-91187097D01*
X153608584Y-91187096D01*
X153608587Y-91187095D01*
X153687095Y-91108587D01*
X153716947Y-91050000D01*
X153737500Y-91009661D01*
X153741074Y-90987095D01*
X153754869Y-90900000D01*
X153845131Y-90900000D01*
X153846491Y-90908584D01*
X153862499Y-91009661D01*
X153912902Y-91108584D01*
X153991415Y-91187097D01*
X154090338Y-91237500D01*
X154105332Y-91239874D01*
X154200000Y-91254869D01*
X154309661Y-91237500D01*
X154334196Y-91224999D01*
X156345131Y-91224999D01*
X156362499Y-91334661D01*
X156412902Y-91433584D01*
X156491415Y-91512097D01*
X156590338Y-91562500D01*
X156605332Y-91564874D01*
X156700000Y-91579869D01*
X156809661Y-91562500D01*
X156834194Y-91550000D01*
X156908584Y-91512097D01*
X156908584Y-91512096D01*
X156908587Y-91512095D01*
X156987095Y-91433587D01*
X156997635Y-91412902D01*
X157037500Y-91334661D01*
X157043686Y-91295603D01*
X157054869Y-91225000D01*
X157037500Y-91115339D01*
X157037500Y-91115338D01*
X156987097Y-91016415D01*
X156908584Y-90937902D01*
X156809661Y-90887499D01*
X156700000Y-90870131D01*
X156590338Y-90887499D01*
X156491415Y-90937902D01*
X156412902Y-91016415D01*
X156362499Y-91115338D01*
X156345131Y-91224999D01*
X154334196Y-91224999D01*
X154408584Y-91187097D01*
X154408584Y-91187096D01*
X154408587Y-91187095D01*
X154487095Y-91108587D01*
X154516947Y-91050000D01*
X154537500Y-91009661D01*
X154541074Y-90987095D01*
X154554869Y-90900000D01*
X154537500Y-90790339D01*
X154537500Y-90790338D01*
X154491471Y-90700000D01*
X157245131Y-90700000D01*
X157262499Y-90809661D01*
X157312902Y-90908584D01*
X157391415Y-90987097D01*
X157490338Y-91037500D01*
X157505332Y-91039874D01*
X157600000Y-91054869D01*
X157709661Y-91037500D01*
X157751047Y-91016413D01*
X157808584Y-90987097D01*
X157808584Y-90987096D01*
X157808587Y-90987095D01*
X157887095Y-90908587D01*
X157888437Y-90905955D01*
X157937500Y-90809661D01*
X157940560Y-90790339D01*
X157954869Y-90700000D01*
X157937500Y-90590339D01*
X157937500Y-90590338D01*
X157887097Y-90491415D01*
X157808584Y-90412902D01*
X157709661Y-90362499D01*
X157600000Y-90345131D01*
X157490338Y-90362499D01*
X157391415Y-90412902D01*
X157312902Y-90491415D01*
X157262499Y-90590338D01*
X157245131Y-90700000D01*
X154491471Y-90700000D01*
X154487097Y-90691415D01*
X154408584Y-90612902D01*
X154309661Y-90562499D01*
X154200000Y-90545131D01*
X154090338Y-90562499D01*
X153991415Y-90612902D01*
X153912902Y-90691415D01*
X153862499Y-90790338D01*
X153847111Y-90887499D01*
X153845131Y-90900000D01*
X153754869Y-90900000D01*
X153737500Y-90790339D01*
X153737500Y-90790338D01*
X153687097Y-90691415D01*
X153608584Y-90612902D01*
X153509661Y-90562499D01*
X153400000Y-90545131D01*
X153290338Y-90562499D01*
X153191415Y-90612902D01*
X153112902Y-90691415D01*
X153062499Y-90790338D01*
X153047111Y-90887499D01*
X153045131Y-90900000D01*
X148954869Y-90900000D01*
X148937500Y-90790339D01*
X148937500Y-90790338D01*
X148887097Y-90691415D01*
X148808584Y-90612902D01*
X148709661Y-90562499D01*
X148600000Y-90545131D01*
X148490338Y-90562499D01*
X148391415Y-90612902D01*
X148312902Y-90691415D01*
X148262499Y-90790338D01*
X148247111Y-90887499D01*
X148245131Y-90900000D01*
X147354869Y-90900000D01*
X147337500Y-90790339D01*
X147337500Y-90790338D01*
X147287097Y-90691415D01*
X147208584Y-90612902D01*
X147109661Y-90562499D01*
X147000000Y-90545131D01*
X146890338Y-90562499D01*
X146791415Y-90612902D01*
X146712902Y-90691415D01*
X146662499Y-90790338D01*
X146647111Y-90887499D01*
X146645131Y-90900000D01*
X146554869Y-90900000D01*
X146537500Y-90790339D01*
X146537500Y-90790338D01*
X146487097Y-90691415D01*
X146408584Y-90612902D01*
X146309661Y-90562499D01*
X146200000Y-90545131D01*
X146090338Y-90562499D01*
X145991415Y-90612902D01*
X145912902Y-90691415D01*
X145862499Y-90790338D01*
X145847111Y-90887499D01*
X145845131Y-90900000D01*
X143816947Y-90900000D01*
X143787097Y-90841415D01*
X143708584Y-90762902D01*
X143609661Y-90712499D01*
X143500000Y-90695131D01*
X143390338Y-90712499D01*
X143291415Y-90762902D01*
X143212902Y-90841415D01*
X143162499Y-90940338D01*
X143145131Y-91050000D01*
X143162499Y-91159661D01*
X143212902Y-91258584D01*
X143223205Y-91268887D01*
X143236092Y-91300000D01*
X143223205Y-91331113D01*
X143212902Y-91341415D01*
X143162499Y-91440338D01*
X143145131Y-91550000D01*
X138041533Y-91550000D01*
X138041533Y-90500000D01*
X144045131Y-90500000D01*
X144062499Y-90609661D01*
X144112902Y-90708584D01*
X144191415Y-90787097D01*
X144290338Y-90837500D01*
X144305332Y-90839874D01*
X144400000Y-90854869D01*
X144509661Y-90837500D01*
X144560658Y-90811516D01*
X144608584Y-90787097D01*
X144608584Y-90787096D01*
X144608587Y-90787095D01*
X144687095Y-90708587D01*
X144691471Y-90700000D01*
X144737500Y-90609661D01*
X144740560Y-90590339D01*
X144754869Y-90500000D01*
X144737500Y-90390339D01*
X144737500Y-90390338D01*
X144687097Y-90291415D01*
X144608584Y-90212902D01*
X144509661Y-90162499D01*
X144400000Y-90145131D01*
X144290338Y-90162499D01*
X144191415Y-90212902D01*
X144112902Y-90291415D01*
X144062499Y-90390338D01*
X144045131Y-90500000D01*
X138041533Y-90500000D01*
X138041533Y-90260001D01*
X138041533Y-90260000D01*
X138041532Y-90260000D01*
X132395537Y-90260000D01*
X132364425Y-90247113D01*
X132351537Y-90216001D01*
X132351536Y-90189615D01*
X132351536Y-90164403D01*
X132351560Y-90162964D01*
X132353339Y-90108587D01*
X132353620Y-90100000D01*
X153045131Y-90100000D01*
X153062499Y-90209661D01*
X153112902Y-90308584D01*
X153191415Y-90387097D01*
X153290338Y-90437500D01*
X153305332Y-90439874D01*
X153400000Y-90454869D01*
X153509661Y-90437500D01*
X153560807Y-90411440D01*
X153608584Y-90387097D01*
X153608584Y-90387096D01*
X153608587Y-90387095D01*
X153687095Y-90308587D01*
X153718418Y-90247113D01*
X153737500Y-90209661D01*
X153740675Y-90189615D01*
X153754869Y-90100000D01*
X153739874Y-90005332D01*
X153737500Y-89990338D01*
X153691471Y-89899999D01*
X157245131Y-89899999D01*
X157262499Y-90009661D01*
X157312902Y-90108584D01*
X157391415Y-90187097D01*
X157490338Y-90237500D01*
X157505332Y-90239874D01*
X157600000Y-90254869D01*
X157709661Y-90237500D01*
X157709660Y-90237500D01*
X157783262Y-90199999D01*
X160545131Y-90199999D01*
X160562499Y-90309661D01*
X160612902Y-90408584D01*
X160691415Y-90487097D01*
X160790338Y-90537500D01*
X160805332Y-90539874D01*
X160900000Y-90554869D01*
X161009661Y-90537500D01*
X161009661Y-90537499D01*
X161108584Y-90487097D01*
X161108584Y-90487096D01*
X161108587Y-90487095D01*
X161187095Y-90408587D01*
X161196394Y-90390338D01*
X161237500Y-90309661D01*
X161254869Y-90200001D01*
X161253920Y-90194008D01*
X161258173Y-90167148D01*
X161277402Y-90147919D01*
X161304262Y-90143665D01*
X161374998Y-90154869D01*
X161374998Y-90154868D01*
X161375000Y-90154869D01*
X161394450Y-90151788D01*
X161421307Y-90156040D01*
X161440536Y-90175265D01*
X161443383Y-90193221D01*
X161444041Y-90193117D01*
X161462499Y-90309661D01*
X161512902Y-90408584D01*
X161591415Y-90487097D01*
X161690338Y-90537500D01*
X161705332Y-90539874D01*
X161800000Y-90554869D01*
X161909661Y-90537500D01*
X161909661Y-90537499D01*
X162008584Y-90487097D01*
X162008584Y-90487096D01*
X162008587Y-90487095D01*
X162087095Y-90408587D01*
X162096394Y-90390338D01*
X162124259Y-90335648D01*
X164940785Y-90335648D01*
X164971843Y-90485107D01*
X165042069Y-90620639D01*
X165042071Y-90620641D01*
X165146262Y-90732202D01*
X165236533Y-90787097D01*
X165276688Y-90811516D01*
X165423674Y-90852700D01*
X165423676Y-90852700D01*
X165537985Y-90852700D01*
X165537987Y-90852700D01*
X165651227Y-90837135D01*
X165791238Y-90776320D01*
X165807731Y-90762902D01*
X165909649Y-90679985D01*
X165997678Y-90555276D01*
X166048797Y-90411441D01*
X166059214Y-90259149D01*
X166028157Y-90109693D01*
X165976325Y-90009661D01*
X165957930Y-89974160D01*
X165902505Y-89914815D01*
X165853738Y-89862598D01*
X165843439Y-89856335D01*
X165723311Y-89783283D01*
X165576326Y-89742100D01*
X165576324Y-89742100D01*
X165462015Y-89742100D01*
X165462013Y-89742100D01*
X165348772Y-89757664D01*
X165208761Y-89818479D01*
X165090352Y-89914813D01*
X165090350Y-89914815D01*
X165090351Y-89914815D01*
X165037041Y-89990339D01*
X165002321Y-90039526D01*
X164951202Y-90183359D01*
X164940785Y-90335648D01*
X162124259Y-90335648D01*
X162137500Y-90309661D01*
X162140390Y-90291413D01*
X162154869Y-90200000D01*
X162137500Y-90090339D01*
X162137500Y-90090338D01*
X162087097Y-89991415D01*
X162008584Y-89912902D01*
X161922875Y-89869232D01*
X161901772Y-89845796D01*
X161901773Y-89814259D01*
X161922872Y-89790825D01*
X162014587Y-89744095D01*
X162093095Y-89665587D01*
X162133088Y-89587097D01*
X162143500Y-89566661D01*
X162146139Y-89550000D01*
X162160869Y-89457000D01*
X162143500Y-89347339D01*
X162143500Y-89347338D01*
X162093097Y-89248415D01*
X162014584Y-89169902D01*
X161915661Y-89119499D01*
X161820993Y-89104505D01*
X161806000Y-89102131D01*
X161805999Y-89102131D01*
X161765524Y-89108541D01*
X161734677Y-89101984D01*
X161716141Y-89076470D01*
X161719437Y-89045110D01*
X161737500Y-89009661D01*
X161754869Y-88900000D01*
X161737500Y-88790339D01*
X161737500Y-88790338D01*
X161687097Y-88691415D01*
X161608584Y-88612902D01*
X161509661Y-88562499D01*
X161400000Y-88545131D01*
X161290338Y-88562499D01*
X161191415Y-88612902D01*
X161112902Y-88691415D01*
X161062499Y-88790338D01*
X161045131Y-88900000D01*
X161062969Y-89012628D01*
X161058715Y-89039487D01*
X161039487Y-89058715D01*
X161012628Y-89062969D01*
X160900000Y-89045131D01*
X160790338Y-89062499D01*
X160691415Y-89112902D01*
X160612902Y-89191415D01*
X160562499Y-89290338D01*
X160545131Y-89399999D01*
X160562499Y-89509661D01*
X160612902Y-89608584D01*
X160691415Y-89687097D01*
X160790338Y-89737500D01*
X160807707Y-89740250D01*
X160900000Y-89754869D01*
X160970740Y-89743664D01*
X160997597Y-89747917D01*
X161016826Y-89767145D01*
X161021081Y-89794003D01*
X161020131Y-89799999D01*
X161021081Y-89805996D01*
X161016826Y-89832854D01*
X160997597Y-89852082D01*
X160970739Y-89856335D01*
X160900000Y-89845131D01*
X160790338Y-89862499D01*
X160691415Y-89912902D01*
X160612902Y-89991415D01*
X160562499Y-90090338D01*
X160545131Y-90199999D01*
X157783262Y-90199999D01*
X157808584Y-90187097D01*
X157808584Y-90187096D01*
X157808587Y-90187095D01*
X157887095Y-90108587D01*
X157891471Y-90100000D01*
X157937500Y-90009661D01*
X157940560Y-89990339D01*
X157954869Y-89900000D01*
X157937500Y-89790339D01*
X157937500Y-89790338D01*
X157887097Y-89691415D01*
X157808586Y-89612904D01*
X157764296Y-89590338D01*
X157762071Y-89589204D01*
X157740970Y-89565768D01*
X157740970Y-89534232D01*
X157762071Y-89510795D01*
X157808587Y-89487095D01*
X157887095Y-89408587D01*
X157888418Y-89405992D01*
X157937500Y-89309661D01*
X157939030Y-89300000D01*
X157954869Y-89200000D01*
X157939015Y-89099903D01*
X157937500Y-89090338D01*
X157887097Y-88991415D01*
X157808584Y-88912902D01*
X157709661Y-88862499D01*
X157600000Y-88845131D01*
X157490338Y-88862499D01*
X157391415Y-88912902D01*
X157312902Y-88991415D01*
X157262499Y-89090338D01*
X157245131Y-89199999D01*
X157262499Y-89309661D01*
X157312902Y-89408584D01*
X157391415Y-89487097D01*
X157437927Y-89510796D01*
X157459030Y-89534232D01*
X157459030Y-89565768D01*
X157437927Y-89589204D01*
X157391415Y-89612902D01*
X157312902Y-89691415D01*
X157262499Y-89790338D01*
X157245131Y-89899999D01*
X153691471Y-89899999D01*
X153687097Y-89891415D01*
X153608584Y-89812902D01*
X153509661Y-89762499D01*
X153400000Y-89745131D01*
X153290338Y-89762499D01*
X153191415Y-89812902D01*
X153112902Y-89891415D01*
X153062499Y-89990338D01*
X153045131Y-90100000D01*
X132353620Y-90100000D01*
X132366710Y-89699999D01*
X142245131Y-89699999D01*
X142262499Y-89809661D01*
X142312902Y-89908584D01*
X142391415Y-89987097D01*
X142490338Y-90037500D01*
X142503118Y-90039524D01*
X142600000Y-90054869D01*
X142709661Y-90037500D01*
X142709660Y-90037500D01*
X142808584Y-89987097D01*
X142808584Y-89987096D01*
X142808587Y-89987095D01*
X142887095Y-89908587D01*
X142891471Y-89900000D01*
X142937500Y-89809661D01*
X142940560Y-89790339D01*
X142954869Y-89700000D01*
X142937500Y-89590339D01*
X142937500Y-89590338D01*
X142889913Y-89496943D01*
X142885177Y-89474665D01*
X142892216Y-89453004D01*
X142909142Y-89437763D01*
X142909656Y-89437500D01*
X142909661Y-89437500D01*
X143008587Y-89387095D01*
X143087095Y-89308587D01*
X143089914Y-89303056D01*
X143137500Y-89209661D01*
X143139030Y-89199999D01*
X145445131Y-89199999D01*
X145462499Y-89309661D01*
X145512902Y-89408584D01*
X145591415Y-89487097D01*
X145690338Y-89537500D01*
X145705332Y-89539874D01*
X145800000Y-89554869D01*
X145909661Y-89537500D01*
X145962073Y-89510795D01*
X146008584Y-89487097D01*
X146008584Y-89487096D01*
X146008587Y-89487095D01*
X146087095Y-89408587D01*
X146110795Y-89362071D01*
X146134232Y-89340970D01*
X146165768Y-89340970D01*
X146189205Y-89362072D01*
X146212904Y-89408586D01*
X146291415Y-89487097D01*
X146390338Y-89537500D01*
X146405332Y-89539874D01*
X146500000Y-89554869D01*
X146609661Y-89537500D01*
X146662073Y-89510795D01*
X146708584Y-89487097D01*
X146708584Y-89487096D01*
X146708587Y-89487095D01*
X146787095Y-89408587D01*
X146788418Y-89405992D01*
X146837500Y-89309661D01*
X146839030Y-89300000D01*
X146854869Y-89200000D01*
X146837500Y-89090339D01*
X146837030Y-89087371D01*
X146841284Y-89060512D01*
X146860512Y-89041284D01*
X146887371Y-89037030D01*
X146890339Y-89037500D01*
X147000000Y-89054869D01*
X147096382Y-89039603D01*
X147123240Y-89043856D01*
X147142469Y-89063084D01*
X147146724Y-89089942D01*
X147145131Y-89100000D01*
X147162499Y-89209661D01*
X147212902Y-89308584D01*
X147291415Y-89387097D01*
X147390338Y-89437500D01*
X147391999Y-89437763D01*
X147500000Y-89454869D01*
X147609661Y-89437500D01*
X147641874Y-89421087D01*
X147708584Y-89387097D01*
X147708584Y-89387096D01*
X147708587Y-89387095D01*
X147787095Y-89308587D01*
X147789914Y-89303056D01*
X147836053Y-89212500D01*
X154557631Y-89212500D01*
X154574999Y-89322161D01*
X154625402Y-89421084D01*
X154703915Y-89499597D01*
X154802838Y-89550000D01*
X154817832Y-89552374D01*
X154912500Y-89567369D01*
X155022161Y-89550000D01*
X155099106Y-89510795D01*
X155121084Y-89499597D01*
X155121084Y-89499596D01*
X155121087Y-89499595D01*
X155199595Y-89421087D01*
X155203346Y-89413727D01*
X155250000Y-89322161D01*
X155259899Y-89259661D01*
X155267369Y-89212500D01*
X155251594Y-89112902D01*
X155250000Y-89102838D01*
X155199597Y-89003915D01*
X155121084Y-88925402D01*
X155022161Y-88874999D01*
X154912500Y-88857631D01*
X154802838Y-88874999D01*
X154703915Y-88925402D01*
X154625402Y-89003915D01*
X154574999Y-89102838D01*
X154557631Y-89212500D01*
X147836053Y-89212500D01*
X147837500Y-89209661D01*
X147840560Y-89190339D01*
X147854869Y-89100000D01*
X147839650Y-89003913D01*
X147837500Y-88990338D01*
X147787097Y-88891415D01*
X147708584Y-88812902D01*
X147609661Y-88762499D01*
X147514993Y-88747505D01*
X147500000Y-88745131D01*
X147499999Y-88745131D01*
X147403617Y-88760396D01*
X147376757Y-88756142D01*
X147357529Y-88736912D01*
X147353276Y-88710054D01*
X147354869Y-88700000D01*
X147354869Y-88699999D01*
X155245131Y-88699999D01*
X155262499Y-88809661D01*
X155312902Y-88908584D01*
X155391415Y-88987097D01*
X155490338Y-89037500D01*
X155566490Y-89049562D01*
X155595204Y-89067157D01*
X155603065Y-89099903D01*
X155595131Y-89149999D01*
X155612499Y-89259661D01*
X155662902Y-89358584D01*
X155741415Y-89437097D01*
X155840338Y-89487500D01*
X155855332Y-89489874D01*
X155950000Y-89504869D01*
X156059661Y-89487500D01*
X156108727Y-89462500D01*
X156158584Y-89437097D01*
X156158584Y-89437096D01*
X156158587Y-89437095D01*
X156237095Y-89358587D01*
X156242827Y-89347339D01*
X156287500Y-89259661D01*
X156289281Y-89248415D01*
X156304869Y-89150000D01*
X156287500Y-89040339D01*
X156287500Y-89040338D01*
X156237097Y-88941415D01*
X156158584Y-88862902D01*
X156059661Y-88812499D01*
X155983509Y-88800438D01*
X155962702Y-88791174D01*
X155949314Y-88772748D01*
X155946934Y-88750096D01*
X155954869Y-88699999D01*
X155937500Y-88590338D01*
X155887097Y-88491415D01*
X155808584Y-88412902D01*
X155709661Y-88362499D01*
X155600000Y-88345131D01*
X155490338Y-88362499D01*
X155391415Y-88412902D01*
X155312902Y-88491415D01*
X155262499Y-88590338D01*
X155245131Y-88699999D01*
X147354869Y-88699999D01*
X147353509Y-88691415D01*
X147337500Y-88590338D01*
X147287097Y-88491415D01*
X147208585Y-88412903D01*
X147179202Y-88397932D01*
X147159974Y-88378703D01*
X147155720Y-88351844D01*
X147168065Y-88327616D01*
X147187095Y-88308587D01*
X147191470Y-88300000D01*
X160145131Y-88300000D01*
X160162499Y-88409661D01*
X160212902Y-88508584D01*
X160291415Y-88587097D01*
X160390338Y-88637500D01*
X160405332Y-88639874D01*
X160500000Y-88654869D01*
X160609661Y-88637500D01*
X160657938Y-88612902D01*
X160708584Y-88587097D01*
X160708584Y-88587096D01*
X160708587Y-88587095D01*
X160787095Y-88508587D01*
X160805543Y-88472382D01*
X160837500Y-88409661D01*
X160843712Y-88370439D01*
X160854869Y-88300000D01*
X160842736Y-88223399D01*
X165151731Y-88223399D01*
X165169099Y-88333061D01*
X165219502Y-88431984D01*
X165298015Y-88510497D01*
X165396938Y-88560900D01*
X165411932Y-88563274D01*
X165506600Y-88578269D01*
X165616261Y-88560900D01*
X165647210Y-88545131D01*
X165715184Y-88510497D01*
X165715184Y-88510496D01*
X165715187Y-88510495D01*
X165793695Y-88431987D01*
X165803420Y-88412902D01*
X165844100Y-88333061D01*
X165852846Y-88277841D01*
X165861469Y-88223400D01*
X165844100Y-88113739D01*
X165844100Y-88113738D01*
X165793697Y-88014815D01*
X165715184Y-87936302D01*
X165616261Y-87885899D01*
X165506600Y-87868531D01*
X165396938Y-87885899D01*
X165298015Y-87936302D01*
X165219502Y-88014815D01*
X165169099Y-88113738D01*
X165151731Y-88223399D01*
X160842736Y-88223399D01*
X160837500Y-88190339D01*
X160837500Y-88190338D01*
X160787097Y-88091415D01*
X160708584Y-88012902D01*
X160609661Y-87962499D01*
X160500000Y-87945131D01*
X160390338Y-87962499D01*
X160291415Y-88012902D01*
X160212902Y-88091415D01*
X160162499Y-88190338D01*
X160145131Y-88300000D01*
X147191470Y-88300000D01*
X147237500Y-88209661D01*
X147254869Y-88100000D01*
X147237500Y-87990339D01*
X147237500Y-87990338D01*
X147187097Y-87891415D01*
X147108584Y-87812902D01*
X147009661Y-87762499D01*
X146900000Y-87745131D01*
X146790338Y-87762499D01*
X146691415Y-87812902D01*
X146612902Y-87891415D01*
X146562499Y-87990338D01*
X146545131Y-88100000D01*
X146562499Y-88209661D01*
X146612902Y-88308584D01*
X146612905Y-88308587D01*
X146691413Y-88387095D01*
X146720796Y-88402066D01*
X146740025Y-88421293D01*
X146744279Y-88448152D01*
X146731934Y-88472382D01*
X146712904Y-88491412D01*
X146662499Y-88590338D01*
X146645131Y-88700000D01*
X146662969Y-88812628D01*
X146658715Y-88839487D01*
X146639487Y-88858715D01*
X146612628Y-88862969D01*
X146500000Y-88845131D01*
X146390338Y-88862499D01*
X146291415Y-88912902D01*
X146212902Y-88991415D01*
X146189204Y-89037927D01*
X146165768Y-89059030D01*
X146134232Y-89059030D01*
X146110796Y-89037927D01*
X146087097Y-88991415D01*
X146008584Y-88912902D01*
X145909661Y-88862499D01*
X145800000Y-88845131D01*
X145690338Y-88862499D01*
X145591415Y-88912902D01*
X145512902Y-88991415D01*
X145462499Y-89090338D01*
X145445131Y-89199999D01*
X143139030Y-89199999D01*
X143140560Y-89190339D01*
X143154869Y-89100000D01*
X143139650Y-89003913D01*
X143137500Y-88990338D01*
X143087097Y-88891415D01*
X143008584Y-88812902D01*
X142909661Y-88762499D01*
X142800000Y-88745131D01*
X142690338Y-88762499D01*
X142591415Y-88812902D01*
X142512902Y-88891415D01*
X142462499Y-88990338D01*
X142445131Y-89099999D01*
X142462499Y-89209659D01*
X142510086Y-89303056D01*
X142512727Y-89336628D01*
X142490857Y-89362235D01*
X142391414Y-89412903D01*
X142312902Y-89491415D01*
X142262499Y-89590338D01*
X142245131Y-89699999D01*
X132366710Y-89699999D01*
X132367968Y-89661544D01*
X132368153Y-89658720D01*
X132417254Y-89160137D01*
X132417630Y-89157285D01*
X132425677Y-89108541D01*
X132460105Y-88900000D01*
X139145131Y-88900000D01*
X139162499Y-89009661D01*
X139212902Y-89108584D01*
X139291415Y-89187097D01*
X139357363Y-89220698D01*
X139390339Y-89237500D01*
X139409862Y-89240592D01*
X139409988Y-89240612D01*
X139438701Y-89258206D01*
X139446564Y-89290950D01*
X139445131Y-89300000D01*
X139462499Y-89409661D01*
X139512902Y-89508584D01*
X139591415Y-89587097D01*
X139690338Y-89637500D01*
X139705332Y-89639874D01*
X139800000Y-89654869D01*
X139909661Y-89637500D01*
X139957938Y-89612902D01*
X140008584Y-89587097D01*
X140008584Y-89587096D01*
X140008587Y-89587095D01*
X140087095Y-89508587D01*
X140088990Y-89504869D01*
X140137500Y-89409661D01*
X140139030Y-89399999D01*
X140154869Y-89300000D01*
X140139030Y-89199999D01*
X140137500Y-89190338D01*
X140087097Y-89091415D01*
X140008584Y-89012902D01*
X139909661Y-88962499D01*
X139890010Y-88959387D01*
X139869203Y-88950122D01*
X139855816Y-88931695D01*
X139853436Y-88909044D01*
X139854869Y-88900000D01*
X139853509Y-88891415D01*
X139837500Y-88790338D01*
X139787097Y-88691415D01*
X139708584Y-88612902D01*
X139609661Y-88562499D01*
X139500000Y-88545131D01*
X139390338Y-88562499D01*
X139291415Y-88612902D01*
X139212902Y-88691415D01*
X139162499Y-88790338D01*
X139145131Y-88900000D01*
X132460105Y-88900000D01*
X132499231Y-88663003D01*
X132499783Y-88660224D01*
X132613552Y-88172278D01*
X132614284Y-88169549D01*
X132759706Y-87690145D01*
X132760629Y-87687426D01*
X132760754Y-87687095D01*
X132937102Y-87218540D01*
X132938187Y-87215921D01*
X133144944Y-86759593D01*
X133146215Y-86757016D01*
X133154983Y-86740612D01*
X133382377Y-86315185D01*
X133383798Y-86312724D01*
X133648364Y-85887266D01*
X133649936Y-85884914D01*
X133941756Y-85477679D01*
X133943495Y-85475413D01*
X134005386Y-85399999D01*
X135945131Y-85399999D01*
X135962499Y-85509661D01*
X136012902Y-85608584D01*
X136091415Y-85687097D01*
X136157363Y-85720698D01*
X136190339Y-85737500D01*
X136225439Y-85743059D01*
X136246246Y-85752322D01*
X136259633Y-85770748D01*
X136262014Y-85793400D01*
X136245131Y-85899999D01*
X136262499Y-86009661D01*
X136312902Y-86108584D01*
X136391415Y-86187097D01*
X136490338Y-86237500D01*
X136599997Y-86254869D01*
X136599998Y-86254868D01*
X136600000Y-86254869D01*
X136610054Y-86253276D01*
X136636912Y-86257529D01*
X136656142Y-86276757D01*
X136660396Y-86303617D01*
X136645131Y-86399999D01*
X136662499Y-86509661D01*
X136712902Y-86608584D01*
X136791415Y-86687097D01*
X136842062Y-86712902D01*
X136890339Y-86737500D01*
X136909862Y-86740592D01*
X136909988Y-86740612D01*
X136938701Y-86758206D01*
X136946564Y-86790950D01*
X136945131Y-86800000D01*
X136962499Y-86909661D01*
X137012902Y-87008584D01*
X137091415Y-87087097D01*
X137190338Y-87137500D01*
X137306883Y-87155960D01*
X137306580Y-87157872D01*
X137320642Y-87160091D01*
X137339881Y-87179303D01*
X137342128Y-87193419D01*
X137344041Y-87193117D01*
X137362499Y-87309661D01*
X137412902Y-87408584D01*
X137491415Y-87487097D01*
X137590338Y-87537500D01*
X137605332Y-87539874D01*
X137700000Y-87554869D01*
X137809661Y-87537500D01*
X137897902Y-87492538D01*
X137924761Y-87488285D01*
X137948990Y-87500630D01*
X137961336Y-87524859D01*
X137957083Y-87551718D01*
X137942499Y-87580340D01*
X137925131Y-87689999D01*
X137942499Y-87799661D01*
X137992902Y-87898584D01*
X138071415Y-87977097D01*
X138170338Y-88027500D01*
X138185332Y-88029874D01*
X138280000Y-88044869D01*
X138389661Y-88027500D01*
X138417240Y-88013448D01*
X138488584Y-87977097D01*
X138488584Y-87977096D01*
X138488587Y-87977095D01*
X138567095Y-87898587D01*
X138570750Y-87891415D01*
X138617500Y-87799661D01*
X138617500Y-87799660D01*
X138633285Y-87700000D01*
X142645131Y-87700000D01*
X142662499Y-87809661D01*
X142712902Y-87908584D01*
X142791415Y-87987097D01*
X142842062Y-88012902D01*
X142890339Y-88037500D01*
X142925439Y-88043059D01*
X142946246Y-88052322D01*
X142959633Y-88070748D01*
X142962014Y-88093400D01*
X142945131Y-88199999D01*
X142962499Y-88309661D01*
X143012902Y-88408584D01*
X143091415Y-88487097D01*
X143190338Y-88537500D01*
X143205332Y-88539874D01*
X143300000Y-88554869D01*
X143409661Y-88537500D01*
X143462662Y-88510495D01*
X143508584Y-88487097D01*
X143508584Y-88487096D01*
X143508587Y-88487095D01*
X143587095Y-88408587D01*
X143590419Y-88402065D01*
X143637500Y-88309661D01*
X143642540Y-88277841D01*
X143654869Y-88200000D01*
X143637985Y-88093400D01*
X143637500Y-88090338D01*
X143598323Y-88013448D01*
X143594069Y-87986590D01*
X143606414Y-87962360D01*
X143630642Y-87950015D01*
X143709661Y-87937500D01*
X143712012Y-87936302D01*
X143808584Y-87887097D01*
X143808584Y-87887096D01*
X143808587Y-87887095D01*
X143887095Y-87808587D01*
X143910578Y-87762500D01*
X143937500Y-87709661D01*
X143940614Y-87689999D01*
X143954869Y-87600000D01*
X143939130Y-87500630D01*
X143937500Y-87490338D01*
X143891471Y-87400000D01*
X148270131Y-87400000D01*
X148287499Y-87509661D01*
X148337902Y-87608584D01*
X148416415Y-87687097D01*
X148515338Y-87737500D01*
X148530332Y-87739874D01*
X148625000Y-87754869D01*
X148734661Y-87737500D01*
X148734660Y-87737500D01*
X148833584Y-87687097D01*
X148833584Y-87687096D01*
X148833587Y-87687095D01*
X148868886Y-87651795D01*
X148900000Y-87638908D01*
X148931113Y-87651795D01*
X148966415Y-87687097D01*
X149065338Y-87737500D01*
X149080332Y-87739874D01*
X149175000Y-87754869D01*
X149284661Y-87737500D01*
X149284660Y-87737500D01*
X149358260Y-87700000D01*
X156645131Y-87700000D01*
X156662499Y-87809661D01*
X156712902Y-87908584D01*
X156791415Y-87987097D01*
X156890338Y-88037500D01*
X156905332Y-88039874D01*
X157000000Y-88054869D01*
X157109661Y-88037500D01*
X157129287Y-88027500D01*
X157208584Y-87987097D01*
X157208584Y-87987096D01*
X157208587Y-87987095D01*
X157287095Y-87908587D01*
X157292191Y-87898587D01*
X157337500Y-87809661D01*
X157339084Y-87799661D01*
X157354869Y-87700000D01*
X157339030Y-87599999D01*
X163445131Y-87599999D01*
X163462499Y-87709661D01*
X163512902Y-87808584D01*
X163591415Y-87887097D01*
X163690338Y-87937500D01*
X163705332Y-87939874D01*
X163800000Y-87954869D01*
X163909661Y-87937500D01*
X163912012Y-87936302D01*
X164008584Y-87887097D01*
X164008584Y-87887096D01*
X164008587Y-87887095D01*
X164087095Y-87808587D01*
X164110578Y-87762500D01*
X164137500Y-87709661D01*
X164140614Y-87689999D01*
X164154869Y-87600000D01*
X164139130Y-87500630D01*
X164137500Y-87490338D01*
X164087097Y-87391415D01*
X164008584Y-87312902D01*
X163909661Y-87262499D01*
X163800000Y-87245131D01*
X163690338Y-87262499D01*
X163591415Y-87312902D01*
X163512902Y-87391415D01*
X163462499Y-87490338D01*
X163445131Y-87599999D01*
X157339030Y-87599999D01*
X157337500Y-87590339D01*
X157337500Y-87590338D01*
X157287097Y-87491415D01*
X157208584Y-87412902D01*
X157109661Y-87362499D01*
X157000000Y-87345131D01*
X156890338Y-87362499D01*
X156791415Y-87412902D01*
X156712902Y-87491415D01*
X156662499Y-87590338D01*
X156645131Y-87700000D01*
X149358260Y-87700000D01*
X149383584Y-87687097D01*
X149383584Y-87687096D01*
X149383587Y-87687095D01*
X149462095Y-87608587D01*
X149466471Y-87600000D01*
X149512500Y-87509661D01*
X149515560Y-87490339D01*
X149529869Y-87400000D01*
X149512500Y-87290339D01*
X149512500Y-87290338D01*
X149476661Y-87219999D01*
X162645131Y-87219999D01*
X162662499Y-87329661D01*
X162712902Y-87428584D01*
X162791415Y-87507097D01*
X162890338Y-87557500D01*
X162905332Y-87559874D01*
X163000000Y-87574869D01*
X163109661Y-87557500D01*
X163121009Y-87551718D01*
X163208584Y-87507097D01*
X163208584Y-87507096D01*
X163208587Y-87507095D01*
X163287095Y-87428587D01*
X163291065Y-87420797D01*
X163337500Y-87329661D01*
X163343728Y-87290338D01*
X163354869Y-87220000D01*
X163340250Y-87127707D01*
X163337500Y-87110338D01*
X163287097Y-87011415D01*
X163275681Y-86999999D01*
X164745131Y-86999999D01*
X164762499Y-87109661D01*
X164812902Y-87208584D01*
X164891415Y-87287097D01*
X164990338Y-87337500D01*
X165005332Y-87339874D01*
X165100000Y-87354869D01*
X165209661Y-87337500D01*
X165257938Y-87312902D01*
X165308584Y-87287097D01*
X165308584Y-87287096D01*
X165308587Y-87287095D01*
X165387095Y-87208587D01*
X165391471Y-87200000D01*
X165437500Y-87109661D01*
X165440560Y-87090339D01*
X165454869Y-87000000D01*
X165437500Y-86890339D01*
X165437500Y-86890338D01*
X165387097Y-86791415D01*
X165308584Y-86712902D01*
X165209661Y-86662499D01*
X165100000Y-86645131D01*
X164990338Y-86662499D01*
X164891415Y-86712902D01*
X164812902Y-86791415D01*
X164762499Y-86890338D01*
X164745131Y-86999999D01*
X163275681Y-86999999D01*
X163208584Y-86932902D01*
X163109661Y-86882499D01*
X163000000Y-86865131D01*
X162890338Y-86882499D01*
X162791415Y-86932902D01*
X162712902Y-87011415D01*
X162662499Y-87110338D01*
X162645131Y-87219999D01*
X149476661Y-87219999D01*
X149462097Y-87191415D01*
X149383584Y-87112902D01*
X149284661Y-87062499D01*
X149175000Y-87045131D01*
X149065338Y-87062499D01*
X148966415Y-87112902D01*
X148931113Y-87148205D01*
X148900000Y-87161092D01*
X148868887Y-87148205D01*
X148833584Y-87112902D01*
X148734661Y-87062499D01*
X148625000Y-87045131D01*
X148515338Y-87062499D01*
X148416415Y-87112902D01*
X148337902Y-87191415D01*
X148287499Y-87290338D01*
X148270131Y-87400000D01*
X143891471Y-87400000D01*
X143887097Y-87391415D01*
X143808584Y-87312902D01*
X143709661Y-87262499D01*
X143600000Y-87245131D01*
X143490338Y-87262499D01*
X143391415Y-87312902D01*
X143312904Y-87391414D01*
X143297933Y-87420797D01*
X143278704Y-87440025D01*
X143251846Y-87444279D01*
X143227616Y-87431934D01*
X143208584Y-87412902D01*
X143109661Y-87362499D01*
X143000000Y-87345131D01*
X142890338Y-87362499D01*
X142791415Y-87412902D01*
X142712902Y-87491415D01*
X142662499Y-87590338D01*
X142645131Y-87700000D01*
X138633285Y-87700000D01*
X138634869Y-87690000D01*
X138617500Y-87580339D01*
X138617500Y-87580338D01*
X138567097Y-87481415D01*
X138488584Y-87402902D01*
X138389661Y-87352499D01*
X138280000Y-87335131D01*
X138170340Y-87352499D01*
X138082096Y-87397461D01*
X138055237Y-87401714D01*
X138031008Y-87389368D01*
X138018663Y-87365138D01*
X138022916Y-87338282D01*
X138037500Y-87309661D01*
X138054869Y-87200000D01*
X138037500Y-87090339D01*
X138037500Y-87090338D01*
X137987097Y-86991415D01*
X137908584Y-86912902D01*
X137809661Y-86862499D01*
X137711349Y-86846928D01*
X137699999Y-86845131D01*
X137693117Y-86844041D01*
X137693419Y-86842128D01*
X137679303Y-86839881D01*
X137660091Y-86820642D01*
X137657872Y-86806580D01*
X137655960Y-86806883D01*
X137637500Y-86690338D01*
X137591471Y-86600000D01*
X143945131Y-86600000D01*
X143962499Y-86709661D01*
X144012902Y-86808584D01*
X144091415Y-86887097D01*
X144190338Y-86937500D01*
X144205332Y-86939874D01*
X144300000Y-86954869D01*
X144409661Y-86937500D01*
X144457938Y-86912902D01*
X144508584Y-86887097D01*
X144508584Y-86887096D01*
X144508587Y-86887095D01*
X144587095Y-86808587D01*
X144587964Y-86806883D01*
X144637500Y-86709661D01*
X144640560Y-86690339D01*
X144654869Y-86600000D01*
X144637500Y-86490339D01*
X144637500Y-86490338D01*
X144591471Y-86400000D01*
X156645131Y-86400000D01*
X156662499Y-86509661D01*
X156712902Y-86608584D01*
X156791415Y-86687097D01*
X156890338Y-86737500D01*
X156905332Y-86739874D01*
X157000000Y-86754869D01*
X157109661Y-86737500D01*
X157157938Y-86712902D01*
X157208584Y-86687097D01*
X157208584Y-86687096D01*
X157208587Y-86687095D01*
X157287095Y-86608587D01*
X157291471Y-86600000D01*
X157337500Y-86509661D01*
X157340560Y-86490339D01*
X157354869Y-86400000D01*
X157337500Y-86290339D01*
X157337500Y-86290338D01*
X157287097Y-86191415D01*
X157208584Y-86112902D01*
X157109661Y-86062499D01*
X157000000Y-86045131D01*
X156890338Y-86062499D01*
X156791415Y-86112902D01*
X156712902Y-86191415D01*
X156662499Y-86290338D01*
X156645131Y-86400000D01*
X144591471Y-86400000D01*
X144587097Y-86391415D01*
X144503659Y-86307977D01*
X144504909Y-86306726D01*
X144490968Y-86291239D01*
X144490970Y-86259704D01*
X144512069Y-86236272D01*
X144608587Y-86187095D01*
X144687095Y-86108587D01*
X144710344Y-86062959D01*
X144737500Y-86009661D01*
X144739603Y-85996382D01*
X144754869Y-85900000D01*
X144739030Y-85799999D01*
X145645131Y-85799999D01*
X145662499Y-85909661D01*
X145712902Y-86008584D01*
X145791415Y-86087097D01*
X145890338Y-86137500D01*
X145905332Y-86139874D01*
X146000000Y-86154869D01*
X146109661Y-86137500D01*
X146157938Y-86112902D01*
X146208584Y-86087097D01*
X146208584Y-86087096D01*
X146208587Y-86087095D01*
X146287095Y-86008587D01*
X146310578Y-85962500D01*
X146337500Y-85909661D01*
X146339030Y-85900000D01*
X157345131Y-85900000D01*
X157362499Y-86009661D01*
X157412902Y-86108584D01*
X157491415Y-86187097D01*
X157590338Y-86237500D01*
X157605332Y-86239874D01*
X157700000Y-86254869D01*
X157809661Y-86237500D01*
X157890849Y-86196132D01*
X157922212Y-86192836D01*
X157947725Y-86211373D01*
X157954282Y-86242220D01*
X157945131Y-86299999D01*
X157945131Y-86300000D01*
X157947144Y-86312708D01*
X157962499Y-86409661D01*
X158012902Y-86508584D01*
X158091415Y-86587097D01*
X158190338Y-86637500D01*
X158205332Y-86639874D01*
X158300000Y-86654869D01*
X158409661Y-86637500D01*
X158409660Y-86637500D01*
X158483260Y-86600000D01*
X160345131Y-86600000D01*
X160362499Y-86709661D01*
X160412902Y-86808584D01*
X160491415Y-86887097D01*
X160590338Y-86937500D01*
X160605332Y-86939874D01*
X160700000Y-86954869D01*
X160809661Y-86937500D01*
X160857938Y-86912902D01*
X160908584Y-86887097D01*
X160908584Y-86887096D01*
X160908587Y-86887095D01*
X160987095Y-86808587D01*
X160987964Y-86806883D01*
X161037500Y-86709661D01*
X161040560Y-86690339D01*
X161054869Y-86600000D01*
X161037500Y-86490339D01*
X161037500Y-86490338D01*
X160987097Y-86391415D01*
X160908584Y-86312902D01*
X160809661Y-86262499D01*
X160700000Y-86245131D01*
X160590338Y-86262499D01*
X160491415Y-86312902D01*
X160412902Y-86391415D01*
X160362499Y-86490338D01*
X160345131Y-86600000D01*
X158483260Y-86600000D01*
X158508584Y-86587097D01*
X158508584Y-86587096D01*
X158508587Y-86587095D01*
X158587095Y-86508587D01*
X158596394Y-86490338D01*
X158637500Y-86409661D01*
X158640390Y-86391413D01*
X158654869Y-86300000D01*
X158637965Y-86193274D01*
X158637500Y-86190338D01*
X158587097Y-86091415D01*
X158508584Y-86012902D01*
X158409661Y-85962499D01*
X158300000Y-85945131D01*
X158190340Y-85962499D01*
X158109150Y-86003867D01*
X158077786Y-86007163D01*
X158052273Y-85988626D01*
X158045717Y-85957779D01*
X158054869Y-85900000D01*
X158037500Y-85790339D01*
X158037500Y-85790338D01*
X157987097Y-85691415D01*
X157908584Y-85612902D01*
X157809661Y-85562499D01*
X157700000Y-85545131D01*
X157590338Y-85562499D01*
X157491415Y-85612902D01*
X157412902Y-85691415D01*
X157362499Y-85790338D01*
X157345131Y-85900000D01*
X146339030Y-85900000D01*
X146339030Y-85899999D01*
X146354869Y-85800000D01*
X146340250Y-85707707D01*
X146337500Y-85690338D01*
X146287097Y-85591415D01*
X146208584Y-85512902D01*
X146109661Y-85462499D01*
X146000000Y-85445131D01*
X145890338Y-85462499D01*
X145791415Y-85512902D01*
X145712902Y-85591415D01*
X145662499Y-85690338D01*
X145645131Y-85799999D01*
X144739030Y-85799999D01*
X144737500Y-85790339D01*
X144737500Y-85790338D01*
X144687097Y-85691415D01*
X144608584Y-85612902D01*
X144509661Y-85562499D01*
X144400000Y-85545131D01*
X144290338Y-85562499D01*
X144191415Y-85612902D01*
X144112902Y-85691415D01*
X144062499Y-85790338D01*
X144045131Y-85900000D01*
X144062499Y-86009661D01*
X144112902Y-86108584D01*
X144196341Y-86192023D01*
X144195089Y-86193274D01*
X144209030Y-86208756D01*
X144209029Y-86240293D01*
X144187927Y-86263728D01*
X144091415Y-86312902D01*
X144012902Y-86391415D01*
X143962499Y-86490338D01*
X143945131Y-86600000D01*
X137591471Y-86600000D01*
X137587097Y-86591415D01*
X137508584Y-86512902D01*
X137409661Y-86462499D01*
X137390010Y-86459387D01*
X137369203Y-86450122D01*
X137355816Y-86431695D01*
X137353436Y-86409044D01*
X137354869Y-86400000D01*
X137353509Y-86391415D01*
X137337500Y-86290338D01*
X137287097Y-86191415D01*
X137208584Y-86112902D01*
X137109661Y-86062499D01*
X137000001Y-86045131D01*
X137000000Y-86045131D01*
X136989942Y-86046724D01*
X136963084Y-86042469D01*
X136943856Y-86023240D01*
X136939603Y-85996382D01*
X136954869Y-85900000D01*
X136937500Y-85790339D01*
X136937500Y-85790338D01*
X136887097Y-85691415D01*
X136808584Y-85612902D01*
X136709662Y-85562500D01*
X136674559Y-85556940D01*
X136645846Y-85539344D01*
X136637985Y-85506599D01*
X136643059Y-85474561D01*
X136654869Y-85400000D01*
X136640250Y-85307707D01*
X136637500Y-85290338D01*
X136587097Y-85191415D01*
X136508584Y-85112902D01*
X136409661Y-85062499D01*
X136300000Y-85045131D01*
X136190338Y-85062499D01*
X136091415Y-85112902D01*
X136012902Y-85191415D01*
X135962499Y-85290338D01*
X135945131Y-85399999D01*
X134005386Y-85399999D01*
X134261311Y-85088154D01*
X134263188Y-85086012D01*
X134437408Y-84900000D01*
X145645131Y-84900000D01*
X145646022Y-84905623D01*
X145662499Y-85009661D01*
X145712902Y-85108584D01*
X145791415Y-85187097D01*
X145890338Y-85237500D01*
X145905332Y-85239874D01*
X146000000Y-85254869D01*
X146109661Y-85237500D01*
X146125244Y-85229560D01*
X146208584Y-85187097D01*
X146208584Y-85187096D01*
X146208587Y-85187095D01*
X146287095Y-85108587D01*
X146291471Y-85100000D01*
X146337500Y-85009661D01*
X146340560Y-84990339D01*
X146354869Y-84900000D01*
X155945131Y-84900000D01*
X155946022Y-84905623D01*
X155962499Y-85009661D01*
X156012902Y-85108584D01*
X156012905Y-85108586D01*
X156012905Y-85108587D01*
X156091413Y-85187095D01*
X156120796Y-85202066D01*
X156140025Y-85221293D01*
X156144279Y-85248152D01*
X156131934Y-85272382D01*
X156112904Y-85291412D01*
X156062499Y-85390338D01*
X156045131Y-85500000D01*
X156062499Y-85609661D01*
X156112902Y-85708584D01*
X156191415Y-85787097D01*
X156290338Y-85837500D01*
X156305332Y-85839874D01*
X156400000Y-85854869D01*
X156509661Y-85837500D01*
X156509660Y-85837500D01*
X156608584Y-85787097D01*
X156608584Y-85787096D01*
X156608587Y-85787095D01*
X156687095Y-85708587D01*
X156696394Y-85690338D01*
X156737500Y-85609661D01*
X156740390Y-85591413D01*
X156754869Y-85500000D01*
X156739030Y-85399999D01*
X158445131Y-85399999D01*
X158462499Y-85509661D01*
X158512902Y-85608584D01*
X158591415Y-85687097D01*
X158690338Y-85737500D01*
X158705332Y-85739874D01*
X158800000Y-85754869D01*
X158909661Y-85737500D01*
X158909663Y-85737499D01*
X159008584Y-85687097D01*
X159008584Y-85687096D01*
X159008587Y-85687095D01*
X159087095Y-85608587D01*
X159110578Y-85562500D01*
X159137500Y-85509661D01*
X159142564Y-85477688D01*
X159143059Y-85474560D01*
X159152322Y-85453753D01*
X159170749Y-85440366D01*
X159193400Y-85437985D01*
X159208434Y-85440366D01*
X159300000Y-85454869D01*
X159409661Y-85437500D01*
X159443626Y-85420194D01*
X159508584Y-85387097D01*
X159508584Y-85387096D01*
X159508587Y-85387095D01*
X159587095Y-85308587D01*
X159596394Y-85290338D01*
X159637500Y-85209661D01*
X159639030Y-85199999D01*
X159745131Y-85199999D01*
X159762499Y-85309661D01*
X159812902Y-85408584D01*
X159891415Y-85487097D01*
X159990338Y-85537500D01*
X160001981Y-85539344D01*
X160100000Y-85554869D01*
X160209661Y-85537500D01*
X160257938Y-85512902D01*
X160308584Y-85487097D01*
X160308584Y-85487096D01*
X160308587Y-85487095D01*
X160387095Y-85408587D01*
X160391471Y-85400000D01*
X160437500Y-85309661D01*
X160440560Y-85290339D01*
X160454869Y-85200000D01*
X160442271Y-85120462D01*
X160448827Y-85089617D01*
X160474341Y-85071080D01*
X160505704Y-85074377D01*
X160590338Y-85117500D01*
X160605332Y-85119874D01*
X160700000Y-85134869D01*
X160809661Y-85117500D01*
X160894295Y-85074376D01*
X160925658Y-85071080D01*
X160951171Y-85089617D01*
X160957728Y-85120464D01*
X160945131Y-85199999D01*
X160962499Y-85309661D01*
X161012902Y-85408584D01*
X161091415Y-85487097D01*
X161190338Y-85537500D01*
X161201981Y-85539344D01*
X161300000Y-85554869D01*
X161409661Y-85537500D01*
X161457938Y-85512902D01*
X161508584Y-85487097D01*
X161508584Y-85487096D01*
X161508587Y-85487095D01*
X161587095Y-85408587D01*
X161591471Y-85400000D01*
X161637500Y-85309661D01*
X161640560Y-85290339D01*
X161654869Y-85200000D01*
X161642271Y-85120462D01*
X161648827Y-85089617D01*
X161674341Y-85071080D01*
X161705704Y-85074377D01*
X161790338Y-85117500D01*
X161805332Y-85119874D01*
X161900000Y-85134869D01*
X162009661Y-85117500D01*
X162071482Y-85086001D01*
X162108584Y-85067097D01*
X162108584Y-85067096D01*
X162108587Y-85067095D01*
X162187095Y-84988587D01*
X162193321Y-84976369D01*
X162237500Y-84889661D01*
X162241802Y-84862499D01*
X162254869Y-84780000D01*
X162237500Y-84670339D01*
X162237500Y-84670338D01*
X162187097Y-84571415D01*
X162108584Y-84492902D01*
X162009661Y-84442499D01*
X161914993Y-84427505D01*
X161900000Y-84425131D01*
X161899999Y-84425131D01*
X161790338Y-84442499D01*
X161691415Y-84492902D01*
X161612902Y-84571415D01*
X161562499Y-84670338D01*
X161545131Y-84780000D01*
X161557728Y-84859535D01*
X161551172Y-84890382D01*
X161525658Y-84908919D01*
X161494295Y-84905622D01*
X161409661Y-84862499D01*
X161314993Y-84847505D01*
X161300000Y-84845131D01*
X161299999Y-84845131D01*
X161190341Y-84862499D01*
X161105704Y-84905623D01*
X161074341Y-84908919D01*
X161048827Y-84890382D01*
X161042271Y-84859536D01*
X161054869Y-84780000D01*
X161037500Y-84670339D01*
X161037500Y-84670338D01*
X160987097Y-84571415D01*
X160908584Y-84492902D01*
X160809661Y-84442499D01*
X160714993Y-84427505D01*
X160700000Y-84425131D01*
X160699999Y-84425131D01*
X160590338Y-84442499D01*
X160491415Y-84492902D01*
X160412902Y-84571415D01*
X160362499Y-84670338D01*
X160345131Y-84780000D01*
X160357728Y-84859535D01*
X160351172Y-84890382D01*
X160325658Y-84908919D01*
X160294295Y-84905622D01*
X160209661Y-84862499D01*
X160114993Y-84847505D01*
X160100000Y-84845131D01*
X160099999Y-84845131D01*
X159990338Y-84862499D01*
X159891415Y-84912902D01*
X159812902Y-84991415D01*
X159762499Y-85090338D01*
X159745131Y-85199999D01*
X159639030Y-85199999D01*
X159643712Y-85170439D01*
X159654869Y-85100000D01*
X159640250Y-85007707D01*
X159637500Y-84990338D01*
X159587097Y-84891415D01*
X159508584Y-84812902D01*
X159409661Y-84762499D01*
X159314993Y-84747505D01*
X159300000Y-84745131D01*
X159299999Y-84745131D01*
X159190338Y-84762499D01*
X159091415Y-84812902D01*
X159012902Y-84891415D01*
X158962500Y-84990338D01*
X158956940Y-85025440D01*
X158939344Y-85054153D01*
X158906599Y-85062014D01*
X158800000Y-85045131D01*
X158690338Y-85062499D01*
X158591415Y-85112902D01*
X158512902Y-85191415D01*
X158462499Y-85290338D01*
X158445131Y-85399999D01*
X156739030Y-85399999D01*
X156737500Y-85390339D01*
X156737500Y-85390338D01*
X156687097Y-85291415D01*
X156608585Y-85212903D01*
X156579202Y-85197932D01*
X156559974Y-85178703D01*
X156555720Y-85151844D01*
X156568065Y-85127616D01*
X156587095Y-85108587D01*
X156637500Y-85009661D01*
X156654869Y-84900000D01*
X156637500Y-84790339D01*
X156627433Y-84770583D01*
X156624137Y-84739220D01*
X156642674Y-84713706D01*
X156673520Y-84707150D01*
X156697000Y-84710869D01*
X156806661Y-84693500D01*
X156845701Y-84673607D01*
X156879271Y-84670965D01*
X156904878Y-84692834D01*
X156912905Y-84708587D01*
X156959186Y-84754868D01*
X156991415Y-84787097D01*
X157090338Y-84837500D01*
X157105332Y-84839874D01*
X157200000Y-84854869D01*
X157309661Y-84837500D01*
X157357938Y-84812902D01*
X157408584Y-84787097D01*
X157408584Y-84787096D01*
X157408587Y-84787095D01*
X157487095Y-84708587D01*
X157487828Y-84707150D01*
X157537500Y-84609661D01*
X157537671Y-84608584D01*
X157554869Y-84500000D01*
X157537500Y-84390339D01*
X157537500Y-84390338D01*
X157487097Y-84291415D01*
X157408584Y-84212902D01*
X157309661Y-84162499D01*
X157200000Y-84145131D01*
X157090339Y-84162499D01*
X157051297Y-84182391D01*
X157017725Y-84185032D01*
X156992119Y-84163161D01*
X156984096Y-84147415D01*
X156984095Y-84147413D01*
X156905587Y-84068905D01*
X156905586Y-84068904D01*
X156905584Y-84068902D01*
X156806661Y-84018499D01*
X156711993Y-84003505D01*
X156697000Y-84001131D01*
X156696999Y-84001131D01*
X156587338Y-84018499D01*
X156488415Y-84068902D01*
X156409902Y-84147415D01*
X156359499Y-84246338D01*
X156342131Y-84356000D01*
X156359499Y-84465661D01*
X156369565Y-84485416D01*
X156372862Y-84516779D01*
X156354326Y-84542292D01*
X156323479Y-84548849D01*
X156300001Y-84545131D01*
X156300000Y-84545131D01*
X156286810Y-84547220D01*
X156190338Y-84562499D01*
X156091415Y-84612902D01*
X156012902Y-84691415D01*
X155962499Y-84790338D01*
X155945131Y-84899999D01*
X155945131Y-84900000D01*
X146354869Y-84900000D01*
X146340250Y-84807706D01*
X146337500Y-84790338D01*
X146287097Y-84691415D01*
X146208584Y-84612902D01*
X146109661Y-84562499D01*
X146000000Y-84545131D01*
X145890338Y-84562499D01*
X145791415Y-84612902D01*
X145712902Y-84691415D01*
X145662499Y-84790338D01*
X145645131Y-84899999D01*
X145645131Y-84900000D01*
X134437408Y-84900000D01*
X134605499Y-84720531D01*
X134606456Y-84719543D01*
X134606666Y-84719333D01*
X134606667Y-84719334D01*
X134640322Y-84685680D01*
X134640322Y-84685677D01*
X134646704Y-84679297D01*
X134646707Y-84679291D01*
X136081454Y-83244544D01*
X136110263Y-83231718D01*
X136140256Y-83241464D01*
X136156024Y-83268775D01*
X136162499Y-83309661D01*
X136212902Y-83408584D01*
X136212905Y-83408587D01*
X136291413Y-83487095D01*
X136320796Y-83502066D01*
X136340025Y-83521293D01*
X136344279Y-83548152D01*
X136331934Y-83572382D01*
X136312904Y-83591412D01*
X136262499Y-83690338D01*
X136259387Y-83709989D01*
X136241792Y-83738701D01*
X136209048Y-83746564D01*
X136205677Y-83746030D01*
X136200000Y-83745131D01*
X136199999Y-83745131D01*
X136090338Y-83762499D01*
X135991415Y-83812902D01*
X135912902Y-83891415D01*
X135862500Y-83990338D01*
X135849984Y-84069356D01*
X135837639Y-84093585D01*
X135813409Y-84105930D01*
X135786551Y-84101676D01*
X135709661Y-84062499D01*
X135600000Y-84045131D01*
X135490338Y-84062499D01*
X135391415Y-84112902D01*
X135312902Y-84191415D01*
X135262499Y-84290338D01*
X135245131Y-84399999D01*
X135262499Y-84509661D01*
X135312902Y-84608584D01*
X135391415Y-84687097D01*
X135490338Y-84737500D01*
X135501198Y-84739220D01*
X135600000Y-84754869D01*
X135709661Y-84737500D01*
X135761930Y-84710868D01*
X135808584Y-84687097D01*
X135808584Y-84687096D01*
X135808587Y-84687095D01*
X135887095Y-84608587D01*
X135910578Y-84562500D01*
X135937500Y-84509661D01*
X135946178Y-84454869D01*
X135950015Y-84430642D01*
X135962360Y-84406414D01*
X135986590Y-84394069D01*
X136013448Y-84398323D01*
X136090338Y-84437500D01*
X136105332Y-84439874D01*
X136200000Y-84454869D01*
X136309661Y-84437500D01*
X136333937Y-84425131D01*
X136408584Y-84387097D01*
X136408584Y-84387096D01*
X136408587Y-84387095D01*
X136487095Y-84308587D01*
X136494344Y-84294361D01*
X136537500Y-84209661D01*
X136539030Y-84200000D01*
X154645131Y-84200000D01*
X154662499Y-84309661D01*
X154712902Y-84408584D01*
X154791415Y-84487097D01*
X154890338Y-84537500D01*
X154907707Y-84540250D01*
X155000000Y-84554869D01*
X155109661Y-84537500D01*
X155150329Y-84516779D01*
X155208584Y-84487097D01*
X155208584Y-84487096D01*
X155208587Y-84487095D01*
X155287095Y-84408587D01*
X155288203Y-84406414D01*
X155337500Y-84309661D01*
X155340560Y-84290339D01*
X155354869Y-84200000D01*
X155337500Y-84090339D01*
X155337030Y-84087371D01*
X155341284Y-84060512D01*
X155360512Y-84041284D01*
X155387371Y-84037030D01*
X155390339Y-84037500D01*
X155500000Y-84054869D01*
X155609661Y-84037500D01*
X155646953Y-84018499D01*
X155708584Y-83987097D01*
X155708584Y-83987096D01*
X155708587Y-83987095D01*
X155787095Y-83908587D01*
X155810339Y-83862969D01*
X155837500Y-83809661D01*
X155839030Y-83800000D01*
X155854869Y-83700000D01*
X155839991Y-83606065D01*
X155837500Y-83590338D01*
X155787097Y-83491415D01*
X155708584Y-83412902D01*
X155609661Y-83362499D01*
X155500000Y-83345131D01*
X155390338Y-83362499D01*
X155291415Y-83412902D01*
X155212902Y-83491415D01*
X155162499Y-83590338D01*
X155145131Y-83700000D01*
X155162969Y-83812628D01*
X155158715Y-83839487D01*
X155139487Y-83858715D01*
X155112628Y-83862969D01*
X155000000Y-83845131D01*
X154890338Y-83862499D01*
X154791415Y-83912902D01*
X154712902Y-83991415D01*
X154662499Y-84090338D01*
X154645131Y-84200000D01*
X136539030Y-84200000D01*
X136540612Y-84190012D01*
X136549876Y-84169204D01*
X136568303Y-84155816D01*
X136590954Y-84153436D01*
X136600000Y-84154869D01*
X136600001Y-84154868D01*
X136600002Y-84154869D01*
X136709661Y-84137500D01*
X136808584Y-84087097D01*
X136808584Y-84087096D01*
X136808587Y-84087095D01*
X136887095Y-84008587D01*
X136896394Y-83990338D01*
X136937500Y-83909661D01*
X136944895Y-83862969D01*
X136954869Y-83800000D01*
X136939030Y-83699999D01*
X151245131Y-83699999D01*
X151262499Y-83809661D01*
X151312902Y-83908584D01*
X151391415Y-83987097D01*
X151490338Y-84037500D01*
X151505332Y-84039874D01*
X151600000Y-84054869D01*
X151709661Y-84037500D01*
X151746953Y-84018499D01*
X151808584Y-83987097D01*
X151808584Y-83987096D01*
X151808587Y-83987095D01*
X151887095Y-83908587D01*
X151910339Y-83862969D01*
X151937500Y-83809661D01*
X151939030Y-83800000D01*
X151954869Y-83700000D01*
X151939991Y-83606065D01*
X151937500Y-83590338D01*
X151887097Y-83491415D01*
X151808584Y-83412902D01*
X151709661Y-83362499D01*
X151600000Y-83345131D01*
X151490338Y-83362499D01*
X151391415Y-83412902D01*
X151312902Y-83491415D01*
X151262499Y-83590338D01*
X151245131Y-83699999D01*
X136939030Y-83699999D01*
X136937500Y-83690339D01*
X136937500Y-83690338D01*
X136887097Y-83591415D01*
X136808585Y-83512903D01*
X136779202Y-83497932D01*
X136759974Y-83478703D01*
X136755720Y-83451844D01*
X136768065Y-83427616D01*
X136787095Y-83408587D01*
X136837500Y-83309661D01*
X136838953Y-83300481D01*
X136851297Y-83276254D01*
X136875527Y-83263908D01*
X136902385Y-83268161D01*
X136940339Y-83287500D01*
X137050000Y-83304869D01*
X137159661Y-83287500D01*
X137196411Y-83268775D01*
X137258584Y-83237097D01*
X137258584Y-83237096D01*
X137258587Y-83237095D01*
X137337095Y-83158587D01*
X137366946Y-83100000D01*
X145045131Y-83100000D01*
X145062499Y-83209661D01*
X145112902Y-83308584D01*
X145191415Y-83387097D01*
X145290338Y-83437500D01*
X145305332Y-83439874D01*
X145400000Y-83454869D01*
X145509661Y-83437500D01*
X145557938Y-83412902D01*
X145608584Y-83387097D01*
X145608584Y-83387096D01*
X145608587Y-83387095D01*
X145687095Y-83308587D01*
X145688990Y-83304869D01*
X145737500Y-83209661D01*
X145739030Y-83199999D01*
X152745131Y-83199999D01*
X152762499Y-83309661D01*
X152812902Y-83408584D01*
X152891415Y-83487097D01*
X152990338Y-83537500D01*
X153005332Y-83539874D01*
X153100000Y-83554869D01*
X153209661Y-83537500D01*
X153225244Y-83529560D01*
X153308584Y-83487097D01*
X153308584Y-83487096D01*
X153308587Y-83487095D01*
X153387095Y-83408587D01*
X153410578Y-83362500D01*
X153437500Y-83309661D01*
X153443156Y-83273950D01*
X153454869Y-83200000D01*
X153439030Y-83100000D01*
X153437500Y-83090338D01*
X153387097Y-82991415D01*
X153308584Y-82912902D01*
X153295038Y-82906000D01*
X160422131Y-82906000D01*
X160439499Y-83015661D01*
X160489902Y-83114584D01*
X160568415Y-83193097D01*
X160667338Y-83243500D01*
X160776998Y-83260869D01*
X160776999Y-83260868D01*
X160777000Y-83260869D01*
X160793957Y-83258183D01*
X160816609Y-83260563D01*
X160835036Y-83273950D01*
X160844300Y-83294758D01*
X160862499Y-83409661D01*
X160912902Y-83508584D01*
X160991415Y-83587097D01*
X161090338Y-83637500D01*
X161107706Y-83640250D01*
X161200000Y-83654869D01*
X161309661Y-83637500D01*
X161367904Y-83607824D01*
X161408584Y-83587097D01*
X161408584Y-83587096D01*
X161408587Y-83587095D01*
X161487095Y-83508587D01*
X161490419Y-83502065D01*
X161537500Y-83409661D01*
X161541074Y-83387095D01*
X161554869Y-83300000D01*
X161537500Y-83190339D01*
X161537500Y-83190338D01*
X161487097Y-83091415D01*
X161408584Y-83012902D01*
X161309661Y-82962499D01*
X161200001Y-82945131D01*
X161200000Y-82945131D01*
X161193205Y-82946207D01*
X161183039Y-82947817D01*
X161150295Y-82939954D01*
X161132700Y-82911242D01*
X161121456Y-82840256D01*
X161114500Y-82796339D01*
X161106915Y-82781453D01*
X161064097Y-82697415D01*
X160985584Y-82618902D01*
X160886661Y-82568499D01*
X160777000Y-82551131D01*
X160667338Y-82568499D01*
X160568415Y-82618902D01*
X160489902Y-82697415D01*
X160439499Y-82796338D01*
X160422131Y-82906000D01*
X153295038Y-82906000D01*
X153209661Y-82862499D01*
X153100000Y-82845131D01*
X152990338Y-82862499D01*
X152891415Y-82912902D01*
X152812902Y-82991415D01*
X152762499Y-83090338D01*
X152745131Y-83199999D01*
X145739030Y-83199999D01*
X145754869Y-83100000D01*
X145739874Y-83005332D01*
X145737500Y-82990338D01*
X145687097Y-82891415D01*
X145608584Y-82812902D01*
X145509661Y-82762499D01*
X145414993Y-82747505D01*
X145400000Y-82745131D01*
X145399999Y-82745131D01*
X145290338Y-82762499D01*
X145191415Y-82812902D01*
X145112902Y-82891415D01*
X145062499Y-82990338D01*
X145045131Y-83100000D01*
X137366946Y-83100000D01*
X137387500Y-83059661D01*
X137399561Y-82983507D01*
X137408825Y-82962702D01*
X137427251Y-82949314D01*
X137449903Y-82946934D01*
X137500000Y-82954869D01*
X137609661Y-82937500D01*
X137661196Y-82911242D01*
X137708584Y-82887097D01*
X137708584Y-82887096D01*
X137708587Y-82887095D01*
X137787095Y-82808587D01*
X137793337Y-82796338D01*
X137837500Y-82709661D01*
X137855960Y-82593117D01*
X137857875Y-82593420D01*
X137860100Y-82579340D01*
X137879340Y-82560100D01*
X137893420Y-82557875D01*
X137893117Y-82555960D01*
X138009661Y-82537500D01*
X138108584Y-82487097D01*
X138108584Y-82487096D01*
X138108587Y-82487095D01*
X138187095Y-82408587D01*
X138237500Y-82309661D01*
X138254869Y-82200000D01*
X138239030Y-82100000D01*
X144045131Y-82100000D01*
X144062499Y-82209661D01*
X144112902Y-82308584D01*
X144191415Y-82387097D01*
X144290338Y-82437500D01*
X144307706Y-82440250D01*
X144400000Y-82454869D01*
X144509661Y-82437500D01*
X144509660Y-82437500D01*
X144608584Y-82387097D01*
X144608584Y-82387096D01*
X144608587Y-82387095D01*
X144687095Y-82308587D01*
X144710578Y-82262500D01*
X144737500Y-82209661D01*
X144739030Y-82199999D01*
X148745131Y-82199999D01*
X148762499Y-82309661D01*
X148812902Y-82408584D01*
X148891415Y-82487097D01*
X148990338Y-82537500D01*
X149005332Y-82539874D01*
X149100000Y-82554869D01*
X149209661Y-82537500D01*
X149209661Y-82537499D01*
X149308584Y-82487097D01*
X149308584Y-82487096D01*
X149308587Y-82487095D01*
X149387095Y-82408587D01*
X149437500Y-82309661D01*
X149454869Y-82200000D01*
X149454869Y-82199999D01*
X150745131Y-82199999D01*
X150762499Y-82309661D01*
X150812902Y-82408584D01*
X150891415Y-82487097D01*
X150990338Y-82537500D01*
X151005332Y-82539874D01*
X151100000Y-82554869D01*
X151209661Y-82537500D01*
X151209661Y-82537499D01*
X151308584Y-82487097D01*
X151308584Y-82487096D01*
X151308587Y-82487095D01*
X151387095Y-82408587D01*
X151437500Y-82309661D01*
X151454869Y-82200000D01*
X151454869Y-82199999D01*
X152745131Y-82199999D01*
X152762499Y-82309661D01*
X152812902Y-82408584D01*
X152891415Y-82487097D01*
X152990338Y-82537500D01*
X153005332Y-82539874D01*
X153100000Y-82554869D01*
X153209661Y-82537500D01*
X153209661Y-82537499D01*
X153308584Y-82487097D01*
X153308584Y-82487096D01*
X153308587Y-82487095D01*
X153387095Y-82408587D01*
X153437500Y-82309661D01*
X153454869Y-82200000D01*
X153437500Y-82090339D01*
X153437500Y-82090338D01*
X153387097Y-81991415D01*
X153308584Y-81912902D01*
X153209661Y-81862499D01*
X153114993Y-81847505D01*
X153100000Y-81845131D01*
X153099999Y-81845131D01*
X152990338Y-81862499D01*
X152891415Y-81912902D01*
X152812902Y-81991415D01*
X152762499Y-82090338D01*
X152745131Y-82199999D01*
X151454869Y-82199999D01*
X151437500Y-82090339D01*
X151437500Y-82090338D01*
X151387097Y-81991415D01*
X151308584Y-81912902D01*
X151209661Y-81862499D01*
X151114993Y-81847505D01*
X151100000Y-81845131D01*
X151099999Y-81845131D01*
X150990338Y-81862499D01*
X150891415Y-81912902D01*
X150812902Y-81991415D01*
X150762499Y-82090338D01*
X150745131Y-82199999D01*
X149454869Y-82199999D01*
X149437500Y-82090339D01*
X149437500Y-82090338D01*
X149387097Y-81991415D01*
X149308584Y-81912902D01*
X149209661Y-81862499D01*
X149114993Y-81847505D01*
X149100000Y-81845131D01*
X149099999Y-81845131D01*
X148990338Y-81862499D01*
X148891415Y-81912902D01*
X148812902Y-81991415D01*
X148762499Y-82090338D01*
X148745131Y-82199999D01*
X144739030Y-82199999D01*
X144754869Y-82100000D01*
X144739874Y-82005332D01*
X144737500Y-81990338D01*
X144687097Y-81891415D01*
X144608584Y-81812902D01*
X144509661Y-81762499D01*
X144400000Y-81745131D01*
X144290338Y-81762499D01*
X144191415Y-81812902D01*
X144112902Y-81891415D01*
X144062499Y-81990338D01*
X144045131Y-82100000D01*
X138239030Y-82100000D01*
X138237500Y-82090339D01*
X138237500Y-82090338D01*
X138196133Y-82009150D01*
X138192836Y-81977787D01*
X138211373Y-81952273D01*
X138242219Y-81945717D01*
X138300000Y-81954869D01*
X138409661Y-81937500D01*
X138457938Y-81912902D01*
X138508584Y-81887097D01*
X138508584Y-81887096D01*
X138508587Y-81887095D01*
X138587095Y-81808587D01*
X138610578Y-81762500D01*
X138637500Y-81709661D01*
X138652439Y-81615339D01*
X138654869Y-81600000D01*
X138637500Y-81490339D01*
X138637500Y-81490338D01*
X138587097Y-81391415D01*
X138508584Y-81312902D01*
X138409661Y-81262499D01*
X138300000Y-81245131D01*
X138190339Y-81262499D01*
X138179259Y-81268145D01*
X138149012Y-81271724D01*
X138123688Y-81254802D01*
X138115421Y-81225487D01*
X138128171Y-81197827D01*
X138697828Y-80628171D01*
X138725487Y-80615421D01*
X138754802Y-80623688D01*
X138771724Y-80649012D01*
X138768145Y-80679259D01*
X138762499Y-80690339D01*
X138745131Y-80799999D01*
X138762499Y-80909661D01*
X138812902Y-81008584D01*
X138891415Y-81087097D01*
X138990338Y-81137500D01*
X139007707Y-81140250D01*
X139100000Y-81154869D01*
X139209661Y-81137500D01*
X139257938Y-81112902D01*
X139308584Y-81087097D01*
X139308584Y-81087096D01*
X139308587Y-81087095D01*
X139387095Y-81008587D01*
X139391471Y-81000000D01*
X139391472Y-80999999D01*
X141945131Y-80999999D01*
X141962499Y-81109661D01*
X142012902Y-81208584D01*
X142091415Y-81287097D01*
X142190338Y-81337500D01*
X142205332Y-81339874D01*
X142300000Y-81354869D01*
X142409661Y-81337500D01*
X142457938Y-81312902D01*
X142508584Y-81287097D01*
X142508584Y-81287096D01*
X142508587Y-81287095D01*
X142587095Y-81208587D01*
X142591471Y-81200000D01*
X142637500Y-81109661D01*
X142639030Y-81100000D01*
X142945131Y-81100000D01*
X142962499Y-81209661D01*
X143012902Y-81308584D01*
X143091415Y-81387097D01*
X143190338Y-81437500D01*
X143205332Y-81439874D01*
X143300000Y-81454869D01*
X143409661Y-81437500D01*
X143452996Y-81415420D01*
X143508584Y-81387097D01*
X143508584Y-81387096D01*
X143508587Y-81387095D01*
X143587095Y-81308587D01*
X143596394Y-81290338D01*
X143637500Y-81209661D01*
X143639030Y-81200000D01*
X150745131Y-81200000D01*
X150762499Y-81309661D01*
X150812902Y-81408584D01*
X150891415Y-81487097D01*
X150990338Y-81537500D01*
X151007706Y-81540250D01*
X151100000Y-81554869D01*
X151209661Y-81537500D01*
X151251047Y-81516413D01*
X151308584Y-81487097D01*
X151308584Y-81487096D01*
X151308587Y-81487095D01*
X151387095Y-81408587D01*
X151391471Y-81400000D01*
X151437500Y-81309661D01*
X151440560Y-81290339D01*
X151454869Y-81200000D01*
X151745131Y-81200000D01*
X151762499Y-81309661D01*
X151812902Y-81408584D01*
X151891415Y-81487097D01*
X151990338Y-81537500D01*
X152007706Y-81540250D01*
X152100000Y-81554869D01*
X152209661Y-81537500D01*
X152251047Y-81516413D01*
X152308584Y-81487097D01*
X152308584Y-81487096D01*
X152308587Y-81487095D01*
X152387095Y-81408587D01*
X152391471Y-81400000D01*
X152437500Y-81309661D01*
X152440560Y-81290339D01*
X152454869Y-81200000D01*
X152437500Y-81090339D01*
X152437500Y-81090338D01*
X152387097Y-80991415D01*
X152308584Y-80912902D01*
X152209661Y-80862499D01*
X152114993Y-80847505D01*
X152100000Y-80845131D01*
X152099999Y-80845131D01*
X151990338Y-80862499D01*
X151891415Y-80912902D01*
X151812902Y-80991415D01*
X151762499Y-81090338D01*
X151745131Y-81200000D01*
X151454869Y-81200000D01*
X151437500Y-81090339D01*
X151437500Y-81090338D01*
X151387097Y-80991415D01*
X151308584Y-80912902D01*
X151209661Y-80862499D01*
X151114993Y-80847505D01*
X151100000Y-80845131D01*
X151099999Y-80845131D01*
X150990338Y-80862499D01*
X150891415Y-80912902D01*
X150812902Y-80991415D01*
X150762499Y-81090338D01*
X150745131Y-81200000D01*
X143639030Y-81200000D01*
X143646178Y-81154869D01*
X143654869Y-81100000D01*
X143639030Y-80999999D01*
X143637500Y-80990338D01*
X143587097Y-80891415D01*
X143508584Y-80812902D01*
X143409661Y-80762499D01*
X143300000Y-80745131D01*
X143190338Y-80762499D01*
X143091415Y-80812902D01*
X143012902Y-80891415D01*
X142962499Y-80990338D01*
X142945131Y-81100000D01*
X142639030Y-81100000D01*
X142640560Y-81090339D01*
X142654869Y-81000000D01*
X142640250Y-80907706D01*
X142637500Y-80890338D01*
X142587097Y-80791415D01*
X142508584Y-80712902D01*
X142483262Y-80700000D01*
X152745131Y-80700000D01*
X152762499Y-80809661D01*
X152812902Y-80908584D01*
X152891415Y-80987097D01*
X152990338Y-81037500D01*
X153005332Y-81039874D01*
X153100000Y-81054869D01*
X153209661Y-81037500D01*
X153209897Y-81037380D01*
X153308584Y-80987097D01*
X153308584Y-80987096D01*
X153308587Y-80987095D01*
X153387095Y-80908587D01*
X153396394Y-80890338D01*
X153437500Y-80809661D01*
X153440390Y-80791413D01*
X153454869Y-80700000D01*
X155145131Y-80700000D01*
X155162499Y-80809661D01*
X155212902Y-80908584D01*
X155291415Y-80987097D01*
X155390105Y-81037381D01*
X155409334Y-81056609D01*
X155413588Y-81083468D01*
X155395131Y-81199999D01*
X155412499Y-81309661D01*
X155462902Y-81408584D01*
X155541415Y-81487097D01*
X155640338Y-81537500D01*
X155657706Y-81540250D01*
X155750000Y-81554869D01*
X155859661Y-81537500D01*
X155901047Y-81516413D01*
X155958584Y-81487097D01*
X155958584Y-81487096D01*
X155958587Y-81487095D01*
X156037095Y-81408587D01*
X156041471Y-81400000D01*
X156545131Y-81400000D01*
X156562499Y-81509661D01*
X156612902Y-81608584D01*
X156691415Y-81687097D01*
X156790338Y-81737500D01*
X156805332Y-81739874D01*
X156900000Y-81754869D01*
X157009661Y-81737500D01*
X157034194Y-81725000D01*
X157108584Y-81687097D01*
X157108584Y-81687096D01*
X157108587Y-81687095D01*
X157187095Y-81608587D01*
X157191471Y-81600000D01*
X157237500Y-81509661D01*
X157240560Y-81490339D01*
X157254869Y-81400000D01*
X158145131Y-81400000D01*
X158162499Y-81509661D01*
X158212902Y-81608584D01*
X158291415Y-81687097D01*
X158390338Y-81737500D01*
X158405332Y-81739874D01*
X158500000Y-81754869D01*
X158609661Y-81737500D01*
X158634194Y-81725000D01*
X160120131Y-81725000D01*
X160137499Y-81834661D01*
X160187902Y-81933584D01*
X160266415Y-82012097D01*
X160365338Y-82062500D01*
X160380332Y-82064874D01*
X160475000Y-82079869D01*
X160584661Y-82062500D01*
X160584661Y-82062499D01*
X160683584Y-82012097D01*
X160683584Y-82012096D01*
X160683587Y-82012095D01*
X160762095Y-81933587D01*
X160772635Y-81912902D01*
X160812500Y-81834661D01*
X160823929Y-81762500D01*
X160829869Y-81725000D01*
X160812500Y-81615339D01*
X160812500Y-81615338D01*
X160762097Y-81516415D01*
X160683584Y-81437902D01*
X160584661Y-81387499D01*
X160475000Y-81370131D01*
X160365338Y-81387499D01*
X160266415Y-81437902D01*
X160187902Y-81516415D01*
X160137499Y-81615338D01*
X160120131Y-81725000D01*
X158634194Y-81725000D01*
X158708584Y-81687097D01*
X158708584Y-81687096D01*
X158708587Y-81687095D01*
X158787095Y-81608587D01*
X158791471Y-81600000D01*
X158837500Y-81509661D01*
X158840560Y-81490337D01*
X158842080Y-81480740D01*
X158851343Y-81459933D01*
X158869770Y-81446546D01*
X158892419Y-81444165D01*
X158960000Y-81454869D01*
X159069661Y-81437500D01*
X159112996Y-81415420D01*
X159168584Y-81387097D01*
X159168584Y-81387096D01*
X159168587Y-81387095D01*
X159247095Y-81308587D01*
X159256394Y-81290338D01*
X159297500Y-81209661D01*
X159306178Y-81154869D01*
X159314869Y-81100000D01*
X159299030Y-80999999D01*
X159297500Y-80990338D01*
X159247097Y-80891415D01*
X159168584Y-80812902D01*
X159069661Y-80762499D01*
X158960000Y-80745131D01*
X158850338Y-80762499D01*
X158751415Y-80812902D01*
X158672902Y-80891415D01*
X158622500Y-80990338D01*
X158617919Y-81019260D01*
X158600323Y-81047973D01*
X158567578Y-81055834D01*
X158500000Y-81045131D01*
X158390338Y-81062499D01*
X158291415Y-81112902D01*
X158212902Y-81191415D01*
X158162499Y-81290338D01*
X158145131Y-81400000D01*
X157254869Y-81400000D01*
X157237500Y-81290339D01*
X157237500Y-81290338D01*
X157187097Y-81191415D01*
X157108584Y-81112902D01*
X157009661Y-81062499D01*
X156900000Y-81045131D01*
X156790338Y-81062499D01*
X156691415Y-81112902D01*
X156612902Y-81191415D01*
X156562499Y-81290338D01*
X156545131Y-81400000D01*
X156041471Y-81400000D01*
X156087500Y-81309661D01*
X156090560Y-81290339D01*
X156104869Y-81200000D01*
X156087500Y-81090339D01*
X156087498Y-81090336D01*
X156086411Y-81083468D01*
X156090665Y-81056609D01*
X156109891Y-81037382D01*
X156208587Y-80987095D01*
X156287095Y-80908587D01*
X156296394Y-80890338D01*
X156337500Y-80809661D01*
X156340390Y-80791413D01*
X156354869Y-80700000D01*
X156339874Y-80605332D01*
X156337500Y-80590338D01*
X156287097Y-80491415D01*
X156208584Y-80412902D01*
X156109661Y-80362499D01*
X156000000Y-80345131D01*
X155890338Y-80362499D01*
X155791415Y-80412902D01*
X155781113Y-80423205D01*
X155750000Y-80436092D01*
X155718887Y-80423205D01*
X155708584Y-80412902D01*
X155609661Y-80362499D01*
X155500000Y-80345131D01*
X155390338Y-80362499D01*
X155291415Y-80412902D01*
X155212902Y-80491415D01*
X155162499Y-80590338D01*
X155145131Y-80700000D01*
X153454869Y-80700000D01*
X153439874Y-80605332D01*
X153437500Y-80590338D01*
X153387097Y-80491415D01*
X153308584Y-80412902D01*
X153209661Y-80362499D01*
X153100000Y-80345131D01*
X152990338Y-80362499D01*
X152891415Y-80412902D01*
X152812902Y-80491415D01*
X152762499Y-80590338D01*
X152745131Y-80700000D01*
X142483262Y-80700000D01*
X142409661Y-80662499D01*
X142314993Y-80647505D01*
X142300000Y-80645131D01*
X142299999Y-80645131D01*
X142190338Y-80662499D01*
X142091415Y-80712902D01*
X142012902Y-80791415D01*
X141962499Y-80890338D01*
X141945131Y-80999999D01*
X139391472Y-80999999D01*
X139437500Y-80909661D01*
X139440560Y-80890339D01*
X139454869Y-80800000D01*
X139437500Y-80690339D01*
X139437500Y-80690338D01*
X139387097Y-80591415D01*
X139308584Y-80512902D01*
X139209661Y-80462499D01*
X139114993Y-80447505D01*
X139100000Y-80445131D01*
X139099999Y-80445131D01*
X138990339Y-80462499D01*
X138979259Y-80468145D01*
X138949012Y-80471724D01*
X138923688Y-80454802D01*
X138915421Y-80425487D01*
X138928171Y-80397828D01*
X139226000Y-80099999D01*
X139545131Y-80099999D01*
X139562499Y-80209661D01*
X139612902Y-80308584D01*
X139691415Y-80387097D01*
X139790338Y-80437500D01*
X139805332Y-80439874D01*
X139900000Y-80454869D01*
X140009661Y-80437500D01*
X140059567Y-80412072D01*
X140108584Y-80387097D01*
X140108584Y-80387096D01*
X140108587Y-80387095D01*
X140187095Y-80308587D01*
X140191471Y-80300000D01*
X140237500Y-80209661D01*
X140240560Y-80190339D01*
X140254869Y-80100000D01*
X140238318Y-79995503D01*
X140237500Y-79990338D01*
X140187097Y-79891415D01*
X140108584Y-79812902D01*
X140009661Y-79762499D01*
X139914993Y-79747505D01*
X139900000Y-79745131D01*
X139899999Y-79745131D01*
X139790338Y-79762499D01*
X139691415Y-79812902D01*
X139612902Y-79891415D01*
X139562499Y-79990338D01*
X139545131Y-80099999D01*
X139226000Y-80099999D01*
X139692506Y-79633494D01*
X139695694Y-79630306D01*
X139699792Y-79626689D01*
X139791265Y-79555586D01*
X139800657Y-79550004D01*
X139904296Y-79504752D01*
X139914773Y-79501659D01*
X140026373Y-79483352D01*
X140037293Y-79482938D01*
X140115750Y-79489742D01*
X140149951Y-79492709D01*
X140160640Y-79494999D01*
X140267413Y-79532240D01*
X140277207Y-79537094D01*
X140374218Y-79601305D01*
X140378577Y-79604597D01*
X140401887Y-79624588D01*
X140401889Y-79624589D01*
X140408556Y-79630311D01*
X140418002Y-79638419D01*
X140418041Y-79638443D01*
X140466080Y-79679643D01*
X140666073Y-79806669D01*
X140751612Y-79845131D01*
X140882167Y-79903835D01*
X140882169Y-79903835D01*
X140882170Y-79903836D01*
X141109913Y-79969142D01*
X141109915Y-79969142D01*
X141109918Y-79969143D01*
X141308195Y-79996267D01*
X141336032Y-80011692D01*
X141346186Y-80041854D01*
X141333344Y-80070974D01*
X141312902Y-80091415D01*
X141262499Y-80190338D01*
X141245131Y-80299999D01*
X141262499Y-80409661D01*
X141312902Y-80508584D01*
X141391415Y-80587097D01*
X141490338Y-80637500D01*
X141505332Y-80639874D01*
X141600000Y-80654869D01*
X141709661Y-80637500D01*
X141709661Y-80637499D01*
X141808584Y-80587097D01*
X141808584Y-80587096D01*
X141808587Y-80587095D01*
X141887095Y-80508587D01*
X141936272Y-80412069D01*
X141959704Y-80390970D01*
X141991239Y-80390968D01*
X142006726Y-80404909D01*
X142007977Y-80403659D01*
X142091415Y-80487097D01*
X142190338Y-80537500D01*
X142205332Y-80539874D01*
X142300000Y-80554869D01*
X142409661Y-80537500D01*
X142457938Y-80512902D01*
X142508584Y-80487097D01*
X142508584Y-80487096D01*
X142508587Y-80487095D01*
X142587095Y-80408587D01*
X142592578Y-80397827D01*
X142637500Y-80309661D01*
X142639030Y-80299999D01*
X142654869Y-80200000D01*
X148745131Y-80200000D01*
X148762499Y-80309661D01*
X148812902Y-80408584D01*
X148891415Y-80487097D01*
X148990338Y-80537500D01*
X149005332Y-80539874D01*
X149100000Y-80554869D01*
X149209661Y-80537500D01*
X149257938Y-80512902D01*
X149308584Y-80487097D01*
X149308584Y-80487096D01*
X149308587Y-80487095D01*
X149387095Y-80408587D01*
X149392578Y-80397827D01*
X149437500Y-80309661D01*
X149439030Y-80299999D01*
X149454869Y-80200000D01*
X149438253Y-80095090D01*
X149437500Y-80090338D01*
X149387097Y-79991415D01*
X149308584Y-79912902D01*
X149209661Y-79862499D01*
X149100000Y-79845131D01*
X148990338Y-79862499D01*
X148891415Y-79912902D01*
X148812902Y-79991415D01*
X148762499Y-80090338D01*
X148745131Y-80200000D01*
X142654869Y-80200000D01*
X142638253Y-80095090D01*
X142637500Y-80090338D01*
X142587097Y-79991415D01*
X142508584Y-79912902D01*
X142409661Y-79862499D01*
X142316413Y-79847730D01*
X142293045Y-79836223D01*
X142280279Y-79813519D01*
X142282588Y-79787574D01*
X142299161Y-79767482D01*
X142455349Y-79665030D01*
X142632870Y-79508117D01*
X142786163Y-79327459D01*
X142912085Y-79126762D01*
X143008054Y-78910139D01*
X143025230Y-78849022D01*
X143025273Y-78848932D01*
X143027246Y-78841902D01*
X143027248Y-78841900D01*
X143039146Y-78799511D01*
X143041614Y-78792850D01*
X143064268Y-78744203D01*
X143072258Y-78732472D01*
X143106729Y-78696210D01*
X143118039Y-78687637D01*
X143162264Y-78664251D01*
X143175725Y-78659725D01*
X143228625Y-78651070D01*
X143235729Y-78650494D01*
X156974145Y-78650494D01*
X156974449Y-78650541D01*
G37*
%TD.AperFunction*%
%TD*%
M02*
