%TF.GenerationSoftware,KiCad,Pcbnew,7.0.9*%
%TF.CreationDate,2023-12-12T21:37:17+00:00*%
%TF.ProjectId,watch_main,77617463-685f-46d6-9169-6e2e6b696361,rev?*%
%TF.SameCoordinates,Original*%
%TF.FileFunction,Legend,Bot*%
%TF.FilePolarity,Positive*%
%FSLAX46Y46*%
G04 Gerber Fmt 4.6, Leading zero omitted, Abs format (unit mm)*
G04 Created by KiCad (PCBNEW 7.0.9) date 2023-12-12 21:37:17*
%MOMM*%
%LPD*%
G01*
G04 APERTURE LIST*
%ADD10C,0.150000*%
G04 APERTURE END LIST*
D10*
X149607105Y-68587905D02*
X150083295Y-68587905D01*
X149511867Y-68873620D02*
X149845200Y-67873620D01*
X149845200Y-67873620D02*
X150178533Y-68873620D01*
X150154723Y-80073618D02*
X149821390Y-79597427D01*
X149583295Y-80073618D02*
X149583295Y-79073618D01*
X149583295Y-79073618D02*
X149964247Y-79073618D01*
X149964247Y-79073618D02*
X150059485Y-79121237D01*
X150059485Y-79121237D02*
X150107104Y-79168856D01*
X150107104Y-79168856D02*
X150154723Y-79264094D01*
X150154723Y-79264094D02*
X150154723Y-79406951D01*
X150154723Y-79406951D02*
X150107104Y-79502189D01*
X150107104Y-79502189D02*
X150059485Y-79549808D01*
X150059485Y-79549808D02*
X149964247Y-79597427D01*
X149964247Y-79597427D02*
X149583295Y-79597427D01*
X151913620Y-66519485D02*
X151913620Y-67090913D01*
X151913620Y-66805199D02*
X150913620Y-66805199D01*
X150913620Y-66805199D02*
X151056477Y-66900437D01*
X151056477Y-66900437D02*
X151151715Y-66995675D01*
X151151715Y-66995675D02*
X151199334Y-67090913D01*
X163113618Y-66995676D02*
X163113618Y-67567104D01*
X163113618Y-67281390D02*
X162113618Y-67281390D01*
X162113618Y-67281390D02*
X162256475Y-67376628D01*
X162256475Y-67376628D02*
X162351713Y-67471866D01*
X162351713Y-67471866D02*
X162399332Y-67567104D01*
X162113618Y-66090914D02*
X162113618Y-66567104D01*
X162113618Y-66567104D02*
X162589808Y-66614723D01*
X162589808Y-66614723D02*
X162542189Y-66567104D01*
X162542189Y-66567104D02*
X162494570Y-66471866D01*
X162494570Y-66471866D02*
X162494570Y-66233771D01*
X162494570Y-66233771D02*
X162542189Y-66138533D01*
X162542189Y-66138533D02*
X162589808Y-66090914D01*
X162589808Y-66090914D02*
X162685046Y-66043295D01*
X162685046Y-66043295D02*
X162923141Y-66043295D01*
X162923141Y-66043295D02*
X163018379Y-66090914D01*
X163018379Y-66090914D02*
X163065999Y-66138533D01*
X163065999Y-66138533D02*
X163113618Y-66233771D01*
X163113618Y-66233771D02*
X163113618Y-66471866D01*
X163113618Y-66471866D02*
X163065999Y-66567104D01*
X163065999Y-66567104D02*
X163018379Y-66614723D01*
%LPC*%
%LPD*%
M02*
