%TF.GenerationSoftware,KiCad,Pcbnew,7.0.9*%
%TF.CreationDate,2023-12-12T21:37:11+00:00*%
%TF.ProjectId,watch_main,77617463-685f-46d6-9169-6e2e6b696361,rev?*%
%TF.SameCoordinates,Original*%
%TF.FileFunction,Drillmap*%
%TF.FilePolarity,Positive*%
%FSLAX45Y45*%
G04 Gerber Fmt 4.5, Leading zero omitted, Abs format (unit mm)*
G04 Created by KiCad (PCBNEW 7.0.9) date 2023-12-12 21:37:11*
%MOMM*%
%LPD*%
G01*
G04 APERTURE LIST*
%ADD10C,0.200000*%
G04 APERTURE END LIST*
D10*
X14520000Y-6210000D02*
X19260000Y-6210000D01*
X19260000Y-10980000D01*
X14520000Y-10980000D01*
X14520000Y-6210000D01*
X14770777Y-11301484D02*
X14770777Y-11101484D01*
X14770777Y-11101484D02*
X14818396Y-11101484D01*
X14818396Y-11101484D02*
X14846967Y-11111008D01*
X14846967Y-11111008D02*
X14866015Y-11130055D01*
X14866015Y-11130055D02*
X14875539Y-11149103D01*
X14875539Y-11149103D02*
X14885062Y-11187198D01*
X14885062Y-11187198D02*
X14885062Y-11215769D01*
X14885062Y-11215769D02*
X14875539Y-11253865D01*
X14875539Y-11253865D02*
X14866015Y-11272912D01*
X14866015Y-11272912D02*
X14846967Y-11291960D01*
X14846967Y-11291960D02*
X14818396Y-11301484D01*
X14818396Y-11301484D02*
X14770777Y-11301484D01*
X14970777Y-11301484D02*
X14970777Y-11168150D01*
X14970777Y-11206246D02*
X14980301Y-11187198D01*
X14980301Y-11187198D02*
X14989824Y-11177674D01*
X14989824Y-11177674D02*
X15008872Y-11168150D01*
X15008872Y-11168150D02*
X15027920Y-11168150D01*
X15094586Y-11301484D02*
X15094586Y-11168150D01*
X15094586Y-11101484D02*
X15085062Y-11111008D01*
X15085062Y-11111008D02*
X15094586Y-11120531D01*
X15094586Y-11120531D02*
X15104110Y-11111008D01*
X15104110Y-11111008D02*
X15094586Y-11101484D01*
X15094586Y-11101484D02*
X15094586Y-11120531D01*
X15218396Y-11301484D02*
X15199348Y-11291960D01*
X15199348Y-11291960D02*
X15189824Y-11272912D01*
X15189824Y-11272912D02*
X15189824Y-11101484D01*
X15323158Y-11301484D02*
X15304110Y-11291960D01*
X15304110Y-11291960D02*
X15294586Y-11272912D01*
X15294586Y-11272912D02*
X15294586Y-11101484D01*
X15551729Y-11301484D02*
X15551729Y-11101484D01*
X15551729Y-11101484D02*
X15618396Y-11244341D01*
X15618396Y-11244341D02*
X15685062Y-11101484D01*
X15685062Y-11101484D02*
X15685062Y-11301484D01*
X15866015Y-11301484D02*
X15866015Y-11196722D01*
X15866015Y-11196722D02*
X15856491Y-11177674D01*
X15856491Y-11177674D02*
X15837443Y-11168150D01*
X15837443Y-11168150D02*
X15799348Y-11168150D01*
X15799348Y-11168150D02*
X15780301Y-11177674D01*
X15866015Y-11291960D02*
X15846967Y-11301484D01*
X15846967Y-11301484D02*
X15799348Y-11301484D01*
X15799348Y-11301484D02*
X15780301Y-11291960D01*
X15780301Y-11291960D02*
X15770777Y-11272912D01*
X15770777Y-11272912D02*
X15770777Y-11253865D01*
X15770777Y-11253865D02*
X15780301Y-11234817D01*
X15780301Y-11234817D02*
X15799348Y-11225293D01*
X15799348Y-11225293D02*
X15846967Y-11225293D01*
X15846967Y-11225293D02*
X15866015Y-11215769D01*
X15961253Y-11168150D02*
X15961253Y-11368150D01*
X15961253Y-11177674D02*
X15980301Y-11168150D01*
X15980301Y-11168150D02*
X16018396Y-11168150D01*
X16018396Y-11168150D02*
X16037443Y-11177674D01*
X16037443Y-11177674D02*
X16046967Y-11187198D01*
X16046967Y-11187198D02*
X16056491Y-11206246D01*
X16056491Y-11206246D02*
X16056491Y-11263388D01*
X16056491Y-11263388D02*
X16046967Y-11282436D01*
X16046967Y-11282436D02*
X16037443Y-11291960D01*
X16037443Y-11291960D02*
X16018396Y-11301484D01*
X16018396Y-11301484D02*
X15980301Y-11301484D01*
X15980301Y-11301484D02*
X15961253Y-11291960D01*
X16142205Y-11282436D02*
X16151729Y-11291960D01*
X16151729Y-11291960D02*
X16142205Y-11301484D01*
X16142205Y-11301484D02*
X16132682Y-11291960D01*
X16132682Y-11291960D02*
X16142205Y-11282436D01*
X16142205Y-11282436D02*
X16142205Y-11301484D01*
X16142205Y-11177674D02*
X16151729Y-11187198D01*
X16151729Y-11187198D02*
X16142205Y-11196722D01*
X16142205Y-11196722D02*
X16132682Y-11187198D01*
X16132682Y-11187198D02*
X16142205Y-11177674D01*
X16142205Y-11177674D02*
X16142205Y-11196722D01*
M02*
