%TF.GenerationSoftware,KiCad,Pcbnew,7.0.9*%
%TF.CreationDate,2023-12-12T21:37:16+00:00*%
%TF.ProjectId,watch_main,77617463-685f-46d6-9169-6e2e6b696361,rev?*%
%TF.SameCoordinates,Original*%
%TF.FileFunction,Legend,Top*%
%TF.FilePolarity,Positive*%
%FSLAX46Y46*%
G04 Gerber Fmt 4.6, Leading zero omitted, Abs format (unit mm)*
G04 Created by KiCad (PCBNEW 7.0.9) date 2023-12-12 21:37:16*
%MOMM*%
%LPD*%
G01*
G04 APERTURE LIST*
G04 Aperture macros list*
%AMRoundRect*
0 Rectangle with rounded corners*
0 $1 Rounding radius*
0 $2 $3 $4 $5 $6 $7 $8 $9 X,Y pos of 4 corners*
0 Add a 4 corners polygon primitive as box body*
4,1,4,$2,$3,$4,$5,$6,$7,$8,$9,$2,$3,0*
0 Add four circle primitives for the rounded corners*
1,1,$1+$1,$2,$3*
1,1,$1+$1,$4,$5*
1,1,$1+$1,$6,$7*
1,1,$1+$1,$8,$9*
0 Add four rect primitives between the rounded corners*
20,1,$1+$1,$2,$3,$4,$5,0*
20,1,$1+$1,$4,$5,$6,$7,0*
20,1,$1+$1,$6,$7,$8,$9,0*
20,1,$1+$1,$8,$9,$2,$3,0*%
G04 Aperture macros list end*
%ADD10C,0.150000*%
%ADD11C,0.254000*%
%ADD12C,0.152400*%
%ADD13C,0.200000*%
%ADD14C,0.250000*%
%ADD15C,0.100000*%
%ADD16C,0.120000*%
%ADD17R,0.533400X0.304800*%
%ADD18R,0.304800X0.533400*%
%ADD19R,0.500000X1.000000*%
%ADD20R,0.720000X0.780000*%
%ADD21R,1.050000X1.080000*%
%ADD22R,1.050000X1.200000*%
%ADD23R,1.050000X2.390000*%
%ADD24R,2.910000X0.550000*%
%ADD25C,0.250000*%
%ADD26R,0.800000X0.300000*%
%ADD27R,0.300000X0.800000*%
%ADD28R,1.760000X1.760000*%
%ADD29R,0.900000X1.600000*%
%ADD30R,0.350000X0.800000*%
%ADD31R,0.600000X0.260000*%
%ADD32C,0.406400*%
%ADD33RoundRect,0.135000X-0.135000X-0.185000X0.135000X-0.185000X0.135000X0.185000X-0.135000X0.185000X0*%
%ADD34R,1.300000X2.100000*%
%ADD35C,0.370000*%
%ADD36R,0.850000X0.200000*%
%ADD37R,0.200000X0.850000*%
%ADD38R,4.700000X4.700000*%
%ADD39C,0.306000*%
%ADD40RoundRect,0.140000X-0.140000X-0.170000X0.140000X-0.170000X0.140000X0.170000X-0.140000X0.170000X0*%
%ADD41RoundRect,0.225000X-0.225000X-0.250000X0.225000X-0.250000X0.225000X0.250000X-0.225000X0.250000X0*%
G04 APERTURE END LIST*
D10*
X181849124Y-68190419D02*
X181849124Y-68999942D01*
X181849124Y-68999942D02*
X181896743Y-69095180D01*
X181896743Y-69095180D02*
X181944362Y-69142800D01*
X181944362Y-69142800D02*
X182039600Y-69190419D01*
X182039600Y-69190419D02*
X182230076Y-69190419D01*
X182230076Y-69190419D02*
X182325314Y-69142800D01*
X182325314Y-69142800D02*
X182372933Y-69095180D01*
X182372933Y-69095180D02*
X182420552Y-68999942D01*
X182420552Y-68999942D02*
X182420552Y-68190419D01*
X183420552Y-69190419D02*
X182849124Y-69190419D01*
X183134838Y-69190419D02*
X183134838Y-68190419D01*
X183134838Y-68190419D02*
X183039600Y-68333276D01*
X183039600Y-68333276D02*
X182944362Y-68428514D01*
X182944362Y-68428514D02*
X182849124Y-68476133D01*
X183753886Y-68190419D02*
X184372933Y-68190419D01*
X184372933Y-68190419D02*
X184039600Y-68571371D01*
X184039600Y-68571371D02*
X184182457Y-68571371D01*
X184182457Y-68571371D02*
X184277695Y-68618990D01*
X184277695Y-68618990D02*
X184325314Y-68666609D01*
X184325314Y-68666609D02*
X184372933Y-68761847D01*
X184372933Y-68761847D02*
X184372933Y-68999942D01*
X184372933Y-68999942D02*
X184325314Y-69095180D01*
X184325314Y-69095180D02*
X184277695Y-69142800D01*
X184277695Y-69142800D02*
X184182457Y-69190419D01*
X184182457Y-69190419D02*
X183896743Y-69190419D01*
X183896743Y-69190419D02*
X183801505Y-69142800D01*
X183801505Y-69142800D02*
X183753886Y-69095180D01*
X184991981Y-68190419D02*
X185087219Y-68190419D01*
X185087219Y-68190419D02*
X185182457Y-68238038D01*
X185182457Y-68238038D02*
X185230076Y-68285657D01*
X185230076Y-68285657D02*
X185277695Y-68380895D01*
X185277695Y-68380895D02*
X185325314Y-68571371D01*
X185325314Y-68571371D02*
X185325314Y-68809466D01*
X185325314Y-68809466D02*
X185277695Y-68999942D01*
X185277695Y-68999942D02*
X185230076Y-69095180D01*
X185230076Y-69095180D02*
X185182457Y-69142800D01*
X185182457Y-69142800D02*
X185087219Y-69190419D01*
X185087219Y-69190419D02*
X184991981Y-69190419D01*
X184991981Y-69190419D02*
X184896743Y-69142800D01*
X184896743Y-69142800D02*
X184849124Y-69095180D01*
X184849124Y-69095180D02*
X184801505Y-68999942D01*
X184801505Y-68999942D02*
X184753886Y-68809466D01*
X184753886Y-68809466D02*
X184753886Y-68571371D01*
X184753886Y-68571371D02*
X184801505Y-68380895D01*
X184801505Y-68380895D02*
X184849124Y-68285657D01*
X184849124Y-68285657D02*
X184896743Y-68238038D01*
X184896743Y-68238038D02*
X184991981Y-68190419D01*
X186277695Y-69190419D02*
X185706267Y-69190419D01*
X185991981Y-69190419D02*
X185991981Y-68190419D01*
X185991981Y-68190419D02*
X185896743Y-68333276D01*
X185896743Y-68333276D02*
X185801505Y-68428514D01*
X185801505Y-68428514D02*
X185706267Y-68476133D01*
X182007600Y-67190167D02*
X182007600Y-67428262D01*
X181769505Y-67333024D02*
X182007600Y-67428262D01*
X182007600Y-67428262D02*
X182245695Y-67333024D01*
X181864743Y-67618738D02*
X182007600Y-67428262D01*
X182007600Y-67428262D02*
X182150457Y-67618738D01*
X182007600Y-67190167D02*
X182007600Y-67428262D01*
X181769505Y-67333024D02*
X182007600Y-67428262D01*
X182007600Y-67428262D02*
X182245695Y-67333024D01*
X181864743Y-67618738D02*
X182007600Y-67428262D01*
X182007600Y-67428262D02*
X182150457Y-67618738D01*
D11*
X153213381Y-86873318D02*
X153213381Y-87780461D01*
X153213381Y-87780461D02*
X153152904Y-87961889D01*
X153152904Y-87961889D02*
X153031952Y-88082842D01*
X153031952Y-88082842D02*
X152850523Y-88143318D01*
X152850523Y-88143318D02*
X152729571Y-88143318D01*
X154483381Y-88143318D02*
X153757666Y-88143318D01*
X154120523Y-88143318D02*
X154120523Y-86873318D01*
X154120523Y-86873318D02*
X153999571Y-87054746D01*
X153999571Y-87054746D02*
X153878619Y-87175699D01*
X153878619Y-87175699D02*
X153757666Y-87236175D01*
X155692905Y-88143318D02*
X154967190Y-88143318D01*
X155330047Y-88143318D02*
X155330047Y-86873318D01*
X155330047Y-86873318D02*
X155209095Y-87054746D01*
X155209095Y-87054746D02*
X155088143Y-87175699D01*
X155088143Y-87175699D02*
X154967190Y-87236175D01*
X156479095Y-86873318D02*
X156600048Y-86873318D01*
X156600048Y-86873318D02*
X156721000Y-86933794D01*
X156721000Y-86933794D02*
X156781476Y-86994270D01*
X156781476Y-86994270D02*
X156841952Y-87115222D01*
X156841952Y-87115222D02*
X156902429Y-87357127D01*
X156902429Y-87357127D02*
X156902429Y-87659508D01*
X156902429Y-87659508D02*
X156841952Y-87901413D01*
X156841952Y-87901413D02*
X156781476Y-88022365D01*
X156781476Y-88022365D02*
X156721000Y-88082842D01*
X156721000Y-88082842D02*
X156600048Y-88143318D01*
X156600048Y-88143318D02*
X156479095Y-88143318D01*
X156479095Y-88143318D02*
X156358143Y-88082842D01*
X156358143Y-88082842D02*
X156297667Y-88022365D01*
X156297667Y-88022365D02*
X156237190Y-87901413D01*
X156237190Y-87901413D02*
X156176714Y-87659508D01*
X156176714Y-87659508D02*
X156176714Y-87357127D01*
X156176714Y-87357127D02*
X156237190Y-87115222D01*
X156237190Y-87115222D02*
X156297667Y-86994270D01*
X156297667Y-86994270D02*
X156358143Y-86933794D01*
X156358143Y-86933794D02*
X156479095Y-86873318D01*
X158111953Y-88143318D02*
X157386238Y-88143318D01*
X157749095Y-88143318D02*
X157749095Y-86873318D01*
X157749095Y-86873318D02*
X157628143Y-87054746D01*
X157628143Y-87054746D02*
X157507191Y-87175699D01*
X157507191Y-87175699D02*
X157386238Y-87236175D01*
X151545951Y-94274318D02*
X151545951Y-93004318D01*
X152876428Y-94153365D02*
X152815952Y-94213842D01*
X152815952Y-94213842D02*
X152634523Y-94274318D01*
X152634523Y-94274318D02*
X152513571Y-94274318D01*
X152513571Y-94274318D02*
X152332142Y-94213842D01*
X152332142Y-94213842D02*
X152211190Y-94092889D01*
X152211190Y-94092889D02*
X152150713Y-93971937D01*
X152150713Y-93971937D02*
X152090237Y-93730032D01*
X152090237Y-93730032D02*
X152090237Y-93548603D01*
X152090237Y-93548603D02*
X152150713Y-93306699D01*
X152150713Y-93306699D02*
X152211190Y-93185746D01*
X152211190Y-93185746D02*
X152332142Y-93064794D01*
X152332142Y-93064794D02*
X152513571Y-93004318D01*
X152513571Y-93004318D02*
X152634523Y-93004318D01*
X152634523Y-93004318D02*
X152815952Y-93064794D01*
X152815952Y-93064794D02*
X152876428Y-93125270D01*
X154085952Y-94274318D02*
X153360237Y-94274318D01*
X153723094Y-94274318D02*
X153723094Y-93004318D01*
X153723094Y-93004318D02*
X153602142Y-93185746D01*
X153602142Y-93185746D02*
X153481190Y-93306699D01*
X153481190Y-93306699D02*
X153360237Y-93367175D01*
X154872142Y-93004318D02*
X154993095Y-93004318D01*
X154993095Y-93004318D02*
X155114047Y-93064794D01*
X155114047Y-93064794D02*
X155174523Y-93125270D01*
X155174523Y-93125270D02*
X155234999Y-93246222D01*
X155234999Y-93246222D02*
X155295476Y-93488127D01*
X155295476Y-93488127D02*
X155295476Y-93790508D01*
X155295476Y-93790508D02*
X155234999Y-94032413D01*
X155234999Y-94032413D02*
X155174523Y-94153365D01*
X155174523Y-94153365D02*
X155114047Y-94213842D01*
X155114047Y-94213842D02*
X154993095Y-94274318D01*
X154993095Y-94274318D02*
X154872142Y-94274318D01*
X154872142Y-94274318D02*
X154751190Y-94213842D01*
X154751190Y-94213842D02*
X154690714Y-94153365D01*
X154690714Y-94153365D02*
X154630237Y-94032413D01*
X154630237Y-94032413D02*
X154569761Y-93790508D01*
X154569761Y-93790508D02*
X154569761Y-93488127D01*
X154569761Y-93488127D02*
X154630237Y-93246222D01*
X154630237Y-93246222D02*
X154690714Y-93125270D01*
X154690714Y-93125270D02*
X154751190Y-93064794D01*
X154751190Y-93064794D02*
X154872142Y-93004318D01*
X156081666Y-93004318D02*
X156202619Y-93004318D01*
X156202619Y-93004318D02*
X156323571Y-93064794D01*
X156323571Y-93064794D02*
X156384047Y-93125270D01*
X156384047Y-93125270D02*
X156444523Y-93246222D01*
X156444523Y-93246222D02*
X156505000Y-93488127D01*
X156505000Y-93488127D02*
X156505000Y-93790508D01*
X156505000Y-93790508D02*
X156444523Y-94032413D01*
X156444523Y-94032413D02*
X156384047Y-94153365D01*
X156384047Y-94153365D02*
X156323571Y-94213842D01*
X156323571Y-94213842D02*
X156202619Y-94274318D01*
X156202619Y-94274318D02*
X156081666Y-94274318D01*
X156081666Y-94274318D02*
X155960714Y-94213842D01*
X155960714Y-94213842D02*
X155900238Y-94153365D01*
X155900238Y-94153365D02*
X155839761Y-94032413D01*
X155839761Y-94032413D02*
X155779285Y-93790508D01*
X155779285Y-93790508D02*
X155779285Y-93488127D01*
X155779285Y-93488127D02*
X155839761Y-93246222D01*
X155839761Y-93246222D02*
X155900238Y-93125270D01*
X155900238Y-93125270D02*
X155960714Y-93064794D01*
X155960714Y-93064794D02*
X156081666Y-93004318D01*
X156988809Y-93125270D02*
X157049285Y-93064794D01*
X157049285Y-93064794D02*
X157170238Y-93004318D01*
X157170238Y-93004318D02*
X157472619Y-93004318D01*
X157472619Y-93004318D02*
X157593571Y-93064794D01*
X157593571Y-93064794D02*
X157654047Y-93125270D01*
X157654047Y-93125270D02*
X157714524Y-93246222D01*
X157714524Y-93246222D02*
X157714524Y-93367175D01*
X157714524Y-93367175D02*
X157654047Y-93548603D01*
X157654047Y-93548603D02*
X156928333Y-94274318D01*
X156928333Y-94274318D02*
X157714524Y-94274318D01*
X157035713Y-102249318D02*
X157035713Y-100979318D01*
X158366190Y-102128365D02*
X158305714Y-102188842D01*
X158305714Y-102188842D02*
X158124285Y-102249318D01*
X158124285Y-102249318D02*
X158003333Y-102249318D01*
X158003333Y-102249318D02*
X157821904Y-102188842D01*
X157821904Y-102188842D02*
X157700952Y-102067889D01*
X157700952Y-102067889D02*
X157640475Y-101946937D01*
X157640475Y-101946937D02*
X157579999Y-101705032D01*
X157579999Y-101705032D02*
X157579999Y-101523603D01*
X157579999Y-101523603D02*
X157640475Y-101281699D01*
X157640475Y-101281699D02*
X157700952Y-101160746D01*
X157700952Y-101160746D02*
X157821904Y-101039794D01*
X157821904Y-101039794D02*
X158003333Y-100979318D01*
X158003333Y-100979318D02*
X158124285Y-100979318D01*
X158124285Y-100979318D02*
X158305714Y-101039794D01*
X158305714Y-101039794D02*
X158366190Y-101100270D01*
X158970952Y-102249318D02*
X159212856Y-102249318D01*
X159212856Y-102249318D02*
X159333809Y-102188842D01*
X159333809Y-102188842D02*
X159394285Y-102128365D01*
X159394285Y-102128365D02*
X159515237Y-101946937D01*
X159515237Y-101946937D02*
X159575714Y-101705032D01*
X159575714Y-101705032D02*
X159575714Y-101221222D01*
X159575714Y-101221222D02*
X159515237Y-101100270D01*
X159515237Y-101100270D02*
X159454761Y-101039794D01*
X159454761Y-101039794D02*
X159333809Y-100979318D01*
X159333809Y-100979318D02*
X159091904Y-100979318D01*
X159091904Y-100979318D02*
X158970952Y-101039794D01*
X158970952Y-101039794D02*
X158910475Y-101100270D01*
X158910475Y-101100270D02*
X158849999Y-101221222D01*
X158849999Y-101221222D02*
X158849999Y-101523603D01*
X158849999Y-101523603D02*
X158910475Y-101644556D01*
X158910475Y-101644556D02*
X158970952Y-101705032D01*
X158970952Y-101705032D02*
X159091904Y-101765508D01*
X159091904Y-101765508D02*
X159333809Y-101765508D01*
X159333809Y-101765508D02*
X159454761Y-101705032D01*
X159454761Y-101705032D02*
X159515237Y-101644556D01*
X159515237Y-101644556D02*
X159575714Y-101523603D01*
X160361904Y-100979318D02*
X160482857Y-100979318D01*
X160482857Y-100979318D02*
X160603809Y-101039794D01*
X160603809Y-101039794D02*
X160664285Y-101100270D01*
X160664285Y-101100270D02*
X160724761Y-101221222D01*
X160724761Y-101221222D02*
X160785238Y-101463127D01*
X160785238Y-101463127D02*
X160785238Y-101765508D01*
X160785238Y-101765508D02*
X160724761Y-102007413D01*
X160724761Y-102007413D02*
X160664285Y-102128365D01*
X160664285Y-102128365D02*
X160603809Y-102188842D01*
X160603809Y-102188842D02*
X160482857Y-102249318D01*
X160482857Y-102249318D02*
X160361904Y-102249318D01*
X160361904Y-102249318D02*
X160240952Y-102188842D01*
X160240952Y-102188842D02*
X160180476Y-102128365D01*
X160180476Y-102128365D02*
X160119999Y-102007413D01*
X160119999Y-102007413D02*
X160059523Y-101765508D01*
X160059523Y-101765508D02*
X160059523Y-101463127D01*
X160059523Y-101463127D02*
X160119999Y-101221222D01*
X160119999Y-101221222D02*
X160180476Y-101100270D01*
X160180476Y-101100270D02*
X160240952Y-101039794D01*
X160240952Y-101039794D02*
X160361904Y-100979318D01*
X161994762Y-102249318D02*
X161269047Y-102249318D01*
X161631904Y-102249318D02*
X161631904Y-100979318D01*
X161631904Y-100979318D02*
X161510952Y-101160746D01*
X161510952Y-101160746D02*
X161390000Y-101281699D01*
X161390000Y-101281699D02*
X161269047Y-101342175D01*
X170610713Y-74134318D02*
X170610713Y-72864318D01*
X171941190Y-74013365D02*
X171880714Y-74073842D01*
X171880714Y-74073842D02*
X171699285Y-74134318D01*
X171699285Y-74134318D02*
X171578333Y-74134318D01*
X171578333Y-74134318D02*
X171396904Y-74073842D01*
X171396904Y-74073842D02*
X171275952Y-73952889D01*
X171275952Y-73952889D02*
X171215475Y-73831937D01*
X171215475Y-73831937D02*
X171154999Y-73590032D01*
X171154999Y-73590032D02*
X171154999Y-73408603D01*
X171154999Y-73408603D02*
X171215475Y-73166699D01*
X171215475Y-73166699D02*
X171275952Y-73045746D01*
X171275952Y-73045746D02*
X171396904Y-72924794D01*
X171396904Y-72924794D02*
X171578333Y-72864318D01*
X171578333Y-72864318D02*
X171699285Y-72864318D01*
X171699285Y-72864318D02*
X171880714Y-72924794D01*
X171880714Y-72924794D02*
X171941190Y-72985270D01*
X173029761Y-73287651D02*
X173029761Y-74134318D01*
X172727380Y-72803842D02*
X172424999Y-73710984D01*
X172424999Y-73710984D02*
X173211190Y-73710984D01*
X173936904Y-72864318D02*
X174057857Y-72864318D01*
X174057857Y-72864318D02*
X174178809Y-72924794D01*
X174178809Y-72924794D02*
X174239285Y-72985270D01*
X174239285Y-72985270D02*
X174299761Y-73106222D01*
X174299761Y-73106222D02*
X174360238Y-73348127D01*
X174360238Y-73348127D02*
X174360238Y-73650508D01*
X174360238Y-73650508D02*
X174299761Y-73892413D01*
X174299761Y-73892413D02*
X174239285Y-74013365D01*
X174239285Y-74013365D02*
X174178809Y-74073842D01*
X174178809Y-74073842D02*
X174057857Y-74134318D01*
X174057857Y-74134318D02*
X173936904Y-74134318D01*
X173936904Y-74134318D02*
X173815952Y-74073842D01*
X173815952Y-74073842D02*
X173755476Y-74013365D01*
X173755476Y-74013365D02*
X173694999Y-73892413D01*
X173694999Y-73892413D02*
X173634523Y-73650508D01*
X173634523Y-73650508D02*
X173634523Y-73348127D01*
X173634523Y-73348127D02*
X173694999Y-73106222D01*
X173694999Y-73106222D02*
X173755476Y-72985270D01*
X173755476Y-72985270D02*
X173815952Y-72924794D01*
X173815952Y-72924794D02*
X173936904Y-72864318D01*
X175569762Y-74134318D02*
X174844047Y-74134318D01*
X175206904Y-74134318D02*
X175206904Y-72864318D01*
X175206904Y-72864318D02*
X175085952Y-73045746D01*
X175085952Y-73045746D02*
X174965000Y-73166699D01*
X174965000Y-73166699D02*
X174844047Y-73227175D01*
X180139523Y-75021461D02*
X180744285Y-75021461D01*
X180018571Y-75384318D02*
X180441904Y-74114318D01*
X180441904Y-74114318D02*
X180865238Y-75384318D01*
X181288570Y-75384318D02*
X181288570Y-74114318D01*
X181288570Y-74114318D02*
X182014285Y-75384318D01*
X182014285Y-75384318D02*
X182014285Y-74114318D01*
X182437618Y-74114318D02*
X183163332Y-74114318D01*
X182800475Y-75384318D02*
X182800475Y-74114318D01*
X184251904Y-75384318D02*
X183526189Y-75384318D01*
X183889046Y-75384318D02*
X183889046Y-74114318D01*
X183889046Y-74114318D02*
X183768094Y-74295746D01*
X183768094Y-74295746D02*
X183647142Y-74416699D01*
X183647142Y-74416699D02*
X183526189Y-74477175D01*
X185340475Y-74114318D02*
X185098570Y-74114318D01*
X185098570Y-74114318D02*
X184977618Y-74174794D01*
X184977618Y-74174794D02*
X184917142Y-74235270D01*
X184917142Y-74235270D02*
X184796189Y-74416699D01*
X184796189Y-74416699D02*
X184735713Y-74658603D01*
X184735713Y-74658603D02*
X184735713Y-75142413D01*
X184735713Y-75142413D02*
X184796189Y-75263365D01*
X184796189Y-75263365D02*
X184856666Y-75323842D01*
X184856666Y-75323842D02*
X184977618Y-75384318D01*
X184977618Y-75384318D02*
X185219523Y-75384318D01*
X185219523Y-75384318D02*
X185340475Y-75323842D01*
X185340475Y-75323842D02*
X185400951Y-75263365D01*
X185400951Y-75263365D02*
X185461428Y-75142413D01*
X185461428Y-75142413D02*
X185461428Y-74840032D01*
X185461428Y-74840032D02*
X185400951Y-74719080D01*
X185400951Y-74719080D02*
X185340475Y-74658603D01*
X185340475Y-74658603D02*
X185219523Y-74598127D01*
X185219523Y-74598127D02*
X184977618Y-74598127D01*
X184977618Y-74598127D02*
X184856666Y-74658603D01*
X184856666Y-74658603D02*
X184796189Y-74719080D01*
X184796189Y-74719080D02*
X184735713Y-74840032D01*
X186247618Y-74114318D02*
X186368571Y-74114318D01*
X186368571Y-74114318D02*
X186489523Y-74174794D01*
X186489523Y-74174794D02*
X186549999Y-74235270D01*
X186549999Y-74235270D02*
X186610475Y-74356222D01*
X186610475Y-74356222D02*
X186670952Y-74598127D01*
X186670952Y-74598127D02*
X186670952Y-74900508D01*
X186670952Y-74900508D02*
X186610475Y-75142413D01*
X186610475Y-75142413D02*
X186549999Y-75263365D01*
X186549999Y-75263365D02*
X186489523Y-75323842D01*
X186489523Y-75323842D02*
X186368571Y-75384318D01*
X186368571Y-75384318D02*
X186247618Y-75384318D01*
X186247618Y-75384318D02*
X186126666Y-75323842D01*
X186126666Y-75323842D02*
X186066190Y-75263365D01*
X186066190Y-75263365D02*
X186005713Y-75142413D01*
X186005713Y-75142413D02*
X185945237Y-74900508D01*
X185945237Y-74900508D02*
X185945237Y-74598127D01*
X185945237Y-74598127D02*
X186005713Y-74356222D01*
X186005713Y-74356222D02*
X186066190Y-74235270D01*
X186066190Y-74235270D02*
X186126666Y-74174794D01*
X186126666Y-74174794D02*
X186247618Y-74114318D01*
X187880476Y-75384318D02*
X187154761Y-75384318D01*
X187517618Y-75384318D02*
X187517618Y-74114318D01*
X187517618Y-74114318D02*
X187396666Y-74295746D01*
X187396666Y-74295746D02*
X187275714Y-74416699D01*
X187275714Y-74416699D02*
X187154761Y-74477175D01*
X189974318Y-87149286D02*
X188704318Y-87149286D01*
X189853365Y-85818809D02*
X189913842Y-85879285D01*
X189913842Y-85879285D02*
X189974318Y-86060714D01*
X189974318Y-86060714D02*
X189974318Y-86181666D01*
X189974318Y-86181666D02*
X189913842Y-86363095D01*
X189913842Y-86363095D02*
X189792889Y-86484047D01*
X189792889Y-86484047D02*
X189671937Y-86544524D01*
X189671937Y-86544524D02*
X189430032Y-86605000D01*
X189430032Y-86605000D02*
X189248603Y-86605000D01*
X189248603Y-86605000D02*
X189006699Y-86544524D01*
X189006699Y-86544524D02*
X188885746Y-86484047D01*
X188885746Y-86484047D02*
X188764794Y-86363095D01*
X188764794Y-86363095D02*
X188704318Y-86181666D01*
X188704318Y-86181666D02*
X188704318Y-86060714D01*
X188704318Y-86060714D02*
X188764794Y-85879285D01*
X188764794Y-85879285D02*
X188825270Y-85818809D01*
X188825270Y-85335000D02*
X188764794Y-85274524D01*
X188764794Y-85274524D02*
X188704318Y-85153571D01*
X188704318Y-85153571D02*
X188704318Y-84851190D01*
X188704318Y-84851190D02*
X188764794Y-84730238D01*
X188764794Y-84730238D02*
X188825270Y-84669762D01*
X188825270Y-84669762D02*
X188946222Y-84609285D01*
X188946222Y-84609285D02*
X189067175Y-84609285D01*
X189067175Y-84609285D02*
X189248603Y-84669762D01*
X189248603Y-84669762D02*
X189974318Y-85395476D01*
X189974318Y-85395476D02*
X189974318Y-84609285D01*
X188704318Y-83823095D02*
X188704318Y-83702142D01*
X188704318Y-83702142D02*
X188764794Y-83581190D01*
X188764794Y-83581190D02*
X188825270Y-83520714D01*
X188825270Y-83520714D02*
X188946222Y-83460238D01*
X188946222Y-83460238D02*
X189188127Y-83399761D01*
X189188127Y-83399761D02*
X189490508Y-83399761D01*
X189490508Y-83399761D02*
X189732413Y-83460238D01*
X189732413Y-83460238D02*
X189853365Y-83520714D01*
X189853365Y-83520714D02*
X189913842Y-83581190D01*
X189913842Y-83581190D02*
X189974318Y-83702142D01*
X189974318Y-83702142D02*
X189974318Y-83823095D01*
X189974318Y-83823095D02*
X189913842Y-83944047D01*
X189913842Y-83944047D02*
X189853365Y-84004523D01*
X189853365Y-84004523D02*
X189732413Y-84065000D01*
X189732413Y-84065000D02*
X189490508Y-84125476D01*
X189490508Y-84125476D02*
X189188127Y-84125476D01*
X189188127Y-84125476D02*
X188946222Y-84065000D01*
X188946222Y-84065000D02*
X188825270Y-84004523D01*
X188825270Y-84004523D02*
X188764794Y-83944047D01*
X188764794Y-83944047D02*
X188704318Y-83823095D01*
X189974318Y-82190237D02*
X189974318Y-82915952D01*
X189974318Y-82553095D02*
X188704318Y-82553095D01*
X188704318Y-82553095D02*
X188885746Y-82674047D01*
X188885746Y-82674047D02*
X189006699Y-82794999D01*
X189006699Y-82794999D02*
X189067175Y-82915952D01*
D10*
X155344514Y-73473619D02*
X155344514Y-74283142D01*
X155344514Y-74283142D02*
X155392133Y-74378380D01*
X155392133Y-74378380D02*
X155439752Y-74426000D01*
X155439752Y-74426000D02*
X155534990Y-74473619D01*
X155534990Y-74473619D02*
X155725466Y-74473619D01*
X155725466Y-74473619D02*
X155820704Y-74426000D01*
X155820704Y-74426000D02*
X155868323Y-74378380D01*
X155868323Y-74378380D02*
X155915942Y-74283142D01*
X155915942Y-74283142D02*
X155915942Y-73473619D01*
X156534990Y-73902190D02*
X156439752Y-73854571D01*
X156439752Y-73854571D02*
X156392133Y-73806952D01*
X156392133Y-73806952D02*
X156344514Y-73711714D01*
X156344514Y-73711714D02*
X156344514Y-73664095D01*
X156344514Y-73664095D02*
X156392133Y-73568857D01*
X156392133Y-73568857D02*
X156439752Y-73521238D01*
X156439752Y-73521238D02*
X156534990Y-73473619D01*
X156534990Y-73473619D02*
X156725466Y-73473619D01*
X156725466Y-73473619D02*
X156820704Y-73521238D01*
X156820704Y-73521238D02*
X156868323Y-73568857D01*
X156868323Y-73568857D02*
X156915942Y-73664095D01*
X156915942Y-73664095D02*
X156915942Y-73711714D01*
X156915942Y-73711714D02*
X156868323Y-73806952D01*
X156868323Y-73806952D02*
X156820704Y-73854571D01*
X156820704Y-73854571D02*
X156725466Y-73902190D01*
X156725466Y-73902190D02*
X156534990Y-73902190D01*
X156534990Y-73902190D02*
X156439752Y-73949809D01*
X156439752Y-73949809D02*
X156392133Y-73997428D01*
X156392133Y-73997428D02*
X156344514Y-74092666D01*
X156344514Y-74092666D02*
X156344514Y-74283142D01*
X156344514Y-74283142D02*
X156392133Y-74378380D01*
X156392133Y-74378380D02*
X156439752Y-74426000D01*
X156439752Y-74426000D02*
X156534990Y-74473619D01*
X156534990Y-74473619D02*
X156725466Y-74473619D01*
X156725466Y-74473619D02*
X156820704Y-74426000D01*
X156820704Y-74426000D02*
X156868323Y-74378380D01*
X156868323Y-74378380D02*
X156915942Y-74283142D01*
X156915942Y-74283142D02*
X156915942Y-74092666D01*
X156915942Y-74092666D02*
X156868323Y-73997428D01*
X156868323Y-73997428D02*
X156820704Y-73949809D01*
X156820704Y-73949809D02*
X156725466Y-73902190D01*
X157534990Y-73473619D02*
X157630228Y-73473619D01*
X157630228Y-73473619D02*
X157725466Y-73521238D01*
X157725466Y-73521238D02*
X157773085Y-73568857D01*
X157773085Y-73568857D02*
X157820704Y-73664095D01*
X157820704Y-73664095D02*
X157868323Y-73854571D01*
X157868323Y-73854571D02*
X157868323Y-74092666D01*
X157868323Y-74092666D02*
X157820704Y-74283142D01*
X157820704Y-74283142D02*
X157773085Y-74378380D01*
X157773085Y-74378380D02*
X157725466Y-74426000D01*
X157725466Y-74426000D02*
X157630228Y-74473619D01*
X157630228Y-74473619D02*
X157534990Y-74473619D01*
X157534990Y-74473619D02*
X157439752Y-74426000D01*
X157439752Y-74426000D02*
X157392133Y-74378380D01*
X157392133Y-74378380D02*
X157344514Y-74283142D01*
X157344514Y-74283142D02*
X157296895Y-74092666D01*
X157296895Y-74092666D02*
X157296895Y-73854571D01*
X157296895Y-73854571D02*
X157344514Y-73664095D01*
X157344514Y-73664095D02*
X157392133Y-73568857D01*
X157392133Y-73568857D02*
X157439752Y-73521238D01*
X157439752Y-73521238D02*
X157534990Y-73473619D01*
X158820704Y-74473619D02*
X158249276Y-74473619D01*
X158534990Y-74473619D02*
X158534990Y-73473619D01*
X158534990Y-73473619D02*
X158439752Y-73616476D01*
X158439752Y-73616476D02*
X158344514Y-73711714D01*
X158344514Y-73711714D02*
X158249276Y-73759333D01*
X149607105Y-68587905D02*
X150083295Y-68587905D01*
X149511867Y-68873620D02*
X149845200Y-67873620D01*
X149845200Y-67873620D02*
X150178533Y-68873620D01*
X150154723Y-80073618D02*
X149821390Y-79597427D01*
X149583295Y-80073618D02*
X149583295Y-79073618D01*
X149583295Y-79073618D02*
X149964247Y-79073618D01*
X149964247Y-79073618D02*
X150059485Y-79121237D01*
X150059485Y-79121237D02*
X150107104Y-79168856D01*
X150107104Y-79168856D02*
X150154723Y-79264094D01*
X150154723Y-79264094D02*
X150154723Y-79406951D01*
X150154723Y-79406951D02*
X150107104Y-79502189D01*
X150107104Y-79502189D02*
X150059485Y-79549808D01*
X150059485Y-79549808D02*
X149964247Y-79597427D01*
X149964247Y-79597427D02*
X149583295Y-79597427D01*
X151913620Y-66519485D02*
X151913620Y-67090913D01*
X151913620Y-66805199D02*
X150913620Y-66805199D01*
X150913620Y-66805199D02*
X151056477Y-66900437D01*
X151056477Y-66900437D02*
X151151715Y-66995675D01*
X151151715Y-66995675D02*
X151199334Y-67090913D01*
X163113618Y-66995676D02*
X163113618Y-67567104D01*
X163113618Y-67281390D02*
X162113618Y-67281390D01*
X162113618Y-67281390D02*
X162256475Y-67376628D01*
X162256475Y-67376628D02*
X162351713Y-67471866D01*
X162351713Y-67471866D02*
X162399332Y-67567104D01*
X162113618Y-66090914D02*
X162113618Y-66567104D01*
X162113618Y-66567104D02*
X162589808Y-66614723D01*
X162589808Y-66614723D02*
X162542189Y-66567104D01*
X162542189Y-66567104D02*
X162494570Y-66471866D01*
X162494570Y-66471866D02*
X162494570Y-66233771D01*
X162494570Y-66233771D02*
X162542189Y-66138533D01*
X162542189Y-66138533D02*
X162589808Y-66090914D01*
X162589808Y-66090914D02*
X162685046Y-66043295D01*
X162685046Y-66043295D02*
X162923141Y-66043295D01*
X162923141Y-66043295D02*
X163018379Y-66090914D01*
X163018379Y-66090914D02*
X163065999Y-66138533D01*
X163065999Y-66138533D02*
X163113618Y-66233771D01*
X163113618Y-66233771D02*
X163113618Y-66471866D01*
X163113618Y-66471866D02*
X163065999Y-66567104D01*
X163065999Y-66567104D02*
X163018379Y-66614723D01*
X179269761Y-92639819D02*
X178936428Y-92163628D01*
X178698333Y-92639819D02*
X178698333Y-91639819D01*
X178698333Y-91639819D02*
X179079285Y-91639819D01*
X179079285Y-91639819D02*
X179174523Y-91687438D01*
X179174523Y-91687438D02*
X179222142Y-91735057D01*
X179222142Y-91735057D02*
X179269761Y-91830295D01*
X179269761Y-91830295D02*
X179269761Y-91973152D01*
X179269761Y-91973152D02*
X179222142Y-92068390D01*
X179222142Y-92068390D02*
X179174523Y-92116009D01*
X179174523Y-92116009D02*
X179079285Y-92163628D01*
X179079285Y-92163628D02*
X178698333Y-92163628D01*
X180222142Y-92639819D02*
X179650714Y-92639819D01*
X179936428Y-92639819D02*
X179936428Y-91639819D01*
X179936428Y-91639819D02*
X179841190Y-91782676D01*
X179841190Y-91782676D02*
X179745952Y-91877914D01*
X179745952Y-91877914D02*
X179650714Y-91925533D01*
X181079285Y-91639819D02*
X180888809Y-91639819D01*
X180888809Y-91639819D02*
X180793571Y-91687438D01*
X180793571Y-91687438D02*
X180745952Y-91735057D01*
X180745952Y-91735057D02*
X180650714Y-91877914D01*
X180650714Y-91877914D02*
X180603095Y-92068390D01*
X180603095Y-92068390D02*
X180603095Y-92449342D01*
X180603095Y-92449342D02*
X180650714Y-92544580D01*
X180650714Y-92544580D02*
X180698333Y-92592200D01*
X180698333Y-92592200D02*
X180793571Y-92639819D01*
X180793571Y-92639819D02*
X180984047Y-92639819D01*
X180984047Y-92639819D02*
X181079285Y-92592200D01*
X181079285Y-92592200D02*
X181126904Y-92544580D01*
X181126904Y-92544580D02*
X181174523Y-92449342D01*
X181174523Y-92449342D02*
X181174523Y-92211247D01*
X181174523Y-92211247D02*
X181126904Y-92116009D01*
X181126904Y-92116009D02*
X181079285Y-92068390D01*
X181079285Y-92068390D02*
X180984047Y-92020771D01*
X180984047Y-92020771D02*
X180793571Y-92020771D01*
X180793571Y-92020771D02*
X180698333Y-92068390D01*
X180698333Y-92068390D02*
X180650714Y-92116009D01*
X180650714Y-92116009D02*
X180603095Y-92211247D01*
X181793571Y-91639819D02*
X181888809Y-91639819D01*
X181888809Y-91639819D02*
X181984047Y-91687438D01*
X181984047Y-91687438D02*
X182031666Y-91735057D01*
X182031666Y-91735057D02*
X182079285Y-91830295D01*
X182079285Y-91830295D02*
X182126904Y-92020771D01*
X182126904Y-92020771D02*
X182126904Y-92258866D01*
X182126904Y-92258866D02*
X182079285Y-92449342D01*
X182079285Y-92449342D02*
X182031666Y-92544580D01*
X182031666Y-92544580D02*
X181984047Y-92592200D01*
X181984047Y-92592200D02*
X181888809Y-92639819D01*
X181888809Y-92639819D02*
X181793571Y-92639819D01*
X181793571Y-92639819D02*
X181698333Y-92592200D01*
X181698333Y-92592200D02*
X181650714Y-92544580D01*
X181650714Y-92544580D02*
X181603095Y-92449342D01*
X181603095Y-92449342D02*
X181555476Y-92258866D01*
X181555476Y-92258866D02*
X181555476Y-92020771D01*
X181555476Y-92020771D02*
X181603095Y-91830295D01*
X181603095Y-91830295D02*
X181650714Y-91735057D01*
X181650714Y-91735057D02*
X181698333Y-91687438D01*
X181698333Y-91687438D02*
X181793571Y-91639819D01*
X183079285Y-92639819D02*
X182507857Y-92639819D01*
X182793571Y-92639819D02*
X182793571Y-91639819D01*
X182793571Y-91639819D02*
X182698333Y-91782676D01*
X182698333Y-91782676D02*
X182603095Y-91877914D01*
X182603095Y-91877914D02*
X182507857Y-91925533D01*
X179745952Y-90649819D02*
X179412619Y-90173628D01*
X179174524Y-90649819D02*
X179174524Y-89649819D01*
X179174524Y-89649819D02*
X179555476Y-89649819D01*
X179555476Y-89649819D02*
X179650714Y-89697438D01*
X179650714Y-89697438D02*
X179698333Y-89745057D01*
X179698333Y-89745057D02*
X179745952Y-89840295D01*
X179745952Y-89840295D02*
X179745952Y-89983152D01*
X179745952Y-89983152D02*
X179698333Y-90078390D01*
X179698333Y-90078390D02*
X179650714Y-90126009D01*
X179650714Y-90126009D02*
X179555476Y-90173628D01*
X179555476Y-90173628D02*
X179174524Y-90173628D01*
X180126905Y-89745057D02*
X180174524Y-89697438D01*
X180174524Y-89697438D02*
X180269762Y-89649819D01*
X180269762Y-89649819D02*
X180507857Y-89649819D01*
X180507857Y-89649819D02*
X180603095Y-89697438D01*
X180603095Y-89697438D02*
X180650714Y-89745057D01*
X180650714Y-89745057D02*
X180698333Y-89840295D01*
X180698333Y-89840295D02*
X180698333Y-89935533D01*
X180698333Y-89935533D02*
X180650714Y-90078390D01*
X180650714Y-90078390D02*
X180079286Y-90649819D01*
X180079286Y-90649819D02*
X180698333Y-90649819D01*
X181317381Y-89649819D02*
X181412619Y-89649819D01*
X181412619Y-89649819D02*
X181507857Y-89697438D01*
X181507857Y-89697438D02*
X181555476Y-89745057D01*
X181555476Y-89745057D02*
X181603095Y-89840295D01*
X181603095Y-89840295D02*
X181650714Y-90030771D01*
X181650714Y-90030771D02*
X181650714Y-90268866D01*
X181650714Y-90268866D02*
X181603095Y-90459342D01*
X181603095Y-90459342D02*
X181555476Y-90554580D01*
X181555476Y-90554580D02*
X181507857Y-90602200D01*
X181507857Y-90602200D02*
X181412619Y-90649819D01*
X181412619Y-90649819D02*
X181317381Y-90649819D01*
X181317381Y-90649819D02*
X181222143Y-90602200D01*
X181222143Y-90602200D02*
X181174524Y-90554580D01*
X181174524Y-90554580D02*
X181126905Y-90459342D01*
X181126905Y-90459342D02*
X181079286Y-90268866D01*
X181079286Y-90268866D02*
X181079286Y-90030771D01*
X181079286Y-90030771D02*
X181126905Y-89840295D01*
X181126905Y-89840295D02*
X181174524Y-89745057D01*
X181174524Y-89745057D02*
X181222143Y-89697438D01*
X181222143Y-89697438D02*
X181317381Y-89649819D01*
X182031667Y-89745057D02*
X182079286Y-89697438D01*
X182079286Y-89697438D02*
X182174524Y-89649819D01*
X182174524Y-89649819D02*
X182412619Y-89649819D01*
X182412619Y-89649819D02*
X182507857Y-89697438D01*
X182507857Y-89697438D02*
X182555476Y-89745057D01*
X182555476Y-89745057D02*
X182603095Y-89840295D01*
X182603095Y-89840295D02*
X182603095Y-89935533D01*
X182603095Y-89935533D02*
X182555476Y-90078390D01*
X182555476Y-90078390D02*
X181984048Y-90649819D01*
X181984048Y-90649819D02*
X182603095Y-90649819D01*
X179745952Y-88659819D02*
X179412619Y-88183628D01*
X179174524Y-88659819D02*
X179174524Y-87659819D01*
X179174524Y-87659819D02*
X179555476Y-87659819D01*
X179555476Y-87659819D02*
X179650714Y-87707438D01*
X179650714Y-87707438D02*
X179698333Y-87755057D01*
X179698333Y-87755057D02*
X179745952Y-87850295D01*
X179745952Y-87850295D02*
X179745952Y-87993152D01*
X179745952Y-87993152D02*
X179698333Y-88088390D01*
X179698333Y-88088390D02*
X179650714Y-88136009D01*
X179650714Y-88136009D02*
X179555476Y-88183628D01*
X179555476Y-88183628D02*
X179174524Y-88183628D01*
X180126905Y-87755057D02*
X180174524Y-87707438D01*
X180174524Y-87707438D02*
X180269762Y-87659819D01*
X180269762Y-87659819D02*
X180507857Y-87659819D01*
X180507857Y-87659819D02*
X180603095Y-87707438D01*
X180603095Y-87707438D02*
X180650714Y-87755057D01*
X180650714Y-87755057D02*
X180698333Y-87850295D01*
X180698333Y-87850295D02*
X180698333Y-87945533D01*
X180698333Y-87945533D02*
X180650714Y-88088390D01*
X180650714Y-88088390D02*
X180079286Y-88659819D01*
X180079286Y-88659819D02*
X180698333Y-88659819D01*
X181317381Y-87659819D02*
X181412619Y-87659819D01*
X181412619Y-87659819D02*
X181507857Y-87707438D01*
X181507857Y-87707438D02*
X181555476Y-87755057D01*
X181555476Y-87755057D02*
X181603095Y-87850295D01*
X181603095Y-87850295D02*
X181650714Y-88040771D01*
X181650714Y-88040771D02*
X181650714Y-88278866D01*
X181650714Y-88278866D02*
X181603095Y-88469342D01*
X181603095Y-88469342D02*
X181555476Y-88564580D01*
X181555476Y-88564580D02*
X181507857Y-88612200D01*
X181507857Y-88612200D02*
X181412619Y-88659819D01*
X181412619Y-88659819D02*
X181317381Y-88659819D01*
X181317381Y-88659819D02*
X181222143Y-88612200D01*
X181222143Y-88612200D02*
X181174524Y-88564580D01*
X181174524Y-88564580D02*
X181126905Y-88469342D01*
X181126905Y-88469342D02*
X181079286Y-88278866D01*
X181079286Y-88278866D02*
X181079286Y-88040771D01*
X181079286Y-88040771D02*
X181126905Y-87850295D01*
X181126905Y-87850295D02*
X181174524Y-87755057D01*
X181174524Y-87755057D02*
X181222143Y-87707438D01*
X181222143Y-87707438D02*
X181317381Y-87659819D01*
X182603095Y-88659819D02*
X182031667Y-88659819D01*
X182317381Y-88659819D02*
X182317381Y-87659819D01*
X182317381Y-87659819D02*
X182222143Y-87802676D01*
X182222143Y-87802676D02*
X182126905Y-87897914D01*
X182126905Y-87897914D02*
X182031667Y-87945533D01*
D11*
X163695951Y-99444318D02*
X163695951Y-98174318D01*
X165026428Y-99323365D02*
X164965952Y-99383842D01*
X164965952Y-99383842D02*
X164784523Y-99444318D01*
X164784523Y-99444318D02*
X164663571Y-99444318D01*
X164663571Y-99444318D02*
X164482142Y-99383842D01*
X164482142Y-99383842D02*
X164361190Y-99262889D01*
X164361190Y-99262889D02*
X164300713Y-99141937D01*
X164300713Y-99141937D02*
X164240237Y-98900032D01*
X164240237Y-98900032D02*
X164240237Y-98718603D01*
X164240237Y-98718603D02*
X164300713Y-98476699D01*
X164300713Y-98476699D02*
X164361190Y-98355746D01*
X164361190Y-98355746D02*
X164482142Y-98234794D01*
X164482142Y-98234794D02*
X164663571Y-98174318D01*
X164663571Y-98174318D02*
X164784523Y-98174318D01*
X164784523Y-98174318D02*
X164965952Y-98234794D01*
X164965952Y-98234794D02*
X165026428Y-98295270D01*
X166235952Y-99444318D02*
X165510237Y-99444318D01*
X165873094Y-99444318D02*
X165873094Y-98174318D01*
X165873094Y-98174318D02*
X165752142Y-98355746D01*
X165752142Y-98355746D02*
X165631190Y-98476699D01*
X165631190Y-98476699D02*
X165510237Y-98537175D01*
X167324523Y-98597651D02*
X167324523Y-99444318D01*
X167022142Y-98113842D02*
X166719761Y-99020984D01*
X166719761Y-99020984D02*
X167505952Y-99020984D01*
X168231666Y-98174318D02*
X168352619Y-98174318D01*
X168352619Y-98174318D02*
X168473571Y-98234794D01*
X168473571Y-98234794D02*
X168534047Y-98295270D01*
X168534047Y-98295270D02*
X168594523Y-98416222D01*
X168594523Y-98416222D02*
X168655000Y-98658127D01*
X168655000Y-98658127D02*
X168655000Y-98960508D01*
X168655000Y-98960508D02*
X168594523Y-99202413D01*
X168594523Y-99202413D02*
X168534047Y-99323365D01*
X168534047Y-99323365D02*
X168473571Y-99383842D01*
X168473571Y-99383842D02*
X168352619Y-99444318D01*
X168352619Y-99444318D02*
X168231666Y-99444318D01*
X168231666Y-99444318D02*
X168110714Y-99383842D01*
X168110714Y-99383842D02*
X168050238Y-99323365D01*
X168050238Y-99323365D02*
X167989761Y-99202413D01*
X167989761Y-99202413D02*
X167929285Y-98960508D01*
X167929285Y-98960508D02*
X167929285Y-98658127D01*
X167929285Y-98658127D02*
X167989761Y-98416222D01*
X167989761Y-98416222D02*
X168050238Y-98295270D01*
X168050238Y-98295270D02*
X168110714Y-98234794D01*
X168110714Y-98234794D02*
X168231666Y-98174318D01*
X169864524Y-99444318D02*
X169138809Y-99444318D01*
X169501666Y-99444318D02*
X169501666Y-98174318D01*
X169501666Y-98174318D02*
X169380714Y-98355746D01*
X169380714Y-98355746D02*
X169259762Y-98476699D01*
X169259762Y-98476699D02*
X169138809Y-98537175D01*
X165820951Y-89519318D02*
X165820951Y-88249318D01*
X167151428Y-89398365D02*
X167090952Y-89458842D01*
X167090952Y-89458842D02*
X166909523Y-89519318D01*
X166909523Y-89519318D02*
X166788571Y-89519318D01*
X166788571Y-89519318D02*
X166607142Y-89458842D01*
X166607142Y-89458842D02*
X166486190Y-89337889D01*
X166486190Y-89337889D02*
X166425713Y-89216937D01*
X166425713Y-89216937D02*
X166365237Y-88975032D01*
X166365237Y-88975032D02*
X166365237Y-88793603D01*
X166365237Y-88793603D02*
X166425713Y-88551699D01*
X166425713Y-88551699D02*
X166486190Y-88430746D01*
X166486190Y-88430746D02*
X166607142Y-88309794D01*
X166607142Y-88309794D02*
X166788571Y-88249318D01*
X166788571Y-88249318D02*
X166909523Y-88249318D01*
X166909523Y-88249318D02*
X167090952Y-88309794D01*
X167090952Y-88309794D02*
X167151428Y-88370270D01*
X168360952Y-89519318D02*
X167635237Y-89519318D01*
X167998094Y-89519318D02*
X167998094Y-88249318D01*
X167998094Y-88249318D02*
X167877142Y-88430746D01*
X167877142Y-88430746D02*
X167756190Y-88551699D01*
X167756190Y-88551699D02*
X167635237Y-88612175D01*
X169147142Y-88249318D02*
X169268095Y-88249318D01*
X169268095Y-88249318D02*
X169389047Y-88309794D01*
X169389047Y-88309794D02*
X169449523Y-88370270D01*
X169449523Y-88370270D02*
X169509999Y-88491222D01*
X169509999Y-88491222D02*
X169570476Y-88733127D01*
X169570476Y-88733127D02*
X169570476Y-89035508D01*
X169570476Y-89035508D02*
X169509999Y-89277413D01*
X169509999Y-89277413D02*
X169449523Y-89398365D01*
X169449523Y-89398365D02*
X169389047Y-89458842D01*
X169389047Y-89458842D02*
X169268095Y-89519318D01*
X169268095Y-89519318D02*
X169147142Y-89519318D01*
X169147142Y-89519318D02*
X169026190Y-89458842D01*
X169026190Y-89458842D02*
X168965714Y-89398365D01*
X168965714Y-89398365D02*
X168905237Y-89277413D01*
X168905237Y-89277413D02*
X168844761Y-89035508D01*
X168844761Y-89035508D02*
X168844761Y-88733127D01*
X168844761Y-88733127D02*
X168905237Y-88491222D01*
X168905237Y-88491222D02*
X168965714Y-88370270D01*
X168965714Y-88370270D02*
X169026190Y-88309794D01*
X169026190Y-88309794D02*
X169147142Y-88249318D01*
X170356666Y-88249318D02*
X170477619Y-88249318D01*
X170477619Y-88249318D02*
X170598571Y-88309794D01*
X170598571Y-88309794D02*
X170659047Y-88370270D01*
X170659047Y-88370270D02*
X170719523Y-88491222D01*
X170719523Y-88491222D02*
X170780000Y-88733127D01*
X170780000Y-88733127D02*
X170780000Y-89035508D01*
X170780000Y-89035508D02*
X170719523Y-89277413D01*
X170719523Y-89277413D02*
X170659047Y-89398365D01*
X170659047Y-89398365D02*
X170598571Y-89458842D01*
X170598571Y-89458842D02*
X170477619Y-89519318D01*
X170477619Y-89519318D02*
X170356666Y-89519318D01*
X170356666Y-89519318D02*
X170235714Y-89458842D01*
X170235714Y-89458842D02*
X170175238Y-89398365D01*
X170175238Y-89398365D02*
X170114761Y-89277413D01*
X170114761Y-89277413D02*
X170054285Y-89035508D01*
X170054285Y-89035508D02*
X170054285Y-88733127D01*
X170054285Y-88733127D02*
X170114761Y-88491222D01*
X170114761Y-88491222D02*
X170175238Y-88370270D01*
X170175238Y-88370270D02*
X170235714Y-88309794D01*
X170235714Y-88309794D02*
X170356666Y-88249318D01*
X171989524Y-89519318D02*
X171263809Y-89519318D01*
X171626666Y-89519318D02*
X171626666Y-88249318D01*
X171626666Y-88249318D02*
X171505714Y-88430746D01*
X171505714Y-88430746D02*
X171384762Y-88551699D01*
X171384762Y-88551699D02*
X171263809Y-88612175D01*
X177100713Y-101074318D02*
X177100713Y-99804318D01*
X178431190Y-100953365D02*
X178370714Y-101013842D01*
X178370714Y-101013842D02*
X178189285Y-101074318D01*
X178189285Y-101074318D02*
X178068333Y-101074318D01*
X178068333Y-101074318D02*
X177886904Y-101013842D01*
X177886904Y-101013842D02*
X177765952Y-100892889D01*
X177765952Y-100892889D02*
X177705475Y-100771937D01*
X177705475Y-100771937D02*
X177644999Y-100530032D01*
X177644999Y-100530032D02*
X177644999Y-100348603D01*
X177644999Y-100348603D02*
X177705475Y-100106699D01*
X177705475Y-100106699D02*
X177765952Y-99985746D01*
X177765952Y-99985746D02*
X177886904Y-99864794D01*
X177886904Y-99864794D02*
X178068333Y-99804318D01*
X178068333Y-99804318D02*
X178189285Y-99804318D01*
X178189285Y-99804318D02*
X178370714Y-99864794D01*
X178370714Y-99864794D02*
X178431190Y-99925270D01*
X178854523Y-99804318D02*
X179640714Y-99804318D01*
X179640714Y-99804318D02*
X179217380Y-100288127D01*
X179217380Y-100288127D02*
X179398809Y-100288127D01*
X179398809Y-100288127D02*
X179519761Y-100348603D01*
X179519761Y-100348603D02*
X179580237Y-100409080D01*
X179580237Y-100409080D02*
X179640714Y-100530032D01*
X179640714Y-100530032D02*
X179640714Y-100832413D01*
X179640714Y-100832413D02*
X179580237Y-100953365D01*
X179580237Y-100953365D02*
X179519761Y-101013842D01*
X179519761Y-101013842D02*
X179398809Y-101074318D01*
X179398809Y-101074318D02*
X179035952Y-101074318D01*
X179035952Y-101074318D02*
X178914999Y-101013842D01*
X178914999Y-101013842D02*
X178854523Y-100953365D01*
X180426904Y-99804318D02*
X180547857Y-99804318D01*
X180547857Y-99804318D02*
X180668809Y-99864794D01*
X180668809Y-99864794D02*
X180729285Y-99925270D01*
X180729285Y-99925270D02*
X180789761Y-100046222D01*
X180789761Y-100046222D02*
X180850238Y-100288127D01*
X180850238Y-100288127D02*
X180850238Y-100590508D01*
X180850238Y-100590508D02*
X180789761Y-100832413D01*
X180789761Y-100832413D02*
X180729285Y-100953365D01*
X180729285Y-100953365D02*
X180668809Y-101013842D01*
X180668809Y-101013842D02*
X180547857Y-101074318D01*
X180547857Y-101074318D02*
X180426904Y-101074318D01*
X180426904Y-101074318D02*
X180305952Y-101013842D01*
X180305952Y-101013842D02*
X180245476Y-100953365D01*
X180245476Y-100953365D02*
X180184999Y-100832413D01*
X180184999Y-100832413D02*
X180124523Y-100590508D01*
X180124523Y-100590508D02*
X180124523Y-100288127D01*
X180124523Y-100288127D02*
X180184999Y-100046222D01*
X180184999Y-100046222D02*
X180245476Y-99925270D01*
X180245476Y-99925270D02*
X180305952Y-99864794D01*
X180305952Y-99864794D02*
X180426904Y-99804318D01*
X182059762Y-101074318D02*
X181334047Y-101074318D01*
X181696904Y-101074318D02*
X181696904Y-99804318D01*
X181696904Y-99804318D02*
X181575952Y-99985746D01*
X181575952Y-99985746D02*
X181455000Y-100106699D01*
X181455000Y-100106699D02*
X181334047Y-100167175D01*
X175320713Y-86474318D02*
X175320713Y-85204318D01*
X176651190Y-86353365D02*
X176590714Y-86413842D01*
X176590714Y-86413842D02*
X176409285Y-86474318D01*
X176409285Y-86474318D02*
X176288333Y-86474318D01*
X176288333Y-86474318D02*
X176106904Y-86413842D01*
X176106904Y-86413842D02*
X175985952Y-86292889D01*
X175985952Y-86292889D02*
X175925475Y-86171937D01*
X175925475Y-86171937D02*
X175864999Y-85930032D01*
X175864999Y-85930032D02*
X175864999Y-85748603D01*
X175864999Y-85748603D02*
X175925475Y-85506699D01*
X175925475Y-85506699D02*
X175985952Y-85385746D01*
X175985952Y-85385746D02*
X176106904Y-85264794D01*
X176106904Y-85264794D02*
X176288333Y-85204318D01*
X176288333Y-85204318D02*
X176409285Y-85204318D01*
X176409285Y-85204318D02*
X176590714Y-85264794D01*
X176590714Y-85264794D02*
X176651190Y-85325270D01*
X177134999Y-85325270D02*
X177195475Y-85264794D01*
X177195475Y-85264794D02*
X177316428Y-85204318D01*
X177316428Y-85204318D02*
X177618809Y-85204318D01*
X177618809Y-85204318D02*
X177739761Y-85264794D01*
X177739761Y-85264794D02*
X177800237Y-85325270D01*
X177800237Y-85325270D02*
X177860714Y-85446222D01*
X177860714Y-85446222D02*
X177860714Y-85567175D01*
X177860714Y-85567175D02*
X177800237Y-85748603D01*
X177800237Y-85748603D02*
X177074523Y-86474318D01*
X177074523Y-86474318D02*
X177860714Y-86474318D01*
X178646904Y-85204318D02*
X178767857Y-85204318D01*
X178767857Y-85204318D02*
X178888809Y-85264794D01*
X178888809Y-85264794D02*
X178949285Y-85325270D01*
X178949285Y-85325270D02*
X179009761Y-85446222D01*
X179009761Y-85446222D02*
X179070238Y-85688127D01*
X179070238Y-85688127D02*
X179070238Y-85990508D01*
X179070238Y-85990508D02*
X179009761Y-86232413D01*
X179009761Y-86232413D02*
X178949285Y-86353365D01*
X178949285Y-86353365D02*
X178888809Y-86413842D01*
X178888809Y-86413842D02*
X178767857Y-86474318D01*
X178767857Y-86474318D02*
X178646904Y-86474318D01*
X178646904Y-86474318D02*
X178525952Y-86413842D01*
X178525952Y-86413842D02*
X178465476Y-86353365D01*
X178465476Y-86353365D02*
X178404999Y-86232413D01*
X178404999Y-86232413D02*
X178344523Y-85990508D01*
X178344523Y-85990508D02*
X178344523Y-85688127D01*
X178344523Y-85688127D02*
X178404999Y-85446222D01*
X178404999Y-85446222D02*
X178465476Y-85325270D01*
X178465476Y-85325270D02*
X178525952Y-85264794D01*
X178525952Y-85264794D02*
X178646904Y-85204318D01*
X179554047Y-85325270D02*
X179614523Y-85264794D01*
X179614523Y-85264794D02*
X179735476Y-85204318D01*
X179735476Y-85204318D02*
X180037857Y-85204318D01*
X180037857Y-85204318D02*
X180158809Y-85264794D01*
X180158809Y-85264794D02*
X180219285Y-85325270D01*
X180219285Y-85325270D02*
X180279762Y-85446222D01*
X180279762Y-85446222D02*
X180279762Y-85567175D01*
X180279762Y-85567175D02*
X180219285Y-85748603D01*
X180219285Y-85748603D02*
X179493571Y-86474318D01*
X179493571Y-86474318D02*
X180279762Y-86474318D01*
D10*
X168989761Y-98624580D02*
X168942142Y-98672200D01*
X168942142Y-98672200D02*
X168799285Y-98719819D01*
X168799285Y-98719819D02*
X168704047Y-98719819D01*
X168704047Y-98719819D02*
X168561190Y-98672200D01*
X168561190Y-98672200D02*
X168465952Y-98576961D01*
X168465952Y-98576961D02*
X168418333Y-98481723D01*
X168418333Y-98481723D02*
X168370714Y-98291247D01*
X168370714Y-98291247D02*
X168370714Y-98148390D01*
X168370714Y-98148390D02*
X168418333Y-97957914D01*
X168418333Y-97957914D02*
X168465952Y-97862676D01*
X168465952Y-97862676D02*
X168561190Y-97767438D01*
X168561190Y-97767438D02*
X168704047Y-97719819D01*
X168704047Y-97719819D02*
X168799285Y-97719819D01*
X168799285Y-97719819D02*
X168942142Y-97767438D01*
X168942142Y-97767438D02*
X168989761Y-97815057D01*
X169942142Y-98719819D02*
X169370714Y-98719819D01*
X169656428Y-98719819D02*
X169656428Y-97719819D01*
X169656428Y-97719819D02*
X169561190Y-97862676D01*
X169561190Y-97862676D02*
X169465952Y-97957914D01*
X169465952Y-97957914D02*
X169370714Y-98005533D01*
X170799285Y-98053152D02*
X170799285Y-98719819D01*
X170561190Y-97672200D02*
X170323095Y-98386485D01*
X170323095Y-98386485D02*
X170942142Y-98386485D01*
X171513571Y-97719819D02*
X171608809Y-97719819D01*
X171608809Y-97719819D02*
X171704047Y-97767438D01*
X171704047Y-97767438D02*
X171751666Y-97815057D01*
X171751666Y-97815057D02*
X171799285Y-97910295D01*
X171799285Y-97910295D02*
X171846904Y-98100771D01*
X171846904Y-98100771D02*
X171846904Y-98338866D01*
X171846904Y-98338866D02*
X171799285Y-98529342D01*
X171799285Y-98529342D02*
X171751666Y-98624580D01*
X171751666Y-98624580D02*
X171704047Y-98672200D01*
X171704047Y-98672200D02*
X171608809Y-98719819D01*
X171608809Y-98719819D02*
X171513571Y-98719819D01*
X171513571Y-98719819D02*
X171418333Y-98672200D01*
X171418333Y-98672200D02*
X171370714Y-98624580D01*
X171370714Y-98624580D02*
X171323095Y-98529342D01*
X171323095Y-98529342D02*
X171275476Y-98338866D01*
X171275476Y-98338866D02*
X171275476Y-98100771D01*
X171275476Y-98100771D02*
X171323095Y-97910295D01*
X171323095Y-97910295D02*
X171370714Y-97815057D01*
X171370714Y-97815057D02*
X171418333Y-97767438D01*
X171418333Y-97767438D02*
X171513571Y-97719819D01*
X172227857Y-97815057D02*
X172275476Y-97767438D01*
X172275476Y-97767438D02*
X172370714Y-97719819D01*
X172370714Y-97719819D02*
X172608809Y-97719819D01*
X172608809Y-97719819D02*
X172704047Y-97767438D01*
X172704047Y-97767438D02*
X172751666Y-97815057D01*
X172751666Y-97815057D02*
X172799285Y-97910295D01*
X172799285Y-97910295D02*
X172799285Y-98005533D01*
X172799285Y-98005533D02*
X172751666Y-98148390D01*
X172751666Y-98148390D02*
X172180238Y-98719819D01*
X172180238Y-98719819D02*
X172799285Y-98719819D01*
X168989761Y-96654580D02*
X168942142Y-96702200D01*
X168942142Y-96702200D02*
X168799285Y-96749819D01*
X168799285Y-96749819D02*
X168704047Y-96749819D01*
X168704047Y-96749819D02*
X168561190Y-96702200D01*
X168561190Y-96702200D02*
X168465952Y-96606961D01*
X168465952Y-96606961D02*
X168418333Y-96511723D01*
X168418333Y-96511723D02*
X168370714Y-96321247D01*
X168370714Y-96321247D02*
X168370714Y-96178390D01*
X168370714Y-96178390D02*
X168418333Y-95987914D01*
X168418333Y-95987914D02*
X168465952Y-95892676D01*
X168465952Y-95892676D02*
X168561190Y-95797438D01*
X168561190Y-95797438D02*
X168704047Y-95749819D01*
X168704047Y-95749819D02*
X168799285Y-95749819D01*
X168799285Y-95749819D02*
X168942142Y-95797438D01*
X168942142Y-95797438D02*
X168989761Y-95845057D01*
X169942142Y-96749819D02*
X169370714Y-96749819D01*
X169656428Y-96749819D02*
X169656428Y-95749819D01*
X169656428Y-95749819D02*
X169561190Y-95892676D01*
X169561190Y-95892676D02*
X169465952Y-95987914D01*
X169465952Y-95987914D02*
X169370714Y-96035533D01*
X170799285Y-96083152D02*
X170799285Y-96749819D01*
X170561190Y-95702200D02*
X170323095Y-96416485D01*
X170323095Y-96416485D02*
X170942142Y-96416485D01*
X171513571Y-95749819D02*
X171608809Y-95749819D01*
X171608809Y-95749819D02*
X171704047Y-95797438D01*
X171704047Y-95797438D02*
X171751666Y-95845057D01*
X171751666Y-95845057D02*
X171799285Y-95940295D01*
X171799285Y-95940295D02*
X171846904Y-96130771D01*
X171846904Y-96130771D02*
X171846904Y-96368866D01*
X171846904Y-96368866D02*
X171799285Y-96559342D01*
X171799285Y-96559342D02*
X171751666Y-96654580D01*
X171751666Y-96654580D02*
X171704047Y-96702200D01*
X171704047Y-96702200D02*
X171608809Y-96749819D01*
X171608809Y-96749819D02*
X171513571Y-96749819D01*
X171513571Y-96749819D02*
X171418333Y-96702200D01*
X171418333Y-96702200D02*
X171370714Y-96654580D01*
X171370714Y-96654580D02*
X171323095Y-96559342D01*
X171323095Y-96559342D02*
X171275476Y-96368866D01*
X171275476Y-96368866D02*
X171275476Y-96130771D01*
X171275476Y-96130771D02*
X171323095Y-95940295D01*
X171323095Y-95940295D02*
X171370714Y-95845057D01*
X171370714Y-95845057D02*
X171418333Y-95797438D01*
X171418333Y-95797438D02*
X171513571Y-95749819D01*
X172799285Y-96749819D02*
X172227857Y-96749819D01*
X172513571Y-96749819D02*
X172513571Y-95749819D01*
X172513571Y-95749819D02*
X172418333Y-95892676D01*
X172418333Y-95892676D02*
X172323095Y-95987914D01*
X172323095Y-95987914D02*
X172227857Y-96035533D01*
X176285952Y-91074580D02*
X176238333Y-91122200D01*
X176238333Y-91122200D02*
X176095476Y-91169819D01*
X176095476Y-91169819D02*
X176000238Y-91169819D01*
X176000238Y-91169819D02*
X175857381Y-91122200D01*
X175857381Y-91122200D02*
X175762143Y-91026961D01*
X175762143Y-91026961D02*
X175714524Y-90931723D01*
X175714524Y-90931723D02*
X175666905Y-90741247D01*
X175666905Y-90741247D02*
X175666905Y-90598390D01*
X175666905Y-90598390D02*
X175714524Y-90407914D01*
X175714524Y-90407914D02*
X175762143Y-90312676D01*
X175762143Y-90312676D02*
X175857381Y-90217438D01*
X175857381Y-90217438D02*
X176000238Y-90169819D01*
X176000238Y-90169819D02*
X176095476Y-90169819D01*
X176095476Y-90169819D02*
X176238333Y-90217438D01*
X176238333Y-90217438D02*
X176285952Y-90265057D01*
X176666905Y-90265057D02*
X176714524Y-90217438D01*
X176714524Y-90217438D02*
X176809762Y-90169819D01*
X176809762Y-90169819D02*
X177047857Y-90169819D01*
X177047857Y-90169819D02*
X177143095Y-90217438D01*
X177143095Y-90217438D02*
X177190714Y-90265057D01*
X177190714Y-90265057D02*
X177238333Y-90360295D01*
X177238333Y-90360295D02*
X177238333Y-90455533D01*
X177238333Y-90455533D02*
X177190714Y-90598390D01*
X177190714Y-90598390D02*
X176619286Y-91169819D01*
X176619286Y-91169819D02*
X177238333Y-91169819D01*
X177857381Y-90169819D02*
X177952619Y-90169819D01*
X177952619Y-90169819D02*
X178047857Y-90217438D01*
X178047857Y-90217438D02*
X178095476Y-90265057D01*
X178095476Y-90265057D02*
X178143095Y-90360295D01*
X178143095Y-90360295D02*
X178190714Y-90550771D01*
X178190714Y-90550771D02*
X178190714Y-90788866D01*
X178190714Y-90788866D02*
X178143095Y-90979342D01*
X178143095Y-90979342D02*
X178095476Y-91074580D01*
X178095476Y-91074580D02*
X178047857Y-91122200D01*
X178047857Y-91122200D02*
X177952619Y-91169819D01*
X177952619Y-91169819D02*
X177857381Y-91169819D01*
X177857381Y-91169819D02*
X177762143Y-91122200D01*
X177762143Y-91122200D02*
X177714524Y-91074580D01*
X177714524Y-91074580D02*
X177666905Y-90979342D01*
X177666905Y-90979342D02*
X177619286Y-90788866D01*
X177619286Y-90788866D02*
X177619286Y-90550771D01*
X177619286Y-90550771D02*
X177666905Y-90360295D01*
X177666905Y-90360295D02*
X177714524Y-90265057D01*
X177714524Y-90265057D02*
X177762143Y-90217438D01*
X177762143Y-90217438D02*
X177857381Y-90169819D01*
X178571667Y-90265057D02*
X178619286Y-90217438D01*
X178619286Y-90217438D02*
X178714524Y-90169819D01*
X178714524Y-90169819D02*
X178952619Y-90169819D01*
X178952619Y-90169819D02*
X179047857Y-90217438D01*
X179047857Y-90217438D02*
X179095476Y-90265057D01*
X179095476Y-90265057D02*
X179143095Y-90360295D01*
X179143095Y-90360295D02*
X179143095Y-90455533D01*
X179143095Y-90455533D02*
X179095476Y-90598390D01*
X179095476Y-90598390D02*
X178524048Y-91169819D01*
X178524048Y-91169819D02*
X179143095Y-91169819D01*
X176285952Y-88564580D02*
X176238333Y-88612200D01*
X176238333Y-88612200D02*
X176095476Y-88659819D01*
X176095476Y-88659819D02*
X176000238Y-88659819D01*
X176000238Y-88659819D02*
X175857381Y-88612200D01*
X175857381Y-88612200D02*
X175762143Y-88516961D01*
X175762143Y-88516961D02*
X175714524Y-88421723D01*
X175714524Y-88421723D02*
X175666905Y-88231247D01*
X175666905Y-88231247D02*
X175666905Y-88088390D01*
X175666905Y-88088390D02*
X175714524Y-87897914D01*
X175714524Y-87897914D02*
X175762143Y-87802676D01*
X175762143Y-87802676D02*
X175857381Y-87707438D01*
X175857381Y-87707438D02*
X176000238Y-87659819D01*
X176000238Y-87659819D02*
X176095476Y-87659819D01*
X176095476Y-87659819D02*
X176238333Y-87707438D01*
X176238333Y-87707438D02*
X176285952Y-87755057D01*
X176666905Y-87755057D02*
X176714524Y-87707438D01*
X176714524Y-87707438D02*
X176809762Y-87659819D01*
X176809762Y-87659819D02*
X177047857Y-87659819D01*
X177047857Y-87659819D02*
X177143095Y-87707438D01*
X177143095Y-87707438D02*
X177190714Y-87755057D01*
X177190714Y-87755057D02*
X177238333Y-87850295D01*
X177238333Y-87850295D02*
X177238333Y-87945533D01*
X177238333Y-87945533D02*
X177190714Y-88088390D01*
X177190714Y-88088390D02*
X176619286Y-88659819D01*
X176619286Y-88659819D02*
X177238333Y-88659819D01*
X177857381Y-87659819D02*
X177952619Y-87659819D01*
X177952619Y-87659819D02*
X178047857Y-87707438D01*
X178047857Y-87707438D02*
X178095476Y-87755057D01*
X178095476Y-87755057D02*
X178143095Y-87850295D01*
X178143095Y-87850295D02*
X178190714Y-88040771D01*
X178190714Y-88040771D02*
X178190714Y-88278866D01*
X178190714Y-88278866D02*
X178143095Y-88469342D01*
X178143095Y-88469342D02*
X178095476Y-88564580D01*
X178095476Y-88564580D02*
X178047857Y-88612200D01*
X178047857Y-88612200D02*
X177952619Y-88659819D01*
X177952619Y-88659819D02*
X177857381Y-88659819D01*
X177857381Y-88659819D02*
X177762143Y-88612200D01*
X177762143Y-88612200D02*
X177714524Y-88564580D01*
X177714524Y-88564580D02*
X177666905Y-88469342D01*
X177666905Y-88469342D02*
X177619286Y-88278866D01*
X177619286Y-88278866D02*
X177619286Y-88040771D01*
X177619286Y-88040771D02*
X177666905Y-87850295D01*
X177666905Y-87850295D02*
X177714524Y-87755057D01*
X177714524Y-87755057D02*
X177762143Y-87707438D01*
X177762143Y-87707438D02*
X177857381Y-87659819D01*
X179143095Y-88659819D02*
X178571667Y-88659819D01*
X178857381Y-88659819D02*
X178857381Y-87659819D01*
X178857381Y-87659819D02*
X178762143Y-87802676D01*
X178762143Y-87802676D02*
X178666905Y-87897914D01*
X178666905Y-87897914D02*
X178571667Y-87945533D01*
%TO.C,U1301*%
G36*
X185944600Y-68676037D02*
G01*
X185690600Y-68676037D01*
X185690600Y-68295037D01*
X185944600Y-68295037D01*
X185944600Y-68676037D01*
G37*
D12*
X182363200Y-70158000D02*
X183188109Y-70158000D01*
X185716000Y-70158000D02*
X185716000Y-69818886D01*
X185716000Y-67313200D02*
X184891091Y-67313200D01*
X182363200Y-67313200D02*
X182363200Y-67652314D01*
X182363200Y-69818886D02*
X182363200Y-70158000D01*
X184891091Y-70158000D02*
X185716000Y-70158000D01*
X185716000Y-67652314D02*
X185716000Y-67313200D01*
X183188109Y-67313200D02*
X182363200Y-67313200D01*
D13*
%TO.C,J1101*%
X150350000Y-90620000D02*
X161650000Y-90620000D01*
X161650000Y-90620000D02*
X161650000Y-89525000D01*
X150350000Y-90620000D02*
X150350000Y-90198000D01*
X159640570Y-92320000D02*
G75*
G03*
X159640570Y-92320000I-56570J0D01*
G01*
%TO.C,IC1201*%
X150400000Y-103654000D02*
X149946000Y-103200000D01*
X152854000Y-103654000D02*
X150400000Y-103654000D01*
X149946000Y-103200000D02*
X149946000Y-101146000D01*
X149946000Y-101146000D02*
X152854000Y-101146000D01*
X152854000Y-101146000D02*
X152854000Y-103654000D01*
X150046000Y-103654000D02*
G75*
G03*
X150046000Y-103654000I-100000J0D01*
G01*
%TO.C,IC1002*%
X153537000Y-92900000D02*
X154000000Y-92437000D01*
X153537000Y-94963000D02*
X153537000Y-92900000D01*
X154000000Y-92437000D02*
X155663000Y-92437000D01*
X155663000Y-92437000D02*
X155663000Y-94963000D01*
X155663000Y-94963000D02*
X153537000Y-94963000D01*
X153637000Y-92437000D02*
G75*
G03*
X153637000Y-92437000I-100000J0D01*
G01*
D14*
%TO.C,IC901*%
X157710000Y-100175000D02*
G75*
G03*
X157710000Y-100175000I-125000J0D01*
G01*
D13*
%TO.C,IC401*%
X168010000Y-69960000D02*
X168010000Y-77160000D01*
X178110000Y-69960000D02*
X178110000Y-77160000D01*
D15*
X168660000Y-79360000D02*
X168660000Y-79360000D01*
X168660000Y-79460000D02*
X168660000Y-79460000D01*
X168660000Y-79360000D02*
G75*
G03*
X168660000Y-79460000I0J-50000D01*
G01*
X168660000Y-79460000D02*
G75*
G03*
X168660000Y-79360000I0J50000D01*
G01*
D13*
%TO.C,ANT1601*%
X182510000Y-74810000D02*
X182510000Y-74810000D01*
X182610000Y-74810000D02*
X182610000Y-74810000D01*
X182510000Y-74810000D02*
X182510000Y-74810000D01*
X182510000Y-74810000D02*
G75*
G03*
X182610000Y-74810000I50000J0D01*
G01*
X182610000Y-74810000D02*
G75*
G03*
X182510000Y-74810000I-50000J0D01*
G01*
X182510000Y-74810000D02*
G75*
G03*
X182610000Y-74810000I50000J0D01*
G01*
D15*
%TO.C,IC201*%
X185135000Y-86215000D02*
X185135000Y-86215000D01*
D13*
X185600000Y-86165000D02*
X185135000Y-85700000D01*
X188065000Y-86165000D02*
X185600000Y-86165000D01*
D15*
X185135000Y-86115000D02*
X185135000Y-86115000D01*
D13*
X185135000Y-85700000D02*
X185135000Y-83235000D01*
X185135000Y-83235000D02*
X188065000Y-83235000D01*
X188065000Y-83235000D02*
X188065000Y-86165000D01*
D15*
X185135000Y-86115000D02*
G75*
G03*
X185135000Y-86215000I0J-50000D01*
G01*
X185135000Y-86215000D02*
G75*
G03*
X185135000Y-86115000I0J50000D01*
G01*
D12*
%TO.C,U801*%
X150480200Y-71618754D02*
X150226200Y-71618754D01*
X163637400Y-71618754D02*
X163891400Y-71618754D01*
X150480200Y-75618746D02*
X150226200Y-75618746D01*
X163637400Y-75618746D02*
X163891400Y-75618746D01*
X150480200Y-79618738D02*
X150226200Y-79618738D01*
X163637400Y-79618738D02*
X163891400Y-79618738D01*
X154658754Y-67440200D02*
X154658754Y-67186200D01*
X154658754Y-80597400D02*
X154658754Y-80851400D01*
X158658746Y-67440200D02*
X158658746Y-67186200D01*
X158658746Y-80597400D02*
X158658746Y-80851400D01*
X162658738Y-67440200D02*
X162658738Y-67186200D01*
X162658738Y-80597400D02*
X162658738Y-80851400D01*
X150353200Y-80724400D02*
X163764400Y-80724400D01*
X163764400Y-80724400D02*
X163764400Y-67313200D01*
X163764400Y-67313200D02*
X150353200Y-67313200D01*
X150353200Y-67313200D02*
X150353200Y-80724400D01*
D16*
%TO.C,R1601*%
X180711359Y-92975000D02*
X181018641Y-92975000D01*
X180711359Y-93735000D02*
X181018641Y-93735000D01*
%TO.C,R202*%
X180711359Y-91745000D02*
X181018641Y-91745000D01*
X180711359Y-90985000D02*
X181018641Y-90985000D01*
%TO.C,R201*%
X180711359Y-88995000D02*
X181018641Y-88995000D01*
X180711359Y-89755000D02*
X181018641Y-89755000D01*
D14*
%TO.C,IC1401*%
X165225000Y-97220000D02*
G75*
G03*
X165225000Y-97220000I-125000J0D01*
G01*
D13*
%TO.C,IC1001*%
X167875000Y-84945000D02*
X171875000Y-84945000D01*
X171875000Y-84945000D02*
X171875000Y-92945000D01*
X171875000Y-92945000D02*
X165875000Y-92945000D01*
X165875000Y-92945000D02*
X165875000Y-86945000D01*
X165875000Y-86945000D02*
X167875000Y-84945000D01*
X165975000Y-84945000D02*
G75*
G03*
X165975000Y-84945000I-100000J0D01*
G01*
%TO.C,IC301*%
X176275000Y-97700000D02*
G75*
G03*
X176275000Y-97700000I-100000J0D01*
G01*
%TO.C,IC202*%
X176867000Y-84897000D02*
G75*
G03*
X176867000Y-84897000I-100000J0D01*
G01*
X176767000Y-85400000D02*
X177270000Y-84897000D01*
X176767000Y-86903000D02*
X176767000Y-85400000D01*
X178773000Y-86903000D02*
X176767000Y-86903000D01*
X178773000Y-84897000D02*
X178773000Y-86903000D01*
X177270000Y-84897000D02*
X178773000Y-84897000D01*
D16*
%TO.C,C1402*%
X170477164Y-99785000D02*
X170692836Y-99785000D01*
X170477164Y-99065000D02*
X170692836Y-99065000D01*
%TO.C,C1401*%
X170477164Y-97815000D02*
X170692836Y-97815000D01*
X170477164Y-97095000D02*
X170692836Y-97095000D01*
%TO.C,C202*%
X177264420Y-92655000D02*
X177545580Y-92655000D01*
X177264420Y-91635000D02*
X177545580Y-91635000D01*
%TO.C,C201*%
X177264420Y-90145000D02*
X177545580Y-90145000D01*
X177264420Y-89125000D02*
X177545580Y-89125000D01*
%TD*%
%LPC*%
D17*
%TO.C,U1301*%
X182909300Y-67985411D03*
X182909300Y-68485537D03*
X182909300Y-68985663D03*
X182909300Y-69485789D03*
D18*
X183539474Y-69624600D03*
X184039600Y-69624600D03*
X184539726Y-69624600D03*
D17*
X185169900Y-69485789D03*
X185169900Y-68985663D03*
X185169900Y-68485537D03*
X185169900Y-67985411D03*
D18*
X184539726Y-67846600D03*
X184039600Y-67846600D03*
X183539474Y-67846600D03*
%TD*%
D19*
%TO.C,J1101*%
X159550000Y-91510000D03*
X158450000Y-91510000D03*
X157350000Y-91510000D03*
X156250000Y-91510000D03*
X155150000Y-91510000D03*
X154050000Y-91510000D03*
X152950000Y-91510000D03*
X151850000Y-91510000D03*
D20*
X161310000Y-88830000D03*
D21*
X161325000Y-87560000D03*
D22*
X161325000Y-84950000D03*
X150675000Y-85520000D03*
D23*
X150675000Y-88705000D03*
D24*
X157986000Y-84275000D03*
X153796000Y-84275000D03*
%TD*%
D25*
%TO.C,IC1201*%
X150400000Y-103200000D03*
X150400000Y-102800000D03*
X150400000Y-102400000D03*
X150400000Y-102000000D03*
X150400000Y-101600000D03*
X150800000Y-103200000D03*
X150800000Y-102800000D03*
X150800000Y-102400000D03*
X150800000Y-102000000D03*
X150800000Y-101600000D03*
X151200000Y-103200000D03*
X151200000Y-102800000D03*
X151200000Y-102400000D03*
X151200000Y-102000000D03*
X151200000Y-101600000D03*
X151600000Y-103200000D03*
X151600000Y-102800000D03*
X151600000Y-102400000D03*
X151600000Y-102000000D03*
X151600000Y-101600000D03*
X152000000Y-103200000D03*
X152000000Y-102800000D03*
X152000000Y-102400000D03*
X152000000Y-102000000D03*
X152000000Y-101600000D03*
X152400000Y-103200000D03*
X152400000Y-102800000D03*
X152400000Y-102400000D03*
X152400000Y-102000000D03*
X152400000Y-101600000D03*
%TD*%
%TO.C,IC1002*%
X154000000Y-92900000D03*
X154400000Y-92900000D03*
X154800000Y-92900000D03*
X155200000Y-92900000D03*
X154000000Y-93300000D03*
X154400000Y-93300000D03*
X154800000Y-93300000D03*
X155200000Y-93300000D03*
X154000000Y-93700000D03*
X154400000Y-93700000D03*
X154800000Y-93700000D03*
X155200000Y-93700000D03*
X154000000Y-94100000D03*
X154400000Y-94100000D03*
X154800000Y-94100000D03*
X155200000Y-94100000D03*
X154000000Y-94500000D03*
X154400000Y-94500000D03*
X154800000Y-94500000D03*
X155200000Y-94500000D03*
%TD*%
D26*
%TO.C,IC901*%
X157985000Y-100925000D03*
X157985000Y-101425000D03*
X157985000Y-101925000D03*
X157985000Y-102425000D03*
D27*
X158735000Y-103175000D03*
X159235000Y-103175000D03*
X159735000Y-103175000D03*
X160235000Y-103175000D03*
D26*
X160985000Y-102425000D03*
X160985000Y-101925000D03*
X160985000Y-101425000D03*
X160985000Y-100925000D03*
D27*
X160235000Y-100175000D03*
X159735000Y-100175000D03*
X159235000Y-100175000D03*
X158735000Y-100175000D03*
D28*
X159485000Y-101675000D03*
%TD*%
D29*
%TO.C,IC401*%
X168660000Y-78160000D03*
X169760000Y-78160000D03*
X170860000Y-78160000D03*
X171960000Y-78160000D03*
X173060000Y-78160000D03*
X174160000Y-78160000D03*
X175260000Y-78160000D03*
X176360000Y-78160000D03*
X177460000Y-78160000D03*
X177460000Y-68960000D03*
X176360000Y-68960000D03*
X175260000Y-68960000D03*
X174160000Y-68960000D03*
X173060000Y-68960000D03*
X171960000Y-68960000D03*
X170860000Y-68960000D03*
X169760000Y-68960000D03*
X168660000Y-68960000D03*
%TD*%
D30*
%TO.C,ANT1601*%
X183385000Y-74810000D03*
D31*
X184010000Y-75063000D03*
D30*
X184635000Y-74810000D03*
D31*
X184010000Y-74557000D03*
%TD*%
D25*
%TO.C,IC201*%
X185600000Y-85700000D03*
X185600000Y-85300000D03*
X185600000Y-84900000D03*
X185600000Y-84500000D03*
X185600000Y-84100000D03*
X185600000Y-83700000D03*
X186000000Y-85700000D03*
X186000000Y-85300000D03*
X186000000Y-84900000D03*
X186000000Y-84500000D03*
X186000000Y-84100000D03*
X186000000Y-83700000D03*
X186400000Y-85700000D03*
X186400000Y-85300000D03*
X186400000Y-84100000D03*
X186400000Y-83700000D03*
X186800000Y-85700000D03*
X186800000Y-85300000D03*
X186800000Y-84100000D03*
X186800000Y-83700000D03*
X187200000Y-85700000D03*
X187200000Y-85300000D03*
X187200000Y-84900000D03*
X187200000Y-84500000D03*
X187200000Y-84100000D03*
X187200000Y-83700000D03*
X187600000Y-85700000D03*
X187600000Y-85300000D03*
X187600000Y-84900000D03*
X187600000Y-84500000D03*
X187600000Y-84100000D03*
X187600000Y-83700000D03*
%TD*%
D32*
%TO.C,U801*%
X151458801Y-68418801D03*
X152258801Y-68418801D03*
X153058800Y-68418801D03*
X153858800Y-68418801D03*
X154658800Y-68418801D03*
X155458800Y-68418801D03*
X156258800Y-68418801D03*
X157058800Y-68418801D03*
X157858800Y-68418801D03*
X158658800Y-68418801D03*
X159458800Y-68418801D03*
X160258800Y-68418801D03*
X161058800Y-68418801D03*
X161858799Y-68418801D03*
X162658799Y-68418801D03*
X151458801Y-69218801D03*
X152258801Y-69218801D03*
X153058800Y-69218801D03*
X153858800Y-69218801D03*
X154658800Y-69218801D03*
X155458800Y-69218801D03*
X156258800Y-69218801D03*
X157058800Y-69218801D03*
X157858800Y-69218801D03*
X158658800Y-69218801D03*
X159458800Y-69218801D03*
X160258800Y-69218801D03*
X161058800Y-69218801D03*
X161858799Y-69218801D03*
X162658799Y-69218801D03*
X151458801Y-70018800D03*
X152258801Y-70018800D03*
X153058800Y-70018800D03*
X153858800Y-70018800D03*
X154658800Y-70018800D03*
X155458800Y-70018800D03*
X156258800Y-70018800D03*
X157058800Y-70018800D03*
X157858800Y-70018800D03*
X158658800Y-70018800D03*
X159458800Y-70018800D03*
X160258800Y-70018800D03*
X161058800Y-70018800D03*
X161858799Y-70018800D03*
X162658799Y-70018800D03*
X151458801Y-70818800D03*
X152258801Y-70818800D03*
X153058800Y-70818800D03*
X153858800Y-70818800D03*
X154658800Y-70818800D03*
X155458800Y-70818800D03*
X156258800Y-70818800D03*
X157058800Y-70818800D03*
X157858800Y-70818800D03*
X158658800Y-70818800D03*
X159458800Y-70818800D03*
X160258800Y-70818800D03*
X161058800Y-70818800D03*
X161858799Y-70818800D03*
X162658799Y-70818800D03*
X151458801Y-71618800D03*
X152258801Y-71618800D03*
X153058800Y-71618800D03*
X153858800Y-71618800D03*
X154658800Y-71618800D03*
X155458800Y-71618800D03*
X156258800Y-71618800D03*
X157058800Y-71618800D03*
X157858800Y-71618800D03*
X158658800Y-71618800D03*
X159458800Y-71618800D03*
X160258800Y-71618800D03*
X161058800Y-71618800D03*
X161858799Y-71618800D03*
X162658799Y-71618800D03*
X151458801Y-72418800D03*
X152258801Y-72418800D03*
X153058800Y-72418800D03*
X153858800Y-72418800D03*
X154658800Y-72418800D03*
X155458800Y-72418800D03*
X156258800Y-72418800D03*
X157058800Y-72418800D03*
X157858800Y-72418800D03*
X158658800Y-72418800D03*
X159458800Y-72418800D03*
X160258800Y-72418800D03*
X161058800Y-72418800D03*
X161858799Y-72418800D03*
X162658799Y-72418800D03*
X151458801Y-73218800D03*
X152258801Y-73218800D03*
X153058800Y-73218800D03*
X153858800Y-73218800D03*
X154658800Y-73218800D03*
X155458800Y-73218800D03*
X158658800Y-73218800D03*
X159458800Y-73218800D03*
X160258800Y-73218800D03*
X161058800Y-73218800D03*
X161858799Y-73218800D03*
X162658799Y-73218800D03*
X151458801Y-74018800D03*
X152258801Y-74018800D03*
X153058800Y-74018800D03*
X153858800Y-74018800D03*
X154658800Y-74018800D03*
X155458800Y-74018800D03*
X158658800Y-74018800D03*
X159458800Y-74018800D03*
X160258800Y-74018800D03*
X161058800Y-74018800D03*
X161858799Y-74018800D03*
X162658799Y-74018800D03*
X151458801Y-74818800D03*
X152258801Y-74818800D03*
X153058800Y-74818800D03*
X153858800Y-74818800D03*
X154658800Y-74818800D03*
X155458800Y-74818800D03*
X158658800Y-74818800D03*
X159458800Y-74818800D03*
X160258800Y-74818800D03*
X161058800Y-74818800D03*
X161858799Y-74818800D03*
X162658799Y-74818800D03*
X151458801Y-75618800D03*
X152258801Y-75618800D03*
X153058800Y-75618800D03*
X153858800Y-75618800D03*
X154658800Y-75618800D03*
X155458800Y-75618800D03*
X156258800Y-75618800D03*
X157058800Y-75618800D03*
X157858800Y-75618800D03*
X158658800Y-75618800D03*
X159458800Y-75618800D03*
X160258800Y-75618800D03*
X161058800Y-75618800D03*
X161858799Y-75618800D03*
X162658799Y-75618800D03*
X151458801Y-76418800D03*
X152258801Y-76418800D03*
X153058800Y-76418800D03*
X153858800Y-76418800D03*
X154658800Y-76418800D03*
X155458800Y-76418800D03*
X156258800Y-76418800D03*
X157058800Y-76418800D03*
X157858800Y-76418800D03*
X158658800Y-76418800D03*
X159458800Y-76418800D03*
X160258800Y-76418800D03*
X161058800Y-76418800D03*
X161858799Y-76418800D03*
X162658799Y-76418800D03*
X151458801Y-77218800D03*
X152258801Y-77218800D03*
X153058800Y-77218800D03*
X153858800Y-77218800D03*
X154658800Y-77218800D03*
X155458800Y-77218800D03*
X156258800Y-77218800D03*
X157058800Y-77218800D03*
X157858800Y-77218800D03*
X158658800Y-77218800D03*
X159458800Y-77218800D03*
X160258800Y-77218800D03*
X161058800Y-77218800D03*
X161858799Y-77218800D03*
X162658799Y-77218800D03*
X151458801Y-78018800D03*
X152258801Y-78018800D03*
X153058800Y-78018800D03*
X153858800Y-78018800D03*
X154658800Y-78018800D03*
X155458800Y-78018800D03*
X156258800Y-78018800D03*
X157058800Y-78018800D03*
X157858800Y-78018800D03*
X158658800Y-78018800D03*
X159458800Y-78018800D03*
X160258800Y-78018800D03*
X161058800Y-78018800D03*
X161858799Y-78018800D03*
X162658799Y-78018800D03*
X151458801Y-78818799D03*
X152258801Y-78818799D03*
X153058800Y-78818799D03*
X153858800Y-78818799D03*
X154658800Y-78818799D03*
X155458800Y-78818799D03*
X156258800Y-78818799D03*
X157058800Y-78818799D03*
X157858800Y-78818799D03*
X158658800Y-78818799D03*
X159458800Y-78818799D03*
X160258800Y-78818799D03*
X161058800Y-78818799D03*
X161858799Y-78818799D03*
X162658799Y-78818799D03*
X151458801Y-79618799D03*
X152258801Y-79618799D03*
X153058800Y-79618799D03*
X153858800Y-79618799D03*
X154658800Y-79618799D03*
X155458800Y-79618799D03*
X156258800Y-79618799D03*
X157058800Y-79618799D03*
X157858800Y-79618799D03*
X158658800Y-79618799D03*
X159458800Y-79618799D03*
X160258800Y-79618799D03*
X161058800Y-79618799D03*
X161858799Y-79618799D03*
X162658799Y-79618799D03*
%TD*%
D33*
%TO.C,R1601*%
X180355000Y-93355000D03*
X181375000Y-93355000D03*
%TD*%
%TO.C,R202*%
X181375000Y-91365000D03*
X180355000Y-91365000D03*
%TD*%
%TO.C,R201*%
X180355000Y-89375000D03*
X181375000Y-89375000D03*
%TD*%
D26*
%TO.C,IC1401*%
X165500000Y-97870000D03*
X165500000Y-98370000D03*
X165500000Y-98870000D03*
X165500000Y-99370000D03*
X165500000Y-99870000D03*
X168000000Y-99870000D03*
X168000000Y-99370000D03*
X168000000Y-98870000D03*
X168000000Y-98370000D03*
X168000000Y-97870000D03*
D34*
X166750000Y-98870000D03*
%TD*%
D35*
%TO.C,IC1001*%
X167875000Y-86945000D03*
X168875000Y-86945000D03*
X169875000Y-86945000D03*
X170875000Y-86945000D03*
X166875000Y-87945000D03*
X167875000Y-87945000D03*
X168875000Y-87945000D03*
X169875000Y-87945000D03*
X170875000Y-87945000D03*
X166875000Y-88945000D03*
X167875000Y-88945000D03*
X168875000Y-88945000D03*
X169875000Y-88945000D03*
X170875000Y-88945000D03*
X166875000Y-89945000D03*
X167875000Y-89945000D03*
X168875000Y-89945000D03*
X169875000Y-89945000D03*
X170875000Y-89945000D03*
X166875000Y-90945000D03*
X167875000Y-90945000D03*
X168875000Y-90945000D03*
X169875000Y-90945000D03*
X170875000Y-90945000D03*
%TD*%
D36*
%TO.C,IC301*%
X176600000Y-98300000D03*
X176600000Y-98700000D03*
X176600000Y-99100000D03*
X176600000Y-99500000D03*
X176600000Y-99900000D03*
X176600000Y-100300000D03*
X176600000Y-100700000D03*
X176600000Y-101100000D03*
X176600000Y-101500000D03*
X176600000Y-101900000D03*
X176600000Y-102300000D03*
X176600000Y-102700000D03*
D37*
X177350000Y-103450000D03*
X177750000Y-103450000D03*
X178150000Y-103450000D03*
X178550000Y-103450000D03*
X178950000Y-103450000D03*
X179350000Y-103450000D03*
X179750000Y-103450000D03*
X180150000Y-103450000D03*
X180550000Y-103450000D03*
X180950000Y-103450000D03*
X181350000Y-103450000D03*
X181750000Y-103450000D03*
D36*
X182500000Y-102700000D03*
X182500000Y-102300000D03*
X182500000Y-101900000D03*
X182500000Y-101500000D03*
X182500000Y-101100000D03*
X182500000Y-100700000D03*
X182500000Y-100300000D03*
X182500000Y-99900000D03*
X182500000Y-99500000D03*
X182500000Y-99100000D03*
X182500000Y-98700000D03*
X182500000Y-98300000D03*
D37*
X181750000Y-97550000D03*
X181350000Y-97550000D03*
X180950000Y-97550000D03*
X180550000Y-97550000D03*
X180150000Y-97550000D03*
X179750000Y-97550000D03*
X179350000Y-97550000D03*
X178950000Y-97550000D03*
X178550000Y-97550000D03*
X178150000Y-97550000D03*
X177750000Y-97550000D03*
X177350000Y-97550000D03*
D38*
X179550000Y-100500000D03*
%TD*%
D39*
%TO.C,IC202*%
X178270000Y-86400000D03*
X177770000Y-86400000D03*
X177270000Y-86400000D03*
X178270000Y-85900000D03*
X177770000Y-85900000D03*
X177270000Y-85900000D03*
X178270000Y-85400000D03*
X177770000Y-85400000D03*
X177270000Y-85400000D03*
%TD*%
D40*
%TO.C,C1402*%
X170105000Y-99425000D03*
X171065000Y-99425000D03*
%TD*%
%TO.C,C1401*%
X170105000Y-97455000D03*
X171065000Y-97455000D03*
%TD*%
D41*
%TO.C,C202*%
X176630000Y-92145000D03*
X178180000Y-92145000D03*
%TD*%
%TO.C,C201*%
X176630000Y-89635000D03*
X178180000Y-89635000D03*
%TD*%
%LPD*%
M02*
