%TF.GenerationSoftware,KiCad,Pcbnew,7.0.1*%
%TF.CreationDate,2023-12-24T21:56:22+00:00*%
%TF.ProjectId,watch_main,77617463-685f-46d6-9169-6e2e6b696361,rev?*%
%TF.SameCoordinates,Original*%
%TF.FileFunction,Copper,L3,Inr*%
%TF.FilePolarity,Positive*%
%FSLAX46Y46*%
G04 Gerber Fmt 4.6, Leading zero omitted, Abs format (unit mm)*
G04 Created by KiCad (PCBNEW 7.0.1) date 2023-12-24 21:56:22*
%MOMM*%
%LPD*%
G01*
G04 APERTURE LIST*
%TA.AperFunction,ComponentPad*%
%ADD10C,0.500000*%
%TD*%
%TA.AperFunction,ViaPad*%
%ADD11C,0.300000*%
%TD*%
%TA.AperFunction,Conductor*%
%ADD12C,0.090000*%
%TD*%
%TA.AperFunction,Conductor*%
%ADD13C,0.120000*%
%TD*%
%TA.AperFunction,Conductor*%
%ADD14C,0.150000*%
%TD*%
%TA.AperFunction,Conductor*%
%ADD15C,0.200000*%
%TD*%
%TA.AperFunction,Conductor*%
%ADD16C,0.300000*%
%TD*%
%TA.AperFunction,Conductor*%
%ADD17C,0.118400*%
%TD*%
G04 APERTURE END LIST*
D10*
%TO.N,GND*%
%TO.C,U301*%
X142517157Y-85368629D03*
X141668629Y-84520101D03*
X140820101Y-83671573D03*
X139971573Y-82823045D03*
X141574584Y-86311202D03*
X140726056Y-85462674D03*
X139877528Y-84614146D03*
X139029000Y-83765618D03*
X140632011Y-87253776D03*
X139783483Y-86405248D03*
X138934954Y-85556719D03*
X138086426Y-84708191D03*
X139689437Y-88196349D03*
X138840909Y-87347821D03*
X137992381Y-86499293D03*
X137143853Y-85650765D03*
%TD*%
D11*
%TO.N,/Power/PGD_1V2*%
X160529000Y-86746000D03*
%TO.N,/QSPI2.IO3*%
X138364000Y-81191000D03*
%TO.N,/QSPI2.IO2*%
X137988359Y-81581000D03*
%TO.N,GND*%
X138852000Y-108611000D03*
X141600000Y-110800000D03*
X141600000Y-109400000D03*
X136600000Y-110400000D03*
X135300000Y-108000000D03*
X139500000Y-99500000D03*
X139500000Y-98500000D03*
X138500000Y-96500000D03*
X137600000Y-106600000D03*
X138500000Y-101500000D03*
X137500000Y-91500000D03*
X136900000Y-89000000D03*
X139500000Y-102500000D03*
X137500000Y-105500000D03*
X138500000Y-93500000D03*
X137100000Y-107100000D03*
X134300000Y-106900000D03*
X138500000Y-97500000D03*
X138500000Y-92500000D03*
X138900000Y-111100000D03*
X133500000Y-91500000D03*
X136500000Y-106900000D03*
X138500000Y-99500000D03*
X136500000Y-105500000D03*
X136600000Y-88300000D03*
X136500000Y-91500000D03*
X146400000Y-109000000D03*
X137000000Y-109800000D03*
X139000000Y-103000000D03*
X138500000Y-102500000D03*
X138300000Y-108200000D03*
X133400000Y-108100000D03*
X137300000Y-90100000D03*
X133000000Y-86900000D03*
X139000000Y-100000000D03*
X139500000Y-97500000D03*
X134500000Y-91500000D03*
X134900000Y-90300000D03*
X136000000Y-88300000D03*
X137500000Y-110400000D03*
X137500000Y-113100000D03*
X139200000Y-108100000D03*
X135500000Y-91500000D03*
X139000000Y-101000000D03*
X139000000Y-99000000D03*
X138500000Y-113100000D03*
X141300000Y-97700000D03*
X136000000Y-106200000D03*
X135000000Y-106200000D03*
X139500000Y-103500000D03*
X138500000Y-112100000D03*
X134500000Y-105500000D03*
X133400000Y-90900000D03*
X142560528Y-108927380D03*
X135400000Y-88300000D03*
X138500000Y-104500000D03*
X133400000Y-87600000D03*
X139000000Y-105000000D03*
X136100000Y-90300000D03*
X139300000Y-90300000D03*
X138500000Y-100500000D03*
X138500000Y-94500000D03*
X139000000Y-93000000D03*
X139500000Y-101500000D03*
X135600000Y-111400000D03*
X139000000Y-94000000D03*
X136900000Y-107800000D03*
X138900000Y-106400000D03*
X135500000Y-106900000D03*
X136000000Y-90900000D03*
X136700000Y-90100000D03*
X136300000Y-88800000D03*
X135700000Y-88800000D03*
X139000000Y-95000000D03*
X141300000Y-98500000D03*
X138500000Y-105500000D03*
X139000000Y-102000000D03*
X134500000Y-88900000D03*
X138200000Y-110200000D03*
X145600000Y-107400000D03*
X135100000Y-88800000D03*
X138500000Y-98500000D03*
X146400000Y-112600000D03*
X134400000Y-109700000D03*
X132700000Y-88400000D03*
X139000000Y-98000000D03*
X134400000Y-90800000D03*
X136000000Y-107500000D03*
X146472000Y-106964000D03*
X134800000Y-107500000D03*
X136900000Y-108500000D03*
X138000000Y-91000000D03*
X133400000Y-88300000D03*
X139500000Y-104500000D03*
X132900000Y-107500000D03*
X136500000Y-112100000D03*
X134400000Y-90100000D03*
X139000000Y-96000000D03*
X142900000Y-100100000D03*
X135500000Y-105500000D03*
X137200000Y-88600000D03*
X135900000Y-108500000D03*
X148000000Y-107400000D03*
X134200000Y-85500000D03*
X137000000Y-106200000D03*
X138500000Y-91500000D03*
X133500000Y-105500000D03*
X137000000Y-90900000D03*
X134900000Y-110600000D03*
X138900000Y-107500000D03*
X139000000Y-92000000D03*
X139000000Y-97000000D03*
X140200000Y-104600000D03*
X139000000Y-104000000D03*
X137900000Y-109700000D03*
X135000000Y-90900000D03*
X144400000Y-107400000D03*
X133900000Y-90500000D03*
X149300000Y-114600000D03*
X140100000Y-108000000D03*
X137500000Y-112100000D03*
X135500000Y-90200000D03*
X138500000Y-103500000D03*
X139500000Y-100500000D03*
X138500000Y-114100000D03*
X133900000Y-108600000D03*
X132800000Y-87700000D03*
X138200000Y-106100000D03*
X133800000Y-106300000D03*
X136500000Y-108100000D03*
X136000000Y-109800000D03*
X139500000Y-105500000D03*
X138500000Y-95500000D03*
X134700000Y-88300000D03*
X138800000Y-109600000D03*
%TO.N,+1V2*%
X146700000Y-81600000D03*
X143000000Y-81750000D03*
%TO.N,+3V3*%
X143750000Y-111000000D03*
X166750000Y-95500000D03*
X143750000Y-110000000D03*
X168250000Y-101500000D03*
X142750000Y-111000000D03*
X142750000Y-110000000D03*
X143250000Y-110500000D03*
X165050000Y-96250000D03*
X156890000Y-113200000D03*
X144750000Y-111000000D03*
X164000000Y-101600000D03*
X161500000Y-94250000D03*
X144750000Y-110000000D03*
X161500000Y-95000000D03*
X162600000Y-91300000D03*
X144250000Y-110500000D03*
%TO.N,/I2C4.SCL*%
X146900000Y-92100000D03*
X158200000Y-86100000D03*
%TO.N,/I2C4.SDA*%
X157800000Y-85600000D03*
X146900000Y-92900000D03*
%TO.N,+1V8*%
X153800000Y-80680000D03*
X141000000Y-81200000D03*
X151600000Y-83700000D03*
X149600000Y-80700000D03*
X140396000Y-80441000D03*
X155503000Y-84226936D03*
X144890000Y-87520000D03*
X147300000Y-89000000D03*
X139731000Y-79809000D03*
%TO.N,/Power/PGD_1V2*%
X156100000Y-83200000D03*
X165480000Y-86430000D03*
%TO.N,/GNSS/WAKEUP*%
X146900000Y-113200000D03*
X142900000Y-101700000D03*
%TO.N,/STM32/STM32 Power/VDD11*%
X148500000Y-100100000D03*
X149300000Y-97700000D03*
X143700000Y-99300000D03*
%TO.N,/USART1.TX*%
X149300000Y-112400000D03*
X146900000Y-102500000D03*
%TO.N,/Display Power/CTRL*%
X166987500Y-92137500D03*
X161550000Y-93200000D03*
%TO.N,/STM32/MAG_INT*%
X162600000Y-110000000D03*
X150900000Y-102500000D03*
%TO.N,/QSPI1.CS*%
X140304000Y-93196000D03*
X146000000Y-89500000D03*
%TO.N,/QSPI1.SCK*%
X141300000Y-95300000D03*
X147200000Y-89500000D03*
%TO.N,/QSPI1.IO3*%
X144200000Y-88400000D03*
X140300000Y-94500000D03*
%TO.N,/QSPI1.IO0*%
X142100000Y-95300000D03*
X147800000Y-89380000D03*
%TO.N,/QSPI1.IO1*%
X142100000Y-94500000D03*
X148300000Y-88900000D03*
%TO.N,/QSPI2.SCK*%
X137200000Y-82400000D03*
X144900000Y-84000000D03*
%TO.N,/QSPI2.CS*%
X136706000Y-82645000D03*
X145100000Y-85300000D03*
%TO.N,/QSPI2.IO2*%
X145800000Y-84000000D03*
%TO.N,/QSPI2.IO3*%
X146200000Y-83600000D03*
%TO.N,/QSPI2.IO1*%
X138839000Y-80706000D03*
X147000000Y-83500000D03*
%TO.N,/QSPI2.IO0*%
X140283524Y-79924524D03*
X148070000Y-85260000D03*
%TO.N,/SDMMC1.CK*%
X144500000Y-101700000D03*
X143700000Y-103300000D03*
%TO.N,/SDMMC1.CKIN*%
X148500000Y-101700000D03*
X143100000Y-105900000D03*
%TO.N,/Power/INT*%
X157400000Y-85100000D03*
X146100000Y-92900000D03*
%TO.N,/Power/THR*%
X162978500Y-84621500D03*
X160100000Y-85200000D03*
%TO.N,/USART1.RX*%
X148900000Y-113500000D03*
X147000000Y-108700000D03*
%TO.N,/RFID/SHDN*%
X153900000Y-115300000D03*
X151400000Y-104500000D03*
%TO.N,/LPUART1.TX*%
X144500000Y-93700000D03*
X140250000Y-97500000D03*
%TO.N,/STM32/ALS_INT*%
X151700000Y-102500000D03*
X163000000Y-106900000D03*
%TO.N,/STM32/IMU_INT1*%
X166000000Y-104500000D03*
X150100000Y-100900000D03*
%TO.N,/STM32/DEBUG_LED*%
X161900000Y-91200000D03*
X149300000Y-100100000D03*
%TO.N,/LPUART1.RX*%
X140000000Y-95000000D03*
X142900000Y-93700000D03*
%TO.N,/Bluetooth/RST*%
X135900000Y-86900000D03*
X147900000Y-83400000D03*
%TO.N,/Bluetooth/DECR*%
X138310000Y-89240000D03*
X141100000Y-89400000D03*
%TO.N,/STM32/IMU_INT2*%
X151700000Y-100900000D03*
X165450000Y-100750000D03*
%TO.N,/STM32/BTN*%
X164300000Y-86280000D03*
X146100000Y-93700000D03*
X166800000Y-97750000D03*
%TO.N,/Bluetooth/UART_CTS*%
X143700000Y-93700000D03*
X139858000Y-96371000D03*
%TO.N,/Bluetooth/UART_RTS*%
X140014000Y-95802000D03*
X142900000Y-94500000D03*
%TO.N,/STM32/LRA_EN*%
X154900000Y-83000000D03*
X158500000Y-81400000D03*
%TO.N,/STM32/HR_INT*%
X154500000Y-82600000D03*
X158900000Y-81100000D03*
%TO.N,/Display Connector/RESET*%
X152500000Y-100100000D03*
X164000000Y-100400000D03*
%TO.N,/Display Connector/PCD*%
X161434000Y-101273000D03*
X150900000Y-97700000D03*
%TO.N,/STM32/RFID_PULL*%
X152400000Y-104300000D03*
X149800000Y-103900000D03*
%TO.N,/RFID/RF_IN*%
X154700000Y-115500000D03*
X151590000Y-106800000D03*
%TO.N,/RFID/OUT*%
X149900000Y-104700000D03*
X146440000Y-116200000D03*
%TO.N,/Microphone/DATA*%
X157176600Y-89900000D03*
X150900000Y-96100000D03*
%TO.N,/Microphone/CLOCK*%
X150100000Y-96100000D03*
X155200000Y-91300000D03*
%TO.N,/Power/VBUS_PROTECTED*%
X155500000Y-80700000D03*
X155750000Y-81200000D03*
X161900000Y-84780000D03*
X156000000Y-80700000D03*
%TO.N,/Power/ENCHG*%
X146900000Y-93700000D03*
X163700000Y-87300000D03*
%TD*%
D12*
%TO.N,/STM32/DEBUG_LED*%
X161500000Y-91600000D02*
X161900000Y-91200000D01*
X156400000Y-91600000D02*
X161500000Y-91600000D01*
X155495000Y-92505000D02*
X156400000Y-91600000D01*
X154400000Y-96500000D02*
X155495000Y-95405000D01*
X150741385Y-96500000D02*
X154400000Y-96500000D01*
X149300000Y-100100000D02*
X150500000Y-98900000D01*
X150500000Y-98900000D02*
X150500000Y-96741385D01*
X150500000Y-96741385D02*
X150741385Y-96500000D01*
X155495000Y-95405000D02*
X155495000Y-92505000D01*
D13*
%TO.N,/Power/PGD_1V2*%
X165480000Y-86120000D02*
X165480000Y-86430000D01*
X165160000Y-85800000D02*
X165480000Y-86120000D01*
X160529000Y-86746000D02*
X160744000Y-86961000D01*
X160744000Y-86961000D02*
X161989000Y-86961000D01*
X161989000Y-86961000D02*
X163150000Y-85800000D01*
X163150000Y-85800000D02*
X165160000Y-85800000D01*
D14*
%TO.N,/QSPI1.IO0*%
X141600000Y-94800000D02*
X142100000Y-95300000D01*
X141600000Y-93600000D02*
X141600000Y-94800000D01*
X142300000Y-92900000D02*
X141600000Y-93600000D01*
X144200000Y-92900000D02*
X142300000Y-92900000D01*
X145300000Y-91800000D02*
X144200000Y-92900000D01*
X145300000Y-91500000D02*
X145300000Y-91800000D01*
X146000000Y-90800000D02*
X145300000Y-91500000D01*
X147400000Y-89900000D02*
X146500000Y-90800000D01*
X147800000Y-89380000D02*
X147800000Y-89700000D01*
X147800000Y-89700000D02*
X147600000Y-89900000D01*
X147600000Y-89900000D02*
X147400000Y-89900000D01*
X146500000Y-90800000D02*
X146000000Y-90800000D01*
D12*
%TO.N,/QSPI2.IO0*%
X139987000Y-80221048D02*
X140283524Y-79924524D01*
X139987000Y-81287000D02*
X139987000Y-80221048D01*
X140300000Y-81600000D02*
X139987000Y-81287000D01*
X141300000Y-81600000D02*
X140300000Y-81600000D01*
X141500000Y-81400000D02*
X141300000Y-81600000D01*
X142700000Y-81400000D02*
X141500000Y-81400000D01*
X142900000Y-81200000D02*
X142700000Y-81400000D01*
X147100000Y-81400000D02*
X146900000Y-81200000D01*
X146900000Y-81200000D02*
X142900000Y-81200000D01*
X147489500Y-82700000D02*
X147100000Y-82310500D01*
X147489500Y-84679500D02*
X147489500Y-82700000D01*
X148070000Y-85260000D02*
X147489500Y-84679500D01*
X147100000Y-82310500D02*
X147100000Y-81400000D01*
D15*
%TO.N,+1V8*%
X145820000Y-87520000D02*
X147300000Y-89000000D01*
X144890000Y-87520000D02*
X145820000Y-87520000D01*
D14*
%TO.N,/Power/THR*%
X160600000Y-85700000D02*
X160100000Y-85200000D01*
X162978500Y-84621500D02*
X161900000Y-85700000D01*
X161900000Y-85700000D02*
X160600000Y-85700000D01*
D12*
%TO.N,/Bluetooth/UART_RTS*%
X143300000Y-94900000D02*
X142900000Y-94500000D01*
X143300000Y-96258615D02*
X143300000Y-94900000D01*
X140712000Y-96500000D02*
X143058615Y-96500000D01*
X140014000Y-95802000D02*
X140712000Y-96500000D01*
X143058615Y-96500000D02*
X143300000Y-96258615D01*
%TO.N,/Bluetooth/UART_CTS*%
X144100000Y-94100000D02*
X143700000Y-93700000D01*
X144100000Y-97058615D02*
X144100000Y-94100000D01*
X143858615Y-97300000D02*
X144100000Y-97058615D01*
X140787000Y-97300000D02*
X143858615Y-97300000D01*
X139858000Y-96371000D02*
X140787000Y-97300000D01*
D14*
%TO.N,/Bluetooth/DECR*%
X140500000Y-88800000D02*
X141100000Y-89400000D01*
X138310000Y-89240000D02*
X138750000Y-88800000D01*
X138750000Y-88800000D02*
X140500000Y-88800000D01*
%TO.N,/Display Connector/PCD*%
X153000000Y-97700000D02*
X150900000Y-97700000D01*
X155500000Y-100200000D02*
X153000000Y-97700000D01*
X155500000Y-105600000D02*
X155500000Y-100200000D01*
X156300000Y-106400000D02*
X155500000Y-105600000D01*
X160727000Y-101273000D02*
X160200000Y-101800000D01*
X160200000Y-105500000D02*
X159300000Y-106400000D01*
X159300000Y-106400000D02*
X156300000Y-106400000D01*
X161434000Y-101273000D02*
X160727000Y-101273000D01*
X160200000Y-101800000D02*
X160200000Y-105500000D01*
D13*
%TO.N,/Power/PGD_1V2*%
X157700000Y-84200000D02*
X156700000Y-83200000D01*
X157700000Y-84679828D02*
X157700000Y-84200000D01*
X156700000Y-83200000D02*
X156100000Y-83200000D01*
X159766172Y-86746000D02*
X157700000Y-84679828D01*
X160529000Y-86746000D02*
X159766172Y-86746000D01*
D12*
%TO.N,/QSPI2.CS*%
X143300000Y-85300000D02*
X145100000Y-85300000D01*
X141800000Y-86800000D02*
X143300000Y-85300000D01*
X141100000Y-86800000D02*
X141800000Y-86800000D01*
X137200000Y-82900000D02*
X141100000Y-86800000D01*
X137100000Y-82900000D02*
X137200000Y-82900000D01*
X136845000Y-82645000D02*
X137100000Y-82900000D01*
X136706000Y-82645000D02*
X136845000Y-82645000D01*
%TO.N,/QSPI2.IO2*%
X143850000Y-84000000D02*
X144250000Y-83600000D01*
X143000000Y-84000000D02*
X143850000Y-84000000D01*
X142700000Y-83700000D02*
X143000000Y-84000000D01*
X144250000Y-83600000D02*
X145400000Y-83600000D01*
X141700000Y-83700000D02*
X142700000Y-83700000D01*
X138117000Y-81717000D02*
X140600000Y-84200000D01*
X140600000Y-84200000D02*
X141200000Y-84200000D01*
X141200000Y-84200000D02*
X141700000Y-83700000D01*
X137988359Y-81581000D02*
X138117000Y-81709641D01*
X145400000Y-83600000D02*
X145800000Y-84000000D01*
X138117000Y-81709641D02*
X138117000Y-81717000D01*
%TO.N,/QSPI2.IO3*%
X143863615Y-83105000D02*
X144058615Y-83300000D01*
X145900000Y-83300000D02*
X146200000Y-83600000D01*
X141405000Y-83105000D02*
X143863615Y-83105000D01*
X140500000Y-82200000D02*
X141405000Y-83105000D01*
X144058615Y-83300000D02*
X145900000Y-83300000D01*
X139373000Y-82200000D02*
X140500000Y-82200000D01*
X138364000Y-81191000D02*
X139373000Y-82200000D01*
%TO.N,/QSPI2.IO1*%
X146400000Y-82900000D02*
X147000000Y-83500000D01*
X141600000Y-82800000D02*
X144100000Y-82800000D01*
X144100000Y-82800000D02*
X144200000Y-82900000D01*
X139500000Y-81900000D02*
X140700000Y-81900000D01*
X138839000Y-81239000D02*
X139500000Y-81900000D01*
X138839000Y-80706000D02*
X138839000Y-81239000D01*
X140700000Y-81900000D02*
X141600000Y-82800000D01*
X144200000Y-82900000D02*
X146400000Y-82900000D01*
D14*
%TO.N,/QSPI1.CS*%
X146000000Y-89501041D02*
X146000000Y-89500000D01*
X145501041Y-90000000D02*
X146000000Y-89501041D01*
X144276041Y-91625000D02*
X144525000Y-91376041D01*
X141875000Y-91625000D02*
X144276041Y-91625000D01*
X144525000Y-91376041D02*
X144525000Y-90775000D01*
X144525000Y-90775000D02*
X145300000Y-90000000D01*
X145300000Y-90000000D02*
X145501041Y-90000000D01*
X140304000Y-93196000D02*
X141875000Y-91625000D01*
%TO.N,/QSPI1.IO3*%
X142200000Y-90600000D02*
X143800000Y-90600000D01*
X139824000Y-92976000D02*
X142200000Y-90600000D01*
X139824000Y-93624000D02*
X139824000Y-92976000D01*
X140300000Y-94100000D02*
X139824000Y-93624000D01*
X140300000Y-94500000D02*
X140300000Y-94100000D01*
X143800000Y-90600000D02*
X144200000Y-90200000D01*
X144200000Y-90200000D02*
X144200000Y-88400000D01*
D12*
%TO.N,/Power/ENCHG*%
X147295000Y-94095000D02*
X146900000Y-93700000D01*
X148895000Y-93884307D02*
X148684307Y-94095000D01*
X148895000Y-92605000D02*
X148895000Y-93884307D01*
X149200000Y-92300000D02*
X148895000Y-92605000D01*
X148684307Y-94095000D02*
X147295000Y-94095000D01*
X149650000Y-92300000D02*
X149200000Y-92300000D01*
X153700000Y-88250000D02*
X149650000Y-92300000D01*
X157150000Y-88250000D02*
X153700000Y-88250000D01*
X158000000Y-87400000D02*
X157150000Y-88250000D01*
X162261385Y-87400000D02*
X158000000Y-87400000D01*
X162836385Y-86825000D02*
X162261385Y-87400000D01*
X163700000Y-87300000D02*
X163225000Y-86825000D01*
X163225000Y-86825000D02*
X162836385Y-86825000D01*
%TO.N,/STM32/BTN*%
X146505000Y-94105000D02*
X146100000Y-93700000D01*
X146505000Y-94663615D02*
X146505000Y-94105000D01*
X146741385Y-94900000D02*
X146505000Y-94663615D01*
X150400000Y-94900000D02*
X146741385Y-94900000D01*
X150950000Y-94350000D02*
X150400000Y-94900000D01*
X153800000Y-89200000D02*
X150950000Y-92050000D01*
X150950000Y-92050000D02*
X150950000Y-94350000D01*
X161400000Y-88100000D02*
X160700000Y-88800000D01*
X161900000Y-88100000D02*
X161400000Y-88100000D01*
X158850000Y-88800000D02*
X158450000Y-89200000D01*
X162300000Y-87700000D02*
X161900000Y-88100000D01*
X160700000Y-88800000D02*
X158850000Y-88800000D01*
X164320000Y-87700000D02*
X162300000Y-87700000D01*
X158450000Y-89200000D02*
X153800000Y-89200000D01*
X165020000Y-87000000D02*
X164320000Y-87700000D01*
D14*
%TO.N,+1V2*%
X143150000Y-81600000D02*
X143000000Y-81750000D01*
X146700000Y-81600000D02*
X143150000Y-81600000D01*
%TO.N,/STM32/HR_INT*%
X155300000Y-81800000D02*
X154500000Y-82600000D01*
X155800000Y-81800000D02*
X155300000Y-81800000D01*
X156971000Y-80629000D02*
X155800000Y-81800000D01*
X158429000Y-80629000D02*
X156971000Y-80629000D01*
X158900000Y-81100000D02*
X158429000Y-80629000D01*
%TO.N,/STM32/BTN*%
X165020000Y-87000000D02*
X164300000Y-86280000D01*
X166100000Y-87000000D02*
X165020000Y-87000000D01*
D16*
%TO.N,GND*%
X141300000Y-99800000D02*
X141300000Y-98500000D01*
X141600000Y-100100000D02*
X141300000Y-99800000D01*
X142900000Y-100100000D02*
X141600000Y-100100000D01*
D12*
%TO.N,/I2C4.SCL*%
X154598959Y-86100000D02*
X158200000Y-86100000D01*
X146650000Y-93300000D02*
X146500000Y-93150000D01*
X148100000Y-92600000D02*
X148100000Y-93058615D01*
X147858615Y-93300000D02*
X146650000Y-93300000D01*
X148100000Y-92598959D02*
X154598959Y-86100000D01*
X146500000Y-93150000D02*
X146500000Y-92500000D01*
X148100000Y-92600000D02*
X148100000Y-92598959D01*
X148100000Y-93058615D02*
X147858615Y-93300000D01*
X146500000Y-92500000D02*
X146900000Y-92100000D01*
D14*
%TO.N,/I2C4.SDA*%
X148250000Y-91750000D02*
X154400000Y-85600000D01*
X154400000Y-85600000D02*
X157800000Y-85600000D01*
X146900000Y-92900000D02*
X148050000Y-91750000D01*
X148050000Y-91750000D02*
X148250000Y-91750000D01*
%TO.N,/GNSS/WAKEUP*%
X146900000Y-113200000D02*
X146100000Y-113200000D01*
X145500000Y-112600000D02*
X145500000Y-109750000D01*
X141900000Y-106150000D02*
X141900000Y-102700000D01*
X141900000Y-102700000D02*
X142900000Y-101700000D01*
X145500000Y-109750000D02*
X141900000Y-106150000D01*
X146100000Y-113200000D02*
X145500000Y-112600000D01*
%TO.N,/USART1.TX*%
X148200000Y-105000000D02*
X148200000Y-106300000D01*
X147500000Y-111700000D02*
X148200000Y-112400000D01*
X147500000Y-107000000D02*
X147500000Y-111700000D01*
X148200000Y-106300000D02*
X147500000Y-107000000D01*
X148200000Y-112400000D02*
X149300000Y-112400000D01*
X146900000Y-102500000D02*
X146900000Y-103700000D01*
X146900000Y-103700000D02*
X148200000Y-105000000D01*
D12*
%TO.N,/Display Power/CTRL*%
X166525000Y-92600000D02*
X166987500Y-92137500D01*
X161550000Y-93200000D02*
X162150000Y-92600000D01*
X162150000Y-92600000D02*
X166525000Y-92600000D01*
D14*
%TO.N,/STM32/MAG_INT*%
X152200000Y-103800000D02*
X150900000Y-102500000D01*
X162600000Y-110000000D02*
X161500000Y-108900000D01*
X161500000Y-108900000D02*
X155401041Y-108900000D01*
X153100000Y-104200000D02*
X152700000Y-103800000D01*
X155401041Y-108900000D02*
X153100000Y-106598959D01*
X152700000Y-103800000D02*
X152200000Y-103800000D01*
X153100000Y-106598959D02*
X153100000Y-104200000D01*
%TO.N,/QSPI1.SCK*%
X141100000Y-93250000D02*
X141825000Y-92525000D01*
X141825000Y-92525000D02*
X143975000Y-92525000D01*
X144900000Y-91600000D02*
X144900000Y-91200000D01*
X143975000Y-92525000D02*
X144900000Y-91600000D01*
X141300000Y-95300000D02*
X141100000Y-95100000D01*
X144900000Y-91200000D02*
X145800000Y-90300000D01*
X145800000Y-90300000D02*
X146400000Y-90300000D01*
X141100000Y-95100000D02*
X141100000Y-93250000D01*
X146400000Y-90300000D02*
X147200000Y-89500000D01*
%TO.N,/QSPI1.IO1*%
X142723959Y-93275000D02*
X144575000Y-93275000D01*
X142100000Y-94500000D02*
X142100000Y-93900000D01*
X146400000Y-91200000D02*
X146700000Y-91200000D01*
X147500000Y-90400000D02*
X147650000Y-90400000D01*
X145700000Y-92150000D02*
X145700000Y-91900000D01*
X144575000Y-93275000D02*
X145700000Y-92150000D01*
X142100000Y-93900000D02*
X142475000Y-93525000D01*
X146700000Y-91200000D02*
X147500000Y-90400000D01*
X142475000Y-93525000D02*
X142475000Y-93523959D01*
X145700000Y-91900000D02*
X146400000Y-91200000D01*
X147650000Y-90400000D02*
X148300000Y-89750000D01*
X148300000Y-89750000D02*
X148300000Y-88900000D01*
X142475000Y-93523959D02*
X142723959Y-93275000D01*
D12*
%TO.N,/QSPI2.SCK*%
X141800000Y-85200000D02*
X141200000Y-85200000D01*
X141200000Y-85200000D02*
X139200000Y-83200000D01*
X144225000Y-84000000D02*
X143525000Y-84700000D01*
X142300000Y-84700000D02*
X141800000Y-85200000D01*
X138000000Y-83200000D02*
X137200000Y-82400000D01*
X144900000Y-84000000D02*
X144225000Y-84000000D01*
X143525000Y-84700000D02*
X142300000Y-84700000D01*
X139200000Y-83200000D02*
X138000000Y-83200000D01*
D17*
%TO.N,/SDMMC1.CK*%
X144500000Y-101700000D02*
X144500000Y-102500000D01*
X144500000Y-102500000D02*
X143700000Y-103300000D01*
%TO.N,/SDMMC1.CKIN*%
X147700000Y-101700000D02*
X147100000Y-101100000D01*
X143100000Y-105878697D02*
X143100000Y-105900000D01*
X147100000Y-101100000D02*
X145900000Y-101100000D01*
X143700000Y-105278697D02*
X143100000Y-105878697D01*
X145200000Y-102600000D02*
X143700000Y-104100000D01*
X148500000Y-101700000D02*
X147700000Y-101700000D01*
X145200000Y-101800000D02*
X145200000Y-102600000D01*
X143700000Y-104100000D02*
X143700000Y-105278697D01*
X145900000Y-101100000D02*
X145200000Y-101800000D01*
D14*
%TO.N,/Power/INT*%
X148800000Y-90500000D02*
X148100000Y-90500000D01*
X146100000Y-92200000D02*
X146100000Y-92900000D01*
X147000000Y-91600000D02*
X146700000Y-91600000D01*
X148100000Y-90500000D02*
X147000000Y-91600000D01*
X157400000Y-85100000D02*
X154200000Y-85100000D01*
X146700000Y-91600000D02*
X146100000Y-92200000D01*
X154200000Y-85100000D02*
X148800000Y-90500000D01*
%TO.N,/USART1.RX*%
X147000000Y-108700000D02*
X147000000Y-112100000D01*
X148400000Y-113500000D02*
X148900000Y-113500000D01*
X147000000Y-112100000D02*
X148400000Y-113500000D01*
%TO.N,/RFID/SHDN*%
X152800000Y-111400000D02*
X152800000Y-114200000D01*
X151400000Y-104500000D02*
X151000000Y-104900000D01*
X151000000Y-104900000D02*
X151000000Y-109600000D01*
X151000000Y-109600000D02*
X152800000Y-111400000D01*
X152800000Y-114200000D02*
X153900000Y-115300000D01*
D12*
%TO.N,/LPUART1.TX*%
X144300000Y-98000000D02*
X144200000Y-98100000D01*
X144500000Y-93700000D02*
X144900000Y-94100000D01*
X140258615Y-97500000D02*
X140250000Y-97500000D01*
X144900000Y-94100000D02*
X144900000Y-97400000D01*
X140858615Y-98100000D02*
X140258615Y-97500000D01*
X144900000Y-97400000D02*
X144300000Y-98000000D01*
X144200000Y-98100000D02*
X142500000Y-98100000D01*
X142500000Y-98100000D02*
X140858615Y-98100000D01*
D14*
%TO.N,/STM32/ALS_INT*%
X160650000Y-108400000D02*
X155600000Y-108400000D01*
X153500000Y-103800000D02*
X153025000Y-103325000D01*
X153500000Y-106300000D02*
X153500000Y-105500000D01*
X153500000Y-105500000D02*
X153500000Y-103800000D01*
X151700000Y-102700000D02*
X151700000Y-102500000D01*
X153025000Y-103325000D02*
X152325000Y-103325000D01*
X163000000Y-106900000D02*
X162150000Y-106900000D01*
X152325000Y-103325000D02*
X151700000Y-102700000D01*
X162150000Y-106900000D02*
X160650000Y-108400000D01*
X155600000Y-108400000D02*
X153500000Y-106300000D01*
%TO.N,/STM32/IMU_INT1*%
X154000000Y-102300000D02*
X153400000Y-101700000D01*
X164825000Y-104375000D02*
X164000000Y-105200000D01*
X164000000Y-105200000D02*
X163000000Y-105200000D01*
X150900000Y-101700000D02*
X150100000Y-100900000D01*
X163000000Y-105200000D02*
X160300000Y-107900000D01*
X160300000Y-107900000D02*
X155800000Y-107900000D01*
X154000000Y-106100000D02*
X154000000Y-102300000D01*
X155800000Y-107900000D02*
X154000000Y-106100000D01*
X165875000Y-104375000D02*
X164825000Y-104375000D01*
X153400000Y-101700000D02*
X150900000Y-101700000D01*
X166000000Y-104500000D02*
X165875000Y-104375000D01*
D12*
%TO.N,/LPUART1.RX*%
X140000000Y-95000000D02*
X140700000Y-95700000D01*
X140700000Y-95700000D02*
X142300000Y-95700000D01*
X142500000Y-94100000D02*
X142900000Y-93700000D01*
X142500000Y-95500000D02*
X142500000Y-94100000D01*
X142300000Y-95700000D02*
X142500000Y-95500000D01*
D14*
%TO.N,/Bluetooth/RST*%
X145600000Y-85800000D02*
X143600000Y-85800000D01*
X138300000Y-85900000D02*
X137700000Y-85900000D01*
X148700000Y-86200000D02*
X146000000Y-86200000D01*
X137700000Y-85900000D02*
X136700000Y-86900000D01*
X143600000Y-85800000D02*
X141600000Y-87800000D01*
X141600000Y-87800000D02*
X140200000Y-87800000D01*
X140200000Y-87800000D02*
X138300000Y-85900000D01*
X149100000Y-85800000D02*
X148700000Y-86200000D01*
X147900000Y-83400000D02*
X149100000Y-84600000D01*
X136700000Y-86900000D02*
X135900000Y-86900000D01*
X146000000Y-86200000D02*
X145600000Y-85800000D01*
X149100000Y-84600000D02*
X149100000Y-85800000D01*
%TO.N,/STM32/IMU_INT2*%
X163200000Y-101000000D02*
X162800000Y-101400000D01*
X165200000Y-101000000D02*
X163200000Y-101000000D01*
X165450000Y-100750000D02*
X165200000Y-101000000D01*
X161200000Y-106100000D02*
X159900000Y-107400000D01*
X162800000Y-102600000D02*
X161200000Y-104200000D01*
X162800000Y-101400000D02*
X162800000Y-102600000D01*
X153900000Y-100900000D02*
X151700000Y-100900000D01*
X154500000Y-101500000D02*
X153900000Y-100900000D01*
X154500000Y-105900000D02*
X154500000Y-101500000D01*
X156000000Y-107400000D02*
X154500000Y-105900000D01*
X161200000Y-104200000D02*
X161200000Y-106100000D01*
X159900000Y-107400000D02*
X156000000Y-107400000D01*
%TO.N,/STM32/BTN*%
X167225000Y-95387500D02*
X167412500Y-95200000D01*
X166900000Y-97100000D02*
X166901041Y-97100000D01*
X167100000Y-90600000D02*
X167100000Y-88800000D01*
X166700000Y-87600000D02*
X166100000Y-87000000D01*
X167412500Y-95200000D02*
X167412500Y-90912500D01*
X167412500Y-90912500D02*
X167100000Y-90600000D01*
X167225000Y-96776041D02*
X167225000Y-95387500D01*
X166700000Y-88400000D02*
X166700000Y-87600000D01*
X167100000Y-88800000D02*
X166700000Y-88400000D01*
X166800000Y-97750000D02*
X166800000Y-97200000D01*
X166800000Y-97200000D02*
X166900000Y-97100000D01*
X166901041Y-97100000D02*
X167225000Y-96776041D01*
%TO.N,/STM32/LRA_EN*%
X154900000Y-83000000D02*
X155600000Y-82300000D01*
X155600000Y-82300000D02*
X157600000Y-82300000D01*
X157600000Y-82300000D02*
X158500000Y-81400000D01*
%TO.N,/Display Connector/RESET*%
X156100000Y-106900000D02*
X155000000Y-105800000D01*
X164000000Y-100400000D02*
X162850000Y-100400000D01*
X162100000Y-102300000D02*
X160700000Y-103700000D01*
X162850000Y-100400000D02*
X162100000Y-101150000D01*
X155000000Y-105800000D02*
X155000000Y-101000000D01*
X160700000Y-103700000D02*
X160700000Y-105800000D01*
X154100000Y-100100000D02*
X152500000Y-100100000D01*
X159600000Y-106900000D02*
X156100000Y-106900000D01*
X160700000Y-105800000D02*
X159600000Y-106900000D01*
X155000000Y-101000000D02*
X154100000Y-100100000D01*
X162100000Y-101150000D02*
X162100000Y-102300000D01*
%TO.N,/STM32/RFID_PULL*%
X151500000Y-103900000D02*
X149800000Y-103900000D01*
X151900000Y-104300000D02*
X151500000Y-103900000D01*
X152400000Y-104300000D02*
X151900000Y-104300000D01*
%TO.N,/RFID/RF_IN*%
X154900000Y-112000000D02*
X154500000Y-111600000D01*
X152600000Y-108400000D02*
X151590000Y-107390000D01*
X154700000Y-115500000D02*
X154900000Y-115300000D01*
X154900000Y-115300000D02*
X154900000Y-112000000D01*
X154000000Y-111600000D02*
X152600000Y-110200000D01*
X152600000Y-110200000D02*
X152600000Y-108400000D01*
X154500000Y-111600000D02*
X154000000Y-111600000D01*
X151590000Y-107390000D02*
X151590000Y-106800000D01*
%TO.N,/RFID/OUT*%
X149900000Y-114800000D02*
X149900000Y-104700000D01*
X146440000Y-116200000D02*
X147340000Y-115300000D01*
X149400000Y-115300000D02*
X149900000Y-114800000D01*
X147340000Y-115300000D02*
X149400000Y-115300000D01*
%TO.N,/Microphone/DATA*%
X156100000Y-91100000D02*
X154800000Y-92400000D01*
X154400000Y-92400000D02*
X153650000Y-93150000D01*
X153650000Y-95700000D02*
X153250000Y-96100000D01*
X156100000Y-90976600D02*
X156100000Y-91100000D01*
X153650000Y-93150000D02*
X153650000Y-95700000D01*
X153250000Y-96100000D02*
X150900000Y-96100000D01*
X157176600Y-89900000D02*
X156100000Y-90976600D01*
X154800000Y-92400000D02*
X154400000Y-92400000D01*
D12*
%TO.N,/Microphone/CLOCK*%
X150500000Y-95700000D02*
X150100000Y-96100000D01*
X151700000Y-95300000D02*
X151300000Y-95700000D01*
X155200000Y-91300000D02*
X154675000Y-90775000D01*
X153923959Y-90775000D02*
X151700000Y-92998958D01*
X151700000Y-92998958D02*
X151700000Y-95300000D01*
X154675000Y-90775000D02*
X153923959Y-90775000D01*
X151300000Y-95700000D02*
X150500000Y-95700000D01*
%TD*%
%TA.AperFunction,Conductor*%
%TO.N,GND*%
G36*
X135903437Y-84168698D02*
G01*
X135942849Y-84192849D01*
X137410187Y-85660187D01*
X137435810Y-85704568D01*
X137435810Y-85755814D01*
X137410187Y-85800194D01*
X136614881Y-86595503D01*
X136582763Y-86616964D01*
X136544877Y-86624500D01*
X136155111Y-86624500D01*
X136110166Y-86613710D01*
X136108587Y-86612905D01*
X136009661Y-86562500D01*
X136009660Y-86562499D01*
X136009659Y-86562499D01*
X135900000Y-86545130D01*
X135790340Y-86562499D01*
X135691414Y-86612904D01*
X135691413Y-86612904D01*
X135691413Y-86612905D01*
X135670001Y-86634316D01*
X135625623Y-86659938D01*
X135574377Y-86659938D01*
X135529998Y-86634316D01*
X135508587Y-86612905D01*
X135409661Y-86562500D01*
X135409660Y-86562499D01*
X135409659Y-86562499D01*
X135316731Y-86547781D01*
X135299999Y-86539907D01*
X135283269Y-86547780D01*
X135190339Y-86562500D01*
X135142068Y-86587095D01*
X135091414Y-86612904D01*
X135012904Y-86691414D01*
X134962499Y-86790340D01*
X134945130Y-86899999D01*
X134962499Y-87009659D01*
X134962499Y-87009660D01*
X134962500Y-87009661D01*
X135012905Y-87108587D01*
X135091413Y-87187095D01*
X135190339Y-87237500D01*
X135300000Y-87254869D01*
X135409661Y-87237500D01*
X135508587Y-87187095D01*
X135529998Y-87165683D01*
X135574377Y-87140062D01*
X135625623Y-87140062D01*
X135670001Y-87165683D01*
X135691413Y-87187095D01*
X135790339Y-87237500D01*
X135900000Y-87254869D01*
X136009661Y-87237500D01*
X136108587Y-87187095D01*
X136108587Y-87187094D01*
X136110166Y-87186290D01*
X136155111Y-87175500D01*
X136663116Y-87175500D01*
X136682428Y-87177401D01*
X136700000Y-87180897D01*
X136727132Y-87175500D01*
X136727133Y-87175500D01*
X136807495Y-87159515D01*
X136849465Y-87131471D01*
X136875622Y-87113994D01*
X136875622Y-87113993D01*
X136886342Y-87106831D01*
X136886347Y-87106827D01*
X136890711Y-87103910D01*
X136898624Y-87098624D01*
X136908578Y-87083725D01*
X136920887Y-87068728D01*
X137785121Y-86204496D01*
X137817238Y-86183036D01*
X137855124Y-86175500D01*
X137884492Y-86175500D01*
X137922378Y-86183036D01*
X137954496Y-86204496D01*
X140105496Y-88355496D01*
X140132590Y-88406186D01*
X140126956Y-88463386D01*
X140090493Y-88507815D01*
X140035492Y-88524500D01*
X138786884Y-88524500D01*
X138767571Y-88522598D01*
X138750000Y-88519103D01*
X138749999Y-88519103D01*
X138741993Y-88520695D01*
X138722868Y-88524500D01*
X138722867Y-88524500D01*
X138687402Y-88531554D01*
X138642504Y-88540485D01*
X138609558Y-88562500D01*
X138609555Y-88562502D01*
X138579543Y-88582554D01*
X138579456Y-88582612D01*
X138551375Y-88601375D01*
X138541423Y-88616269D01*
X138529114Y-88631268D01*
X138291457Y-88868925D01*
X138236942Y-88896702D01*
X138200340Y-88902499D01*
X138101414Y-88952904D01*
X138022904Y-89031414D01*
X137972499Y-89130340D01*
X137955130Y-89239999D01*
X137972499Y-89349659D01*
X137972499Y-89349660D01*
X137972500Y-89349661D01*
X138022905Y-89448587D01*
X138044315Y-89469997D01*
X138069936Y-89514375D01*
X138069937Y-89565621D01*
X138044315Y-89610001D01*
X138012906Y-89641410D01*
X137962499Y-89740340D01*
X137945130Y-89850000D01*
X137962499Y-89959659D01*
X137962499Y-89959660D01*
X137962500Y-89959661D01*
X138012905Y-90058587D01*
X138091413Y-90137095D01*
X138190339Y-90187500D01*
X138300000Y-90204869D01*
X138409661Y-90187500D01*
X138508587Y-90137095D01*
X138587095Y-90058587D01*
X138637500Y-89959661D01*
X138654869Y-89850000D01*
X138654868Y-89849999D01*
X138657322Y-89834513D01*
X138659246Y-89834817D01*
X138660614Y-89817372D01*
X138684761Y-89777948D01*
X138724176Y-89753788D01*
X138770263Y-89750159D01*
X138800000Y-89754869D01*
X138909661Y-89737500D01*
X139008587Y-89687095D01*
X139087095Y-89608587D01*
X139137500Y-89509661D01*
X139154869Y-89400000D01*
X139137500Y-89290339D01*
X139101376Y-89219441D01*
X139090663Y-89170613D01*
X139105176Y-89122773D01*
X139141213Y-89088123D01*
X139189587Y-89075500D01*
X140151000Y-89075500D01*
X140200500Y-89088763D01*
X140236737Y-89125000D01*
X140250000Y-89174500D01*
X140250000Y-92119375D01*
X140242464Y-92157261D01*
X140221004Y-92189379D01*
X139655268Y-92755114D01*
X139640269Y-92767423D01*
X139625377Y-92777373D01*
X139616714Y-92790339D01*
X139610007Y-92800376D01*
X139610006Y-92800378D01*
X139592528Y-92826534D01*
X139592516Y-92826550D01*
X139564485Y-92868503D01*
X139564484Y-92868505D01*
X139564485Y-92868505D01*
X139558282Y-92899690D01*
X139556121Y-92910549D01*
X139543102Y-92975999D01*
X139546598Y-92993569D01*
X139548500Y-93012884D01*
X139548500Y-93587116D01*
X139546598Y-93606431D01*
X139543103Y-93624000D01*
X139548500Y-93651131D01*
X139548500Y-93651132D01*
X139564485Y-93731495D01*
X139581723Y-93757293D01*
X139581724Y-93757295D01*
X139609334Y-93798618D01*
X139609340Y-93798625D01*
X139625375Y-93822623D01*
X139640266Y-93832573D01*
X139655269Y-93844885D01*
X139992049Y-94181665D01*
X140019826Y-94236182D01*
X140010255Y-94296614D01*
X139962499Y-94390340D01*
X139945130Y-94500000D01*
X139953603Y-94553490D01*
X139951449Y-94594600D01*
X139932759Y-94631280D01*
X139900767Y-94657187D01*
X139890339Y-94662499D01*
X139890339Y-94662500D01*
X139859418Y-94678254D01*
X139791414Y-94712904D01*
X139712904Y-94791414D01*
X139662499Y-94890340D01*
X139645130Y-94999999D01*
X139662499Y-95109659D01*
X139662499Y-95109660D01*
X139662500Y-95109661D01*
X139712905Y-95208587D01*
X139791413Y-95287095D01*
X139848842Y-95316356D01*
X139888309Y-95352838D01*
X139902898Y-95404565D01*
X139888310Y-95456293D01*
X139848844Y-95492775D01*
X139805415Y-95514903D01*
X139726904Y-95593414D01*
X139676499Y-95692340D01*
X139659130Y-95802000D01*
X139676500Y-95911661D01*
X139695646Y-95949238D01*
X139706300Y-95999362D01*
X139690466Y-96048099D01*
X139652386Y-96082389D01*
X139649417Y-96083901D01*
X139570904Y-96162414D01*
X139520499Y-96261340D01*
X139503130Y-96371000D01*
X139520499Y-96480659D01*
X139520499Y-96480660D01*
X139520500Y-96480661D01*
X139570905Y-96579587D01*
X139649413Y-96658095D01*
X139748339Y-96708500D01*
X139835356Y-96722282D01*
X139864810Y-96731852D01*
X139889869Y-96750058D01*
X140151287Y-97011476D01*
X140179064Y-97065993D01*
X140169493Y-97126425D01*
X140126228Y-97169690D01*
X140041414Y-97212904D01*
X139962904Y-97291414D01*
X139912499Y-97390340D01*
X139895130Y-97500000D01*
X139912499Y-97609659D01*
X139912499Y-97609660D01*
X139912500Y-97609661D01*
X139962905Y-97708587D01*
X140009315Y-97754997D01*
X140034936Y-97799372D01*
X140034939Y-97850614D01*
X140019583Y-97877217D01*
X140020024Y-97877442D01*
X140012905Y-97891412D01*
X140012905Y-97891413D01*
X140001584Y-97913632D01*
X139962499Y-97990340D01*
X139945130Y-98100000D01*
X139962499Y-98209659D01*
X139962499Y-98209660D01*
X139962500Y-98209661D01*
X140012905Y-98308587D01*
X140091413Y-98387095D01*
X140139880Y-98411790D01*
X140179346Y-98448273D01*
X140193935Y-98500000D01*
X140179346Y-98551727D01*
X140139880Y-98588210D01*
X140091414Y-98612904D01*
X140012904Y-98691414D01*
X139962499Y-98790340D01*
X139945130Y-98899999D01*
X139962499Y-99009659D01*
X139962499Y-99009660D01*
X139962500Y-99009661D01*
X140012905Y-99108587D01*
X140091413Y-99187095D01*
X140190339Y-99237500D01*
X140300000Y-99254869D01*
X140409661Y-99237500D01*
X140508587Y-99187095D01*
X140587095Y-99108587D01*
X140637500Y-99009661D01*
X140654869Y-98900000D01*
X140637500Y-98790339D01*
X140587095Y-98691413D01*
X140508587Y-98612905D01*
X140460117Y-98588208D01*
X140420653Y-98551727D01*
X140406064Y-98500000D01*
X140420653Y-98448273D01*
X140460117Y-98411791D01*
X140508587Y-98387095D01*
X140586445Y-98309236D01*
X140624626Y-98285495D01*
X140669373Y-98281089D01*
X140711453Y-98296930D01*
X140718742Y-98301801D01*
X140729873Y-98309238D01*
X140762825Y-98331256D01*
X140858615Y-98350310D01*
X140873235Y-98347401D01*
X140892548Y-98345500D01*
X141653688Y-98345500D01*
X141707608Y-98361472D01*
X141744129Y-98404234D01*
X141751468Y-98459986D01*
X141745597Y-98497061D01*
X141745131Y-98500000D01*
X141762499Y-98609659D01*
X141762499Y-98609660D01*
X141762500Y-98609661D01*
X141812905Y-98708587D01*
X141891413Y-98787095D01*
X141990339Y-98837500D01*
X142100000Y-98854869D01*
X142135513Y-98849244D01*
X142191266Y-98856584D01*
X142234028Y-98893106D01*
X142250000Y-98947025D01*
X142250000Y-100452975D01*
X142234028Y-100506894D01*
X142191266Y-100543416D01*
X142135513Y-100550755D01*
X142100000Y-100545131D01*
X142099999Y-100545131D01*
X141990340Y-100562499D01*
X141891414Y-100612904D01*
X141812904Y-100691414D01*
X141762499Y-100790340D01*
X141745130Y-100899999D01*
X141762499Y-101009659D01*
X141762499Y-101009660D01*
X141762500Y-101009661D01*
X141812905Y-101108587D01*
X141891413Y-101187095D01*
X141990339Y-101237500D01*
X142100000Y-101254869D01*
X142135513Y-101249244D01*
X142191266Y-101256584D01*
X142234028Y-101293106D01*
X142250000Y-101347025D01*
X142250000Y-101919375D01*
X142242464Y-101957261D01*
X142221003Y-101989379D01*
X141731267Y-102479114D01*
X141716269Y-102491423D01*
X141701375Y-102501375D01*
X141682611Y-102529455D01*
X141682612Y-102529456D01*
X141682554Y-102529543D01*
X141674515Y-102541575D01*
X141674514Y-102541577D01*
X141661824Y-102560569D01*
X141640485Y-102592504D01*
X141635833Y-102615890D01*
X141626562Y-102662500D01*
X141619103Y-102700000D01*
X141620955Y-102709312D01*
X141622598Y-102717569D01*
X141624500Y-102736884D01*
X141624500Y-106113116D01*
X141622598Y-106132428D01*
X141619103Y-106150000D01*
X141624500Y-106177132D01*
X141624500Y-106177133D01*
X141634036Y-106225072D01*
X141640485Y-106257495D01*
X141667639Y-106298134D01*
X141684714Y-106323689D01*
X141701375Y-106348623D01*
X141716266Y-106358573D01*
X141731269Y-106370885D01*
X144485880Y-109125496D01*
X144512974Y-109176186D01*
X144507340Y-109233386D01*
X144470877Y-109277815D01*
X144415876Y-109294500D01*
X142530652Y-109294500D01*
X142490559Y-109298449D01*
X142462239Y-109304082D01*
X142388164Y-109334764D01*
X142364161Y-109350803D01*
X142333017Y-109376363D01*
X141876363Y-109833017D01*
X141850803Y-109864161D01*
X141834764Y-109888164D01*
X141804082Y-109962239D01*
X141798449Y-109990559D01*
X141794500Y-110030652D01*
X141794500Y-111581930D01*
X141800176Y-111629901D01*
X141801607Y-111635859D01*
X141800625Y-111685842D01*
X141775346Y-111728971D01*
X141712906Y-111791411D01*
X141662499Y-111890340D01*
X141645130Y-111999999D01*
X141662499Y-112109659D01*
X141662499Y-112109660D01*
X141662500Y-112109661D01*
X141712905Y-112208587D01*
X141775347Y-112271029D01*
X141800624Y-112314156D01*
X141801608Y-112364138D01*
X141800176Y-112370101D01*
X141794500Y-112418070D01*
X141794500Y-112581930D01*
X141800176Y-112629901D01*
X141801607Y-112635859D01*
X141800625Y-112685842D01*
X141775346Y-112728971D01*
X141712906Y-112791411D01*
X141662499Y-112890340D01*
X141645130Y-112999999D01*
X141662499Y-113109659D01*
X141662499Y-113109660D01*
X141662500Y-113109661D01*
X141712905Y-113208587D01*
X141775347Y-113271029D01*
X141800624Y-113314156D01*
X141801608Y-113364138D01*
X141800176Y-113370101D01*
X141794500Y-113418070D01*
X141794500Y-113581930D01*
X141800176Y-113629901D01*
X141801607Y-113635859D01*
X141800625Y-113685842D01*
X141775346Y-113728971D01*
X141712906Y-113791411D01*
X141662499Y-113890340D01*
X141645130Y-113999999D01*
X141662499Y-114109659D01*
X141662499Y-114109660D01*
X141662500Y-114109661D01*
X141712905Y-114208587D01*
X141775347Y-114271029D01*
X141800624Y-114314156D01*
X141801608Y-114364138D01*
X141800176Y-114370101D01*
X141794500Y-114418070D01*
X141794500Y-114581930D01*
X141800176Y-114629901D01*
X141801607Y-114635859D01*
X141800625Y-114685842D01*
X141775346Y-114728971D01*
X141712906Y-114791411D01*
X141662499Y-114890340D01*
X141645130Y-115000000D01*
X141662499Y-115109659D01*
X141662499Y-115109660D01*
X141662500Y-115109661D01*
X141712905Y-115208587D01*
X141775347Y-115271029D01*
X141800624Y-115314156D01*
X141801608Y-115364138D01*
X141800176Y-115370101D01*
X141794500Y-115418070D01*
X141794500Y-116522922D01*
X141782274Y-116570579D01*
X141748617Y-116606466D01*
X141701841Y-116621719D01*
X141653500Y-116612571D01*
X141563870Y-116570579D01*
X141520958Y-116550474D01*
X141516992Y-116548507D01*
X140760524Y-116151932D01*
X140756651Y-116149789D01*
X140018708Y-115719818D01*
X140014933Y-115717504D01*
X140009037Y-115713706D01*
X139619130Y-115462524D01*
X139296931Y-115254960D01*
X139293264Y-115252480D01*
X138596660Y-114758303D01*
X138593108Y-114755662D01*
X137919287Y-114230833D01*
X137915856Y-114228035D01*
X137266176Y-113673614D01*
X137262874Y-113670666D01*
X136638624Y-113087750D01*
X136635457Y-113084657D01*
X136037904Y-112474431D01*
X136034878Y-112471200D01*
X135971136Y-112400000D01*
X135465183Y-111834849D01*
X135462309Y-111831491D01*
X134921627Y-111170305D01*
X134918910Y-111166826D01*
X134823332Y-111038655D01*
X134408348Y-110482156D01*
X134405783Y-110478552D01*
X134377466Y-110436807D01*
X133967902Y-109833017D01*
X133926319Y-109771714D01*
X133923917Y-109767996D01*
X133860265Y-109664482D01*
X133845614Y-109610795D01*
X133862240Y-109557686D01*
X133904889Y-109521937D01*
X133960081Y-109514844D01*
X134036000Y-109526869D01*
X134145661Y-109509500D01*
X134244587Y-109459095D01*
X134323095Y-109380587D01*
X134373500Y-109281661D01*
X134390869Y-109172000D01*
X134379465Y-109100000D01*
X139745130Y-109100000D01*
X139762499Y-109209659D01*
X139762499Y-109209660D01*
X139762500Y-109209661D01*
X139812905Y-109308587D01*
X139891413Y-109387095D01*
X139990339Y-109437500D01*
X140100000Y-109454869D01*
X140209661Y-109437500D01*
X140308587Y-109387095D01*
X140387095Y-109308587D01*
X140437500Y-109209661D01*
X140454869Y-109100000D01*
X140437500Y-108990339D01*
X140387095Y-108891413D01*
X140308587Y-108812905D01*
X140209661Y-108762500D01*
X140209660Y-108762499D01*
X140209659Y-108762499D01*
X140100000Y-108745130D01*
X139990340Y-108762499D01*
X139891414Y-108812904D01*
X139812904Y-108891414D01*
X139762499Y-108990340D01*
X139745130Y-109100000D01*
X134379465Y-109100000D01*
X134373500Y-109062339D01*
X134323095Y-108963413D01*
X134244587Y-108884905D01*
X134145661Y-108834500D01*
X134145660Y-108834499D01*
X134145659Y-108834499D01*
X134036000Y-108817130D01*
X133926340Y-108834499D01*
X133827414Y-108884904D01*
X133748904Y-108963414D01*
X133698499Y-109062340D01*
X133697676Y-109067541D01*
X133671284Y-109120641D01*
X133619282Y-109149134D01*
X133560324Y-109142799D01*
X133515564Y-109103908D01*
X133476531Y-109040431D01*
X133474325Y-109036657D01*
X133059903Y-108289801D01*
X133057849Y-108285897D01*
X133016496Y-108202823D01*
X132677237Y-107521279D01*
X132675357Y-107517278D01*
X132650310Y-107460760D01*
X132360024Y-106805725D01*
X132351535Y-106765615D01*
X132351535Y-105059000D01*
X132364798Y-105009500D01*
X132401035Y-104973263D01*
X132450535Y-104960000D01*
X138041532Y-104960000D01*
X138041533Y-104960000D01*
X138041533Y-104400000D01*
X140545130Y-104400000D01*
X140562499Y-104509659D01*
X140562499Y-104509660D01*
X140562500Y-104509661D01*
X140612905Y-104608587D01*
X140691413Y-104687095D01*
X140790339Y-104737500D01*
X140900000Y-104754869D01*
X141009661Y-104737500D01*
X141108587Y-104687095D01*
X141187095Y-104608587D01*
X141237500Y-104509661D01*
X141254869Y-104400000D01*
X141247898Y-104355991D01*
X141237500Y-104290340D01*
X141237500Y-104290339D01*
X141187095Y-104191413D01*
X141108587Y-104112905D01*
X141009661Y-104062500D01*
X141009660Y-104062499D01*
X141009659Y-104062499D01*
X140900000Y-104045130D01*
X140790340Y-104062499D01*
X140691414Y-104112904D01*
X140612904Y-104191414D01*
X140562499Y-104290340D01*
X140545130Y-104400000D01*
X138041533Y-104400000D01*
X138041533Y-96960000D01*
X138041533Y-96925167D01*
X138040000Y-96917460D01*
X138040000Y-96552540D01*
X138041533Y-96544833D01*
X138041533Y-91960001D01*
X138041533Y-91960000D01*
X138041532Y-91960000D01*
X132450535Y-91960000D01*
X132401035Y-91946737D01*
X132364798Y-91910500D01*
X132351535Y-91861000D01*
X132351535Y-90950000D01*
X139145130Y-90950000D01*
X139162499Y-91059659D01*
X139162499Y-91059660D01*
X139162500Y-91059661D01*
X139212905Y-91158587D01*
X139291413Y-91237095D01*
X139390339Y-91287500D01*
X139500000Y-91304869D01*
X139609661Y-91287500D01*
X139708587Y-91237095D01*
X139787095Y-91158587D01*
X139837500Y-91059661D01*
X139854869Y-90950000D01*
X139852009Y-90931946D01*
X139837500Y-90840340D01*
X139837500Y-90840339D01*
X139787095Y-90741413D01*
X139708587Y-90662905D01*
X139609661Y-90612500D01*
X139609660Y-90612499D01*
X139609659Y-90612499D01*
X139500000Y-90595130D01*
X139390340Y-90612499D01*
X139291414Y-90662904D01*
X139212904Y-90741414D01*
X139162499Y-90840340D01*
X139145130Y-90950000D01*
X132351535Y-90950000D01*
X132351535Y-88140229D01*
X132351536Y-88140226D01*
X132351535Y-88095400D01*
X132351691Y-88089851D01*
X132353406Y-88059307D01*
X132367964Y-87800000D01*
X133545130Y-87800000D01*
X133562499Y-87909659D01*
X133562499Y-87909660D01*
X133562500Y-87909661D01*
X133612905Y-88008587D01*
X133691413Y-88087095D01*
X133790339Y-88137500D01*
X133900000Y-88154869D01*
X134009661Y-88137500D01*
X134108587Y-88087095D01*
X134187095Y-88008587D01*
X134237500Y-87909661D01*
X134239030Y-87899999D01*
X136845130Y-87899999D01*
X136862499Y-88009659D01*
X136862499Y-88009660D01*
X136862500Y-88009661D01*
X136912905Y-88108587D01*
X136991413Y-88187095D01*
X137090339Y-88237500D01*
X137200000Y-88254869D01*
X137309661Y-88237500D01*
X137408587Y-88187095D01*
X137487095Y-88108587D01*
X137537500Y-88009661D01*
X137554869Y-87900000D01*
X137537500Y-87790339D01*
X137487095Y-87691413D01*
X137408587Y-87612905D01*
X137309661Y-87562500D01*
X137309660Y-87562499D01*
X137309659Y-87562499D01*
X137200000Y-87545130D01*
X137090340Y-87562499D01*
X136991414Y-87612904D01*
X136912904Y-87691414D01*
X136862499Y-87790340D01*
X136845130Y-87899999D01*
X134239030Y-87899999D01*
X134254869Y-87800000D01*
X134237500Y-87690339D01*
X134187095Y-87591413D01*
X134108587Y-87512905D01*
X134009661Y-87462500D01*
X134009660Y-87462499D01*
X134009659Y-87462499D01*
X133900000Y-87445130D01*
X133790340Y-87462499D01*
X133691414Y-87512904D01*
X133612904Y-87591414D01*
X133562499Y-87690340D01*
X133545130Y-87800000D01*
X132367964Y-87800000D01*
X132368193Y-87795921D01*
X132369434Y-87784906D01*
X132418281Y-87497397D01*
X132420744Y-87486603D01*
X132501475Y-87206363D01*
X132505130Y-87195916D01*
X132616731Y-86926473D01*
X132621537Y-86916491D01*
X132762600Y-86661246D01*
X132768493Y-86651868D01*
X132805294Y-86599999D01*
X133745130Y-86599999D01*
X133762499Y-86709659D01*
X133762499Y-86709660D01*
X133762500Y-86709661D01*
X133812905Y-86808587D01*
X133891413Y-86887095D01*
X133990339Y-86937500D01*
X134100000Y-86954869D01*
X134209661Y-86937500D01*
X134308587Y-86887095D01*
X134387095Y-86808587D01*
X134437500Y-86709661D01*
X134454869Y-86600000D01*
X134437500Y-86490339D01*
X134387095Y-86391413D01*
X134308587Y-86312905D01*
X134209661Y-86262500D01*
X134209660Y-86262499D01*
X134209659Y-86262499D01*
X134100000Y-86245130D01*
X133990340Y-86262499D01*
X133891414Y-86312904D01*
X133812904Y-86391414D01*
X133762499Y-86490340D01*
X133745130Y-86599999D01*
X132805294Y-86599999D01*
X132937248Y-86414018D01*
X132944167Y-86405344D01*
X132970726Y-86375623D01*
X133139788Y-86186432D01*
X133143573Y-86182428D01*
X133175859Y-86150141D01*
X133175859Y-86150139D01*
X133186794Y-86139205D01*
X133187044Y-86138858D01*
X133566531Y-85758540D01*
X133579353Y-85749304D01*
X133584225Y-85743959D01*
X133584228Y-85743958D01*
X133616012Y-85709091D01*
X133619070Y-85705886D01*
X133632385Y-85692543D01*
X133632389Y-85692536D01*
X133632431Y-85692495D01*
X133640893Y-85681798D01*
X133659916Y-85660933D01*
X133663545Y-85651562D01*
X133674127Y-85631462D01*
X133679790Y-85623176D01*
X133679789Y-85623176D01*
X133679791Y-85623175D01*
X133686224Y-85595684D01*
X133690301Y-85582498D01*
X133700500Y-85556173D01*
X133700500Y-85546125D01*
X133703105Y-85523564D01*
X133704149Y-85519103D01*
X133705394Y-85513785D01*
X133701464Y-85485834D01*
X133700500Y-85472051D01*
X133700500Y-85365479D01*
X133708036Y-85327593D01*
X133729496Y-85295476D01*
X134096942Y-84928029D01*
X134145349Y-84901416D01*
X134200480Y-84904884D01*
X134245170Y-84937353D01*
X134265506Y-84988713D01*
X134258623Y-85024799D01*
X134258953Y-85024852D01*
X134239130Y-85150000D01*
X134256499Y-85259659D01*
X134256499Y-85259660D01*
X134256500Y-85259661D01*
X134306905Y-85358587D01*
X134385413Y-85437095D01*
X134391301Y-85440095D01*
X134429383Y-85474384D01*
X134445219Y-85523121D01*
X134434566Y-85573247D01*
X134433499Y-85575339D01*
X134416130Y-85684999D01*
X134433499Y-85794659D01*
X134433499Y-85794660D01*
X134433500Y-85794661D01*
X134483905Y-85893587D01*
X134562413Y-85972095D01*
X134661339Y-86022500D01*
X134771000Y-86039869D01*
X134849249Y-86027475D01*
X134900214Y-86032831D01*
X134941673Y-86062952D01*
X134962253Y-86109176D01*
X134962499Y-86109660D01*
X134962500Y-86109661D01*
X135012905Y-86208587D01*
X135091413Y-86287095D01*
X135190339Y-86337500D01*
X135283269Y-86352219D01*
X135299999Y-86360092D01*
X135316731Y-86352219D01*
X135409661Y-86337500D01*
X135508587Y-86287095D01*
X135587095Y-86208587D01*
X135637500Y-86109661D01*
X135654869Y-86000000D01*
X135637500Y-85890339D01*
X135587095Y-85791413D01*
X135508587Y-85712905D01*
X135409661Y-85662500D01*
X135409660Y-85662499D01*
X135409659Y-85662499D01*
X135299999Y-85645130D01*
X135221750Y-85657524D01*
X135170783Y-85652167D01*
X135129324Y-85622044D01*
X135108751Y-85575833D01*
X135108500Y-85575341D01*
X135108500Y-85575339D01*
X135058095Y-85476413D01*
X134979587Y-85397905D01*
X134979584Y-85397903D01*
X134973698Y-85394904D01*
X134935614Y-85360612D01*
X134919779Y-85311872D01*
X134930436Y-85261748D01*
X134931500Y-85259661D01*
X134948869Y-85150000D01*
X134931500Y-85040339D01*
X134931499Y-85040338D01*
X134931351Y-85039399D01*
X134933505Y-84998289D01*
X134952195Y-84961609D01*
X134984184Y-84935704D01*
X135079587Y-84887095D01*
X135158095Y-84808587D01*
X135208500Y-84709661D01*
X135225869Y-84600000D01*
X135214411Y-84527659D01*
X135220728Y-84474287D01*
X135254002Y-84432080D01*
X135304426Y-84413478D01*
X135334624Y-84419485D01*
X135334852Y-84418047D01*
X135350338Y-84420499D01*
X135350339Y-84420500D01*
X135460000Y-84437869D01*
X135569661Y-84420500D01*
X135668587Y-84370095D01*
X135747095Y-84291587D01*
X135784636Y-84217907D01*
X135814654Y-84182761D01*
X135857358Y-84165072D01*
X135903437Y-84168698D01*
G37*
%TD.AperFunction*%
%TA.AperFunction,Conductor*%
G36*
X143720826Y-106762623D02*
G01*
X143756864Y-106797272D01*
X143771377Y-106845112D01*
X143764855Y-106874836D01*
X143764953Y-106874852D01*
X143745130Y-106999999D01*
X143762499Y-107109659D01*
X143762499Y-107109660D01*
X143762500Y-107109661D01*
X143812905Y-107208587D01*
X143891413Y-107287095D01*
X143990339Y-107337500D01*
X144100000Y-107354869D01*
X144209661Y-107337500D01*
X144308587Y-107287095D01*
X144329998Y-107265683D01*
X144374377Y-107240062D01*
X144425623Y-107240062D01*
X144470001Y-107265683D01*
X144491413Y-107287095D01*
X144590339Y-107337500D01*
X144700000Y-107354869D01*
X144809661Y-107337500D01*
X144908587Y-107287095D01*
X144929998Y-107265683D01*
X144974377Y-107240062D01*
X145025623Y-107240062D01*
X145070001Y-107265683D01*
X145091413Y-107287095D01*
X145190339Y-107337500D01*
X145300000Y-107354869D01*
X145409661Y-107337500D01*
X145508587Y-107287095D01*
X145529998Y-107265683D01*
X145574377Y-107240062D01*
X145625623Y-107240062D01*
X145670001Y-107265683D01*
X145691413Y-107287095D01*
X145790339Y-107337500D01*
X145900000Y-107354869D01*
X146009661Y-107337500D01*
X146108587Y-107287095D01*
X146187095Y-107208587D01*
X146237500Y-107109661D01*
X146254869Y-107000000D01*
X146240865Y-106911585D01*
X146243019Y-106870479D01*
X146261709Y-106833799D01*
X146293697Y-106807895D01*
X146383587Y-106762095D01*
X146383587Y-106762094D01*
X146386148Y-106760790D01*
X146431092Y-106750000D01*
X147150488Y-106750000D01*
X147201385Y-106764085D01*
X147237799Y-106802334D01*
X147249369Y-106853861D01*
X147243065Y-106872939D01*
X147244327Y-106873191D01*
X147240485Y-106892504D01*
X147240485Y-106892505D01*
X147225952Y-106965569D01*
X147223817Y-106976303D01*
X147219103Y-106999999D01*
X147222598Y-107017569D01*
X147224500Y-107036884D01*
X147224500Y-108264775D01*
X147208528Y-108318694D01*
X147165767Y-108355216D01*
X147110012Y-108362556D01*
X147109662Y-108362500D01*
X147109661Y-108362500D01*
X147000000Y-108345131D01*
X146999999Y-108345131D01*
X146890340Y-108362499D01*
X146791414Y-108412904D01*
X146712904Y-108491414D01*
X146662499Y-108590340D01*
X146645130Y-108699999D01*
X146662499Y-108809659D01*
X146662499Y-108809660D01*
X146662500Y-108809661D01*
X146704154Y-108891413D01*
X146713710Y-108910166D01*
X146724500Y-108955111D01*
X146724500Y-111510413D01*
X146711877Y-111558787D01*
X146677227Y-111594824D01*
X146629387Y-111609337D01*
X146580558Y-111598623D01*
X146509661Y-111562500D01*
X146509660Y-111562499D01*
X146509659Y-111562499D01*
X146400000Y-111545130D01*
X146290340Y-111562499D01*
X146191414Y-111612904D01*
X146112904Y-111691414D01*
X146062499Y-111790340D01*
X146045130Y-111900000D01*
X146062499Y-112009659D01*
X146062499Y-112009660D01*
X146062500Y-112009661D01*
X146112905Y-112108587D01*
X146191413Y-112187095D01*
X146290339Y-112237500D01*
X146400000Y-112254869D01*
X146509661Y-112237500D01*
X146608587Y-112187095D01*
X146608589Y-112187092D01*
X146618431Y-112182078D01*
X146664672Y-112171296D01*
X146710616Y-112183286D01*
X146745692Y-112215288D01*
X146772138Y-112254869D01*
X146801374Y-112298623D01*
X146816266Y-112308573D01*
X146831269Y-112320885D01*
X148072719Y-113562335D01*
X148100496Y-113616852D01*
X148090925Y-113677284D01*
X148047660Y-113720549D01*
X147987228Y-113730120D01*
X147966095Y-113726772D01*
X147856435Y-113744141D01*
X147757509Y-113794546D01*
X147678999Y-113873056D01*
X147628594Y-113971982D01*
X147611225Y-114081641D01*
X147628594Y-114191301D01*
X147628594Y-114191302D01*
X147628595Y-114191303D01*
X147679000Y-114290229D01*
X147757508Y-114368737D01*
X147856434Y-114419142D01*
X147966095Y-114436511D01*
X148075756Y-114419142D01*
X148174682Y-114368737D01*
X148253190Y-114290229D01*
X148303595Y-114191303D01*
X148320964Y-114081642D01*
X148303595Y-113971981D01*
X148277042Y-113919868D01*
X148266638Y-113866189D01*
X148286317Y-113815173D01*
X148330076Y-113782385D01*
X148384566Y-113777827D01*
X148400000Y-113780897D01*
X148417571Y-113777401D01*
X148436884Y-113775500D01*
X148644889Y-113775500D01*
X148689834Y-113786290D01*
X148691412Y-113787094D01*
X148691413Y-113787095D01*
X148790339Y-113837500D01*
X148900000Y-113854869D01*
X149009661Y-113837500D01*
X149108587Y-113787095D01*
X149187095Y-113708587D01*
X149237500Y-113609661D01*
X149254869Y-113500000D01*
X149253744Y-113492900D01*
X149237500Y-113390340D01*
X149237500Y-113390339D01*
X149187095Y-113291413D01*
X149108587Y-113212905D01*
X149009661Y-113162500D01*
X149009660Y-113162499D01*
X149009659Y-113162499D01*
X148900000Y-113145130D01*
X148790340Y-113162499D01*
X148738711Y-113188805D01*
X148691413Y-113212905D01*
X148691412Y-113212905D01*
X148689834Y-113213710D01*
X148644889Y-113224500D01*
X148555124Y-113224500D01*
X148517238Y-113216964D01*
X148485120Y-113195504D01*
X148139553Y-112849937D01*
X148113524Y-112803987D01*
X148114821Y-112751192D01*
X148143076Y-112706576D01*
X148190249Y-112682834D01*
X148199997Y-112680895D01*
X148200000Y-112680896D01*
X148217572Y-112677400D01*
X148236879Y-112675500D01*
X149044889Y-112675500D01*
X149089834Y-112686290D01*
X149091412Y-112687094D01*
X149091413Y-112687095D01*
X149190339Y-112737500D01*
X149300000Y-112754869D01*
X149385513Y-112741325D01*
X149441267Y-112748665D01*
X149484028Y-112785187D01*
X149500000Y-112839106D01*
X149500000Y-114769376D01*
X149492464Y-114807262D01*
X149471004Y-114839380D01*
X149314880Y-114995504D01*
X149282762Y-115016964D01*
X149244876Y-115024500D01*
X147486796Y-115024500D01*
X147435069Y-115009912D01*
X147398587Y-114970446D01*
X147394923Y-114963255D01*
X147378153Y-114930342D01*
X147351271Y-114893342D01*
X147305807Y-114847878D01*
X147248518Y-114818689D01*
X147248512Y-114818687D01*
X147205022Y-114804556D01*
X147141524Y-114794500D01*
X147141522Y-114794500D01*
X147126128Y-114794500D01*
X147088242Y-114786964D01*
X147056124Y-114765504D01*
X146290619Y-113999999D01*
X145920723Y-113630103D01*
X145895446Y-113586974D01*
X145894464Y-113536990D01*
X145918031Y-113492900D01*
X145960137Y-113465946D01*
X146010040Y-113463003D01*
X146072867Y-113475500D01*
X146072868Y-113475500D01*
X146100000Y-113480897D01*
X146117571Y-113477401D01*
X146136884Y-113475500D01*
X146644889Y-113475500D01*
X146689834Y-113486290D01*
X146691412Y-113487094D01*
X146691413Y-113487095D01*
X146790339Y-113537500D01*
X146900000Y-113554869D01*
X147009661Y-113537500D01*
X147108587Y-113487095D01*
X147187095Y-113408587D01*
X147237500Y-113309661D01*
X147254869Y-113200000D01*
X147237500Y-113090339D01*
X147187095Y-112991413D01*
X147108587Y-112912905D01*
X147009661Y-112862500D01*
X147009660Y-112862499D01*
X147009659Y-112862499D01*
X146900000Y-112845130D01*
X146790340Y-112862499D01*
X146738711Y-112888805D01*
X146691413Y-112912905D01*
X146691412Y-112912905D01*
X146689834Y-112913710D01*
X146644889Y-112924500D01*
X146255124Y-112924500D01*
X146217238Y-112916964D01*
X146185120Y-112895504D01*
X145804496Y-112514880D01*
X145783036Y-112482762D01*
X145775500Y-112444876D01*
X145775500Y-109786884D01*
X145777402Y-109767569D01*
X145780897Y-109750000D01*
X145761416Y-109652067D01*
X145760936Y-109647193D01*
X145759515Y-109642506D01*
X145759515Y-109642505D01*
X145698624Y-109551376D01*
X145689630Y-109545366D01*
X145683732Y-109541425D01*
X145668730Y-109529114D01*
X143152438Y-107012822D01*
X143127373Y-106970438D01*
X143125826Y-106921221D01*
X143148182Y-106877348D01*
X143188908Y-106849670D01*
X143237926Y-106845037D01*
X143300000Y-106854869D01*
X143409661Y-106837500D01*
X143508587Y-106787095D01*
X143516688Y-106778993D01*
X143548803Y-106757536D01*
X143586689Y-106750000D01*
X143672453Y-106750000D01*
X143720826Y-106762623D01*
G37*
%TD.AperFunction*%
%TA.AperFunction,Conductor*%
G36*
X149450500Y-106763263D02*
G01*
X149486737Y-106799500D01*
X149500000Y-106849000D01*
X149500000Y-111960894D01*
X149484028Y-112014813D01*
X149441267Y-112051335D01*
X149385513Y-112058675D01*
X149300000Y-112045130D01*
X149190340Y-112062499D01*
X149138711Y-112088805D01*
X149091413Y-112112905D01*
X149091412Y-112112905D01*
X149089834Y-112113710D01*
X149044889Y-112124500D01*
X148355123Y-112124500D01*
X148317237Y-112116964D01*
X148285119Y-112095503D01*
X147804496Y-111614879D01*
X147783036Y-111582762D01*
X147775500Y-111544876D01*
X147775500Y-107155123D01*
X147783036Y-107117237D01*
X147804496Y-107085120D01*
X148110618Y-106778997D01*
X148142736Y-106757536D01*
X148180622Y-106750000D01*
X149401000Y-106750000D01*
X149450500Y-106763263D01*
G37*
%TD.AperFunction*%
%TA.AperFunction,Conductor*%
G36*
X141542378Y-97553036D02*
G01*
X141574496Y-97574496D01*
X141685496Y-97685496D01*
X141712590Y-97736186D01*
X141706956Y-97793386D01*
X141670493Y-97837815D01*
X141615492Y-97854500D01*
X141001312Y-97854500D01*
X140963426Y-97846964D01*
X140931308Y-97825504D01*
X140820308Y-97714504D01*
X140793214Y-97663814D01*
X140798848Y-97606614D01*
X140835311Y-97562185D01*
X140890312Y-97545500D01*
X141504492Y-97545500D01*
X141542378Y-97553036D01*
G37*
%TD.AperFunction*%
%TD*%
%TA.AperFunction,Conductor*%
%TO.N,+3V3*%
G36*
X162966778Y-91112471D02*
G01*
X162994033Y-91145681D01*
X162998244Y-91188437D01*
X162977992Y-91226326D01*
X162912905Y-91291412D01*
X162890000Y-91336366D01*
X162862500Y-91390339D01*
X162845131Y-91500000D01*
X162862500Y-91609661D01*
X162899186Y-91681661D01*
X162912905Y-91708587D01*
X162951992Y-91747674D01*
X162971145Y-91780847D01*
X162971145Y-91819153D01*
X162951992Y-91852326D01*
X162912905Y-91891412D01*
X162906359Y-91904260D01*
X162862500Y-91990339D01*
X162845131Y-92100000D01*
X162862500Y-92209661D01*
X162905170Y-92293406D01*
X162906953Y-92296905D01*
X162913401Y-92345886D01*
X162887588Y-92388009D01*
X162841018Y-92404500D01*
X162195792Y-92404500D01*
X162173153Y-92400653D01*
X162143146Y-92404035D01*
X162134861Y-92404500D01*
X162127971Y-92404500D01*
X162123055Y-92405621D01*
X162121253Y-92406033D01*
X162113078Y-92407422D01*
X162083068Y-92410803D01*
X162063543Y-92418891D01*
X162039940Y-92437714D01*
X162033179Y-92442512D01*
X162027336Y-92446183D01*
X162022455Y-92451064D01*
X162016276Y-92456585D01*
X161992669Y-92475411D01*
X161979382Y-92494137D01*
X161644332Y-92829187D01*
X161614874Y-92847239D01*
X161580432Y-92849950D01*
X161550002Y-92845131D01*
X161550001Y-92845131D01*
X161440339Y-92862500D01*
X161413265Y-92876295D01*
X161341412Y-92912905D01*
X161262905Y-92991412D01*
X161261675Y-92993827D01*
X161212500Y-93090339D01*
X161201036Y-93162717D01*
X161195131Y-93200000D01*
X161202156Y-93244352D01*
X161198152Y-93282447D01*
X161175637Y-93313436D01*
X161140644Y-93329016D01*
X161112339Y-93333499D01*
X161112339Y-93333500D01*
X161013412Y-93383905D01*
X160934905Y-93462412D01*
X160918234Y-93495131D01*
X160884500Y-93561339D01*
X160867131Y-93671000D01*
X160884500Y-93780661D01*
X160934905Y-93879587D01*
X161013413Y-93958095D01*
X161112339Y-94008500D01*
X161222000Y-94025869D01*
X161331661Y-94008500D01*
X161430587Y-93958095D01*
X161509095Y-93879587D01*
X161559500Y-93780661D01*
X161576869Y-93671000D01*
X161569844Y-93626647D01*
X161573848Y-93588552D01*
X161596364Y-93557563D01*
X161631358Y-93541983D01*
X161646662Y-93539558D01*
X161659661Y-93537500D01*
X161758587Y-93487095D01*
X161837095Y-93408587D01*
X161887500Y-93309661D01*
X161904869Y-93200000D01*
X161900048Y-93169566D01*
X161902758Y-93135126D01*
X161920809Y-93105668D01*
X162209304Y-92817174D01*
X162233313Y-92801133D01*
X162261631Y-92795500D01*
X166479208Y-92795500D01*
X166501846Y-92799346D01*
X166502547Y-92799266D01*
X166502548Y-92799267D01*
X166531854Y-92795964D01*
X166540139Y-92795500D01*
X166547025Y-92795500D01*
X166547029Y-92795500D01*
X166553758Y-92793963D01*
X166561915Y-92792577D01*
X166591230Y-92789275D01*
X166591231Y-92789274D01*
X166591935Y-92789195D01*
X166611450Y-92781111D01*
X166612003Y-92780669D01*
X166612006Y-92780669D01*
X166635058Y-92762283D01*
X166641821Y-92757485D01*
X166647663Y-92753816D01*
X166652543Y-92748934D01*
X166658726Y-92743410D01*
X166681779Y-92725027D01*
X166681779Y-92725025D01*
X166682332Y-92724585D01*
X166695615Y-92705862D01*
X166893167Y-92508309D01*
X166922624Y-92490259D01*
X166957064Y-92487548D01*
X166987500Y-92492369D01*
X167097161Y-92475000D01*
X167097163Y-92474998D01*
X167101423Y-92474324D01*
X167143098Y-92479811D01*
X167175062Y-92507110D01*
X167187000Y-92547413D01*
X167187000Y-95075942D01*
X167181367Y-95104261D01*
X167165326Y-95128268D01*
X167071099Y-95222494D01*
X167068291Y-95225159D01*
X167038490Y-95251993D01*
X167028581Y-95274248D01*
X167023043Y-95284448D01*
X167009773Y-95304881D01*
X167008443Y-95313282D01*
X167002960Y-95331794D01*
X167002514Y-95332799D01*
X166999500Y-95339569D01*
X166999500Y-95363927D01*
X166998589Y-95375502D01*
X166994778Y-95399564D01*
X166996979Y-95407779D01*
X166999500Y-95426930D01*
X166999500Y-96190087D01*
X166987562Y-96230390D01*
X166955598Y-96257689D01*
X166913923Y-96263176D01*
X166909663Y-96262501D01*
X166909661Y-96262500D01*
X166800000Y-96245131D01*
X166799999Y-96245131D01*
X166745169Y-96253815D01*
X166690339Y-96262500D01*
X166640875Y-96287702D01*
X166591412Y-96312905D01*
X166512905Y-96391412D01*
X166489423Y-96437500D01*
X166462500Y-96490339D01*
X166445131Y-96600000D01*
X166462500Y-96709661D01*
X166512905Y-96808587D01*
X166591413Y-96887095D01*
X166634866Y-96909235D01*
X166667205Y-96941574D01*
X166674360Y-96986746D01*
X166653597Y-97027496D01*
X166646100Y-97034993D01*
X166643292Y-97037658D01*
X166613490Y-97064493D01*
X166603581Y-97086748D01*
X166598043Y-97096948D01*
X166584773Y-97117381D01*
X166583443Y-97125782D01*
X166577960Y-97144296D01*
X166574500Y-97152069D01*
X166574500Y-97176427D01*
X166573589Y-97188002D01*
X166569778Y-97212064D01*
X166571979Y-97220279D01*
X166574500Y-97239430D01*
X166574500Y-97449166D01*
X166568867Y-97477485D01*
X166552826Y-97501492D01*
X166512905Y-97541412D01*
X166487976Y-97590339D01*
X166462500Y-97640339D01*
X166445131Y-97750000D01*
X166462500Y-97859661D01*
X166512905Y-97958587D01*
X166591413Y-98037095D01*
X166690339Y-98087500D01*
X166800000Y-98104869D01*
X166909661Y-98087500D01*
X167008587Y-98037095D01*
X167087095Y-97958587D01*
X167137500Y-97859661D01*
X167154869Y-97750000D01*
X167137500Y-97640339D01*
X167087095Y-97541413D01*
X167047174Y-97501492D01*
X167031133Y-97477485D01*
X167025500Y-97449166D01*
X167025500Y-97326013D01*
X167033566Y-97292417D01*
X167056006Y-97266145D01*
X167070825Y-97255378D01*
X167072364Y-97254260D01*
X167076613Y-97246898D01*
X167088370Y-97231575D01*
X167273174Y-97046770D01*
X167311063Y-97026519D01*
X167353819Y-97030730D01*
X167387029Y-97057985D01*
X167399500Y-97099097D01*
X167399500Y-99302405D01*
X167399500Y-99350000D01*
X167399500Y-99417660D01*
X167429611Y-99549588D01*
X167488325Y-99671507D01*
X167572695Y-99777305D01*
X167678493Y-99861675D01*
X167800412Y-99920389D01*
X167932340Y-99950500D01*
X167943827Y-99950500D01*
X168000000Y-99950500D01*
X168047595Y-99950500D01*
X168676535Y-99950500D01*
X168713535Y-99960414D01*
X168740621Y-99987500D01*
X168750535Y-100024500D01*
X168750535Y-101975497D01*
X168740621Y-102012497D01*
X168713535Y-102039583D01*
X168676536Y-102049497D01*
X168272160Y-102049499D01*
X168272154Y-102049500D01*
X168237974Y-102049500D01*
X168157345Y-102067903D01*
X168117030Y-102077105D01*
X168005263Y-102130929D01*
X167985390Y-102146777D01*
X167953009Y-102161630D01*
X167917440Y-102159632D01*
X167886929Y-102141247D01*
X167808587Y-102062905D01*
X167709661Y-102012500D01*
X167600000Y-101995131D01*
X167490339Y-102012500D01*
X167444694Y-102035757D01*
X167391412Y-102062905D01*
X167312905Y-102141412D01*
X167296077Y-102174440D01*
X167262500Y-102240339D01*
X167245131Y-102350000D01*
X167262500Y-102459661D01*
X167312905Y-102558587D01*
X167391413Y-102637095D01*
X167490339Y-102687500D01*
X167600000Y-102704869D01*
X167664023Y-102694728D01*
X167705683Y-102700209D01*
X167737644Y-102727489D01*
X167749598Y-102767773D01*
X167750508Y-104305802D01*
X167748442Y-104323212D01*
X167567939Y-105070907D01*
X167567092Y-105074100D01*
X167343222Y-105848159D01*
X167342233Y-105851312D01*
X167084039Y-106614599D01*
X167082911Y-106617704D01*
X166790898Y-107368721D01*
X166789632Y-107371773D01*
X166464389Y-108109006D01*
X166462988Y-108111998D01*
X166105177Y-108833947D01*
X166103645Y-108836874D01*
X165713939Y-109542181D01*
X165712277Y-109545036D01*
X165291496Y-110232215D01*
X165289708Y-110234994D01*
X164838668Y-110902715D01*
X164836758Y-110905411D01*
X164356349Y-111552353D01*
X164354320Y-111554960D01*
X163845543Y-112179777D01*
X163843400Y-112182292D01*
X163307239Y-112783777D01*
X163304987Y-112786194D01*
X162742472Y-113363190D01*
X162740113Y-113365503D01*
X162152448Y-113916775D01*
X162149989Y-113918981D01*
X161538276Y-114443496D01*
X161535720Y-114445590D01*
X160901226Y-114942260D01*
X160898580Y-114944238D01*
X160242536Y-115412102D01*
X160239804Y-115413960D01*
X159563521Y-115852080D01*
X159560708Y-115853814D01*
X158865566Y-116261298D01*
X158862680Y-116262905D01*
X158150029Y-116638962D01*
X158147073Y-116640438D01*
X157418346Y-116984310D01*
X157415327Y-116985653D01*
X156671989Y-117296650D01*
X156668914Y-117297857D01*
X155912406Y-117575375D01*
X155909279Y-117576443D01*
X155141175Y-117819905D01*
X155138004Y-117820833D01*
X154359771Y-118029776D01*
X154356562Y-118030561D01*
X153569788Y-118204556D01*
X153566547Y-118205197D01*
X152772799Y-118343899D01*
X152769532Y-118344395D01*
X151970380Y-118447529D01*
X151967095Y-118447879D01*
X151390975Y-118496209D01*
X151352785Y-118489189D01*
X151323407Y-118463799D01*
X151280805Y-118400530D01*
X151271712Y-118387025D01*
X151113401Y-118214763D01*
X150931033Y-118068204D01*
X150728740Y-117950669D01*
X150728739Y-117950668D01*
X150511100Y-117864817D01*
X150283044Y-117812595D01*
X150049733Y-117795183D01*
X149816448Y-117812975D01*
X149588478Y-117865569D01*
X149370985Y-117951773D01*
X149370982Y-117951774D01*
X149370981Y-117951775D01*
X149317124Y-117983183D01*
X149168874Y-118069642D01*
X148986750Y-118216495D01*
X148828722Y-118389012D01*
X148776882Y-118466273D01*
X148747601Y-118491683D01*
X148709491Y-118498802D01*
X148083613Y-118448386D01*
X148080322Y-118448047D01*
X147231793Y-118341339D01*
X147228520Y-118340853D01*
X146385609Y-118196319D01*
X146382361Y-118195687D01*
X145546752Y-118013614D01*
X145543535Y-118012837D01*
X144716902Y-117793591D01*
X144713724Y-117792671D01*
X143897755Y-117536703D01*
X143894620Y-117535643D01*
X143659047Y-117450000D01*
X147845131Y-117450000D01*
X147862500Y-117559661D01*
X147912905Y-117658587D01*
X147991413Y-117737095D01*
X148090339Y-117787500D01*
X148200000Y-117804869D01*
X148309661Y-117787500D01*
X148408587Y-117737095D01*
X148487095Y-117658587D01*
X148537500Y-117559661D01*
X148554869Y-117450000D01*
X148537500Y-117340339D01*
X148487095Y-117241413D01*
X148445682Y-117200000D01*
X149995131Y-117200000D01*
X150012500Y-117309661D01*
X150062905Y-117408587D01*
X150141413Y-117487095D01*
X150240339Y-117537500D01*
X150350000Y-117554869D01*
X150459661Y-117537500D01*
X150558587Y-117487095D01*
X150637095Y-117408587D01*
X150687500Y-117309661D01*
X150704869Y-117200000D01*
X150687500Y-117090339D01*
X150637095Y-116991413D01*
X150558587Y-116912905D01*
X150459661Y-116862500D01*
X150350000Y-116845131D01*
X150240339Y-116862500D01*
X150192070Y-116887094D01*
X150141412Y-116912905D01*
X150062905Y-116991412D01*
X150054154Y-117008587D01*
X150012500Y-117090339D01*
X149995131Y-117200000D01*
X148445682Y-117200000D01*
X148408587Y-117162905D01*
X148309661Y-117112500D01*
X148200000Y-117095131D01*
X148090339Y-117112500D01*
X148041275Y-117137499D01*
X147991412Y-117162905D01*
X147912905Y-117241412D01*
X147887702Y-117290876D01*
X147862500Y-117340339D01*
X147845131Y-117450000D01*
X143659047Y-117450000D01*
X143090857Y-117243433D01*
X143087773Y-117242233D01*
X142297890Y-116914390D01*
X142294863Y-116913053D01*
X142267002Y-116900000D01*
X147105131Y-116900000D01*
X147122500Y-117009661D01*
X147172905Y-117108587D01*
X147251413Y-117187095D01*
X147350339Y-117237500D01*
X147460000Y-117254869D01*
X147569661Y-117237500D01*
X147668587Y-117187095D01*
X147747095Y-117108587D01*
X147797500Y-117009661D01*
X147814869Y-116900000D01*
X147799030Y-116800000D01*
X149245131Y-116800000D01*
X149262500Y-116909661D01*
X149312905Y-117008587D01*
X149391413Y-117087095D01*
X149490339Y-117137500D01*
X149600000Y-117154869D01*
X149709661Y-117137500D01*
X149808587Y-117087095D01*
X149887095Y-117008587D01*
X149937500Y-116909661D01*
X149954869Y-116800000D01*
X149937500Y-116690339D01*
X149891470Y-116600000D01*
X155245131Y-116600000D01*
X155262500Y-116709661D01*
X155312905Y-116808587D01*
X155391413Y-116887095D01*
X155490339Y-116937500D01*
X155600000Y-116954869D01*
X155709661Y-116937500D01*
X155808587Y-116887095D01*
X155887095Y-116808587D01*
X155937500Y-116709661D01*
X155954869Y-116600000D01*
X155937500Y-116490339D01*
X155887095Y-116391413D01*
X155808587Y-116312905D01*
X155709661Y-116262500D01*
X155600000Y-116245131D01*
X155490339Y-116262500D01*
X155442070Y-116287094D01*
X155391412Y-116312905D01*
X155312905Y-116391412D01*
X155304154Y-116408587D01*
X155262500Y-116490339D01*
X155245131Y-116600000D01*
X149891470Y-116600000D01*
X149887095Y-116591413D01*
X149808587Y-116512905D01*
X149709661Y-116462500D01*
X149600000Y-116445131D01*
X149490339Y-116462500D01*
X149467679Y-116474046D01*
X149391412Y-116512905D01*
X149312905Y-116591412D01*
X149301954Y-116612905D01*
X149262500Y-116690339D01*
X149245131Y-116800000D01*
X147799030Y-116800000D01*
X147797500Y-116790339D01*
X147747095Y-116691413D01*
X147668587Y-116612905D01*
X147569661Y-116562500D01*
X147460000Y-116545131D01*
X147350339Y-116562500D01*
X147308247Y-116583947D01*
X147251412Y-116612905D01*
X147172905Y-116691412D01*
X147167568Y-116701887D01*
X147122500Y-116790339D01*
X147105131Y-116900000D01*
X142267002Y-116900000D01*
X142149887Y-116845131D01*
X142042604Y-116794868D01*
X142011553Y-116767563D01*
X142000000Y-116727859D01*
X142000000Y-116364387D01*
X142455057Y-116364387D01*
X142472426Y-116474048D01*
X142522831Y-116572974D01*
X142601339Y-116651482D01*
X142700265Y-116701887D01*
X142809926Y-116719256D01*
X142919587Y-116701887D01*
X143018513Y-116651482D01*
X143097021Y-116572974D01*
X143147426Y-116474048D01*
X143164795Y-116364387D01*
X143147426Y-116254726D01*
X143124637Y-116210000D01*
X144185131Y-116210000D01*
X144202500Y-116319661D01*
X144252905Y-116418587D01*
X144331413Y-116497095D01*
X144430339Y-116547500D01*
X144540000Y-116564869D01*
X144649661Y-116547500D01*
X144748587Y-116497095D01*
X144827095Y-116418587D01*
X144877500Y-116319661D01*
X144894869Y-116210000D01*
X144877500Y-116100339D01*
X144827095Y-116001413D01*
X144748587Y-115922905D01*
X144649661Y-115872500D01*
X144540000Y-115855131D01*
X144430339Y-115872500D01*
X144395328Y-115890339D01*
X144331412Y-115922905D01*
X144252905Y-116001412D01*
X144248775Y-116009518D01*
X144202500Y-116100339D01*
X144185131Y-116210000D01*
X143124637Y-116210000D01*
X143097021Y-116155800D01*
X143018513Y-116077292D01*
X142919587Y-116026887D01*
X142809926Y-116009518D01*
X142700265Y-116026887D01*
X142650801Y-116052089D01*
X142601338Y-116077292D01*
X142522831Y-116155799D01*
X142506209Y-116188422D01*
X142472426Y-116254726D01*
X142471385Y-116261298D01*
X142456565Y-116354869D01*
X142455057Y-116364387D01*
X142000000Y-116364387D01*
X142000000Y-115418071D01*
X142008065Y-115384476D01*
X142030503Y-115358204D01*
X142062423Y-115344982D01*
X142064816Y-115344602D01*
X142109661Y-115337500D01*
X142208587Y-115287095D01*
X142287095Y-115208587D01*
X142337500Y-115109661D01*
X142354869Y-115000000D01*
X142645131Y-115000000D01*
X142662500Y-115109661D01*
X142712905Y-115208587D01*
X142791413Y-115287095D01*
X142890339Y-115337500D01*
X143000000Y-115354869D01*
X143109661Y-115337500D01*
X143208587Y-115287095D01*
X143287095Y-115208587D01*
X143337500Y-115109661D01*
X143354869Y-115000000D01*
X143645131Y-115000000D01*
X143662500Y-115109661D01*
X143712905Y-115208587D01*
X143791413Y-115287095D01*
X143890339Y-115337500D01*
X144000000Y-115354869D01*
X144109661Y-115337500D01*
X144208587Y-115287095D01*
X144287095Y-115208587D01*
X144337500Y-115109661D01*
X144354869Y-115000000D01*
X144645131Y-115000000D01*
X144662500Y-115109661D01*
X144712905Y-115208587D01*
X144791413Y-115287095D01*
X144890339Y-115337500D01*
X145000000Y-115354869D01*
X145109661Y-115337500D01*
X145208587Y-115287095D01*
X145287095Y-115208587D01*
X145337500Y-115109661D01*
X145354869Y-115000000D01*
X145645131Y-115000000D01*
X145662500Y-115109661D01*
X145712905Y-115208587D01*
X145791413Y-115287095D01*
X145890339Y-115337500D01*
X146000000Y-115354869D01*
X146109661Y-115337500D01*
X146208587Y-115287095D01*
X146287095Y-115208587D01*
X146337500Y-115109661D01*
X146354869Y-115000000D01*
X146337500Y-114890339D01*
X146287095Y-114791413D01*
X146208587Y-114712905D01*
X146109661Y-114662500D01*
X146000000Y-114645131D01*
X145890339Y-114662500D01*
X145878393Y-114668587D01*
X145791412Y-114712905D01*
X145712905Y-114791412D01*
X145689423Y-114837500D01*
X145662500Y-114890339D01*
X145645131Y-115000000D01*
X145354869Y-115000000D01*
X145337500Y-114890339D01*
X145287095Y-114791413D01*
X145208587Y-114712905D01*
X145109661Y-114662500D01*
X145000000Y-114645131D01*
X144890339Y-114662500D01*
X144878393Y-114668587D01*
X144791412Y-114712905D01*
X144712905Y-114791412D01*
X144689423Y-114837500D01*
X144662500Y-114890339D01*
X144645131Y-115000000D01*
X144354869Y-115000000D01*
X144337500Y-114890339D01*
X144287095Y-114791413D01*
X144208587Y-114712905D01*
X144109661Y-114662500D01*
X144000000Y-114645131D01*
X143890339Y-114662500D01*
X143878393Y-114668587D01*
X143791412Y-114712905D01*
X143712905Y-114791412D01*
X143689423Y-114837500D01*
X143662500Y-114890339D01*
X143645131Y-115000000D01*
X143354869Y-115000000D01*
X143337500Y-114890339D01*
X143287095Y-114791413D01*
X143208587Y-114712905D01*
X143109661Y-114662500D01*
X143000000Y-114645131D01*
X142890339Y-114662500D01*
X142878393Y-114668587D01*
X142791412Y-114712905D01*
X142712905Y-114791412D01*
X142689423Y-114837500D01*
X142662500Y-114890339D01*
X142645131Y-115000000D01*
X142354869Y-115000000D01*
X142337500Y-114890339D01*
X142287095Y-114791413D01*
X142208587Y-114712905D01*
X142109661Y-114662500D01*
X142062423Y-114655018D01*
X142030503Y-114641796D01*
X142008065Y-114615524D01*
X142000000Y-114581929D01*
X142000000Y-114418071D01*
X142008065Y-114384476D01*
X142030503Y-114358204D01*
X142062423Y-114344982D01*
X142064816Y-114344602D01*
X142109661Y-114337500D01*
X142208587Y-114287095D01*
X142287095Y-114208587D01*
X142337500Y-114109661D01*
X142354869Y-114000000D01*
X142645131Y-114000000D01*
X142662500Y-114109661D01*
X142712905Y-114208587D01*
X142791413Y-114287095D01*
X142890339Y-114337500D01*
X143000000Y-114354869D01*
X143109661Y-114337500D01*
X143208587Y-114287095D01*
X143287095Y-114208587D01*
X143337500Y-114109661D01*
X143354869Y-114000000D01*
X143645131Y-114000000D01*
X143662500Y-114109661D01*
X143712905Y-114208587D01*
X143791413Y-114287095D01*
X143890339Y-114337500D01*
X144000000Y-114354869D01*
X144109661Y-114337500D01*
X144208587Y-114287095D01*
X144287095Y-114208587D01*
X144337500Y-114109661D01*
X144354869Y-114000000D01*
X144645131Y-114000000D01*
X144662500Y-114109661D01*
X144712905Y-114208587D01*
X144791413Y-114287095D01*
X144890339Y-114337500D01*
X145000000Y-114354869D01*
X145109661Y-114337500D01*
X145208587Y-114287095D01*
X145287095Y-114208587D01*
X145337500Y-114109661D01*
X145354869Y-114000000D01*
X145337500Y-113890339D01*
X145287095Y-113791413D01*
X145208587Y-113712905D01*
X145109661Y-113662500D01*
X145000000Y-113645131D01*
X144890339Y-113662500D01*
X144871345Y-113672178D01*
X144791412Y-113712905D01*
X144712905Y-113791412D01*
X144711308Y-113794547D01*
X144662500Y-113890339D01*
X144645131Y-114000000D01*
X144354869Y-114000000D01*
X144337500Y-113890339D01*
X144287095Y-113791413D01*
X144208587Y-113712905D01*
X144109661Y-113662500D01*
X144000000Y-113645131D01*
X143890339Y-113662500D01*
X143871345Y-113672178D01*
X143791412Y-113712905D01*
X143712905Y-113791412D01*
X143711308Y-113794547D01*
X143662500Y-113890339D01*
X143645131Y-114000000D01*
X143354869Y-114000000D01*
X143337500Y-113890339D01*
X143287095Y-113791413D01*
X143208587Y-113712905D01*
X143109661Y-113662500D01*
X143000000Y-113645131D01*
X142890339Y-113662500D01*
X142871345Y-113672178D01*
X142791412Y-113712905D01*
X142712905Y-113791412D01*
X142711308Y-113794547D01*
X142662500Y-113890339D01*
X142645131Y-114000000D01*
X142354869Y-114000000D01*
X142337500Y-113890339D01*
X142287095Y-113791413D01*
X142208587Y-113712905D01*
X142109661Y-113662500D01*
X142062423Y-113655018D01*
X142030503Y-113641796D01*
X142008065Y-113615524D01*
X142000000Y-113581929D01*
X142000000Y-113418071D01*
X142008065Y-113384476D01*
X142030503Y-113358204D01*
X142062423Y-113344982D01*
X142064816Y-113344602D01*
X142109661Y-113337500D01*
X142208587Y-113287095D01*
X142287095Y-113208587D01*
X142337500Y-113109661D01*
X142354869Y-113000000D01*
X142645131Y-113000000D01*
X142662500Y-113109661D01*
X142712905Y-113208587D01*
X142791413Y-113287095D01*
X142890339Y-113337500D01*
X143000000Y-113354869D01*
X143109661Y-113337500D01*
X143208587Y-113287095D01*
X143287095Y-113208587D01*
X143337500Y-113109661D01*
X143354869Y-113000000D01*
X143645131Y-113000000D01*
X143662500Y-113109661D01*
X143712905Y-113208587D01*
X143791413Y-113287095D01*
X143890339Y-113337500D01*
X144000000Y-113354869D01*
X144109661Y-113337500D01*
X144208587Y-113287095D01*
X144287095Y-113208587D01*
X144337500Y-113109661D01*
X144354869Y-113000000D01*
X144337500Y-112890339D01*
X144287095Y-112791413D01*
X144208587Y-112712905D01*
X144109661Y-112662500D01*
X144000000Y-112645131D01*
X143890339Y-112662500D01*
X143842068Y-112687095D01*
X143791412Y-112712905D01*
X143712905Y-112791412D01*
X143704154Y-112808587D01*
X143662500Y-112890339D01*
X143645131Y-113000000D01*
X143354869Y-113000000D01*
X143337500Y-112890339D01*
X143287095Y-112791413D01*
X143208587Y-112712905D01*
X143109661Y-112662500D01*
X143000000Y-112645131D01*
X142890339Y-112662500D01*
X142842068Y-112687095D01*
X142791412Y-112712905D01*
X142712905Y-112791412D01*
X142704154Y-112808587D01*
X142662500Y-112890339D01*
X142645131Y-113000000D01*
X142354869Y-113000000D01*
X142337500Y-112890339D01*
X142287095Y-112791413D01*
X142208587Y-112712905D01*
X142109661Y-112662500D01*
X142062423Y-112655018D01*
X142030503Y-112641796D01*
X142008065Y-112615524D01*
X142000000Y-112581929D01*
X142000000Y-112418071D01*
X142008065Y-112384476D01*
X142030503Y-112358204D01*
X142062423Y-112344982D01*
X142064816Y-112344602D01*
X142109661Y-112337500D01*
X142208587Y-112287095D01*
X142287095Y-112208587D01*
X142337500Y-112109661D01*
X142354869Y-112000000D01*
X142645131Y-112000000D01*
X142662500Y-112109661D01*
X142712905Y-112208587D01*
X142791413Y-112287095D01*
X142890339Y-112337500D01*
X143000000Y-112354869D01*
X143109661Y-112337500D01*
X143208587Y-112287095D01*
X143287095Y-112208587D01*
X143337500Y-112109661D01*
X143354869Y-112000000D01*
X143645131Y-112000000D01*
X143662500Y-112109661D01*
X143712905Y-112208587D01*
X143791413Y-112287095D01*
X143890339Y-112337500D01*
X144000000Y-112354869D01*
X144109661Y-112337500D01*
X144208587Y-112287095D01*
X144287095Y-112208587D01*
X144337500Y-112109661D01*
X144354869Y-112000000D01*
X144337500Y-111890339D01*
X144287095Y-111791413D01*
X144208587Y-111712905D01*
X144109661Y-111662500D01*
X144000000Y-111645131D01*
X143890339Y-111662500D01*
X143840875Y-111687702D01*
X143791412Y-111712905D01*
X143712905Y-111791412D01*
X143687702Y-111840876D01*
X143662500Y-111890339D01*
X143645131Y-112000000D01*
X143354869Y-112000000D01*
X143337500Y-111890339D01*
X143287095Y-111791413D01*
X143208587Y-111712905D01*
X143109661Y-111662500D01*
X143000000Y-111645131D01*
X142890339Y-111662500D01*
X142840875Y-111687702D01*
X142791412Y-111712905D01*
X142712905Y-111791412D01*
X142687702Y-111840876D01*
X142662500Y-111890339D01*
X142645131Y-112000000D01*
X142354869Y-112000000D01*
X142337500Y-111890339D01*
X142287095Y-111791413D01*
X142208587Y-111712905D01*
X142109661Y-111662500D01*
X142062423Y-111655018D01*
X142030503Y-111641796D01*
X142008065Y-111615524D01*
X142000000Y-111581929D01*
X142000000Y-110030652D01*
X142005633Y-110002333D01*
X142021674Y-109978326D01*
X142478326Y-109521674D01*
X142502333Y-109505633D01*
X142530652Y-109500000D01*
X144469348Y-109500000D01*
X144497667Y-109505633D01*
X144521674Y-109521674D01*
X144978326Y-109978326D01*
X144994367Y-110002333D01*
X145000000Y-110030652D01*
X145000000Y-112581929D01*
X144991935Y-112615524D01*
X144969497Y-112641796D01*
X144937577Y-112655018D01*
X144890339Y-112662500D01*
X144791412Y-112712905D01*
X144712905Y-112791412D01*
X144704154Y-112808587D01*
X144662500Y-112890339D01*
X144645131Y-113000000D01*
X144662500Y-113109661D01*
X144712905Y-113208587D01*
X144791413Y-113287095D01*
X144890339Y-113337500D01*
X145000000Y-113354869D01*
X145109661Y-113337500D01*
X145208587Y-113287095D01*
X145208588Y-113287093D01*
X145212691Y-113285003D01*
X145257862Y-113277849D01*
X145298612Y-113298611D01*
X147000000Y-115000000D01*
X147141522Y-115000000D01*
X147185018Y-115014132D01*
X147211900Y-115051132D01*
X147211901Y-115096866D01*
X147185020Y-115133865D01*
X147178846Y-115138350D01*
X147168676Y-115145740D01*
X147164424Y-115153105D01*
X147152667Y-115168426D01*
X146497706Y-115823387D01*
X146468248Y-115841439D01*
X146451490Y-115842757D01*
X146451576Y-115843298D01*
X146440001Y-115845131D01*
X146330339Y-115862500D01*
X146310713Y-115872500D01*
X146231412Y-115912905D01*
X146152905Y-115991412D01*
X146144154Y-116008587D01*
X146102500Y-116090339D01*
X146085131Y-116200000D01*
X146102500Y-116309661D01*
X146152905Y-116408587D01*
X146231413Y-116487095D01*
X146330339Y-116537500D01*
X146440000Y-116554869D01*
X146549661Y-116537500D01*
X146648587Y-116487095D01*
X146727095Y-116408587D01*
X146777500Y-116309661D01*
X146794869Y-116200000D01*
X146796703Y-116188422D01*
X146797242Y-116188507D01*
X146798560Y-116171753D01*
X146816611Y-116142293D01*
X147411731Y-115547174D01*
X147435738Y-115531133D01*
X147464057Y-115525500D01*
X148500166Y-115525500D01*
X148541278Y-115537971D01*
X148568533Y-115571181D01*
X148572744Y-115613937D01*
X148552492Y-115651826D01*
X148512905Y-115691412D01*
X148487702Y-115740875D01*
X148462500Y-115790339D01*
X148445131Y-115900000D01*
X148462500Y-116009661D01*
X148512905Y-116108587D01*
X148591413Y-116187095D01*
X148690339Y-116237500D01*
X148800000Y-116254869D01*
X148909661Y-116237500D01*
X149008587Y-116187095D01*
X149087095Y-116108587D01*
X149137500Y-116009661D01*
X149139030Y-116000000D01*
X149995131Y-116000000D01*
X150012500Y-116109661D01*
X150062905Y-116208587D01*
X150141413Y-116287095D01*
X150240339Y-116337500D01*
X150350000Y-116354869D01*
X150459661Y-116337500D01*
X150558587Y-116287095D01*
X150637095Y-116208587D01*
X150687500Y-116109661D01*
X150704869Y-116000000D01*
X150687500Y-115890339D01*
X150637095Y-115791413D01*
X150558587Y-115712905D01*
X150459661Y-115662500D01*
X150350000Y-115645131D01*
X150240339Y-115662500D01*
X150190876Y-115687702D01*
X150141412Y-115712905D01*
X150062905Y-115791412D01*
X150039423Y-115837499D01*
X150012500Y-115890339D01*
X149995131Y-116000000D01*
X149139030Y-116000000D01*
X149154869Y-115900000D01*
X149137500Y-115790339D01*
X149087095Y-115691413D01*
X149047508Y-115651826D01*
X149027256Y-115613937D01*
X149031467Y-115571181D01*
X149058722Y-115537971D01*
X149099834Y-115525500D01*
X149392139Y-115525500D01*
X149396012Y-115525601D01*
X149436064Y-115527700D01*
X149458812Y-115518967D01*
X149469930Y-115515673D01*
X149493768Y-115510607D01*
X149500644Y-115505610D01*
X149517624Y-115496392D01*
X149517621Y-115496392D01*
X149525560Y-115493346D01*
X149542794Y-115476111D01*
X149551616Y-115468576D01*
X149571323Y-115454260D01*
X149575572Y-115446898D01*
X149587329Y-115431575D01*
X149997230Y-115021674D01*
X150021238Y-115005633D01*
X150049557Y-115000000D01*
X153250443Y-115000000D01*
X153278762Y-115005633D01*
X153302769Y-115021674D01*
X153523387Y-115242292D01*
X153541438Y-115271747D01*
X153542758Y-115288510D01*
X153543298Y-115288425D01*
X153545131Y-115299998D01*
X153545131Y-115300000D01*
X153562500Y-115409661D01*
X153612905Y-115508587D01*
X153691413Y-115587095D01*
X153790339Y-115637500D01*
X153900000Y-115654869D01*
X154009661Y-115637500D01*
X154108587Y-115587095D01*
X154187095Y-115508587D01*
X154205298Y-115472860D01*
X154237634Y-115440523D01*
X154282806Y-115433368D01*
X154323556Y-115454130D01*
X154344320Y-115494880D01*
X154345130Y-115500000D01*
X154345131Y-115500000D01*
X154362500Y-115609661D01*
X154412905Y-115708587D01*
X154491413Y-115787095D01*
X154590339Y-115837500D01*
X154700000Y-115854869D01*
X154809661Y-115837500D01*
X154883259Y-115800000D01*
X156545131Y-115800000D01*
X156562500Y-115909661D01*
X156612905Y-116008587D01*
X156691413Y-116087095D01*
X156790339Y-116137500D01*
X156900000Y-116154869D01*
X157009661Y-116137500D01*
X157108587Y-116087095D01*
X157187095Y-116008587D01*
X157237500Y-115909661D01*
X157254869Y-115800000D01*
X157237500Y-115690339D01*
X157187095Y-115591413D01*
X157108587Y-115512905D01*
X157009661Y-115462500D01*
X156900000Y-115445131D01*
X156790339Y-115462500D01*
X156763612Y-115476118D01*
X156691412Y-115512905D01*
X156612905Y-115591412D01*
X156589423Y-115637499D01*
X156562500Y-115690339D01*
X156545131Y-115800000D01*
X154883259Y-115800000D01*
X154908587Y-115787095D01*
X154987095Y-115708587D01*
X155037500Y-115609661D01*
X155054869Y-115500000D01*
X155056703Y-115488422D01*
X155057960Y-115488621D01*
X155059498Y-115471893D01*
X155079738Y-115441602D01*
X155086509Y-115435507D01*
X155089945Y-115427787D01*
X155121671Y-115393162D01*
X155167847Y-115384603D01*
X155209875Y-115405557D01*
X155212905Y-115408587D01*
X155291413Y-115487095D01*
X155390339Y-115537500D01*
X155500000Y-115554869D01*
X155609661Y-115537500D01*
X155708587Y-115487095D01*
X155787095Y-115408587D01*
X155837500Y-115309661D01*
X155854869Y-115200000D01*
X158245131Y-115200000D01*
X158262500Y-115309661D01*
X158312905Y-115408587D01*
X158391413Y-115487095D01*
X158490339Y-115537500D01*
X158600000Y-115554869D01*
X158709661Y-115537500D01*
X158808587Y-115487095D01*
X158887095Y-115408587D01*
X158937500Y-115309661D01*
X158954869Y-115200000D01*
X158937500Y-115090339D01*
X158887095Y-114991413D01*
X158808587Y-114912905D01*
X158709661Y-114862500D01*
X158600000Y-114845131D01*
X158490339Y-114862500D01*
X158442068Y-114887095D01*
X158391412Y-114912905D01*
X158312905Y-114991412D01*
X158303478Y-115009914D01*
X158262500Y-115090339D01*
X158245131Y-115200000D01*
X155854869Y-115200000D01*
X155837500Y-115090339D01*
X155787095Y-114991413D01*
X155708587Y-114912905D01*
X155708584Y-114912902D01*
X155649748Y-114882924D01*
X155617408Y-114850585D01*
X155610254Y-114805413D01*
X155631018Y-114764664D01*
X155687093Y-114708589D01*
X155687093Y-114708588D01*
X155687095Y-114708587D01*
X155737500Y-114609661D01*
X155752584Y-114514423D01*
X155769401Y-114477946D01*
X155802804Y-114455627D01*
X155842946Y-114454050D01*
X155877997Y-114473679D01*
X155891413Y-114487095D01*
X155990339Y-114537500D01*
X156100000Y-114554869D01*
X156209661Y-114537500D01*
X156308587Y-114487095D01*
X156387095Y-114408587D01*
X156437500Y-114309661D01*
X156454869Y-114200000D01*
X156437500Y-114090339D01*
X156387095Y-113991413D01*
X156308587Y-113912905D01*
X156209661Y-113862500D01*
X156100000Y-113845131D01*
X155990339Y-113862500D01*
X155969624Y-113873055D01*
X155891412Y-113912905D01*
X155812905Y-113991412D01*
X155803607Y-114009661D01*
X155762500Y-114090339D01*
X155748220Y-114180503D01*
X155747417Y-114185570D01*
X155730598Y-114222053D01*
X155697195Y-114244372D01*
X155657053Y-114245949D01*
X155622002Y-114226320D01*
X155608587Y-114212905D01*
X155583259Y-114200000D01*
X155509661Y-114162500D01*
X155400000Y-114145131D01*
X155290339Y-114162500D01*
X155233092Y-114191668D01*
X155184114Y-114198116D01*
X155141991Y-114172303D01*
X155125500Y-114125733D01*
X155125500Y-112820000D01*
X158525131Y-112820000D01*
X158542500Y-112929661D01*
X158592905Y-113028587D01*
X158671413Y-113107095D01*
X158770339Y-113157500D01*
X158880000Y-113174869D01*
X158989661Y-113157500D01*
X159088587Y-113107095D01*
X159167095Y-113028587D01*
X159217500Y-112929661D01*
X159234869Y-112820000D01*
X159217500Y-112710339D01*
X159167095Y-112611413D01*
X159088587Y-112532905D01*
X158989661Y-112482500D01*
X158880000Y-112465131D01*
X158770339Y-112482500D01*
X158735993Y-112500000D01*
X158671412Y-112532905D01*
X158592905Y-112611412D01*
X158590810Y-112615524D01*
X158542500Y-112710339D01*
X158525131Y-112820000D01*
X155125500Y-112820000D01*
X155125500Y-112250000D01*
X155845131Y-112250000D01*
X155862500Y-112359661D01*
X155912905Y-112458587D01*
X155991413Y-112537095D01*
X156090339Y-112587500D01*
X156200000Y-112604869D01*
X156309661Y-112587500D01*
X156408587Y-112537095D01*
X156487095Y-112458587D01*
X156537500Y-112359661D01*
X156554869Y-112250000D01*
X156537500Y-112140339D01*
X156487095Y-112041413D01*
X156408587Y-111962905D01*
X156309661Y-111912500D01*
X156200000Y-111895131D01*
X156090339Y-111912500D01*
X156044688Y-111935760D01*
X155991412Y-111962905D01*
X155912905Y-112041412D01*
X155887702Y-112090875D01*
X155862500Y-112140339D01*
X155845131Y-112250000D01*
X155125500Y-112250000D01*
X155125500Y-112007842D01*
X155125601Y-112003969D01*
X155128522Y-111948228D01*
X155129006Y-111948253D01*
X155127908Y-111922758D01*
X155154617Y-111884037D01*
X155533333Y-111600000D01*
X162145131Y-111600000D01*
X162162500Y-111709661D01*
X162212905Y-111808587D01*
X162291413Y-111887095D01*
X162390339Y-111937500D01*
X162500000Y-111954869D01*
X162609661Y-111937500D01*
X162708587Y-111887095D01*
X162787095Y-111808587D01*
X162837500Y-111709661D01*
X162854869Y-111600000D01*
X162837500Y-111490339D01*
X162787095Y-111391413D01*
X162708587Y-111312905D01*
X162609661Y-111262500D01*
X162500000Y-111245131D01*
X162390339Y-111262500D01*
X162340875Y-111287702D01*
X162291412Y-111312905D01*
X162212905Y-111391412D01*
X162197752Y-111421153D01*
X162162500Y-111490339D01*
X162145131Y-111600000D01*
X155533333Y-111600000D01*
X156939698Y-110545225D01*
X156971779Y-110531460D01*
X157006605Y-110533935D01*
X157036420Y-110552102D01*
X157091413Y-110607095D01*
X157190339Y-110657500D01*
X157300000Y-110674869D01*
X157409661Y-110657500D01*
X157508587Y-110607095D01*
X157587095Y-110528587D01*
X157637500Y-110429661D01*
X157654869Y-110320000D01*
X157650117Y-110290000D01*
X157945131Y-110290000D01*
X157962500Y-110399661D01*
X158012905Y-110498587D01*
X158091413Y-110577095D01*
X158190339Y-110627500D01*
X158300000Y-110644869D01*
X158409661Y-110627500D01*
X158508587Y-110577095D01*
X158587095Y-110498587D01*
X158637500Y-110399661D01*
X158654869Y-110290000D01*
X158637500Y-110180339D01*
X158587095Y-110081413D01*
X158508587Y-110002905D01*
X158409661Y-109952500D01*
X158300000Y-109935131D01*
X158190339Y-109952500D01*
X158140875Y-109977702D01*
X158091412Y-110002905D01*
X158012905Y-110081412D01*
X158000074Y-110106595D01*
X157962500Y-110180339D01*
X157945131Y-110290000D01*
X157650117Y-110290000D01*
X157637500Y-110210339D01*
X157596276Y-110129433D01*
X157588213Y-110096213D01*
X157595941Y-110062913D01*
X157617807Y-110036644D01*
X158771759Y-109171181D01*
X158812934Y-109140300D01*
X158857334Y-109125500D01*
X159200166Y-109125500D01*
X159241278Y-109137971D01*
X159268533Y-109171181D01*
X159272744Y-109213937D01*
X159252492Y-109251826D01*
X159212905Y-109291412D01*
X159204154Y-109308587D01*
X159162500Y-109390339D01*
X159145131Y-109500000D01*
X159162500Y-109609661D01*
X159212905Y-109708587D01*
X159291413Y-109787095D01*
X159390339Y-109837500D01*
X159500000Y-109854869D01*
X159609661Y-109837500D01*
X159708587Y-109787095D01*
X159787095Y-109708587D01*
X159837500Y-109609661D01*
X159854869Y-109500000D01*
X159837500Y-109390339D01*
X159787095Y-109291413D01*
X159747508Y-109251826D01*
X159727256Y-109213937D01*
X159731467Y-109171181D01*
X159758722Y-109137971D01*
X159799834Y-109125500D01*
X161375942Y-109125500D01*
X161404261Y-109131133D01*
X161428268Y-109147174D01*
X161826130Y-109545036D01*
X162223387Y-109942292D01*
X162241438Y-109971747D01*
X162242758Y-109988510D01*
X162243298Y-109988425D01*
X162245131Y-109999998D01*
X162245131Y-110000000D01*
X162262500Y-110109661D01*
X162312905Y-110208587D01*
X162391413Y-110287095D01*
X162490339Y-110337500D01*
X162600000Y-110354869D01*
X162709661Y-110337500D01*
X162808587Y-110287095D01*
X162887095Y-110208587D01*
X162937500Y-110109661D01*
X162946950Y-110050000D01*
X163395131Y-110050000D01*
X163412500Y-110159661D01*
X163462905Y-110258587D01*
X163541413Y-110337095D01*
X163640339Y-110387500D01*
X163750000Y-110404869D01*
X163859661Y-110387500D01*
X163958587Y-110337095D01*
X164022674Y-110273007D01*
X164055847Y-110253855D01*
X164094153Y-110253855D01*
X164127326Y-110273008D01*
X164191413Y-110337095D01*
X164290339Y-110387500D01*
X164400000Y-110404869D01*
X164509661Y-110387500D01*
X164608587Y-110337095D01*
X164687095Y-110258587D01*
X164737500Y-110159661D01*
X164754869Y-110050000D01*
X164737500Y-109940339D01*
X164687095Y-109841413D01*
X164608587Y-109762905D01*
X164509661Y-109712500D01*
X164400000Y-109695131D01*
X164290339Y-109712500D01*
X164241273Y-109737500D01*
X164191412Y-109762905D01*
X164127326Y-109826992D01*
X164094153Y-109846145D01*
X164055847Y-109846145D01*
X164022674Y-109826992D01*
X163958587Y-109762905D01*
X163942815Y-109754869D01*
X163859661Y-109712500D01*
X163750000Y-109695131D01*
X163640339Y-109712500D01*
X163591273Y-109737500D01*
X163541412Y-109762905D01*
X163462905Y-109841412D01*
X163447065Y-109872500D01*
X163412500Y-109940339D01*
X163395131Y-110050000D01*
X162946950Y-110050000D01*
X162954869Y-110000000D01*
X162937500Y-109890339D01*
X162887095Y-109791413D01*
X162808587Y-109712905D01*
X162709661Y-109662500D01*
X162600000Y-109645131D01*
X162599998Y-109645131D01*
X162588425Y-109643298D01*
X162588510Y-109642758D01*
X162571747Y-109641438D01*
X162542292Y-109623387D01*
X161665007Y-108746102D01*
X161662340Y-108743292D01*
X161635505Y-108713489D01*
X161613253Y-108703582D01*
X161603051Y-108698044D01*
X161582618Y-108684774D01*
X161582617Y-108684773D01*
X161582616Y-108684773D01*
X161574217Y-108683443D01*
X161555700Y-108677958D01*
X161547932Y-108674500D01*
X161523573Y-108674500D01*
X161511998Y-108673589D01*
X161487935Y-108669778D01*
X161479721Y-108671979D01*
X161460570Y-108674500D01*
X160880074Y-108674500D01*
X160832508Y-108657188D01*
X160807199Y-108613352D01*
X160809553Y-108600000D01*
X163845131Y-108600000D01*
X163862500Y-108709661D01*
X163912905Y-108808587D01*
X163991413Y-108887095D01*
X164090339Y-108937500D01*
X164200000Y-108954869D01*
X164309661Y-108937500D01*
X164408587Y-108887095D01*
X164487095Y-108808587D01*
X164537500Y-108709661D01*
X164554869Y-108600000D01*
X164537500Y-108490339D01*
X164487095Y-108391413D01*
X164408587Y-108312905D01*
X164309661Y-108262500D01*
X164200000Y-108245131D01*
X164090339Y-108262500D01*
X164042068Y-108287095D01*
X163991412Y-108312905D01*
X163912905Y-108391412D01*
X163905516Y-108405915D01*
X163862500Y-108490339D01*
X163845131Y-108600000D01*
X160809553Y-108600000D01*
X160815987Y-108563502D01*
X160821322Y-108554260D01*
X160821323Y-108554260D01*
X160825574Y-108546895D01*
X160837329Y-108531575D01*
X161468904Y-107900000D01*
X165145131Y-107900000D01*
X165162500Y-108009661D01*
X165212905Y-108108587D01*
X165291413Y-108187095D01*
X165390339Y-108237500D01*
X165500000Y-108254869D01*
X165609661Y-108237500D01*
X165708587Y-108187095D01*
X165787095Y-108108587D01*
X165837500Y-108009661D01*
X165854869Y-107900000D01*
X165837500Y-107790339D01*
X165787095Y-107691413D01*
X165708587Y-107612905D01*
X165609661Y-107562500D01*
X165500000Y-107545131D01*
X165390339Y-107562500D01*
X165343218Y-107586509D01*
X165291412Y-107612905D01*
X165212905Y-107691412D01*
X165201954Y-107712905D01*
X165162500Y-107790339D01*
X165145131Y-107900000D01*
X161468904Y-107900000D01*
X162221731Y-107147173D01*
X162245738Y-107131133D01*
X162274057Y-107125500D01*
X162325733Y-107125500D01*
X162372303Y-107141991D01*
X162398116Y-107184114D01*
X162391668Y-107233092D01*
X162362500Y-107290339D01*
X162362499Y-107290340D01*
X162362500Y-107290340D01*
X162351690Y-107358592D01*
X162345131Y-107400000D01*
X162362500Y-107509661D01*
X162412905Y-107608587D01*
X162491413Y-107687095D01*
X162590339Y-107737500D01*
X162700000Y-107754869D01*
X162809661Y-107737500D01*
X162908587Y-107687095D01*
X162987095Y-107608587D01*
X163037500Y-107509661D01*
X163054869Y-107400000D01*
X163042677Y-107323027D01*
X163045097Y-107300000D01*
X164045131Y-107300000D01*
X164062500Y-107409661D01*
X164112905Y-107508587D01*
X164191413Y-107587095D01*
X164290339Y-107637500D01*
X164400000Y-107654869D01*
X164509661Y-107637500D01*
X164608587Y-107587095D01*
X164687095Y-107508587D01*
X164737500Y-107409661D01*
X164754869Y-107300000D01*
X164737500Y-107190339D01*
X164687095Y-107091413D01*
X164608587Y-107012905D01*
X164509661Y-106962500D01*
X164400000Y-106945131D01*
X164290339Y-106962500D01*
X164251575Y-106982251D01*
X164191412Y-107012905D01*
X164112905Y-107091412D01*
X164104154Y-107108587D01*
X164062500Y-107190339D01*
X164045131Y-107300000D01*
X163045097Y-107300000D01*
X163046681Y-107284935D01*
X163069198Y-107253945D01*
X163104191Y-107238366D01*
X163109661Y-107237500D01*
X163208587Y-107187095D01*
X163287095Y-107108587D01*
X163337500Y-107009661D01*
X163354617Y-106901585D01*
X163375380Y-106860837D01*
X163416130Y-106840074D01*
X163461299Y-106847227D01*
X163540339Y-106887500D01*
X163650000Y-106904869D01*
X163759661Y-106887500D01*
X163858587Y-106837095D01*
X163937095Y-106758587D01*
X163987500Y-106659661D01*
X164004869Y-106550000D01*
X163987500Y-106440339D01*
X163937095Y-106341413D01*
X163858587Y-106262905D01*
X163759661Y-106212500D01*
X163650000Y-106195131D01*
X163540339Y-106212500D01*
X163495187Y-106235506D01*
X163441412Y-106262905D01*
X163362905Y-106341412D01*
X163312500Y-106440339D01*
X163295382Y-106548413D01*
X163274619Y-106589162D01*
X163233869Y-106609925D01*
X163188698Y-106602771D01*
X163161988Y-106589162D01*
X163109661Y-106562500D01*
X163000000Y-106545131D01*
X162890339Y-106562500D01*
X162846845Y-106584661D01*
X162791412Y-106612905D01*
X162751492Y-106652826D01*
X162727485Y-106668867D01*
X162699166Y-106674500D01*
X162157849Y-106674500D01*
X162153977Y-106674399D01*
X162113935Y-106672300D01*
X162091193Y-106681030D01*
X162080064Y-106684326D01*
X162056231Y-106689392D01*
X162049348Y-106694393D01*
X162032379Y-106703607D01*
X162024439Y-106706655D01*
X162007209Y-106723884D01*
X161998382Y-106731422D01*
X161987828Y-106739090D01*
X161979399Y-106741975D01*
X161978366Y-106746278D01*
X161974423Y-106753106D01*
X161962667Y-106768426D01*
X160588043Y-108143051D01*
X160551103Y-108163108D01*
X160509198Y-108159810D01*
X160475850Y-108134222D01*
X160461818Y-108094599D01*
X160471631Y-108053726D01*
X160475573Y-108046898D01*
X160487329Y-108031575D01*
X161861958Y-106656945D01*
X161881800Y-106646173D01*
X161892004Y-106626899D01*
X162707015Y-105811888D01*
X162742064Y-105792261D01*
X162782206Y-105793838D01*
X162815608Y-105816156D01*
X162832427Y-105852637D01*
X162837500Y-105884661D01*
X162887905Y-105983587D01*
X162966413Y-106062095D01*
X163065339Y-106112500D01*
X163175000Y-106129869D01*
X163284661Y-106112500D01*
X163383587Y-106062095D01*
X163462095Y-105983587D01*
X163512500Y-105884661D01*
X163529869Y-105775000D01*
X163512500Y-105665339D01*
X163462095Y-105566413D01*
X163447508Y-105551825D01*
X163427256Y-105513937D01*
X163431467Y-105471181D01*
X163458722Y-105437971D01*
X163499834Y-105425500D01*
X163992139Y-105425500D01*
X163996012Y-105425601D01*
X164036064Y-105427700D01*
X164058812Y-105418967D01*
X164069930Y-105415673D01*
X164093768Y-105410607D01*
X164100644Y-105405610D01*
X164117624Y-105396392D01*
X164117621Y-105396392D01*
X164125560Y-105393346D01*
X164142793Y-105376112D01*
X164151616Y-105368577D01*
X164171323Y-105354260D01*
X164175572Y-105346898D01*
X164187329Y-105331575D01*
X164638852Y-104880051D01*
X164673890Y-104860426D01*
X164714023Y-104861994D01*
X164747425Y-104884295D01*
X164754859Y-104900400D01*
X164757180Y-104899218D01*
X164762499Y-104909658D01*
X164762500Y-104909661D01*
X164812905Y-105008587D01*
X164891413Y-105087095D01*
X164964128Y-105124144D01*
X164992593Y-105149775D01*
X165004431Y-105186205D01*
X164996467Y-105223673D01*
X164962500Y-105290338D01*
X164950108Y-105368574D01*
X164945131Y-105400000D01*
X164962500Y-105509661D01*
X164990493Y-105564600D01*
X165016888Y-105616405D01*
X165024953Y-105650000D01*
X165016888Y-105683595D01*
X164962500Y-105790339D01*
X164947561Y-105884661D01*
X164945131Y-105900000D01*
X164962500Y-106009661D01*
X164968173Y-106020794D01*
X165016888Y-106116405D01*
X165024953Y-106150000D01*
X165016888Y-106183595D01*
X164978709Y-106258526D01*
X164962500Y-106290339D01*
X164945131Y-106400000D01*
X164962500Y-106509661D01*
X165012905Y-106608587D01*
X165091413Y-106687095D01*
X165190339Y-106737500D01*
X165300000Y-106754869D01*
X165409661Y-106737500D01*
X165508587Y-106687095D01*
X165587095Y-106608587D01*
X165637500Y-106509661D01*
X165654869Y-106400000D01*
X165637500Y-106290339D01*
X165587095Y-106191413D01*
X165587093Y-106191411D01*
X165583111Y-106183595D01*
X165575046Y-106150000D01*
X165583111Y-106116405D01*
X165587093Y-106108588D01*
X165587095Y-106108587D01*
X165637500Y-106009661D01*
X165654869Y-105900000D01*
X165637500Y-105790339D01*
X165587095Y-105691413D01*
X165587093Y-105691411D01*
X165583111Y-105683595D01*
X165575046Y-105650000D01*
X165583111Y-105616405D01*
X165587093Y-105608588D01*
X165587095Y-105608587D01*
X165637500Y-105509661D01*
X165654869Y-105400000D01*
X165637500Y-105290339D01*
X165587095Y-105191413D01*
X165508587Y-105112905D01*
X165466406Y-105091413D01*
X165435872Y-105075855D01*
X165407405Y-105050223D01*
X165395568Y-105013793D01*
X165403533Y-104976325D01*
X165404463Y-104974500D01*
X165437500Y-104909661D01*
X165454869Y-104800000D01*
X165437500Y-104690339D01*
X165437498Y-104690336D01*
X165436824Y-104686077D01*
X165442311Y-104644402D01*
X165469610Y-104612438D01*
X165509913Y-104600500D01*
X165612485Y-104600500D01*
X165651150Y-104611405D01*
X165678418Y-104640903D01*
X165712905Y-104708587D01*
X165791413Y-104787095D01*
X165890339Y-104837500D01*
X166000000Y-104854869D01*
X166109661Y-104837500D01*
X166208587Y-104787095D01*
X166287095Y-104708587D01*
X166337500Y-104609661D01*
X166354869Y-104500000D01*
X166337500Y-104390339D01*
X166287095Y-104291413D01*
X166208587Y-104212905D01*
X166109661Y-104162500D01*
X166000000Y-104145131D01*
X165999999Y-104145131D01*
X165957566Y-104151852D01*
X165938662Y-104149363D01*
X165938662Y-104149500D01*
X165898573Y-104149500D01*
X165886998Y-104148589D01*
X165862935Y-104144778D01*
X165854721Y-104146979D01*
X165835570Y-104149500D01*
X164832861Y-104149500D01*
X164828988Y-104149399D01*
X164825055Y-104149192D01*
X164788936Y-104147300D01*
X164788935Y-104147300D01*
X164766193Y-104156029D01*
X164755064Y-104159326D01*
X164731230Y-104164392D01*
X164724348Y-104169393D01*
X164707379Y-104178607D01*
X164699439Y-104181655D01*
X164682209Y-104198884D01*
X164673384Y-104206421D01*
X164653676Y-104220740D01*
X164649424Y-104228105D01*
X164637667Y-104243426D01*
X164274822Y-104606271D01*
X164239771Y-104625900D01*
X164199629Y-104624323D01*
X164166226Y-104602004D01*
X164149408Y-104565524D01*
X164137500Y-104490339D01*
X164087095Y-104391413D01*
X164048008Y-104352326D01*
X164028855Y-104319153D01*
X164028855Y-104280847D01*
X164048008Y-104247674D01*
X164065994Y-104229688D01*
X164087095Y-104208587D01*
X164137500Y-104109661D01*
X164154869Y-104000000D01*
X164137500Y-103890339D01*
X164087095Y-103791413D01*
X164048007Y-103752325D01*
X164028855Y-103719153D01*
X164028855Y-103680847D01*
X164048008Y-103647674D01*
X164067005Y-103628677D01*
X164087095Y-103608587D01*
X164137500Y-103509661D01*
X164154869Y-103400000D01*
X164145124Y-103338477D01*
X164149128Y-103300387D01*
X164171643Y-103269397D01*
X164206634Y-103253818D01*
X164309661Y-103237500D01*
X164408587Y-103187095D01*
X164487095Y-103108587D01*
X164537500Y-103009661D01*
X164554869Y-102900000D01*
X164537500Y-102790339D01*
X164487095Y-102691413D01*
X164408587Y-102612905D01*
X164309661Y-102562500D01*
X164300753Y-102561089D01*
X164264272Y-102544271D01*
X164241954Y-102510868D01*
X164240377Y-102470725D01*
X164260005Y-102435676D01*
X164287095Y-102408587D01*
X164337500Y-102309661D01*
X164354869Y-102200000D01*
X164339030Y-102100000D01*
X165245131Y-102100000D01*
X165262500Y-102209661D01*
X165311544Y-102305915D01*
X165312905Y-102308587D01*
X165399701Y-102395383D01*
X165398762Y-102396321D01*
X165413201Y-102409321D01*
X165425040Y-102445752D01*
X165417077Y-102483222D01*
X165362500Y-102590338D01*
X165355094Y-102637095D01*
X165345131Y-102700000D01*
X165362500Y-102809661D01*
X165412905Y-102908587D01*
X165491413Y-102987095D01*
X165590339Y-103037500D01*
X165700000Y-103054869D01*
X165809661Y-103037500D01*
X165908587Y-102987095D01*
X165987095Y-102908587D01*
X166037500Y-102809661D01*
X166044506Y-102765425D01*
X166065268Y-102724678D01*
X166106015Y-102703916D01*
X166209661Y-102687500D01*
X166308587Y-102637095D01*
X166387095Y-102558587D01*
X166437500Y-102459661D01*
X166454869Y-102350000D01*
X166437500Y-102240339D01*
X166387095Y-102141413D01*
X166308587Y-102062905D01*
X166209661Y-102012500D01*
X166100000Y-101995131D01*
X166099999Y-101995131D01*
X166004996Y-102010178D01*
X165959824Y-102003023D01*
X165927485Y-101970684D01*
X165898471Y-101913740D01*
X165887095Y-101891413D01*
X165808587Y-101812905D01*
X165709661Y-101762500D01*
X165600000Y-101745131D01*
X165490339Y-101762500D01*
X165451575Y-101782251D01*
X165391412Y-101812905D01*
X165312905Y-101891412D01*
X165295537Y-101925500D01*
X165262500Y-101990339D01*
X165245131Y-102100000D01*
X164339030Y-102100000D01*
X164337500Y-102090339D01*
X164287095Y-101991413D01*
X164208587Y-101912905D01*
X164109661Y-101862500D01*
X164000000Y-101845131D01*
X163890339Y-101862500D01*
X163855012Y-101880500D01*
X163791412Y-101912905D01*
X163712905Y-101991412D01*
X163690311Y-102035757D01*
X163662500Y-102090339D01*
X163662499Y-102090340D01*
X163662500Y-102090340D01*
X163646482Y-102191473D01*
X163645131Y-102200000D01*
X163662500Y-102309661D01*
X163712905Y-102408587D01*
X163791413Y-102487095D01*
X163890339Y-102537500D01*
X163899244Y-102538910D01*
X163935725Y-102555727D01*
X163958045Y-102589129D01*
X163959623Y-102629272D01*
X163939994Y-102664323D01*
X163912905Y-102691412D01*
X163890439Y-102735506D01*
X163862500Y-102790339D01*
X163845131Y-102900000D01*
X163852279Y-102945131D01*
X163854875Y-102961517D01*
X163850871Y-102999612D01*
X163828356Y-103030601D01*
X163793363Y-103046182D01*
X163690339Y-103062500D01*
X163591412Y-103112905D01*
X163512905Y-103191412D01*
X163489423Y-103237499D01*
X163462500Y-103290339D01*
X163445131Y-103400000D01*
X163462500Y-103509661D01*
X163504487Y-103592066D01*
X163512905Y-103608587D01*
X163551992Y-103647674D01*
X163571145Y-103680847D01*
X163571145Y-103719153D01*
X163551992Y-103752326D01*
X163512905Y-103791412D01*
X163495506Y-103825560D01*
X163462500Y-103890339D01*
X163445131Y-104000000D01*
X163462500Y-104109661D01*
X163503607Y-104190339D01*
X163512905Y-104208587D01*
X163551992Y-104247674D01*
X163571145Y-104280847D01*
X163571145Y-104319153D01*
X163551992Y-104352326D01*
X163512905Y-104391412D01*
X163505478Y-104405989D01*
X163462500Y-104490339D01*
X163445131Y-104600000D01*
X163462500Y-104709661D01*
X163503607Y-104790339D01*
X163512905Y-104808587D01*
X163552492Y-104848174D01*
X163572744Y-104886063D01*
X163568533Y-104928819D01*
X163541278Y-104962029D01*
X163500166Y-104974500D01*
X163007861Y-104974500D01*
X163003988Y-104974399D01*
X162963933Y-104972299D01*
X162941188Y-104981030D01*
X162930060Y-104984326D01*
X162906233Y-104989391D01*
X162899355Y-104994389D01*
X162882384Y-105003604D01*
X162874441Y-105006653D01*
X162857209Y-105023884D01*
X162848384Y-105031421D01*
X162828676Y-105045740D01*
X162824424Y-105053105D01*
X162812667Y-105068426D01*
X160228269Y-107652826D01*
X160204262Y-107668867D01*
X160175943Y-107674500D01*
X160130074Y-107674500D01*
X160082508Y-107657188D01*
X160057199Y-107613352D01*
X160065987Y-107563502D01*
X160071322Y-107554260D01*
X160071323Y-107554260D01*
X160075574Y-107546895D01*
X160087329Y-107531575D01*
X161353924Y-106264979D01*
X161356695Y-106262350D01*
X161386509Y-106235507D01*
X161396418Y-106213247D01*
X161401952Y-106203054D01*
X161415226Y-106182617D01*
X161416556Y-106174215D01*
X161422042Y-106155696D01*
X161425500Y-106147932D01*
X161425500Y-106123572D01*
X161426411Y-106111997D01*
X161428598Y-106098186D01*
X161430222Y-106087934D01*
X161428020Y-106079719D01*
X161425500Y-106060569D01*
X161425500Y-104324058D01*
X161431133Y-104295739D01*
X161447174Y-104271732D01*
X161818906Y-103900000D01*
X162953934Y-102764970D01*
X162956705Y-102762341D01*
X162986509Y-102735507D01*
X162996416Y-102713253D01*
X163001950Y-102703058D01*
X163015226Y-102682617D01*
X163016556Y-102674215D01*
X163022042Y-102655696D01*
X163025500Y-102647932D01*
X163025500Y-102623572D01*
X163026411Y-102611997D01*
X163026894Y-102608944D01*
X163030222Y-102587934D01*
X163028020Y-102579719D01*
X163025500Y-102560569D01*
X163025500Y-101524058D01*
X163031133Y-101495740D01*
X163047174Y-101471732D01*
X163271731Y-101247174D01*
X163295738Y-101231133D01*
X163324057Y-101225500D01*
X165192139Y-101225500D01*
X165196012Y-101225601D01*
X165236064Y-101227700D01*
X165258812Y-101218967D01*
X165269930Y-101215673D01*
X165293768Y-101210607D01*
X165300644Y-101205610D01*
X165317624Y-101196392D01*
X165317621Y-101196392D01*
X165325560Y-101193346D01*
X165342793Y-101176112D01*
X165351616Y-101168577D01*
X165371323Y-101154260D01*
X165375572Y-101146898D01*
X165387329Y-101131575D01*
X165392293Y-101126611D01*
X165421753Y-101108560D01*
X165438507Y-101107242D01*
X165438422Y-101106703D01*
X165450000Y-101104869D01*
X165452829Y-101104421D01*
X165467684Y-101102068D01*
X165559661Y-101087500D01*
X165658587Y-101037095D01*
X165737095Y-100958587D01*
X165787500Y-100859661D01*
X165789060Y-100849811D01*
X166195320Y-100849811D01*
X166212689Y-100959472D01*
X166263094Y-101058398D01*
X166341602Y-101136906D01*
X166440528Y-101187311D01*
X166550189Y-101204680D01*
X166659850Y-101187311D01*
X166758776Y-101136906D01*
X166837284Y-101058398D01*
X166887689Y-100959472D01*
X166905058Y-100849811D01*
X166887689Y-100740150D01*
X166837284Y-100641224D01*
X166758776Y-100562716D01*
X166659850Y-100512311D01*
X166550189Y-100494942D01*
X166440528Y-100512311D01*
X166406675Y-100529560D01*
X166341601Y-100562716D01*
X166263094Y-100641223D01*
X166239722Y-100687095D01*
X166212689Y-100740150D01*
X166204740Y-100790339D01*
X166199427Y-100823884D01*
X166195320Y-100849811D01*
X165789060Y-100849811D01*
X165804869Y-100750000D01*
X165787500Y-100640339D01*
X165763451Y-100593141D01*
X165755488Y-100555674D01*
X165767327Y-100519243D01*
X165795793Y-100493613D01*
X165808587Y-100487095D01*
X165887095Y-100408587D01*
X165937500Y-100309661D01*
X165954869Y-100200000D01*
X165937500Y-100090339D01*
X165887095Y-99991413D01*
X165808587Y-99912905D01*
X165757930Y-99887094D01*
X165735872Y-99875855D01*
X165707405Y-99850223D01*
X165695568Y-99813793D01*
X165703533Y-99776325D01*
X165737500Y-99709661D01*
X165754869Y-99600000D01*
X165737500Y-99490339D01*
X165687095Y-99391413D01*
X165608587Y-99312905D01*
X165509661Y-99262500D01*
X165400000Y-99245131D01*
X165290339Y-99262500D01*
X165273400Y-99271131D01*
X165191412Y-99312905D01*
X165112905Y-99391412D01*
X165097238Y-99422161D01*
X165062500Y-99490339D01*
X165045131Y-99600000D01*
X165062500Y-99709661D01*
X165112905Y-99808587D01*
X165191413Y-99887095D01*
X165264128Y-99924144D01*
X165292593Y-99949775D01*
X165304431Y-99986205D01*
X165296467Y-100023673D01*
X165262500Y-100090338D01*
X165247613Y-100184326D01*
X165245131Y-100200000D01*
X165250108Y-100231421D01*
X165262500Y-100309661D01*
X165286547Y-100356857D01*
X165294511Y-100394324D01*
X165282674Y-100430753D01*
X165254210Y-100456384D01*
X165241414Y-100462904D01*
X165162905Y-100541412D01*
X165136547Y-100593143D01*
X165112500Y-100640339D01*
X165102859Y-100701214D01*
X165101138Y-100712077D01*
X165087916Y-100743996D01*
X165061644Y-100766435D01*
X165028049Y-100774500D01*
X164299834Y-100774500D01*
X164258722Y-100762029D01*
X164231467Y-100728819D01*
X164227256Y-100686063D01*
X164247508Y-100648174D01*
X164264549Y-100631133D01*
X164287095Y-100608587D01*
X164337500Y-100509661D01*
X164354869Y-100400000D01*
X164337500Y-100290339D01*
X164287095Y-100191413D01*
X164208587Y-100112905D01*
X164109661Y-100062500D01*
X164000000Y-100045131D01*
X163890339Y-100062500D01*
X163840875Y-100087702D01*
X163791412Y-100112905D01*
X163751492Y-100152826D01*
X163727485Y-100168867D01*
X163699166Y-100174500D01*
X162857861Y-100174500D01*
X162853988Y-100174399D01*
X162850055Y-100174192D01*
X162813936Y-100172300D01*
X162813935Y-100172300D01*
X162791193Y-100181029D01*
X162780064Y-100184326D01*
X162756230Y-100189392D01*
X162749348Y-100194393D01*
X162732379Y-100203607D01*
X162724439Y-100206655D01*
X162707209Y-100223884D01*
X162698384Y-100231421D01*
X162678676Y-100245740D01*
X162674424Y-100253105D01*
X162662667Y-100268426D01*
X161946100Y-100984993D01*
X161943292Y-100987658D01*
X161913490Y-101014493D01*
X161903581Y-101036748D01*
X161898043Y-101046948D01*
X161884773Y-101067381D01*
X161883443Y-101075782D01*
X161877958Y-101094299D01*
X161875013Y-101100914D01*
X161848523Y-101132345D01*
X161809348Y-101144792D01*
X161769574Y-101134413D01*
X161741475Y-101104412D01*
X161739202Y-101099951D01*
X161721095Y-101064413D01*
X161678507Y-101021825D01*
X161659354Y-100988651D01*
X161659355Y-100950345D01*
X161678507Y-100917174D01*
X161687095Y-100908587D01*
X161737500Y-100809661D01*
X161754869Y-100700000D01*
X161737500Y-100590339D01*
X161687095Y-100491413D01*
X161648008Y-100452325D01*
X161628855Y-100419153D01*
X161628855Y-100380847D01*
X161648008Y-100347674D01*
X161663508Y-100332174D01*
X161687095Y-100308587D01*
X161737500Y-100209661D01*
X161754869Y-100100000D01*
X161737500Y-99990339D01*
X161687095Y-99891413D01*
X161673679Y-99877997D01*
X161654050Y-99842946D01*
X161655627Y-99802804D01*
X161677946Y-99769401D01*
X161714423Y-99752584D01*
X161809661Y-99737500D01*
X161908587Y-99687095D01*
X161987095Y-99608587D01*
X162037500Y-99509661D01*
X162054869Y-99400000D01*
X163645131Y-99400000D01*
X163662500Y-99509661D01*
X163712905Y-99608587D01*
X163791413Y-99687095D01*
X163890339Y-99737500D01*
X164000000Y-99754869D01*
X164109661Y-99737500D01*
X164208587Y-99687095D01*
X164287095Y-99608587D01*
X164337500Y-99509661D01*
X164354869Y-99400000D01*
X164337500Y-99290339D01*
X164287095Y-99191413D01*
X164208587Y-99112905D01*
X164109661Y-99062500D01*
X164000000Y-99045131D01*
X163890339Y-99062500D01*
X163853220Y-99081413D01*
X163791412Y-99112905D01*
X163712905Y-99191412D01*
X163710222Y-99196678D01*
X163662500Y-99290339D01*
X163645131Y-99400000D01*
X162054869Y-99400000D01*
X162037500Y-99290339D01*
X161987095Y-99191413D01*
X161930908Y-99135226D01*
X161910145Y-99094476D01*
X161917299Y-99049305D01*
X161937500Y-99009661D01*
X161954869Y-98900000D01*
X166445131Y-98900000D01*
X166462500Y-99009661D01*
X166512905Y-99108587D01*
X166591413Y-99187095D01*
X166690339Y-99237500D01*
X166800000Y-99254869D01*
X166909661Y-99237500D01*
X167008587Y-99187095D01*
X167087095Y-99108587D01*
X167137500Y-99009661D01*
X167154869Y-98900000D01*
X167137500Y-98790339D01*
X167087095Y-98691413D01*
X167008587Y-98612905D01*
X166909661Y-98562500D01*
X166800000Y-98545131D01*
X166690339Y-98562500D01*
X166642070Y-98587094D01*
X166591412Y-98612905D01*
X166512905Y-98691412D01*
X166504154Y-98708587D01*
X166462500Y-98790339D01*
X166445131Y-98900000D01*
X161954869Y-98900000D01*
X161937500Y-98790339D01*
X161887095Y-98691413D01*
X161808587Y-98612905D01*
X161709661Y-98562500D01*
X161709658Y-98562499D01*
X161699218Y-98557180D01*
X161700219Y-98555214D01*
X161675961Y-98542850D01*
X161655202Y-98502105D01*
X161648865Y-98462095D01*
X161637500Y-98390339D01*
X161587095Y-98291413D01*
X161508587Y-98212905D01*
X161437289Y-98176577D01*
X161404952Y-98144240D01*
X161397797Y-98099068D01*
X161418560Y-98058318D01*
X161459308Y-98037555D01*
X161459661Y-98037500D01*
X161558587Y-97987095D01*
X161621625Y-97924056D01*
X161662372Y-97903295D01*
X161707544Y-97910449D01*
X161739883Y-97942788D01*
X161747038Y-97987959D01*
X161745131Y-98000000D01*
X161762500Y-98109661D01*
X161812905Y-98208587D01*
X161891413Y-98287095D01*
X161990339Y-98337500D01*
X162100000Y-98354869D01*
X162209661Y-98337500D01*
X162308587Y-98287095D01*
X162387095Y-98208587D01*
X162437500Y-98109661D01*
X162454869Y-98000000D01*
X162448375Y-97959000D01*
X164174131Y-97959000D01*
X164191500Y-98068661D01*
X164241905Y-98167587D01*
X164320413Y-98246095D01*
X164419339Y-98296500D01*
X164529000Y-98313869D01*
X164638661Y-98296500D01*
X164737587Y-98246095D01*
X164816095Y-98167587D01*
X164866500Y-98068661D01*
X164883869Y-97959000D01*
X164866500Y-97849339D01*
X164843139Y-97803491D01*
X164835176Y-97766024D01*
X164847014Y-97729594D01*
X164875481Y-97703963D01*
X164883261Y-97699999D01*
X164908587Y-97687095D01*
X164987095Y-97608587D01*
X165037500Y-97509661D01*
X165054869Y-97400000D01*
X165037500Y-97290339D01*
X164987095Y-97191413D01*
X164948008Y-97152325D01*
X164928855Y-97119153D01*
X164928855Y-97080847D01*
X164948008Y-97047674D01*
X164966827Y-97028855D01*
X164987095Y-97008587D01*
X165037500Y-96909661D01*
X165054869Y-96800000D01*
X165037500Y-96690339D01*
X164987095Y-96591413D01*
X164908587Y-96512905D01*
X164809661Y-96462500D01*
X164700000Y-96445131D01*
X164590339Y-96462500D01*
X164561216Y-96477339D01*
X164491412Y-96512905D01*
X164412905Y-96591412D01*
X164403608Y-96609659D01*
X164362500Y-96690339D01*
X164345131Y-96800000D01*
X164362500Y-96909661D01*
X164388934Y-96961540D01*
X164412905Y-97008587D01*
X164451992Y-97047674D01*
X164471145Y-97080847D01*
X164471145Y-97119153D01*
X164451992Y-97152326D01*
X164412905Y-97191412D01*
X164393403Y-97229688D01*
X164362500Y-97290339D01*
X164357957Y-97319021D01*
X164345131Y-97400000D01*
X164362500Y-97509661D01*
X164385859Y-97555507D01*
X164393823Y-97592974D01*
X164381986Y-97629404D01*
X164353520Y-97655035D01*
X164320414Y-97671903D01*
X164241905Y-97750412D01*
X164216702Y-97799875D01*
X164191500Y-97849339D01*
X164174131Y-97959000D01*
X162448375Y-97959000D01*
X162437500Y-97890339D01*
X162387095Y-97791413D01*
X162308587Y-97712905D01*
X162275580Y-97696087D01*
X162243241Y-97663748D01*
X162236087Y-97618576D01*
X162237498Y-97609663D01*
X162237500Y-97609661D01*
X162254869Y-97500000D01*
X162237500Y-97390339D01*
X162187095Y-97291413D01*
X162108587Y-97212905D01*
X162100299Y-97204617D01*
X162101255Y-97203660D01*
X162085034Y-97188667D01*
X162074128Y-97150000D01*
X162085034Y-97111333D01*
X162101255Y-97096339D01*
X162100299Y-97095383D01*
X162147674Y-97048008D01*
X162180847Y-97028855D01*
X162219153Y-97028855D01*
X162252326Y-97048008D01*
X162291413Y-97087095D01*
X162390339Y-97137500D01*
X162500000Y-97154869D01*
X162609661Y-97137500D01*
X162708587Y-97087095D01*
X162787095Y-97008587D01*
X162837500Y-96909661D01*
X162854869Y-96800000D01*
X162837500Y-96690339D01*
X162787095Y-96591413D01*
X162708587Y-96512905D01*
X162609661Y-96462500D01*
X162609660Y-96462499D01*
X162599594Y-96457371D01*
X162576920Y-96447275D01*
X162554406Y-96416286D01*
X162550403Y-96378193D01*
X162554869Y-96350000D01*
X162537500Y-96240339D01*
X162487095Y-96141413D01*
X162408587Y-96062905D01*
X162309661Y-96012500D01*
X162200000Y-95995131D01*
X162090339Y-96012500D01*
X162051424Y-96032328D01*
X161991412Y-96062905D01*
X161912905Y-96141412D01*
X161898291Y-96170094D01*
X161862500Y-96240339D01*
X161845735Y-96346184D01*
X161845131Y-96350001D01*
X161849596Y-96378193D01*
X161845592Y-96416286D01*
X161823079Y-96447275D01*
X161800407Y-96457370D01*
X161691412Y-96512905D01*
X161612905Y-96591412D01*
X161603608Y-96609659D01*
X161562500Y-96690339D01*
X161545131Y-96800000D01*
X161562500Y-96909661D01*
X161588934Y-96961540D01*
X161612905Y-97008587D01*
X161699701Y-97095383D01*
X161698744Y-97096339D01*
X161714967Y-97111336D01*
X161725871Y-97150000D01*
X161714967Y-97188664D01*
X161698744Y-97203660D01*
X161699701Y-97204617D01*
X161612903Y-97291414D01*
X161586159Y-97343903D01*
X161560528Y-97372369D01*
X161524098Y-97384206D01*
X161486632Y-97376242D01*
X161459661Y-97362500D01*
X161350000Y-97345131D01*
X161240339Y-97362500D01*
X161197738Y-97384206D01*
X161141412Y-97412905D01*
X161062905Y-97491412D01*
X161037702Y-97540875D01*
X161012500Y-97590339D01*
X160995131Y-97700000D01*
X161012500Y-97809661D01*
X161035774Y-97855339D01*
X161050347Y-97883940D01*
X161057501Y-97929111D01*
X161036738Y-97969861D01*
X160995989Y-97990624D01*
X160950818Y-97983470D01*
X160909661Y-97962500D01*
X160800000Y-97945131D01*
X160690339Y-97962500D01*
X160649183Y-97983470D01*
X160591412Y-98012905D01*
X160512905Y-98091412D01*
X160503608Y-98109659D01*
X160462500Y-98190339D01*
X160457006Y-98225027D01*
X160445686Y-98296499D01*
X160445131Y-98300000D01*
X160462500Y-98409661D01*
X160512905Y-98508587D01*
X160591413Y-98587095D01*
X160664128Y-98624144D01*
X160692593Y-98649775D01*
X160704431Y-98686205D01*
X160696467Y-98723673D01*
X160662500Y-98790338D01*
X160662499Y-98790339D01*
X160662500Y-98790339D01*
X160645131Y-98900000D01*
X160662500Y-99009661D01*
X160712905Y-99108587D01*
X160791413Y-99187095D01*
X160890339Y-99237500D01*
X161000000Y-99254869D01*
X161109661Y-99237500D01*
X161208587Y-99187095D01*
X161247674Y-99148007D01*
X161280847Y-99128855D01*
X161319153Y-99128855D01*
X161352326Y-99148008D01*
X161369091Y-99164773D01*
X161389854Y-99205522D01*
X161382700Y-99250693D01*
X161362500Y-99290338D01*
X161362499Y-99290339D01*
X161362500Y-99290339D01*
X161345131Y-99400000D01*
X161362500Y-99509661D01*
X161407231Y-99597451D01*
X161412905Y-99608587D01*
X161426320Y-99622002D01*
X161445949Y-99657053D01*
X161444372Y-99697195D01*
X161422053Y-99730598D01*
X161385571Y-99747416D01*
X161290339Y-99762500D01*
X161240876Y-99787702D01*
X161191412Y-99812905D01*
X161112905Y-99891412D01*
X161098141Y-99920389D01*
X161062500Y-99990339D01*
X161062499Y-99990340D01*
X161062500Y-99990340D01*
X161046482Y-100091473D01*
X161045131Y-100100000D01*
X161062500Y-100209661D01*
X161112904Y-100308586D01*
X161112905Y-100308587D01*
X161151992Y-100347674D01*
X161171145Y-100380847D01*
X161171145Y-100419153D01*
X161151992Y-100452326D01*
X161112905Y-100491412D01*
X161103608Y-100509659D01*
X161062500Y-100590339D01*
X161045131Y-100700000D01*
X161062500Y-100809661D01*
X161106990Y-100896978D01*
X161112905Y-100908587D01*
X161125492Y-100921174D01*
X161145744Y-100959063D01*
X161141533Y-101001819D01*
X161114278Y-101035029D01*
X161073166Y-101047500D01*
X160734861Y-101047500D01*
X160730988Y-101047399D01*
X160690933Y-101045299D01*
X160668188Y-101054030D01*
X160657060Y-101057326D01*
X160633233Y-101062391D01*
X160626355Y-101067389D01*
X160609384Y-101076604D01*
X160601441Y-101079653D01*
X160584209Y-101096884D01*
X160575384Y-101104421D01*
X160555676Y-101118740D01*
X160551424Y-101126105D01*
X160539667Y-101141426D01*
X160046100Y-101634993D01*
X160043292Y-101637658D01*
X160013490Y-101664493D01*
X160003581Y-101686748D01*
X159998042Y-101696950D01*
X159986560Y-101714631D01*
X159950111Y-101743754D01*
X159903481Y-101745281D01*
X159865205Y-101718604D01*
X159850498Y-101674329D01*
X159850499Y-96500000D01*
X160545131Y-96500000D01*
X160562500Y-96609661D01*
X160612905Y-96708587D01*
X160691413Y-96787095D01*
X160790339Y-96837500D01*
X160900000Y-96854869D01*
X161009661Y-96837500D01*
X161108587Y-96787095D01*
X161187095Y-96708587D01*
X161237500Y-96609661D01*
X161254869Y-96500000D01*
X161237500Y-96390339D01*
X161187095Y-96291413D01*
X161108587Y-96212905D01*
X161009661Y-96162500D01*
X160900000Y-96145131D01*
X160790339Y-96162500D01*
X160742068Y-96187095D01*
X160691412Y-96212905D01*
X160612905Y-96291412D01*
X160606237Y-96304500D01*
X160562500Y-96390339D01*
X160545131Y-96500000D01*
X159850499Y-96500000D01*
X159850499Y-95300000D01*
X160545131Y-95300000D01*
X160562500Y-95409661D01*
X160612905Y-95508587D01*
X160691413Y-95587095D01*
X160790339Y-95637500D01*
X160900000Y-95654869D01*
X161009661Y-95637500D01*
X161083259Y-95600000D01*
X162245131Y-95600000D01*
X162262500Y-95709661D01*
X162312905Y-95808587D01*
X162391413Y-95887095D01*
X162490339Y-95937500D01*
X162600000Y-95954869D01*
X162709661Y-95937500D01*
X162808587Y-95887095D01*
X162812682Y-95883000D01*
X164212131Y-95883000D01*
X164229500Y-95992661D01*
X164279905Y-96091587D01*
X164358413Y-96170095D01*
X164457339Y-96220500D01*
X164567000Y-96237869D01*
X164676661Y-96220500D01*
X164775587Y-96170095D01*
X164854095Y-96091587D01*
X164904500Y-95992661D01*
X164921869Y-95883000D01*
X164904500Y-95773339D01*
X164854095Y-95674413D01*
X164775587Y-95595905D01*
X164676661Y-95545500D01*
X164567000Y-95528131D01*
X164457339Y-95545500D01*
X164407875Y-95570702D01*
X164358412Y-95595905D01*
X164279905Y-95674412D01*
X164273015Y-95687935D01*
X164229500Y-95773339D01*
X164212131Y-95883000D01*
X162812682Y-95883000D01*
X162887095Y-95808587D01*
X162937500Y-95709661D01*
X162954869Y-95600000D01*
X162937500Y-95490339D01*
X162887095Y-95391413D01*
X162808587Y-95312905D01*
X162709661Y-95262500D01*
X162600000Y-95245131D01*
X162490339Y-95262500D01*
X162456845Y-95279566D01*
X162391412Y-95312905D01*
X162312905Y-95391412D01*
X162289270Y-95437799D01*
X162262500Y-95490339D01*
X162245131Y-95600000D01*
X161083259Y-95600000D01*
X161108587Y-95587095D01*
X161187095Y-95508587D01*
X161237500Y-95409661D01*
X161254869Y-95300000D01*
X161237500Y-95190339D01*
X161187095Y-95091413D01*
X161148008Y-95052326D01*
X161128855Y-95019153D01*
X161128855Y-94980847D01*
X161148008Y-94947674D01*
X161162464Y-94933218D01*
X161187095Y-94908587D01*
X161237500Y-94809661D01*
X161254869Y-94700000D01*
X161237500Y-94590339D01*
X161187095Y-94491413D01*
X161145682Y-94450000D01*
X163545131Y-94450000D01*
X163562500Y-94559661D01*
X163612905Y-94658587D01*
X163691413Y-94737095D01*
X163790339Y-94787500D01*
X163900000Y-94804869D01*
X164009661Y-94787500D01*
X164108587Y-94737095D01*
X164187095Y-94658587D01*
X164237500Y-94559661D01*
X164254869Y-94450000D01*
X164237500Y-94340339D01*
X164216946Y-94300000D01*
X165145131Y-94300000D01*
X165162500Y-94409661D01*
X165212905Y-94508587D01*
X165291413Y-94587095D01*
X165390339Y-94637500D01*
X165500000Y-94654869D01*
X165609661Y-94637500D01*
X165708587Y-94587095D01*
X165747673Y-94548008D01*
X165780847Y-94528855D01*
X165819153Y-94528855D01*
X165852326Y-94548008D01*
X165891413Y-94587095D01*
X165990339Y-94637500D01*
X166100000Y-94654869D01*
X166209661Y-94637500D01*
X166308587Y-94587095D01*
X166387095Y-94508587D01*
X166437500Y-94409661D01*
X166454869Y-94300000D01*
X166437500Y-94190339D01*
X166387095Y-94091413D01*
X166308587Y-94012905D01*
X166209661Y-93962500D01*
X166100000Y-93945131D01*
X165990339Y-93962500D01*
X165946317Y-93984930D01*
X165891412Y-94012905D01*
X165852326Y-94051992D01*
X165819153Y-94071145D01*
X165780847Y-94071145D01*
X165747674Y-94051992D01*
X165708587Y-94012905D01*
X165708586Y-94012904D01*
X165609661Y-93962500D01*
X165500000Y-93945131D01*
X165390339Y-93962500D01*
X165346317Y-93984930D01*
X165291412Y-94012905D01*
X165212905Y-94091412D01*
X165206686Y-94103618D01*
X165162500Y-94190339D01*
X165159659Y-94208275D01*
X165145965Y-94294737D01*
X165145131Y-94300000D01*
X164216946Y-94300000D01*
X164187095Y-94241413D01*
X164148008Y-94202326D01*
X164128855Y-94169153D01*
X164128855Y-94130847D01*
X164148008Y-94097674D01*
X164162711Y-94082971D01*
X164187095Y-94058587D01*
X164237500Y-93959661D01*
X164254869Y-93850000D01*
X164237500Y-93740339D01*
X164187095Y-93641413D01*
X164108587Y-93562905D01*
X164009661Y-93512500D01*
X163900000Y-93495131D01*
X163790339Y-93512500D01*
X163741273Y-93537500D01*
X163691412Y-93562905D01*
X163612905Y-93641412D01*
X163597830Y-93670999D01*
X163562500Y-93740339D01*
X163545131Y-93850000D01*
X163562500Y-93959661D01*
X163608530Y-94050000D01*
X163612905Y-94058587D01*
X163651992Y-94097674D01*
X163671145Y-94130847D01*
X163671145Y-94169153D01*
X163651992Y-94202326D01*
X163612905Y-94241412D01*
X163609133Y-94248816D01*
X163562500Y-94340339D01*
X163545131Y-94450000D01*
X161145682Y-94450000D01*
X161108587Y-94412905D01*
X161009661Y-94362500D01*
X160900000Y-94345131D01*
X160790339Y-94362500D01*
X160750490Y-94382804D01*
X160691412Y-94412905D01*
X160612905Y-94491412D01*
X160596865Y-94522894D01*
X160562500Y-94590339D01*
X160545131Y-94700000D01*
X160562500Y-94809661D01*
X160602935Y-94889019D01*
X160612905Y-94908587D01*
X160651992Y-94947674D01*
X160671145Y-94980847D01*
X160671145Y-95019153D01*
X160651992Y-95052326D01*
X160612905Y-95091412D01*
X160587702Y-95140876D01*
X160562500Y-95190339D01*
X160545131Y-95300000D01*
X159850499Y-95300000D01*
X159850500Y-94050000D01*
X161945131Y-94050000D01*
X161962500Y-94159661D01*
X162012905Y-94258587D01*
X162091413Y-94337095D01*
X162190339Y-94387500D01*
X162300000Y-94404869D01*
X162409661Y-94387500D01*
X162508587Y-94337095D01*
X162587095Y-94258587D01*
X162637500Y-94159661D01*
X162654869Y-94050000D01*
X162637500Y-93940339D01*
X162587095Y-93841413D01*
X162508587Y-93762905D01*
X162409661Y-93712500D01*
X162300000Y-93695131D01*
X162190339Y-93712500D01*
X162143497Y-93736367D01*
X162091412Y-93762905D01*
X162012905Y-93841412D01*
X162007476Y-93852068D01*
X161962500Y-93940339D01*
X161945131Y-94050000D01*
X159850500Y-94050000D01*
X159850500Y-93022158D01*
X159850498Y-93022152D01*
X159850499Y-93015496D01*
X159850498Y-93015474D01*
X159850498Y-92947651D01*
X159818476Y-92745468D01*
X159800912Y-92691413D01*
X159755219Y-92550784D01*
X159662286Y-92368392D01*
X159649288Y-92350502D01*
X159541966Y-92202785D01*
X159397216Y-92058035D01*
X159231613Y-91937717D01*
X159231612Y-91937716D01*
X159231610Y-91937715D01*
X159227132Y-91935433D01*
X159193527Y-91900481D01*
X159188774Y-91852225D01*
X159214916Y-91811387D01*
X159260729Y-91795500D01*
X161454208Y-91795500D01*
X161476846Y-91799346D01*
X161477547Y-91799266D01*
X161477548Y-91799267D01*
X161506854Y-91795964D01*
X161515139Y-91795500D01*
X161522025Y-91795500D01*
X161522029Y-91795500D01*
X161528758Y-91793963D01*
X161536915Y-91792577D01*
X161566230Y-91789275D01*
X161566231Y-91789274D01*
X161566935Y-91789195D01*
X161586450Y-91781111D01*
X161587003Y-91780669D01*
X161587006Y-91780669D01*
X161610058Y-91762283D01*
X161616821Y-91757485D01*
X161622663Y-91753816D01*
X161627543Y-91748934D01*
X161633726Y-91743410D01*
X161656779Y-91725027D01*
X161656779Y-91725025D01*
X161657332Y-91724585D01*
X161670615Y-91705862D01*
X161805668Y-91570809D01*
X161835126Y-91552758D01*
X161869566Y-91550048D01*
X161900000Y-91554869D01*
X162009661Y-91537500D01*
X162108587Y-91487095D01*
X162187095Y-91408587D01*
X162237500Y-91309661D01*
X162254869Y-91200000D01*
X162252584Y-91185574D01*
X162258071Y-91143901D01*
X162285370Y-91111938D01*
X162325673Y-91100000D01*
X162925666Y-91100000D01*
X162966778Y-91112471D01*
G37*
%TD.AperFunction*%
%TD*%
%TA.AperFunction,Conductor*%
%TO.N,/STM32/STM32 Power/VDD11*%
G36*
X149156968Y-96509446D02*
G01*
X149172512Y-96533729D01*
X149169686Y-96562421D01*
X149149703Y-96583204D01*
X149091415Y-96612902D01*
X149012902Y-96691415D01*
X148962499Y-96790338D01*
X148945131Y-96899999D01*
X148962499Y-97009661D01*
X149012902Y-97108584D01*
X149091415Y-97187097D01*
X149190338Y-97237500D01*
X149205332Y-97239874D01*
X149300000Y-97254869D01*
X149409661Y-97237500D01*
X149409661Y-97237499D01*
X149508584Y-97187097D01*
X149508584Y-97187096D01*
X149508587Y-97187095D01*
X149587095Y-97108587D01*
X149616947Y-97050000D01*
X149637500Y-97009661D01*
X149637671Y-97008584D01*
X149654869Y-96900000D01*
X149637500Y-96790339D01*
X149637500Y-96790338D01*
X149587097Y-96691415D01*
X149508584Y-96612902D01*
X149450297Y-96583204D01*
X149430314Y-96562421D01*
X149427488Y-96533729D01*
X149443032Y-96509446D01*
X149470272Y-96500000D01*
X150206000Y-96500000D01*
X150237113Y-96512887D01*
X150250000Y-96544000D01*
X150250000Y-97317372D01*
X150242901Y-97341336D01*
X150223896Y-97357568D01*
X150199117Y-97360830D01*
X150100000Y-97345131D01*
X150099999Y-97345131D01*
X149990338Y-97362499D01*
X149891415Y-97412902D01*
X149812902Y-97491415D01*
X149762499Y-97590338D01*
X149745131Y-97700000D01*
X149762499Y-97809661D01*
X149812902Y-97908584D01*
X149891415Y-97987097D01*
X149990338Y-98037500D01*
X150007706Y-98040250D01*
X150100000Y-98054869D01*
X150199117Y-98039170D01*
X150223896Y-98042432D01*
X150242901Y-98058664D01*
X150250000Y-98082628D01*
X150250000Y-98731774D01*
X150246651Y-98748612D01*
X150237113Y-98762887D01*
X149731183Y-99268815D01*
X149702373Y-99281642D01*
X149672380Y-99271896D01*
X149656612Y-99244585D01*
X149650000Y-99202838D01*
X149599597Y-99103915D01*
X149521084Y-99025402D01*
X149422161Y-98974999D01*
X149312500Y-98957631D01*
X149202838Y-98974999D01*
X149103915Y-99025402D01*
X149025402Y-99103915D01*
X148974999Y-99202838D01*
X148957631Y-99312500D01*
X148974999Y-99422161D01*
X149025402Y-99521084D01*
X149103915Y-99599597D01*
X149202838Y-99650000D01*
X149244585Y-99656612D01*
X149271896Y-99672380D01*
X149281642Y-99702373D01*
X149268815Y-99731183D01*
X149256483Y-99743515D01*
X149232254Y-99755860D01*
X149190338Y-99762499D01*
X149091415Y-99812902D01*
X149012902Y-99891415D01*
X148962499Y-99990338D01*
X148945131Y-100100000D01*
X148962499Y-100209660D01*
X148995204Y-100273846D01*
X149000000Y-100293822D01*
X149000000Y-100706000D01*
X148987113Y-100737113D01*
X148956000Y-100750000D01*
X148843909Y-100750000D01*
X148820919Y-100743516D01*
X148804706Y-100725977D01*
X148787095Y-100691413D01*
X148708587Y-100612905D01*
X148708584Y-100612902D01*
X148609661Y-100562499D01*
X148500000Y-100545131D01*
X148390338Y-100562499D01*
X148291415Y-100612902D01*
X148212905Y-100691412D01*
X148207360Y-100702294D01*
X148195293Y-100725977D01*
X148179081Y-100743516D01*
X148156091Y-100750000D01*
X148043909Y-100750000D01*
X148020919Y-100743516D01*
X148004706Y-100725977D01*
X147987095Y-100691413D01*
X147908587Y-100612905D01*
X147908584Y-100612902D01*
X147809661Y-100562499D01*
X147700000Y-100545131D01*
X147590338Y-100562499D01*
X147491415Y-100612902D01*
X147412905Y-100691412D01*
X147407360Y-100702294D01*
X147395293Y-100725977D01*
X147379081Y-100743516D01*
X147356091Y-100750000D01*
X145643909Y-100750000D01*
X145620919Y-100743516D01*
X145604706Y-100725977D01*
X145587095Y-100691413D01*
X145508587Y-100612905D01*
X145508584Y-100612902D01*
X145409661Y-100562499D01*
X145300000Y-100545131D01*
X145190338Y-100562499D01*
X145091415Y-100612902D01*
X145012905Y-100691412D01*
X145007360Y-100702294D01*
X144995293Y-100725977D01*
X144979081Y-100743516D01*
X144956091Y-100750000D01*
X144843909Y-100750000D01*
X144820919Y-100743516D01*
X144804706Y-100725977D01*
X144787095Y-100691413D01*
X144708587Y-100612905D01*
X144708584Y-100612902D01*
X144609661Y-100562499D01*
X144500000Y-100545131D01*
X144390338Y-100562499D01*
X144291415Y-100612902D01*
X144212905Y-100691412D01*
X144207360Y-100702294D01*
X144195293Y-100725977D01*
X144179081Y-100743516D01*
X144156091Y-100750000D01*
X143243909Y-100750000D01*
X143220919Y-100743516D01*
X143204706Y-100725977D01*
X143187095Y-100691413D01*
X143108587Y-100612905D01*
X143108584Y-100612902D01*
X143024025Y-100569818D01*
X143006484Y-100553604D01*
X143000000Y-100530614D01*
X143000000Y-100469386D01*
X143006484Y-100446396D01*
X143024025Y-100430182D01*
X143108584Y-100387097D01*
X143108584Y-100387096D01*
X143108587Y-100387095D01*
X143187095Y-100308587D01*
X143192024Y-100298915D01*
X143237500Y-100209661D01*
X143237500Y-100209660D01*
X143254869Y-100100000D01*
X144145131Y-100100000D01*
X144162499Y-100209661D01*
X144212902Y-100308584D01*
X144291415Y-100387097D01*
X144390338Y-100437500D01*
X144405332Y-100439874D01*
X144500000Y-100454869D01*
X144609661Y-100437500D01*
X144609661Y-100437499D01*
X144708584Y-100387097D01*
X144708584Y-100387096D01*
X144708587Y-100387095D01*
X144787095Y-100308587D01*
X144792024Y-100298915D01*
X144837500Y-100209661D01*
X144837500Y-100209660D01*
X144854869Y-100100000D01*
X144945131Y-100100000D01*
X144962499Y-100209661D01*
X145012902Y-100308584D01*
X145091415Y-100387097D01*
X145190338Y-100437500D01*
X145205332Y-100439874D01*
X145300000Y-100454869D01*
X145409661Y-100437500D01*
X145409661Y-100437499D01*
X145508584Y-100387097D01*
X145508584Y-100387096D01*
X145508587Y-100387095D01*
X145587095Y-100308587D01*
X145592024Y-100298915D01*
X145637500Y-100209661D01*
X145637500Y-100209660D01*
X145654869Y-100100000D01*
X146545131Y-100100000D01*
X146562499Y-100209661D01*
X146612902Y-100308584D01*
X146691415Y-100387097D01*
X146790338Y-100437500D01*
X146805332Y-100439874D01*
X146900000Y-100454869D01*
X147009661Y-100437500D01*
X147009661Y-100437499D01*
X147108584Y-100387097D01*
X147108584Y-100387096D01*
X147108587Y-100387095D01*
X147187095Y-100308587D01*
X147192024Y-100298915D01*
X147237500Y-100209661D01*
X147237500Y-100209660D01*
X147254869Y-100100000D01*
X147345131Y-100100000D01*
X147362499Y-100209661D01*
X147412902Y-100308584D01*
X147491415Y-100387097D01*
X147590338Y-100437500D01*
X147605332Y-100439874D01*
X147700000Y-100454869D01*
X147809661Y-100437500D01*
X147809661Y-100437499D01*
X147908584Y-100387097D01*
X147908584Y-100387096D01*
X147908587Y-100387095D01*
X147987095Y-100308587D01*
X147992024Y-100298915D01*
X148037500Y-100209661D01*
X148037500Y-100209660D01*
X148054869Y-100100000D01*
X148037500Y-99990339D01*
X148037500Y-99990338D01*
X147987097Y-99891415D01*
X147908584Y-99812902D01*
X147809661Y-99762499D01*
X147700000Y-99745131D01*
X147590338Y-99762499D01*
X147491415Y-99812902D01*
X147412902Y-99891415D01*
X147362499Y-99990338D01*
X147345131Y-100100000D01*
X147254869Y-100100000D01*
X147237500Y-99990339D01*
X147237500Y-99990338D01*
X147187097Y-99891415D01*
X147108584Y-99812902D01*
X147009661Y-99762499D01*
X146900000Y-99745131D01*
X146790338Y-99762499D01*
X146691415Y-99812902D01*
X146612902Y-99891415D01*
X146562499Y-99990338D01*
X146545131Y-100100000D01*
X145654869Y-100100000D01*
X145637500Y-99990339D01*
X145637500Y-99990338D01*
X145587097Y-99891415D01*
X145508584Y-99812902D01*
X145409661Y-99762499D01*
X145300000Y-99745131D01*
X145190338Y-99762499D01*
X145091415Y-99812902D01*
X145012902Y-99891415D01*
X144962499Y-99990338D01*
X144945131Y-100100000D01*
X144854869Y-100100000D01*
X144837500Y-99990339D01*
X144837500Y-99990338D01*
X144787097Y-99891415D01*
X144708584Y-99812902D01*
X144609661Y-99762499D01*
X144500000Y-99745131D01*
X144390338Y-99762499D01*
X144291415Y-99812902D01*
X144212902Y-99891415D01*
X144162499Y-99990338D01*
X144145131Y-100100000D01*
X143254869Y-100100000D01*
X143237500Y-99990339D01*
X143237500Y-99990338D01*
X143187097Y-99891415D01*
X143108584Y-99812902D01*
X143024025Y-99769818D01*
X143006484Y-99753604D01*
X143000000Y-99730614D01*
X143000000Y-99299999D01*
X145745131Y-99299999D01*
X145762499Y-99409661D01*
X145812902Y-99508584D01*
X145891415Y-99587097D01*
X145990338Y-99637500D01*
X146005332Y-99639874D01*
X146100000Y-99654869D01*
X146209661Y-99637500D01*
X146209661Y-99637499D01*
X146308584Y-99587097D01*
X146308584Y-99587096D01*
X146308587Y-99587095D01*
X146387095Y-99508587D01*
X146437500Y-99409661D01*
X146454869Y-99300000D01*
X146437500Y-99190339D01*
X146437500Y-99190338D01*
X146387097Y-99091415D01*
X146308584Y-99012902D01*
X146209661Y-98962499D01*
X146100000Y-98945131D01*
X145990338Y-98962499D01*
X145891415Y-99012902D01*
X145812902Y-99091415D01*
X145762499Y-99190338D01*
X145745131Y-99299999D01*
X143000000Y-99299999D01*
X143000000Y-98544000D01*
X143012887Y-98512887D01*
X143044000Y-98500000D01*
X143307552Y-98500000D01*
X143336128Y-98510542D01*
X143351010Y-98537117D01*
X143362499Y-98609661D01*
X143412902Y-98708584D01*
X143491415Y-98787097D01*
X143590338Y-98837500D01*
X143605332Y-98839874D01*
X143700000Y-98854869D01*
X143809661Y-98837500D01*
X143809660Y-98837500D01*
X143908584Y-98787097D01*
X143908584Y-98787096D01*
X143908587Y-98787095D01*
X143987095Y-98708587D01*
X144023316Y-98637500D01*
X144037500Y-98609661D01*
X144044747Y-98563908D01*
X144048990Y-98537116D01*
X144063872Y-98510542D01*
X144092448Y-98500000D01*
X145186093Y-98500000D01*
X145202931Y-98503349D01*
X145217202Y-98512884D01*
X145268226Y-98563908D01*
X145291415Y-98587097D01*
X145390338Y-98637500D01*
X145405332Y-98639874D01*
X145500000Y-98654869D01*
X145609661Y-98637500D01*
X145609660Y-98637500D01*
X145708584Y-98587097D01*
X145708584Y-98587096D01*
X145708587Y-98587095D01*
X145718887Y-98576794D01*
X145750000Y-98563908D01*
X145781113Y-98576795D01*
X145791415Y-98587097D01*
X145890338Y-98637500D01*
X145905332Y-98639874D01*
X146000000Y-98654869D01*
X146109661Y-98637500D01*
X146109660Y-98637500D01*
X146208584Y-98587097D01*
X146208584Y-98587096D01*
X146208587Y-98587095D01*
X146218887Y-98576794D01*
X146250000Y-98563908D01*
X146281113Y-98576795D01*
X146291415Y-98587097D01*
X146390338Y-98637500D01*
X146405332Y-98639874D01*
X146500000Y-98654869D01*
X146609661Y-98637500D01*
X146609660Y-98637500D01*
X146708584Y-98587097D01*
X146708584Y-98587096D01*
X146708587Y-98587095D01*
X146718887Y-98576794D01*
X146750000Y-98563908D01*
X146781113Y-98576795D01*
X146791415Y-98587097D01*
X146890338Y-98637500D01*
X146905332Y-98639874D01*
X147000000Y-98654869D01*
X147109661Y-98637500D01*
X147109660Y-98637500D01*
X147208584Y-98587097D01*
X147208584Y-98587096D01*
X147208587Y-98587095D01*
X147218887Y-98576794D01*
X147250000Y-98563908D01*
X147281113Y-98576795D01*
X147291415Y-98587097D01*
X147390338Y-98637500D01*
X147405332Y-98639874D01*
X147500000Y-98654869D01*
X147609661Y-98637500D01*
X147609660Y-98637500D01*
X147708584Y-98587097D01*
X147708584Y-98587096D01*
X147708587Y-98587095D01*
X147787095Y-98508587D01*
X147791471Y-98500000D01*
X148945131Y-98500000D01*
X148962499Y-98609661D01*
X149012902Y-98708584D01*
X149091415Y-98787097D01*
X149190338Y-98837500D01*
X149205332Y-98839874D01*
X149300000Y-98854869D01*
X149409661Y-98837500D01*
X149409660Y-98837500D01*
X149508584Y-98787097D01*
X149508584Y-98787096D01*
X149508587Y-98787095D01*
X149587095Y-98708587D01*
X149623316Y-98637500D01*
X149637500Y-98609661D01*
X149641074Y-98587095D01*
X149654869Y-98500000D01*
X149637500Y-98390339D01*
X149637500Y-98390338D01*
X149587097Y-98291415D01*
X149508584Y-98212902D01*
X149409661Y-98162499D01*
X149300000Y-98145131D01*
X149190338Y-98162499D01*
X149091415Y-98212902D01*
X149012902Y-98291415D01*
X148962499Y-98390338D01*
X148945131Y-98500000D01*
X147791471Y-98500000D01*
X147837500Y-98409661D01*
X147840560Y-98390339D01*
X147854869Y-98300000D01*
X147837500Y-98190339D01*
X147837500Y-98190338D01*
X147787097Y-98091415D01*
X147776795Y-98081113D01*
X147763908Y-98050000D01*
X147776795Y-98018887D01*
X147776794Y-98018887D01*
X147787095Y-98008587D01*
X147809559Y-97964500D01*
X147837500Y-97909661D01*
X147840365Y-97891572D01*
X147854869Y-97800000D01*
X147837500Y-97690339D01*
X147837500Y-97690338D01*
X147787097Y-97591415D01*
X147776795Y-97581113D01*
X147763908Y-97550000D01*
X147776795Y-97518887D01*
X147776795Y-97518886D01*
X147787095Y-97508587D01*
X147815775Y-97452300D01*
X147837500Y-97409661D01*
X147837500Y-97409660D01*
X147854869Y-97300000D01*
X147837500Y-97190339D01*
X147837500Y-97190338D01*
X147787097Y-97091415D01*
X147776795Y-97081113D01*
X147763908Y-97050000D01*
X147776795Y-97018887D01*
X147776795Y-97018886D01*
X147787095Y-97008587D01*
X147837500Y-96909661D01*
X147854869Y-96800000D01*
X147839834Y-96705078D01*
X147837500Y-96690338D01*
X147787097Y-96591415D01*
X147776794Y-96581112D01*
X147765406Y-96561386D01*
X147765407Y-96538609D01*
X147776795Y-96518886D01*
X147782797Y-96512884D01*
X147813907Y-96500000D01*
X149129728Y-96500000D01*
X149156968Y-96509446D01*
G37*
%TD.AperFunction*%
%TD*%
%TA.AperFunction,Conductor*%
%TO.N,/Power/VBUS_PROTECTED*%
G36*
X157516028Y-78667334D02*
G01*
X157541635Y-78710190D01*
X157552179Y-78763712D01*
X157630254Y-78981745D01*
X157630255Y-78981748D01*
X157630256Y-78981749D01*
X157736604Y-79179725D01*
X157739853Y-79185772D01*
X157878534Y-79371246D01*
X158043229Y-79534070D01*
X158230280Y-79670622D01*
X158403265Y-79761011D01*
X158435541Y-79777876D01*
X158654455Y-79853454D01*
X158882166Y-79895676D01*
X159113623Y-79903608D01*
X159343690Y-79877073D01*
X159567265Y-79816660D01*
X159779385Y-79723709D01*
X159975347Y-79600281D01*
X160150802Y-79449117D01*
X160164745Y-79432905D01*
X160176616Y-79419101D01*
X160208783Y-79397330D01*
X160247547Y-79394851D01*
X160282225Y-79412347D01*
X164328533Y-83054024D01*
X164336535Y-83062453D01*
X164776349Y-83605477D01*
X164778623Y-83608435D01*
X165202664Y-84189603D01*
X165204785Y-84192668D01*
X165599017Y-84794508D01*
X165600969Y-84797658D01*
X165654204Y-84888623D01*
X165664336Y-84925673D01*
X165654531Y-84962811D01*
X165627431Y-84990031D01*
X165590337Y-85000000D01*
X163274334Y-85000000D01*
X163233222Y-84987529D01*
X163205967Y-84954319D01*
X163201756Y-84911563D01*
X163222008Y-84873674D01*
X163233182Y-84862500D01*
X163265595Y-84830087D01*
X163316000Y-84731161D01*
X163333369Y-84621500D01*
X163316000Y-84511839D01*
X163265595Y-84412913D01*
X163187087Y-84334405D01*
X163088161Y-84284000D01*
X162978500Y-84266631D01*
X162978499Y-84266631D01*
X162923669Y-84275315D01*
X162868839Y-84284000D01*
X162819376Y-84309202D01*
X162769912Y-84334405D01*
X162691405Y-84412912D01*
X162676330Y-84442500D01*
X162641000Y-84511839D01*
X162627037Y-84600000D01*
X162621798Y-84633076D01*
X162621257Y-84632990D01*
X162619939Y-84649748D01*
X162601887Y-84679206D01*
X162302768Y-84978326D01*
X162278761Y-84994367D01*
X162250442Y-85000000D01*
X161626334Y-85000000D01*
X161598015Y-84994367D01*
X161574008Y-84978326D01*
X161508587Y-84912905D01*
X161500128Y-84908595D01*
X161409661Y-84862500D01*
X161300000Y-84845131D01*
X161190337Y-84862500D01*
X161158164Y-84878893D01*
X161118762Y-84886730D01*
X161081072Y-84872824D01*
X161056202Y-84841275D01*
X161051481Y-84801386D01*
X161054869Y-84780000D01*
X161037500Y-84670339D01*
X160987095Y-84571413D01*
X160908587Y-84492905D01*
X160809661Y-84442500D01*
X160700000Y-84425131D01*
X160699999Y-84425131D01*
X160645169Y-84433815D01*
X160590339Y-84442500D01*
X160540876Y-84467702D01*
X160491412Y-84492905D01*
X160412905Y-84571412D01*
X160398339Y-84600000D01*
X160362500Y-84670339D01*
X160345131Y-84780000D01*
X160348517Y-84801380D01*
X160348518Y-84801382D01*
X160343796Y-84841276D01*
X160318926Y-84872825D01*
X160281236Y-84886730D01*
X160241835Y-84878893D01*
X160209661Y-84862500D01*
X160100000Y-84845131D01*
X159990339Y-84862500D01*
X159968409Y-84873674D01*
X159891412Y-84912905D01*
X159825992Y-84978326D01*
X159801985Y-84994367D01*
X159773666Y-85000000D01*
X159687770Y-85000000D01*
X159649105Y-84989095D01*
X159621835Y-84959595D01*
X159604551Y-84925673D01*
X159587095Y-84891413D01*
X159508587Y-84812905D01*
X159440404Y-84778164D01*
X159410905Y-84750895D01*
X159400000Y-84712230D01*
X159400000Y-83800000D01*
X163755131Y-83800000D01*
X163772500Y-83909661D01*
X163822905Y-84008587D01*
X163901413Y-84087095D01*
X164000339Y-84137500D01*
X164110000Y-84154869D01*
X164219661Y-84137500D01*
X164318587Y-84087095D01*
X164397095Y-84008587D01*
X164447500Y-83909661D01*
X164464869Y-83800000D01*
X164447500Y-83690339D01*
X164397095Y-83591413D01*
X164318587Y-83512905D01*
X164219661Y-83462500D01*
X164110000Y-83445131D01*
X164000339Y-83462500D01*
X163964843Y-83480586D01*
X163901412Y-83512905D01*
X163822905Y-83591412D01*
X163815739Y-83605477D01*
X163772500Y-83690339D01*
X163755131Y-83800000D01*
X159400000Y-83800000D01*
X159400000Y-83000000D01*
X159845131Y-83000000D01*
X159862500Y-83109661D01*
X159912905Y-83208587D01*
X159991413Y-83287095D01*
X160090339Y-83337500D01*
X160200000Y-83354869D01*
X160309661Y-83337500D01*
X160408587Y-83287095D01*
X160486790Y-83208891D01*
X160527537Y-83188130D01*
X160572709Y-83195284D01*
X160667339Y-83243500D01*
X160777000Y-83260869D01*
X160777003Y-83260868D01*
X160787424Y-83262519D01*
X160828174Y-83283282D01*
X160848937Y-83324031D01*
X160853821Y-83354868D01*
X160862500Y-83409661D01*
X160912905Y-83508587D01*
X160991413Y-83587095D01*
X161090339Y-83637500D01*
X161200000Y-83654869D01*
X161309661Y-83637500D01*
X161408587Y-83587095D01*
X161487095Y-83508587D01*
X161537500Y-83409661D01*
X161554869Y-83300000D01*
X161537500Y-83190339D01*
X161487095Y-83091413D01*
X161408587Y-83012905D01*
X161309661Y-82962500D01*
X161200000Y-82945131D01*
X161199998Y-82945131D01*
X161189574Y-82943480D01*
X161148825Y-82922717D01*
X161128062Y-82881967D01*
X161114500Y-82796339D01*
X161064095Y-82697413D01*
X160985587Y-82618905D01*
X160886661Y-82568500D01*
X160777000Y-82551131D01*
X160776999Y-82551131D01*
X160722169Y-82559815D01*
X160667339Y-82568500D01*
X160637011Y-82583953D01*
X160568412Y-82618905D01*
X160490211Y-82697106D01*
X160449461Y-82717869D01*
X160404291Y-82710715D01*
X160309661Y-82662500D01*
X160200000Y-82645131D01*
X160090339Y-82662500D01*
X160051446Y-82682317D01*
X159991412Y-82712905D01*
X159912905Y-82791412D01*
X159887702Y-82840876D01*
X159862500Y-82890339D01*
X159845131Y-83000000D01*
X159400000Y-83000000D01*
X159400000Y-81902865D01*
X159410905Y-81864200D01*
X159440403Y-81836931D01*
X159518587Y-81797095D01*
X159597095Y-81718587D01*
X159597095Y-81718586D01*
X159605383Y-81710299D01*
X159607200Y-81712116D01*
X159625649Y-81693660D01*
X159670825Y-81686499D01*
X159711581Y-81707263D01*
X159712905Y-81708587D01*
X159791413Y-81787095D01*
X159890339Y-81837500D01*
X160000000Y-81854869D01*
X160109661Y-81837500D01*
X160208587Y-81787095D01*
X160287095Y-81708587D01*
X160337500Y-81609661D01*
X160354869Y-81500000D01*
X160337500Y-81390339D01*
X160287095Y-81291413D01*
X160208587Y-81212905D01*
X160109661Y-81162500D01*
X160000000Y-81145131D01*
X159999999Y-81145131D01*
X159945169Y-81153815D01*
X159890339Y-81162500D01*
X159870713Y-81172500D01*
X159791412Y-81212905D01*
X159704617Y-81299701D01*
X159702800Y-81297884D01*
X159684333Y-81316348D01*
X159639164Y-81323498D01*
X159598418Y-81302736D01*
X159518587Y-81222905D01*
X159419661Y-81172500D01*
X159315507Y-81156003D01*
X159274759Y-81135241D01*
X159253996Y-81094491D01*
X159250346Y-81071446D01*
X159237500Y-80990339D01*
X159187095Y-80891413D01*
X159108587Y-80812905D01*
X159009661Y-80762500D01*
X158900000Y-80745131D01*
X158899998Y-80745131D01*
X158888425Y-80743298D01*
X158888510Y-80742758D01*
X158871747Y-80741438D01*
X158842292Y-80723387D01*
X158594007Y-80475102D01*
X158591340Y-80472292D01*
X158564505Y-80442489D01*
X158542253Y-80432582D01*
X158532051Y-80427044D01*
X158511618Y-80413774D01*
X158511617Y-80413773D01*
X158511616Y-80413773D01*
X158503217Y-80412443D01*
X158484700Y-80406958D01*
X158476932Y-80403500D01*
X158452573Y-80403500D01*
X158440998Y-80402589D01*
X158416935Y-80398778D01*
X158408721Y-80400979D01*
X158389570Y-80403500D01*
X156978861Y-80403500D01*
X156974988Y-80403399D01*
X156971055Y-80403192D01*
X156934936Y-80401300D01*
X156934935Y-80401300D01*
X156912185Y-80410032D01*
X156901056Y-80413328D01*
X156877231Y-80418392D01*
X156870351Y-80423391D01*
X156853385Y-80432603D01*
X156845440Y-80435653D01*
X156828209Y-80452884D01*
X156819381Y-80460424D01*
X156799675Y-80474740D01*
X156795424Y-80482104D01*
X156783667Y-80497425D01*
X155802769Y-81478326D01*
X155778762Y-81494367D01*
X155750443Y-81500000D01*
X155074000Y-81500000D01*
X155037000Y-81490086D01*
X155009914Y-81463000D01*
X155000000Y-81426000D01*
X155000000Y-79956353D01*
X155015887Y-79910540D01*
X155056725Y-79884398D01*
X155104981Y-79889150D01*
X155139934Y-79922758D01*
X155142903Y-79928585D01*
X155142905Y-79928586D01*
X155142905Y-79928587D01*
X155221413Y-80007095D01*
X155320339Y-80057500D01*
X155430000Y-80074869D01*
X155539661Y-80057500D01*
X155638587Y-80007095D01*
X155717095Y-79928587D01*
X155767500Y-79829661D01*
X155784869Y-79720000D01*
X155767500Y-79610339D01*
X155717095Y-79511413D01*
X155638587Y-79432905D01*
X155539661Y-79382500D01*
X155430000Y-79365131D01*
X155320339Y-79382500D01*
X155277216Y-79404472D01*
X155221412Y-79432905D01*
X155142903Y-79511414D01*
X155139934Y-79517242D01*
X155104981Y-79550850D01*
X155056725Y-79555602D01*
X155015887Y-79529460D01*
X155000000Y-79483647D01*
X155000000Y-78724494D01*
X155009914Y-78687494D01*
X155037000Y-78660408D01*
X155074000Y-78650494D01*
X157469031Y-78650494D01*
X157516028Y-78667334D01*
G37*
%TD.AperFunction*%
%TD*%
%TA.AperFunction,Conductor*%
%TO.N,+1V8*%
G36*
X142989643Y-78660300D02*
G01*
X143004991Y-78685346D01*
X143001157Y-78714469D01*
X142962499Y-78790338D01*
X142945131Y-78900000D01*
X142962499Y-79009661D01*
X143012902Y-79108584D01*
X143091415Y-79187097D01*
X143190338Y-79237500D01*
X143205332Y-79239874D01*
X143300000Y-79254869D01*
X143409661Y-79237500D01*
X143427160Y-79228584D01*
X143508584Y-79187097D01*
X143508584Y-79187096D01*
X143508587Y-79187095D01*
X143587095Y-79108587D01*
X143610795Y-79062071D01*
X143634232Y-79040970D01*
X143665768Y-79040970D01*
X143689204Y-79062071D01*
X143696119Y-79075642D01*
X143712904Y-79108586D01*
X143791415Y-79187097D01*
X143890338Y-79237500D01*
X143905332Y-79239874D01*
X144000000Y-79254869D01*
X144109661Y-79237500D01*
X144127160Y-79228584D01*
X144208584Y-79187097D01*
X144208584Y-79187096D01*
X144208587Y-79187095D01*
X144287095Y-79108587D01*
X144303882Y-79075642D01*
X144337500Y-79009661D01*
X144339030Y-78999999D01*
X144354869Y-78900000D01*
X144337921Y-78792995D01*
X144337500Y-78790338D01*
X144298843Y-78714469D01*
X144295009Y-78685346D01*
X144310357Y-78660300D01*
X144338047Y-78650494D01*
X145347598Y-78650494D01*
X145378711Y-78663381D01*
X145391598Y-78694494D01*
X145378711Y-78725607D01*
X145312902Y-78791415D01*
X145262499Y-78890338D01*
X145245131Y-78999999D01*
X145262499Y-79109661D01*
X145312902Y-79208584D01*
X145391415Y-79287097D01*
X145490338Y-79337500D01*
X145505332Y-79339874D01*
X145600000Y-79354869D01*
X145709661Y-79337500D01*
X145709660Y-79337500D01*
X145808584Y-79287097D01*
X145808584Y-79287096D01*
X145808587Y-79287095D01*
X145887095Y-79208587D01*
X145905034Y-79173381D01*
X145937500Y-79109661D01*
X145942953Y-79075231D01*
X145954869Y-79000000D01*
X145937500Y-78890339D01*
X145937500Y-78890338D01*
X145887097Y-78791415D01*
X145821289Y-78725607D01*
X145808402Y-78694494D01*
X145821289Y-78663381D01*
X145852402Y-78650494D01*
X150349879Y-78650494D01*
X150377119Y-78659940D01*
X150392663Y-78684222D01*
X150389838Y-78712914D01*
X150375838Y-78727474D01*
X150376341Y-78727977D01*
X150292902Y-78811415D01*
X150242499Y-78910338D01*
X150225131Y-79020000D01*
X150242499Y-79129661D01*
X150292902Y-79228584D01*
X150371415Y-79307097D01*
X150470338Y-79357500D01*
X150485332Y-79359874D01*
X150580000Y-79374869D01*
X150689661Y-79357500D01*
X150713937Y-79345131D01*
X150788584Y-79307097D01*
X150788584Y-79307096D01*
X150788587Y-79307095D01*
X150867095Y-79228587D01*
X150877286Y-79208587D01*
X150917500Y-79129661D01*
X150922277Y-79099500D01*
X150934869Y-79020000D01*
X150917500Y-78910339D01*
X150917500Y-78910338D01*
X150867097Y-78811415D01*
X150783659Y-78727977D01*
X150784161Y-78727474D01*
X150770162Y-78712914D01*
X150767337Y-78684222D01*
X150782881Y-78659940D01*
X150810121Y-78650494D01*
X154706000Y-78650494D01*
X154737113Y-78663381D01*
X154750000Y-78694494D01*
X154750000Y-82097721D01*
X154746651Y-82114559D01*
X154737113Y-82128834D01*
X154620149Y-82245797D01*
X154602633Y-82256530D01*
X154582153Y-82258142D01*
X154500000Y-82245131D01*
X154390338Y-82262499D01*
X154291415Y-82312902D01*
X154212902Y-82391415D01*
X154162499Y-82490338D01*
X154145131Y-82600000D01*
X154162499Y-82709661D01*
X154212902Y-82808584D01*
X154291415Y-82887097D01*
X154390338Y-82937500D01*
X154506883Y-82955960D01*
X154506580Y-82957872D01*
X154520642Y-82960091D01*
X154539881Y-82979303D01*
X154542128Y-82993419D01*
X154544041Y-82993117D01*
X154562499Y-83109661D01*
X154612902Y-83208584D01*
X154691415Y-83287097D01*
X154790338Y-83337500D01*
X154805332Y-83339874D01*
X154900000Y-83354869D01*
X155009661Y-83337500D01*
X155057932Y-83312905D01*
X155108584Y-83287097D01*
X155108584Y-83287096D01*
X155108587Y-83287095D01*
X155132795Y-83262887D01*
X155163908Y-83250000D01*
X155715471Y-83250000D01*
X155744047Y-83260542D01*
X155758929Y-83287117D01*
X155762499Y-83309661D01*
X155812902Y-83408584D01*
X155891415Y-83487097D01*
X155990338Y-83537500D01*
X156005332Y-83539874D01*
X156100000Y-83554869D01*
X156209661Y-83537500D01*
X156270736Y-83506381D01*
X156308584Y-83487097D01*
X156308584Y-83487096D01*
X156308587Y-83487095D01*
X156387095Y-83408587D01*
X156404451Y-83374523D01*
X156420665Y-83356984D01*
X156443655Y-83350500D01*
X156456000Y-83350500D01*
X156487113Y-83363387D01*
X156500000Y-83394500D01*
X156500000Y-84039093D01*
X156496651Y-84055931D01*
X156487115Y-84070202D01*
X156449727Y-84107591D01*
X156409902Y-84147415D01*
X156359499Y-84246338D01*
X156342131Y-84356000D01*
X156359499Y-84465661D01*
X156409902Y-84564584D01*
X156409904Y-84564586D01*
X156409905Y-84564587D01*
X156487115Y-84641797D01*
X156496651Y-84656069D01*
X156500000Y-84672907D01*
X156500000Y-84706000D01*
X156487113Y-84737113D01*
X156456000Y-84750000D01*
X149518226Y-84750000D01*
X149487113Y-84737113D01*
X148449999Y-83699999D01*
X150245131Y-83699999D01*
X150262499Y-83809661D01*
X150312902Y-83908584D01*
X150391415Y-83987097D01*
X150490338Y-84037500D01*
X150505332Y-84039874D01*
X150600000Y-84054869D01*
X150709661Y-84037500D01*
X150781040Y-84001131D01*
X150808584Y-83987097D01*
X150808584Y-83987096D01*
X150808587Y-83987095D01*
X150887095Y-83908587D01*
X150904854Y-83873734D01*
X150937500Y-83809661D01*
X150946178Y-83754869D01*
X150954869Y-83700000D01*
X150939030Y-83600000D01*
X150937500Y-83590338D01*
X150887097Y-83491415D01*
X150808584Y-83412902D01*
X150709661Y-83362499D01*
X150600000Y-83345131D01*
X150490338Y-83362499D01*
X150391415Y-83412902D01*
X150312902Y-83491415D01*
X150262499Y-83590338D01*
X150245131Y-83699999D01*
X148449999Y-83699999D01*
X148256381Y-83506381D01*
X148245647Y-83488864D01*
X148244036Y-83468389D01*
X148254869Y-83400000D01*
X148248929Y-83362500D01*
X148237500Y-83290338D01*
X148187097Y-83191415D01*
X148108584Y-83112902D01*
X148009661Y-83062499D01*
X147926379Y-83049309D01*
X147900000Y-83045131D01*
X147899999Y-83045131D01*
X147831611Y-83055961D01*
X147811132Y-83054349D01*
X147793616Y-83043616D01*
X147637887Y-82887887D01*
X147625000Y-82856774D01*
X147625000Y-82699999D01*
X150245131Y-82699999D01*
X150262499Y-82809661D01*
X150312902Y-82908584D01*
X150391415Y-82987097D01*
X150490338Y-83037500D01*
X150505332Y-83039874D01*
X150600000Y-83054869D01*
X150709661Y-83037500D01*
X150731711Y-83026265D01*
X150808584Y-82987097D01*
X150808584Y-82987096D01*
X150808587Y-82987095D01*
X150887095Y-82908587D01*
X150893661Y-82895702D01*
X150937500Y-82809661D01*
X150948929Y-82737500D01*
X150954869Y-82700000D01*
X150937500Y-82590339D01*
X150937030Y-82587371D01*
X150941284Y-82560512D01*
X150960512Y-82541284D01*
X150987371Y-82537030D01*
X150990339Y-82537500D01*
X151100000Y-82554869D01*
X151209661Y-82537500D01*
X151209661Y-82537499D01*
X151212628Y-82537030D01*
X151239486Y-82541284D01*
X151258715Y-82560512D01*
X151262969Y-82587371D01*
X151245131Y-82699999D01*
X151262499Y-82809661D01*
X151312902Y-82908584D01*
X151391415Y-82987097D01*
X151490338Y-83037500D01*
X151505332Y-83039874D01*
X151600000Y-83054869D01*
X151709661Y-83037500D01*
X151731711Y-83026265D01*
X151808584Y-82987097D01*
X151808584Y-82987096D01*
X151808587Y-82987095D01*
X151887095Y-82908587D01*
X151893661Y-82895702D01*
X151937500Y-82809661D01*
X151943190Y-82773734D01*
X151954869Y-82700000D01*
X151937500Y-82590339D01*
X151937500Y-82590338D01*
X151887097Y-82491415D01*
X151808584Y-82412902D01*
X151709661Y-82362499D01*
X151614993Y-82347505D01*
X151600000Y-82345131D01*
X151599999Y-82345131D01*
X151487371Y-82362969D01*
X151460512Y-82358715D01*
X151441284Y-82339486D01*
X151437030Y-82312628D01*
X151440560Y-82290339D01*
X151454869Y-82200000D01*
X151438669Y-82097721D01*
X151437030Y-82087371D01*
X151441284Y-82060512D01*
X151460512Y-82041284D01*
X151487371Y-82037030D01*
X151490339Y-82037500D01*
X151600000Y-82054869D01*
X151709661Y-82037500D01*
X151731711Y-82026265D01*
X151808584Y-81987097D01*
X151808584Y-81987096D01*
X151808587Y-81987095D01*
X151887095Y-81908587D01*
X151893087Y-81896828D01*
X151937500Y-81809661D01*
X151943190Y-81773734D01*
X151954869Y-81700000D01*
X151937500Y-81590339D01*
X151937500Y-81590338D01*
X151887097Y-81491415D01*
X151808584Y-81412902D01*
X151709661Y-81362499D01*
X151614993Y-81347505D01*
X151600000Y-81345131D01*
X151599999Y-81345131D01*
X151487371Y-81362969D01*
X151460512Y-81358715D01*
X151441284Y-81339486D01*
X151437030Y-81312628D01*
X151443374Y-81272573D01*
X151454869Y-81200000D01*
X151438688Y-81097840D01*
X151437500Y-81090338D01*
X151387097Y-80991415D01*
X151308584Y-80912902D01*
X151209661Y-80862499D01*
X151114993Y-80847505D01*
X151100000Y-80845131D01*
X151099999Y-80845131D01*
X150987371Y-80862969D01*
X150960512Y-80858715D01*
X150941284Y-80839486D01*
X150937030Y-80812628D01*
X150940560Y-80790339D01*
X150954869Y-80700000D01*
X150938757Y-80598275D01*
X150937500Y-80590338D01*
X150887097Y-80491415D01*
X150808584Y-80412902D01*
X150709661Y-80362499D01*
X150600000Y-80345131D01*
X150490338Y-80362499D01*
X150391415Y-80412902D01*
X150312902Y-80491415D01*
X150262499Y-80590338D01*
X150245131Y-80700000D01*
X150262499Y-80809661D01*
X150312902Y-80908584D01*
X150391415Y-80987097D01*
X150490338Y-81037500D01*
X150507707Y-81040250D01*
X150600000Y-81054869D01*
X150709661Y-81037500D01*
X150709661Y-81037499D01*
X150712628Y-81037030D01*
X150739486Y-81041284D01*
X150758715Y-81060512D01*
X150762969Y-81087371D01*
X150745131Y-81199999D01*
X150762499Y-81309661D01*
X150812902Y-81408584D01*
X150891415Y-81487097D01*
X150990338Y-81537500D01*
X151007706Y-81540250D01*
X151100000Y-81554869D01*
X151209661Y-81537500D01*
X151209661Y-81537499D01*
X151212628Y-81537030D01*
X151239486Y-81541284D01*
X151258715Y-81560512D01*
X151262969Y-81587371D01*
X151248189Y-81680693D01*
X151245131Y-81700000D01*
X151246413Y-81708093D01*
X151262969Y-81812628D01*
X151258715Y-81839487D01*
X151239487Y-81858715D01*
X151212628Y-81862969D01*
X151100000Y-81845131D01*
X150990338Y-81862499D01*
X150891415Y-81912902D01*
X150812902Y-81991415D01*
X150762499Y-82090338D01*
X150745131Y-82200000D01*
X150762969Y-82312628D01*
X150758715Y-82339487D01*
X150739487Y-82358715D01*
X150712628Y-82362969D01*
X150600000Y-82345131D01*
X150490338Y-82362499D01*
X150391415Y-82412902D01*
X150312902Y-82491415D01*
X150262499Y-82590338D01*
X150245131Y-82699999D01*
X147625000Y-82699999D01*
X147625000Y-82663694D01*
X147624999Y-82663691D01*
X147618662Y-82652716D01*
X147614265Y-82642099D01*
X147610986Y-82629861D01*
X147610985Y-82629859D01*
X147559640Y-82578513D01*
X147248386Y-82267260D01*
X147235500Y-82236148D01*
X147235500Y-81363694D01*
X147235499Y-81363691D01*
X147229162Y-81352716D01*
X147224765Y-81342099D01*
X147221486Y-81329861D01*
X147221485Y-81329859D01*
X147170140Y-81278513D01*
X147170140Y-81278514D01*
X147012887Y-81121261D01*
X147000000Y-81090148D01*
X147000000Y-81000001D01*
X147000000Y-81000000D01*
X146999999Y-81000000D01*
X145901908Y-81000000D01*
X145870795Y-80987113D01*
X145857908Y-80956000D01*
X145870795Y-80924887D01*
X145870795Y-80924886D01*
X145887095Y-80908587D01*
X145891471Y-80900000D01*
X145937500Y-80809661D01*
X145940560Y-80790339D01*
X145954869Y-80700000D01*
X147245131Y-80700000D01*
X147262499Y-80809661D01*
X147312902Y-80908584D01*
X147391415Y-80987097D01*
X147490338Y-81037500D01*
X147507707Y-81040250D01*
X147600000Y-81054869D01*
X147709661Y-81037500D01*
X147709661Y-81037499D01*
X147712628Y-81037030D01*
X147739486Y-81041284D01*
X147758715Y-81060512D01*
X147762969Y-81087371D01*
X147744041Y-81206883D01*
X147742131Y-81206580D01*
X147739891Y-81220679D01*
X147720679Y-81239891D01*
X147706580Y-81242131D01*
X147706883Y-81244041D01*
X147700000Y-81245131D01*
X147690799Y-81246588D01*
X147590338Y-81262499D01*
X147491415Y-81312902D01*
X147412902Y-81391415D01*
X147362499Y-81490338D01*
X147345131Y-81600000D01*
X147362499Y-81709661D01*
X147412902Y-81808584D01*
X147491415Y-81887097D01*
X147590338Y-81937500D01*
X147605332Y-81939874D01*
X147700000Y-81954869D01*
X147809661Y-81937500D01*
X147857938Y-81912902D01*
X147908584Y-81887097D01*
X147908584Y-81887096D01*
X147908587Y-81887095D01*
X147987095Y-81808587D01*
X147991471Y-81800000D01*
X148037500Y-81709661D01*
X148055960Y-81593117D01*
X148057875Y-81593420D01*
X148060100Y-81579340D01*
X148079340Y-81560100D01*
X148093419Y-81557875D01*
X148093116Y-81555960D01*
X148185770Y-81541284D01*
X148209661Y-81537500D01*
X148209661Y-81537499D01*
X148212627Y-81537030D01*
X148239486Y-81541284D01*
X148258715Y-81560512D01*
X148262969Y-81587371D01*
X148248189Y-81680693D01*
X148245131Y-81700000D01*
X148246413Y-81708093D01*
X148262499Y-81809661D01*
X148312902Y-81908584D01*
X148391415Y-81987097D01*
X148490338Y-82037500D01*
X148507706Y-82040250D01*
X148600000Y-82054869D01*
X148709661Y-82037500D01*
X148731711Y-82026265D01*
X148808584Y-81987097D01*
X148808584Y-81987096D01*
X148808587Y-81987095D01*
X148887095Y-81908587D01*
X148893087Y-81896828D01*
X148937500Y-81809661D01*
X148943190Y-81773734D01*
X148954869Y-81700000D01*
X149245131Y-81700000D01*
X149246413Y-81708093D01*
X149262499Y-81809661D01*
X149312902Y-81908584D01*
X149391415Y-81987097D01*
X149490338Y-82037500D01*
X149507706Y-82040250D01*
X149600000Y-82054869D01*
X149709661Y-82037500D01*
X149731711Y-82026265D01*
X149808584Y-81987097D01*
X149808584Y-81987096D01*
X149808587Y-81987095D01*
X149887095Y-81908587D01*
X149893087Y-81896828D01*
X149937500Y-81809661D01*
X149943190Y-81773734D01*
X149954869Y-81700000D01*
X149937500Y-81590339D01*
X149937500Y-81590338D01*
X149887097Y-81491415D01*
X149808584Y-81412902D01*
X149709661Y-81362499D01*
X149600000Y-81345131D01*
X149490338Y-81362499D01*
X149391415Y-81412902D01*
X149312902Y-81491415D01*
X149262499Y-81590338D01*
X149248189Y-81680693D01*
X149245131Y-81700000D01*
X148954869Y-81700000D01*
X148937500Y-81590339D01*
X148937500Y-81590338D01*
X148887097Y-81491415D01*
X148808584Y-81412902D01*
X148709661Y-81362499D01*
X148614993Y-81347505D01*
X148600000Y-81345131D01*
X148599999Y-81345131D01*
X148487371Y-81362969D01*
X148460512Y-81358715D01*
X148441284Y-81339486D01*
X148437030Y-81312628D01*
X148443374Y-81272573D01*
X148454869Y-81200000D01*
X148438688Y-81097840D01*
X148437030Y-81087371D01*
X148441284Y-81060512D01*
X148460512Y-81041284D01*
X148487371Y-81037030D01*
X148490339Y-81037500D01*
X148600000Y-81054869D01*
X148709661Y-81037500D01*
X148710583Y-81037030D01*
X148808584Y-80987097D01*
X148808584Y-80987096D01*
X148808587Y-80987095D01*
X148887095Y-80908587D01*
X148891471Y-80900000D01*
X148937500Y-80809661D01*
X148940560Y-80790339D01*
X148954869Y-80700000D01*
X148938757Y-80598275D01*
X148937500Y-80590338D01*
X148887097Y-80491415D01*
X148808584Y-80412902D01*
X148709661Y-80362499D01*
X148600000Y-80345131D01*
X148490338Y-80362499D01*
X148391415Y-80412902D01*
X148312902Y-80491415D01*
X148262499Y-80590338D01*
X148245131Y-80700000D01*
X148262969Y-80812628D01*
X148258715Y-80839487D01*
X148239487Y-80858715D01*
X148212628Y-80862969D01*
X148116276Y-80847708D01*
X148100000Y-80845131D01*
X148099999Y-80845131D01*
X147987371Y-80862969D01*
X147960512Y-80858715D01*
X147941284Y-80839486D01*
X147937030Y-80812628D01*
X147940560Y-80790339D01*
X147954869Y-80700000D01*
X147938757Y-80598275D01*
X147937500Y-80590338D01*
X147887097Y-80491415D01*
X147808584Y-80412902D01*
X147709661Y-80362499D01*
X147600000Y-80345131D01*
X147490338Y-80362499D01*
X147391415Y-80412902D01*
X147312902Y-80491415D01*
X147262499Y-80590338D01*
X147245131Y-80700000D01*
X145954869Y-80700000D01*
X145938757Y-80598275D01*
X145937500Y-80590338D01*
X145887097Y-80491415D01*
X145808586Y-80412904D01*
X145783756Y-80400253D01*
X145762071Y-80389204D01*
X145740970Y-80365768D01*
X145740970Y-80334232D01*
X145762071Y-80310795D01*
X145808587Y-80287095D01*
X145887095Y-80208587D01*
X145889836Y-80203209D01*
X145937500Y-80109661D01*
X145939099Y-80099563D01*
X145954869Y-80000000D01*
X145937500Y-79890339D01*
X145937500Y-79890338D01*
X145887097Y-79791415D01*
X145808584Y-79712902D01*
X145783262Y-79700000D01*
X151245131Y-79700000D01*
X151262499Y-79809661D01*
X151312902Y-79908584D01*
X151391415Y-79987097D01*
X151490338Y-80037500D01*
X151505332Y-80039874D01*
X151600000Y-80054869D01*
X151709661Y-80037500D01*
X151769335Y-80007095D01*
X151808584Y-79987097D01*
X151808584Y-79987096D01*
X151808587Y-79987095D01*
X151887095Y-79908587D01*
X151887619Y-79907560D01*
X151937500Y-79809661D01*
X151940390Y-79791413D01*
X151954869Y-79700000D01*
X152245131Y-79700000D01*
X152262499Y-79809661D01*
X152312902Y-79908584D01*
X152391415Y-79987097D01*
X152490338Y-80037500D01*
X152505332Y-80039874D01*
X152600000Y-80054869D01*
X152709661Y-80037500D01*
X152769335Y-80007095D01*
X152808584Y-79987097D01*
X152808584Y-79987096D01*
X152808587Y-79987095D01*
X152887095Y-79908587D01*
X152887619Y-79907560D01*
X152937500Y-79809661D01*
X152940390Y-79791413D01*
X152954869Y-79700000D01*
X152939874Y-79605332D01*
X152937500Y-79590338D01*
X152887097Y-79491415D01*
X152808584Y-79412902D01*
X152709661Y-79362499D01*
X152614993Y-79347505D01*
X152600000Y-79345131D01*
X152599999Y-79345131D01*
X152490338Y-79362499D01*
X152391415Y-79412902D01*
X152312902Y-79491415D01*
X152262499Y-79590338D01*
X152245131Y-79700000D01*
X151954869Y-79700000D01*
X151939874Y-79605332D01*
X151937500Y-79590338D01*
X151887097Y-79491415D01*
X151808584Y-79412902D01*
X151709661Y-79362499D01*
X151614993Y-79347505D01*
X151600000Y-79345131D01*
X151599999Y-79345131D01*
X151490338Y-79362499D01*
X151391415Y-79412902D01*
X151312902Y-79491415D01*
X151262499Y-79590338D01*
X151245131Y-79700000D01*
X145783262Y-79700000D01*
X145709661Y-79662499D01*
X145600000Y-79645131D01*
X145490338Y-79662499D01*
X145391415Y-79712902D01*
X145312902Y-79791415D01*
X145262499Y-79890338D01*
X145245131Y-80000000D01*
X145262499Y-80109661D01*
X145312902Y-80208584D01*
X145391415Y-80287097D01*
X145437927Y-80310796D01*
X145459030Y-80334232D01*
X145459030Y-80365768D01*
X145437927Y-80389204D01*
X145391415Y-80412902D01*
X145312902Y-80491415D01*
X145262499Y-80590338D01*
X145245131Y-80700000D01*
X145262499Y-80809661D01*
X145312902Y-80908584D01*
X145329205Y-80924887D01*
X145342092Y-80956000D01*
X145329205Y-80987113D01*
X145298092Y-81000000D01*
X142990547Y-81000000D01*
X142966583Y-80992901D01*
X142950351Y-80973896D01*
X142947089Y-80949117D01*
X142949163Y-80936024D01*
X142954869Y-80900000D01*
X142937500Y-80790339D01*
X142937500Y-80790338D01*
X142887097Y-80691415D01*
X142808584Y-80612902D01*
X142709661Y-80562499D01*
X142614993Y-80547505D01*
X142600000Y-80545131D01*
X142599999Y-80545131D01*
X142490338Y-80562499D01*
X142391415Y-80612902D01*
X142312902Y-80691415D01*
X142262499Y-80790338D01*
X142245131Y-80899999D01*
X142252911Y-80949117D01*
X142249649Y-80973896D01*
X142233417Y-80992901D01*
X142209453Y-81000000D01*
X141963271Y-81000000D01*
X141935581Y-80990194D01*
X141920232Y-80965148D01*
X141924067Y-80936024D01*
X141937500Y-80909661D01*
X141954869Y-80800000D01*
X141939030Y-80699999D01*
X141937500Y-80690338D01*
X141887097Y-80591415D01*
X141808584Y-80512902D01*
X141709661Y-80462499D01*
X141614993Y-80447505D01*
X141600000Y-80445131D01*
X141599999Y-80445131D01*
X141490338Y-80462499D01*
X141391415Y-80512902D01*
X141312902Y-80591415D01*
X141262499Y-80690338D01*
X141245131Y-80799999D01*
X141262499Y-80909661D01*
X141312902Y-81008584D01*
X141371045Y-81066727D01*
X141383932Y-81097840D01*
X141371045Y-81128952D01*
X141262887Y-81237112D01*
X141248612Y-81246651D01*
X141231774Y-81250000D01*
X140268226Y-81250000D01*
X140237113Y-81237113D01*
X140135387Y-81135387D01*
X140122500Y-81104274D01*
X140122500Y-80305406D01*
X140124102Y-80299999D01*
X143845131Y-80299999D01*
X143862499Y-80409661D01*
X143912902Y-80508584D01*
X143991415Y-80587097D01*
X144090338Y-80637500D01*
X144105332Y-80639874D01*
X144200000Y-80654869D01*
X144309661Y-80637500D01*
X144357938Y-80612902D01*
X144408584Y-80587097D01*
X144408584Y-80587096D01*
X144408587Y-80587095D01*
X144487095Y-80508587D01*
X144504940Y-80473565D01*
X144537500Y-80409661D01*
X144544452Y-80365768D01*
X144554869Y-80300000D01*
X144537500Y-80190339D01*
X144537500Y-80190338D01*
X144487097Y-80091415D01*
X144408584Y-80012902D01*
X144309661Y-79962499D01*
X144200000Y-79945131D01*
X144090338Y-79962499D01*
X143991415Y-80012902D01*
X143912902Y-80091415D01*
X143862499Y-80190338D01*
X143845131Y-80299999D01*
X140124102Y-80299999D01*
X140129599Y-80281442D01*
X140148604Y-80265210D01*
X140173383Y-80261948D01*
X140173863Y-80262024D01*
X140283524Y-80279393D01*
X140393185Y-80262024D01*
X140417176Y-80249800D01*
X140492108Y-80211621D01*
X140492108Y-80211620D01*
X140492111Y-80211619D01*
X140570619Y-80133111D01*
X140582568Y-80109661D01*
X140621024Y-80034185D01*
X140624395Y-80012902D01*
X140638393Y-79924524D01*
X140635706Y-79907559D01*
X140640555Y-79879573D01*
X140661494Y-79860381D01*
X140689794Y-79857981D01*
X140791269Y-79883251D01*
X141027217Y-79904913D01*
X141263718Y-79890478D01*
X141495280Y-79840280D01*
X141716529Y-79755486D01*
X141922327Y-79638064D01*
X142107898Y-79490740D01*
X142268933Y-79316934D01*
X142401693Y-79120680D01*
X142503098Y-78906535D01*
X142535893Y-78796380D01*
X142538434Y-78789823D01*
X142561483Y-78742096D01*
X142569513Y-78730607D01*
X142603918Y-78695134D01*
X142615166Y-78686751D01*
X142623323Y-78682500D01*
X142658986Y-78663914D01*
X142672298Y-78659499D01*
X142712380Y-78653024D01*
X142724560Y-78651057D01*
X142731576Y-78650494D01*
X142961953Y-78650494D01*
X142989643Y-78660300D01*
G37*
%TD.AperFunction*%
%TA.AperFunction,Conductor*%
G36*
X139977929Y-79496695D02*
G01*
X139993311Y-79501962D01*
X140045867Y-79531759D01*
X140046344Y-79532029D01*
X140053055Y-79536708D01*
X140085056Y-79563770D01*
X140099652Y-79588077D01*
X140096390Y-79616243D01*
X140076623Y-79636570D01*
X140074938Y-79637428D01*
X139996426Y-79715939D01*
X139946023Y-79814862D01*
X139928655Y-79924523D01*
X139947114Y-80041068D01*
X139945574Y-80041311D01*
X139947989Y-80056547D01*
X139935644Y-80080777D01*
X139916860Y-80099562D01*
X139916859Y-80099562D01*
X139916858Y-80099563D01*
X139865514Y-80150907D01*
X139865514Y-80150908D01*
X139862232Y-80163154D01*
X139857838Y-80173762D01*
X139851500Y-80184741D01*
X139851500Y-80745274D01*
X139838613Y-80776387D01*
X139807500Y-80789274D01*
X139776387Y-80776387D01*
X139762887Y-80762887D01*
X139750000Y-80731774D01*
X139750000Y-79594229D01*
X139762883Y-79563119D01*
X139777542Y-79548458D01*
X139783822Y-79543250D01*
X139834484Y-79508621D01*
X139849371Y-79502086D01*
X139905082Y-79489170D01*
X139921331Y-79488489D01*
X139977929Y-79496695D01*
G37*
%TD.AperFunction*%
%TD*%
M02*
