%TF.GenerationSoftware,KiCad,Pcbnew,7.0.9*%
%TF.CreationDate,2023-12-12T21:37:17+00:00*%
%TF.ProjectId,watch_main,77617463-685f-46d6-9169-6e2e6b696361,rev?*%
%TF.SameCoordinates,Original*%
%TF.FileFunction,Soldermask,Top*%
%TF.FilePolarity,Negative*%
%FSLAX46Y46*%
G04 Gerber Fmt 4.6, Leading zero omitted, Abs format (unit mm)*
G04 Created by KiCad (PCBNEW 7.0.9) date 2023-12-12 21:37:17*
%MOMM*%
%LPD*%
G01*
G04 APERTURE LIST*
G04 Aperture macros list*
%AMRoundRect*
0 Rectangle with rounded corners*
0 $1 Rounding radius*
0 $2 $3 $4 $5 $6 $7 $8 $9 X,Y pos of 4 corners*
0 Add a 4 corners polygon primitive as box body*
4,1,4,$2,$3,$4,$5,$6,$7,$8,$9,$2,$3,0*
0 Add four circle primitives for the rounded corners*
1,1,$1+$1,$2,$3*
1,1,$1+$1,$4,$5*
1,1,$1+$1,$6,$7*
1,1,$1+$1,$8,$9*
0 Add four rect primitives between the rounded corners*
20,1,$1+$1,$2,$3,$4,$5,0*
20,1,$1+$1,$4,$5,$6,$7,0*
20,1,$1+$1,$6,$7,$8,$9,0*
20,1,$1+$1,$8,$9,$2,$3,0*%
G04 Aperture macros list end*
%ADD10R,0.533400X0.304800*%
%ADD11R,0.304800X0.533400*%
%ADD12R,0.500000X1.000000*%
%ADD13R,0.720000X0.780000*%
%ADD14R,1.050000X1.080000*%
%ADD15R,1.050000X1.200000*%
%ADD16R,1.050000X2.390000*%
%ADD17R,2.910000X0.550000*%
%ADD18C,0.250000*%
%ADD19R,0.800000X0.300000*%
%ADD20R,0.300000X0.800000*%
%ADD21R,1.760000X1.760000*%
%ADD22R,0.900000X1.600000*%
%ADD23R,0.350000X0.800000*%
%ADD24R,0.600000X0.260000*%
%ADD25C,0.406400*%
%ADD26RoundRect,0.135000X-0.135000X-0.185000X0.135000X-0.185000X0.135000X0.185000X-0.135000X0.185000X0*%
%ADD27R,1.300000X2.100000*%
%ADD28C,0.370000*%
%ADD29R,0.850000X0.200000*%
%ADD30R,0.200000X0.850000*%
%ADD31R,4.700000X4.700000*%
%ADD32C,0.306000*%
%ADD33RoundRect,0.140000X-0.140000X-0.170000X0.140000X-0.170000X0.140000X0.170000X-0.140000X0.170000X0*%
%ADD34RoundRect,0.225000X-0.225000X-0.250000X0.225000X-0.250000X0.225000X0.250000X-0.225000X0.250000X0*%
G04 APERTURE END LIST*
D10*
%TO.C,U1301*%
X182909300Y-67985411D03*
X182909300Y-68485537D03*
X182909300Y-68985663D03*
X182909300Y-69485789D03*
D11*
X183539474Y-69624600D03*
X184039600Y-69624600D03*
X184539726Y-69624600D03*
D10*
X185169900Y-69485789D03*
X185169900Y-68985663D03*
X185169900Y-68485537D03*
X185169900Y-67985411D03*
D11*
X184539726Y-67846600D03*
X184039600Y-67846600D03*
X183539474Y-67846600D03*
%TD*%
D12*
%TO.C,J1101*%
X159550000Y-91510000D03*
X158450000Y-91510000D03*
X157350000Y-91510000D03*
X156250000Y-91510000D03*
X155150000Y-91510000D03*
X154050000Y-91510000D03*
X152950000Y-91510000D03*
X151850000Y-91510000D03*
D13*
X161310000Y-88830000D03*
D14*
X161325000Y-87560000D03*
D15*
X161325000Y-84950000D03*
X150675000Y-85520000D03*
D16*
X150675000Y-88705000D03*
D17*
X157986000Y-84275000D03*
X153796000Y-84275000D03*
%TD*%
D18*
%TO.C,IC1201*%
X150400000Y-103200000D03*
X150400000Y-102800000D03*
X150400000Y-102400000D03*
X150400000Y-102000000D03*
X150400000Y-101600000D03*
X150800000Y-103200000D03*
X150800000Y-102800000D03*
X150800000Y-102400000D03*
X150800000Y-102000000D03*
X150800000Y-101600000D03*
X151200000Y-103200000D03*
X151200000Y-102800000D03*
X151200000Y-102400000D03*
X151200000Y-102000000D03*
X151200000Y-101600000D03*
X151600000Y-103200000D03*
X151600000Y-102800000D03*
X151600000Y-102400000D03*
X151600000Y-102000000D03*
X151600000Y-101600000D03*
X152000000Y-103200000D03*
X152000000Y-102800000D03*
X152000000Y-102400000D03*
X152000000Y-102000000D03*
X152000000Y-101600000D03*
X152400000Y-103200000D03*
X152400000Y-102800000D03*
X152400000Y-102400000D03*
X152400000Y-102000000D03*
X152400000Y-101600000D03*
%TD*%
%TO.C,IC1002*%
X154000000Y-92900000D03*
X154400000Y-92900000D03*
X154800000Y-92900000D03*
X155200000Y-92900000D03*
X154000000Y-93300000D03*
X154400000Y-93300000D03*
X154800000Y-93300000D03*
X155200000Y-93300000D03*
X154000000Y-93700000D03*
X154400000Y-93700000D03*
X154800000Y-93700000D03*
X155200000Y-93700000D03*
X154000000Y-94100000D03*
X154400000Y-94100000D03*
X154800000Y-94100000D03*
X155200000Y-94100000D03*
X154000000Y-94500000D03*
X154400000Y-94500000D03*
X154800000Y-94500000D03*
X155200000Y-94500000D03*
%TD*%
D19*
%TO.C,IC901*%
X157985000Y-100925000D03*
X157985000Y-101425000D03*
X157985000Y-101925000D03*
X157985000Y-102425000D03*
D20*
X158735000Y-103175000D03*
X159235000Y-103175000D03*
X159735000Y-103175000D03*
X160235000Y-103175000D03*
D19*
X160985000Y-102425000D03*
X160985000Y-101925000D03*
X160985000Y-101425000D03*
X160985000Y-100925000D03*
D20*
X160235000Y-100175000D03*
X159735000Y-100175000D03*
X159235000Y-100175000D03*
X158735000Y-100175000D03*
D21*
X159485000Y-101675000D03*
%TD*%
D22*
%TO.C,IC401*%
X168660000Y-78160000D03*
X169760000Y-78160000D03*
X170860000Y-78160000D03*
X171960000Y-78160000D03*
X173060000Y-78160000D03*
X174160000Y-78160000D03*
X175260000Y-78160000D03*
X176360000Y-78160000D03*
X177460000Y-78160000D03*
X177460000Y-68960000D03*
X176360000Y-68960000D03*
X175260000Y-68960000D03*
X174160000Y-68960000D03*
X173060000Y-68960000D03*
X171960000Y-68960000D03*
X170860000Y-68960000D03*
X169760000Y-68960000D03*
X168660000Y-68960000D03*
%TD*%
D23*
%TO.C,ANT1601*%
X183385000Y-74810000D03*
D24*
X184010000Y-75063000D03*
D23*
X184635000Y-74810000D03*
D24*
X184010000Y-74557000D03*
%TD*%
D18*
%TO.C,IC201*%
X185600000Y-85700000D03*
X185600000Y-85300000D03*
X185600000Y-84900000D03*
X185600000Y-84500000D03*
X185600000Y-84100000D03*
X185600000Y-83700000D03*
X186000000Y-85700000D03*
X186000000Y-85300000D03*
X186000000Y-84900000D03*
X186000000Y-84500000D03*
X186000000Y-84100000D03*
X186000000Y-83700000D03*
X186400000Y-85700000D03*
X186400000Y-85300000D03*
X186400000Y-84100000D03*
X186400000Y-83700000D03*
X186800000Y-85700000D03*
X186800000Y-85300000D03*
X186800000Y-84100000D03*
X186800000Y-83700000D03*
X187200000Y-85700000D03*
X187200000Y-85300000D03*
X187200000Y-84900000D03*
X187200000Y-84500000D03*
X187200000Y-84100000D03*
X187200000Y-83700000D03*
X187600000Y-85700000D03*
X187600000Y-85300000D03*
X187600000Y-84900000D03*
X187600000Y-84500000D03*
X187600000Y-84100000D03*
X187600000Y-83700000D03*
%TD*%
D25*
%TO.C,U801*%
X151458801Y-68418801D03*
X152258801Y-68418801D03*
X153058800Y-68418801D03*
X153858800Y-68418801D03*
X154658800Y-68418801D03*
X155458800Y-68418801D03*
X156258800Y-68418801D03*
X157058800Y-68418801D03*
X157858800Y-68418801D03*
X158658800Y-68418801D03*
X159458800Y-68418801D03*
X160258800Y-68418801D03*
X161058800Y-68418801D03*
X161858799Y-68418801D03*
X162658799Y-68418801D03*
X151458801Y-69218801D03*
X152258801Y-69218801D03*
X153058800Y-69218801D03*
X153858800Y-69218801D03*
X154658800Y-69218801D03*
X155458800Y-69218801D03*
X156258800Y-69218801D03*
X157058800Y-69218801D03*
X157858800Y-69218801D03*
X158658800Y-69218801D03*
X159458800Y-69218801D03*
X160258800Y-69218801D03*
X161058800Y-69218801D03*
X161858799Y-69218801D03*
X162658799Y-69218801D03*
X151458801Y-70018800D03*
X152258801Y-70018800D03*
X153058800Y-70018800D03*
X153858800Y-70018800D03*
X154658800Y-70018800D03*
X155458800Y-70018800D03*
X156258800Y-70018800D03*
X157058800Y-70018800D03*
X157858800Y-70018800D03*
X158658800Y-70018800D03*
X159458800Y-70018800D03*
X160258800Y-70018800D03*
X161058800Y-70018800D03*
X161858799Y-70018800D03*
X162658799Y-70018800D03*
X151458801Y-70818800D03*
X152258801Y-70818800D03*
X153058800Y-70818800D03*
X153858800Y-70818800D03*
X154658800Y-70818800D03*
X155458800Y-70818800D03*
X156258800Y-70818800D03*
X157058800Y-70818800D03*
X157858800Y-70818800D03*
X158658800Y-70818800D03*
X159458800Y-70818800D03*
X160258800Y-70818800D03*
X161058800Y-70818800D03*
X161858799Y-70818800D03*
X162658799Y-70818800D03*
X151458801Y-71618800D03*
X152258801Y-71618800D03*
X153058800Y-71618800D03*
X153858800Y-71618800D03*
X154658800Y-71618800D03*
X155458800Y-71618800D03*
X156258800Y-71618800D03*
X157058800Y-71618800D03*
X157858800Y-71618800D03*
X158658800Y-71618800D03*
X159458800Y-71618800D03*
X160258800Y-71618800D03*
X161058800Y-71618800D03*
X161858799Y-71618800D03*
X162658799Y-71618800D03*
X151458801Y-72418800D03*
X152258801Y-72418800D03*
X153058800Y-72418800D03*
X153858800Y-72418800D03*
X154658800Y-72418800D03*
X155458800Y-72418800D03*
X156258800Y-72418800D03*
X157058800Y-72418800D03*
X157858800Y-72418800D03*
X158658800Y-72418800D03*
X159458800Y-72418800D03*
X160258800Y-72418800D03*
X161058800Y-72418800D03*
X161858799Y-72418800D03*
X162658799Y-72418800D03*
X151458801Y-73218800D03*
X152258801Y-73218800D03*
X153058800Y-73218800D03*
X153858800Y-73218800D03*
X154658800Y-73218800D03*
X155458800Y-73218800D03*
X158658800Y-73218800D03*
X159458800Y-73218800D03*
X160258800Y-73218800D03*
X161058800Y-73218800D03*
X161858799Y-73218800D03*
X162658799Y-73218800D03*
X151458801Y-74018800D03*
X152258801Y-74018800D03*
X153058800Y-74018800D03*
X153858800Y-74018800D03*
X154658800Y-74018800D03*
X155458800Y-74018800D03*
X158658800Y-74018800D03*
X159458800Y-74018800D03*
X160258800Y-74018800D03*
X161058800Y-74018800D03*
X161858799Y-74018800D03*
X162658799Y-74018800D03*
X151458801Y-74818800D03*
X152258801Y-74818800D03*
X153058800Y-74818800D03*
X153858800Y-74818800D03*
X154658800Y-74818800D03*
X155458800Y-74818800D03*
X158658800Y-74818800D03*
X159458800Y-74818800D03*
X160258800Y-74818800D03*
X161058800Y-74818800D03*
X161858799Y-74818800D03*
X162658799Y-74818800D03*
X151458801Y-75618800D03*
X152258801Y-75618800D03*
X153058800Y-75618800D03*
X153858800Y-75618800D03*
X154658800Y-75618800D03*
X155458800Y-75618800D03*
X156258800Y-75618800D03*
X157058800Y-75618800D03*
X157858800Y-75618800D03*
X158658800Y-75618800D03*
X159458800Y-75618800D03*
X160258800Y-75618800D03*
X161058800Y-75618800D03*
X161858799Y-75618800D03*
X162658799Y-75618800D03*
X151458801Y-76418800D03*
X152258801Y-76418800D03*
X153058800Y-76418800D03*
X153858800Y-76418800D03*
X154658800Y-76418800D03*
X155458800Y-76418800D03*
X156258800Y-76418800D03*
X157058800Y-76418800D03*
X157858800Y-76418800D03*
X158658800Y-76418800D03*
X159458800Y-76418800D03*
X160258800Y-76418800D03*
X161058800Y-76418800D03*
X161858799Y-76418800D03*
X162658799Y-76418800D03*
X151458801Y-77218800D03*
X152258801Y-77218800D03*
X153058800Y-77218800D03*
X153858800Y-77218800D03*
X154658800Y-77218800D03*
X155458800Y-77218800D03*
X156258800Y-77218800D03*
X157058800Y-77218800D03*
X157858800Y-77218800D03*
X158658800Y-77218800D03*
X159458800Y-77218800D03*
X160258800Y-77218800D03*
X161058800Y-77218800D03*
X161858799Y-77218800D03*
X162658799Y-77218800D03*
X151458801Y-78018800D03*
X152258801Y-78018800D03*
X153058800Y-78018800D03*
X153858800Y-78018800D03*
X154658800Y-78018800D03*
X155458800Y-78018800D03*
X156258800Y-78018800D03*
X157058800Y-78018800D03*
X157858800Y-78018800D03*
X158658800Y-78018800D03*
X159458800Y-78018800D03*
X160258800Y-78018800D03*
X161058800Y-78018800D03*
X161858799Y-78018800D03*
X162658799Y-78018800D03*
X151458801Y-78818799D03*
X152258801Y-78818799D03*
X153058800Y-78818799D03*
X153858800Y-78818799D03*
X154658800Y-78818799D03*
X155458800Y-78818799D03*
X156258800Y-78818799D03*
X157058800Y-78818799D03*
X157858800Y-78818799D03*
X158658800Y-78818799D03*
X159458800Y-78818799D03*
X160258800Y-78818799D03*
X161058800Y-78818799D03*
X161858799Y-78818799D03*
X162658799Y-78818799D03*
X151458801Y-79618799D03*
X152258801Y-79618799D03*
X153058800Y-79618799D03*
X153858800Y-79618799D03*
X154658800Y-79618799D03*
X155458800Y-79618799D03*
X156258800Y-79618799D03*
X157058800Y-79618799D03*
X157858800Y-79618799D03*
X158658800Y-79618799D03*
X159458800Y-79618799D03*
X160258800Y-79618799D03*
X161058800Y-79618799D03*
X161858799Y-79618799D03*
X162658799Y-79618799D03*
%TD*%
D26*
%TO.C,R1601*%
X180355000Y-93355000D03*
X181375000Y-93355000D03*
%TD*%
%TO.C,R202*%
X181375000Y-91365000D03*
X180355000Y-91365000D03*
%TD*%
%TO.C,R201*%
X180355000Y-89375000D03*
X181375000Y-89375000D03*
%TD*%
D19*
%TO.C,IC1401*%
X165500000Y-97870000D03*
X165500000Y-98370000D03*
X165500000Y-98870000D03*
X165500000Y-99370000D03*
X165500000Y-99870000D03*
X168000000Y-99870000D03*
X168000000Y-99370000D03*
X168000000Y-98870000D03*
X168000000Y-98370000D03*
X168000000Y-97870000D03*
D27*
X166750000Y-98870000D03*
%TD*%
D28*
%TO.C,IC1001*%
X167875000Y-86945000D03*
X168875000Y-86945000D03*
X169875000Y-86945000D03*
X170875000Y-86945000D03*
X166875000Y-87945000D03*
X167875000Y-87945000D03*
X168875000Y-87945000D03*
X169875000Y-87945000D03*
X170875000Y-87945000D03*
X166875000Y-88945000D03*
X167875000Y-88945000D03*
X168875000Y-88945000D03*
X169875000Y-88945000D03*
X170875000Y-88945000D03*
X166875000Y-89945000D03*
X167875000Y-89945000D03*
X168875000Y-89945000D03*
X169875000Y-89945000D03*
X170875000Y-89945000D03*
X166875000Y-90945000D03*
X167875000Y-90945000D03*
X168875000Y-90945000D03*
X169875000Y-90945000D03*
X170875000Y-90945000D03*
%TD*%
D29*
%TO.C,IC301*%
X176600000Y-98300000D03*
X176600000Y-98700000D03*
X176600000Y-99100000D03*
X176600000Y-99500000D03*
X176600000Y-99900000D03*
X176600000Y-100300000D03*
X176600000Y-100700000D03*
X176600000Y-101100000D03*
X176600000Y-101500000D03*
X176600000Y-101900000D03*
X176600000Y-102300000D03*
X176600000Y-102700000D03*
D30*
X177350000Y-103450000D03*
X177750000Y-103450000D03*
X178150000Y-103450000D03*
X178550000Y-103450000D03*
X178950000Y-103450000D03*
X179350000Y-103450000D03*
X179750000Y-103450000D03*
X180150000Y-103450000D03*
X180550000Y-103450000D03*
X180950000Y-103450000D03*
X181350000Y-103450000D03*
X181750000Y-103450000D03*
D29*
X182500000Y-102700000D03*
X182500000Y-102300000D03*
X182500000Y-101900000D03*
X182500000Y-101500000D03*
X182500000Y-101100000D03*
X182500000Y-100700000D03*
X182500000Y-100300000D03*
X182500000Y-99900000D03*
X182500000Y-99500000D03*
X182500000Y-99100000D03*
X182500000Y-98700000D03*
X182500000Y-98300000D03*
D30*
X181750000Y-97550000D03*
X181350000Y-97550000D03*
X180950000Y-97550000D03*
X180550000Y-97550000D03*
X180150000Y-97550000D03*
X179750000Y-97550000D03*
X179350000Y-97550000D03*
X178950000Y-97550000D03*
X178550000Y-97550000D03*
X178150000Y-97550000D03*
X177750000Y-97550000D03*
X177350000Y-97550000D03*
D31*
X179550000Y-100500000D03*
%TD*%
D32*
%TO.C,IC202*%
X178270000Y-86400000D03*
X177770000Y-86400000D03*
X177270000Y-86400000D03*
X178270000Y-85900000D03*
X177770000Y-85900000D03*
X177270000Y-85900000D03*
X178270000Y-85400000D03*
X177770000Y-85400000D03*
X177270000Y-85400000D03*
%TD*%
D33*
%TO.C,C1402*%
X170105000Y-99425000D03*
X171065000Y-99425000D03*
%TD*%
%TO.C,C1401*%
X170105000Y-97455000D03*
X171065000Y-97455000D03*
%TD*%
D34*
%TO.C,C202*%
X176630000Y-92145000D03*
X178180000Y-92145000D03*
%TD*%
%TO.C,C201*%
X176630000Y-89635000D03*
X178180000Y-89635000D03*
%TD*%
M02*
