%TF.GenerationSoftware,KiCad,Pcbnew,7.0.1*%
%TF.CreationDate,2024-01-02T21:49:50+00:00*%
%TF.ProjectId,rfid_module,72666964-5f6d-46f6-9475-6c652e6b6963,rev?*%
%TF.SameCoordinates,Original*%
%TF.FileFunction,Legend,Top*%
%TF.FilePolarity,Positive*%
%FSLAX46Y46*%
G04 Gerber Fmt 4.6, Leading zero omitted, Abs format (unit mm)*
G04 Created by KiCad (PCBNEW 7.0.1) date 2024-01-02 21:49:50*
%MOMM*%
%LPD*%
G01*
G04 APERTURE LIST*
G04 Aperture macros list*
%AMRoundRect*
0 Rectangle with rounded corners*
0 $1 Rounding radius*
0 $2 $3 $4 $5 $6 $7 $8 $9 X,Y pos of 4 corners*
0 Add a 4 corners polygon primitive as box body*
4,1,4,$2,$3,$4,$5,$6,$7,$8,$9,$2,$3,0*
0 Add four circle primitives for the rounded corners*
1,1,$1+$1,$2,$3*
1,1,$1+$1,$4,$5*
1,1,$1+$1,$6,$7*
1,1,$1+$1,$8,$9*
0 Add four rect primitives between the rounded corners*
20,1,$1+$1,$2,$3,$4,$5,0*
20,1,$1+$1,$4,$5,$6,$7,0*
20,1,$1+$1,$6,$7,$8,$9,0*
20,1,$1+$1,$8,$9,$2,$3,0*%
%AMFreePoly0*
4,1,14,0.111820,0.364320,0.125000,0.332500,0.125000,-0.332500,0.111820,-0.364320,0.080000,-0.377500,0.053640,-0.377501,0.021819,-0.364318,-0.111820,-0.230680,-0.125000,-0.198860,-0.125000,0.332500,-0.111820,0.364320,-0.080000,0.377500,0.080000,0.377500,0.111820,0.364320,0.111820,0.364320,$1*%
%AMFreePoly1*
4,1,14,0.111820,0.364320,0.125000,0.332500,0.125001,-0.198860,0.111818,-0.230680,-0.021820,-0.364320,-0.053640,-0.377500,-0.080000,-0.377500,-0.111820,-0.364320,-0.125000,-0.332500,-0.125000,0.332500,-0.111820,0.364320,-0.080000,0.377500,0.080000,0.377500,0.111820,0.364320,0.111820,0.364320,$1*%
%AMFreePoly2*
4,1,15,-0.198858,0.125000,0.332500,0.125000,0.364320,0.111820,0.377500,0.080000,0.377500,-0.080000,0.364320,-0.111820,0.332500,-0.125000,-0.332500,-0.125000,-0.364320,-0.111820,-0.377500,-0.080000,-0.377500,-0.053640,-0.364320,-0.021819,-0.230680,0.111820,-0.198860,0.125001,-0.198858,0.125000,-0.198858,0.125000,$1*%
%AMFreePoly3*
4,1,14,0.364320,0.111820,0.377500,0.080000,0.377500,-0.080000,0.364320,-0.111820,0.332500,-0.125000,-0.198860,-0.125001,-0.230680,-0.111818,-0.364320,0.021820,-0.377500,0.053640,-0.377500,0.080000,-0.364320,0.111820,-0.332500,0.125000,0.332500,0.125000,0.364320,0.111820,0.364320,0.111820,$1*%
%AMFreePoly4*
4,1,14,-0.021820,0.364320,0.111820,0.230679,0.125000,0.198858,0.125000,-0.332500,0.111820,-0.364320,0.080000,-0.377500,-0.080000,-0.377500,-0.111820,-0.364320,-0.125000,-0.332500,-0.125000,0.332500,-0.111820,0.364320,-0.080000,0.377500,-0.053640,0.377500,-0.021820,0.364320,-0.021820,0.364320,$1*%
%AMFreePoly5*
4,1,15,0.053642,0.377500,0.080000,0.377500,0.111820,0.364320,0.125000,0.332500,0.125000,-0.332500,0.111820,-0.364320,0.080000,-0.377500,-0.080000,-0.377500,-0.111820,-0.364320,-0.125000,-0.332500,-0.125000,0.198860,-0.111820,0.230680,0.021820,0.364320,0.053640,0.377501,0.053642,0.377500,0.053642,0.377500,$1*%
%AMFreePoly6*
4,1,14,0.364320,0.111820,0.377500,0.080000,0.377501,0.053640,0.364318,0.021819,0.230680,-0.111820,0.198860,-0.125000,-0.332500,-0.125000,-0.364320,-0.111820,-0.377500,-0.080000,-0.377500,0.080000,-0.364320,0.111820,-0.332500,0.125000,0.332500,0.125000,0.364320,0.111820,0.364320,0.111820,$1*%
%AMFreePoly7*
4,1,14,0.230680,0.111820,0.364320,-0.021821,0.377500,-0.053642,0.377500,-0.080000,0.364320,-0.111820,0.332500,-0.125000,-0.332500,-0.125000,-0.364320,-0.111820,-0.377500,-0.080000,-0.377500,0.080000,-0.364320,0.111820,-0.332500,0.125000,0.198860,0.125000,0.230680,0.111820,0.230680,0.111820,$1*%
G04 Aperture macros list end*
%ADD10C,0.150000*%
%ADD11C,0.120000*%
%ADD12C,0.200000*%
%ADD13C,0.100000*%
%ADD14C,0.250000*%
%ADD15C,1.500000*%
%ADD16RoundRect,0.140000X0.170000X-0.140000X0.170000X0.140000X-0.170000X0.140000X-0.170000X-0.140000X0*%
%ADD17RoundRect,0.135000X0.185000X-0.135000X0.185000X0.135000X-0.185000X0.135000X-0.185000X-0.135000X0*%
%ADD18R,0.250000X0.400000*%
%ADD19R,0.700000X0.400000*%
%ADD20RoundRect,0.140000X-0.140000X-0.170000X0.140000X-0.170000X0.140000X0.170000X-0.140000X0.170000X0*%
%ADD21R,0.400000X0.250000*%
%ADD22R,0.400000X0.700000*%
%ADD23RoundRect,0.135000X0.135000X0.185000X-0.135000X0.185000X-0.135000X-0.185000X0.135000X-0.185000X0*%
%ADD24RoundRect,0.062500X-0.117500X-0.062500X0.117500X-0.062500X0.117500X0.062500X-0.117500X0.062500X0*%
%ADD25C,0.216000*%
%ADD26RoundRect,0.135000X-0.135000X-0.185000X0.135000X-0.185000X0.135000X0.185000X-0.135000X0.185000X0*%
%ADD27R,0.800000X0.600000*%
%ADD28RoundRect,0.135000X-0.185000X0.135000X-0.185000X-0.135000X0.185000X-0.135000X0.185000X0.135000X0*%
%ADD29RoundRect,0.140000X0.140000X0.170000X-0.140000X0.170000X-0.140000X-0.170000X0.140000X-0.170000X0*%
%ADD30C,0.298000*%
%ADD31RoundRect,0.140000X-0.170000X0.140000X-0.170000X-0.140000X0.170000X-0.140000X0.170000X0.140000X0*%
%ADD32RoundRect,0.100000X0.400000X1.300000X-0.400000X1.300000X-0.400000X-1.300000X0.400000X-1.300000X0*%
%ADD33FreePoly0,180.000000*%
%ADD34RoundRect,0.062500X0.062500X0.375000X-0.062500X0.375000X-0.062500X-0.375000X0.062500X-0.375000X0*%
%ADD35FreePoly1,180.000000*%
%ADD36FreePoly2,180.000000*%
%ADD37RoundRect,0.062500X0.375000X0.062500X-0.375000X0.062500X-0.375000X-0.062500X0.375000X-0.062500X0*%
%ADD38FreePoly3,180.000000*%
%ADD39FreePoly4,180.000000*%
%ADD40FreePoly5,180.000000*%
%ADD41FreePoly6,180.000000*%
%ADD42FreePoly7,180.000000*%
%ADD43R,1.760000X1.760000*%
%ADD44R,0.300000X0.800000*%
%ADD45R,0.800000X0.300000*%
G04 APERTURE END LIST*
D10*
X101700000Y-67600000D02*
G75*
G03*
X101700000Y-67600000I-1000000J0D01*
G01*
X101600000Y-67600000D02*
G75*
G03*
X101600000Y-67600000I-900000J0D01*
G01*
G36*
X101600665Y-59132701D02*
G01*
X101609045Y-59133472D01*
X101617249Y-59134758D01*
X101625275Y-59136559D01*
X101633125Y-59138874D01*
X101640797Y-59141703D01*
X101648292Y-59145047D01*
X101655610Y-59148905D01*
X101662751Y-59153278D01*
X101669715Y-59158165D01*
X101676502Y-59163567D01*
X101683112Y-59169483D01*
X101689545Y-59175913D01*
X101695800Y-59182858D01*
X101701879Y-59190317D01*
X101707780Y-59198291D01*
X101710641Y-59202526D01*
X101716091Y-59211781D01*
X101721177Y-59222085D01*
X101725901Y-59233438D01*
X101730260Y-59245839D01*
X101734257Y-59259289D01*
X101737890Y-59273788D01*
X101739570Y-59281431D01*
X101741160Y-59289336D01*
X101742658Y-59297503D01*
X101744066Y-59305932D01*
X101745383Y-59314623D01*
X101746609Y-59323577D01*
X101747745Y-59332793D01*
X101748789Y-59342271D01*
X101749743Y-59352011D01*
X101750606Y-59362013D01*
X101751378Y-59372278D01*
X101752059Y-59382804D01*
X101752649Y-59393593D01*
X101753149Y-59404644D01*
X101753558Y-59415957D01*
X101753875Y-59427533D01*
X101754103Y-59439370D01*
X101754239Y-59451470D01*
X101754284Y-59463832D01*
X101754239Y-59476134D01*
X101754103Y-59488178D01*
X101753875Y-59499962D01*
X101753558Y-59511487D01*
X101753149Y-59522753D01*
X101752649Y-59533760D01*
X101752059Y-59544507D01*
X101751378Y-59554996D01*
X101750606Y-59565225D01*
X101749743Y-59575195D01*
X101748789Y-59584906D01*
X101747745Y-59594358D01*
X101746609Y-59603551D01*
X101745383Y-59612485D01*
X101744066Y-59621160D01*
X101742658Y-59629575D01*
X101741160Y-59637732D01*
X101739570Y-59645629D01*
X101736119Y-59660646D01*
X101732304Y-59674627D01*
X101728126Y-59687571D01*
X101723584Y-59699478D01*
X101718680Y-59710349D01*
X101713412Y-59720184D01*
X101707780Y-59728982D01*
X101701883Y-59737003D01*
X101695816Y-59744507D01*
X101689579Y-59751493D01*
X101683173Y-59757961D01*
X101676597Y-59763913D01*
X101669853Y-59769346D01*
X101662938Y-59774262D01*
X101655854Y-59778661D01*
X101648601Y-59782542D01*
X101641178Y-59785906D01*
X101633586Y-59788752D01*
X101625825Y-59791081D01*
X101617894Y-59792892D01*
X101609793Y-59794186D01*
X101601523Y-59794962D01*
X101593084Y-59795221D01*
X101584668Y-59794963D01*
X101576420Y-59794189D01*
X101568341Y-59792899D01*
X101560429Y-59791093D01*
X101552685Y-59788771D01*
X101545109Y-59785933D01*
X101537700Y-59782580D01*
X101530460Y-59778710D01*
X101523388Y-59774324D01*
X101516483Y-59769423D01*
X101509747Y-59764005D01*
X101503178Y-59758071D01*
X101496777Y-59751622D01*
X101490545Y-59744656D01*
X101484480Y-59737175D01*
X101478583Y-59729177D01*
X101475722Y-59724920D01*
X101470272Y-59715623D01*
X101465186Y-59705286D01*
X101460463Y-59693907D01*
X101456103Y-59681487D01*
X101452107Y-59668026D01*
X101448473Y-59653524D01*
X101446793Y-59645883D01*
X101445204Y-59637981D01*
X101443705Y-59629819D01*
X101442297Y-59621397D01*
X101440980Y-59612715D01*
X101439754Y-59603772D01*
X101438619Y-59594569D01*
X101437574Y-59585106D01*
X101436620Y-59575382D01*
X101435758Y-59565398D01*
X101434986Y-59555154D01*
X101434304Y-59544650D01*
X101433714Y-59533885D01*
X101433214Y-59522861D01*
X101432806Y-59511575D01*
X101432488Y-59500030D01*
X101432261Y-59488224D01*
X101432124Y-59476158D01*
X101432079Y-59463832D01*
X101432129Y-59451498D01*
X101432279Y-59439408D01*
X101432529Y-59427564D01*
X101432879Y-59415963D01*
X101433329Y-59404608D01*
X101433879Y-59393497D01*
X101434529Y-59382631D01*
X101435279Y-59372009D01*
X101436129Y-59361632D01*
X101437078Y-59351499D01*
X101438128Y-59341612D01*
X101439278Y-59331968D01*
X101440528Y-59322570D01*
X101441878Y-59313416D01*
X101443328Y-59304506D01*
X101444877Y-59295842D01*
X101446527Y-59287422D01*
X101448277Y-59279246D01*
X101450127Y-59271315D01*
X101452076Y-59263629D01*
X101456276Y-59248991D01*
X101460875Y-59235331D01*
X101465875Y-59222649D01*
X101471274Y-59210946D01*
X101477073Y-59200221D01*
X101483272Y-59190475D01*
X101485839Y-59186905D01*
X101491135Y-59180104D01*
X101496646Y-59173757D01*
X101502372Y-59167863D01*
X101508313Y-59162423D01*
X101514469Y-59157436D01*
X101520841Y-59152902D01*
X101530802Y-59146951D01*
X101541247Y-59142021D01*
X101552177Y-59138111D01*
X101559733Y-59136070D01*
X101567503Y-59134484D01*
X101575489Y-59133350D01*
X101583691Y-59132670D01*
X101592107Y-59132443D01*
X101600665Y-59132701D01*
G37*
G36*
X99045304Y-59145014D02*
G01*
X99056585Y-59145211D01*
X99067457Y-59145539D01*
X99077920Y-59145999D01*
X99087974Y-59146590D01*
X99097618Y-59147312D01*
X99106854Y-59148165D01*
X99115680Y-59149150D01*
X99124097Y-59150265D01*
X99132105Y-59151513D01*
X99143350Y-59153629D01*
X99153675Y-59156042D01*
X99163079Y-59158749D01*
X99171563Y-59161752D01*
X99178917Y-59164861D01*
X99186132Y-59168326D01*
X99193206Y-59172146D01*
X99200139Y-59176322D01*
X99206932Y-59180853D01*
X99213585Y-59185740D01*
X99220097Y-59190983D01*
X99226468Y-59196581D01*
X99232700Y-59202536D01*
X99238790Y-59208846D01*
X99244741Y-59215511D01*
X99250551Y-59222532D01*
X99256220Y-59229909D01*
X99261749Y-59237642D01*
X99267138Y-59245730D01*
X99272386Y-59254174D01*
X99277426Y-59263005D01*
X99282141Y-59272303D01*
X99286530Y-59282068D01*
X99290594Y-59292300D01*
X99294334Y-59303000D01*
X99297748Y-59314166D01*
X99300837Y-59325800D01*
X99303600Y-59337900D01*
X99306039Y-59350468D01*
X99308152Y-59363503D01*
X99309941Y-59377005D01*
X99311404Y-59390974D01*
X99312542Y-59405411D01*
X99313355Y-59420314D01*
X99313843Y-59435685D01*
X99313964Y-59443545D01*
X99314005Y-59451522D01*
X99313922Y-59462992D01*
X99313672Y-59474246D01*
X99313256Y-59485285D01*
X99312674Y-59496109D01*
X99311925Y-59506717D01*
X99311010Y-59517111D01*
X99309929Y-59527289D01*
X99308681Y-59537251D01*
X99307266Y-59546999D01*
X99305686Y-59556531D01*
X99303938Y-59565848D01*
X99302025Y-59574950D01*
X99299945Y-59583837D01*
X99297699Y-59592508D01*
X99295286Y-59600964D01*
X99292707Y-59609205D01*
X99291372Y-59613246D01*
X99288603Y-59621172D01*
X99285702Y-59628890D01*
X99282671Y-59636400D01*
X99279508Y-59643703D01*
X99276213Y-59650798D01*
X99271026Y-59661052D01*
X99265543Y-59670839D01*
X99259765Y-59680158D01*
X99253691Y-59689010D01*
X99247322Y-59697395D01*
X99240658Y-59705313D01*
X99233698Y-59712764D01*
X99230256Y-59716136D01*
X99222941Y-59722590D01*
X99215052Y-59728659D01*
X99206589Y-59734344D01*
X99199865Y-59738355D01*
X99192818Y-59742150D01*
X99185448Y-59745728D01*
X99177756Y-59749090D01*
X99169740Y-59752236D01*
X99161402Y-59755165D01*
X99158535Y-59756091D01*
X99149532Y-59758691D01*
X99139924Y-59761027D01*
X99129712Y-59763099D01*
X99118895Y-59764906D01*
X99107473Y-59766449D01*
X99099523Y-59767330D01*
X99091304Y-59768094D01*
X99082817Y-59768741D01*
X99074061Y-59769270D01*
X99065036Y-59769681D01*
X99055743Y-59769975D01*
X99046181Y-59770151D01*
X99036350Y-59770210D01*
X98864403Y-59770210D01*
X98864403Y-59144949D01*
X99033614Y-59144949D01*
X99045304Y-59145014D01*
G37*
G36*
X97328879Y-59141970D02*
G01*
X97339525Y-59142411D01*
X97349793Y-59143148D01*
X97359684Y-59144179D01*
X97369198Y-59145505D01*
X97378335Y-59147125D01*
X97387095Y-59149040D01*
X97395478Y-59151250D01*
X97403483Y-59153754D01*
X97411112Y-59156553D01*
X97421848Y-59161304D01*
X97431736Y-59166717D01*
X97440776Y-59172794D01*
X97448967Y-59179533D01*
X97454007Y-59184304D01*
X97460957Y-59191763D01*
X97467175Y-59199586D01*
X97472662Y-59207773D01*
X97477417Y-59216324D01*
X97481441Y-59225239D01*
X97484733Y-59234519D01*
X97487294Y-59244162D01*
X97489123Y-59254169D01*
X97490220Y-59264541D01*
X97490586Y-59275277D01*
X97490250Y-59285150D01*
X97489242Y-59294840D01*
X97487563Y-59304348D01*
X97485212Y-59313672D01*
X97482190Y-59322812D01*
X97478496Y-59331770D01*
X97474130Y-59340544D01*
X97469092Y-59349136D01*
X97466329Y-59353289D01*
X97460338Y-59361166D01*
X97453732Y-59368469D01*
X97446508Y-59375198D01*
X97438668Y-59381353D01*
X97430211Y-59386934D01*
X97421138Y-59391941D01*
X97413928Y-59395319D01*
X97406371Y-59398375D01*
X97403763Y-59399325D01*
X97395566Y-59401993D01*
X97386809Y-59404390D01*
X97377493Y-59406515D01*
X97367616Y-59408369D01*
X97357180Y-59409952D01*
X97346184Y-59411264D01*
X97334628Y-59412304D01*
X97326613Y-59412846D01*
X97318349Y-59413268D01*
X97309837Y-59413570D01*
X97301075Y-59413751D01*
X97292065Y-59413811D01*
X97062868Y-59413811D01*
X97062868Y-59141822D01*
X97317857Y-59141822D01*
X97328879Y-59141970D01*
G37*
G36*
X102195175Y-60215791D02*
G01*
X94993170Y-60215791D01*
X94993170Y-59051159D01*
X95332456Y-59051159D01*
X95332456Y-59864000D01*
X95835792Y-59864000D01*
X95835792Y-59770210D01*
X95439141Y-59770210D01*
X95439141Y-59051159D01*
X95965338Y-59051159D01*
X95965338Y-59864000D01*
X96071828Y-59864000D01*
X96071828Y-59495095D01*
X96449916Y-59495095D01*
X96449916Y-59401306D01*
X96071828Y-59401306D01*
X96071828Y-59144949D01*
X96508729Y-59144949D01*
X96508729Y-59051159D01*
X96956378Y-59051159D01*
X96956378Y-59141822D01*
X96956378Y-59864000D01*
X97062868Y-59864000D01*
X97062868Y-59504474D01*
X97186552Y-59504474D01*
X97194080Y-59504508D01*
X97203486Y-59504661D01*
X97212172Y-59504936D01*
X97220137Y-59505333D01*
X97229081Y-59506001D01*
X97236899Y-59506859D01*
X97245952Y-59508382D01*
X97249050Y-59509176D01*
X97256762Y-59511481D01*
X97264426Y-59514244D01*
X97272042Y-59517465D01*
X97279611Y-59521144D01*
X97287132Y-59525280D01*
X97294605Y-59529875D01*
X97300665Y-59534098D01*
X97306927Y-59539047D01*
X97313391Y-59544722D01*
X97320055Y-59551124D01*
X97326922Y-59558253D01*
X97332204Y-59564077D01*
X97337599Y-59570309D01*
X97343107Y-59576950D01*
X97348729Y-59584000D01*
X97354552Y-59591554D01*
X97360664Y-59599710D01*
X97367064Y-59608466D01*
X97373752Y-59617824D01*
X97378371Y-59624397D01*
X97383119Y-59631236D01*
X97387995Y-59638343D01*
X97392998Y-59645717D01*
X97398131Y-59653358D01*
X97403391Y-59661266D01*
X97408780Y-59669441D01*
X97414296Y-59677883D01*
X97419941Y-59686593D01*
X97425715Y-59695570D01*
X97532205Y-59864000D01*
X97666441Y-59864000D01*
X97526147Y-59643790D01*
X97520925Y-59635813D01*
X97515663Y-59628003D01*
X97510362Y-59620359D01*
X97505020Y-59612881D01*
X97499639Y-59605570D01*
X97494219Y-59598425D01*
X97488758Y-59591447D01*
X97483258Y-59584635D01*
X97477719Y-59577989D01*
X97472139Y-59571510D01*
X97466520Y-59565197D01*
X97460861Y-59559050D01*
X97455163Y-59553070D01*
X97449425Y-59547256D01*
X97443647Y-59541609D01*
X97437829Y-59536128D01*
X97433512Y-59532421D01*
X97427206Y-59527457D01*
X97420271Y-59522468D01*
X97412708Y-59517455D01*
X97404515Y-59512417D01*
X97395693Y-59507355D01*
X97388664Y-59503543D01*
X97381281Y-59499717D01*
X97373545Y-59495877D01*
X97387792Y-59493681D01*
X97401568Y-59491148D01*
X97414873Y-59488277D01*
X97427705Y-59485069D01*
X97440066Y-59481524D01*
X97451956Y-59477641D01*
X97463373Y-59473421D01*
X97474319Y-59468863D01*
X97484793Y-59463969D01*
X97494796Y-59458737D01*
X97504327Y-59453167D01*
X97513386Y-59447260D01*
X97521973Y-59441016D01*
X97530089Y-59434434D01*
X97537733Y-59427515D01*
X97544905Y-59420259D01*
X97551625Y-59412703D01*
X97557911Y-59404933D01*
X97563764Y-59396949D01*
X97569183Y-59388752D01*
X97574169Y-59380341D01*
X97578721Y-59371716D01*
X97582839Y-59362877D01*
X97586524Y-59353825D01*
X97589776Y-59344559D01*
X97592594Y-59335079D01*
X97594978Y-59325386D01*
X97596929Y-59315479D01*
X97598446Y-59305358D01*
X97599530Y-59295024D01*
X97600181Y-59284475D01*
X97600397Y-59273713D01*
X97600266Y-59265356D01*
X97599872Y-59257090D01*
X97599216Y-59248913D01*
X97598297Y-59240826D01*
X97597115Y-59232829D01*
X97595671Y-59224923D01*
X97593965Y-59217106D01*
X97591995Y-59209380D01*
X97589764Y-59201743D01*
X97587269Y-59194197D01*
X97584512Y-59186741D01*
X97581493Y-59179375D01*
X97578211Y-59172098D01*
X97574666Y-59164912D01*
X97570859Y-59157816D01*
X97566789Y-59150810D01*
X97564679Y-59147363D01*
X97560325Y-59140666D01*
X97555795Y-59134233D01*
X97548667Y-59125079D01*
X97541140Y-59116520D01*
X97533215Y-59108554D01*
X97524892Y-59101183D01*
X97516170Y-59094406D01*
X97507050Y-59088223D01*
X97497531Y-59082634D01*
X97487614Y-59077639D01*
X97477299Y-59073239D01*
X97470088Y-59070565D01*
X97462473Y-59068064D01*
X97454456Y-59065735D01*
X97446036Y-59063579D01*
X97437213Y-59061595D01*
X97427986Y-59059784D01*
X97418357Y-59058145D01*
X97408325Y-59056679D01*
X97397889Y-59055385D01*
X97387051Y-59054264D01*
X97375810Y-59053316D01*
X97364166Y-59052539D01*
X97352118Y-59051936D01*
X97339668Y-59051504D01*
X97326815Y-59051246D01*
X97313558Y-59051159D01*
X97768436Y-59051159D01*
X97768436Y-59864000D01*
X97874926Y-59864000D01*
X97874926Y-59495095D01*
X98253014Y-59495095D01*
X98253014Y-59401306D01*
X97874926Y-59401306D01*
X97874926Y-59144949D01*
X98311828Y-59144949D01*
X98311828Y-59051159D01*
X98464822Y-59051159D01*
X98464822Y-59864000D01*
X98571507Y-59864000D01*
X98571507Y-59051159D01*
X98757718Y-59051159D01*
X98757718Y-59144949D01*
X98757718Y-59864000D01*
X99048464Y-59864000D01*
X99057533Y-59863945D01*
X99066471Y-59863783D01*
X99075278Y-59863512D01*
X99083953Y-59863132D01*
X99092497Y-59862645D01*
X99100909Y-59862049D01*
X99109191Y-59861344D01*
X99117341Y-59860531D01*
X99125360Y-59859610D01*
X99133247Y-59858580D01*
X99144832Y-59856833D01*
X99156122Y-59854841D01*
X99167116Y-59852606D01*
X99177815Y-59850127D01*
X99184809Y-59848342D01*
X99195056Y-59845476D01*
X99205012Y-59842384D01*
X99214675Y-59839065D01*
X99224047Y-59835519D01*
X99233126Y-59831747D01*
X99241914Y-59827748D01*
X99250409Y-59823522D01*
X99258613Y-59819070D01*
X99266525Y-59814390D01*
X99274145Y-59809484D01*
X99279102Y-59806036D01*
X99286444Y-59800572D01*
X99293672Y-59794757D01*
X99300787Y-59788591D01*
X99307788Y-59782076D01*
X99314677Y-59775210D01*
X99321451Y-59767994D01*
X99328113Y-59760427D01*
X99334661Y-59752510D01*
X99341096Y-59744243D01*
X99347418Y-59735625D01*
X99349506Y-59732671D01*
X99355627Y-59723517D01*
X99361532Y-59713931D01*
X99367220Y-59703912D01*
X99370892Y-59696992D01*
X99374468Y-59689880D01*
X99377948Y-59682576D01*
X99381331Y-59675079D01*
X99384619Y-59667390D01*
X99387810Y-59659509D01*
X99390905Y-59651435D01*
X99393904Y-59643169D01*
X99396806Y-59634710D01*
X99399613Y-59626060D01*
X99402323Y-59617217D01*
X99404926Y-59608195D01*
X99407361Y-59599008D01*
X99409628Y-59589657D01*
X99411727Y-59580140D01*
X99413658Y-59570459D01*
X99415421Y-59560613D01*
X99417016Y-59550602D01*
X99418443Y-59540427D01*
X99419703Y-59530086D01*
X99420794Y-59519580D01*
X99421718Y-59508910D01*
X99422473Y-59498075D01*
X99423061Y-59487075D01*
X99423481Y-59475910D01*
X99423733Y-59464580D01*
X99423817Y-59453085D01*
X99423693Y-59439600D01*
X99423322Y-59426304D01*
X99422704Y-59413197D01*
X99421838Y-59400280D01*
X99420725Y-59387552D01*
X99419365Y-59375013D01*
X99417758Y-59362664D01*
X99415903Y-59350503D01*
X99413801Y-59338532D01*
X99411452Y-59326751D01*
X99408855Y-59315158D01*
X99406011Y-59303755D01*
X99402920Y-59292541D01*
X99399582Y-59281517D01*
X99397840Y-59276254D01*
X99804445Y-59276254D01*
X100026413Y-59864000D01*
X100118834Y-59864000D01*
X100311614Y-59351285D01*
X100472302Y-59351285D01*
X100481053Y-59347910D01*
X100490014Y-59344232D01*
X100499184Y-59340253D01*
X100508563Y-59335971D01*
X100518152Y-59331387D01*
X100527951Y-59326500D01*
X100537959Y-59321312D01*
X100548176Y-59315821D01*
X100555105Y-59311992D01*
X100562126Y-59308030D01*
X100569240Y-59303932D01*
X100576448Y-59299701D01*
X100583615Y-59295378D01*
X100590607Y-59291055D01*
X100597426Y-59286732D01*
X100604071Y-59282408D01*
X100613712Y-59275924D01*
X100622962Y-59269439D01*
X100631820Y-59262954D01*
X100640286Y-59256470D01*
X100648361Y-59249985D01*
X100656045Y-59243501D01*
X100663337Y-59237016D01*
X100670237Y-59230531D01*
X100670237Y-59864000D01*
X100769106Y-59864000D01*
X100769106Y-59751452D01*
X101074898Y-59751452D01*
X101074898Y-59864000D01*
X101187641Y-59864000D01*
X101187641Y-59751452D01*
X101074898Y-59751452D01*
X100769106Y-59751452D01*
X100769106Y-59464027D01*
X101330474Y-59464027D01*
X101330552Y-59478143D01*
X101330785Y-59492010D01*
X101331175Y-59505629D01*
X101331720Y-59519000D01*
X101332420Y-59532123D01*
X101333277Y-59544998D01*
X101334289Y-59557625D01*
X101335457Y-59570004D01*
X101336780Y-59582135D01*
X101338259Y-59594018D01*
X101339894Y-59605653D01*
X101341685Y-59617039D01*
X101343631Y-59628178D01*
X101345733Y-59639069D01*
X101347991Y-59649711D01*
X101350404Y-59660106D01*
X101352973Y-59670252D01*
X101355698Y-59680150D01*
X101358579Y-59689801D01*
X101361615Y-59699203D01*
X101364807Y-59708357D01*
X101368155Y-59717263D01*
X101371658Y-59725921D01*
X101375317Y-59734331D01*
X101379132Y-59742493D01*
X101383102Y-59750407D01*
X101387228Y-59758073D01*
X101391510Y-59765490D01*
X101395948Y-59772660D01*
X101400541Y-59779582D01*
X101405290Y-59786255D01*
X101410195Y-59792681D01*
X101418695Y-59802831D01*
X101427585Y-59812327D01*
X101436866Y-59821168D01*
X101446538Y-59829354D01*
X101456601Y-59836885D01*
X101467055Y-59843761D01*
X101477899Y-59849982D01*
X101489134Y-59855549D01*
X101500760Y-59860460D01*
X101512777Y-59864717D01*
X101525184Y-59868319D01*
X101537983Y-59871266D01*
X101551172Y-59873558D01*
X101564752Y-59875195D01*
X101578722Y-59876177D01*
X101593084Y-59876505D01*
X101604029Y-59876318D01*
X101614736Y-59875760D01*
X101625205Y-59874829D01*
X101635436Y-59873525D01*
X101645428Y-59871849D01*
X101655183Y-59869800D01*
X101664699Y-59867379D01*
X101673977Y-59864586D01*
X101683017Y-59861420D01*
X101691819Y-59857881D01*
X101700383Y-59853970D01*
X101708709Y-59849687D01*
X101716796Y-59845031D01*
X101724645Y-59840003D01*
X101732257Y-59834602D01*
X101739630Y-59828829D01*
X101746771Y-59822714D01*
X101753686Y-59816290D01*
X101760375Y-59809555D01*
X101766838Y-59802511D01*
X101773076Y-59795157D01*
X101779087Y-59787493D01*
X101784873Y-59779520D01*
X101790432Y-59771236D01*
X101795766Y-59762643D01*
X101800874Y-59753739D01*
X101805755Y-59744526D01*
X101810411Y-59735003D01*
X101814841Y-59725170D01*
X101819045Y-59715027D01*
X101823023Y-59704574D01*
X101826775Y-59693811D01*
X101830301Y-59682655D01*
X101833599Y-59671072D01*
X101836670Y-59659061D01*
X101839513Y-59646623D01*
X101842128Y-59633758D01*
X101844517Y-59620465D01*
X101846677Y-59606745D01*
X101848611Y-59592597D01*
X101850317Y-59578022D01*
X101851795Y-59563019D01*
X101853046Y-59547589D01*
X101853586Y-59539714D01*
X101854070Y-59531732D01*
X101854496Y-59523643D01*
X101854866Y-59515447D01*
X101855178Y-59507144D01*
X101855434Y-59498734D01*
X101855633Y-59490218D01*
X101855776Y-59481595D01*
X101855861Y-59472864D01*
X101855889Y-59464027D01*
X101855818Y-59449200D01*
X101855605Y-59434758D01*
X101855250Y-59420703D01*
X101854754Y-59407033D01*
X101854115Y-59393750D01*
X101853334Y-59380854D01*
X101852411Y-59368343D01*
X101851346Y-59356219D01*
X101850140Y-59344480D01*
X101848791Y-59333129D01*
X101847300Y-59322163D01*
X101845668Y-59311583D01*
X101843893Y-59301390D01*
X101841977Y-59291583D01*
X101839918Y-59282162D01*
X101837718Y-59273127D01*
X101835393Y-59264346D01*
X101832961Y-59255734D01*
X101830422Y-59247292D01*
X101827777Y-59239019D01*
X101825025Y-59230915D01*
X101822165Y-59222981D01*
X101819199Y-59215216D01*
X101816127Y-59207621D01*
X101812947Y-59200196D01*
X101809660Y-59192939D01*
X101804530Y-59182372D01*
X101799159Y-59172187D01*
X101793548Y-59162383D01*
X101787697Y-59152960D01*
X101783648Y-59146871D01*
X101777324Y-59138079D01*
X101770697Y-59129696D01*
X101763768Y-59121721D01*
X101756537Y-59114155D01*
X101749004Y-59106998D01*
X101741168Y-59100249D01*
X101733031Y-59093909D01*
X101724590Y-59087978D01*
X101715848Y-59082456D01*
X101706803Y-59077342D01*
X101703735Y-59075731D01*
X101694341Y-59071206D01*
X101684665Y-59067140D01*
X101674708Y-59063535D01*
X101664470Y-59060390D01*
X101653949Y-59057705D01*
X101643147Y-59055480D01*
X101632064Y-59053716D01*
X101620698Y-59052412D01*
X101609051Y-59051568D01*
X101601130Y-59051262D01*
X101593084Y-59051159D01*
X101582210Y-59051345D01*
X101571569Y-59051901D01*
X101561162Y-59052829D01*
X101550989Y-59054127D01*
X101541049Y-59055796D01*
X101531342Y-59057836D01*
X101521870Y-59060247D01*
X101512630Y-59063030D01*
X101503625Y-59066183D01*
X101494853Y-59069706D01*
X101486314Y-59073601D01*
X101478009Y-59077867D01*
X101469937Y-59082504D01*
X101462100Y-59087512D01*
X101454495Y-59092890D01*
X101447124Y-59098640D01*
X101440005Y-59104708D01*
X101433108Y-59111090D01*
X101426432Y-59117787D01*
X101419977Y-59124799D01*
X101413743Y-59132124D01*
X101407731Y-59139765D01*
X101401940Y-59147719D01*
X101396371Y-59155988D01*
X101391023Y-59164572D01*
X101385896Y-59173470D01*
X101380990Y-59182683D01*
X101376306Y-59192210D01*
X101371843Y-59202051D01*
X101367602Y-59212207D01*
X101363582Y-59222677D01*
X101359783Y-59233462D01*
X101357980Y-59238976D01*
X101354545Y-59250330D01*
X101351340Y-59262121D01*
X101348363Y-59274348D01*
X101345615Y-59287012D01*
X101343096Y-59300113D01*
X101340807Y-59313650D01*
X101338746Y-59327624D01*
X101336914Y-59342034D01*
X101335311Y-59356881D01*
X101333937Y-59372164D01*
X101333336Y-59379970D01*
X101332792Y-59387884D01*
X101332306Y-59395908D01*
X101331877Y-59404041D01*
X101331504Y-59412283D01*
X101331190Y-59420634D01*
X101330932Y-59429095D01*
X101330732Y-59437664D01*
X101330589Y-59446343D01*
X101330503Y-59455130D01*
X101330475Y-59463832D01*
X101330474Y-59464027D01*
X100769106Y-59464027D01*
X100769106Y-59051159D01*
X100705408Y-59051159D01*
X100702042Y-59057620D01*
X100696460Y-59067360D01*
X100690240Y-59077159D01*
X100685739Y-59083724D01*
X100680953Y-59090314D01*
X100675883Y-59096931D01*
X100670530Y-59103574D01*
X100664892Y-59110242D01*
X100658971Y-59116937D01*
X100652766Y-59123657D01*
X100646277Y-59130404D01*
X100639503Y-59137176D01*
X100632446Y-59143975D01*
X100625105Y-59150799D01*
X100617480Y-59157649D01*
X100609632Y-59164449D01*
X100601620Y-59171122D01*
X100593445Y-59177669D01*
X100585106Y-59184088D01*
X100576604Y-59190382D01*
X100567939Y-59196548D01*
X100559110Y-59202588D01*
X100550118Y-59208501D01*
X100540963Y-59214287D01*
X100531644Y-59219946D01*
X100522162Y-59225479D01*
X100512517Y-59230885D01*
X100502708Y-59236165D01*
X100492736Y-59241318D01*
X100482601Y-59246344D01*
X100472302Y-59251243D01*
X100472302Y-59351285D01*
X100311614Y-59351285D01*
X100339825Y-59276254D01*
X100238025Y-59276254D01*
X100108283Y-59635584D01*
X100106827Y-59639656D01*
X100103976Y-59647690D01*
X100101204Y-59655576D01*
X100098511Y-59663314D01*
X100095897Y-59670904D01*
X100093363Y-59678346D01*
X100089711Y-59689231D01*
X100086238Y-59699783D01*
X100082943Y-59710001D01*
X100079826Y-59719887D01*
X100076888Y-59729439D01*
X100074129Y-59738658D01*
X100071549Y-59747545D01*
X100070483Y-59743702D01*
X100068332Y-59736044D01*
X100066155Y-59728420D01*
X100063953Y-59720832D01*
X100061724Y-59713279D01*
X100059469Y-59705760D01*
X100056039Y-59694549D01*
X100052549Y-59683417D01*
X100049002Y-59672364D01*
X100045396Y-59661389D01*
X100041732Y-59650494D01*
X100038009Y-59639678D01*
X100034228Y-59628940D01*
X99908981Y-59276254D01*
X99804445Y-59276254D01*
X99397840Y-59276254D01*
X99395996Y-59270682D01*
X99392163Y-59260036D01*
X99388104Y-59249578D01*
X99383791Y-59239358D01*
X99379226Y-59229373D01*
X99374406Y-59219626D01*
X99369334Y-59210115D01*
X99364008Y-59200840D01*
X99358428Y-59191803D01*
X99352595Y-59183002D01*
X99346509Y-59174437D01*
X99340170Y-59166109D01*
X99333577Y-59158018D01*
X99326730Y-59150163D01*
X99319630Y-59142545D01*
X99312277Y-59135164D01*
X99304670Y-59128019D01*
X99296810Y-59121110D01*
X99290625Y-59115937D01*
X99284281Y-59110968D01*
X99277778Y-59106204D01*
X99271116Y-59101644D01*
X99264296Y-59097289D01*
X99257316Y-59093139D01*
X99250178Y-59089192D01*
X99242882Y-59085451D01*
X99235426Y-59081914D01*
X99227812Y-59078582D01*
X99220039Y-59075454D01*
X99212107Y-59072531D01*
X99204016Y-59069812D01*
X99195767Y-59067298D01*
X99187359Y-59064988D01*
X99178792Y-59062883D01*
X99172439Y-59061463D01*
X99162256Y-59059506D01*
X99151290Y-59057754D01*
X99143545Y-59056701D01*
X99135451Y-59055739D01*
X99127010Y-59054869D01*
X99118220Y-59054090D01*
X99109082Y-59053403D01*
X99099596Y-59052808D01*
X99089763Y-59052304D01*
X99079581Y-59051892D01*
X99069051Y-59051571D01*
X99058173Y-59051342D01*
X99046947Y-59051205D01*
X99035373Y-59051159D01*
X98757718Y-59051159D01*
X98571507Y-59051159D01*
X98464822Y-59051159D01*
X98311828Y-59051159D01*
X97768436Y-59051159D01*
X97313558Y-59051159D01*
X96956378Y-59051159D01*
X96508729Y-59051159D01*
X95965338Y-59051159D01*
X95439141Y-59051159D01*
X95332456Y-59051159D01*
X94993170Y-59051159D01*
X94993170Y-58711873D01*
X102195175Y-58711873D01*
X102195175Y-60215791D01*
G37*
D11*
%TO.C,TP203*%
X104150000Y-67600000D02*
G75*
G03*
X104150000Y-67600000I-950000J0D01*
G01*
%TO.C,TP101*%
X101650000Y-67600000D02*
G75*
G03*
X101650000Y-67600000I-950000J0D01*
G01*
%TO.C,C204*%
X104340000Y-59807836D02*
X104340000Y-59592164D01*
X105060000Y-59807836D02*
X105060000Y-59592164D01*
%TO.C,R204*%
X109220000Y-56053641D02*
X109220000Y-55746359D01*
X109980000Y-56053641D02*
X109980000Y-55746359D01*
%TO.C,Q203*%
X107300000Y-56650000D02*
X106700000Y-56650000D01*
%TO.C,R212*%
X103220000Y-59853641D02*
X103220000Y-59546359D01*
X103980000Y-59853641D02*
X103980000Y-59546359D01*
%TO.C,C205*%
X95472164Y-64960000D02*
X95687836Y-64960000D01*
X95472164Y-64240000D02*
X95687836Y-64240000D01*
%TO.C,Q401*%
X115250000Y-59600000D02*
X115250000Y-60200000D01*
%TO.C,C208*%
X99640000Y-65387836D02*
X99640000Y-65172164D01*
X100360000Y-65387836D02*
X100360000Y-65172164D01*
%TO.C,R206*%
X106520000Y-57853641D02*
X106520000Y-57546359D01*
X107280000Y-57853641D02*
X107280000Y-57546359D01*
%TO.C,R503*%
X111553641Y-58080000D02*
X111246359Y-58080000D01*
X111553641Y-57320000D02*
X111246359Y-57320000D01*
%TO.C,D201*%
X95020000Y-65400000D02*
X96380000Y-65400000D01*
X95020000Y-66200000D02*
X96380000Y-66200000D01*
X96380000Y-66200000D02*
X96380000Y-65400000D01*
%TO.C,R217*%
X97753641Y-65420000D02*
X97446359Y-65420000D01*
X97753641Y-66180000D02*
X97446359Y-66180000D01*
%TO.C,Q202*%
X108700000Y-56650000D02*
X108100000Y-56650000D01*
%TO.C,R202*%
X107620000Y-57853641D02*
X107620000Y-57546359D01*
X108380000Y-57853641D02*
X108380000Y-57546359D01*
%TO.C,TP202*%
X99150000Y-67600000D02*
G75*
G03*
X99150000Y-67600000I-950000J0D01*
G01*
%TO.C,C202*%
X97492164Y-61740000D02*
X97707836Y-61740000D01*
X97492164Y-62460000D02*
X97707836Y-62460000D01*
D12*
%TO.C,IC501*%
X113800000Y-55142000D02*
X114258000Y-55600000D01*
X112942000Y-55142000D02*
X113800000Y-55142000D01*
X114258000Y-55600000D02*
X114258000Y-56858000D01*
X114258000Y-56858000D02*
X112942000Y-56858000D01*
X112942000Y-56858000D02*
X112942000Y-55142000D01*
X114358000Y-55142000D02*
G75*
G03*
X114358000Y-55142000I-100000J0D01*
G01*
D11*
%TO.C,R203*%
X97446359Y-63780000D02*
X97753641Y-63780000D01*
X97446359Y-63020000D02*
X97753641Y-63020000D01*
%TO.C,L501*%
X114740000Y-57060000D02*
X114740000Y-54940000D01*
X116060000Y-57060000D02*
X116060000Y-54940000D01*
%TO.C,R205*%
X99580000Y-62596359D02*
X99580000Y-62903641D01*
X98820000Y-62596359D02*
X98820000Y-62903641D01*
%TO.C,C502*%
X111640000Y-56007836D02*
X111640000Y-55792164D01*
X112360000Y-56007836D02*
X112360000Y-55792164D01*
%TO.C,R219*%
X107253641Y-67680000D02*
X106946359Y-67680000D01*
X107253641Y-66920000D02*
X106946359Y-66920000D01*
%TO.C,C501*%
X115507836Y-58060000D02*
X115292164Y-58060000D01*
X115507836Y-57340000D02*
X115292164Y-57340000D01*
%TO.C,TP201*%
X96650000Y-67600000D02*
G75*
G03*
X96650000Y-67600000I-950000J0D01*
G01*
%TO.C,R211*%
X104320000Y-62943641D02*
X104320000Y-62636359D01*
X105080000Y-62943641D02*
X105080000Y-62636359D01*
D13*
%TO.C,IC202*%
X107950000Y-65050000D02*
X108150000Y-64850000D01*
X107950000Y-66050000D02*
X107950000Y-65050000D01*
X108150000Y-64850000D02*
X109650000Y-64850000D01*
X109650000Y-64850000D02*
X109650000Y-66050000D01*
X109650000Y-66050000D02*
X107950000Y-66050000D01*
D10*
X107876000Y-64701000D02*
G75*
G03*
X107876000Y-64701000I-75000J0D01*
G01*
D11*
%TO.C,R502*%
X113246359Y-57320000D02*
X113553641Y-57320000D01*
X113246359Y-58080000D02*
X113553641Y-58080000D01*
%TO.C,C207*%
X97492164Y-64960000D02*
X97707836Y-64960000D01*
X97492164Y-64240000D02*
X97707836Y-64240000D01*
%TO.C,R501*%
X111180000Y-55746359D02*
X111180000Y-56053641D01*
X110420000Y-55746359D02*
X110420000Y-56053641D01*
%TO.C,Q201*%
X108650000Y-58000000D02*
X108650000Y-57400000D01*
%TO.C,C201*%
X96360000Y-62592164D02*
X96360000Y-62807836D01*
X95640000Y-62592164D02*
X95640000Y-62807836D01*
%TO.C,R221*%
X105153641Y-64520000D02*
X104846359Y-64520000D01*
X105153641Y-65280000D02*
X104846359Y-65280000D01*
%TO.C,L201*%
X96200000Y-55200000D02*
X104200000Y-55200000D01*
X104200000Y-58200000D02*
X96200000Y-58200000D01*
%TO.C,R222*%
X102646359Y-65420000D02*
X102953641Y-65420000D01*
X102646359Y-66180000D02*
X102953641Y-66180000D01*
%TO.C,U301*%
X107690000Y-59290000D02*
X107690000Y-59515000D01*
X107690000Y-63510000D02*
X107690000Y-63285000D01*
X107915000Y-59290000D02*
X107690000Y-59290000D01*
X107915000Y-63510000D02*
X107690000Y-63510000D01*
X111685000Y-59290000D02*
X111910000Y-59290000D01*
X111685000Y-63510000D02*
X111910000Y-63510000D01*
X111910000Y-59290000D02*
X111910000Y-59515000D01*
%TO.C,C209*%
X105040000Y-67907836D02*
X105040000Y-67692164D01*
X105760000Y-67907836D02*
X105760000Y-67692164D01*
%TO.C,R201*%
X106046359Y-58920000D02*
X106353641Y-58920000D01*
X106046359Y-59680000D02*
X106353641Y-59680000D01*
%TO.C,C301*%
X114507836Y-61260000D02*
X114292164Y-61260000D01*
X114507836Y-60540000D02*
X114292164Y-60540000D01*
%TO.C,R207*%
X106353641Y-60780000D02*
X106046359Y-60780000D01*
X106353641Y-60020000D02*
X106046359Y-60020000D01*
%TO.C,R401*%
X114553641Y-59180000D02*
X114246359Y-59180000D01*
X114553641Y-58420000D02*
X114246359Y-58420000D01*
%TO.C,C302*%
X112640000Y-62007836D02*
X112640000Y-61792164D01*
X113360000Y-62007836D02*
X113360000Y-61792164D01*
D14*
%TO.C,IC201*%
X103975000Y-64000000D02*
G75*
G03*
X103975000Y-64000000I-125000J0D01*
G01*
%TD*%
%LPC*%
D15*
%TO.C,TP203*%
X103200000Y-67600000D03*
%TD*%
%TO.C,TP101*%
X100700000Y-67600000D03*
%TD*%
D16*
%TO.C,C204*%
X104700000Y-60180000D03*
X104700000Y-59220000D03*
%TD*%
D17*
%TO.C,R204*%
X109600000Y-56410000D03*
X109600000Y-55390000D03*
%TD*%
D18*
%TO.C,Q203*%
X106775000Y-56150000D03*
X107225000Y-56150000D03*
D19*
X107000000Y-55450000D03*
%TD*%
D17*
%TO.C,R212*%
X103600000Y-60210000D03*
X103600000Y-59190000D03*
%TD*%
D20*
%TO.C,C205*%
X96060000Y-64600000D03*
X95100000Y-64600000D03*
%TD*%
D21*
%TO.C,Q401*%
X114750000Y-60125000D03*
X114750000Y-59675000D03*
D22*
X114050000Y-59900000D03*
%TD*%
D16*
%TO.C,C208*%
X100000000Y-65760000D03*
X100000000Y-64800000D03*
%TD*%
D17*
%TO.C,R206*%
X106900000Y-58210000D03*
X106900000Y-57190000D03*
%TD*%
D23*
%TO.C,R503*%
X111910000Y-57700000D03*
X110890000Y-57700000D03*
%TD*%
D24*
%TO.C,D201*%
X95100000Y-65800000D03*
X95940000Y-65800000D03*
%TD*%
D23*
%TO.C,R217*%
X97090000Y-65800000D03*
X98110000Y-65800000D03*
%TD*%
D19*
%TO.C,Q202*%
X108400000Y-55450000D03*
D18*
X108175000Y-56150000D03*
X108625000Y-56150000D03*
%TD*%
D17*
%TO.C,R202*%
X108000000Y-58210000D03*
X108000000Y-57190000D03*
%TD*%
D15*
%TO.C,TP202*%
X98200000Y-67600000D03*
%TD*%
D20*
%TO.C,C202*%
X97120000Y-62100000D03*
X98080000Y-62100000D03*
%TD*%
D25*
%TO.C,IC501*%
X113800000Y-55600000D03*
X113800000Y-56000000D03*
X113800000Y-56400000D03*
X113400000Y-55600000D03*
X113400000Y-56000000D03*
X113400000Y-56400000D03*
%TD*%
D26*
%TO.C,R203*%
X98110000Y-63400000D03*
X97090000Y-63400000D03*
%TD*%
D27*
%TO.C,L501*%
X115400000Y-56400000D03*
X115400000Y-55600000D03*
%TD*%
D28*
%TO.C,R205*%
X99200000Y-62240000D03*
X99200000Y-63260000D03*
%TD*%
D16*
%TO.C,C502*%
X112000000Y-56380000D03*
X112000000Y-55420000D03*
%TD*%
D23*
%TO.C,R219*%
X107610000Y-67300000D03*
X106590000Y-67300000D03*
%TD*%
D29*
%TO.C,C501*%
X115880000Y-57700000D03*
X114920000Y-57700000D03*
%TD*%
D15*
%TO.C,TP201*%
X95700000Y-67600000D03*
%TD*%
D17*
%TO.C,R211*%
X104700000Y-63300000D03*
X104700000Y-62280000D03*
%TD*%
D30*
%TO.C,IC202*%
X108300000Y-65200000D03*
X108800000Y-65200000D03*
X109300000Y-65200000D03*
X108300000Y-65700000D03*
X108800000Y-65700000D03*
X109300000Y-65700000D03*
%TD*%
D26*
%TO.C,R502*%
X112890000Y-57700000D03*
X113910000Y-57700000D03*
%TD*%
D20*
%TO.C,C207*%
X98080000Y-64600000D03*
X97120000Y-64600000D03*
%TD*%
D28*
%TO.C,R501*%
X110800000Y-55390000D03*
X110800000Y-56410000D03*
%TD*%
D21*
%TO.C,Q201*%
X109150000Y-57475000D03*
X109150000Y-57925000D03*
D22*
X109850000Y-57700000D03*
%TD*%
D31*
%TO.C,C201*%
X96000000Y-62220000D03*
X96000000Y-63180000D03*
%TD*%
D23*
%TO.C,R221*%
X104490000Y-64900000D03*
X105510000Y-64900000D03*
%TD*%
D32*
%TO.C,L201*%
X95100000Y-56700000D03*
X105300000Y-56700000D03*
%TD*%
D26*
%TO.C,R222*%
X102290000Y-65800000D03*
X103310000Y-65800000D03*
%TD*%
D33*
%TO.C,U301*%
X111300000Y-63397500D03*
D34*
X110800000Y-63337500D03*
X110300000Y-63337500D03*
X109800000Y-63337500D03*
X109300000Y-63337500D03*
X108800000Y-63337500D03*
D35*
X108300000Y-63397500D03*
D36*
X107802500Y-62900000D03*
D37*
X107862500Y-62400000D03*
X107862500Y-61900000D03*
X107862500Y-61400000D03*
X107862500Y-60900000D03*
X107862500Y-60400000D03*
D38*
X107802500Y-59900000D03*
D39*
X108300000Y-59402500D03*
D34*
X108800000Y-59462500D03*
X109300000Y-59462500D03*
X109800000Y-59462500D03*
X110300000Y-59462500D03*
X110800000Y-59462500D03*
D40*
X111300000Y-59402500D03*
D41*
X111797500Y-59900000D03*
D37*
X111737500Y-60400000D03*
X111737500Y-60900000D03*
X111737500Y-61400000D03*
X111737500Y-61900000D03*
X111737500Y-62400000D03*
D42*
X111797500Y-62900000D03*
%TD*%
D16*
%TO.C,C209*%
X105400000Y-68280000D03*
X105400000Y-67320000D03*
%TD*%
D26*
%TO.C,R201*%
X105690000Y-59300000D03*
X106710000Y-59300000D03*
%TD*%
D29*
%TO.C,C301*%
X114880000Y-60900000D03*
X113920000Y-60900000D03*
%TD*%
D23*
%TO.C,R207*%
X106710000Y-60400000D03*
X105690000Y-60400000D03*
%TD*%
%TO.C,R401*%
X114910000Y-58800000D03*
X113890000Y-58800000D03*
%TD*%
D16*
%TO.C,C302*%
X113000000Y-62380000D03*
X113000000Y-61420000D03*
%TD*%
D43*
%TO.C,IC201*%
X101950000Y-62500000D03*
D44*
X102700000Y-64000000D03*
X102200000Y-64000000D03*
X101700000Y-64000000D03*
X101200000Y-64000000D03*
D45*
X100450000Y-63250000D03*
X100450000Y-62750000D03*
X100450000Y-62250000D03*
X100450000Y-61750000D03*
D44*
X101200000Y-61000000D03*
X101700000Y-61000000D03*
X102200000Y-61000000D03*
X102700000Y-61000000D03*
D45*
X103450000Y-61750000D03*
X103450000Y-62250000D03*
X103450000Y-62750000D03*
X103450000Y-63250000D03*
%TD*%
M02*
