%TF.GenerationSoftware,KiCad,Pcbnew,7.0.1*%
%TF.CreationDate,2024-01-02T21:49:50+00:00*%
%TF.ProjectId,rfid_module,72666964-5f6d-46f6-9475-6c652e6b6963,rev?*%
%TF.SameCoordinates,Original*%
%TF.FileFunction,Copper,L4,Inr*%
%TF.FilePolarity,Positive*%
%FSLAX46Y46*%
G04 Gerber Fmt 4.6, Leading zero omitted, Abs format (unit mm)*
G04 Created by KiCad (PCBNEW 7.0.1) date 2024-01-02 21:49:50*
%MOMM*%
%LPD*%
G01*
G04 APERTURE LIST*
%TA.AperFunction,ViaPad*%
%ADD10C,0.400000*%
%TD*%
G04 APERTURE END LIST*
D10*
%TO.N,GND*%
X113649000Y-61771000D03*
%TO.N,IOREF*%
X115700000Y-60200000D03*
%TO.N,GND*%
X108850000Y-60450000D03*
X107600000Y-56150000D03*
X108200000Y-66900000D03*
X102900000Y-59190000D03*
X105600000Y-63800000D03*
X107000000Y-64700000D03*
X105690000Y-58690000D03*
X105000000Y-65800000D03*
X99450000Y-60650000D03*
X102000000Y-68300000D03*
X102900000Y-64900000D03*
X101100000Y-65300000D03*
X98600000Y-65200000D03*
X102550000Y-62500000D03*
X101950000Y-62500000D03*
X102550000Y-63100000D03*
X101950000Y-63100000D03*
X101350000Y-63100000D03*
X101350000Y-62500000D03*
X102550000Y-61900000D03*
X101950000Y-61900000D03*
X101350000Y-61900000D03*
X109300000Y-66300000D03*
X97000000Y-67000000D03*
X96600000Y-68600000D03*
X96060000Y-63900000D03*
X114400000Y-57100000D03*
X112780000Y-55420000D03*
%TD*%
%TA.AperFunction,Conductor*%
%TO.N,GND*%
G36*
X115506158Y-55051096D02*
G01*
X115624413Y-55062743D01*
X115648242Y-55067482D01*
X115756104Y-55100201D01*
X115778555Y-55109502D01*
X115877948Y-55162628D01*
X115898160Y-55176133D01*
X115985279Y-55247630D01*
X116002468Y-55264819D01*
X116073965Y-55351939D01*
X116087469Y-55372149D01*
X116140594Y-55471537D01*
X116149896Y-55493995D01*
X116182613Y-55601847D01*
X116187356Y-55625688D01*
X116198903Y-55742923D01*
X116199500Y-55755078D01*
X116199500Y-57947226D01*
X116183689Y-58007815D01*
X116140289Y-58052954D01*
X116080367Y-58071130D01*
X116019205Y-58057710D01*
X115969320Y-58032292D01*
X115926554Y-58010501D01*
X115800000Y-57990457D01*
X115673444Y-58010501D01*
X115559277Y-58068673D01*
X115468673Y-58159277D01*
X115410501Y-58273444D01*
X115390457Y-58400000D01*
X115410501Y-58526555D01*
X115460153Y-58624000D01*
X115468674Y-58640723D01*
X115559277Y-58731326D01*
X115580795Y-58742290D01*
X115616871Y-58760672D01*
X115663133Y-58801458D01*
X115684025Y-58859487D01*
X115674376Y-58920403D01*
X115636575Y-58969135D01*
X115579973Y-58993629D01*
X115473444Y-59010501D01*
X115359277Y-59068673D01*
X115268673Y-59159277D01*
X115210501Y-59273444D01*
X115190457Y-59400000D01*
X115210501Y-59526555D01*
X115268673Y-59640722D01*
X115358400Y-59730449D01*
X115389696Y-59783195D01*
X115391885Y-59844487D01*
X115364433Y-59899332D01*
X115317117Y-59953938D01*
X115263302Y-60071773D01*
X115244867Y-60199999D01*
X115263302Y-60328226D01*
X115317118Y-60446064D01*
X115340843Y-60473444D01*
X115401951Y-60543967D01*
X115430640Y-60562404D01*
X115510931Y-60614005D01*
X115652334Y-60655523D01*
X115651325Y-60658956D01*
X115685525Y-60668534D01*
X115731192Y-60717391D01*
X115744844Y-60782859D01*
X115722510Y-60845894D01*
X115706469Y-60868674D01*
X115533317Y-61114555D01*
X115530493Y-61118406D01*
X114956226Y-61870602D01*
X114953255Y-61874341D01*
X114896091Y-61943522D01*
X114844022Y-61980649D01*
X114780377Y-61986893D01*
X114722085Y-61960593D01*
X114684650Y-61908745D01*
X114678029Y-61845138D01*
X114680496Y-61829557D01*
X114680498Y-61829555D01*
X114700542Y-61703000D01*
X114690678Y-61640723D01*
X114680498Y-61576444D01*
X114622326Y-61462277D01*
X114531722Y-61371673D01*
X114417555Y-61313501D01*
X114291000Y-61293457D01*
X114164444Y-61313501D01*
X114050277Y-61371673D01*
X113959673Y-61462277D01*
X113901501Y-61576444D01*
X113881457Y-61703000D01*
X113903393Y-61841498D01*
X113898851Y-61899214D01*
X113868601Y-61948577D01*
X113819238Y-61978827D01*
X113761522Y-61983369D01*
X113680000Y-61970457D01*
X113553444Y-61990501D01*
X113439277Y-62048673D01*
X113348673Y-62139277D01*
X113290501Y-62253444D01*
X113270457Y-62380000D01*
X113290501Y-62506555D01*
X113348673Y-62620722D01*
X113439277Y-62711326D01*
X113553444Y-62769498D01*
X113680000Y-62789542D01*
X113806555Y-62769498D01*
X113920723Y-62711326D01*
X113935732Y-62696316D01*
X113990193Y-62664531D01*
X114003095Y-62664349D01*
X114015092Y-62613331D01*
X114069498Y-62506555D01*
X114089542Y-62380000D01*
X114069498Y-62253445D01*
X114069497Y-62253444D01*
X114067606Y-62241501D01*
X114072148Y-62183785D01*
X114102398Y-62134422D01*
X114151761Y-62104172D01*
X114209476Y-62099630D01*
X114291000Y-62112542D01*
X114417555Y-62092498D01*
X114498736Y-62051133D01*
X114564351Y-62037970D01*
X114627256Y-62060827D01*
X114669118Y-62113048D01*
X114677743Y-62179418D01*
X114650617Y-62240604D01*
X114350446Y-62603882D01*
X114347349Y-62607486D01*
X114278871Y-62684148D01*
X114218055Y-62752231D01*
X114169385Y-62785628D01*
X114143643Y-62788751D01*
X114144560Y-62810437D01*
X114115889Y-62866605D01*
X113716913Y-63313259D01*
X113713664Y-63316759D01*
X113056507Y-63997753D01*
X113053126Y-64001124D01*
X112370251Y-64656300D01*
X112366742Y-64659539D01*
X111958710Y-65021904D01*
X111897660Y-65051347D01*
X111830249Y-65044291D01*
X111776619Y-65002846D01*
X111752792Y-64939393D01*
X111765886Y-64872895D01*
X111789498Y-64826555D01*
X111809542Y-64700000D01*
X111789498Y-64573445D01*
X111789498Y-64573444D01*
X111731326Y-64459277D01*
X111640722Y-64368673D01*
X111526555Y-64310501D01*
X111400000Y-64290457D01*
X111273444Y-64310501D01*
X111159277Y-64368673D01*
X111068673Y-64459277D01*
X111010501Y-64573444D01*
X110990457Y-64699999D01*
X111010501Y-64826555D01*
X111068673Y-64940722D01*
X111159277Y-65031326D01*
X111273444Y-65089498D01*
X111399999Y-65109542D01*
X111399999Y-65109541D01*
X111400000Y-65109542D01*
X111526555Y-65089498D01*
X111526555Y-65089497D01*
X111539523Y-65087444D01*
X111603196Y-65094091D01*
X111655068Y-65131612D01*
X111681312Y-65190005D01*
X111674932Y-65253706D01*
X111637629Y-65305734D01*
X111175133Y-65685647D01*
X111113940Y-65712587D01*
X111047655Y-65703837D01*
X110995549Y-65661941D01*
X110972771Y-65599080D01*
X110985942Y-65533533D01*
X110989498Y-65526555D01*
X111009542Y-65400000D01*
X110989498Y-65273445D01*
X110989498Y-65273444D01*
X110931326Y-65159277D01*
X110840722Y-65068673D01*
X110726555Y-65010501D01*
X110600000Y-64990457D01*
X110473444Y-65010501D01*
X110359277Y-65068673D01*
X110268673Y-65159277D01*
X110210501Y-65273444D01*
X110190457Y-65400000D01*
X110210501Y-65526555D01*
X110268673Y-65640722D01*
X110359277Y-65731326D01*
X110473444Y-65789498D01*
X110599999Y-65809542D01*
X110599999Y-65809541D01*
X110600000Y-65809542D01*
X110659147Y-65800174D01*
X110723712Y-65807165D01*
X110775888Y-65845832D01*
X110801364Y-65905568D01*
X110793153Y-65969988D01*
X110753507Y-66021424D01*
X110166660Y-66466779D01*
X110162801Y-66469592D01*
X109387497Y-67012226D01*
X109383534Y-67014888D01*
X108587877Y-67527295D01*
X108583813Y-67529802D01*
X107769075Y-68011162D01*
X107764918Y-68013512D01*
X106932188Y-68463180D01*
X106927943Y-68465367D01*
X106081673Y-68881091D01*
X106071203Y-68885649D01*
X105989686Y-68916751D01*
X105972386Y-68921943D01*
X105890593Y-68940122D01*
X105872727Y-68942746D01*
X105793926Y-68948504D01*
X105784816Y-68949170D01*
X105775782Y-68949500D01*
X95067799Y-68949500D01*
X95067755Y-68949493D01*
X95006160Y-68949499D01*
X94994004Y-68948903D01*
X94875758Y-68937267D01*
X94851916Y-68932526D01*
X94744071Y-68899819D01*
X94721611Y-68890517D01*
X94622217Y-68837395D01*
X94602001Y-68823887D01*
X94514890Y-68752397D01*
X94497701Y-68735208D01*
X94426207Y-68648090D01*
X94412704Y-68627881D01*
X94359578Y-68528480D01*
X94350283Y-68506037D01*
X94317570Y-68398174D01*
X94312832Y-68374342D01*
X94301191Y-68256043D01*
X94300596Y-68243906D01*
X94300601Y-68202435D01*
X94300600Y-68202432D01*
X94300602Y-68183144D01*
X94300500Y-68182494D01*
X94300500Y-66400000D01*
X96290457Y-66400000D01*
X96310501Y-66526555D01*
X96368673Y-66640722D01*
X96459277Y-66731326D01*
X96573444Y-66789498D01*
X96700000Y-66809542D01*
X96826555Y-66789498D01*
X96940723Y-66731326D01*
X97031326Y-66640723D01*
X97089498Y-66526555D01*
X97101623Y-66449999D01*
X98240457Y-66449999D01*
X98260501Y-66576555D01*
X98318673Y-66690722D01*
X98409277Y-66781326D01*
X98523444Y-66839498D01*
X98650000Y-66859542D01*
X98776555Y-66839498D01*
X98890723Y-66781326D01*
X98981326Y-66690723D01*
X99039498Y-66576555D01*
X99059542Y-66450000D01*
X99040184Y-66327779D01*
X99039498Y-66323444D01*
X98981326Y-66209277D01*
X98890722Y-66118673D01*
X98776555Y-66060501D01*
X98650000Y-66040457D01*
X98523444Y-66060501D01*
X98409277Y-66118673D01*
X98318673Y-66209277D01*
X98260501Y-66323444D01*
X98240457Y-66449999D01*
X97101623Y-66449999D01*
X97109542Y-66400000D01*
X97089498Y-66273445D01*
X97089498Y-66273444D01*
X97031326Y-66159277D01*
X96940722Y-66068673D01*
X96826555Y-66010501D01*
X96700000Y-65990457D01*
X96573444Y-66010501D01*
X96459277Y-66068673D01*
X96368673Y-66159277D01*
X96310501Y-66273444D01*
X96290457Y-66400000D01*
X94300500Y-66400000D01*
X94300500Y-65900000D01*
X100490457Y-65900000D01*
X100510501Y-66026555D01*
X100568673Y-66140722D01*
X100659277Y-66231326D01*
X100773444Y-66289498D01*
X100900000Y-66309542D01*
X101026555Y-66289498D01*
X101140723Y-66231326D01*
X101231326Y-66140723D01*
X101289498Y-66026555D01*
X101309542Y-65900000D01*
X101294839Y-65807165D01*
X101293704Y-65800000D01*
X103790457Y-65800000D01*
X103810501Y-65926555D01*
X103868673Y-66040722D01*
X103959277Y-66131326D01*
X104073444Y-66189498D01*
X104200000Y-66209542D01*
X104326555Y-66189498D01*
X104440723Y-66131326D01*
X104531326Y-66040723D01*
X104589498Y-65926555D01*
X104609542Y-65800000D01*
X105390457Y-65800000D01*
X105410501Y-65926555D01*
X105468673Y-66040722D01*
X105559277Y-66131326D01*
X105673444Y-66189498D01*
X105800000Y-66209542D01*
X105926555Y-66189498D01*
X106040723Y-66131326D01*
X106131326Y-66040723D01*
X106189498Y-65926555D01*
X106209542Y-65800000D01*
X106189498Y-65673445D01*
X106189498Y-65673444D01*
X106131326Y-65559277D01*
X106040722Y-65468673D01*
X105926555Y-65410501D01*
X105800000Y-65390457D01*
X105673444Y-65410501D01*
X105559277Y-65468673D01*
X105468673Y-65559277D01*
X105410501Y-65673444D01*
X105390457Y-65800000D01*
X104609542Y-65800000D01*
X104589498Y-65673445D01*
X104589498Y-65673444D01*
X104531326Y-65559277D01*
X104440722Y-65468673D01*
X104326555Y-65410501D01*
X104200000Y-65390457D01*
X104073444Y-65410501D01*
X103959277Y-65468673D01*
X103868673Y-65559277D01*
X103810501Y-65673444D01*
X103790457Y-65800000D01*
X101293704Y-65800000D01*
X101289498Y-65773444D01*
X101231326Y-65659277D01*
X101140722Y-65568673D01*
X101026555Y-65510501D01*
X100900000Y-65490457D01*
X100773444Y-65510501D01*
X100659277Y-65568673D01*
X100568673Y-65659277D01*
X100510501Y-65773444D01*
X100490457Y-65900000D01*
X94300500Y-65900000D01*
X94300500Y-64699999D01*
X100490457Y-64699999D01*
X100510501Y-64826555D01*
X100568673Y-64940722D01*
X100659277Y-65031326D01*
X100773444Y-65089498D01*
X100900000Y-65109542D01*
X101026555Y-65089498D01*
X101140723Y-65031326D01*
X101231326Y-64940723D01*
X101252076Y-64900000D01*
X101790457Y-64900000D01*
X101810501Y-65026555D01*
X101868673Y-65140722D01*
X101959277Y-65231326D01*
X102073444Y-65289498D01*
X102200000Y-65309542D01*
X102326555Y-65289498D01*
X102440723Y-65231326D01*
X102531326Y-65140723D01*
X102589498Y-65026555D01*
X102609542Y-64900000D01*
X103190457Y-64900000D01*
X103210501Y-65026555D01*
X103268673Y-65140722D01*
X103359277Y-65231326D01*
X103473444Y-65289498D01*
X103600000Y-65309542D01*
X103726555Y-65289498D01*
X103840723Y-65231326D01*
X103872049Y-65200000D01*
X107090457Y-65200000D01*
X107110501Y-65326555D01*
X107168673Y-65440722D01*
X107259277Y-65531326D01*
X107373444Y-65589498D01*
X107500000Y-65609542D01*
X107626555Y-65589498D01*
X107740723Y-65531326D01*
X107831326Y-65440723D01*
X107889498Y-65326555D01*
X107909542Y-65200000D01*
X107889498Y-65073445D01*
X107832209Y-64961010D01*
X107818864Y-64911207D01*
X107826930Y-64860280D01*
X107855013Y-64817036D01*
X107883256Y-64788793D01*
X107931326Y-64740723D01*
X107989498Y-64626555D01*
X108009542Y-64500000D01*
X107989498Y-64373445D01*
X107989498Y-64373444D01*
X107931326Y-64259277D01*
X107840722Y-64168673D01*
X107726555Y-64110501D01*
X107600000Y-64090457D01*
X107473444Y-64110501D01*
X107359277Y-64168673D01*
X107268673Y-64259277D01*
X107210501Y-64373444D01*
X107190457Y-64499999D01*
X107210501Y-64626553D01*
X107267790Y-64738988D01*
X107281135Y-64788793D01*
X107273069Y-64839720D01*
X107244987Y-64882964D01*
X107168672Y-64959279D01*
X107110501Y-65073444D01*
X107090457Y-65200000D01*
X103872049Y-65200000D01*
X103931326Y-65140723D01*
X103989498Y-65026555D01*
X104009542Y-64900000D01*
X103989498Y-64773445D01*
X103989498Y-64773444D01*
X103931326Y-64659277D01*
X103872705Y-64600656D01*
X103841310Y-64547570D01*
X103839372Y-64485925D01*
X103867372Y-64430972D01*
X103918383Y-64396306D01*
X103979784Y-64390502D01*
X104100000Y-64409542D01*
X104226555Y-64389498D01*
X104340723Y-64331326D01*
X104362319Y-64309730D01*
X104417906Y-64277636D01*
X104482094Y-64277636D01*
X104537681Y-64309730D01*
X104559277Y-64331326D01*
X104673444Y-64389498D01*
X104800000Y-64409542D01*
X104926555Y-64389498D01*
X105040723Y-64331326D01*
X105131326Y-64240723D01*
X105189498Y-64126555D01*
X105209542Y-64000000D01*
X105189498Y-63873445D01*
X105189498Y-63873444D01*
X105131326Y-63759277D01*
X105040722Y-63668673D01*
X104926555Y-63610501D01*
X104800000Y-63590457D01*
X104673444Y-63610501D01*
X104559277Y-63668673D01*
X104537681Y-63690270D01*
X104482094Y-63722364D01*
X104417906Y-63722364D01*
X104362319Y-63690270D01*
X104340722Y-63668673D01*
X104226555Y-63610501D01*
X104100000Y-63590457D01*
X103973444Y-63610501D01*
X103859277Y-63668673D01*
X103768673Y-63759277D01*
X103710501Y-63873444D01*
X103690457Y-63999999D01*
X103710501Y-64126555D01*
X103768673Y-64240722D01*
X103827294Y-64299343D01*
X103858689Y-64352429D01*
X103860627Y-64414074D01*
X103832627Y-64469026D01*
X103781617Y-64503693D01*
X103720216Y-64509497D01*
X103600000Y-64490457D01*
X103473444Y-64510501D01*
X103359277Y-64568673D01*
X103268673Y-64659277D01*
X103210501Y-64773444D01*
X103190457Y-64900000D01*
X102609542Y-64900000D01*
X102589498Y-64773445D01*
X102589498Y-64773444D01*
X102531326Y-64659277D01*
X102440722Y-64568673D01*
X102326555Y-64510501D01*
X102200000Y-64490457D01*
X102073444Y-64510501D01*
X101959277Y-64568673D01*
X101868673Y-64659277D01*
X101810501Y-64773444D01*
X101790457Y-64900000D01*
X101252076Y-64900000D01*
X101289498Y-64826555D01*
X101309542Y-64700000D01*
X101289498Y-64573445D01*
X101289498Y-64573444D01*
X101231326Y-64459277D01*
X101140722Y-64368673D01*
X101026555Y-64310501D01*
X100900000Y-64290457D01*
X100773444Y-64310501D01*
X100659277Y-64368673D01*
X100568673Y-64459277D01*
X100510501Y-64573444D01*
X100490457Y-64699999D01*
X94300500Y-64699999D01*
X94300500Y-62200000D01*
X105090457Y-62200000D01*
X105110501Y-62326555D01*
X105168673Y-62440722D01*
X105259277Y-62531326D01*
X105390944Y-62598415D01*
X105389846Y-62600568D01*
X105422984Y-62615844D01*
X105460384Y-62671816D01*
X105463027Y-62739082D01*
X105430135Y-62797816D01*
X105368672Y-62859279D01*
X105310501Y-62973444D01*
X105290457Y-63099999D01*
X105310501Y-63226555D01*
X105368673Y-63340722D01*
X105459277Y-63431326D01*
X105573444Y-63489498D01*
X105700000Y-63509542D01*
X105826555Y-63489498D01*
X105940723Y-63431326D01*
X106031326Y-63340723D01*
X106089498Y-63226555D01*
X106109542Y-63100000D01*
X106089498Y-62973445D01*
X106089498Y-62973444D01*
X106031326Y-62859277D01*
X105940722Y-62768673D01*
X105809056Y-62701585D01*
X105810153Y-62699431D01*
X105777007Y-62684148D01*
X105739613Y-62628176D01*
X105736973Y-62560913D01*
X105769862Y-62502186D01*
X105831326Y-62440723D01*
X105889498Y-62326555D01*
X105909542Y-62200000D01*
X105899156Y-62134422D01*
X105889498Y-62073444D01*
X105831326Y-61959277D01*
X105740722Y-61868673D01*
X105626555Y-61810501D01*
X105500000Y-61790457D01*
X105373444Y-61810501D01*
X105259277Y-61868673D01*
X105168673Y-61959277D01*
X105110501Y-62073444D01*
X105090457Y-62200000D01*
X94300500Y-62200000D01*
X94300500Y-61400000D01*
X98790457Y-61400000D01*
X98810501Y-61526555D01*
X98868673Y-61640722D01*
X98959277Y-61731326D01*
X99073444Y-61789498D01*
X99200000Y-61809542D01*
X99326555Y-61789498D01*
X99440723Y-61731326D01*
X99531326Y-61640723D01*
X99589498Y-61526555D01*
X99609542Y-61400000D01*
X99589498Y-61273445D01*
X99589498Y-61273444D01*
X99531326Y-61159277D01*
X99440722Y-61068673D01*
X99326555Y-61010501D01*
X99260253Y-61000000D01*
X99790457Y-61000000D01*
X99810501Y-61126555D01*
X99868673Y-61240722D01*
X99959277Y-61331326D01*
X100073444Y-61389498D01*
X100200000Y-61409542D01*
X100326555Y-61389498D01*
X100440723Y-61331326D01*
X100531326Y-61240723D01*
X100589498Y-61126555D01*
X100609542Y-61000000D01*
X103040457Y-61000000D01*
X103060501Y-61126555D01*
X103118673Y-61240722D01*
X103209277Y-61331326D01*
X103323444Y-61389498D01*
X103450000Y-61409542D01*
X103576555Y-61389498D01*
X103690723Y-61331326D01*
X103722049Y-61300000D01*
X104290457Y-61300000D01*
X104310501Y-61426555D01*
X104368673Y-61540722D01*
X104459277Y-61631326D01*
X104573444Y-61689498D01*
X104700000Y-61709542D01*
X104826555Y-61689498D01*
X104940723Y-61631326D01*
X105031326Y-61540723D01*
X105089498Y-61426555D01*
X105109542Y-61300000D01*
X105100154Y-61240723D01*
X105093704Y-61199999D01*
X105590457Y-61199999D01*
X105610501Y-61326555D01*
X105668673Y-61440722D01*
X105759277Y-61531326D01*
X105873444Y-61589498D01*
X106000000Y-61609542D01*
X106126555Y-61589498D01*
X106240723Y-61531326D01*
X106331326Y-61440723D01*
X106389498Y-61326555D01*
X106409542Y-61200000D01*
X106396319Y-61116514D01*
X106389498Y-61073444D01*
X106331326Y-60959277D01*
X106240722Y-60868673D01*
X106126555Y-60810501D01*
X106000000Y-60790457D01*
X105873444Y-60810501D01*
X105759277Y-60868673D01*
X105668673Y-60959277D01*
X105610501Y-61073444D01*
X105590457Y-61199999D01*
X105093704Y-61199999D01*
X105089498Y-61173444D01*
X105031326Y-61059277D01*
X104940722Y-60968673D01*
X104826555Y-60910501D01*
X104700000Y-60890457D01*
X104573444Y-60910501D01*
X104459277Y-60968673D01*
X104368673Y-61059277D01*
X104310501Y-61173444D01*
X104290457Y-61300000D01*
X103722049Y-61300000D01*
X103781326Y-61240723D01*
X103839498Y-61126555D01*
X103859542Y-61000000D01*
X103842193Y-60890458D01*
X103839498Y-60873444D01*
X103781326Y-60759277D01*
X103690722Y-60668673D01*
X103576555Y-60610501D01*
X103510247Y-60599999D01*
X112790457Y-60599999D01*
X112810501Y-60726555D01*
X112868673Y-60840722D01*
X112959277Y-60931326D01*
X113073444Y-60989498D01*
X113200000Y-61009542D01*
X113326555Y-60989498D01*
X113440723Y-60931326D01*
X113531326Y-60840723D01*
X113589498Y-60726555D01*
X113609542Y-60600000D01*
X113600667Y-60543967D01*
X113589498Y-60473444D01*
X113531326Y-60359277D01*
X113440722Y-60268673D01*
X113326555Y-60210501D01*
X113200000Y-60190457D01*
X113073444Y-60210501D01*
X112959277Y-60268673D01*
X112868673Y-60359277D01*
X112810501Y-60473444D01*
X112790457Y-60599999D01*
X103510247Y-60599999D01*
X103450000Y-60590457D01*
X103323444Y-60610501D01*
X103209277Y-60668673D01*
X103118673Y-60759277D01*
X103060501Y-60873444D01*
X103040457Y-61000000D01*
X100609542Y-61000000D01*
X100592193Y-60890458D01*
X100589498Y-60873444D01*
X100531326Y-60759277D01*
X100440722Y-60668673D01*
X100326555Y-60610501D01*
X100200000Y-60590457D01*
X100073444Y-60610501D01*
X99959277Y-60668673D01*
X99868673Y-60759277D01*
X99810501Y-60873444D01*
X99790457Y-61000000D01*
X99260253Y-61000000D01*
X99200000Y-60990457D01*
X99073444Y-61010501D01*
X98959277Y-61068673D01*
X98868673Y-61159277D01*
X98810501Y-61273444D01*
X98790457Y-61400000D01*
X94300500Y-61400000D01*
X94300500Y-60710000D01*
X96680457Y-60710000D01*
X96700501Y-60836555D01*
X96758673Y-60950722D01*
X96849277Y-61041326D01*
X96963444Y-61099498D01*
X97090000Y-61119542D01*
X97216555Y-61099498D01*
X97330723Y-61041326D01*
X97421326Y-60950723D01*
X97479498Y-60836555D01*
X97499542Y-60710000D01*
X97479498Y-60583445D01*
X97479498Y-60583444D01*
X97421326Y-60469277D01*
X97330722Y-60378673D01*
X97216555Y-60320501D01*
X97090000Y-60300457D01*
X96963444Y-60320501D01*
X96849277Y-60378673D01*
X96758673Y-60469277D01*
X96700501Y-60583444D01*
X96680457Y-60710000D01*
X94300500Y-60710000D01*
X94300500Y-59900000D01*
X101790457Y-59900000D01*
X101810501Y-60026555D01*
X101868673Y-60140722D01*
X101959277Y-60231326D01*
X102073444Y-60289498D01*
X102200000Y-60309542D01*
X102326555Y-60289498D01*
X102440723Y-60231326D01*
X102531326Y-60140723D01*
X102589498Y-60026555D01*
X102609542Y-59900000D01*
X102589498Y-59773445D01*
X102589498Y-59773444D01*
X102531326Y-59659277D01*
X102440722Y-59568673D01*
X102326555Y-59510501D01*
X102200000Y-59490457D01*
X102073444Y-59510501D01*
X101959277Y-59568673D01*
X101868673Y-59659277D01*
X101810501Y-59773444D01*
X101790457Y-59900000D01*
X94300500Y-59900000D01*
X94300500Y-59299999D01*
X112490457Y-59299999D01*
X112510501Y-59426555D01*
X112568673Y-59540722D01*
X112659277Y-59631326D01*
X112773444Y-59689498D01*
X112900000Y-59709542D01*
X113026555Y-59689498D01*
X113140723Y-59631326D01*
X113231326Y-59540723D01*
X113289498Y-59426555D01*
X113309542Y-59300000D01*
X113289498Y-59173445D01*
X113289498Y-59173444D01*
X113231326Y-59059277D01*
X113140722Y-58968673D01*
X113026555Y-58910501D01*
X112900000Y-58890457D01*
X112773444Y-58910501D01*
X112659277Y-58968673D01*
X112568673Y-59059277D01*
X112510501Y-59173444D01*
X112490457Y-59299999D01*
X94300500Y-59299999D01*
X94300500Y-58624000D01*
X94317113Y-58562000D01*
X94362500Y-58516613D01*
X94424500Y-58500000D01*
X106250000Y-58500000D01*
X106250000Y-56899999D01*
X113290457Y-56899999D01*
X113310501Y-57026555D01*
X113368673Y-57140722D01*
X113459277Y-57231326D01*
X113573444Y-57289498D01*
X113700000Y-57309542D01*
X113826555Y-57289498D01*
X113940723Y-57231326D01*
X114031326Y-57140723D01*
X114089498Y-57026555D01*
X114109542Y-56900000D01*
X114089498Y-56773445D01*
X114089498Y-56773444D01*
X114031326Y-56659277D01*
X113940722Y-56568673D01*
X113826555Y-56510501D01*
X113700000Y-56490457D01*
X113573444Y-56510501D01*
X113459277Y-56568673D01*
X113368673Y-56659277D01*
X113310501Y-56773444D01*
X113290457Y-56899999D01*
X106250000Y-56899999D01*
X106250000Y-55174500D01*
X106266613Y-55112500D01*
X106312000Y-55067113D01*
X106374000Y-55050500D01*
X115452503Y-55050500D01*
X115494006Y-55050500D01*
X115506158Y-55051096D01*
G37*
%TD.AperFunction*%
%TD*%
M02*
