%TF.GenerationSoftware,KiCad,Pcbnew,7.0.1*%
%TF.CreationDate,2024-01-02T21:49:50+00:00*%
%TF.ProjectId,rfid_module,72666964-5f6d-46f6-9475-6c652e6b6963,rev?*%
%TF.SameCoordinates,Original*%
%TF.FileFunction,Copper,L8,Bot*%
%TF.FilePolarity,Positive*%
%FSLAX46Y46*%
G04 Gerber Fmt 4.6, Leading zero omitted, Abs format (unit mm)*
G04 Created by KiCad (PCBNEW 7.0.1) date 2024-01-02 21:49:50*
%MOMM*%
%LPD*%
G01*
G04 APERTURE LIST*
G04 Aperture macros list*
%AMRoundRect*
0 Rectangle with rounded corners*
0 $1 Rounding radius*
0 $2 $3 $4 $5 $6 $7 $8 $9 X,Y pos of 4 corners*
0 Add a 4 corners polygon primitive as box body*
4,1,4,$2,$3,$4,$5,$6,$7,$8,$9,$2,$3,0*
0 Add four circle primitives for the rounded corners*
1,1,$1+$1,$2,$3*
1,1,$1+$1,$4,$5*
1,1,$1+$1,$6,$7*
1,1,$1+$1,$8,$9*
0 Add four rect primitives between the rounded corners*
20,1,$1+$1,$2,$3,$4,$5,0*
20,1,$1+$1,$4,$5,$6,$7,0*
20,1,$1+$1,$6,$7,$8,$9,0*
20,1,$1+$1,$8,$9,$2,$3,0*%
G04 Aperture macros list end*
%TA.AperFunction,SMDPad,CuDef*%
%ADD10RoundRect,0.135000X-0.135000X-0.185000X0.135000X-0.185000X0.135000X0.185000X-0.135000X0.185000X0*%
%TD*%
%TA.AperFunction,SMDPad,CuDef*%
%ADD11RoundRect,0.135000X-0.185000X0.135000X-0.185000X-0.135000X0.185000X-0.135000X0.185000X0.135000X0*%
%TD*%
%TA.AperFunction,SMDPad,CuDef*%
%ADD12RoundRect,0.140000X0.140000X0.170000X-0.140000X0.170000X-0.140000X-0.170000X0.140000X-0.170000X0*%
%TD*%
%TA.AperFunction,SMDPad,CuDef*%
%ADD13RoundRect,0.140000X0.170000X-0.140000X0.170000X0.140000X-0.170000X0.140000X-0.170000X-0.140000X0*%
%TD*%
%TA.AperFunction,SMDPad,CuDef*%
%ADD14RoundRect,0.135000X0.185000X-0.135000X0.185000X0.135000X-0.185000X0.135000X-0.185000X-0.135000X0*%
%TD*%
%TA.AperFunction,SMDPad,CuDef*%
%ADD15RoundRect,0.140000X-0.170000X0.140000X-0.170000X-0.140000X0.170000X-0.140000X0.170000X0.140000X0*%
%TD*%
%TA.AperFunction,SMDPad,CuDef*%
%ADD16RoundRect,0.135000X0.135000X0.185000X-0.135000X0.185000X-0.135000X-0.185000X0.135000X-0.185000X0*%
%TD*%
%TA.AperFunction,SMDPad,CuDef*%
%ADD17R,0.250000X0.400000*%
%TD*%
%TA.AperFunction,SMDPad,CuDef*%
%ADD18R,0.700000X0.400000*%
%TD*%
%TA.AperFunction,SMDPad,CuDef*%
%ADD19RoundRect,0.140000X-0.140000X-0.170000X0.140000X-0.170000X0.140000X0.170000X-0.140000X0.170000X0*%
%TD*%
%TA.AperFunction,SMDPad,CuDef*%
%ADD20C,2.000000*%
%TD*%
%TA.AperFunction,ViaPad*%
%ADD21C,0.400000*%
%TD*%
%TA.AperFunction,Conductor*%
%ADD22C,0.300000*%
%TD*%
%TA.AperFunction,Conductor*%
%ADD23C,0.150000*%
%TD*%
G04 APERTURE END LIST*
D10*
%TO.P,R214,1*%
%TO.N,/RFID/AMP2_IN*%
X99190000Y-64700000D03*
%TO.P,R214,2*%
%TO.N,/RFID/AMP2_NEG*%
X100210000Y-64700000D03*
%TD*%
%TO.P,R209,1*%
%TO.N,/RFID/AMP1_NEG*%
X99190000Y-62500000D03*
%TO.P,R209,2*%
%TO.N,/RFID/AMP1_OUT*%
X100210000Y-62500000D03*
%TD*%
D11*
%TO.P,R218,1*%
%TO.N,/RFID/AMP2_OUT*%
X103100000Y-66890000D03*
%TO.P,R218,2*%
%TO.N,/RFID/AMP3_IN*%
X103100000Y-67910000D03*
%TD*%
D12*
%TO.P,C203,1*%
%TO.N,+3V3*%
X104780000Y-62500000D03*
%TO.P,C203,2*%
%TO.N,GND*%
X103820000Y-62500000D03*
%TD*%
D13*
%TO.P,C213,1*%
%TO.N,/RFID/RF_IN*%
X105600000Y-67480000D03*
%TO.P,C213,2*%
%TO.N,GND*%
X105600000Y-66520000D03*
%TD*%
D14*
%TO.P,R215,1*%
%TO.N,/RFID/PULL*%
X99400000Y-67910000D03*
%TO.P,R215,2*%
%TO.N,/RFID/PULL_G*%
X99400000Y-66890000D03*
%TD*%
D15*
%TO.P,C210,1*%
%TO.N,/RFID/AMP3_IN*%
X101300000Y-66920000D03*
%TO.P,C210,2*%
%TO.N,GND*%
X101300000Y-67880000D03*
%TD*%
D10*
%TO.P,R223,1*%
%TO.N,/RFID/RF_IN*%
X104790000Y-65000000D03*
%TO.P,R223,2*%
%TO.N,GND*%
X105810000Y-65000000D03*
%TD*%
D16*
%TO.P,R216,2*%
%TO.N,/RFID/SIGNAL_ENVELOPE*%
X97090000Y-65800000D03*
%TO.P,R216,1*%
%TO.N,/RFID/PULL_D*%
X98110000Y-65800000D03*
%TD*%
D17*
%TO.P,Q204,1,G*%
%TO.N,/RFID/PULL_G*%
X98325000Y-67750000D03*
%TO.P,Q204,2,S*%
%TO.N,GND*%
X97875000Y-67750000D03*
D18*
%TO.P,Q204,3,D*%
%TO.N,/RFID/PULL_D*%
X98100000Y-67050000D03*
%TD*%
D16*
%TO.P,R213,1*%
%TO.N,/RFID/AMP2_OUT*%
X100210000Y-65800000D03*
%TO.P,R213,2*%
%TO.N,/RFID/AMP2_IN*%
X99190000Y-65800000D03*
%TD*%
%TO.P,R210,1*%
%TO.N,/RFID/AMP1_OUT*%
X100210000Y-63600000D03*
%TO.P,R210,2*%
%TO.N,/RFID/AMP2_IN*%
X99190000Y-63600000D03*
%TD*%
D19*
%TO.P,C211,1*%
%TO.N,+3V3*%
X107500000Y-66300000D03*
%TO.P,C211,2*%
%TO.N,GND*%
X108460000Y-66300000D03*
%TD*%
D10*
%TO.P,R504,2*%
%TO.N,GND*%
X114510000Y-56100000D03*
%TO.P,R504,1*%
%TO.N,/Boost Converter/EN*%
X113490000Y-56100000D03*
%TD*%
%TO.P,R208,1*%
%TO.N,+1V65*%
X97090000Y-61400000D03*
%TO.P,R208,2*%
%TO.N,/RFID/AMP1_NEG*%
X98110000Y-61400000D03*
%TD*%
D11*
%TO.P,R220,1*%
%TO.N,/RFID/AMP3_OUT*%
X104300000Y-66890000D03*
%TO.P,R220,2*%
%TO.N,/RFID/AMP3_IN*%
X104300000Y-67910000D03*
%TD*%
D12*
%TO.P,C206,1*%
%TO.N,/RFID/AMP2_IN*%
X98080000Y-63600000D03*
%TO.P,C206,2*%
%TO.N,GND*%
X97120000Y-63600000D03*
%TD*%
D19*
%TO.P,C212,1*%
%TO.N,/RFID/AMP3_OUT*%
X102420000Y-65800000D03*
%TO.P,C212,2*%
%TO.N,/RFID/AMP3_NEG*%
X103380000Y-65800000D03*
%TD*%
D12*
%TO.P,C303,1*%
%TO.N,+3V3*%
X114980000Y-60900000D03*
%TO.P,C303,2*%
%TO.N,GND*%
X114020000Y-60900000D03*
%TD*%
D20*
%TO.P,J401,A1,A1*%
%TO.N,/Pogo Connector/SWDIO*%
X107375000Y-57935000D03*
%TO.P,J401,A2,A2*%
%TO.N,/Pogo Connector/SWCLK*%
X107375000Y-60435000D03*
%TO.P,J401,A3,A3*%
%TO.N,+3V3*%
X107375000Y-62935000D03*
%TO.P,J401,B1,B1*%
%TO.N,/Pogo Connector/LPUART1_TX*%
X109575000Y-56685000D03*
%TO.P,J401,B2,B2*%
%TO.N,GND*%
X109575000Y-59185000D03*
%TO.P,J401,B3,B3*%
%TO.N,/Pogo Connector/IRQN*%
X109575000Y-61685000D03*
%TO.P,J401,B4,B4*%
%TO.N,IOREF*%
X109575000Y-64185000D03*
%TO.P,J401,C1,C1*%
%TO.N,/Pogo Connector/LPUART1_RX_1V8*%
X111775000Y-57935000D03*
%TO.P,J401,C2,C2*%
%TO.N,/Pogo Connector/NRST*%
X111775000Y-60435000D03*
%TO.P,J401,C3,C3*%
%TO.N,unconnected-(J401-PadC3)*%
X111775000Y-62935000D03*
%TD*%
D12*
%TO.P,C304,1*%
%TO.N,+3V3*%
X114980000Y-59900000D03*
%TO.P,C304,2*%
%TO.N,GND*%
X114020000Y-59900000D03*
%TD*%
D11*
%TO.P,R402,1*%
%TO.N,IOREF*%
X114500000Y-57890000D03*
%TO.P,R402,2*%
%TO.N,/Pogo Connector/LPUART1_RX_1V8*%
X114500000Y-58910000D03*
%TD*%
D21*
%TO.N,GND*%
X113649000Y-61771000D03*
%TO.N,+3V3*%
X114291000Y-61703000D03*
%TO.N,IOREF*%
X115700000Y-60200000D03*
%TO.N,GND*%
X108850000Y-60450000D03*
X107600000Y-56150000D03*
%TO.N,+1V65*%
X97090000Y-60710000D03*
%TO.N,GND*%
X108200000Y-66900000D03*
%TO.N,/RFID/PULL*%
X110600000Y-65400000D03*
%TO.N,GND*%
X102900000Y-59190000D03*
%TO.N,/RFID/SHDN*%
X104700000Y-61300000D03*
%TO.N,+1V65*%
X104100000Y-64000000D03*
%TO.N,GND*%
X105600000Y-63800000D03*
X107000000Y-64700000D03*
%TO.N,/Pogo Connector/IRQN*%
X107600000Y-64500000D03*
%TO.N,+3V3*%
X104800000Y-64000000D03*
%TO.N,/Pogo Connector/SWCLK*%
X105700000Y-63100000D03*
%TO.N,/Pogo Connector/SWDIO*%
X105500000Y-62200000D03*
%TO.N,GND*%
X105690000Y-58690000D03*
%TO.N,/RFID/SHDN*%
X102200000Y-59900000D03*
%TO.N,/RFID/RF_IN*%
X104200000Y-65800000D03*
%TO.N,GND*%
X105000000Y-65800000D03*
%TO.N,+3V3*%
X106000000Y-61200000D03*
%TO.N,/RFID/AMP3_IN*%
X105800000Y-65800000D03*
%TO.N,GND*%
X99450000Y-60650000D03*
%TO.N,+1V65*%
X98650000Y-66450000D03*
%TO.N,GND*%
X102000000Y-68300000D03*
X102900000Y-64900000D03*
%TO.N,/RFID/AMP3_NEG*%
X103600000Y-64900000D03*
%TO.N,GND*%
X101100000Y-65300000D03*
%TO.N,/RFID/AMP3_OUT*%
X102200000Y-64900000D03*
%TO.N,/RFID/AMP2_OUT*%
X100900000Y-65900000D03*
%TO.N,/RFID/AMP2_NEG*%
X100900000Y-64700000D03*
%TO.N,GND*%
X98600000Y-65200000D03*
%TO.N,/RFID/AMP1_OUT*%
X100200000Y-61000000D03*
%TO.N,/RFID/AMP1_NEG*%
X99200000Y-61400000D03*
%TO.N,GND*%
X102550000Y-62500000D03*
X101950000Y-62500000D03*
X102550000Y-63100000D03*
X101950000Y-63100000D03*
X101350000Y-63100000D03*
X101350000Y-62500000D03*
X102550000Y-61900000D03*
X101950000Y-61900000D03*
X101350000Y-61900000D03*
%TO.N,+1V65*%
X103450000Y-61000000D03*
%TO.N,GND*%
X109300000Y-66300000D03*
%TO.N,+3V3*%
X107500000Y-65200000D03*
%TO.N,GND*%
X97000000Y-67000000D03*
X96600000Y-68600000D03*
%TO.N,/RFID/SIGNAL_ENVELOPE*%
X96700000Y-66400000D03*
%TO.N,GND*%
X96060000Y-63900000D03*
%TO.N,IOREF*%
X111400000Y-64700000D03*
%TO.N,/Boost Converter/EN*%
X113700000Y-56900000D03*
%TO.N,GND*%
X114400000Y-57100000D03*
X112780000Y-55420000D03*
%TO.N,+3V3*%
X115800000Y-58400000D03*
X113680000Y-62380000D03*
%TO.N,/Pogo Connector/LPUART1_TX*%
X112900000Y-59300000D03*
%TO.N,/Pogo Connector/NRST*%
X113200000Y-60600000D03*
%TO.N,/Pogo Connector/LPUART1_RX_1V8*%
X115600000Y-59400000D03*
%TD*%
D22*
%TO.N,GND*%
X113649000Y-61271000D02*
X114020000Y-60900000D01*
X113649000Y-61771000D02*
X113649000Y-61271000D01*
%TO.N,+3V3*%
X114291000Y-61703000D02*
X114980000Y-61014000D01*
X114980000Y-61014000D02*
X114980000Y-60900000D01*
%TO.N,GND*%
X109575000Y-59725000D02*
X109575000Y-59185000D01*
X108850000Y-60450000D02*
X109575000Y-59725000D01*
X97120000Y-64320000D02*
X98000000Y-65200000D01*
X98000000Y-65200000D02*
X98600000Y-65200000D01*
X97120000Y-63600000D02*
X97120000Y-64320000D01*
X96360000Y-63600000D02*
X96060000Y-63900000D01*
X97120000Y-63600000D02*
X96360000Y-63600000D01*
D23*
%TO.N,/Pogo Connector/SWCLK*%
X106000000Y-62800000D02*
X105700000Y-63100000D01*
X105500000Y-61400000D02*
X106000000Y-61900000D01*
X106000000Y-61900000D02*
X106000000Y-62800000D01*
X105500000Y-60797893D02*
X105500000Y-61400000D01*
X105862893Y-60435000D02*
X105500000Y-60797893D01*
X107375000Y-60435000D02*
X105862893Y-60435000D01*
%TO.N,/Pogo Connector/SWDIO*%
X105200000Y-60110000D02*
X107375000Y-57935000D01*
X105200000Y-61900000D02*
X105200000Y-60110000D01*
X105500000Y-62200000D02*
X105200000Y-61900000D01*
D22*
%TO.N,+1V65*%
X97090000Y-60710000D02*
X97090000Y-61400000D01*
%TO.N,+3V3*%
X104800000Y-62520000D02*
X104800000Y-64000000D01*
X104780000Y-62500000D02*
X104800000Y-62520000D01*
%TO.N,GND*%
X103820000Y-62500000D02*
X102550000Y-62500000D01*
D23*
%TO.N,/RFID/PULL*%
X110600000Y-66041541D02*
X110600000Y-65400000D01*
X109160481Y-67070971D02*
X110001332Y-66491689D01*
X110001332Y-66491689D02*
X110600000Y-66041541D01*
X107410353Y-68122536D02*
X108296317Y-67614904D01*
X108296317Y-67614904D02*
X109160481Y-67070971D01*
X100290000Y-68800000D02*
X106067299Y-68800000D01*
X106067299Y-68800000D02*
X106503259Y-68593436D01*
X99400000Y-67910000D02*
X100290000Y-68800000D01*
X106503259Y-68593436D02*
X107410353Y-68122536D01*
D22*
%TO.N,+3V3*%
X114980000Y-59900000D02*
X114980000Y-60900000D01*
%TO.N,GND*%
X114020000Y-59900000D02*
X114020000Y-60900000D01*
D23*
%TO.N,/Pogo Connector/NRST*%
X111940000Y-60600000D02*
X111775000Y-60435000D01*
X113200000Y-60600000D02*
X111940000Y-60600000D01*
%TO.N,/Pogo Connector/LPUART1_TX*%
X109575000Y-57475000D02*
X109575000Y-56685000D01*
X112800000Y-59200000D02*
X111300000Y-59200000D01*
X111300000Y-59200000D02*
X109575000Y-57475000D01*
X112900000Y-59300000D02*
X112800000Y-59200000D01*
%TO.N,+3V3*%
X107375000Y-62575000D02*
X107375000Y-62935000D01*
D22*
X106000000Y-61200000D02*
X107375000Y-62575000D01*
D23*
%TO.N,/RFID/SHDN*%
X104700000Y-61300000D02*
X104700000Y-60400000D01*
X104700000Y-60400000D02*
X104200000Y-59900000D01*
X104200000Y-59900000D02*
X102200000Y-59900000D01*
%TO.N,/Pogo Connector/IRQN*%
X107600000Y-64498299D02*
X107600000Y-64500000D01*
X109575000Y-62523299D02*
X107600000Y-64498299D01*
X109575000Y-61685000D02*
X109575000Y-62523299D01*
%TO.N,GND*%
X105600000Y-66400000D02*
X105000000Y-65800000D01*
X105600000Y-66520000D02*
X105600000Y-66400000D01*
%TO.N,/RFID/RF_IN*%
X104900000Y-66500000D02*
X104200000Y-65800000D01*
X105600000Y-67480000D02*
X104900000Y-66780000D01*
X104900000Y-66780000D02*
X104900000Y-66500000D01*
%TO.N,/RFID/AMP3_IN*%
X105900000Y-68100000D02*
X106200000Y-67800000D01*
X106200000Y-67800000D02*
X106200000Y-66200000D01*
X104300000Y-67910000D02*
X104490000Y-68100000D01*
X104490000Y-68100000D02*
X105900000Y-68100000D01*
X106200000Y-66200000D02*
X105800000Y-65800000D01*
%TO.N,GND*%
X105010000Y-65800000D02*
X105810000Y-65000000D01*
X105000000Y-65800000D02*
X105010000Y-65800000D01*
%TO.N,/RFID/RF_IN*%
X104200000Y-65590000D02*
X104790000Y-65000000D01*
X104200000Y-65800000D02*
X104200000Y-65590000D01*
%TO.N,/RFID/PULL_D*%
X98000000Y-66950000D02*
X98100000Y-67050000D01*
X98000000Y-65910000D02*
X98000000Y-66950000D01*
X98110000Y-65800000D02*
X98000000Y-65910000D01*
%TO.N,GND*%
X97000000Y-67400000D02*
X97000000Y-67000000D01*
X97350000Y-67750000D02*
X97000000Y-67400000D01*
X97875000Y-67750000D02*
X97350000Y-67750000D01*
%TO.N,/RFID/AMP3_IN*%
X104300000Y-67910000D02*
X103100000Y-67910000D01*
%TO.N,GND*%
X101580000Y-67880000D02*
X102000000Y-68300000D01*
X101300000Y-67880000D02*
X101580000Y-67880000D01*
%TO.N,/RFID/AMP3_OUT*%
X103020000Y-66400000D02*
X102420000Y-65800000D01*
X103810000Y-66400000D02*
X103020000Y-66400000D01*
X104300000Y-66890000D02*
X103810000Y-66400000D01*
%TO.N,/RFID/AMP3_IN*%
X101720000Y-66920000D02*
X102710000Y-67910000D01*
X101300000Y-66920000D02*
X101720000Y-66920000D01*
X102710000Y-67910000D02*
X103100000Y-67910000D01*
%TO.N,/RFID/PULL_G*%
X98540000Y-67750000D02*
X99400000Y-66890000D01*
X98325000Y-67750000D02*
X98540000Y-67750000D01*
%TO.N,/RFID/SIGNAL_ENVELOPE*%
X97090000Y-66010000D02*
X96700000Y-66400000D01*
X97090000Y-65800000D02*
X97090000Y-66010000D01*
%TO.N,/RFID/AMP2_OUT*%
X101500000Y-65900000D02*
X100900000Y-65900000D01*
X102490000Y-66890000D02*
X101500000Y-65900000D01*
X103100000Y-66890000D02*
X102490000Y-66890000D01*
%TO.N,/RFID/AMP1_NEG*%
X98110000Y-61400000D02*
X99200000Y-61400000D01*
%TO.N,/RFID/AMP3_OUT*%
X102420000Y-65120000D02*
X102200000Y-64900000D01*
X102420000Y-65800000D02*
X102420000Y-65120000D01*
%TO.N,/RFID/AMP3_NEG*%
X103380000Y-65120000D02*
X103600000Y-64900000D01*
X103380000Y-65800000D02*
X103380000Y-65120000D01*
%TO.N,/RFID/AMP2_OUT*%
X100900000Y-65900000D02*
X100800000Y-65800000D01*
X100800000Y-65800000D02*
X100210000Y-65800000D01*
%TO.N,/RFID/AMP2_NEG*%
X100210000Y-64700000D02*
X100900000Y-64700000D01*
%TO.N,/RFID/AMP1_OUT*%
X100210000Y-63600000D02*
X100210000Y-62500000D01*
%TO.N,/RFID/AMP2_IN*%
X99190000Y-63600000D02*
X99190000Y-64700000D01*
X98080000Y-63600000D02*
X99190000Y-63600000D01*
X99190000Y-65800000D02*
X99190000Y-64700000D01*
%TO.N,/RFID/AMP1_NEG*%
X99190000Y-61410000D02*
X99190000Y-62500000D01*
%TO.N,/RFID/AMP1_OUT*%
X100210000Y-62500000D02*
X100210000Y-61010000D01*
D22*
%TO.N,GND*%
X108460000Y-66300000D02*
X109300000Y-66300000D01*
%TO.N,+3V3*%
X107500000Y-66300000D02*
X107500000Y-65200000D01*
D23*
%TO.N,IOREF*%
X110885000Y-64185000D02*
X111400000Y-64700000D01*
X109575000Y-64185000D02*
X110885000Y-64185000D01*
%TO.N,GND*%
X114400000Y-56210000D02*
X114510000Y-56100000D01*
X114400000Y-57100000D02*
X114400000Y-56210000D01*
%TO.N,/Boost Converter/EN*%
X113700000Y-56310000D02*
X113490000Y-56100000D01*
X113700000Y-56900000D02*
X113700000Y-56310000D01*
%TO.N,IOREF*%
X115700000Y-60200000D02*
X116100000Y-59800000D01*
X114590000Y-57890000D02*
X114500000Y-57890000D01*
X116100000Y-59200000D02*
X115800000Y-58900000D01*
X115600000Y-58900000D02*
X114590000Y-57890000D01*
X116100000Y-59800000D02*
X116100000Y-59200000D01*
X115800000Y-58900000D02*
X115600000Y-58900000D01*
%TO.N,/Pogo Connector/LPUART1_RX_1V8*%
X114500000Y-58910000D02*
X114110000Y-58910000D01*
X113135000Y-57935000D02*
X111775000Y-57935000D01*
X115110000Y-58910000D02*
X115600000Y-59400000D01*
X114500000Y-58910000D02*
X115110000Y-58910000D01*
X114110000Y-58910000D02*
X113135000Y-57935000D01*
%TD*%
M02*
