%TF.GenerationSoftware,KiCad,Pcbnew,7.0.9*%
%TF.CreationDate,2024-01-09T17:45:50+00:00*%
%TF.ProjectId,watch_lower,77617463-685f-46c6-9f77-65722e6b6963,rev?*%
%TF.SameCoordinates,Original*%
%TF.FileFunction,Soldermask,Top*%
%TF.FilePolarity,Negative*%
%FSLAX46Y46*%
G04 Gerber Fmt 4.6, Leading zero omitted, Abs format (unit mm)*
G04 Created by KiCad (PCBNEW 7.0.9) date 2024-01-09 17:45:50*
%MOMM*%
%LPD*%
G01*
G04 APERTURE LIST*
G04 APERTURE END LIST*
G36*
X103323268Y-75932612D02*
G01*
X103355711Y-75954289D01*
X103369305Y-75974635D01*
X103406447Y-76011777D01*
X103613553Y-76011777D01*
X103650695Y-75974634D01*
X103664289Y-75954289D01*
X103696732Y-75932612D01*
X103735000Y-75925000D01*
X104085000Y-75925000D01*
X104123268Y-75932612D01*
X104155711Y-75954289D01*
X104169305Y-75974635D01*
X104206447Y-76011777D01*
X104413553Y-76011777D01*
X104450695Y-75974634D01*
X104464289Y-75954289D01*
X104496732Y-75932612D01*
X104535000Y-75925000D01*
X104885000Y-75925000D01*
X104923268Y-75932612D01*
X104955711Y-75954289D01*
X104969305Y-75974635D01*
X105006447Y-76011777D01*
X105213553Y-76011777D01*
X105250695Y-75974634D01*
X105264289Y-75954289D01*
X105296732Y-75932612D01*
X105335000Y-75925000D01*
X105685000Y-75925000D01*
X105723268Y-75932612D01*
X105755711Y-75954289D01*
X105769305Y-75974635D01*
X105806447Y-76011777D01*
X106013553Y-76011777D01*
X106050695Y-75974634D01*
X106064289Y-75954289D01*
X106096732Y-75932612D01*
X106135000Y-75925000D01*
X106485000Y-75925000D01*
X106523268Y-75932612D01*
X106555711Y-75954289D01*
X106569305Y-75974635D01*
X106606447Y-76011777D01*
X106813553Y-76011777D01*
X106850695Y-75974634D01*
X106864289Y-75954289D01*
X106896732Y-75932612D01*
X106935000Y-75925000D01*
X107285000Y-75925000D01*
X107323268Y-75932612D01*
X107355711Y-75954289D01*
X107369305Y-75974635D01*
X107406447Y-76011777D01*
X107613553Y-76011777D01*
X107650695Y-75974634D01*
X107664289Y-75954289D01*
X107696732Y-75932612D01*
X107735000Y-75925000D01*
X108085000Y-75925000D01*
X108123268Y-75932612D01*
X108155711Y-75954289D01*
X108177388Y-75986732D01*
X108185000Y-76025000D01*
X108185000Y-76775000D01*
X108177388Y-76813268D01*
X108155711Y-76845711D01*
X108123268Y-76867388D01*
X108085000Y-76875000D01*
X107735000Y-76875000D01*
X107696732Y-76867388D01*
X107664289Y-76845711D01*
X107650694Y-76825364D01*
X107613553Y-76788223D01*
X107406447Y-76788223D01*
X107369307Y-76825362D01*
X107355711Y-76845711D01*
X107323268Y-76867388D01*
X107285000Y-76875000D01*
X106935000Y-76875000D01*
X106896732Y-76867388D01*
X106864289Y-76845711D01*
X106850694Y-76825364D01*
X106813553Y-76788223D01*
X106606447Y-76788223D01*
X106569307Y-76825362D01*
X106555711Y-76845711D01*
X106523268Y-76867388D01*
X106485000Y-76875000D01*
X106135000Y-76875000D01*
X106096732Y-76867388D01*
X106064289Y-76845711D01*
X106050694Y-76825364D01*
X106013553Y-76788223D01*
X105806447Y-76788223D01*
X105769307Y-76825362D01*
X105755711Y-76845711D01*
X105723268Y-76867388D01*
X105685000Y-76875000D01*
X105335000Y-76875000D01*
X105296732Y-76867388D01*
X105264289Y-76845711D01*
X105250694Y-76825364D01*
X105213553Y-76788223D01*
X105006447Y-76788223D01*
X104969307Y-76825362D01*
X104955711Y-76845711D01*
X104923268Y-76867388D01*
X104885000Y-76875000D01*
X104535000Y-76875000D01*
X104496732Y-76867388D01*
X104464289Y-76845711D01*
X104450694Y-76825364D01*
X104413553Y-76788223D01*
X104206447Y-76788223D01*
X104169307Y-76825362D01*
X104155711Y-76845711D01*
X104123268Y-76867388D01*
X104085000Y-76875000D01*
X103735000Y-76875000D01*
X103696732Y-76867388D01*
X103664289Y-76845711D01*
X103650694Y-76825364D01*
X103613553Y-76788223D01*
X103406447Y-76788223D01*
X103369307Y-76825362D01*
X103355711Y-76845711D01*
X103323268Y-76867388D01*
X103285000Y-76875000D01*
X102935000Y-76875000D01*
X102896732Y-76867388D01*
X102864289Y-76845711D01*
X102842612Y-76813268D01*
X102835000Y-76775000D01*
X102835000Y-76025000D01*
X102842612Y-75986732D01*
X102864289Y-75954289D01*
X102896732Y-75932612D01*
X102935000Y-75925000D01*
X103285000Y-75925000D01*
X103323268Y-75932612D01*
G37*
G36*
X109735764Y-74343135D02*
G01*
X109766213Y-74346409D01*
X109782202Y-74352373D01*
X109811844Y-74358269D01*
X109829323Y-74369948D01*
X109833787Y-74371613D01*
X109850170Y-74383877D01*
X109889706Y-74410294D01*
X109916124Y-74449832D01*
X109928386Y-74466212D01*
X109930050Y-74470674D01*
X109941731Y-74488156D01*
X109947627Y-74517800D01*
X109953590Y-74533786D01*
X109956862Y-74564227D01*
X109960000Y-74580000D01*
X109960000Y-74860000D01*
X109956862Y-74875774D01*
X109953590Y-74906213D01*
X109947628Y-74922196D01*
X109941731Y-74951844D01*
X109930049Y-74969327D01*
X109928385Y-74973789D01*
X109916125Y-74990165D01*
X109889706Y-75029706D01*
X109883344Y-75033956D01*
X109821335Y-75116792D01*
X109821335Y-75283208D01*
X109883345Y-75366043D01*
X109889706Y-75370294D01*
X109916119Y-75409825D01*
X109928385Y-75426210D01*
X109930049Y-75430673D01*
X109941731Y-75448156D01*
X109947627Y-75477800D01*
X109953590Y-75493786D01*
X109956862Y-75524227D01*
X109960000Y-75540000D01*
X109960000Y-75820000D01*
X109956862Y-75835774D01*
X109953590Y-75866213D01*
X109947628Y-75882197D01*
X109941731Y-75911844D01*
X109930049Y-75929326D01*
X109928386Y-75933787D01*
X109916130Y-75950157D01*
X109889706Y-75989706D01*
X109850157Y-76016130D01*
X109833787Y-76028386D01*
X109829326Y-76030049D01*
X109811844Y-76041731D01*
X109782197Y-76047628D01*
X109766213Y-76053590D01*
X109735773Y-76056862D01*
X109720000Y-76060000D01*
X109380000Y-76060000D01*
X109364225Y-76056862D01*
X109333786Y-76053590D01*
X109317800Y-76047627D01*
X109288156Y-76041731D01*
X109270674Y-76030050D01*
X109266212Y-76028386D01*
X109249832Y-76016124D01*
X109210294Y-75989706D01*
X109183877Y-75950170D01*
X109171613Y-75933787D01*
X109169948Y-75929323D01*
X109158269Y-75911844D01*
X109152373Y-75882202D01*
X109146409Y-75866213D01*
X109143135Y-75835762D01*
X109140000Y-75820000D01*
X109140000Y-75540000D01*
X109143135Y-75524237D01*
X109146409Y-75493786D01*
X109152373Y-75477795D01*
X109158269Y-75448156D01*
X109169947Y-75430677D01*
X109171614Y-75426210D01*
X109183889Y-75409812D01*
X109210294Y-75370294D01*
X109216652Y-75366045D01*
X109278664Y-75283207D01*
X109278664Y-75116793D01*
X109216653Y-75033954D01*
X109210294Y-75029706D01*
X109183883Y-74990179D01*
X109171614Y-74973789D01*
X109169948Y-74969324D01*
X109158269Y-74951844D01*
X109152372Y-74922202D01*
X109146409Y-74906213D01*
X109143135Y-74875762D01*
X109140000Y-74860000D01*
X109140000Y-74580000D01*
X109143135Y-74564237D01*
X109146409Y-74533786D01*
X109152373Y-74517794D01*
X109158269Y-74488156D01*
X109169947Y-74470678D01*
X109171613Y-74466212D01*
X109183883Y-74449820D01*
X109210294Y-74410294D01*
X109249820Y-74383883D01*
X109266212Y-74371613D01*
X109270678Y-74369947D01*
X109288156Y-74358269D01*
X109317794Y-74352373D01*
X109333786Y-74346409D01*
X109364238Y-74343135D01*
X109380000Y-74340000D01*
X109720000Y-74340000D01*
X109735764Y-74343135D01*
G37*
G36*
X111085764Y-74343135D02*
G01*
X111116213Y-74346409D01*
X111132202Y-74352373D01*
X111161844Y-74358269D01*
X111179323Y-74369948D01*
X111183787Y-74371613D01*
X111200170Y-74383877D01*
X111239706Y-74410294D01*
X111266124Y-74449832D01*
X111278386Y-74466212D01*
X111280050Y-74470674D01*
X111291731Y-74488156D01*
X111297627Y-74517800D01*
X111303590Y-74533786D01*
X111306862Y-74564227D01*
X111310000Y-74580000D01*
X111310000Y-74860000D01*
X111306862Y-74875774D01*
X111303590Y-74906213D01*
X111297628Y-74922196D01*
X111291731Y-74951844D01*
X111280049Y-74969327D01*
X111278385Y-74973789D01*
X111266125Y-74990165D01*
X111239706Y-75029706D01*
X111233344Y-75033956D01*
X111171335Y-75116792D01*
X111171335Y-75283208D01*
X111233345Y-75366043D01*
X111239706Y-75370294D01*
X111266119Y-75409825D01*
X111278385Y-75426210D01*
X111280049Y-75430673D01*
X111291731Y-75448156D01*
X111297627Y-75477800D01*
X111303590Y-75493786D01*
X111306862Y-75524227D01*
X111310000Y-75540000D01*
X111310000Y-75820000D01*
X111306862Y-75835774D01*
X111303590Y-75866213D01*
X111297628Y-75882197D01*
X111291731Y-75911844D01*
X111280049Y-75929326D01*
X111278386Y-75933787D01*
X111266130Y-75950157D01*
X111239706Y-75989706D01*
X111200157Y-76016130D01*
X111183787Y-76028386D01*
X111179326Y-76030049D01*
X111161844Y-76041731D01*
X111132197Y-76047628D01*
X111116213Y-76053590D01*
X111085773Y-76056862D01*
X111070000Y-76060000D01*
X110730000Y-76060000D01*
X110714225Y-76056862D01*
X110683786Y-76053590D01*
X110667800Y-76047627D01*
X110638156Y-76041731D01*
X110620674Y-76030050D01*
X110616212Y-76028386D01*
X110599832Y-76016124D01*
X110560294Y-75989706D01*
X110533877Y-75950170D01*
X110521613Y-75933787D01*
X110519948Y-75929323D01*
X110508269Y-75911844D01*
X110502373Y-75882202D01*
X110496409Y-75866213D01*
X110493135Y-75835762D01*
X110490000Y-75820000D01*
X110490000Y-75540000D01*
X110493135Y-75524237D01*
X110496409Y-75493786D01*
X110502373Y-75477795D01*
X110508269Y-75448156D01*
X110519947Y-75430677D01*
X110521614Y-75426210D01*
X110533889Y-75409812D01*
X110560294Y-75370294D01*
X110566652Y-75366045D01*
X110628664Y-75283207D01*
X110628664Y-75116793D01*
X110566653Y-75033954D01*
X110560294Y-75029706D01*
X110533883Y-74990179D01*
X110521614Y-74973789D01*
X110519948Y-74969324D01*
X110508269Y-74951844D01*
X110502372Y-74922202D01*
X110496409Y-74906213D01*
X110493135Y-74875762D01*
X110490000Y-74860000D01*
X110490000Y-74580000D01*
X110493135Y-74564237D01*
X110496409Y-74533786D01*
X110502373Y-74517794D01*
X110508269Y-74488156D01*
X110519947Y-74470678D01*
X110521613Y-74466212D01*
X110533883Y-74449820D01*
X110560294Y-74410294D01*
X110599820Y-74383883D01*
X110616212Y-74371613D01*
X110620678Y-74369947D01*
X110638156Y-74358269D01*
X110667794Y-74352373D01*
X110683786Y-74346409D01*
X110714238Y-74343135D01*
X110730000Y-74340000D01*
X111070000Y-74340000D01*
X111085764Y-74343135D01*
G37*
G36*
X103323268Y-73532612D02*
G01*
X103355711Y-73554289D01*
X103369305Y-73574635D01*
X103406447Y-73611777D01*
X103613553Y-73611777D01*
X103650695Y-73574634D01*
X103664289Y-73554289D01*
X103696732Y-73532612D01*
X103735000Y-73525000D01*
X104085000Y-73525000D01*
X104123268Y-73532612D01*
X104155711Y-73554289D01*
X104169305Y-73574635D01*
X104206447Y-73611777D01*
X104413553Y-73611777D01*
X104450695Y-73574634D01*
X104464289Y-73554289D01*
X104496732Y-73532612D01*
X104535000Y-73525000D01*
X104885000Y-73525000D01*
X104923268Y-73532612D01*
X104955711Y-73554289D01*
X104969305Y-73574635D01*
X105006447Y-73611777D01*
X105213553Y-73611777D01*
X105250695Y-73574634D01*
X105264289Y-73554289D01*
X105296732Y-73532612D01*
X105335000Y-73525000D01*
X105685000Y-73525000D01*
X105723268Y-73532612D01*
X105755711Y-73554289D01*
X105769305Y-73574635D01*
X105806447Y-73611777D01*
X106013553Y-73611777D01*
X106050695Y-73574634D01*
X106064289Y-73554289D01*
X106096732Y-73532612D01*
X106135000Y-73525000D01*
X106485000Y-73525000D01*
X106523268Y-73532612D01*
X106555711Y-73554289D01*
X106569305Y-73574635D01*
X106606447Y-73611777D01*
X106813553Y-73611777D01*
X106850695Y-73574634D01*
X106864289Y-73554289D01*
X106896732Y-73532612D01*
X106935000Y-73525000D01*
X107285000Y-73525000D01*
X107323268Y-73532612D01*
X107355711Y-73554289D01*
X107369305Y-73574635D01*
X107406447Y-73611777D01*
X107613553Y-73611777D01*
X107650695Y-73574634D01*
X107664289Y-73554289D01*
X107696732Y-73532612D01*
X107735000Y-73525000D01*
X108085000Y-73525000D01*
X108123268Y-73532612D01*
X108155711Y-73554289D01*
X108177388Y-73586732D01*
X108185000Y-73625000D01*
X108185000Y-74375000D01*
X108177388Y-74413268D01*
X108155711Y-74445711D01*
X108123268Y-74467388D01*
X108085000Y-74475000D01*
X107735000Y-74475000D01*
X107696732Y-74467388D01*
X107664289Y-74445711D01*
X107650694Y-74425364D01*
X107613553Y-74388223D01*
X107406447Y-74388223D01*
X107369307Y-74425362D01*
X107355711Y-74445711D01*
X107323268Y-74467388D01*
X107285000Y-74475000D01*
X106935000Y-74475000D01*
X106896732Y-74467388D01*
X106864289Y-74445711D01*
X106850694Y-74425364D01*
X106813553Y-74388223D01*
X106606447Y-74388223D01*
X106569307Y-74425362D01*
X106555711Y-74445711D01*
X106523268Y-74467388D01*
X106485000Y-74475000D01*
X106135000Y-74475000D01*
X106096732Y-74467388D01*
X106064289Y-74445711D01*
X106050694Y-74425364D01*
X106013553Y-74388223D01*
X105806447Y-74388223D01*
X105769307Y-74425362D01*
X105755711Y-74445711D01*
X105723268Y-74467388D01*
X105685000Y-74475000D01*
X105335000Y-74475000D01*
X105296732Y-74467388D01*
X105264289Y-74445711D01*
X105250694Y-74425364D01*
X105213553Y-74388223D01*
X105006447Y-74388223D01*
X104969307Y-74425362D01*
X104955711Y-74445711D01*
X104923268Y-74467388D01*
X104885000Y-74475000D01*
X104535000Y-74475000D01*
X104496732Y-74467388D01*
X104464289Y-74445711D01*
X104450694Y-74425364D01*
X104413553Y-74388223D01*
X104206447Y-74388223D01*
X104169307Y-74425362D01*
X104155711Y-74445711D01*
X104123268Y-74467388D01*
X104085000Y-74475000D01*
X103735000Y-74475000D01*
X103696732Y-74467388D01*
X103664289Y-74445711D01*
X103650694Y-74425364D01*
X103613553Y-74388223D01*
X103406447Y-74388223D01*
X103369307Y-74425362D01*
X103355711Y-74445711D01*
X103323268Y-74467388D01*
X103285000Y-74475000D01*
X102935000Y-74475000D01*
X102896732Y-74467388D01*
X102864289Y-74445711D01*
X102842612Y-74413268D01*
X102835000Y-74375000D01*
X102835000Y-73625000D01*
X102842612Y-73586732D01*
X102864289Y-73554289D01*
X102896732Y-73532612D01*
X102935000Y-73525000D01*
X103285000Y-73525000D01*
X103323268Y-73532612D01*
G37*
G36*
X99740766Y-72583136D02*
G01*
X99770151Y-72586295D01*
X99785580Y-72592049D01*
X99814931Y-72597888D01*
X99832238Y-72609452D01*
X99836390Y-72611001D01*
X99851636Y-72622413D01*
X99891170Y-72648830D01*
X99917580Y-72688355D01*
X99974860Y-72764872D01*
X100225140Y-72764872D01*
X100282425Y-72688347D01*
X100308830Y-72648830D01*
X100348354Y-72622420D01*
X100363609Y-72611001D01*
X100367763Y-72609451D01*
X100385069Y-72597888D01*
X100414415Y-72592050D01*
X100429847Y-72586295D01*
X100459236Y-72583135D01*
X100475000Y-72580000D01*
X100745000Y-72580000D01*
X100760766Y-72583136D01*
X100790151Y-72586295D01*
X100805580Y-72592049D01*
X100834931Y-72597888D01*
X100852238Y-72609452D01*
X100856390Y-72611001D01*
X100871637Y-72622414D01*
X100911170Y-72648830D01*
X100937587Y-72688366D01*
X100948998Y-72703609D01*
X100950546Y-72707759D01*
X100962112Y-72725069D01*
X100967950Y-72754421D01*
X100973704Y-72769847D01*
X100976862Y-72799225D01*
X100980000Y-72815000D01*
X100980000Y-73185000D01*
X100976861Y-73200777D01*
X100973704Y-73230151D01*
X100967951Y-73245574D01*
X100962112Y-73274931D01*
X100950545Y-73292241D01*
X100948998Y-73296390D01*
X100937593Y-73311624D01*
X100911170Y-73351170D01*
X100871624Y-73377593D01*
X100856390Y-73388998D01*
X100852241Y-73390545D01*
X100834931Y-73402112D01*
X100805576Y-73407950D01*
X100790152Y-73413704D01*
X100760775Y-73416862D01*
X100745000Y-73420000D01*
X100475000Y-73420000D01*
X100459224Y-73416862D01*
X100429848Y-73413704D01*
X100414423Y-73407950D01*
X100385069Y-73402112D01*
X100367759Y-73390546D01*
X100363609Y-73388998D01*
X100348365Y-73377586D01*
X100308830Y-73351170D01*
X100282410Y-73311631D01*
X100225142Y-73235127D01*
X99974858Y-73235127D01*
X99917594Y-73311622D01*
X99891170Y-73351170D01*
X99851625Y-73377593D01*
X99836390Y-73388998D01*
X99832241Y-73390545D01*
X99814931Y-73402112D01*
X99785576Y-73407950D01*
X99770152Y-73413704D01*
X99740775Y-73416862D01*
X99725000Y-73420000D01*
X99455000Y-73420000D01*
X99439224Y-73416862D01*
X99409848Y-73413704D01*
X99394423Y-73407950D01*
X99365069Y-73402112D01*
X99347759Y-73390546D01*
X99343609Y-73388998D01*
X99328366Y-73377587D01*
X99288830Y-73351170D01*
X99262414Y-73311637D01*
X99251001Y-73296390D01*
X99249452Y-73292238D01*
X99237888Y-73274931D01*
X99232050Y-73245582D01*
X99226295Y-73230152D01*
X99223135Y-73200764D01*
X99220000Y-73185000D01*
X99220000Y-72815000D01*
X99223135Y-72799235D01*
X99226295Y-72769848D01*
X99232050Y-72754417D01*
X99237888Y-72725069D01*
X99249451Y-72707763D01*
X99251001Y-72703609D01*
X99262420Y-72688353D01*
X99288830Y-72648830D01*
X99328353Y-72622420D01*
X99343609Y-72611001D01*
X99347763Y-72609451D01*
X99365069Y-72597888D01*
X99394415Y-72592050D01*
X99409847Y-72586295D01*
X99439236Y-72583135D01*
X99455000Y-72580000D01*
X99725000Y-72580000D01*
X99740766Y-72583136D01*
G37*
G36*
X104775763Y-72143135D02*
G01*
X104806213Y-72146409D01*
X104822202Y-72152372D01*
X104851844Y-72158269D01*
X104869324Y-72169948D01*
X104873789Y-72171614D01*
X104890179Y-72183883D01*
X104929706Y-72210294D01*
X104933954Y-72216653D01*
X105016793Y-72278664D01*
X105183207Y-72278664D01*
X105266045Y-72216652D01*
X105270294Y-72210294D01*
X105309812Y-72183889D01*
X105326210Y-72171614D01*
X105330677Y-72169947D01*
X105348156Y-72158269D01*
X105377795Y-72152373D01*
X105393786Y-72146409D01*
X105424238Y-72143135D01*
X105440000Y-72140000D01*
X105720000Y-72140000D01*
X105735763Y-72143135D01*
X105766213Y-72146409D01*
X105782202Y-72152373D01*
X105811844Y-72158269D01*
X105829323Y-72169948D01*
X105833787Y-72171613D01*
X105850170Y-72183877D01*
X105889706Y-72210294D01*
X105916124Y-72249832D01*
X105928386Y-72266212D01*
X105930050Y-72270674D01*
X105941731Y-72288156D01*
X105947627Y-72317800D01*
X105953590Y-72333786D01*
X105956862Y-72364227D01*
X105960000Y-72380000D01*
X105960000Y-72720000D01*
X105956862Y-72735775D01*
X105953590Y-72766213D01*
X105947628Y-72782197D01*
X105941731Y-72811844D01*
X105930049Y-72829326D01*
X105928386Y-72833787D01*
X105916130Y-72850157D01*
X105889706Y-72889706D01*
X105850157Y-72916130D01*
X105833787Y-72928386D01*
X105829326Y-72930049D01*
X105811844Y-72941731D01*
X105782197Y-72947628D01*
X105766213Y-72953590D01*
X105735773Y-72956862D01*
X105720000Y-72960000D01*
X105440000Y-72960000D01*
X105424226Y-72956862D01*
X105393786Y-72953590D01*
X105377800Y-72947627D01*
X105348156Y-72941731D01*
X105330673Y-72930049D01*
X105326210Y-72928385D01*
X105309825Y-72916119D01*
X105270294Y-72889706D01*
X105266043Y-72883345D01*
X105183208Y-72821335D01*
X105016792Y-72821335D01*
X104933956Y-72883344D01*
X104929706Y-72889706D01*
X104890165Y-72916125D01*
X104873789Y-72928385D01*
X104869327Y-72930049D01*
X104851844Y-72941731D01*
X104822196Y-72947628D01*
X104806213Y-72953590D01*
X104775773Y-72956862D01*
X104760000Y-72960000D01*
X104480000Y-72960000D01*
X104464226Y-72956862D01*
X104433786Y-72953590D01*
X104417800Y-72947627D01*
X104388156Y-72941731D01*
X104370674Y-72930050D01*
X104366212Y-72928386D01*
X104349832Y-72916124D01*
X104310294Y-72889706D01*
X104283877Y-72850170D01*
X104271613Y-72833787D01*
X104269948Y-72829323D01*
X104258269Y-72811844D01*
X104252373Y-72782202D01*
X104246409Y-72766213D01*
X104243135Y-72735762D01*
X104240000Y-72720000D01*
X104240000Y-72380000D01*
X104243135Y-72364236D01*
X104246409Y-72333786D01*
X104252373Y-72317794D01*
X104258269Y-72288156D01*
X104269947Y-72270678D01*
X104271613Y-72266212D01*
X104283883Y-72249820D01*
X104310294Y-72210294D01*
X104349820Y-72183883D01*
X104366212Y-72171613D01*
X104370678Y-72169947D01*
X104388156Y-72158269D01*
X104417794Y-72152373D01*
X104433786Y-72146409D01*
X104464238Y-72143135D01*
X104480000Y-72140000D01*
X104760000Y-72140000D01*
X104775763Y-72143135D01*
G37*
G36*
X99775763Y-70993135D02*
G01*
X99806213Y-70996409D01*
X99822202Y-71002372D01*
X99851844Y-71008269D01*
X99869324Y-71019948D01*
X99873789Y-71021614D01*
X99890179Y-71033883D01*
X99929706Y-71060294D01*
X99933954Y-71066653D01*
X100016793Y-71128664D01*
X100183207Y-71128664D01*
X100266045Y-71066652D01*
X100270294Y-71060294D01*
X100309812Y-71033889D01*
X100326210Y-71021614D01*
X100330677Y-71019947D01*
X100348156Y-71008269D01*
X100377795Y-71002373D01*
X100393786Y-70996409D01*
X100424238Y-70993135D01*
X100440000Y-70990000D01*
X100720000Y-70990000D01*
X100735763Y-70993135D01*
X100766213Y-70996409D01*
X100782202Y-71002373D01*
X100811844Y-71008269D01*
X100829323Y-71019948D01*
X100833787Y-71021613D01*
X100850170Y-71033877D01*
X100889706Y-71060294D01*
X100916124Y-71099832D01*
X100928386Y-71116212D01*
X100930050Y-71120674D01*
X100941731Y-71138156D01*
X100947627Y-71167800D01*
X100953590Y-71183786D01*
X100956862Y-71214227D01*
X100960000Y-71230000D01*
X100960000Y-71570000D01*
X100956862Y-71585775D01*
X100953590Y-71616213D01*
X100947628Y-71632197D01*
X100941731Y-71661844D01*
X100930049Y-71679326D01*
X100928386Y-71683787D01*
X100916130Y-71700157D01*
X100889706Y-71739706D01*
X100850157Y-71766130D01*
X100833787Y-71778386D01*
X100829326Y-71780049D01*
X100811844Y-71791731D01*
X100782197Y-71797628D01*
X100766213Y-71803590D01*
X100735773Y-71806862D01*
X100720000Y-71810000D01*
X100440000Y-71810000D01*
X100424226Y-71806862D01*
X100393786Y-71803590D01*
X100377800Y-71797627D01*
X100348156Y-71791731D01*
X100330673Y-71780049D01*
X100326210Y-71778385D01*
X100309825Y-71766119D01*
X100270294Y-71739706D01*
X100266043Y-71733345D01*
X100183208Y-71671335D01*
X100016792Y-71671335D01*
X99933956Y-71733344D01*
X99929706Y-71739706D01*
X99890165Y-71766125D01*
X99873789Y-71778385D01*
X99869327Y-71780049D01*
X99851844Y-71791731D01*
X99822196Y-71797628D01*
X99806213Y-71803590D01*
X99775773Y-71806862D01*
X99760000Y-71810000D01*
X99480000Y-71810000D01*
X99464226Y-71806862D01*
X99433786Y-71803590D01*
X99417800Y-71797627D01*
X99388156Y-71791731D01*
X99370674Y-71780050D01*
X99366212Y-71778386D01*
X99349832Y-71766124D01*
X99310294Y-71739706D01*
X99283877Y-71700170D01*
X99271613Y-71683787D01*
X99269948Y-71679323D01*
X99258269Y-71661844D01*
X99252373Y-71632202D01*
X99246409Y-71616213D01*
X99243135Y-71585762D01*
X99240000Y-71570000D01*
X99240000Y-71230000D01*
X99243135Y-71214236D01*
X99246409Y-71183786D01*
X99252373Y-71167794D01*
X99258269Y-71138156D01*
X99269947Y-71120678D01*
X99271613Y-71116212D01*
X99283883Y-71099820D01*
X99310294Y-71060294D01*
X99349820Y-71033883D01*
X99366212Y-71021613D01*
X99370678Y-71019947D01*
X99388156Y-71008269D01*
X99417794Y-71002373D01*
X99433786Y-70996409D01*
X99464238Y-70993135D01*
X99480000Y-70990000D01*
X99760000Y-70990000D01*
X99775763Y-70993135D01*
G37*
G36*
X123166981Y-70071263D02*
G01*
X123232322Y-70083478D01*
X123241899Y-70087188D01*
X123262664Y-70091602D01*
X123325450Y-70119555D01*
X123378398Y-70140068D01*
X123395998Y-70150965D01*
X123425000Y-70163878D01*
X123471988Y-70198017D01*
X123511592Y-70222539D01*
X123534568Y-70243484D01*
X123568761Y-70268327D01*
X123600558Y-70303641D01*
X123627365Y-70328079D01*
X123652339Y-70361150D01*
X123687664Y-70400383D01*
X123706167Y-70432430D01*
X123721774Y-70453098D01*
X123744817Y-70499374D01*
X123776514Y-70554274D01*
X123784699Y-70579467D01*
X123791602Y-70593329D01*
X123808492Y-70652694D01*
X123831425Y-70723275D01*
X123833095Y-70739169D01*
X123834474Y-70744014D01*
X123840949Y-70813894D01*
X123850000Y-70900000D01*
X123840949Y-70986109D01*
X123834474Y-71055985D01*
X123833095Y-71060829D01*
X123831425Y-71076725D01*
X123808490Y-71147312D01*
X123791602Y-71206670D01*
X123784700Y-71220529D01*
X123776514Y-71245726D01*
X123744813Y-71300632D01*
X123721774Y-71346901D01*
X123706169Y-71367564D01*
X123687664Y-71399617D01*
X123652334Y-71438854D01*
X123627365Y-71471920D01*
X123600563Y-71496352D01*
X123568761Y-71531673D01*
X123534562Y-71556519D01*
X123511592Y-71577460D01*
X123471997Y-71601975D01*
X123425000Y-71636122D01*
X123395992Y-71649036D01*
X123378398Y-71659931D01*
X123325467Y-71680436D01*
X123262664Y-71708398D01*
X123241893Y-71712812D01*
X123232322Y-71716521D01*
X123167003Y-71728731D01*
X123088849Y-71745344D01*
X122911151Y-71745344D01*
X122833000Y-71728732D01*
X122767677Y-71716521D01*
X122758104Y-71712812D01*
X122737336Y-71708398D01*
X122674539Y-71680439D01*
X122621601Y-71659931D01*
X122604004Y-71649035D01*
X122575000Y-71636122D01*
X122528007Y-71601980D01*
X122488407Y-71577460D01*
X122465432Y-71556516D01*
X122431239Y-71531673D01*
X122399441Y-71496357D01*
X122372634Y-71471920D01*
X122347658Y-71438847D01*
X122312336Y-71399617D01*
X122293833Y-71367570D01*
X122278225Y-71346901D01*
X122255179Y-71300619D01*
X122223486Y-71245726D01*
X122215301Y-71220534D01*
X122208397Y-71206670D01*
X122191501Y-71147287D01*
X122168575Y-71076725D01*
X122166904Y-71060834D01*
X122165525Y-71055985D01*
X122159042Y-70986029D01*
X122150000Y-70900000D01*
X122159041Y-70813974D01*
X122165525Y-70744014D01*
X122166904Y-70739163D01*
X122168575Y-70723275D01*
X122191499Y-70652719D01*
X122208397Y-70593329D01*
X122215301Y-70579462D01*
X122223486Y-70554274D01*
X122255175Y-70499386D01*
X122278225Y-70453098D01*
X122293836Y-70432425D01*
X122312336Y-70400383D01*
X122347654Y-70361157D01*
X122372634Y-70328079D01*
X122399446Y-70303636D01*
X122431239Y-70268327D01*
X122465426Y-70243487D01*
X122488407Y-70222539D01*
X122528017Y-70198013D01*
X122575000Y-70163878D01*
X122603998Y-70150967D01*
X122621601Y-70140068D01*
X122674556Y-70119552D01*
X122737336Y-70091602D01*
X122758098Y-70087188D01*
X122767677Y-70083478D01*
X122833023Y-70071262D01*
X122911151Y-70054656D01*
X123088849Y-70054656D01*
X123166981Y-70071263D01*
G37*
G36*
X104775763Y-70793135D02*
G01*
X104806213Y-70796409D01*
X104822202Y-70802372D01*
X104851844Y-70808269D01*
X104869324Y-70819948D01*
X104873789Y-70821614D01*
X104890179Y-70833883D01*
X104929706Y-70860294D01*
X104933954Y-70866653D01*
X105016793Y-70928664D01*
X105183207Y-70928664D01*
X105266045Y-70866652D01*
X105270294Y-70860294D01*
X105309812Y-70833889D01*
X105326210Y-70821614D01*
X105330677Y-70819947D01*
X105348156Y-70808269D01*
X105377795Y-70802373D01*
X105393786Y-70796409D01*
X105424238Y-70793135D01*
X105440000Y-70790000D01*
X105720000Y-70790000D01*
X105735763Y-70793135D01*
X105766213Y-70796409D01*
X105782202Y-70802373D01*
X105811844Y-70808269D01*
X105829323Y-70819948D01*
X105833787Y-70821613D01*
X105850170Y-70833877D01*
X105889706Y-70860294D01*
X105916124Y-70899832D01*
X105928386Y-70916212D01*
X105930050Y-70920674D01*
X105941731Y-70938156D01*
X105947627Y-70967800D01*
X105953590Y-70983786D01*
X105956862Y-71014227D01*
X105960000Y-71030000D01*
X105960000Y-71370000D01*
X105956862Y-71385775D01*
X105953590Y-71416213D01*
X105947628Y-71432197D01*
X105941731Y-71461844D01*
X105930049Y-71479326D01*
X105928386Y-71483787D01*
X105916130Y-71500157D01*
X105889706Y-71539706D01*
X105850157Y-71566130D01*
X105833787Y-71578386D01*
X105829326Y-71580049D01*
X105811844Y-71591731D01*
X105782197Y-71597628D01*
X105766213Y-71603590D01*
X105735773Y-71606862D01*
X105720000Y-71610000D01*
X105440000Y-71610000D01*
X105424226Y-71606862D01*
X105393786Y-71603590D01*
X105377800Y-71597627D01*
X105348156Y-71591731D01*
X105330673Y-71580049D01*
X105326210Y-71578385D01*
X105309825Y-71566119D01*
X105270294Y-71539706D01*
X105266043Y-71533345D01*
X105183208Y-71471335D01*
X105016792Y-71471335D01*
X104933956Y-71533344D01*
X104929706Y-71539706D01*
X104890165Y-71566125D01*
X104873789Y-71578385D01*
X104869327Y-71580049D01*
X104851844Y-71591731D01*
X104822196Y-71597628D01*
X104806213Y-71603590D01*
X104775773Y-71606862D01*
X104760000Y-71610000D01*
X104480000Y-71610000D01*
X104464226Y-71606862D01*
X104433786Y-71603590D01*
X104417800Y-71597627D01*
X104388156Y-71591731D01*
X104370674Y-71580050D01*
X104366212Y-71578386D01*
X104349832Y-71566124D01*
X104310294Y-71539706D01*
X104283877Y-71500170D01*
X104271613Y-71483787D01*
X104269948Y-71479323D01*
X104258269Y-71461844D01*
X104252373Y-71432202D01*
X104246409Y-71416213D01*
X104243135Y-71385762D01*
X104240000Y-71370000D01*
X104240000Y-71030000D01*
X104243135Y-71014236D01*
X104246409Y-70983786D01*
X104252373Y-70967794D01*
X104258269Y-70938156D01*
X104269947Y-70920678D01*
X104271613Y-70916212D01*
X104283883Y-70899820D01*
X104310294Y-70860294D01*
X104349820Y-70833883D01*
X104366212Y-70821613D01*
X104370678Y-70819947D01*
X104388156Y-70808269D01*
X104417794Y-70802373D01*
X104433786Y-70796409D01*
X104464238Y-70793135D01*
X104480000Y-70790000D01*
X104760000Y-70790000D01*
X104775763Y-70793135D01*
G37*
G36*
X88166981Y-69171263D02*
G01*
X88232322Y-69183478D01*
X88241899Y-69187188D01*
X88262664Y-69191602D01*
X88325450Y-69219555D01*
X88378398Y-69240068D01*
X88395998Y-69250965D01*
X88425000Y-69263878D01*
X88471988Y-69298017D01*
X88511592Y-69322539D01*
X88534568Y-69343484D01*
X88568761Y-69368327D01*
X88600558Y-69403641D01*
X88627365Y-69428079D01*
X88652339Y-69461150D01*
X88687664Y-69500383D01*
X88706167Y-69532430D01*
X88721774Y-69553098D01*
X88744817Y-69599374D01*
X88776514Y-69654274D01*
X88784699Y-69679467D01*
X88791602Y-69693329D01*
X88808492Y-69752694D01*
X88831425Y-69823275D01*
X88833095Y-69839169D01*
X88834474Y-69844014D01*
X88840949Y-69913894D01*
X88850000Y-70000000D01*
X88840949Y-70086109D01*
X88834474Y-70155985D01*
X88833095Y-70160829D01*
X88831425Y-70176725D01*
X88808490Y-70247312D01*
X88791602Y-70306670D01*
X88784700Y-70320529D01*
X88776514Y-70345726D01*
X88744813Y-70400632D01*
X88721774Y-70446901D01*
X88706169Y-70467564D01*
X88687664Y-70499617D01*
X88652334Y-70538854D01*
X88627365Y-70571920D01*
X88600563Y-70596352D01*
X88568761Y-70631673D01*
X88534562Y-70656519D01*
X88511592Y-70677460D01*
X88471997Y-70701975D01*
X88425000Y-70736122D01*
X88395992Y-70749036D01*
X88378398Y-70759931D01*
X88325467Y-70780436D01*
X88262664Y-70808398D01*
X88241893Y-70812812D01*
X88232322Y-70816521D01*
X88167003Y-70828731D01*
X88088849Y-70845344D01*
X87911151Y-70845344D01*
X87833000Y-70828732D01*
X87767677Y-70816521D01*
X87758104Y-70812812D01*
X87737336Y-70808398D01*
X87674539Y-70780439D01*
X87621601Y-70759931D01*
X87604004Y-70749035D01*
X87575000Y-70736122D01*
X87528007Y-70701980D01*
X87488407Y-70677460D01*
X87465432Y-70656516D01*
X87431239Y-70631673D01*
X87399441Y-70596357D01*
X87372634Y-70571920D01*
X87347658Y-70538847D01*
X87312336Y-70499617D01*
X87293833Y-70467570D01*
X87278225Y-70446901D01*
X87255179Y-70400619D01*
X87223486Y-70345726D01*
X87215301Y-70320534D01*
X87208397Y-70306670D01*
X87191501Y-70247287D01*
X87168575Y-70176725D01*
X87166904Y-70160834D01*
X87165525Y-70155985D01*
X87159042Y-70086029D01*
X87150000Y-70000000D01*
X87159041Y-69913974D01*
X87165525Y-69844014D01*
X87166904Y-69839163D01*
X87168575Y-69823275D01*
X87191499Y-69752719D01*
X87208397Y-69693329D01*
X87215301Y-69679462D01*
X87223486Y-69654274D01*
X87255175Y-69599386D01*
X87278225Y-69553098D01*
X87293836Y-69532425D01*
X87312336Y-69500383D01*
X87347654Y-69461157D01*
X87372634Y-69428079D01*
X87399446Y-69403636D01*
X87431239Y-69368327D01*
X87465426Y-69343487D01*
X87488407Y-69322539D01*
X87528017Y-69298013D01*
X87575000Y-69263878D01*
X87603998Y-69250967D01*
X87621601Y-69240068D01*
X87674556Y-69219552D01*
X87737336Y-69191602D01*
X87758098Y-69187188D01*
X87767677Y-69183478D01*
X87833023Y-69171262D01*
X87911151Y-69154656D01*
X88088849Y-69154656D01*
X88166981Y-69171263D01*
G37*
G36*
X100624307Y-68279835D02*
G01*
X100631655Y-68279835D01*
X100647086Y-68284365D01*
X100686104Y-68292127D01*
X100744797Y-68331345D01*
X100745658Y-68331898D01*
X100745703Y-68331950D01*
X100759099Y-68340901D01*
X100778099Y-68369336D01*
X100787120Y-68379747D01*
X100791578Y-68389509D01*
X100807873Y-68413896D01*
X100811852Y-68433904D01*
X100813419Y-68437334D01*
X100815724Y-68453366D01*
X100825000Y-68500000D01*
X100815723Y-68546638D01*
X100813419Y-68562663D01*
X100811854Y-68566089D01*
X100807873Y-68586104D01*
X100791574Y-68610496D01*
X100764076Y-68670710D01*
X100766526Y-68785074D01*
X100792488Y-68836028D01*
X100813582Y-68867597D01*
X100825000Y-68925000D01*
X100825000Y-69025000D01*
X100813582Y-69082403D01*
X100792487Y-69113972D01*
X100753760Y-69189980D01*
X100753760Y-69310020D01*
X100792487Y-69386027D01*
X100813582Y-69417597D01*
X100825000Y-69475000D01*
X100825000Y-69575000D01*
X100813582Y-69632403D01*
X100781066Y-69681066D01*
X100732403Y-69713582D01*
X100675000Y-69725000D01*
X100525000Y-69725000D01*
X100467597Y-69713582D01*
X100436029Y-69692489D01*
X100377173Y-69662500D01*
X100244038Y-69669161D01*
X100186104Y-69707873D01*
X100147084Y-69715634D01*
X100131655Y-69720165D01*
X100124307Y-69720165D01*
X100100000Y-69725000D01*
X100075693Y-69720165D01*
X100068345Y-69720165D01*
X100052914Y-69715634D01*
X100013896Y-69707873D01*
X99955148Y-69668618D01*
X99923408Y-69648220D01*
X99776592Y-69648220D01*
X99744861Y-69668612D01*
X99686104Y-69707873D01*
X99647084Y-69715634D01*
X99631655Y-69720165D01*
X99624307Y-69720165D01*
X99600000Y-69725000D01*
X99575693Y-69720165D01*
X99568345Y-69720165D01*
X99552915Y-69715634D01*
X99513896Y-69707873D01*
X99455188Y-69668645D01*
X99454341Y-69668101D01*
X99454296Y-69668049D01*
X99440901Y-69659099D01*
X99421901Y-69630664D01*
X99412879Y-69620252D01*
X99408419Y-69610487D01*
X99392127Y-69586104D01*
X99388147Y-69566097D01*
X99386580Y-69562665D01*
X99384272Y-69546616D01*
X99375000Y-69500000D01*
X99384271Y-69453386D01*
X99386580Y-69437333D01*
X99388148Y-69433899D01*
X99392127Y-69413896D01*
X99408417Y-69389516D01*
X99447296Y-69304383D01*
X99447296Y-69195617D01*
X99408417Y-69110484D01*
X99392127Y-69086104D01*
X99388147Y-69066099D01*
X99386580Y-69062666D01*
X99384272Y-69046614D01*
X99375000Y-69000000D01*
X99384271Y-68953386D01*
X99386580Y-68937333D01*
X99388148Y-68933899D01*
X99392127Y-68913896D01*
X99408417Y-68889516D01*
X99447296Y-68804383D01*
X99447296Y-68695617D01*
X99408417Y-68610484D01*
X99392127Y-68586104D01*
X99388147Y-68566099D01*
X99386580Y-68562666D01*
X99384272Y-68546614D01*
X99375000Y-68500000D01*
X99384272Y-68453385D01*
X99386580Y-68437334D01*
X99388147Y-68433900D01*
X99392127Y-68413896D01*
X99408418Y-68389514D01*
X99412879Y-68379747D01*
X99421904Y-68369331D01*
X99440901Y-68340901D01*
X99454294Y-68331951D01*
X99454341Y-68331898D01*
X99455227Y-68331328D01*
X99513896Y-68292127D01*
X99552912Y-68284366D01*
X99568345Y-68279835D01*
X99575693Y-68279835D01*
X99600000Y-68275000D01*
X99624307Y-68279835D01*
X99631655Y-68279835D01*
X99647086Y-68284365D01*
X99686104Y-68292127D01*
X99744786Y-68331337D01*
X99776594Y-68351779D01*
X99923406Y-68351779D01*
X99955222Y-68331331D01*
X100013896Y-68292127D01*
X100052912Y-68284366D01*
X100068345Y-68279835D01*
X100075693Y-68279835D01*
X100100000Y-68275000D01*
X100124307Y-68279835D01*
X100131655Y-68279835D01*
X100147086Y-68284365D01*
X100186104Y-68292127D01*
X100244786Y-68331337D01*
X100276594Y-68351779D01*
X100423406Y-68351779D01*
X100455222Y-68331331D01*
X100513896Y-68292127D01*
X100552912Y-68284366D01*
X100568345Y-68279835D01*
X100575693Y-68279835D01*
X100600000Y-68275000D01*
X100624307Y-68279835D01*
G37*
G36*
X123166981Y-66971263D02*
G01*
X123232322Y-66983478D01*
X123241899Y-66987188D01*
X123262664Y-66991602D01*
X123325450Y-67019555D01*
X123378398Y-67040068D01*
X123395998Y-67050965D01*
X123425000Y-67063878D01*
X123471988Y-67098017D01*
X123511592Y-67122539D01*
X123534568Y-67143484D01*
X123568761Y-67168327D01*
X123600558Y-67203641D01*
X123627365Y-67228079D01*
X123652339Y-67261150D01*
X123687664Y-67300383D01*
X123706167Y-67332430D01*
X123721774Y-67353098D01*
X123744817Y-67399374D01*
X123776514Y-67454274D01*
X123784699Y-67479467D01*
X123791602Y-67493329D01*
X123808492Y-67552694D01*
X123831425Y-67623275D01*
X123833095Y-67639169D01*
X123834474Y-67644014D01*
X123840949Y-67713894D01*
X123850000Y-67800000D01*
X123840949Y-67886109D01*
X123834474Y-67955985D01*
X123833095Y-67960829D01*
X123831425Y-67976725D01*
X123808490Y-68047312D01*
X123791602Y-68106670D01*
X123784700Y-68120529D01*
X123776514Y-68145726D01*
X123744813Y-68200632D01*
X123721774Y-68246901D01*
X123706169Y-68267564D01*
X123687664Y-68299617D01*
X123652334Y-68338854D01*
X123627365Y-68371920D01*
X123600563Y-68396352D01*
X123568761Y-68431673D01*
X123534562Y-68456519D01*
X123511592Y-68477460D01*
X123471997Y-68501975D01*
X123425000Y-68536122D01*
X123395992Y-68549036D01*
X123378398Y-68559931D01*
X123325467Y-68580436D01*
X123262664Y-68608398D01*
X123241893Y-68612812D01*
X123232322Y-68616521D01*
X123167003Y-68628731D01*
X123088849Y-68645344D01*
X122911151Y-68645344D01*
X122833000Y-68628732D01*
X122767677Y-68616521D01*
X122758104Y-68612812D01*
X122737336Y-68608398D01*
X122674539Y-68580439D01*
X122621601Y-68559931D01*
X122604004Y-68549035D01*
X122575000Y-68536122D01*
X122528007Y-68501980D01*
X122488407Y-68477460D01*
X122465432Y-68456516D01*
X122431239Y-68431673D01*
X122399441Y-68396357D01*
X122372634Y-68371920D01*
X122347658Y-68338847D01*
X122312336Y-68299617D01*
X122293833Y-68267570D01*
X122278225Y-68246901D01*
X122255179Y-68200619D01*
X122223486Y-68145726D01*
X122215301Y-68120534D01*
X122208397Y-68106670D01*
X122191501Y-68047287D01*
X122168575Y-67976725D01*
X122166904Y-67960834D01*
X122165525Y-67955985D01*
X122159042Y-67886029D01*
X122150000Y-67800000D01*
X122159041Y-67713974D01*
X122165525Y-67644014D01*
X122166904Y-67639163D01*
X122168575Y-67623275D01*
X122191499Y-67552719D01*
X122208397Y-67493329D01*
X122215301Y-67479462D01*
X122223486Y-67454274D01*
X122255175Y-67399386D01*
X122278225Y-67353098D01*
X122293836Y-67332425D01*
X122312336Y-67300383D01*
X122347654Y-67261157D01*
X122372634Y-67228079D01*
X122399446Y-67203636D01*
X122431239Y-67168327D01*
X122465426Y-67143487D01*
X122488407Y-67122539D01*
X122528017Y-67098013D01*
X122575000Y-67063878D01*
X122603998Y-67050967D01*
X122621601Y-67040068D01*
X122674556Y-67019552D01*
X122737336Y-66991602D01*
X122758098Y-66987188D01*
X122767677Y-66983478D01*
X122833023Y-66971262D01*
X122911151Y-66954656D01*
X123088849Y-66954656D01*
X123166981Y-66971263D01*
G37*
G36*
X112073268Y-67257612D02*
G01*
X112105711Y-67279289D01*
X112119305Y-67299635D01*
X112161447Y-67341777D01*
X112368553Y-67341777D01*
X112410695Y-67299634D01*
X112424289Y-67279289D01*
X112456732Y-67257612D01*
X112495000Y-67250000D01*
X112695000Y-67250000D01*
X112733268Y-67257612D01*
X112734421Y-67258382D01*
X112751883Y-67260927D01*
X112788113Y-67260927D01*
X112805578Y-67258382D01*
X112806732Y-67257612D01*
X112845000Y-67250000D01*
X113045000Y-67250000D01*
X113083268Y-67257612D01*
X113084421Y-67258382D01*
X113101883Y-67260927D01*
X113138113Y-67260927D01*
X113155578Y-67258382D01*
X113156732Y-67257612D01*
X113195000Y-67250000D01*
X113395000Y-67250000D01*
X113433268Y-67257612D01*
X113434421Y-67258382D01*
X113451883Y-67260927D01*
X113488113Y-67260927D01*
X113505578Y-67258382D01*
X113506732Y-67257612D01*
X113545000Y-67250000D01*
X113745000Y-67250000D01*
X113783268Y-67257612D01*
X113784421Y-67258382D01*
X113801883Y-67260927D01*
X113838113Y-67260927D01*
X113855578Y-67258382D01*
X113856732Y-67257612D01*
X113895000Y-67250000D01*
X114095000Y-67250000D01*
X114133268Y-67257612D01*
X114134421Y-67258382D01*
X114151883Y-67260927D01*
X114188113Y-67260927D01*
X114205578Y-67258382D01*
X114206732Y-67257612D01*
X114245000Y-67250000D01*
X114445000Y-67250000D01*
X114483268Y-67257612D01*
X114484421Y-67258382D01*
X114501883Y-67260927D01*
X114538113Y-67260927D01*
X114555578Y-67258382D01*
X114556732Y-67257612D01*
X114595000Y-67250000D01*
X114795000Y-67250000D01*
X114833268Y-67257612D01*
X114834421Y-67258382D01*
X114851883Y-67260927D01*
X114888113Y-67260927D01*
X114905578Y-67258382D01*
X114906732Y-67257612D01*
X114945000Y-67250000D01*
X115145000Y-67250000D01*
X115183268Y-67257612D01*
X115184421Y-67258382D01*
X115201883Y-67260927D01*
X115238113Y-67260927D01*
X115255578Y-67258382D01*
X115256732Y-67257612D01*
X115295000Y-67250000D01*
X115495000Y-67250000D01*
X115533268Y-67257612D01*
X115534421Y-67258382D01*
X115551883Y-67260927D01*
X115588113Y-67260927D01*
X115605578Y-67258382D01*
X115606732Y-67257612D01*
X115645000Y-67250000D01*
X115845000Y-67250000D01*
X115883268Y-67257612D01*
X115915711Y-67279289D01*
X115929305Y-67299635D01*
X115971447Y-67341777D01*
X116178553Y-67341777D01*
X116220695Y-67299634D01*
X116234289Y-67279289D01*
X116266732Y-67257612D01*
X116305000Y-67250000D01*
X116585000Y-67250000D01*
X116623268Y-67257612D01*
X116655711Y-67279289D01*
X116677388Y-67311732D01*
X116685000Y-67350000D01*
X116685000Y-67750000D01*
X116677388Y-67788268D01*
X116655711Y-67820711D01*
X116623268Y-67842388D01*
X116585000Y-67850000D01*
X116305000Y-67850000D01*
X116266732Y-67842388D01*
X116234289Y-67820711D01*
X116220694Y-67800364D01*
X116178553Y-67758223D01*
X115971447Y-67758223D01*
X115929307Y-67800362D01*
X115915711Y-67820711D01*
X115883268Y-67842388D01*
X115845000Y-67850000D01*
X115645000Y-67850000D01*
X115606732Y-67842388D01*
X115605576Y-67841615D01*
X115588117Y-67839072D01*
X115551884Y-67839072D01*
X115534423Y-67841615D01*
X115533268Y-67842388D01*
X115495000Y-67850000D01*
X115295000Y-67850000D01*
X115256732Y-67842388D01*
X115255576Y-67841615D01*
X115238117Y-67839072D01*
X115201884Y-67839072D01*
X115184423Y-67841615D01*
X115183268Y-67842388D01*
X115145000Y-67850000D01*
X114945000Y-67850000D01*
X114906732Y-67842388D01*
X114905576Y-67841615D01*
X114888117Y-67839072D01*
X114851884Y-67839072D01*
X114834423Y-67841615D01*
X114833268Y-67842388D01*
X114795000Y-67850000D01*
X114595000Y-67850000D01*
X114556732Y-67842388D01*
X114555576Y-67841615D01*
X114538117Y-67839072D01*
X114501884Y-67839072D01*
X114484423Y-67841615D01*
X114483268Y-67842388D01*
X114445000Y-67850000D01*
X114245000Y-67850000D01*
X114206732Y-67842388D01*
X114205576Y-67841615D01*
X114188117Y-67839072D01*
X114151884Y-67839072D01*
X114134423Y-67841615D01*
X114133268Y-67842388D01*
X114095000Y-67850000D01*
X113895000Y-67850000D01*
X113856732Y-67842388D01*
X113855576Y-67841615D01*
X113838117Y-67839072D01*
X113801884Y-67839072D01*
X113784423Y-67841615D01*
X113783268Y-67842388D01*
X113745000Y-67850000D01*
X113545000Y-67850000D01*
X113506732Y-67842388D01*
X113505576Y-67841615D01*
X113488117Y-67839072D01*
X113451884Y-67839072D01*
X113434423Y-67841615D01*
X113433268Y-67842388D01*
X113395000Y-67850000D01*
X113195000Y-67850000D01*
X113156732Y-67842388D01*
X113155576Y-67841615D01*
X113138117Y-67839072D01*
X113101884Y-67839072D01*
X113084423Y-67841615D01*
X113083268Y-67842388D01*
X113045000Y-67850000D01*
X112845000Y-67850000D01*
X112806732Y-67842388D01*
X112805576Y-67841615D01*
X112788117Y-67839072D01*
X112751884Y-67839072D01*
X112734423Y-67841615D01*
X112733268Y-67842388D01*
X112695000Y-67850000D01*
X112495000Y-67850000D01*
X112456732Y-67842388D01*
X112424289Y-67820711D01*
X112410694Y-67800364D01*
X112368553Y-67758223D01*
X112161447Y-67758223D01*
X112119307Y-67800362D01*
X112105711Y-67820711D01*
X112073268Y-67842388D01*
X112035000Y-67850000D01*
X111755000Y-67850000D01*
X111716732Y-67842388D01*
X111684289Y-67820711D01*
X111662612Y-67788268D01*
X111655000Y-67750000D01*
X111655000Y-67350000D01*
X111662612Y-67311732D01*
X111684289Y-67279289D01*
X111716732Y-67257612D01*
X111755000Y-67250000D01*
X112035000Y-67250000D01*
X112073268Y-67257612D01*
G37*
G36*
X88166981Y-66071263D02*
G01*
X88232322Y-66083478D01*
X88241899Y-66087188D01*
X88262664Y-66091602D01*
X88325450Y-66119555D01*
X88378398Y-66140068D01*
X88395998Y-66150965D01*
X88425000Y-66163878D01*
X88471988Y-66198017D01*
X88511592Y-66222539D01*
X88534568Y-66243484D01*
X88568761Y-66268327D01*
X88600558Y-66303641D01*
X88627365Y-66328079D01*
X88652339Y-66361150D01*
X88687664Y-66400383D01*
X88706167Y-66432430D01*
X88721774Y-66453098D01*
X88744817Y-66499374D01*
X88776514Y-66554274D01*
X88784699Y-66579467D01*
X88791602Y-66593329D01*
X88808492Y-66652694D01*
X88831425Y-66723275D01*
X88833095Y-66739169D01*
X88834474Y-66744014D01*
X88840949Y-66813894D01*
X88850000Y-66900000D01*
X88840949Y-66986109D01*
X88834474Y-67055985D01*
X88833095Y-67060829D01*
X88831425Y-67076725D01*
X88808490Y-67147312D01*
X88791602Y-67206670D01*
X88784700Y-67220529D01*
X88776514Y-67245726D01*
X88744813Y-67300632D01*
X88721774Y-67346901D01*
X88706169Y-67367564D01*
X88687664Y-67399617D01*
X88652334Y-67438854D01*
X88627365Y-67471920D01*
X88600563Y-67496352D01*
X88568761Y-67531673D01*
X88534562Y-67556519D01*
X88511592Y-67577460D01*
X88471997Y-67601975D01*
X88425000Y-67636122D01*
X88395992Y-67649036D01*
X88378398Y-67659931D01*
X88325467Y-67680436D01*
X88262664Y-67708398D01*
X88241893Y-67712812D01*
X88232322Y-67716521D01*
X88167003Y-67728731D01*
X88088849Y-67745344D01*
X87911151Y-67745344D01*
X87833000Y-67728732D01*
X87767677Y-67716521D01*
X87758104Y-67712812D01*
X87737336Y-67708398D01*
X87674539Y-67680439D01*
X87621601Y-67659931D01*
X87604004Y-67649035D01*
X87575000Y-67636122D01*
X87528007Y-67601980D01*
X87488407Y-67577460D01*
X87465432Y-67556516D01*
X87431239Y-67531673D01*
X87399441Y-67496357D01*
X87372634Y-67471920D01*
X87347658Y-67438847D01*
X87312336Y-67399617D01*
X87293833Y-67367570D01*
X87278225Y-67346901D01*
X87255179Y-67300619D01*
X87223486Y-67245726D01*
X87215301Y-67220534D01*
X87208397Y-67206670D01*
X87191501Y-67147287D01*
X87168575Y-67076725D01*
X87166904Y-67060834D01*
X87165525Y-67055985D01*
X87159042Y-66986029D01*
X87150000Y-66900000D01*
X87159041Y-66813974D01*
X87165525Y-66744014D01*
X87166904Y-66739163D01*
X87168575Y-66723275D01*
X87191499Y-66652719D01*
X87208397Y-66593329D01*
X87215301Y-66579462D01*
X87223486Y-66554274D01*
X87255175Y-66499386D01*
X87278225Y-66453098D01*
X87293836Y-66432425D01*
X87312336Y-66400383D01*
X87347654Y-66361157D01*
X87372634Y-66328079D01*
X87399446Y-66303636D01*
X87431239Y-66268327D01*
X87465426Y-66243487D01*
X87488407Y-66222539D01*
X87528017Y-66198013D01*
X87575000Y-66163878D01*
X87603998Y-66150967D01*
X87621601Y-66140068D01*
X87674556Y-66119552D01*
X87737336Y-66091602D01*
X87758098Y-66087188D01*
X87767677Y-66083478D01*
X87833023Y-66071262D01*
X87911151Y-66054656D01*
X88088849Y-66054656D01*
X88166981Y-66071263D01*
G37*
G36*
X100175763Y-66193135D02*
G01*
X100206213Y-66196409D01*
X100222202Y-66202372D01*
X100251844Y-66208269D01*
X100269324Y-66219948D01*
X100273789Y-66221614D01*
X100290179Y-66233883D01*
X100329706Y-66260294D01*
X100333954Y-66266653D01*
X100416793Y-66328664D01*
X100583207Y-66328664D01*
X100666045Y-66266652D01*
X100670294Y-66260294D01*
X100709812Y-66233889D01*
X100726210Y-66221614D01*
X100730677Y-66219947D01*
X100748156Y-66208269D01*
X100777795Y-66202373D01*
X100793786Y-66196409D01*
X100824238Y-66193135D01*
X100840000Y-66190000D01*
X101120000Y-66190000D01*
X101135763Y-66193135D01*
X101166213Y-66196409D01*
X101182202Y-66202373D01*
X101211844Y-66208269D01*
X101229323Y-66219948D01*
X101233787Y-66221613D01*
X101250170Y-66233877D01*
X101289706Y-66260294D01*
X101316124Y-66299832D01*
X101328386Y-66316212D01*
X101330050Y-66320674D01*
X101341731Y-66338156D01*
X101347627Y-66367800D01*
X101353590Y-66383786D01*
X101356862Y-66414227D01*
X101360000Y-66430000D01*
X101360000Y-66770000D01*
X101356862Y-66785775D01*
X101353590Y-66816213D01*
X101347628Y-66832197D01*
X101341731Y-66861844D01*
X101330049Y-66879326D01*
X101328386Y-66883787D01*
X101316130Y-66900157D01*
X101289706Y-66939706D01*
X101250157Y-66966130D01*
X101233787Y-66978386D01*
X101229326Y-66980049D01*
X101211844Y-66991731D01*
X101182197Y-66997628D01*
X101166213Y-67003590D01*
X101135773Y-67006862D01*
X101120000Y-67010000D01*
X100840000Y-67010000D01*
X100824226Y-67006862D01*
X100793786Y-67003590D01*
X100777800Y-66997627D01*
X100748156Y-66991731D01*
X100730673Y-66980049D01*
X100726210Y-66978385D01*
X100709825Y-66966119D01*
X100670294Y-66939706D01*
X100666043Y-66933345D01*
X100583208Y-66871335D01*
X100416792Y-66871335D01*
X100333956Y-66933344D01*
X100329706Y-66939706D01*
X100290165Y-66966125D01*
X100273789Y-66978385D01*
X100269327Y-66980049D01*
X100251844Y-66991731D01*
X100222196Y-66997628D01*
X100206213Y-67003590D01*
X100175773Y-67006862D01*
X100160000Y-67010000D01*
X99880000Y-67010000D01*
X99864226Y-67006862D01*
X99833786Y-67003590D01*
X99817800Y-66997627D01*
X99788156Y-66991731D01*
X99770674Y-66980050D01*
X99766212Y-66978386D01*
X99749832Y-66966124D01*
X99710294Y-66939706D01*
X99683877Y-66900170D01*
X99671613Y-66883787D01*
X99669948Y-66879323D01*
X99658269Y-66861844D01*
X99652373Y-66832202D01*
X99646409Y-66816213D01*
X99643135Y-66785762D01*
X99640000Y-66770000D01*
X99640000Y-66430000D01*
X99643135Y-66414236D01*
X99646409Y-66383786D01*
X99652373Y-66367794D01*
X99658269Y-66338156D01*
X99669947Y-66320678D01*
X99671613Y-66316212D01*
X99683883Y-66299820D01*
X99710294Y-66260294D01*
X99749820Y-66233883D01*
X99766212Y-66221613D01*
X99770678Y-66219947D01*
X99788156Y-66208269D01*
X99817794Y-66202373D01*
X99833786Y-66196409D01*
X99864238Y-66193135D01*
X99880000Y-66190000D01*
X100160000Y-66190000D01*
X100175763Y-66193135D01*
G37*
G36*
X112073268Y-65857612D02*
G01*
X112105711Y-65879289D01*
X112119305Y-65899635D01*
X112161447Y-65941777D01*
X112368553Y-65941777D01*
X112410695Y-65899634D01*
X112424289Y-65879289D01*
X112456732Y-65857612D01*
X112495000Y-65850000D01*
X112695000Y-65850000D01*
X112733268Y-65857612D01*
X112734421Y-65858382D01*
X112751883Y-65860927D01*
X112788113Y-65860927D01*
X112805578Y-65858382D01*
X112806732Y-65857612D01*
X112845000Y-65850000D01*
X113045000Y-65850000D01*
X113083268Y-65857612D01*
X113084421Y-65858382D01*
X113101883Y-65860927D01*
X113138113Y-65860927D01*
X113155578Y-65858382D01*
X113156732Y-65857612D01*
X113195000Y-65850000D01*
X113395000Y-65850000D01*
X113433268Y-65857612D01*
X113434421Y-65858382D01*
X113451883Y-65860927D01*
X113488113Y-65860927D01*
X113505578Y-65858382D01*
X113506732Y-65857612D01*
X113545000Y-65850000D01*
X113745000Y-65850000D01*
X113783268Y-65857612D01*
X113784421Y-65858382D01*
X113801883Y-65860927D01*
X113838113Y-65860927D01*
X113855578Y-65858382D01*
X113856732Y-65857612D01*
X113895000Y-65850000D01*
X114095000Y-65850000D01*
X114133268Y-65857612D01*
X114134421Y-65858382D01*
X114151883Y-65860927D01*
X114188113Y-65860927D01*
X114205578Y-65858382D01*
X114206732Y-65857612D01*
X114245000Y-65850000D01*
X114445000Y-65850000D01*
X114483268Y-65857612D01*
X114484421Y-65858382D01*
X114501883Y-65860927D01*
X114538113Y-65860927D01*
X114555578Y-65858382D01*
X114556732Y-65857612D01*
X114595000Y-65850000D01*
X114795000Y-65850000D01*
X114833268Y-65857612D01*
X114834421Y-65858382D01*
X114851883Y-65860927D01*
X114888113Y-65860927D01*
X114905578Y-65858382D01*
X114906732Y-65857612D01*
X114945000Y-65850000D01*
X115145000Y-65850000D01*
X115183268Y-65857612D01*
X115184421Y-65858382D01*
X115201883Y-65860927D01*
X115238113Y-65860927D01*
X115255578Y-65858382D01*
X115256732Y-65857612D01*
X115295000Y-65850000D01*
X115495000Y-65850000D01*
X115533268Y-65857612D01*
X115534421Y-65858382D01*
X115551883Y-65860927D01*
X115588113Y-65860927D01*
X115605578Y-65858382D01*
X115606732Y-65857612D01*
X115645000Y-65850000D01*
X115845000Y-65850000D01*
X115883268Y-65857612D01*
X115915711Y-65879289D01*
X115929305Y-65899635D01*
X115971447Y-65941777D01*
X116178553Y-65941777D01*
X116220695Y-65899634D01*
X116234289Y-65879289D01*
X116266732Y-65857612D01*
X116305000Y-65850000D01*
X116585000Y-65850000D01*
X116623268Y-65857612D01*
X116655711Y-65879289D01*
X116677388Y-65911732D01*
X116685000Y-65950000D01*
X116685000Y-66350000D01*
X116677388Y-66388268D01*
X116655711Y-66420711D01*
X116623268Y-66442388D01*
X116585000Y-66450000D01*
X116305000Y-66450000D01*
X116266732Y-66442388D01*
X116234289Y-66420711D01*
X116220694Y-66400364D01*
X116178553Y-66358223D01*
X115971447Y-66358223D01*
X115929307Y-66400362D01*
X115915711Y-66420711D01*
X115883268Y-66442388D01*
X115845000Y-66450000D01*
X115645000Y-66450000D01*
X115606732Y-66442388D01*
X115605576Y-66441615D01*
X115588117Y-66439072D01*
X115551884Y-66439072D01*
X115534423Y-66441615D01*
X115533268Y-66442388D01*
X115495000Y-66450000D01*
X115295000Y-66450000D01*
X115256732Y-66442388D01*
X115255576Y-66441615D01*
X115238117Y-66439072D01*
X115201884Y-66439072D01*
X115184423Y-66441615D01*
X115183268Y-66442388D01*
X115145000Y-66450000D01*
X114945000Y-66450000D01*
X114906732Y-66442388D01*
X114905576Y-66441615D01*
X114888117Y-66439072D01*
X114851884Y-66439072D01*
X114834423Y-66441615D01*
X114833268Y-66442388D01*
X114795000Y-66450000D01*
X114595000Y-66450000D01*
X114556732Y-66442388D01*
X114555576Y-66441615D01*
X114538117Y-66439072D01*
X114501884Y-66439072D01*
X114484423Y-66441615D01*
X114483268Y-66442388D01*
X114445000Y-66450000D01*
X114245000Y-66450000D01*
X114206732Y-66442388D01*
X114205576Y-66441615D01*
X114188117Y-66439072D01*
X114151884Y-66439072D01*
X114134423Y-66441615D01*
X114133268Y-66442388D01*
X114095000Y-66450000D01*
X113895000Y-66450000D01*
X113856732Y-66442388D01*
X113855576Y-66441615D01*
X113838117Y-66439072D01*
X113801884Y-66439072D01*
X113784423Y-66441615D01*
X113783268Y-66442388D01*
X113745000Y-66450000D01*
X113545000Y-66450000D01*
X113506732Y-66442388D01*
X113505576Y-66441615D01*
X113488117Y-66439072D01*
X113451884Y-66439072D01*
X113434423Y-66441615D01*
X113433268Y-66442388D01*
X113395000Y-66450000D01*
X113195000Y-66450000D01*
X113156732Y-66442388D01*
X113155576Y-66441615D01*
X113138117Y-66439072D01*
X113101884Y-66439072D01*
X113084423Y-66441615D01*
X113083268Y-66442388D01*
X113045000Y-66450000D01*
X112845000Y-66450000D01*
X112806732Y-66442388D01*
X112805576Y-66441615D01*
X112788117Y-66439072D01*
X112751884Y-66439072D01*
X112734423Y-66441615D01*
X112733268Y-66442388D01*
X112695000Y-66450000D01*
X112495000Y-66450000D01*
X112456732Y-66442388D01*
X112424289Y-66420711D01*
X112410694Y-66400364D01*
X112368553Y-66358223D01*
X112161447Y-66358223D01*
X112119307Y-66400362D01*
X112105711Y-66420711D01*
X112073268Y-66442388D01*
X112035000Y-66450000D01*
X111755000Y-66450000D01*
X111716732Y-66442388D01*
X111684289Y-66420711D01*
X111662612Y-66388268D01*
X111655000Y-66350000D01*
X111655000Y-65950000D01*
X111662612Y-65911732D01*
X111684289Y-65879289D01*
X111716732Y-65857612D01*
X111755000Y-65850000D01*
X112035000Y-65850000D01*
X112073268Y-65857612D01*
G37*
G36*
X105788268Y-53457612D02*
G01*
X105820711Y-53479289D01*
X105842388Y-53511732D01*
X105850000Y-53550000D01*
X105850000Y-54150000D01*
X105842388Y-54188268D01*
X105823380Y-54216716D01*
X105786497Y-54292161D01*
X105786497Y-54407839D01*
X105823382Y-54483287D01*
X105842388Y-54511732D01*
X105850000Y-54550000D01*
X105850000Y-55150000D01*
X105842388Y-55188268D01*
X105820711Y-55220711D01*
X105788268Y-55242388D01*
X105750000Y-55250000D01*
X105250000Y-55250000D01*
X105211732Y-55242388D01*
X105179289Y-55220711D01*
X105157612Y-55188268D01*
X105150000Y-55150000D01*
X105150000Y-54550000D01*
X105157612Y-54511732D01*
X105176614Y-54483292D01*
X105213502Y-54407838D01*
X105213502Y-54292162D01*
X105176614Y-54216708D01*
X105157612Y-54188268D01*
X105150000Y-54150000D01*
X105150000Y-53550000D01*
X105157612Y-53511732D01*
X105179289Y-53479289D01*
X105211732Y-53457612D01*
X105250000Y-53450000D01*
X105750000Y-53450000D01*
X105788268Y-53457612D01*
G37*
G36*
X103666981Y-53521263D02*
G01*
X103732322Y-53533478D01*
X103741899Y-53537188D01*
X103762664Y-53541602D01*
X103825450Y-53569555D01*
X103878398Y-53590068D01*
X103895998Y-53600965D01*
X103925000Y-53613878D01*
X103971988Y-53648017D01*
X104011592Y-53672539D01*
X104034568Y-53693484D01*
X104068761Y-53718327D01*
X104100558Y-53753641D01*
X104127365Y-53778079D01*
X104152339Y-53811150D01*
X104187664Y-53850383D01*
X104206167Y-53882430D01*
X104221774Y-53903098D01*
X104244817Y-53949374D01*
X104276514Y-54004274D01*
X104284699Y-54029467D01*
X104291602Y-54043329D01*
X104308492Y-54102694D01*
X104331425Y-54173275D01*
X104333095Y-54189169D01*
X104334474Y-54194014D01*
X104340949Y-54263894D01*
X104350000Y-54350000D01*
X104340949Y-54436109D01*
X104334474Y-54505985D01*
X104333095Y-54510829D01*
X104331425Y-54526725D01*
X104308490Y-54597312D01*
X104291602Y-54656670D01*
X104284700Y-54670529D01*
X104276514Y-54695726D01*
X104244813Y-54750632D01*
X104221774Y-54796901D01*
X104206169Y-54817564D01*
X104187664Y-54849617D01*
X104152334Y-54888854D01*
X104127365Y-54921920D01*
X104100563Y-54946352D01*
X104068761Y-54981673D01*
X104034562Y-55006519D01*
X104011592Y-55027460D01*
X103971997Y-55051975D01*
X103925000Y-55086122D01*
X103895992Y-55099036D01*
X103878398Y-55109931D01*
X103825467Y-55130436D01*
X103762664Y-55158398D01*
X103741893Y-55162812D01*
X103732322Y-55166521D01*
X103667003Y-55178731D01*
X103588849Y-55195344D01*
X103411151Y-55195344D01*
X103333000Y-55178732D01*
X103267677Y-55166521D01*
X103258104Y-55162812D01*
X103237336Y-55158398D01*
X103174539Y-55130439D01*
X103121601Y-55109931D01*
X103104004Y-55099035D01*
X103075000Y-55086122D01*
X103028007Y-55051980D01*
X102988407Y-55027460D01*
X102965432Y-55006516D01*
X102931239Y-54981673D01*
X102899441Y-54946357D01*
X102872634Y-54921920D01*
X102847658Y-54888847D01*
X102812336Y-54849617D01*
X102793833Y-54817570D01*
X102778225Y-54796901D01*
X102755179Y-54750619D01*
X102723486Y-54695726D01*
X102715301Y-54670534D01*
X102708397Y-54656670D01*
X102691501Y-54597287D01*
X102668575Y-54526725D01*
X102666904Y-54510834D01*
X102665525Y-54505985D01*
X102659042Y-54436029D01*
X102650000Y-54350000D01*
X102659041Y-54263974D01*
X102665525Y-54194014D01*
X102666904Y-54189163D01*
X102668575Y-54173275D01*
X102691499Y-54102719D01*
X102708397Y-54043329D01*
X102715301Y-54029462D01*
X102723486Y-54004274D01*
X102755175Y-53949386D01*
X102778225Y-53903098D01*
X102793836Y-53882425D01*
X102812336Y-53850383D01*
X102847654Y-53811157D01*
X102872634Y-53778079D01*
X102899446Y-53753636D01*
X102931239Y-53718327D01*
X102965426Y-53693487D01*
X102988407Y-53672539D01*
X103028017Y-53648013D01*
X103075000Y-53613878D01*
X103103998Y-53600967D01*
X103121601Y-53590068D01*
X103174556Y-53569552D01*
X103237336Y-53541602D01*
X103258098Y-53537188D01*
X103267677Y-53533478D01*
X103333023Y-53521262D01*
X103411151Y-53504656D01*
X103588849Y-53504656D01*
X103666981Y-53521263D01*
G37*
G36*
X107666981Y-53521263D02*
G01*
X107732322Y-53533478D01*
X107741899Y-53537188D01*
X107762664Y-53541602D01*
X107825450Y-53569555D01*
X107878398Y-53590068D01*
X107895998Y-53600965D01*
X107925000Y-53613878D01*
X107971988Y-53648017D01*
X108011592Y-53672539D01*
X108034568Y-53693484D01*
X108068761Y-53718327D01*
X108100558Y-53753641D01*
X108127365Y-53778079D01*
X108152339Y-53811150D01*
X108187664Y-53850383D01*
X108206167Y-53882430D01*
X108221774Y-53903098D01*
X108244817Y-53949374D01*
X108276514Y-54004274D01*
X108284699Y-54029467D01*
X108291602Y-54043329D01*
X108308492Y-54102694D01*
X108331425Y-54173275D01*
X108333095Y-54189169D01*
X108334474Y-54194014D01*
X108340949Y-54263894D01*
X108350000Y-54350000D01*
X108340949Y-54436109D01*
X108334474Y-54505985D01*
X108333095Y-54510829D01*
X108331425Y-54526725D01*
X108308490Y-54597312D01*
X108291602Y-54656670D01*
X108284700Y-54670529D01*
X108276514Y-54695726D01*
X108244813Y-54750632D01*
X108221774Y-54796901D01*
X108206169Y-54817564D01*
X108187664Y-54849617D01*
X108152334Y-54888854D01*
X108127365Y-54921920D01*
X108100563Y-54946352D01*
X108068761Y-54981673D01*
X108034562Y-55006519D01*
X108011592Y-55027460D01*
X107971997Y-55051975D01*
X107925000Y-55086122D01*
X107895992Y-55099036D01*
X107878398Y-55109931D01*
X107825467Y-55130436D01*
X107762664Y-55158398D01*
X107741893Y-55162812D01*
X107732322Y-55166521D01*
X107667003Y-55178731D01*
X107588849Y-55195344D01*
X107411151Y-55195344D01*
X107333000Y-55178732D01*
X107267677Y-55166521D01*
X107258104Y-55162812D01*
X107237336Y-55158398D01*
X107174539Y-55130439D01*
X107121601Y-55109931D01*
X107104004Y-55099035D01*
X107075000Y-55086122D01*
X107028007Y-55051980D01*
X106988407Y-55027460D01*
X106965432Y-55006516D01*
X106931239Y-54981673D01*
X106899441Y-54946357D01*
X106872634Y-54921920D01*
X106847658Y-54888847D01*
X106812336Y-54849617D01*
X106793833Y-54817570D01*
X106778225Y-54796901D01*
X106755179Y-54750619D01*
X106723486Y-54695726D01*
X106715301Y-54670534D01*
X106708397Y-54656670D01*
X106691501Y-54597287D01*
X106668575Y-54526725D01*
X106666904Y-54510834D01*
X106665525Y-54505985D01*
X106659042Y-54436029D01*
X106650000Y-54350000D01*
X106659041Y-54263974D01*
X106665525Y-54194014D01*
X106666904Y-54189163D01*
X106668575Y-54173275D01*
X106691499Y-54102719D01*
X106708397Y-54043329D01*
X106715301Y-54029462D01*
X106723486Y-54004274D01*
X106755175Y-53949386D01*
X106778225Y-53903098D01*
X106793836Y-53882425D01*
X106812336Y-53850383D01*
X106847654Y-53811157D01*
X106872634Y-53778079D01*
X106899446Y-53753636D01*
X106931239Y-53718327D01*
X106965426Y-53693487D01*
X106988407Y-53672539D01*
X107028017Y-53648013D01*
X107075000Y-53613878D01*
X107103998Y-53600967D01*
X107121601Y-53590068D01*
X107174556Y-53569552D01*
X107237336Y-53541602D01*
X107258098Y-53537188D01*
X107267677Y-53533478D01*
X107333023Y-53521262D01*
X107411151Y-53504656D01*
X107588849Y-53504656D01*
X107666981Y-53521263D01*
G37*
M02*
