%TF.GenerationSoftware,KiCad,Pcbnew,7.0.1*%
%TF.CreationDate,2024-01-06T02:08:50+00:00*%
%TF.ProjectId,watch_lower,77617463-685f-46c6-9f77-65722e6b6963,rev?*%
%TF.SameCoordinates,Original*%
%TF.FileFunction,Paste,Top*%
%TF.FilePolarity,Positive*%
%FSLAX46Y46*%
G04 Gerber Fmt 4.6, Leading zero omitted, Abs format (unit mm)*
G04 Created by KiCad (PCBNEW 7.0.1) date 2024-01-06 02:08:50*
%MOMM*%
%LPD*%
G01*
G04 APERTURE LIST*
G04 Aperture macros list*
%AMRoundRect*
0 Rectangle with rounded corners*
0 $1 Rounding radius*
0 $2 $3 $4 $5 $6 $7 $8 $9 X,Y pos of 4 corners*
0 Add a 4 corners polygon primitive as box body*
4,1,4,$2,$3,$4,$5,$6,$7,$8,$9,$2,$3,0*
0 Add four circle primitives for the rounded corners*
1,1,$1+$1,$2,$3*
1,1,$1+$1,$4,$5*
1,1,$1+$1,$6,$7*
1,1,$1+$1,$8,$9*
0 Add four rect primitives between the rounded corners*
20,1,$1+$1,$2,$3,$4,$5,0*
20,1,$1+$1,$4,$5,$6,$7,0*
20,1,$1+$1,$6,$7,$8,$9,0*
20,1,$1+$1,$8,$9,$2,$3,0*%
G04 Aperture macros list end*
%ADD10R,0.500000X0.600000*%
%ADD11RoundRect,0.140000X0.140000X0.170000X-0.140000X0.170000X-0.140000X-0.170000X0.140000X-0.170000X0*%
%ADD12C,0.250000*%
%ADD13RoundRect,0.140000X-0.170000X0.140000X-0.170000X-0.140000X0.170000X-0.140000X0.170000X0.140000X0*%
%ADD14RoundRect,0.135000X0.135000X0.185000X-0.135000X0.185000X-0.135000X-0.185000X0.135000X-0.185000X0*%
%ADD15R,0.200000X0.400000*%
%ADD16R,0.280000X0.400000*%
%ADD17R,0.350000X0.750000*%
G04 APERTURE END LIST*
D10*
%TO.C,D1*%
X105500000Y-53850000D03*
X105500000Y-54850000D03*
%TD*%
D11*
%TO.C,C5*%
X100580000Y-71400000D03*
X99620000Y-71400000D03*
%TD*%
D12*
%TO.C,U2*%
X100600000Y-69500000D03*
X100100000Y-69500000D03*
X99600000Y-69500000D03*
X100600000Y-69000000D03*
X100100000Y-69000000D03*
X99600000Y-69000000D03*
X100600000Y-68500000D03*
X100100000Y-68500000D03*
X99600000Y-68500000D03*
%TD*%
D13*
%TO.C,C2*%
X109550000Y-74720000D03*
X109550000Y-75680000D03*
%TD*%
D11*
%TO.C,C3*%
X105580000Y-71200000D03*
X104620000Y-71200000D03*
%TD*%
D14*
%TO.C,R1*%
X100610000Y-73000000D03*
X99590000Y-73000000D03*
%TD*%
D15*
%TO.C,J1*%
X112595000Y-66150000D03*
X112595000Y-67550000D03*
X112945000Y-66150000D03*
X112945000Y-67550000D03*
X113295000Y-66150000D03*
X113295000Y-67550000D03*
X113645000Y-66150000D03*
X113645000Y-67550000D03*
X113995000Y-66150000D03*
X113995000Y-67550000D03*
X114345000Y-66150000D03*
X114345000Y-67550000D03*
X114695000Y-66150000D03*
X114695000Y-67550000D03*
X115045000Y-66150000D03*
X115045000Y-67550000D03*
X115395000Y-66150000D03*
X115395000Y-67550000D03*
X115745000Y-66150000D03*
X115745000Y-67550000D03*
D16*
X111895000Y-66150000D03*
X111895000Y-67550000D03*
X116445000Y-67550000D03*
X116445000Y-66150000D03*
%TD*%
D11*
%TO.C,C6*%
X100980000Y-66600000D03*
X100020000Y-66600000D03*
%TD*%
D17*
%TO.C,U1*%
X103110000Y-76400000D03*
X103910000Y-76400000D03*
X104710000Y-76400000D03*
X105510000Y-76400000D03*
X106310000Y-76400000D03*
X107110000Y-76400000D03*
X107910000Y-76400000D03*
X107910000Y-74000000D03*
X107110000Y-74000000D03*
X106310000Y-74000000D03*
X105510000Y-74000000D03*
X104710000Y-74000000D03*
X103910000Y-74000000D03*
X103110000Y-74000000D03*
%TD*%
D13*
%TO.C,C1*%
X110900000Y-74720000D03*
X110900000Y-75680000D03*
%TD*%
D11*
%TO.C,C4*%
X105580000Y-72550000D03*
X104620000Y-72550000D03*
%TD*%
M02*
