%TF.GenerationSoftware,KiCad,Pcbnew,7.0.9*%
%TF.CreationDate,2024-01-10T12:44:27+00:00*%
%TF.ProjectId,watch_lower,77617463-685f-46c6-9f77-65722e6b6963,rev?*%
%TF.SameCoordinates,Original*%
%TF.FileFunction,Drillmap*%
%TF.FilePolarity,Positive*%
%FSLAX45Y45*%
G04 Gerber Fmt 4.5, Leading zero omitted, Abs format (unit mm)*
G04 Created by KiCad (PCBNEW 7.0.9) date 2024-01-10 12:44:27*
%MOMM*%
%LPD*%
G01*
G04 APERTURE LIST*
%ADD10C,0.100000*%
%ADD11C,0.200000*%
G04 APERTURE END LIST*
D10*
X10075000Y-7585000D02*
G75*
G03*
X10075000Y-7585000I-75000J0D01*
G01*
X11225000Y-7235000D02*
G75*
G03*
X11225000Y-7235000I-75000J0D01*
G01*
D11*
D10*
X9850000Y-6850000D02*
X9870000Y-6870000D01*
X9870000Y-6850000D02*
X9850000Y-6870000D01*
X9900000Y-6650000D02*
X9920000Y-6670000D01*
X9920000Y-6650000D02*
X9900000Y-6670000D01*
X9920000Y-7030000D02*
X9940000Y-7050000D01*
X9940000Y-7030000D02*
X9920000Y-7050000D01*
X9950000Y-7370000D02*
X9970000Y-7390000D01*
X9970000Y-7370000D02*
X9950000Y-7390000D01*
X10129818Y-7180000D02*
X10149818Y-7200000D01*
X10149818Y-7180000D02*
X10129818Y-7200000D01*
X10140000Y-6890000D02*
X10160000Y-6910000D01*
X10160000Y-6890000D02*
X10140000Y-6910000D01*
X10179289Y-6940000D02*
X10199289Y-6960000D01*
X10199289Y-6940000D02*
X10179289Y-6960000D01*
X10240000Y-7090000D02*
X10260000Y-7110000D01*
X10260000Y-7090000D02*
X10240000Y-7110000D01*
X10260000Y-6630000D02*
X10280000Y-6650000D01*
X10280000Y-6630000D02*
X10260000Y-6650000D01*
X10260000Y-6690000D02*
X10280000Y-6710000D01*
X10280000Y-6690000D02*
X10260000Y-6710000D01*
X10260000Y-6750000D02*
X10280000Y-6770000D01*
X10280000Y-6750000D02*
X10260000Y-6770000D01*
X10300000Y-6910000D02*
X10320000Y-6930000D01*
X10320000Y-6910000D02*
X10300000Y-6930000D01*
X10381000Y-6911000D02*
X10401000Y-6931000D01*
X10401000Y-6911000D02*
X10381000Y-6931000D01*
X10461000Y-7320000D02*
X10481000Y-7340000D01*
X10481000Y-7320000D02*
X10461000Y-7340000D01*
X10470000Y-6480000D02*
X10490000Y-6500000D01*
X10490000Y-6480000D02*
X10470000Y-6500000D01*
X10470000Y-6540000D02*
X10490000Y-6560000D01*
X10490000Y-6540000D02*
X10470000Y-6560000D01*
X10470000Y-6600000D02*
X10490000Y-6620000D01*
X10490000Y-6600000D02*
X10470000Y-6620000D01*
X10490000Y-7030000D02*
X10510000Y-7050000D01*
X10510000Y-7030000D02*
X10490000Y-7050000D01*
X10520000Y-7500000D02*
X10540000Y-7520000D01*
X10540000Y-7500000D02*
X10520000Y-7520000D01*
X10540000Y-7710000D02*
X10560000Y-7730000D01*
X10560000Y-7710000D02*
X10540000Y-7730000D01*
X10600000Y-6830000D02*
X10620000Y-6850000D01*
X10620000Y-6830000D02*
X10600000Y-6850000D01*
X10600000Y-6890000D02*
X10620000Y-6910000D01*
X10620000Y-6890000D02*
X10600000Y-6910000D01*
X10605000Y-5375000D02*
X10625000Y-5395000D01*
X10625000Y-5375000D02*
X10605000Y-5395000D01*
X10810000Y-7040000D02*
X10830000Y-7060000D01*
X10830000Y-7040000D02*
X10810000Y-7060000D01*
X10810000Y-7100000D02*
X10830000Y-7120000D01*
X10830000Y-7100000D02*
X10810000Y-7120000D01*
X10860000Y-7070000D02*
X10880000Y-7090000D01*
X10880000Y-7070000D02*
X10860000Y-7090000D01*
X10860000Y-7130000D02*
X10880000Y-7150000D01*
X10880000Y-7130000D02*
X10860000Y-7150000D01*
X10945000Y-7630000D02*
X10965000Y-7650000D01*
X10965000Y-7630000D02*
X10945000Y-7650000D01*
X11080000Y-7630000D02*
X11100000Y-7650000D01*
X11100000Y-7630000D02*
X11080000Y-7650000D01*
X11120000Y-5460000D02*
X11140000Y-5480000D01*
X11140000Y-5460000D02*
X11120000Y-5480000D01*
X11200000Y-5490000D02*
X11220000Y-5510000D01*
X11220000Y-5490000D02*
X11200000Y-5510000D01*
X11215000Y-6675000D02*
X11235000Y-6695000D01*
X11235000Y-6675000D02*
X11215000Y-6695000D01*
X11281661Y-6685760D02*
X11301661Y-6705760D01*
X11301661Y-6685760D02*
X11281661Y-6705760D01*
X11340000Y-6510000D02*
X11360000Y-6530000D01*
X11360000Y-6510000D02*
X11340000Y-6530000D01*
X11380000Y-6690000D02*
X11400000Y-6710000D01*
X11400000Y-6690000D02*
X11380000Y-6710000D01*
X11440000Y-6690000D02*
X11460000Y-6710000D01*
X11460000Y-6690000D02*
X11440000Y-6710000D01*
X11480000Y-6510000D02*
X11500000Y-6530000D01*
X11500000Y-6510000D02*
X11480000Y-6530000D01*
X11500000Y-6690000D02*
X11520000Y-6710000D01*
X11520000Y-6690000D02*
X11500000Y-6710000D01*
X11595000Y-6675000D02*
X11615000Y-6695000D01*
X11615000Y-6675000D02*
X11595000Y-6695000D01*
X12215000Y-6890000D02*
X12235000Y-6910000D01*
X12235000Y-6890000D02*
X12215000Y-6910000D01*
X12290000Y-6890000D02*
X12310000Y-6910000D01*
X12310000Y-6890000D02*
X12290000Y-6910000D01*
X12365000Y-6890000D02*
X12385000Y-6910000D01*
X12385000Y-6890000D02*
X12365000Y-6910000D01*
D11*
X8905777Y-8151484D02*
X8905777Y-7951484D01*
X8905777Y-7951484D02*
X8953396Y-7951484D01*
X8953396Y-7951484D02*
X8981968Y-7961008D01*
X8981968Y-7961008D02*
X9001016Y-7980055D01*
X9001016Y-7980055D02*
X9010539Y-7999103D01*
X9010539Y-7999103D02*
X9020063Y-8037198D01*
X9020063Y-8037198D02*
X9020063Y-8065769D01*
X9020063Y-8065769D02*
X9010539Y-8103865D01*
X9010539Y-8103865D02*
X9001016Y-8122912D01*
X9001016Y-8122912D02*
X8981968Y-8141960D01*
X8981968Y-8141960D02*
X8953396Y-8151484D01*
X8953396Y-8151484D02*
X8905777Y-8151484D01*
X9105777Y-8151484D02*
X9105777Y-8018150D01*
X9105777Y-8056246D02*
X9115301Y-8037198D01*
X9115301Y-8037198D02*
X9124825Y-8027674D01*
X9124825Y-8027674D02*
X9143873Y-8018150D01*
X9143873Y-8018150D02*
X9162920Y-8018150D01*
X9229587Y-8151484D02*
X9229587Y-8018150D01*
X9229587Y-7951484D02*
X9220063Y-7961008D01*
X9220063Y-7961008D02*
X9229587Y-7970531D01*
X9229587Y-7970531D02*
X9239111Y-7961008D01*
X9239111Y-7961008D02*
X9229587Y-7951484D01*
X9229587Y-7951484D02*
X9229587Y-7970531D01*
X9353396Y-8151484D02*
X9334349Y-8141960D01*
X9334349Y-8141960D02*
X9324825Y-8122912D01*
X9324825Y-8122912D02*
X9324825Y-7951484D01*
X9458158Y-8151484D02*
X9439111Y-8141960D01*
X9439111Y-8141960D02*
X9429587Y-8122912D01*
X9429587Y-8122912D02*
X9429587Y-7951484D01*
X9686730Y-8151484D02*
X9686730Y-7951484D01*
X9686730Y-7951484D02*
X9753397Y-8094341D01*
X9753397Y-8094341D02*
X9820063Y-7951484D01*
X9820063Y-7951484D02*
X9820063Y-8151484D01*
X10001016Y-8151484D02*
X10001016Y-8046722D01*
X10001016Y-8046722D02*
X9991492Y-8027674D01*
X9991492Y-8027674D02*
X9972444Y-8018150D01*
X9972444Y-8018150D02*
X9934349Y-8018150D01*
X9934349Y-8018150D02*
X9915301Y-8027674D01*
X10001016Y-8141960D02*
X9981968Y-8151484D01*
X9981968Y-8151484D02*
X9934349Y-8151484D01*
X9934349Y-8151484D02*
X9915301Y-8141960D01*
X9915301Y-8141960D02*
X9905777Y-8122912D01*
X9905777Y-8122912D02*
X9905777Y-8103865D01*
X9905777Y-8103865D02*
X9915301Y-8084817D01*
X9915301Y-8084817D02*
X9934349Y-8075293D01*
X9934349Y-8075293D02*
X9981968Y-8075293D01*
X9981968Y-8075293D02*
X10001016Y-8065769D01*
X10096254Y-8018150D02*
X10096254Y-8218150D01*
X10096254Y-8027674D02*
X10115301Y-8018150D01*
X10115301Y-8018150D02*
X10153397Y-8018150D01*
X10153397Y-8018150D02*
X10172444Y-8027674D01*
X10172444Y-8027674D02*
X10181968Y-8037198D01*
X10181968Y-8037198D02*
X10191492Y-8056246D01*
X10191492Y-8056246D02*
X10191492Y-8113388D01*
X10191492Y-8113388D02*
X10181968Y-8132436D01*
X10181968Y-8132436D02*
X10172444Y-8141960D01*
X10172444Y-8141960D02*
X10153397Y-8151484D01*
X10153397Y-8151484D02*
X10115301Y-8151484D01*
X10115301Y-8151484D02*
X10096254Y-8141960D01*
X10277206Y-8132436D02*
X10286730Y-8141960D01*
X10286730Y-8141960D02*
X10277206Y-8151484D01*
X10277206Y-8151484D02*
X10267682Y-8141960D01*
X10267682Y-8141960D02*
X10277206Y-8132436D01*
X10277206Y-8132436D02*
X10277206Y-8151484D01*
X10277206Y-8027674D02*
X10286730Y-8037198D01*
X10286730Y-8037198D02*
X10277206Y-8046722D01*
X10277206Y-8046722D02*
X10267682Y-8037198D01*
X10267682Y-8037198D02*
X10277206Y-8027674D01*
X10277206Y-8027674D02*
X10277206Y-8046722D01*
D10*
X8625001Y-8470000D02*
X8645001Y-8490000D01*
X8645001Y-8470000D02*
X8625001Y-8490000D01*
D11*
X8943873Y-8371484D02*
X8962920Y-8371484D01*
X8962920Y-8371484D02*
X8981968Y-8381008D01*
X8981968Y-8381008D02*
X8991492Y-8390531D01*
X8991492Y-8390531D02*
X9001016Y-8409579D01*
X9001016Y-8409579D02*
X9010539Y-8447674D01*
X9010539Y-8447674D02*
X9010539Y-8495293D01*
X9010539Y-8495293D02*
X9001016Y-8533389D01*
X9001016Y-8533389D02*
X8991492Y-8552436D01*
X8991492Y-8552436D02*
X8981968Y-8561960D01*
X8981968Y-8561960D02*
X8962920Y-8571484D01*
X8962920Y-8571484D02*
X8943873Y-8571484D01*
X8943873Y-8571484D02*
X8924825Y-8561960D01*
X8924825Y-8561960D02*
X8915301Y-8552436D01*
X8915301Y-8552436D02*
X8905777Y-8533389D01*
X8905777Y-8533389D02*
X8896254Y-8495293D01*
X8896254Y-8495293D02*
X8896254Y-8447674D01*
X8896254Y-8447674D02*
X8905777Y-8409579D01*
X8905777Y-8409579D02*
X8915301Y-8390531D01*
X8915301Y-8390531D02*
X8924825Y-8381008D01*
X8924825Y-8381008D02*
X8943873Y-8371484D01*
X9096254Y-8552436D02*
X9105777Y-8561960D01*
X9105777Y-8561960D02*
X9096254Y-8571484D01*
X9096254Y-8571484D02*
X9086730Y-8561960D01*
X9086730Y-8561960D02*
X9096254Y-8552436D01*
X9096254Y-8552436D02*
X9096254Y-8571484D01*
X9181968Y-8390531D02*
X9191492Y-8381008D01*
X9191492Y-8381008D02*
X9210539Y-8371484D01*
X9210539Y-8371484D02*
X9258158Y-8371484D01*
X9258158Y-8371484D02*
X9277206Y-8381008D01*
X9277206Y-8381008D02*
X9286730Y-8390531D01*
X9286730Y-8390531D02*
X9296254Y-8409579D01*
X9296254Y-8409579D02*
X9296254Y-8428627D01*
X9296254Y-8428627D02*
X9286730Y-8457198D01*
X9286730Y-8457198D02*
X9172444Y-8571484D01*
X9172444Y-8571484D02*
X9296254Y-8571484D01*
X9420063Y-8371484D02*
X9439111Y-8371484D01*
X9439111Y-8371484D02*
X9458158Y-8381008D01*
X9458158Y-8381008D02*
X9467682Y-8390531D01*
X9467682Y-8390531D02*
X9477206Y-8409579D01*
X9477206Y-8409579D02*
X9486730Y-8447674D01*
X9486730Y-8447674D02*
X9486730Y-8495293D01*
X9486730Y-8495293D02*
X9477206Y-8533389D01*
X9477206Y-8533389D02*
X9467682Y-8552436D01*
X9467682Y-8552436D02*
X9458158Y-8561960D01*
X9458158Y-8561960D02*
X9439111Y-8571484D01*
X9439111Y-8571484D02*
X9420063Y-8571484D01*
X9420063Y-8571484D02*
X9401016Y-8561960D01*
X9401016Y-8561960D02*
X9391492Y-8552436D01*
X9391492Y-8552436D02*
X9381968Y-8533389D01*
X9381968Y-8533389D02*
X9372444Y-8495293D01*
X9372444Y-8495293D02*
X9372444Y-8447674D01*
X9372444Y-8447674D02*
X9381968Y-8409579D01*
X9381968Y-8409579D02*
X9391492Y-8390531D01*
X9391492Y-8390531D02*
X9401016Y-8381008D01*
X9401016Y-8381008D02*
X9420063Y-8371484D01*
X9610539Y-8371484D02*
X9629587Y-8371484D01*
X9629587Y-8371484D02*
X9648635Y-8381008D01*
X9648635Y-8381008D02*
X9658158Y-8390531D01*
X9658158Y-8390531D02*
X9667682Y-8409579D01*
X9667682Y-8409579D02*
X9677206Y-8447674D01*
X9677206Y-8447674D02*
X9677206Y-8495293D01*
X9677206Y-8495293D02*
X9667682Y-8533389D01*
X9667682Y-8533389D02*
X9658158Y-8552436D01*
X9658158Y-8552436D02*
X9648635Y-8561960D01*
X9648635Y-8561960D02*
X9629587Y-8571484D01*
X9629587Y-8571484D02*
X9610539Y-8571484D01*
X9610539Y-8571484D02*
X9591492Y-8561960D01*
X9591492Y-8561960D02*
X9581968Y-8552436D01*
X9581968Y-8552436D02*
X9572444Y-8533389D01*
X9572444Y-8533389D02*
X9562920Y-8495293D01*
X9562920Y-8495293D02*
X9562920Y-8447674D01*
X9562920Y-8447674D02*
X9572444Y-8409579D01*
X9572444Y-8409579D02*
X9581968Y-8390531D01*
X9581968Y-8390531D02*
X9591492Y-8381008D01*
X9591492Y-8381008D02*
X9610539Y-8371484D01*
X9762920Y-8571484D02*
X9762920Y-8438150D01*
X9762920Y-8457198D02*
X9772444Y-8447674D01*
X9772444Y-8447674D02*
X9791492Y-8438150D01*
X9791492Y-8438150D02*
X9820063Y-8438150D01*
X9820063Y-8438150D02*
X9839111Y-8447674D01*
X9839111Y-8447674D02*
X9848635Y-8466722D01*
X9848635Y-8466722D02*
X9848635Y-8571484D01*
X9848635Y-8466722D02*
X9858158Y-8447674D01*
X9858158Y-8447674D02*
X9877206Y-8438150D01*
X9877206Y-8438150D02*
X9905777Y-8438150D01*
X9905777Y-8438150D02*
X9924825Y-8447674D01*
X9924825Y-8447674D02*
X9934349Y-8466722D01*
X9934349Y-8466722D02*
X9934349Y-8571484D01*
X10029587Y-8571484D02*
X10029587Y-8438150D01*
X10029587Y-8457198D02*
X10039111Y-8447674D01*
X10039111Y-8447674D02*
X10058158Y-8438150D01*
X10058158Y-8438150D02*
X10086730Y-8438150D01*
X10086730Y-8438150D02*
X10105778Y-8447674D01*
X10105778Y-8447674D02*
X10115301Y-8466722D01*
X10115301Y-8466722D02*
X10115301Y-8571484D01*
X10115301Y-8466722D02*
X10124825Y-8447674D01*
X10124825Y-8447674D02*
X10143873Y-8438150D01*
X10143873Y-8438150D02*
X10172444Y-8438150D01*
X10172444Y-8438150D02*
X10191492Y-8447674D01*
X10191492Y-8447674D02*
X10201016Y-8466722D01*
X10201016Y-8466722D02*
X10201016Y-8571484D01*
X10591492Y-8361960D02*
X10420063Y-8619103D01*
X10848635Y-8371484D02*
X10867682Y-8371484D01*
X10867682Y-8371484D02*
X10886730Y-8381008D01*
X10886730Y-8381008D02*
X10896254Y-8390531D01*
X10896254Y-8390531D02*
X10905778Y-8409579D01*
X10905778Y-8409579D02*
X10915301Y-8447674D01*
X10915301Y-8447674D02*
X10915301Y-8495293D01*
X10915301Y-8495293D02*
X10905778Y-8533389D01*
X10905778Y-8533389D02*
X10896254Y-8552436D01*
X10896254Y-8552436D02*
X10886730Y-8561960D01*
X10886730Y-8561960D02*
X10867682Y-8571484D01*
X10867682Y-8571484D02*
X10848635Y-8571484D01*
X10848635Y-8571484D02*
X10829587Y-8561960D01*
X10829587Y-8561960D02*
X10820063Y-8552436D01*
X10820063Y-8552436D02*
X10810540Y-8533389D01*
X10810540Y-8533389D02*
X10801016Y-8495293D01*
X10801016Y-8495293D02*
X10801016Y-8447674D01*
X10801016Y-8447674D02*
X10810540Y-8409579D01*
X10810540Y-8409579D02*
X10820063Y-8390531D01*
X10820063Y-8390531D02*
X10829587Y-8381008D01*
X10829587Y-8381008D02*
X10848635Y-8371484D01*
X11001016Y-8552436D02*
X11010540Y-8561960D01*
X11010540Y-8561960D02*
X11001016Y-8571484D01*
X11001016Y-8571484D02*
X10991492Y-8561960D01*
X10991492Y-8561960D02*
X11001016Y-8552436D01*
X11001016Y-8552436D02*
X11001016Y-8571484D01*
X11134349Y-8371484D02*
X11153397Y-8371484D01*
X11153397Y-8371484D02*
X11172444Y-8381008D01*
X11172444Y-8381008D02*
X11181968Y-8390531D01*
X11181968Y-8390531D02*
X11191492Y-8409579D01*
X11191492Y-8409579D02*
X11201016Y-8447674D01*
X11201016Y-8447674D02*
X11201016Y-8495293D01*
X11201016Y-8495293D02*
X11191492Y-8533389D01*
X11191492Y-8533389D02*
X11181968Y-8552436D01*
X11181968Y-8552436D02*
X11172444Y-8561960D01*
X11172444Y-8561960D02*
X11153397Y-8571484D01*
X11153397Y-8571484D02*
X11134349Y-8571484D01*
X11134349Y-8571484D02*
X11115301Y-8561960D01*
X11115301Y-8561960D02*
X11105778Y-8552436D01*
X11105778Y-8552436D02*
X11096254Y-8533389D01*
X11096254Y-8533389D02*
X11086730Y-8495293D01*
X11086730Y-8495293D02*
X11086730Y-8447674D01*
X11086730Y-8447674D02*
X11096254Y-8409579D01*
X11096254Y-8409579D02*
X11105778Y-8390531D01*
X11105778Y-8390531D02*
X11115301Y-8381008D01*
X11115301Y-8381008D02*
X11134349Y-8371484D01*
X11324825Y-8371484D02*
X11343873Y-8371484D01*
X11343873Y-8371484D02*
X11362920Y-8381008D01*
X11362920Y-8381008D02*
X11372444Y-8390531D01*
X11372444Y-8390531D02*
X11381968Y-8409579D01*
X11381968Y-8409579D02*
X11391492Y-8447674D01*
X11391492Y-8447674D02*
X11391492Y-8495293D01*
X11391492Y-8495293D02*
X11381968Y-8533389D01*
X11381968Y-8533389D02*
X11372444Y-8552436D01*
X11372444Y-8552436D02*
X11362920Y-8561960D01*
X11362920Y-8561960D02*
X11343873Y-8571484D01*
X11343873Y-8571484D02*
X11324825Y-8571484D01*
X11324825Y-8571484D02*
X11305778Y-8561960D01*
X11305778Y-8561960D02*
X11296254Y-8552436D01*
X11296254Y-8552436D02*
X11286730Y-8533389D01*
X11286730Y-8533389D02*
X11277206Y-8495293D01*
X11277206Y-8495293D02*
X11277206Y-8447674D01*
X11277206Y-8447674D02*
X11286730Y-8409579D01*
X11286730Y-8409579D02*
X11296254Y-8390531D01*
X11296254Y-8390531D02*
X11305778Y-8381008D01*
X11305778Y-8381008D02*
X11324825Y-8371484D01*
X11458159Y-8371484D02*
X11591492Y-8371484D01*
X11591492Y-8371484D02*
X11505778Y-8571484D01*
X11677206Y-8571484D02*
X11715301Y-8571484D01*
X11715301Y-8571484D02*
X11734349Y-8561960D01*
X11734349Y-8561960D02*
X11743873Y-8552436D01*
X11743873Y-8552436D02*
X11762920Y-8523865D01*
X11762920Y-8523865D02*
X11772444Y-8485770D01*
X11772444Y-8485770D02*
X11772444Y-8409579D01*
X11772444Y-8409579D02*
X11762920Y-8390531D01*
X11762920Y-8390531D02*
X11753397Y-8381008D01*
X11753397Y-8381008D02*
X11734349Y-8371484D01*
X11734349Y-8371484D02*
X11696254Y-8371484D01*
X11696254Y-8371484D02*
X11677206Y-8381008D01*
X11677206Y-8381008D02*
X11667682Y-8390531D01*
X11667682Y-8390531D02*
X11658159Y-8409579D01*
X11658159Y-8409579D02*
X11658159Y-8457198D01*
X11658159Y-8457198D02*
X11667682Y-8476246D01*
X11667682Y-8476246D02*
X11677206Y-8485770D01*
X11677206Y-8485770D02*
X11696254Y-8495293D01*
X11696254Y-8495293D02*
X11734349Y-8495293D01*
X11734349Y-8495293D02*
X11753397Y-8485770D01*
X11753397Y-8485770D02*
X11762920Y-8476246D01*
X11762920Y-8476246D02*
X11772444Y-8457198D01*
X11848635Y-8371484D02*
X11848635Y-8409579D01*
X11924825Y-8371484D02*
X11924825Y-8409579D01*
X12220063Y-8647674D02*
X12210540Y-8638150D01*
X12210540Y-8638150D02*
X12191492Y-8609579D01*
X12191492Y-8609579D02*
X12181968Y-8590531D01*
X12181968Y-8590531D02*
X12172444Y-8561960D01*
X12172444Y-8561960D02*
X12162921Y-8514341D01*
X12162921Y-8514341D02*
X12162921Y-8476246D01*
X12162921Y-8476246D02*
X12172444Y-8428627D01*
X12172444Y-8428627D02*
X12181968Y-8400055D01*
X12181968Y-8400055D02*
X12191492Y-8381008D01*
X12191492Y-8381008D02*
X12210540Y-8352436D01*
X12210540Y-8352436D02*
X12220063Y-8342912D01*
X12381968Y-8438150D02*
X12381968Y-8571484D01*
X12334349Y-8361960D02*
X12286730Y-8504817D01*
X12286730Y-8504817D02*
X12410540Y-8504817D01*
X12477206Y-8390531D02*
X12486730Y-8381008D01*
X12486730Y-8381008D02*
X12505778Y-8371484D01*
X12505778Y-8371484D02*
X12553397Y-8371484D01*
X12553397Y-8371484D02*
X12572444Y-8381008D01*
X12572444Y-8381008D02*
X12581968Y-8390531D01*
X12581968Y-8390531D02*
X12591492Y-8409579D01*
X12591492Y-8409579D02*
X12591492Y-8428627D01*
X12591492Y-8428627D02*
X12581968Y-8457198D01*
X12581968Y-8457198D02*
X12467682Y-8571484D01*
X12467682Y-8571484D02*
X12591492Y-8571484D01*
X12829587Y-8571484D02*
X12829587Y-8371484D01*
X12915302Y-8571484D02*
X12915302Y-8466722D01*
X12915302Y-8466722D02*
X12905778Y-8447674D01*
X12905778Y-8447674D02*
X12886730Y-8438150D01*
X12886730Y-8438150D02*
X12858159Y-8438150D01*
X12858159Y-8438150D02*
X12839111Y-8447674D01*
X12839111Y-8447674D02*
X12829587Y-8457198D01*
X13039111Y-8571484D02*
X13020063Y-8561960D01*
X13020063Y-8561960D02*
X13010540Y-8552436D01*
X13010540Y-8552436D02*
X13001016Y-8533389D01*
X13001016Y-8533389D02*
X13001016Y-8476246D01*
X13001016Y-8476246D02*
X13010540Y-8457198D01*
X13010540Y-8457198D02*
X13020063Y-8447674D01*
X13020063Y-8447674D02*
X13039111Y-8438150D01*
X13039111Y-8438150D02*
X13067683Y-8438150D01*
X13067683Y-8438150D02*
X13086730Y-8447674D01*
X13086730Y-8447674D02*
X13096254Y-8457198D01*
X13096254Y-8457198D02*
X13105778Y-8476246D01*
X13105778Y-8476246D02*
X13105778Y-8533389D01*
X13105778Y-8533389D02*
X13096254Y-8552436D01*
X13096254Y-8552436D02*
X13086730Y-8561960D01*
X13086730Y-8561960D02*
X13067683Y-8571484D01*
X13067683Y-8571484D02*
X13039111Y-8571484D01*
X13220063Y-8571484D02*
X13201016Y-8561960D01*
X13201016Y-8561960D02*
X13191492Y-8542912D01*
X13191492Y-8542912D02*
X13191492Y-8371484D01*
X13372444Y-8561960D02*
X13353397Y-8571484D01*
X13353397Y-8571484D02*
X13315302Y-8571484D01*
X13315302Y-8571484D02*
X13296254Y-8561960D01*
X13296254Y-8561960D02*
X13286730Y-8542912D01*
X13286730Y-8542912D02*
X13286730Y-8466722D01*
X13286730Y-8466722D02*
X13296254Y-8447674D01*
X13296254Y-8447674D02*
X13315302Y-8438150D01*
X13315302Y-8438150D02*
X13353397Y-8438150D01*
X13353397Y-8438150D02*
X13372444Y-8447674D01*
X13372444Y-8447674D02*
X13381968Y-8466722D01*
X13381968Y-8466722D02*
X13381968Y-8485770D01*
X13381968Y-8485770D02*
X13286730Y-8504817D01*
X13458159Y-8561960D02*
X13477206Y-8571484D01*
X13477206Y-8571484D02*
X13515302Y-8571484D01*
X13515302Y-8571484D02*
X13534349Y-8561960D01*
X13534349Y-8561960D02*
X13543873Y-8542912D01*
X13543873Y-8542912D02*
X13543873Y-8533389D01*
X13543873Y-8533389D02*
X13534349Y-8514341D01*
X13534349Y-8514341D02*
X13515302Y-8504817D01*
X13515302Y-8504817D02*
X13486730Y-8504817D01*
X13486730Y-8504817D02*
X13467683Y-8495293D01*
X13467683Y-8495293D02*
X13458159Y-8476246D01*
X13458159Y-8476246D02*
X13458159Y-8466722D01*
X13458159Y-8466722D02*
X13467683Y-8447674D01*
X13467683Y-8447674D02*
X13486730Y-8438150D01*
X13486730Y-8438150D02*
X13515302Y-8438150D01*
X13515302Y-8438150D02*
X13534349Y-8447674D01*
X13610540Y-8647674D02*
X13620064Y-8638150D01*
X13620064Y-8638150D02*
X13639111Y-8609579D01*
X13639111Y-8609579D02*
X13648635Y-8590531D01*
X13648635Y-8590531D02*
X13658159Y-8561960D01*
X13658159Y-8561960D02*
X13667683Y-8514341D01*
X13667683Y-8514341D02*
X13667683Y-8476246D01*
X13667683Y-8476246D02*
X13658159Y-8428627D01*
X13658159Y-8428627D02*
X13648635Y-8400055D01*
X13648635Y-8400055D02*
X13639111Y-8381008D01*
X13639111Y-8381008D02*
X13620064Y-8352436D01*
X13620064Y-8352436D02*
X13610540Y-8342912D01*
M02*
