%TF.GenerationSoftware,KiCad,Pcbnew,7.0.9*%
%TF.CreationDate,2024-01-09T17:45:50+00:00*%
%TF.ProjectId,watch_lower,77617463-685f-46c6-9f77-65722e6b6963,rev?*%
%TF.SameCoordinates,Original*%
%TF.FileFunction,Copper,L1,Top*%
%TF.FilePolarity,Positive*%
%FSLAX46Y46*%
G04 Gerber Fmt 4.6, Leading zero omitted, Abs format (unit mm)*
G04 Created by KiCad (PCBNEW 7.0.9) date 2024-01-09 17:45:50*
%MOMM*%
%LPD*%
G01*
G04 APERTURE LIST*
G04 Aperture macros list*
%AMRoundRect*
0 Rectangle with rounded corners*
0 $1 Rounding radius*
0 $2 $3 $4 $5 $6 $7 $8 $9 X,Y pos of 4 corners*
0 Add a 4 corners polygon primitive as box body*
4,1,4,$2,$3,$4,$5,$6,$7,$8,$9,$2,$3,0*
0 Add four circle primitives for the rounded corners*
1,1,$1+$1,$2,$3*
1,1,$1+$1,$4,$5*
1,1,$1+$1,$6,$7*
1,1,$1+$1,$8,$9*
0 Add four rect primitives between the rounded corners*
20,1,$1+$1,$2,$3,$4,$5,0*
20,1,$1+$1,$4,$5,$6,$7,0*
20,1,$1+$1,$6,$7,$8,$9,0*
20,1,$1+$1,$8,$9,$2,$3,0*%
G04 Aperture macros list end*
%TA.AperFunction,SMDPad,CuDef*%
%ADD10RoundRect,0.050000X-0.075000X-0.050000X0.075000X-0.050000X0.075000X0.050000X-0.075000X0.050000X0*%
%TD*%
%TA.AperFunction,SMDPad,CuDef*%
%ADD11C,0.250000*%
%TD*%
%TA.AperFunction,SMDPad,CuDef*%
%ADD12C,1.500000*%
%TD*%
%TA.AperFunction,SMDPad,CuDef*%
%ADD13R,0.500000X0.600000*%
%TD*%
%TA.AperFunction,SMDPad,CuDef*%
%ADD14RoundRect,0.140000X0.140000X0.170000X-0.140000X0.170000X-0.140000X-0.170000X0.140000X-0.170000X0*%
%TD*%
%TA.AperFunction,SMDPad,CuDef*%
%ADD15RoundRect,0.140000X-0.170000X0.140000X-0.170000X-0.140000X0.170000X-0.140000X0.170000X0.140000X0*%
%TD*%
%TA.AperFunction,SMDPad,CuDef*%
%ADD16RoundRect,0.135000X0.135000X0.185000X-0.135000X0.185000X-0.135000X-0.185000X0.135000X-0.185000X0*%
%TD*%
%TA.AperFunction,SMDPad,CuDef*%
%ADD17R,0.200000X0.400000*%
%TD*%
%TA.AperFunction,SMDPad,CuDef*%
%ADD18R,0.280000X0.400000*%
%TD*%
%TA.AperFunction,SMDPad,CuDef*%
%ADD19R,0.350000X0.750000*%
%TD*%
%TA.AperFunction,ViaPad*%
%ADD20C,0.400000*%
%TD*%
%TA.AperFunction,Conductor*%
%ADD21C,0.090000*%
%TD*%
%TA.AperFunction,Conductor*%
%ADD22C,0.150000*%
%TD*%
%TA.AperFunction,Conductor*%
%ADD23C,0.300000*%
%TD*%
%TA.AperFunction,Conductor*%
%ADD24C,0.100000*%
%TD*%
%TA.AperFunction,Conductor*%
%ADD25C,0.500000*%
%TD*%
%TA.AperFunction,Conductor*%
%ADD26C,0.250000*%
%TD*%
G04 APERTURE END LIST*
D10*
%TO.P,U2,A1,EN*%
%TO.N,/LRA_EN*%
X100600000Y-69525000D03*
D11*
%TO.P,U2,A2,REG*%
%TO.N,/REG*%
X100100000Y-69500000D03*
%TO.P,U2,A3,OUT+*%
%TO.N,/M+*%
X99600000Y-69500000D03*
D10*
%TO.P,U2,B1,IN/TRIG*%
%TO.N,GND*%
X100600000Y-68975000D03*
D11*
%TO.P,U2,B2,SDA*%
%TO.N,/SDA*%
X100100000Y-69000000D03*
%TO.P,U2,B3,GND*%
%TO.N,GND*%
X99600000Y-69000000D03*
%TO.P,U2,C1,SCL*%
%TO.N,/SCL*%
X100600000Y-68500000D03*
%TO.P,U2,C2,VDD*%
%TO.N,+VBAT*%
X100100000Y-68500000D03*
%TO.P,U2,C3,OUT-*%
%TO.N,/M-*%
X99600000Y-68500000D03*
%TD*%
D12*
%TO.P,TP4,1,1*%
%TO.N,GND*%
X107500000Y-54350000D03*
%TD*%
%TO.P,TP5,1,1*%
%TO.N,/M+*%
X88000000Y-70000000D03*
%TD*%
D13*
%TO.P,D1,1,1*%
%TO.N,GND*%
X105500000Y-53850000D03*
%TO.P,D1,2,2*%
%TO.N,VBUS*%
X105500000Y-54850000D03*
%TD*%
D12*
%TO.P,TP2,1,1*%
%TO.N,GND*%
X123000000Y-67800000D03*
%TD*%
D14*
%TO.P,C5,1*%
%TO.N,/REG*%
X100580000Y-71400000D03*
%TO.P,C5,2*%
%TO.N,GND*%
X99620000Y-71400000D03*
%TD*%
D15*
%TO.P,C2,1*%
%TO.N,+3V3*%
X109550000Y-74720000D03*
%TO.P,C2,2*%
%TO.N,GND*%
X109550000Y-75680000D03*
%TD*%
D14*
%TO.P,C3,1*%
%TO.N,+1V8*%
X105580000Y-71200000D03*
%TO.P,C3,2*%
%TO.N,GND*%
X104620000Y-71200000D03*
%TD*%
D16*
%TO.P,R1,1*%
%TO.N,/LRA_EN*%
X100610000Y-73000000D03*
%TO.P,R1,2*%
%TO.N,GND*%
X99590000Y-73000000D03*
%TD*%
D17*
%TO.P,J1,1,1*%
%TO.N,+3V3*%
X112595000Y-66150000D03*
%TO.P,J1,2,2*%
%TO.N,unconnected-(J1-Pad2)*%
X112595000Y-67550000D03*
%TO.P,J1,3,3*%
%TO.N,GND*%
X112945000Y-66150000D03*
%TO.P,J1,4,4*%
X112945000Y-67550000D03*
%TO.P,J1,5,5*%
%TO.N,VBUS*%
X113295000Y-66150000D03*
%TO.P,J1,6,6*%
%TO.N,+VBAT*%
X113295000Y-67550000D03*
%TO.P,J1,7,7*%
%TO.N,GND*%
X113645000Y-66150000D03*
%TO.P,J1,8,8*%
X113645000Y-67550000D03*
%TO.P,J1,9,9*%
%TO.N,/SCL*%
X113995000Y-66150000D03*
%TO.P,J1,10,10*%
%TO.N,/LRA_EN*%
X113995000Y-67550000D03*
%TO.P,J1,11,11*%
%TO.N,/SDA*%
X114345000Y-66150000D03*
%TO.P,J1,12,12*%
%TO.N,/HR_INT*%
X114345000Y-67550000D03*
%TO.P,J1,13,13*%
%TO.N,GND*%
X114695000Y-66150000D03*
%TO.P,J1,14,14*%
X114695000Y-67550000D03*
%TO.P,J1,15,15*%
%TO.N,+VBAT*%
X115045000Y-66150000D03*
%TO.P,J1,16,16*%
%TO.N,VBUS*%
X115045000Y-67550000D03*
%TO.P,J1,17,17*%
%TO.N,GND*%
X115395000Y-66150000D03*
%TO.P,J1,18,18*%
X115395000Y-67550000D03*
%TO.P,J1,19,19*%
%TO.N,+1V8*%
X115745000Y-66150000D03*
%TO.P,J1,20,20*%
%TO.N,unconnected-(J1-Pad20)*%
X115745000Y-67550000D03*
D18*
%TO.P,J1,MP1,MP1*%
%TO.N,unconnected-(J1-PadMP1)*%
X111895000Y-66150000D03*
%TO.P,J1,MP2,MP2*%
%TO.N,unconnected-(J1-PadMP2)*%
X111895000Y-67550000D03*
%TO.P,J1,MP3,MP3*%
%TO.N,unconnected-(J1-PadMP3)*%
X116445000Y-67550000D03*
%TO.P,J1,MP4,MP4*%
%TO.N,unconnected-(J1-PadMP4)*%
X116445000Y-66150000D03*
%TD*%
D12*
%TO.P,TP1,1,1*%
%TO.N,+VBAT*%
X123000000Y-70900000D03*
%TD*%
D14*
%TO.P,C6,1*%
%TO.N,+VBAT*%
X100980000Y-66600000D03*
%TO.P,C6,2*%
%TO.N,GND*%
X100020000Y-66600000D03*
%TD*%
D19*
%TO.P,U1,1,NC*%
%TO.N,unconnected-(U1-NC-Pad1)*%
X103110000Y-76400000D03*
%TO.P,U1,2,SCL*%
%TO.N,/SCL*%
X103910000Y-76400000D03*
%TO.P,U1,3,SDA*%
%TO.N,/SDA*%
X104710000Y-76400000D03*
%TO.P,U1,4,PGND*%
%TO.N,GND*%
X105510000Y-76400000D03*
%TO.P,U1,5,R_DRV*%
%TO.N,unconnected-(U1-R_DRV-Pad5)*%
X106310000Y-76400000D03*
%TO.P,U1,6,IR_DRV*%
%TO.N,unconnected-(U1-IR_DRV-Pad6)*%
X107110000Y-76400000D03*
%TO.P,U1,7,NC*%
%TO.N,unconnected-(U1-NC-Pad7)*%
X107910000Y-76400000D03*
%TO.P,U1,8,NC*%
%TO.N,unconnected-(U1-NC-Pad8)*%
X107910000Y-74000000D03*
%TO.P,U1,9,VLED+*%
%TO.N,+3V3*%
X107110000Y-74000000D03*
%TO.P,U1,10,VLED+*%
X106310000Y-74000000D03*
%TO.P,U1,11,VDD*%
%TO.N,+1V8*%
X105510000Y-74000000D03*
%TO.P,U1,12,GND*%
%TO.N,GND*%
X104710000Y-74000000D03*
%TO.P,U1,13,~{INT}*%
%TO.N,/HR_INT*%
X103910000Y-74000000D03*
%TO.P,U1,14,NC*%
%TO.N,unconnected-(U1-NC-Pad14)*%
X103110000Y-74000000D03*
%TD*%
D12*
%TO.P,TP3,1,1*%
%TO.N,VBUS*%
X103500000Y-54350000D03*
%TD*%
D15*
%TO.P,C1,1*%
%TO.N,+3V3*%
X110900000Y-74720000D03*
%TO.P,C1,2*%
%TO.N,GND*%
X110900000Y-75680000D03*
%TD*%
D14*
%TO.P,C4,1*%
%TO.N,+1V8*%
X105580000Y-72550000D03*
%TO.P,C4,2*%
%TO.N,GND*%
X104620000Y-72550000D03*
%TD*%
D12*
%TO.P,TP6,1,1*%
%TO.N,/M-*%
X88000000Y-66900000D03*
%TD*%
D20*
%TO.N,/SDA*%
X101892893Y-69500000D03*
%TO.N,GND*%
X123000000Y-69000000D03*
X101500000Y-69000000D03*
X109550000Y-76400000D03*
X112250000Y-66850000D03*
X104710000Y-73300000D03*
X105000000Y-70400000D03*
X113500000Y-65200000D03*
X123750000Y-69000000D03*
X98600000Y-68600000D03*
X99100000Y-66600000D03*
X105500000Y-77200000D03*
X114900000Y-65200000D03*
X122250000Y-69000000D03*
X99300000Y-70400000D03*
X99600000Y-73800000D03*
X110900000Y-76400000D03*
X116050000Y-66850000D03*
X105300000Y-75100000D03*
X106150000Y-53850000D03*
%TO.N,+VBAT*%
X102700000Y-67600000D03*
X106100000Y-68400000D03*
X104800000Y-64900000D03*
X104800000Y-66100000D03*
X108700000Y-70800000D03*
X102700000Y-66400000D03*
X102700000Y-67000000D03*
X108200000Y-71100000D03*
X104800000Y-65500000D03*
X108200000Y-70500000D03*
X106100000Y-69000000D03*
X108700000Y-71400000D03*
%TO.N,VBUS*%
X115100000Y-67000000D03*
X112916606Y-66957597D03*
%TO.N,/SCL*%
X111300000Y-54700000D03*
X103100000Y-69200000D03*
%TO.N,/LRA_EN*%
X101398182Y-71900000D03*
X113900000Y-67000000D03*
%TO.N,/SDA*%
X112100000Y-55000000D03*
X102500000Y-71000000D03*
%TO.N,/HR_INT*%
X114500000Y-67000000D03*
X103910000Y-69210000D03*
%TD*%
D21*
%TO.N,/SDA*%
X100262150Y-69162114D02*
G75*
G03*
X100474264Y-69250000I212150J212114D01*
G01*
X101137850Y-69337886D02*
G75*
G03*
X100925736Y-69250000I-212150J-212114D01*
G01*
X101212150Y-69412114D02*
G75*
G03*
X101424264Y-69500000I212150J212114D01*
G01*
D22*
%TO.N,GND*%
X101475000Y-68975000D02*
X100600000Y-68975000D01*
X101500000Y-69000000D02*
X101475000Y-68975000D01*
D21*
%TO.N,/SDA*%
X100262132Y-69162132D02*
X100100000Y-69000000D01*
X100925736Y-69250000D02*
X100474264Y-69250000D01*
X101212132Y-69412132D02*
X101137868Y-69337868D01*
X101892893Y-69500000D02*
X101424264Y-69500000D01*
D23*
%TO.N,+3V3*%
X106310000Y-74000000D02*
X107110000Y-74000000D01*
X110900000Y-74720000D02*
X109700000Y-74720000D01*
X107168579Y-74568579D02*
X107261422Y-74661422D01*
X107110000Y-74000000D02*
X107110000Y-74427157D01*
X107402843Y-74720000D02*
X109700000Y-74720000D01*
X107110031Y-74427157D02*
G75*
G03*
X107168580Y-74568578I199969J-43D01*
G01*
X107261401Y-74661443D02*
G75*
G03*
X107402843Y-74720000I141399J141443D01*
G01*
D24*
%TO.N,GND*%
X112483824Y-66616176D02*
X112250000Y-66850000D01*
D22*
X113675000Y-65375000D02*
X113500000Y-65200000D01*
D23*
X105510000Y-76400000D02*
X105510000Y-75392843D01*
D22*
X112945000Y-67550000D02*
X112945000Y-67950000D01*
D25*
X106150000Y-53850000D02*
X106585786Y-53850000D01*
D23*
X104710000Y-74000000D02*
X104710000Y-74427157D01*
D22*
X116070000Y-66870000D02*
X116050000Y-66850000D01*
X113445000Y-67975000D02*
X112970000Y-67975000D01*
X115453579Y-66558579D02*
X115686422Y-66791422D01*
D23*
X105510000Y-75890000D02*
X105510000Y-76400000D01*
X104620000Y-71200000D02*
X104620000Y-70987107D01*
D22*
X112945000Y-67950000D02*
X112920000Y-67975000D01*
X115395000Y-67950000D02*
X115370000Y-67975000D01*
D23*
X105510000Y-77190000D02*
X105500000Y-77200000D01*
X99590000Y-73790000D02*
X99600000Y-73800000D01*
D22*
X112970000Y-67975000D02*
X112945000Y-67950000D01*
D24*
X112709560Y-66557597D02*
X112625246Y-66557597D01*
D22*
X115827843Y-66850000D02*
X116050000Y-66850000D01*
X114725000Y-66200000D02*
X114725000Y-65375000D01*
D23*
X99620000Y-72970000D02*
X99590000Y-73000000D01*
X104768579Y-74568579D02*
X105300000Y-75100000D01*
X104766447Y-70633553D02*
X105000000Y-70400000D01*
X104710000Y-72640000D02*
X104620000Y-72550000D01*
D24*
X112945000Y-66150000D02*
X112945000Y-66322157D01*
D22*
X114725000Y-65375000D02*
X114900000Y-65200000D01*
X112260000Y-67775000D02*
X112260000Y-66860000D01*
D24*
X112886421Y-66463579D02*
X112850981Y-66499019D01*
D22*
X113645000Y-67550000D02*
X113645000Y-67775000D01*
X115395000Y-67550000D02*
X115395000Y-67950000D01*
X112920000Y-67975000D02*
X112460000Y-67975000D01*
D25*
X107292893Y-54142893D02*
X107500000Y-54350000D01*
D23*
X105451421Y-75251421D02*
X105300000Y-75100000D01*
D25*
X105500000Y-53850000D02*
X106150000Y-53850000D01*
D22*
X113675000Y-66200000D02*
X113675000Y-65375000D01*
D23*
X99620000Y-71400000D02*
X99620000Y-70927107D01*
D22*
X115370000Y-67975000D02*
X114895000Y-67975000D01*
D23*
X109550000Y-75680000D02*
X109550000Y-76400000D01*
X105661421Y-75738579D02*
X105510000Y-75890000D01*
X110900000Y-75680000D02*
X110900000Y-76400000D01*
D26*
X98853553Y-68853553D02*
X98600000Y-68600000D01*
D23*
X109700000Y-75680000D02*
X105802843Y-75680000D01*
X104620000Y-72550000D02*
X104620000Y-71200000D01*
D22*
X112260000Y-66860000D02*
X112250000Y-66850000D01*
D23*
X99620000Y-71400000D02*
X99620000Y-72970000D01*
D22*
X115395000Y-67950000D02*
X115420000Y-67975000D01*
D26*
X99600000Y-69000000D02*
X99207107Y-69000000D01*
D23*
X99590000Y-73000000D02*
X99590000Y-73790000D01*
X100020000Y-66600000D02*
X99100000Y-66600000D01*
D22*
X115420000Y-67975000D02*
X115870000Y-67975000D01*
D23*
X104710000Y-74000000D02*
X104710000Y-72640000D01*
X99473553Y-70573553D02*
X99300000Y-70400000D01*
X109700000Y-75680000D02*
X110900000Y-75680000D01*
D22*
X114695000Y-67775000D02*
X114695000Y-67550000D01*
D23*
X105510000Y-76400000D02*
X105510000Y-77190000D01*
D22*
X115395000Y-66150000D02*
X115395000Y-66417157D01*
X116070000Y-67775000D02*
X116070000Y-66870000D01*
D24*
X112709560Y-66557569D02*
G75*
G03*
X112850980Y-66499018I40J199969D01*
G01*
D22*
X112260000Y-67775000D02*
G75*
G03*
X112460000Y-67975000I200000J0D01*
G01*
D24*
X112886442Y-66463600D02*
G75*
G03*
X112945000Y-66322157I-141442J141400D01*
G01*
D22*
X114695000Y-67775000D02*
G75*
G03*
X114895000Y-67975000I200000J0D01*
G01*
D23*
X105509969Y-75392843D02*
G75*
G03*
X105451420Y-75251422I-199969J43D01*
G01*
D26*
X98853550Y-68853556D02*
G75*
G03*
X99207107Y-69000000I353550J353556D01*
G01*
D24*
X112625246Y-66557631D02*
G75*
G03*
X112483825Y-66616177I-46J-199969D01*
G01*
D25*
X107292900Y-54142886D02*
G75*
G03*
X106585786Y-53850000I-707100J-707114D01*
G01*
D22*
X115395031Y-66417157D02*
G75*
G03*
X115453580Y-66558578I199969J-43D01*
G01*
D23*
X105802843Y-75680031D02*
G75*
G03*
X105661422Y-75738580I-43J-199969D01*
G01*
X104710031Y-74427157D02*
G75*
G03*
X104768580Y-74568578I199969J-43D01*
G01*
D22*
X115870000Y-67975000D02*
G75*
G03*
X116070000Y-67775000I0J200000D01*
G01*
D23*
X104766444Y-70633550D02*
G75*
G03*
X104620000Y-70987107I353556J-353550D01*
G01*
D22*
X113445000Y-67975000D02*
G75*
G03*
X113645000Y-67775000I0J200000D01*
G01*
D23*
X99619995Y-70927107D02*
G75*
G03*
X99473553Y-70573553I-499995J7D01*
G01*
D22*
X115686401Y-66791443D02*
G75*
G03*
X115827843Y-66850000I141399J141443D01*
G01*
D23*
%TO.N,+1V8*%
X105580000Y-72550000D02*
X105580000Y-71200000D01*
X105510000Y-72620000D02*
X105580000Y-72550000D01*
X105510000Y-74000000D02*
X105510000Y-72620000D01*
D26*
%TO.N,/REG*%
X100246447Y-70446447D02*
X100433554Y-70633554D01*
X100100000Y-69500000D02*
X100100000Y-70092893D01*
X100580000Y-70987107D02*
X100580000Y-71400000D01*
X100100005Y-70092893D02*
G75*
G03*
X100246447Y-70446447I499995J-7D01*
G01*
X100579995Y-70987107D02*
G75*
G03*
X100433554Y-70633554I-499995J7D01*
G01*
%TO.N,+VBAT*%
X100100000Y-68500000D02*
X100100000Y-68307107D01*
D22*
X113391421Y-67108579D02*
X113353578Y-67146422D01*
X113295000Y-67287843D02*
X113295000Y-67550000D01*
X113450000Y-66832843D02*
X113450000Y-66967157D01*
X114845000Y-66575000D02*
X113707843Y-66575000D01*
D26*
X100980000Y-67012893D02*
X100980000Y-66600000D01*
D22*
X115045000Y-66150000D02*
X115045000Y-66375000D01*
D26*
X100246447Y-67953553D02*
X100833554Y-67366446D01*
D22*
X113566421Y-66633579D02*
X113508578Y-66691422D01*
X113391442Y-67108600D02*
G75*
G03*
X113450000Y-66967157I-141442J141400D01*
G01*
X114845000Y-66575000D02*
G75*
G03*
X115045000Y-66375000I0J200000D01*
G01*
X113353557Y-67146401D02*
G75*
G03*
X113295000Y-67287843I141443J-141399D01*
G01*
X113707843Y-66575031D02*
G75*
G03*
X113566422Y-66633580I-43J-199969D01*
G01*
X113508557Y-66691401D02*
G75*
G03*
X113450000Y-66832843I141443J-141399D01*
G01*
D26*
X100833557Y-67366449D02*
G75*
G03*
X100980000Y-67012893I-353557J353549D01*
G01*
X100246444Y-67953550D02*
G75*
G03*
X100100000Y-68307107I353556J-353550D01*
G01*
D22*
%TO.N,VBUS*%
X115045000Y-67550000D02*
X115045000Y-67055000D01*
X115045000Y-67055000D02*
X115100000Y-67000000D01*
X113295000Y-66397893D02*
X113295000Y-66150000D01*
X112916606Y-66859130D02*
X113236422Y-66539314D01*
X112916606Y-66957597D02*
X112916606Y-66859130D01*
X113236425Y-66539317D02*
G75*
G03*
X113295000Y-66397893I-141425J141417D01*
G01*
%TO.N,/SCL*%
X102000000Y-70714214D02*
X102000000Y-74200000D01*
X103200000Y-75400000D02*
X103410000Y-75400000D01*
X111300000Y-54700000D02*
X111300000Y-58420101D01*
X100600000Y-68500000D02*
X101985786Y-68500000D01*
X113995000Y-62109214D02*
X113995000Y-66150000D01*
X103100000Y-69200000D02*
X102292893Y-70007107D01*
X103910000Y-75900000D02*
X103910000Y-76400000D01*
X111710051Y-59410051D02*
X113702107Y-61402107D01*
X102692893Y-68792893D02*
X103100000Y-69200000D01*
X102000000Y-74200000D02*
G75*
G03*
X103200000Y-75400000I1200000J0D01*
G01*
X102292886Y-70007100D02*
G75*
G03*
X102000000Y-70714214I707114J-707100D01*
G01*
X111300000Y-58420101D02*
G75*
G03*
X111710052Y-59410050I1400000J1D01*
G01*
X103910000Y-75900000D02*
G75*
G03*
X103410000Y-75400000I-500000J0D01*
G01*
X113994990Y-62109214D02*
G75*
G03*
X113702107Y-61402107I-999990J14D01*
G01*
X102692900Y-68792886D02*
G75*
G03*
X101985786Y-68500000I-707100J-707114D01*
G01*
%TO.N,/LRA_EN*%
X101105289Y-70005289D02*
X100600000Y-69500000D01*
X101398182Y-71900000D02*
X101398182Y-70712396D01*
X114025000Y-67025000D02*
X114025000Y-67600000D01*
X100900000Y-73000000D02*
X100610000Y-73000000D01*
X101398182Y-71900000D02*
X101398182Y-72565587D01*
X100900000Y-73000035D02*
G75*
G03*
X101398182Y-72565587I-1900J505035D01*
G01*
X101398190Y-70712396D02*
G75*
G03*
X101105289Y-70005289I-999990J-4D01*
G01*
%TO.N,/SDA*%
X111992893Y-59192893D02*
X113934950Y-61134950D01*
X112100000Y-55000000D02*
X111992893Y-55107107D01*
X111700000Y-55814214D02*
X111700000Y-58485786D01*
X103200000Y-74900000D02*
X103710000Y-74900000D01*
X102500000Y-71000000D02*
X102500000Y-74200000D01*
X104710000Y-75900000D02*
X104710000Y-76400000D01*
X114345000Y-62124899D02*
X114345000Y-66150000D01*
X111700010Y-58485786D02*
G75*
G03*
X111992893Y-59192893I999990J-14D01*
G01*
X111992886Y-55107100D02*
G75*
G03*
X111700000Y-55814214I707114J-707100D01*
G01*
X102500000Y-74200000D02*
G75*
G03*
X103200000Y-74900000I700000J0D01*
G01*
X114345000Y-62124899D02*
G75*
G03*
X113934949Y-61134951I-1400000J-1D01*
G01*
X104710000Y-75900000D02*
G75*
G03*
X103710000Y-74900000I-1000000J0D01*
G01*
%TO.N,/HR_INT*%
X114375000Y-67025000D02*
X114375000Y-67600000D01*
X103910000Y-69210000D02*
X103910000Y-74000000D01*
%TD*%
%TA.AperFunction,Conductor*%
%TO.N,/M-*%
G36*
X98361164Y-65761563D02*
G01*
X98365924Y-65765924D01*
X98849833Y-66249833D01*
X98871225Y-66295709D01*
X98858124Y-66344604D01*
X98849833Y-66354485D01*
X98812905Y-66391412D01*
X98762499Y-66490339D01*
X98745131Y-66600000D01*
X98762499Y-66709660D01*
X98762500Y-66709661D01*
X98812905Y-66808587D01*
X98891413Y-66887095D01*
X98990339Y-66937500D01*
X99100000Y-66954869D01*
X99209661Y-66937500D01*
X99222100Y-66931162D01*
X99266449Y-66908566D01*
X99300044Y-66900500D01*
X99572167Y-66900500D01*
X99619733Y-66917813D01*
X99633218Y-66932681D01*
X99636188Y-66937017D01*
X99678326Y-66979155D01*
X99699718Y-67025031D01*
X99700000Y-67031481D01*
X99700000Y-68526000D01*
X99682687Y-68573566D01*
X99638850Y-68598876D01*
X99626000Y-68600000D01*
X99020268Y-68600000D01*
X98972702Y-68582687D01*
X98967942Y-68578326D01*
X98965330Y-68575714D01*
X98944567Y-68534964D01*
X98937500Y-68490339D01*
X98937500Y-68490338D01*
X98887094Y-68391412D01*
X98808587Y-68312905D01*
X98709660Y-68262499D01*
X98600000Y-68245131D01*
X98503546Y-68260407D01*
X98453857Y-68250748D01*
X98439644Y-68239644D01*
X98240459Y-68040459D01*
X98820149Y-68040459D01*
X98931162Y-68097022D01*
X98933698Y-68098443D01*
X98942876Y-68104068D01*
X98945293Y-68105682D01*
X98963423Y-68118855D01*
X98965702Y-68120652D01*
X98973888Y-68127642D01*
X98976025Y-68129617D01*
X99031699Y-68185291D01*
X99127099Y-68089891D01*
X98948908Y-67911700D01*
X98820149Y-68040459D01*
X98240459Y-68040459D01*
X97936339Y-67736339D01*
X98417165Y-67736339D01*
X98595355Y-67914529D01*
X98773546Y-67736339D01*
X99124271Y-67736339D01*
X99302462Y-67914529D01*
X99376000Y-67840992D01*
X99376000Y-67631686D01*
X99302462Y-67558148D01*
X99124271Y-67736339D01*
X98773546Y-67736339D01*
X98595355Y-67558148D01*
X98417165Y-67736339D01*
X97936339Y-67736339D01*
X97582785Y-67382785D01*
X98063611Y-67382785D01*
X98241802Y-67560976D01*
X98419992Y-67382785D01*
X98770718Y-67382785D01*
X98948909Y-67560976D01*
X99127099Y-67382785D01*
X98948908Y-67204594D01*
X98770718Y-67382785D01*
X98419992Y-67382785D01*
X98241802Y-67204594D01*
X98063611Y-67382785D01*
X97582785Y-67382785D01*
X97229232Y-67029232D01*
X97710058Y-67029232D01*
X97888248Y-67207422D01*
X98066439Y-67029232D01*
X98066438Y-67029231D01*
X98417164Y-67029231D01*
X98595355Y-67207422D01*
X98728435Y-67074342D01*
X98726112Y-67072358D01*
X98723975Y-67070383D01*
X98629617Y-66976025D01*
X98627642Y-66973888D01*
X98620652Y-66965702D01*
X98618855Y-66963423D01*
X98605682Y-66945293D01*
X98604068Y-66942876D01*
X98598443Y-66933698D01*
X98597022Y-66931162D01*
X98569415Y-66876980D01*
X98417164Y-67029231D01*
X98066438Y-67029231D01*
X97888248Y-66851041D01*
X97710058Y-67029232D01*
X97229232Y-67029232D01*
X97100000Y-66900000D01*
X89700000Y-66900000D01*
X89700000Y-66675678D01*
X97356504Y-66675678D01*
X97534695Y-66853869D01*
X97712885Y-66675678D01*
X98063611Y-66675678D01*
X98241802Y-66853869D01*
X98419992Y-66675678D01*
X98241802Y-66497488D01*
X98063611Y-66675678D01*
X97712885Y-66675678D01*
X97534695Y-66497488D01*
X97356504Y-66675678D01*
X89700000Y-66675678D01*
X89700000Y-66576000D01*
X90385116Y-66576000D01*
X90542139Y-66576000D01*
X91092223Y-66576000D01*
X91249246Y-66576000D01*
X91799329Y-66576000D01*
X91956353Y-66576000D01*
X92506436Y-66576000D01*
X92663460Y-66576000D01*
X93213543Y-66576000D01*
X93370566Y-66576000D01*
X93920650Y-66576000D01*
X94077673Y-66576000D01*
X94627757Y-66576000D01*
X94784780Y-66576000D01*
X95334863Y-66576000D01*
X95491887Y-66576000D01*
X96041970Y-66576000D01*
X96198994Y-66576000D01*
X96749077Y-66576000D01*
X96906100Y-66576000D01*
X96827588Y-66497488D01*
X96749077Y-66576000D01*
X96198994Y-66576000D01*
X96120482Y-66497488D01*
X96041970Y-66576000D01*
X95491887Y-66576000D01*
X95413375Y-66497488D01*
X95334863Y-66576000D01*
X94784780Y-66576000D01*
X94706268Y-66497488D01*
X94627757Y-66576000D01*
X94077673Y-66576000D01*
X93999161Y-66497488D01*
X93920650Y-66576000D01*
X93370566Y-66576000D01*
X93292054Y-66497488D01*
X93213543Y-66576000D01*
X92663460Y-66576000D01*
X92584948Y-66497488D01*
X92506436Y-66576000D01*
X91956353Y-66576000D01*
X91877841Y-66497488D01*
X91799329Y-66576000D01*
X91249246Y-66576000D01*
X91170734Y-66497488D01*
X91092223Y-66576000D01*
X90542139Y-66576000D01*
X90463627Y-66497488D01*
X90385116Y-66576000D01*
X89700000Y-66576000D01*
X89700000Y-66414242D01*
X90024000Y-66414242D01*
X90110074Y-66500316D01*
X90288264Y-66322125D01*
X90638990Y-66322125D01*
X90817181Y-66500316D01*
X90995371Y-66322125D01*
X91346097Y-66322125D01*
X91524287Y-66500315D01*
X91702478Y-66322125D01*
X92053204Y-66322125D01*
X92231394Y-66500315D01*
X92409585Y-66322125D01*
X92760310Y-66322125D01*
X92938501Y-66500315D01*
X93116691Y-66322125D01*
X93467417Y-66322125D01*
X93645608Y-66500316D01*
X93823798Y-66322125D01*
X94174524Y-66322125D01*
X94352715Y-66500316D01*
X94530905Y-66322125D01*
X94881631Y-66322125D01*
X95059821Y-66500315D01*
X95238012Y-66322125D01*
X95588737Y-66322125D01*
X95766928Y-66500315D01*
X95945118Y-66322125D01*
X96295844Y-66322125D01*
X96474035Y-66500316D01*
X96652225Y-66322125D01*
X97002951Y-66322125D01*
X97181142Y-66500316D01*
X97359332Y-66322125D01*
X97710058Y-66322125D01*
X97888248Y-66500315D01*
X98066439Y-66322125D01*
X98417165Y-66322125D01*
X98522349Y-66427309D01*
X98522385Y-66427160D01*
X98523174Y-66424363D01*
X98530099Y-66403048D01*
X98531105Y-66400321D01*
X98534329Y-66392535D01*
X98440542Y-66298748D01*
X98417165Y-66322125D01*
X98066439Y-66322125D01*
X97888248Y-66143934D01*
X97710058Y-66322125D01*
X97359332Y-66322125D01*
X97181142Y-66143934D01*
X97002951Y-66322125D01*
X96652225Y-66322125D01*
X96474035Y-66143934D01*
X96295844Y-66322125D01*
X95945118Y-66322125D01*
X95766928Y-66143934D01*
X95588737Y-66322125D01*
X95238012Y-66322125D01*
X95059821Y-66143934D01*
X94881631Y-66322125D01*
X94530905Y-66322125D01*
X94352715Y-66143934D01*
X94174524Y-66322125D01*
X93823798Y-66322125D01*
X93645608Y-66143934D01*
X93467417Y-66322125D01*
X93116691Y-66322125D01*
X92938501Y-66143934D01*
X92760310Y-66322125D01*
X92409585Y-66322125D01*
X92231394Y-66143934D01*
X92053204Y-66322125D01*
X91702478Y-66322125D01*
X91524287Y-66143934D01*
X91346097Y-66322125D01*
X90995371Y-66322125D01*
X90817181Y-66143934D01*
X90638990Y-66322125D01*
X90288264Y-66322125D01*
X90110073Y-66143934D01*
X90024000Y-66230008D01*
X90024000Y-66414242D01*
X89700000Y-66414242D01*
X89700000Y-66024000D01*
X90340865Y-66024000D01*
X90463627Y-66146762D01*
X90586390Y-66024000D01*
X91047972Y-66024000D01*
X91170734Y-66146762D01*
X91293497Y-66024000D01*
X91755078Y-66024000D01*
X91877841Y-66146763D01*
X92000604Y-66024000D01*
X92462185Y-66024000D01*
X92584948Y-66146763D01*
X92707711Y-66024000D01*
X93169292Y-66024000D01*
X93292054Y-66146762D01*
X93414817Y-66024000D01*
X93876399Y-66024000D01*
X93999161Y-66146762D01*
X94121924Y-66024000D01*
X94583506Y-66024000D01*
X94706268Y-66146762D01*
X94829031Y-66024000D01*
X95290612Y-66024000D01*
X95413375Y-66146763D01*
X95536138Y-66024000D01*
X95997719Y-66024000D01*
X96120482Y-66146763D01*
X96243245Y-66024000D01*
X96704826Y-66024000D01*
X96827588Y-66146762D01*
X96950351Y-66024000D01*
X97411933Y-66024000D01*
X97534695Y-66146762D01*
X97657458Y-66024000D01*
X98119039Y-66024000D01*
X98241801Y-66146762D01*
X98265179Y-66123385D01*
X98165794Y-66024000D01*
X98119039Y-66024000D01*
X97657458Y-66024000D01*
X97411933Y-66024000D01*
X96950351Y-66024000D01*
X96704826Y-66024000D01*
X96243245Y-66024000D01*
X95997719Y-66024000D01*
X95536138Y-66024000D01*
X95290612Y-66024000D01*
X94829031Y-66024000D01*
X94583506Y-66024000D01*
X94121924Y-66024000D01*
X93876399Y-66024000D01*
X93414817Y-66024000D01*
X93169292Y-66024000D01*
X92707711Y-66024000D01*
X92462185Y-66024000D01*
X92000604Y-66024000D01*
X91755078Y-66024000D01*
X91293497Y-66024000D01*
X91047972Y-66024000D01*
X90586390Y-66024000D01*
X90340865Y-66024000D01*
X89700000Y-66024000D01*
X89700000Y-65744251D01*
X90527845Y-65744250D01*
X98313598Y-65744250D01*
X98361164Y-65761563D01*
G37*
%TD.AperFunction*%
%TD*%
%TA.AperFunction,Conductor*%
%TO.N,+VBAT*%
G36*
X124173066Y-69617313D02*
G01*
X124198376Y-69661150D01*
X124199500Y-69674000D01*
X124199500Y-71348149D01*
X124199321Y-71351782D01*
X124186761Y-71479186D01*
X124183930Y-71493411D01*
X124148349Y-71610681D01*
X124142798Y-71624082D01*
X124085019Y-71732168D01*
X124076960Y-71744228D01*
X123999215Y-71838959D01*
X123988959Y-71849215D01*
X123894228Y-71926960D01*
X123882168Y-71935019D01*
X123774082Y-71992798D01*
X123760681Y-71998349D01*
X123643411Y-72033930D01*
X123629186Y-72036761D01*
X123501782Y-72049321D01*
X123498149Y-72049500D01*
X121700000Y-72049500D01*
X121700000Y-69600000D01*
X124125500Y-69600000D01*
X124173066Y-69617313D01*
G37*
%TD.AperFunction*%
%TD*%
%TA.AperFunction,Conductor*%
%TO.N,+VBAT*%
G36*
X115244500Y-64572746D02*
G01*
X115244930Y-64582590D01*
X115259350Y-64641513D01*
X115280741Y-64687389D01*
X115311719Y-64731629D01*
X115422826Y-64842736D01*
X115444218Y-64888612D01*
X115444500Y-64895062D01*
X115444500Y-65725500D01*
X115427187Y-65773066D01*
X115383350Y-65798376D01*
X115370500Y-65799500D01*
X115280180Y-65799500D01*
X115258229Y-65803866D01*
X115236277Y-65808233D01*
X115186496Y-65841495D01*
X115186495Y-65841496D01*
X115153233Y-65891277D01*
X115144500Y-65935180D01*
X115144500Y-66326000D01*
X115127187Y-66373566D01*
X115083350Y-66398876D01*
X115070500Y-66400000D01*
X115019500Y-66400000D01*
X114971934Y-66382687D01*
X114946624Y-66338850D01*
X114945500Y-66326000D01*
X114945500Y-66274892D01*
X114949581Y-66255690D01*
X114948883Y-66255542D01*
X114950500Y-66247934D01*
X114950500Y-65610072D01*
X114967813Y-65562506D01*
X115004737Y-65541187D01*
X115004124Y-65539299D01*
X115009659Y-65537500D01*
X115009661Y-65537500D01*
X115108587Y-65487095D01*
X115187095Y-65408587D01*
X115237500Y-65309661D01*
X115254869Y-65200000D01*
X115237500Y-65090339D01*
X115187095Y-64991413D01*
X115108587Y-64912905D01*
X115060909Y-64888612D01*
X115009660Y-64862499D01*
X114900000Y-64845131D01*
X114790339Y-64862499D01*
X114691410Y-64912906D01*
X114687996Y-64915387D01*
X114639338Y-64929340D01*
X114593095Y-64908751D01*
X114570905Y-64863255D01*
X114570500Y-64855520D01*
X114570500Y-62018359D01*
X114560338Y-61941167D01*
X114542687Y-61807099D01*
X114487538Y-61601278D01*
X114445587Y-61500000D01*
X115244500Y-61500000D01*
X115244500Y-64572746D01*
G37*
%TD.AperFunction*%
%TD*%
%TA.AperFunction,Conductor*%
%TO.N,+3V3*%
G36*
X110300000Y-59500000D02*
G01*
X112978326Y-62178326D01*
X112999718Y-62224202D01*
X113000000Y-62230652D01*
X113000000Y-62300000D01*
X112469511Y-62300000D01*
X112469096Y-62296436D01*
X112467585Y-62263717D01*
X112462441Y-62252069D01*
X112457398Y-62235779D01*
X112455061Y-62223276D01*
X112437821Y-62195432D01*
X112435436Y-62190905D01*
X112422206Y-62160944D01*
X112413207Y-62151945D01*
X112402615Y-62138572D01*
X112395920Y-62127758D01*
X112395919Y-62127757D01*
X112369784Y-62108021D01*
X112365920Y-62104658D01*
X109822174Y-59560912D01*
X109800782Y-59515036D01*
X109800500Y-59508586D01*
X109800500Y-56402240D01*
X109800813Y-56400000D01*
X110300000Y-56400000D01*
X110300000Y-59500000D01*
G37*
%TD.AperFunction*%
%TD*%
%TA.AperFunction,Conductor*%
%TO.N,+1V8*%
G36*
X104300000Y-67100000D02*
G01*
X105478326Y-68278326D01*
X105499718Y-68324202D01*
X105500000Y-68330652D01*
X105500000Y-69400000D01*
X105700000Y-69600000D01*
X106426000Y-69600000D01*
X106473566Y-69617313D01*
X106498876Y-69661150D01*
X106500000Y-69674000D01*
X106500000Y-72569348D01*
X106482687Y-72616914D01*
X106478326Y-72621674D01*
X106221674Y-72878326D01*
X106175798Y-72899718D01*
X106169348Y-72900000D01*
X105374000Y-72900000D01*
X105326434Y-72882687D01*
X105301124Y-72838850D01*
X105300000Y-72826000D01*
X105300000Y-70840000D01*
X105216727Y-70840000D01*
X105169161Y-70822687D01*
X105143851Y-70778850D01*
X105152641Y-70729000D01*
X105183132Y-70700066D01*
X105200376Y-70691278D01*
X105208587Y-70687095D01*
X105287095Y-70608587D01*
X105337500Y-70509661D01*
X105354869Y-70400000D01*
X105337500Y-70290339D01*
X105287095Y-70191413D01*
X105208587Y-70112905D01*
X105206357Y-70111769D01*
X105109660Y-70062499D01*
X105000000Y-70045131D01*
X104890339Y-70062499D01*
X104791412Y-70112905D01*
X104712905Y-70191412D01*
X104662499Y-70290340D01*
X104662085Y-70292958D01*
X104660881Y-70295320D01*
X104660701Y-70295875D01*
X104660613Y-70295846D01*
X104641325Y-70333702D01*
X104626328Y-70348700D01*
X104580452Y-70370094D01*
X104531557Y-70356995D01*
X104502522Y-70315531D01*
X104500000Y-70296376D01*
X104500000Y-68700000D01*
X103221674Y-67421674D01*
X103200282Y-67375798D01*
X103200000Y-67369348D01*
X103200000Y-65700000D01*
X104300000Y-65700000D01*
X104300000Y-67100000D01*
G37*
%TD.AperFunction*%
%TD*%
%TA.AperFunction,Conductor*%
%TO.N,+1V8*%
G36*
X113199500Y-57945766D02*
G01*
X113197547Y-57957743D01*
X113198174Y-57957831D01*
X113197226Y-57964619D01*
X113198648Y-57995363D01*
X113199461Y-58012956D01*
X113199500Y-58014641D01*
X113199500Y-58034704D01*
X113200311Y-58039040D01*
X113200903Y-58044135D01*
X113202415Y-58076848D01*
X113207554Y-58088486D01*
X113212600Y-58104777D01*
X113214938Y-58117286D01*
X113214939Y-58117287D01*
X113232175Y-58145128D01*
X113234566Y-58149663D01*
X113247794Y-58179619D01*
X113247795Y-58179620D01*
X113256793Y-58188618D01*
X113267380Y-58201984D01*
X113274081Y-58212806D01*
X113274082Y-58212807D01*
X113300212Y-58232540D01*
X113304082Y-58235907D01*
X115847826Y-60779651D01*
X115869218Y-60825527D01*
X115869500Y-60831977D01*
X115869500Y-61000000D01*
X115400000Y-61000000D01*
X112721674Y-58321674D01*
X112700282Y-58275798D01*
X112700000Y-58269348D01*
X112700000Y-56400000D01*
X113199500Y-56400000D01*
X113199500Y-57945766D01*
G37*
%TD.AperFunction*%
%TD*%
%TA.AperFunction,Conductor*%
%TO.N,+3V3*%
G36*
X107696675Y-56318010D02*
G01*
X107695598Y-56321792D01*
X107699342Y-56362183D01*
X107699500Y-56365599D01*
X107699500Y-65700000D01*
X106700000Y-65700000D01*
X106683117Y-65683117D01*
X106681934Y-65682687D01*
X106680905Y-65680905D01*
X106678326Y-65678326D01*
X106679017Y-65677634D01*
X106656624Y-65638850D01*
X106655500Y-65626000D01*
X106655500Y-65242640D01*
X107052399Y-65242640D01*
X107185759Y-65376000D01*
X107275421Y-65376000D01*
X107408780Y-65242640D01*
X107230590Y-65064449D01*
X107052399Y-65242640D01*
X106655500Y-65242640D01*
X106655500Y-64966408D01*
X106977905Y-64966408D01*
X107055226Y-64889087D01*
X107405953Y-64889087D01*
X107451500Y-64934634D01*
X107451500Y-64843540D01*
X107405953Y-64889087D01*
X107055226Y-64889087D01*
X107055227Y-64889086D01*
X106978723Y-64812582D01*
X106977905Y-64966408D01*
X106655500Y-64966408D01*
X106655500Y-64666000D01*
X106656194Y-64535533D01*
X107052399Y-64535533D01*
X107230590Y-64713724D01*
X107408780Y-64535533D01*
X107230590Y-64357343D01*
X107052399Y-64535533D01*
X106656194Y-64535533D01*
X106657683Y-64255520D01*
X106981687Y-64255520D01*
X107055227Y-64181980D01*
X107405953Y-64181980D01*
X107451500Y-64227527D01*
X107451500Y-64136433D01*
X107405953Y-64181980D01*
X107055227Y-64181980D01*
X106982465Y-64109217D01*
X106981687Y-64255520D01*
X106657683Y-64255520D01*
X106659955Y-63828427D01*
X107052399Y-63828427D01*
X107230590Y-64006617D01*
X107408781Y-63828427D01*
X107230590Y-63650236D01*
X107052399Y-63828427D01*
X106659955Y-63828427D01*
X106661464Y-63544632D01*
X106985468Y-63544632D01*
X107055227Y-63474873D01*
X107405953Y-63474873D01*
X107451500Y-63520420D01*
X107451500Y-63429327D01*
X107405953Y-63474873D01*
X107055227Y-63474873D01*
X106986206Y-63405852D01*
X106985468Y-63544632D01*
X106661464Y-63544632D01*
X106663715Y-63121320D01*
X107052399Y-63121320D01*
X107230590Y-63299510D01*
X107408781Y-63121320D01*
X107230590Y-62943129D01*
X107052399Y-63121320D01*
X106663715Y-63121320D01*
X106665245Y-62833744D01*
X106989249Y-62833744D01*
X107055227Y-62767766D01*
X107405953Y-62767766D01*
X107451500Y-62813313D01*
X107451500Y-62722220D01*
X107405953Y-62767766D01*
X107055227Y-62767766D01*
X106989947Y-62702486D01*
X106989249Y-62833744D01*
X106665245Y-62833744D01*
X106667476Y-62414213D01*
X107052399Y-62414213D01*
X107230590Y-62592403D01*
X107408780Y-62414213D01*
X107230590Y-62236022D01*
X107052399Y-62414213D01*
X106667476Y-62414213D01*
X106669026Y-62122856D01*
X106993031Y-62122856D01*
X107055226Y-62060660D01*
X107405953Y-62060660D01*
X107451500Y-62106207D01*
X107451500Y-62015113D01*
X107405953Y-62060660D01*
X107055226Y-62060660D01*
X107055227Y-62060659D01*
X106993689Y-61999121D01*
X106993031Y-62122856D01*
X106669026Y-62122856D01*
X106671237Y-61707106D01*
X107052399Y-61707106D01*
X107230590Y-61885297D01*
X107408780Y-61707106D01*
X107230590Y-61528916D01*
X107052399Y-61707106D01*
X106671237Y-61707106D01*
X106672807Y-61411967D01*
X106996812Y-61411967D01*
X107055226Y-61353553D01*
X107405953Y-61353553D01*
X107451500Y-61399100D01*
X107451500Y-61308006D01*
X107405953Y-61353553D01*
X107055226Y-61353553D01*
X107055227Y-61353552D01*
X106997430Y-61295755D01*
X106996812Y-61411967D01*
X106672807Y-61411967D01*
X106674999Y-60999999D01*
X107052399Y-60999999D01*
X107230590Y-61178190D01*
X107408780Y-60999999D01*
X107230590Y-60821809D01*
X107052399Y-60999999D01*
X106674999Y-60999999D01*
X106676589Y-60701079D01*
X107000593Y-60701079D01*
X107055227Y-60646446D01*
X107405953Y-60646446D01*
X107451500Y-60691993D01*
X107451500Y-60600899D01*
X107405953Y-60646446D01*
X107055227Y-60646446D01*
X107001171Y-60592390D01*
X107000593Y-60701079D01*
X106676589Y-60701079D01*
X106678760Y-60292893D01*
X107052399Y-60292893D01*
X107230590Y-60471083D01*
X107408781Y-60292893D01*
X107230590Y-60114702D01*
X107052399Y-60292893D01*
X106678760Y-60292893D01*
X106680370Y-59990192D01*
X107004374Y-59990192D01*
X107055227Y-59939339D01*
X107405953Y-59939339D01*
X107451500Y-59984886D01*
X107451500Y-59893793D01*
X107405953Y-59939339D01*
X107055227Y-59939339D01*
X107004912Y-59889024D01*
X107004374Y-59990192D01*
X106680370Y-59990192D01*
X106682521Y-59585786D01*
X107052399Y-59585786D01*
X107230590Y-59763976D01*
X107408780Y-59585786D01*
X107230590Y-59407595D01*
X107052399Y-59585786D01*
X106682521Y-59585786D01*
X106684152Y-59279304D01*
X107008156Y-59279304D01*
X107055226Y-59232233D01*
X107405953Y-59232233D01*
X107451500Y-59277780D01*
X107451500Y-59186686D01*
X107405953Y-59232233D01*
X107055226Y-59232233D01*
X107055227Y-59232232D01*
X107008654Y-59185659D01*
X107008156Y-59279304D01*
X106684152Y-59279304D01*
X106686283Y-58878679D01*
X107052399Y-58878679D01*
X107230590Y-59056869D01*
X107408780Y-58878679D01*
X107230590Y-58700488D01*
X107052399Y-58878679D01*
X106686283Y-58878679D01*
X106687933Y-58568415D01*
X107011937Y-58568415D01*
X107055226Y-58525126D01*
X107405953Y-58525126D01*
X107451500Y-58570673D01*
X107451500Y-58479579D01*
X107405953Y-58525126D01*
X107055226Y-58525126D01*
X107055227Y-58525125D01*
X107012395Y-58482293D01*
X107011937Y-58568415D01*
X106687933Y-58568415D01*
X106690044Y-58171572D01*
X107052399Y-58171572D01*
X107230590Y-58349763D01*
X107408780Y-58171572D01*
X107230590Y-57993382D01*
X107052399Y-58171572D01*
X106690044Y-58171572D01*
X106691925Y-57818019D01*
X107405953Y-57818019D01*
X107451500Y-57863566D01*
X107451500Y-57772472D01*
X107405953Y-57818019D01*
X106691925Y-57818019D01*
X106693806Y-57464466D01*
X107052399Y-57464466D01*
X107230590Y-57642656D01*
X107408781Y-57464466D01*
X107230590Y-57286275D01*
X107052399Y-57464466D01*
X106693806Y-57464466D01*
X106695687Y-57110912D01*
X107405953Y-57110912D01*
X107451500Y-57156459D01*
X107451500Y-57065365D01*
X107405953Y-57110912D01*
X106695687Y-57110912D01*
X106697567Y-56757358D01*
X107052399Y-56757358D01*
X107230590Y-56935549D01*
X107408781Y-56757359D01*
X107275422Y-56624000D01*
X107185758Y-56624000D01*
X107052399Y-56757358D01*
X106697567Y-56757358D01*
X106700000Y-56300000D01*
X107699187Y-56300000D01*
X107696675Y-56318010D01*
G37*
%TD.AperFunction*%
%TD*%
%TA.AperFunction,Conductor*%
%TO.N,VBUS*%
G36*
X111074500Y-58526640D02*
G01*
X111102311Y-58737894D01*
X111102313Y-58737903D01*
X111157461Y-58943715D01*
X111157465Y-58943728D01*
X111239004Y-59140581D01*
X111239005Y-59140583D01*
X111345544Y-59325115D01*
X111345548Y-59325121D01*
X111475258Y-59494162D01*
X111475263Y-59494168D01*
X111496047Y-59514951D01*
X111510611Y-59529515D01*
X111510613Y-59529518D01*
X111516704Y-59535609D01*
X111516705Y-59535611D01*
X112587957Y-60606862D01*
X113541367Y-61560272D01*
X113543807Y-61562964D01*
X113634345Y-61673289D01*
X113642405Y-61685350D01*
X113707103Y-61806395D01*
X113712654Y-61819798D01*
X113752494Y-61951139D01*
X113755324Y-61965367D01*
X113769321Y-62107500D01*
X113769499Y-62111129D01*
X113769499Y-62162676D01*
X113769500Y-62162685D01*
X113769500Y-62200000D01*
X113200000Y-62200000D01*
X113134291Y-62134291D01*
X113121014Y-62115328D01*
X113120874Y-62115410D01*
X113119946Y-62113804D01*
X113119549Y-62113236D01*
X113119256Y-62112608D01*
X113088283Y-62068373D01*
X110477174Y-59457264D01*
X110455782Y-59411388D01*
X110455500Y-59404938D01*
X110455500Y-56400000D01*
X111074500Y-56400000D01*
X111074500Y-58526640D01*
G37*
%TD.AperFunction*%
%TD*%
%TA.AperFunction,Conductor*%
%TO.N,+1V8*%
G36*
X106393557Y-52168415D02*
G01*
X107285677Y-52222131D01*
X108174928Y-52311562D01*
X109059879Y-52436564D01*
X109939109Y-52596935D01*
X110811204Y-52792420D01*
X111674763Y-53022702D01*
X112528398Y-53287413D01*
X113370737Y-53586126D01*
X114191947Y-53914966D01*
X114246865Y-53958161D01*
X114269712Y-54024190D01*
X114253234Y-54092089D01*
X114202663Y-54140300D01*
X114181847Y-54148741D01*
X114096043Y-54174769D01*
X114032523Y-54208722D01*
X113913550Y-54272315D01*
X113913548Y-54272316D01*
X113913547Y-54272317D01*
X113753589Y-54403589D01*
X113622317Y-54563547D01*
X113524769Y-54746043D01*
X113464699Y-54944067D01*
X113444417Y-55150000D01*
X113464699Y-55355932D01*
X113524769Y-55553956D01*
X113622317Y-55736453D01*
X113712905Y-55846835D01*
X113740218Y-55911145D01*
X113728427Y-55980013D01*
X113681275Y-56031573D01*
X113617052Y-56049500D01*
X113559215Y-56049500D01*
X113537257Y-56046437D01*
X113528207Y-56045598D01*
X113488964Y-56049235D01*
X113483241Y-56049500D01*
X113472151Y-56049500D01*
X113461256Y-56051536D01*
X113455588Y-56052327D01*
X113416339Y-56055964D01*
X113407644Y-56058438D01*
X113398008Y-56061668D01*
X113389563Y-56064939D01*
X113356060Y-56085683D01*
X113351058Y-56088470D01*
X113315770Y-56106042D01*
X113308547Y-56111496D01*
X113300751Y-56117970D01*
X113294044Y-56124085D01*
X113270300Y-56155526D01*
X113266642Y-56159932D01*
X113240085Y-56189064D01*
X113235322Y-56196756D01*
X113230385Y-56205620D01*
X113226343Y-56213738D01*
X113215559Y-56251639D01*
X113213739Y-56257070D01*
X113199499Y-56293827D01*
X113197829Y-56302762D01*
X113196437Y-56312745D01*
X113195598Y-56321792D01*
X113199235Y-56361035D01*
X113199500Y-56366758D01*
X113199500Y-56400000D01*
X112700000Y-56400000D01*
X112700000Y-55951362D01*
X112719685Y-55884323D01*
X112736319Y-55863681D01*
X112798270Y-55801730D01*
X112900000Y-55700000D01*
X112900000Y-54200000D01*
X112500000Y-53800000D01*
X109251362Y-53800000D01*
X109184323Y-53780315D01*
X109163681Y-53763681D01*
X108200000Y-52800000D01*
X102700000Y-52800000D01*
X102699999Y-52800000D01*
X102100000Y-53399999D01*
X102100000Y-53400000D01*
X102100000Y-55000000D01*
X102800000Y-55700000D01*
X103348638Y-55700000D01*
X103415677Y-55719685D01*
X103436319Y-55736319D01*
X104000000Y-56300000D01*
X103297154Y-56300000D01*
X103294035Y-56266339D01*
X103291548Y-56257599D01*
X103288350Y-56248059D01*
X103285061Y-56239570D01*
X103285061Y-56239567D01*
X103285059Y-56239564D01*
X103285058Y-56239561D01*
X103264312Y-56206056D01*
X103261530Y-56201064D01*
X103243958Y-56165772D01*
X103243956Y-56165770D01*
X103243955Y-56165768D01*
X103238475Y-56158511D01*
X103232061Y-56150786D01*
X103225916Y-56144045D01*
X103194463Y-56120294D01*
X103190054Y-56116632D01*
X103184420Y-56111496D01*
X103160933Y-56090084D01*
X103160931Y-56090083D01*
X103160929Y-56090081D01*
X103153232Y-56085315D01*
X103144390Y-56080390D01*
X103136264Y-56076343D01*
X103098366Y-56065560D01*
X103092935Y-56063740D01*
X103056172Y-56049499D01*
X103047236Y-56047829D01*
X103037257Y-56046437D01*
X103028207Y-56045598D01*
X102988964Y-56049235D01*
X102983241Y-56049500D01*
X97382948Y-56049500D01*
X97315909Y-56029815D01*
X97270154Y-55977011D01*
X97260210Y-55907853D01*
X97287095Y-55846835D01*
X97300138Y-55830941D01*
X97377685Y-55736450D01*
X97475232Y-55553954D01*
X97535300Y-55355934D01*
X97555583Y-55150000D01*
X97535300Y-54944066D01*
X97475232Y-54746046D01*
X97377685Y-54563550D01*
X97318373Y-54491278D01*
X97246410Y-54403589D01*
X97086452Y-54272317D01*
X97086453Y-54272317D01*
X97086450Y-54272315D01*
X96903954Y-54174768D01*
X96818150Y-54148740D01*
X96759713Y-54110443D01*
X96731257Y-54046631D01*
X96741817Y-53977564D01*
X96788041Y-53925171D01*
X96808052Y-53914966D01*
X96970292Y-53850000D01*
X97629263Y-53586126D01*
X98471602Y-53287413D01*
X99325237Y-53022702D01*
X100188796Y-52792420D01*
X101060891Y-52596935D01*
X101940121Y-52436564D01*
X102825072Y-52311562D01*
X103714323Y-52222131D01*
X104606443Y-52168415D01*
X105500000Y-52150500D01*
X106393557Y-52168415D01*
G37*
%TD.AperFunction*%
%TD*%
%TA.AperFunction,Conductor*%
%TO.N,+3V3*%
G36*
X110116914Y-55817313D02*
G01*
X110121674Y-55821674D01*
X110278326Y-55978326D01*
X110299718Y-56024202D01*
X110300000Y-56030652D01*
X110300000Y-56400000D01*
X109800813Y-56400000D01*
X109803326Y-56381986D01*
X109804401Y-56378207D01*
X109800657Y-56337811D01*
X109800500Y-56334399D01*
X109800500Y-56322156D01*
X109800499Y-56322152D01*
X109798520Y-56311567D01*
X109798246Y-56310104D01*
X109797780Y-56306758D01*
X109794035Y-56266340D01*
X109792552Y-56263361D01*
X109792279Y-56262812D01*
X109785783Y-56243429D01*
X109785061Y-56239568D01*
X109785061Y-56239567D01*
X109763697Y-56205063D01*
X109762049Y-56202105D01*
X109743958Y-56165772D01*
X109743955Y-56165769D01*
X109741050Y-56163120D01*
X109727991Y-56147394D01*
X109725919Y-56144048D01*
X109699478Y-56124081D01*
X109693538Y-56119595D01*
X109690926Y-56117427D01*
X109674994Y-56102903D01*
X109660933Y-56090083D01*
X109657261Y-56088661D01*
X109639401Y-56078713D01*
X109636263Y-56076343D01*
X109597247Y-56065242D01*
X109594006Y-56064156D01*
X109556174Y-56049500D01*
X109556173Y-56049500D01*
X109552240Y-56049500D01*
X109531989Y-56046675D01*
X109531024Y-56046400D01*
X109528206Y-56045598D01*
X109495761Y-56048605D01*
X109487810Y-56049342D01*
X109484400Y-56049500D01*
X108052240Y-56049500D01*
X108031989Y-56046675D01*
X108031024Y-56046400D01*
X108028206Y-56045598D01*
X107995761Y-56048605D01*
X107987810Y-56049342D01*
X107984400Y-56049500D01*
X107972156Y-56049500D01*
X107960114Y-56051749D01*
X107956733Y-56052221D01*
X107916344Y-56055964D01*
X107916334Y-56055966D01*
X107912804Y-56057724D01*
X107893439Y-56064214D01*
X107889569Y-56064937D01*
X107889564Y-56064939D01*
X107855073Y-56086295D01*
X107852088Y-56087958D01*
X107815773Y-56106041D01*
X107813120Y-56108951D01*
X107797397Y-56122007D01*
X107794048Y-56124080D01*
X107794047Y-56124081D01*
X107769596Y-56156458D01*
X107767413Y-56159087D01*
X107740083Y-56189067D01*
X107738660Y-56192741D01*
X107728720Y-56210588D01*
X107726344Y-56213735D01*
X107715240Y-56252757D01*
X107714154Y-56255997D01*
X107699500Y-56293827D01*
X107699500Y-56297759D01*
X107699187Y-56300000D01*
X106700000Y-56300000D01*
X106700000Y-56030652D01*
X106717313Y-55983086D01*
X106721674Y-55978326D01*
X106878326Y-55821674D01*
X106924202Y-55800282D01*
X106930652Y-55800000D01*
X110069348Y-55800000D01*
X110116914Y-55817313D01*
G37*
%TD.AperFunction*%
%TD*%
%TA.AperFunction,Conductor*%
%TO.N,+3V3*%
G36*
X113000000Y-64469348D02*
G01*
X112982687Y-64516914D01*
X112978326Y-64521674D01*
X112800000Y-64700000D01*
X112800000Y-65759509D01*
X112782687Y-65807075D01*
X112767113Y-65821037D01*
X112736497Y-65841494D01*
X112736495Y-65841496D01*
X112703233Y-65891277D01*
X112694500Y-65935180D01*
X112694500Y-66283097D01*
X112677187Y-66330663D01*
X112633350Y-66355973D01*
X112620500Y-66357097D01*
X112600870Y-66357097D01*
X112600367Y-66357124D01*
X112573985Y-66357119D01*
X112526422Y-66339797D01*
X112501122Y-66295954D01*
X112500000Y-66283119D01*
X112500000Y-65300000D01*
X112492174Y-65292174D01*
X112470782Y-65246298D01*
X112470500Y-65239848D01*
X112470500Y-62394798D01*
X112472454Y-62382824D01*
X112471826Y-62382737D01*
X112472773Y-62375946D01*
X112472773Y-62375944D01*
X112470538Y-62327606D01*
X112470500Y-62325920D01*
X112470500Y-62305866D01*
X112469688Y-62301526D01*
X112469511Y-62300000D01*
X113000000Y-62300000D01*
X113000000Y-64469348D01*
G37*
%TD.AperFunction*%
%TD*%
%TA.AperFunction,Conductor*%
%TO.N,GND*%
G36*
X123501806Y-66650678D02*
G01*
X123525514Y-66653013D01*
X123629217Y-66663227D01*
X123643435Y-66666055D01*
X123760717Y-66701631D01*
X123774112Y-66707180D01*
X123882193Y-66764951D01*
X123894254Y-66773010D01*
X123988986Y-66850755D01*
X123999244Y-66861013D01*
X124076989Y-66955745D01*
X124085048Y-66967806D01*
X124142817Y-67075883D01*
X124148369Y-67089286D01*
X124183943Y-67206559D01*
X124186773Y-67220786D01*
X124199322Y-67348192D01*
X124199500Y-67351821D01*
X124199500Y-69326000D01*
X124182187Y-69373566D01*
X124138350Y-69398876D01*
X124125500Y-69400000D01*
X121774000Y-69400000D01*
X121726434Y-69382687D01*
X121701124Y-69338850D01*
X121700000Y-69326000D01*
X121700000Y-68876541D01*
X121704853Y-68852157D01*
X121704322Y-68851985D01*
X121768474Y-68654544D01*
X121768474Y-68654541D01*
X121768477Y-68654534D01*
X121800500Y-68452352D01*
X121800500Y-68350000D01*
X121800500Y-68302405D01*
X121800500Y-67351821D01*
X121800678Y-67348193D01*
X121803242Y-67322156D01*
X121813227Y-67220780D01*
X121816054Y-67206566D01*
X121851632Y-67089278D01*
X121857178Y-67075890D01*
X121914954Y-66967800D01*
X121923006Y-66955749D01*
X122000756Y-66861011D01*
X122011013Y-66850755D01*
X122105749Y-66773006D01*
X122117800Y-66764954D01*
X122225890Y-66707178D01*
X122239278Y-66701632D01*
X122356566Y-66666054D01*
X122370780Y-66663227D01*
X122477605Y-66652705D01*
X122498194Y-66650678D01*
X122501822Y-66650500D01*
X122547595Y-66650500D01*
X123452405Y-66650500D01*
X123498178Y-66650500D01*
X123501806Y-66650678D01*
G37*
%TD.AperFunction*%
%TD*%
%TA.AperFunction,Conductor*%
%TO.N,+3V3*%
G36*
X107699500Y-67296642D02*
G01*
X107699494Y-67296720D01*
X107699495Y-67319268D01*
X107699475Y-67319322D01*
X107699484Y-67489096D01*
X107699729Y-67491105D01*
X107700000Y-67495575D01*
X107700000Y-73069348D01*
X107682687Y-73116914D01*
X107678326Y-73121674D01*
X107300000Y-73500000D01*
X107300000Y-74326000D01*
X107282687Y-74373566D01*
X107238850Y-74398876D01*
X107226000Y-74400000D01*
X106174000Y-74400000D01*
X106126434Y-74382687D01*
X106101124Y-74338850D01*
X106100000Y-74326000D01*
X106100000Y-73330652D01*
X106117313Y-73283086D01*
X106121674Y-73278326D01*
X106700000Y-72700000D01*
X106700000Y-65700000D01*
X107699500Y-65700000D01*
X107699500Y-67296642D01*
G37*
%TD.AperFunction*%
%TD*%
%TA.AperFunction,Conductor*%
%TO.N,+VBAT*%
G36*
X108412914Y-69017313D02*
G01*
X108414395Y-69018589D01*
X108578662Y-69164117D01*
X108581060Y-69165772D01*
X108807693Y-69322209D01*
X108807696Y-69322210D01*
X108807701Y-69322214D01*
X109054125Y-69451552D01*
X109314341Y-69550247D01*
X109584556Y-69616859D01*
X109760155Y-69638187D01*
X109860826Y-69650416D01*
X109860827Y-69650416D01*
X109860838Y-69650416D01*
X109936564Y-69650419D01*
X109937426Y-69650500D01*
X113300000Y-69650500D01*
X113300000Y-72100000D01*
X112576815Y-72100000D01*
X112529249Y-72082687D01*
X112506002Y-72047482D01*
X112475232Y-71946046D01*
X112377685Y-71763550D01*
X112246410Y-71603590D01*
X112086450Y-71472315D01*
X111903954Y-71374768D01*
X111792158Y-71340855D01*
X111705935Y-71314700D01*
X111500000Y-71294417D01*
X111294064Y-71314700D01*
X111096043Y-71374769D01*
X110913549Y-71472315D01*
X110753590Y-71603589D01*
X110753589Y-71603590D01*
X110622315Y-71763549D01*
X110524769Y-71946043D01*
X110524768Y-71946045D01*
X110524768Y-71946046D01*
X110493997Y-72047482D01*
X110463624Y-72087973D01*
X110423185Y-72100000D01*
X107974000Y-72100000D01*
X107926434Y-72082687D01*
X107901124Y-72038850D01*
X107900000Y-72026000D01*
X107900000Y-69074000D01*
X107917313Y-69026434D01*
X107961150Y-69001124D01*
X107974000Y-69000000D01*
X108365348Y-69000000D01*
X108412914Y-69017313D01*
G37*
%TD.AperFunction*%
%TD*%
%TA.AperFunction,Conductor*%
%TO.N,VBUS*%
G36*
X105723566Y-54567313D02*
G01*
X105748876Y-54611150D01*
X105750000Y-54624000D01*
X105750000Y-55200000D01*
X107179439Y-55200000D01*
X107209536Y-55206397D01*
X107220197Y-55211144D01*
X107220198Y-55211144D01*
X107220200Y-55211145D01*
X107336897Y-55235949D01*
X107405354Y-55250500D01*
X107405355Y-55250500D01*
X107594645Y-55250500D01*
X107594646Y-55250500D01*
X107750780Y-55217313D01*
X107779799Y-55211145D01*
X107779799Y-55211144D01*
X107779803Y-55211144D01*
X107790463Y-55206397D01*
X107820561Y-55200000D01*
X110669348Y-55200000D01*
X110716914Y-55217313D01*
X110721674Y-55221674D01*
X111052826Y-55552826D01*
X111074218Y-55598702D01*
X111074500Y-55605152D01*
X111074500Y-56400000D01*
X110455500Y-56400000D01*
X110455500Y-56027254D01*
X110455070Y-56017410D01*
X110440649Y-55958486D01*
X110430811Y-55937387D01*
X110419258Y-55912610D01*
X110388280Y-55868370D01*
X110229224Y-55709314D01*
X110221959Y-55702658D01*
X110180503Y-55677503D01*
X110166565Y-55666565D01*
X110150000Y-55650000D01*
X110107015Y-55650000D01*
X110094165Y-55648876D01*
X110069351Y-55644500D01*
X110069348Y-55644500D01*
X106927254Y-55644500D01*
X106917409Y-55644930D01*
X106909744Y-55646806D01*
X106905359Y-55647879D01*
X106887770Y-55650000D01*
X106307015Y-55650000D01*
X106294165Y-55648876D01*
X106269351Y-55644500D01*
X106269348Y-55644500D01*
X104295062Y-55644500D01*
X104247496Y-55627187D01*
X104242736Y-55622826D01*
X104061371Y-55441461D01*
X103779074Y-55159164D01*
X103779067Y-55159158D01*
X103779068Y-55159158D01*
X103761611Y-55144117D01*
X103761610Y-55144116D01*
X103744023Y-55131103D01*
X103735937Y-55127795D01*
X103711632Y-55111632D01*
X103652326Y-55052326D01*
X103630934Y-55006450D01*
X103644035Y-54957555D01*
X103652326Y-54947674D01*
X103951545Y-54648454D01*
X103997420Y-54627063D01*
X104046315Y-54640164D01*
X104052025Y-54644593D01*
X104700000Y-55200000D01*
X105250000Y-55200000D01*
X105250000Y-54624000D01*
X105267313Y-54576434D01*
X105311150Y-54551124D01*
X105324000Y-54550000D01*
X105676000Y-54550000D01*
X105723566Y-54567313D01*
G37*
%TD.AperFunction*%
%TD*%
%TA.AperFunction,Conductor*%
%TO.N,+VBAT*%
G36*
X106500000Y-65700000D02*
G01*
X104455500Y-65700000D01*
X104455500Y-65301819D01*
X105174889Y-65301819D01*
X105202954Y-65356901D01*
X105209160Y-65376000D01*
X105297641Y-65376000D01*
X105807816Y-65376000D01*
X106004747Y-65376000D01*
X105906281Y-65277534D01*
X105807816Y-65376000D01*
X105297641Y-65376000D01*
X105199175Y-65277534D01*
X105174889Y-65301819D01*
X104455500Y-65301819D01*
X104455500Y-65102171D01*
X105374537Y-65102171D01*
X105552728Y-65280362D01*
X105730918Y-65102171D01*
X106081644Y-65102171D01*
X106176000Y-65196527D01*
X106176000Y-65007816D01*
X106081644Y-65102171D01*
X105730918Y-65102171D01*
X105552728Y-64923981D01*
X105374537Y-65102171D01*
X104455500Y-65102171D01*
X104455500Y-64634987D01*
X105134614Y-64634987D01*
X105139012Y-64639385D01*
X105152621Y-64658116D01*
X105202954Y-64756901D01*
X105210108Y-64778920D01*
X105227452Y-64888424D01*
X105227452Y-64898532D01*
X105377366Y-64748618D01*
X105728091Y-64748618D01*
X105906281Y-64926808D01*
X106084472Y-64748618D01*
X105906281Y-64570427D01*
X105728091Y-64748618D01*
X105377366Y-64748618D01*
X105199174Y-64570426D01*
X105134614Y-64634987D01*
X104455500Y-64634987D01*
X104455500Y-64451634D01*
X104724000Y-64451634D01*
X104750862Y-64478496D01*
X104788424Y-64472548D01*
X104811576Y-64472548D01*
X104921080Y-64489892D01*
X104927046Y-64491830D01*
X105023811Y-64395065D01*
X105374537Y-64395065D01*
X105552728Y-64573255D01*
X105730919Y-64395065D01*
X106081644Y-64395065D01*
X106176000Y-64489421D01*
X106176000Y-64300709D01*
X106081644Y-64395065D01*
X105730919Y-64395065D01*
X105552728Y-64216874D01*
X105374537Y-64395065D01*
X105023811Y-64395065D01*
X105023812Y-64395064D01*
X104845621Y-64216874D01*
X104724000Y-64338496D01*
X104724000Y-64451634D01*
X104455500Y-64451634D01*
X104455500Y-64041511D01*
X105020984Y-64041511D01*
X105199175Y-64219702D01*
X105377365Y-64041511D01*
X105728091Y-64041511D01*
X105906281Y-64219701D01*
X106084472Y-64041511D01*
X105906281Y-63863320D01*
X105728091Y-64041511D01*
X105377365Y-64041511D01*
X105199175Y-63863320D01*
X105020984Y-64041511D01*
X104455500Y-64041511D01*
X104455500Y-63744527D01*
X104724000Y-63744527D01*
X104845621Y-63866148D01*
X105023812Y-63687958D01*
X105374537Y-63687958D01*
X105552728Y-63866148D01*
X105730919Y-63687958D01*
X106081644Y-63687958D01*
X106176000Y-63782314D01*
X106176000Y-63593602D01*
X106081644Y-63687958D01*
X105730919Y-63687958D01*
X105552728Y-63509767D01*
X105374537Y-63687958D01*
X105023812Y-63687958D01*
X104845621Y-63509767D01*
X104724000Y-63631389D01*
X104724000Y-63744527D01*
X104455500Y-63744527D01*
X104455500Y-63334404D01*
X105020984Y-63334404D01*
X105199175Y-63512595D01*
X105377365Y-63334404D01*
X105728091Y-63334404D01*
X105906281Y-63512595D01*
X106084472Y-63334404D01*
X105906281Y-63156214D01*
X105728091Y-63334404D01*
X105377365Y-63334404D01*
X105199175Y-63156214D01*
X105020984Y-63334404D01*
X104455500Y-63334404D01*
X104455500Y-63037420D01*
X104724000Y-63037420D01*
X104845621Y-63159041D01*
X105023812Y-62980851D01*
X105374537Y-62980851D01*
X105552728Y-63159041D01*
X105730918Y-62980851D01*
X106081644Y-62980851D01*
X106176000Y-63075207D01*
X106176000Y-62886495D01*
X106081644Y-62980851D01*
X105730918Y-62980851D01*
X105552728Y-62802660D01*
X105374537Y-62980851D01*
X105023812Y-62980851D01*
X104845621Y-62802660D01*
X104724000Y-62924282D01*
X104724000Y-63037420D01*
X104455500Y-63037420D01*
X104455500Y-62627298D01*
X105020984Y-62627298D01*
X105199175Y-62805489D01*
X105377366Y-62627298D01*
X105728091Y-62627298D01*
X105906281Y-62805488D01*
X106084472Y-62627298D01*
X105906281Y-62449107D01*
X105728091Y-62627298D01*
X105377366Y-62627298D01*
X105199175Y-62449107D01*
X105020984Y-62627298D01*
X104455500Y-62627298D01*
X104455500Y-62330313D01*
X104724000Y-62330313D01*
X104845621Y-62451934D01*
X105023812Y-62273744D01*
X105374537Y-62273744D01*
X105552728Y-62451934D01*
X105730918Y-62273744D01*
X106081644Y-62273744D01*
X106176000Y-62368100D01*
X106176000Y-62179388D01*
X106081644Y-62273744D01*
X105730918Y-62273744D01*
X105552728Y-62095553D01*
X105374537Y-62273744D01*
X105023812Y-62273744D01*
X104845621Y-62095553D01*
X104724000Y-62217175D01*
X104724000Y-62330313D01*
X104455500Y-62330313D01*
X104455500Y-61920191D01*
X105020984Y-61920191D01*
X105199175Y-62098382D01*
X105377366Y-61920191D01*
X105728091Y-61920191D01*
X105906281Y-62098381D01*
X106084472Y-61920191D01*
X105906281Y-61742000D01*
X105728091Y-61920191D01*
X105377366Y-61920191D01*
X105199175Y-61742000D01*
X105020984Y-61920191D01*
X104455500Y-61920191D01*
X104455500Y-61623206D01*
X104724000Y-61623206D01*
X104845622Y-61744828D01*
X105023812Y-61566637D01*
X105374537Y-61566637D01*
X105552728Y-61744828D01*
X105730918Y-61566637D01*
X106081644Y-61566637D01*
X106176000Y-61660993D01*
X106176000Y-61472282D01*
X106081644Y-61566637D01*
X105730918Y-61566637D01*
X105552728Y-61388447D01*
X105374537Y-61566637D01*
X105023812Y-61566637D01*
X104845621Y-61388447D01*
X104724000Y-61510069D01*
X104724000Y-61623206D01*
X104455500Y-61623206D01*
X104455500Y-61213084D01*
X105020984Y-61213084D01*
X105199175Y-61391275D01*
X105377365Y-61213084D01*
X105728091Y-61213084D01*
X105906281Y-61391274D01*
X106084472Y-61213084D01*
X105906281Y-61034893D01*
X105728091Y-61213084D01*
X105377365Y-61213084D01*
X105199175Y-61034893D01*
X105020984Y-61213084D01*
X104455500Y-61213084D01*
X104455500Y-60916100D01*
X104724000Y-60916100D01*
X104845621Y-61037721D01*
X105023812Y-60859531D01*
X105374537Y-60859531D01*
X105552728Y-61037721D01*
X105730919Y-60859531D01*
X106081644Y-60859531D01*
X106176000Y-60953887D01*
X106176000Y-60765175D01*
X106081644Y-60859531D01*
X105730919Y-60859531D01*
X105552728Y-60681340D01*
X105374537Y-60859531D01*
X105023812Y-60859531D01*
X104845621Y-60681340D01*
X104724000Y-60802962D01*
X104724000Y-60916100D01*
X104455500Y-60916100D01*
X104455500Y-60505977D01*
X105020984Y-60505977D01*
X105199175Y-60684168D01*
X105377365Y-60505977D01*
X105728091Y-60505977D01*
X105906281Y-60684168D01*
X106084472Y-60505977D01*
X105906281Y-60327787D01*
X105728091Y-60505977D01*
X105377365Y-60505977D01*
X105199175Y-60327787D01*
X105020984Y-60505977D01*
X104455500Y-60505977D01*
X104455500Y-60208993D01*
X104724000Y-60208993D01*
X104845621Y-60330614D01*
X105023812Y-60152424D01*
X105374537Y-60152424D01*
X105552728Y-60330614D01*
X105730919Y-60152424D01*
X106081644Y-60152424D01*
X106176000Y-60246780D01*
X106176000Y-60058068D01*
X106081644Y-60152424D01*
X105730919Y-60152424D01*
X105552728Y-59974233D01*
X105374537Y-60152424D01*
X105023812Y-60152424D01*
X104845621Y-59974233D01*
X104724000Y-60095855D01*
X104724000Y-60208993D01*
X104455500Y-60208993D01*
X104455500Y-59798870D01*
X105020984Y-59798870D01*
X105199175Y-59977061D01*
X105377365Y-59798870D01*
X105728091Y-59798870D01*
X105906281Y-59977061D01*
X106084472Y-59798870D01*
X105906281Y-59620680D01*
X105728091Y-59798870D01*
X105377365Y-59798870D01*
X105199175Y-59620680D01*
X105020984Y-59798870D01*
X104455500Y-59798870D01*
X104455500Y-59501886D01*
X104724000Y-59501886D01*
X104845621Y-59623507D01*
X105023812Y-59445317D01*
X105374537Y-59445317D01*
X105552728Y-59623507D01*
X105730918Y-59445317D01*
X106081644Y-59445317D01*
X106176000Y-59539673D01*
X106176000Y-59350961D01*
X106081644Y-59445317D01*
X105730918Y-59445317D01*
X105552728Y-59267126D01*
X105374537Y-59445317D01*
X105023812Y-59445317D01*
X104845621Y-59267126D01*
X104724000Y-59388748D01*
X104724000Y-59501886D01*
X104455500Y-59501886D01*
X104455500Y-59091764D01*
X105020984Y-59091764D01*
X105199175Y-59269955D01*
X105377366Y-59091764D01*
X105728091Y-59091764D01*
X105906281Y-59269954D01*
X106084472Y-59091764D01*
X105906281Y-58913573D01*
X105728091Y-59091764D01*
X105377366Y-59091764D01*
X105199175Y-58913573D01*
X105020984Y-59091764D01*
X104455500Y-59091764D01*
X104455500Y-58794779D01*
X104724000Y-58794779D01*
X104845622Y-58916401D01*
X105023812Y-58738210D01*
X105374537Y-58738210D01*
X105552728Y-58916401D01*
X105730918Y-58738210D01*
X106081644Y-58738210D01*
X106176000Y-58832566D01*
X106176000Y-58643855D01*
X106081644Y-58738210D01*
X105730918Y-58738210D01*
X105552728Y-58560020D01*
X105374537Y-58738210D01*
X105023812Y-58738210D01*
X104845621Y-58560020D01*
X104724000Y-58681642D01*
X104724000Y-58794779D01*
X104455500Y-58794779D01*
X104455500Y-58384657D01*
X105020984Y-58384657D01*
X105199175Y-58562848D01*
X105377366Y-58384657D01*
X105728091Y-58384657D01*
X105906281Y-58562847D01*
X106084472Y-58384657D01*
X105906281Y-58206466D01*
X105728091Y-58384657D01*
X105377366Y-58384657D01*
X105199175Y-58206466D01*
X105020984Y-58384657D01*
X104455500Y-58384657D01*
X104455500Y-58087672D01*
X104724000Y-58087672D01*
X104845622Y-58209294D01*
X105023812Y-58031103D01*
X105374537Y-58031103D01*
X105552728Y-58209294D01*
X105730918Y-58031103D01*
X106081644Y-58031103D01*
X106176000Y-58125459D01*
X106176000Y-57936748D01*
X106081644Y-58031103D01*
X105730918Y-58031103D01*
X105552728Y-57852913D01*
X105374537Y-58031103D01*
X105023812Y-58031103D01*
X104845621Y-57852913D01*
X104724000Y-57974535D01*
X104724000Y-58087672D01*
X104455500Y-58087672D01*
X104455500Y-57677550D01*
X105020984Y-57677550D01*
X105199175Y-57855741D01*
X105377365Y-57677550D01*
X105728091Y-57677550D01*
X105906281Y-57855740D01*
X106084472Y-57677550D01*
X105906281Y-57499359D01*
X105728091Y-57677550D01*
X105377365Y-57677550D01*
X105199175Y-57499359D01*
X105020984Y-57677550D01*
X104455500Y-57677550D01*
X104455500Y-57380566D01*
X104724000Y-57380566D01*
X104845621Y-57502187D01*
X105023812Y-57323997D01*
X105374537Y-57323997D01*
X105552728Y-57502187D01*
X105730919Y-57323997D01*
X106081644Y-57323997D01*
X106176000Y-57418353D01*
X106176000Y-57229641D01*
X106081644Y-57323997D01*
X105730919Y-57323997D01*
X105552728Y-57145806D01*
X105374537Y-57323997D01*
X105023812Y-57323997D01*
X104845621Y-57145806D01*
X104724000Y-57267428D01*
X104724000Y-57380566D01*
X104455500Y-57380566D01*
X104455500Y-56970443D01*
X105020984Y-56970443D01*
X105199175Y-57148634D01*
X105377365Y-56970443D01*
X105728091Y-56970443D01*
X105906281Y-57148634D01*
X106084472Y-56970443D01*
X105906281Y-56792253D01*
X105728091Y-56970443D01*
X105377365Y-56970443D01*
X105199175Y-56792253D01*
X105020984Y-56970443D01*
X104455500Y-56970443D01*
X104455500Y-56627254D01*
X104455358Y-56624000D01*
X104724000Y-56624000D01*
X104724000Y-56673459D01*
X104845621Y-56795080D01*
X105016702Y-56624000D01*
X105381648Y-56624000D01*
X105552728Y-56795080D01*
X105723809Y-56624000D01*
X106088754Y-56624000D01*
X106176000Y-56711246D01*
X106176000Y-56624000D01*
X106088754Y-56624000D01*
X105723809Y-56624000D01*
X105381648Y-56624000D01*
X105016702Y-56624000D01*
X104724000Y-56624000D01*
X104455358Y-56624000D01*
X104455070Y-56617410D01*
X104440649Y-56558486D01*
X104419258Y-56512610D01*
X104388280Y-56468370D01*
X104219910Y-56300000D01*
X106500000Y-56300000D01*
X106500000Y-65700000D01*
G37*
%TD.AperFunction*%
%TD*%
%TA.AperFunction,Conductor*%
%TO.N,/M+*%
G36*
X89700000Y-68417428D02*
G01*
X89652761Y-68451751D01*
X89508009Y-68596510D01*
X89387691Y-68762124D01*
X89294760Y-68944528D01*
X89294758Y-68944532D01*
X89231510Y-69139218D01*
X89231510Y-69139221D01*
X89199496Y-69341413D01*
X89199500Y-69443735D01*
X89199500Y-70441982D01*
X89199322Y-70445598D01*
X89196740Y-70471810D01*
X89186772Y-70572959D01*
X89183942Y-70587184D01*
X89148364Y-70704461D01*
X89142813Y-70717863D01*
X89085038Y-70825950D01*
X89076980Y-70838010D01*
X88999231Y-70932751D01*
X88988974Y-70943008D01*
X88894240Y-71020760D01*
X88882180Y-71028819D01*
X88774098Y-71086597D01*
X88760698Y-71092149D01*
X88643418Y-71127736D01*
X88629191Y-71130567D01*
X88502293Y-71143077D01*
X88498660Y-71143256D01*
X87501854Y-71143256D01*
X87498222Y-71143077D01*
X87370823Y-71130518D01*
X87356597Y-71127687D01*
X87239329Y-71092106D01*
X87225929Y-71086555D01*
X87117848Y-71028778D01*
X87105794Y-71020722D01*
X87011063Y-70942974D01*
X87000807Y-70932718D01*
X86923063Y-70837985D01*
X86915004Y-70825924D01*
X86857234Y-70717846D01*
X86851683Y-70704445D01*
X86816106Y-70587174D01*
X86813276Y-70572948D01*
X86800683Y-70445153D01*
X86800506Y-70441535D01*
X86800506Y-68730146D01*
X86817819Y-68682580D01*
X86822180Y-68677820D01*
X87078326Y-68421674D01*
X87124202Y-68400282D01*
X87130652Y-68400000D01*
X88400000Y-68400000D01*
X89678326Y-67121674D01*
X89700000Y-67111567D01*
X89700000Y-68417428D01*
G37*
%TD.AperFunction*%
%TD*%
%TA.AperFunction,Conductor*%
%TO.N,+VBAT*%
G36*
X112544500Y-58272746D02*
G01*
X112544930Y-58282590D01*
X112559350Y-58341513D01*
X112580741Y-58387389D01*
X112611719Y-58431629D01*
X115222826Y-61042736D01*
X115244218Y-61088612D01*
X115244500Y-61095062D01*
X115244500Y-61500000D01*
X114445587Y-61500000D01*
X114405995Y-61404417D01*
X114299454Y-61219883D01*
X114169738Y-61050834D01*
X114138703Y-61019799D01*
X114138703Y-61019798D01*
X114129365Y-61010460D01*
X114129364Y-61010458D01*
X114058471Y-60939565D01*
X114058464Y-60939559D01*
X112153632Y-59034727D01*
X112151192Y-59032035D01*
X112060654Y-58921710D01*
X112052594Y-58909649D01*
X111987893Y-58788598D01*
X111982345Y-58775201D01*
X111942505Y-58643860D01*
X111939676Y-58629638D01*
X111925677Y-58487491D01*
X111925500Y-58483869D01*
X111925501Y-58440934D01*
X111925500Y-58440931D01*
X111925500Y-56400000D01*
X112544500Y-56400000D01*
X112544500Y-58272746D01*
G37*
%TD.AperFunction*%
%TD*%
%TA.AperFunction,Conductor*%
%TO.N,+1V8*%
G36*
X104278326Y-56578326D02*
G01*
X104299718Y-56624202D01*
X104300000Y-56630652D01*
X104300000Y-65700000D01*
X103200000Y-65700000D01*
X103200000Y-65284357D01*
X103594115Y-65284357D01*
X103685758Y-65376000D01*
X103858854Y-65376000D01*
X103950497Y-65284357D01*
X103772306Y-65106166D01*
X103594115Y-65284357D01*
X103200000Y-65284357D01*
X103200000Y-64857860D01*
X103524000Y-64857860D01*
X103524000Y-65003747D01*
X103596943Y-64930803D01*
X103524000Y-64857860D01*
X103200000Y-64857860D01*
X103200000Y-64577250D01*
X103594115Y-64577250D01*
X103772306Y-64755440D01*
X103950497Y-64577250D01*
X103772306Y-64399059D01*
X103594115Y-64577250D01*
X103200000Y-64577250D01*
X103200000Y-64150753D01*
X103524000Y-64150753D01*
X103524000Y-64296640D01*
X103596943Y-64223696D01*
X103524000Y-64150753D01*
X103200000Y-64150753D01*
X103200000Y-64139854D01*
X103202151Y-64122142D01*
X103264273Y-63870143D01*
X103594115Y-63870143D01*
X103772306Y-64048333D01*
X103950496Y-63870143D01*
X103772306Y-63691952D01*
X103594115Y-63870143D01*
X103264273Y-63870143D01*
X103266963Y-63859233D01*
X103300521Y-63582962D01*
X103300522Y-63565011D01*
X103548521Y-63565011D01*
X103596943Y-63516589D01*
X103548525Y-63468171D01*
X103548521Y-63565011D01*
X103300522Y-63565011D01*
X103300527Y-63443812D01*
X103300530Y-63396217D01*
X103300528Y-63396213D01*
X103300529Y-63390629D01*
X103300500Y-63390245D01*
X103300500Y-63163036D01*
X103594115Y-63163036D01*
X103772306Y-63341227D01*
X103950496Y-63163036D01*
X103772306Y-62984846D01*
X103594115Y-63163036D01*
X103300500Y-63163036D01*
X103300500Y-62761039D01*
X103548500Y-62761039D01*
X103548500Y-62857927D01*
X103596944Y-62809483D01*
X103548500Y-62761039D01*
X103300500Y-62761039D01*
X103300500Y-62455930D01*
X103594115Y-62455930D01*
X103772306Y-62634120D01*
X103950497Y-62455930D01*
X103772306Y-62277739D01*
X103594115Y-62455930D01*
X103300500Y-62455930D01*
X103300500Y-62053932D01*
X103548500Y-62053932D01*
X103548500Y-62150820D01*
X103596944Y-62102376D01*
X103548500Y-62053932D01*
X103300500Y-62053932D01*
X103300500Y-61748823D01*
X103594115Y-61748823D01*
X103772306Y-61927013D01*
X103950497Y-61748823D01*
X103772306Y-61570632D01*
X103594115Y-61748823D01*
X103300500Y-61748823D01*
X103300500Y-61346826D01*
X103548500Y-61346826D01*
X103548500Y-61443713D01*
X103596943Y-61395269D01*
X103548500Y-61346826D01*
X103300500Y-61346826D01*
X103300500Y-61041716D01*
X103594115Y-61041716D01*
X103772306Y-61219906D01*
X103950496Y-61041716D01*
X103772306Y-60863525D01*
X103594115Y-61041716D01*
X103300500Y-61041716D01*
X103300500Y-60639719D01*
X103548500Y-60639719D01*
X103548500Y-60736607D01*
X103596944Y-60688163D01*
X103548500Y-60639719D01*
X103300500Y-60639719D01*
X103300500Y-60334609D01*
X103594115Y-60334609D01*
X103772306Y-60512799D01*
X103950496Y-60334609D01*
X103772306Y-60156418D01*
X103594115Y-60334609D01*
X103300500Y-60334609D01*
X103300500Y-59932612D01*
X103548500Y-59932612D01*
X103548500Y-60029500D01*
X103596944Y-59981056D01*
X103548500Y-59932612D01*
X103300500Y-59932612D01*
X103300500Y-59627502D01*
X103594115Y-59627502D01*
X103772306Y-59805693D01*
X103950496Y-59627502D01*
X103772306Y-59449312D01*
X103594115Y-59627502D01*
X103300500Y-59627502D01*
X103300500Y-59225505D01*
X103548500Y-59225505D01*
X103548500Y-59322393D01*
X103596944Y-59273949D01*
X103548500Y-59225505D01*
X103300500Y-59225505D01*
X103300500Y-58920396D01*
X103594115Y-58920396D01*
X103772306Y-59098586D01*
X103950497Y-58920396D01*
X103772306Y-58742205D01*
X103594115Y-58920396D01*
X103300500Y-58920396D01*
X103300500Y-58518399D01*
X103548500Y-58518399D01*
X103548500Y-58615286D01*
X103596943Y-58566842D01*
X103548500Y-58518399D01*
X103300500Y-58518399D01*
X103300500Y-58213289D01*
X103594115Y-58213289D01*
X103772306Y-58391479D01*
X103950497Y-58213289D01*
X103772306Y-58035098D01*
X103594115Y-58213289D01*
X103300500Y-58213289D01*
X103300500Y-57811292D01*
X103548500Y-57811292D01*
X103548500Y-57908179D01*
X103596943Y-57859735D01*
X103548500Y-57811292D01*
X103300500Y-57811292D01*
X103300500Y-57506182D01*
X103594115Y-57506182D01*
X103772306Y-57684372D01*
X103950496Y-57506182D01*
X103772306Y-57327991D01*
X103594115Y-57506182D01*
X103300500Y-57506182D01*
X103300500Y-57104185D01*
X103548500Y-57104185D01*
X103548500Y-57201073D01*
X103596944Y-57152629D01*
X103548500Y-57104185D01*
X103300500Y-57104185D01*
X103300500Y-56799075D01*
X103594115Y-56799075D01*
X103772306Y-56977266D01*
X103950496Y-56799075D01*
X103775421Y-56624000D01*
X103769191Y-56624000D01*
X103594115Y-56799075D01*
X103300500Y-56799075D01*
X103300500Y-56402240D01*
X103303326Y-56381986D01*
X103304401Y-56378207D01*
X103300657Y-56337811D01*
X103300500Y-56334399D01*
X103300500Y-56322156D01*
X103300499Y-56322152D01*
X103300432Y-56321793D01*
X103298246Y-56310104D01*
X103297780Y-56306758D01*
X103297154Y-56300000D01*
X104000000Y-56300000D01*
X104278326Y-56578326D01*
G37*
%TD.AperFunction*%
%TD*%
%TA.AperFunction,Conductor*%
%TO.N,+1V8*%
G36*
X115869500Y-65297759D02*
G01*
X115866675Y-65318010D01*
X115865598Y-65321792D01*
X115869342Y-65362183D01*
X115869500Y-65365599D01*
X115869500Y-65377848D01*
X115871749Y-65389885D01*
X115872221Y-65393267D01*
X115875964Y-65433656D01*
X115875965Y-65433662D01*
X115877722Y-65437191D01*
X115884215Y-65456562D01*
X115884938Y-65460431D01*
X115884938Y-65460432D01*
X115884939Y-65460433D01*
X115888915Y-65466855D01*
X115900000Y-65505811D01*
X115900000Y-66326000D01*
X115882687Y-66373566D01*
X115838850Y-66398876D01*
X115826000Y-66400000D01*
X115719500Y-66400000D01*
X115671934Y-66382687D01*
X115646624Y-66338850D01*
X115645500Y-66326000D01*
X115645500Y-65935180D01*
X115636767Y-65891278D01*
X115612471Y-65854916D01*
X115600000Y-65813804D01*
X115600000Y-64800000D01*
X115421674Y-64621674D01*
X115400282Y-64575798D01*
X115400000Y-64569348D01*
X115400000Y-61000000D01*
X115869500Y-61000000D01*
X115869500Y-65297759D01*
G37*
%TD.AperFunction*%
%TD*%
%TA.AperFunction,Conductor*%
%TO.N,+VBAT*%
G36*
X121700000Y-72049500D02*
G01*
X115553657Y-72049500D01*
X115553644Y-72049498D01*
X115471355Y-72049496D01*
X115469626Y-72049574D01*
X115360938Y-72049572D01*
X115360937Y-72049572D01*
X115360935Y-72049572D01*
X115084657Y-72083108D01*
X115084653Y-72083108D01*
X115084652Y-72083109D01*
X115024837Y-72097850D01*
X115007130Y-72100000D01*
X113300000Y-72100000D01*
X113300000Y-71614242D01*
X113624000Y-71614242D01*
X113770306Y-71760548D01*
X113948497Y-71582357D01*
X114299222Y-71582357D01*
X114477413Y-71760548D01*
X114655604Y-71582357D01*
X115006329Y-71582357D01*
X115184519Y-71760547D01*
X115362710Y-71582357D01*
X115713436Y-71582357D01*
X115891626Y-71760547D01*
X116069817Y-71582357D01*
X116420542Y-71582357D01*
X116598733Y-71760547D01*
X116776924Y-71582357D01*
X117127649Y-71582357D01*
X117305840Y-71760548D01*
X117484031Y-71582357D01*
X117834756Y-71582357D01*
X118012947Y-71760548D01*
X118191138Y-71582357D01*
X118541863Y-71582357D01*
X118720053Y-71760547D01*
X118898244Y-71582357D01*
X119248969Y-71582357D01*
X119427160Y-71760547D01*
X119605351Y-71582357D01*
X119956076Y-71582357D01*
X120134267Y-71760547D01*
X120312458Y-71582357D01*
X120663183Y-71582357D01*
X120841374Y-71760548D01*
X121019565Y-71582357D01*
X120841374Y-71404166D01*
X120663183Y-71582357D01*
X120312458Y-71582357D01*
X120134267Y-71404166D01*
X119956076Y-71582357D01*
X119605351Y-71582357D01*
X119427160Y-71404166D01*
X119248969Y-71582357D01*
X118898244Y-71582357D01*
X118720053Y-71404166D01*
X118541863Y-71582357D01*
X118191138Y-71582357D01*
X118012947Y-71404166D01*
X117834756Y-71582357D01*
X117484031Y-71582357D01*
X117305840Y-71404166D01*
X117127649Y-71582357D01*
X116776924Y-71582357D01*
X116598733Y-71404166D01*
X116420542Y-71582357D01*
X116069817Y-71582357D01*
X115891626Y-71404166D01*
X115713436Y-71582357D01*
X115362710Y-71582357D01*
X115184519Y-71404166D01*
X115006329Y-71582357D01*
X114655604Y-71582357D01*
X114477413Y-71404166D01*
X114299222Y-71582357D01*
X113948497Y-71582357D01*
X113770306Y-71404166D01*
X113624000Y-71550472D01*
X113624000Y-71614242D01*
X113300000Y-71614242D01*
X113300000Y-71228803D01*
X113945669Y-71228803D01*
X114123859Y-71406994D01*
X114302050Y-71228803D01*
X114652775Y-71228803D01*
X114830966Y-71406994D01*
X115009156Y-71228803D01*
X115359882Y-71228803D01*
X115538073Y-71406994D01*
X115716263Y-71228803D01*
X116066989Y-71228803D01*
X116245180Y-71406994D01*
X116423370Y-71228803D01*
X116774096Y-71228803D01*
X116952286Y-71406994D01*
X117130477Y-71228803D01*
X117481202Y-71228803D01*
X117659393Y-71406994D01*
X117837583Y-71228803D01*
X118188309Y-71228803D01*
X118366500Y-71406994D01*
X118544690Y-71228803D01*
X118895416Y-71228803D01*
X119073607Y-71406994D01*
X119251797Y-71228803D01*
X119602523Y-71228803D01*
X119780714Y-71406994D01*
X119958904Y-71228803D01*
X120309630Y-71228803D01*
X120487820Y-71406994D01*
X120666011Y-71228803D01*
X121016736Y-71228803D01*
X121194927Y-71406994D01*
X121373117Y-71228803D01*
X121194927Y-71050613D01*
X121016736Y-71228803D01*
X120666011Y-71228803D01*
X120487820Y-71050613D01*
X120309630Y-71228803D01*
X119958904Y-71228803D01*
X119780714Y-71050613D01*
X119602523Y-71228803D01*
X119251797Y-71228803D01*
X119073607Y-71050613D01*
X118895416Y-71228803D01*
X118544690Y-71228803D01*
X118366500Y-71050613D01*
X118188309Y-71228803D01*
X117837583Y-71228803D01*
X117659393Y-71050613D01*
X117481202Y-71228803D01*
X117130477Y-71228803D01*
X116952286Y-71050613D01*
X116774096Y-71228803D01*
X116423370Y-71228803D01*
X116245180Y-71050613D01*
X116066989Y-71228803D01*
X115716263Y-71228803D01*
X115538073Y-71050613D01*
X115359882Y-71228803D01*
X115009156Y-71228803D01*
X114830966Y-71050613D01*
X114652775Y-71228803D01*
X114302050Y-71228803D01*
X114123859Y-71050613D01*
X113945669Y-71228803D01*
X113300000Y-71228803D01*
X113300000Y-70907135D01*
X113624000Y-70907135D01*
X113770306Y-71053441D01*
X113948497Y-70875250D01*
X114299222Y-70875250D01*
X114477413Y-71053441D01*
X114655604Y-70875250D01*
X115006329Y-70875250D01*
X115184519Y-71053440D01*
X115362710Y-70875250D01*
X115713436Y-70875250D01*
X115891626Y-71053440D01*
X116069817Y-70875250D01*
X116420542Y-70875250D01*
X116598733Y-71053440D01*
X116776924Y-70875250D01*
X117127649Y-70875250D01*
X117305840Y-71053441D01*
X117484031Y-70875250D01*
X117834756Y-70875250D01*
X118012947Y-71053441D01*
X118191138Y-70875250D01*
X118541863Y-70875250D01*
X118720053Y-71053440D01*
X118898244Y-70875250D01*
X119248969Y-70875250D01*
X119427160Y-71053440D01*
X119605351Y-70875250D01*
X119956076Y-70875250D01*
X120134267Y-71053440D01*
X120312458Y-70875250D01*
X120663183Y-70875250D01*
X120841374Y-71053441D01*
X121019565Y-70875250D01*
X120841374Y-70697059D01*
X120663183Y-70875250D01*
X120312458Y-70875250D01*
X120134267Y-70697059D01*
X119956076Y-70875250D01*
X119605351Y-70875250D01*
X119427160Y-70697059D01*
X119248969Y-70875250D01*
X118898244Y-70875250D01*
X118720053Y-70697059D01*
X118541863Y-70875250D01*
X118191138Y-70875250D01*
X118012947Y-70697059D01*
X117834756Y-70875250D01*
X117484031Y-70875250D01*
X117305840Y-70697059D01*
X117127649Y-70875250D01*
X116776924Y-70875250D01*
X116598733Y-70697059D01*
X116420542Y-70875250D01*
X116069817Y-70875250D01*
X115891626Y-70697059D01*
X115713436Y-70875250D01*
X115362710Y-70875250D01*
X115184519Y-70697059D01*
X115006329Y-70875250D01*
X114655604Y-70875250D01*
X114477413Y-70697059D01*
X114299222Y-70875250D01*
X113948497Y-70875250D01*
X113770306Y-70697059D01*
X113624000Y-70843365D01*
X113624000Y-70907135D01*
X113300000Y-70907135D01*
X113300000Y-70521696D01*
X113945669Y-70521696D01*
X114123859Y-70699887D01*
X114302050Y-70521696D01*
X114652775Y-70521696D01*
X114830966Y-70699887D01*
X115009156Y-70521696D01*
X115359882Y-70521696D01*
X115538073Y-70699887D01*
X115716263Y-70521696D01*
X116066989Y-70521696D01*
X116245180Y-70699887D01*
X116423370Y-70521696D01*
X116774096Y-70521696D01*
X116952286Y-70699887D01*
X117130477Y-70521696D01*
X117481202Y-70521696D01*
X117659393Y-70699887D01*
X117837583Y-70521696D01*
X118188309Y-70521696D01*
X118366500Y-70699887D01*
X118544690Y-70521696D01*
X118895416Y-70521696D01*
X119073607Y-70699887D01*
X119251797Y-70521696D01*
X119602523Y-70521696D01*
X119780714Y-70699887D01*
X119958904Y-70521696D01*
X120309630Y-70521696D01*
X120487820Y-70699887D01*
X120666011Y-70521696D01*
X121016736Y-70521696D01*
X121194927Y-70699887D01*
X121373117Y-70521696D01*
X121194927Y-70343506D01*
X121016736Y-70521696D01*
X120666011Y-70521696D01*
X120487820Y-70343506D01*
X120309630Y-70521696D01*
X119958904Y-70521696D01*
X119780714Y-70343506D01*
X119602523Y-70521696D01*
X119251797Y-70521696D01*
X119073607Y-70343506D01*
X118895416Y-70521696D01*
X118544690Y-70521696D01*
X118366500Y-70343506D01*
X118188309Y-70521696D01*
X117837583Y-70521696D01*
X117659393Y-70343506D01*
X117481202Y-70521696D01*
X117130477Y-70521696D01*
X116952286Y-70343506D01*
X116774096Y-70521696D01*
X116423370Y-70521696D01*
X116245180Y-70343506D01*
X116066989Y-70521696D01*
X115716263Y-70521696D01*
X115538073Y-70343506D01*
X115359882Y-70521696D01*
X115009156Y-70521696D01*
X114830966Y-70343506D01*
X114652775Y-70521696D01*
X114302050Y-70521696D01*
X114123859Y-70343506D01*
X113945669Y-70521696D01*
X113300000Y-70521696D01*
X113300000Y-70200028D01*
X113624000Y-70200028D01*
X113770306Y-70346334D01*
X113948496Y-70168143D01*
X114299222Y-70168143D01*
X114477413Y-70346334D01*
X114655603Y-70168143D01*
X115006329Y-70168143D01*
X115184519Y-70346333D01*
X115362710Y-70168143D01*
X115713436Y-70168143D01*
X115891626Y-70346333D01*
X116069817Y-70168143D01*
X116420542Y-70168143D01*
X116598733Y-70346333D01*
X116776923Y-70168143D01*
X117127649Y-70168143D01*
X117305840Y-70346334D01*
X117484030Y-70168143D01*
X117834756Y-70168143D01*
X118012947Y-70346334D01*
X118191137Y-70168143D01*
X118541863Y-70168143D01*
X118720053Y-70346333D01*
X118898244Y-70168143D01*
X119248969Y-70168143D01*
X119427160Y-70346333D01*
X119605350Y-70168143D01*
X119956076Y-70168143D01*
X120134267Y-70346333D01*
X120312457Y-70168143D01*
X120663183Y-70168143D01*
X120841374Y-70346334D01*
X121019564Y-70168143D01*
X120841374Y-69989952D01*
X120663183Y-70168143D01*
X120312457Y-70168143D01*
X120134267Y-69989952D01*
X119956076Y-70168143D01*
X119605350Y-70168143D01*
X119427160Y-69989952D01*
X119248969Y-70168143D01*
X118898244Y-70168143D01*
X118720053Y-69989952D01*
X118541863Y-70168143D01*
X118191137Y-70168143D01*
X118012947Y-69989952D01*
X117834756Y-70168143D01*
X117484030Y-70168143D01*
X117305840Y-69989952D01*
X117127649Y-70168143D01*
X116776923Y-70168143D01*
X116598733Y-69989952D01*
X116420542Y-70168143D01*
X116069817Y-70168143D01*
X115891626Y-69989952D01*
X115713436Y-70168143D01*
X115362710Y-70168143D01*
X115184519Y-69989952D01*
X115006329Y-70168143D01*
X114655603Y-70168143D01*
X114477413Y-69989952D01*
X114299222Y-70168143D01*
X113948496Y-70168143D01*
X113770305Y-69989952D01*
X113624000Y-70136258D01*
X113624000Y-70200028D01*
X113300000Y-70200028D01*
X113300000Y-69924000D01*
X114055079Y-69924000D01*
X114123859Y-69992780D01*
X114192641Y-69924000D01*
X114762185Y-69924000D01*
X114830966Y-69992780D01*
X114899747Y-69924000D01*
X115469292Y-69924000D01*
X115538073Y-69992781D01*
X115606854Y-69924000D01*
X116176399Y-69924000D01*
X116245180Y-69992781D01*
X116313961Y-69924000D01*
X116883506Y-69924000D01*
X116952286Y-69992780D01*
X117021068Y-69924000D01*
X117590612Y-69924000D01*
X117659393Y-69992780D01*
X117728174Y-69924000D01*
X118297719Y-69924000D01*
X118366500Y-69992780D01*
X118435281Y-69924000D01*
X119004826Y-69924000D01*
X119073607Y-69992781D01*
X119142388Y-69924000D01*
X119711933Y-69924000D01*
X119780714Y-69992781D01*
X119849495Y-69924000D01*
X120419040Y-69924000D01*
X120487820Y-69992780D01*
X120556602Y-69924000D01*
X121126146Y-69924000D01*
X121194927Y-69992780D01*
X121263708Y-69924000D01*
X121126146Y-69924000D01*
X120556602Y-69924000D01*
X120419040Y-69924000D01*
X119849495Y-69924000D01*
X119711933Y-69924000D01*
X119142388Y-69924000D01*
X119004826Y-69924000D01*
X118435281Y-69924000D01*
X118297719Y-69924000D01*
X117728174Y-69924000D01*
X117590612Y-69924000D01*
X117021068Y-69924000D01*
X116883506Y-69924000D01*
X116313961Y-69924000D01*
X116176399Y-69924000D01*
X115606854Y-69924000D01*
X115469292Y-69924000D01*
X114899747Y-69924000D01*
X114762185Y-69924000D01*
X114192641Y-69924000D01*
X114055079Y-69924000D01*
X113300000Y-69924000D01*
X113300000Y-69650500D01*
X120602354Y-69650500D01*
X120683224Y-69637690D01*
X120804534Y-69618477D01*
X120850253Y-69603621D01*
X120873120Y-69600000D01*
X121700000Y-69600000D01*
X121700000Y-72049500D01*
G37*
%TD.AperFunction*%
%TD*%
%TA.AperFunction,Conductor*%
%TO.N,/M-*%
G36*
X89700000Y-66900000D02*
G01*
X89600000Y-66900000D01*
X88421674Y-68078326D01*
X88375798Y-68099718D01*
X88369348Y-68100000D01*
X87130652Y-68100000D01*
X87083086Y-68082687D01*
X87078326Y-68078326D01*
X86822180Y-67822180D01*
X86800788Y-67776304D01*
X86800506Y-67769854D01*
X86800506Y-66497314D01*
X86800508Y-66497277D01*
X86800507Y-66491337D01*
X86800509Y-66491334D01*
X86800506Y-66445554D01*
X86800684Y-66441928D01*
X86810578Y-66341418D01*
X86813226Y-66314517D01*
X86816052Y-66300304D01*
X86851629Y-66183001D01*
X86857169Y-66169626D01*
X86914951Y-66061513D01*
X86922992Y-66049478D01*
X87000754Y-65954720D01*
X87010998Y-65944476D01*
X87105743Y-65866718D01*
X87117792Y-65858667D01*
X87225885Y-65800887D01*
X87239277Y-65795340D01*
X87356567Y-65759760D01*
X87370779Y-65756933D01*
X87497695Y-65744432D01*
X87501293Y-65744256D01*
X87547599Y-65744257D01*
X87547600Y-65744255D01*
X87558548Y-65744256D01*
X87558554Y-65744254D01*
X89700000Y-65744251D01*
X89700000Y-66900000D01*
G37*
%TD.AperFunction*%
%TD*%
%TA.AperFunction,Conductor*%
%TO.N,+VBAT*%
G36*
X106500000Y-69326000D02*
G01*
X106482687Y-69373566D01*
X106438850Y-69398876D01*
X106426000Y-69400000D01*
X105774000Y-69400000D01*
X105726434Y-69382687D01*
X105701124Y-69338850D01*
X105700000Y-69326000D01*
X105700000Y-68300000D01*
X105634291Y-68234291D01*
X105621014Y-68215328D01*
X105620874Y-68215410D01*
X105619946Y-68213804D01*
X105619549Y-68213236D01*
X105619256Y-68212608D01*
X105588283Y-68168373D01*
X104477174Y-67057264D01*
X104455782Y-67011388D01*
X104455500Y-67004938D01*
X104455500Y-65700000D01*
X106500000Y-65700000D01*
X106500000Y-69326000D01*
G37*
%TD.AperFunction*%
%TD*%
%TA.AperFunction,Conductor*%
%TO.N,+VBAT*%
G36*
X108152504Y-52972813D02*
G01*
X108157264Y-52977174D01*
X109056670Y-53876580D01*
X109062869Y-53882149D01*
X109086754Y-53901396D01*
X109086756Y-53901397D01*
X109140512Y-53929516D01*
X109207551Y-53949201D01*
X109251362Y-53955500D01*
X112404938Y-53955500D01*
X112452504Y-53972813D01*
X112457264Y-53977174D01*
X112722826Y-54242736D01*
X112744218Y-54288612D01*
X112744500Y-54295062D01*
X112744500Y-55604938D01*
X112727187Y-55652504D01*
X112722826Y-55657264D01*
X112623420Y-55756670D01*
X112617851Y-55762869D01*
X112598603Y-55786754D01*
X112598602Y-55786756D01*
X112570483Y-55840512D01*
X112550799Y-55907549D01*
X112544500Y-55951357D01*
X112544500Y-56400000D01*
X111925500Y-56400000D01*
X111925500Y-55859068D01*
X111925501Y-55859066D01*
X111925500Y-55816031D01*
X111925678Y-55812403D01*
X111928273Y-55786048D01*
X111939666Y-55670357D01*
X111942493Y-55656144D01*
X111982337Y-55524791D01*
X111987886Y-55511395D01*
X112013678Y-55463140D01*
X112051573Y-55392240D01*
X112089263Y-55358453D01*
X112105250Y-55354037D01*
X112209661Y-55337500D01*
X112308587Y-55287095D01*
X112387095Y-55208587D01*
X112437500Y-55109661D01*
X112454869Y-55000000D01*
X112437500Y-54890339D01*
X112387095Y-54791413D01*
X112308587Y-54712905D01*
X112303129Y-54710124D01*
X112209660Y-54662499D01*
X112100000Y-54645131D01*
X111990339Y-54662499D01*
X111891412Y-54712905D01*
X111812903Y-54791414D01*
X111812704Y-54791689D01*
X111812473Y-54791844D01*
X111808787Y-54795531D01*
X111808070Y-54794814D01*
X111770736Y-54819991D01*
X111720395Y-54814696D01*
X111700514Y-54800514D01*
X111674028Y-54774028D01*
X111652636Y-54728152D01*
X111653265Y-54710124D01*
X111654869Y-54700000D01*
X111637500Y-54590339D01*
X111587095Y-54491413D01*
X111508587Y-54412905D01*
X111487642Y-54402233D01*
X111409660Y-54362499D01*
X111300000Y-54345131D01*
X111190342Y-54362499D01*
X111190341Y-54362499D01*
X111190339Y-54362499D01*
X111190339Y-54362500D01*
X111132568Y-54391935D01*
X111098975Y-54400000D01*
X108530652Y-54400000D01*
X108483086Y-54382687D01*
X108478326Y-54378326D01*
X108418757Y-54318757D01*
X108397490Y-54274169D01*
X108385674Y-54161744D01*
X108327179Y-53981716D01*
X108269330Y-53881518D01*
X108232535Y-53817786D01*
X108232532Y-53817783D01*
X108105868Y-53677109D01*
X107952733Y-53565850D01*
X107952728Y-53565847D01*
X107779804Y-53488856D01*
X107779802Y-53488855D01*
X107634001Y-53457865D01*
X107594646Y-53449500D01*
X107580152Y-53449500D01*
X107532586Y-53432187D01*
X107527826Y-53427826D01*
X107500000Y-53400000D01*
X105771721Y-53400000D01*
X105768095Y-53399822D01*
X105764824Y-53399500D01*
X105764820Y-53399500D01*
X105235180Y-53399500D01*
X105235176Y-53399500D01*
X105231905Y-53399822D01*
X105228279Y-53400000D01*
X103500000Y-53400000D01*
X103485979Y-53414020D01*
X103482687Y-53423066D01*
X103438850Y-53448376D01*
X103426000Y-53449500D01*
X103405354Y-53449500D01*
X103372897Y-53456398D01*
X103220197Y-53488855D01*
X103220195Y-53488856D01*
X103047271Y-53565847D01*
X103047266Y-53565850D01*
X102894131Y-53677109D01*
X102767467Y-53817783D01*
X102767464Y-53817786D01*
X102672819Y-53981719D01*
X102614327Y-54161738D01*
X102614326Y-54161742D01*
X102614326Y-54161744D01*
X102594540Y-54350000D01*
X102604156Y-54441496D01*
X102614327Y-54538261D01*
X102672819Y-54718280D01*
X102767464Y-54882213D01*
X102767467Y-54882216D01*
X102873520Y-55000000D01*
X102894131Y-55022890D01*
X103047266Y-55134149D01*
X103047271Y-55134152D01*
X103132077Y-55171910D01*
X103220197Y-55211144D01*
X103405354Y-55250500D01*
X103405355Y-55250500D01*
X103594645Y-55250500D01*
X103594646Y-55250500D01*
X103601405Y-55249063D01*
X103651531Y-55256105D01*
X103669119Y-55269119D01*
X104200000Y-55800000D01*
X106269348Y-55800000D01*
X106316914Y-55817313D01*
X106321674Y-55821674D01*
X106478326Y-55978326D01*
X106499718Y-56024202D01*
X106500000Y-56030652D01*
X106500000Y-56300000D01*
X104219910Y-56300000D01*
X103543330Y-55623420D01*
X103537131Y-55617851D01*
X103513245Y-55598603D01*
X103513243Y-55598602D01*
X103459487Y-55570483D01*
X103392450Y-55550799D01*
X103348642Y-55544500D01*
X103348638Y-55544500D01*
X102895062Y-55544500D01*
X102847496Y-55527187D01*
X102842736Y-55522826D01*
X102277174Y-54957264D01*
X102255782Y-54911388D01*
X102255500Y-54904938D01*
X102255500Y-53495061D01*
X102272813Y-53447495D01*
X102277174Y-53442735D01*
X102742735Y-52977174D01*
X102788611Y-52955782D01*
X102795061Y-52955500D01*
X108104938Y-52955500D01*
X108152504Y-52972813D01*
G37*
%TD.AperFunction*%
%TD*%
%TA.AperFunction,Conductor*%
%TO.N,VBUS*%
G36*
X113769500Y-64823184D02*
G01*
X113752187Y-64870750D01*
X113708350Y-64896060D01*
X113661905Y-64889119D01*
X113609660Y-64862499D01*
X113500000Y-64845131D01*
X113390339Y-64862499D01*
X113291412Y-64912905D01*
X113212905Y-64991412D01*
X113162499Y-65090339D01*
X113145131Y-65200000D01*
X113162499Y-65309660D01*
X113212905Y-65408587D01*
X113291413Y-65487095D01*
X113390339Y-65537500D01*
X113395876Y-65539299D01*
X113395170Y-65541471D01*
X113431344Y-65561519D01*
X113449489Y-65608774D01*
X113449500Y-65610072D01*
X113449500Y-65799586D01*
X113437029Y-65840698D01*
X113403233Y-65891277D01*
X113394500Y-65935180D01*
X113394500Y-66326000D01*
X113377187Y-66373566D01*
X113333350Y-66398876D01*
X113320500Y-66400000D01*
X113269500Y-66400000D01*
X113221934Y-66382687D01*
X113196624Y-66338850D01*
X113195500Y-66326000D01*
X113195500Y-65935180D01*
X113186767Y-65891278D01*
X113153504Y-65841496D01*
X113103722Y-65808233D01*
X113059820Y-65799500D01*
X113059819Y-65799500D01*
X113029500Y-65799500D01*
X112981934Y-65782187D01*
X112956624Y-65738350D01*
X112955500Y-65725500D01*
X112955500Y-64875152D01*
X112972813Y-64827586D01*
X112977174Y-64822826D01*
X113200000Y-64600000D01*
X113200000Y-62200000D01*
X113769500Y-62200000D01*
X113769500Y-64823184D01*
G37*
%TD.AperFunction*%
%TD*%
%TA.AperFunction,Conductor*%
%TO.N,/M+*%
G36*
X97016914Y-67117313D02*
G01*
X97021674Y-67121674D01*
X98267633Y-68367633D01*
X98289025Y-68413509D01*
X98281242Y-68453553D01*
X98262500Y-68490336D01*
X98262500Y-68490338D01*
X98245131Y-68600000D01*
X98262499Y-68709660D01*
X98286947Y-68757642D01*
X98312905Y-68808587D01*
X98391413Y-68887095D01*
X98490339Y-68937500D01*
X98490338Y-68937500D01*
X98501060Y-68939198D01*
X98534964Y-68944567D01*
X98575714Y-68965330D01*
X98634861Y-69024477D01*
X98634867Y-69024491D01*
X98658743Y-69048365D01*
X98658743Y-69048366D01*
X98712753Y-69102374D01*
X98839770Y-69187243D01*
X98886814Y-69206728D01*
X98980898Y-69245698D01*
X98980900Y-69245698D01*
X98980904Y-69245700D01*
X99130730Y-69275501D01*
X99144846Y-69275500D01*
X99192411Y-69292810D01*
X99197174Y-69297174D01*
X99300000Y-69400000D01*
X99626000Y-69400000D01*
X99673566Y-69417313D01*
X99698876Y-69461150D01*
X99700000Y-69474000D01*
X99700000Y-69526000D01*
X99682687Y-69573566D01*
X99638850Y-69598876D01*
X99626000Y-69600000D01*
X97691565Y-69600000D01*
X97643999Y-69582687D01*
X97622375Y-69552242D01*
X97601740Y-69497832D01*
X97472402Y-69251398D01*
X97429360Y-69189041D01*
X97719756Y-69189041D01*
X97765396Y-69276000D01*
X97989179Y-69276000D01*
X98020050Y-69245128D01*
X98370776Y-69245128D01*
X98401648Y-69276000D01*
X98535655Y-69276000D01*
X98445435Y-69185785D01*
X98445418Y-69185760D01*
X98440321Y-69180663D01*
X98437629Y-69180128D01*
X98436135Y-69179769D01*
X98370776Y-69245128D01*
X98020050Y-69245128D01*
X97841860Y-69066938D01*
X97719756Y-69189041D01*
X97429360Y-69189041D01*
X97314301Y-69022351D01*
X97306900Y-69013997D01*
X97129757Y-68814045D01*
X97129747Y-68814035D01*
X97123597Y-68808587D01*
X97085804Y-68775106D01*
X97426584Y-68775106D01*
X97503157Y-68861537D01*
X97506529Y-68865583D01*
X97512531Y-68873246D01*
X97515639Y-68877472D01*
X97583005Y-68975067D01*
X97666496Y-68891575D01*
X98017223Y-68891575D01*
X98195413Y-69069765D01*
X98209385Y-69055793D01*
X98129617Y-68976025D01*
X98127642Y-68973888D01*
X98120652Y-68965702D01*
X98118855Y-68963423D01*
X98105682Y-68945293D01*
X98104068Y-68942876D01*
X98098443Y-68933698D01*
X98097022Y-68931162D01*
X98056724Y-68852073D01*
X98017223Y-68891575D01*
X97666496Y-68891575D01*
X97666497Y-68891574D01*
X97488306Y-68713384D01*
X97426584Y-68775106D01*
X97085804Y-68775106D01*
X97028680Y-68724499D01*
X96921426Y-68629481D01*
X96921416Y-68629474D01*
X96818899Y-68558713D01*
X96692373Y-68471380D01*
X96692370Y-68471378D01*
X96692365Y-68471375D01*
X96610099Y-68428200D01*
X97066384Y-68428200D01*
X97070530Y-68431251D01*
X97078177Y-68437241D01*
X97082222Y-68440609D01*
X97256214Y-68594751D01*
X97312943Y-68538021D01*
X97663669Y-68538021D01*
X97841860Y-68716212D01*
X97999933Y-68558139D01*
X97821742Y-68379948D01*
X97663669Y-68538021D01*
X97312943Y-68538021D01*
X97134753Y-68359830D01*
X97066384Y-68428200D01*
X96610099Y-68428200D01*
X96445942Y-68342047D01*
X96185707Y-68243358D01*
X95915483Y-68176760D01*
X95797072Y-68162385D01*
X95762517Y-68158190D01*
X96629286Y-68158190D01*
X96811935Y-68254049D01*
X96816521Y-68256636D01*
X96824846Y-68261670D01*
X96829253Y-68264520D01*
X96858885Y-68284973D01*
X96959389Y-68184468D01*
X97310116Y-68184468D01*
X97488307Y-68362659D01*
X97646380Y-68204586D01*
X97468189Y-68026395D01*
X97310116Y-68184468D01*
X96959389Y-68184468D01*
X96959390Y-68184467D01*
X96781199Y-68006277D01*
X96629286Y-68158190D01*
X95762517Y-68158190D01*
X95639196Y-68143219D01*
X95639192Y-68143219D01*
X95500039Y-68143223D01*
X95446784Y-68143223D01*
X95446454Y-68143250D01*
X90530701Y-68143250D01*
X90530563Y-68143200D01*
X90397643Y-68143200D01*
X90195457Y-68175224D01*
X90067257Y-68216880D01*
X90000766Y-68238486D01*
X90000764Y-68238486D01*
X90000764Y-68238487D01*
X90000758Y-68238489D01*
X89818373Y-68331422D01*
X89818367Y-68331426D01*
X89700000Y-68417428D01*
X89700000Y-67969420D01*
X90024000Y-67969420D01*
X90024568Y-67969988D01*
X90124833Y-67937409D01*
X90131407Y-67935556D01*
X90139077Y-67933713D01*
X90241875Y-67830915D01*
X90592602Y-67830915D01*
X90656937Y-67895250D01*
X90884648Y-67895250D01*
X90948983Y-67830914D01*
X91299708Y-67830914D01*
X91364044Y-67895250D01*
X91591755Y-67895250D01*
X91656090Y-67830915D01*
X92006815Y-67830915D01*
X92071150Y-67895250D01*
X92298862Y-67895250D01*
X92363197Y-67830915D01*
X92713922Y-67830915D01*
X92778257Y-67895250D01*
X93005969Y-67895250D01*
X93070304Y-67830915D01*
X93421029Y-67830915D01*
X93485364Y-67895250D01*
X93713075Y-67895250D01*
X93777409Y-67830915D01*
X94128136Y-67830915D01*
X94192471Y-67895250D01*
X94420182Y-67895250D01*
X94484517Y-67830914D01*
X94835242Y-67830914D01*
X94899578Y-67895250D01*
X95127289Y-67895250D01*
X95191624Y-67830915D01*
X95542349Y-67830915D01*
X95606653Y-67895219D01*
X95644052Y-67895219D01*
X95649310Y-67895377D01*
X95659022Y-67895966D01*
X95664252Y-67896440D01*
X95814915Y-67914730D01*
X95898729Y-67830915D01*
X96249456Y-67830915D01*
X96427647Y-68009106D01*
X96605838Y-67830915D01*
X96956563Y-67830915D01*
X97134753Y-68009105D01*
X97292826Y-67851032D01*
X97114636Y-67672842D01*
X96956563Y-67830915D01*
X96605838Y-67830915D01*
X96427647Y-67652724D01*
X96249456Y-67830915D01*
X95898729Y-67830915D01*
X95898730Y-67830914D01*
X95720540Y-67652724D01*
X95542349Y-67830915D01*
X95191624Y-67830915D01*
X95013433Y-67652724D01*
X94835242Y-67830914D01*
X94484517Y-67830914D01*
X94306326Y-67652724D01*
X94128136Y-67830915D01*
X93777409Y-67830915D01*
X93777410Y-67830914D01*
X93599219Y-67652724D01*
X93421029Y-67830915D01*
X93070304Y-67830915D01*
X92892113Y-67652724D01*
X92713922Y-67830915D01*
X92363197Y-67830915D01*
X92185006Y-67652724D01*
X92006815Y-67830915D01*
X91656090Y-67830915D01*
X91477899Y-67652724D01*
X91299708Y-67830914D01*
X90948983Y-67830914D01*
X90770792Y-67652724D01*
X90592602Y-67830915D01*
X90241875Y-67830915D01*
X90241876Y-67830914D01*
X90063686Y-67652724D01*
X90024000Y-67692410D01*
X90024000Y-67969420D01*
X89700000Y-67969420D01*
X89700000Y-67477361D01*
X90239048Y-67477361D01*
X90417239Y-67655552D01*
X90595429Y-67477361D01*
X90946155Y-67477361D01*
X91124346Y-67655552D01*
X91302536Y-67477361D01*
X91653262Y-67477361D01*
X91831453Y-67655552D01*
X92009643Y-67477361D01*
X92360369Y-67477361D01*
X92538559Y-67655552D01*
X92716750Y-67477361D01*
X93067475Y-67477361D01*
X93245666Y-67655552D01*
X93423856Y-67477361D01*
X93774582Y-67477361D01*
X93952773Y-67655552D01*
X94130963Y-67477361D01*
X94481689Y-67477361D01*
X94659880Y-67655552D01*
X94838070Y-67477361D01*
X95188796Y-67477361D01*
X95366986Y-67655552D01*
X95545177Y-67477361D01*
X95895902Y-67477361D01*
X96074093Y-67655552D01*
X96252283Y-67477361D01*
X96603009Y-67477361D01*
X96781200Y-67655552D01*
X96939273Y-67497479D01*
X96865794Y-67424000D01*
X96656371Y-67424000D01*
X96603009Y-67477361D01*
X96252283Y-67477361D01*
X96198922Y-67424000D01*
X95949264Y-67424000D01*
X95895902Y-67477361D01*
X95545177Y-67477361D01*
X95491816Y-67424000D01*
X95242158Y-67424000D01*
X95188796Y-67477361D01*
X94838070Y-67477361D01*
X94784709Y-67424000D01*
X94535051Y-67424000D01*
X94481689Y-67477361D01*
X94130963Y-67477361D01*
X94077602Y-67424000D01*
X93827944Y-67424000D01*
X93774582Y-67477361D01*
X93423856Y-67477361D01*
X93370495Y-67424000D01*
X93120837Y-67424000D01*
X93067475Y-67477361D01*
X92716750Y-67477361D01*
X92663389Y-67424000D01*
X92413731Y-67424000D01*
X92360369Y-67477361D01*
X92009643Y-67477361D01*
X91956282Y-67424000D01*
X91706624Y-67424000D01*
X91653262Y-67477361D01*
X91302536Y-67477361D01*
X91249175Y-67424000D01*
X90999517Y-67424000D01*
X90946155Y-67477361D01*
X90595429Y-67477361D01*
X90542068Y-67424000D01*
X90292410Y-67424000D01*
X90239048Y-67477361D01*
X89700000Y-67477361D01*
X89700000Y-67111567D01*
X89724202Y-67100282D01*
X89730652Y-67100000D01*
X96969348Y-67100000D01*
X97016914Y-67117313D01*
G37*
%TD.AperFunction*%
%TD*%
%TA.AperFunction,Conductor*%
%TO.N,+VBAT*%
G36*
X102973566Y-65717313D02*
G01*
X102998876Y-65761150D01*
X103000000Y-65774000D01*
X103000000Y-68026000D01*
X102982687Y-68073566D01*
X102938850Y-68098876D01*
X102926000Y-68100000D01*
X100074000Y-68100000D01*
X100026434Y-68082687D01*
X100001124Y-68038850D01*
X100000000Y-68026000D01*
X100000000Y-67134499D01*
X100017313Y-67086933D01*
X100061150Y-67061623D01*
X100073995Y-67060499D01*
X100203372Y-67060499D01*
X100227662Y-67057682D01*
X100230781Y-67056304D01*
X100260670Y-67050000D01*
X100700000Y-67050000D01*
X100700000Y-66130652D01*
X100717313Y-66083086D01*
X100721674Y-66078326D01*
X101034100Y-65765900D01*
X101079976Y-65744508D01*
X101086426Y-65744226D01*
X101139182Y-65744226D01*
X101277318Y-65727452D01*
X101415448Y-65710679D01*
X101415450Y-65710678D01*
X101415454Y-65710678D01*
X101450053Y-65702149D01*
X101467762Y-65700000D01*
X102926000Y-65700000D01*
X102973566Y-65717313D01*
G37*
%TD.AperFunction*%
%TD*%
M02*
