%TF.GenerationSoftware,KiCad,Pcbnew,7.0.1*%
%TF.CreationDate,2024-01-03T23:29:55+00:00*%
%TF.ProjectId,watch_lower,77617463-685f-46c6-9f77-65722e6b6963,rev?*%
%TF.SameCoordinates,Original*%
%TF.FileFunction,Drillmap*%
%TF.FilePolarity,Positive*%
%FSLAX45Y45*%
G04 Gerber Fmt 4.5, Leading zero omitted, Abs format (unit mm)*
G04 Created by KiCad (PCBNEW 7.0.1) date 2024-01-03 23:29:55*
%MOMM*%
%LPD*%
G01*
G04 APERTURE LIST*
%ADD10C,0.100000*%
%ADD11C,0.200000*%
G04 APERTURE END LIST*
D10*
X10075000Y-7685000D02*
G75*
G03*
X10075000Y-7685000I-75000J0D01*
G01*
X11225000Y-7335000D02*
G75*
G03*
X11225000Y-7335000I-75000J0D01*
G01*
D11*
X8892620Y-8252524D02*
X8892620Y-8052524D01*
X8892620Y-8052524D02*
X8940239Y-8052524D01*
X8940239Y-8052524D02*
X8968810Y-8062048D01*
X8968810Y-8062048D02*
X8987858Y-8081095D01*
X8987858Y-8081095D02*
X8997382Y-8100143D01*
X8997382Y-8100143D02*
X9006905Y-8138238D01*
X9006905Y-8138238D02*
X9006905Y-8166809D01*
X9006905Y-8166809D02*
X8997382Y-8204905D01*
X8997382Y-8204905D02*
X8987858Y-8223952D01*
X8987858Y-8223952D02*
X8968810Y-8243000D01*
X8968810Y-8243000D02*
X8940239Y-8252524D01*
X8940239Y-8252524D02*
X8892620Y-8252524D01*
X9092620Y-8252524D02*
X9092620Y-8119190D01*
X9092620Y-8157286D02*
X9102143Y-8138238D01*
X9102143Y-8138238D02*
X9111667Y-8128714D01*
X9111667Y-8128714D02*
X9130715Y-8119190D01*
X9130715Y-8119190D02*
X9149763Y-8119190D01*
X9216429Y-8252524D02*
X9216429Y-8119190D01*
X9216429Y-8052524D02*
X9206905Y-8062048D01*
X9206905Y-8062048D02*
X9216429Y-8071571D01*
X9216429Y-8071571D02*
X9225953Y-8062048D01*
X9225953Y-8062048D02*
X9216429Y-8052524D01*
X9216429Y-8052524D02*
X9216429Y-8071571D01*
X9340239Y-8252524D02*
X9321191Y-8243000D01*
X9321191Y-8243000D02*
X9311667Y-8223952D01*
X9311667Y-8223952D02*
X9311667Y-8052524D01*
X9445001Y-8252524D02*
X9425953Y-8243000D01*
X9425953Y-8243000D02*
X9416429Y-8223952D01*
X9416429Y-8223952D02*
X9416429Y-8052524D01*
X9673572Y-8252524D02*
X9673572Y-8052524D01*
X9673572Y-8052524D02*
X9740239Y-8195381D01*
X9740239Y-8195381D02*
X9806905Y-8052524D01*
X9806905Y-8052524D02*
X9806905Y-8252524D01*
X9987858Y-8252524D02*
X9987858Y-8147762D01*
X9987858Y-8147762D02*
X9978334Y-8128714D01*
X9978334Y-8128714D02*
X9959286Y-8119190D01*
X9959286Y-8119190D02*
X9921191Y-8119190D01*
X9921191Y-8119190D02*
X9902143Y-8128714D01*
X9987858Y-8243000D02*
X9968810Y-8252524D01*
X9968810Y-8252524D02*
X9921191Y-8252524D01*
X9921191Y-8252524D02*
X9902143Y-8243000D01*
X9902143Y-8243000D02*
X9892620Y-8223952D01*
X9892620Y-8223952D02*
X9892620Y-8204905D01*
X9892620Y-8204905D02*
X9902143Y-8185857D01*
X9902143Y-8185857D02*
X9921191Y-8176333D01*
X9921191Y-8176333D02*
X9968810Y-8176333D01*
X9968810Y-8176333D02*
X9987858Y-8166809D01*
X10083096Y-8119190D02*
X10083096Y-8319190D01*
X10083096Y-8128714D02*
X10102143Y-8119190D01*
X10102143Y-8119190D02*
X10140239Y-8119190D01*
X10140239Y-8119190D02*
X10159286Y-8128714D01*
X10159286Y-8128714D02*
X10168810Y-8138238D01*
X10168810Y-8138238D02*
X10178334Y-8157286D01*
X10178334Y-8157286D02*
X10178334Y-8214428D01*
X10178334Y-8214428D02*
X10168810Y-8233476D01*
X10168810Y-8233476D02*
X10159286Y-8243000D01*
X10159286Y-8243000D02*
X10140239Y-8252524D01*
X10140239Y-8252524D02*
X10102143Y-8252524D01*
X10102143Y-8252524D02*
X10083096Y-8243000D01*
X10264048Y-8233476D02*
X10273572Y-8243000D01*
X10273572Y-8243000D02*
X10264048Y-8252524D01*
X10264048Y-8252524D02*
X10254524Y-8243000D01*
X10254524Y-8243000D02*
X10264048Y-8233476D01*
X10264048Y-8233476D02*
X10264048Y-8252524D01*
X10264048Y-8128714D02*
X10273572Y-8138238D01*
X10273572Y-8138238D02*
X10264048Y-8147762D01*
X10264048Y-8147762D02*
X10254524Y-8138238D01*
X10254524Y-8138238D02*
X10264048Y-8128714D01*
X10264048Y-8128714D02*
X10264048Y-8147762D01*
M02*
