M48
; DRILL file {KiCad 7.0.9} date Wed Jan 10 12:44:26 2024
; FORMAT={-:-/ absolute / inch / decimal}
; #@! TF.CreationDate,2024-01-10T12:44:26+00:00
; #@! TF.GenerationSoftware,Kicad,Pcbnew,7.0.9
; #@! TF.FileFunction,Plated,1,2,PTH
FMAT,2
INCH
; #@! TA.AperFunction,Plated,PTH,ViaDrill
T1C0.0079
%
G90
G05
T1
X3.8819Y-2.7008
X3.9016Y-2.622
X3.9094Y-2.7717
X3.9213Y-2.9055
X3.9921Y-2.8307
X3.9961Y-2.7165
X4.0115Y-2.7362
X4.0354Y-2.7953
X4.0433Y-2.6142
X4.0433Y-2.6378
X4.0433Y-2.6614
X4.0591Y-2.7244
X4.0909Y-2.7248
X4.1224Y-2.8858
X4.126Y-2.5551
X4.126Y-2.5787
X4.126Y-2.6024
X4.1339Y-2.7717
X4.1457Y-2.9567
X4.1535Y-3.0394
X4.1772Y-2.6929
X4.1772Y-2.7165
X4.1791Y-2.1201
X4.2598Y-2.7756
X4.2598Y-2.7992
X4.2795Y-2.7874
X4.2795Y-2.811
X4.313Y-3.0079
X4.3661Y-3.0079
X4.3819Y-2.1535
X4.4134Y-2.1654
X4.4193Y-2.6319
X4.4455Y-2.6361
X4.4685Y-2.5669
X4.4843Y-2.6378
X4.5079Y-2.6378
X4.5236Y-2.5669
X4.5315Y-2.6378
X4.5689Y-2.6319
X4.813Y-2.7165
X4.8425Y-2.7165
X4.872Y-2.7165
T0
M30
