%TF.GenerationSoftware,KiCad,Pcbnew,7.0.1*%
%TF.CreationDate,2024-01-06T02:08:52+00:00*%
%TF.ProjectId,watch_lower,77617463-685f-46c6-9f77-65722e6b6963,rev?*%
%TF.SameCoordinates,Original*%
%TF.FileFunction,Drillmap*%
%TF.FilePolarity,Positive*%
%FSLAX45Y45*%
G04 Gerber Fmt 4.5, Leading zero omitted, Abs format (unit mm)*
G04 Created by KiCad (PCBNEW 7.0.1) date 2024-01-06 02:08:52*
%MOMM*%
%LPD*%
G01*
G04 APERTURE LIST*
%ADD10C,0.100000*%
%ADD11C,0.200000*%
%ADD12C,0.020000*%
G04 APERTURE END LIST*
D10*
X10075000Y-7585000D02*
G75*
G03*
X10075000Y-7585000I-75000J0D01*
G01*
X11225000Y-7235000D02*
G75*
G03*
X11225000Y-7235000I-75000J0D01*
G01*
D11*
D12*
X9850000Y-6850000D02*
X9870000Y-6870000D01*
X9870000Y-6850000D02*
X9850000Y-6870000D01*
X9900000Y-6650000D02*
X9920000Y-6670000D01*
X9920000Y-6650000D02*
X9900000Y-6670000D01*
X9920000Y-7030000D02*
X9940000Y-7050000D01*
X9940000Y-7030000D02*
X9920000Y-7050000D01*
X9950000Y-7370000D02*
X9970000Y-7390000D01*
X9970000Y-7370000D02*
X9950000Y-7390000D01*
X10000000Y-6890000D02*
X10020000Y-6910000D01*
X10020000Y-6890000D02*
X10000000Y-6910000D01*
X10129818Y-7180000D02*
X10149818Y-7200000D01*
X10149818Y-7180000D02*
X10129818Y-7200000D01*
X10130000Y-6890000D02*
X10150000Y-6910000D01*
X10150000Y-6890000D02*
X10130000Y-6910000D01*
X10240000Y-7090000D02*
X10260000Y-7110000D01*
X10260000Y-7090000D02*
X10240000Y-7110000D01*
X10260000Y-6630000D02*
X10280000Y-6650000D01*
X10280000Y-6630000D02*
X10260000Y-6650000D01*
X10260000Y-6690000D02*
X10280000Y-6710000D01*
X10280000Y-6690000D02*
X10260000Y-6710000D01*
X10260000Y-6750000D02*
X10280000Y-6770000D01*
X10280000Y-6750000D02*
X10260000Y-6770000D01*
X10300000Y-6910000D02*
X10320000Y-6930000D01*
X10320000Y-6910000D02*
X10300000Y-6930000D01*
X10381000Y-6911000D02*
X10401000Y-6931000D01*
X10401000Y-6911000D02*
X10381000Y-6931000D01*
X10461000Y-7320000D02*
X10481000Y-7340000D01*
X10481000Y-7320000D02*
X10461000Y-7340000D01*
X10470000Y-6480000D02*
X10490000Y-6500000D01*
X10490000Y-6480000D02*
X10470000Y-6500000D01*
X10470000Y-6540000D02*
X10490000Y-6560000D01*
X10490000Y-6540000D02*
X10470000Y-6560000D01*
X10470000Y-6600000D02*
X10490000Y-6620000D01*
X10490000Y-6600000D02*
X10470000Y-6620000D01*
X10490000Y-7030000D02*
X10510000Y-7050000D01*
X10510000Y-7030000D02*
X10490000Y-7050000D01*
X10520000Y-7500000D02*
X10540000Y-7520000D01*
X10540000Y-7500000D02*
X10520000Y-7520000D01*
X10540000Y-7710000D02*
X10560000Y-7730000D01*
X10560000Y-7710000D02*
X10540000Y-7730000D01*
X10600000Y-6830000D02*
X10620000Y-6850000D01*
X10620000Y-6830000D02*
X10600000Y-6850000D01*
X10600000Y-6890000D02*
X10620000Y-6910000D01*
X10620000Y-6890000D02*
X10600000Y-6910000D01*
X10605000Y-5375000D02*
X10625000Y-5395000D01*
X10625000Y-5375000D02*
X10605000Y-5395000D01*
X10810000Y-7040000D02*
X10830000Y-7060000D01*
X10830000Y-7040000D02*
X10810000Y-7060000D01*
X10810000Y-7100000D02*
X10830000Y-7120000D01*
X10830000Y-7100000D02*
X10810000Y-7120000D01*
X10860000Y-7070000D02*
X10880000Y-7090000D01*
X10880000Y-7070000D02*
X10860000Y-7090000D01*
X10860000Y-7130000D02*
X10880000Y-7150000D01*
X10880000Y-7130000D02*
X10860000Y-7150000D01*
X10945000Y-7630000D02*
X10965000Y-7650000D01*
X10965000Y-7630000D02*
X10945000Y-7650000D01*
X11080000Y-7630000D02*
X11100000Y-7650000D01*
X11100000Y-7630000D02*
X11080000Y-7650000D01*
X11120000Y-5460000D02*
X11140000Y-5480000D01*
X11140000Y-5460000D02*
X11120000Y-5480000D01*
X11200000Y-5490000D02*
X11220000Y-5510000D01*
X11220000Y-5490000D02*
X11200000Y-5510000D01*
X11215000Y-6675000D02*
X11235000Y-6695000D01*
X11235000Y-6675000D02*
X11215000Y-6695000D01*
X11281661Y-6685760D02*
X11301661Y-6705760D01*
X11301661Y-6685760D02*
X11281661Y-6705760D01*
X11340000Y-6510000D02*
X11360000Y-6530000D01*
X11360000Y-6510000D02*
X11340000Y-6530000D01*
X11380000Y-6690000D02*
X11400000Y-6710000D01*
X11400000Y-6690000D02*
X11380000Y-6710000D01*
X11440000Y-6690000D02*
X11460000Y-6710000D01*
X11460000Y-6690000D02*
X11440000Y-6710000D01*
X11480000Y-6510000D02*
X11500000Y-6530000D01*
X11500000Y-6510000D02*
X11480000Y-6530000D01*
X11500000Y-6690000D02*
X11520000Y-6710000D01*
X11520000Y-6690000D02*
X11500000Y-6710000D01*
X11595000Y-6675000D02*
X11615000Y-6695000D01*
X11615000Y-6675000D02*
X11595000Y-6695000D01*
X12215000Y-6890000D02*
X12235000Y-6910000D01*
X12235000Y-6890000D02*
X12215000Y-6910000D01*
X12290000Y-6890000D02*
X12310000Y-6910000D01*
X12310000Y-6890000D02*
X12290000Y-6910000D01*
X12365000Y-6890000D02*
X12385000Y-6910000D01*
X12385000Y-6890000D02*
X12365000Y-6910000D01*
D11*
X8892620Y-8152524D02*
X8892620Y-7952524D01*
X8892620Y-7952524D02*
X8940239Y-7952524D01*
X8940239Y-7952524D02*
X8968810Y-7962048D01*
X8968810Y-7962048D02*
X8987858Y-7981095D01*
X8987858Y-7981095D02*
X8997382Y-8000143D01*
X8997382Y-8000143D02*
X9006905Y-8038238D01*
X9006905Y-8038238D02*
X9006905Y-8066809D01*
X9006905Y-8066809D02*
X8997382Y-8104905D01*
X8997382Y-8104905D02*
X8987858Y-8123952D01*
X8987858Y-8123952D02*
X8968810Y-8143000D01*
X8968810Y-8143000D02*
X8940239Y-8152524D01*
X8940239Y-8152524D02*
X8892620Y-8152524D01*
X9092620Y-8152524D02*
X9092620Y-8019190D01*
X9092620Y-8057286D02*
X9102143Y-8038238D01*
X9102143Y-8038238D02*
X9111667Y-8028714D01*
X9111667Y-8028714D02*
X9130715Y-8019190D01*
X9130715Y-8019190D02*
X9149763Y-8019190D01*
X9216429Y-8152524D02*
X9216429Y-8019190D01*
X9216429Y-7952524D02*
X9206905Y-7962048D01*
X9206905Y-7962048D02*
X9216429Y-7971571D01*
X9216429Y-7971571D02*
X9225953Y-7962048D01*
X9225953Y-7962048D02*
X9216429Y-7952524D01*
X9216429Y-7952524D02*
X9216429Y-7971571D01*
X9340239Y-8152524D02*
X9321191Y-8143000D01*
X9321191Y-8143000D02*
X9311667Y-8123952D01*
X9311667Y-8123952D02*
X9311667Y-7952524D01*
X9445001Y-8152524D02*
X9425953Y-8143000D01*
X9425953Y-8143000D02*
X9416429Y-8123952D01*
X9416429Y-8123952D02*
X9416429Y-7952524D01*
X9673572Y-8152524D02*
X9673572Y-7952524D01*
X9673572Y-7952524D02*
X9740239Y-8095381D01*
X9740239Y-8095381D02*
X9806905Y-7952524D01*
X9806905Y-7952524D02*
X9806905Y-8152524D01*
X9987858Y-8152524D02*
X9987858Y-8047762D01*
X9987858Y-8047762D02*
X9978334Y-8028714D01*
X9978334Y-8028714D02*
X9959286Y-8019190D01*
X9959286Y-8019190D02*
X9921191Y-8019190D01*
X9921191Y-8019190D02*
X9902143Y-8028714D01*
X9987858Y-8143000D02*
X9968810Y-8152524D01*
X9968810Y-8152524D02*
X9921191Y-8152524D01*
X9921191Y-8152524D02*
X9902143Y-8143000D01*
X9902143Y-8143000D02*
X9892620Y-8123952D01*
X9892620Y-8123952D02*
X9892620Y-8104905D01*
X9892620Y-8104905D02*
X9902143Y-8085857D01*
X9902143Y-8085857D02*
X9921191Y-8076333D01*
X9921191Y-8076333D02*
X9968810Y-8076333D01*
X9968810Y-8076333D02*
X9987858Y-8066809D01*
X10083096Y-8019190D02*
X10083096Y-8219190D01*
X10083096Y-8028714D02*
X10102143Y-8019190D01*
X10102143Y-8019190D02*
X10140239Y-8019190D01*
X10140239Y-8019190D02*
X10159286Y-8028714D01*
X10159286Y-8028714D02*
X10168810Y-8038238D01*
X10168810Y-8038238D02*
X10178334Y-8057286D01*
X10178334Y-8057286D02*
X10178334Y-8114428D01*
X10178334Y-8114428D02*
X10168810Y-8133476D01*
X10168810Y-8133476D02*
X10159286Y-8143000D01*
X10159286Y-8143000D02*
X10140239Y-8152524D01*
X10140239Y-8152524D02*
X10102143Y-8152524D01*
X10102143Y-8152524D02*
X10083096Y-8143000D01*
X10264048Y-8133476D02*
X10273572Y-8143000D01*
X10273572Y-8143000D02*
X10264048Y-8152524D01*
X10264048Y-8152524D02*
X10254524Y-8143000D01*
X10254524Y-8143000D02*
X10264048Y-8133476D01*
X10264048Y-8133476D02*
X10264048Y-8152524D01*
X10264048Y-8028714D02*
X10273572Y-8038238D01*
X10273572Y-8038238D02*
X10264048Y-8047762D01*
X10264048Y-8047762D02*
X10254524Y-8038238D01*
X10254524Y-8038238D02*
X10264048Y-8028714D01*
X10264048Y-8028714D02*
X10264048Y-8047762D01*
D12*
X8625001Y-8470000D02*
X8645001Y-8490000D01*
X8645001Y-8470000D02*
X8625001Y-8490000D01*
D11*
X8930715Y-8372524D02*
X8949763Y-8372524D01*
X8949763Y-8372524D02*
X8968810Y-8382048D01*
X8968810Y-8382048D02*
X8978334Y-8391571D01*
X8978334Y-8391571D02*
X8987858Y-8410619D01*
X8987858Y-8410619D02*
X8997382Y-8448714D01*
X8997382Y-8448714D02*
X8997382Y-8496333D01*
X8997382Y-8496333D02*
X8987858Y-8534429D01*
X8987858Y-8534429D02*
X8978334Y-8553476D01*
X8978334Y-8553476D02*
X8968810Y-8563000D01*
X8968810Y-8563000D02*
X8949763Y-8572524D01*
X8949763Y-8572524D02*
X8930715Y-8572524D01*
X8930715Y-8572524D02*
X8911667Y-8563000D01*
X8911667Y-8563000D02*
X8902143Y-8553476D01*
X8902143Y-8553476D02*
X8892620Y-8534429D01*
X8892620Y-8534429D02*
X8883096Y-8496333D01*
X8883096Y-8496333D02*
X8883096Y-8448714D01*
X8883096Y-8448714D02*
X8892620Y-8410619D01*
X8892620Y-8410619D02*
X8902143Y-8391571D01*
X8902143Y-8391571D02*
X8911667Y-8382048D01*
X8911667Y-8382048D02*
X8930715Y-8372524D01*
X9083096Y-8553476D02*
X9092620Y-8563000D01*
X9092620Y-8563000D02*
X9083096Y-8572524D01*
X9083096Y-8572524D02*
X9073572Y-8563000D01*
X9073572Y-8563000D02*
X9083096Y-8553476D01*
X9083096Y-8553476D02*
X9083096Y-8572524D01*
X9168810Y-8391571D02*
X9178334Y-8382048D01*
X9178334Y-8382048D02*
X9197382Y-8372524D01*
X9197382Y-8372524D02*
X9245001Y-8372524D01*
X9245001Y-8372524D02*
X9264048Y-8382048D01*
X9264048Y-8382048D02*
X9273572Y-8391571D01*
X9273572Y-8391571D02*
X9283096Y-8410619D01*
X9283096Y-8410619D02*
X9283096Y-8429667D01*
X9283096Y-8429667D02*
X9273572Y-8458238D01*
X9273572Y-8458238D02*
X9159286Y-8572524D01*
X9159286Y-8572524D02*
X9283096Y-8572524D01*
X9406905Y-8372524D02*
X9425953Y-8372524D01*
X9425953Y-8372524D02*
X9445001Y-8382048D01*
X9445001Y-8382048D02*
X9454524Y-8391571D01*
X9454524Y-8391571D02*
X9464048Y-8410619D01*
X9464048Y-8410619D02*
X9473572Y-8448714D01*
X9473572Y-8448714D02*
X9473572Y-8496333D01*
X9473572Y-8496333D02*
X9464048Y-8534429D01*
X9464048Y-8534429D02*
X9454524Y-8553476D01*
X9454524Y-8553476D02*
X9445001Y-8563000D01*
X9445001Y-8563000D02*
X9425953Y-8572524D01*
X9425953Y-8572524D02*
X9406905Y-8572524D01*
X9406905Y-8572524D02*
X9387858Y-8563000D01*
X9387858Y-8563000D02*
X9378334Y-8553476D01*
X9378334Y-8553476D02*
X9368810Y-8534429D01*
X9368810Y-8534429D02*
X9359286Y-8496333D01*
X9359286Y-8496333D02*
X9359286Y-8448714D01*
X9359286Y-8448714D02*
X9368810Y-8410619D01*
X9368810Y-8410619D02*
X9378334Y-8391571D01*
X9378334Y-8391571D02*
X9387858Y-8382048D01*
X9387858Y-8382048D02*
X9406905Y-8372524D01*
X9597382Y-8372524D02*
X9616429Y-8372524D01*
X9616429Y-8372524D02*
X9635477Y-8382048D01*
X9635477Y-8382048D02*
X9645001Y-8391571D01*
X9645001Y-8391571D02*
X9654524Y-8410619D01*
X9654524Y-8410619D02*
X9664048Y-8448714D01*
X9664048Y-8448714D02*
X9664048Y-8496333D01*
X9664048Y-8496333D02*
X9654524Y-8534429D01*
X9654524Y-8534429D02*
X9645001Y-8553476D01*
X9645001Y-8553476D02*
X9635477Y-8563000D01*
X9635477Y-8563000D02*
X9616429Y-8572524D01*
X9616429Y-8572524D02*
X9597382Y-8572524D01*
X9597382Y-8572524D02*
X9578334Y-8563000D01*
X9578334Y-8563000D02*
X9568810Y-8553476D01*
X9568810Y-8553476D02*
X9559286Y-8534429D01*
X9559286Y-8534429D02*
X9549763Y-8496333D01*
X9549763Y-8496333D02*
X9549763Y-8448714D01*
X9549763Y-8448714D02*
X9559286Y-8410619D01*
X9559286Y-8410619D02*
X9568810Y-8391571D01*
X9568810Y-8391571D02*
X9578334Y-8382048D01*
X9578334Y-8382048D02*
X9597382Y-8372524D01*
X9749763Y-8572524D02*
X9749763Y-8439190D01*
X9749763Y-8458238D02*
X9759286Y-8448714D01*
X9759286Y-8448714D02*
X9778334Y-8439190D01*
X9778334Y-8439190D02*
X9806905Y-8439190D01*
X9806905Y-8439190D02*
X9825953Y-8448714D01*
X9825953Y-8448714D02*
X9835477Y-8467762D01*
X9835477Y-8467762D02*
X9835477Y-8572524D01*
X9835477Y-8467762D02*
X9845001Y-8448714D01*
X9845001Y-8448714D02*
X9864048Y-8439190D01*
X9864048Y-8439190D02*
X9892620Y-8439190D01*
X9892620Y-8439190D02*
X9911667Y-8448714D01*
X9911667Y-8448714D02*
X9921191Y-8467762D01*
X9921191Y-8467762D02*
X9921191Y-8572524D01*
X10016429Y-8572524D02*
X10016429Y-8439190D01*
X10016429Y-8458238D02*
X10025953Y-8448714D01*
X10025953Y-8448714D02*
X10045001Y-8439190D01*
X10045001Y-8439190D02*
X10073572Y-8439190D01*
X10073572Y-8439190D02*
X10092620Y-8448714D01*
X10092620Y-8448714D02*
X10102144Y-8467762D01*
X10102144Y-8467762D02*
X10102144Y-8572524D01*
X10102144Y-8467762D02*
X10111667Y-8448714D01*
X10111667Y-8448714D02*
X10130715Y-8439190D01*
X10130715Y-8439190D02*
X10159286Y-8439190D01*
X10159286Y-8439190D02*
X10178334Y-8448714D01*
X10178334Y-8448714D02*
X10187858Y-8467762D01*
X10187858Y-8467762D02*
X10187858Y-8572524D01*
X10578334Y-8363000D02*
X10406906Y-8620143D01*
X10835477Y-8372524D02*
X10854525Y-8372524D01*
X10854525Y-8372524D02*
X10873572Y-8382048D01*
X10873572Y-8382048D02*
X10883096Y-8391571D01*
X10883096Y-8391571D02*
X10892620Y-8410619D01*
X10892620Y-8410619D02*
X10902144Y-8448714D01*
X10902144Y-8448714D02*
X10902144Y-8496333D01*
X10902144Y-8496333D02*
X10892620Y-8534429D01*
X10892620Y-8534429D02*
X10883096Y-8553476D01*
X10883096Y-8553476D02*
X10873572Y-8563000D01*
X10873572Y-8563000D02*
X10854525Y-8572524D01*
X10854525Y-8572524D02*
X10835477Y-8572524D01*
X10835477Y-8572524D02*
X10816429Y-8563000D01*
X10816429Y-8563000D02*
X10806906Y-8553476D01*
X10806906Y-8553476D02*
X10797382Y-8534429D01*
X10797382Y-8534429D02*
X10787858Y-8496333D01*
X10787858Y-8496333D02*
X10787858Y-8448714D01*
X10787858Y-8448714D02*
X10797382Y-8410619D01*
X10797382Y-8410619D02*
X10806906Y-8391571D01*
X10806906Y-8391571D02*
X10816429Y-8382048D01*
X10816429Y-8382048D02*
X10835477Y-8372524D01*
X10987858Y-8553476D02*
X10997382Y-8563000D01*
X10997382Y-8563000D02*
X10987858Y-8572524D01*
X10987858Y-8572524D02*
X10978334Y-8563000D01*
X10978334Y-8563000D02*
X10987858Y-8553476D01*
X10987858Y-8553476D02*
X10987858Y-8572524D01*
X11121191Y-8372524D02*
X11140239Y-8372524D01*
X11140239Y-8372524D02*
X11159287Y-8382048D01*
X11159287Y-8382048D02*
X11168810Y-8391571D01*
X11168810Y-8391571D02*
X11178334Y-8410619D01*
X11178334Y-8410619D02*
X11187858Y-8448714D01*
X11187858Y-8448714D02*
X11187858Y-8496333D01*
X11187858Y-8496333D02*
X11178334Y-8534429D01*
X11178334Y-8534429D02*
X11168810Y-8553476D01*
X11168810Y-8553476D02*
X11159287Y-8563000D01*
X11159287Y-8563000D02*
X11140239Y-8572524D01*
X11140239Y-8572524D02*
X11121191Y-8572524D01*
X11121191Y-8572524D02*
X11102144Y-8563000D01*
X11102144Y-8563000D02*
X11092620Y-8553476D01*
X11092620Y-8553476D02*
X11083096Y-8534429D01*
X11083096Y-8534429D02*
X11073572Y-8496333D01*
X11073572Y-8496333D02*
X11073572Y-8448714D01*
X11073572Y-8448714D02*
X11083096Y-8410619D01*
X11083096Y-8410619D02*
X11092620Y-8391571D01*
X11092620Y-8391571D02*
X11102144Y-8382048D01*
X11102144Y-8382048D02*
X11121191Y-8372524D01*
X11311667Y-8372524D02*
X11330715Y-8372524D01*
X11330715Y-8372524D02*
X11349763Y-8382048D01*
X11349763Y-8382048D02*
X11359286Y-8391571D01*
X11359286Y-8391571D02*
X11368810Y-8410619D01*
X11368810Y-8410619D02*
X11378334Y-8448714D01*
X11378334Y-8448714D02*
X11378334Y-8496333D01*
X11378334Y-8496333D02*
X11368810Y-8534429D01*
X11368810Y-8534429D02*
X11359286Y-8553476D01*
X11359286Y-8553476D02*
X11349763Y-8563000D01*
X11349763Y-8563000D02*
X11330715Y-8572524D01*
X11330715Y-8572524D02*
X11311667Y-8572524D01*
X11311667Y-8572524D02*
X11292620Y-8563000D01*
X11292620Y-8563000D02*
X11283096Y-8553476D01*
X11283096Y-8553476D02*
X11273572Y-8534429D01*
X11273572Y-8534429D02*
X11264048Y-8496333D01*
X11264048Y-8496333D02*
X11264048Y-8448714D01*
X11264048Y-8448714D02*
X11273572Y-8410619D01*
X11273572Y-8410619D02*
X11283096Y-8391571D01*
X11283096Y-8391571D02*
X11292620Y-8382048D01*
X11292620Y-8382048D02*
X11311667Y-8372524D01*
X11445001Y-8372524D02*
X11578334Y-8372524D01*
X11578334Y-8372524D02*
X11492620Y-8572524D01*
X11664048Y-8572524D02*
X11702144Y-8572524D01*
X11702144Y-8572524D02*
X11721191Y-8563000D01*
X11721191Y-8563000D02*
X11730715Y-8553476D01*
X11730715Y-8553476D02*
X11749763Y-8524905D01*
X11749763Y-8524905D02*
X11759286Y-8486810D01*
X11759286Y-8486810D02*
X11759286Y-8410619D01*
X11759286Y-8410619D02*
X11749763Y-8391571D01*
X11749763Y-8391571D02*
X11740239Y-8382048D01*
X11740239Y-8382048D02*
X11721191Y-8372524D01*
X11721191Y-8372524D02*
X11683096Y-8372524D01*
X11683096Y-8372524D02*
X11664048Y-8382048D01*
X11664048Y-8382048D02*
X11654525Y-8391571D01*
X11654525Y-8391571D02*
X11645001Y-8410619D01*
X11645001Y-8410619D02*
X11645001Y-8458238D01*
X11645001Y-8458238D02*
X11654525Y-8477286D01*
X11654525Y-8477286D02*
X11664048Y-8486810D01*
X11664048Y-8486810D02*
X11683096Y-8496333D01*
X11683096Y-8496333D02*
X11721191Y-8496333D01*
X11721191Y-8496333D02*
X11740239Y-8486810D01*
X11740239Y-8486810D02*
X11749763Y-8477286D01*
X11749763Y-8477286D02*
X11759286Y-8458238D01*
X11835477Y-8372524D02*
X11835477Y-8410619D01*
X11911667Y-8372524D02*
X11911667Y-8410619D01*
X12206906Y-8648714D02*
X12197382Y-8639190D01*
X12197382Y-8639190D02*
X12178334Y-8610619D01*
X12178334Y-8610619D02*
X12168810Y-8591571D01*
X12168810Y-8591571D02*
X12159287Y-8563000D01*
X12159287Y-8563000D02*
X12149763Y-8515381D01*
X12149763Y-8515381D02*
X12149763Y-8477286D01*
X12149763Y-8477286D02*
X12159287Y-8429667D01*
X12159287Y-8429667D02*
X12168810Y-8401095D01*
X12168810Y-8401095D02*
X12178334Y-8382048D01*
X12178334Y-8382048D02*
X12197382Y-8353476D01*
X12197382Y-8353476D02*
X12206906Y-8343952D01*
X12368810Y-8439190D02*
X12368810Y-8572524D01*
X12321191Y-8363000D02*
X12273572Y-8505857D01*
X12273572Y-8505857D02*
X12397382Y-8505857D01*
X12464048Y-8391571D02*
X12473572Y-8382048D01*
X12473572Y-8382048D02*
X12492620Y-8372524D01*
X12492620Y-8372524D02*
X12540239Y-8372524D01*
X12540239Y-8372524D02*
X12559287Y-8382048D01*
X12559287Y-8382048D02*
X12568810Y-8391571D01*
X12568810Y-8391571D02*
X12578334Y-8410619D01*
X12578334Y-8410619D02*
X12578334Y-8429667D01*
X12578334Y-8429667D02*
X12568810Y-8458238D01*
X12568810Y-8458238D02*
X12454525Y-8572524D01*
X12454525Y-8572524D02*
X12578334Y-8572524D01*
X12816429Y-8572524D02*
X12816429Y-8372524D01*
X12902144Y-8572524D02*
X12902144Y-8467762D01*
X12902144Y-8467762D02*
X12892620Y-8448714D01*
X12892620Y-8448714D02*
X12873572Y-8439190D01*
X12873572Y-8439190D02*
X12845001Y-8439190D01*
X12845001Y-8439190D02*
X12825953Y-8448714D01*
X12825953Y-8448714D02*
X12816429Y-8458238D01*
X13025953Y-8572524D02*
X13006906Y-8563000D01*
X13006906Y-8563000D02*
X12997382Y-8553476D01*
X12997382Y-8553476D02*
X12987858Y-8534429D01*
X12987858Y-8534429D02*
X12987858Y-8477286D01*
X12987858Y-8477286D02*
X12997382Y-8458238D01*
X12997382Y-8458238D02*
X13006906Y-8448714D01*
X13006906Y-8448714D02*
X13025953Y-8439190D01*
X13025953Y-8439190D02*
X13054525Y-8439190D01*
X13054525Y-8439190D02*
X13073572Y-8448714D01*
X13073572Y-8448714D02*
X13083096Y-8458238D01*
X13083096Y-8458238D02*
X13092620Y-8477286D01*
X13092620Y-8477286D02*
X13092620Y-8534429D01*
X13092620Y-8534429D02*
X13083096Y-8553476D01*
X13083096Y-8553476D02*
X13073572Y-8563000D01*
X13073572Y-8563000D02*
X13054525Y-8572524D01*
X13054525Y-8572524D02*
X13025953Y-8572524D01*
X13206906Y-8572524D02*
X13187858Y-8563000D01*
X13187858Y-8563000D02*
X13178334Y-8543952D01*
X13178334Y-8543952D02*
X13178334Y-8372524D01*
X13359287Y-8563000D02*
X13340239Y-8572524D01*
X13340239Y-8572524D02*
X13302144Y-8572524D01*
X13302144Y-8572524D02*
X13283096Y-8563000D01*
X13283096Y-8563000D02*
X13273572Y-8543952D01*
X13273572Y-8543952D02*
X13273572Y-8467762D01*
X13273572Y-8467762D02*
X13283096Y-8448714D01*
X13283096Y-8448714D02*
X13302144Y-8439190D01*
X13302144Y-8439190D02*
X13340239Y-8439190D01*
X13340239Y-8439190D02*
X13359287Y-8448714D01*
X13359287Y-8448714D02*
X13368810Y-8467762D01*
X13368810Y-8467762D02*
X13368810Y-8486810D01*
X13368810Y-8486810D02*
X13273572Y-8505857D01*
X13445001Y-8563000D02*
X13464049Y-8572524D01*
X13464049Y-8572524D02*
X13502144Y-8572524D01*
X13502144Y-8572524D02*
X13521191Y-8563000D01*
X13521191Y-8563000D02*
X13530715Y-8543952D01*
X13530715Y-8543952D02*
X13530715Y-8534429D01*
X13530715Y-8534429D02*
X13521191Y-8515381D01*
X13521191Y-8515381D02*
X13502144Y-8505857D01*
X13502144Y-8505857D02*
X13473572Y-8505857D01*
X13473572Y-8505857D02*
X13454525Y-8496333D01*
X13454525Y-8496333D02*
X13445001Y-8477286D01*
X13445001Y-8477286D02*
X13445001Y-8467762D01*
X13445001Y-8467762D02*
X13454525Y-8448714D01*
X13454525Y-8448714D02*
X13473572Y-8439190D01*
X13473572Y-8439190D02*
X13502144Y-8439190D01*
X13502144Y-8439190D02*
X13521191Y-8448714D01*
X13597382Y-8648714D02*
X13606906Y-8639190D01*
X13606906Y-8639190D02*
X13625953Y-8610619D01*
X13625953Y-8610619D02*
X13635477Y-8591571D01*
X13635477Y-8591571D02*
X13645001Y-8563000D01*
X13645001Y-8563000D02*
X13654525Y-8515381D01*
X13654525Y-8515381D02*
X13654525Y-8477286D01*
X13654525Y-8477286D02*
X13645001Y-8429667D01*
X13645001Y-8429667D02*
X13635477Y-8401095D01*
X13635477Y-8401095D02*
X13625953Y-8382048D01*
X13625953Y-8382048D02*
X13606906Y-8353476D01*
X13606906Y-8353476D02*
X13597382Y-8343952D01*
M02*
