%TF.GenerationSoftware,KiCad,Pcbnew,7.0.1*%
%TF.CreationDate,2024-01-08T13:03:24+00:00*%
%TF.ProjectId,watch_lower,77617463-685f-46c6-9f77-65722e6b6963,rev?*%
%TF.SameCoordinates,Original*%
%TF.FileFunction,Copper,L1,Top*%
%TF.FilePolarity,Positive*%
%FSLAX46Y46*%
G04 Gerber Fmt 4.6, Leading zero omitted, Abs format (unit mm)*
G04 Created by KiCad (PCBNEW 7.0.1) date 2024-01-08 13:03:24*
%MOMM*%
%LPD*%
G01*
G04 APERTURE LIST*
G04 Aperture macros list*
%AMRoundRect*
0 Rectangle with rounded corners*
0 $1 Rounding radius*
0 $2 $3 $4 $5 $6 $7 $8 $9 X,Y pos of 4 corners*
0 Add a 4 corners polygon primitive as box body*
4,1,4,$2,$3,$4,$5,$6,$7,$8,$9,$2,$3,0*
0 Add four circle primitives for the rounded corners*
1,1,$1+$1,$2,$3*
1,1,$1+$1,$4,$5*
1,1,$1+$1,$6,$7*
1,1,$1+$1,$8,$9*
0 Add four rect primitives between the rounded corners*
20,1,$1+$1,$2,$3,$4,$5,0*
20,1,$1+$1,$4,$5,$6,$7,0*
20,1,$1+$1,$6,$7,$8,$9,0*
20,1,$1+$1,$8,$9,$2,$3,0*%
G04 Aperture macros list end*
%TA.AperFunction,SMDPad,CuDef*%
%ADD10C,1.500000*%
%TD*%
%TA.AperFunction,SMDPad,CuDef*%
%ADD11R,0.500000X0.600000*%
%TD*%
%TA.AperFunction,SMDPad,CuDef*%
%ADD12RoundRect,0.140000X0.140000X0.170000X-0.140000X0.170000X-0.140000X-0.170000X0.140000X-0.170000X0*%
%TD*%
%TA.AperFunction,SMDPad,CuDef*%
%ADD13C,0.250000*%
%TD*%
%TA.AperFunction,SMDPad,CuDef*%
%ADD14RoundRect,0.140000X-0.170000X0.140000X-0.170000X-0.140000X0.170000X-0.140000X0.170000X0.140000X0*%
%TD*%
%TA.AperFunction,SMDPad,CuDef*%
%ADD15RoundRect,0.135000X0.135000X0.185000X-0.135000X0.185000X-0.135000X-0.185000X0.135000X-0.185000X0*%
%TD*%
%TA.AperFunction,SMDPad,CuDef*%
%ADD16R,0.200000X0.400000*%
%TD*%
%TA.AperFunction,SMDPad,CuDef*%
%ADD17R,0.280000X0.400000*%
%TD*%
%TA.AperFunction,SMDPad,CuDef*%
%ADD18R,0.350000X0.750000*%
%TD*%
%TA.AperFunction,ViaPad*%
%ADD19C,0.400000*%
%TD*%
%TA.AperFunction,Conductor*%
%ADD20C,0.300000*%
%TD*%
%TA.AperFunction,Conductor*%
%ADD21C,0.100000*%
%TD*%
%TA.AperFunction,Conductor*%
%ADD22C,0.150000*%
%TD*%
%TA.AperFunction,Conductor*%
%ADD23C,0.500000*%
%TD*%
G04 APERTURE END LIST*
D10*
%TO.P,TP4,1,1*%
%TO.N,GND*%
X107500000Y-54350000D03*
%TD*%
%TO.P,TP5,1,1*%
%TO.N,/M+*%
X88000000Y-70000000D03*
%TD*%
D11*
%TO.P,D1,1,1*%
%TO.N,GND*%
X105500000Y-53850000D03*
%TO.P,D1,2,2*%
%TO.N,VBUS*%
X105500000Y-54850000D03*
%TD*%
D10*
%TO.P,TP2,1,1*%
%TO.N,GND*%
X123000000Y-67800000D03*
%TD*%
D12*
%TO.P,C5,1*%
%TO.N,/REG*%
X100580000Y-71400000D03*
%TO.P,C5,2*%
%TO.N,GND*%
X99620000Y-71400000D03*
%TD*%
D13*
%TO.P,U2,A1,EN*%
%TO.N,/LRA_EN*%
X100600000Y-69500000D03*
%TO.P,U2,A2,REG*%
%TO.N,/REG*%
X100100000Y-69500000D03*
%TO.P,U2,A3,OUT+*%
%TO.N,/M+*%
X99600000Y-69500000D03*
%TO.P,U2,B1,IN/TRIG*%
%TO.N,GND*%
X100600000Y-69000000D03*
%TO.P,U2,B2,SDA*%
%TO.N,/SDA*%
X100100000Y-69000000D03*
%TO.P,U2,B3,GND*%
%TO.N,GND*%
X99600000Y-69000000D03*
%TO.P,U2,C1,SCL*%
%TO.N,/SCL*%
X100600000Y-68500000D03*
%TO.P,U2,C2,VDD*%
%TO.N,+VBAT*%
X100100000Y-68500000D03*
%TO.P,U2,C3,OUT-*%
%TO.N,/M-*%
X99600000Y-68500000D03*
%TD*%
D14*
%TO.P,C2,1*%
%TO.N,+3V3*%
X109550000Y-74720000D03*
%TO.P,C2,2*%
%TO.N,GND*%
X109550000Y-75680000D03*
%TD*%
D12*
%TO.P,C3,1*%
%TO.N,+1V8*%
X105580000Y-71200000D03*
%TO.P,C3,2*%
%TO.N,GND*%
X104620000Y-71200000D03*
%TD*%
D15*
%TO.P,R1,1*%
%TO.N,/LRA_EN*%
X100610000Y-73000000D03*
%TO.P,R1,2*%
%TO.N,GND*%
X99590000Y-73000000D03*
%TD*%
D16*
%TO.P,J1,1,1*%
%TO.N,+3V3*%
X112595000Y-66150000D03*
%TO.P,J1,2,2*%
%TO.N,unconnected-(J1-Pad2)*%
X112595000Y-67550000D03*
%TO.P,J1,3,3*%
%TO.N,GND*%
X112945000Y-66150000D03*
%TO.P,J1,4,4*%
X112945000Y-67550000D03*
%TO.P,J1,5,5*%
%TO.N,VBUS*%
X113295000Y-66150000D03*
%TO.P,J1,6,6*%
%TO.N,+VBAT*%
X113295000Y-67550000D03*
%TO.P,J1,7,7*%
%TO.N,GND*%
X113645000Y-66150000D03*
%TO.P,J1,8,8*%
X113645000Y-67550000D03*
%TO.P,J1,9,9*%
%TO.N,/SCL*%
X113995000Y-66150000D03*
%TO.P,J1,10,10*%
%TO.N,/LRA_EN*%
X113995000Y-67550000D03*
%TO.P,J1,11,11*%
%TO.N,/SDA*%
X114345000Y-66150000D03*
%TO.P,J1,12,12*%
%TO.N,/HR_INT*%
X114345000Y-67550000D03*
%TO.P,J1,13,13*%
%TO.N,GND*%
X114695000Y-66150000D03*
%TO.P,J1,14,14*%
X114695000Y-67550000D03*
%TO.P,J1,15,15*%
%TO.N,+VBAT*%
X115045000Y-66150000D03*
%TO.P,J1,16,16*%
%TO.N,VBUS*%
X115045000Y-67550000D03*
%TO.P,J1,17,17*%
%TO.N,GND*%
X115395000Y-66150000D03*
%TO.P,J1,18,18*%
X115395000Y-67550000D03*
%TO.P,J1,19,19*%
%TO.N,+1V8*%
X115745000Y-66150000D03*
%TO.P,J1,20,20*%
%TO.N,unconnected-(J1-Pad20)*%
X115745000Y-67550000D03*
D17*
%TO.P,J1,MP1,MP1*%
%TO.N,unconnected-(J1-PadMP1)*%
X111895000Y-66150000D03*
%TO.P,J1,MP2,MP2*%
%TO.N,unconnected-(J1-PadMP2)*%
X111895000Y-67550000D03*
%TO.P,J1,MP3,MP3*%
%TO.N,unconnected-(J1-PadMP3)*%
X116445000Y-67550000D03*
%TO.P,J1,MP4,MP4*%
%TO.N,unconnected-(J1-PadMP4)*%
X116445000Y-66150000D03*
%TD*%
D10*
%TO.P,TP1,1,1*%
%TO.N,+VBAT*%
X123000000Y-70900000D03*
%TD*%
D12*
%TO.P,C6,1*%
%TO.N,+VBAT*%
X100980000Y-66600000D03*
%TO.P,C6,2*%
%TO.N,GND*%
X100020000Y-66600000D03*
%TD*%
D18*
%TO.P,U1,1,NC*%
%TO.N,unconnected-(U1-NC-Pad1)*%
X103110000Y-76400000D03*
%TO.P,U1,2,SCL*%
%TO.N,/SCL*%
X103910000Y-76400000D03*
%TO.P,U1,3,SDA*%
%TO.N,/SDA*%
X104710000Y-76400000D03*
%TO.P,U1,4,PGND*%
%TO.N,GND*%
X105510000Y-76400000D03*
%TO.P,U1,5,R_DRV*%
%TO.N,unconnected-(U1-R_DRV-Pad5)*%
X106310000Y-76400000D03*
%TO.P,U1,6,IR_DRV*%
%TO.N,unconnected-(U1-IR_DRV-Pad6)*%
X107110000Y-76400000D03*
%TO.P,U1,7,NC*%
%TO.N,unconnected-(U1-NC-Pad7)*%
X107910000Y-76400000D03*
%TO.P,U1,8,NC*%
%TO.N,unconnected-(U1-NC-Pad8)*%
X107910000Y-74000000D03*
%TO.P,U1,9,VLED+*%
%TO.N,+3V3*%
X107110000Y-74000000D03*
%TO.P,U1,10,VLED+*%
X106310000Y-74000000D03*
%TO.P,U1,11,VDD*%
%TO.N,+1V8*%
X105510000Y-74000000D03*
%TO.P,U1,12,GND*%
%TO.N,GND*%
X104710000Y-74000000D03*
%TO.P,U1,13,~{INT}*%
%TO.N,/HR_INT*%
X103910000Y-74000000D03*
%TO.P,U1,14,NC*%
%TO.N,unconnected-(U1-NC-Pad14)*%
X103110000Y-74000000D03*
%TD*%
D10*
%TO.P,TP3,1,1*%
%TO.N,VBUS*%
X103500000Y-54350000D03*
%TD*%
D14*
%TO.P,C1,1*%
%TO.N,+3V3*%
X110900000Y-74720000D03*
%TO.P,C1,2*%
%TO.N,GND*%
X110900000Y-75680000D03*
%TD*%
D12*
%TO.P,C4,1*%
%TO.N,+1V8*%
X105580000Y-72550000D03*
%TO.P,C4,2*%
%TO.N,GND*%
X104620000Y-72550000D03*
%TD*%
D10*
%TO.P,TP6,1,1*%
%TO.N,/M-*%
X88000000Y-66900000D03*
%TD*%
D19*
%TO.N,GND*%
X123000000Y-69000000D03*
X101400000Y-69000000D03*
X109550000Y-76400000D03*
X112250000Y-66850000D03*
X104710000Y-73300000D03*
X105000000Y-70400000D03*
X113500000Y-65200000D03*
X123750000Y-69000000D03*
X98600000Y-68600000D03*
X99100000Y-66600000D03*
X105500000Y-77200000D03*
X114900000Y-65200000D03*
X122250000Y-69000000D03*
X99300000Y-70400000D03*
X99600000Y-73800000D03*
X110900000Y-76400000D03*
X116050000Y-66850000D03*
X105300000Y-75100000D03*
X106150000Y-53850000D03*
%TO.N,+VBAT*%
X102700000Y-67600000D03*
X106100000Y-68400000D03*
X104800000Y-64900000D03*
X104800000Y-66100000D03*
X108700000Y-70800000D03*
X102700000Y-66400000D03*
X102700000Y-67000000D03*
X108200000Y-71100000D03*
X104800000Y-65500000D03*
X108200000Y-70500000D03*
X106100000Y-69000000D03*
X108700000Y-71400000D03*
%TO.N,VBUS*%
X115100000Y-67000000D03*
X112916606Y-66957597D03*
%TO.N,/SCL*%
X111300000Y-54700000D03*
X103100000Y-69200000D03*
%TO.N,/LRA_EN*%
X101398182Y-71900000D03*
X113900000Y-67000000D03*
%TO.N,/SDA*%
X112100000Y-55000000D03*
X100100000Y-69000000D03*
X102500000Y-71000000D03*
%TO.N,/HR_INT*%
X114500000Y-67000000D03*
X103910000Y-69210000D03*
%TD*%
D20*
%TO.N,+3V3*%
X106310000Y-74000000D02*
X107110000Y-74000000D01*
X110900000Y-74720000D02*
X109700000Y-74720000D01*
X107168579Y-74568579D02*
X107261422Y-74661422D01*
X107110000Y-74000000D02*
X107110000Y-74427157D01*
X107402843Y-74720000D02*
X109700000Y-74720000D01*
X107110031Y-74427157D02*
G75*
G03*
X107168580Y-74568578I199969J-43D01*
G01*
X107261401Y-74661443D02*
G75*
G03*
X107402843Y-74720000I141399J141443D01*
G01*
D21*
%TO.N,GND*%
X112483824Y-66616176D02*
X112250000Y-66850000D01*
D22*
X113675000Y-65375000D02*
X113500000Y-65200000D01*
D20*
X105510000Y-76400000D02*
X105510000Y-75392843D01*
D22*
X112945000Y-67550000D02*
X112945000Y-67950000D01*
D23*
X106150000Y-53850000D02*
X106585786Y-53850000D01*
D20*
X104710000Y-74000000D02*
X104710000Y-74427157D01*
D22*
X116070000Y-66870000D02*
X116050000Y-66850000D01*
X113445000Y-67975000D02*
X112970000Y-67975000D01*
X115453579Y-66558579D02*
X115686422Y-66791422D01*
D20*
X105510000Y-75890000D02*
X105510000Y-76400000D01*
X104620000Y-71200000D02*
X104620000Y-70987107D01*
D22*
X112945000Y-67950000D02*
X112920000Y-67975000D01*
X115395000Y-67950000D02*
X115370000Y-67975000D01*
D20*
X105510000Y-77190000D02*
X105500000Y-77200000D01*
X99590000Y-73790000D02*
X99600000Y-73800000D01*
D22*
X112970000Y-67975000D02*
X112945000Y-67950000D01*
D21*
X112709560Y-66557597D02*
X112625246Y-66557597D01*
D22*
X115827843Y-66850000D02*
X116050000Y-66850000D01*
X114725000Y-66200000D02*
X114725000Y-65375000D01*
D20*
X99620000Y-72970000D02*
X99590000Y-73000000D01*
X104768579Y-74568579D02*
X105300000Y-75100000D01*
X104766447Y-70633553D02*
X105000000Y-70400000D01*
X104710000Y-72640000D02*
X104620000Y-72550000D01*
D21*
X112945000Y-66150000D02*
X112945000Y-66322157D01*
D22*
X114725000Y-65375000D02*
X114900000Y-65200000D01*
X112260000Y-67775000D02*
X112260000Y-66860000D01*
D21*
X112886421Y-66463579D02*
X112850981Y-66499019D01*
D22*
X113645000Y-67550000D02*
X113645000Y-67775000D01*
X115395000Y-67550000D02*
X115395000Y-67950000D01*
X112920000Y-67975000D02*
X112460000Y-67975000D01*
D23*
X107292893Y-54142893D02*
X107500000Y-54350000D01*
D20*
X105451421Y-75251421D02*
X105300000Y-75100000D01*
D23*
X105500000Y-53850000D02*
X106150000Y-53850000D01*
D22*
X113675000Y-66200000D02*
X113675000Y-65375000D01*
D20*
X99620000Y-71400000D02*
X99620000Y-70927107D01*
D22*
X115370000Y-67975000D02*
X114895000Y-67975000D01*
D20*
X109550000Y-75680000D02*
X109550000Y-76400000D01*
X105661421Y-75738579D02*
X105510000Y-75890000D01*
X110900000Y-75680000D02*
X110900000Y-76400000D01*
X98853553Y-68853553D02*
X98600000Y-68600000D01*
X109700000Y-75680000D02*
X105802843Y-75680000D01*
X104620000Y-72550000D02*
X104620000Y-71200000D01*
D22*
X112260000Y-66860000D02*
X112250000Y-66850000D01*
D20*
X99620000Y-71400000D02*
X99620000Y-72970000D01*
D22*
X115395000Y-67950000D02*
X115420000Y-67975000D01*
D20*
X99600000Y-69000000D02*
X99207107Y-69000000D01*
X99590000Y-73000000D02*
X99590000Y-73790000D01*
X100020000Y-66600000D02*
X99100000Y-66600000D01*
X100600000Y-69000000D02*
X101400000Y-69000000D01*
D22*
X115420000Y-67975000D02*
X115870000Y-67975000D01*
D20*
X104710000Y-74000000D02*
X104710000Y-72640000D01*
X99473553Y-70573553D02*
X99300000Y-70400000D01*
X109700000Y-75680000D02*
X110900000Y-75680000D01*
D22*
X114695000Y-67775000D02*
X114695000Y-67550000D01*
D20*
X105510000Y-76400000D02*
X105510000Y-77190000D01*
D22*
X115395000Y-66150000D02*
X115395000Y-66417157D01*
X116070000Y-67775000D02*
X116070000Y-66870000D01*
D21*
X112709560Y-66557569D02*
G75*
G03*
X112850980Y-66499018I40J199969D01*
G01*
D22*
X112260000Y-67775000D02*
G75*
G03*
X112460000Y-67975000I200000J0D01*
G01*
D21*
X112886442Y-66463600D02*
G75*
G03*
X112945000Y-66322157I-141442J141400D01*
G01*
D22*
X114695000Y-67775000D02*
G75*
G03*
X114895000Y-67975000I200000J0D01*
G01*
D20*
X105509969Y-75392843D02*
G75*
G03*
X105451420Y-75251422I-199969J43D01*
G01*
X98853550Y-68853556D02*
G75*
G03*
X99207107Y-69000000I353550J353556D01*
G01*
D21*
X112625246Y-66557631D02*
G75*
G03*
X112483825Y-66616177I-46J-199969D01*
G01*
D23*
X107292900Y-54142886D02*
G75*
G03*
X106585786Y-53850000I-707100J-707114D01*
G01*
D22*
X115395031Y-66417157D02*
G75*
G03*
X115453580Y-66558578I199969J-43D01*
G01*
D20*
X105802843Y-75680031D02*
G75*
G03*
X105661422Y-75738580I-43J-199969D01*
G01*
X104710031Y-74427157D02*
G75*
G03*
X104768580Y-74568578I199969J-43D01*
G01*
D22*
X115870000Y-67975000D02*
G75*
G03*
X116070000Y-67775000I0J200000D01*
G01*
D20*
X104766444Y-70633550D02*
G75*
G03*
X104620000Y-70987107I353556J-353550D01*
G01*
D22*
X113445000Y-67975000D02*
G75*
G03*
X113645000Y-67775000I0J200000D01*
G01*
D20*
X99619995Y-70927107D02*
G75*
G03*
X99473553Y-70573553I-499995J7D01*
G01*
D22*
X115686401Y-66791443D02*
G75*
G03*
X115827843Y-66850000I141399J141443D01*
G01*
D20*
%TO.N,+1V8*%
X105580000Y-72550000D02*
X105580000Y-71200000D01*
X105510000Y-72620000D02*
X105580000Y-72550000D01*
X105510000Y-74000000D02*
X105510000Y-72620000D01*
%TO.N,/REG*%
X100246447Y-70446447D02*
X100433554Y-70633554D01*
X100100000Y-69500000D02*
X100100000Y-70092893D01*
X100580000Y-70987107D02*
X100580000Y-71400000D01*
X100100005Y-70092893D02*
G75*
G03*
X100246447Y-70446447I499995J-7D01*
G01*
X100579995Y-70987107D02*
G75*
G03*
X100433554Y-70633554I-499995J7D01*
G01*
%TO.N,+VBAT*%
X100100000Y-68500000D02*
X100100000Y-68307107D01*
D22*
X113391421Y-67108579D02*
X113353578Y-67146422D01*
X113295000Y-67287843D02*
X113295000Y-67550000D01*
X113450000Y-66832843D02*
X113450000Y-66967157D01*
X114845000Y-66575000D02*
X113707843Y-66575000D01*
D20*
X100980000Y-67012893D02*
X100980000Y-66600000D01*
D22*
X115045000Y-66150000D02*
X115045000Y-66375000D01*
D20*
X100246447Y-67953553D02*
X100833554Y-67366446D01*
D22*
X113566421Y-66633579D02*
X113508578Y-66691422D01*
X113391442Y-67108600D02*
G75*
G03*
X113450000Y-66967157I-141442J141400D01*
G01*
X114845000Y-66575000D02*
G75*
G03*
X115045000Y-66375000I0J200000D01*
G01*
X113353557Y-67146401D02*
G75*
G03*
X113295000Y-67287843I141443J-141399D01*
G01*
X113707843Y-66575031D02*
G75*
G03*
X113566422Y-66633580I-43J-199969D01*
G01*
X113508557Y-66691401D02*
G75*
G03*
X113450000Y-66832843I141443J-141399D01*
G01*
D20*
X100833557Y-67366449D02*
G75*
G03*
X100980000Y-67012893I-353557J353549D01*
G01*
X100246444Y-67953550D02*
G75*
G03*
X100100000Y-68307107I353556J-353550D01*
G01*
D22*
%TO.N,VBUS*%
X115045000Y-67550000D02*
X115045000Y-67055000D01*
X115045000Y-67055000D02*
X115100000Y-67000000D01*
X113295000Y-66397893D02*
X113295000Y-66150000D01*
X112916606Y-66859130D02*
X113236422Y-66539314D01*
X112916606Y-66957597D02*
X112916606Y-66859130D01*
X113236425Y-66539317D02*
G75*
G03*
X113295000Y-66397893I-141425J141417D01*
G01*
%TO.N,/SCL*%
X102000000Y-70714214D02*
X102000000Y-74200000D01*
X103200000Y-75400000D02*
X103410000Y-75400000D01*
X111300000Y-54700000D02*
X111300000Y-58420101D01*
X100600000Y-68500000D02*
X101985786Y-68500000D01*
X113995000Y-62109214D02*
X113995000Y-66150000D01*
X103100000Y-69200000D02*
X102292893Y-70007107D01*
X103910000Y-75900000D02*
X103910000Y-76400000D01*
X111710051Y-59410051D02*
X113702107Y-61402107D01*
X102692893Y-68792893D02*
X103100000Y-69200000D01*
X102000000Y-74200000D02*
G75*
G03*
X103200000Y-75400000I1200000J0D01*
G01*
X102292886Y-70007100D02*
G75*
G03*
X102000000Y-70714214I707114J-707100D01*
G01*
X111300000Y-58420101D02*
G75*
G03*
X111710052Y-59410050I1400000J1D01*
G01*
X103910000Y-75900000D02*
G75*
G03*
X103410000Y-75400000I-500000J0D01*
G01*
X113994990Y-62109214D02*
G75*
G03*
X113702107Y-61402107I-999990J14D01*
G01*
X102692900Y-68792886D02*
G75*
G03*
X101985786Y-68500000I-707100J-707114D01*
G01*
%TO.N,/LRA_EN*%
X101105289Y-70005289D02*
X100600000Y-69500000D01*
X101398182Y-71900000D02*
X101398182Y-70712396D01*
X114025000Y-67025000D02*
X114025000Y-67600000D01*
X100900000Y-73000000D02*
X100610000Y-73000000D01*
X101398182Y-71900000D02*
X101398182Y-72565587D01*
X100900000Y-73000035D02*
G75*
G03*
X101398182Y-72565587I-1900J505035D01*
G01*
X101398190Y-70712396D02*
G75*
G03*
X101105289Y-70005289I-999990J-4D01*
G01*
%TO.N,/SDA*%
X111992893Y-59192893D02*
X113934950Y-61134950D01*
X112100000Y-55000000D02*
X111992893Y-55107107D01*
X111700000Y-55814214D02*
X111700000Y-58485786D01*
X103200000Y-74900000D02*
X103710000Y-74900000D01*
X102500000Y-71000000D02*
X102500000Y-74200000D01*
X104710000Y-75900000D02*
X104710000Y-76400000D01*
X114345000Y-62124899D02*
X114345000Y-66150000D01*
X111700010Y-58485786D02*
G75*
G03*
X111992893Y-59192893I999990J-14D01*
G01*
X111992886Y-55107100D02*
G75*
G03*
X111700000Y-55814214I707114J-707100D01*
G01*
X102500000Y-74200000D02*
G75*
G03*
X103200000Y-74900000I700000J0D01*
G01*
X114345000Y-62124899D02*
G75*
G03*
X113934949Y-61134951I-1400000J-1D01*
G01*
X104710000Y-75900000D02*
G75*
G03*
X103710000Y-74900000I-1000000J0D01*
G01*
%TO.N,/HR_INT*%
X114375000Y-67025000D02*
X114375000Y-67600000D01*
X103910000Y-69210000D02*
X103910000Y-74000000D01*
%TD*%
%TA.AperFunction,Conductor*%
%TO.N,/M-*%
G36*
X98341917Y-65749883D02*
G01*
X98365924Y-65765924D01*
X98849833Y-66249833D01*
X98868986Y-66283006D01*
X98868986Y-66321312D01*
X98849833Y-66354485D01*
X98812905Y-66391412D01*
X98795036Y-66426483D01*
X98762500Y-66490339D01*
X98745131Y-66600000D01*
X98762500Y-66709661D01*
X98812905Y-66808587D01*
X98891413Y-66887095D01*
X98990339Y-66937500D01*
X99100000Y-66954869D01*
X99209661Y-66937500D01*
X99266449Y-66908564D01*
X99300044Y-66900500D01*
X99571845Y-66900500D01*
X99612245Y-66912501D01*
X99625520Y-66928118D01*
X99626405Y-66927234D01*
X99636186Y-66937015D01*
X99636187Y-66937016D01*
X99712984Y-67013813D01*
X99712985Y-67013813D01*
X99722766Y-67023594D01*
X99721992Y-67024367D01*
X99738000Y-67037976D01*
X99750000Y-67078375D01*
X99750000Y-68576000D01*
X99740086Y-68613000D01*
X99713000Y-68640086D01*
X99676000Y-68650000D01*
X99105623Y-68650000D01*
X99077304Y-68644367D01*
X99053297Y-68628326D01*
X98958677Y-68533706D01*
X98937914Y-68492956D01*
X98937500Y-68490339D01*
X98887095Y-68391413D01*
X98821682Y-68326000D01*
X99241718Y-68326000D01*
X99363208Y-68326000D01*
X99302462Y-68265255D01*
X99241718Y-68326000D01*
X98821682Y-68326000D01*
X98808587Y-68312905D01*
X98709661Y-68262500D01*
X98600000Y-68245131D01*
X98599999Y-68245131D01*
X98503545Y-68260407D01*
X98469102Y-68257696D01*
X98439644Y-68239644D01*
X98240460Y-68040460D01*
X98820150Y-68040460D01*
X98945731Y-68104446D01*
X98964462Y-68118055D01*
X99031700Y-68185293D01*
X99127100Y-68089892D01*
X98948909Y-67911701D01*
X98820150Y-68040460D01*
X98240460Y-68040460D01*
X97936339Y-67736339D01*
X98417165Y-67736339D01*
X98595356Y-67914530D01*
X98773546Y-67736339D01*
X99124272Y-67736339D01*
X99302463Y-67914530D01*
X99426000Y-67790994D01*
X99426000Y-67681686D01*
X99302463Y-67558149D01*
X99124272Y-67736339D01*
X98773546Y-67736339D01*
X98595356Y-67558149D01*
X98417165Y-67736339D01*
X97936339Y-67736339D01*
X97582786Y-67382786D01*
X98063612Y-67382786D01*
X98241803Y-67560977D01*
X98419994Y-67382786D01*
X98419993Y-67382785D01*
X98770718Y-67382785D01*
X98948909Y-67560976D01*
X99127100Y-67382785D01*
X98948909Y-67204594D01*
X98770718Y-67382785D01*
X98419993Y-67382785D01*
X98241803Y-67204595D01*
X98063612Y-67382786D01*
X97582786Y-67382786D01*
X97229232Y-67029232D01*
X97710058Y-67029232D01*
X97888249Y-67207423D01*
X98066439Y-67029232D01*
X98417165Y-67029232D01*
X98595356Y-67207423D01*
X98728186Y-67074593D01*
X98618055Y-66964462D01*
X98604446Y-66945731D01*
X98569416Y-66876980D01*
X98417165Y-67029232D01*
X98066439Y-67029232D01*
X97888249Y-66851042D01*
X97710058Y-67029232D01*
X97229232Y-67029232D01*
X97100000Y-66900000D01*
X89700000Y-66900000D01*
X89700000Y-66675679D01*
X97356505Y-66675679D01*
X97534696Y-66853870D01*
X97712886Y-66675679D01*
X98063612Y-66675679D01*
X98241803Y-66853870D01*
X98419993Y-66675679D01*
X98241803Y-66497488D01*
X98063612Y-66675679D01*
X97712886Y-66675679D01*
X97534696Y-66497488D01*
X97356505Y-66675679D01*
X89700000Y-66675679D01*
X89700000Y-66576000D01*
X90385117Y-66576000D01*
X90542140Y-66576000D01*
X91092223Y-66576000D01*
X91249247Y-66576000D01*
X91799330Y-66576000D01*
X91956354Y-66576000D01*
X92506437Y-66576000D01*
X92663460Y-66576000D01*
X93213544Y-66576000D01*
X93370567Y-66576000D01*
X93920650Y-66576000D01*
X94077674Y-66576000D01*
X94627757Y-66576000D01*
X94784781Y-66576000D01*
X95334864Y-66576000D01*
X95491887Y-66576000D01*
X96041971Y-66576000D01*
X96198994Y-66576000D01*
X96749078Y-66576000D01*
X96906101Y-66576000D01*
X96827589Y-66497488D01*
X96749078Y-66576000D01*
X96198994Y-66576000D01*
X96120482Y-66497488D01*
X96041971Y-66576000D01*
X95491887Y-66576000D01*
X95413375Y-66497488D01*
X95334864Y-66576000D01*
X94784781Y-66576000D01*
X94706269Y-66497488D01*
X94627757Y-66576000D01*
X94077674Y-66576000D01*
X93999162Y-66497488D01*
X93920650Y-66576000D01*
X93370567Y-66576000D01*
X93292055Y-66497488D01*
X93213544Y-66576000D01*
X92663460Y-66576000D01*
X92584948Y-66497488D01*
X92506437Y-66576000D01*
X91956354Y-66576000D01*
X91877842Y-66497488D01*
X91799330Y-66576000D01*
X91249247Y-66576000D01*
X91170735Y-66497488D01*
X91092223Y-66576000D01*
X90542140Y-66576000D01*
X90463628Y-66497488D01*
X90385117Y-66576000D01*
X89700000Y-66576000D01*
X89700000Y-66414242D01*
X90024000Y-66414242D01*
X90110075Y-66500317D01*
X90288266Y-66322126D01*
X90638991Y-66322126D01*
X90817181Y-66500316D01*
X90995372Y-66322125D01*
X91346097Y-66322125D01*
X91524288Y-66500316D01*
X91702479Y-66322126D01*
X91702478Y-66322125D01*
X92053204Y-66322125D01*
X92231395Y-66500316D01*
X92409586Y-66322126D01*
X92760311Y-66322126D01*
X92938502Y-66500317D01*
X93116693Y-66322126D01*
X93467418Y-66322126D01*
X93645608Y-66500316D01*
X93823798Y-66322126D01*
X94174525Y-66322126D01*
X94352715Y-66500316D01*
X94530906Y-66322125D01*
X94881631Y-66322125D01*
X95059822Y-66500316D01*
X95238013Y-66322126D01*
X95588738Y-66322126D01*
X95766929Y-66500317D01*
X95945120Y-66322126D01*
X96295845Y-66322126D01*
X96474036Y-66500317D01*
X96652227Y-66322126D01*
X97002952Y-66322126D01*
X97181142Y-66500316D01*
X97359333Y-66322125D01*
X97710058Y-66322125D01*
X97888249Y-66500316D01*
X98066440Y-66322126D01*
X98066439Y-66322125D01*
X98417164Y-66322125D01*
X98521522Y-66426483D01*
X98521865Y-66424323D01*
X98529019Y-66402306D01*
X98534109Y-66392315D01*
X98440541Y-66298747D01*
X98417164Y-66322125D01*
X98066439Y-66322125D01*
X97888249Y-66143935D01*
X97710058Y-66322125D01*
X97359333Y-66322125D01*
X97181142Y-66143935D01*
X97002952Y-66322126D01*
X96652227Y-66322126D01*
X96474036Y-66143935D01*
X96295845Y-66322126D01*
X95945120Y-66322126D01*
X95766929Y-66143935D01*
X95588738Y-66322126D01*
X95238013Y-66322126D01*
X95059822Y-66143935D01*
X94881631Y-66322125D01*
X94530906Y-66322125D01*
X94352715Y-66143935D01*
X94174525Y-66322126D01*
X93823798Y-66322126D01*
X93823799Y-66322125D01*
X93645608Y-66143935D01*
X93467418Y-66322126D01*
X93116693Y-66322126D01*
X92938502Y-66143935D01*
X92760311Y-66322126D01*
X92409586Y-66322126D01*
X92231395Y-66143935D01*
X92053204Y-66322125D01*
X91702478Y-66322125D01*
X91524288Y-66143935D01*
X91346097Y-66322125D01*
X90995372Y-66322125D01*
X90817181Y-66143935D01*
X90638991Y-66322126D01*
X90288266Y-66322126D01*
X90110075Y-66143935D01*
X90024000Y-66230010D01*
X90024000Y-66414242D01*
X89700000Y-66414242D01*
X89700000Y-66024000D01*
X90340865Y-66024000D01*
X90463628Y-66146763D01*
X90586392Y-66024000D01*
X91047971Y-66024000D01*
X91170735Y-66146763D01*
X91293499Y-66024000D01*
X91755078Y-66024000D01*
X91877842Y-66146763D01*
X92000606Y-66024000D01*
X92462185Y-66024000D01*
X92584948Y-66146763D01*
X92707712Y-66024000D01*
X93169292Y-66024000D01*
X93292055Y-66146763D01*
X93414819Y-66024000D01*
X93876398Y-66024000D01*
X93999162Y-66146763D01*
X94121926Y-66024000D01*
X94583505Y-66024000D01*
X94706269Y-66146763D01*
X94829033Y-66024000D01*
X95290612Y-66024000D01*
X95413375Y-66146763D01*
X95536139Y-66024000D01*
X95997719Y-66024000D01*
X96120482Y-66146763D01*
X96243246Y-66024000D01*
X96704826Y-66024000D01*
X96827589Y-66146763D01*
X96950353Y-66024000D01*
X97411932Y-66024000D01*
X97534696Y-66146763D01*
X97657460Y-66024000D01*
X98119039Y-66024000D01*
X98241802Y-66146763D01*
X98265180Y-66123386D01*
X98165794Y-66024000D01*
X98119039Y-66024000D01*
X97657460Y-66024000D01*
X97411932Y-66024000D01*
X96950353Y-66024000D01*
X96704826Y-66024000D01*
X96243246Y-66024000D01*
X95997719Y-66024000D01*
X95536139Y-66024000D01*
X95290612Y-66024000D01*
X94829033Y-66024000D01*
X94583505Y-66024000D01*
X94121926Y-66024000D01*
X93876398Y-66024000D01*
X93414819Y-66024000D01*
X93169292Y-66024000D01*
X92707712Y-66024000D01*
X92462185Y-66024000D01*
X92000606Y-66024000D01*
X91755078Y-66024000D01*
X91293499Y-66024000D01*
X91047971Y-66024000D01*
X90586392Y-66024000D01*
X90340865Y-66024000D01*
X89700000Y-66024000D01*
X89700000Y-65744252D01*
X90527845Y-65744250D01*
X98313598Y-65744250D01*
X98341917Y-65749883D01*
G37*
%TD.AperFunction*%
%TD*%
%TA.AperFunction,Conductor*%
%TO.N,+VBAT*%
G36*
X124162500Y-69609914D02*
G01*
X124189586Y-69637000D01*
X124199500Y-69674000D01*
X124199500Y-71346331D01*
X124199143Y-71353591D01*
X124186761Y-71479186D01*
X124183930Y-71493411D01*
X124148349Y-71610681D01*
X124142798Y-71624082D01*
X124085019Y-71732168D01*
X124076960Y-71744228D01*
X123999215Y-71838959D01*
X123988959Y-71849215D01*
X123894228Y-71926960D01*
X123882168Y-71935019D01*
X123774082Y-71992798D01*
X123760681Y-71998349D01*
X123643411Y-72033930D01*
X123629186Y-72036761D01*
X123503591Y-72049143D01*
X123496331Y-72049500D01*
X121700000Y-72049500D01*
X121700000Y-69600000D01*
X124125500Y-69600000D01*
X124162500Y-69609914D01*
G37*
%TD.AperFunction*%
%TD*%
%TA.AperFunction,Conductor*%
%TO.N,+VBAT*%
G36*
X115244500Y-64569343D02*
G01*
X115247489Y-64599691D01*
X115253120Y-64628002D01*
X115276339Y-64684057D01*
X115292384Y-64708070D01*
X115311714Y-64731624D01*
X115422826Y-64842736D01*
X115438867Y-64866743D01*
X115444500Y-64895062D01*
X115444500Y-65725500D01*
X115434586Y-65762500D01*
X115407500Y-65789586D01*
X115370500Y-65799500D01*
X115280180Y-65799500D01*
X115236277Y-65808233D01*
X115236278Y-65808233D01*
X115186496Y-65841496D01*
X115153233Y-65891278D01*
X115144500Y-65935181D01*
X115144500Y-66326000D01*
X115134586Y-66363000D01*
X115107500Y-66390086D01*
X115070500Y-66400000D01*
X115019500Y-66400000D01*
X114982500Y-66390086D01*
X114955414Y-66363000D01*
X114945500Y-66326000D01*
X114945500Y-66274891D01*
X114950500Y-66251369D01*
X114950500Y-65610073D01*
X114958565Y-65576479D01*
X114981002Y-65550207D01*
X115000894Y-65541966D01*
X115009658Y-65537500D01*
X115009661Y-65537500D01*
X115108587Y-65487095D01*
X115187095Y-65408587D01*
X115237500Y-65309661D01*
X115254869Y-65200000D01*
X115237500Y-65090339D01*
X115187095Y-64991413D01*
X115108587Y-64912905D01*
X115009661Y-64862500D01*
X114900000Y-64845131D01*
X114790339Y-64862500D01*
X114724046Y-64896278D01*
X114680970Y-64918226D01*
X114680065Y-64916450D01*
X114658937Y-64927744D01*
X114616181Y-64923533D01*
X114582971Y-64896278D01*
X114570500Y-64855166D01*
X114570500Y-62018359D01*
X114570500Y-62018358D01*
X114542687Y-61807099D01*
X114487538Y-61601278D01*
X114445587Y-61500000D01*
X115244500Y-61500000D01*
X115244500Y-64569343D01*
G37*
%TD.AperFunction*%
%TD*%
%TA.AperFunction,Conductor*%
%TO.N,+3V3*%
G36*
X110300000Y-59500000D02*
G01*
X112978326Y-62178326D01*
X112994367Y-62202333D01*
X113000000Y-62230652D01*
X113000000Y-62300000D01*
X112469690Y-62300000D01*
X112468977Y-62293862D01*
X112467585Y-62263717D01*
X112462443Y-62252071D01*
X112457398Y-62235780D01*
X112455061Y-62223276D01*
X112439172Y-62197615D01*
X112434400Y-62188559D01*
X112422206Y-62160944D01*
X112413207Y-62151945D01*
X112402617Y-62138574D01*
X112395919Y-62127757D01*
X112371837Y-62109571D01*
X112364106Y-62102844D01*
X109822174Y-59560912D01*
X109806133Y-59536905D01*
X109800500Y-59508586D01*
X109800500Y-56402241D01*
X109800813Y-56400000D01*
X110300000Y-56400000D01*
X110300000Y-59500000D01*
G37*
%TD.AperFunction*%
%TD*%
%TA.AperFunction,Conductor*%
%TO.N,+1V8*%
G36*
X104300000Y-67100000D02*
G01*
X105478326Y-68278326D01*
X105494367Y-68302333D01*
X105500000Y-68330652D01*
X105500000Y-69400000D01*
X105700000Y-69600000D01*
X106426000Y-69600000D01*
X106463000Y-69609914D01*
X106490086Y-69637000D01*
X106500000Y-69674000D01*
X106500000Y-72569348D01*
X106494367Y-72597667D01*
X106478326Y-72621674D01*
X106221674Y-72878326D01*
X106197667Y-72894367D01*
X106169348Y-72900000D01*
X105374000Y-72900000D01*
X105337000Y-72890086D01*
X105309914Y-72863000D01*
X105300000Y-72826000D01*
X105300000Y-70840000D01*
X105216727Y-70840000D01*
X105170914Y-70824113D01*
X105144772Y-70783275D01*
X105149524Y-70735019D01*
X105183132Y-70700066D01*
X105208584Y-70687097D01*
X105208584Y-70687096D01*
X105208587Y-70687095D01*
X105287095Y-70608587D01*
X105337500Y-70509661D01*
X105354869Y-70400000D01*
X105337500Y-70290339D01*
X105287095Y-70191413D01*
X105208587Y-70112905D01*
X105109661Y-70062500D01*
X105000000Y-70045131D01*
X104999999Y-70045131D01*
X104945169Y-70053815D01*
X104890339Y-70062500D01*
X104840875Y-70087702D01*
X104791412Y-70112905D01*
X104712905Y-70191412D01*
X104662498Y-70290340D01*
X104662084Y-70292960D01*
X104641324Y-70333703D01*
X104626328Y-70348700D01*
X104588438Y-70368954D01*
X104545683Y-70364744D01*
X104512472Y-70337489D01*
X104500000Y-70296376D01*
X104500000Y-68700000D01*
X103221674Y-67421674D01*
X103205633Y-67397667D01*
X103200000Y-67369348D01*
X103200000Y-65700000D01*
X104300000Y-65700000D01*
X104300000Y-67100000D01*
G37*
%TD.AperFunction*%
%TD*%
%TA.AperFunction,Conductor*%
%TO.N,+1V8*%
G36*
X113199500Y-57945766D02*
G01*
X113197049Y-57960786D01*
X113199421Y-58012079D01*
X113199500Y-58015497D01*
X113199500Y-58034700D01*
X113199840Y-58036519D01*
X113201021Y-58046697D01*
X113202415Y-58076846D01*
X113207555Y-58088489D01*
X113212598Y-58104773D01*
X113214938Y-58117286D01*
X113230825Y-58142947D01*
X113235602Y-58152009D01*
X113247793Y-58179618D01*
X113256791Y-58188616D01*
X113267381Y-58201985D01*
X113274081Y-58212807D01*
X113298165Y-58230994D01*
X113305896Y-58237721D01*
X115847826Y-60779651D01*
X115863867Y-60803658D01*
X115869500Y-60831977D01*
X115869500Y-61000000D01*
X115400000Y-61000000D01*
X112721674Y-58321674D01*
X112705633Y-58297667D01*
X112700000Y-58269348D01*
X112700000Y-56400000D01*
X113199500Y-56400000D01*
X113199500Y-57945766D01*
G37*
%TD.AperFunction*%
%TD*%
%TA.AperFunction,Conductor*%
%TO.N,+3V3*%
G36*
X107696675Y-56318010D02*
G01*
X107695598Y-56321793D01*
X107699184Y-56360481D01*
X107699500Y-56367310D01*
X107699500Y-65700000D01*
X106700000Y-65700000D01*
X106678326Y-65678326D01*
X106679533Y-65677119D01*
X106665414Y-65663000D01*
X106655500Y-65626000D01*
X106655500Y-65242640D01*
X107052399Y-65242640D01*
X107185759Y-65376000D01*
X107275421Y-65376000D01*
X107408780Y-65242640D01*
X107230590Y-65064449D01*
X107052399Y-65242640D01*
X106655500Y-65242640D01*
X106655500Y-64966408D01*
X106977905Y-64966408D01*
X107055226Y-64889087D01*
X107405953Y-64889087D01*
X107451500Y-64934634D01*
X107451500Y-64843540D01*
X107405953Y-64889087D01*
X107055226Y-64889087D01*
X107055227Y-64889086D01*
X106978723Y-64812582D01*
X106977905Y-64966408D01*
X106655500Y-64966408D01*
X106655500Y-64666206D01*
X106655501Y-64665812D01*
X106656194Y-64535533D01*
X107052399Y-64535533D01*
X107230590Y-64713724D01*
X107408780Y-64535533D01*
X107230590Y-64357343D01*
X107052399Y-64535533D01*
X106656194Y-64535533D01*
X106657684Y-64255520D01*
X106981687Y-64255520D01*
X107055227Y-64181980D01*
X107405953Y-64181980D01*
X107451500Y-64227527D01*
X107451500Y-64136433D01*
X107405953Y-64181980D01*
X107055227Y-64181980D01*
X106982465Y-64109217D01*
X106981687Y-64255520D01*
X106657684Y-64255520D01*
X106659956Y-63828427D01*
X107052399Y-63828427D01*
X107230590Y-64006617D01*
X107408781Y-63828427D01*
X107230590Y-63650236D01*
X107052399Y-63828427D01*
X106659956Y-63828427D01*
X106661465Y-63544632D01*
X106985468Y-63544632D01*
X107055227Y-63474873D01*
X107405953Y-63474873D01*
X107451500Y-63520421D01*
X107451500Y-63429327D01*
X107405953Y-63474873D01*
X107055227Y-63474873D01*
X106986206Y-63405852D01*
X106985468Y-63544632D01*
X106661465Y-63544632D01*
X106663716Y-63121320D01*
X107052399Y-63121320D01*
X107230590Y-63299510D01*
X107408781Y-63121320D01*
X107230590Y-62943129D01*
X107052399Y-63121320D01*
X106663716Y-63121320D01*
X106665246Y-62833744D01*
X106989249Y-62833744D01*
X107055227Y-62767766D01*
X107405953Y-62767766D01*
X107451500Y-62813314D01*
X107451500Y-62722220D01*
X107405953Y-62767766D01*
X107055227Y-62767766D01*
X106989947Y-62702486D01*
X106989249Y-62833744D01*
X106665246Y-62833744D01*
X106667477Y-62414213D01*
X107052399Y-62414213D01*
X107230590Y-62592403D01*
X107408780Y-62414213D01*
X107230590Y-62236022D01*
X107052399Y-62414213D01*
X106667477Y-62414213D01*
X106669027Y-62122856D01*
X106993031Y-62122856D01*
X107055226Y-62060660D01*
X107405953Y-62060660D01*
X107451500Y-62106207D01*
X107451500Y-62015113D01*
X107405953Y-62060660D01*
X107055226Y-62060660D01*
X107055227Y-62060659D01*
X106993689Y-61999121D01*
X106993031Y-62122856D01*
X106669027Y-62122856D01*
X106671238Y-61707106D01*
X107052399Y-61707106D01*
X107230590Y-61885297D01*
X107408780Y-61707106D01*
X107230590Y-61528916D01*
X107052399Y-61707106D01*
X106671238Y-61707106D01*
X106672808Y-61411967D01*
X106996812Y-61411967D01*
X107055226Y-61353553D01*
X107405953Y-61353553D01*
X107451500Y-61399100D01*
X107451500Y-61308006D01*
X107405953Y-61353553D01*
X107055226Y-61353553D01*
X107055227Y-61353552D01*
X106997430Y-61295755D01*
X106996812Y-61411967D01*
X106672808Y-61411967D01*
X106674999Y-60999999D01*
X107052399Y-60999999D01*
X107230590Y-61178190D01*
X107408780Y-60999999D01*
X107230590Y-60821809D01*
X107052399Y-60999999D01*
X106674999Y-60999999D01*
X106676589Y-60701079D01*
X107000593Y-60701079D01*
X107055227Y-60646446D01*
X107405953Y-60646446D01*
X107451500Y-60691993D01*
X107451500Y-60600899D01*
X107405953Y-60646446D01*
X107055227Y-60646446D01*
X107001171Y-60592390D01*
X107000593Y-60701079D01*
X106676589Y-60701079D01*
X106678760Y-60292893D01*
X107052399Y-60292893D01*
X107230590Y-60471083D01*
X107408781Y-60292893D01*
X107230590Y-60114702D01*
X107052399Y-60292893D01*
X106678760Y-60292893D01*
X106680370Y-59990192D01*
X107004374Y-59990192D01*
X107055227Y-59939339D01*
X107405953Y-59939339D01*
X107451500Y-59984887D01*
X107451500Y-59893793D01*
X107405953Y-59939339D01*
X107055227Y-59939339D01*
X107004912Y-59889024D01*
X107004374Y-59990192D01*
X106680370Y-59990192D01*
X106682521Y-59585786D01*
X107052399Y-59585786D01*
X107230590Y-59763976D01*
X107408780Y-59585786D01*
X107230590Y-59407595D01*
X107052399Y-59585786D01*
X106682521Y-59585786D01*
X106684152Y-59279304D01*
X107008156Y-59279304D01*
X107055226Y-59232233D01*
X107405953Y-59232233D01*
X107451500Y-59277780D01*
X107451500Y-59186686D01*
X107405953Y-59232233D01*
X107055226Y-59232233D01*
X107055227Y-59232232D01*
X107008654Y-59185659D01*
X107008156Y-59279304D01*
X106684152Y-59279304D01*
X106686283Y-58878679D01*
X107052399Y-58878679D01*
X107230590Y-59056869D01*
X107408780Y-58878679D01*
X107230590Y-58700488D01*
X107052399Y-58878679D01*
X106686283Y-58878679D01*
X106687933Y-58568415D01*
X107011937Y-58568415D01*
X107055226Y-58525126D01*
X107405953Y-58525126D01*
X107451500Y-58570673D01*
X107451500Y-58479579D01*
X107405953Y-58525126D01*
X107055226Y-58525126D01*
X107055227Y-58525125D01*
X107012395Y-58482293D01*
X107011937Y-58568415D01*
X106687933Y-58568415D01*
X106690044Y-58171572D01*
X107052399Y-58171572D01*
X107230590Y-58349763D01*
X107408780Y-58171572D01*
X107230590Y-57993382D01*
X107052399Y-58171572D01*
X106690044Y-58171572D01*
X106691925Y-57818019D01*
X107405953Y-57818019D01*
X107451500Y-57863566D01*
X107451500Y-57772472D01*
X107405953Y-57818019D01*
X106691925Y-57818019D01*
X106693806Y-57464466D01*
X107052399Y-57464466D01*
X107230590Y-57642656D01*
X107408781Y-57464466D01*
X107230590Y-57286275D01*
X107052399Y-57464466D01*
X106693806Y-57464466D01*
X106695687Y-57110912D01*
X107405953Y-57110912D01*
X107451500Y-57156459D01*
X107451500Y-57065365D01*
X107405953Y-57110912D01*
X106695687Y-57110912D01*
X106697567Y-56757358D01*
X107052399Y-56757358D01*
X107230590Y-56935549D01*
X107408781Y-56757359D01*
X107275422Y-56624000D01*
X107185758Y-56624000D01*
X107052399Y-56757358D01*
X106697567Y-56757358D01*
X106700000Y-56300000D01*
X107699187Y-56300000D01*
X107696675Y-56318010D01*
G37*
%TD.AperFunction*%
%TD*%
%TA.AperFunction,Conductor*%
%TO.N,VBUS*%
G36*
X111074500Y-58526641D02*
G01*
X111102313Y-58737904D01*
X111157461Y-58943718D01*
X111239006Y-59140584D01*
X111345548Y-59325121D01*
X111475260Y-59494165D01*
X111510610Y-59529514D01*
X111510613Y-59529518D01*
X111516704Y-59535609D01*
X111516705Y-59535611D01*
X112587957Y-60606862D01*
X113540082Y-61558987D01*
X113544959Y-61564369D01*
X113634345Y-61673289D01*
X113642405Y-61685350D01*
X113707103Y-61806395D01*
X113712654Y-61819798D01*
X113752494Y-61951139D01*
X113755324Y-61965367D01*
X113769143Y-62105693D01*
X113769499Y-62112945D01*
X113769499Y-62162677D01*
X113769500Y-62162685D01*
X113769500Y-62200000D01*
X113200000Y-62200000D01*
X113139525Y-62139525D01*
X113127783Y-62121952D01*
X113127709Y-62122002D01*
X113107615Y-62091929D01*
X113088285Y-62068375D01*
X110477174Y-59457264D01*
X110461133Y-59433257D01*
X110455500Y-59404938D01*
X110455500Y-56400000D01*
X111074500Y-56400000D01*
X111074500Y-58526641D01*
G37*
%TD.AperFunction*%
%TD*%
%TA.AperFunction,Conductor*%
%TO.N,+1V8*%
G36*
X106391066Y-52168365D02*
G01*
X106396030Y-52168563D01*
X107283206Y-52221982D01*
X107288130Y-52222377D01*
X108172491Y-52311316D01*
X108177379Y-52311908D01*
X109057427Y-52436217D01*
X109062330Y-52437011D01*
X109936664Y-52596489D01*
X109941534Y-52597478D01*
X110808789Y-52791878D01*
X110813579Y-52793053D01*
X111672369Y-53022063D01*
X111677129Y-53023435D01*
X112526031Y-53286679D01*
X112530731Y-53288240D01*
X113368410Y-53585300D01*
X113373009Y-53587035D01*
X114108421Y-53881519D01*
X114191948Y-53914966D01*
X114240957Y-53950512D01*
X114267295Y-54005027D01*
X114264682Y-54065514D01*
X114233740Y-54117554D01*
X114181848Y-54148740D01*
X114096046Y-54174767D01*
X113913551Y-54272314D01*
X113753589Y-54403589D01*
X113622314Y-54563551D01*
X113524769Y-54746043D01*
X113464699Y-54944067D01*
X113444417Y-55149999D01*
X113464699Y-55355932D01*
X113475949Y-55393018D01*
X113524768Y-55553954D01*
X113622315Y-55736450D01*
X113659737Y-55782049D01*
X113712905Y-55846836D01*
X113740119Y-55910322D01*
X113729145Y-55978517D01*
X113683390Y-56030262D01*
X113617051Y-56049500D01*
X113559216Y-56049500D01*
X113530033Y-56045429D01*
X113496188Y-56048565D01*
X113491815Y-56048971D01*
X113480376Y-56049500D01*
X113472156Y-56049500D01*
X113466424Y-56050570D01*
X113464070Y-56051011D01*
X113452740Y-56052591D01*
X113414519Y-56056133D01*
X113391123Y-56063975D01*
X113358495Y-56084177D01*
X113348494Y-56089747D01*
X113314131Y-56106858D01*
X113295153Y-56122617D01*
X113272026Y-56153242D01*
X113264712Y-56162049D01*
X113238853Y-56190415D01*
X113226844Y-56211975D01*
X113216343Y-56248884D01*
X113212704Y-56259741D01*
X113198836Y-56295537D01*
X113195429Y-56319966D01*
X113198971Y-56358182D01*
X113199500Y-56369624D01*
X113199500Y-56400000D01*
X112700000Y-56400000D01*
X112700000Y-55951362D01*
X112709439Y-55903909D01*
X112736319Y-55863681D01*
X112800481Y-55799519D01*
X112900000Y-55700000D01*
X112900000Y-54200000D01*
X112500000Y-53800000D01*
X109251362Y-53800000D01*
X109203909Y-53790561D01*
X109163681Y-53763681D01*
X108200000Y-52800000D01*
X102700000Y-52800000D01*
X102699999Y-52800000D01*
X102100000Y-53399999D01*
X102100000Y-53400000D01*
X102100000Y-55000000D01*
X102800000Y-55700000D01*
X103348638Y-55700000D01*
X103396091Y-55709439D01*
X103436319Y-55736319D01*
X104000000Y-56300000D01*
X103297154Y-56300000D01*
X103293866Y-56264515D01*
X103286029Y-56241132D01*
X103285061Y-56239569D01*
X103285061Y-56239567D01*
X103265814Y-56208482D01*
X103260246Y-56198484D01*
X103243141Y-56164130D01*
X103227383Y-56145153D01*
X103196750Y-56122020D01*
X103187949Y-56114712D01*
X103160933Y-56090084D01*
X103160932Y-56090083D01*
X103159578Y-56088849D01*
X103138028Y-56076845D01*
X103101122Y-56066345D01*
X103090264Y-56062706D01*
X103054462Y-56048836D01*
X103030033Y-56045429D01*
X102996188Y-56048565D01*
X102991815Y-56048971D01*
X102980376Y-56049500D01*
X97382949Y-56049500D01*
X97316610Y-56030262D01*
X97270855Y-55978517D01*
X97259881Y-55910322D01*
X97287095Y-55846836D01*
X97325926Y-55799519D01*
X97377685Y-55736450D01*
X97475232Y-55553954D01*
X97535300Y-55355934D01*
X97555583Y-55150000D01*
X97535300Y-54944066D01*
X97475232Y-54746046D01*
X97377685Y-54563550D01*
X97312047Y-54483569D01*
X97246410Y-54403589D01*
X97148952Y-54323608D01*
X97086450Y-54272315D01*
X96903954Y-54174768D01*
X96818150Y-54148740D01*
X96766259Y-54117554D01*
X96735318Y-54065514D01*
X96732704Y-54005027D01*
X96759042Y-53950512D01*
X96808049Y-53914967D01*
X97627006Y-53587029D01*
X97631573Y-53585306D01*
X98469283Y-53288235D01*
X98473953Y-53286683D01*
X99322884Y-53023431D01*
X99327617Y-53022067D01*
X100186432Y-52793050D01*
X100191199Y-52791881D01*
X101058474Y-52597476D01*
X101063324Y-52596491D01*
X101937680Y-52437009D01*
X101942565Y-52436218D01*
X102822626Y-52311907D01*
X102827502Y-52311317D01*
X103711873Y-52222377D01*
X103716789Y-52221982D01*
X104603971Y-52168563D01*
X104608931Y-52168365D01*
X105497556Y-52150549D01*
X105502444Y-52150549D01*
X106391066Y-52168365D01*
G37*
%TD.AperFunction*%
%TD*%
%TA.AperFunction,Conductor*%
%TO.N,+3V3*%
G36*
X110097667Y-55805633D02*
G01*
X110121674Y-55821674D01*
X110278326Y-55978326D01*
X110294367Y-56002333D01*
X110300000Y-56030652D01*
X110300000Y-56400000D01*
X109800813Y-56400000D01*
X109803325Y-56381990D01*
X109804401Y-56378206D01*
X109800816Y-56339519D01*
X109800500Y-56332690D01*
X109800500Y-56322159D01*
X109800500Y-56322156D01*
X109798560Y-56311782D01*
X109797619Y-56305025D01*
X109797400Y-56302665D01*
X109794170Y-56267792D01*
X109794035Y-56266338D01*
X109792280Y-56262814D01*
X109785783Y-56243430D01*
X109785061Y-56239567D01*
X109764600Y-56206521D01*
X109761284Y-56200568D01*
X109743958Y-56165772D01*
X109741052Y-56163123D01*
X109727988Y-56147389D01*
X109725919Y-56144047D01*
X109694910Y-56120631D01*
X109689650Y-56116263D01*
X109660932Y-56090082D01*
X109657260Y-56088660D01*
X109639402Y-56078713D01*
X109636264Y-56076343D01*
X109598892Y-56065710D01*
X109592412Y-56063538D01*
X109556174Y-56049500D01*
X109556173Y-56049500D01*
X109552241Y-56049500D01*
X109531990Y-56046675D01*
X109528206Y-56045598D01*
X109491907Y-56048962D01*
X109489517Y-56049184D01*
X109482690Y-56049500D01*
X108052241Y-56049500D01*
X108031990Y-56046675D01*
X108028206Y-56045598D01*
X107991907Y-56048962D01*
X107989517Y-56049184D01*
X107982690Y-56049500D01*
X107972156Y-56049500D01*
X107961793Y-56051436D01*
X107955034Y-56052378D01*
X107916338Y-56055964D01*
X107912806Y-56057723D01*
X107893436Y-56064215D01*
X107889565Y-56064938D01*
X107856526Y-56085395D01*
X107850558Y-56088719D01*
X107815772Y-56106041D01*
X107813121Y-56108949D01*
X107797396Y-56122007D01*
X107794047Y-56124080D01*
X107770626Y-56155094D01*
X107766261Y-56160351D01*
X107740082Y-56189068D01*
X107738659Y-56192741D01*
X107728719Y-56210588D01*
X107726345Y-56213732D01*
X107715708Y-56251114D01*
X107713537Y-56257591D01*
X107699500Y-56293827D01*
X107699500Y-56297759D01*
X107699187Y-56300000D01*
X106700000Y-56300000D01*
X106700000Y-56299992D01*
X106700000Y-56030652D01*
X106705633Y-56002333D01*
X106721674Y-55978326D01*
X106878326Y-55821674D01*
X106902333Y-55805633D01*
X106930652Y-55800000D01*
X110069348Y-55800000D01*
X110097667Y-55805633D01*
G37*
%TD.AperFunction*%
%TD*%
%TA.AperFunction,Conductor*%
%TO.N,+3V3*%
G36*
X113000000Y-64469348D02*
G01*
X112994367Y-64497667D01*
X112978326Y-64521674D01*
X112800000Y-64700000D01*
X112800000Y-65759510D01*
X112791262Y-65794393D01*
X112767112Y-65821039D01*
X112736496Y-65841495D01*
X112703233Y-65891278D01*
X112694500Y-65935181D01*
X112694500Y-66283097D01*
X112684586Y-66320097D01*
X112657500Y-66347183D01*
X112620500Y-66357097D01*
X112594704Y-66357097D01*
X112594461Y-66357123D01*
X112573986Y-66357119D01*
X112536992Y-66347200D01*
X112509912Y-66320115D01*
X112500000Y-66283119D01*
X112500000Y-65300000D01*
X112492174Y-65292174D01*
X112476133Y-65268167D01*
X112470500Y-65239848D01*
X112470500Y-62394797D01*
X112472950Y-62379776D01*
X112470579Y-62328484D01*
X112470500Y-62325066D01*
X112470500Y-62305866D01*
X112470160Y-62304049D01*
X112469690Y-62300000D01*
X113000000Y-62300000D01*
X113000000Y-64469348D01*
G37*
%TD.AperFunction*%
%TD*%
%TA.AperFunction,Conductor*%
%TO.N,GND*%
G36*
X123503614Y-66650856D02*
G01*
X123629217Y-66663227D01*
X123643435Y-66666055D01*
X123760717Y-66701631D01*
X123774112Y-66707180D01*
X123882193Y-66764951D01*
X123894254Y-66773010D01*
X123988986Y-66850755D01*
X123999244Y-66861013D01*
X124076989Y-66955745D01*
X124085048Y-66967806D01*
X124142817Y-67075883D01*
X124148369Y-67089286D01*
X124183943Y-67206559D01*
X124186773Y-67220786D01*
X124199144Y-67346385D01*
X124199500Y-67353639D01*
X124199500Y-69326000D01*
X124189586Y-69363000D01*
X124162500Y-69390086D01*
X124125500Y-69400000D01*
X121774000Y-69400000D01*
X121737000Y-69390086D01*
X121709914Y-69363000D01*
X121700000Y-69326000D01*
X121700000Y-68877006D01*
X121703622Y-68854139D01*
X121741155Y-68738621D01*
X121768477Y-68654534D01*
X121800500Y-68452352D01*
X121800500Y-68350000D01*
X121800500Y-68302405D01*
X121800500Y-67353639D01*
X121800856Y-67346386D01*
X121803242Y-67322156D01*
X121813227Y-67220780D01*
X121816054Y-67206566D01*
X121851632Y-67089278D01*
X121857178Y-67075890D01*
X121914954Y-66967800D01*
X121923006Y-66955749D01*
X122000756Y-66861011D01*
X122011013Y-66850755D01*
X122105749Y-66773006D01*
X122117800Y-66764954D01*
X122225890Y-66707178D01*
X122239278Y-66701632D01*
X122356566Y-66666054D01*
X122370780Y-66663227D01*
X122496385Y-66650856D01*
X122503639Y-66650500D01*
X122547595Y-66650500D01*
X123452405Y-66650500D01*
X123496361Y-66650500D01*
X123503614Y-66650856D01*
G37*
%TD.AperFunction*%
%TD*%
%TA.AperFunction,Conductor*%
%TO.N,+3V3*%
G36*
X107699500Y-67290320D02*
G01*
X107699493Y-67290363D01*
X107699494Y-67319269D01*
X107699475Y-67319367D01*
X107699484Y-67489297D01*
X107700000Y-67497813D01*
X107700000Y-73069348D01*
X107694367Y-73097667D01*
X107678326Y-73121674D01*
X107300000Y-73499999D01*
X107300000Y-74326000D01*
X107290086Y-74363000D01*
X107263000Y-74390086D01*
X107226000Y-74400000D01*
X106174000Y-74400000D01*
X106137000Y-74390086D01*
X106109914Y-74363000D01*
X106100000Y-74326000D01*
X106100000Y-73330652D01*
X106105633Y-73302333D01*
X106121674Y-73278326D01*
X106330652Y-73069348D01*
X106700000Y-72700000D01*
X106700000Y-65700000D01*
X107699500Y-65700000D01*
X107699500Y-67290320D01*
G37*
%TD.AperFunction*%
%TD*%
%TA.AperFunction,Conductor*%
%TO.N,+VBAT*%
G36*
X108391588Y-69004809D02*
G01*
X108414418Y-69018610D01*
X108578665Y-69164120D01*
X108807699Y-69322213D01*
X108807701Y-69322214D01*
X109054125Y-69451552D01*
X109314341Y-69550247D01*
X109584556Y-69616859D01*
X109830905Y-69646781D01*
X109860828Y-69650416D01*
X109860838Y-69650416D01*
X109929820Y-69650419D01*
X109930252Y-69650500D01*
X113300000Y-69650500D01*
X113300000Y-72100000D01*
X112576816Y-72100000D01*
X112532734Y-72085437D01*
X112506002Y-72047481D01*
X112475231Y-71946044D01*
X112453332Y-71905075D01*
X112377685Y-71763550D01*
X112246410Y-71603590D01*
X112086450Y-71472315D01*
X111995202Y-71423541D01*
X111903955Y-71374768D01*
X111804944Y-71344734D01*
X111705934Y-71314700D01*
X111500000Y-71294417D01*
X111294066Y-71314700D01*
X111096044Y-71374768D01*
X110913550Y-71472315D01*
X110753590Y-71603590D01*
X110622315Y-71763550D01*
X110524768Y-71946044D01*
X110493998Y-72047481D01*
X110467266Y-72085437D01*
X110423184Y-72100000D01*
X107974000Y-72100000D01*
X107937000Y-72090086D01*
X107909914Y-72063000D01*
X107900000Y-72026000D01*
X107900000Y-69074000D01*
X107909914Y-69037000D01*
X107937000Y-69009914D01*
X107974000Y-69000000D01*
X108365347Y-69000000D01*
X108391588Y-69004809D01*
G37*
%TD.AperFunction*%
%TD*%
%TA.AperFunction,Conductor*%
%TO.N,VBUS*%
G36*
X105713000Y-54559914D02*
G01*
X105740086Y-54587000D01*
X105750000Y-54624000D01*
X105750000Y-55200000D01*
X107179439Y-55200000D01*
X107209536Y-55206397D01*
X107220197Y-55211144D01*
X107405354Y-55250500D01*
X107594646Y-55250500D01*
X107779803Y-55211144D01*
X107790463Y-55206397D01*
X107820561Y-55200000D01*
X110669348Y-55200000D01*
X110697667Y-55205633D01*
X110721674Y-55221674D01*
X111052826Y-55552826D01*
X111068867Y-55576833D01*
X111074500Y-55605152D01*
X111074500Y-56400000D01*
X110455500Y-56400000D01*
X110455500Y-56030652D01*
X110452512Y-56000315D01*
X110446879Y-55971996D01*
X110423660Y-55915942D01*
X110407619Y-55891935D01*
X110407615Y-55891929D01*
X110388285Y-55868375D01*
X110231624Y-55711714D01*
X110208068Y-55692382D01*
X110177998Y-55672290D01*
X110178047Y-55672215D01*
X110160474Y-55660474D01*
X110150000Y-55650000D01*
X110119601Y-55650000D01*
X110105166Y-55648578D01*
X110099693Y-55647489D01*
X110099687Y-55647488D01*
X110099685Y-55647488D01*
X110069348Y-55644500D01*
X106930652Y-55644500D01*
X106900315Y-55647488D01*
X106900313Y-55647488D01*
X106900306Y-55647489D01*
X106894834Y-55648578D01*
X106880399Y-55650000D01*
X106319601Y-55650000D01*
X106305166Y-55648578D01*
X106299693Y-55647489D01*
X106299687Y-55647488D01*
X106299685Y-55647488D01*
X106269348Y-55644500D01*
X106269343Y-55644500D01*
X104295062Y-55644500D01*
X104266743Y-55638867D01*
X104242736Y-55622826D01*
X103779072Y-55159161D01*
X103748615Y-55135473D01*
X103724129Y-55120907D01*
X103709636Y-55109636D01*
X103652326Y-55052326D01*
X103633173Y-55019153D01*
X103633173Y-54980847D01*
X103652326Y-54947674D01*
X103652325Y-54947674D01*
X103951546Y-54648453D01*
X103982895Y-54629816D01*
X104019341Y-54628416D01*
X104052028Y-54644595D01*
X104700000Y-55200000D01*
X105250000Y-55200000D01*
X105250000Y-54624000D01*
X105259914Y-54587000D01*
X105287000Y-54559914D01*
X105324000Y-54550000D01*
X105676000Y-54550000D01*
X105713000Y-54559914D01*
G37*
%TD.AperFunction*%
%TD*%
%TA.AperFunction,Conductor*%
%TO.N,+VBAT*%
G36*
X106500000Y-65700000D02*
G01*
X104455500Y-65700000D01*
X104455500Y-65301819D01*
X105174889Y-65301819D01*
X105202954Y-65356901D01*
X105209160Y-65376000D01*
X105297641Y-65376000D01*
X105807816Y-65376000D01*
X106004747Y-65376000D01*
X105906281Y-65277534D01*
X105807816Y-65376000D01*
X105297641Y-65376000D01*
X105199175Y-65277534D01*
X105174889Y-65301819D01*
X104455500Y-65301819D01*
X104455500Y-65102171D01*
X105374537Y-65102171D01*
X105552728Y-65280362D01*
X105730918Y-65102171D01*
X106081644Y-65102171D01*
X106176000Y-65196527D01*
X106176000Y-65007816D01*
X106081644Y-65102171D01*
X105730918Y-65102171D01*
X105552728Y-64923981D01*
X105374537Y-65102171D01*
X104455500Y-65102171D01*
X104455500Y-64634987D01*
X105134614Y-64634987D01*
X105139012Y-64639385D01*
X105152621Y-64658116D01*
X105202954Y-64756901D01*
X105210108Y-64778920D01*
X105227452Y-64888424D01*
X105227452Y-64898532D01*
X105377366Y-64748618D01*
X105728091Y-64748618D01*
X105906281Y-64926808D01*
X106084472Y-64748617D01*
X105906281Y-64570427D01*
X105728091Y-64748618D01*
X105377366Y-64748618D01*
X105199174Y-64570426D01*
X105134614Y-64634987D01*
X104455500Y-64634987D01*
X104455500Y-64451634D01*
X104724000Y-64451634D01*
X104750862Y-64478496D01*
X104788424Y-64472548D01*
X104811576Y-64472548D01*
X104921080Y-64489892D01*
X104927046Y-64491830D01*
X105023811Y-64395065D01*
X105374537Y-64395065D01*
X105552728Y-64573255D01*
X105730919Y-64395065D01*
X106081644Y-64395065D01*
X106176000Y-64489421D01*
X106176000Y-64300709D01*
X106081644Y-64395065D01*
X105730919Y-64395065D01*
X105552728Y-64216874D01*
X105374537Y-64395065D01*
X105023811Y-64395065D01*
X105023812Y-64395064D01*
X104845621Y-64216874D01*
X104724000Y-64338496D01*
X104724000Y-64451634D01*
X104455500Y-64451634D01*
X104455500Y-64041511D01*
X105020984Y-64041511D01*
X105199175Y-64219702D01*
X105377365Y-64041511D01*
X105728091Y-64041511D01*
X105906281Y-64219701D01*
X106084472Y-64041511D01*
X105906281Y-63863320D01*
X105728091Y-64041511D01*
X105377365Y-64041511D01*
X105199175Y-63863320D01*
X105020984Y-64041511D01*
X104455500Y-64041511D01*
X104455500Y-63744527D01*
X104724000Y-63744527D01*
X104845621Y-63866148D01*
X105023812Y-63687958D01*
X105374537Y-63687958D01*
X105552728Y-63866148D01*
X105730919Y-63687958D01*
X106081644Y-63687958D01*
X106176000Y-63782314D01*
X106176000Y-63593602D01*
X106081644Y-63687958D01*
X105730919Y-63687958D01*
X105552728Y-63509767D01*
X105374537Y-63687958D01*
X105023812Y-63687958D01*
X104845621Y-63509767D01*
X104724000Y-63631389D01*
X104724000Y-63744527D01*
X104455500Y-63744527D01*
X104455500Y-63334404D01*
X105020984Y-63334404D01*
X105199175Y-63512595D01*
X105377365Y-63334404D01*
X105728091Y-63334404D01*
X105906281Y-63512595D01*
X106084472Y-63334404D01*
X105906281Y-63156214D01*
X105728091Y-63334404D01*
X105377365Y-63334404D01*
X105199175Y-63156214D01*
X105020984Y-63334404D01*
X104455500Y-63334404D01*
X104455500Y-63037420D01*
X104724000Y-63037420D01*
X104845621Y-63159041D01*
X105023812Y-62980851D01*
X105374537Y-62980851D01*
X105552728Y-63159041D01*
X105730918Y-62980851D01*
X106081644Y-62980851D01*
X106176000Y-63075207D01*
X106176000Y-62886496D01*
X106081644Y-62980851D01*
X105730918Y-62980851D01*
X105552728Y-62802660D01*
X105374537Y-62980851D01*
X105023812Y-62980851D01*
X104845621Y-62802660D01*
X104724000Y-62924282D01*
X104724000Y-63037420D01*
X104455500Y-63037420D01*
X104455500Y-62627298D01*
X105020984Y-62627298D01*
X105199175Y-62805489D01*
X105377366Y-62627298D01*
X105728091Y-62627298D01*
X105906281Y-62805488D01*
X106084472Y-62627298D01*
X105906281Y-62449107D01*
X105728091Y-62627298D01*
X105377366Y-62627298D01*
X105199175Y-62449107D01*
X105020984Y-62627298D01*
X104455500Y-62627298D01*
X104455500Y-62330313D01*
X104724000Y-62330313D01*
X104845621Y-62451934D01*
X105023812Y-62273744D01*
X105374537Y-62273744D01*
X105552728Y-62451934D01*
X105730918Y-62273744D01*
X106081644Y-62273744D01*
X106176000Y-62368100D01*
X106176000Y-62179389D01*
X106081644Y-62273744D01*
X105730918Y-62273744D01*
X105552728Y-62095553D01*
X105374537Y-62273744D01*
X105023812Y-62273744D01*
X104845621Y-62095553D01*
X104724000Y-62217175D01*
X104724000Y-62330313D01*
X104455500Y-62330313D01*
X104455500Y-61920191D01*
X105020984Y-61920191D01*
X105199175Y-62098382D01*
X105377366Y-61920191D01*
X105728091Y-61920191D01*
X105906281Y-62098381D01*
X106084472Y-61920190D01*
X105906281Y-61742000D01*
X105728091Y-61920191D01*
X105377366Y-61920191D01*
X105199175Y-61742000D01*
X105020984Y-61920191D01*
X104455500Y-61920191D01*
X104455500Y-61623207D01*
X104724000Y-61623207D01*
X104845621Y-61744828D01*
X105023812Y-61566637D01*
X105374537Y-61566637D01*
X105552728Y-61744828D01*
X105730918Y-61566637D01*
X106081644Y-61566637D01*
X106176000Y-61660993D01*
X106176000Y-61472282D01*
X106081644Y-61566637D01*
X105730918Y-61566637D01*
X105552728Y-61388447D01*
X105374537Y-61566637D01*
X105023812Y-61566637D01*
X104845621Y-61388447D01*
X104724000Y-61510069D01*
X104724000Y-61623207D01*
X104455500Y-61623207D01*
X104455500Y-61213084D01*
X105020984Y-61213084D01*
X105199175Y-61391275D01*
X105377365Y-61213084D01*
X105728091Y-61213084D01*
X105906281Y-61391274D01*
X106084472Y-61213084D01*
X105906281Y-61034893D01*
X105728091Y-61213084D01*
X105377365Y-61213084D01*
X105199175Y-61034893D01*
X105020984Y-61213084D01*
X104455500Y-61213084D01*
X104455500Y-60916100D01*
X104724000Y-60916100D01*
X104845621Y-61037721D01*
X105023812Y-60859531D01*
X105374537Y-60859531D01*
X105552728Y-61037721D01*
X105730919Y-60859531D01*
X106081644Y-60859531D01*
X106176000Y-60953887D01*
X106176000Y-60765175D01*
X106081644Y-60859531D01*
X105730919Y-60859531D01*
X105552728Y-60681340D01*
X105374537Y-60859531D01*
X105023812Y-60859531D01*
X104845621Y-60681340D01*
X104724000Y-60802962D01*
X104724000Y-60916100D01*
X104455500Y-60916100D01*
X104455500Y-60505977D01*
X105020984Y-60505977D01*
X105199175Y-60684168D01*
X105377365Y-60505977D01*
X105728091Y-60505977D01*
X105906281Y-60684168D01*
X106084472Y-60505977D01*
X105906281Y-60327787D01*
X105728091Y-60505977D01*
X105377365Y-60505977D01*
X105199175Y-60327787D01*
X105020984Y-60505977D01*
X104455500Y-60505977D01*
X104455500Y-60208993D01*
X104724000Y-60208993D01*
X104845621Y-60330614D01*
X105023812Y-60152424D01*
X105374537Y-60152424D01*
X105552728Y-60330614D01*
X105730919Y-60152424D01*
X106081644Y-60152424D01*
X106176000Y-60246780D01*
X106176000Y-60058068D01*
X106081644Y-60152424D01*
X105730919Y-60152424D01*
X105552728Y-59974233D01*
X105374537Y-60152424D01*
X105023812Y-60152424D01*
X104845621Y-59974233D01*
X104724000Y-60095855D01*
X104724000Y-60208993D01*
X104455500Y-60208993D01*
X104455500Y-59798870D01*
X105020984Y-59798870D01*
X105199175Y-59977061D01*
X105377365Y-59798870D01*
X105728091Y-59798870D01*
X105906281Y-59977061D01*
X106084472Y-59798870D01*
X105906281Y-59620680D01*
X105728091Y-59798870D01*
X105377365Y-59798870D01*
X105199175Y-59620680D01*
X105020984Y-59798870D01*
X104455500Y-59798870D01*
X104455500Y-59501886D01*
X104724000Y-59501886D01*
X104845621Y-59623507D01*
X105023812Y-59445317D01*
X105374537Y-59445317D01*
X105552728Y-59623507D01*
X105730918Y-59445317D01*
X106081644Y-59445317D01*
X106176000Y-59539673D01*
X106176000Y-59350962D01*
X106081644Y-59445317D01*
X105730918Y-59445317D01*
X105552728Y-59267126D01*
X105374537Y-59445317D01*
X105023812Y-59445317D01*
X104845621Y-59267126D01*
X104724000Y-59388748D01*
X104724000Y-59501886D01*
X104455500Y-59501886D01*
X104455500Y-59091764D01*
X105020984Y-59091764D01*
X105199175Y-59269955D01*
X105377366Y-59091764D01*
X105728091Y-59091764D01*
X105906281Y-59269954D01*
X106084472Y-59091763D01*
X105906281Y-58913573D01*
X105728091Y-59091764D01*
X105377366Y-59091764D01*
X105199175Y-58913573D01*
X105020984Y-59091764D01*
X104455500Y-59091764D01*
X104455500Y-58794780D01*
X104724000Y-58794780D01*
X104845621Y-58916401D01*
X105023812Y-58738210D01*
X105374537Y-58738210D01*
X105552728Y-58916401D01*
X105730918Y-58738210D01*
X106081644Y-58738210D01*
X106176000Y-58832566D01*
X106176000Y-58643855D01*
X106081644Y-58738210D01*
X105730918Y-58738210D01*
X105552728Y-58560020D01*
X105374537Y-58738210D01*
X105023812Y-58738210D01*
X104845621Y-58560020D01*
X104724000Y-58681642D01*
X104724000Y-58794780D01*
X104455500Y-58794780D01*
X104455500Y-58384657D01*
X105020984Y-58384657D01*
X105199175Y-58562848D01*
X105377366Y-58384657D01*
X105728091Y-58384657D01*
X105906281Y-58562847D01*
X106084472Y-58384657D01*
X105906281Y-58206466D01*
X105728091Y-58384657D01*
X105377366Y-58384657D01*
X105199175Y-58206466D01*
X105020984Y-58384657D01*
X104455500Y-58384657D01*
X104455500Y-58087673D01*
X104724000Y-58087673D01*
X104845621Y-58209294D01*
X105023812Y-58031103D01*
X105374537Y-58031103D01*
X105552728Y-58209294D01*
X105730918Y-58031103D01*
X106081644Y-58031103D01*
X106176000Y-58125459D01*
X106176000Y-57936748D01*
X106081644Y-58031103D01*
X105730918Y-58031103D01*
X105552728Y-57852913D01*
X105374537Y-58031103D01*
X105023812Y-58031103D01*
X104845621Y-57852913D01*
X104724000Y-57974535D01*
X104724000Y-58087673D01*
X104455500Y-58087673D01*
X104455500Y-57677550D01*
X105020984Y-57677550D01*
X105199175Y-57855741D01*
X105377365Y-57677550D01*
X105728091Y-57677550D01*
X105906281Y-57855740D01*
X106084472Y-57677550D01*
X105906281Y-57499359D01*
X105728091Y-57677550D01*
X105377365Y-57677550D01*
X105199175Y-57499359D01*
X105020984Y-57677550D01*
X104455500Y-57677550D01*
X104455500Y-57380566D01*
X104724000Y-57380566D01*
X104845621Y-57502187D01*
X105023812Y-57323997D01*
X105023811Y-57323996D01*
X105374537Y-57323996D01*
X105552728Y-57502187D01*
X105730919Y-57323997D01*
X106081644Y-57323997D01*
X106176000Y-57418353D01*
X106176000Y-57229641D01*
X106081644Y-57323997D01*
X105730919Y-57323997D01*
X105552728Y-57145806D01*
X105374537Y-57323996D01*
X105023811Y-57323996D01*
X104845621Y-57145806D01*
X104724000Y-57267428D01*
X104724000Y-57380566D01*
X104455500Y-57380566D01*
X104455500Y-56970443D01*
X105020984Y-56970443D01*
X105199175Y-57148634D01*
X105377365Y-56970443D01*
X105728091Y-56970443D01*
X105906281Y-57148634D01*
X106084472Y-56970443D01*
X105906281Y-56792253D01*
X105728091Y-56970443D01*
X105377365Y-56970443D01*
X105199175Y-56792253D01*
X105020984Y-56970443D01*
X104455500Y-56970443D01*
X104455500Y-56630652D01*
X104454845Y-56624000D01*
X104724000Y-56624000D01*
X104724000Y-56673459D01*
X104845621Y-56795080D01*
X105016702Y-56624000D01*
X105381648Y-56624000D01*
X105552728Y-56795080D01*
X105723809Y-56624000D01*
X106088754Y-56624000D01*
X106176000Y-56711246D01*
X106176000Y-56624000D01*
X106088754Y-56624000D01*
X105723809Y-56624000D01*
X105381648Y-56624000D01*
X105016702Y-56624000D01*
X104724000Y-56624000D01*
X104454845Y-56624000D01*
X104452512Y-56600315D01*
X104446879Y-56571996D01*
X104423660Y-56515942D01*
X104407619Y-56491935D01*
X104407615Y-56491929D01*
X104388285Y-56468375D01*
X104219910Y-56300000D01*
X106500000Y-56300000D01*
X106500000Y-65700000D01*
G37*
%TD.AperFunction*%
%TD*%
%TA.AperFunction,Conductor*%
%TO.N,/M+*%
G36*
X89700000Y-68417429D02*
G01*
X89652759Y-68451753D01*
X89508011Y-68596509D01*
X89387691Y-68762125D01*
X89294759Y-68944529D01*
X89231511Y-69139215D01*
X89199496Y-69341413D01*
X89199500Y-69443735D01*
X89199500Y-70440166D01*
X89199143Y-70447423D01*
X89186772Y-70572959D01*
X89183942Y-70587184D01*
X89148364Y-70704461D01*
X89142813Y-70717863D01*
X89085038Y-70825950D01*
X89076980Y-70838010D01*
X88999231Y-70932751D01*
X88988974Y-70943008D01*
X88894240Y-71020760D01*
X88882180Y-71028819D01*
X88774098Y-71086597D01*
X88760698Y-71092149D01*
X88643418Y-71127736D01*
X88629191Y-71130567D01*
X88504102Y-71142899D01*
X88496842Y-71143256D01*
X87503672Y-71143256D01*
X87496412Y-71142899D01*
X87370823Y-71130518D01*
X87356597Y-71127687D01*
X87239329Y-71092106D01*
X87225929Y-71086555D01*
X87117848Y-71028778D01*
X87105794Y-71020722D01*
X87011063Y-70942974D01*
X87000807Y-70932718D01*
X86923063Y-70837985D01*
X86915004Y-70825924D01*
X86857234Y-70717846D01*
X86851683Y-70704445D01*
X86816106Y-70587174D01*
X86813276Y-70572948D01*
X86800863Y-70446975D01*
X86800506Y-70439718D01*
X86800506Y-68730146D01*
X86806139Y-68701827D01*
X86822180Y-68677820D01*
X87078326Y-68421674D01*
X87102333Y-68405633D01*
X87130652Y-68400000D01*
X88400000Y-68400000D01*
X89678326Y-67121674D01*
X89700000Y-67107192D01*
X89700000Y-68417429D01*
G37*
%TD.AperFunction*%
%TD*%
%TA.AperFunction,Conductor*%
%TO.N,+VBAT*%
G36*
X112544500Y-58269348D02*
G01*
X112547488Y-58299685D01*
X112547489Y-58299691D01*
X112553120Y-58328002D01*
X112576339Y-58384057D01*
X112592384Y-58408070D01*
X112611714Y-58431624D01*
X115222826Y-61042736D01*
X115238867Y-61066743D01*
X115244500Y-61095062D01*
X115244500Y-61500000D01*
X114445587Y-61500000D01*
X114405995Y-61404416D01*
X114299452Y-61219880D01*
X114169740Y-61050836D01*
X114138703Y-61019799D01*
X114138700Y-61019795D01*
X114129365Y-61010460D01*
X114129363Y-61010457D01*
X114054196Y-60935290D01*
X114054193Y-60935288D01*
X112154917Y-59036011D01*
X112150040Y-59030630D01*
X112078717Y-58943722D01*
X112060650Y-58921706D01*
X112052596Y-58909653D01*
X111987895Y-58788601D01*
X111982345Y-58775201D01*
X111942505Y-58643860D01*
X111939676Y-58629638D01*
X111925855Y-58489298D01*
X111925500Y-58482053D01*
X111925501Y-58440934D01*
X111925500Y-58440932D01*
X111925500Y-56400000D01*
X112544500Y-56400000D01*
X112544500Y-58269348D01*
G37*
%TD.AperFunction*%
%TD*%
%TA.AperFunction,Conductor*%
%TO.N,+1V8*%
G36*
X104278326Y-56578326D02*
G01*
X104294367Y-56602333D01*
X104300000Y-56630652D01*
X104300000Y-65700000D01*
X103200000Y-65700000D01*
X103200000Y-65284357D01*
X103594115Y-65284357D01*
X103685758Y-65376000D01*
X103858854Y-65376000D01*
X103950497Y-65284357D01*
X103772306Y-65106166D01*
X103594115Y-65284357D01*
X103200000Y-65284357D01*
X103200000Y-64857860D01*
X103524000Y-64857860D01*
X103524000Y-65003748D01*
X103596943Y-64930803D01*
X103524000Y-64857860D01*
X103200000Y-64857860D01*
X103200000Y-64577250D01*
X103594115Y-64577250D01*
X103772306Y-64755440D01*
X103950497Y-64577250D01*
X103772306Y-64399059D01*
X103594115Y-64577250D01*
X103200000Y-64577250D01*
X103200000Y-64150753D01*
X103524000Y-64150753D01*
X103524000Y-64296641D01*
X103596943Y-64223696D01*
X103524000Y-64150753D01*
X103200000Y-64150753D01*
X103200000Y-64139854D01*
X103202151Y-64122142D01*
X103264273Y-63870143D01*
X103594115Y-63870143D01*
X103772306Y-64048333D01*
X103950496Y-63870143D01*
X103772306Y-63691952D01*
X103594115Y-63870143D01*
X103264273Y-63870143D01*
X103266963Y-63859233D01*
X103300521Y-63582962D01*
X103300522Y-63565011D01*
X103548522Y-63565011D01*
X103596943Y-63516589D01*
X103548526Y-63468172D01*
X103548522Y-63565011D01*
X103300522Y-63565011D01*
X103300527Y-63443812D01*
X103300530Y-63396217D01*
X103300529Y-63396215D01*
X103300530Y-63384558D01*
X103300500Y-63384364D01*
X103300500Y-63163036D01*
X103594115Y-63163036D01*
X103772306Y-63341227D01*
X103950496Y-63163036D01*
X103772306Y-62984846D01*
X103594115Y-63163036D01*
X103300500Y-63163036D01*
X103300500Y-62761039D01*
X103548500Y-62761039D01*
X103548500Y-62857927D01*
X103596944Y-62809483D01*
X103548500Y-62761039D01*
X103300500Y-62761039D01*
X103300500Y-62455930D01*
X103594115Y-62455930D01*
X103772306Y-62634120D01*
X103950497Y-62455930D01*
X103772306Y-62277739D01*
X103594115Y-62455930D01*
X103300500Y-62455930D01*
X103300500Y-62053932D01*
X103548500Y-62053932D01*
X103548500Y-62150820D01*
X103596943Y-62102376D01*
X103548500Y-62053932D01*
X103300500Y-62053932D01*
X103300500Y-61748822D01*
X103594115Y-61748822D01*
X103772306Y-61927013D01*
X103950497Y-61748823D01*
X103772306Y-61570632D01*
X103594115Y-61748822D01*
X103300500Y-61748822D01*
X103300500Y-61346826D01*
X103548500Y-61346826D01*
X103548500Y-61443714D01*
X103596943Y-61395269D01*
X103548500Y-61346826D01*
X103300500Y-61346826D01*
X103300500Y-61041716D01*
X103594115Y-61041716D01*
X103772306Y-61219906D01*
X103950496Y-61041716D01*
X103772306Y-60863525D01*
X103594115Y-61041716D01*
X103300500Y-61041716D01*
X103300500Y-60639719D01*
X103548500Y-60639719D01*
X103548500Y-60736607D01*
X103596944Y-60688163D01*
X103548500Y-60639719D01*
X103300500Y-60639719D01*
X103300500Y-60334609D01*
X103594115Y-60334609D01*
X103772306Y-60512799D01*
X103950496Y-60334609D01*
X103772306Y-60156418D01*
X103594115Y-60334609D01*
X103300500Y-60334609D01*
X103300500Y-59932612D01*
X103548500Y-59932612D01*
X103548500Y-60029500D01*
X103596944Y-59981056D01*
X103548500Y-59932612D01*
X103300500Y-59932612D01*
X103300500Y-59627502D01*
X103594115Y-59627502D01*
X103772306Y-59805693D01*
X103950496Y-59627502D01*
X103772306Y-59449312D01*
X103594115Y-59627502D01*
X103300500Y-59627502D01*
X103300500Y-59225505D01*
X103548500Y-59225505D01*
X103548500Y-59322393D01*
X103596943Y-59273949D01*
X103548500Y-59225505D01*
X103300500Y-59225505D01*
X103300500Y-58920395D01*
X103594115Y-58920395D01*
X103772306Y-59098586D01*
X103950497Y-58920396D01*
X103772306Y-58742205D01*
X103594115Y-58920395D01*
X103300500Y-58920395D01*
X103300500Y-58518399D01*
X103548500Y-58518399D01*
X103548500Y-58615287D01*
X103596943Y-58566842D01*
X103548500Y-58518399D01*
X103300500Y-58518399D01*
X103300500Y-58213289D01*
X103594115Y-58213289D01*
X103772306Y-58391479D01*
X103950497Y-58213289D01*
X103772306Y-58035098D01*
X103594115Y-58213289D01*
X103300500Y-58213289D01*
X103300500Y-57811292D01*
X103548500Y-57811292D01*
X103548500Y-57908180D01*
X103596943Y-57859735D01*
X103548500Y-57811292D01*
X103300500Y-57811292D01*
X103300500Y-57506182D01*
X103594115Y-57506182D01*
X103772306Y-57684372D01*
X103950496Y-57506182D01*
X103772306Y-57327991D01*
X103594115Y-57506182D01*
X103300500Y-57506182D01*
X103300500Y-57104185D01*
X103548500Y-57104185D01*
X103548500Y-57201073D01*
X103596944Y-57152629D01*
X103548500Y-57104185D01*
X103300500Y-57104185D01*
X103300500Y-56799075D01*
X103594115Y-56799075D01*
X103772306Y-56977266D01*
X103950496Y-56799075D01*
X103775421Y-56624000D01*
X103769191Y-56624000D01*
X103594115Y-56799075D01*
X103300500Y-56799075D01*
X103300500Y-56402241D01*
X103303325Y-56381990D01*
X103304401Y-56378206D01*
X103300816Y-56339519D01*
X103300500Y-56332690D01*
X103300500Y-56322159D01*
X103300500Y-56322156D01*
X103298560Y-56311782D01*
X103297619Y-56305025D01*
X103297154Y-56300000D01*
X104000000Y-56300000D01*
X104278326Y-56578326D01*
G37*
%TD.AperFunction*%
%TD*%
%TA.AperFunction,Conductor*%
%TO.N,+1V8*%
G36*
X115869500Y-65297759D02*
G01*
X115866675Y-65318010D01*
X115865598Y-65321793D01*
X115869184Y-65360481D01*
X115869500Y-65367310D01*
X115869500Y-65377849D01*
X115871435Y-65388206D01*
X115872378Y-65394966D01*
X115875964Y-65433660D01*
X115877720Y-65437186D01*
X115884216Y-65456567D01*
X115884938Y-65460431D01*
X115888917Y-65466857D01*
X115900000Y-65505812D01*
X115900000Y-66326000D01*
X115890086Y-66363000D01*
X115863000Y-66390086D01*
X115826000Y-66400000D01*
X115719500Y-66400000D01*
X115682500Y-66390086D01*
X115655414Y-66363000D01*
X115645500Y-66326000D01*
X115645500Y-65935181D01*
X115645500Y-65935180D01*
X115636767Y-65891278D01*
X115636766Y-65891276D01*
X115612471Y-65854915D01*
X115600000Y-65813804D01*
X115600000Y-64800000D01*
X115421674Y-64621674D01*
X115405633Y-64597667D01*
X115400000Y-64569348D01*
X115400000Y-61000000D01*
X115869500Y-61000000D01*
X115869500Y-65297759D01*
G37*
%TD.AperFunction*%
%TD*%
%TA.AperFunction,Conductor*%
%TO.N,+VBAT*%
G36*
X121700000Y-72049500D02*
G01*
X115559690Y-72049500D01*
X115547684Y-72049499D01*
X115547683Y-72049499D01*
X115500089Y-72049497D01*
X115469455Y-72049496D01*
X115469435Y-72049500D01*
X115465808Y-72049500D01*
X115464987Y-72049574D01*
X115360936Y-72049572D01*
X115360935Y-72049572D01*
X115084657Y-72083108D01*
X115084653Y-72083108D01*
X115084652Y-72083109D01*
X115024837Y-72097850D01*
X115007130Y-72100000D01*
X113300000Y-72100000D01*
X113300000Y-71614242D01*
X113624000Y-71614242D01*
X113770306Y-71760548D01*
X113948497Y-71582357D01*
X114299222Y-71582357D01*
X114477413Y-71760548D01*
X114655604Y-71582357D01*
X115006329Y-71582357D01*
X115184519Y-71760547D01*
X115362710Y-71582357D01*
X115713436Y-71582357D01*
X115891626Y-71760547D01*
X116069817Y-71582357D01*
X116420542Y-71582357D01*
X116598733Y-71760547D01*
X116776924Y-71582357D01*
X117127649Y-71582357D01*
X117305840Y-71760548D01*
X117484031Y-71582357D01*
X117834756Y-71582357D01*
X118012947Y-71760548D01*
X118191138Y-71582357D01*
X118541863Y-71582357D01*
X118720053Y-71760547D01*
X118898244Y-71582357D01*
X119248969Y-71582357D01*
X119427160Y-71760547D01*
X119605351Y-71582357D01*
X119956076Y-71582357D01*
X120134267Y-71760547D01*
X120312458Y-71582357D01*
X120663183Y-71582357D01*
X120841374Y-71760548D01*
X121019565Y-71582357D01*
X120841374Y-71404166D01*
X120663183Y-71582357D01*
X120312458Y-71582357D01*
X120134267Y-71404166D01*
X119956076Y-71582357D01*
X119605351Y-71582357D01*
X119427160Y-71404166D01*
X119248969Y-71582357D01*
X118898244Y-71582357D01*
X118720053Y-71404166D01*
X118541863Y-71582357D01*
X118191138Y-71582357D01*
X118012947Y-71404166D01*
X117834756Y-71582357D01*
X117484031Y-71582357D01*
X117305840Y-71404166D01*
X117127649Y-71582357D01*
X116776924Y-71582357D01*
X116598733Y-71404166D01*
X116420542Y-71582357D01*
X116069817Y-71582357D01*
X115891626Y-71404166D01*
X115713436Y-71582357D01*
X115362710Y-71582357D01*
X115184519Y-71404166D01*
X115006329Y-71582357D01*
X114655604Y-71582357D01*
X114477413Y-71404166D01*
X114299222Y-71582357D01*
X113948497Y-71582357D01*
X113770306Y-71404166D01*
X113624000Y-71550472D01*
X113624000Y-71614242D01*
X113300000Y-71614242D01*
X113300000Y-71228803D01*
X113945669Y-71228803D01*
X114123859Y-71406994D01*
X114302050Y-71228803D01*
X114652775Y-71228803D01*
X114830966Y-71406994D01*
X115009156Y-71228803D01*
X115359882Y-71228803D01*
X115538073Y-71406994D01*
X115716263Y-71228803D01*
X116066989Y-71228803D01*
X116245180Y-71406994D01*
X116423370Y-71228803D01*
X116774096Y-71228803D01*
X116952286Y-71406994D01*
X117130477Y-71228803D01*
X117481202Y-71228803D01*
X117659393Y-71406994D01*
X117837583Y-71228803D01*
X118188309Y-71228803D01*
X118366500Y-71406994D01*
X118544690Y-71228803D01*
X118895416Y-71228803D01*
X119073607Y-71406994D01*
X119251797Y-71228803D01*
X119602523Y-71228803D01*
X119780714Y-71406994D01*
X119958904Y-71228803D01*
X120309630Y-71228803D01*
X120487820Y-71406994D01*
X120666011Y-71228803D01*
X121016736Y-71228803D01*
X121194927Y-71406994D01*
X121373117Y-71228803D01*
X121194927Y-71050613D01*
X121016736Y-71228803D01*
X120666011Y-71228803D01*
X120487820Y-71050613D01*
X120309630Y-71228803D01*
X119958904Y-71228803D01*
X119780714Y-71050613D01*
X119602523Y-71228803D01*
X119251797Y-71228803D01*
X119073607Y-71050613D01*
X118895416Y-71228803D01*
X118544690Y-71228803D01*
X118366500Y-71050613D01*
X118188309Y-71228803D01*
X117837583Y-71228803D01*
X117659393Y-71050613D01*
X117481202Y-71228803D01*
X117130477Y-71228803D01*
X116952286Y-71050613D01*
X116774096Y-71228803D01*
X116423370Y-71228803D01*
X116245180Y-71050613D01*
X116066989Y-71228803D01*
X115716263Y-71228803D01*
X115538073Y-71050613D01*
X115359882Y-71228803D01*
X115009156Y-71228803D01*
X114830966Y-71050613D01*
X114652775Y-71228803D01*
X114302050Y-71228803D01*
X114123859Y-71050613D01*
X113945669Y-71228803D01*
X113300000Y-71228803D01*
X113300000Y-70907135D01*
X113624000Y-70907135D01*
X113770306Y-71053441D01*
X113948497Y-70875250D01*
X114299222Y-70875250D01*
X114477413Y-71053441D01*
X114655604Y-70875250D01*
X115006329Y-70875250D01*
X115184519Y-71053440D01*
X115362710Y-70875250D01*
X115713436Y-70875250D01*
X115891626Y-71053440D01*
X116069817Y-70875250D01*
X116420542Y-70875250D01*
X116598733Y-71053440D01*
X116776924Y-70875250D01*
X117127649Y-70875250D01*
X117305840Y-71053441D01*
X117484031Y-70875250D01*
X117834756Y-70875250D01*
X118012947Y-71053441D01*
X118191138Y-70875250D01*
X118541863Y-70875250D01*
X118720053Y-71053440D01*
X118898244Y-70875250D01*
X119248969Y-70875250D01*
X119427160Y-71053440D01*
X119605351Y-70875250D01*
X119956076Y-70875250D01*
X120134267Y-71053440D01*
X120312458Y-70875250D01*
X120663183Y-70875250D01*
X120841374Y-71053441D01*
X121019565Y-70875250D01*
X120841374Y-70697059D01*
X120663183Y-70875250D01*
X120312458Y-70875250D01*
X120134267Y-70697059D01*
X119956076Y-70875250D01*
X119605351Y-70875250D01*
X119427160Y-70697059D01*
X119248969Y-70875250D01*
X118898244Y-70875250D01*
X118720053Y-70697059D01*
X118541863Y-70875250D01*
X118191138Y-70875250D01*
X118012947Y-70697059D01*
X117834756Y-70875250D01*
X117484031Y-70875250D01*
X117305840Y-70697059D01*
X117127649Y-70875250D01*
X116776924Y-70875250D01*
X116598733Y-70697059D01*
X116420542Y-70875250D01*
X116069817Y-70875250D01*
X115891626Y-70697059D01*
X115713436Y-70875250D01*
X115362710Y-70875250D01*
X115184519Y-70697059D01*
X115006329Y-70875250D01*
X114655604Y-70875250D01*
X114477413Y-70697059D01*
X114299222Y-70875250D01*
X113948497Y-70875250D01*
X113770306Y-70697059D01*
X113624000Y-70843365D01*
X113624000Y-70907135D01*
X113300000Y-70907135D01*
X113300000Y-70521696D01*
X113945669Y-70521696D01*
X114123859Y-70699887D01*
X114302050Y-70521696D01*
X114652775Y-70521696D01*
X114830966Y-70699887D01*
X115009156Y-70521696D01*
X115359882Y-70521696D01*
X115538073Y-70699887D01*
X115716263Y-70521696D01*
X116066989Y-70521696D01*
X116245180Y-70699887D01*
X116423370Y-70521696D01*
X116774096Y-70521696D01*
X116952286Y-70699887D01*
X117130477Y-70521696D01*
X117481202Y-70521696D01*
X117659393Y-70699887D01*
X117837583Y-70521696D01*
X118188309Y-70521696D01*
X118366500Y-70699887D01*
X118544690Y-70521696D01*
X118895416Y-70521696D01*
X119073607Y-70699887D01*
X119251797Y-70521696D01*
X119602523Y-70521696D01*
X119780714Y-70699887D01*
X119958904Y-70521696D01*
X120309630Y-70521696D01*
X120487820Y-70699887D01*
X120666011Y-70521696D01*
X121016736Y-70521696D01*
X121194927Y-70699887D01*
X121373117Y-70521696D01*
X121194927Y-70343506D01*
X121016736Y-70521696D01*
X120666011Y-70521696D01*
X120487820Y-70343506D01*
X120309630Y-70521696D01*
X119958904Y-70521696D01*
X119780714Y-70343506D01*
X119602523Y-70521696D01*
X119251797Y-70521696D01*
X119073607Y-70343506D01*
X118895416Y-70521696D01*
X118544690Y-70521696D01*
X118366500Y-70343506D01*
X118188309Y-70521696D01*
X117837583Y-70521696D01*
X117659393Y-70343506D01*
X117481202Y-70521696D01*
X117130477Y-70521696D01*
X116952286Y-70343506D01*
X116774096Y-70521696D01*
X116423370Y-70521696D01*
X116245180Y-70343506D01*
X116066989Y-70521696D01*
X115716263Y-70521696D01*
X115538073Y-70343506D01*
X115359882Y-70521696D01*
X115009156Y-70521696D01*
X114830966Y-70343506D01*
X114652775Y-70521696D01*
X114302050Y-70521696D01*
X114123859Y-70343506D01*
X113945669Y-70521696D01*
X113300000Y-70521696D01*
X113300000Y-70200028D01*
X113624000Y-70200028D01*
X113770306Y-70346334D01*
X113948496Y-70168143D01*
X114299222Y-70168143D01*
X114477413Y-70346334D01*
X114655603Y-70168143D01*
X115006329Y-70168143D01*
X115184519Y-70346333D01*
X115362710Y-70168143D01*
X115713436Y-70168143D01*
X115891626Y-70346333D01*
X116069817Y-70168143D01*
X116420542Y-70168143D01*
X116598733Y-70346333D01*
X116776923Y-70168143D01*
X117127649Y-70168143D01*
X117305840Y-70346334D01*
X117484030Y-70168143D01*
X117834756Y-70168143D01*
X118012947Y-70346334D01*
X118191137Y-70168143D01*
X118541863Y-70168143D01*
X118720053Y-70346333D01*
X118898244Y-70168143D01*
X119248969Y-70168143D01*
X119427160Y-70346333D01*
X119605350Y-70168143D01*
X119956076Y-70168143D01*
X120134267Y-70346333D01*
X120312457Y-70168143D01*
X120663183Y-70168143D01*
X120841374Y-70346334D01*
X121019564Y-70168143D01*
X120841374Y-69989952D01*
X120663183Y-70168143D01*
X120312457Y-70168143D01*
X120134267Y-69989952D01*
X119956076Y-70168143D01*
X119605350Y-70168143D01*
X119427160Y-69989952D01*
X119248969Y-70168143D01*
X118898244Y-70168143D01*
X118720053Y-69989952D01*
X118541863Y-70168143D01*
X118191137Y-70168143D01*
X118012947Y-69989952D01*
X117834756Y-70168143D01*
X117484030Y-70168143D01*
X117305840Y-69989952D01*
X117127649Y-70168143D01*
X116776923Y-70168143D01*
X116598733Y-69989952D01*
X116420542Y-70168143D01*
X116069817Y-70168143D01*
X115891626Y-69989952D01*
X115713436Y-70168143D01*
X115362710Y-70168143D01*
X115184519Y-69989952D01*
X115006329Y-70168143D01*
X114655603Y-70168143D01*
X114477413Y-69989952D01*
X114299222Y-70168143D01*
X113948496Y-70168143D01*
X113770305Y-69989952D01*
X113624000Y-70136258D01*
X113624000Y-70200028D01*
X113300000Y-70200028D01*
X113300000Y-69924000D01*
X114055079Y-69924000D01*
X114123859Y-69992780D01*
X114192641Y-69924000D01*
X114762185Y-69924000D01*
X114830966Y-69992780D01*
X114899747Y-69924000D01*
X115469292Y-69924000D01*
X115538073Y-69992781D01*
X115606854Y-69924000D01*
X116176399Y-69924000D01*
X116245180Y-69992781D01*
X116313961Y-69924000D01*
X116883506Y-69924000D01*
X116952286Y-69992780D01*
X117021068Y-69924000D01*
X117590612Y-69924000D01*
X117659393Y-69992780D01*
X117728174Y-69924000D01*
X118297719Y-69924000D01*
X118366500Y-69992780D01*
X118435281Y-69924000D01*
X119004826Y-69924000D01*
X119073607Y-69992781D01*
X119142388Y-69924000D01*
X119711933Y-69924000D01*
X119780714Y-69992781D01*
X119849495Y-69924000D01*
X120419040Y-69924000D01*
X120487820Y-69992780D01*
X120556602Y-69924000D01*
X121126146Y-69924000D01*
X121194927Y-69992780D01*
X121263708Y-69924000D01*
X121126146Y-69924000D01*
X120556602Y-69924000D01*
X120419040Y-69924000D01*
X119849495Y-69924000D01*
X119711933Y-69924000D01*
X119142388Y-69924000D01*
X119004826Y-69924000D01*
X118435281Y-69924000D01*
X118297719Y-69924000D01*
X117728174Y-69924000D01*
X117590612Y-69924000D01*
X117021068Y-69924000D01*
X116883506Y-69924000D01*
X116313961Y-69924000D01*
X116176399Y-69924000D01*
X115606854Y-69924000D01*
X115469292Y-69924000D01*
X114899747Y-69924000D01*
X114762185Y-69924000D01*
X114192641Y-69924000D01*
X114055079Y-69924000D01*
X113300000Y-69924000D01*
X113300000Y-69650500D01*
X120602352Y-69650500D01*
X120804534Y-69618477D01*
X120804533Y-69618477D01*
X120850253Y-69603621D01*
X120873120Y-69600000D01*
X121700000Y-69600000D01*
X121700000Y-72049500D01*
G37*
%TD.AperFunction*%
%TD*%
%TA.AperFunction,Conductor*%
%TO.N,/M-*%
G36*
X89700000Y-66900000D02*
G01*
X89600000Y-66900000D01*
X88421674Y-68078326D01*
X88397667Y-68094367D01*
X88369348Y-68100000D01*
X87130652Y-68100000D01*
X87102333Y-68094367D01*
X87078326Y-68078326D01*
X86822180Y-67822180D01*
X86806139Y-67798173D01*
X86800506Y-67769854D01*
X86800506Y-66503352D01*
X86800509Y-66503327D01*
X86800508Y-66491335D01*
X86800509Y-66491334D01*
X86800506Y-66447369D01*
X86800862Y-66440120D01*
X86810578Y-66341418D01*
X86813226Y-66314517D01*
X86816052Y-66300304D01*
X86851629Y-66183001D01*
X86857169Y-66169626D01*
X86914951Y-66061513D01*
X86922992Y-66049478D01*
X87000754Y-65954720D01*
X87010998Y-65944476D01*
X87105743Y-65866718D01*
X87117792Y-65858667D01*
X87225885Y-65800887D01*
X87239277Y-65795340D01*
X87356567Y-65759760D01*
X87370781Y-65756933D01*
X87495873Y-65744611D01*
X87503124Y-65744256D01*
X87547599Y-65744257D01*
X87547601Y-65744256D01*
X87558548Y-65744256D01*
X87558554Y-65744254D01*
X89700000Y-65744251D01*
X89700000Y-66900000D01*
G37*
%TD.AperFunction*%
%TD*%
%TA.AperFunction,Conductor*%
%TO.N,+VBAT*%
G36*
X106500000Y-69326000D02*
G01*
X106490086Y-69363000D01*
X106463000Y-69390086D01*
X106426000Y-69400000D01*
X105774000Y-69400000D01*
X105737000Y-69390086D01*
X105709914Y-69363000D01*
X105700000Y-69326000D01*
X105700000Y-68300000D01*
X105639525Y-68239525D01*
X105627783Y-68221952D01*
X105627709Y-68222002D01*
X105607615Y-68191929D01*
X105588285Y-68168375D01*
X104477174Y-67057264D01*
X104461133Y-67033257D01*
X104455500Y-67004938D01*
X104455500Y-65700000D01*
X106500000Y-65700000D01*
X106500000Y-69326000D01*
G37*
%TD.AperFunction*%
%TD*%
%TA.AperFunction,Conductor*%
%TO.N,+VBAT*%
G36*
X108133257Y-52961133D02*
G01*
X108157264Y-52977174D01*
X109053731Y-53873641D01*
X109077285Y-53892971D01*
X109117516Y-53919854D01*
X109156591Y-53936039D01*
X109173572Y-53943073D01*
X109221025Y-53952512D01*
X109251362Y-53955500D01*
X112404938Y-53955500D01*
X112433257Y-53961133D01*
X112457264Y-53977174D01*
X112722826Y-54242736D01*
X112738867Y-54266743D01*
X112744500Y-54295062D01*
X112744500Y-55604938D01*
X112738867Y-55633257D01*
X112722826Y-55657264D01*
X112626358Y-55753731D01*
X112607028Y-55777285D01*
X112580145Y-55817516D01*
X112556927Y-55873570D01*
X112556927Y-55873572D01*
X112547488Y-55921025D01*
X112546109Y-55935027D01*
X112544500Y-55951367D01*
X112544500Y-56400000D01*
X111925500Y-56400000D01*
X111925500Y-55859068D01*
X111925501Y-55859066D01*
X111925500Y-55817846D01*
X111925856Y-55810595D01*
X111931456Y-55753726D01*
X111939666Y-55670357D01*
X111942493Y-55656144D01*
X111982337Y-55524791D01*
X111987883Y-55511399D01*
X112051574Y-55392239D01*
X112073929Y-55366833D01*
X112105256Y-55354036D01*
X112209661Y-55337500D01*
X112308587Y-55287095D01*
X112387095Y-55208587D01*
X112437500Y-55109661D01*
X112454869Y-55000000D01*
X112437500Y-54890339D01*
X112387095Y-54791413D01*
X112308587Y-54712905D01*
X112209661Y-54662500D01*
X112100000Y-54645131D01*
X111990339Y-54662500D01*
X111948761Y-54683685D01*
X111891412Y-54712905D01*
X111804617Y-54799701D01*
X111802115Y-54797199D01*
X111785528Y-54813620D01*
X111740476Y-54820614D01*
X111699875Y-54799875D01*
X111674028Y-54774028D01*
X111655975Y-54744568D01*
X111653266Y-54710123D01*
X111654869Y-54700002D01*
X111654869Y-54700000D01*
X111637500Y-54590339D01*
X111587095Y-54491413D01*
X111508587Y-54412905D01*
X111409661Y-54362500D01*
X111300000Y-54345131D01*
X111190339Y-54362500D01*
X111132568Y-54391935D01*
X111098975Y-54400000D01*
X108530652Y-54400000D01*
X108502333Y-54394367D01*
X108478326Y-54378326D01*
X108418758Y-54318758D01*
X108397489Y-54274167D01*
X108385674Y-54161744D01*
X108380228Y-54144983D01*
X108327180Y-53981717D01*
X108264779Y-53873636D01*
X108232533Y-53817784D01*
X108105871Y-53677112D01*
X108105870Y-53677111D01*
X108105868Y-53677109D01*
X107952730Y-53565848D01*
X107779803Y-53488855D01*
X107594646Y-53449500D01*
X107580152Y-53449500D01*
X107551833Y-53443867D01*
X107527826Y-53427826D01*
X107500000Y-53400000D01*
X105774621Y-53400000D01*
X105769545Y-53399500D01*
X105764820Y-53399500D01*
X105235180Y-53399500D01*
X105230455Y-53399500D01*
X105225379Y-53400000D01*
X103500000Y-53400000D01*
X103491032Y-53408967D01*
X103490086Y-53412500D01*
X103463000Y-53439586D01*
X103426000Y-53449500D01*
X103405354Y-53449500D01*
X103220196Y-53488855D01*
X103047269Y-53565848D01*
X102894131Y-53677109D01*
X102767466Y-53817785D01*
X102672819Y-53981717D01*
X102614326Y-54161741D01*
X102594539Y-54350000D01*
X102614326Y-54538258D01*
X102672819Y-54718282D01*
X102719827Y-54799701D01*
X102767467Y-54882216D01*
X102894129Y-55022888D01*
X102894131Y-55022890D01*
X103047269Y-55134151D01*
X103220196Y-55211144D01*
X103405354Y-55250500D01*
X103594645Y-55250500D01*
X103594646Y-55250500D01*
X103601406Y-55249063D01*
X103637808Y-55250492D01*
X103669119Y-55269118D01*
X104200000Y-55800000D01*
X106269348Y-55800000D01*
X106297667Y-55805633D01*
X106321674Y-55821674D01*
X106478326Y-55978326D01*
X106494367Y-56002333D01*
X106500000Y-56030652D01*
X106500000Y-56300000D01*
X104219910Y-56300000D01*
X103546268Y-55626358D01*
X103522714Y-55607028D01*
X103482483Y-55580145D01*
X103426429Y-55556927D01*
X103403023Y-55552271D01*
X103378975Y-55547488D01*
X103348638Y-55544500D01*
X103348633Y-55544500D01*
X102895062Y-55544500D01*
X102866743Y-55538867D01*
X102842736Y-55522826D01*
X102277174Y-54957264D01*
X102261133Y-54933257D01*
X102255500Y-54904938D01*
X102255500Y-53495062D01*
X102261133Y-53466743D01*
X102277174Y-53442736D01*
X102742735Y-52977174D01*
X102766742Y-52961133D01*
X102795061Y-52955500D01*
X108104938Y-52955500D01*
X108133257Y-52961133D01*
G37*
%TD.AperFunction*%
%TD*%
%TA.AperFunction,Conductor*%
%TO.N,VBUS*%
G36*
X113769500Y-64823185D02*
G01*
X113753009Y-64869755D01*
X113710886Y-64895568D01*
X113661906Y-64889120D01*
X113609661Y-64862500D01*
X113500000Y-64845131D01*
X113390339Y-64862500D01*
X113365508Y-64875152D01*
X113291412Y-64912905D01*
X113212905Y-64991412D01*
X113187702Y-65040875D01*
X113162500Y-65090339D01*
X113145131Y-65200000D01*
X113162500Y-65309661D01*
X113212905Y-65408587D01*
X113291413Y-65487095D01*
X113390339Y-65537500D01*
X113390340Y-65537500D01*
X113399105Y-65541966D01*
X113418998Y-65550207D01*
X113441435Y-65576479D01*
X113449500Y-65610073D01*
X113449500Y-65799587D01*
X113437029Y-65840699D01*
X113403233Y-65891278D01*
X113394500Y-65935181D01*
X113394500Y-66326000D01*
X113384586Y-66363000D01*
X113357500Y-66390086D01*
X113320500Y-66400000D01*
X113269500Y-66400000D01*
X113232500Y-66390086D01*
X113205414Y-66363000D01*
X113195500Y-66326000D01*
X113195500Y-65935181D01*
X113195500Y-65935180D01*
X113186767Y-65891278D01*
X113153504Y-65841496D01*
X113103722Y-65808233D01*
X113059820Y-65799500D01*
X113059819Y-65799500D01*
X113029500Y-65799500D01*
X112992500Y-65789586D01*
X112965414Y-65762500D01*
X112955500Y-65725500D01*
X112955500Y-64875152D01*
X112961133Y-64846833D01*
X112977174Y-64822826D01*
X112977173Y-64822826D01*
X113200000Y-64600000D01*
X113200000Y-62200000D01*
X113769500Y-62200000D01*
X113769500Y-64823185D01*
G37*
%TD.AperFunction*%
%TD*%
%TA.AperFunction,Conductor*%
%TO.N,/M+*%
G36*
X96997667Y-67105633D02*
G01*
X97021674Y-67121674D01*
X98267633Y-68367633D01*
X98288396Y-68408382D01*
X98281243Y-68453552D01*
X98262499Y-68490339D01*
X98262500Y-68490339D01*
X98245131Y-68600000D01*
X98262500Y-68709661D01*
X98312905Y-68808587D01*
X98391413Y-68887095D01*
X98490339Y-68937500D01*
X98492957Y-68937914D01*
X98533706Y-68958677D01*
X98602230Y-69027201D01*
X98602236Y-69027208D01*
X98607413Y-69032385D01*
X98607414Y-69032386D01*
X98621534Y-69046506D01*
X98621541Y-69046520D01*
X98685615Y-69110593D01*
X98787551Y-69184651D01*
X98787554Y-69184653D01*
X98899823Y-69241856D01*
X99019659Y-69280791D01*
X99144110Y-69300501D01*
X99169848Y-69300500D01*
X99198165Y-69306132D01*
X99222174Y-69322174D01*
X99250000Y-69350000D01*
X99676000Y-69350000D01*
X99713000Y-69359914D01*
X99740086Y-69387000D01*
X99750000Y-69424000D01*
X99750000Y-69576000D01*
X99740086Y-69613000D01*
X99713000Y-69640086D01*
X99676000Y-69650000D01*
X97710528Y-69650000D01*
X97668491Y-69636901D01*
X97641337Y-69602241D01*
X97601740Y-69497832D01*
X97518414Y-69339067D01*
X97472402Y-69251398D01*
X97429360Y-69189041D01*
X97719756Y-69189041D01*
X97791638Y-69326000D01*
X97939179Y-69326000D01*
X98020050Y-69245128D01*
X98370776Y-69245128D01*
X98451648Y-69326000D01*
X98560176Y-69326000D01*
X98528768Y-69303182D01*
X98519937Y-69295640D01*
X98434132Y-69209836D01*
X98434113Y-69209810D01*
X98420103Y-69195800D01*
X98370776Y-69245128D01*
X98020050Y-69245128D01*
X97841860Y-69066938D01*
X97719756Y-69189041D01*
X97429360Y-69189041D01*
X97314301Y-69022351D01*
X97314300Y-69022350D01*
X97314296Y-69022344D01*
X97129748Y-68814036D01*
X97129745Y-68814034D01*
X97129744Y-68814032D01*
X97085805Y-68775106D01*
X97426584Y-68775106D01*
X97506910Y-68865773D01*
X97512422Y-68872808D01*
X97583006Y-68975065D01*
X97666496Y-68891575D01*
X98017223Y-68891575D01*
X98195413Y-69069765D01*
X98209386Y-69055793D01*
X98118055Y-68964462D01*
X98104446Y-68945731D01*
X98056725Y-68852072D01*
X98017223Y-68891575D01*
X97666496Y-68891575D01*
X97666497Y-68891574D01*
X97488306Y-68713384D01*
X97426584Y-68775106D01*
X97085805Y-68775106D01*
X96921422Y-68629478D01*
X96692373Y-68471380D01*
X96610092Y-68428197D01*
X97066386Y-68428197D01*
X97070963Y-68431356D01*
X97077997Y-68436867D01*
X97256214Y-68594750D01*
X97312943Y-68538021D01*
X97663669Y-68538021D01*
X97841859Y-68716212D01*
X97999933Y-68558139D01*
X97821742Y-68379948D01*
X97663669Y-68538021D01*
X97312943Y-68538021D01*
X97134753Y-68359830D01*
X97066386Y-68428197D01*
X96610092Y-68428197D01*
X96445937Y-68342045D01*
X96190381Y-68245131D01*
X96185703Y-68243357D01*
X95915483Y-68176760D01*
X95762523Y-68158191D01*
X96629285Y-68158191D01*
X96816941Y-68256677D01*
X96824588Y-68261299D01*
X96858885Y-68284972D01*
X96959389Y-68184468D01*
X97310116Y-68184468D01*
X97488307Y-68362659D01*
X97646380Y-68204586D01*
X97468189Y-68026395D01*
X97310116Y-68184468D01*
X96959389Y-68184468D01*
X96959390Y-68184467D01*
X96781199Y-68006277D01*
X96629285Y-68158191D01*
X95762523Y-68158191D01*
X95639196Y-68143219D01*
X95639192Y-68143219D01*
X95500039Y-68143223D01*
X95440804Y-68143223D01*
X95440640Y-68143250D01*
X90530701Y-68143250D01*
X90530449Y-68143200D01*
X90397645Y-68143200D01*
X90195455Y-68175224D01*
X90000765Y-68238486D01*
X89818370Y-68331424D01*
X89700000Y-68417430D01*
X89700000Y-67969420D01*
X90024000Y-67969420D01*
X90024567Y-67969987D01*
X90131842Y-67935131D01*
X90139498Y-67933292D01*
X90241875Y-67830915D01*
X90592602Y-67830915D01*
X90656937Y-67895250D01*
X90884648Y-67895250D01*
X90948983Y-67830914D01*
X91299708Y-67830914D01*
X91364044Y-67895250D01*
X91591755Y-67895250D01*
X91656090Y-67830915D01*
X92006815Y-67830915D01*
X92071150Y-67895250D01*
X92298862Y-67895250D01*
X92363197Y-67830915D01*
X92713922Y-67830915D01*
X92778257Y-67895250D01*
X93005969Y-67895250D01*
X93070304Y-67830915D01*
X93421029Y-67830915D01*
X93485364Y-67895250D01*
X93713075Y-67895250D01*
X93777409Y-67830915D01*
X94128136Y-67830915D01*
X94192471Y-67895250D01*
X94420182Y-67895250D01*
X94484517Y-67830914D01*
X94835242Y-67830914D01*
X94899578Y-67895250D01*
X95127289Y-67895250D01*
X95191624Y-67830915D01*
X95542349Y-67830915D01*
X95606653Y-67895219D01*
X95649715Y-67895219D01*
X95658634Y-67895758D01*
X95814915Y-67914730D01*
X95898729Y-67830915D01*
X96249456Y-67830915D01*
X96427647Y-68009106D01*
X96605838Y-67830915D01*
X96956563Y-67830915D01*
X97134753Y-68009105D01*
X97292826Y-67851032D01*
X97114636Y-67672842D01*
X96956563Y-67830915D01*
X96605838Y-67830915D01*
X96427647Y-67652724D01*
X96249456Y-67830915D01*
X95898729Y-67830915D01*
X95898730Y-67830914D01*
X95720540Y-67652724D01*
X95542349Y-67830915D01*
X95191624Y-67830915D01*
X95013433Y-67652724D01*
X94835242Y-67830914D01*
X94484517Y-67830914D01*
X94306326Y-67652724D01*
X94128136Y-67830915D01*
X93777409Y-67830915D01*
X93777410Y-67830914D01*
X93599219Y-67652724D01*
X93421029Y-67830915D01*
X93070304Y-67830915D01*
X92892113Y-67652724D01*
X92713922Y-67830915D01*
X92363197Y-67830915D01*
X92185006Y-67652724D01*
X92006815Y-67830915D01*
X91656090Y-67830915D01*
X91477899Y-67652724D01*
X91299708Y-67830914D01*
X90948983Y-67830914D01*
X90770792Y-67652724D01*
X90592602Y-67830915D01*
X90241875Y-67830915D01*
X90241876Y-67830914D01*
X90063686Y-67652724D01*
X90024000Y-67692410D01*
X90024000Y-67969420D01*
X89700000Y-67969420D01*
X89700000Y-67477361D01*
X90239048Y-67477361D01*
X90417239Y-67655552D01*
X90595429Y-67477361D01*
X90946155Y-67477361D01*
X91124346Y-67655552D01*
X91302536Y-67477361D01*
X91653262Y-67477361D01*
X91831453Y-67655552D01*
X92009643Y-67477361D01*
X92360369Y-67477361D01*
X92538559Y-67655552D01*
X92716750Y-67477361D01*
X93067475Y-67477361D01*
X93245666Y-67655552D01*
X93423856Y-67477361D01*
X93774582Y-67477361D01*
X93952773Y-67655552D01*
X94130963Y-67477361D01*
X94481689Y-67477361D01*
X94659880Y-67655552D01*
X94838070Y-67477361D01*
X95188796Y-67477361D01*
X95366986Y-67655552D01*
X95545177Y-67477361D01*
X95895902Y-67477361D01*
X96074093Y-67655552D01*
X96252283Y-67477361D01*
X96603009Y-67477361D01*
X96781200Y-67655552D01*
X96939273Y-67497479D01*
X96865794Y-67424000D01*
X96656371Y-67424000D01*
X96603009Y-67477361D01*
X96252283Y-67477361D01*
X96198922Y-67424000D01*
X95949264Y-67424000D01*
X95895902Y-67477361D01*
X95545177Y-67477361D01*
X95491816Y-67424000D01*
X95242158Y-67424000D01*
X95188796Y-67477361D01*
X94838070Y-67477361D01*
X94784709Y-67424000D01*
X94535051Y-67424000D01*
X94481689Y-67477361D01*
X94130963Y-67477361D01*
X94077602Y-67424000D01*
X93827944Y-67424000D01*
X93774582Y-67477361D01*
X93423856Y-67477361D01*
X93370495Y-67424000D01*
X93120837Y-67424000D01*
X93067475Y-67477361D01*
X92716750Y-67477361D01*
X92663389Y-67424000D01*
X92413731Y-67424000D01*
X92360369Y-67477361D01*
X92009643Y-67477361D01*
X91956282Y-67424000D01*
X91706624Y-67424000D01*
X91653262Y-67477361D01*
X91302536Y-67477361D01*
X91249175Y-67424000D01*
X90999517Y-67424000D01*
X90946155Y-67477361D01*
X90595429Y-67477361D01*
X90542068Y-67424000D01*
X90292410Y-67424000D01*
X90239048Y-67477361D01*
X89700000Y-67477361D01*
X89700000Y-67107192D01*
X89702333Y-67105633D01*
X89730652Y-67100000D01*
X96969348Y-67100000D01*
X96997667Y-67105633D01*
G37*
%TD.AperFunction*%
%TD*%
%TA.AperFunction,Conductor*%
%TO.N,+VBAT*%
G36*
X102963000Y-65709914D02*
G01*
X102990086Y-65737000D01*
X103000000Y-65774000D01*
X103000000Y-68026000D01*
X102990086Y-68063000D01*
X102963000Y-68090086D01*
X102926000Y-68100000D01*
X100074000Y-68100000D01*
X100037000Y-68090086D01*
X100009914Y-68063000D01*
X100000000Y-68026000D01*
X100000000Y-67134500D01*
X100009914Y-67097500D01*
X100037000Y-67070414D01*
X100073999Y-67060500D01*
X100203373Y-67060499D01*
X100211468Y-67059560D01*
X100227662Y-67057682D01*
X100327016Y-67013813D01*
X100327018Y-67013810D01*
X100338525Y-67008730D01*
X100343161Y-67005633D01*
X100371480Y-67000000D01*
X100700000Y-67000000D01*
X100700000Y-66130652D01*
X100705633Y-66102333D01*
X100721674Y-66078326D01*
X101034100Y-65765900D01*
X101058107Y-65749859D01*
X101086426Y-65744226D01*
X101139186Y-65744226D01*
X101415447Y-65710679D01*
X101415448Y-65710678D01*
X101415454Y-65710678D01*
X101450053Y-65702149D01*
X101467762Y-65700000D01*
X102926000Y-65700000D01*
X102963000Y-65709914D01*
G37*
%TD.AperFunction*%
%TD*%
M02*
