%TF.GenerationSoftware,KiCad,Pcbnew,7.0.1*%
%TF.CreationDate,2024-01-03T23:29:55+00:00*%
%TF.ProjectId,watch_lower,77617463-685f-46c6-9f77-65722e6b6963,rev?*%
%TF.SameCoordinates,Original*%
%TF.FileFunction,Drillmap*%
%TF.FilePolarity,Positive*%
%FSLAX45Y45*%
G04 Gerber Fmt 4.5, Leading zero omitted, Abs format (unit mm)*
G04 Created by KiCad (PCBNEW 7.0.1) date 2024-01-03 23:29:55*
%MOMM*%
%LPD*%
G01*
G04 APERTURE LIST*
%ADD10C,0.100000*%
%ADD11C,0.200000*%
%ADD12C,0.020000*%
G04 APERTURE END LIST*
D10*
X10075000Y-7685000D02*
G75*
G03*
X10075000Y-7685000I-75000J0D01*
G01*
X11225000Y-7335000D02*
G75*
G03*
X11225000Y-7335000I-75000J0D01*
G01*
D11*
D12*
X9850000Y-6950000D02*
X9870000Y-6970000D01*
X9870000Y-6950000D02*
X9850000Y-6970000D01*
X9900000Y-6750000D02*
X9920000Y-6770000D01*
X9920000Y-6750000D02*
X9900000Y-6770000D01*
X9920000Y-7130000D02*
X9940000Y-7150000D01*
X9940000Y-7130000D02*
X9920000Y-7150000D01*
X9950000Y-7470000D02*
X9970000Y-7490000D01*
X9970000Y-7470000D02*
X9950000Y-7490000D01*
X10000000Y-6990000D02*
X10020000Y-7010000D01*
X10020000Y-6990000D02*
X10000000Y-7010000D01*
X10129818Y-7280000D02*
X10149818Y-7300000D01*
X10149818Y-7280000D02*
X10129818Y-7300000D01*
X10130000Y-6990000D02*
X10150000Y-7010000D01*
X10150000Y-6990000D02*
X10130000Y-7010000D01*
X10240000Y-7190000D02*
X10260000Y-7210000D01*
X10260000Y-7190000D02*
X10240000Y-7210000D01*
X10260000Y-6730000D02*
X10280000Y-6750000D01*
X10280000Y-6730000D02*
X10260000Y-6750000D01*
X10260000Y-6790000D02*
X10280000Y-6810000D01*
X10280000Y-6790000D02*
X10260000Y-6810000D01*
X10260000Y-6850000D02*
X10280000Y-6870000D01*
X10280000Y-6850000D02*
X10260000Y-6870000D01*
X10300000Y-7010000D02*
X10320000Y-7030000D01*
X10320000Y-7010000D02*
X10300000Y-7030000D01*
X10381000Y-7011000D02*
X10401000Y-7031000D01*
X10401000Y-7011000D02*
X10381000Y-7031000D01*
X10461000Y-7420000D02*
X10481000Y-7440000D01*
X10481000Y-7420000D02*
X10461000Y-7440000D01*
X10470000Y-6580000D02*
X10490000Y-6600000D01*
X10490000Y-6580000D02*
X10470000Y-6600000D01*
X10470000Y-6640000D02*
X10490000Y-6660000D01*
X10490000Y-6640000D02*
X10470000Y-6660000D01*
X10470000Y-6700000D02*
X10490000Y-6720000D01*
X10490000Y-6700000D02*
X10470000Y-6720000D01*
X10490000Y-7130000D02*
X10510000Y-7150000D01*
X10510000Y-7130000D02*
X10490000Y-7150000D01*
X10520000Y-7600000D02*
X10540000Y-7620000D01*
X10540000Y-7600000D02*
X10520000Y-7620000D01*
X10540000Y-7810000D02*
X10560000Y-7830000D01*
X10560000Y-7810000D02*
X10540000Y-7830000D01*
X10600000Y-6930000D02*
X10620000Y-6950000D01*
X10620000Y-6930000D02*
X10600000Y-6950000D01*
X10600000Y-6990000D02*
X10620000Y-7010000D01*
X10620000Y-6990000D02*
X10600000Y-7010000D01*
X10605000Y-5375000D02*
X10625000Y-5395000D01*
X10625000Y-5375000D02*
X10605000Y-5395000D01*
X10810000Y-7140000D02*
X10830000Y-7160000D01*
X10830000Y-7140000D02*
X10810000Y-7160000D01*
X10810000Y-7200000D02*
X10830000Y-7220000D01*
X10830000Y-7200000D02*
X10810000Y-7220000D01*
X10860000Y-7170000D02*
X10880000Y-7190000D01*
X10880000Y-7170000D02*
X10860000Y-7190000D01*
X10860000Y-7230000D02*
X10880000Y-7250000D01*
X10880000Y-7230000D02*
X10860000Y-7250000D01*
X10945000Y-7730000D02*
X10965000Y-7750000D01*
X10965000Y-7730000D02*
X10945000Y-7750000D01*
X11080000Y-7730000D02*
X11100000Y-7750000D01*
X11100000Y-7730000D02*
X11080000Y-7750000D01*
X11120000Y-5460000D02*
X11140000Y-5480000D01*
X11140000Y-5460000D02*
X11120000Y-5480000D01*
X11200000Y-5490000D02*
X11220000Y-5510000D01*
X11220000Y-5490000D02*
X11200000Y-5510000D01*
X11215000Y-6775000D02*
X11235000Y-6795000D01*
X11235000Y-6775000D02*
X11215000Y-6795000D01*
X11281661Y-6785760D02*
X11301661Y-6805760D01*
X11301661Y-6785760D02*
X11281661Y-6805760D01*
X11340000Y-6610000D02*
X11360000Y-6630000D01*
X11360000Y-6610000D02*
X11340000Y-6630000D01*
X11380000Y-6790000D02*
X11400000Y-6810000D01*
X11400000Y-6790000D02*
X11380000Y-6810000D01*
X11440000Y-6790000D02*
X11460000Y-6810000D01*
X11460000Y-6790000D02*
X11440000Y-6810000D01*
X11480000Y-6610000D02*
X11500000Y-6630000D01*
X11500000Y-6610000D02*
X11480000Y-6630000D01*
X11500000Y-6790000D02*
X11520000Y-6810000D01*
X11520000Y-6790000D02*
X11500000Y-6810000D01*
X11595000Y-6775000D02*
X11615000Y-6795000D01*
X11615000Y-6775000D02*
X11595000Y-6795000D01*
X12215000Y-6990000D02*
X12235000Y-7010000D01*
X12235000Y-6990000D02*
X12215000Y-7010000D01*
X12290000Y-6990000D02*
X12310000Y-7010000D01*
X12310000Y-6990000D02*
X12290000Y-7010000D01*
X12365000Y-6990000D02*
X12385000Y-7010000D01*
X12385000Y-6990000D02*
X12365000Y-7010000D01*
D11*
X8892620Y-8252524D02*
X8892620Y-8052524D01*
X8892620Y-8052524D02*
X8940239Y-8052524D01*
X8940239Y-8052524D02*
X8968810Y-8062048D01*
X8968810Y-8062048D02*
X8987858Y-8081095D01*
X8987858Y-8081095D02*
X8997382Y-8100143D01*
X8997382Y-8100143D02*
X9006905Y-8138238D01*
X9006905Y-8138238D02*
X9006905Y-8166809D01*
X9006905Y-8166809D02*
X8997382Y-8204905D01*
X8997382Y-8204905D02*
X8987858Y-8223952D01*
X8987858Y-8223952D02*
X8968810Y-8243000D01*
X8968810Y-8243000D02*
X8940239Y-8252524D01*
X8940239Y-8252524D02*
X8892620Y-8252524D01*
X9092620Y-8252524D02*
X9092620Y-8119190D01*
X9092620Y-8157286D02*
X9102143Y-8138238D01*
X9102143Y-8138238D02*
X9111667Y-8128714D01*
X9111667Y-8128714D02*
X9130715Y-8119190D01*
X9130715Y-8119190D02*
X9149763Y-8119190D01*
X9216429Y-8252524D02*
X9216429Y-8119190D01*
X9216429Y-8052524D02*
X9206905Y-8062048D01*
X9206905Y-8062048D02*
X9216429Y-8071571D01*
X9216429Y-8071571D02*
X9225953Y-8062048D01*
X9225953Y-8062048D02*
X9216429Y-8052524D01*
X9216429Y-8052524D02*
X9216429Y-8071571D01*
X9340239Y-8252524D02*
X9321191Y-8243000D01*
X9321191Y-8243000D02*
X9311667Y-8223952D01*
X9311667Y-8223952D02*
X9311667Y-8052524D01*
X9445001Y-8252524D02*
X9425953Y-8243000D01*
X9425953Y-8243000D02*
X9416429Y-8223952D01*
X9416429Y-8223952D02*
X9416429Y-8052524D01*
X9673572Y-8252524D02*
X9673572Y-8052524D01*
X9673572Y-8052524D02*
X9740239Y-8195381D01*
X9740239Y-8195381D02*
X9806905Y-8052524D01*
X9806905Y-8052524D02*
X9806905Y-8252524D01*
X9987858Y-8252524D02*
X9987858Y-8147762D01*
X9987858Y-8147762D02*
X9978334Y-8128714D01*
X9978334Y-8128714D02*
X9959286Y-8119190D01*
X9959286Y-8119190D02*
X9921191Y-8119190D01*
X9921191Y-8119190D02*
X9902143Y-8128714D01*
X9987858Y-8243000D02*
X9968810Y-8252524D01*
X9968810Y-8252524D02*
X9921191Y-8252524D01*
X9921191Y-8252524D02*
X9902143Y-8243000D01*
X9902143Y-8243000D02*
X9892620Y-8223952D01*
X9892620Y-8223952D02*
X9892620Y-8204905D01*
X9892620Y-8204905D02*
X9902143Y-8185857D01*
X9902143Y-8185857D02*
X9921191Y-8176333D01*
X9921191Y-8176333D02*
X9968810Y-8176333D01*
X9968810Y-8176333D02*
X9987858Y-8166809D01*
X10083096Y-8119190D02*
X10083096Y-8319190D01*
X10083096Y-8128714D02*
X10102143Y-8119190D01*
X10102143Y-8119190D02*
X10140239Y-8119190D01*
X10140239Y-8119190D02*
X10159286Y-8128714D01*
X10159286Y-8128714D02*
X10168810Y-8138238D01*
X10168810Y-8138238D02*
X10178334Y-8157286D01*
X10178334Y-8157286D02*
X10178334Y-8214428D01*
X10178334Y-8214428D02*
X10168810Y-8233476D01*
X10168810Y-8233476D02*
X10159286Y-8243000D01*
X10159286Y-8243000D02*
X10140239Y-8252524D01*
X10140239Y-8252524D02*
X10102143Y-8252524D01*
X10102143Y-8252524D02*
X10083096Y-8243000D01*
X10264048Y-8233476D02*
X10273572Y-8243000D01*
X10273572Y-8243000D02*
X10264048Y-8252524D01*
X10264048Y-8252524D02*
X10254524Y-8243000D01*
X10254524Y-8243000D02*
X10264048Y-8233476D01*
X10264048Y-8233476D02*
X10264048Y-8252524D01*
X10264048Y-8128714D02*
X10273572Y-8138238D01*
X10273572Y-8138238D02*
X10264048Y-8147762D01*
X10264048Y-8147762D02*
X10254524Y-8138238D01*
X10254524Y-8138238D02*
X10264048Y-8128714D01*
X10264048Y-8128714D02*
X10264048Y-8147762D01*
D12*
X8625001Y-8570000D02*
X8645001Y-8590000D01*
X8645001Y-8570000D02*
X8625001Y-8590000D01*
D11*
X8930715Y-8472524D02*
X8949763Y-8472524D01*
X8949763Y-8472524D02*
X8968810Y-8482048D01*
X8968810Y-8482048D02*
X8978334Y-8491571D01*
X8978334Y-8491571D02*
X8987858Y-8510619D01*
X8987858Y-8510619D02*
X8997382Y-8548714D01*
X8997382Y-8548714D02*
X8997382Y-8596333D01*
X8997382Y-8596333D02*
X8987858Y-8634429D01*
X8987858Y-8634429D02*
X8978334Y-8653476D01*
X8978334Y-8653476D02*
X8968810Y-8663000D01*
X8968810Y-8663000D02*
X8949763Y-8672524D01*
X8949763Y-8672524D02*
X8930715Y-8672524D01*
X8930715Y-8672524D02*
X8911667Y-8663000D01*
X8911667Y-8663000D02*
X8902143Y-8653476D01*
X8902143Y-8653476D02*
X8892620Y-8634429D01*
X8892620Y-8634429D02*
X8883096Y-8596333D01*
X8883096Y-8596333D02*
X8883096Y-8548714D01*
X8883096Y-8548714D02*
X8892620Y-8510619D01*
X8892620Y-8510619D02*
X8902143Y-8491571D01*
X8902143Y-8491571D02*
X8911667Y-8482048D01*
X8911667Y-8482048D02*
X8930715Y-8472524D01*
X9083096Y-8653476D02*
X9092620Y-8663000D01*
X9092620Y-8663000D02*
X9083096Y-8672524D01*
X9083096Y-8672524D02*
X9073572Y-8663000D01*
X9073572Y-8663000D02*
X9083096Y-8653476D01*
X9083096Y-8653476D02*
X9083096Y-8672524D01*
X9168810Y-8491571D02*
X9178334Y-8482048D01*
X9178334Y-8482048D02*
X9197382Y-8472524D01*
X9197382Y-8472524D02*
X9245001Y-8472524D01*
X9245001Y-8472524D02*
X9264048Y-8482048D01*
X9264048Y-8482048D02*
X9273572Y-8491571D01*
X9273572Y-8491571D02*
X9283096Y-8510619D01*
X9283096Y-8510619D02*
X9283096Y-8529667D01*
X9283096Y-8529667D02*
X9273572Y-8558238D01*
X9273572Y-8558238D02*
X9159286Y-8672524D01*
X9159286Y-8672524D02*
X9283096Y-8672524D01*
X9406905Y-8472524D02*
X9425953Y-8472524D01*
X9425953Y-8472524D02*
X9445001Y-8482048D01*
X9445001Y-8482048D02*
X9454524Y-8491571D01*
X9454524Y-8491571D02*
X9464048Y-8510619D01*
X9464048Y-8510619D02*
X9473572Y-8548714D01*
X9473572Y-8548714D02*
X9473572Y-8596333D01*
X9473572Y-8596333D02*
X9464048Y-8634429D01*
X9464048Y-8634429D02*
X9454524Y-8653476D01*
X9454524Y-8653476D02*
X9445001Y-8663000D01*
X9445001Y-8663000D02*
X9425953Y-8672524D01*
X9425953Y-8672524D02*
X9406905Y-8672524D01*
X9406905Y-8672524D02*
X9387858Y-8663000D01*
X9387858Y-8663000D02*
X9378334Y-8653476D01*
X9378334Y-8653476D02*
X9368810Y-8634429D01*
X9368810Y-8634429D02*
X9359286Y-8596333D01*
X9359286Y-8596333D02*
X9359286Y-8548714D01*
X9359286Y-8548714D02*
X9368810Y-8510619D01*
X9368810Y-8510619D02*
X9378334Y-8491571D01*
X9378334Y-8491571D02*
X9387858Y-8482048D01*
X9387858Y-8482048D02*
X9406905Y-8472524D01*
X9597382Y-8472524D02*
X9616429Y-8472524D01*
X9616429Y-8472524D02*
X9635477Y-8482048D01*
X9635477Y-8482048D02*
X9645001Y-8491571D01*
X9645001Y-8491571D02*
X9654524Y-8510619D01*
X9654524Y-8510619D02*
X9664048Y-8548714D01*
X9664048Y-8548714D02*
X9664048Y-8596333D01*
X9664048Y-8596333D02*
X9654524Y-8634429D01*
X9654524Y-8634429D02*
X9645001Y-8653476D01*
X9645001Y-8653476D02*
X9635477Y-8663000D01*
X9635477Y-8663000D02*
X9616429Y-8672524D01*
X9616429Y-8672524D02*
X9597382Y-8672524D01*
X9597382Y-8672524D02*
X9578334Y-8663000D01*
X9578334Y-8663000D02*
X9568810Y-8653476D01*
X9568810Y-8653476D02*
X9559286Y-8634429D01*
X9559286Y-8634429D02*
X9549763Y-8596333D01*
X9549763Y-8596333D02*
X9549763Y-8548714D01*
X9549763Y-8548714D02*
X9559286Y-8510619D01*
X9559286Y-8510619D02*
X9568810Y-8491571D01*
X9568810Y-8491571D02*
X9578334Y-8482048D01*
X9578334Y-8482048D02*
X9597382Y-8472524D01*
X9749763Y-8672524D02*
X9749763Y-8539190D01*
X9749763Y-8558238D02*
X9759286Y-8548714D01*
X9759286Y-8548714D02*
X9778334Y-8539190D01*
X9778334Y-8539190D02*
X9806905Y-8539190D01*
X9806905Y-8539190D02*
X9825953Y-8548714D01*
X9825953Y-8548714D02*
X9835477Y-8567762D01*
X9835477Y-8567762D02*
X9835477Y-8672524D01*
X9835477Y-8567762D02*
X9845001Y-8548714D01*
X9845001Y-8548714D02*
X9864048Y-8539190D01*
X9864048Y-8539190D02*
X9892620Y-8539190D01*
X9892620Y-8539190D02*
X9911667Y-8548714D01*
X9911667Y-8548714D02*
X9921191Y-8567762D01*
X9921191Y-8567762D02*
X9921191Y-8672524D01*
X10016429Y-8672524D02*
X10016429Y-8539190D01*
X10016429Y-8558238D02*
X10025953Y-8548714D01*
X10025953Y-8548714D02*
X10045001Y-8539190D01*
X10045001Y-8539190D02*
X10073572Y-8539190D01*
X10073572Y-8539190D02*
X10092620Y-8548714D01*
X10092620Y-8548714D02*
X10102144Y-8567762D01*
X10102144Y-8567762D02*
X10102144Y-8672524D01*
X10102144Y-8567762D02*
X10111667Y-8548714D01*
X10111667Y-8548714D02*
X10130715Y-8539190D01*
X10130715Y-8539190D02*
X10159286Y-8539190D01*
X10159286Y-8539190D02*
X10178334Y-8548714D01*
X10178334Y-8548714D02*
X10187858Y-8567762D01*
X10187858Y-8567762D02*
X10187858Y-8672524D01*
X10578334Y-8463000D02*
X10406906Y-8720143D01*
X10835477Y-8472524D02*
X10854525Y-8472524D01*
X10854525Y-8472524D02*
X10873572Y-8482048D01*
X10873572Y-8482048D02*
X10883096Y-8491571D01*
X10883096Y-8491571D02*
X10892620Y-8510619D01*
X10892620Y-8510619D02*
X10902144Y-8548714D01*
X10902144Y-8548714D02*
X10902144Y-8596333D01*
X10902144Y-8596333D02*
X10892620Y-8634429D01*
X10892620Y-8634429D02*
X10883096Y-8653476D01*
X10883096Y-8653476D02*
X10873572Y-8663000D01*
X10873572Y-8663000D02*
X10854525Y-8672524D01*
X10854525Y-8672524D02*
X10835477Y-8672524D01*
X10835477Y-8672524D02*
X10816429Y-8663000D01*
X10816429Y-8663000D02*
X10806906Y-8653476D01*
X10806906Y-8653476D02*
X10797382Y-8634429D01*
X10797382Y-8634429D02*
X10787858Y-8596333D01*
X10787858Y-8596333D02*
X10787858Y-8548714D01*
X10787858Y-8548714D02*
X10797382Y-8510619D01*
X10797382Y-8510619D02*
X10806906Y-8491571D01*
X10806906Y-8491571D02*
X10816429Y-8482048D01*
X10816429Y-8482048D02*
X10835477Y-8472524D01*
X10987858Y-8653476D02*
X10997382Y-8663000D01*
X10997382Y-8663000D02*
X10987858Y-8672524D01*
X10987858Y-8672524D02*
X10978334Y-8663000D01*
X10978334Y-8663000D02*
X10987858Y-8653476D01*
X10987858Y-8653476D02*
X10987858Y-8672524D01*
X11121191Y-8472524D02*
X11140239Y-8472524D01*
X11140239Y-8472524D02*
X11159287Y-8482048D01*
X11159287Y-8482048D02*
X11168810Y-8491571D01*
X11168810Y-8491571D02*
X11178334Y-8510619D01*
X11178334Y-8510619D02*
X11187858Y-8548714D01*
X11187858Y-8548714D02*
X11187858Y-8596333D01*
X11187858Y-8596333D02*
X11178334Y-8634429D01*
X11178334Y-8634429D02*
X11168810Y-8653476D01*
X11168810Y-8653476D02*
X11159287Y-8663000D01*
X11159287Y-8663000D02*
X11140239Y-8672524D01*
X11140239Y-8672524D02*
X11121191Y-8672524D01*
X11121191Y-8672524D02*
X11102144Y-8663000D01*
X11102144Y-8663000D02*
X11092620Y-8653476D01*
X11092620Y-8653476D02*
X11083096Y-8634429D01*
X11083096Y-8634429D02*
X11073572Y-8596333D01*
X11073572Y-8596333D02*
X11073572Y-8548714D01*
X11073572Y-8548714D02*
X11083096Y-8510619D01*
X11083096Y-8510619D02*
X11092620Y-8491571D01*
X11092620Y-8491571D02*
X11102144Y-8482048D01*
X11102144Y-8482048D02*
X11121191Y-8472524D01*
X11311667Y-8472524D02*
X11330715Y-8472524D01*
X11330715Y-8472524D02*
X11349763Y-8482048D01*
X11349763Y-8482048D02*
X11359286Y-8491571D01*
X11359286Y-8491571D02*
X11368810Y-8510619D01*
X11368810Y-8510619D02*
X11378334Y-8548714D01*
X11378334Y-8548714D02*
X11378334Y-8596333D01*
X11378334Y-8596333D02*
X11368810Y-8634429D01*
X11368810Y-8634429D02*
X11359286Y-8653476D01*
X11359286Y-8653476D02*
X11349763Y-8663000D01*
X11349763Y-8663000D02*
X11330715Y-8672524D01*
X11330715Y-8672524D02*
X11311667Y-8672524D01*
X11311667Y-8672524D02*
X11292620Y-8663000D01*
X11292620Y-8663000D02*
X11283096Y-8653476D01*
X11283096Y-8653476D02*
X11273572Y-8634429D01*
X11273572Y-8634429D02*
X11264048Y-8596333D01*
X11264048Y-8596333D02*
X11264048Y-8548714D01*
X11264048Y-8548714D02*
X11273572Y-8510619D01*
X11273572Y-8510619D02*
X11283096Y-8491571D01*
X11283096Y-8491571D02*
X11292620Y-8482048D01*
X11292620Y-8482048D02*
X11311667Y-8472524D01*
X11445001Y-8472524D02*
X11578334Y-8472524D01*
X11578334Y-8472524D02*
X11492620Y-8672524D01*
X11664048Y-8672524D02*
X11702144Y-8672524D01*
X11702144Y-8672524D02*
X11721191Y-8663000D01*
X11721191Y-8663000D02*
X11730715Y-8653476D01*
X11730715Y-8653476D02*
X11749763Y-8624905D01*
X11749763Y-8624905D02*
X11759286Y-8586810D01*
X11759286Y-8586810D02*
X11759286Y-8510619D01*
X11759286Y-8510619D02*
X11749763Y-8491571D01*
X11749763Y-8491571D02*
X11740239Y-8482048D01*
X11740239Y-8482048D02*
X11721191Y-8472524D01*
X11721191Y-8472524D02*
X11683096Y-8472524D01*
X11683096Y-8472524D02*
X11664048Y-8482048D01*
X11664048Y-8482048D02*
X11654525Y-8491571D01*
X11654525Y-8491571D02*
X11645001Y-8510619D01*
X11645001Y-8510619D02*
X11645001Y-8558238D01*
X11645001Y-8558238D02*
X11654525Y-8577286D01*
X11654525Y-8577286D02*
X11664048Y-8586810D01*
X11664048Y-8586810D02*
X11683096Y-8596333D01*
X11683096Y-8596333D02*
X11721191Y-8596333D01*
X11721191Y-8596333D02*
X11740239Y-8586810D01*
X11740239Y-8586810D02*
X11749763Y-8577286D01*
X11749763Y-8577286D02*
X11759286Y-8558238D01*
X11835477Y-8472524D02*
X11835477Y-8510619D01*
X11911667Y-8472524D02*
X11911667Y-8510619D01*
X12206906Y-8748714D02*
X12197382Y-8739190D01*
X12197382Y-8739190D02*
X12178334Y-8710619D01*
X12178334Y-8710619D02*
X12168810Y-8691571D01*
X12168810Y-8691571D02*
X12159287Y-8663000D01*
X12159287Y-8663000D02*
X12149763Y-8615381D01*
X12149763Y-8615381D02*
X12149763Y-8577286D01*
X12149763Y-8577286D02*
X12159287Y-8529667D01*
X12159287Y-8529667D02*
X12168810Y-8501095D01*
X12168810Y-8501095D02*
X12178334Y-8482048D01*
X12178334Y-8482048D02*
X12197382Y-8453476D01*
X12197382Y-8453476D02*
X12206906Y-8443952D01*
X12368810Y-8539190D02*
X12368810Y-8672524D01*
X12321191Y-8463000D02*
X12273572Y-8605857D01*
X12273572Y-8605857D02*
X12397382Y-8605857D01*
X12464048Y-8491571D02*
X12473572Y-8482048D01*
X12473572Y-8482048D02*
X12492620Y-8472524D01*
X12492620Y-8472524D02*
X12540239Y-8472524D01*
X12540239Y-8472524D02*
X12559287Y-8482048D01*
X12559287Y-8482048D02*
X12568810Y-8491571D01*
X12568810Y-8491571D02*
X12578334Y-8510619D01*
X12578334Y-8510619D02*
X12578334Y-8529667D01*
X12578334Y-8529667D02*
X12568810Y-8558238D01*
X12568810Y-8558238D02*
X12454525Y-8672524D01*
X12454525Y-8672524D02*
X12578334Y-8672524D01*
X12816429Y-8672524D02*
X12816429Y-8472524D01*
X12902144Y-8672524D02*
X12902144Y-8567762D01*
X12902144Y-8567762D02*
X12892620Y-8548714D01*
X12892620Y-8548714D02*
X12873572Y-8539190D01*
X12873572Y-8539190D02*
X12845001Y-8539190D01*
X12845001Y-8539190D02*
X12825953Y-8548714D01*
X12825953Y-8548714D02*
X12816429Y-8558238D01*
X13025953Y-8672524D02*
X13006906Y-8663000D01*
X13006906Y-8663000D02*
X12997382Y-8653476D01*
X12997382Y-8653476D02*
X12987858Y-8634429D01*
X12987858Y-8634429D02*
X12987858Y-8577286D01*
X12987858Y-8577286D02*
X12997382Y-8558238D01*
X12997382Y-8558238D02*
X13006906Y-8548714D01*
X13006906Y-8548714D02*
X13025953Y-8539190D01*
X13025953Y-8539190D02*
X13054525Y-8539190D01*
X13054525Y-8539190D02*
X13073572Y-8548714D01*
X13073572Y-8548714D02*
X13083096Y-8558238D01*
X13083096Y-8558238D02*
X13092620Y-8577286D01*
X13092620Y-8577286D02*
X13092620Y-8634429D01*
X13092620Y-8634429D02*
X13083096Y-8653476D01*
X13083096Y-8653476D02*
X13073572Y-8663000D01*
X13073572Y-8663000D02*
X13054525Y-8672524D01*
X13054525Y-8672524D02*
X13025953Y-8672524D01*
X13206906Y-8672524D02*
X13187858Y-8663000D01*
X13187858Y-8663000D02*
X13178334Y-8643952D01*
X13178334Y-8643952D02*
X13178334Y-8472524D01*
X13359287Y-8663000D02*
X13340239Y-8672524D01*
X13340239Y-8672524D02*
X13302144Y-8672524D01*
X13302144Y-8672524D02*
X13283096Y-8663000D01*
X13283096Y-8663000D02*
X13273572Y-8643952D01*
X13273572Y-8643952D02*
X13273572Y-8567762D01*
X13273572Y-8567762D02*
X13283096Y-8548714D01*
X13283096Y-8548714D02*
X13302144Y-8539190D01*
X13302144Y-8539190D02*
X13340239Y-8539190D01*
X13340239Y-8539190D02*
X13359287Y-8548714D01*
X13359287Y-8548714D02*
X13368810Y-8567762D01*
X13368810Y-8567762D02*
X13368810Y-8586810D01*
X13368810Y-8586810D02*
X13273572Y-8605857D01*
X13445001Y-8663000D02*
X13464049Y-8672524D01*
X13464049Y-8672524D02*
X13502144Y-8672524D01*
X13502144Y-8672524D02*
X13521191Y-8663000D01*
X13521191Y-8663000D02*
X13530715Y-8643952D01*
X13530715Y-8643952D02*
X13530715Y-8634429D01*
X13530715Y-8634429D02*
X13521191Y-8615381D01*
X13521191Y-8615381D02*
X13502144Y-8605857D01*
X13502144Y-8605857D02*
X13473572Y-8605857D01*
X13473572Y-8605857D02*
X13454525Y-8596333D01*
X13454525Y-8596333D02*
X13445001Y-8577286D01*
X13445001Y-8577286D02*
X13445001Y-8567762D01*
X13445001Y-8567762D02*
X13454525Y-8548714D01*
X13454525Y-8548714D02*
X13473572Y-8539190D01*
X13473572Y-8539190D02*
X13502144Y-8539190D01*
X13502144Y-8539190D02*
X13521191Y-8548714D01*
X13597382Y-8748714D02*
X13606906Y-8739190D01*
X13606906Y-8739190D02*
X13625953Y-8710619D01*
X13625953Y-8710619D02*
X13635477Y-8691571D01*
X13635477Y-8691571D02*
X13645001Y-8663000D01*
X13645001Y-8663000D02*
X13654525Y-8615381D01*
X13654525Y-8615381D02*
X13654525Y-8577286D01*
X13654525Y-8577286D02*
X13645001Y-8529667D01*
X13645001Y-8529667D02*
X13635477Y-8501095D01*
X13635477Y-8501095D02*
X13625953Y-8482048D01*
X13625953Y-8482048D02*
X13606906Y-8453476D01*
X13606906Y-8453476D02*
X13597382Y-8443952D01*
M02*
