%TF.GenerationSoftware,KiCad,Pcbnew,7.0.9*%
%TF.CreationDate,2024-01-09T17:45:50+00:00*%
%TF.ProjectId,watch_lower,77617463-685f-46c6-9f77-65722e6b6963,rev?*%
%TF.SameCoordinates,Original*%
%TF.FileFunction,Other,User*%
%FSLAX46Y46*%
G04 Gerber Fmt 4.6, Leading zero omitted, Abs format (unit mm)*
G04 Created by KiCad (PCBNEW 7.0.9) date 2024-01-09 17:45:50*
%MOMM*%
%LPD*%
G01*
G04 APERTURE LIST*
%ADD10C,0.150000*%
%ADD11C,0.100000*%
G04 APERTURE END LIST*
D10*
X121000000Y-58000000D02*
X118000000Y-56000000D01*
X117000000Y-64000000D02*
X119000000Y-63200000D01*
D11*
X101000000Y-65450000D02*
G75*
G03*
X103000000Y-63450000I0J2000000D01*
G01*
D10*
X91000000Y-65000000D02*
X92000000Y-63500000D01*
D11*
X124500000Y-67350000D02*
X124500000Y-71350000D01*
X99500000Y-78350000D02*
X111500000Y-78350000D01*
X123500000Y-72350000D02*
X121500000Y-72350000D01*
X87500000Y-65444000D02*
X89500000Y-65444000D01*
X101000000Y-65450000D02*
X97500000Y-65450000D01*
X112250000Y-72350000D02*
G75*
G03*
X112250000Y-72350000I-750000J0D01*
G01*
D10*
X121000000Y-58000000D02*
X117000000Y-64000000D01*
X109000000Y-63000000D02*
X110600000Y-63500000D01*
D11*
X103000000Y-63450000D02*
X108000000Y-63450000D01*
D10*
X109000000Y-63000000D02*
X109600000Y-61300000D01*
D11*
X116750000Y-54850000D02*
G75*
G03*
X94250000Y-54850000I-11250000J-19593750D01*
G01*
X97250000Y-55150000D02*
G75*
G03*
X97250000Y-55150000I-750000J0D01*
G01*
D10*
X122000000Y-65000000D02*
X120400000Y-63500000D01*
D11*
X108000000Y-63450000D02*
X108000000Y-67350000D01*
X113500000Y-76350000D02*
X113500000Y-69350000D01*
X87500000Y-71444000D02*
X88500000Y-71444000D01*
X86500000Y-70444000D02*
X86500000Y-66444000D01*
X89500000Y-65444000D02*
X89500000Y-70444000D01*
X100750000Y-75850000D02*
G75*
G03*
X100750000Y-75850000I-750000J0D01*
G01*
X123500000Y-66350000D02*
X122500000Y-66350000D01*
X116750000Y-56350000D02*
X116750000Y-54850000D01*
X115250000Y-55150000D02*
G75*
G03*
X115250000Y-55150000I-750000J0D01*
G01*
X122500000Y-66350000D02*
G75*
G03*
X121500000Y-67350000I0J-1000000D01*
G01*
X97500000Y-76350000D02*
G75*
G03*
X99500000Y-78350000I2000000J0D01*
G01*
D10*
X117000000Y-64000000D02*
X116600000Y-62000000D01*
X122000000Y-65000000D02*
X123000000Y-63100000D01*
D11*
X121500000Y-72350000D02*
X121500000Y-67350000D01*
X94250000Y-54850000D02*
X94250000Y-56350000D01*
X124500000Y-67350000D02*
G75*
G03*
X123500000Y-66350000I-1000000J0D01*
G01*
X87500000Y-65444000D02*
G75*
G03*
X86500000Y-66444000I0J-1000000D01*
G01*
X86500000Y-70444000D02*
G75*
G03*
X87500000Y-71444000I1000000J0D01*
G01*
D10*
X121000000Y-58000000D02*
X109000000Y-63000000D01*
D11*
X108000000Y-67350000D02*
G75*
G03*
X110000000Y-69350000I2000000J0D01*
G01*
D10*
X121000000Y-58000000D02*
X122000000Y-65000000D01*
X91000000Y-65000000D02*
X92500000Y-65900000D01*
D11*
X97500000Y-65450000D02*
X97500000Y-76350000D01*
D10*
X118000000Y-56000000D02*
X118500000Y-57200000D01*
D11*
X123500000Y-72350000D02*
G75*
G03*
X124500000Y-71350000I0J1000000D01*
G01*
X88500000Y-71444000D02*
G75*
G03*
X89500000Y-70444000I0J1000000D01*
G01*
X110970000Y-65350000D02*
X117370000Y-65350000D01*
X117370000Y-68350000D01*
X110970000Y-68350000D01*
X110970000Y-65350000D01*
X111500000Y-78350000D02*
G75*
G03*
X113500000Y-76350000I0J2000000D01*
G01*
D10*
X121000000Y-58000000D02*
X91000000Y-65000000D01*
X118000000Y-56000000D02*
X119400000Y-55900000D01*
D11*
X94250000Y-56350000D02*
X116750000Y-56350000D01*
X113500000Y-69350000D02*
X110000000Y-69350000D01*
D10*
X122289160Y-56602200D02*
X122432017Y-56649819D01*
X122432017Y-56649819D02*
X122670112Y-56649819D01*
X122670112Y-56649819D02*
X122765350Y-56602200D01*
X122765350Y-56602200D02*
X122812969Y-56554580D01*
X122812969Y-56554580D02*
X122860588Y-56459342D01*
X122860588Y-56459342D02*
X122860588Y-56364104D01*
X122860588Y-56364104D02*
X122812969Y-56268866D01*
X122812969Y-56268866D02*
X122765350Y-56221247D01*
X122765350Y-56221247D02*
X122670112Y-56173628D01*
X122670112Y-56173628D02*
X122479636Y-56126009D01*
X122479636Y-56126009D02*
X122384398Y-56078390D01*
X122384398Y-56078390D02*
X122336779Y-56030771D01*
X122336779Y-56030771D02*
X122289160Y-55935533D01*
X122289160Y-55935533D02*
X122289160Y-55840295D01*
X122289160Y-55840295D02*
X122336779Y-55745057D01*
X122336779Y-55745057D02*
X122384398Y-55697438D01*
X122384398Y-55697438D02*
X122479636Y-55649819D01*
X122479636Y-55649819D02*
X122717731Y-55649819D01*
X122717731Y-55649819D02*
X122860588Y-55697438D01*
X123146303Y-55983152D02*
X123527255Y-55983152D01*
X123289160Y-55649819D02*
X123289160Y-56506961D01*
X123289160Y-56506961D02*
X123336779Y-56602200D01*
X123336779Y-56602200D02*
X123432017Y-56649819D01*
X123432017Y-56649819D02*
X123527255Y-56649819D01*
X123860589Y-56649819D02*
X123860589Y-55983152D01*
X123860589Y-55649819D02*
X123812970Y-55697438D01*
X123812970Y-55697438D02*
X123860589Y-55745057D01*
X123860589Y-55745057D02*
X123908208Y-55697438D01*
X123908208Y-55697438D02*
X123860589Y-55649819D01*
X123860589Y-55649819D02*
X123860589Y-55745057D01*
X124193922Y-55983152D02*
X124574874Y-55983152D01*
X124336779Y-56649819D02*
X124336779Y-55792676D01*
X124336779Y-55792676D02*
X124384398Y-55697438D01*
X124384398Y-55697438D02*
X124479636Y-55649819D01*
X124479636Y-55649819D02*
X124574874Y-55649819D01*
X124765351Y-55983152D02*
X125146303Y-55983152D01*
X124908208Y-56649819D02*
X124908208Y-55792676D01*
X124908208Y-55792676D02*
X124955827Y-55697438D01*
X124955827Y-55697438D02*
X125051065Y-55649819D01*
X125051065Y-55649819D02*
X125146303Y-55649819D01*
X125860589Y-56602200D02*
X125765351Y-56649819D01*
X125765351Y-56649819D02*
X125574875Y-56649819D01*
X125574875Y-56649819D02*
X125479637Y-56602200D01*
X125479637Y-56602200D02*
X125432018Y-56506961D01*
X125432018Y-56506961D02*
X125432018Y-56126009D01*
X125432018Y-56126009D02*
X125479637Y-56030771D01*
X125479637Y-56030771D02*
X125574875Y-55983152D01*
X125574875Y-55983152D02*
X125765351Y-55983152D01*
X125765351Y-55983152D02*
X125860589Y-56030771D01*
X125860589Y-56030771D02*
X125908208Y-56126009D01*
X125908208Y-56126009D02*
X125908208Y-56221247D01*
X125908208Y-56221247D02*
X125432018Y-56316485D01*
X126336780Y-55983152D02*
X126336780Y-56649819D01*
X126336780Y-56078390D02*
X126384399Y-56030771D01*
X126384399Y-56030771D02*
X126479637Y-55983152D01*
X126479637Y-55983152D02*
X126622494Y-55983152D01*
X126622494Y-55983152D02*
X126717732Y-56030771D01*
X126717732Y-56030771D02*
X126765351Y-56126009D01*
X126765351Y-56126009D02*
X126765351Y-56649819D01*
X127622494Y-56602200D02*
X127527256Y-56649819D01*
X127527256Y-56649819D02*
X127336780Y-56649819D01*
X127336780Y-56649819D02*
X127241542Y-56602200D01*
X127241542Y-56602200D02*
X127193923Y-56506961D01*
X127193923Y-56506961D02*
X127193923Y-56126009D01*
X127193923Y-56126009D02*
X127241542Y-56030771D01*
X127241542Y-56030771D02*
X127336780Y-55983152D01*
X127336780Y-55983152D02*
X127527256Y-55983152D01*
X127527256Y-55983152D02*
X127622494Y-56030771D01*
X127622494Y-56030771D02*
X127670113Y-56126009D01*
X127670113Y-56126009D02*
X127670113Y-56221247D01*
X127670113Y-56221247D02*
X127193923Y-56316485D01*
X128098685Y-56649819D02*
X128098685Y-55983152D01*
X128098685Y-56173628D02*
X128146304Y-56078390D01*
X128146304Y-56078390D02*
X128193923Y-56030771D01*
X128193923Y-56030771D02*
X128289161Y-55983152D01*
X128289161Y-55983152D02*
X128384399Y-55983152D01*
X128717733Y-56554580D02*
X128765352Y-56602200D01*
X128765352Y-56602200D02*
X128717733Y-56649819D01*
X128717733Y-56649819D02*
X128670114Y-56602200D01*
X128670114Y-56602200D02*
X128717733Y-56554580D01*
X128717733Y-56554580D02*
X128717733Y-56649819D01*
X128717733Y-56030771D02*
X128765352Y-56078390D01*
X128765352Y-56078390D02*
X128717733Y-56126009D01*
X128717733Y-56126009D02*
X128670114Y-56078390D01*
X128670114Y-56078390D02*
X128717733Y-56030771D01*
X128717733Y-56030771D02*
X128717733Y-56126009D01*
X129908209Y-56602200D02*
X130051066Y-56649819D01*
X130051066Y-56649819D02*
X130289161Y-56649819D01*
X130289161Y-56649819D02*
X130384399Y-56602200D01*
X130384399Y-56602200D02*
X130432018Y-56554580D01*
X130432018Y-56554580D02*
X130479637Y-56459342D01*
X130479637Y-56459342D02*
X130479637Y-56364104D01*
X130479637Y-56364104D02*
X130432018Y-56268866D01*
X130432018Y-56268866D02*
X130384399Y-56221247D01*
X130384399Y-56221247D02*
X130289161Y-56173628D01*
X130289161Y-56173628D02*
X130098685Y-56126009D01*
X130098685Y-56126009D02*
X130003447Y-56078390D01*
X130003447Y-56078390D02*
X129955828Y-56030771D01*
X129955828Y-56030771D02*
X129908209Y-55935533D01*
X129908209Y-55935533D02*
X129908209Y-55840295D01*
X129908209Y-55840295D02*
X129955828Y-55745057D01*
X129955828Y-55745057D02*
X130003447Y-55697438D01*
X130003447Y-55697438D02*
X130098685Y-55649819D01*
X130098685Y-55649819D02*
X130336780Y-55649819D01*
X130336780Y-55649819D02*
X130479637Y-55697438D01*
X130765352Y-55983152D02*
X131146304Y-55983152D01*
X130908209Y-55649819D02*
X130908209Y-56506961D01*
X130908209Y-56506961D02*
X130955828Y-56602200D01*
X130955828Y-56602200D02*
X131051066Y-56649819D01*
X131051066Y-56649819D02*
X131146304Y-56649819D01*
X131908209Y-56649819D02*
X131908209Y-56126009D01*
X131908209Y-56126009D02*
X131860590Y-56030771D01*
X131860590Y-56030771D02*
X131765352Y-55983152D01*
X131765352Y-55983152D02*
X131574876Y-55983152D01*
X131574876Y-55983152D02*
X131479638Y-56030771D01*
X131908209Y-56602200D02*
X131812971Y-56649819D01*
X131812971Y-56649819D02*
X131574876Y-56649819D01*
X131574876Y-56649819D02*
X131479638Y-56602200D01*
X131479638Y-56602200D02*
X131432019Y-56506961D01*
X131432019Y-56506961D02*
X131432019Y-56411723D01*
X131432019Y-56411723D02*
X131479638Y-56316485D01*
X131479638Y-56316485D02*
X131574876Y-56268866D01*
X131574876Y-56268866D02*
X131812971Y-56268866D01*
X131812971Y-56268866D02*
X131908209Y-56221247D01*
X132384400Y-56649819D02*
X132384400Y-55983152D01*
X132384400Y-55649819D02*
X132336781Y-55697438D01*
X132336781Y-55697438D02*
X132384400Y-55745057D01*
X132384400Y-55745057D02*
X132432019Y-55697438D01*
X132432019Y-55697438D02*
X132384400Y-55649819D01*
X132384400Y-55649819D02*
X132384400Y-55745057D01*
X132860590Y-55983152D02*
X132860590Y-56649819D01*
X132860590Y-56078390D02*
X132908209Y-56030771D01*
X132908209Y-56030771D02*
X133003447Y-55983152D01*
X133003447Y-55983152D02*
X133146304Y-55983152D01*
X133146304Y-55983152D02*
X133241542Y-56030771D01*
X133241542Y-56030771D02*
X133289161Y-56126009D01*
X133289161Y-56126009D02*
X133289161Y-56649819D01*
X133908209Y-56649819D02*
X133812971Y-56602200D01*
X133812971Y-56602200D02*
X133765352Y-56506961D01*
X133765352Y-56506961D02*
X133765352Y-55649819D01*
X134670114Y-56602200D02*
X134574876Y-56649819D01*
X134574876Y-56649819D02*
X134384400Y-56649819D01*
X134384400Y-56649819D02*
X134289162Y-56602200D01*
X134289162Y-56602200D02*
X134241543Y-56506961D01*
X134241543Y-56506961D02*
X134241543Y-56126009D01*
X134241543Y-56126009D02*
X134289162Y-56030771D01*
X134289162Y-56030771D02*
X134384400Y-55983152D01*
X134384400Y-55983152D02*
X134574876Y-55983152D01*
X134574876Y-55983152D02*
X134670114Y-56030771D01*
X134670114Y-56030771D02*
X134717733Y-56126009D01*
X134717733Y-56126009D02*
X134717733Y-56221247D01*
X134717733Y-56221247D02*
X134241543Y-56316485D01*
X135098686Y-56602200D02*
X135193924Y-56649819D01*
X135193924Y-56649819D02*
X135384400Y-56649819D01*
X135384400Y-56649819D02*
X135479638Y-56602200D01*
X135479638Y-56602200D02*
X135527257Y-56506961D01*
X135527257Y-56506961D02*
X135527257Y-56459342D01*
X135527257Y-56459342D02*
X135479638Y-56364104D01*
X135479638Y-56364104D02*
X135384400Y-56316485D01*
X135384400Y-56316485D02*
X135241543Y-56316485D01*
X135241543Y-56316485D02*
X135146305Y-56268866D01*
X135146305Y-56268866D02*
X135098686Y-56173628D01*
X135098686Y-56173628D02*
X135098686Y-56126009D01*
X135098686Y-56126009D02*
X135146305Y-56030771D01*
X135146305Y-56030771D02*
X135241543Y-55983152D01*
X135241543Y-55983152D02*
X135384400Y-55983152D01*
X135384400Y-55983152D02*
X135479638Y-56030771D01*
X135908210Y-56602200D02*
X136003448Y-56649819D01*
X136003448Y-56649819D02*
X136193924Y-56649819D01*
X136193924Y-56649819D02*
X136289162Y-56602200D01*
X136289162Y-56602200D02*
X136336781Y-56506961D01*
X136336781Y-56506961D02*
X136336781Y-56459342D01*
X136336781Y-56459342D02*
X136289162Y-56364104D01*
X136289162Y-56364104D02*
X136193924Y-56316485D01*
X136193924Y-56316485D02*
X136051067Y-56316485D01*
X136051067Y-56316485D02*
X135955829Y-56268866D01*
X135955829Y-56268866D02*
X135908210Y-56173628D01*
X135908210Y-56173628D02*
X135908210Y-56126009D01*
X135908210Y-56126009D02*
X135955829Y-56030771D01*
X135955829Y-56030771D02*
X136051067Y-55983152D01*
X136051067Y-55983152D02*
X136193924Y-55983152D01*
X136193924Y-55983152D02*
X136289162Y-56030771D01*
X137479639Y-56602200D02*
X137574877Y-56649819D01*
X137574877Y-56649819D02*
X137765353Y-56649819D01*
X137765353Y-56649819D02*
X137860591Y-56602200D01*
X137860591Y-56602200D02*
X137908210Y-56506961D01*
X137908210Y-56506961D02*
X137908210Y-56459342D01*
X137908210Y-56459342D02*
X137860591Y-56364104D01*
X137860591Y-56364104D02*
X137765353Y-56316485D01*
X137765353Y-56316485D02*
X137622496Y-56316485D01*
X137622496Y-56316485D02*
X137527258Y-56268866D01*
X137527258Y-56268866D02*
X137479639Y-56173628D01*
X137479639Y-56173628D02*
X137479639Y-56126009D01*
X137479639Y-56126009D02*
X137527258Y-56030771D01*
X137527258Y-56030771D02*
X137622496Y-55983152D01*
X137622496Y-55983152D02*
X137765353Y-55983152D01*
X137765353Y-55983152D02*
X137860591Y-56030771D01*
X138193925Y-55983152D02*
X138574877Y-55983152D01*
X138336782Y-55649819D02*
X138336782Y-56506961D01*
X138336782Y-56506961D02*
X138384401Y-56602200D01*
X138384401Y-56602200D02*
X138479639Y-56649819D01*
X138479639Y-56649819D02*
X138574877Y-56649819D01*
X139289163Y-56602200D02*
X139193925Y-56649819D01*
X139193925Y-56649819D02*
X139003449Y-56649819D01*
X139003449Y-56649819D02*
X138908211Y-56602200D01*
X138908211Y-56602200D02*
X138860592Y-56506961D01*
X138860592Y-56506961D02*
X138860592Y-56126009D01*
X138860592Y-56126009D02*
X138908211Y-56030771D01*
X138908211Y-56030771D02*
X139003449Y-55983152D01*
X139003449Y-55983152D02*
X139193925Y-55983152D01*
X139193925Y-55983152D02*
X139289163Y-56030771D01*
X139289163Y-56030771D02*
X139336782Y-56126009D01*
X139336782Y-56126009D02*
X139336782Y-56221247D01*
X139336782Y-56221247D02*
X138860592Y-56316485D01*
X140146306Y-56602200D02*
X140051068Y-56649819D01*
X140051068Y-56649819D02*
X139860592Y-56649819D01*
X139860592Y-56649819D02*
X139765354Y-56602200D01*
X139765354Y-56602200D02*
X139717735Y-56506961D01*
X139717735Y-56506961D02*
X139717735Y-56126009D01*
X139717735Y-56126009D02*
X139765354Y-56030771D01*
X139765354Y-56030771D02*
X139860592Y-55983152D01*
X139860592Y-55983152D02*
X140051068Y-55983152D01*
X140051068Y-55983152D02*
X140146306Y-56030771D01*
X140146306Y-56030771D02*
X140193925Y-56126009D01*
X140193925Y-56126009D02*
X140193925Y-56221247D01*
X140193925Y-56221247D02*
X139717735Y-56316485D01*
X140765354Y-56649819D02*
X140670116Y-56602200D01*
X140670116Y-56602200D02*
X140622497Y-56506961D01*
X140622497Y-56506961D02*
X140622497Y-55649819D01*
X122289160Y-58212200D02*
X122432017Y-58259819D01*
X122432017Y-58259819D02*
X122670112Y-58259819D01*
X122670112Y-58259819D02*
X122765350Y-58212200D01*
X122765350Y-58212200D02*
X122812969Y-58164580D01*
X122812969Y-58164580D02*
X122860588Y-58069342D01*
X122860588Y-58069342D02*
X122860588Y-57974104D01*
X122860588Y-57974104D02*
X122812969Y-57878866D01*
X122812969Y-57878866D02*
X122765350Y-57831247D01*
X122765350Y-57831247D02*
X122670112Y-57783628D01*
X122670112Y-57783628D02*
X122479636Y-57736009D01*
X122479636Y-57736009D02*
X122384398Y-57688390D01*
X122384398Y-57688390D02*
X122336779Y-57640771D01*
X122336779Y-57640771D02*
X122289160Y-57545533D01*
X122289160Y-57545533D02*
X122289160Y-57450295D01*
X122289160Y-57450295D02*
X122336779Y-57355057D01*
X122336779Y-57355057D02*
X122384398Y-57307438D01*
X122384398Y-57307438D02*
X122479636Y-57259819D01*
X122479636Y-57259819D02*
X122717731Y-57259819D01*
X122717731Y-57259819D02*
X122860588Y-57307438D01*
X123146303Y-57593152D02*
X123527255Y-57593152D01*
X123289160Y-57259819D02*
X123289160Y-58116961D01*
X123289160Y-58116961D02*
X123336779Y-58212200D01*
X123336779Y-58212200D02*
X123432017Y-58259819D01*
X123432017Y-58259819D02*
X123527255Y-58259819D01*
X123860589Y-58259819D02*
X123860589Y-57593152D01*
X123860589Y-57259819D02*
X123812970Y-57307438D01*
X123812970Y-57307438D02*
X123860589Y-57355057D01*
X123860589Y-57355057D02*
X123908208Y-57307438D01*
X123908208Y-57307438D02*
X123860589Y-57259819D01*
X123860589Y-57259819D02*
X123860589Y-57355057D01*
X124193922Y-57593152D02*
X124574874Y-57593152D01*
X124336779Y-58259819D02*
X124336779Y-57402676D01*
X124336779Y-57402676D02*
X124384398Y-57307438D01*
X124384398Y-57307438D02*
X124479636Y-57259819D01*
X124479636Y-57259819D02*
X124574874Y-57259819D01*
X124765351Y-57593152D02*
X125146303Y-57593152D01*
X124908208Y-58259819D02*
X124908208Y-57402676D01*
X124908208Y-57402676D02*
X124955827Y-57307438D01*
X124955827Y-57307438D02*
X125051065Y-57259819D01*
X125051065Y-57259819D02*
X125146303Y-57259819D01*
X125860589Y-58212200D02*
X125765351Y-58259819D01*
X125765351Y-58259819D02*
X125574875Y-58259819D01*
X125574875Y-58259819D02*
X125479637Y-58212200D01*
X125479637Y-58212200D02*
X125432018Y-58116961D01*
X125432018Y-58116961D02*
X125432018Y-57736009D01*
X125432018Y-57736009D02*
X125479637Y-57640771D01*
X125479637Y-57640771D02*
X125574875Y-57593152D01*
X125574875Y-57593152D02*
X125765351Y-57593152D01*
X125765351Y-57593152D02*
X125860589Y-57640771D01*
X125860589Y-57640771D02*
X125908208Y-57736009D01*
X125908208Y-57736009D02*
X125908208Y-57831247D01*
X125908208Y-57831247D02*
X125432018Y-57926485D01*
X126336780Y-57593152D02*
X126336780Y-58259819D01*
X126336780Y-57688390D02*
X126384399Y-57640771D01*
X126384399Y-57640771D02*
X126479637Y-57593152D01*
X126479637Y-57593152D02*
X126622494Y-57593152D01*
X126622494Y-57593152D02*
X126717732Y-57640771D01*
X126717732Y-57640771D02*
X126765351Y-57736009D01*
X126765351Y-57736009D02*
X126765351Y-58259819D01*
X127622494Y-58212200D02*
X127527256Y-58259819D01*
X127527256Y-58259819D02*
X127336780Y-58259819D01*
X127336780Y-58259819D02*
X127241542Y-58212200D01*
X127241542Y-58212200D02*
X127193923Y-58116961D01*
X127193923Y-58116961D02*
X127193923Y-57736009D01*
X127193923Y-57736009D02*
X127241542Y-57640771D01*
X127241542Y-57640771D02*
X127336780Y-57593152D01*
X127336780Y-57593152D02*
X127527256Y-57593152D01*
X127527256Y-57593152D02*
X127622494Y-57640771D01*
X127622494Y-57640771D02*
X127670113Y-57736009D01*
X127670113Y-57736009D02*
X127670113Y-57831247D01*
X127670113Y-57831247D02*
X127193923Y-57926485D01*
X128098685Y-58259819D02*
X128098685Y-57593152D01*
X128098685Y-57783628D02*
X128146304Y-57688390D01*
X128146304Y-57688390D02*
X128193923Y-57640771D01*
X128193923Y-57640771D02*
X128289161Y-57593152D01*
X128289161Y-57593152D02*
X128384399Y-57593152D01*
X129336781Y-57593152D02*
X129717733Y-57593152D01*
X129479638Y-57259819D02*
X129479638Y-58116961D01*
X129479638Y-58116961D02*
X129527257Y-58212200D01*
X129527257Y-58212200D02*
X129622495Y-58259819D01*
X129622495Y-58259819D02*
X129717733Y-58259819D01*
X130051067Y-58259819D02*
X130051067Y-57259819D01*
X130479638Y-58259819D02*
X130479638Y-57736009D01*
X130479638Y-57736009D02*
X130432019Y-57640771D01*
X130432019Y-57640771D02*
X130336781Y-57593152D01*
X130336781Y-57593152D02*
X130193924Y-57593152D01*
X130193924Y-57593152D02*
X130098686Y-57640771D01*
X130098686Y-57640771D02*
X130051067Y-57688390D01*
X130955829Y-58259819D02*
X130955829Y-57593152D01*
X130955829Y-57259819D02*
X130908210Y-57307438D01*
X130908210Y-57307438D02*
X130955829Y-57355057D01*
X130955829Y-57355057D02*
X131003448Y-57307438D01*
X131003448Y-57307438D02*
X130955829Y-57259819D01*
X130955829Y-57259819D02*
X130955829Y-57355057D01*
X131860590Y-58212200D02*
X131765352Y-58259819D01*
X131765352Y-58259819D02*
X131574876Y-58259819D01*
X131574876Y-58259819D02*
X131479638Y-58212200D01*
X131479638Y-58212200D02*
X131432019Y-58164580D01*
X131432019Y-58164580D02*
X131384400Y-58069342D01*
X131384400Y-58069342D02*
X131384400Y-57783628D01*
X131384400Y-57783628D02*
X131432019Y-57688390D01*
X131432019Y-57688390D02*
X131479638Y-57640771D01*
X131479638Y-57640771D02*
X131574876Y-57593152D01*
X131574876Y-57593152D02*
X131765352Y-57593152D01*
X131765352Y-57593152D02*
X131860590Y-57640771D01*
X132289162Y-58259819D02*
X132289162Y-57259819D01*
X132384400Y-57878866D02*
X132670114Y-58259819D01*
X132670114Y-57593152D02*
X132289162Y-57974104D01*
X133098686Y-57593152D02*
X133098686Y-58259819D01*
X133098686Y-57688390D02*
X133146305Y-57640771D01*
X133146305Y-57640771D02*
X133241543Y-57593152D01*
X133241543Y-57593152D02*
X133384400Y-57593152D01*
X133384400Y-57593152D02*
X133479638Y-57640771D01*
X133479638Y-57640771D02*
X133527257Y-57736009D01*
X133527257Y-57736009D02*
X133527257Y-58259819D01*
X134384400Y-58212200D02*
X134289162Y-58259819D01*
X134289162Y-58259819D02*
X134098686Y-58259819D01*
X134098686Y-58259819D02*
X134003448Y-58212200D01*
X134003448Y-58212200D02*
X133955829Y-58116961D01*
X133955829Y-58116961D02*
X133955829Y-57736009D01*
X133955829Y-57736009D02*
X134003448Y-57640771D01*
X134003448Y-57640771D02*
X134098686Y-57593152D01*
X134098686Y-57593152D02*
X134289162Y-57593152D01*
X134289162Y-57593152D02*
X134384400Y-57640771D01*
X134384400Y-57640771D02*
X134432019Y-57736009D01*
X134432019Y-57736009D02*
X134432019Y-57831247D01*
X134432019Y-57831247D02*
X133955829Y-57926485D01*
X134812972Y-58212200D02*
X134908210Y-58259819D01*
X134908210Y-58259819D02*
X135098686Y-58259819D01*
X135098686Y-58259819D02*
X135193924Y-58212200D01*
X135193924Y-58212200D02*
X135241543Y-58116961D01*
X135241543Y-58116961D02*
X135241543Y-58069342D01*
X135241543Y-58069342D02*
X135193924Y-57974104D01*
X135193924Y-57974104D02*
X135098686Y-57926485D01*
X135098686Y-57926485D02*
X134955829Y-57926485D01*
X134955829Y-57926485D02*
X134860591Y-57878866D01*
X134860591Y-57878866D02*
X134812972Y-57783628D01*
X134812972Y-57783628D02*
X134812972Y-57736009D01*
X134812972Y-57736009D02*
X134860591Y-57640771D01*
X134860591Y-57640771D02*
X134955829Y-57593152D01*
X134955829Y-57593152D02*
X135098686Y-57593152D01*
X135098686Y-57593152D02*
X135193924Y-57640771D01*
X135622496Y-58212200D02*
X135717734Y-58259819D01*
X135717734Y-58259819D02*
X135908210Y-58259819D01*
X135908210Y-58259819D02*
X136003448Y-58212200D01*
X136003448Y-58212200D02*
X136051067Y-58116961D01*
X136051067Y-58116961D02*
X136051067Y-58069342D01*
X136051067Y-58069342D02*
X136003448Y-57974104D01*
X136003448Y-57974104D02*
X135908210Y-57926485D01*
X135908210Y-57926485D02*
X135765353Y-57926485D01*
X135765353Y-57926485D02*
X135670115Y-57878866D01*
X135670115Y-57878866D02*
X135622496Y-57783628D01*
X135622496Y-57783628D02*
X135622496Y-57736009D01*
X135622496Y-57736009D02*
X135670115Y-57640771D01*
X135670115Y-57640771D02*
X135765353Y-57593152D01*
X135765353Y-57593152D02*
X135908210Y-57593152D01*
X135908210Y-57593152D02*
X136003448Y-57640771D01*
X136479639Y-58164580D02*
X136527258Y-58212200D01*
X136527258Y-58212200D02*
X136479639Y-58259819D01*
X136479639Y-58259819D02*
X136432020Y-58212200D01*
X136432020Y-58212200D02*
X136479639Y-58164580D01*
X136479639Y-58164580D02*
X136479639Y-58259819D01*
X136479639Y-57640771D02*
X136527258Y-57688390D01*
X136527258Y-57688390D02*
X136479639Y-57736009D01*
X136479639Y-57736009D02*
X136432020Y-57688390D01*
X136432020Y-57688390D02*
X136479639Y-57640771D01*
X136479639Y-57640771D02*
X136479639Y-57736009D01*
X137908210Y-57259819D02*
X138003448Y-57259819D01*
X138003448Y-57259819D02*
X138098686Y-57307438D01*
X138098686Y-57307438D02*
X138146305Y-57355057D01*
X138146305Y-57355057D02*
X138193924Y-57450295D01*
X138193924Y-57450295D02*
X138241543Y-57640771D01*
X138241543Y-57640771D02*
X138241543Y-57878866D01*
X138241543Y-57878866D02*
X138193924Y-58069342D01*
X138193924Y-58069342D02*
X138146305Y-58164580D01*
X138146305Y-58164580D02*
X138098686Y-58212200D01*
X138098686Y-58212200D02*
X138003448Y-58259819D01*
X138003448Y-58259819D02*
X137908210Y-58259819D01*
X137908210Y-58259819D02*
X137812972Y-58212200D01*
X137812972Y-58212200D02*
X137765353Y-58164580D01*
X137765353Y-58164580D02*
X137717734Y-58069342D01*
X137717734Y-58069342D02*
X137670115Y-57878866D01*
X137670115Y-57878866D02*
X137670115Y-57640771D01*
X137670115Y-57640771D02*
X137717734Y-57450295D01*
X137717734Y-57450295D02*
X137765353Y-57355057D01*
X137765353Y-57355057D02*
X137812972Y-57307438D01*
X137812972Y-57307438D02*
X137908210Y-57259819D01*
X138670115Y-58164580D02*
X138717734Y-58212200D01*
X138717734Y-58212200D02*
X138670115Y-58259819D01*
X138670115Y-58259819D02*
X138622496Y-58212200D01*
X138622496Y-58212200D02*
X138670115Y-58164580D01*
X138670115Y-58164580D02*
X138670115Y-58259819D01*
X139098686Y-57355057D02*
X139146305Y-57307438D01*
X139146305Y-57307438D02*
X139241543Y-57259819D01*
X139241543Y-57259819D02*
X139479638Y-57259819D01*
X139479638Y-57259819D02*
X139574876Y-57307438D01*
X139574876Y-57307438D02*
X139622495Y-57355057D01*
X139622495Y-57355057D02*
X139670114Y-57450295D01*
X139670114Y-57450295D02*
X139670114Y-57545533D01*
X139670114Y-57545533D02*
X139622495Y-57688390D01*
X139622495Y-57688390D02*
X139051067Y-58259819D01*
X139051067Y-58259819D02*
X139670114Y-58259819D01*
X140098686Y-58259819D02*
X140098686Y-57593152D01*
X140098686Y-57688390D02*
X140146305Y-57640771D01*
X140146305Y-57640771D02*
X140241543Y-57593152D01*
X140241543Y-57593152D02*
X140384400Y-57593152D01*
X140384400Y-57593152D02*
X140479638Y-57640771D01*
X140479638Y-57640771D02*
X140527257Y-57736009D01*
X140527257Y-57736009D02*
X140527257Y-58259819D01*
X140527257Y-57736009D02*
X140574876Y-57640771D01*
X140574876Y-57640771D02*
X140670114Y-57593152D01*
X140670114Y-57593152D02*
X140812971Y-57593152D01*
X140812971Y-57593152D02*
X140908210Y-57640771D01*
X140908210Y-57640771D02*
X140955829Y-57736009D01*
X140955829Y-57736009D02*
X140955829Y-58259819D01*
X141432019Y-58259819D02*
X141432019Y-57593152D01*
X141432019Y-57688390D02*
X141479638Y-57640771D01*
X141479638Y-57640771D02*
X141574876Y-57593152D01*
X141574876Y-57593152D02*
X141717733Y-57593152D01*
X141717733Y-57593152D02*
X141812971Y-57640771D01*
X141812971Y-57640771D02*
X141860590Y-57736009D01*
X141860590Y-57736009D02*
X141860590Y-58259819D01*
X141860590Y-57736009D02*
X141908209Y-57640771D01*
X141908209Y-57640771D02*
X142003447Y-57593152D01*
X142003447Y-57593152D02*
X142146304Y-57593152D01*
X142146304Y-57593152D02*
X142241543Y-57640771D01*
X142241543Y-57640771D02*
X142289162Y-57736009D01*
X142289162Y-57736009D02*
X142289162Y-58259819D01*
X122289160Y-59822200D02*
X122432017Y-59869819D01*
X122432017Y-59869819D02*
X122670112Y-59869819D01*
X122670112Y-59869819D02*
X122765350Y-59822200D01*
X122765350Y-59822200D02*
X122812969Y-59774580D01*
X122812969Y-59774580D02*
X122860588Y-59679342D01*
X122860588Y-59679342D02*
X122860588Y-59584104D01*
X122860588Y-59584104D02*
X122812969Y-59488866D01*
X122812969Y-59488866D02*
X122765350Y-59441247D01*
X122765350Y-59441247D02*
X122670112Y-59393628D01*
X122670112Y-59393628D02*
X122479636Y-59346009D01*
X122479636Y-59346009D02*
X122384398Y-59298390D01*
X122384398Y-59298390D02*
X122336779Y-59250771D01*
X122336779Y-59250771D02*
X122289160Y-59155533D01*
X122289160Y-59155533D02*
X122289160Y-59060295D01*
X122289160Y-59060295D02*
X122336779Y-58965057D01*
X122336779Y-58965057D02*
X122384398Y-58917438D01*
X122384398Y-58917438D02*
X122479636Y-58869819D01*
X122479636Y-58869819D02*
X122717731Y-58869819D01*
X122717731Y-58869819D02*
X122860588Y-58917438D01*
X123146303Y-59203152D02*
X123527255Y-59203152D01*
X123289160Y-58869819D02*
X123289160Y-59726961D01*
X123289160Y-59726961D02*
X123336779Y-59822200D01*
X123336779Y-59822200D02*
X123432017Y-59869819D01*
X123432017Y-59869819D02*
X123527255Y-59869819D01*
X123860589Y-59869819D02*
X123860589Y-59203152D01*
X123860589Y-58869819D02*
X123812970Y-58917438D01*
X123812970Y-58917438D02*
X123860589Y-58965057D01*
X123860589Y-58965057D02*
X123908208Y-58917438D01*
X123908208Y-58917438D02*
X123860589Y-58869819D01*
X123860589Y-58869819D02*
X123860589Y-58965057D01*
X124193922Y-59203152D02*
X124574874Y-59203152D01*
X124336779Y-59869819D02*
X124336779Y-59012676D01*
X124336779Y-59012676D02*
X124384398Y-58917438D01*
X124384398Y-58917438D02*
X124479636Y-58869819D01*
X124479636Y-58869819D02*
X124574874Y-58869819D01*
X124765351Y-59203152D02*
X125146303Y-59203152D01*
X124908208Y-59869819D02*
X124908208Y-59012676D01*
X124908208Y-59012676D02*
X124955827Y-58917438D01*
X124955827Y-58917438D02*
X125051065Y-58869819D01*
X125051065Y-58869819D02*
X125146303Y-58869819D01*
X125860589Y-59822200D02*
X125765351Y-59869819D01*
X125765351Y-59869819D02*
X125574875Y-59869819D01*
X125574875Y-59869819D02*
X125479637Y-59822200D01*
X125479637Y-59822200D02*
X125432018Y-59726961D01*
X125432018Y-59726961D02*
X125432018Y-59346009D01*
X125432018Y-59346009D02*
X125479637Y-59250771D01*
X125479637Y-59250771D02*
X125574875Y-59203152D01*
X125574875Y-59203152D02*
X125765351Y-59203152D01*
X125765351Y-59203152D02*
X125860589Y-59250771D01*
X125860589Y-59250771D02*
X125908208Y-59346009D01*
X125908208Y-59346009D02*
X125908208Y-59441247D01*
X125908208Y-59441247D02*
X125432018Y-59536485D01*
X126336780Y-59203152D02*
X126336780Y-59869819D01*
X126336780Y-59298390D02*
X126384399Y-59250771D01*
X126384399Y-59250771D02*
X126479637Y-59203152D01*
X126479637Y-59203152D02*
X126622494Y-59203152D01*
X126622494Y-59203152D02*
X126717732Y-59250771D01*
X126717732Y-59250771D02*
X126765351Y-59346009D01*
X126765351Y-59346009D02*
X126765351Y-59869819D01*
X127622494Y-59822200D02*
X127527256Y-59869819D01*
X127527256Y-59869819D02*
X127336780Y-59869819D01*
X127336780Y-59869819D02*
X127241542Y-59822200D01*
X127241542Y-59822200D02*
X127193923Y-59726961D01*
X127193923Y-59726961D02*
X127193923Y-59346009D01*
X127193923Y-59346009D02*
X127241542Y-59250771D01*
X127241542Y-59250771D02*
X127336780Y-59203152D01*
X127336780Y-59203152D02*
X127527256Y-59203152D01*
X127527256Y-59203152D02*
X127622494Y-59250771D01*
X127622494Y-59250771D02*
X127670113Y-59346009D01*
X127670113Y-59346009D02*
X127670113Y-59441247D01*
X127670113Y-59441247D02*
X127193923Y-59536485D01*
X128098685Y-59869819D02*
X128098685Y-59203152D01*
X128098685Y-59393628D02*
X128146304Y-59298390D01*
X128146304Y-59298390D02*
X128193923Y-59250771D01*
X128193923Y-59250771D02*
X128289161Y-59203152D01*
X128289161Y-59203152D02*
X128384399Y-59203152D01*
X129622495Y-59869819D02*
X129527257Y-59822200D01*
X129527257Y-59822200D02*
X129479638Y-59726961D01*
X129479638Y-59726961D02*
X129479638Y-58869819D01*
X130146305Y-59869819D02*
X130051067Y-59822200D01*
X130051067Y-59822200D02*
X130003448Y-59774580D01*
X130003448Y-59774580D02*
X129955829Y-59679342D01*
X129955829Y-59679342D02*
X129955829Y-59393628D01*
X129955829Y-59393628D02*
X130003448Y-59298390D01*
X130003448Y-59298390D02*
X130051067Y-59250771D01*
X130051067Y-59250771D02*
X130146305Y-59203152D01*
X130146305Y-59203152D02*
X130289162Y-59203152D01*
X130289162Y-59203152D02*
X130384400Y-59250771D01*
X130384400Y-59250771D02*
X130432019Y-59298390D01*
X130432019Y-59298390D02*
X130479638Y-59393628D01*
X130479638Y-59393628D02*
X130479638Y-59679342D01*
X130479638Y-59679342D02*
X130432019Y-59774580D01*
X130432019Y-59774580D02*
X130384400Y-59822200D01*
X130384400Y-59822200D02*
X130289162Y-59869819D01*
X130289162Y-59869819D02*
X130146305Y-59869819D01*
X131336781Y-59822200D02*
X131241543Y-59869819D01*
X131241543Y-59869819D02*
X131051067Y-59869819D01*
X131051067Y-59869819D02*
X130955829Y-59822200D01*
X130955829Y-59822200D02*
X130908210Y-59774580D01*
X130908210Y-59774580D02*
X130860591Y-59679342D01*
X130860591Y-59679342D02*
X130860591Y-59393628D01*
X130860591Y-59393628D02*
X130908210Y-59298390D01*
X130908210Y-59298390D02*
X130955829Y-59250771D01*
X130955829Y-59250771D02*
X131051067Y-59203152D01*
X131051067Y-59203152D02*
X131241543Y-59203152D01*
X131241543Y-59203152D02*
X131336781Y-59250771D01*
X132193924Y-59869819D02*
X132193924Y-59346009D01*
X132193924Y-59346009D02*
X132146305Y-59250771D01*
X132146305Y-59250771D02*
X132051067Y-59203152D01*
X132051067Y-59203152D02*
X131860591Y-59203152D01*
X131860591Y-59203152D02*
X131765353Y-59250771D01*
X132193924Y-59822200D02*
X132098686Y-59869819D01*
X132098686Y-59869819D02*
X131860591Y-59869819D01*
X131860591Y-59869819D02*
X131765353Y-59822200D01*
X131765353Y-59822200D02*
X131717734Y-59726961D01*
X131717734Y-59726961D02*
X131717734Y-59631723D01*
X131717734Y-59631723D02*
X131765353Y-59536485D01*
X131765353Y-59536485D02*
X131860591Y-59488866D01*
X131860591Y-59488866D02*
X132098686Y-59488866D01*
X132098686Y-59488866D02*
X132193924Y-59441247D01*
X132527258Y-59203152D02*
X132908210Y-59203152D01*
X132670115Y-58869819D02*
X132670115Y-59726961D01*
X132670115Y-59726961D02*
X132717734Y-59822200D01*
X132717734Y-59822200D02*
X132812972Y-59869819D01*
X132812972Y-59869819D02*
X132908210Y-59869819D01*
X133241544Y-59869819D02*
X133241544Y-59203152D01*
X133241544Y-58869819D02*
X133193925Y-58917438D01*
X133193925Y-58917438D02*
X133241544Y-58965057D01*
X133241544Y-58965057D02*
X133289163Y-58917438D01*
X133289163Y-58917438D02*
X133241544Y-58869819D01*
X133241544Y-58869819D02*
X133241544Y-58965057D01*
X133860591Y-59869819D02*
X133765353Y-59822200D01*
X133765353Y-59822200D02*
X133717734Y-59774580D01*
X133717734Y-59774580D02*
X133670115Y-59679342D01*
X133670115Y-59679342D02*
X133670115Y-59393628D01*
X133670115Y-59393628D02*
X133717734Y-59298390D01*
X133717734Y-59298390D02*
X133765353Y-59250771D01*
X133765353Y-59250771D02*
X133860591Y-59203152D01*
X133860591Y-59203152D02*
X134003448Y-59203152D01*
X134003448Y-59203152D02*
X134098686Y-59250771D01*
X134098686Y-59250771D02*
X134146305Y-59298390D01*
X134146305Y-59298390D02*
X134193924Y-59393628D01*
X134193924Y-59393628D02*
X134193924Y-59679342D01*
X134193924Y-59679342D02*
X134146305Y-59774580D01*
X134146305Y-59774580D02*
X134098686Y-59822200D01*
X134098686Y-59822200D02*
X134003448Y-59869819D01*
X134003448Y-59869819D02*
X133860591Y-59869819D01*
X134622496Y-59203152D02*
X134622496Y-59869819D01*
X134622496Y-59298390D02*
X134670115Y-59250771D01*
X134670115Y-59250771D02*
X134765353Y-59203152D01*
X134765353Y-59203152D02*
X134908210Y-59203152D01*
X134908210Y-59203152D02*
X135003448Y-59250771D01*
X135003448Y-59250771D02*
X135051067Y-59346009D01*
X135051067Y-59346009D02*
X135051067Y-59869819D01*
X135527258Y-59774580D02*
X135574877Y-59822200D01*
X135574877Y-59822200D02*
X135527258Y-59869819D01*
X135527258Y-59869819D02*
X135479639Y-59822200D01*
X135479639Y-59822200D02*
X135527258Y-59774580D01*
X135527258Y-59774580D02*
X135527258Y-59869819D01*
X135527258Y-59250771D02*
X135574877Y-59298390D01*
X135574877Y-59298390D02*
X135527258Y-59346009D01*
X135527258Y-59346009D02*
X135479639Y-59298390D01*
X135479639Y-59298390D02*
X135527258Y-59250771D01*
X135527258Y-59250771D02*
X135527258Y-59346009D01*
X137098686Y-59346009D02*
X137241543Y-59393628D01*
X137241543Y-59393628D02*
X137289162Y-59441247D01*
X137289162Y-59441247D02*
X137336781Y-59536485D01*
X137336781Y-59536485D02*
X137336781Y-59679342D01*
X137336781Y-59679342D02*
X137289162Y-59774580D01*
X137289162Y-59774580D02*
X137241543Y-59822200D01*
X137241543Y-59822200D02*
X137146305Y-59869819D01*
X137146305Y-59869819D02*
X136765353Y-59869819D01*
X136765353Y-59869819D02*
X136765353Y-58869819D01*
X136765353Y-58869819D02*
X137098686Y-58869819D01*
X137098686Y-58869819D02*
X137193924Y-58917438D01*
X137193924Y-58917438D02*
X137241543Y-58965057D01*
X137241543Y-58965057D02*
X137289162Y-59060295D01*
X137289162Y-59060295D02*
X137289162Y-59155533D01*
X137289162Y-59155533D02*
X137241543Y-59250771D01*
X137241543Y-59250771D02*
X137193924Y-59298390D01*
X137193924Y-59298390D02*
X137098686Y-59346009D01*
X137098686Y-59346009D02*
X136765353Y-59346009D01*
X137908210Y-59869819D02*
X137812972Y-59822200D01*
X137812972Y-59822200D02*
X137765353Y-59774580D01*
X137765353Y-59774580D02*
X137717734Y-59679342D01*
X137717734Y-59679342D02*
X137717734Y-59393628D01*
X137717734Y-59393628D02*
X137765353Y-59298390D01*
X137765353Y-59298390D02*
X137812972Y-59250771D01*
X137812972Y-59250771D02*
X137908210Y-59203152D01*
X137908210Y-59203152D02*
X138051067Y-59203152D01*
X138051067Y-59203152D02*
X138146305Y-59250771D01*
X138146305Y-59250771D02*
X138193924Y-59298390D01*
X138193924Y-59298390D02*
X138241543Y-59393628D01*
X138241543Y-59393628D02*
X138241543Y-59679342D01*
X138241543Y-59679342D02*
X138193924Y-59774580D01*
X138193924Y-59774580D02*
X138146305Y-59822200D01*
X138146305Y-59822200D02*
X138051067Y-59869819D01*
X138051067Y-59869819D02*
X137908210Y-59869819D01*
X138527258Y-59203152D02*
X138908210Y-59203152D01*
X138670115Y-58869819D02*
X138670115Y-59726961D01*
X138670115Y-59726961D02*
X138717734Y-59822200D01*
X138717734Y-59822200D02*
X138812972Y-59869819D01*
X138812972Y-59869819D02*
X138908210Y-59869819D01*
X139098687Y-59203152D02*
X139479639Y-59203152D01*
X139241544Y-58869819D02*
X139241544Y-59726961D01*
X139241544Y-59726961D02*
X139289163Y-59822200D01*
X139289163Y-59822200D02*
X139384401Y-59869819D01*
X139384401Y-59869819D02*
X139479639Y-59869819D01*
X139955830Y-59869819D02*
X139860592Y-59822200D01*
X139860592Y-59822200D02*
X139812973Y-59774580D01*
X139812973Y-59774580D02*
X139765354Y-59679342D01*
X139765354Y-59679342D02*
X139765354Y-59393628D01*
X139765354Y-59393628D02*
X139812973Y-59298390D01*
X139812973Y-59298390D02*
X139860592Y-59250771D01*
X139860592Y-59250771D02*
X139955830Y-59203152D01*
X139955830Y-59203152D02*
X140098687Y-59203152D01*
X140098687Y-59203152D02*
X140193925Y-59250771D01*
X140193925Y-59250771D02*
X140241544Y-59298390D01*
X140241544Y-59298390D02*
X140289163Y-59393628D01*
X140289163Y-59393628D02*
X140289163Y-59679342D01*
X140289163Y-59679342D02*
X140241544Y-59774580D01*
X140241544Y-59774580D02*
X140193925Y-59822200D01*
X140193925Y-59822200D02*
X140098687Y-59869819D01*
X140098687Y-59869819D02*
X139955830Y-59869819D01*
X140717735Y-59869819D02*
X140717735Y-59203152D01*
X140717735Y-59298390D02*
X140765354Y-59250771D01*
X140765354Y-59250771D02*
X140860592Y-59203152D01*
X140860592Y-59203152D02*
X141003449Y-59203152D01*
X141003449Y-59203152D02*
X141098687Y-59250771D01*
X141098687Y-59250771D02*
X141146306Y-59346009D01*
X141146306Y-59346009D02*
X141146306Y-59869819D01*
X141146306Y-59346009D02*
X141193925Y-59250771D01*
X141193925Y-59250771D02*
X141289163Y-59203152D01*
X141289163Y-59203152D02*
X141432020Y-59203152D01*
X141432020Y-59203152D02*
X141527259Y-59250771D01*
X141527259Y-59250771D02*
X141574878Y-59346009D01*
X141574878Y-59346009D02*
X141574878Y-59869819D01*
X142765354Y-59822200D02*
X142860592Y-59869819D01*
X142860592Y-59869819D02*
X143051068Y-59869819D01*
X143051068Y-59869819D02*
X143146306Y-59822200D01*
X143146306Y-59822200D02*
X143193925Y-59726961D01*
X143193925Y-59726961D02*
X143193925Y-59679342D01*
X143193925Y-59679342D02*
X143146306Y-59584104D01*
X143146306Y-59584104D02*
X143051068Y-59536485D01*
X143051068Y-59536485D02*
X142908211Y-59536485D01*
X142908211Y-59536485D02*
X142812973Y-59488866D01*
X142812973Y-59488866D02*
X142765354Y-59393628D01*
X142765354Y-59393628D02*
X142765354Y-59346009D01*
X142765354Y-59346009D02*
X142812973Y-59250771D01*
X142812973Y-59250771D02*
X142908211Y-59203152D01*
X142908211Y-59203152D02*
X143051068Y-59203152D01*
X143051068Y-59203152D02*
X143146306Y-59250771D01*
X143622497Y-59869819D02*
X143622497Y-59203152D01*
X143622497Y-58869819D02*
X143574878Y-58917438D01*
X143574878Y-58917438D02*
X143622497Y-58965057D01*
X143622497Y-58965057D02*
X143670116Y-58917438D01*
X143670116Y-58917438D02*
X143622497Y-58869819D01*
X143622497Y-58869819D02*
X143622497Y-58965057D01*
X144527258Y-59869819D02*
X144527258Y-58869819D01*
X144527258Y-59822200D02*
X144432020Y-59869819D01*
X144432020Y-59869819D02*
X144241544Y-59869819D01*
X144241544Y-59869819D02*
X144146306Y-59822200D01*
X144146306Y-59822200D02*
X144098687Y-59774580D01*
X144098687Y-59774580D02*
X144051068Y-59679342D01*
X144051068Y-59679342D02*
X144051068Y-59393628D01*
X144051068Y-59393628D02*
X144098687Y-59298390D01*
X144098687Y-59298390D02*
X144146306Y-59250771D01*
X144146306Y-59250771D02*
X144241544Y-59203152D01*
X144241544Y-59203152D02*
X144432020Y-59203152D01*
X144432020Y-59203152D02*
X144527258Y-59250771D01*
X145384401Y-59822200D02*
X145289163Y-59869819D01*
X145289163Y-59869819D02*
X145098687Y-59869819D01*
X145098687Y-59869819D02*
X145003449Y-59822200D01*
X145003449Y-59822200D02*
X144955830Y-59726961D01*
X144955830Y-59726961D02*
X144955830Y-59346009D01*
X144955830Y-59346009D02*
X145003449Y-59250771D01*
X145003449Y-59250771D02*
X145098687Y-59203152D01*
X145098687Y-59203152D02*
X145289163Y-59203152D01*
X145289163Y-59203152D02*
X145384401Y-59250771D01*
X145384401Y-59250771D02*
X145432020Y-59346009D01*
X145432020Y-59346009D02*
X145432020Y-59441247D01*
X145432020Y-59441247D02*
X144955830Y-59536485D01*
M02*
