%TF.GenerationSoftware,KiCad,Pcbnew,7.0.1*%
%TF.CreationDate,2024-01-03T22:16:11+00:00*%
%TF.ProjectId,watch_lower,77617463-685f-46c6-9f77-65722e6b6963,rev?*%
%TF.SameCoordinates,Original*%
%TF.FileFunction,Other,User*%
%FSLAX46Y46*%
G04 Gerber Fmt 4.6, Leading zero omitted, Abs format (unit mm)*
G04 Created by KiCad (PCBNEW 7.0.1) date 2024-01-03 22:16:11*
%MOMM*%
%LPD*%
G01*
G04 APERTURE LIST*
%ADD10C,0.100000*%
%ADD11C,0.150000*%
G04 APERTURE END LIST*
D10*
X112250000Y-73350000D02*
G75*
G03*
X112250000Y-73350000I-750000J0D01*
G01*
X100750000Y-76850000D02*
G75*
G03*
X100750000Y-76850000I-750000J0D01*
G01*
X122000000Y-66000000D02*
X122700000Y-64700000D01*
X122000000Y-66000000D02*
X121000000Y-65000000D01*
X117000000Y-65000000D02*
X118300000Y-64500000D01*
X117000000Y-65000000D02*
X117000000Y-63700000D01*
X109000000Y-65000000D02*
X110500000Y-65400000D01*
X109000000Y-65000000D02*
X109900000Y-63600000D01*
X91000000Y-66000000D02*
X91900000Y-66500000D01*
X91000000Y-66000000D02*
X91600000Y-65200000D01*
X113000000Y-57000000D02*
X114400000Y-56800000D01*
X113000000Y-57000000D02*
X113800000Y-58100000D01*
X121000000Y-60000000D02*
X122000000Y-66000000D01*
X121000000Y-60000000D02*
X117000000Y-65000000D01*
X121000000Y-60000000D02*
X109000000Y-65000000D01*
X121000000Y-60000000D02*
X91000000Y-66000000D01*
X121000000Y-60000000D02*
X113000000Y-57000000D01*
X101000000Y-66450000D02*
X97500000Y-66450000D01*
X108000000Y-64450000D02*
X108000000Y-68350000D01*
X113500000Y-70350000D02*
X110000000Y-70350000D01*
X113500000Y-77350000D02*
X113500000Y-70350000D01*
X99500000Y-79350000D02*
X111500000Y-79350000D01*
X97500000Y-66450000D02*
X97500000Y-77350000D01*
X103000000Y-64450000D02*
X108000000Y-64450000D01*
X108000000Y-68350000D02*
G75*
G03*
X110000000Y-70350000I1999999J-1D01*
G01*
X101000000Y-66450000D02*
G75*
G03*
X103000000Y-64450000I1J1999999D01*
G01*
X97500000Y-77350000D02*
G75*
G03*
X99500000Y-79350000I1999999J-1D01*
G01*
X111500000Y-79350000D02*
G75*
G03*
X113500000Y-77350000I0J2000000D01*
G01*
X122500000Y-67350000D02*
G75*
G03*
X121500000Y-68350000I-1J-999999D01*
G01*
X124500000Y-68350000D02*
G75*
G03*
X123500000Y-67350000I-999999J1D01*
G01*
X123500000Y-73350000D02*
G75*
G03*
X124500000Y-72350000I1J999999D01*
G01*
X123500000Y-73350000D02*
X121500000Y-73350000D01*
X123500000Y-67350000D02*
X122500000Y-67350000D01*
X121500000Y-73350000D02*
X121500000Y-68350000D01*
X124500000Y-68350000D02*
X124500000Y-72350000D01*
X89500000Y-66444000D02*
X89500000Y-71444000D01*
X87500000Y-66444000D02*
X89500000Y-66444000D01*
X86500000Y-71444000D02*
X86500000Y-67444000D01*
X87500000Y-72444000D02*
X88500000Y-72444000D01*
X88500000Y-72444000D02*
G75*
G03*
X89500000Y-71444000I1J999999D01*
G01*
X86500000Y-71444000D02*
G75*
G03*
X87500000Y-72444000I999999J-1D01*
G01*
X87500000Y-66444000D02*
G75*
G03*
X86500000Y-67444000I0J-1000000D01*
G01*
X110970000Y-66350000D02*
X117370000Y-66350000D01*
X117370000Y-69350000D01*
X110970000Y-69350000D01*
X110970000Y-66350000D01*
D11*
X122690476Y-58740000D02*
X122833333Y-58787619D01*
X122833333Y-58787619D02*
X123071428Y-58787619D01*
X123071428Y-58787619D02*
X123166666Y-58740000D01*
X123166666Y-58740000D02*
X123214285Y-58692380D01*
X123214285Y-58692380D02*
X123261904Y-58597142D01*
X123261904Y-58597142D02*
X123261904Y-58501904D01*
X123261904Y-58501904D02*
X123214285Y-58406666D01*
X123214285Y-58406666D02*
X123166666Y-58359047D01*
X123166666Y-58359047D02*
X123071428Y-58311428D01*
X123071428Y-58311428D02*
X122880952Y-58263809D01*
X122880952Y-58263809D02*
X122785714Y-58216190D01*
X122785714Y-58216190D02*
X122738095Y-58168571D01*
X122738095Y-58168571D02*
X122690476Y-58073333D01*
X122690476Y-58073333D02*
X122690476Y-57978095D01*
X122690476Y-57978095D02*
X122738095Y-57882857D01*
X122738095Y-57882857D02*
X122785714Y-57835238D01*
X122785714Y-57835238D02*
X122880952Y-57787619D01*
X122880952Y-57787619D02*
X123119047Y-57787619D01*
X123119047Y-57787619D02*
X123261904Y-57835238D01*
X123547619Y-58120952D02*
X123928571Y-58120952D01*
X123690476Y-57787619D02*
X123690476Y-58644761D01*
X123690476Y-58644761D02*
X123738095Y-58740000D01*
X123738095Y-58740000D02*
X123833333Y-58787619D01*
X123833333Y-58787619D02*
X123928571Y-58787619D01*
X124261905Y-58787619D02*
X124261905Y-58120952D01*
X124261905Y-57787619D02*
X124214286Y-57835238D01*
X124214286Y-57835238D02*
X124261905Y-57882857D01*
X124261905Y-57882857D02*
X124309524Y-57835238D01*
X124309524Y-57835238D02*
X124261905Y-57787619D01*
X124261905Y-57787619D02*
X124261905Y-57882857D01*
X124595238Y-58120952D02*
X124976190Y-58120952D01*
X124738095Y-58787619D02*
X124738095Y-57930476D01*
X124738095Y-57930476D02*
X124785714Y-57835238D01*
X124785714Y-57835238D02*
X124880952Y-57787619D01*
X124880952Y-57787619D02*
X124976190Y-57787619D01*
X125166667Y-58120952D02*
X125547619Y-58120952D01*
X125309524Y-58787619D02*
X125309524Y-57930476D01*
X125309524Y-57930476D02*
X125357143Y-57835238D01*
X125357143Y-57835238D02*
X125452381Y-57787619D01*
X125452381Y-57787619D02*
X125547619Y-57787619D01*
X126261905Y-58740000D02*
X126166667Y-58787619D01*
X126166667Y-58787619D02*
X125976191Y-58787619D01*
X125976191Y-58787619D02*
X125880953Y-58740000D01*
X125880953Y-58740000D02*
X125833334Y-58644761D01*
X125833334Y-58644761D02*
X125833334Y-58263809D01*
X125833334Y-58263809D02*
X125880953Y-58168571D01*
X125880953Y-58168571D02*
X125976191Y-58120952D01*
X125976191Y-58120952D02*
X126166667Y-58120952D01*
X126166667Y-58120952D02*
X126261905Y-58168571D01*
X126261905Y-58168571D02*
X126309524Y-58263809D01*
X126309524Y-58263809D02*
X126309524Y-58359047D01*
X126309524Y-58359047D02*
X125833334Y-58454285D01*
X126738096Y-58120952D02*
X126738096Y-58787619D01*
X126738096Y-58216190D02*
X126785715Y-58168571D01*
X126785715Y-58168571D02*
X126880953Y-58120952D01*
X126880953Y-58120952D02*
X127023810Y-58120952D01*
X127023810Y-58120952D02*
X127119048Y-58168571D01*
X127119048Y-58168571D02*
X127166667Y-58263809D01*
X127166667Y-58263809D02*
X127166667Y-58787619D01*
X128023810Y-58740000D02*
X127928572Y-58787619D01*
X127928572Y-58787619D02*
X127738096Y-58787619D01*
X127738096Y-58787619D02*
X127642858Y-58740000D01*
X127642858Y-58740000D02*
X127595239Y-58644761D01*
X127595239Y-58644761D02*
X127595239Y-58263809D01*
X127595239Y-58263809D02*
X127642858Y-58168571D01*
X127642858Y-58168571D02*
X127738096Y-58120952D01*
X127738096Y-58120952D02*
X127928572Y-58120952D01*
X127928572Y-58120952D02*
X128023810Y-58168571D01*
X128023810Y-58168571D02*
X128071429Y-58263809D01*
X128071429Y-58263809D02*
X128071429Y-58359047D01*
X128071429Y-58359047D02*
X127595239Y-58454285D01*
X128500001Y-58787619D02*
X128500001Y-58120952D01*
X128500001Y-58311428D02*
X128547620Y-58216190D01*
X128547620Y-58216190D02*
X128595239Y-58168571D01*
X128595239Y-58168571D02*
X128690477Y-58120952D01*
X128690477Y-58120952D02*
X128785715Y-58120952D01*
X129119049Y-58692380D02*
X129166668Y-58740000D01*
X129166668Y-58740000D02*
X129119049Y-58787619D01*
X129119049Y-58787619D02*
X129071430Y-58740000D01*
X129071430Y-58740000D02*
X129119049Y-58692380D01*
X129119049Y-58692380D02*
X129119049Y-58787619D01*
X129119049Y-58168571D02*
X129166668Y-58216190D01*
X129166668Y-58216190D02*
X129119049Y-58263809D01*
X129119049Y-58263809D02*
X129071430Y-58216190D01*
X129071430Y-58216190D02*
X129119049Y-58168571D01*
X129119049Y-58168571D02*
X129119049Y-58263809D01*
X130309525Y-58740000D02*
X130452382Y-58787619D01*
X130452382Y-58787619D02*
X130690477Y-58787619D01*
X130690477Y-58787619D02*
X130785715Y-58740000D01*
X130785715Y-58740000D02*
X130833334Y-58692380D01*
X130833334Y-58692380D02*
X130880953Y-58597142D01*
X130880953Y-58597142D02*
X130880953Y-58501904D01*
X130880953Y-58501904D02*
X130833334Y-58406666D01*
X130833334Y-58406666D02*
X130785715Y-58359047D01*
X130785715Y-58359047D02*
X130690477Y-58311428D01*
X130690477Y-58311428D02*
X130500001Y-58263809D01*
X130500001Y-58263809D02*
X130404763Y-58216190D01*
X130404763Y-58216190D02*
X130357144Y-58168571D01*
X130357144Y-58168571D02*
X130309525Y-58073333D01*
X130309525Y-58073333D02*
X130309525Y-57978095D01*
X130309525Y-57978095D02*
X130357144Y-57882857D01*
X130357144Y-57882857D02*
X130404763Y-57835238D01*
X130404763Y-57835238D02*
X130500001Y-57787619D01*
X130500001Y-57787619D02*
X130738096Y-57787619D01*
X130738096Y-57787619D02*
X130880953Y-57835238D01*
X131166668Y-58120952D02*
X131547620Y-58120952D01*
X131309525Y-57787619D02*
X131309525Y-58644761D01*
X131309525Y-58644761D02*
X131357144Y-58740000D01*
X131357144Y-58740000D02*
X131452382Y-58787619D01*
X131452382Y-58787619D02*
X131547620Y-58787619D01*
X132309525Y-58787619D02*
X132309525Y-58263809D01*
X132309525Y-58263809D02*
X132261906Y-58168571D01*
X132261906Y-58168571D02*
X132166668Y-58120952D01*
X132166668Y-58120952D02*
X131976192Y-58120952D01*
X131976192Y-58120952D02*
X131880954Y-58168571D01*
X132309525Y-58740000D02*
X132214287Y-58787619D01*
X132214287Y-58787619D02*
X131976192Y-58787619D01*
X131976192Y-58787619D02*
X131880954Y-58740000D01*
X131880954Y-58740000D02*
X131833335Y-58644761D01*
X131833335Y-58644761D02*
X131833335Y-58549523D01*
X131833335Y-58549523D02*
X131880954Y-58454285D01*
X131880954Y-58454285D02*
X131976192Y-58406666D01*
X131976192Y-58406666D02*
X132214287Y-58406666D01*
X132214287Y-58406666D02*
X132309525Y-58359047D01*
X132785716Y-58787619D02*
X132785716Y-58120952D01*
X132785716Y-57787619D02*
X132738097Y-57835238D01*
X132738097Y-57835238D02*
X132785716Y-57882857D01*
X132785716Y-57882857D02*
X132833335Y-57835238D01*
X132833335Y-57835238D02*
X132785716Y-57787619D01*
X132785716Y-57787619D02*
X132785716Y-57882857D01*
X133261906Y-58120952D02*
X133261906Y-58787619D01*
X133261906Y-58216190D02*
X133309525Y-58168571D01*
X133309525Y-58168571D02*
X133404763Y-58120952D01*
X133404763Y-58120952D02*
X133547620Y-58120952D01*
X133547620Y-58120952D02*
X133642858Y-58168571D01*
X133642858Y-58168571D02*
X133690477Y-58263809D01*
X133690477Y-58263809D02*
X133690477Y-58787619D01*
X134309525Y-58787619D02*
X134214287Y-58740000D01*
X134214287Y-58740000D02*
X134166668Y-58644761D01*
X134166668Y-58644761D02*
X134166668Y-57787619D01*
X135071430Y-58740000D02*
X134976192Y-58787619D01*
X134976192Y-58787619D02*
X134785716Y-58787619D01*
X134785716Y-58787619D02*
X134690478Y-58740000D01*
X134690478Y-58740000D02*
X134642859Y-58644761D01*
X134642859Y-58644761D02*
X134642859Y-58263809D01*
X134642859Y-58263809D02*
X134690478Y-58168571D01*
X134690478Y-58168571D02*
X134785716Y-58120952D01*
X134785716Y-58120952D02*
X134976192Y-58120952D01*
X134976192Y-58120952D02*
X135071430Y-58168571D01*
X135071430Y-58168571D02*
X135119049Y-58263809D01*
X135119049Y-58263809D02*
X135119049Y-58359047D01*
X135119049Y-58359047D02*
X134642859Y-58454285D01*
X135500002Y-58740000D02*
X135595240Y-58787619D01*
X135595240Y-58787619D02*
X135785716Y-58787619D01*
X135785716Y-58787619D02*
X135880954Y-58740000D01*
X135880954Y-58740000D02*
X135928573Y-58644761D01*
X135928573Y-58644761D02*
X135928573Y-58597142D01*
X135928573Y-58597142D02*
X135880954Y-58501904D01*
X135880954Y-58501904D02*
X135785716Y-58454285D01*
X135785716Y-58454285D02*
X135642859Y-58454285D01*
X135642859Y-58454285D02*
X135547621Y-58406666D01*
X135547621Y-58406666D02*
X135500002Y-58311428D01*
X135500002Y-58311428D02*
X135500002Y-58263809D01*
X135500002Y-58263809D02*
X135547621Y-58168571D01*
X135547621Y-58168571D02*
X135642859Y-58120952D01*
X135642859Y-58120952D02*
X135785716Y-58120952D01*
X135785716Y-58120952D02*
X135880954Y-58168571D01*
X136309526Y-58740000D02*
X136404764Y-58787619D01*
X136404764Y-58787619D02*
X136595240Y-58787619D01*
X136595240Y-58787619D02*
X136690478Y-58740000D01*
X136690478Y-58740000D02*
X136738097Y-58644761D01*
X136738097Y-58644761D02*
X136738097Y-58597142D01*
X136738097Y-58597142D02*
X136690478Y-58501904D01*
X136690478Y-58501904D02*
X136595240Y-58454285D01*
X136595240Y-58454285D02*
X136452383Y-58454285D01*
X136452383Y-58454285D02*
X136357145Y-58406666D01*
X136357145Y-58406666D02*
X136309526Y-58311428D01*
X136309526Y-58311428D02*
X136309526Y-58263809D01*
X136309526Y-58263809D02*
X136357145Y-58168571D01*
X136357145Y-58168571D02*
X136452383Y-58120952D01*
X136452383Y-58120952D02*
X136595240Y-58120952D01*
X136595240Y-58120952D02*
X136690478Y-58168571D01*
X137880955Y-58740000D02*
X137976193Y-58787619D01*
X137976193Y-58787619D02*
X138166669Y-58787619D01*
X138166669Y-58787619D02*
X138261907Y-58740000D01*
X138261907Y-58740000D02*
X138309526Y-58644761D01*
X138309526Y-58644761D02*
X138309526Y-58597142D01*
X138309526Y-58597142D02*
X138261907Y-58501904D01*
X138261907Y-58501904D02*
X138166669Y-58454285D01*
X138166669Y-58454285D02*
X138023812Y-58454285D01*
X138023812Y-58454285D02*
X137928574Y-58406666D01*
X137928574Y-58406666D02*
X137880955Y-58311428D01*
X137880955Y-58311428D02*
X137880955Y-58263809D01*
X137880955Y-58263809D02*
X137928574Y-58168571D01*
X137928574Y-58168571D02*
X138023812Y-58120952D01*
X138023812Y-58120952D02*
X138166669Y-58120952D01*
X138166669Y-58120952D02*
X138261907Y-58168571D01*
X138595241Y-58120952D02*
X138976193Y-58120952D01*
X138738098Y-57787619D02*
X138738098Y-58644761D01*
X138738098Y-58644761D02*
X138785717Y-58740000D01*
X138785717Y-58740000D02*
X138880955Y-58787619D01*
X138880955Y-58787619D02*
X138976193Y-58787619D01*
X139690479Y-58740000D02*
X139595241Y-58787619D01*
X139595241Y-58787619D02*
X139404765Y-58787619D01*
X139404765Y-58787619D02*
X139309527Y-58740000D01*
X139309527Y-58740000D02*
X139261908Y-58644761D01*
X139261908Y-58644761D02*
X139261908Y-58263809D01*
X139261908Y-58263809D02*
X139309527Y-58168571D01*
X139309527Y-58168571D02*
X139404765Y-58120952D01*
X139404765Y-58120952D02*
X139595241Y-58120952D01*
X139595241Y-58120952D02*
X139690479Y-58168571D01*
X139690479Y-58168571D02*
X139738098Y-58263809D01*
X139738098Y-58263809D02*
X139738098Y-58359047D01*
X139738098Y-58359047D02*
X139261908Y-58454285D01*
X140547622Y-58740000D02*
X140452384Y-58787619D01*
X140452384Y-58787619D02*
X140261908Y-58787619D01*
X140261908Y-58787619D02*
X140166670Y-58740000D01*
X140166670Y-58740000D02*
X140119051Y-58644761D01*
X140119051Y-58644761D02*
X140119051Y-58263809D01*
X140119051Y-58263809D02*
X140166670Y-58168571D01*
X140166670Y-58168571D02*
X140261908Y-58120952D01*
X140261908Y-58120952D02*
X140452384Y-58120952D01*
X140452384Y-58120952D02*
X140547622Y-58168571D01*
X140547622Y-58168571D02*
X140595241Y-58263809D01*
X140595241Y-58263809D02*
X140595241Y-58359047D01*
X140595241Y-58359047D02*
X140119051Y-58454285D01*
X141166670Y-58787619D02*
X141071432Y-58740000D01*
X141071432Y-58740000D02*
X141023813Y-58644761D01*
X141023813Y-58644761D02*
X141023813Y-57787619D01*
X122690476Y-60360000D02*
X122833333Y-60407619D01*
X122833333Y-60407619D02*
X123071428Y-60407619D01*
X123071428Y-60407619D02*
X123166666Y-60360000D01*
X123166666Y-60360000D02*
X123214285Y-60312380D01*
X123214285Y-60312380D02*
X123261904Y-60217142D01*
X123261904Y-60217142D02*
X123261904Y-60121904D01*
X123261904Y-60121904D02*
X123214285Y-60026666D01*
X123214285Y-60026666D02*
X123166666Y-59979047D01*
X123166666Y-59979047D02*
X123071428Y-59931428D01*
X123071428Y-59931428D02*
X122880952Y-59883809D01*
X122880952Y-59883809D02*
X122785714Y-59836190D01*
X122785714Y-59836190D02*
X122738095Y-59788571D01*
X122738095Y-59788571D02*
X122690476Y-59693333D01*
X122690476Y-59693333D02*
X122690476Y-59598095D01*
X122690476Y-59598095D02*
X122738095Y-59502857D01*
X122738095Y-59502857D02*
X122785714Y-59455238D01*
X122785714Y-59455238D02*
X122880952Y-59407619D01*
X122880952Y-59407619D02*
X123119047Y-59407619D01*
X123119047Y-59407619D02*
X123261904Y-59455238D01*
X123547619Y-59740952D02*
X123928571Y-59740952D01*
X123690476Y-59407619D02*
X123690476Y-60264761D01*
X123690476Y-60264761D02*
X123738095Y-60360000D01*
X123738095Y-60360000D02*
X123833333Y-60407619D01*
X123833333Y-60407619D02*
X123928571Y-60407619D01*
X124261905Y-60407619D02*
X124261905Y-59740952D01*
X124261905Y-59407619D02*
X124214286Y-59455238D01*
X124214286Y-59455238D02*
X124261905Y-59502857D01*
X124261905Y-59502857D02*
X124309524Y-59455238D01*
X124309524Y-59455238D02*
X124261905Y-59407619D01*
X124261905Y-59407619D02*
X124261905Y-59502857D01*
X124595238Y-59740952D02*
X124976190Y-59740952D01*
X124738095Y-60407619D02*
X124738095Y-59550476D01*
X124738095Y-59550476D02*
X124785714Y-59455238D01*
X124785714Y-59455238D02*
X124880952Y-59407619D01*
X124880952Y-59407619D02*
X124976190Y-59407619D01*
X125166667Y-59740952D02*
X125547619Y-59740952D01*
X125309524Y-60407619D02*
X125309524Y-59550476D01*
X125309524Y-59550476D02*
X125357143Y-59455238D01*
X125357143Y-59455238D02*
X125452381Y-59407619D01*
X125452381Y-59407619D02*
X125547619Y-59407619D01*
X126261905Y-60360000D02*
X126166667Y-60407619D01*
X126166667Y-60407619D02*
X125976191Y-60407619D01*
X125976191Y-60407619D02*
X125880953Y-60360000D01*
X125880953Y-60360000D02*
X125833334Y-60264761D01*
X125833334Y-60264761D02*
X125833334Y-59883809D01*
X125833334Y-59883809D02*
X125880953Y-59788571D01*
X125880953Y-59788571D02*
X125976191Y-59740952D01*
X125976191Y-59740952D02*
X126166667Y-59740952D01*
X126166667Y-59740952D02*
X126261905Y-59788571D01*
X126261905Y-59788571D02*
X126309524Y-59883809D01*
X126309524Y-59883809D02*
X126309524Y-59979047D01*
X126309524Y-59979047D02*
X125833334Y-60074285D01*
X126738096Y-59740952D02*
X126738096Y-60407619D01*
X126738096Y-59836190D02*
X126785715Y-59788571D01*
X126785715Y-59788571D02*
X126880953Y-59740952D01*
X126880953Y-59740952D02*
X127023810Y-59740952D01*
X127023810Y-59740952D02*
X127119048Y-59788571D01*
X127119048Y-59788571D02*
X127166667Y-59883809D01*
X127166667Y-59883809D02*
X127166667Y-60407619D01*
X128023810Y-60360000D02*
X127928572Y-60407619D01*
X127928572Y-60407619D02*
X127738096Y-60407619D01*
X127738096Y-60407619D02*
X127642858Y-60360000D01*
X127642858Y-60360000D02*
X127595239Y-60264761D01*
X127595239Y-60264761D02*
X127595239Y-59883809D01*
X127595239Y-59883809D02*
X127642858Y-59788571D01*
X127642858Y-59788571D02*
X127738096Y-59740952D01*
X127738096Y-59740952D02*
X127928572Y-59740952D01*
X127928572Y-59740952D02*
X128023810Y-59788571D01*
X128023810Y-59788571D02*
X128071429Y-59883809D01*
X128071429Y-59883809D02*
X128071429Y-59979047D01*
X128071429Y-59979047D02*
X127595239Y-60074285D01*
X128500001Y-60407619D02*
X128500001Y-59740952D01*
X128500001Y-59931428D02*
X128547620Y-59836190D01*
X128547620Y-59836190D02*
X128595239Y-59788571D01*
X128595239Y-59788571D02*
X128690477Y-59740952D01*
X128690477Y-59740952D02*
X128785715Y-59740952D01*
X129738097Y-59740952D02*
X130119049Y-59740952D01*
X129880954Y-59407619D02*
X129880954Y-60264761D01*
X129880954Y-60264761D02*
X129928573Y-60360000D01*
X129928573Y-60360000D02*
X130023811Y-60407619D01*
X130023811Y-60407619D02*
X130119049Y-60407619D01*
X130452383Y-60407619D02*
X130452383Y-59407619D01*
X130880954Y-60407619D02*
X130880954Y-59883809D01*
X130880954Y-59883809D02*
X130833335Y-59788571D01*
X130833335Y-59788571D02*
X130738097Y-59740952D01*
X130738097Y-59740952D02*
X130595240Y-59740952D01*
X130595240Y-59740952D02*
X130500002Y-59788571D01*
X130500002Y-59788571D02*
X130452383Y-59836190D01*
X131357145Y-60407619D02*
X131357145Y-59740952D01*
X131357145Y-59407619D02*
X131309526Y-59455238D01*
X131309526Y-59455238D02*
X131357145Y-59502857D01*
X131357145Y-59502857D02*
X131404764Y-59455238D01*
X131404764Y-59455238D02*
X131357145Y-59407619D01*
X131357145Y-59407619D02*
X131357145Y-59502857D01*
X132261906Y-60360000D02*
X132166668Y-60407619D01*
X132166668Y-60407619D02*
X131976192Y-60407619D01*
X131976192Y-60407619D02*
X131880954Y-60360000D01*
X131880954Y-60360000D02*
X131833335Y-60312380D01*
X131833335Y-60312380D02*
X131785716Y-60217142D01*
X131785716Y-60217142D02*
X131785716Y-59931428D01*
X131785716Y-59931428D02*
X131833335Y-59836190D01*
X131833335Y-59836190D02*
X131880954Y-59788571D01*
X131880954Y-59788571D02*
X131976192Y-59740952D01*
X131976192Y-59740952D02*
X132166668Y-59740952D01*
X132166668Y-59740952D02*
X132261906Y-59788571D01*
X132690478Y-60407619D02*
X132690478Y-59407619D01*
X132785716Y-60026666D02*
X133071430Y-60407619D01*
X133071430Y-59740952D02*
X132690478Y-60121904D01*
X133500002Y-59740952D02*
X133500002Y-60407619D01*
X133500002Y-59836190D02*
X133547621Y-59788571D01*
X133547621Y-59788571D02*
X133642859Y-59740952D01*
X133642859Y-59740952D02*
X133785716Y-59740952D01*
X133785716Y-59740952D02*
X133880954Y-59788571D01*
X133880954Y-59788571D02*
X133928573Y-59883809D01*
X133928573Y-59883809D02*
X133928573Y-60407619D01*
X134785716Y-60360000D02*
X134690478Y-60407619D01*
X134690478Y-60407619D02*
X134500002Y-60407619D01*
X134500002Y-60407619D02*
X134404764Y-60360000D01*
X134404764Y-60360000D02*
X134357145Y-60264761D01*
X134357145Y-60264761D02*
X134357145Y-59883809D01*
X134357145Y-59883809D02*
X134404764Y-59788571D01*
X134404764Y-59788571D02*
X134500002Y-59740952D01*
X134500002Y-59740952D02*
X134690478Y-59740952D01*
X134690478Y-59740952D02*
X134785716Y-59788571D01*
X134785716Y-59788571D02*
X134833335Y-59883809D01*
X134833335Y-59883809D02*
X134833335Y-59979047D01*
X134833335Y-59979047D02*
X134357145Y-60074285D01*
X135214288Y-60360000D02*
X135309526Y-60407619D01*
X135309526Y-60407619D02*
X135500002Y-60407619D01*
X135500002Y-60407619D02*
X135595240Y-60360000D01*
X135595240Y-60360000D02*
X135642859Y-60264761D01*
X135642859Y-60264761D02*
X135642859Y-60217142D01*
X135642859Y-60217142D02*
X135595240Y-60121904D01*
X135595240Y-60121904D02*
X135500002Y-60074285D01*
X135500002Y-60074285D02*
X135357145Y-60074285D01*
X135357145Y-60074285D02*
X135261907Y-60026666D01*
X135261907Y-60026666D02*
X135214288Y-59931428D01*
X135214288Y-59931428D02*
X135214288Y-59883809D01*
X135214288Y-59883809D02*
X135261907Y-59788571D01*
X135261907Y-59788571D02*
X135357145Y-59740952D01*
X135357145Y-59740952D02*
X135500002Y-59740952D01*
X135500002Y-59740952D02*
X135595240Y-59788571D01*
X136023812Y-60360000D02*
X136119050Y-60407619D01*
X136119050Y-60407619D02*
X136309526Y-60407619D01*
X136309526Y-60407619D02*
X136404764Y-60360000D01*
X136404764Y-60360000D02*
X136452383Y-60264761D01*
X136452383Y-60264761D02*
X136452383Y-60217142D01*
X136452383Y-60217142D02*
X136404764Y-60121904D01*
X136404764Y-60121904D02*
X136309526Y-60074285D01*
X136309526Y-60074285D02*
X136166669Y-60074285D01*
X136166669Y-60074285D02*
X136071431Y-60026666D01*
X136071431Y-60026666D02*
X136023812Y-59931428D01*
X136023812Y-59931428D02*
X136023812Y-59883809D01*
X136023812Y-59883809D02*
X136071431Y-59788571D01*
X136071431Y-59788571D02*
X136166669Y-59740952D01*
X136166669Y-59740952D02*
X136309526Y-59740952D01*
X136309526Y-59740952D02*
X136404764Y-59788571D01*
X136880955Y-60312380D02*
X136928574Y-60360000D01*
X136928574Y-60360000D02*
X136880955Y-60407619D01*
X136880955Y-60407619D02*
X136833336Y-60360000D01*
X136833336Y-60360000D02*
X136880955Y-60312380D01*
X136880955Y-60312380D02*
X136880955Y-60407619D01*
X136880955Y-59788571D02*
X136928574Y-59836190D01*
X136928574Y-59836190D02*
X136880955Y-59883809D01*
X136880955Y-59883809D02*
X136833336Y-59836190D01*
X136833336Y-59836190D02*
X136880955Y-59788571D01*
X136880955Y-59788571D02*
X136880955Y-59883809D01*
X138309526Y-59407619D02*
X138404764Y-59407619D01*
X138404764Y-59407619D02*
X138500002Y-59455238D01*
X138500002Y-59455238D02*
X138547621Y-59502857D01*
X138547621Y-59502857D02*
X138595240Y-59598095D01*
X138595240Y-59598095D02*
X138642859Y-59788571D01*
X138642859Y-59788571D02*
X138642859Y-60026666D01*
X138642859Y-60026666D02*
X138595240Y-60217142D01*
X138595240Y-60217142D02*
X138547621Y-60312380D01*
X138547621Y-60312380D02*
X138500002Y-60360000D01*
X138500002Y-60360000D02*
X138404764Y-60407619D01*
X138404764Y-60407619D02*
X138309526Y-60407619D01*
X138309526Y-60407619D02*
X138214288Y-60360000D01*
X138214288Y-60360000D02*
X138166669Y-60312380D01*
X138166669Y-60312380D02*
X138119050Y-60217142D01*
X138119050Y-60217142D02*
X138071431Y-60026666D01*
X138071431Y-60026666D02*
X138071431Y-59788571D01*
X138071431Y-59788571D02*
X138119050Y-59598095D01*
X138119050Y-59598095D02*
X138166669Y-59502857D01*
X138166669Y-59502857D02*
X138214288Y-59455238D01*
X138214288Y-59455238D02*
X138309526Y-59407619D01*
X139071431Y-60312380D02*
X139119050Y-60360000D01*
X139119050Y-60360000D02*
X139071431Y-60407619D01*
X139071431Y-60407619D02*
X139023812Y-60360000D01*
X139023812Y-60360000D02*
X139071431Y-60312380D01*
X139071431Y-60312380D02*
X139071431Y-60407619D01*
X139500002Y-59502857D02*
X139547621Y-59455238D01*
X139547621Y-59455238D02*
X139642859Y-59407619D01*
X139642859Y-59407619D02*
X139880954Y-59407619D01*
X139880954Y-59407619D02*
X139976192Y-59455238D01*
X139976192Y-59455238D02*
X140023811Y-59502857D01*
X140023811Y-59502857D02*
X140071430Y-59598095D01*
X140071430Y-59598095D02*
X140071430Y-59693333D01*
X140071430Y-59693333D02*
X140023811Y-59836190D01*
X140023811Y-59836190D02*
X139452383Y-60407619D01*
X139452383Y-60407619D02*
X140071430Y-60407619D01*
X140500002Y-60407619D02*
X140500002Y-59740952D01*
X140500002Y-59836190D02*
X140547621Y-59788571D01*
X140547621Y-59788571D02*
X140642859Y-59740952D01*
X140642859Y-59740952D02*
X140785716Y-59740952D01*
X140785716Y-59740952D02*
X140880954Y-59788571D01*
X140880954Y-59788571D02*
X140928573Y-59883809D01*
X140928573Y-59883809D02*
X140928573Y-60407619D01*
X140928573Y-59883809D02*
X140976192Y-59788571D01*
X140976192Y-59788571D02*
X141071430Y-59740952D01*
X141071430Y-59740952D02*
X141214287Y-59740952D01*
X141214287Y-59740952D02*
X141309526Y-59788571D01*
X141309526Y-59788571D02*
X141357145Y-59883809D01*
X141357145Y-59883809D02*
X141357145Y-60407619D01*
X141833335Y-60407619D02*
X141833335Y-59740952D01*
X141833335Y-59836190D02*
X141880954Y-59788571D01*
X141880954Y-59788571D02*
X141976192Y-59740952D01*
X141976192Y-59740952D02*
X142119049Y-59740952D01*
X142119049Y-59740952D02*
X142214287Y-59788571D01*
X142214287Y-59788571D02*
X142261906Y-59883809D01*
X142261906Y-59883809D02*
X142261906Y-60407619D01*
X142261906Y-59883809D02*
X142309525Y-59788571D01*
X142309525Y-59788571D02*
X142404763Y-59740952D01*
X142404763Y-59740952D02*
X142547620Y-59740952D01*
X142547620Y-59740952D02*
X142642859Y-59788571D01*
X142642859Y-59788571D02*
X142690478Y-59883809D01*
X142690478Y-59883809D02*
X142690478Y-60407619D01*
X122690476Y-61980000D02*
X122833333Y-62027619D01*
X122833333Y-62027619D02*
X123071428Y-62027619D01*
X123071428Y-62027619D02*
X123166666Y-61980000D01*
X123166666Y-61980000D02*
X123214285Y-61932380D01*
X123214285Y-61932380D02*
X123261904Y-61837142D01*
X123261904Y-61837142D02*
X123261904Y-61741904D01*
X123261904Y-61741904D02*
X123214285Y-61646666D01*
X123214285Y-61646666D02*
X123166666Y-61599047D01*
X123166666Y-61599047D02*
X123071428Y-61551428D01*
X123071428Y-61551428D02*
X122880952Y-61503809D01*
X122880952Y-61503809D02*
X122785714Y-61456190D01*
X122785714Y-61456190D02*
X122738095Y-61408571D01*
X122738095Y-61408571D02*
X122690476Y-61313333D01*
X122690476Y-61313333D02*
X122690476Y-61218095D01*
X122690476Y-61218095D02*
X122738095Y-61122857D01*
X122738095Y-61122857D02*
X122785714Y-61075238D01*
X122785714Y-61075238D02*
X122880952Y-61027619D01*
X122880952Y-61027619D02*
X123119047Y-61027619D01*
X123119047Y-61027619D02*
X123261904Y-61075238D01*
X123547619Y-61360952D02*
X123928571Y-61360952D01*
X123690476Y-61027619D02*
X123690476Y-61884761D01*
X123690476Y-61884761D02*
X123738095Y-61980000D01*
X123738095Y-61980000D02*
X123833333Y-62027619D01*
X123833333Y-62027619D02*
X123928571Y-62027619D01*
X124261905Y-62027619D02*
X124261905Y-61360952D01*
X124261905Y-61027619D02*
X124214286Y-61075238D01*
X124214286Y-61075238D02*
X124261905Y-61122857D01*
X124261905Y-61122857D02*
X124309524Y-61075238D01*
X124309524Y-61075238D02*
X124261905Y-61027619D01*
X124261905Y-61027619D02*
X124261905Y-61122857D01*
X124595238Y-61360952D02*
X124976190Y-61360952D01*
X124738095Y-62027619D02*
X124738095Y-61170476D01*
X124738095Y-61170476D02*
X124785714Y-61075238D01*
X124785714Y-61075238D02*
X124880952Y-61027619D01*
X124880952Y-61027619D02*
X124976190Y-61027619D01*
X125166667Y-61360952D02*
X125547619Y-61360952D01*
X125309524Y-62027619D02*
X125309524Y-61170476D01*
X125309524Y-61170476D02*
X125357143Y-61075238D01*
X125357143Y-61075238D02*
X125452381Y-61027619D01*
X125452381Y-61027619D02*
X125547619Y-61027619D01*
X126261905Y-61980000D02*
X126166667Y-62027619D01*
X126166667Y-62027619D02*
X125976191Y-62027619D01*
X125976191Y-62027619D02*
X125880953Y-61980000D01*
X125880953Y-61980000D02*
X125833334Y-61884761D01*
X125833334Y-61884761D02*
X125833334Y-61503809D01*
X125833334Y-61503809D02*
X125880953Y-61408571D01*
X125880953Y-61408571D02*
X125976191Y-61360952D01*
X125976191Y-61360952D02*
X126166667Y-61360952D01*
X126166667Y-61360952D02*
X126261905Y-61408571D01*
X126261905Y-61408571D02*
X126309524Y-61503809D01*
X126309524Y-61503809D02*
X126309524Y-61599047D01*
X126309524Y-61599047D02*
X125833334Y-61694285D01*
X126738096Y-61360952D02*
X126738096Y-62027619D01*
X126738096Y-61456190D02*
X126785715Y-61408571D01*
X126785715Y-61408571D02*
X126880953Y-61360952D01*
X126880953Y-61360952D02*
X127023810Y-61360952D01*
X127023810Y-61360952D02*
X127119048Y-61408571D01*
X127119048Y-61408571D02*
X127166667Y-61503809D01*
X127166667Y-61503809D02*
X127166667Y-62027619D01*
X128023810Y-61980000D02*
X127928572Y-62027619D01*
X127928572Y-62027619D02*
X127738096Y-62027619D01*
X127738096Y-62027619D02*
X127642858Y-61980000D01*
X127642858Y-61980000D02*
X127595239Y-61884761D01*
X127595239Y-61884761D02*
X127595239Y-61503809D01*
X127595239Y-61503809D02*
X127642858Y-61408571D01*
X127642858Y-61408571D02*
X127738096Y-61360952D01*
X127738096Y-61360952D02*
X127928572Y-61360952D01*
X127928572Y-61360952D02*
X128023810Y-61408571D01*
X128023810Y-61408571D02*
X128071429Y-61503809D01*
X128071429Y-61503809D02*
X128071429Y-61599047D01*
X128071429Y-61599047D02*
X127595239Y-61694285D01*
X128500001Y-62027619D02*
X128500001Y-61360952D01*
X128500001Y-61551428D02*
X128547620Y-61456190D01*
X128547620Y-61456190D02*
X128595239Y-61408571D01*
X128595239Y-61408571D02*
X128690477Y-61360952D01*
X128690477Y-61360952D02*
X128785715Y-61360952D01*
X130023811Y-62027619D02*
X129928573Y-61980000D01*
X129928573Y-61980000D02*
X129880954Y-61884761D01*
X129880954Y-61884761D02*
X129880954Y-61027619D01*
X130547621Y-62027619D02*
X130452383Y-61980000D01*
X130452383Y-61980000D02*
X130404764Y-61932380D01*
X130404764Y-61932380D02*
X130357145Y-61837142D01*
X130357145Y-61837142D02*
X130357145Y-61551428D01*
X130357145Y-61551428D02*
X130404764Y-61456190D01*
X130404764Y-61456190D02*
X130452383Y-61408571D01*
X130452383Y-61408571D02*
X130547621Y-61360952D01*
X130547621Y-61360952D02*
X130690478Y-61360952D01*
X130690478Y-61360952D02*
X130785716Y-61408571D01*
X130785716Y-61408571D02*
X130833335Y-61456190D01*
X130833335Y-61456190D02*
X130880954Y-61551428D01*
X130880954Y-61551428D02*
X130880954Y-61837142D01*
X130880954Y-61837142D02*
X130833335Y-61932380D01*
X130833335Y-61932380D02*
X130785716Y-61980000D01*
X130785716Y-61980000D02*
X130690478Y-62027619D01*
X130690478Y-62027619D02*
X130547621Y-62027619D01*
X131738097Y-61980000D02*
X131642859Y-62027619D01*
X131642859Y-62027619D02*
X131452383Y-62027619D01*
X131452383Y-62027619D02*
X131357145Y-61980000D01*
X131357145Y-61980000D02*
X131309526Y-61932380D01*
X131309526Y-61932380D02*
X131261907Y-61837142D01*
X131261907Y-61837142D02*
X131261907Y-61551428D01*
X131261907Y-61551428D02*
X131309526Y-61456190D01*
X131309526Y-61456190D02*
X131357145Y-61408571D01*
X131357145Y-61408571D02*
X131452383Y-61360952D01*
X131452383Y-61360952D02*
X131642859Y-61360952D01*
X131642859Y-61360952D02*
X131738097Y-61408571D01*
X132595240Y-62027619D02*
X132595240Y-61503809D01*
X132595240Y-61503809D02*
X132547621Y-61408571D01*
X132547621Y-61408571D02*
X132452383Y-61360952D01*
X132452383Y-61360952D02*
X132261907Y-61360952D01*
X132261907Y-61360952D02*
X132166669Y-61408571D01*
X132595240Y-61980000D02*
X132500002Y-62027619D01*
X132500002Y-62027619D02*
X132261907Y-62027619D01*
X132261907Y-62027619D02*
X132166669Y-61980000D01*
X132166669Y-61980000D02*
X132119050Y-61884761D01*
X132119050Y-61884761D02*
X132119050Y-61789523D01*
X132119050Y-61789523D02*
X132166669Y-61694285D01*
X132166669Y-61694285D02*
X132261907Y-61646666D01*
X132261907Y-61646666D02*
X132500002Y-61646666D01*
X132500002Y-61646666D02*
X132595240Y-61599047D01*
X132928574Y-61360952D02*
X133309526Y-61360952D01*
X133071431Y-61027619D02*
X133071431Y-61884761D01*
X133071431Y-61884761D02*
X133119050Y-61980000D01*
X133119050Y-61980000D02*
X133214288Y-62027619D01*
X133214288Y-62027619D02*
X133309526Y-62027619D01*
X133642860Y-62027619D02*
X133642860Y-61360952D01*
X133642860Y-61027619D02*
X133595241Y-61075238D01*
X133595241Y-61075238D02*
X133642860Y-61122857D01*
X133642860Y-61122857D02*
X133690479Y-61075238D01*
X133690479Y-61075238D02*
X133642860Y-61027619D01*
X133642860Y-61027619D02*
X133642860Y-61122857D01*
X134261907Y-62027619D02*
X134166669Y-61980000D01*
X134166669Y-61980000D02*
X134119050Y-61932380D01*
X134119050Y-61932380D02*
X134071431Y-61837142D01*
X134071431Y-61837142D02*
X134071431Y-61551428D01*
X134071431Y-61551428D02*
X134119050Y-61456190D01*
X134119050Y-61456190D02*
X134166669Y-61408571D01*
X134166669Y-61408571D02*
X134261907Y-61360952D01*
X134261907Y-61360952D02*
X134404764Y-61360952D01*
X134404764Y-61360952D02*
X134500002Y-61408571D01*
X134500002Y-61408571D02*
X134547621Y-61456190D01*
X134547621Y-61456190D02*
X134595240Y-61551428D01*
X134595240Y-61551428D02*
X134595240Y-61837142D01*
X134595240Y-61837142D02*
X134547621Y-61932380D01*
X134547621Y-61932380D02*
X134500002Y-61980000D01*
X134500002Y-61980000D02*
X134404764Y-62027619D01*
X134404764Y-62027619D02*
X134261907Y-62027619D01*
X135023812Y-61360952D02*
X135023812Y-62027619D01*
X135023812Y-61456190D02*
X135071431Y-61408571D01*
X135071431Y-61408571D02*
X135166669Y-61360952D01*
X135166669Y-61360952D02*
X135309526Y-61360952D01*
X135309526Y-61360952D02*
X135404764Y-61408571D01*
X135404764Y-61408571D02*
X135452383Y-61503809D01*
X135452383Y-61503809D02*
X135452383Y-62027619D01*
X135928574Y-61932380D02*
X135976193Y-61980000D01*
X135976193Y-61980000D02*
X135928574Y-62027619D01*
X135928574Y-62027619D02*
X135880955Y-61980000D01*
X135880955Y-61980000D02*
X135928574Y-61932380D01*
X135928574Y-61932380D02*
X135928574Y-62027619D01*
X135928574Y-61408571D02*
X135976193Y-61456190D01*
X135976193Y-61456190D02*
X135928574Y-61503809D01*
X135928574Y-61503809D02*
X135880955Y-61456190D01*
X135880955Y-61456190D02*
X135928574Y-61408571D01*
X135928574Y-61408571D02*
X135928574Y-61503809D01*
X137500002Y-61503809D02*
X137642859Y-61551428D01*
X137642859Y-61551428D02*
X137690478Y-61599047D01*
X137690478Y-61599047D02*
X137738097Y-61694285D01*
X137738097Y-61694285D02*
X137738097Y-61837142D01*
X137738097Y-61837142D02*
X137690478Y-61932380D01*
X137690478Y-61932380D02*
X137642859Y-61980000D01*
X137642859Y-61980000D02*
X137547621Y-62027619D01*
X137547621Y-62027619D02*
X137166669Y-62027619D01*
X137166669Y-62027619D02*
X137166669Y-61027619D01*
X137166669Y-61027619D02*
X137500002Y-61027619D01*
X137500002Y-61027619D02*
X137595240Y-61075238D01*
X137595240Y-61075238D02*
X137642859Y-61122857D01*
X137642859Y-61122857D02*
X137690478Y-61218095D01*
X137690478Y-61218095D02*
X137690478Y-61313333D01*
X137690478Y-61313333D02*
X137642859Y-61408571D01*
X137642859Y-61408571D02*
X137595240Y-61456190D01*
X137595240Y-61456190D02*
X137500002Y-61503809D01*
X137500002Y-61503809D02*
X137166669Y-61503809D01*
X138309526Y-62027619D02*
X138214288Y-61980000D01*
X138214288Y-61980000D02*
X138166669Y-61932380D01*
X138166669Y-61932380D02*
X138119050Y-61837142D01*
X138119050Y-61837142D02*
X138119050Y-61551428D01*
X138119050Y-61551428D02*
X138166669Y-61456190D01*
X138166669Y-61456190D02*
X138214288Y-61408571D01*
X138214288Y-61408571D02*
X138309526Y-61360952D01*
X138309526Y-61360952D02*
X138452383Y-61360952D01*
X138452383Y-61360952D02*
X138547621Y-61408571D01*
X138547621Y-61408571D02*
X138595240Y-61456190D01*
X138595240Y-61456190D02*
X138642859Y-61551428D01*
X138642859Y-61551428D02*
X138642859Y-61837142D01*
X138642859Y-61837142D02*
X138595240Y-61932380D01*
X138595240Y-61932380D02*
X138547621Y-61980000D01*
X138547621Y-61980000D02*
X138452383Y-62027619D01*
X138452383Y-62027619D02*
X138309526Y-62027619D01*
X138928574Y-61360952D02*
X139309526Y-61360952D01*
X139071431Y-61027619D02*
X139071431Y-61884761D01*
X139071431Y-61884761D02*
X139119050Y-61980000D01*
X139119050Y-61980000D02*
X139214288Y-62027619D01*
X139214288Y-62027619D02*
X139309526Y-62027619D01*
X139500003Y-61360952D02*
X139880955Y-61360952D01*
X139642860Y-61027619D02*
X139642860Y-61884761D01*
X139642860Y-61884761D02*
X139690479Y-61980000D01*
X139690479Y-61980000D02*
X139785717Y-62027619D01*
X139785717Y-62027619D02*
X139880955Y-62027619D01*
X140357146Y-62027619D02*
X140261908Y-61980000D01*
X140261908Y-61980000D02*
X140214289Y-61932380D01*
X140214289Y-61932380D02*
X140166670Y-61837142D01*
X140166670Y-61837142D02*
X140166670Y-61551428D01*
X140166670Y-61551428D02*
X140214289Y-61456190D01*
X140214289Y-61456190D02*
X140261908Y-61408571D01*
X140261908Y-61408571D02*
X140357146Y-61360952D01*
X140357146Y-61360952D02*
X140500003Y-61360952D01*
X140500003Y-61360952D02*
X140595241Y-61408571D01*
X140595241Y-61408571D02*
X140642860Y-61456190D01*
X140642860Y-61456190D02*
X140690479Y-61551428D01*
X140690479Y-61551428D02*
X140690479Y-61837142D01*
X140690479Y-61837142D02*
X140642860Y-61932380D01*
X140642860Y-61932380D02*
X140595241Y-61980000D01*
X140595241Y-61980000D02*
X140500003Y-62027619D01*
X140500003Y-62027619D02*
X140357146Y-62027619D01*
X141119051Y-62027619D02*
X141119051Y-61360952D01*
X141119051Y-61456190D02*
X141166670Y-61408571D01*
X141166670Y-61408571D02*
X141261908Y-61360952D01*
X141261908Y-61360952D02*
X141404765Y-61360952D01*
X141404765Y-61360952D02*
X141500003Y-61408571D01*
X141500003Y-61408571D02*
X141547622Y-61503809D01*
X141547622Y-61503809D02*
X141547622Y-62027619D01*
X141547622Y-61503809D02*
X141595241Y-61408571D01*
X141595241Y-61408571D02*
X141690479Y-61360952D01*
X141690479Y-61360952D02*
X141833336Y-61360952D01*
X141833336Y-61360952D02*
X141928575Y-61408571D01*
X141928575Y-61408571D02*
X141976194Y-61503809D01*
X141976194Y-61503809D02*
X141976194Y-62027619D01*
X143166670Y-61980000D02*
X143261908Y-62027619D01*
X143261908Y-62027619D02*
X143452384Y-62027619D01*
X143452384Y-62027619D02*
X143547622Y-61980000D01*
X143547622Y-61980000D02*
X143595241Y-61884761D01*
X143595241Y-61884761D02*
X143595241Y-61837142D01*
X143595241Y-61837142D02*
X143547622Y-61741904D01*
X143547622Y-61741904D02*
X143452384Y-61694285D01*
X143452384Y-61694285D02*
X143309527Y-61694285D01*
X143309527Y-61694285D02*
X143214289Y-61646666D01*
X143214289Y-61646666D02*
X143166670Y-61551428D01*
X143166670Y-61551428D02*
X143166670Y-61503809D01*
X143166670Y-61503809D02*
X143214289Y-61408571D01*
X143214289Y-61408571D02*
X143309527Y-61360952D01*
X143309527Y-61360952D02*
X143452384Y-61360952D01*
X143452384Y-61360952D02*
X143547622Y-61408571D01*
X144023813Y-62027619D02*
X144023813Y-61360952D01*
X144023813Y-61027619D02*
X143976194Y-61075238D01*
X143976194Y-61075238D02*
X144023813Y-61122857D01*
X144023813Y-61122857D02*
X144071432Y-61075238D01*
X144071432Y-61075238D02*
X144023813Y-61027619D01*
X144023813Y-61027619D02*
X144023813Y-61122857D01*
X144928574Y-62027619D02*
X144928574Y-61027619D01*
X144928574Y-61980000D02*
X144833336Y-62027619D01*
X144833336Y-62027619D02*
X144642860Y-62027619D01*
X144642860Y-62027619D02*
X144547622Y-61980000D01*
X144547622Y-61980000D02*
X144500003Y-61932380D01*
X144500003Y-61932380D02*
X144452384Y-61837142D01*
X144452384Y-61837142D02*
X144452384Y-61551428D01*
X144452384Y-61551428D02*
X144500003Y-61456190D01*
X144500003Y-61456190D02*
X144547622Y-61408571D01*
X144547622Y-61408571D02*
X144642860Y-61360952D01*
X144642860Y-61360952D02*
X144833336Y-61360952D01*
X144833336Y-61360952D02*
X144928574Y-61408571D01*
X145785717Y-61980000D02*
X145690479Y-62027619D01*
X145690479Y-62027619D02*
X145500003Y-62027619D01*
X145500003Y-62027619D02*
X145404765Y-61980000D01*
X145404765Y-61980000D02*
X145357146Y-61884761D01*
X145357146Y-61884761D02*
X145357146Y-61503809D01*
X145357146Y-61503809D02*
X145404765Y-61408571D01*
X145404765Y-61408571D02*
X145500003Y-61360952D01*
X145500003Y-61360952D02*
X145690479Y-61360952D01*
X145690479Y-61360952D02*
X145785717Y-61408571D01*
X145785717Y-61408571D02*
X145833336Y-61503809D01*
X145833336Y-61503809D02*
X145833336Y-61599047D01*
X145833336Y-61599047D02*
X145357146Y-61694285D01*
D10*
X116750000Y-54850000D02*
G75*
G03*
X94250000Y-54850000I-11250000J-19593750D01*
G01*
X97250000Y-55150000D02*
G75*
G03*
X97250000Y-55150000I-750000J0D01*
G01*
X116750000Y-56350000D02*
X116750000Y-54850000D01*
X115250000Y-55150000D02*
G75*
G03*
X115250000Y-55150000I-750000J0D01*
G01*
X94250000Y-54850000D02*
X94250000Y-56350000D01*
X94250000Y-56350000D02*
X116750000Y-56350000D01*
M02*
