M48
; DRILL file {KiCad 7.0.1} date Wed Jan  3 23:29:54 2024
; FORMAT={-:-/ absolute / inch / decimal}
; #@! TF.CreationDate,2024-01-03T23:29:54+00:00
; #@! TF.GenerationSoftware,Kicad,Pcbnew,7.0.1
; #@! TF.FileFunction,Plated,1,2,PTH
FMAT,2
INCH
; #@! TA.AperFunction,Plated,PTH,ViaDrill
T1C0.0079
%
G90
G05
T1
X3.8819Y-2.7402
X3.9016Y-2.6614
X3.9094Y-2.811
X3.9213Y-2.9449
X3.9409Y-2.7559
X3.9921Y-2.8701
X3.9921Y-2.7559
X4.0354Y-2.8346
X4.0433Y-2.6535
X4.0433Y-2.6772
X4.0433Y-2.7008
X4.0591Y-2.7638
X4.0909Y-2.7642
X4.1224Y-2.9252
X4.126Y-2.5945
X4.126Y-2.6181
X4.126Y-2.6417
X4.1339Y-2.811
X4.1457Y-2.9961
X4.1535Y-3.0787
X4.1772Y-2.7323
X4.1772Y-2.7559
X4.1791Y-2.1201
X4.2598Y-2.815
X4.2598Y-2.8386
X4.2795Y-2.8268
X4.2795Y-2.8504
X4.313Y-3.0472
X4.3661Y-3.0472
X4.3819Y-2.1535
X4.4134Y-2.1654
X4.4193Y-2.6713
X4.4455Y-2.6755
X4.4685Y-2.6063
X4.4843Y-2.6772
X4.5079Y-2.6772
X4.5236Y-2.6063
X4.5315Y-2.6772
X4.5689Y-2.6713
X4.813Y-2.7559
X4.8425Y-2.7559
X4.872Y-2.7559
T0
M30
