%TF.GenerationSoftware,KiCad,Pcbnew,7.0.1*%
%TF.CreationDate,2024-01-03T23:29:52+00:00*%
%TF.ProjectId,watch_lower,77617463-685f-46c6-9f77-65722e6b6963,rev?*%
%TF.SameCoordinates,Original*%
%TF.FileFunction,Soldermask,Top*%
%TF.FilePolarity,Negative*%
%FSLAX46Y46*%
G04 Gerber Fmt 4.6, Leading zero omitted, Abs format (unit mm)*
G04 Created by KiCad (PCBNEW 7.0.1) date 2024-01-03 23:29:52*
%MOMM*%
%LPD*%
G01*
G04 APERTURE LIST*
G04 Aperture macros list*
%AMRoundRect*
0 Rectangle with rounded corners*
0 $1 Rounding radius*
0 $2 $3 $4 $5 $6 $7 $8 $9 X,Y pos of 4 corners*
0 Add a 4 corners polygon primitive as box body*
4,1,4,$2,$3,$4,$5,$6,$7,$8,$9,$2,$3,0*
0 Add four circle primitives for the rounded corners*
1,1,$1+$1,$2,$3*
1,1,$1+$1,$4,$5*
1,1,$1+$1,$6,$7*
1,1,$1+$1,$8,$9*
0 Add four rect primitives between the rounded corners*
20,1,$1+$1,$2,$3,$4,$5,0*
20,1,$1+$1,$4,$5,$6,$7,0*
20,1,$1+$1,$6,$7,$8,$9,0*
20,1,$1+$1,$8,$9,$2,$3,0*%
G04 Aperture macros list end*
%TA.AperFunction,Profile*%
%ADD10C,0.100000*%
%TD*%
%ADD11C,1.700000*%
%ADD12RoundRect,0.100000X-0.250000X-0.300000X0.250000X-0.300000X0.250000X0.300000X-0.250000X0.300000X0*%
%ADD13RoundRect,0.240000X0.140000X0.170000X-0.140000X0.170000X-0.140000X-0.170000X0.140000X-0.170000X0*%
%ADD14C,0.450000*%
%ADD15RoundRect,0.240000X-0.170000X0.140000X-0.170000X-0.140000X0.170000X-0.140000X0.170000X0.140000X0*%
%ADD16RoundRect,0.235000X0.135000X0.185000X-0.135000X0.185000X-0.135000X-0.185000X0.135000X-0.185000X0*%
%ADD17RoundRect,0.100000X-0.100000X-0.200000X0.100000X-0.200000X0.100000X0.200000X-0.100000X0.200000X0*%
%ADD18RoundRect,0.100000X-0.140000X-0.200000X0.140000X-0.200000X0.140000X0.200000X-0.140000X0.200000X0*%
%ADD19RoundRect,0.100000X0.175000X-0.375000X0.175000X0.375000X-0.175000X0.375000X-0.175000X-0.375000X0*%
G04 APERTURE END LIST*
D10*
%TO.C,U101*%
X86500006Y-67443756D02*
X86500006Y-71443756D01*
X87500006Y-72443756D02*
X88500006Y-72443756D01*
X89500000Y-70443750D02*
X89500000Y-71443750D01*
X90500000Y-66443750D02*
X87500006Y-66443756D01*
X90500000Y-69443750D02*
X95500000Y-69443750D01*
X94250000Y-54850000D02*
X94250000Y-56350000D01*
X94250000Y-56350000D02*
X103000000Y-56350000D01*
X97500000Y-71443750D02*
X97500000Y-77350000D01*
X99500000Y-79350000D02*
X111500000Y-79350000D01*
X101000000Y-66443750D02*
X90500000Y-66443750D01*
X103000000Y-56350000D02*
X103000000Y-60350000D01*
X103000000Y-60350000D02*
X103000000Y-64443750D01*
X108000000Y-60350000D02*
X108000000Y-56350000D01*
X108000000Y-68350000D02*
X108000000Y-60350000D01*
X109500000Y-56350000D02*
X108000000Y-56350000D01*
X109500000Y-56350000D02*
X109500000Y-58006854D01*
X109500000Y-58006854D02*
X109500000Y-59663709D01*
X109500000Y-59663709D02*
X112170000Y-62333709D01*
X110970000Y-66350000D02*
X110970000Y-69350000D01*
X110970000Y-69350000D02*
X117370000Y-69350000D01*
X112170000Y-62333709D02*
X112170000Y-65350000D01*
X112170000Y-65350000D02*
X112170000Y-66350000D01*
X112170000Y-66350000D02*
X110970000Y-66350000D01*
X113500000Y-56350000D02*
X116750000Y-56350000D01*
X113500000Y-58006854D02*
X113500000Y-56350000D01*
X113500000Y-77350000D02*
X113500000Y-75350000D01*
X115500000Y-73350000D02*
X120500000Y-73350000D01*
X116170000Y-60676854D02*
X113500000Y-58006854D01*
X116170000Y-62333709D02*
X116170000Y-60676854D01*
X116170000Y-65350000D02*
X116170000Y-62333709D01*
X116170000Y-66350000D02*
X116170000Y-65350000D01*
X116750000Y-56350000D02*
X116750000Y-54850000D01*
X117370000Y-66350000D02*
X116170000Y-66350000D01*
X117370000Y-69350000D02*
X117370000Y-66350000D01*
X120500000Y-70350000D02*
X110000000Y-70350000D01*
X120500000Y-73350000D02*
X123500000Y-73350000D01*
X121500000Y-69350000D02*
X121500000Y-68350000D01*
X123500000Y-67350000D02*
X122500000Y-67350000D01*
X124500000Y-68350000D02*
X124500000Y-72350000D01*
X87500006Y-66443756D02*
G75*
G03*
X86500006Y-67443756I-8J-999992D01*
G01*
X86500006Y-71443756D02*
G75*
G03*
X87500006Y-72443756I1000074J74D01*
G01*
X90500000Y-69443750D02*
G75*
G03*
X89500000Y-70443750I-8J-999992D01*
G01*
X88500006Y-72443756D02*
G75*
G03*
X89500006Y-71443756I-74J1000074D01*
G01*
X116750000Y-54850000D02*
G75*
G03*
X94250000Y-54850000I-11250000J-19593750D01*
G01*
X97500047Y-71443723D02*
G75*
G03*
X95500047Y-69443723I-1999992J8D01*
G01*
X97500000Y-77350000D02*
G75*
G03*
X99500000Y-79350000I2000033J33D01*
G01*
X101000027Y-66443797D02*
G75*
G03*
X103000027Y-64443797I-70J2000070D01*
G01*
X107999997Y-68349923D02*
G75*
G03*
X109999997Y-70349923I2000093J93D01*
G01*
X111500000Y-79350000D02*
G75*
G03*
X113500000Y-77350000I-90J2000090D01*
G01*
X115500077Y-73349997D02*
G75*
G03*
X113500077Y-75349997I-37J-1999963D01*
G01*
X122500000Y-67350000D02*
G75*
G03*
X121500000Y-68350000I0J-1000000D01*
G01*
X120500000Y-70350000D02*
G75*
G03*
X121500000Y-69350000I0J1000000D01*
G01*
X124500000Y-68350000D02*
G75*
G03*
X123500000Y-67350000I-1000000J0D01*
G01*
X123500000Y-73350000D02*
G75*
G03*
X124500000Y-72350000I-100J1000100D01*
G01*
X97250000Y-55150000D02*
G75*
G03*
X97250000Y-55150000I-750000J0D01*
G01*
X115250000Y-55150000D02*
G75*
G03*
X115250000Y-55150000I-750000J0D01*
G01*
%TD*%
D11*
%TO.C,TP4*%
X107500000Y-54350000D03*
%TD*%
%TO.C,TP5*%
X88000000Y-71000000D03*
%TD*%
D12*
%TO.C,D1*%
X105500000Y-53850000D03*
X105500000Y-54850000D03*
%TD*%
D11*
%TO.C,TP2*%
X123000000Y-68800000D03*
%TD*%
D13*
%TO.C,C5*%
X100580000Y-72400000D03*
X99620000Y-72400000D03*
%TD*%
D14*
%TO.C,U2*%
X100600000Y-70500000D03*
X100100000Y-70500000D03*
X99600000Y-70500000D03*
X100600000Y-70000000D03*
X100100000Y-70000000D03*
X99600000Y-70000000D03*
X100600000Y-69500000D03*
X100100000Y-69500000D03*
X99600000Y-69500000D03*
%TD*%
D15*
%TO.C,C2*%
X109550000Y-75720000D03*
X109550000Y-76680000D03*
%TD*%
D13*
%TO.C,C3*%
X105580000Y-72200000D03*
X104620000Y-72200000D03*
%TD*%
D16*
%TO.C,R1*%
X100610000Y-74000000D03*
X99590000Y-74000000D03*
%TD*%
D17*
%TO.C,J1*%
X112595000Y-67150000D03*
X112595000Y-68550000D03*
X112945000Y-67150000D03*
X112945000Y-68550000D03*
X113295000Y-67150000D03*
X113295000Y-68550000D03*
X113645000Y-67150000D03*
X113645000Y-68550000D03*
X113995000Y-67150000D03*
X113995000Y-68550000D03*
X114345000Y-67150000D03*
X114345000Y-68550000D03*
X114695000Y-67150000D03*
X114695000Y-68550000D03*
X115045000Y-67150000D03*
X115045000Y-68550000D03*
X115395000Y-67150000D03*
X115395000Y-68550000D03*
X115745000Y-67150000D03*
X115745000Y-68550000D03*
D18*
X111895000Y-67150000D03*
X111895000Y-68550000D03*
X116445000Y-68550000D03*
X116445000Y-67150000D03*
%TD*%
D11*
%TO.C,TP1*%
X123000000Y-71900000D03*
%TD*%
D13*
%TO.C,C6*%
X100980000Y-67600000D03*
X100020000Y-67600000D03*
%TD*%
D19*
%TO.C,U1*%
X103110000Y-77400000D03*
X103910000Y-77400000D03*
X104710000Y-77400000D03*
X105510000Y-77400000D03*
X106310000Y-77400000D03*
X107110000Y-77400000D03*
X107910000Y-77400000D03*
X107910000Y-75000000D03*
X107110000Y-75000000D03*
X106310000Y-75000000D03*
X105510000Y-75000000D03*
X104710000Y-75000000D03*
X103910000Y-75000000D03*
X103110000Y-75000000D03*
%TD*%
D11*
%TO.C,TP3*%
X103500000Y-54350000D03*
%TD*%
D15*
%TO.C,C1*%
X110900000Y-75720000D03*
X110900000Y-76680000D03*
%TD*%
D13*
%TO.C,C4*%
X105580000Y-73550000D03*
X104620000Y-73550000D03*
%TD*%
D11*
%TO.C,TP6*%
X88000000Y-67900000D03*
%TD*%
G36*
X107652543Y-76973869D02*
G01*
X107652358Y-76975745D01*
X107644496Y-76987511D01*
X107637000Y-77025199D01*
X107637000Y-77774801D01*
X107644496Y-77812488D01*
X107652357Y-77824253D01*
X107652542Y-77826129D01*
X107651084Y-77827326D01*
X107649280Y-77826778D01*
X107612725Y-77790223D01*
X107407275Y-77790223D01*
X107370721Y-77826776D01*
X107368917Y-77827324D01*
X107367459Y-77826127D01*
X107367644Y-77824251D01*
X107375503Y-77812488D01*
X107383000Y-77774801D01*
X107383000Y-77025199D01*
X107375503Y-76987511D01*
X107367642Y-76975746D01*
X107367457Y-76973870D01*
X107368915Y-76972673D01*
X107370719Y-76973221D01*
X107407275Y-77009777D01*
X107612725Y-77009777D01*
X107649281Y-76973220D01*
X107651085Y-76972672D01*
X107652543Y-76973869D01*
G37*
G36*
X106852543Y-76973869D02*
G01*
X106852358Y-76975745D01*
X106844496Y-76987511D01*
X106837000Y-77025199D01*
X106837000Y-77774801D01*
X106844496Y-77812488D01*
X106852357Y-77824253D01*
X106852542Y-77826129D01*
X106851084Y-77827326D01*
X106849280Y-77826778D01*
X106812725Y-77790223D01*
X106607275Y-77790223D01*
X106570721Y-77826776D01*
X106568917Y-77827324D01*
X106567459Y-77826127D01*
X106567644Y-77824251D01*
X106575503Y-77812488D01*
X106583000Y-77774801D01*
X106583000Y-77025199D01*
X106575503Y-76987511D01*
X106567642Y-76975746D01*
X106567457Y-76973870D01*
X106568915Y-76972673D01*
X106570719Y-76973221D01*
X106607275Y-77009777D01*
X106812725Y-77009777D01*
X106849281Y-76973220D01*
X106851085Y-76972672D01*
X106852543Y-76973869D01*
G37*
G36*
X106052543Y-76973869D02*
G01*
X106052358Y-76975745D01*
X106044496Y-76987511D01*
X106037000Y-77025199D01*
X106037000Y-77774801D01*
X106044496Y-77812488D01*
X106052357Y-77824253D01*
X106052542Y-77826129D01*
X106051084Y-77827326D01*
X106049280Y-77826778D01*
X106012725Y-77790223D01*
X105807275Y-77790223D01*
X105770721Y-77826776D01*
X105768917Y-77827324D01*
X105767459Y-77826127D01*
X105767644Y-77824251D01*
X105775503Y-77812488D01*
X105783000Y-77774801D01*
X105783000Y-77025199D01*
X105775503Y-76987511D01*
X105767642Y-76975746D01*
X105767457Y-76973870D01*
X105768915Y-76972673D01*
X105770719Y-76973221D01*
X105807275Y-77009777D01*
X106012725Y-77009777D01*
X106049281Y-76973220D01*
X106051085Y-76972672D01*
X106052543Y-76973869D01*
G37*
G36*
X105252543Y-76973869D02*
G01*
X105252358Y-76975745D01*
X105244496Y-76987511D01*
X105237000Y-77025199D01*
X105237000Y-77774801D01*
X105244496Y-77812488D01*
X105252357Y-77824253D01*
X105252542Y-77826129D01*
X105251084Y-77827326D01*
X105249280Y-77826778D01*
X105212725Y-77790223D01*
X105007275Y-77790223D01*
X104970721Y-77826776D01*
X104968917Y-77827324D01*
X104967459Y-77826127D01*
X104967644Y-77824251D01*
X104975503Y-77812488D01*
X104983000Y-77774801D01*
X104983000Y-77025199D01*
X104975503Y-76987511D01*
X104967642Y-76975746D01*
X104967457Y-76973870D01*
X104968915Y-76972673D01*
X104970719Y-76973221D01*
X105007275Y-77009777D01*
X105212725Y-77009777D01*
X105249281Y-76973220D01*
X105251085Y-76972672D01*
X105252543Y-76973869D01*
G37*
G36*
X104452543Y-76973869D02*
G01*
X104452358Y-76975745D01*
X104444496Y-76987511D01*
X104437000Y-77025199D01*
X104437000Y-77774801D01*
X104444496Y-77812488D01*
X104452357Y-77824253D01*
X104452542Y-77826129D01*
X104451084Y-77827326D01*
X104449280Y-77826778D01*
X104412725Y-77790223D01*
X104207275Y-77790223D01*
X104170721Y-77826776D01*
X104168917Y-77827324D01*
X104167459Y-77826127D01*
X104167644Y-77824251D01*
X104175503Y-77812488D01*
X104183000Y-77774801D01*
X104183000Y-77025199D01*
X104175503Y-76987511D01*
X104167642Y-76975746D01*
X104167457Y-76973870D01*
X104168915Y-76972673D01*
X104170719Y-76973221D01*
X104207275Y-77009777D01*
X104412725Y-77009777D01*
X104449281Y-76973220D01*
X104451085Y-76972672D01*
X104452543Y-76973869D01*
G37*
G36*
X103652543Y-76973869D02*
G01*
X103652358Y-76975745D01*
X103644496Y-76987511D01*
X103637000Y-77025199D01*
X103637000Y-77774801D01*
X103644496Y-77812488D01*
X103652357Y-77824253D01*
X103652542Y-77826129D01*
X103651084Y-77827326D01*
X103649280Y-77826778D01*
X103612725Y-77790223D01*
X103407275Y-77790223D01*
X103370721Y-77826776D01*
X103368917Y-77827324D01*
X103367459Y-77826127D01*
X103367644Y-77824251D01*
X103375503Y-77812488D01*
X103383000Y-77774801D01*
X103383000Y-77025199D01*
X103375503Y-76987511D01*
X103367642Y-76975746D01*
X103367457Y-76973870D01*
X103368915Y-76972673D01*
X103370719Y-76973221D01*
X103407275Y-77009777D01*
X103612725Y-77009777D01*
X103649281Y-76973220D01*
X103651085Y-76972672D01*
X103652543Y-76973869D01*
G37*
G36*
X110567764Y-76032291D02*
G01*
X110638935Y-76079846D01*
X110730199Y-76098000D01*
X111069801Y-76098000D01*
X111161064Y-76079846D01*
X111232233Y-76032293D01*
X111234021Y-76032074D01*
X111235260Y-76033381D01*
X111234945Y-76035155D01*
X111173335Y-76117458D01*
X111173335Y-76282542D01*
X111234946Y-76364844D01*
X111235261Y-76366618D01*
X111234022Y-76367925D01*
X111232234Y-76367706D01*
X111161064Y-76320153D01*
X111069801Y-76302000D01*
X110730199Y-76302000D01*
X110638935Y-76320153D01*
X110567763Y-76367708D01*
X110565975Y-76367927D01*
X110564736Y-76366620D01*
X110565051Y-76364846D01*
X110626664Y-76282541D01*
X110626664Y-76117459D01*
X110565052Y-76035153D01*
X110564737Y-76033379D01*
X110565976Y-76032072D01*
X110567764Y-76032291D01*
G37*
G36*
X109217764Y-76032291D02*
G01*
X109288935Y-76079846D01*
X109380199Y-76098000D01*
X109719801Y-76098000D01*
X109811064Y-76079846D01*
X109882233Y-76032293D01*
X109884021Y-76032074D01*
X109885260Y-76033381D01*
X109884945Y-76035155D01*
X109823335Y-76117458D01*
X109823335Y-76282542D01*
X109884946Y-76364844D01*
X109885261Y-76366618D01*
X109884022Y-76367925D01*
X109882234Y-76367706D01*
X109811064Y-76320153D01*
X109719801Y-76302000D01*
X109380199Y-76302000D01*
X109288935Y-76320153D01*
X109217763Y-76367708D01*
X109215975Y-76367927D01*
X109214736Y-76366620D01*
X109215051Y-76364846D01*
X109276664Y-76282541D01*
X109276664Y-76117459D01*
X109215052Y-76035153D01*
X109214737Y-76033379D01*
X109215976Y-76032072D01*
X109217764Y-76032291D01*
G37*
G36*
X107652543Y-74573869D02*
G01*
X107652358Y-74575745D01*
X107644496Y-74587511D01*
X107637000Y-74625199D01*
X107637000Y-75374801D01*
X107644496Y-75412488D01*
X107652357Y-75424253D01*
X107652542Y-75426129D01*
X107651084Y-75427326D01*
X107649280Y-75426778D01*
X107612725Y-75390223D01*
X107407275Y-75390223D01*
X107370721Y-75426776D01*
X107368917Y-75427324D01*
X107367459Y-75426127D01*
X107367644Y-75424251D01*
X107375503Y-75412488D01*
X107383000Y-75374801D01*
X107383000Y-74625199D01*
X107375503Y-74587511D01*
X107367642Y-74575746D01*
X107367457Y-74573870D01*
X107368915Y-74572673D01*
X107370719Y-74573221D01*
X107407275Y-74609777D01*
X107612725Y-74609777D01*
X107649281Y-74573220D01*
X107651085Y-74572672D01*
X107652543Y-74573869D01*
G37*
G36*
X106852543Y-74573869D02*
G01*
X106852358Y-74575745D01*
X106844496Y-74587511D01*
X106837000Y-74625199D01*
X106837000Y-75374801D01*
X106844496Y-75412488D01*
X106852357Y-75424253D01*
X106852542Y-75426129D01*
X106851084Y-75427326D01*
X106849280Y-75426778D01*
X106812725Y-75390223D01*
X106607275Y-75390223D01*
X106570721Y-75426776D01*
X106568917Y-75427324D01*
X106567459Y-75426127D01*
X106567644Y-75424251D01*
X106575503Y-75412488D01*
X106583000Y-75374801D01*
X106583000Y-74625199D01*
X106575503Y-74587511D01*
X106567642Y-74575746D01*
X106567457Y-74573870D01*
X106568915Y-74572673D01*
X106570719Y-74573221D01*
X106607275Y-74609777D01*
X106812725Y-74609777D01*
X106849281Y-74573220D01*
X106851085Y-74572672D01*
X106852543Y-74573869D01*
G37*
G36*
X106052543Y-74573869D02*
G01*
X106052358Y-74575745D01*
X106044496Y-74587511D01*
X106037000Y-74625199D01*
X106037000Y-75374801D01*
X106044496Y-75412488D01*
X106052357Y-75424253D01*
X106052542Y-75426129D01*
X106051084Y-75427326D01*
X106049280Y-75426778D01*
X106012725Y-75390223D01*
X105807275Y-75390223D01*
X105770721Y-75426776D01*
X105768917Y-75427324D01*
X105767459Y-75426127D01*
X105767644Y-75424251D01*
X105775503Y-75412488D01*
X105783000Y-75374801D01*
X105783000Y-74625199D01*
X105775503Y-74587511D01*
X105767642Y-74575746D01*
X105767457Y-74573870D01*
X105768915Y-74572673D01*
X105770719Y-74573221D01*
X105807275Y-74609777D01*
X106012725Y-74609777D01*
X106049281Y-74573220D01*
X106051085Y-74572672D01*
X106052543Y-74573869D01*
G37*
G36*
X105252543Y-74573869D02*
G01*
X105252358Y-74575745D01*
X105244496Y-74587511D01*
X105237000Y-74625199D01*
X105237000Y-75374801D01*
X105244496Y-75412488D01*
X105252357Y-75424253D01*
X105252542Y-75426129D01*
X105251084Y-75427326D01*
X105249280Y-75426778D01*
X105212725Y-75390223D01*
X105007275Y-75390223D01*
X104970721Y-75426776D01*
X104968917Y-75427324D01*
X104967459Y-75426127D01*
X104967644Y-75424251D01*
X104975503Y-75412488D01*
X104983000Y-75374801D01*
X104983000Y-74625199D01*
X104975503Y-74587511D01*
X104967642Y-74575746D01*
X104967457Y-74573870D01*
X104968915Y-74572673D01*
X104970719Y-74573221D01*
X105007275Y-74609777D01*
X105212725Y-74609777D01*
X105249281Y-74573220D01*
X105251085Y-74572672D01*
X105252543Y-74573869D01*
G37*
G36*
X104452543Y-74573869D02*
G01*
X104452358Y-74575745D01*
X104444496Y-74587511D01*
X104437000Y-74625199D01*
X104437000Y-75374801D01*
X104444496Y-75412488D01*
X104452357Y-75424253D01*
X104452542Y-75426129D01*
X104451084Y-75427326D01*
X104449280Y-75426778D01*
X104412725Y-75390223D01*
X104207275Y-75390223D01*
X104170721Y-75426776D01*
X104168917Y-75427324D01*
X104167459Y-75426127D01*
X104167644Y-75424251D01*
X104175503Y-75412488D01*
X104183000Y-75374801D01*
X104183000Y-74625199D01*
X104175503Y-74587511D01*
X104167642Y-74575746D01*
X104167457Y-74573870D01*
X104168915Y-74572673D01*
X104170719Y-74573221D01*
X104207275Y-74609777D01*
X104412725Y-74609777D01*
X104449281Y-74573220D01*
X104451085Y-74572672D01*
X104452543Y-74573869D01*
G37*
G36*
X103652543Y-74573869D02*
G01*
X103652358Y-74575745D01*
X103644496Y-74587511D01*
X103637000Y-74625199D01*
X103637000Y-75374801D01*
X103644496Y-75412488D01*
X103652357Y-75424253D01*
X103652542Y-75426129D01*
X103651084Y-75427326D01*
X103649280Y-75426778D01*
X103612725Y-75390223D01*
X103407275Y-75390223D01*
X103370721Y-75426776D01*
X103368917Y-75427324D01*
X103367459Y-75426127D01*
X103367644Y-75424251D01*
X103375503Y-75412488D01*
X103383000Y-75374801D01*
X103383000Y-74625199D01*
X103375503Y-74587511D01*
X103367642Y-74575746D01*
X103367457Y-74573870D01*
X103368915Y-74572673D01*
X103370719Y-74573221D01*
X103407275Y-74609777D01*
X103612725Y-74609777D01*
X103649281Y-74573220D01*
X103651085Y-74572672D01*
X103652543Y-74573869D01*
G37*
G36*
X100284234Y-73687495D02*
G01*
X100284088Y-73689458D01*
X100259772Y-73725848D01*
X100242000Y-73815199D01*
X100242000Y-74184801D01*
X100259772Y-74274151D01*
X100284073Y-74310520D01*
X100284219Y-74312483D01*
X100282612Y-74313621D01*
X100280809Y-74312830D01*
X100224141Y-74237127D01*
X99975859Y-74237127D01*
X99919195Y-74312821D01*
X99917392Y-74313612D01*
X99915785Y-74312474D01*
X99915931Y-74310511D01*
X99940227Y-74274151D01*
X99958000Y-74184801D01*
X99958000Y-73815199D01*
X99940227Y-73725848D01*
X99915917Y-73689466D01*
X99915771Y-73687503D01*
X99917378Y-73686365D01*
X99919181Y-73687156D01*
X99975861Y-73762872D01*
X100224139Y-73762872D01*
X100280824Y-73687148D01*
X100282627Y-73686357D01*
X100284234Y-73687495D01*
G37*
G36*
X105267928Y-73215973D02*
G01*
X105267709Y-73217761D01*
X105220153Y-73288935D01*
X105202000Y-73380199D01*
X105202000Y-73719801D01*
X105220153Y-73811064D01*
X105267706Y-73882234D01*
X105267925Y-73884022D01*
X105266618Y-73885261D01*
X105264844Y-73884946D01*
X105182542Y-73823335D01*
X105017458Y-73823335D01*
X104935155Y-73884945D01*
X104933381Y-73885260D01*
X104932074Y-73884021D01*
X104932293Y-73882233D01*
X104979846Y-73811064D01*
X104998000Y-73719801D01*
X104998000Y-73380199D01*
X104979846Y-73288935D01*
X104932293Y-73217765D01*
X104932074Y-73215977D01*
X104933381Y-73214738D01*
X104935155Y-73215053D01*
X105017457Y-73276664D01*
X105182539Y-73276664D01*
X105264847Y-73215049D01*
X105266621Y-73214734D01*
X105267928Y-73215973D01*
G37*
G36*
X100267927Y-72065975D02*
G01*
X100267708Y-72067763D01*
X100220153Y-72138935D01*
X100202000Y-72230199D01*
X100202000Y-72569801D01*
X100220153Y-72661064D01*
X100267706Y-72732234D01*
X100267925Y-72734022D01*
X100266618Y-72735261D01*
X100264844Y-72734946D01*
X100182542Y-72673335D01*
X100017458Y-72673335D01*
X99935155Y-72734945D01*
X99933381Y-72735260D01*
X99932074Y-72734021D01*
X99932293Y-72732233D01*
X99979846Y-72661064D01*
X99998000Y-72569801D01*
X99998000Y-72230199D01*
X99979846Y-72138935D01*
X99932291Y-72067764D01*
X99932072Y-72065976D01*
X99933379Y-72064737D01*
X99935153Y-72065052D01*
X100017459Y-72126664D01*
X100182541Y-72126664D01*
X100264846Y-72065051D01*
X100266620Y-72064736D01*
X100267927Y-72065975D01*
G37*
G36*
X105267927Y-71865975D02*
G01*
X105267708Y-71867763D01*
X105220153Y-71938935D01*
X105202000Y-72030199D01*
X105202000Y-72369801D01*
X105220153Y-72461064D01*
X105267706Y-72532234D01*
X105267925Y-72534022D01*
X105266618Y-72535261D01*
X105264844Y-72534946D01*
X105182542Y-72473335D01*
X105017458Y-72473335D01*
X104935155Y-72534945D01*
X104933381Y-72535260D01*
X104932074Y-72534021D01*
X104932293Y-72532233D01*
X104979846Y-72461064D01*
X104998000Y-72369801D01*
X104998000Y-72030199D01*
X104979846Y-71938935D01*
X104932291Y-71867764D01*
X104932072Y-71865976D01*
X104933379Y-71864737D01*
X104935153Y-71865052D01*
X105017459Y-71926664D01*
X105182541Y-71926664D01*
X105264846Y-71865051D01*
X105266620Y-71864736D01*
X105267927Y-71865975D01*
G37*
G36*
X100457241Y-69331197D02*
G01*
X100456356Y-69332979D01*
X100442342Y-69342342D01*
X100394011Y-69414675D01*
X100377039Y-69500000D01*
X100394011Y-69585324D01*
X100442342Y-69657657D01*
X100514675Y-69705988D01*
X100600000Y-69722960D01*
X100685324Y-69705988D01*
X100757657Y-69657657D01*
X100789914Y-69609380D01*
X100791601Y-69608491D01*
X100793266Y-69609420D01*
X100793396Y-69611322D01*
X100754703Y-69696051D01*
X100754703Y-69803949D01*
X100793397Y-69888678D01*
X100793267Y-69890580D01*
X100791602Y-69891509D01*
X100789915Y-69890620D01*
X100757657Y-69842342D01*
X100685324Y-69794011D01*
X100600000Y-69777039D01*
X100514675Y-69794011D01*
X100442342Y-69842342D01*
X100394011Y-69914675D01*
X100377039Y-70000000D01*
X100394011Y-70085324D01*
X100442342Y-70157657D01*
X100514675Y-70205988D01*
X100600000Y-70222960D01*
X100685324Y-70205988D01*
X100757657Y-70157657D01*
X100789914Y-70109380D01*
X100791601Y-70108491D01*
X100793266Y-70109420D01*
X100793396Y-70111322D01*
X100754703Y-70196051D01*
X100754703Y-70303949D01*
X100793397Y-70388678D01*
X100793267Y-70390580D01*
X100791602Y-70391509D01*
X100789915Y-70390620D01*
X100757657Y-70342342D01*
X100685324Y-70294011D01*
X100600000Y-70277039D01*
X100514675Y-70294011D01*
X100442342Y-70342342D01*
X100394011Y-70414675D01*
X100377039Y-70499999D01*
X100394011Y-70585324D01*
X100442342Y-70657657D01*
X100456259Y-70666955D01*
X100457144Y-70668737D01*
X100456054Y-70670401D01*
X100454067Y-70670301D01*
X100422820Y-70650220D01*
X100277180Y-70650220D01*
X100245942Y-70670295D01*
X100243955Y-70670395D01*
X100242865Y-70668731D01*
X100243750Y-70666949D01*
X100257657Y-70657657D01*
X100305988Y-70585324D01*
X100322960Y-70499999D01*
X100305988Y-70414675D01*
X100257657Y-70342342D01*
X100185324Y-70294011D01*
X100100000Y-70277039D01*
X100014675Y-70294011D01*
X99942342Y-70342342D01*
X99894011Y-70414675D01*
X99877039Y-70499999D01*
X99894011Y-70585324D01*
X99942342Y-70657657D01*
X99956259Y-70666955D01*
X99957144Y-70668737D01*
X99956054Y-70670401D01*
X99954067Y-70670301D01*
X99922820Y-70650220D01*
X99777180Y-70650220D01*
X99745942Y-70670295D01*
X99743955Y-70670395D01*
X99742865Y-70668731D01*
X99743750Y-70666949D01*
X99757657Y-70657657D01*
X99805988Y-70585324D01*
X99822960Y-70499999D01*
X99805988Y-70414675D01*
X99757657Y-70342342D01*
X99685324Y-70294011D01*
X99600000Y-70277039D01*
X99514675Y-70294011D01*
X99442342Y-70342342D01*
X99410080Y-70390627D01*
X99408393Y-70391516D01*
X99406728Y-70390587D01*
X99406598Y-70388685D01*
X99445296Y-70303948D01*
X99445296Y-70196052D01*
X99406598Y-70111315D01*
X99406728Y-70109413D01*
X99408393Y-70108484D01*
X99410080Y-70109373D01*
X99442342Y-70157657D01*
X99514675Y-70205988D01*
X99600000Y-70222960D01*
X99685324Y-70205988D01*
X99757657Y-70157657D01*
X99805988Y-70085324D01*
X99822960Y-70000000D01*
X99877039Y-70000000D01*
X99894011Y-70085324D01*
X99942342Y-70157657D01*
X100014675Y-70205988D01*
X100100000Y-70222960D01*
X100185324Y-70205988D01*
X100257657Y-70157657D01*
X100305988Y-70085324D01*
X100322960Y-70000000D01*
X100305988Y-69914675D01*
X100257657Y-69842342D01*
X100185324Y-69794011D01*
X100100000Y-69777039D01*
X100014675Y-69794011D01*
X99942342Y-69842342D01*
X99894011Y-69914675D01*
X99877039Y-70000000D01*
X99822960Y-70000000D01*
X99805988Y-69914675D01*
X99757657Y-69842342D01*
X99685324Y-69794011D01*
X99600000Y-69777039D01*
X99514675Y-69794011D01*
X99442342Y-69842342D01*
X99410080Y-69890627D01*
X99408393Y-69891516D01*
X99406728Y-69890587D01*
X99406598Y-69888685D01*
X99445296Y-69803948D01*
X99445296Y-69696052D01*
X99406598Y-69611315D01*
X99406728Y-69609413D01*
X99408393Y-69608484D01*
X99410080Y-69609373D01*
X99442342Y-69657657D01*
X99514675Y-69705988D01*
X99600000Y-69722960D01*
X99685324Y-69705988D01*
X99757657Y-69657657D01*
X99805988Y-69585324D01*
X99822960Y-69500000D01*
X99805988Y-69414675D01*
X99757657Y-69342342D01*
X99743702Y-69333018D01*
X99742817Y-69331236D01*
X99743907Y-69329572D01*
X99745894Y-69329673D01*
X99777177Y-69349778D01*
X99922816Y-69349779D01*
X99954164Y-69329634D01*
X99956151Y-69329533D01*
X99957241Y-69331197D01*
X99956356Y-69332979D01*
X99942342Y-69342342D01*
X99894011Y-69414675D01*
X99877039Y-69500000D01*
X99894011Y-69585324D01*
X99942342Y-69657657D01*
X100014675Y-69705988D01*
X100100000Y-69722960D01*
X100185324Y-69705988D01*
X100257657Y-69657657D01*
X100305988Y-69585324D01*
X100322960Y-69500000D01*
X100305988Y-69414675D01*
X100257657Y-69342342D01*
X100243702Y-69333018D01*
X100242817Y-69331236D01*
X100243907Y-69329572D01*
X100245894Y-69329673D01*
X100277177Y-69349778D01*
X100422816Y-69349779D01*
X100454164Y-69329634D01*
X100456151Y-69329533D01*
X100457241Y-69331197D01*
G37*
G36*
X116222543Y-68298869D02*
G01*
X116222358Y-68300745D01*
X116214496Y-68312511D01*
X116207000Y-68350199D01*
X116207000Y-68749801D01*
X116214496Y-68787488D01*
X116222357Y-68799253D01*
X116222542Y-68801129D01*
X116221084Y-68802326D01*
X116219280Y-68801778D01*
X116177725Y-68760223D01*
X115972275Y-68760223D01*
X115930721Y-68801776D01*
X115928917Y-68802324D01*
X115927459Y-68801127D01*
X115927644Y-68799251D01*
X115935503Y-68787488D01*
X115943000Y-68749801D01*
X115943000Y-68350199D01*
X115935503Y-68312511D01*
X115927642Y-68300746D01*
X115927457Y-68298870D01*
X115928915Y-68297673D01*
X115930719Y-68298221D01*
X115972275Y-68339777D01*
X116177725Y-68339777D01*
X116219281Y-68298220D01*
X116221085Y-68297672D01*
X116222543Y-68298869D01*
G37*
G36*
X112412543Y-68298869D02*
G01*
X112412358Y-68300745D01*
X112404496Y-68312511D01*
X112397000Y-68350199D01*
X112397000Y-68749801D01*
X112404496Y-68787488D01*
X112412357Y-68799253D01*
X112412542Y-68801129D01*
X112411084Y-68802326D01*
X112409280Y-68801778D01*
X112367725Y-68760223D01*
X112162275Y-68760223D01*
X112120721Y-68801776D01*
X112118917Y-68802324D01*
X112117459Y-68801127D01*
X112117644Y-68799251D01*
X112125503Y-68787488D01*
X112133000Y-68749801D01*
X112133000Y-68350199D01*
X112125503Y-68312511D01*
X112117642Y-68300746D01*
X112117457Y-68298870D01*
X112118915Y-68297673D01*
X112120719Y-68298221D01*
X112162275Y-68339777D01*
X112367725Y-68339777D01*
X112409281Y-68298220D01*
X112411085Y-68297672D01*
X112412543Y-68298869D01*
G37*
G36*
X100667927Y-67265975D02*
G01*
X100667708Y-67267763D01*
X100620153Y-67338935D01*
X100602000Y-67430199D01*
X100602000Y-67769801D01*
X100620153Y-67861064D01*
X100667706Y-67932234D01*
X100667925Y-67934022D01*
X100666618Y-67935261D01*
X100664844Y-67934946D01*
X100582542Y-67873335D01*
X100417458Y-67873335D01*
X100335155Y-67934945D01*
X100333381Y-67935260D01*
X100332074Y-67934021D01*
X100332293Y-67932233D01*
X100379846Y-67861064D01*
X100398000Y-67769801D01*
X100398000Y-67430199D01*
X100379846Y-67338935D01*
X100332291Y-67267764D01*
X100332072Y-67265976D01*
X100333379Y-67264737D01*
X100335153Y-67265052D01*
X100417459Y-67326664D01*
X100582541Y-67326664D01*
X100664846Y-67265051D01*
X100666620Y-67264736D01*
X100667927Y-67265975D01*
G37*
G36*
X116222543Y-66898869D02*
G01*
X116222358Y-66900745D01*
X116214496Y-66912511D01*
X116207000Y-66950199D01*
X116207000Y-67349801D01*
X116214496Y-67387488D01*
X116222357Y-67399253D01*
X116222542Y-67401129D01*
X116221084Y-67402326D01*
X116219280Y-67401778D01*
X116177725Y-67360223D01*
X115972275Y-67360223D01*
X115930721Y-67401776D01*
X115928917Y-67402324D01*
X115927459Y-67401127D01*
X115927644Y-67399251D01*
X115935503Y-67387488D01*
X115943000Y-67349801D01*
X115943000Y-66950199D01*
X115935503Y-66912511D01*
X115927642Y-66900746D01*
X115927457Y-66898870D01*
X115928915Y-66897673D01*
X115930719Y-66898221D01*
X115972275Y-66939777D01*
X116177725Y-66939777D01*
X116219281Y-66898220D01*
X116221085Y-66897672D01*
X116222543Y-66898869D01*
G37*
G36*
X112412543Y-66898869D02*
G01*
X112412358Y-66900745D01*
X112404496Y-66912511D01*
X112397000Y-66950199D01*
X112397000Y-67349801D01*
X112404496Y-67387488D01*
X112412357Y-67399253D01*
X112412542Y-67401129D01*
X112411084Y-67402326D01*
X112409280Y-67401778D01*
X112367725Y-67360223D01*
X112162275Y-67360223D01*
X112120721Y-67401776D01*
X112118917Y-67402324D01*
X112117459Y-67401127D01*
X112117644Y-67399251D01*
X112125503Y-67387488D01*
X112133000Y-67349801D01*
X112133000Y-66950199D01*
X112125503Y-66912511D01*
X112117642Y-66900746D01*
X112117457Y-66898870D01*
X112118915Y-66897673D01*
X112120719Y-66898221D01*
X112162275Y-66939777D01*
X112367725Y-66939777D01*
X112409281Y-66898220D01*
X112411085Y-66897672D01*
X112412543Y-66898869D01*
G37*
G36*
X105178277Y-54215597D02*
G01*
X105180730Y-54219269D01*
X105212511Y-54240503D01*
X105250199Y-54248000D01*
X105749801Y-54248000D01*
X105787488Y-54240503D01*
X105819269Y-54219269D01*
X105821717Y-54215605D01*
X105823421Y-54214716D01*
X105825087Y-54215674D01*
X105825177Y-54217594D01*
X105788497Y-54292624D01*
X105788497Y-54407376D01*
X105825179Y-54482409D01*
X105825089Y-54484328D01*
X105823423Y-54485287D01*
X105821719Y-54484398D01*
X105819269Y-54480730D01*
X105787488Y-54459496D01*
X105749801Y-54452000D01*
X105250199Y-54452000D01*
X105212511Y-54459496D01*
X105180730Y-54480730D01*
X105178277Y-54484403D01*
X105176573Y-54485292D01*
X105174907Y-54484333D01*
X105174817Y-54482414D01*
X105211502Y-54407375D01*
X105211502Y-54292625D01*
X105174817Y-54217586D01*
X105174907Y-54215667D01*
X105176573Y-54214708D01*
X105178277Y-54215597D01*
G37*
M02*
