%TF.GenerationSoftware,KiCad,Pcbnew,7.0.1*%
%TF.CreationDate,2024-01-02T21:49:56+00:00*%
%TF.ProjectId,rfid_module,72666964-5f6d-46f6-9475-6c652e6b6963,rev?*%
%TF.SameCoordinates,Original*%
%TF.FileFunction,Drillmap*%
%TF.FilePolarity,Positive*%
%FSLAX45Y45*%
G04 Gerber Fmt 4.5, Leading zero omitted, Abs format (unit mm)*
G04 Created by KiCad (PCBNEW 7.0.1) date 2024-01-02 21:49:56*
%MOMM*%
%LPD*%
G01*
G04 APERTURE LIST*
%ADD10C,0.200000*%
%ADD11C,0.030000*%
G04 APERTURE END LIST*
D10*
D11*
X9591000Y-6375000D02*
X9621000Y-6405000D01*
X9621000Y-6375000D02*
X9591000Y-6405000D01*
X9645000Y-6845000D02*
X9675000Y-6875000D01*
X9675000Y-6845000D02*
X9645000Y-6875000D01*
X9655000Y-6625000D02*
X9685000Y-6655000D01*
X9685000Y-6625000D02*
X9655000Y-6655000D01*
X9685000Y-6685000D02*
X9715000Y-6715000D01*
X9715000Y-6685000D02*
X9685000Y-6715000D01*
X9694000Y-6056000D02*
X9724000Y-6086000D01*
X9724000Y-6056000D02*
X9694000Y-6086000D01*
X9845000Y-6505000D02*
X9875000Y-6535000D01*
X9875000Y-6505000D02*
X9845000Y-6535000D01*
X9850000Y-6630000D02*
X9880000Y-6660000D01*
X9880000Y-6630000D02*
X9850000Y-6660000D01*
X9905000Y-6125000D02*
X9935000Y-6155000D01*
X9935000Y-6125000D02*
X9905000Y-6155000D01*
X9930000Y-6050000D02*
X9960000Y-6080000D01*
X9960000Y-6050000D02*
X9930000Y-6080000D01*
X10005000Y-6085000D02*
X10035000Y-6115000D01*
X10035000Y-6085000D02*
X10005000Y-6115000D01*
X10075000Y-6455000D02*
X10105000Y-6485000D01*
X10105000Y-6455000D02*
X10075000Y-6485000D01*
X10075000Y-6575000D02*
X10105000Y-6605000D01*
X10105000Y-6575000D02*
X10075000Y-6605000D01*
X10095000Y-6515000D02*
X10125000Y-6545000D01*
X10125000Y-6515000D02*
X10095000Y-6545000D01*
X10120000Y-6175000D02*
X10150000Y-6205000D01*
X10150000Y-6175000D02*
X10120000Y-6205000D01*
X10120000Y-6235000D02*
X10150000Y-6265000D01*
X10150000Y-6235000D02*
X10120000Y-6265000D01*
X10120000Y-6295000D02*
X10150000Y-6325000D01*
X10150000Y-6295000D02*
X10120000Y-6325000D01*
X10180000Y-6175000D02*
X10210000Y-6205000D01*
X10210000Y-6175000D02*
X10180000Y-6205000D01*
X10180000Y-6235000D02*
X10210000Y-6265000D01*
X10210000Y-6235000D02*
X10180000Y-6265000D01*
X10180000Y-6295000D02*
X10210000Y-6325000D01*
X10210000Y-6295000D02*
X10180000Y-6325000D01*
X10185000Y-6815000D02*
X10215000Y-6845000D01*
X10215000Y-6815000D02*
X10185000Y-6845000D01*
X10205000Y-5975000D02*
X10235000Y-6005000D01*
X10235000Y-5975000D02*
X10205000Y-6005000D01*
X10205000Y-6475000D02*
X10235000Y-6505000D01*
X10235000Y-6475000D02*
X10205000Y-6505000D01*
X10240000Y-6175000D02*
X10270000Y-6205000D01*
X10270000Y-6175000D02*
X10240000Y-6205000D01*
X10240000Y-6235000D02*
X10270000Y-6265000D01*
X10270000Y-6235000D02*
X10240000Y-6265000D01*
X10240000Y-6295000D02*
X10270000Y-6325000D01*
X10270000Y-6295000D02*
X10240000Y-6325000D01*
X10275000Y-5904000D02*
X10305000Y-5934000D01*
X10305000Y-5904000D02*
X10275000Y-5934000D01*
X10275000Y-6475000D02*
X10305000Y-6505000D01*
X10305000Y-6475000D02*
X10275000Y-6505000D01*
X10330000Y-6085000D02*
X10360000Y-6115000D01*
X10360000Y-6085000D02*
X10330000Y-6115000D01*
X10345000Y-6475000D02*
X10375000Y-6505000D01*
X10375000Y-6475000D02*
X10345000Y-6505000D01*
X10395000Y-6385000D02*
X10425000Y-6415000D01*
X10425000Y-6385000D02*
X10395000Y-6415000D01*
X10405000Y-6565000D02*
X10435000Y-6595000D01*
X10435000Y-6565000D02*
X10405000Y-6595000D01*
X10455000Y-6115000D02*
X10485000Y-6145000D01*
X10485000Y-6115000D02*
X10455000Y-6145000D01*
X10465000Y-6385000D02*
X10495000Y-6415000D01*
X10495000Y-6385000D02*
X10465000Y-6415000D01*
X10485000Y-6565000D02*
X10515000Y-6595000D01*
X10515000Y-6565000D02*
X10485000Y-6595000D01*
X10535000Y-6205000D02*
X10565000Y-6235000D01*
X10565000Y-6205000D02*
X10535000Y-6235000D01*
X10545000Y-6365000D02*
X10575000Y-6395000D01*
X10575000Y-6365000D02*
X10545000Y-6395000D01*
X10554000Y-5854000D02*
X10584000Y-5884000D01*
X10584000Y-5854000D02*
X10554000Y-5884000D01*
X10555000Y-6295000D02*
X10585000Y-6325000D01*
X10585000Y-6295000D02*
X10555000Y-6325000D01*
X10565000Y-6565000D02*
X10595000Y-6595000D01*
X10595000Y-6565000D02*
X10565000Y-6595000D01*
X10585000Y-6105000D02*
X10615000Y-6135000D01*
X10615000Y-6105000D02*
X10585000Y-6135000D01*
X10685000Y-6455000D02*
X10715000Y-6485000D01*
X10715000Y-6455000D02*
X10685000Y-6485000D01*
X10735000Y-6505000D02*
X10765000Y-6535000D01*
X10765000Y-6505000D02*
X10735000Y-6535000D01*
X10745000Y-5600000D02*
X10775000Y-5630000D01*
X10775000Y-5600000D02*
X10745000Y-5630000D01*
X10745000Y-6435000D02*
X10775000Y-6465000D01*
X10775000Y-6435000D02*
X10745000Y-6465000D01*
X10805000Y-6675000D02*
X10835000Y-6705000D01*
X10835000Y-6675000D02*
X10805000Y-6705000D01*
X10870000Y-6030000D02*
X10900000Y-6060000D01*
X10900000Y-6030000D02*
X10870000Y-6060000D01*
X10915000Y-6615000D02*
X10945000Y-6645000D01*
X10945000Y-6615000D02*
X10915000Y-6645000D01*
X11045000Y-6525000D02*
X11075000Y-6555000D01*
X11075000Y-6525000D02*
X11045000Y-6555000D01*
X11125000Y-6455000D02*
X11155000Y-6485000D01*
X11155000Y-6455000D02*
X11125000Y-6485000D01*
X11263000Y-5527000D02*
X11293000Y-5557000D01*
X11293000Y-5527000D02*
X11263000Y-5557000D01*
X11275000Y-5915000D02*
X11305000Y-5945000D01*
X11305000Y-5915000D02*
X11275000Y-5945000D01*
X11305000Y-6045000D02*
X11335000Y-6075000D01*
X11335000Y-6045000D02*
X11305000Y-6075000D01*
X11349900Y-6162100D02*
X11379900Y-6192100D01*
X11379900Y-6162100D02*
X11349900Y-6192100D01*
X11353000Y-6223000D02*
X11383000Y-6253000D01*
X11383000Y-6223000D02*
X11353000Y-6253000D01*
X11355000Y-5675000D02*
X11385000Y-5705000D01*
X11385000Y-5675000D02*
X11355000Y-5705000D01*
X11414100Y-6155300D02*
X11444100Y-6185300D01*
X11444100Y-6155300D02*
X11414100Y-6185300D01*
X11425000Y-5695000D02*
X11455000Y-5725000D01*
X11455000Y-5695000D02*
X11425000Y-5725000D01*
X11545000Y-5925000D02*
X11575000Y-5955000D01*
X11575000Y-5925000D02*
X11545000Y-5955000D01*
X11555000Y-6005000D02*
X11585000Y-6035000D01*
X11585000Y-6005000D02*
X11555000Y-6035000D01*
X11565000Y-5825000D02*
X11595000Y-5855000D01*
X11595000Y-5825000D02*
X11565000Y-5855000D01*
D10*
X9642619Y-7242524D02*
X9642619Y-7042524D01*
X9642619Y-7042524D02*
X9690238Y-7042524D01*
X9690238Y-7042524D02*
X9718810Y-7052048D01*
X9718810Y-7052048D02*
X9737857Y-7071095D01*
X9737857Y-7071095D02*
X9747381Y-7090143D01*
X9747381Y-7090143D02*
X9756905Y-7128238D01*
X9756905Y-7128238D02*
X9756905Y-7156809D01*
X9756905Y-7156809D02*
X9747381Y-7194905D01*
X9747381Y-7194905D02*
X9737857Y-7213952D01*
X9737857Y-7213952D02*
X9718810Y-7233000D01*
X9718810Y-7233000D02*
X9690238Y-7242524D01*
X9690238Y-7242524D02*
X9642619Y-7242524D01*
X9842619Y-7242524D02*
X9842619Y-7109190D01*
X9842619Y-7147286D02*
X9852143Y-7128238D01*
X9852143Y-7128238D02*
X9861667Y-7118714D01*
X9861667Y-7118714D02*
X9880714Y-7109190D01*
X9880714Y-7109190D02*
X9899762Y-7109190D01*
X9966429Y-7242524D02*
X9966429Y-7109190D01*
X9966429Y-7042524D02*
X9956905Y-7052048D01*
X9956905Y-7052048D02*
X9966429Y-7061571D01*
X9966429Y-7061571D02*
X9975952Y-7052048D01*
X9975952Y-7052048D02*
X9966429Y-7042524D01*
X9966429Y-7042524D02*
X9966429Y-7061571D01*
X10090238Y-7242524D02*
X10071190Y-7233000D01*
X10071190Y-7233000D02*
X10061667Y-7213952D01*
X10061667Y-7213952D02*
X10061667Y-7042524D01*
X10195000Y-7242524D02*
X10175952Y-7233000D01*
X10175952Y-7233000D02*
X10166429Y-7213952D01*
X10166429Y-7213952D02*
X10166429Y-7042524D01*
X10423571Y-7242524D02*
X10423571Y-7042524D01*
X10423571Y-7042524D02*
X10490238Y-7185381D01*
X10490238Y-7185381D02*
X10556905Y-7042524D01*
X10556905Y-7042524D02*
X10556905Y-7242524D01*
X10737857Y-7242524D02*
X10737857Y-7137762D01*
X10737857Y-7137762D02*
X10728333Y-7118714D01*
X10728333Y-7118714D02*
X10709286Y-7109190D01*
X10709286Y-7109190D02*
X10671190Y-7109190D01*
X10671190Y-7109190D02*
X10652143Y-7118714D01*
X10737857Y-7233000D02*
X10718810Y-7242524D01*
X10718810Y-7242524D02*
X10671190Y-7242524D01*
X10671190Y-7242524D02*
X10652143Y-7233000D01*
X10652143Y-7233000D02*
X10642619Y-7213952D01*
X10642619Y-7213952D02*
X10642619Y-7194905D01*
X10642619Y-7194905D02*
X10652143Y-7175857D01*
X10652143Y-7175857D02*
X10671190Y-7166333D01*
X10671190Y-7166333D02*
X10718810Y-7166333D01*
X10718810Y-7166333D02*
X10737857Y-7156809D01*
X10833095Y-7109190D02*
X10833095Y-7309190D01*
X10833095Y-7118714D02*
X10852143Y-7109190D01*
X10852143Y-7109190D02*
X10890238Y-7109190D01*
X10890238Y-7109190D02*
X10909286Y-7118714D01*
X10909286Y-7118714D02*
X10918810Y-7128238D01*
X10918810Y-7128238D02*
X10928333Y-7147286D01*
X10928333Y-7147286D02*
X10928333Y-7204428D01*
X10928333Y-7204428D02*
X10918810Y-7223476D01*
X10918810Y-7223476D02*
X10909286Y-7233000D01*
X10909286Y-7233000D02*
X10890238Y-7242524D01*
X10890238Y-7242524D02*
X10852143Y-7242524D01*
X10852143Y-7242524D02*
X10833095Y-7233000D01*
X11014048Y-7223476D02*
X11023571Y-7233000D01*
X11023571Y-7233000D02*
X11014048Y-7242524D01*
X11014048Y-7242524D02*
X11004524Y-7233000D01*
X11004524Y-7233000D02*
X11014048Y-7223476D01*
X11014048Y-7223476D02*
X11014048Y-7242524D01*
X11014048Y-7118714D02*
X11023571Y-7128238D01*
X11023571Y-7128238D02*
X11014048Y-7137762D01*
X11014048Y-7137762D02*
X11004524Y-7128238D01*
X11004524Y-7128238D02*
X11014048Y-7118714D01*
X11014048Y-7118714D02*
X11014048Y-7137762D01*
D11*
X9365000Y-7555000D02*
X9395000Y-7585000D01*
X9395000Y-7555000D02*
X9365000Y-7585000D01*
D10*
X9680714Y-7462524D02*
X9699762Y-7462524D01*
X9699762Y-7462524D02*
X9718810Y-7472048D01*
X9718810Y-7472048D02*
X9728333Y-7481571D01*
X9728333Y-7481571D02*
X9737857Y-7500619D01*
X9737857Y-7500619D02*
X9747381Y-7538714D01*
X9747381Y-7538714D02*
X9747381Y-7586333D01*
X9747381Y-7586333D02*
X9737857Y-7624428D01*
X9737857Y-7624428D02*
X9728333Y-7643476D01*
X9728333Y-7643476D02*
X9718810Y-7653000D01*
X9718810Y-7653000D02*
X9699762Y-7662524D01*
X9699762Y-7662524D02*
X9680714Y-7662524D01*
X9680714Y-7662524D02*
X9661667Y-7653000D01*
X9661667Y-7653000D02*
X9652143Y-7643476D01*
X9652143Y-7643476D02*
X9642619Y-7624428D01*
X9642619Y-7624428D02*
X9633095Y-7586333D01*
X9633095Y-7586333D02*
X9633095Y-7538714D01*
X9633095Y-7538714D02*
X9642619Y-7500619D01*
X9642619Y-7500619D02*
X9652143Y-7481571D01*
X9652143Y-7481571D02*
X9661667Y-7472048D01*
X9661667Y-7472048D02*
X9680714Y-7462524D01*
X9833095Y-7643476D02*
X9842619Y-7653000D01*
X9842619Y-7653000D02*
X9833095Y-7662524D01*
X9833095Y-7662524D02*
X9823571Y-7653000D01*
X9823571Y-7653000D02*
X9833095Y-7643476D01*
X9833095Y-7643476D02*
X9833095Y-7662524D01*
X9909286Y-7462524D02*
X10033095Y-7462524D01*
X10033095Y-7462524D02*
X9966429Y-7538714D01*
X9966429Y-7538714D02*
X9995000Y-7538714D01*
X9995000Y-7538714D02*
X10014048Y-7548238D01*
X10014048Y-7548238D02*
X10023571Y-7557762D01*
X10023571Y-7557762D02*
X10033095Y-7576809D01*
X10033095Y-7576809D02*
X10033095Y-7624428D01*
X10033095Y-7624428D02*
X10023571Y-7643476D01*
X10023571Y-7643476D02*
X10014048Y-7653000D01*
X10014048Y-7653000D02*
X9995000Y-7662524D01*
X9995000Y-7662524D02*
X9937857Y-7662524D01*
X9937857Y-7662524D02*
X9918810Y-7653000D01*
X9918810Y-7653000D02*
X9909286Y-7643476D01*
X10156905Y-7462524D02*
X10175952Y-7462524D01*
X10175952Y-7462524D02*
X10195000Y-7472048D01*
X10195000Y-7472048D02*
X10204524Y-7481571D01*
X10204524Y-7481571D02*
X10214048Y-7500619D01*
X10214048Y-7500619D02*
X10223571Y-7538714D01*
X10223571Y-7538714D02*
X10223571Y-7586333D01*
X10223571Y-7586333D02*
X10214048Y-7624428D01*
X10214048Y-7624428D02*
X10204524Y-7643476D01*
X10204524Y-7643476D02*
X10195000Y-7653000D01*
X10195000Y-7653000D02*
X10175952Y-7662524D01*
X10175952Y-7662524D02*
X10156905Y-7662524D01*
X10156905Y-7662524D02*
X10137857Y-7653000D01*
X10137857Y-7653000D02*
X10128333Y-7643476D01*
X10128333Y-7643476D02*
X10118810Y-7624428D01*
X10118810Y-7624428D02*
X10109286Y-7586333D01*
X10109286Y-7586333D02*
X10109286Y-7538714D01*
X10109286Y-7538714D02*
X10118810Y-7500619D01*
X10118810Y-7500619D02*
X10128333Y-7481571D01*
X10128333Y-7481571D02*
X10137857Y-7472048D01*
X10137857Y-7472048D02*
X10156905Y-7462524D01*
X10347381Y-7462524D02*
X10366429Y-7462524D01*
X10366429Y-7462524D02*
X10385476Y-7472048D01*
X10385476Y-7472048D02*
X10395000Y-7481571D01*
X10395000Y-7481571D02*
X10404524Y-7500619D01*
X10404524Y-7500619D02*
X10414048Y-7538714D01*
X10414048Y-7538714D02*
X10414048Y-7586333D01*
X10414048Y-7586333D02*
X10404524Y-7624428D01*
X10404524Y-7624428D02*
X10395000Y-7643476D01*
X10395000Y-7643476D02*
X10385476Y-7653000D01*
X10385476Y-7653000D02*
X10366429Y-7662524D01*
X10366429Y-7662524D02*
X10347381Y-7662524D01*
X10347381Y-7662524D02*
X10328333Y-7653000D01*
X10328333Y-7653000D02*
X10318810Y-7643476D01*
X10318810Y-7643476D02*
X10309286Y-7624428D01*
X10309286Y-7624428D02*
X10299762Y-7586333D01*
X10299762Y-7586333D02*
X10299762Y-7538714D01*
X10299762Y-7538714D02*
X10309286Y-7500619D01*
X10309286Y-7500619D02*
X10318810Y-7481571D01*
X10318810Y-7481571D02*
X10328333Y-7472048D01*
X10328333Y-7472048D02*
X10347381Y-7462524D01*
X10499762Y-7662524D02*
X10499762Y-7529190D01*
X10499762Y-7548238D02*
X10509286Y-7538714D01*
X10509286Y-7538714D02*
X10528333Y-7529190D01*
X10528333Y-7529190D02*
X10556905Y-7529190D01*
X10556905Y-7529190D02*
X10575952Y-7538714D01*
X10575952Y-7538714D02*
X10585476Y-7557762D01*
X10585476Y-7557762D02*
X10585476Y-7662524D01*
X10585476Y-7557762D02*
X10595000Y-7538714D01*
X10595000Y-7538714D02*
X10614048Y-7529190D01*
X10614048Y-7529190D02*
X10642619Y-7529190D01*
X10642619Y-7529190D02*
X10661667Y-7538714D01*
X10661667Y-7538714D02*
X10671191Y-7557762D01*
X10671191Y-7557762D02*
X10671191Y-7662524D01*
X10766429Y-7662524D02*
X10766429Y-7529190D01*
X10766429Y-7548238D02*
X10775952Y-7538714D01*
X10775952Y-7538714D02*
X10795000Y-7529190D01*
X10795000Y-7529190D02*
X10823572Y-7529190D01*
X10823572Y-7529190D02*
X10842619Y-7538714D01*
X10842619Y-7538714D02*
X10852143Y-7557762D01*
X10852143Y-7557762D02*
X10852143Y-7662524D01*
X10852143Y-7557762D02*
X10861667Y-7538714D01*
X10861667Y-7538714D02*
X10880714Y-7529190D01*
X10880714Y-7529190D02*
X10909286Y-7529190D01*
X10909286Y-7529190D02*
X10928333Y-7538714D01*
X10928333Y-7538714D02*
X10937857Y-7557762D01*
X10937857Y-7557762D02*
X10937857Y-7662524D01*
X11328333Y-7453000D02*
X11156905Y-7710143D01*
X11585476Y-7462524D02*
X11604524Y-7462524D01*
X11604524Y-7462524D02*
X11623572Y-7472048D01*
X11623572Y-7472048D02*
X11633095Y-7481571D01*
X11633095Y-7481571D02*
X11642619Y-7500619D01*
X11642619Y-7500619D02*
X11652143Y-7538714D01*
X11652143Y-7538714D02*
X11652143Y-7586333D01*
X11652143Y-7586333D02*
X11642619Y-7624428D01*
X11642619Y-7624428D02*
X11633095Y-7643476D01*
X11633095Y-7643476D02*
X11623572Y-7653000D01*
X11623572Y-7653000D02*
X11604524Y-7662524D01*
X11604524Y-7662524D02*
X11585476Y-7662524D01*
X11585476Y-7662524D02*
X11566429Y-7653000D01*
X11566429Y-7653000D02*
X11556905Y-7643476D01*
X11556905Y-7643476D02*
X11547381Y-7624428D01*
X11547381Y-7624428D02*
X11537857Y-7586333D01*
X11537857Y-7586333D02*
X11537857Y-7538714D01*
X11537857Y-7538714D02*
X11547381Y-7500619D01*
X11547381Y-7500619D02*
X11556905Y-7481571D01*
X11556905Y-7481571D02*
X11566429Y-7472048D01*
X11566429Y-7472048D02*
X11585476Y-7462524D01*
X11737857Y-7643476D02*
X11747381Y-7653000D01*
X11747381Y-7653000D02*
X11737857Y-7662524D01*
X11737857Y-7662524D02*
X11728333Y-7653000D01*
X11728333Y-7653000D02*
X11737857Y-7643476D01*
X11737857Y-7643476D02*
X11737857Y-7662524D01*
X11871191Y-7462524D02*
X11890238Y-7462524D01*
X11890238Y-7462524D02*
X11909286Y-7472048D01*
X11909286Y-7472048D02*
X11918810Y-7481571D01*
X11918810Y-7481571D02*
X11928333Y-7500619D01*
X11928333Y-7500619D02*
X11937857Y-7538714D01*
X11937857Y-7538714D02*
X11937857Y-7586333D01*
X11937857Y-7586333D02*
X11928333Y-7624428D01*
X11928333Y-7624428D02*
X11918810Y-7643476D01*
X11918810Y-7643476D02*
X11909286Y-7653000D01*
X11909286Y-7653000D02*
X11890238Y-7662524D01*
X11890238Y-7662524D02*
X11871191Y-7662524D01*
X11871191Y-7662524D02*
X11852143Y-7653000D01*
X11852143Y-7653000D02*
X11842619Y-7643476D01*
X11842619Y-7643476D02*
X11833095Y-7624428D01*
X11833095Y-7624428D02*
X11823572Y-7586333D01*
X11823572Y-7586333D02*
X11823572Y-7538714D01*
X11823572Y-7538714D02*
X11833095Y-7500619D01*
X11833095Y-7500619D02*
X11842619Y-7481571D01*
X11842619Y-7481571D02*
X11852143Y-7472048D01*
X11852143Y-7472048D02*
X11871191Y-7462524D01*
X12128333Y-7662524D02*
X12014048Y-7662524D01*
X12071191Y-7662524D02*
X12071191Y-7462524D01*
X12071191Y-7462524D02*
X12052143Y-7491095D01*
X12052143Y-7491095D02*
X12033095Y-7510143D01*
X12033095Y-7510143D02*
X12014048Y-7519667D01*
X12318810Y-7662524D02*
X12204524Y-7662524D01*
X12261667Y-7662524D02*
X12261667Y-7462524D01*
X12261667Y-7462524D02*
X12242619Y-7491095D01*
X12242619Y-7491095D02*
X12223572Y-7510143D01*
X12223572Y-7510143D02*
X12204524Y-7519667D01*
X12433095Y-7548238D02*
X12414048Y-7538714D01*
X12414048Y-7538714D02*
X12404524Y-7529190D01*
X12404524Y-7529190D02*
X12395000Y-7510143D01*
X12395000Y-7510143D02*
X12395000Y-7500619D01*
X12395000Y-7500619D02*
X12404524Y-7481571D01*
X12404524Y-7481571D02*
X12414048Y-7472048D01*
X12414048Y-7472048D02*
X12433095Y-7462524D01*
X12433095Y-7462524D02*
X12471191Y-7462524D01*
X12471191Y-7462524D02*
X12490238Y-7472048D01*
X12490238Y-7472048D02*
X12499762Y-7481571D01*
X12499762Y-7481571D02*
X12509286Y-7500619D01*
X12509286Y-7500619D02*
X12509286Y-7510143D01*
X12509286Y-7510143D02*
X12499762Y-7529190D01*
X12499762Y-7529190D02*
X12490238Y-7538714D01*
X12490238Y-7538714D02*
X12471191Y-7548238D01*
X12471191Y-7548238D02*
X12433095Y-7548238D01*
X12433095Y-7548238D02*
X12414048Y-7557762D01*
X12414048Y-7557762D02*
X12404524Y-7567286D01*
X12404524Y-7567286D02*
X12395000Y-7586333D01*
X12395000Y-7586333D02*
X12395000Y-7624428D01*
X12395000Y-7624428D02*
X12404524Y-7643476D01*
X12404524Y-7643476D02*
X12414048Y-7653000D01*
X12414048Y-7653000D02*
X12433095Y-7662524D01*
X12433095Y-7662524D02*
X12471191Y-7662524D01*
X12471191Y-7662524D02*
X12490238Y-7653000D01*
X12490238Y-7653000D02*
X12499762Y-7643476D01*
X12499762Y-7643476D02*
X12509286Y-7624428D01*
X12509286Y-7624428D02*
X12509286Y-7586333D01*
X12509286Y-7586333D02*
X12499762Y-7567286D01*
X12499762Y-7567286D02*
X12490238Y-7557762D01*
X12490238Y-7557762D02*
X12471191Y-7548238D01*
X12585476Y-7462524D02*
X12585476Y-7500619D01*
X12661667Y-7462524D02*
X12661667Y-7500619D01*
X12956905Y-7738714D02*
X12947381Y-7729190D01*
X12947381Y-7729190D02*
X12928334Y-7700619D01*
X12928334Y-7700619D02*
X12918810Y-7681571D01*
X12918810Y-7681571D02*
X12909286Y-7653000D01*
X12909286Y-7653000D02*
X12899762Y-7605381D01*
X12899762Y-7605381D02*
X12899762Y-7567286D01*
X12899762Y-7567286D02*
X12909286Y-7519667D01*
X12909286Y-7519667D02*
X12918810Y-7491095D01*
X12918810Y-7491095D02*
X12928334Y-7472048D01*
X12928334Y-7472048D02*
X12947381Y-7443476D01*
X12947381Y-7443476D02*
X12956905Y-7433952D01*
X13118810Y-7462524D02*
X13080714Y-7462524D01*
X13080714Y-7462524D02*
X13061667Y-7472048D01*
X13061667Y-7472048D02*
X13052143Y-7481571D01*
X13052143Y-7481571D02*
X13033095Y-7510143D01*
X13033095Y-7510143D02*
X13023572Y-7548238D01*
X13023572Y-7548238D02*
X13023572Y-7624428D01*
X13023572Y-7624428D02*
X13033095Y-7643476D01*
X13033095Y-7643476D02*
X13042619Y-7653000D01*
X13042619Y-7653000D02*
X13061667Y-7662524D01*
X13061667Y-7662524D02*
X13099762Y-7662524D01*
X13099762Y-7662524D02*
X13118810Y-7653000D01*
X13118810Y-7653000D02*
X13128334Y-7643476D01*
X13128334Y-7643476D02*
X13137857Y-7624428D01*
X13137857Y-7624428D02*
X13137857Y-7576809D01*
X13137857Y-7576809D02*
X13128334Y-7557762D01*
X13128334Y-7557762D02*
X13118810Y-7548238D01*
X13118810Y-7548238D02*
X13099762Y-7538714D01*
X13099762Y-7538714D02*
X13061667Y-7538714D01*
X13061667Y-7538714D02*
X13042619Y-7548238D01*
X13042619Y-7548238D02*
X13033095Y-7557762D01*
X13033095Y-7557762D02*
X13023572Y-7576809D01*
X13261667Y-7462524D02*
X13280715Y-7462524D01*
X13280715Y-7462524D02*
X13299762Y-7472048D01*
X13299762Y-7472048D02*
X13309286Y-7481571D01*
X13309286Y-7481571D02*
X13318810Y-7500619D01*
X13318810Y-7500619D02*
X13328334Y-7538714D01*
X13328334Y-7538714D02*
X13328334Y-7586333D01*
X13328334Y-7586333D02*
X13318810Y-7624428D01*
X13318810Y-7624428D02*
X13309286Y-7643476D01*
X13309286Y-7643476D02*
X13299762Y-7653000D01*
X13299762Y-7653000D02*
X13280715Y-7662524D01*
X13280715Y-7662524D02*
X13261667Y-7662524D01*
X13261667Y-7662524D02*
X13242619Y-7653000D01*
X13242619Y-7653000D02*
X13233095Y-7643476D01*
X13233095Y-7643476D02*
X13223572Y-7624428D01*
X13223572Y-7624428D02*
X13214048Y-7586333D01*
X13214048Y-7586333D02*
X13214048Y-7538714D01*
X13214048Y-7538714D02*
X13223572Y-7500619D01*
X13223572Y-7500619D02*
X13233095Y-7481571D01*
X13233095Y-7481571D02*
X13242619Y-7472048D01*
X13242619Y-7472048D02*
X13261667Y-7462524D01*
X13566429Y-7662524D02*
X13566429Y-7462524D01*
X13652143Y-7662524D02*
X13652143Y-7557762D01*
X13652143Y-7557762D02*
X13642619Y-7538714D01*
X13642619Y-7538714D02*
X13623572Y-7529190D01*
X13623572Y-7529190D02*
X13595000Y-7529190D01*
X13595000Y-7529190D02*
X13575953Y-7538714D01*
X13575953Y-7538714D02*
X13566429Y-7548238D01*
X13775953Y-7662524D02*
X13756905Y-7653000D01*
X13756905Y-7653000D02*
X13747381Y-7643476D01*
X13747381Y-7643476D02*
X13737857Y-7624428D01*
X13737857Y-7624428D02*
X13737857Y-7567286D01*
X13737857Y-7567286D02*
X13747381Y-7548238D01*
X13747381Y-7548238D02*
X13756905Y-7538714D01*
X13756905Y-7538714D02*
X13775953Y-7529190D01*
X13775953Y-7529190D02*
X13804524Y-7529190D01*
X13804524Y-7529190D02*
X13823572Y-7538714D01*
X13823572Y-7538714D02*
X13833096Y-7548238D01*
X13833096Y-7548238D02*
X13842619Y-7567286D01*
X13842619Y-7567286D02*
X13842619Y-7624428D01*
X13842619Y-7624428D02*
X13833096Y-7643476D01*
X13833096Y-7643476D02*
X13823572Y-7653000D01*
X13823572Y-7653000D02*
X13804524Y-7662524D01*
X13804524Y-7662524D02*
X13775953Y-7662524D01*
X13956905Y-7662524D02*
X13937857Y-7653000D01*
X13937857Y-7653000D02*
X13928334Y-7633952D01*
X13928334Y-7633952D02*
X13928334Y-7462524D01*
X14109286Y-7653000D02*
X14090238Y-7662524D01*
X14090238Y-7662524D02*
X14052143Y-7662524D01*
X14052143Y-7662524D02*
X14033096Y-7653000D01*
X14033096Y-7653000D02*
X14023572Y-7633952D01*
X14023572Y-7633952D02*
X14023572Y-7557762D01*
X14023572Y-7557762D02*
X14033096Y-7538714D01*
X14033096Y-7538714D02*
X14052143Y-7529190D01*
X14052143Y-7529190D02*
X14090238Y-7529190D01*
X14090238Y-7529190D02*
X14109286Y-7538714D01*
X14109286Y-7538714D02*
X14118810Y-7557762D01*
X14118810Y-7557762D02*
X14118810Y-7576809D01*
X14118810Y-7576809D02*
X14023572Y-7595857D01*
X14195000Y-7653000D02*
X14214048Y-7662524D01*
X14214048Y-7662524D02*
X14252143Y-7662524D01*
X14252143Y-7662524D02*
X14271191Y-7653000D01*
X14271191Y-7653000D02*
X14280715Y-7633952D01*
X14280715Y-7633952D02*
X14280715Y-7624428D01*
X14280715Y-7624428D02*
X14271191Y-7605381D01*
X14271191Y-7605381D02*
X14252143Y-7595857D01*
X14252143Y-7595857D02*
X14223572Y-7595857D01*
X14223572Y-7595857D02*
X14204524Y-7586333D01*
X14204524Y-7586333D02*
X14195000Y-7567286D01*
X14195000Y-7567286D02*
X14195000Y-7557762D01*
X14195000Y-7557762D02*
X14204524Y-7538714D01*
X14204524Y-7538714D02*
X14223572Y-7529190D01*
X14223572Y-7529190D02*
X14252143Y-7529190D01*
X14252143Y-7529190D02*
X14271191Y-7538714D01*
X14347381Y-7738714D02*
X14356905Y-7729190D01*
X14356905Y-7729190D02*
X14375953Y-7700619D01*
X14375953Y-7700619D02*
X14385477Y-7681571D01*
X14385477Y-7681571D02*
X14395000Y-7653000D01*
X14395000Y-7653000D02*
X14404524Y-7605381D01*
X14404524Y-7605381D02*
X14404524Y-7567286D01*
X14404524Y-7567286D02*
X14395000Y-7519667D01*
X14395000Y-7519667D02*
X14385477Y-7491095D01*
X14385477Y-7491095D02*
X14375953Y-7472048D01*
X14375953Y-7472048D02*
X14356905Y-7443476D01*
X14356905Y-7443476D02*
X14347381Y-7433952D01*
M02*
