%TF.GenerationSoftware,KiCad,Pcbnew,7.0.1*%
%TF.CreationDate,2023-12-25T16:17:55+00:00*%
%TF.ProjectId,watch_test_rig,77617463-685f-4746-9573-745f7269672e,rev?*%
%TF.SameCoordinates,Original*%
%TF.FileFunction,Copper,L2,Bot*%
%TF.FilePolarity,Positive*%
%FSLAX46Y46*%
G04 Gerber Fmt 4.6, Leading zero omitted, Abs format (unit mm)*
G04 Created by KiCad (PCBNEW 7.0.1) date 2023-12-25 16:17:55*
%MOMM*%
%LPD*%
G01*
G04 APERTURE LIST*
%TA.AperFunction,ComponentPad*%
%ADD10O,1.700000X1.700000*%
%TD*%
%TA.AperFunction,ComponentPad*%
%ADD11R,1.700000X1.700000*%
%TD*%
%TA.AperFunction,ComponentPad*%
%ADD12C,2.000000*%
%TD*%
%TA.AperFunction,ComponentPad*%
%ADD13C,3.600000*%
%TD*%
%TA.AperFunction,ConnectorPad*%
%ADD14C,5.600000*%
%TD*%
%TA.AperFunction,ComponentPad*%
%ADD15C,2.500000*%
%TD*%
%TA.AperFunction,ComponentPad*%
%ADD16O,2.000000X0.900000*%
%TD*%
%TA.AperFunction,ComponentPad*%
%ADD17O,1.700000X0.900000*%
%TD*%
%TA.AperFunction,ViaPad*%
%ADD18C,0.800000*%
%TD*%
%TA.AperFunction,Conductor*%
%ADD19C,0.250000*%
%TD*%
G04 APERTURE END LIST*
D10*
%TO.P,J106,10,Pin_10*%
%TO.N,VBUS*%
X181585000Y-61735000D03*
%TO.P,J106,9,Pin_9*%
%TO.N,GND*%
X181585000Y-64275000D03*
%TO.P,J106,8,Pin_8*%
%TO.N,+VBAT*%
X179045000Y-61735000D03*
%TO.P,J106,7,Pin_7*%
%TO.N,GND*%
X179045000Y-64275000D03*
%TO.P,J106,6,Pin_6*%
%TO.N,+3V3*%
X176505000Y-61735000D03*
%TO.P,J106,5,Pin_5*%
%TO.N,GND*%
X176505000Y-64275000D03*
%TO.P,J106,4,Pin_4*%
%TO.N,+1V8*%
X173965000Y-61735000D03*
%TO.P,J106,3,Pin_3*%
%TO.N,GND*%
X173965000Y-64275000D03*
%TO.P,J106,2,Pin_2*%
%TO.N,+1V2*%
X171425000Y-61735000D03*
D11*
%TO.P,J106,1,Pin_1*%
%TO.N,GND*%
X171425000Y-64275000D03*
%TD*%
D12*
%TO.P,SW102,1,1*%
%TO.N,/NRF_RST*%
X127750000Y-130250000D03*
X127750000Y-123750000D03*
%TO.P,SW102,2,2*%
%TO.N,GND*%
X132250000Y-130250000D03*
X132250000Y-123750000D03*
%TD*%
D13*
%TO.P,H108,1,1*%
%TO.N,GND*%
X198500000Y-118500000D03*
D14*
X198500000Y-118500000D03*
%TD*%
D15*
%TO.P,PP116,1,1*%
%TO.N,/LED_STM32*%
X187100000Y-87500000D03*
%TD*%
%TO.P,PP107,1,1*%
%TO.N,/STM32_VCP_RX*%
X176200000Y-95100000D03*
%TD*%
D12*
%TO.P,SW101,1,1*%
%TO.N,/STM32_RST*%
X140250000Y-130250000D03*
X140250000Y-123750000D03*
%TO.P,SW101,2,2*%
%TO.N,GND*%
X144750000Y-130250000D03*
X144750000Y-123750000D03*
%TD*%
D11*
%TO.P,SW103,1,A*%
%TO.N,VBUS*%
X136540000Y-61000000D03*
D10*
%TO.P,SW103,2,B*%
%TO.N,/VIN*%
X134000000Y-61000000D03*
%TO.P,SW103,3,C*%
%TO.N,unconnected-(SW103-C-Pad3)*%
X131460000Y-61000000D03*
%TD*%
D13*
%TO.P,H106,1,1*%
%TO.N,GND*%
X198500000Y-71500000D03*
D14*
X198500000Y-71500000D03*
%TD*%
D15*
%TO.P,PP111,1,1*%
%TO.N,+VBAT*%
X182300000Y-75900000D03*
%TD*%
%TO.P,PP110,1,1*%
%TO.N,VBUS*%
X185900000Y-77000000D03*
%TD*%
D13*
%TO.P,H104,1,1*%
%TO.N,GND*%
X118000000Y-58000000D03*
D14*
X118000000Y-58000000D03*
%TD*%
D13*
%TO.P,H102,1,1*%
%TO.N,GND*%
X212000000Y-132000000D03*
D14*
X212000000Y-132000000D03*
%TD*%
D15*
%TO.P,PP112,1,1*%
%TO.N,GND*%
X183000000Y-79300000D03*
%TD*%
%TO.P,PP114,1,1*%
%TO.N,GND*%
X164800000Y-95000000D03*
%TD*%
D11*
%TO.P,J105,1,Pin_1*%
%TO.N,GND*%
X179025000Y-125725000D03*
D10*
%TO.P,J105,2,Pin_2*%
%TO.N,/RF*%
X179025000Y-128265000D03*
%TO.P,J105,3,Pin_3*%
%TO.N,GND*%
X176485000Y-125725000D03*
%TO.P,J105,4,Pin_4*%
%TO.N,/SIGNAL_ENVELOPE*%
X176485000Y-128265000D03*
%TO.P,J105,5,Pin_5*%
%TO.N,GND*%
X173945000Y-125725000D03*
%TO.P,J105,6,Pin_6*%
%TO.N,/RF_IN*%
X173945000Y-128265000D03*
%TD*%
D15*
%TO.P,PP119,1,1*%
%TO.N,+1V2*%
X168500000Y-76600000D03*
%TD*%
D13*
%TO.P,H103,1,1*%
%TO.N,GND*%
X118000000Y-132000000D03*
D14*
X118000000Y-132000000D03*
%TD*%
D15*
%TO.P,PP122,1,1*%
%TO.N,GND*%
X181300000Y-112800000D03*
%TD*%
D13*
%TO.P,H107,1,1*%
%TO.N,GND*%
X154500000Y-118500000D03*
D14*
X154500000Y-118500000D03*
%TD*%
D15*
%TO.P,PP108,1,1*%
%TO.N,/NRF_SWDIO*%
X159800000Y-82800000D03*
%TD*%
%TO.P,PP120,1,1*%
%TO.N,/SIGNAL_ENVELOPE*%
X185700000Y-110200000D03*
%TD*%
%TO.P,PP113,1,1*%
%TO.N,GND*%
X161800000Y-86100000D03*
%TD*%
%TO.P,PP118,1,1*%
%TO.N,+1V8*%
X172500000Y-75900000D03*
%TD*%
%TO.P,PP105,1,1*%
%TO.N,/STM32_VCP_TX*%
X179000000Y-92900000D03*
%TD*%
%TO.P,PP101,1,1*%
%TO.N,/STM32_SWDIO*%
X166900000Y-96700000D03*
%TD*%
%TO.P,PP115,1,1*%
%TO.N,+3V3*%
X182500000Y-83900000D03*
%TD*%
D13*
%TO.P,H105,1,1*%
%TO.N,GND*%
X154500000Y-71500000D03*
D14*
X154500000Y-71500000D03*
%TD*%
D15*
%TO.P,PP102,1,1*%
%TO.N,/STM32_SWCLK*%
X166700000Y-99400000D03*
%TD*%
%TO.P,PP106,1,1*%
%TO.N,/NRF_SWCLK*%
X159100000Y-85700000D03*
%TD*%
%TO.P,PP121,1,1*%
%TO.N,/RF*%
X188200000Y-107800000D03*
%TD*%
D16*
%TO.P,J103,S1,SHIELD*%
%TO.N,unconnected-(J103-SHIELD-PadS1)*%
X121270000Y-65875000D03*
%TO.P,J103,S2,SHIELD*%
%TO.N,unconnected-(J103-SHIELD-PadS2)*%
X121270000Y-74525000D03*
D17*
%TO.P,J103,S3,SHIELD*%
%TO.N,unconnected-(J103-SHIELD-PadS3)*%
X117100000Y-65875000D03*
%TO.P,J103,S4,SHIELD*%
%TO.N,unconnected-(J103-SHIELD-PadS4)*%
X117100000Y-74525000D03*
%TD*%
D13*
%TO.P,H101,1,1*%
%TO.N,GND*%
X212000000Y-58000000D03*
D14*
X212000000Y-58000000D03*
%TD*%
D15*
%TO.P,PP104,1,1*%
%TO.N,/STM32_RST*%
X179500000Y-84200000D03*
%TD*%
%TO.P,PP117,1,1*%
%TO.N,/RF_IN*%
X177900000Y-113000000D03*
%TD*%
%TO.P,PP103,1,1*%
%TO.N,/STM32_SWO*%
X166700000Y-92800000D03*
%TD*%
%TO.P,PP109,1,1*%
%TO.N,/NRF_RST*%
X173700000Y-79100000D03*
%TD*%
D18*
%TO.N,GND*%
X123000000Y-73900000D03*
X123000000Y-66500000D03*
%TO.N,+1V8*%
X121400000Y-100300000D03*
X123600000Y-108000000D03*
%TO.N,/LED_STM32*%
X162200000Y-77700000D03*
X170000000Y-85500000D03*
%TO.N,GND*%
X123710000Y-96540000D03*
X123700000Y-92750000D03*
X123700000Y-94000000D03*
X123600000Y-109270000D03*
X123600000Y-110540000D03*
X123600000Y-113080000D03*
X132000000Y-119500000D03*
X144500000Y-119500000D03*
X146275000Y-67425000D03*
X142275000Y-67425000D03*
X138275000Y-67425000D03*
X134275000Y-67425000D03*
X130500000Y-71000000D03*
X125400000Y-70200000D03*
%TD*%
D19*
%TO.N,+1V8*%
X123600000Y-102500000D02*
X121400000Y-100300000D01*
X123600000Y-108000000D02*
X123600000Y-102500000D01*
%TO.N,/LED_STM32*%
X162200000Y-77700000D02*
X170000000Y-85500000D01*
%TD*%
%TA.AperFunction,Conductor*%
%TO.N,GND*%
G36*
X209796892Y-55314322D02*
G01*
X209841102Y-55352707D01*
X209862772Y-55407097D01*
X209857071Y-55465367D01*
X209847438Y-55480257D01*
X209847255Y-55493703D01*
X212000000Y-57646447D01*
X214503556Y-60150003D01*
X214518840Y-60149382D01*
X214529604Y-60141651D01*
X214588908Y-60133572D01*
X214645088Y-60154212D01*
X214685056Y-60198763D01*
X214699500Y-60256845D01*
X214699500Y-129743153D01*
X214685056Y-129801236D01*
X214645087Y-129845786D01*
X214588907Y-129866426D01*
X214529603Y-129858346D01*
X214518841Y-129850616D01*
X214503556Y-129849994D01*
X212000000Y-132353553D01*
X209847255Y-134506295D01*
X209847438Y-134519736D01*
X209857076Y-134534637D01*
X209862774Y-134592906D01*
X209841103Y-134647295D01*
X209796894Y-134685678D01*
X209740002Y-134699500D01*
X120259996Y-134699500D01*
X120203105Y-134685679D01*
X120158896Y-134647296D01*
X120137224Y-134592909D01*
X120142921Y-134534641D01*
X120152561Y-134519736D01*
X120152743Y-134506295D01*
X118000000Y-132353553D01*
X117646448Y-132000001D01*
X118353553Y-132000001D01*
X120503556Y-134150003D01*
X120630968Y-134000004D01*
X120831781Y-133703829D01*
X120999398Y-133387670D01*
X121131850Y-133055241D01*
X121227580Y-132710451D01*
X121285474Y-132357310D01*
X121304847Y-131999999D01*
X208695152Y-131999999D01*
X208714525Y-132357310D01*
X208772419Y-132710451D01*
X208868149Y-133055241D01*
X209000601Y-133387670D01*
X209168218Y-133703829D01*
X209369031Y-134000004D01*
X209496441Y-134150003D01*
X209496442Y-134150004D01*
X211646447Y-132000001D01*
X211646447Y-132000000D01*
X209496442Y-129849994D01*
X209496441Y-129849995D01*
X209369030Y-129999995D01*
X209168218Y-130296170D01*
X209000601Y-130612329D01*
X208868149Y-130944758D01*
X208772419Y-131289548D01*
X208714525Y-131642689D01*
X208695152Y-131999999D01*
X121304847Y-131999999D01*
X121285474Y-131642689D01*
X121227580Y-131289548D01*
X121131850Y-130944758D01*
X120999398Y-130612329D01*
X120831781Y-130296170D01*
X120800476Y-130249999D01*
X126244356Y-130249999D01*
X126264891Y-130497816D01*
X126264891Y-130497819D01*
X126264892Y-130497821D01*
X126325937Y-130738881D01*
X126370960Y-130841523D01*
X126425825Y-130966604D01*
X126425827Y-130966607D01*
X126561836Y-131174785D01*
X126730256Y-131357738D01*
X126730259Y-131357740D01*
X126926485Y-131510470D01*
X126926487Y-131510471D01*
X126926491Y-131510474D01*
X127145190Y-131628828D01*
X127380386Y-131709571D01*
X127625665Y-131750500D01*
X127874335Y-131750500D01*
X128119614Y-131709571D01*
X128354810Y-131628828D01*
X128573509Y-131510474D01*
X128620872Y-131473610D01*
X131379942Y-131473610D01*
X131426766Y-131510055D01*
X131645393Y-131628368D01*
X131880506Y-131709083D01*
X132125707Y-131750000D01*
X132374293Y-131750000D01*
X132619493Y-131709083D01*
X132854606Y-131628368D01*
X133073233Y-131510053D01*
X133120056Y-131473609D01*
X132250000Y-130603553D01*
X131379942Y-131473609D01*
X131379942Y-131473610D01*
X128620872Y-131473610D01*
X128769744Y-131357738D01*
X128938164Y-131174785D01*
X129074173Y-130966607D01*
X129174063Y-130738881D01*
X129235108Y-130497821D01*
X129255643Y-130250000D01*
X129255643Y-130249999D01*
X130744858Y-130249999D01*
X130765386Y-130497732D01*
X130826413Y-130738721D01*
X130926268Y-130966370D01*
X131026563Y-131119882D01*
X131026564Y-131119882D01*
X131896447Y-130250001D01*
X132603553Y-130250001D01*
X133473434Y-131119882D01*
X133573730Y-130966369D01*
X133673586Y-130738721D01*
X133734613Y-130497732D01*
X133755141Y-130249999D01*
X138744356Y-130249999D01*
X138764891Y-130497816D01*
X138764891Y-130497819D01*
X138764892Y-130497821D01*
X138825937Y-130738881D01*
X138870960Y-130841523D01*
X138925825Y-130966604D01*
X138925827Y-130966607D01*
X139061836Y-131174785D01*
X139230256Y-131357738D01*
X139230259Y-131357740D01*
X139426485Y-131510470D01*
X139426487Y-131510471D01*
X139426491Y-131510474D01*
X139645190Y-131628828D01*
X139880386Y-131709571D01*
X140125665Y-131750500D01*
X140374335Y-131750500D01*
X140619614Y-131709571D01*
X140854810Y-131628828D01*
X141073509Y-131510474D01*
X141120872Y-131473610D01*
X143879942Y-131473610D01*
X143926766Y-131510055D01*
X144145393Y-131628368D01*
X144380506Y-131709083D01*
X144625707Y-131750000D01*
X144874293Y-131750000D01*
X145119493Y-131709083D01*
X145354606Y-131628368D01*
X145573233Y-131510053D01*
X145620056Y-131473609D01*
X144750000Y-130603553D01*
X143879942Y-131473609D01*
X143879942Y-131473610D01*
X141120872Y-131473610D01*
X141269744Y-131357738D01*
X141438164Y-131174785D01*
X141574173Y-130966607D01*
X141674063Y-130738881D01*
X141735108Y-130497821D01*
X141755643Y-130250000D01*
X141755643Y-130249999D01*
X143244858Y-130249999D01*
X143265386Y-130497732D01*
X143326413Y-130738721D01*
X143426268Y-130966370D01*
X143526563Y-131119882D01*
X143526564Y-131119882D01*
X144396447Y-130250001D01*
X145103553Y-130250001D01*
X145973434Y-131119882D01*
X146073730Y-130966369D01*
X146173586Y-130738721D01*
X146234613Y-130497732D01*
X146255141Y-130249999D01*
X146234613Y-130002267D01*
X146173586Y-129761278D01*
X146073730Y-129533630D01*
X145973434Y-129380116D01*
X145103553Y-130250000D01*
X145103553Y-130250001D01*
X144396447Y-130250001D01*
X144396447Y-130250000D01*
X143526564Y-129380116D01*
X143426266Y-129533634D01*
X143326413Y-129761278D01*
X143265386Y-130002267D01*
X143244858Y-130249999D01*
X141755643Y-130249999D01*
X141735108Y-130002179D01*
X141674063Y-129761119D01*
X141576590Y-129538903D01*
X141574174Y-129533395D01*
X141548242Y-129493703D01*
X141438164Y-129325215D01*
X141269744Y-129142262D01*
X141189912Y-129080126D01*
X141120873Y-129026390D01*
X143879942Y-129026390D01*
X144750000Y-129896447D01*
X144750001Y-129896447D01*
X145620057Y-129026390D01*
X145620056Y-129026388D01*
X145573235Y-128989947D01*
X145354606Y-128871631D01*
X145119493Y-128790916D01*
X144874293Y-128750000D01*
X144625707Y-128750000D01*
X144380506Y-128790916D01*
X144145393Y-128871631D01*
X143926764Y-128989946D01*
X143879942Y-129026388D01*
X143879942Y-129026390D01*
X141120873Y-129026390D01*
X141073514Y-128989529D01*
X141073510Y-128989526D01*
X141073509Y-128989526D01*
X140854810Y-128871172D01*
X140854806Y-128871170D01*
X140854805Y-128871170D01*
X140619615Y-128790429D01*
X140374335Y-128749500D01*
X140125665Y-128749500D01*
X139880384Y-128790429D01*
X139645194Y-128871170D01*
X139426485Y-128989529D01*
X139230259Y-129142259D01*
X139061837Y-129325214D01*
X138925825Y-129533395D01*
X138835780Y-129738678D01*
X138825937Y-129761119D01*
X138803273Y-129850616D01*
X138764891Y-130002183D01*
X138744356Y-130249999D01*
X133755141Y-130249999D01*
X133734613Y-130002267D01*
X133673586Y-129761278D01*
X133573730Y-129533630D01*
X133473434Y-129380116D01*
X132603553Y-130250000D01*
X132603553Y-130250001D01*
X131896447Y-130250001D01*
X131896447Y-130250000D01*
X131026564Y-129380116D01*
X130926266Y-129533634D01*
X130826413Y-129761278D01*
X130765386Y-130002267D01*
X130744858Y-130249999D01*
X129255643Y-130249999D01*
X129235108Y-130002179D01*
X129174063Y-129761119D01*
X129076590Y-129538903D01*
X129074174Y-129533395D01*
X129048242Y-129493703D01*
X128938164Y-129325215D01*
X128769744Y-129142262D01*
X128689912Y-129080126D01*
X128620873Y-129026390D01*
X131379942Y-129026390D01*
X132250000Y-129896447D01*
X132250001Y-129896447D01*
X133120057Y-129026390D01*
X133120056Y-129026388D01*
X133073235Y-128989947D01*
X132854606Y-128871631D01*
X132619493Y-128790916D01*
X132374293Y-128750000D01*
X132125707Y-128750000D01*
X131880506Y-128790916D01*
X131645393Y-128871631D01*
X131426764Y-128989946D01*
X131379942Y-129026388D01*
X131379942Y-129026390D01*
X128620873Y-129026390D01*
X128573514Y-128989529D01*
X128573510Y-128989526D01*
X128573509Y-128989526D01*
X128354810Y-128871172D01*
X128354806Y-128871170D01*
X128354805Y-128871170D01*
X128119615Y-128790429D01*
X127874335Y-128749500D01*
X127625665Y-128749500D01*
X127380384Y-128790429D01*
X127145194Y-128871170D01*
X126926485Y-128989529D01*
X126730259Y-129142259D01*
X126561837Y-129325214D01*
X126425825Y-129533395D01*
X126335780Y-129738678D01*
X126325937Y-129761119D01*
X126303273Y-129850616D01*
X126264891Y-130002183D01*
X126244356Y-130249999D01*
X120800476Y-130249999D01*
X120630968Y-129999995D01*
X120503557Y-129849995D01*
X120503556Y-129849994D01*
X118353553Y-131999999D01*
X118353553Y-132000001D01*
X117646448Y-132000001D01*
X115496442Y-129849994D01*
X115481156Y-129850616D01*
X115470397Y-129858345D01*
X115411093Y-129866425D01*
X115354913Y-129845785D01*
X115314945Y-129801235D01*
X115300500Y-129743152D01*
X115300500Y-129493703D01*
X115847255Y-129493703D01*
X118000000Y-131646447D01*
X118000001Y-131646447D01*
X120152743Y-129493703D01*
X120152742Y-129493702D01*
X120139514Y-129481171D01*
X119854636Y-129264613D01*
X119548015Y-129080126D01*
X119223253Y-128929875D01*
X118884140Y-128815614D01*
X118534664Y-128738689D01*
X118178922Y-128700000D01*
X117821078Y-128700000D01*
X117465335Y-128738689D01*
X117115859Y-128815614D01*
X116776746Y-128929875D01*
X116451984Y-129080126D01*
X116145363Y-129264613D01*
X115860486Y-129481170D01*
X115847256Y-129493702D01*
X115847255Y-129493703D01*
X115300500Y-129493703D01*
X115300500Y-128265000D01*
X172589340Y-128265000D01*
X172609936Y-128500407D01*
X172654709Y-128667502D01*
X172671097Y-128728663D01*
X172770965Y-128942830D01*
X172906505Y-129136401D01*
X173073599Y-129303495D01*
X173267170Y-129439035D01*
X173481337Y-129538903D01*
X173709592Y-129600063D01*
X173945000Y-129620659D01*
X174180408Y-129600063D01*
X174408663Y-129538903D01*
X174622830Y-129439035D01*
X174816401Y-129303495D01*
X174983495Y-129136401D01*
X175113426Y-128950839D01*
X175157743Y-128911975D01*
X175215000Y-128897964D01*
X175272257Y-128911975D01*
X175316573Y-128950839D01*
X175446505Y-129136401D01*
X175613599Y-129303495D01*
X175807170Y-129439035D01*
X176021337Y-129538903D01*
X176249592Y-129600063D01*
X176485000Y-129620659D01*
X176720408Y-129600063D01*
X176948663Y-129538903D01*
X177162830Y-129439035D01*
X177356401Y-129303495D01*
X177523495Y-129136401D01*
X177653426Y-128950839D01*
X177697743Y-128911975D01*
X177755000Y-128897964D01*
X177812257Y-128911975D01*
X177856573Y-128950839D01*
X177986505Y-129136401D01*
X178153599Y-129303495D01*
X178347170Y-129439035D01*
X178561337Y-129538903D01*
X178789592Y-129600063D01*
X179025000Y-129620659D01*
X179260408Y-129600063D01*
X179488663Y-129538903D01*
X179585594Y-129493703D01*
X209847255Y-129493703D01*
X212000000Y-131646447D01*
X212000001Y-131646447D01*
X214152743Y-129493703D01*
X214152742Y-129493702D01*
X214139514Y-129481171D01*
X213854636Y-129264613D01*
X213548015Y-129080126D01*
X213223253Y-128929875D01*
X212884140Y-128815614D01*
X212534664Y-128738689D01*
X212178922Y-128700000D01*
X211821078Y-128700000D01*
X211465335Y-128738689D01*
X211115859Y-128815614D01*
X210776746Y-128929875D01*
X210451984Y-129080126D01*
X210145363Y-129264613D01*
X209860486Y-129481170D01*
X209847256Y-129493702D01*
X209847255Y-129493703D01*
X179585594Y-129493703D01*
X179702830Y-129439035D01*
X179896401Y-129303495D01*
X180063495Y-129136401D01*
X180199035Y-128942830D01*
X180298903Y-128728663D01*
X180360063Y-128500408D01*
X180380659Y-128265000D01*
X180360063Y-128029592D01*
X180298903Y-127801337D01*
X180199035Y-127587171D01*
X180063495Y-127393599D01*
X179941181Y-127271285D01*
X179909885Y-127218539D01*
X179907696Y-127157246D01*
X179935149Y-127102401D01*
X179985528Y-127067422D01*
X180117089Y-127018352D01*
X180232188Y-126932188D01*
X180318352Y-126817089D01*
X180368597Y-126682375D01*
X180375000Y-126622824D01*
X180375000Y-125975000D01*
X172614364Y-125975000D01*
X172671569Y-126188492D01*
X172771399Y-126402576D01*
X172906893Y-126596081D01*
X173073918Y-126763106D01*
X173259595Y-126893119D01*
X173298460Y-126937437D01*
X173312471Y-126994694D01*
X173298460Y-127051951D01*
X173259595Y-127096269D01*
X173073595Y-127226508D01*
X172906505Y-127393598D01*
X172770965Y-127587170D01*
X172671097Y-127801336D01*
X172609936Y-128029592D01*
X172589340Y-128265000D01*
X115300500Y-128265000D01*
X115300500Y-125475000D01*
X172614364Y-125475000D01*
X173695000Y-125475000D01*
X174195000Y-125475000D01*
X176235000Y-125475000D01*
X176735000Y-125475000D01*
X178775000Y-125475000D01*
X178775000Y-124375000D01*
X179275000Y-124375000D01*
X179275000Y-125475000D01*
X180375000Y-125475000D01*
X180375000Y-124827176D01*
X180368597Y-124767624D01*
X180318352Y-124632910D01*
X180232188Y-124517811D01*
X180117089Y-124431647D01*
X179982375Y-124381402D01*
X179922824Y-124375000D01*
X179275000Y-124375000D01*
X178775000Y-124375000D01*
X178127176Y-124375000D01*
X178067624Y-124381402D01*
X177932910Y-124431647D01*
X177817811Y-124517811D01*
X177731647Y-124632911D01*
X177682385Y-124764987D01*
X177647405Y-124815366D01*
X177592561Y-124842819D01*
X177531268Y-124840630D01*
X177478522Y-124809334D01*
X177356081Y-124686893D01*
X177162576Y-124551399D01*
X176948492Y-124451569D01*
X176735000Y-124394364D01*
X176735000Y-125475000D01*
X176235000Y-125475000D01*
X176235000Y-124394364D01*
X176234999Y-124394364D01*
X176021507Y-124451569D01*
X175807421Y-124551400D01*
X175613921Y-124686890D01*
X175446893Y-124853918D01*
X175316575Y-125040032D01*
X175272257Y-125078897D01*
X175215000Y-125092908D01*
X175157743Y-125078897D01*
X175113425Y-125040032D01*
X174983106Y-124853918D01*
X174816081Y-124686893D01*
X174622576Y-124551399D01*
X174408492Y-124451569D01*
X174195000Y-124394364D01*
X174195000Y-125475000D01*
X173695000Y-125475000D01*
X173695000Y-124394364D01*
X173694999Y-124394364D01*
X173481507Y-124451569D01*
X173267421Y-124551400D01*
X173073921Y-124686890D01*
X172906890Y-124853921D01*
X172771400Y-125047421D01*
X172671569Y-125261507D01*
X172614364Y-125474999D01*
X172614364Y-125475000D01*
X115300500Y-125475000D01*
X115300500Y-123749999D01*
X126244356Y-123749999D01*
X126264891Y-123997816D01*
X126264891Y-123997819D01*
X126264892Y-123997821D01*
X126325937Y-124238881D01*
X126370960Y-124341523D01*
X126425825Y-124466604D01*
X126425827Y-124466607D01*
X126561836Y-124674785D01*
X126730256Y-124857738D01*
X126730259Y-124857740D01*
X126926485Y-125010470D01*
X126926487Y-125010471D01*
X126926491Y-125010474D01*
X127145190Y-125128828D01*
X127380386Y-125209571D01*
X127625665Y-125250500D01*
X127874335Y-125250500D01*
X128119614Y-125209571D01*
X128354810Y-125128828D01*
X128573509Y-125010474D01*
X128620872Y-124973610D01*
X131379942Y-124973610D01*
X131426766Y-125010055D01*
X131645393Y-125128368D01*
X131880506Y-125209083D01*
X132125707Y-125250000D01*
X132374293Y-125250000D01*
X132619493Y-125209083D01*
X132854606Y-125128368D01*
X133073233Y-125010053D01*
X133120056Y-124973609D01*
X132250000Y-124103553D01*
X131379942Y-124973609D01*
X131379942Y-124973610D01*
X128620872Y-124973610D01*
X128769744Y-124857738D01*
X128938164Y-124674785D01*
X129074173Y-124466607D01*
X129174063Y-124238881D01*
X129235108Y-123997821D01*
X129255643Y-123750000D01*
X129255643Y-123749999D01*
X130744858Y-123749999D01*
X130765386Y-123997732D01*
X130826413Y-124238721D01*
X130926268Y-124466370D01*
X131026563Y-124619882D01*
X131026564Y-124619882D01*
X131896447Y-123750001D01*
X132603553Y-123750001D01*
X133473434Y-124619882D01*
X133573730Y-124466369D01*
X133673586Y-124238721D01*
X133734613Y-123997732D01*
X133755141Y-123749999D01*
X138744356Y-123749999D01*
X138764891Y-123997816D01*
X138764891Y-123997819D01*
X138764892Y-123997821D01*
X138825937Y-124238881D01*
X138870960Y-124341523D01*
X138925825Y-124466604D01*
X138925827Y-124466607D01*
X139061836Y-124674785D01*
X139230256Y-124857738D01*
X139230259Y-124857740D01*
X139426485Y-125010470D01*
X139426487Y-125010471D01*
X139426491Y-125010474D01*
X139645190Y-125128828D01*
X139880386Y-125209571D01*
X140125665Y-125250500D01*
X140374335Y-125250500D01*
X140619614Y-125209571D01*
X140854810Y-125128828D01*
X141073509Y-125010474D01*
X141120872Y-124973610D01*
X143879942Y-124973610D01*
X143926766Y-125010055D01*
X144145393Y-125128368D01*
X144380506Y-125209083D01*
X144625707Y-125250000D01*
X144874293Y-125250000D01*
X145119493Y-125209083D01*
X145354606Y-125128368D01*
X145573233Y-125010053D01*
X145620056Y-124973609D01*
X144750000Y-124103553D01*
X143879942Y-124973609D01*
X143879942Y-124973610D01*
X141120872Y-124973610D01*
X141269744Y-124857738D01*
X141438164Y-124674785D01*
X141574173Y-124466607D01*
X141674063Y-124238881D01*
X141735108Y-123997821D01*
X141755643Y-123750000D01*
X141755643Y-123749999D01*
X143244858Y-123749999D01*
X143265386Y-123997732D01*
X143326413Y-124238721D01*
X143426268Y-124466370D01*
X143526563Y-124619882D01*
X143526564Y-124619882D01*
X144396447Y-123750001D01*
X145103553Y-123750001D01*
X145973434Y-124619882D01*
X146073730Y-124466369D01*
X146173586Y-124238721D01*
X146234613Y-123997732D01*
X146255141Y-123749999D01*
X146234613Y-123502267D01*
X146173586Y-123261278D01*
X146073730Y-123033630D01*
X145973434Y-122880116D01*
X145103553Y-123750000D01*
X145103553Y-123750001D01*
X144396447Y-123750001D01*
X144396447Y-123750000D01*
X143526564Y-122880116D01*
X143426266Y-123033634D01*
X143326413Y-123261278D01*
X143265386Y-123502267D01*
X143244858Y-123749999D01*
X141755643Y-123749999D01*
X141735108Y-123502179D01*
X141674063Y-123261119D01*
X141574173Y-123033393D01*
X141438164Y-122825215D01*
X141269744Y-122642262D01*
X141247612Y-122625036D01*
X141120873Y-122526390D01*
X143879942Y-122526390D01*
X144750000Y-123396447D01*
X144750001Y-123396447D01*
X145620057Y-122526390D01*
X145620056Y-122526388D01*
X145573235Y-122489947D01*
X145354606Y-122371631D01*
X145119493Y-122290916D01*
X144874293Y-122250000D01*
X144625707Y-122250000D01*
X144380506Y-122290916D01*
X144145393Y-122371631D01*
X143926764Y-122489946D01*
X143879942Y-122526388D01*
X143879942Y-122526390D01*
X141120873Y-122526390D01*
X141073514Y-122489529D01*
X141073510Y-122489526D01*
X141073509Y-122489526D01*
X140854810Y-122371172D01*
X140854806Y-122371170D01*
X140854805Y-122371170D01*
X140619615Y-122290429D01*
X140374335Y-122249500D01*
X140125665Y-122249500D01*
X139880384Y-122290429D01*
X139645194Y-122371170D01*
X139426485Y-122489529D01*
X139230259Y-122642259D01*
X139061837Y-122825214D01*
X138925825Y-123033395D01*
X138825938Y-123261117D01*
X138764891Y-123502183D01*
X138744356Y-123749999D01*
X133755141Y-123749999D01*
X133734613Y-123502267D01*
X133673586Y-123261278D01*
X133573730Y-123033630D01*
X133473434Y-122880116D01*
X132603553Y-123750000D01*
X132603553Y-123750001D01*
X131896447Y-123750001D01*
X131896447Y-123750000D01*
X131026564Y-122880116D01*
X130926266Y-123033634D01*
X130826413Y-123261278D01*
X130765386Y-123502267D01*
X130744858Y-123749999D01*
X129255643Y-123749999D01*
X129235108Y-123502179D01*
X129174063Y-123261119D01*
X129074173Y-123033393D01*
X128938164Y-122825215D01*
X128769744Y-122642262D01*
X128747612Y-122625036D01*
X128620873Y-122526390D01*
X131379942Y-122526390D01*
X132250000Y-123396447D01*
X132250001Y-123396447D01*
X133120057Y-122526390D01*
X133120056Y-122526388D01*
X133073235Y-122489947D01*
X132854606Y-122371631D01*
X132619493Y-122290916D01*
X132374293Y-122250000D01*
X132125707Y-122250000D01*
X131880506Y-122290916D01*
X131645393Y-122371631D01*
X131426764Y-122489946D01*
X131379942Y-122526388D01*
X131379942Y-122526390D01*
X128620873Y-122526390D01*
X128573514Y-122489529D01*
X128573510Y-122489526D01*
X128573509Y-122489526D01*
X128354810Y-122371172D01*
X128354806Y-122371170D01*
X128354805Y-122371170D01*
X128119615Y-122290429D01*
X127874335Y-122249500D01*
X127625665Y-122249500D01*
X127380384Y-122290429D01*
X127145194Y-122371170D01*
X126926485Y-122489529D01*
X126730259Y-122642259D01*
X126561837Y-122825214D01*
X126425825Y-123033395D01*
X126325938Y-123261117D01*
X126264891Y-123502183D01*
X126244356Y-123749999D01*
X115300500Y-123749999D01*
X115300500Y-121006295D01*
X152347255Y-121006295D01*
X152347256Y-121006296D01*
X152360485Y-121018828D01*
X152645363Y-121235386D01*
X152951984Y-121419873D01*
X153276746Y-121570124D01*
X153615859Y-121684385D01*
X153965335Y-121761310D01*
X154321078Y-121800000D01*
X154678922Y-121800000D01*
X155034664Y-121761310D01*
X155384140Y-121684385D01*
X155723253Y-121570124D01*
X156048015Y-121419873D01*
X156354636Y-121235386D01*
X156639515Y-121018827D01*
X156652742Y-121006297D01*
X156652743Y-121006295D01*
X196347255Y-121006295D01*
X196347256Y-121006296D01*
X196360485Y-121018828D01*
X196645363Y-121235386D01*
X196951984Y-121419873D01*
X197276746Y-121570124D01*
X197615859Y-121684385D01*
X197965335Y-121761310D01*
X198321078Y-121800000D01*
X198678922Y-121800000D01*
X199034664Y-121761310D01*
X199384140Y-121684385D01*
X199723253Y-121570124D01*
X200048015Y-121419873D01*
X200354636Y-121235386D01*
X200639515Y-121018827D01*
X200652742Y-121006297D01*
X200652743Y-121006295D01*
X198500000Y-118853553D01*
X196347255Y-121006295D01*
X156652743Y-121006295D01*
X154500000Y-118853553D01*
X152347255Y-121006295D01*
X115300500Y-121006295D01*
X115300500Y-118500000D01*
X151195152Y-118500000D01*
X151214525Y-118857310D01*
X151272419Y-119210451D01*
X151368149Y-119555241D01*
X151500601Y-119887670D01*
X151668218Y-120203829D01*
X151869031Y-120500004D01*
X151996441Y-120650003D01*
X151996442Y-120650004D01*
X154146447Y-118500001D01*
X154853553Y-118500001D01*
X157003556Y-120650003D01*
X157130968Y-120500004D01*
X157331781Y-120203829D01*
X157499398Y-119887670D01*
X157631850Y-119555241D01*
X157727580Y-119210451D01*
X157785474Y-118857310D01*
X157804847Y-118500000D01*
X195195152Y-118500000D01*
X195214525Y-118857310D01*
X195272419Y-119210451D01*
X195368149Y-119555241D01*
X195500601Y-119887670D01*
X195668218Y-120203829D01*
X195869031Y-120500004D01*
X195996441Y-120650003D01*
X195996442Y-120650004D01*
X198146447Y-118500001D01*
X198853553Y-118500001D01*
X201003556Y-120650003D01*
X201130968Y-120500004D01*
X201331781Y-120203829D01*
X201499398Y-119887670D01*
X201631850Y-119555241D01*
X201727580Y-119210451D01*
X201785474Y-118857310D01*
X201804847Y-118500000D01*
X201785474Y-118142689D01*
X201727580Y-117789548D01*
X201631850Y-117444758D01*
X201499398Y-117112329D01*
X201331781Y-116796170D01*
X201130968Y-116499995D01*
X201003557Y-116349995D01*
X201003556Y-116349994D01*
X198853553Y-118499999D01*
X198853553Y-118500001D01*
X198146447Y-118500001D01*
X198146447Y-118499999D01*
X195996442Y-116349994D01*
X195996441Y-116349995D01*
X195869030Y-116499995D01*
X195668218Y-116796170D01*
X195500601Y-117112329D01*
X195368149Y-117444758D01*
X195272419Y-117789548D01*
X195214525Y-118142689D01*
X195195152Y-118500000D01*
X157804847Y-118500000D01*
X157785474Y-118142689D01*
X157727580Y-117789548D01*
X157631850Y-117444758D01*
X157499398Y-117112329D01*
X157331781Y-116796170D01*
X157130968Y-116499995D01*
X157003557Y-116349995D01*
X157003556Y-116349994D01*
X154853553Y-118500000D01*
X154853553Y-118500001D01*
X154146447Y-118500001D01*
X154146447Y-118500000D01*
X151996442Y-116349994D01*
X151996441Y-116349995D01*
X151869030Y-116499995D01*
X151668218Y-116796170D01*
X151500601Y-117112329D01*
X151368149Y-117444758D01*
X151272419Y-117789548D01*
X151214525Y-118142689D01*
X151195152Y-118500000D01*
X115300500Y-118500000D01*
X115300500Y-115993703D01*
X152347255Y-115993703D01*
X154500000Y-118146447D01*
X154500001Y-118146447D01*
X156652743Y-115993703D01*
X196347255Y-115993703D01*
X198500000Y-118146447D01*
X198500001Y-118146447D01*
X200652743Y-115993703D01*
X200652742Y-115993702D01*
X200639514Y-115981171D01*
X200354636Y-115764613D01*
X200048015Y-115580126D01*
X199723253Y-115429875D01*
X199384140Y-115315614D01*
X199034664Y-115238689D01*
X198678922Y-115200000D01*
X198321078Y-115200000D01*
X197965335Y-115238689D01*
X197615859Y-115315614D01*
X197276746Y-115429875D01*
X196951984Y-115580126D01*
X196645363Y-115764613D01*
X196360486Y-115981170D01*
X196347256Y-115993702D01*
X196347255Y-115993703D01*
X156652743Y-115993703D01*
X156652742Y-115993702D01*
X156639514Y-115981171D01*
X156354636Y-115764613D01*
X156048015Y-115580126D01*
X155723253Y-115429875D01*
X155384140Y-115315614D01*
X155034664Y-115238689D01*
X154678922Y-115200000D01*
X154321078Y-115200000D01*
X153965335Y-115238689D01*
X153615859Y-115315614D01*
X153276746Y-115429875D01*
X152951984Y-115580126D01*
X152645363Y-115764613D01*
X152360486Y-115981170D01*
X152347256Y-115993702D01*
X152347255Y-115993703D01*
X115300500Y-115993703D01*
X115300500Y-112999999D01*
X176144591Y-112999999D01*
X176164197Y-113261627D01*
X176222580Y-113517418D01*
X176318431Y-113761641D01*
X176318432Y-113761643D01*
X176449614Y-113988857D01*
X176613195Y-114193981D01*
X176613197Y-114193983D01*
X176613198Y-114193984D01*
X176805514Y-114372428D01*
X176805520Y-114372432D01*
X176805521Y-114372433D01*
X177022296Y-114520228D01*
X177258677Y-114634063D01*
X177509385Y-114711396D01*
X177768818Y-114750500D01*
X178031182Y-114750500D01*
X178290615Y-114711396D01*
X178541323Y-114634063D01*
X178777704Y-114520228D01*
X178994479Y-114372433D01*
X178994482Y-114372429D01*
X178994485Y-114372428D01*
X179079792Y-114293273D01*
X179177386Y-114202720D01*
X180250831Y-114202720D01*
X180422546Y-114319793D01*
X180658860Y-114433596D01*
X180909496Y-114510908D01*
X181168856Y-114550000D01*
X181431144Y-114550000D01*
X181690503Y-114510908D01*
X181941139Y-114433596D01*
X182177456Y-114319792D01*
X182349167Y-114202720D01*
X181300001Y-113153553D01*
X181300000Y-113153553D01*
X180250831Y-114202720D01*
X179177386Y-114202720D01*
X179186805Y-114193981D01*
X179350386Y-113988857D01*
X179481568Y-113761643D01*
X179530314Y-113637437D01*
X179572108Y-113582971D01*
X179636475Y-113559088D01*
X179703683Y-113573111D01*
X179753129Y-113620741D01*
X179850027Y-113788573D01*
X179897873Y-113848571D01*
X179897874Y-113848571D01*
X180946446Y-112800001D01*
X180946446Y-112800000D01*
X181653553Y-112800000D01*
X182702124Y-113848571D01*
X182749972Y-113788572D01*
X182881117Y-113561423D01*
X182976940Y-113317270D01*
X183035306Y-113061552D01*
X183054907Y-112799999D01*
X183035306Y-112538447D01*
X182976940Y-112282729D01*
X182881117Y-112038575D01*
X182749972Y-111811426D01*
X182702125Y-111751427D01*
X181653553Y-112800000D01*
X180946446Y-112800000D01*
X180946446Y-112799999D01*
X179897873Y-111751427D01*
X179850028Y-111811424D01*
X179718883Y-112038574D01*
X179670238Y-112162520D01*
X179628443Y-112216987D01*
X179564076Y-112240870D01*
X179496868Y-112226847D01*
X179447424Y-112179218D01*
X179350386Y-112011143D01*
X179186805Y-111806019D01*
X179127969Y-111751427D01*
X178994485Y-111627571D01*
X178913605Y-111572428D01*
X178777704Y-111479772D01*
X178606403Y-111397278D01*
X180250832Y-111397278D01*
X181300000Y-112446446D01*
X181300001Y-112446446D01*
X182349167Y-111397278D01*
X182177451Y-111280205D01*
X181941139Y-111166403D01*
X181690503Y-111089091D01*
X181431144Y-111050000D01*
X181168856Y-111050000D01*
X180909496Y-111089091D01*
X180658860Y-111166403D01*
X180422545Y-111280206D01*
X180250832Y-111397278D01*
X178606403Y-111397278D01*
X178541323Y-111365937D01*
X178290615Y-111288604D01*
X178031182Y-111249500D01*
X177768818Y-111249500D01*
X177509385Y-111288604D01*
X177258677Y-111365937D01*
X177022296Y-111479772D01*
X176952922Y-111527070D01*
X176805514Y-111627571D01*
X176613198Y-111806015D01*
X176449613Y-112011143D01*
X176318431Y-112238358D01*
X176222580Y-112482581D01*
X176164197Y-112738372D01*
X176144591Y-112999999D01*
X115300500Y-112999999D01*
X115300500Y-110199999D01*
X183944591Y-110199999D01*
X183964197Y-110461627D01*
X184022580Y-110717418D01*
X184118431Y-110961641D01*
X184118432Y-110961643D01*
X184249614Y-111188857D01*
X184413195Y-111393981D01*
X184413197Y-111393983D01*
X184413198Y-111393984D01*
X184605514Y-111572428D01*
X184605520Y-111572432D01*
X184605521Y-111572433D01*
X184822296Y-111720228D01*
X185058677Y-111834063D01*
X185309385Y-111911396D01*
X185568818Y-111950500D01*
X185831182Y-111950500D01*
X186090615Y-111911396D01*
X186341323Y-111834063D01*
X186577704Y-111720228D01*
X186794479Y-111572433D01*
X186794482Y-111572429D01*
X186794485Y-111572428D01*
X186894345Y-111479771D01*
X186986805Y-111393981D01*
X187150386Y-111188857D01*
X187281568Y-110961643D01*
X187377420Y-110717416D01*
X187435802Y-110461630D01*
X187455408Y-110200000D01*
X187435802Y-109938370D01*
X187377420Y-109682584D01*
X187330336Y-109562617D01*
X187322444Y-109504356D01*
X187342278Y-109449006D01*
X187385378Y-109409014D01*
X187442055Y-109393373D01*
X187499566Y-109405597D01*
X187506662Y-109409014D01*
X187558677Y-109434063D01*
X187809385Y-109511396D01*
X188068818Y-109550500D01*
X188331182Y-109550500D01*
X188590615Y-109511396D01*
X188841323Y-109434063D01*
X189077704Y-109320228D01*
X189294479Y-109172433D01*
X189294482Y-109172429D01*
X189294485Y-109172428D01*
X189379792Y-109093273D01*
X189486805Y-108993981D01*
X189650386Y-108788857D01*
X189781568Y-108561643D01*
X189877420Y-108317416D01*
X189935802Y-108061630D01*
X189955408Y-107800000D01*
X189935802Y-107538370D01*
X189877420Y-107282584D01*
X189781568Y-107038357D01*
X189650386Y-106811143D01*
X189486805Y-106606019D01*
X189486801Y-106606015D01*
X189294485Y-106427571D01*
X189277170Y-106415766D01*
X189077704Y-106279772D01*
X188841323Y-106165937D01*
X188590615Y-106088604D01*
X188331182Y-106049500D01*
X188068818Y-106049500D01*
X187809385Y-106088604D01*
X187558677Y-106165937D01*
X187322296Y-106279772D01*
X187252922Y-106327070D01*
X187105514Y-106427571D01*
X186913198Y-106606015D01*
X186749613Y-106811143D01*
X186618431Y-107038358D01*
X186522580Y-107282581D01*
X186464197Y-107538372D01*
X186444591Y-107800000D01*
X186464197Y-108061627D01*
X186522580Y-108317418D01*
X186569662Y-108437380D01*
X186577555Y-108495644D01*
X186557721Y-108550993D01*
X186514621Y-108590984D01*
X186457944Y-108606626D01*
X186400433Y-108594403D01*
X186341323Y-108565937D01*
X186090615Y-108488604D01*
X185831182Y-108449500D01*
X185568818Y-108449500D01*
X185309385Y-108488604D01*
X185058677Y-108565937D01*
X184822296Y-108679772D01*
X184752922Y-108727070D01*
X184605514Y-108827571D01*
X184413198Y-109006015D01*
X184249613Y-109211143D01*
X184118431Y-109438358D01*
X184022580Y-109682581D01*
X183964197Y-109938372D01*
X183944591Y-110199999D01*
X115300500Y-110199999D01*
X115300500Y-100300000D01*
X120494540Y-100300000D01*
X120500254Y-100354369D01*
X120514326Y-100488257D01*
X120572820Y-100668284D01*
X120667466Y-100832216D01*
X120794129Y-100972889D01*
X120947269Y-101084151D01*
X121120197Y-101161144D01*
X121305352Y-101200500D01*
X121305354Y-101200500D01*
X121364548Y-101200500D01*
X121412001Y-101209939D01*
X121452229Y-101236819D01*
X122938181Y-102722772D01*
X122965061Y-102763000D01*
X122974500Y-102810453D01*
X122974500Y-107301313D01*
X122966264Y-107345751D01*
X122942652Y-107384282D01*
X122909545Y-107421051D01*
X122867464Y-107467786D01*
X122772820Y-107631715D01*
X122714326Y-107811742D01*
X122694540Y-107999999D01*
X122714326Y-108188257D01*
X122772820Y-108368284D01*
X122867466Y-108532216D01*
X122994129Y-108672889D01*
X123147269Y-108784151D01*
X123320197Y-108861144D01*
X123505352Y-108900500D01*
X123505354Y-108900500D01*
X123694646Y-108900500D01*
X123694648Y-108900500D01*
X123818084Y-108874262D01*
X123879803Y-108861144D01*
X124052730Y-108784151D01*
X124196396Y-108679772D01*
X124205870Y-108672889D01*
X124332533Y-108532216D01*
X124427179Y-108368284D01*
X124443707Y-108317416D01*
X124485674Y-108188256D01*
X124505460Y-108000000D01*
X124485674Y-107811744D01*
X124427179Y-107631716D01*
X124427179Y-107631715D01*
X124332535Y-107467786D01*
X124319427Y-107453229D01*
X124257347Y-107384282D01*
X124233736Y-107345751D01*
X124225500Y-107301313D01*
X124225500Y-102582744D01*
X124227764Y-102562237D01*
X124225561Y-102492127D01*
X124225500Y-102488232D01*
X124225500Y-102460653D01*
X124224997Y-102456672D01*
X124224080Y-102445019D01*
X124222709Y-102401373D01*
X124217120Y-102382140D01*
X124213174Y-102363082D01*
X124210664Y-102343206D01*
X124194588Y-102302604D01*
X124190804Y-102291553D01*
X124184881Y-102271168D01*
X124178618Y-102249610D01*
X124168414Y-102232355D01*
X124159861Y-102214895D01*
X124152486Y-102196269D01*
X124152486Y-102196268D01*
X124126808Y-102160925D01*
X124120401Y-102151171D01*
X124098169Y-102113579D01*
X124084006Y-102099416D01*
X124071367Y-102084617D01*
X124059595Y-102068413D01*
X124025941Y-102040573D01*
X124017299Y-102032709D01*
X122338960Y-100354369D01*
X122314720Y-100320071D01*
X122303321Y-100279655D01*
X122285674Y-100111744D01*
X122227179Y-99931716D01*
X122227179Y-99931715D01*
X122132533Y-99767783D01*
X122005870Y-99627110D01*
X121852730Y-99515848D01*
X121679802Y-99438855D01*
X121494648Y-99399500D01*
X121494646Y-99399500D01*
X121305354Y-99399500D01*
X121305352Y-99399500D01*
X121120197Y-99438855D01*
X120947269Y-99515848D01*
X120794129Y-99627110D01*
X120667466Y-99767783D01*
X120572820Y-99931715D01*
X120514326Y-100111742D01*
X120496679Y-100279649D01*
X120494540Y-100300000D01*
X115300500Y-100300000D01*
X115300500Y-96402720D01*
X163750831Y-96402720D01*
X163922546Y-96519793D01*
X164158860Y-96633596D01*
X164409496Y-96710908D01*
X164668856Y-96750000D01*
X164931142Y-96750000D01*
X165013763Y-96737546D01*
X165080411Y-96745898D01*
X165132926Y-96787776D01*
X165155899Y-96850894D01*
X165164197Y-96961627D01*
X165222580Y-97217418D01*
X165318431Y-97461641D01*
X165449613Y-97688856D01*
X165599422Y-97876710D01*
X165624591Y-97932490D01*
X165620018Y-97993515D01*
X165586817Y-98044921D01*
X165413195Y-98206018D01*
X165249613Y-98411143D01*
X165118431Y-98638358D01*
X165022580Y-98882581D01*
X164964197Y-99138372D01*
X164944591Y-99399999D01*
X164964197Y-99661627D01*
X165022580Y-99917418D01*
X165028192Y-99931716D01*
X165118432Y-100161643D01*
X165249614Y-100388857D01*
X165413195Y-100593981D01*
X165413197Y-100593983D01*
X165413198Y-100593984D01*
X165605514Y-100772428D01*
X165605520Y-100772432D01*
X165605521Y-100772433D01*
X165822296Y-100920228D01*
X166058677Y-101034063D01*
X166309385Y-101111396D01*
X166568818Y-101150500D01*
X166831182Y-101150500D01*
X167090615Y-101111396D01*
X167341323Y-101034063D01*
X167577704Y-100920228D01*
X167794479Y-100772433D01*
X167794482Y-100772429D01*
X167794485Y-100772428D01*
X167906725Y-100668284D01*
X167986805Y-100593981D01*
X168150386Y-100388857D01*
X168281568Y-100161643D01*
X168377420Y-99917416D01*
X168435802Y-99661630D01*
X168455408Y-99400000D01*
X168435802Y-99138370D01*
X168377420Y-98882584D01*
X168281568Y-98638357D01*
X168150386Y-98411143D01*
X168000576Y-98223287D01*
X167975408Y-98167508D01*
X167979981Y-98106483D01*
X168013180Y-98055080D01*
X168186805Y-97893981D01*
X168350386Y-97688857D01*
X168481568Y-97461643D01*
X168577420Y-97217416D01*
X168635802Y-96961630D01*
X168655408Y-96700000D01*
X168635802Y-96438370D01*
X168577420Y-96182584D01*
X168481568Y-95938357D01*
X168350386Y-95711143D01*
X168186805Y-95506019D01*
X168186801Y-95506015D01*
X167994485Y-95327571D01*
X167977170Y-95315766D01*
X167777704Y-95179772D01*
X167612054Y-95099999D01*
X174444591Y-95099999D01*
X174464197Y-95361627D01*
X174522580Y-95617418D01*
X174559365Y-95711143D01*
X174618432Y-95861643D01*
X174749614Y-96088857D01*
X174913195Y-96293981D01*
X174913197Y-96293983D01*
X174913198Y-96293984D01*
X175105514Y-96472428D01*
X175105520Y-96472432D01*
X175105521Y-96472433D01*
X175322296Y-96620228D01*
X175558677Y-96734063D01*
X175809385Y-96811396D01*
X176068818Y-96850500D01*
X176331182Y-96850500D01*
X176590615Y-96811396D01*
X176841323Y-96734063D01*
X177077704Y-96620228D01*
X177294479Y-96472433D01*
X177294482Y-96472429D01*
X177294485Y-96472428D01*
X177379792Y-96393273D01*
X177486805Y-96293981D01*
X177650386Y-96088857D01*
X177781568Y-95861643D01*
X177877420Y-95617416D01*
X177935802Y-95361630D01*
X177955408Y-95100000D01*
X177935802Y-94838370D01*
X177877420Y-94582584D01*
X177847823Y-94507172D01*
X177840373Y-94445225D01*
X177864034Y-94387492D01*
X177912816Y-94348590D01*
X177974367Y-94338369D01*
X178033102Y-94359416D01*
X178122296Y-94420228D01*
X178358677Y-94534063D01*
X178609385Y-94611396D01*
X178868818Y-94650500D01*
X179131182Y-94650500D01*
X179390615Y-94611396D01*
X179641323Y-94534063D01*
X179877704Y-94420228D01*
X180094479Y-94272433D01*
X180094482Y-94272429D01*
X180094485Y-94272428D01*
X180179792Y-94193273D01*
X180286805Y-94093981D01*
X180450386Y-93888857D01*
X180581568Y-93661643D01*
X180677420Y-93417416D01*
X180735802Y-93161630D01*
X180755408Y-92900000D01*
X180735802Y-92638370D01*
X180677420Y-92382584D01*
X180581568Y-92138357D01*
X180450386Y-91911143D01*
X180286805Y-91706019D01*
X180286801Y-91706015D01*
X180094485Y-91527571D01*
X180077170Y-91515766D01*
X179877704Y-91379772D01*
X179641323Y-91265937D01*
X179390615Y-91188604D01*
X179131182Y-91149500D01*
X178868818Y-91149500D01*
X178609385Y-91188604D01*
X178358677Y-91265937D01*
X178122296Y-91379772D01*
X178052922Y-91427070D01*
X177905514Y-91527571D01*
X177713198Y-91706015D01*
X177549613Y-91911143D01*
X177418431Y-92138358D01*
X177322580Y-92382581D01*
X177264197Y-92638372D01*
X177244591Y-92899999D01*
X177264197Y-93161627D01*
X177316004Y-93388604D01*
X177322580Y-93417416D01*
X177352177Y-93492827D01*
X177359626Y-93554774D01*
X177335964Y-93612507D01*
X177287183Y-93651409D01*
X177225632Y-93661630D01*
X177166898Y-93640583D01*
X177077704Y-93579772D01*
X177077703Y-93579771D01*
X177077701Y-93579770D01*
X176951110Y-93518807D01*
X176841323Y-93465937D01*
X176590615Y-93388604D01*
X176331182Y-93349500D01*
X176068818Y-93349500D01*
X175809385Y-93388604D01*
X175558677Y-93465937D01*
X175322296Y-93579772D01*
X175274283Y-93612507D01*
X175105514Y-93727571D01*
X174913198Y-93906015D01*
X174749613Y-94111143D01*
X174618431Y-94338358D01*
X174522580Y-94582581D01*
X174464197Y-94838372D01*
X174444591Y-95099999D01*
X167612054Y-95099999D01*
X167541323Y-95065937D01*
X167290615Y-94988604D01*
X167031182Y-94949500D01*
X166768818Y-94949500D01*
X166768816Y-94949500D01*
X166685700Y-94962027D01*
X166619053Y-94953675D01*
X166566539Y-94911796D01*
X166543567Y-94848678D01*
X166535306Y-94738447D01*
X166527009Y-94702093D01*
X166527009Y-94646907D01*
X166550953Y-94597187D01*
X166594098Y-94562780D01*
X166647900Y-94550500D01*
X166831182Y-94550500D01*
X167090615Y-94511396D01*
X167341323Y-94434063D01*
X167577704Y-94320228D01*
X167794479Y-94172433D01*
X167794482Y-94172429D01*
X167794485Y-94172428D01*
X167879792Y-94093273D01*
X167986805Y-93993981D01*
X168150386Y-93788857D01*
X168281568Y-93561643D01*
X168377420Y-93317416D01*
X168435802Y-93061630D01*
X168455408Y-92800000D01*
X168435802Y-92538370D01*
X168377420Y-92282584D01*
X168281568Y-92038357D01*
X168150386Y-91811143D01*
X167986805Y-91606019D01*
X167986801Y-91606015D01*
X167794485Y-91427571D01*
X167777170Y-91415766D01*
X167577704Y-91279772D01*
X167341323Y-91165937D01*
X167090615Y-91088604D01*
X166831182Y-91049500D01*
X166568818Y-91049500D01*
X166309385Y-91088604D01*
X166058677Y-91165937D01*
X165822296Y-91279772D01*
X165752922Y-91327070D01*
X165605514Y-91427571D01*
X165413198Y-91606015D01*
X165249613Y-91811143D01*
X165118431Y-92038358D01*
X165022580Y-92282581D01*
X164964197Y-92538372D01*
X164944591Y-92800000D01*
X164964197Y-93061627D01*
X164972592Y-93098407D01*
X164972592Y-93153593D01*
X164948648Y-93203313D01*
X164905503Y-93237720D01*
X164851701Y-93250000D01*
X164668856Y-93250000D01*
X164409496Y-93289091D01*
X164158860Y-93366403D01*
X163922545Y-93480206D01*
X163750831Y-93597278D01*
X165065871Y-94912318D01*
X165097965Y-94967905D01*
X165097965Y-95032093D01*
X165065871Y-95087680D01*
X163750831Y-96402720D01*
X115300500Y-96402720D01*
X115300500Y-94999999D01*
X163045092Y-94999999D01*
X163064693Y-95261552D01*
X163123059Y-95517270D01*
X163218882Y-95761424D01*
X163350027Y-95988573D01*
X163397873Y-96048571D01*
X163397874Y-96048571D01*
X164446446Y-95000001D01*
X164446446Y-95000000D01*
X163397873Y-93951427D01*
X163350028Y-94011424D01*
X163218882Y-94238576D01*
X163123059Y-94482729D01*
X163064693Y-94738447D01*
X163045092Y-94999999D01*
X115300500Y-94999999D01*
X115300500Y-87502720D01*
X160750831Y-87502720D01*
X160922546Y-87619793D01*
X161158860Y-87733596D01*
X161409496Y-87810908D01*
X161668856Y-87850000D01*
X161931144Y-87850000D01*
X162190503Y-87810908D01*
X162441139Y-87733596D01*
X162677456Y-87619792D01*
X162849167Y-87502720D01*
X162846447Y-87500000D01*
X185344591Y-87500000D01*
X185364197Y-87761627D01*
X185422580Y-88017418D01*
X185518431Y-88261641D01*
X185518432Y-88261643D01*
X185649614Y-88488857D01*
X185813195Y-88693981D01*
X185813197Y-88693983D01*
X185813198Y-88693984D01*
X186005514Y-88872428D01*
X186005520Y-88872432D01*
X186005521Y-88872433D01*
X186222296Y-89020228D01*
X186458677Y-89134063D01*
X186709385Y-89211396D01*
X186968818Y-89250500D01*
X187231182Y-89250500D01*
X187490615Y-89211396D01*
X187741323Y-89134063D01*
X187977704Y-89020228D01*
X188194479Y-88872433D01*
X188194482Y-88872429D01*
X188194485Y-88872428D01*
X188279792Y-88793273D01*
X188386805Y-88693981D01*
X188550386Y-88488857D01*
X188681568Y-88261643D01*
X188777420Y-88017416D01*
X188835802Y-87761630D01*
X188855408Y-87500000D01*
X188835802Y-87238370D01*
X188777420Y-86982584D01*
X188681568Y-86738357D01*
X188550386Y-86511143D01*
X188386805Y-86306019D01*
X188363237Y-86284151D01*
X188194485Y-86127571D01*
X188154046Y-86100000D01*
X187977704Y-85979772D01*
X187741323Y-85865937D01*
X187490615Y-85788604D01*
X187231182Y-85749500D01*
X186968818Y-85749500D01*
X186709385Y-85788604D01*
X186458677Y-85865937D01*
X186259975Y-85961627D01*
X186222296Y-85979772D01*
X186152922Y-86027070D01*
X186005514Y-86127571D01*
X185813198Y-86306015D01*
X185649613Y-86511143D01*
X185518431Y-86738358D01*
X185422580Y-86982581D01*
X185364197Y-87238372D01*
X185344591Y-87500000D01*
X162846447Y-87500000D01*
X161800001Y-86453553D01*
X161800000Y-86453553D01*
X160750831Y-87502720D01*
X115300500Y-87502720D01*
X115300500Y-85700000D01*
X157344591Y-85700000D01*
X157364197Y-85961627D01*
X157422580Y-86217418D01*
X157457354Y-86306019D01*
X157518432Y-86461643D01*
X157649614Y-86688857D01*
X157813195Y-86893981D01*
X157813197Y-86893983D01*
X157813198Y-86893984D01*
X158005514Y-87072428D01*
X158005520Y-87072432D01*
X158005521Y-87072433D01*
X158222296Y-87220228D01*
X158458677Y-87334063D01*
X158709385Y-87411396D01*
X158968818Y-87450500D01*
X159231182Y-87450500D01*
X159490615Y-87411396D01*
X159741323Y-87334063D01*
X159977704Y-87220228D01*
X160191840Y-87074231D01*
X160249345Y-87053301D01*
X160309858Y-87062422D01*
X160358639Y-87099372D01*
X160397873Y-87148571D01*
X161446445Y-86100001D01*
X162153553Y-86100001D01*
X163202124Y-87148571D01*
X163249972Y-87088572D01*
X163381117Y-86861423D01*
X163476940Y-86617270D01*
X163535306Y-86361552D01*
X163554907Y-86100000D01*
X163535306Y-85838447D01*
X163476940Y-85582729D01*
X163381117Y-85338575D01*
X163249972Y-85111426D01*
X163202125Y-85051427D01*
X162153553Y-86100000D01*
X162153553Y-86100001D01*
X161446445Y-86100001D01*
X161800000Y-85746447D01*
X162849167Y-84697278D01*
X162677451Y-84580205D01*
X162441139Y-84466403D01*
X162190503Y-84389091D01*
X161931144Y-84350000D01*
X161668856Y-84350000D01*
X161409496Y-84389091D01*
X161158860Y-84466403D01*
X160922546Y-84580206D01*
X160708885Y-84725877D01*
X160651380Y-84746807D01*
X160590868Y-84737686D01*
X160542087Y-84700736D01*
X160457419Y-84594566D01*
X160433475Y-84544846D01*
X160433475Y-84489660D01*
X160457419Y-84439940D01*
X160500563Y-84405534D01*
X160677704Y-84320228D01*
X160894479Y-84172433D01*
X160894482Y-84172429D01*
X160894485Y-84172428D01*
X160979792Y-84093273D01*
X161086805Y-83993981D01*
X161250386Y-83788857D01*
X161381568Y-83561643D01*
X161477420Y-83317416D01*
X161535802Y-83061630D01*
X161555408Y-82800000D01*
X161535802Y-82538370D01*
X161477420Y-82282584D01*
X161381568Y-82038357D01*
X161250386Y-81811143D01*
X161086805Y-81606019D01*
X161086801Y-81606015D01*
X160894485Y-81427571D01*
X160877170Y-81415766D01*
X160677704Y-81279772D01*
X160441323Y-81165937D01*
X160190615Y-81088604D01*
X159931182Y-81049500D01*
X159668818Y-81049500D01*
X159409385Y-81088604D01*
X159158677Y-81165937D01*
X158922296Y-81279772D01*
X158852922Y-81327070D01*
X158705514Y-81427571D01*
X158513198Y-81606015D01*
X158349613Y-81811143D01*
X158218431Y-82038358D01*
X158122580Y-82282581D01*
X158064197Y-82538372D01*
X158044591Y-82799999D01*
X158064197Y-83061627D01*
X158122580Y-83317418D01*
X158218431Y-83561641D01*
X158349613Y-83788856D01*
X158442580Y-83905433D01*
X158466524Y-83955153D01*
X158466524Y-84010338D01*
X158442580Y-84060059D01*
X158399435Y-84094466D01*
X158222298Y-84179770D01*
X158005514Y-84327571D01*
X157813198Y-84506015D01*
X157649613Y-84711143D01*
X157518431Y-84938358D01*
X157422580Y-85182581D01*
X157364197Y-85438372D01*
X157344591Y-85700000D01*
X115300500Y-85700000D01*
X115300500Y-77700000D01*
X161294540Y-77700000D01*
X161297437Y-77727567D01*
X161314326Y-77888257D01*
X161372820Y-78068284D01*
X161467466Y-78232216D01*
X161594129Y-78372889D01*
X161747269Y-78484151D01*
X161920197Y-78561144D01*
X162105352Y-78600500D01*
X162105354Y-78600500D01*
X162164548Y-78600500D01*
X162212001Y-78609939D01*
X162252229Y-78636819D01*
X169061038Y-85445628D01*
X169085277Y-85479925D01*
X169096678Y-85520347D01*
X169114326Y-85688257D01*
X169172820Y-85868284D01*
X169267466Y-86032216D01*
X169394129Y-86172889D01*
X169547269Y-86284151D01*
X169720197Y-86361144D01*
X169905352Y-86400500D01*
X169905354Y-86400500D01*
X170094646Y-86400500D01*
X170094648Y-86400500D01*
X170277883Y-86361552D01*
X170279803Y-86361144D01*
X170452730Y-86284151D01*
X170452730Y-86284150D01*
X170605870Y-86172889D01*
X170732533Y-86032216D01*
X170827179Y-85868284D01*
X170838298Y-85834062D01*
X170885674Y-85688256D01*
X170905460Y-85500000D01*
X170885674Y-85311744D01*
X170827179Y-85131716D01*
X170827179Y-85131715D01*
X170732533Y-84967783D01*
X170605870Y-84827110D01*
X170452730Y-84715848D01*
X170279802Y-84638855D01*
X170094648Y-84599500D01*
X170094646Y-84599500D01*
X170035452Y-84599500D01*
X169987999Y-84590061D01*
X169947771Y-84563181D01*
X169584590Y-84200000D01*
X177744591Y-84200000D01*
X177764197Y-84461627D01*
X177822580Y-84717418D01*
X177918431Y-84961641D01*
X178045990Y-85182581D01*
X178049614Y-85188857D01*
X178213195Y-85393981D01*
X178213197Y-85393983D01*
X178213198Y-85393984D01*
X178405514Y-85572428D01*
X178405520Y-85572432D01*
X178405521Y-85572433D01*
X178622296Y-85720228D01*
X178858677Y-85834063D01*
X179109385Y-85911396D01*
X179368818Y-85950500D01*
X179631182Y-85950500D01*
X179890615Y-85911396D01*
X180141323Y-85834063D01*
X180377704Y-85720228D01*
X180594479Y-85572433D01*
X180594482Y-85572429D01*
X180594485Y-85572428D01*
X180694179Y-85479925D01*
X180786805Y-85393981D01*
X180950386Y-85188857D01*
X181001588Y-85100171D01*
X181043001Y-85057180D01*
X181099705Y-85038520D01*
X181158558Y-85048518D01*
X181205919Y-85084858D01*
X181213195Y-85093982D01*
X181405514Y-85272428D01*
X181405520Y-85272432D01*
X181405521Y-85272433D01*
X181622296Y-85420228D01*
X181858677Y-85534063D01*
X182109385Y-85611396D01*
X182368818Y-85650500D01*
X182631182Y-85650500D01*
X182890615Y-85611396D01*
X183141323Y-85534063D01*
X183377704Y-85420228D01*
X183594479Y-85272433D01*
X183594482Y-85272429D01*
X183594485Y-85272428D01*
X183746137Y-85131715D01*
X183786805Y-85093981D01*
X183950386Y-84888857D01*
X184081568Y-84661643D01*
X184177420Y-84417416D01*
X184235802Y-84161630D01*
X184255408Y-83900000D01*
X184235802Y-83638370D01*
X184177420Y-83382584D01*
X184081568Y-83138357D01*
X183950386Y-82911143D01*
X183786805Y-82706019D01*
X183786801Y-82706015D01*
X183594485Y-82527571D01*
X183537331Y-82488604D01*
X183377704Y-82379772D01*
X183141323Y-82265937D01*
X182890615Y-82188604D01*
X182631182Y-82149500D01*
X182368818Y-82149500D01*
X182109385Y-82188604D01*
X181858677Y-82265937D01*
X181622296Y-82379772D01*
X181552922Y-82427070D01*
X181405514Y-82527571D01*
X181213198Y-82706015D01*
X181049612Y-82911143D01*
X180998412Y-82999826D01*
X180956997Y-83042820D01*
X180900292Y-83061479D01*
X180841440Y-83051480D01*
X180794079Y-83015140D01*
X180786803Y-83006016D01*
X180594485Y-82827571D01*
X180554044Y-82799999D01*
X180377704Y-82679772D01*
X180141323Y-82565937D01*
X179890615Y-82488604D01*
X179631182Y-82449500D01*
X179368818Y-82449500D01*
X179109385Y-82488604D01*
X178858677Y-82565937D01*
X178622296Y-82679772D01*
X178583805Y-82706015D01*
X178405514Y-82827571D01*
X178213198Y-83006015D01*
X178049613Y-83211143D01*
X177918431Y-83438358D01*
X177822580Y-83682581D01*
X177764197Y-83938372D01*
X177744591Y-84200000D01*
X169584590Y-84200000D01*
X163138960Y-77754369D01*
X163114720Y-77720071D01*
X163103321Y-77679655D01*
X163085674Y-77511744D01*
X163034508Y-77354272D01*
X163027179Y-77331715D01*
X162932533Y-77167783D01*
X162805870Y-77027110D01*
X162652730Y-76915848D01*
X162479802Y-76838855D01*
X162294648Y-76799500D01*
X162294646Y-76799500D01*
X162105354Y-76799500D01*
X162105352Y-76799500D01*
X161920197Y-76838855D01*
X161747269Y-76915848D01*
X161594129Y-77027110D01*
X161467466Y-77167783D01*
X161372820Y-77331715D01*
X161314326Y-77511742D01*
X161298071Y-77666403D01*
X161294540Y-77700000D01*
X115300500Y-77700000D01*
X115300500Y-76600000D01*
X166744591Y-76600000D01*
X166764197Y-76861627D01*
X166822580Y-77117418D01*
X166913666Y-77349500D01*
X166918432Y-77361643D01*
X166933998Y-77388604D01*
X167049613Y-77588856D01*
X167085289Y-77633592D01*
X167213195Y-77793981D01*
X167213197Y-77793983D01*
X167213198Y-77793984D01*
X167405514Y-77972428D01*
X167405520Y-77972432D01*
X167405521Y-77972433D01*
X167622296Y-78120228D01*
X167858677Y-78234063D01*
X168109385Y-78311396D01*
X168368818Y-78350500D01*
X168631182Y-78350500D01*
X168890615Y-78311396D01*
X169141323Y-78234063D01*
X169377704Y-78120228D01*
X169594479Y-77972433D01*
X169594482Y-77972429D01*
X169594485Y-77972428D01*
X169685200Y-77888256D01*
X169786805Y-77793981D01*
X169950386Y-77588857D01*
X170081568Y-77361643D01*
X170177420Y-77117416D01*
X170235802Y-76861630D01*
X170255408Y-76600000D01*
X170235802Y-76338370D01*
X170177420Y-76082584D01*
X170105761Y-75900000D01*
X170744591Y-75900000D01*
X170764197Y-76161627D01*
X170822580Y-76417418D01*
X170918431Y-76661641D01*
X171033892Y-76861627D01*
X171049614Y-76888857D01*
X171213195Y-77093981D01*
X171213197Y-77093983D01*
X171213198Y-77093984D01*
X171405514Y-77272428D01*
X171405520Y-77272432D01*
X171405521Y-77272433D01*
X171622296Y-77420228D01*
X171858677Y-77534063D01*
X172109385Y-77611396D01*
X172368818Y-77650500D01*
X172372632Y-77650500D01*
X172429752Y-77664439D01*
X172474029Y-77703123D01*
X172495510Y-77757855D01*
X172489364Y-77816329D01*
X172456974Y-77865398D01*
X172413195Y-77906018D01*
X172249613Y-78111143D01*
X172118431Y-78338358D01*
X172022580Y-78582581D01*
X171964197Y-78838372D01*
X171944591Y-79100000D01*
X171964197Y-79361627D01*
X172022580Y-79617418D01*
X172118431Y-79861641D01*
X172233775Y-80061424D01*
X172249614Y-80088857D01*
X172413195Y-80293981D01*
X172413197Y-80293983D01*
X172413198Y-80293984D01*
X172605514Y-80472428D01*
X172605520Y-80472432D01*
X172605521Y-80472433D01*
X172822296Y-80620228D01*
X173058677Y-80734063D01*
X173309385Y-80811396D01*
X173568818Y-80850500D01*
X173831182Y-80850500D01*
X174090615Y-80811396D01*
X174341323Y-80734063D01*
X174406407Y-80702720D01*
X181950831Y-80702720D01*
X182122546Y-80819793D01*
X182358860Y-80933596D01*
X182609496Y-81010908D01*
X182868856Y-81050000D01*
X183131144Y-81050000D01*
X183390503Y-81010908D01*
X183641139Y-80933596D01*
X183877456Y-80819792D01*
X184049167Y-80702720D01*
X183000001Y-79653553D01*
X183000000Y-79653553D01*
X181950831Y-80702720D01*
X174406407Y-80702720D01*
X174577704Y-80620228D01*
X174794479Y-80472433D01*
X174794482Y-80472429D01*
X174794485Y-80472428D01*
X174879792Y-80393273D01*
X174986805Y-80293981D01*
X175150386Y-80088857D01*
X175281568Y-79861643D01*
X175377420Y-79617416D01*
X175435802Y-79361630D01*
X175440420Y-79300000D01*
X181245092Y-79300000D01*
X181264693Y-79561552D01*
X181323059Y-79817270D01*
X181418882Y-80061424D01*
X181550027Y-80288573D01*
X181597873Y-80348571D01*
X181597874Y-80348571D01*
X182646446Y-79300001D01*
X183353553Y-79300001D01*
X184402124Y-80348571D01*
X184449972Y-80288572D01*
X184581117Y-80061423D01*
X184676940Y-79817270D01*
X184735306Y-79561552D01*
X184754907Y-79300000D01*
X184735306Y-79038447D01*
X184676940Y-78782729D01*
X184581117Y-78538576D01*
X184526948Y-78444752D01*
X184510460Y-78377189D01*
X184532938Y-78311376D01*
X184587311Y-78268014D01*
X184656476Y-78260745D01*
X184718676Y-78291854D01*
X184805514Y-78372428D01*
X184805520Y-78372432D01*
X184805521Y-78372433D01*
X185022296Y-78520228D01*
X185258677Y-78634063D01*
X185509385Y-78711396D01*
X185768818Y-78750500D01*
X186031182Y-78750500D01*
X186290615Y-78711396D01*
X186541323Y-78634063D01*
X186777704Y-78520228D01*
X186994479Y-78372433D01*
X186994482Y-78372429D01*
X186994485Y-78372428D01*
X187114850Y-78260745D01*
X187186805Y-78193981D01*
X187350386Y-77988857D01*
X187481568Y-77761643D01*
X187577420Y-77517416D01*
X187635802Y-77261630D01*
X187655408Y-77000000D01*
X187635802Y-76738370D01*
X187577420Y-76482584D01*
X187481568Y-76238357D01*
X187350386Y-76011143D01*
X187186805Y-75806019D01*
X187186801Y-75806015D01*
X186994485Y-75627571D01*
X186970389Y-75611143D01*
X186777704Y-75479772D01*
X186541323Y-75365937D01*
X186290615Y-75288604D01*
X186031182Y-75249500D01*
X185768818Y-75249500D01*
X185509385Y-75288604D01*
X185258677Y-75365937D01*
X185022296Y-75479772D01*
X184952922Y-75527070D01*
X184805514Y-75627571D01*
X184613198Y-75806015D01*
X184449613Y-76011143D01*
X184318431Y-76238358D01*
X184222580Y-76482581D01*
X184164197Y-76738372D01*
X184144591Y-76999999D01*
X184164197Y-77261627D01*
X184222580Y-77517418D01*
X184318431Y-77761641D01*
X184449613Y-77988856D01*
X184498273Y-78049874D01*
X184522519Y-78100952D01*
X184521568Y-78157484D01*
X184495617Y-78207718D01*
X184450063Y-78241208D01*
X184404305Y-78249247D01*
X183353553Y-79300000D01*
X183353553Y-79300001D01*
X182646446Y-79300001D01*
X182646446Y-79299999D01*
X181597873Y-78251427D01*
X181550028Y-78311424D01*
X181418882Y-78538576D01*
X181323059Y-78782729D01*
X181264693Y-79038447D01*
X181245092Y-79300000D01*
X175440420Y-79300000D01*
X175455408Y-79100000D01*
X175435802Y-78838370D01*
X175377420Y-78582584D01*
X175369005Y-78561144D01*
X175296808Y-78377189D01*
X175281568Y-78338357D01*
X175150386Y-78111143D01*
X174986805Y-77906019D01*
X174986801Y-77906015D01*
X174794485Y-77727571D01*
X174754044Y-77699999D01*
X174577704Y-77579772D01*
X174341323Y-77465937D01*
X174090615Y-77388604D01*
X173831182Y-77349500D01*
X173827367Y-77349500D01*
X173770247Y-77335561D01*
X173725970Y-77296876D01*
X173704489Y-77242144D01*
X173710635Y-77183670D01*
X173743024Y-77134603D01*
X173786805Y-77093981D01*
X173950386Y-76888857D01*
X174081568Y-76661643D01*
X174177420Y-76417416D01*
X174235802Y-76161630D01*
X174255408Y-75900000D01*
X180544591Y-75900000D01*
X180564197Y-76161627D01*
X180622580Y-76417418D01*
X180718431Y-76661641D01*
X180833892Y-76861627D01*
X180849614Y-76888857D01*
X181013195Y-77093981D01*
X181013197Y-77093983D01*
X181013198Y-77093984D01*
X181205514Y-77272428D01*
X181205520Y-77272432D01*
X181205521Y-77272433D01*
X181422296Y-77420228D01*
X181658677Y-77534063D01*
X181909385Y-77611396D01*
X181974307Y-77621181D01*
X182028710Y-77643478D01*
X182066728Y-77688329D01*
X182079811Y-77745651D01*
X182065019Y-77802556D01*
X182025677Y-77846250D01*
X181950832Y-77897278D01*
X183000000Y-78946446D01*
X183000001Y-78946446D01*
X184049167Y-77897278D01*
X183877451Y-77780205D01*
X183641139Y-77666403D01*
X183390503Y-77589092D01*
X183325812Y-77579341D01*
X183271408Y-77557044D01*
X183233391Y-77512192D01*
X183220308Y-77454871D01*
X183235100Y-77397966D01*
X183274443Y-77354272D01*
X183394479Y-77272433D01*
X183586805Y-77093981D01*
X183750386Y-76888857D01*
X183881568Y-76661643D01*
X183977420Y-76417416D01*
X184035802Y-76161630D01*
X184055408Y-75900000D01*
X184035802Y-75638370D01*
X183977420Y-75382584D01*
X183881568Y-75138357D01*
X183750386Y-74911143D01*
X183586805Y-74706019D01*
X183586801Y-74706015D01*
X183394485Y-74527571D01*
X183319736Y-74476608D01*
X183177704Y-74379772D01*
X182941323Y-74265937D01*
X182690615Y-74188604D01*
X182431182Y-74149500D01*
X182168818Y-74149500D01*
X181909385Y-74188604D01*
X181658677Y-74265937D01*
X181422296Y-74379772D01*
X181421482Y-74380327D01*
X181205514Y-74527571D01*
X181013198Y-74706015D01*
X180849613Y-74911143D01*
X180718431Y-75138358D01*
X180622580Y-75382581D01*
X180564197Y-75638372D01*
X180544591Y-75900000D01*
X174255408Y-75900000D01*
X174235802Y-75638370D01*
X174177420Y-75382584D01*
X174081568Y-75138357D01*
X173950386Y-74911143D01*
X173786805Y-74706019D01*
X173786801Y-74706015D01*
X173594485Y-74527571D01*
X173519736Y-74476608D01*
X173377704Y-74379772D01*
X173141323Y-74265937D01*
X172890615Y-74188604D01*
X172631182Y-74149500D01*
X172368818Y-74149500D01*
X172109385Y-74188604D01*
X171858677Y-74265937D01*
X171622296Y-74379772D01*
X171621482Y-74380327D01*
X171405514Y-74527571D01*
X171213198Y-74706015D01*
X171049613Y-74911143D01*
X170918431Y-75138358D01*
X170822580Y-75382581D01*
X170764197Y-75638372D01*
X170744591Y-75900000D01*
X170105761Y-75900000D01*
X170081568Y-75838357D01*
X169950386Y-75611143D01*
X169786805Y-75406019D01*
X169786801Y-75406015D01*
X169594485Y-75227571D01*
X169529463Y-75183240D01*
X169377704Y-75079772D01*
X169141323Y-74965937D01*
X168890615Y-74888604D01*
X168631182Y-74849500D01*
X168368818Y-74849500D01*
X168109385Y-74888604D01*
X167858677Y-74965937D01*
X167622296Y-75079772D01*
X167578249Y-75109803D01*
X167405514Y-75227571D01*
X167213198Y-75406015D01*
X167049613Y-75611143D01*
X166918431Y-75838358D01*
X166822580Y-76082581D01*
X166764197Y-76338372D01*
X166744591Y-76600000D01*
X115300500Y-76600000D01*
X115300500Y-74573391D01*
X115745823Y-74573391D01*
X115775096Y-74764474D01*
X115842235Y-74945752D01*
X115944488Y-75109803D01*
X115944489Y-75109804D01*
X115944491Y-75109807D01*
X116077677Y-75249919D01*
X116236342Y-75360353D01*
X116413988Y-75436587D01*
X116603344Y-75475500D01*
X117548204Y-75475500D01*
X117548206Y-75475500D01*
X117692321Y-75460845D01*
X117876768Y-75402974D01*
X118045791Y-75309159D01*
X118192468Y-75183240D01*
X118272559Y-75079771D01*
X118310795Y-75030375D01*
X118352304Y-74945753D01*
X118395930Y-74856816D01*
X118444385Y-74669674D01*
X118449268Y-74573391D01*
X119765823Y-74573391D01*
X119795096Y-74764474D01*
X119862235Y-74945752D01*
X119964488Y-75109803D01*
X119964489Y-75109804D01*
X119964491Y-75109807D01*
X120097677Y-75249919D01*
X120256342Y-75360353D01*
X120433988Y-75436587D01*
X120623344Y-75475500D01*
X121868204Y-75475500D01*
X121868206Y-75475500D01*
X122012321Y-75460845D01*
X122196768Y-75402974D01*
X122365791Y-75309159D01*
X122512468Y-75183240D01*
X122592559Y-75079771D01*
X122630795Y-75030375D01*
X122672304Y-74945753D01*
X122715930Y-74856816D01*
X122764385Y-74669674D01*
X122774176Y-74476610D01*
X122744903Y-74285526D01*
X122677764Y-74104247D01*
X122616711Y-74006296D01*
X122616710Y-74006295D01*
X152347255Y-74006295D01*
X152347256Y-74006296D01*
X152360485Y-74018828D01*
X152645363Y-74235386D01*
X152951984Y-74419873D01*
X153276746Y-74570124D01*
X153615859Y-74684385D01*
X153965335Y-74761310D01*
X154321078Y-74800000D01*
X154678922Y-74800000D01*
X155034664Y-74761310D01*
X155384140Y-74684385D01*
X155723253Y-74570124D01*
X156048015Y-74419873D01*
X156354636Y-74235386D01*
X156639515Y-74018827D01*
X156652742Y-74006297D01*
X156652743Y-74006295D01*
X196347255Y-74006295D01*
X196347256Y-74006296D01*
X196360485Y-74018828D01*
X196645363Y-74235386D01*
X196951984Y-74419873D01*
X197276746Y-74570124D01*
X197615859Y-74684385D01*
X197965335Y-74761310D01*
X198321078Y-74800000D01*
X198678922Y-74800000D01*
X199034664Y-74761310D01*
X199384140Y-74684385D01*
X199723253Y-74570124D01*
X200048015Y-74419873D01*
X200354636Y-74235386D01*
X200639515Y-74018827D01*
X200652742Y-74006297D01*
X200652743Y-74006295D01*
X198500000Y-71853553D01*
X196347255Y-74006295D01*
X156652743Y-74006295D01*
X154500000Y-71853553D01*
X152347255Y-74006295D01*
X122616710Y-74006295D01*
X122575511Y-73940196D01*
X122575510Y-73940195D01*
X122575509Y-73940193D01*
X122442323Y-73800081D01*
X122442322Y-73800080D01*
X122442321Y-73800079D01*
X122283658Y-73689647D01*
X122106011Y-73613412D01*
X121955567Y-73582496D01*
X121916656Y-73574500D01*
X121916655Y-73574500D01*
X121356039Y-73574500D01*
X121291611Y-73556448D01*
X121245941Y-73507548D01*
X121232328Y-73442038D01*
X121254734Y-73378992D01*
X121276961Y-73347504D01*
X121328006Y-73203877D01*
X121338408Y-73051804D01*
X121307396Y-72902564D01*
X121237269Y-72767225D01*
X121237268Y-72767223D01*
X121133230Y-72655825D01*
X121113570Y-72643870D01*
X121002990Y-72576625D01*
X120856214Y-72535500D01*
X120742073Y-72535500D01*
X120628989Y-72551043D01*
X120489183Y-72611769D01*
X120370940Y-72707966D01*
X120283038Y-72832496D01*
X120231994Y-72976121D01*
X120231993Y-72976123D01*
X120231994Y-72976123D01*
X120221592Y-73128196D01*
X120237319Y-73203878D01*
X120252604Y-73277436D01*
X120322731Y-73412776D01*
X120365463Y-73458531D01*
X120393395Y-73506829D01*
X120397325Y-73562484D01*
X120376457Y-73614228D01*
X120335016Y-73651586D01*
X120174211Y-73740839D01*
X120174208Y-73740841D01*
X120174209Y-73740841D01*
X120105206Y-73800079D01*
X120027529Y-73866763D01*
X119909204Y-74019624D01*
X119824070Y-74193183D01*
X119824070Y-74193184D01*
X119775759Y-74379772D01*
X119775615Y-74380327D01*
X119765823Y-74573391D01*
X118449268Y-74573391D01*
X118454176Y-74476610D01*
X118424903Y-74285526D01*
X118357764Y-74104247D01*
X118296711Y-74006296D01*
X118255511Y-73940196D01*
X118255510Y-73940195D01*
X118255509Y-73940193D01*
X118122323Y-73800081D01*
X118122322Y-73800080D01*
X118122321Y-73800079D01*
X117963658Y-73689647D01*
X117786011Y-73613412D01*
X117635567Y-73582496D01*
X117596656Y-73574500D01*
X116651794Y-73574500D01*
X116594147Y-73580362D01*
X116507676Y-73589155D01*
X116323232Y-73647026D01*
X116154211Y-73740839D01*
X116154208Y-73740841D01*
X116154209Y-73740841D01*
X116085206Y-73800079D01*
X116007529Y-73866763D01*
X115889204Y-74019624D01*
X115804070Y-74193183D01*
X115804070Y-74193184D01*
X115755759Y-74379772D01*
X115755615Y-74380327D01*
X115745823Y-74573391D01*
X115300500Y-74573391D01*
X115300500Y-71500000D01*
X151195152Y-71500000D01*
X151214525Y-71857310D01*
X151272419Y-72210451D01*
X151368149Y-72555241D01*
X151500601Y-72887670D01*
X151668218Y-73203829D01*
X151869031Y-73500004D01*
X151996441Y-73650003D01*
X151996442Y-73650004D01*
X154146447Y-71500001D01*
X154853553Y-71500001D01*
X157003556Y-73650003D01*
X157130968Y-73500004D01*
X157331781Y-73203829D01*
X157499398Y-72887670D01*
X157631850Y-72555241D01*
X157727580Y-72210451D01*
X157785474Y-71857310D01*
X157804847Y-71500000D01*
X195195152Y-71500000D01*
X195214525Y-71857310D01*
X195272419Y-72210451D01*
X195368149Y-72555241D01*
X195500601Y-72887670D01*
X195668218Y-73203829D01*
X195869031Y-73500004D01*
X195996441Y-73650003D01*
X195996442Y-73650004D01*
X198146447Y-71500001D01*
X198853553Y-71500001D01*
X201003556Y-73650003D01*
X201130968Y-73500004D01*
X201331781Y-73203829D01*
X201499398Y-72887670D01*
X201631850Y-72555241D01*
X201727580Y-72210451D01*
X201785474Y-71857310D01*
X201804847Y-71500000D01*
X201785474Y-71142689D01*
X201727580Y-70789548D01*
X201631850Y-70444758D01*
X201499398Y-70112329D01*
X201331781Y-69796170D01*
X201130968Y-69499995D01*
X201003557Y-69349995D01*
X201003556Y-69349994D01*
X198853553Y-71499999D01*
X198853553Y-71500001D01*
X198146447Y-71500001D01*
X198146447Y-71499999D01*
X195996442Y-69349994D01*
X195996441Y-69349995D01*
X195869030Y-69499995D01*
X195668218Y-69796170D01*
X195500601Y-70112329D01*
X195368149Y-70444758D01*
X195272419Y-70789548D01*
X195214525Y-71142689D01*
X195195152Y-71500000D01*
X157804847Y-71500000D01*
X157785474Y-71142689D01*
X157727580Y-70789548D01*
X157631850Y-70444758D01*
X157499398Y-70112329D01*
X157331781Y-69796170D01*
X157130968Y-69499995D01*
X157003557Y-69349995D01*
X157003556Y-69349994D01*
X154853553Y-71500000D01*
X154853553Y-71500001D01*
X154146447Y-71500001D01*
X154146447Y-71500000D01*
X151996442Y-69349994D01*
X151996441Y-69349995D01*
X151869030Y-69499995D01*
X151668218Y-69796170D01*
X151500601Y-70112329D01*
X151368149Y-70444758D01*
X151272419Y-70789548D01*
X151214525Y-71142689D01*
X151195152Y-71500000D01*
X115300500Y-71500000D01*
X115300500Y-68993703D01*
X152347255Y-68993703D01*
X154500000Y-71146447D01*
X154500001Y-71146447D01*
X156652743Y-68993703D01*
X196347255Y-68993703D01*
X198500000Y-71146447D01*
X198500001Y-71146447D01*
X200652743Y-68993703D01*
X200652742Y-68993702D01*
X200639514Y-68981171D01*
X200354636Y-68764613D01*
X200048015Y-68580126D01*
X199723253Y-68429875D01*
X199384140Y-68315614D01*
X199034664Y-68238689D01*
X198678922Y-68200000D01*
X198321078Y-68200000D01*
X197965335Y-68238689D01*
X197615859Y-68315614D01*
X197276746Y-68429875D01*
X196951984Y-68580126D01*
X196645363Y-68764613D01*
X196360486Y-68981170D01*
X196347256Y-68993702D01*
X196347255Y-68993703D01*
X156652743Y-68993703D01*
X156652742Y-68993702D01*
X156639514Y-68981171D01*
X156354636Y-68764613D01*
X156048015Y-68580126D01*
X155723253Y-68429875D01*
X155384140Y-68315614D01*
X155034664Y-68238689D01*
X154678922Y-68200000D01*
X154321078Y-68200000D01*
X153965335Y-68238689D01*
X153615859Y-68315614D01*
X153276746Y-68429875D01*
X152951984Y-68580126D01*
X152645363Y-68764613D01*
X152360486Y-68981170D01*
X152347256Y-68993702D01*
X152347255Y-68993703D01*
X115300500Y-68993703D01*
X115300500Y-65923391D01*
X115745823Y-65923391D01*
X115775096Y-66114474D01*
X115842235Y-66295752D01*
X115944488Y-66459803D01*
X115944489Y-66459804D01*
X115944491Y-66459807D01*
X116077677Y-66599919D01*
X116236342Y-66710353D01*
X116413988Y-66786587D01*
X116603344Y-66825500D01*
X117548204Y-66825500D01*
X117548206Y-66825500D01*
X117692321Y-66810845D01*
X117876768Y-66752974D01*
X118045791Y-66659159D01*
X118192468Y-66533240D01*
X118271353Y-66431328D01*
X118310795Y-66380375D01*
X118352304Y-66295753D01*
X118395930Y-66206816D01*
X118444385Y-66019674D01*
X118449268Y-65923391D01*
X119765823Y-65923391D01*
X119795096Y-66114474D01*
X119862235Y-66295752D01*
X119964488Y-66459803D01*
X119964489Y-66459804D01*
X119964491Y-66459807D01*
X120097677Y-66599919D01*
X120256342Y-66710353D01*
X120321497Y-66738313D01*
X120365787Y-66770462D01*
X120391925Y-66818546D01*
X120394817Y-66873198D01*
X120373902Y-66923772D01*
X120283037Y-67052498D01*
X120231994Y-67196121D01*
X120231993Y-67196123D01*
X120231994Y-67196123D01*
X120221592Y-67348196D01*
X120237319Y-67423878D01*
X120252604Y-67497436D01*
X120322731Y-67632776D01*
X120426769Y-67744174D01*
X120426771Y-67744175D01*
X120426772Y-67744176D01*
X120557010Y-67823375D01*
X120703786Y-67864500D01*
X120817927Y-67864500D01*
X120931009Y-67848957D01*
X121070818Y-67788230D01*
X121189058Y-67692034D01*
X121276961Y-67567504D01*
X121328006Y-67423877D01*
X121338408Y-67271804D01*
X121307396Y-67122564D01*
X121307395Y-67122562D01*
X121307395Y-67122561D01*
X121247282Y-67006547D01*
X121233452Y-66945266D01*
X121251432Y-66885071D01*
X121296606Y-66841414D01*
X121357380Y-66825500D01*
X121868204Y-66825500D01*
X121868206Y-66825500D01*
X122012321Y-66810845D01*
X122196768Y-66752974D01*
X122365791Y-66659159D01*
X122512468Y-66533240D01*
X122591353Y-66431328D01*
X122630795Y-66380375D01*
X122672304Y-66295753D01*
X122715930Y-66206816D01*
X122764385Y-66019674D01*
X122774176Y-65826610D01*
X122744903Y-65635526D01*
X122733832Y-65605635D01*
X122677764Y-65454247D01*
X122575511Y-65290196D01*
X122575510Y-65290195D01*
X122575509Y-65290193D01*
X122442323Y-65150081D01*
X122442322Y-65150080D01*
X122442321Y-65150079D01*
X122283658Y-65039647D01*
X122106011Y-64963412D01*
X121955568Y-64932496D01*
X121916656Y-64924500D01*
X120671794Y-64924500D01*
X120614147Y-64930362D01*
X120527676Y-64939155D01*
X120343232Y-64997026D01*
X120174211Y-65090839D01*
X120174208Y-65090841D01*
X120174209Y-65090841D01*
X120105206Y-65150079D01*
X120027529Y-65216763D01*
X119909204Y-65369624D01*
X119824070Y-65543183D01*
X119775615Y-65730327D01*
X119765823Y-65923391D01*
X118449268Y-65923391D01*
X118454176Y-65826610D01*
X118424903Y-65635526D01*
X118413832Y-65605635D01*
X118357764Y-65454247D01*
X118255511Y-65290196D01*
X118255510Y-65290195D01*
X118255509Y-65290193D01*
X118122323Y-65150081D01*
X118122322Y-65150080D01*
X118122321Y-65150079D01*
X117963658Y-65039647D01*
X117786011Y-64963412D01*
X117635568Y-64932496D01*
X117596656Y-64924500D01*
X116651794Y-64924500D01*
X116594147Y-64930362D01*
X116507676Y-64939155D01*
X116323232Y-64997026D01*
X116154211Y-65090839D01*
X116154208Y-65090841D01*
X116154209Y-65090841D01*
X116085206Y-65150079D01*
X116007529Y-65216763D01*
X115889204Y-65369624D01*
X115804070Y-65543183D01*
X115755615Y-65730327D01*
X115745823Y-65923391D01*
X115300500Y-65923391D01*
X115300500Y-64525000D01*
X170075000Y-64525000D01*
X170075000Y-65172824D01*
X170081402Y-65232375D01*
X170131647Y-65367089D01*
X170217811Y-65482188D01*
X170332910Y-65568352D01*
X170467624Y-65618597D01*
X170527176Y-65625000D01*
X171175000Y-65625000D01*
X171175000Y-64525000D01*
X171675000Y-64525000D01*
X171675000Y-65625000D01*
X172322824Y-65625000D01*
X172382375Y-65618597D01*
X172517089Y-65568352D01*
X172632188Y-65482188D01*
X172718352Y-65367088D01*
X172767614Y-65235013D01*
X172802593Y-65184633D01*
X172857438Y-65157180D01*
X172918731Y-65159369D01*
X172971477Y-65190665D01*
X173093918Y-65313106D01*
X173287423Y-65448600D01*
X173501507Y-65548430D01*
X173714999Y-65605635D01*
X173715000Y-65605636D01*
X173715000Y-64525000D01*
X174215000Y-64525000D01*
X174215000Y-65605635D01*
X174428492Y-65548430D01*
X174642576Y-65448600D01*
X174836081Y-65313106D01*
X175003106Y-65146081D01*
X175133425Y-64959968D01*
X175177743Y-64921103D01*
X175235000Y-64907092D01*
X175292257Y-64921103D01*
X175336575Y-64959968D01*
X175466893Y-65146081D01*
X175633918Y-65313106D01*
X175827423Y-65448600D01*
X176041507Y-65548430D01*
X176254999Y-65605635D01*
X176255000Y-65605636D01*
X176255000Y-64525000D01*
X176755000Y-64525000D01*
X176755000Y-65605635D01*
X176968492Y-65548430D01*
X177182576Y-65448600D01*
X177376081Y-65313106D01*
X177543106Y-65146081D01*
X177673425Y-64959968D01*
X177717743Y-64921103D01*
X177775000Y-64907092D01*
X177832257Y-64921103D01*
X177876575Y-64959968D01*
X178006893Y-65146081D01*
X178173918Y-65313106D01*
X178367423Y-65448600D01*
X178581507Y-65548430D01*
X178794999Y-65605635D01*
X178795000Y-65605636D01*
X178795000Y-64525000D01*
X179295000Y-64525000D01*
X179295000Y-65605635D01*
X179508492Y-65548430D01*
X179722576Y-65448600D01*
X179916081Y-65313106D01*
X180083106Y-65146081D01*
X180213425Y-64959968D01*
X180257743Y-64921103D01*
X180315000Y-64907092D01*
X180372257Y-64921103D01*
X180416575Y-64959968D01*
X180546893Y-65146081D01*
X180713918Y-65313106D01*
X180907423Y-65448600D01*
X181121507Y-65548430D01*
X181334999Y-65605635D01*
X181335000Y-65605636D01*
X181335000Y-64525000D01*
X181835000Y-64525000D01*
X181835000Y-65605635D01*
X182048492Y-65548430D01*
X182262576Y-65448600D01*
X182456081Y-65313106D01*
X182623106Y-65146081D01*
X182758600Y-64952576D01*
X182858430Y-64738492D01*
X182915636Y-64525000D01*
X181835000Y-64525000D01*
X181335000Y-64525000D01*
X179295000Y-64525000D01*
X178795000Y-64525000D01*
X176755000Y-64525000D01*
X176255000Y-64525000D01*
X174215000Y-64525000D01*
X173715000Y-64525000D01*
X171675000Y-64525000D01*
X171175000Y-64525000D01*
X170075000Y-64525000D01*
X115300500Y-64525000D01*
X115300500Y-60506295D01*
X115847255Y-60506295D01*
X115847256Y-60506296D01*
X115860485Y-60518828D01*
X116145363Y-60735386D01*
X116451984Y-60919873D01*
X116776746Y-61070124D01*
X117115859Y-61184385D01*
X117465335Y-61261310D01*
X117821078Y-61300000D01*
X118178922Y-61300000D01*
X118534664Y-61261310D01*
X118884140Y-61184385D01*
X119223253Y-61070124D01*
X119374826Y-60999999D01*
X130104340Y-60999999D01*
X130124936Y-61235407D01*
X130142244Y-61300000D01*
X130186097Y-61463663D01*
X130285965Y-61677830D01*
X130421505Y-61871401D01*
X130588599Y-62038495D01*
X130782170Y-62174035D01*
X130996337Y-62273903D01*
X131224592Y-62335063D01*
X131460000Y-62355659D01*
X131695408Y-62335063D01*
X131923663Y-62273903D01*
X132137830Y-62174035D01*
X132331401Y-62038495D01*
X132498495Y-61871401D01*
X132628426Y-61685839D01*
X132672743Y-61646975D01*
X132730000Y-61632964D01*
X132787257Y-61646975D01*
X132831573Y-61685839D01*
X132961505Y-61871401D01*
X133128599Y-62038495D01*
X133322170Y-62174035D01*
X133536337Y-62273903D01*
X133764592Y-62335063D01*
X134000000Y-62355659D01*
X134235408Y-62335063D01*
X134463663Y-62273903D01*
X134677830Y-62174035D01*
X134871401Y-62038495D01*
X134993329Y-61916566D01*
X135046072Y-61885273D01*
X135107365Y-61883084D01*
X135162209Y-61910537D01*
X135197189Y-61960916D01*
X135223291Y-62030898D01*
X135246204Y-62092331D01*
X135332454Y-62207546D01*
X135447669Y-62293796D01*
X135582517Y-62344091D01*
X135642127Y-62350500D01*
X137437872Y-62350499D01*
X137497483Y-62344091D01*
X137632331Y-62293796D01*
X137747546Y-62207546D01*
X137833796Y-62092331D01*
X137884091Y-61957483D01*
X137890500Y-61897873D01*
X137890500Y-61735000D01*
X170069340Y-61735000D01*
X170089936Y-61970407D01*
X170122606Y-62092331D01*
X170151097Y-62198663D01*
X170250965Y-62412830D01*
X170386505Y-62606401D01*
X170386508Y-62606403D01*
X170386508Y-62606404D01*
X170508818Y-62728714D01*
X170540114Y-62781460D01*
X170542303Y-62842753D01*
X170514850Y-62897597D01*
X170464472Y-62932576D01*
X170332913Y-62981646D01*
X170217811Y-63067811D01*
X170131647Y-63182910D01*
X170081402Y-63317624D01*
X170075000Y-63377176D01*
X170075000Y-64025000D01*
X182915636Y-64025000D01*
X182915635Y-64024999D01*
X182858430Y-63811507D01*
X182758599Y-63597421D01*
X182623109Y-63403921D01*
X182456081Y-63236893D01*
X182270404Y-63106880D01*
X182231539Y-63062562D01*
X182217528Y-63005305D01*
X182231539Y-62948048D01*
X182270402Y-62903732D01*
X182456401Y-62773495D01*
X182623495Y-62606401D01*
X182759035Y-62412830D01*
X182858903Y-62198663D01*
X182920063Y-61970408D01*
X182940659Y-61735000D01*
X182920063Y-61499592D01*
X182858903Y-61271337D01*
X182759035Y-61057171D01*
X182623495Y-60863599D01*
X182456401Y-60696505D01*
X182262830Y-60560965D01*
X182145590Y-60506295D01*
X209847255Y-60506295D01*
X209847256Y-60506296D01*
X209860485Y-60518828D01*
X210145363Y-60735386D01*
X210451984Y-60919873D01*
X210776746Y-61070124D01*
X211115859Y-61184385D01*
X211465335Y-61261310D01*
X211821078Y-61300000D01*
X212178922Y-61300000D01*
X212534664Y-61261310D01*
X212884140Y-61184385D01*
X213223253Y-61070124D01*
X213548015Y-60919873D01*
X213854636Y-60735386D01*
X214139515Y-60518827D01*
X214152742Y-60506297D01*
X214152743Y-60506295D01*
X212000000Y-58353553D01*
X209847255Y-60506295D01*
X182145590Y-60506295D01*
X182048663Y-60461097D01*
X181987502Y-60444709D01*
X181820407Y-60399936D01*
X181585000Y-60379340D01*
X181349592Y-60399936D01*
X181121336Y-60461097D01*
X180907170Y-60560965D01*
X180713598Y-60696505D01*
X180546505Y-60863598D01*
X180416575Y-61049159D01*
X180372257Y-61088025D01*
X180315000Y-61102036D01*
X180257743Y-61088025D01*
X180213425Y-61049159D01*
X180083494Y-60863598D01*
X179916404Y-60696508D01*
X179916401Y-60696505D01*
X179722830Y-60560965D01*
X179508663Y-60461097D01*
X179447502Y-60444709D01*
X179280407Y-60399936D01*
X179045000Y-60379340D01*
X178809592Y-60399936D01*
X178581336Y-60461097D01*
X178367170Y-60560965D01*
X178173598Y-60696505D01*
X178006505Y-60863598D01*
X177876575Y-61049159D01*
X177832257Y-61088025D01*
X177775000Y-61102036D01*
X177717743Y-61088025D01*
X177673425Y-61049159D01*
X177543494Y-60863598D01*
X177376404Y-60696508D01*
X177376401Y-60696505D01*
X177182830Y-60560965D01*
X176968663Y-60461097D01*
X176907502Y-60444709D01*
X176740407Y-60399936D01*
X176505000Y-60379340D01*
X176269592Y-60399936D01*
X176041336Y-60461097D01*
X175827170Y-60560965D01*
X175633598Y-60696505D01*
X175466505Y-60863598D01*
X175336575Y-61049159D01*
X175292257Y-61088025D01*
X175235000Y-61102036D01*
X175177743Y-61088025D01*
X175133425Y-61049159D01*
X175003494Y-60863598D01*
X174836404Y-60696508D01*
X174836401Y-60696505D01*
X174642830Y-60560965D01*
X174428663Y-60461097D01*
X174367502Y-60444709D01*
X174200407Y-60399936D01*
X173965000Y-60379340D01*
X173729592Y-60399936D01*
X173501336Y-60461097D01*
X173287170Y-60560965D01*
X173093598Y-60696505D01*
X172926505Y-60863598D01*
X172796575Y-61049159D01*
X172752257Y-61088025D01*
X172695000Y-61102036D01*
X172637743Y-61088025D01*
X172593425Y-61049159D01*
X172463494Y-60863598D01*
X172296404Y-60696508D01*
X172296401Y-60696505D01*
X172102830Y-60560965D01*
X171888663Y-60461097D01*
X171827502Y-60444709D01*
X171660407Y-60399936D01*
X171425000Y-60379340D01*
X171189592Y-60399936D01*
X170961336Y-60461097D01*
X170747170Y-60560965D01*
X170553598Y-60696505D01*
X170386505Y-60863598D01*
X170250965Y-61057170D01*
X170151097Y-61271336D01*
X170089936Y-61499592D01*
X170069340Y-61735000D01*
X137890500Y-61735000D01*
X137890499Y-60102128D01*
X137884091Y-60042517D01*
X137833796Y-59907669D01*
X137747546Y-59792454D01*
X137632331Y-59706204D01*
X137497483Y-59655909D01*
X137437873Y-59649500D01*
X137437869Y-59649500D01*
X135642130Y-59649500D01*
X135582515Y-59655909D01*
X135447669Y-59706204D01*
X135332454Y-59792454D01*
X135246204Y-59907669D01*
X135197189Y-60039083D01*
X135162209Y-60089462D01*
X135107365Y-60116915D01*
X135046072Y-60114726D01*
X134993326Y-60083430D01*
X134871404Y-59961508D01*
X134871401Y-59961505D01*
X134677830Y-59825965D01*
X134463663Y-59726097D01*
X134402501Y-59709709D01*
X134235407Y-59664936D01*
X134000000Y-59644340D01*
X133764592Y-59664936D01*
X133536336Y-59726097D01*
X133322170Y-59825965D01*
X133128598Y-59961505D01*
X132961505Y-60128598D01*
X132831575Y-60314159D01*
X132787257Y-60353025D01*
X132730000Y-60367036D01*
X132672743Y-60353025D01*
X132628425Y-60314159D01*
X132547624Y-60198763D01*
X132498495Y-60128599D01*
X132331401Y-59961505D01*
X132137830Y-59825965D01*
X131923663Y-59726097D01*
X131862501Y-59709709D01*
X131695407Y-59664936D01*
X131460000Y-59644340D01*
X131224592Y-59664936D01*
X130996336Y-59726097D01*
X130782170Y-59825965D01*
X130588598Y-59961505D01*
X130421505Y-60128598D01*
X130285965Y-60322170D01*
X130186097Y-60536336D01*
X130124936Y-60764592D01*
X130104340Y-60999999D01*
X119374826Y-60999999D01*
X119548015Y-60919873D01*
X119854636Y-60735386D01*
X120139515Y-60518827D01*
X120152742Y-60506297D01*
X120152743Y-60506295D01*
X118000000Y-58353553D01*
X115847255Y-60506295D01*
X115300500Y-60506295D01*
X115300500Y-60256847D01*
X115314945Y-60198764D01*
X115354913Y-60154214D01*
X115411093Y-60133574D01*
X115470397Y-60141654D01*
X115481156Y-60149382D01*
X115496442Y-60150004D01*
X117646445Y-58000001D01*
X118353553Y-58000001D01*
X120503556Y-60150003D01*
X120630968Y-60000004D01*
X120831781Y-59703829D01*
X120999398Y-59387670D01*
X121131850Y-59055241D01*
X121227580Y-58710451D01*
X121285474Y-58357310D01*
X121304847Y-58000000D01*
X121304847Y-57999999D01*
X208695152Y-57999999D01*
X208714525Y-58357310D01*
X208772419Y-58710451D01*
X208868149Y-59055241D01*
X209000601Y-59387670D01*
X209168218Y-59703829D01*
X209369031Y-60000004D01*
X209496441Y-60150003D01*
X209496442Y-60150004D01*
X211646447Y-58000001D01*
X211646447Y-58000000D01*
X209496442Y-55849994D01*
X209496441Y-55849995D01*
X209369030Y-55999995D01*
X209168218Y-56296170D01*
X209000601Y-56612329D01*
X208868149Y-56944758D01*
X208772419Y-57289548D01*
X208714525Y-57642689D01*
X208695152Y-57999999D01*
X121304847Y-57999999D01*
X121285474Y-57642689D01*
X121227580Y-57289548D01*
X121131850Y-56944758D01*
X120999398Y-56612329D01*
X120831781Y-56296170D01*
X120630968Y-55999995D01*
X120503557Y-55849995D01*
X120503556Y-55849994D01*
X118353553Y-57999999D01*
X118353553Y-58000001D01*
X117646445Y-58000001D01*
X120152743Y-55493703D01*
X120152560Y-55480260D01*
X120142926Y-55465366D01*
X120137225Y-55407096D01*
X120158896Y-55352707D01*
X120203105Y-55314322D01*
X120259998Y-55300500D01*
X209739999Y-55300500D01*
X209796892Y-55314322D01*
G37*
%TD.AperFunction*%
%TD*%
M02*
