M48
; DRILL file {KiCad 7.0.1} date Sun Dec 24 21:56:29 2023
; FORMAT={-:-/ absolute / inch / decimal}
; #@! TF.CreationDate,2023-12-24T21:56:29+00:00
; #@! TF.GenerationSoftware,Kicad,Pcbnew,7.0.1
; #@! TF.FileFunction,Plated,1,8,PTH
FMAT,2
INCH
; #@! TA.AperFunction,Plated,PTH,ViaDrill
T1C0.0079
; #@! TA.AperFunction,Plated,PTH,ComponentDrill
T2C0.0120
%
G90
G05
T1
X5.2244Y-3.4803
X5.2249Y-3.937
X5.2249Y-3.9764
X5.2249Y-4.0157
X5.2249Y-4.0551
X5.2249Y-4.0945
X5.2283Y-3.4528
X5.2323Y-4.2323
X5.2362Y-3.4213
X5.252Y-3.4488
X5.252Y-3.4764
X5.252Y-3.5787
X5.252Y-4.2559
X5.2559Y-3.6024
X5.2559Y-4.1535
X5.2677Y-4.185
X5.2717Y-3.4567
X5.2717Y-3.563
X5.2717Y-4.2756
X5.277Y-4.2981
X5.2795Y-3.4094
X5.2835Y-3.3661
X5.2874Y-4.2087
X5.2913Y-3.5472
X5.2913Y-3.5748
X5.2913Y-4.3189
X5.2953Y-3.5
X5.2953Y-3.6024
X5.2953Y-4.1535
X5.299Y-3.3524
X5.3031Y-3.4764
X5.3059Y-3.3734
X5.3071Y-4.2323
X5.3099Y-3.3307
X5.311Y-3.5551
X5.311Y-4.3543
X5.315Y-3.5787
X5.315Y-4.1811
X5.3189Y-3.4961
X5.3268Y-3.3858
X5.3268Y-3.4213
X5.3268Y-4.252
X5.3307Y-3.4764
X5.3331Y-3.3104
X5.3346Y-3.5512
X5.3346Y-3.6024
X5.3346Y-4.1535
X5.3346Y-4.2087
X5.3386Y-4.3858
X5.3425Y-3.4961
X5.3491Y-3.2944
X5.3504Y-3.4213
X5.3504Y-4.2717
X5.3543Y-3.4764
X5.3543Y-3.5787
X5.3543Y-4.1811
X5.3543Y-4.2323
X5.3543Y-4.3228
X5.3583Y-3.5551
X5.3583Y-3.2734
X5.3661Y-3.4961
X5.374Y-3.6024
X5.374Y-4.1535
X5.374Y-4.2087
X5.374Y-4.2559
X5.374Y-4.4134
X5.378Y-3.4764
X5.378Y-4.3465
X5.3814Y-3.2757
X5.3819Y-3.5472
X5.3821Y-3.2537
X5.3898Y-3.5039
X5.3898Y-4.2441
X5.3898Y-4.2717
X5.3937Y-3.5787
X5.3937Y-4.1811
X5.3937Y-4.3228
X5.3976Y-4.2165
X5.4016Y-3.2441
X5.4016Y-3.4606
X5.4016Y-3.4882
X5.4055Y-3.5472
X5.4134Y-3.6024
X5.4134Y-4.1535
X5.4134Y-4.3465
X5.4134Y-4.4134
X5.4134Y-4.4528
X5.4171Y-3.2276
X5.4173Y-4.1969
X5.4291Y-4.3189
X5.4326Y-3.2119
X5.4331Y-3.5827
X5.4409Y-4.1772
X5.4409Y-4.3386
X5.4449Y-3.5374
X5.4449Y-4.2598
X5.4453Y-3.5134
X5.4474Y-3.1965
X5.4528Y-3.6024
X5.4528Y-3.6417
X5.4528Y-3.6811
X5.4528Y-3.7205
X5.4528Y-3.7598
X5.4528Y-3.7992
X5.4528Y-3.8386
X5.4528Y-3.878
X5.4528Y-3.9173
X5.4528Y-3.9567
X5.4528Y-3.9961
X5.4528Y-4.0354
X5.4528Y-4.0748
X5.4528Y-4.1142
X5.4528Y-4.1535
X5.4528Y-4.4134
X5.4528Y-4.4528
X5.4528Y-4.4921
X5.4646Y-3.5197
X5.4646Y-4.315
X5.4661Y-3.1774
X5.4666Y-4.276
X5.4685Y-4.189
X5.4685Y-4.2323
X5.4685Y-4.374
X5.4724Y-3.622
X5.4724Y-3.6614
X5.4724Y-3.7008
X5.4724Y-3.7402
X5.4724Y-3.7795
X5.4724Y-3.8189
X5.4724Y-3.8583
X5.4724Y-3.8976
X5.4724Y-3.937
X5.4724Y-3.9764
X5.4724Y-4.0157
X5.4724Y-4.0551
X5.4724Y-4.0945
X5.4724Y-4.1339
X5.4803Y-4.2559
X5.4843Y-3.5551
X5.4921Y-3.5807
X5.4921Y-3.8386
X5.4921Y-3.878
X5.4921Y-3.9173
X5.4921Y-3.9567
X5.4921Y-3.9961
X5.4921Y-4.0354
X5.4921Y-4.0748
X5.4921Y-4.1142
X5.4921Y-4.1535
X5.5012Y-3.1421
X5.5062Y-3.7941
X5.5118Y-3.7402
X5.5124Y-3.7717
X5.5157Y-4.252
X5.5157Y-4.2953
X5.5197Y-4.1181
X5.5217Y-3.8386
X5.523Y-3.1466
X5.5236Y-3.7205
X5.5236Y-3.8622
X5.5236Y-3.8937
X5.5238Y-3.6691
X5.5274Y-3.167
X5.5433Y-3.5512
X5.5472Y-3.5906
X5.5472Y-4.1102
X5.5512Y-3.1969
X5.5551Y-3.5197
X5.563Y-3.752
X5.563Y-3.8465
X5.563Y-3.878
X5.5748Y-3.1811
X5.5748Y-4.3071
X5.5748Y-4.3622
X5.5827Y-3.2205
X5.5866Y-3.5157
X5.5906Y-3.4961
X5.5906Y-4.4094
X5.5906Y-4.4488
X5.5906Y-4.4882
X5.5906Y-4.5276
X5.5945Y-3.626
X5.5945Y-3.7205
X5.5945Y-3.752
X5.5945Y-3.7835
X5.5945Y-3.815
X5.5945Y-3.8465
X5.5945Y-3.878
X5.5945Y-3.9724
X5.6024Y-3.2362
X5.6102Y-3.5906
X5.6126Y-4.2885
X5.6142Y-3.185
X5.6142Y-3.4882
X5.6181Y-3.4672
X5.6201Y-4.3307
X5.6201Y-4.3701
X5.622Y-3.2441
X5.6224Y-4.5813
X5.626Y-3.626
X5.626Y-3.689
X5.626Y-3.7205
X5.626Y-3.752
X5.626Y-3.7835
X5.626Y-3.9409
X5.626Y-3.9724
X5.626Y-4.0039
X5.626Y-4.0354
X5.626Y-4.0669
X5.6299Y-3.2185
X5.6299Y-4.4094
X5.6299Y-4.4488
X5.6299Y-4.4882
X5.6299Y-4.5276
X5.6339Y-4.1457
X5.6339Y-4.1693
X5.6378Y-3.4252
X5.6398Y-4.3504
X5.6417Y-3.1063
X5.6417Y-3.4567
X5.6417Y-3.5906
X5.6417Y-4.1929
X5.6575Y-3.2874
X5.6575Y-3.4094
X5.6575Y-3.626
X5.6575Y-3.689
X5.6575Y-3.7205
X5.6575Y-3.752
X5.6575Y-3.7835
X5.6575Y-3.815
X5.6575Y-3.8465
X5.6575Y-3.878
X5.6575Y-3.9094
X5.6575Y-4.0039
X5.6575Y-4.0354
X5.6575Y-4.0669
X5.6594Y-4.3307
X5.6594Y-4.3701
X5.6624Y-4.189
X5.6693Y-3.1063
X5.6693Y-4.4094
X5.6693Y-4.4488
X5.6693Y-4.4882
X5.6693Y-4.5276
X5.6732Y-3.5906
X5.6732Y-4.2126
X5.6748Y-3.4355
X5.6772Y-3.1614
X5.6772Y-3.3976
X5.6772Y-3.4803
X5.6791Y-4.3504
X5.685Y-4.2283
X5.6858Y-3.3307
X5.689Y-3.689
X5.689Y-3.7205
X5.689Y-3.9409
X5.689Y-3.9724
X5.689Y-4.0039
X5.6906Y-4.5752
X5.6969Y-3.4646
X5.6969Y-4.2126
X5.6988Y-4.3307
X5.6988Y-4.3701
X5.7043Y-3.4457
X5.7047Y-3.3071
X5.7051Y-3.4031
X5.7087Y-3.4252
X5.7087Y-4.4488
X5.7087Y-4.4882
X5.7087Y-4.5276
X5.7126Y-3.3583
X5.7205Y-3.689
X5.7205Y-3.7205
X5.7205Y-3.9409
X5.7205Y-3.9724
X5.7205Y-4.2126
X5.7244Y-3.2441
X5.7244Y-3.5236
X5.7283Y-3.7913
X5.7283Y-3.811
X5.7283Y-3.8307
X5.7283Y-3.8504
X5.7283Y-3.8701
X5.7323Y-3.1102
X5.7323Y-3.1496
X5.7323Y-3.1772
X5.7323Y-4.2283
X5.7402Y-3.3071
X5.7441Y-4.2126
X5.748Y-3.5236
X5.748Y-3.7913
X5.748Y-3.811
X5.748Y-3.8307
X5.748Y-3.8504
X5.748Y-3.8701
X5.748Y-4.5276
X5.752Y-3.2323
X5.752Y-3.3307
X5.752Y-3.6575
X5.752Y-3.689
X5.752Y-3.7205
X5.752Y-3.9094
X5.752Y-4.0039
X5.7549Y-4.1919
X5.7559Y-3.2913
X5.7638Y-3.3504
X5.7638Y-4.2913
X5.7638Y-4.4055
X5.7638Y-4.4331
X5.7654Y-4.5748
X5.7666Y-4.2112
X5.7677Y-3.7913
X5.7677Y-3.811
X5.7677Y-3.8307
X5.7677Y-3.8504
X5.7677Y-3.8701
X5.7716Y-3.5236
X5.7756Y-3.2126
X5.7756Y-3.2323
X5.7835Y-3.626
X5.7835Y-3.6575
X5.7835Y-3.689
X5.7835Y-3.7205
X5.7835Y-3.9409
X5.7835Y-4.0039
X5.7835Y-4.0354
X5.7835Y-4.4567
X5.7874Y-3.2874
X5.7874Y-3.7913
X5.7874Y-3.811
X5.7874Y-3.8307
X5.7874Y-3.8504
X5.7874Y-3.8701
X5.7874Y-4.2795
X5.7953Y-3.5236
X5.7992Y-3.5039
X5.8Y-4.1417
X5.8Y-4.1811
X5.8055Y-4.6024
X5.8071Y-3.7913
X5.8071Y-3.811
X5.8071Y-3.8307
X5.8071Y-3.8504
X5.8071Y-3.8701
X5.811Y-3.1772
X5.815Y-3.2126
X5.815Y-3.6575
X5.815Y-3.689
X5.815Y-3.7205
X5.815Y-3.9409
X5.815Y-3.9724
X5.8189Y-3.5189
X5.8228Y-3.2835
X5.8251Y-3.3262
X5.8254Y-4.4914
X5.8268Y-4.2283
X5.8295Y-3.3567
X5.8307Y-3.1969
X5.8307Y-3.5906
X5.8346Y-4.624
X5.8386Y-3.5
X5.8425Y-3.4173
X5.8425Y-4.0709
X5.8465Y-3.3701
X5.8465Y-3.4409
X5.8465Y-3.4803
X5.8465Y-3.6575
X5.8465Y-3.689
X5.8465Y-3.7205
X5.8465Y-3.9409
X5.8465Y-3.9724
X5.8465Y-4.0039
X5.8465Y-4.0354
X5.8504Y-3.1772
X5.8504Y-3.2165
X5.8543Y-3.4606
X5.8583Y-4.563
X5.8622Y-4.4685
X5.878Y-3.6575
X5.878Y-3.689
X5.878Y-3.7205
X5.878Y-3.752
X5.878Y-3.7835
X5.878Y-3.815
X5.878Y-3.8465
X5.878Y-3.878
X5.878Y-3.9409
X5.878Y-4.0039
X5.878Y-4.4252
X5.878Y-4.5118
X5.8784Y-3.9099
X5.8898Y-3.1772
X5.8898Y-3.2165
X5.8898Y-4.5984
X5.8976Y-4.0906
X5.9016Y-4.122
X5.9094Y-3.689
X5.9094Y-3.7205
X5.9094Y-3.752
X5.9094Y-3.7835
X5.9094Y-3.8465
X5.9094Y-3.9724
X5.9193Y-4.5669
X5.9193Y-4.6142
X5.9213Y-3.5787
X5.9213Y-4.2087
X5.9213Y-4.252
X5.9213Y-4.2953
X5.9252Y-4.3583
X5.9283Y-3.111
X5.9284Y-4.4657
X5.9291Y-3.1772
X5.9291Y-3.2559
X5.9291Y-3.2953
X5.9331Y-4.3386
X5.9409Y-3.752
X5.9409Y-3.7835
X5.9409Y-3.815
X5.9409Y-3.8465
X5.9409Y-3.9094
X5.9409Y-3.9409
X5.9409Y-3.9724
X5.9409Y-4.0354
X5.9409Y-4.5063
X5.9488Y-3.1969
X5.9488Y-3.2362
X5.9606Y-4.1142
X5.9646Y-4.4488
X5.9681Y-4.2047
X5.9685Y-3.1378
X5.9685Y-3.2165
X5.9685Y-3.2559
X5.9685Y-3.2953
X5.9685Y-4.3976
X5.9685Y-4.4843
X5.9724Y-3.815
X5.9724Y-3.9724
X5.9724Y-4.0354
X5.9803Y-4.311
X5.9859Y-4.4587
X5.9882Y-4.1299
X5.9921Y-4.3937
X6.0Y-4.1063
X6.0039Y-3.7205
X6.0039Y-3.9409
X6.0043Y-3.9091
X6.0071Y-4.1654
X6.0079Y-3.1378
X6.0079Y-4.0512
X6.0083Y-4.2047
X6.0217Y-3.9223
X6.0236Y-3.5748
X6.0236Y-3.7283
X6.0276Y-3.748
X6.0276Y-4.2441
X6.0315Y-4.2244
X6.0394Y-4.4291
X6.0394Y-4.4685
X6.0423Y-3.9213
X6.0509Y-4.348
X6.0517Y-3.9012
X6.0551Y-3.1764
X6.0591Y-4.4488
X6.0591Y-4.5394
X6.0669Y-3.5945
X6.0689Y-3.7283
X6.0717Y-3.7756
X6.0748Y-3.8435
X6.0748Y-3.8652
X6.0787Y-4.4291
X6.0787Y-4.4685
X6.0827Y-3.252
X6.0886Y-4.3583
X6.0906Y-4.5472
X6.0914Y-3.6052
X6.0943Y-3.8569
X6.0984Y-3.2677
X6.1026Y-3.8384
X6.1063Y-3.6732
X6.1102Y-3.5945
X6.1179Y-3.8231
X6.1181Y-4.3583
X6.1181Y-4.5079
X6.1185Y-3.8026
X6.1193Y-3.1386
X6.122Y-3.1772
X6.122Y-4.315
X6.122Y-4.5354
X6.1222Y-3.316
X6.126Y-4.5906
X6.1319Y-3.1969
X6.1417Y-3.1772
X6.1417Y-3.4094
X6.1417Y-3.4488
X6.1457Y-3.2756
X6.1457Y-4.4961
X6.1496Y-4.4193
X6.1556Y-3.5384
X6.1559Y-4.339
X6.1614Y-3.4291
X6.1692Y-3.3211
X6.1768Y-4.4567
X6.1772Y-3.2047
X6.1772Y-4.5591
X6.1811Y-3.4094
X6.1811Y-3.4488
X6.1881Y-3.5394
X6.1881Y-3.5763
X6.189Y-3.3268
X6.1929Y-3.1929
X6.1929Y-3.2717
X6.1929Y-4.3433
X6.1969Y-3.3504
X6.2087Y-3.2047
X6.2087Y-3.4843
X6.2126Y-3.3701
X6.2244Y-3.1929
X6.2283Y-3.3307
X6.2283Y-3.3898
X6.2323Y-4.3421
X6.2402Y-3.2047
X6.2441Y-4.5354
X6.252Y-3.3307
X6.2551Y-4.4417
X6.2559Y-3.1929
X6.2717Y-3.3504
X6.272Y-3.2091
X6.2724Y-3.4638
X6.2795Y-4.311
X6.2992Y-3.2087
X6.3031Y-3.3543
X6.3071Y-3.2677
X6.3189Y-3.4764
X6.32Y-3.4152
X6.3268Y-3.3378
X6.3298Y-3.264
X6.3307Y-3.8701
X6.3346Y-3.5197
X6.3346Y-3.5512
X6.3346Y-3.7283
X6.3346Y-3.752
X6.3346Y-3.7992
X6.3363Y-3.404
X6.3386Y-3.8937
X6.3421Y-4.0243
X6.3465Y-3.2795
X6.3473Y-3.6878
X6.3504Y-3.3543
X6.3504Y-3.878
X6.3512Y-3.5
X6.3524Y-3.8465
X6.3533Y-3.5354
X6.3543Y-3.9409
X6.3543Y-3.9646
X6.3557Y-3.9871
X6.3583Y-3.7106
X6.3583Y-3.7402
X6.3602Y-3.6693
X6.3622Y-3.8937
X6.3661Y-3.9134
X6.3701Y-3.5512
X6.3703Y-3.5219
X6.374Y-3.3378
X6.374Y-3.5906
X6.374Y-3.811
X6.374Y-3.8386
X6.3819Y-3.8583
X6.3858Y-3.7933
X6.3898Y-3.7028
X6.3976Y-3.811
X6.3976Y-4.3937
X6.4016Y-3.5945
X6.4016Y-3.7638
X6.4016Y-4.3307
X6.4055Y-4.2283
X6.4165Y-3.3316
X6.4173Y-3.4339
X6.4173Y-3.4717
X6.4173Y-4.2087
X6.4242Y-4.1644
X6.4252Y-3.6024
X6.4252Y-3.626
X6.4429Y-4.1949
X6.4449Y-3.437
X6.4469Y-4.3327
X6.4488Y-3.6024
X6.4488Y-4.0709
X6.4488Y-4.0945
X6.4488Y-4.1181
X6.4528Y-3.6949
X6.4528Y-3.7185
X6.4567Y-3.9134
X6.4567Y-3.9528
X6.4567Y-4.0
X6.4567Y-4.0236
X6.461Y-3.2992
X6.4646Y-4.0512
X6.4646Y-4.2756
X6.4685Y-3.3969
X6.4685Y-3.4252
X6.4724Y-4.2244
X6.4724Y-4.3327
X6.4775Y-3.8567
X6.479Y-3.7749
X6.4843Y-3.811
X6.4843Y-3.8346
X6.498Y-3.7894
X6.5Y-4.126
X6.5079Y-4.1496
X6.5079Y-4.1693
X6.5079Y-4.189
X6.5113Y-3.5605
X6.5113Y-3.5881
X6.5113Y-3.6156
X6.5118Y-3.9213
X6.5138Y-3.9665
X6.515Y-3.3626
X6.515Y-3.4028
X6.5157Y-3.7126
X6.5157Y-4.248
X6.5197Y-3.9449
X6.5197Y-4.0197
X6.5236Y-4.0433
X6.5239Y-3.5079
X6.5239Y-3.533
X6.5354Y-4.1142
X6.5389Y-3.5605
X6.5389Y-3.5881
X6.5389Y-3.6156
X6.5394Y-3.4567
X6.5394Y-3.7126
X6.5394Y-4.0295
X6.5571Y-3.9705
X6.5617Y-3.5079
X6.5617Y-3.533
X6.565Y-3.7598
X6.5669Y-3.8031
X6.5669Y-3.8484
X6.5669Y-3.8937
X6.5743Y-3.5881
X6.5743Y-3.6275
X6.5984Y-4.0295
X6.624Y-3.9961
T2
X5.3994Y-3.3721
X5.4328Y-3.4055
X5.4365Y-3.335
X5.4662Y-3.4389
X5.4699Y-3.3684
X5.4736Y-3.2979
X5.4996Y-3.4723
X5.5033Y-3.4018
X5.507Y-3.3313
X5.5107Y-3.2607
X5.5367Y-3.4352
X5.5404Y-3.3647
X5.5441Y-3.2942
X5.5738Y-3.3981
X5.5775Y-3.3276
X5.6109Y-3.361
T0
M30
