M48
; DRILL file {KiCad 7.0.1} date Sat Dec 30 02:23:53 2023
; FORMAT={-:-/ absolute / inch / decimal}
; #@! TF.CreationDate,2023-12-30T02:23:53+00:00
; #@! TF.GenerationSoftware,Kicad,Pcbnew,7.0.1
; #@! TF.FileFunction,Plated,1,8,PTH
FMAT,2
INCH
; #@! TA.AperFunction,Plated,PTH,ViaDrill
T1C0.0079
; #@! TA.AperFunction,Plated,PTH,ComponentDrill
T2C0.0120
%
G90
G05
T1
X5.2205Y-4.1535
X5.2249Y-3.8701
X5.2249Y-3.9094
X5.2249Y-3.9488
X5.2249Y-3.9882
X5.2249Y-4.0276
X5.2323Y-4.1969
X5.2352Y-3.4715
X5.2362Y-4.2244
X5.2402Y-4.1732
X5.2441Y-4.2441
X5.248Y-4.2638
X5.2559Y-3.4055
X5.2559Y-3.4488
X5.2559Y-3.5354
X5.2559Y-4.0866
X5.2756Y-3.374
X5.2756Y-3.4252
X5.2756Y-3.4705
X5.2756Y-3.5138
X5.2756Y-4.1063
X5.2874Y-4.2953
X5.2913Y-4.126
X5.2913Y-4.1535
X5.2913Y-4.1811
X5.2953Y-3.3504
X5.2953Y-3.4016
X5.2953Y-3.4488
X5.2953Y-3.5354
X5.2953Y-4.0866
X5.3031Y-4.2087
X5.3031Y-4.2362
X5.3031Y-4.3465
X5.3071Y-4.3031
X5.315Y-3.378
X5.315Y-3.4252
X5.315Y-3.4715
X5.315Y-3.5128
X5.315Y-4.1063
X5.3346Y-3.4016
X5.3346Y-3.4488
X5.3346Y-3.5354
X5.3346Y-4.0866
X5.3346Y-4.3858
X5.3386Y-3.3228
X5.3465Y-4.1929
X5.3465Y-4.2205
X5.3465Y-4.248
X5.3465Y-4.4055
X5.3504Y-4.1614
X5.3514Y-4.1053
X5.3543Y-3.4252
X5.3543Y-3.4705
X5.3543Y-3.5138
X5.3622Y-3.311
X5.3622Y-3.3976
X5.3661Y-3.3622
X5.374Y-3.2756
X5.374Y-3.4488
X5.374Y-3.5354
X5.374Y-4.0866
X5.378Y-3.2992
X5.378Y-3.3819
X5.3858Y-3.4213
X5.3937Y-3.4016
X5.3937Y-4.1772
X5.394Y-3.5129
X5.3947Y-3.4724
X5.3957Y-3.2657
X5.4016Y-3.4449
X5.4055Y-3.4173
X5.4134Y-3.252
X5.4134Y-3.5354
X5.4134Y-4.0866
X5.4213Y-3.4331
X5.4252Y-3.5128
X5.4281Y-3.4685
X5.4291Y-3.2362
X5.436Y-4.1063
X5.4441Y-3.4524
X5.4449Y-3.2126
X5.4528Y-3.5354
X5.4528Y-3.5748
X5.4528Y-3.6142
X5.4528Y-3.6535
X5.4528Y-3.6929
X5.4528Y-3.7323
X5.4528Y-3.7717
X5.4528Y-3.811
X5.4528Y-3.8504
X5.4528Y-3.8898
X5.4528Y-3.9291
X5.4528Y-3.9685
X5.4528Y-4.0079
X5.4528Y-4.0472
X5.4528Y-4.0866
X5.4528Y-4.2205
X5.4724Y-3.5157
X5.4724Y-3.5551
X5.4724Y-3.5945
X5.4724Y-3.6339
X5.4724Y-3.6732
X5.4724Y-3.7126
X5.4724Y-3.752
X5.4724Y-3.7913
X5.4724Y-3.8307
X5.4724Y-3.8701
X5.4724Y-3.9094
X5.4724Y-3.9488
X5.4724Y-3.9882
X5.4724Y-4.0276
X5.4724Y-4.0669
X5.4724Y-4.1063
X5.4734Y-3.4902
X5.4764Y-3.1811
X5.4843Y-4.2835
X5.4843Y-4.3425
X5.4843Y-4.4016
X5.4843Y-4.4646
X5.4921Y-3.5
X5.4921Y-3.5354
X5.4921Y-3.5748
X5.4921Y-3.6142
X5.4921Y-3.6535
X5.4921Y-3.6929
X5.4921Y-3.7323
X5.4921Y-3.7717
X5.4921Y-3.811
X5.4921Y-3.8504
X5.4921Y-3.8898
X5.4921Y-3.9291
X5.4921Y-3.9685
X5.4921Y-4.0079
X5.4921Y-4.0472
X5.4921Y-4.0866
X5.5Y-4.1417
X5.5Y-4.2126
X5.5039Y-3.5157
X5.5079Y-3.1535
X5.5079Y-4.5
X5.5276Y-4.4961
X5.5394Y-3.5394
X5.5748Y-3.1614
X5.6024Y-3.1575
X5.6024Y-3.189
X5.6024Y-3.689
X5.6024Y-3.7362
X5.6102Y-4.5709
X5.6142Y-3.5315
X5.6181Y-4.5906
X5.622Y-3.5079
X5.626Y-3.6732
X5.6299Y-3.4528
X5.6378Y-3.5669
X5.6378Y-3.622
X5.6378Y-3.6575
X5.6417Y-3.1929
X5.6417Y-3.4724
X5.6496Y-3.5846
X5.6496Y-3.6043
X5.6535Y-3.4488
X5.6575Y-3.6654
X5.6614Y-3.5669
X5.6614Y-3.622
X5.6654Y-3.6457
X5.6693Y-3.1102
X5.6791Y-3.7539
X5.6811Y-3.4094
X5.6811Y-3.7165
X5.6811Y-3.7992
X5.6811Y-3.8189
X5.6811Y-3.9724
X5.685Y-3.2323
X5.685Y-3.3819
X5.685Y-3.5157
X5.685Y-3.563
X5.685Y-3.6939
X5.685Y-3.7795
X5.685Y-3.878
X5.685Y-3.9094
X5.685Y-4.4213
X5.6929Y-4.1102
X5.6929Y-4.2874
X5.7087Y-3.1102
X5.7087Y-3.1496
X5.7126Y-4.1772
X5.7126Y-4.2205
X5.7126Y-4.3071
X5.7126Y-4.3504
X5.7126Y-4.3937
X5.7205Y-3.3622
X5.7244Y-3.2717
X5.7402Y-3.5118
X5.748Y-3.1102
X5.748Y-3.1496
X5.748Y-3.189
X5.748Y-3.3425
X5.748Y-3.378
X5.748Y-3.4843
X5.7559Y-3.5787
X5.7559Y-3.6102
X5.7559Y-3.6417
X5.7559Y-3.7362
X5.7559Y-3.7992
X5.7559Y-3.8622
X5.7559Y-3.9567
X5.7677Y-3.5118
X5.7677Y-4.0039
X5.7756Y-3.2165
X5.7835Y-3.4685
X5.7874Y-3.1102
X5.7874Y-3.1496
X5.7874Y-3.4921
X5.7874Y-3.5787
X5.7874Y-3.6102
X5.7874Y-3.6417
X5.7874Y-3.7992
X5.7874Y-3.8307
X5.7992Y-4.1772
X5.7992Y-4.2205
X5.8031Y-4.4449
X5.8071Y-3.5079
X5.8071Y-4.374
X5.8071Y-4.6457
X5.811Y-4.2835
X5.8189Y-3.6417
X5.8189Y-3.6732
X5.8189Y-3.7047
X5.8189Y-3.7362
X5.8189Y-3.7677
X5.8189Y-3.7992
X5.8189Y-3.8307
X5.8189Y-4.4094
X5.8228Y-4.3386
X5.8268Y-3.1102
X5.8346Y-4.4449
X5.8346Y-4.6457
X5.8386Y-4.378
X5.8425Y-4.1457
X5.8504Y-3.5787
X5.8504Y-3.6417
X5.8504Y-3.9567
X5.8514Y-3.4409
X5.8543Y-4.2835
X5.8661Y-3.1102
X5.8701Y-3.1575
X5.8701Y-3.1969
X5.8701Y-3.2362
X5.872Y-3.4606
X5.873Y-3.4409
X5.878Y-4.4606
X5.8819Y-3.8622
X5.8898Y-3.4724
X5.8898Y-3.7283
X5.8898Y-3.7756
X5.8937Y-4.2283
X5.8976Y-4.1654
X5.9055Y-3.1102
X5.9094Y-3.7126
X5.9094Y-3.7323
X5.9094Y-3.752
X5.9094Y-3.7717
X5.9094Y-3.7913
X5.9094Y-4.2126
X5.9134Y-3.6417
X5.9134Y-3.8622
X5.9252Y-4.2323
X5.9272Y-3.5098
X5.9291Y-3.2953
X5.9291Y-3.7323
X5.9291Y-3.752
X5.9291Y-3.7717
X5.9299Y-4.3346
X5.9331Y-4.1457
X5.9331Y-4.4567
X5.9409Y-4.2116
X5.9449Y-3.1102
X5.9449Y-3.6417
X5.9449Y-3.8622
X5.9449Y-3.9567
X5.9449Y-4.2746
X5.9488Y-3.1575
X5.9488Y-3.1969
X5.9488Y-3.2362
X5.9488Y-3.7126
X5.9488Y-3.7323
X5.9488Y-3.752
X5.9488Y-3.7717
X5.9488Y-3.7913
X5.9488Y-4.4449
X5.9528Y-4.2323
X5.9567Y-4.1496
X5.9606Y-3.5118
X5.9646Y-4.6457
X5.9685Y-3.2953
X5.9685Y-3.7283
X5.9685Y-3.7756
X5.9685Y-4.2126
X5.9685Y-4.2795
X5.9724Y-4.3346
X5.9764Y-3.6102
X5.9764Y-3.6417
X5.9764Y-3.8622
X5.9764Y-4.1654
X5.9843Y-3.1102
X5.9882Y-3.1969
X5.9882Y-4.6496
X6.0039Y-4.0
X6.0079Y-3.5472
X6.0079Y-3.6417
X6.0079Y-3.8622
X6.0118Y-4.6457
X6.0197Y-4.3386
X6.0236Y-3.1102
X6.0236Y-4.622
X6.0256Y-4.0492
X6.0268Y-3.1378
X6.0276Y-3.1772
X6.0276Y-3.1969
X6.0276Y-3.2362
X6.0276Y-3.2756
X6.0276Y-4.2283
X6.0315Y-4.4409
X6.0394Y-3.5472
X6.0394Y-3.5787
X6.0394Y-3.6417
X6.0394Y-3.6732
X6.0394Y-3.7047
X6.0394Y-3.7362
X6.0394Y-3.7677
X6.0394Y-3.7992
X6.0394Y-3.8307
X6.0502Y-4.2195
X6.0512Y-4.4547
X6.0551Y-3.9961
X6.0551Y-4.0236
X6.0551Y-4.0512
X6.063Y-3.1102
X6.0709Y-3.5787
X6.0709Y-3.6102
X6.0709Y-3.6417
X6.0709Y-3.6732
X6.0709Y-3.7677
X6.0709Y-4.2795
X6.0748Y-4.5315
X6.0768Y-4.4547
X6.0787Y-4.1417
X6.0827Y-4.0354
X6.0827Y-4.2106
X6.0827Y-4.2323
X6.0906Y-3.2047
X6.0989Y-3.5123
X6.1024Y-3.1102
X6.1024Y-3.248
X6.1024Y-3.315
X6.1024Y-3.6102
X6.1024Y-3.6417
X6.1024Y-3.6732
X6.1024Y-3.7047
X6.1024Y-3.7992
X6.1024Y-3.8307
X6.1024Y-4.4547
X6.1193Y-3.1386
X6.122Y-3.1772
X6.122Y-3.2953
X6.126Y-3.4921
X6.1299Y-4.3346
X6.1319Y-3.1969
X6.1339Y-3.6417
X6.1398Y-3.5098
X6.1417Y-3.1772
X6.1417Y-3.2756
X6.1417Y-4.3937
X6.1535Y-3.3425
X6.1535Y-4.3504
X6.1575Y-3.3661
X6.1614Y-4.3228
X6.1614Y-4.4134
X6.1692Y-3.3211
X6.1693Y-3.5915
X6.1693Y-3.6289
X6.1693Y-4.2244
X6.1693Y-4.2756
X6.1732Y-3.7559
X6.1732Y-4.5394
X6.1752Y-3.7815
X6.1772Y-3.2047
X6.1791Y-3.8425
X6.1811Y-3.4016
X6.1811Y-3.4528
X6.1873Y-4.2402
X6.1873Y-4.2598
X6.189Y-3.3268
X6.189Y-4.5079
X6.1909Y-4.4783
X6.1929Y-3.2717
X6.1969Y-3.7677
X6.1969Y-3.7913
X6.1969Y-3.8268
X6.1969Y-3.9803
X6.2047Y-3.4843
X6.2047Y-3.5118
X6.2047Y-3.5394
X6.2047Y-3.5709
X6.2067Y-4.25
X6.2087Y-3.3819
X6.2112Y-3.2003
X6.2165Y-3.9439
X6.2323Y-3.3976
X6.2323Y-4.126
X6.2323Y-4.4882
X6.2362Y-4.2559
X6.2402Y-3.2047
X6.2402Y-3.8425
X6.2402Y-3.9606
X6.2402Y-4.1457
X6.252Y-3.3622
X6.252Y-4.2362
X6.2559Y-3.9764
X6.2559Y-4.3307
X6.2583Y-3.1929
X6.2638Y-4.2126
X6.2638Y-4.3858
X6.2677Y-4.4882
X6.2717Y-3.3504
X6.2717Y-3.8465
X6.2724Y-3.4638
X6.2795Y-3.2087
X6.2874Y-3.8701
X6.2874Y-3.9449
X6.3031Y-3.3543
X6.3071Y-3.2677
X6.311Y-4.4055
X6.315Y-4.0866
X6.3179Y-3.2175
X6.3189Y-3.4764
X6.3189Y-3.9449
X6.3189Y-3.9764
X6.3189Y-4.0433
X6.3228Y-3.8484
X6.3268Y-3.3378
X6.3268Y-3.4094
X6.3298Y-3.264
X6.3307Y-4.185
X6.3346Y-3.5197
X6.3346Y-3.5512
X6.3346Y-4.2874
X6.3465Y-3.2795
X6.3504Y-3.3543
X6.3533Y-3.5354
X6.3543Y-3.5
X6.3543Y-4.4291
X6.3701Y-3.5512
X6.3703Y-3.5219
X6.374Y-3.3378
X6.374Y-4.4016
X6.3976Y-4.0039
X6.3976Y-4.0906
X6.3976Y-4.3819
X6.4094Y-3.7165
X6.4094Y-3.7441
X6.4094Y-3.7717
X6.4094Y-3.8661
X6.4173Y-3.4339
X6.4173Y-3.4717
X6.4173Y-4.3425
X6.4252Y-4.1535
X6.4272Y-4.0906
X6.4291Y-3.8661
X6.4291Y-4.0039
X6.4409Y-3.622
X6.4409Y-4.3071
X6.4488Y-3.4488
X6.4567Y-4.2564
X6.4685Y-3.4252
X6.4685Y-3.6575
X6.4685Y-3.7165
X6.4685Y-3.7953
X6.4685Y-4.0354
X6.4803Y-3.8701
X6.4843Y-3.9252
X6.4902Y-4.0827
X6.499Y-4.0374
X6.4992Y-3.3316
X6.5Y-3.4252
X6.5039Y-4.315
X6.5079Y-3.9134
X6.5079Y-3.9409
X6.5156Y-3.5057
X6.516Y-3.4734
X6.5226Y-4.1437
X6.5236Y-3.748
X6.5276Y-3.622
X6.5315Y-3.689
X6.539Y-3.398
X6.5394Y-3.6543
X6.5413Y-4.1122
X6.5433Y-3.9724
X6.5433Y-4.0551
X6.564Y-4.1988
X6.5669Y-3.8031
X6.5669Y-3.8937
X6.5679Y-4.1762
X6.5709Y-3.7362
X6.5906Y-3.622
X6.5906Y-3.6929
X6.5906Y-3.7441
T2
X5.4313Y-3.3478
X5.4647Y-3.3812
X5.4684Y-3.3107
X5.4981Y-3.4146
X5.5018Y-3.3441
X5.5055Y-3.2736
X5.5315Y-3.448
X5.5352Y-3.3775
X5.5389Y-3.307
X5.5426Y-3.2365
X5.5686Y-3.4109
X5.5723Y-3.3404
X5.576Y-3.2699
X5.6057Y-3.3738
X5.6094Y-3.3033
X5.6428Y-3.3367
T0
M30
