%TF.GenerationSoftware,KiCad,Pcbnew,7.0.1*%
%TF.CreationDate,2023-12-24T21:56:23+00:00*%
%TF.ProjectId,watch_main,77617463-685f-46d6-9169-6e2e6b696361,rev?*%
%TF.SameCoordinates,Original*%
%TF.FileFunction,Profile,NP*%
%FSLAX46Y46*%
G04 Gerber Fmt 4.6, Leading zero omitted, Abs format (unit mm)*
G04 Created by KiCad (PCBNEW 7.0.1) date 2023-12-24 21:56:23*
%MOMM*%
%LPD*%
G01*
G04 APERTURE LIST*
%TA.AperFunction,Profile*%
%ADD10C,0.100000*%
%TD*%
G04 APERTURE END LIST*
D10*
%TO.C,U101*%
X132051035Y-88092635D02*
X132051035Y-106849994D01*
X133400000Y-85200000D02*
X133400000Y-85500000D01*
X133400000Y-85500000D02*
X132929715Y-85971315D01*
X139200000Y-79400000D02*
X133400000Y-85200000D01*
X139200000Y-79400000D02*
X139500000Y-79400000D01*
X139500000Y-79400000D02*
X139567939Y-79333091D01*
X142728086Y-78349994D02*
X157530344Y-78349994D01*
X156050000Y-104849998D02*
X156050002Y-93050000D01*
X157050002Y-92050000D02*
X158550000Y-92050002D01*
X158549998Y-105850000D02*
X157050000Y-105849998D01*
X159550000Y-93050002D02*
X159549998Y-104850000D01*
X164551035Y-82849994D02*
X160426612Y-79138014D01*
X168050000Y-102600000D02*
X168051035Y-104349994D01*
X168051035Y-92349994D02*
X168050000Y-94000000D01*
X168300000Y-94250003D02*
X169051035Y-94249997D01*
X169051035Y-94249997D02*
X169051035Y-95849994D01*
X169051035Y-99649994D02*
X169051035Y-102349994D01*
X169051035Y-102349994D02*
X168300000Y-102350000D01*
X132929715Y-85971315D02*
G75*
G03*
X132051035Y-88092635I2121336J-2121327D01*
G01*
X140244219Y-79304744D02*
G75*
G03*
X139567940Y-79333092I-322728J-381852D01*
G01*
X140244219Y-79304744D02*
G75*
G03*
X142248928Y-78707137I806820J954737D01*
G01*
X142728086Y-78349994D02*
G75*
G03*
X142248929Y-78707137I-2J-499996D01*
G01*
X132051035Y-106849994D02*
G75*
G03*
X148920278Y-118817182I18000010J7500013D01*
G01*
X151180909Y-118815313D02*
G75*
G03*
X148920278Y-118817182I-1129874J-534691D01*
G01*
X157050002Y-92050002D02*
G75*
G03*
X156050002Y-93050000I-2J-999998D01*
G01*
X156050002Y-104849998D02*
G75*
G03*
X157050000Y-105849998I999998J-2D01*
G01*
X157824713Y-78591921D02*
G75*
G03*
X157530344Y-78349994I-294413J-58179D01*
G01*
X159549998Y-93050002D02*
G75*
G03*
X158550000Y-92050002I-999998J2D01*
G01*
X158549998Y-105849998D02*
G75*
G03*
X159549998Y-104850000I2J999998D01*
G01*
X160426590Y-79138038D02*
G75*
G03*
X159998525Y-79165323I-200690J-222962D01*
G01*
X157824674Y-78591929D02*
G75*
G03*
X159998526Y-79165323I1226366J241949D01*
G01*
X168051035Y-92349994D02*
G75*
G03*
X164551035Y-82849994I-14642845J4D01*
G01*
X168300000Y-102350000D02*
G75*
G03*
X168050000Y-102600000I0J-250000D01*
G01*
X151180910Y-118815313D02*
G75*
G03*
X168051034Y-104349994I-1129863J18387718D01*
G01*
X168050000Y-94000000D02*
G75*
G03*
X168300000Y-94250000I250000J0D01*
G01*
%TO.C,SW1501*%
X168000000Y-99650000D02*
X169050000Y-99650000D01*
X167700000Y-99350000D02*
X167700000Y-96150000D01*
X168000000Y-95850000D02*
X169050000Y-95850000D01*
X167700000Y-99350000D02*
G75*
G03*
X168000000Y-99650000I300000J0D01*
G01*
X168000000Y-95850000D02*
G75*
G03*
X167700000Y-96150000I0J-300000D01*
G01*
%TD*%
M02*
