%TF.GenerationSoftware,KiCad,Pcbnew,7.0.1*%
%TF.CreationDate,2023-12-30T18:27:54+00:00*%
%TF.ProjectId,watch_main,77617463-685f-46d6-9169-6e2e6b696361,rev?*%
%TF.SameCoordinates,Original*%
%TF.FileFunction,Profile,NP*%
%FSLAX46Y46*%
G04 Gerber Fmt 4.6, Leading zero omitted, Abs format (unit mm)*
G04 Created by KiCad (PCBNEW 7.0.1) date 2023-12-30 18:27:54*
%MOMM*%
%LPD*%
G01*
G04 APERTURE LIST*
%TA.AperFunction,Profile*%
%ADD10C,0.100000*%
%TD*%
G04 APERTURE END LIST*
D10*
%TO.C,U101*%
X132051036Y-90163702D02*
X132051036Y-106002061D01*
X134394181Y-84506848D02*
X139485164Y-79415865D01*
X143232187Y-78349994D02*
X157028538Y-78349994D01*
X146050000Y-114550000D02*
X146050000Y-114050000D01*
X146300000Y-113800000D02*
X153800000Y-113800000D01*
X153800000Y-114800000D02*
X146300000Y-114800000D01*
X154050000Y-114050000D02*
X154050000Y-114550000D01*
X158250001Y-96249999D02*
X158250002Y-93250000D01*
X159250002Y-92250000D02*
X160750000Y-92250002D01*
X160749999Y-97250001D02*
X159250001Y-97249999D01*
X161750000Y-93250002D02*
X161749999Y-96250001D01*
X164551035Y-82849993D02*
X160645094Y-79334646D01*
X168050000Y-102600000D02*
X168051035Y-104349994D01*
X168051035Y-92349994D02*
X168050000Y-94000000D01*
X168300000Y-94250003D02*
X169051035Y-94249997D01*
X169051035Y-94249997D02*
X169051035Y-95849994D01*
X169051035Y-99649994D02*
X169051035Y-102349994D01*
X169051035Y-102349994D02*
X168300000Y-102350000D01*
X134394182Y-84506848D02*
G75*
G03*
X132051036Y-90163702I5656710J-5656795D01*
G01*
X132051037Y-106002061D02*
G75*
G03*
X132438134Y-107718723I4000236J54D01*
G01*
X140571849Y-79374460D02*
G75*
G03*
X139485164Y-79415866I-520999J-607090D01*
G01*
X140571850Y-79374459D02*
G75*
G03*
X142750794Y-78714859I879168J1024525D01*
G01*
X143232187Y-78349994D02*
G75*
G03*
X142750795Y-78714859I2J-500002D01*
G01*
X146300000Y-113800000D02*
G75*
G03*
X146050000Y-114050000I-1J-249999D01*
G01*
X146050000Y-114550000D02*
G75*
G03*
X146300000Y-114800000I249999J-1D01*
G01*
X132438132Y-107718723D02*
G75*
G03*
X149151035Y-118829213I17612950J8368800D01*
G01*
X150950859Y-118828005D02*
G75*
G03*
X149151035Y-118829213I-899824J-131340D01*
G01*
X154050000Y-114050000D02*
G75*
G03*
X153800000Y-113800000I-250000J0D01*
G01*
X153800000Y-114800000D02*
G75*
G03*
X154050000Y-114550000I0J250000D01*
G01*
X157323554Y-78595446D02*
G75*
G03*
X157028538Y-78349994I-294754J-54254D01*
G01*
X159250002Y-92250002D02*
G75*
G03*
X158250002Y-93250000I-2J-999998D01*
G01*
X158250001Y-96249999D02*
G75*
G03*
X159250001Y-97249999I999999J-1D01*
G01*
X160645072Y-79334671D02*
G75*
G03*
X159567080Y-79341639I-535172J-595029D01*
G01*
X157323537Y-78595449D02*
G75*
G03*
X159567081Y-79341640I1327503J245469D01*
G01*
X161749998Y-93250002D02*
G75*
G03*
X160750000Y-92250002I-999998J2D01*
G01*
X160749999Y-97249999D02*
G75*
G03*
X161749999Y-96250001I1J999999D01*
G01*
X168051035Y-92349994D02*
G75*
G03*
X164551035Y-82849994I-14642845J4D01*
G01*
X168300000Y-102350000D02*
G75*
G03*
X168050000Y-102600000I0J-250000D01*
G01*
X150950859Y-118828004D02*
G75*
G03*
X168051035Y-104349993I-899813J18400412D01*
G01*
X168050000Y-94000000D02*
G75*
G03*
X168300000Y-94250000I250000J0D01*
G01*
%TO.C,SW1501*%
X168000000Y-99650000D02*
X169050000Y-99650000D01*
X167700000Y-99350000D02*
X167700000Y-96150000D01*
X168000000Y-95850000D02*
X169050000Y-95850000D01*
X167700000Y-99350000D02*
G75*
G03*
X168000000Y-99650000I300000J0D01*
G01*
X168000000Y-95850000D02*
G75*
G03*
X167700000Y-96150000I0J-300000D01*
G01*
%TD*%
M02*
