%TF.GenerationSoftware,KiCad,Pcbnew,7.0.1*%
%TF.CreationDate,2023-12-30T18:27:57+00:00*%
%TF.ProjectId,watch_main,77617463-685f-46d6-9169-6e2e6b696361,rev?*%
%TF.SameCoordinates,Original*%
%TF.FileFunction,Drillmap*%
%TF.FilePolarity,Positive*%
%FSLAX45Y45*%
G04 Gerber Fmt 4.5, Leading zero omitted, Abs format (unit mm)*
G04 Created by KiCad (PCBNEW 7.0.1) date 2023-12-30 18:27:57*
%MOMM*%
%LPD*%
G01*
G04 APERTURE LIST*
%ADD10C,0.200000*%
%ADD11C,0.020000*%
%ADD12C,0.030500*%
G04 APERTURE END LIST*
D10*
D11*
X13250000Y-10540000D02*
X13270000Y-10560000D01*
X13270000Y-10540000D02*
X13250000Y-10560000D01*
X13261300Y-9820000D02*
X13281300Y-9840000D01*
X13281300Y-9820000D02*
X13261300Y-9840000D01*
X13261300Y-9920000D02*
X13281300Y-9940000D01*
X13281300Y-9920000D02*
X13261300Y-9940000D01*
X13261300Y-10020000D02*
X13281300Y-10040000D01*
X13281300Y-10020000D02*
X13261300Y-10040000D01*
X13261300Y-10120000D02*
X13281300Y-10140000D01*
X13281300Y-10120000D02*
X13261300Y-10140000D01*
X13261300Y-10220000D02*
X13281300Y-10240000D01*
X13281300Y-10220000D02*
X13261300Y-10240000D01*
X13280000Y-10650000D02*
X13300000Y-10670000D01*
X13300000Y-10650000D02*
X13280000Y-10670000D01*
X13287500Y-8807500D02*
X13307500Y-8827500D01*
X13307500Y-8807500D02*
X13287500Y-8827500D01*
X13290000Y-10720000D02*
X13310000Y-10740000D01*
X13310000Y-10720000D02*
X13290000Y-10740000D01*
X13300000Y-10590000D02*
X13320000Y-10610000D01*
X13320000Y-10590000D02*
X13300000Y-10610000D01*
X13310000Y-10770000D02*
X13330000Y-10790000D01*
X13330000Y-10770000D02*
X13310000Y-10790000D01*
X13320000Y-10820000D02*
X13340000Y-10840000D01*
X13340000Y-10820000D02*
X13320000Y-10840000D01*
X13340000Y-8640000D02*
X13360000Y-8660000D01*
X13360000Y-8640000D02*
X13340000Y-8660000D01*
X13340000Y-8750000D02*
X13360000Y-8770000D01*
X13360000Y-8750000D02*
X13340000Y-8770000D01*
X13340000Y-8970000D02*
X13360000Y-8990000D01*
X13360000Y-8970000D02*
X13340000Y-8990000D01*
X13340000Y-10370000D02*
X13360000Y-10390000D01*
X13360000Y-10370000D02*
X13340000Y-10390000D01*
X13390000Y-8560000D02*
X13410000Y-8580000D01*
X13410000Y-8560000D02*
X13390000Y-8580000D01*
X13390000Y-8690000D02*
X13410000Y-8710000D01*
X13410000Y-8690000D02*
X13390000Y-8710000D01*
X13390000Y-8805000D02*
X13410000Y-8825000D01*
X13410000Y-8805000D02*
X13390000Y-8825000D01*
X13390000Y-8915000D02*
X13410000Y-8935000D01*
X13410000Y-8915000D02*
X13390000Y-8935000D01*
X13390000Y-10420000D02*
X13410000Y-10440000D01*
X13410000Y-10420000D02*
X13390000Y-10440000D01*
X13420000Y-10900000D02*
X13440000Y-10920000D01*
X13440000Y-10900000D02*
X13420000Y-10920000D01*
X13430000Y-10470000D02*
X13450000Y-10490000D01*
X13450000Y-10470000D02*
X13430000Y-10490000D01*
X13430000Y-10540000D02*
X13450000Y-10560000D01*
X13450000Y-10540000D02*
X13430000Y-10560000D01*
X13430000Y-10610000D02*
X13450000Y-10630000D01*
X13450000Y-10610000D02*
X13430000Y-10630000D01*
X13440000Y-8500000D02*
X13460000Y-8520000D01*
X13460000Y-8500000D02*
X13440000Y-8520000D01*
X13440000Y-8630000D02*
X13460000Y-8650000D01*
X13460000Y-8630000D02*
X13440000Y-8650000D01*
X13440000Y-8750000D02*
X13460000Y-8770000D01*
X13460000Y-8750000D02*
X13440000Y-8770000D01*
X13440000Y-8970000D02*
X13460000Y-8990000D01*
X13460000Y-8970000D02*
X13440000Y-8990000D01*
X13440000Y-10370000D02*
X13460000Y-10390000D01*
X13460000Y-10370000D02*
X13440000Y-10390000D01*
X13460000Y-10680000D02*
X13480000Y-10700000D01*
X13480000Y-10680000D02*
X13460000Y-10700000D01*
X13460000Y-10750000D02*
X13480000Y-10770000D01*
X13480000Y-10750000D02*
X13460000Y-10770000D01*
X13460000Y-11030000D02*
X13480000Y-11050000D01*
X13480000Y-11030000D02*
X13460000Y-11050000D01*
X13470000Y-10920000D02*
X13490000Y-10940000D01*
X13490000Y-10920000D02*
X13470000Y-10940000D01*
X13490000Y-8570000D02*
X13510000Y-8590000D01*
X13510000Y-8570000D02*
X13490000Y-8590000D01*
X13490000Y-8690000D02*
X13510000Y-8710000D01*
X13510000Y-8690000D02*
X13490000Y-8710000D01*
X13490000Y-8807500D02*
X13510000Y-8827500D01*
X13510000Y-8807500D02*
X13490000Y-8827500D01*
X13490000Y-8912500D02*
X13510000Y-8932500D01*
X13510000Y-8912500D02*
X13490000Y-8932500D01*
X13490000Y-10420000D02*
X13510000Y-10440000D01*
X13510000Y-10420000D02*
X13490000Y-10440000D01*
X13540000Y-8630000D02*
X13560000Y-8650000D01*
X13560000Y-8630000D02*
X13540000Y-8650000D01*
X13540000Y-8750000D02*
X13560000Y-8770000D01*
X13560000Y-8750000D02*
X13540000Y-8770000D01*
X13540000Y-8970000D02*
X13560000Y-8990000D01*
X13560000Y-8970000D02*
X13540000Y-8990000D01*
X13540000Y-10370000D02*
X13560000Y-10390000D01*
X13560000Y-10370000D02*
X13540000Y-10390000D01*
X13540000Y-11130000D02*
X13560000Y-11150000D01*
X13560000Y-11130000D02*
X13540000Y-11150000D01*
X13550000Y-8430000D02*
X13570000Y-8450000D01*
X13570000Y-8430000D02*
X13550000Y-8450000D01*
X13570000Y-10640000D02*
X13590000Y-10660000D01*
X13590000Y-10640000D02*
X13570000Y-10660000D01*
X13570000Y-10710000D02*
X13590000Y-10730000D01*
X13590000Y-10710000D02*
X13570000Y-10730000D01*
X13570000Y-10780000D02*
X13590000Y-10800000D01*
X13590000Y-10780000D02*
X13570000Y-10800000D01*
X13570000Y-11180000D02*
X13590000Y-11200000D01*
X13590000Y-11180000D02*
X13570000Y-11200000D01*
X13580000Y-10560000D02*
X13600000Y-10580000D01*
X13600000Y-10560000D02*
X13580000Y-10580000D01*
X13582500Y-10417500D02*
X13602500Y-10437500D01*
X13602500Y-10417500D02*
X13582500Y-10437500D01*
X13590000Y-8690000D02*
X13610000Y-8710000D01*
X13610000Y-8690000D02*
X13590000Y-8710000D01*
X13590000Y-8805000D02*
X13610000Y-8825000D01*
X13610000Y-8805000D02*
X13590000Y-8825000D01*
X13590000Y-8915000D02*
X13610000Y-8935000D01*
X13610000Y-8915000D02*
X13590000Y-8935000D01*
X13610000Y-8400000D02*
X13630000Y-8420000D01*
X13630000Y-8400000D02*
X13610000Y-8420000D01*
X13610000Y-8620000D02*
X13630000Y-8640000D01*
X13630000Y-8620000D02*
X13610000Y-8640000D01*
X13620000Y-8530000D02*
X13640000Y-8550000D01*
X13640000Y-8530000D02*
X13620000Y-8550000D01*
X13640000Y-8310000D02*
X13660000Y-8330000D01*
X13660000Y-8310000D02*
X13640000Y-8330000D01*
X13640000Y-8750000D02*
X13660000Y-8770000D01*
X13660000Y-8750000D02*
X13640000Y-8770000D01*
X13640000Y-8970000D02*
X13660000Y-8990000D01*
X13660000Y-8970000D02*
X13640000Y-8990000D01*
X13640000Y-10370000D02*
X13660000Y-10390000D01*
X13660000Y-10370000D02*
X13640000Y-10390000D01*
X13650000Y-8370000D02*
X13670000Y-8390000D01*
X13670000Y-8370000D02*
X13650000Y-8390000D01*
X13650000Y-8580000D02*
X13670000Y-8600000D01*
X13670000Y-8580000D02*
X13650000Y-8600000D01*
X13670000Y-8680000D02*
X13690000Y-8700000D01*
X13690000Y-8680000D02*
X13670000Y-8700000D01*
X13690000Y-8630000D02*
X13710000Y-8650000D01*
X13710000Y-8630000D02*
X13690000Y-8650000D01*
X13690000Y-10600000D02*
X13710000Y-10620000D01*
X13710000Y-10600000D02*
X13690000Y-10620000D01*
X13690663Y-8912767D02*
X13710663Y-8932767D01*
X13710663Y-8912767D02*
X13690663Y-8932767D01*
X13692500Y-8810000D02*
X13712500Y-8830000D01*
X13712500Y-8810000D02*
X13692500Y-8830000D01*
X13695000Y-8285000D02*
X13715000Y-8305000D01*
X13715000Y-8285000D02*
X13695000Y-8305000D01*
X13710000Y-8740000D02*
X13730000Y-8760000D01*
X13730000Y-8740000D02*
X13710000Y-8760000D01*
X13720000Y-8670000D02*
X13740000Y-8690000D01*
X13740000Y-8670000D02*
X13720000Y-8690000D01*
X13740000Y-8250000D02*
X13760000Y-8270000D01*
X13760000Y-8250000D02*
X13740000Y-8270000D01*
X13740000Y-8970000D02*
X13760000Y-8990000D01*
X13760000Y-8970000D02*
X13740000Y-8990000D01*
X13740000Y-10370000D02*
X13760000Y-10390000D01*
X13760000Y-10370000D02*
X13740000Y-10390000D01*
X13760000Y-8710000D02*
X13780000Y-8730000D01*
X13780000Y-8710000D02*
X13760000Y-8730000D01*
X13770000Y-8912500D02*
X13790000Y-8932500D01*
X13790000Y-8912500D02*
X13770000Y-8932500D01*
X13777500Y-8800000D02*
X13797500Y-8820000D01*
X13797500Y-8800000D02*
X13777500Y-8820000D01*
X13780000Y-8210000D02*
X13800000Y-8230000D01*
X13800000Y-8210000D02*
X13780000Y-8230000D01*
X13797500Y-10420000D02*
X13817500Y-10440000D01*
X13817500Y-10420000D02*
X13797500Y-10440000D01*
X13818000Y-8759000D02*
X13838000Y-8779000D01*
X13838000Y-8759000D02*
X13818000Y-8779000D01*
X13820000Y-8150000D02*
X13840000Y-8170000D01*
X13840000Y-8150000D02*
X13820000Y-8170000D01*
X13840000Y-8970000D02*
X13860000Y-8990000D01*
X13860000Y-8970000D02*
X13840000Y-8990000D01*
X13840000Y-9070000D02*
X13860000Y-9090000D01*
X13860000Y-9070000D02*
X13840000Y-9090000D01*
X13840000Y-9170000D02*
X13860000Y-9190000D01*
X13860000Y-9170000D02*
X13840000Y-9190000D01*
X13840000Y-9270000D02*
X13860000Y-9290000D01*
X13860000Y-9270000D02*
X13840000Y-9290000D01*
X13840000Y-9370000D02*
X13860000Y-9390000D01*
X13860000Y-9370000D02*
X13840000Y-9390000D01*
X13840000Y-9470000D02*
X13860000Y-9490000D01*
X13860000Y-9470000D02*
X13840000Y-9490000D01*
X13840000Y-9570000D02*
X13860000Y-9590000D01*
X13860000Y-9570000D02*
X13840000Y-9590000D01*
X13840000Y-9670000D02*
X13860000Y-9690000D01*
X13860000Y-9670000D02*
X13840000Y-9690000D01*
X13840000Y-9770000D02*
X13860000Y-9790000D01*
X13860000Y-9770000D02*
X13840000Y-9790000D01*
X13840000Y-9870000D02*
X13860000Y-9890000D01*
X13860000Y-9870000D02*
X13840000Y-9890000D01*
X13840000Y-9970000D02*
X13860000Y-9990000D01*
X13860000Y-9970000D02*
X13840000Y-9990000D01*
X13840000Y-10070000D02*
X13860000Y-10090000D01*
X13860000Y-10070000D02*
X13840000Y-10090000D01*
X13840000Y-10170000D02*
X13860000Y-10190000D01*
X13860000Y-10170000D02*
X13840000Y-10190000D01*
X13840000Y-10270000D02*
X13860000Y-10290000D01*
X13860000Y-10270000D02*
X13840000Y-10290000D01*
X13840000Y-10370000D02*
X13860000Y-10390000D01*
X13860000Y-10370000D02*
X13840000Y-10390000D01*
X13840000Y-10710000D02*
X13860000Y-10730000D01*
X13860000Y-10710000D02*
X13840000Y-10730000D01*
X13890000Y-8920000D02*
X13910000Y-8940000D01*
X13910000Y-8920000D02*
X13890000Y-8940000D01*
X13890000Y-9020000D02*
X13910000Y-9040000D01*
X13910000Y-9020000D02*
X13890000Y-9040000D01*
X13890000Y-9120000D02*
X13910000Y-9140000D01*
X13910000Y-9120000D02*
X13890000Y-9140000D01*
X13890000Y-9220000D02*
X13910000Y-9240000D01*
X13910000Y-9220000D02*
X13890000Y-9240000D01*
X13890000Y-9320000D02*
X13910000Y-9340000D01*
X13910000Y-9320000D02*
X13890000Y-9340000D01*
X13890000Y-9420000D02*
X13910000Y-9440000D01*
X13910000Y-9420000D02*
X13890000Y-9440000D01*
X13890000Y-9520000D02*
X13910000Y-9540000D01*
X13910000Y-9520000D02*
X13890000Y-9540000D01*
X13890000Y-9620000D02*
X13910000Y-9640000D01*
X13910000Y-9620000D02*
X13890000Y-9640000D01*
X13890000Y-9720000D02*
X13910000Y-9740000D01*
X13910000Y-9720000D02*
X13890000Y-9740000D01*
X13890000Y-9820000D02*
X13910000Y-9840000D01*
X13910000Y-9820000D02*
X13890000Y-9840000D01*
X13890000Y-9920000D02*
X13910000Y-9940000D01*
X13910000Y-9920000D02*
X13890000Y-9940000D01*
X13890000Y-10020000D02*
X13910000Y-10040000D01*
X13910000Y-10020000D02*
X13890000Y-10040000D01*
X13890000Y-10120000D02*
X13910000Y-10140000D01*
X13910000Y-10120000D02*
X13890000Y-10140000D01*
X13890000Y-10220000D02*
X13910000Y-10240000D01*
X13910000Y-10220000D02*
X13890000Y-10240000D01*
X13890000Y-10320000D02*
X13910000Y-10340000D01*
X13910000Y-10320000D02*
X13890000Y-10340000D01*
X13890000Y-10420000D02*
X13910000Y-10440000D01*
X13910000Y-10420000D02*
X13890000Y-10440000D01*
X13892500Y-8855000D02*
X13912500Y-8875000D01*
X13912500Y-8855000D02*
X13892500Y-8875000D01*
X13900000Y-8070000D02*
X13920000Y-8090000D01*
X13920000Y-8070000D02*
X13900000Y-8090000D01*
X13920000Y-10870000D02*
X13940000Y-10890000D01*
X13940000Y-10870000D02*
X13920000Y-10890000D01*
X13920000Y-11020000D02*
X13940000Y-11040000D01*
X13940000Y-11020000D02*
X13920000Y-11040000D01*
X13920000Y-11170000D02*
X13940000Y-11190000D01*
X13940000Y-11170000D02*
X13920000Y-11190000D01*
X13920000Y-11330000D02*
X13940000Y-11350000D01*
X13940000Y-11330000D02*
X13920000Y-11350000D01*
X13940000Y-8880000D02*
X13960000Y-8900000D01*
X13960000Y-8880000D02*
X13940000Y-8900000D01*
X13940000Y-8970000D02*
X13960000Y-8990000D01*
X13960000Y-8970000D02*
X13940000Y-8990000D01*
X13940000Y-9070000D02*
X13960000Y-9090000D01*
X13960000Y-9070000D02*
X13940000Y-9090000D01*
X13940000Y-9170000D02*
X13960000Y-9190000D01*
X13960000Y-9170000D02*
X13940000Y-9190000D01*
X13940000Y-9270000D02*
X13960000Y-9290000D01*
X13960000Y-9270000D02*
X13940000Y-9290000D01*
X13940000Y-9370000D02*
X13960000Y-9390000D01*
X13960000Y-9370000D02*
X13940000Y-9390000D01*
X13940000Y-9470000D02*
X13960000Y-9490000D01*
X13960000Y-9470000D02*
X13940000Y-9490000D01*
X13940000Y-9570000D02*
X13960000Y-9590000D01*
X13960000Y-9570000D02*
X13940000Y-9590000D01*
X13940000Y-9670000D02*
X13960000Y-9690000D01*
X13960000Y-9670000D02*
X13940000Y-9690000D01*
X13940000Y-9770000D02*
X13960000Y-9790000D01*
X13960000Y-9770000D02*
X13940000Y-9790000D01*
X13940000Y-9870000D02*
X13960000Y-9890000D01*
X13960000Y-9870000D02*
X13940000Y-9890000D01*
X13940000Y-9970000D02*
X13960000Y-9990000D01*
X13960000Y-9970000D02*
X13940000Y-9990000D01*
X13940000Y-10070000D02*
X13960000Y-10090000D01*
X13960000Y-10070000D02*
X13940000Y-10090000D01*
X13940000Y-10170000D02*
X13960000Y-10190000D01*
X13960000Y-10170000D02*
X13940000Y-10190000D01*
X13940000Y-10270000D02*
X13960000Y-10290000D01*
X13960000Y-10270000D02*
X13940000Y-10290000D01*
X13940000Y-10370000D02*
X13960000Y-10390000D01*
X13960000Y-10370000D02*
X13940000Y-10390000D01*
X13960000Y-10510000D02*
X13980000Y-10530000D01*
X13980000Y-10510000D02*
X13960000Y-10530000D01*
X13960000Y-10690000D02*
X13980000Y-10710000D01*
X13980000Y-10690000D02*
X13960000Y-10710000D01*
X13970000Y-8920000D02*
X13990000Y-8940000D01*
X13990000Y-8920000D02*
X13970000Y-8940000D01*
X13980000Y-8000000D02*
X14000000Y-8020000D01*
X14000000Y-8000000D02*
X13980000Y-8020000D01*
X13980000Y-11420000D02*
X14000000Y-11440000D01*
X14000000Y-11420000D02*
X13980000Y-11440000D01*
X14030000Y-11410000D02*
X14050000Y-11430000D01*
X14050000Y-11410000D02*
X14030000Y-11430000D01*
X14060000Y-8980000D02*
X14080000Y-9000000D01*
X14080000Y-8980000D02*
X14060000Y-9000000D01*
X14150000Y-8020000D02*
X14170000Y-8040000D01*
X14170000Y-8020000D02*
X14150000Y-8040000D01*
X14220000Y-8010000D02*
X14240000Y-8030000D01*
X14240000Y-8010000D02*
X14220000Y-8030000D01*
X14220000Y-8090000D02*
X14240000Y-8110000D01*
X14240000Y-8090000D02*
X14220000Y-8110000D01*
X14220000Y-9360000D02*
X14240000Y-9380000D01*
X14240000Y-9360000D02*
X14220000Y-9380000D01*
X14220000Y-9480000D02*
X14240000Y-9500000D01*
X14240000Y-9480000D02*
X14220000Y-9500000D01*
X14240000Y-11600000D02*
X14260000Y-11620000D01*
X14260000Y-11600000D02*
X14240000Y-11620000D01*
X14250000Y-8960000D02*
X14270000Y-8980000D01*
X14270000Y-8960000D02*
X14250000Y-8980000D01*
X14260000Y-11650000D02*
X14280000Y-11670000D01*
X14280000Y-11650000D02*
X14260000Y-11670000D01*
X14270000Y-8900000D02*
X14290000Y-8920000D01*
X14290000Y-8900000D02*
X14270000Y-8920000D01*
X14280000Y-9320000D02*
X14300000Y-9340000D01*
X14300000Y-9320000D02*
X14280000Y-9340000D01*
X14290000Y-8760000D02*
X14310000Y-8780000D01*
X14310000Y-8760000D02*
X14290000Y-8780000D01*
X14310000Y-9050000D02*
X14330000Y-9070000D01*
X14330000Y-9050000D02*
X14310000Y-9070000D01*
X14310000Y-9190000D02*
X14330000Y-9210000D01*
X14330000Y-9190000D02*
X14310000Y-9210000D01*
X14310000Y-9280000D02*
X14330000Y-9300000D01*
X14330000Y-9280000D02*
X14310000Y-9300000D01*
X14320000Y-8100000D02*
X14340000Y-8120000D01*
X14340000Y-8100000D02*
X14320000Y-8120000D01*
X14320000Y-8810000D02*
X14340000Y-8830000D01*
X14340000Y-8810000D02*
X14320000Y-8830000D01*
X14340000Y-9095000D02*
X14360000Y-9115000D01*
X14360000Y-9095000D02*
X14340000Y-9115000D01*
X14340000Y-9145000D02*
X14360000Y-9165000D01*
X14360000Y-9145000D02*
X14340000Y-9165000D01*
X14350000Y-8750000D02*
X14370000Y-8770000D01*
X14370000Y-8750000D02*
X14350000Y-8770000D01*
X14360000Y-9300000D02*
X14380000Y-9320000D01*
X14380000Y-9300000D02*
X14360000Y-9320000D01*
X14370000Y-9050000D02*
X14390000Y-9070000D01*
X14390000Y-9050000D02*
X14370000Y-9070000D01*
X14370000Y-9190000D02*
X14390000Y-9210000D01*
X14390000Y-9190000D02*
X14370000Y-9210000D01*
X14380000Y-9250000D02*
X14400000Y-9270000D01*
X14400000Y-9250000D02*
X14380000Y-9270000D01*
X14390000Y-7890000D02*
X14410000Y-7910000D01*
X14410000Y-7890000D02*
X14390000Y-7910000D01*
X14415000Y-9525000D02*
X14435000Y-9545000D01*
X14435000Y-9525000D02*
X14415000Y-9545000D01*
X14420000Y-8650000D02*
X14440000Y-8670000D01*
X14440000Y-8650000D02*
X14420000Y-8670000D01*
X14420000Y-9430000D02*
X14440000Y-9450000D01*
X14440000Y-9430000D02*
X14420000Y-9450000D01*
X14420000Y-9640000D02*
X14440000Y-9660000D01*
X14440000Y-9640000D02*
X14420000Y-9660000D01*
X14420000Y-9690000D02*
X14440000Y-9710000D01*
X14440000Y-9690000D02*
X14420000Y-9710000D01*
X14420000Y-10080000D02*
X14440000Y-10100000D01*
X14440000Y-10080000D02*
X14420000Y-10100000D01*
X14430000Y-8200000D02*
X14450000Y-8220000D01*
X14450000Y-8200000D02*
X14430000Y-8220000D01*
X14430000Y-8580000D02*
X14450000Y-8600000D01*
X14450000Y-8580000D02*
X14430000Y-8600000D01*
X14430000Y-8920000D02*
X14450000Y-8940000D01*
X14450000Y-8920000D02*
X14430000Y-8940000D01*
X14430000Y-9040000D02*
X14450000Y-9060000D01*
X14450000Y-9040000D02*
X14430000Y-9060000D01*
X14430000Y-9372500D02*
X14450000Y-9392500D01*
X14450000Y-9372500D02*
X14430000Y-9392500D01*
X14430000Y-9590000D02*
X14450000Y-9610000D01*
X14450000Y-9590000D02*
X14430000Y-9610000D01*
X14430000Y-9840000D02*
X14450000Y-9860000D01*
X14450000Y-9840000D02*
X14430000Y-9860000D01*
X14430000Y-9920000D02*
X14450000Y-9940000D01*
X14450000Y-9920000D02*
X14430000Y-9940000D01*
X14430000Y-11220000D02*
X14450000Y-11240000D01*
X14450000Y-11220000D02*
X14430000Y-11240000D01*
X14450000Y-10430000D02*
X14470000Y-10450000D01*
X14470000Y-10430000D02*
X14450000Y-10450000D01*
X14450000Y-10880000D02*
X14470000Y-10900000D01*
X14470000Y-10880000D02*
X14450000Y-10900000D01*
X14490000Y-7890000D02*
X14510000Y-7910000D01*
X14510000Y-7890000D02*
X14490000Y-7910000D01*
X14490000Y-7990000D02*
X14510000Y-8010000D01*
X14510000Y-7990000D02*
X14490000Y-8010000D01*
X14500000Y-10600000D02*
X14520000Y-10620000D01*
X14520000Y-10600000D02*
X14500000Y-10620000D01*
X14500000Y-10710000D02*
X14520000Y-10730000D01*
X14520000Y-10710000D02*
X14500000Y-10730000D01*
X14500000Y-10930000D02*
X14520000Y-10950000D01*
X14520000Y-10930000D02*
X14500000Y-10950000D01*
X14500000Y-11040000D02*
X14520000Y-11060000D01*
X14520000Y-11040000D02*
X14500000Y-11060000D01*
X14500000Y-11150000D02*
X14520000Y-11170000D01*
X14520000Y-11150000D02*
X14500000Y-11170000D01*
X14520000Y-8530000D02*
X14540000Y-8550000D01*
X14540000Y-8530000D02*
X14520000Y-8550000D01*
X14530000Y-8300000D02*
X14550000Y-8320000D01*
X14550000Y-8300000D02*
X14530000Y-8320000D01*
X14570000Y-8910000D02*
X14590000Y-8930000D01*
X14590000Y-8910000D02*
X14570000Y-8930000D01*
X14590000Y-7890000D02*
X14610000Y-7910000D01*
X14610000Y-7890000D02*
X14590000Y-7910000D01*
X14590000Y-7990000D02*
X14610000Y-8010000D01*
X14610000Y-7990000D02*
X14590000Y-8010000D01*
X14590000Y-8090000D02*
X14610000Y-8110000D01*
X14610000Y-8090000D02*
X14590000Y-8110000D01*
X14590000Y-8480000D02*
X14610000Y-8500000D01*
X14610000Y-8480000D02*
X14590000Y-8500000D01*
X14590000Y-8570000D02*
X14610000Y-8590000D01*
X14610000Y-8570000D02*
X14590000Y-8590000D01*
X14590000Y-8840000D02*
X14610000Y-8860000D01*
X14610000Y-8840000D02*
X14590000Y-8860000D01*
X14610000Y-9080000D02*
X14630000Y-9100000D01*
X14630000Y-9080000D02*
X14610000Y-9100000D01*
X14610000Y-9160000D02*
X14630000Y-9180000D01*
X14630000Y-9160000D02*
X14610000Y-9180000D01*
X14610000Y-9240000D02*
X14630000Y-9260000D01*
X14630000Y-9240000D02*
X14610000Y-9260000D01*
X14610000Y-9480000D02*
X14630000Y-9500000D01*
X14630000Y-9480000D02*
X14610000Y-9500000D01*
X14610000Y-9640000D02*
X14630000Y-9660000D01*
X14630000Y-9640000D02*
X14610000Y-9660000D01*
X14610000Y-9800000D02*
X14630000Y-9820000D01*
X14630000Y-9800000D02*
X14610000Y-9820000D01*
X14610000Y-10040000D02*
X14630000Y-10060000D01*
X14630000Y-10040000D02*
X14610000Y-10060000D01*
X14640000Y-8910000D02*
X14660000Y-8930000D01*
X14660000Y-8910000D02*
X14640000Y-8930000D01*
X14640000Y-10160000D02*
X14660000Y-10180000D01*
X14660000Y-10160000D02*
X14640000Y-10180000D01*
X14660000Y-8160000D02*
X14680000Y-8180000D01*
X14680000Y-8160000D02*
X14660000Y-8180000D01*
X14680000Y-8800000D02*
X14700000Y-8820000D01*
X14700000Y-8800000D02*
X14680000Y-8820000D01*
X14690000Y-7890000D02*
X14710000Y-7910000D01*
X14710000Y-7890000D02*
X14690000Y-7910000D01*
X14690000Y-7990000D02*
X14710000Y-8010000D01*
X14710000Y-7990000D02*
X14690000Y-8010000D01*
X14690000Y-8860000D02*
X14710000Y-8880000D01*
X14710000Y-8860000D02*
X14690000Y-8880000D01*
X14690000Y-9080000D02*
X14710000Y-9100000D01*
X14710000Y-9080000D02*
X14690000Y-9100000D01*
X14690000Y-9160000D02*
X14710000Y-9180000D01*
X14710000Y-9160000D02*
X14690000Y-9180000D01*
X14690000Y-9240000D02*
X14710000Y-9260000D01*
X14710000Y-9240000D02*
X14690000Y-9260000D01*
X14690000Y-9640000D02*
X14710000Y-9660000D01*
X14710000Y-9640000D02*
X14690000Y-9660000D01*
X14690000Y-9720000D02*
X14710000Y-9740000D01*
X14710000Y-9720000D02*
X14690000Y-9740000D01*
X14720000Y-10600000D02*
X14740000Y-10620000D01*
X14740000Y-10600000D02*
X14720000Y-10620000D01*
X14720000Y-10710000D02*
X14740000Y-10730000D01*
X14740000Y-10710000D02*
X14720000Y-10730000D01*
X14730000Y-11280000D02*
X14750000Y-11300000D01*
X14750000Y-11280000D02*
X14730000Y-11300000D01*
X14740000Y-8900000D02*
X14760000Y-8920000D01*
X14760000Y-8900000D02*
X14740000Y-8920000D01*
X14740000Y-11100000D02*
X14760000Y-11120000D01*
X14760000Y-11100000D02*
X14740000Y-11120000D01*
X14740000Y-11790000D02*
X14760000Y-11810000D01*
X14760000Y-11790000D02*
X14740000Y-11810000D01*
X14750000Y-10870000D02*
X14770000Y-10890000D01*
X14770000Y-10870000D02*
X14750000Y-10890000D01*
X14770000Y-9240000D02*
X14790000Y-9260000D01*
X14790000Y-9240000D02*
X14770000Y-9260000D01*
X14770000Y-9320000D02*
X14790000Y-9340000D01*
X14790000Y-9320000D02*
X14770000Y-9340000D01*
X14770000Y-9400000D02*
X14790000Y-9420000D01*
X14790000Y-9400000D02*
X14770000Y-9420000D01*
X14770000Y-9480000D02*
X14790000Y-9500000D01*
X14790000Y-9480000D02*
X14770000Y-9500000D01*
X14770000Y-9560000D02*
X14790000Y-9580000D01*
X14790000Y-9560000D02*
X14770000Y-9580000D01*
X14770000Y-9640000D02*
X14790000Y-9660000D01*
X14790000Y-9640000D02*
X14770000Y-9660000D01*
X14770000Y-9720000D02*
X14790000Y-9740000D01*
X14790000Y-9720000D02*
X14770000Y-9740000D01*
X14770000Y-11190000D02*
X14790000Y-11210000D01*
X14790000Y-11190000D02*
X14770000Y-11210000D01*
X14780000Y-11010000D02*
X14800000Y-11030000D01*
X14800000Y-11010000D02*
X14780000Y-11030000D01*
X14790000Y-7890000D02*
X14810000Y-7910000D01*
X14810000Y-7890000D02*
X14790000Y-7910000D01*
X14810000Y-11280000D02*
X14830000Y-11300000D01*
X14830000Y-11280000D02*
X14810000Y-11300000D01*
X14810000Y-11790000D02*
X14830000Y-11810000D01*
X14830000Y-11790000D02*
X14810000Y-11810000D01*
X14820000Y-11110000D02*
X14840000Y-11130000D01*
X14840000Y-11110000D02*
X14820000Y-11130000D01*
X14830000Y-10520000D02*
X14850000Y-10540000D01*
X14850000Y-10520000D02*
X14830000Y-10540000D01*
X14850000Y-9080000D02*
X14870000Y-9100000D01*
X14870000Y-9080000D02*
X14850000Y-9100000D01*
X14850000Y-9240000D02*
X14870000Y-9260000D01*
X14870000Y-9240000D02*
X14850000Y-9260000D01*
X14850000Y-10040000D02*
X14870000Y-10060000D01*
X14870000Y-10040000D02*
X14850000Y-10060000D01*
X14852500Y-8730000D02*
X14872500Y-8750000D01*
X14872500Y-8730000D02*
X14852500Y-8750000D01*
X14860000Y-10870000D02*
X14880000Y-10890000D01*
X14880000Y-10870000D02*
X14860000Y-10890000D01*
X14890000Y-7890000D02*
X14910000Y-7910000D01*
X14910000Y-7890000D02*
X14890000Y-7910000D01*
X14900000Y-8010000D02*
X14920000Y-8030000D01*
X14920000Y-8010000D02*
X14900000Y-8030000D01*
X14900000Y-8110000D02*
X14920000Y-8130000D01*
X14920000Y-8110000D02*
X14900000Y-8130000D01*
X14900000Y-8210000D02*
X14920000Y-8230000D01*
X14920000Y-8210000D02*
X14900000Y-8230000D01*
X14905000Y-8780000D02*
X14925000Y-8800000D01*
X14925000Y-8780000D02*
X14905000Y-8800000D01*
X14907500Y-8730000D02*
X14927500Y-8750000D01*
X14927500Y-8730000D02*
X14907500Y-8750000D01*
X14920000Y-11320000D02*
X14940000Y-11340000D01*
X14940000Y-11320000D02*
X14920000Y-11340000D01*
X14930000Y-9800000D02*
X14950000Y-9820000D01*
X14950000Y-9800000D02*
X14930000Y-9820000D01*
X14950000Y-8810000D02*
X14970000Y-8830000D01*
X14970000Y-8810000D02*
X14950000Y-8830000D01*
X14950000Y-9460000D02*
X14970000Y-9480000D01*
X14970000Y-9460000D02*
X14950000Y-9480000D01*
X14950000Y-9580000D02*
X14970000Y-9600000D01*
X14970000Y-9580000D02*
X14950000Y-9600000D01*
X14960000Y-10730000D02*
X14980000Y-10750000D01*
X14980000Y-10730000D02*
X14960000Y-10750000D01*
X14970000Y-10570000D02*
X14990000Y-10590000D01*
X14990000Y-10570000D02*
X14970000Y-10590000D01*
X14990000Y-7890000D02*
X15010000Y-7910000D01*
X15010000Y-7890000D02*
X14990000Y-7910000D01*
X15000000Y-9420000D02*
X15020000Y-9440000D01*
X15020000Y-9420000D02*
X15000000Y-9440000D01*
X15000000Y-9470000D02*
X15020000Y-9490000D01*
X15020000Y-9470000D02*
X15000000Y-9490000D01*
X15000000Y-9520000D02*
X15020000Y-9540000D01*
X15020000Y-9520000D02*
X15000000Y-9540000D01*
X15000000Y-9570000D02*
X15020000Y-9590000D01*
X15020000Y-9570000D02*
X15000000Y-9590000D01*
X15000000Y-9620000D02*
X15020000Y-9640000D01*
X15020000Y-9620000D02*
X15000000Y-9640000D01*
X15000000Y-10690000D02*
X15020000Y-10710000D01*
X15020000Y-10690000D02*
X15000000Y-10710000D01*
X15010000Y-9240000D02*
X15030000Y-9260000D01*
X15030000Y-9240000D02*
X15010000Y-9260000D01*
X15010000Y-9800000D02*
X15030000Y-9820000D01*
X15030000Y-9800000D02*
X15010000Y-9820000D01*
X15040000Y-10740000D02*
X15060000Y-10760000D01*
X15060000Y-10740000D02*
X15040000Y-10760000D01*
X15045000Y-8905000D02*
X15065000Y-8925000D01*
X15065000Y-8905000D02*
X15045000Y-8925000D01*
X15050000Y-8360000D02*
X15070000Y-8380000D01*
X15070000Y-8360000D02*
X15050000Y-8380000D01*
X15050000Y-9470000D02*
X15070000Y-9490000D01*
X15070000Y-9470000D02*
X15050000Y-9490000D01*
X15050000Y-9520000D02*
X15070000Y-9540000D01*
X15070000Y-9520000D02*
X15050000Y-9540000D01*
X15050000Y-9570000D02*
X15070000Y-9590000D01*
X15070000Y-9570000D02*
X15050000Y-9590000D01*
X15052000Y-11000000D02*
X15072000Y-11020000D01*
X15072000Y-11000000D02*
X15052000Y-11020000D01*
X15060000Y-10520000D02*
X15080000Y-10540000D01*
X15080000Y-10520000D02*
X15060000Y-10540000D01*
X15060000Y-11310000D02*
X15080000Y-11330000D01*
X15080000Y-11310000D02*
X15060000Y-11330000D01*
X15080000Y-10687500D02*
X15100000Y-10707500D01*
X15100000Y-10687500D02*
X15080000Y-10707500D01*
X15090000Y-7890000D02*
X15110000Y-7910000D01*
X15110000Y-7890000D02*
X15090000Y-7910000D01*
X15090000Y-9240000D02*
X15110000Y-9260000D01*
X15110000Y-9240000D02*
X15090000Y-9260000D01*
X15090000Y-9800000D02*
X15110000Y-9820000D01*
X15110000Y-9800000D02*
X15090000Y-9820000D01*
X15090000Y-10040000D02*
X15110000Y-10060000D01*
X15110000Y-10040000D02*
X15090000Y-10060000D01*
X15090000Y-10847500D02*
X15110000Y-10867500D01*
X15110000Y-10847500D02*
X15090000Y-10867500D01*
X15100000Y-8010000D02*
X15120000Y-8030000D01*
X15120000Y-8010000D02*
X15100000Y-8030000D01*
X15100000Y-8110000D02*
X15120000Y-8130000D01*
X15120000Y-8110000D02*
X15100000Y-8130000D01*
X15100000Y-8210000D02*
X15120000Y-8230000D01*
X15120000Y-8210000D02*
X15100000Y-8230000D01*
X15100000Y-9420000D02*
X15120000Y-9440000D01*
X15120000Y-9420000D02*
X15100000Y-9440000D01*
X15100000Y-9470000D02*
X15120000Y-9490000D01*
X15120000Y-9470000D02*
X15100000Y-9490000D01*
X15100000Y-9520000D02*
X15120000Y-9540000D01*
X15120000Y-9520000D02*
X15100000Y-9540000D01*
X15100000Y-9570000D02*
X15120000Y-9590000D01*
X15120000Y-9570000D02*
X15100000Y-9590000D01*
X15100000Y-9620000D02*
X15120000Y-9640000D01*
X15120000Y-9620000D02*
X15100000Y-9640000D01*
X15100000Y-11280000D02*
X15120000Y-11300000D01*
X15120000Y-11280000D02*
X15100000Y-11300000D01*
X15110000Y-10740000D02*
X15130000Y-10760000D01*
X15130000Y-10740000D02*
X15110000Y-10760000D01*
X15120000Y-10530000D02*
X15140000Y-10550000D01*
X15140000Y-10530000D02*
X15120000Y-10550000D01*
X15130000Y-8910000D02*
X15150000Y-8930000D01*
X15150000Y-8910000D02*
X15130000Y-8930000D01*
X15140000Y-11790000D02*
X15160000Y-11810000D01*
X15160000Y-11790000D02*
X15140000Y-11810000D01*
X15150000Y-8360000D02*
X15170000Y-8380000D01*
X15170000Y-8360000D02*
X15150000Y-8380000D01*
X15150000Y-9460000D02*
X15170000Y-9480000D01*
X15170000Y-9460000D02*
X15150000Y-9480000D01*
X15150000Y-9580000D02*
X15170000Y-9600000D01*
X15170000Y-9580000D02*
X15150000Y-9600000D01*
X15150000Y-10690000D02*
X15170000Y-10710000D01*
X15170000Y-10690000D02*
X15150000Y-10710000D01*
X15150000Y-10860000D02*
X15170000Y-10880000D01*
X15170000Y-10860000D02*
X15150000Y-10880000D01*
X15160000Y-11000000D02*
X15180000Y-11020000D01*
X15180000Y-11000000D02*
X15160000Y-11020000D01*
X15170000Y-9160000D02*
X15190000Y-9180000D01*
X15190000Y-9160000D02*
X15170000Y-9180000D01*
X15170000Y-9240000D02*
X15190000Y-9260000D01*
X15190000Y-9240000D02*
X15170000Y-9260000D01*
X15170000Y-9800000D02*
X15190000Y-9820000D01*
X15190000Y-9800000D02*
X15170000Y-9820000D01*
X15170000Y-10570000D02*
X15190000Y-10590000D01*
X15190000Y-10570000D02*
X15170000Y-10590000D01*
X15190000Y-7890000D02*
X15210000Y-7910000D01*
X15210000Y-7890000D02*
X15190000Y-7910000D01*
X15200000Y-8110000D02*
X15220000Y-8130000D01*
X15220000Y-8110000D02*
X15200000Y-8130000D01*
X15200000Y-11800000D02*
X15220000Y-11820000D01*
X15220000Y-11800000D02*
X15200000Y-11820000D01*
X15240000Y-10150000D02*
X15260000Y-10170000D01*
X15260000Y-10150000D02*
X15240000Y-10170000D01*
X15250000Y-9000000D02*
X15270000Y-9020000D01*
X15270000Y-9000000D02*
X15250000Y-9020000D01*
X15250000Y-9240000D02*
X15270000Y-9260000D01*
X15270000Y-9240000D02*
X15250000Y-9260000D01*
X15250000Y-9800000D02*
X15270000Y-9820000D01*
X15270000Y-9800000D02*
X15250000Y-9820000D01*
X15260000Y-11790000D02*
X15280000Y-11810000D01*
X15280000Y-11790000D02*
X15260000Y-11810000D01*
X15280000Y-11010000D02*
X15300000Y-11030000D01*
X15300000Y-11010000D02*
X15280000Y-11030000D01*
X15290000Y-7890000D02*
X15310000Y-7910000D01*
X15310000Y-7890000D02*
X15290000Y-7910000D01*
X15290000Y-11730000D02*
X15310000Y-11750000D01*
X15310000Y-11730000D02*
X15290000Y-11750000D01*
X15295000Y-10275000D02*
X15315000Y-10295000D01*
X15315000Y-10275000D02*
X15295000Y-10295000D01*
X15298000Y-7960000D02*
X15318000Y-7980000D01*
X15318000Y-7960000D02*
X15298000Y-7980000D01*
X15300000Y-8060000D02*
X15320000Y-8080000D01*
X15320000Y-8060000D02*
X15300000Y-8080000D01*
X15300000Y-8110000D02*
X15320000Y-8130000D01*
X15320000Y-8110000D02*
X15300000Y-8130000D01*
X15300000Y-8210000D02*
X15320000Y-8230000D01*
X15320000Y-8210000D02*
X15300000Y-8230000D01*
X15300000Y-8310000D02*
X15320000Y-8330000D01*
X15320000Y-8310000D02*
X15300000Y-8330000D01*
X15300000Y-10730000D02*
X15320000Y-10750000D01*
X15320000Y-10730000D02*
X15300000Y-10750000D01*
X15310000Y-11270000D02*
X15330000Y-11290000D01*
X15330000Y-11270000D02*
X15310000Y-11290000D01*
X15330000Y-9000000D02*
X15350000Y-9020000D01*
X15350000Y-9000000D02*
X15330000Y-9020000D01*
X15330000Y-9080000D02*
X15350000Y-9100000D01*
X15350000Y-9080000D02*
X15330000Y-9100000D01*
X15330000Y-9240000D02*
X15350000Y-9260000D01*
X15350000Y-9240000D02*
X15330000Y-9260000D01*
X15330000Y-9320000D02*
X15350000Y-9340000D01*
X15350000Y-9320000D02*
X15330000Y-9340000D01*
X15330000Y-9400000D02*
X15350000Y-9420000D01*
X15350000Y-9400000D02*
X15330000Y-9420000D01*
X15330000Y-9480000D02*
X15350000Y-9500000D01*
X15350000Y-9480000D02*
X15330000Y-9500000D01*
X15330000Y-9560000D02*
X15350000Y-9580000D01*
X15350000Y-9560000D02*
X15330000Y-9580000D01*
X15330000Y-9640000D02*
X15350000Y-9660000D01*
X15350000Y-9640000D02*
X15330000Y-9660000D01*
X15330000Y-9720000D02*
X15350000Y-9740000D01*
X15350000Y-9720000D02*
X15330000Y-9740000D01*
X15357500Y-10707500D02*
X15377500Y-10727500D01*
X15377500Y-10707500D02*
X15357500Y-10727500D01*
X15360000Y-11305000D02*
X15380000Y-11325000D01*
X15380000Y-11305000D02*
X15360000Y-11325000D01*
X15370000Y-10140000D02*
X15390000Y-10160000D01*
X15390000Y-10140000D02*
X15370000Y-10160000D01*
X15370000Y-10210000D02*
X15390000Y-10230000D01*
X15390000Y-10210000D02*
X15370000Y-10230000D01*
X15370000Y-10280000D02*
X15390000Y-10300000D01*
X15390000Y-10280000D02*
X15370000Y-10300000D01*
X15390000Y-7890000D02*
X15410000Y-7910000D01*
X15410000Y-7890000D02*
X15390000Y-7910000D01*
X15410000Y-9080000D02*
X15430000Y-9100000D01*
X15430000Y-9080000D02*
X15410000Y-9100000D01*
X15410000Y-9160000D02*
X15430000Y-9180000D01*
X15430000Y-9160000D02*
X15410000Y-9180000D01*
X15410000Y-9240000D02*
X15430000Y-9260000D01*
X15430000Y-9240000D02*
X15410000Y-9260000D01*
X15410000Y-9320000D02*
X15430000Y-9340000D01*
X15430000Y-9320000D02*
X15410000Y-9340000D01*
X15410000Y-9560000D02*
X15430000Y-9580000D01*
X15430000Y-9560000D02*
X15410000Y-9580000D01*
X15410000Y-10860000D02*
X15430000Y-10880000D01*
X15430000Y-10860000D02*
X15410000Y-10880000D01*
X15420000Y-11500000D02*
X15440000Y-11520000D01*
X15440000Y-11500000D02*
X15420000Y-11520000D01*
X15425000Y-11305000D02*
X15445000Y-11325000D01*
X15445000Y-11305000D02*
X15425000Y-11325000D01*
X15430000Y-10510000D02*
X15450000Y-10530000D01*
X15450000Y-10510000D02*
X15430000Y-10530000D01*
X15440000Y-10240000D02*
X15460000Y-10260000D01*
X15460000Y-10240000D02*
X15440000Y-10260000D01*
X15440000Y-10685000D02*
X15460000Y-10705000D01*
X15460000Y-10685000D02*
X15440000Y-10705000D01*
X15440000Y-10740000D02*
X15460000Y-10760000D01*
X15460000Y-10740000D02*
X15440000Y-10760000D01*
X15460000Y-8130000D02*
X15480000Y-8150000D01*
X15480000Y-8130000D02*
X15460000Y-8150000D01*
X15481250Y-8911250D02*
X15501250Y-8931250D01*
X15501250Y-8911250D02*
X15481250Y-8931250D01*
X15490000Y-7890000D02*
X15510000Y-7910000D01*
X15510000Y-7890000D02*
X15490000Y-7910000D01*
X15490000Y-8240000D02*
X15510000Y-8260000D01*
X15510000Y-8240000D02*
X15490000Y-8260000D01*
X15490000Y-8410000D02*
X15510000Y-8430000D01*
X15510000Y-8410000D02*
X15490000Y-8430000D01*
X15490000Y-9160000D02*
X15510000Y-9180000D01*
X15510000Y-9160000D02*
X15490000Y-9180000D01*
X15490000Y-9240000D02*
X15510000Y-9260000D01*
X15510000Y-9240000D02*
X15490000Y-9260000D01*
X15490000Y-9320000D02*
X15510000Y-9340000D01*
X15510000Y-9320000D02*
X15490000Y-9340000D01*
X15490000Y-9400000D02*
X15510000Y-9420000D01*
X15510000Y-9400000D02*
X15490000Y-9420000D01*
X15490000Y-9640000D02*
X15510000Y-9660000D01*
X15510000Y-9640000D02*
X15490000Y-9660000D01*
X15490000Y-9720000D02*
X15510000Y-9740000D01*
X15510000Y-9720000D02*
X15490000Y-9740000D01*
X15490000Y-11305000D02*
X15510000Y-11325000D01*
X15510000Y-11305000D02*
X15490000Y-11325000D01*
X15533000Y-7962000D02*
X15553000Y-7982000D01*
X15553000Y-7962000D02*
X15533000Y-7982000D01*
X15540000Y-8060000D02*
X15560000Y-8080000D01*
X15560000Y-8060000D02*
X15540000Y-8080000D01*
X15540000Y-8360000D02*
X15560000Y-8380000D01*
X15560000Y-8360000D02*
X15540000Y-8380000D01*
X15550000Y-8860000D02*
X15570000Y-8880000D01*
X15570000Y-8860000D02*
X15550000Y-8880000D01*
X15560000Y-11000000D02*
X15580000Y-11020000D01*
X15580000Y-11000000D02*
X15560000Y-11020000D01*
X15565000Y-8110000D02*
X15585000Y-8130000D01*
X15585000Y-8110000D02*
X15565000Y-8130000D01*
X15570000Y-9240000D02*
X15590000Y-9260000D01*
X15590000Y-9240000D02*
X15570000Y-9260000D01*
X15585000Y-8905000D02*
X15605000Y-8925000D01*
X15605000Y-8905000D02*
X15585000Y-8925000D01*
X15590000Y-8060000D02*
X15610000Y-8080000D01*
X15610000Y-8060000D02*
X15590000Y-8080000D01*
X15590000Y-8310000D02*
X15610000Y-8330000D01*
X15610000Y-8310000D02*
X15590000Y-8330000D01*
X15590000Y-11150000D02*
X15610000Y-11170000D01*
X15610000Y-11150000D02*
X15590000Y-11170000D01*
X15620000Y-8480000D02*
X15640000Y-8500000D01*
X15640000Y-8480000D02*
X15620000Y-8500000D01*
X15620000Y-11040000D02*
X15640000Y-11060000D01*
X15640000Y-11040000D02*
X15620000Y-11060000D01*
X15630000Y-8540000D02*
X15650000Y-8560000D01*
X15650000Y-8540000D02*
X15630000Y-8560000D01*
X15640000Y-10970000D02*
X15660000Y-10990000D01*
X15660000Y-10970000D02*
X15640000Y-10990000D01*
X15640000Y-11200000D02*
X15660000Y-11220000D01*
X15660000Y-11200000D02*
X15640000Y-11220000D01*
X15659700Y-8425600D02*
X15679700Y-8445600D01*
X15679700Y-8425600D02*
X15659700Y-8445600D01*
X15660000Y-9112500D02*
X15680000Y-9132500D01*
X15680000Y-9112500D02*
X15660000Y-9132500D01*
X15660000Y-9207500D02*
X15680000Y-9227500D01*
X15680000Y-9207500D02*
X15660000Y-9227500D01*
X15660000Y-10720000D02*
X15680000Y-10740000D01*
X15680000Y-10720000D02*
X15660000Y-10740000D01*
X15660000Y-10850000D02*
X15680000Y-10870000D01*
X15680000Y-10850000D02*
X15660000Y-10870000D01*
X15670000Y-9530000D02*
X15690000Y-9550000D01*
X15690000Y-9530000D02*
X15670000Y-9550000D01*
X15670000Y-11520000D02*
X15690000Y-11540000D01*
X15690000Y-11520000D02*
X15670000Y-11540000D01*
X15675000Y-9595000D02*
X15695000Y-9615000D01*
X15695000Y-9595000D02*
X15675000Y-9615000D01*
X15680000Y-8130000D02*
X15700000Y-8150000D01*
X15700000Y-8130000D02*
X15680000Y-8150000D01*
X15685000Y-9750000D02*
X15705000Y-9770000D01*
X15705000Y-9750000D02*
X15685000Y-9770000D01*
X15690000Y-8630000D02*
X15710000Y-8650000D01*
X15710000Y-8630000D02*
X15690000Y-8650000D01*
X15690000Y-8760000D02*
X15710000Y-8780000D01*
X15710000Y-8760000D02*
X15690000Y-8780000D01*
X15705642Y-10760000D02*
X15725642Y-10780000D01*
X15725642Y-10760000D02*
X15705642Y-10780000D01*
X15705642Y-10810000D02*
X15725642Y-10830000D01*
X15725642Y-10810000D02*
X15705642Y-10830000D01*
X15710000Y-8440000D02*
X15730000Y-8460000D01*
X15730000Y-8440000D02*
X15710000Y-8460000D01*
X15710000Y-11440000D02*
X15730000Y-11460000D01*
X15730000Y-11440000D02*
X15710000Y-11460000D01*
X15715000Y-11365000D02*
X15735000Y-11385000D01*
X15735000Y-11365000D02*
X15715000Y-11385000D01*
X15720000Y-8300000D02*
X15740000Y-8320000D01*
X15740000Y-8300000D02*
X15720000Y-8320000D01*
X15730000Y-9560000D02*
X15750000Y-9580000D01*
X15750000Y-9560000D02*
X15730000Y-9580000D01*
X15730000Y-9620000D02*
X15750000Y-9640000D01*
X15750000Y-9620000D02*
X15730000Y-9640000D01*
X15730000Y-9710000D02*
X15750000Y-9730000D01*
X15750000Y-9710000D02*
X15730000Y-9730000D01*
X15730000Y-10100000D02*
X15750000Y-10120000D01*
X15750000Y-10100000D02*
X15730000Y-10120000D01*
X15750000Y-8840000D02*
X15770000Y-8860000D01*
X15770000Y-8840000D02*
X15750000Y-8860000D01*
X15750000Y-8910000D02*
X15770000Y-8930000D01*
X15770000Y-8910000D02*
X15750000Y-8930000D01*
X15750000Y-8980000D02*
X15770000Y-9000000D01*
X15770000Y-8980000D02*
X15750000Y-9000000D01*
X15750000Y-9060000D02*
X15770000Y-9080000D01*
X15770000Y-9060000D02*
X15750000Y-9080000D01*
X15755000Y-10785000D02*
X15775000Y-10805000D01*
X15775000Y-10785000D02*
X15755000Y-10805000D01*
X15760000Y-8580000D02*
X15780000Y-8600000D01*
X15780000Y-8580000D02*
X15760000Y-8600000D01*
X15766363Y-8118637D02*
X15786363Y-8138637D01*
X15786363Y-8118637D02*
X15766363Y-8138637D01*
X15780000Y-10007500D02*
X15800000Y-10027500D01*
X15800000Y-10007500D02*
X15780000Y-10027500D01*
X15820000Y-8620000D02*
X15840000Y-8640000D01*
X15840000Y-8620000D02*
X15820000Y-8640000D01*
X15820000Y-10470000D02*
X15840000Y-10490000D01*
X15840000Y-10470000D02*
X15820000Y-10490000D01*
X15820000Y-11390000D02*
X15840000Y-11410000D01*
X15840000Y-11390000D02*
X15820000Y-11410000D01*
X15830000Y-10800000D02*
X15850000Y-10820000D01*
X15850000Y-10800000D02*
X15830000Y-10820000D01*
X15840000Y-8130000D02*
X15860000Y-8150000D01*
X15860000Y-8130000D02*
X15840000Y-8150000D01*
X15840000Y-9750000D02*
X15860000Y-9770000D01*
X15860000Y-9750000D02*
X15840000Y-9770000D01*
X15840000Y-10050000D02*
X15860000Y-10070000D01*
X15860000Y-10050000D02*
X15840000Y-10070000D01*
X15840000Y-10520000D02*
X15860000Y-10540000D01*
X15860000Y-10520000D02*
X15840000Y-10540000D01*
X15870000Y-8530000D02*
X15890000Y-8550000D01*
X15890000Y-8530000D02*
X15870000Y-8550000D01*
X15870000Y-10750000D02*
X15890000Y-10770000D01*
X15890000Y-10750000D02*
X15870000Y-10770000D01*
X15880000Y-10090000D02*
X15900000Y-10110000D01*
X15900000Y-10090000D02*
X15880000Y-10110000D01*
X15880000Y-10990000D02*
X15900000Y-11010000D01*
X15900000Y-10990000D02*
X15880000Y-11010000D01*
X15886000Y-8100000D02*
X15906000Y-8120000D01*
X15906000Y-8100000D02*
X15886000Y-8120000D01*
X15900000Y-10690000D02*
X15920000Y-10710000D01*
X15920000Y-10690000D02*
X15900000Y-10710000D01*
X15900000Y-11130000D02*
X15920000Y-11150000D01*
X15920000Y-11130000D02*
X15900000Y-11150000D01*
X15910000Y-11390000D02*
X15930000Y-11410000D01*
X15930000Y-11390000D02*
X15910000Y-11410000D01*
X15920000Y-8500000D02*
X15940000Y-8520000D01*
X15940000Y-8500000D02*
X15920000Y-8520000D01*
X15920000Y-9760000D02*
X15940000Y-9780000D01*
X15940000Y-9760000D02*
X15920000Y-9780000D01*
X15922000Y-8788000D02*
X15942000Y-8808000D01*
X15942000Y-8788000D02*
X15922000Y-8808000D01*
X15940000Y-8140000D02*
X15960000Y-8160000D01*
X15960000Y-8140000D02*
X15940000Y-8160000D01*
X15960000Y-9820000D02*
X15980000Y-9840000D01*
X15980000Y-9820000D02*
X15960000Y-9840000D01*
X15960000Y-10010000D02*
X15980000Y-10030000D01*
X15980000Y-10010000D02*
X15960000Y-10030000D01*
X16000000Y-8510000D02*
X16020000Y-8530000D01*
X16020000Y-8510000D02*
X16000000Y-8530000D01*
X16010000Y-8290000D02*
X16030000Y-8310000D01*
X16030000Y-8290000D02*
X16010000Y-8310000D01*
X16020000Y-11180000D02*
X16040000Y-11200000D01*
X16040000Y-11180000D02*
X16020000Y-11200000D01*
X16030000Y-10370000D02*
X16050000Y-10390000D01*
X16050000Y-10370000D02*
X16030000Y-10390000D01*
X16037500Y-8162500D02*
X16057500Y-8182500D01*
X16057500Y-8162500D02*
X16037500Y-8182500D01*
X16040000Y-8820000D02*
X16060000Y-8840000D01*
X16060000Y-8820000D02*
X16040000Y-8840000D01*
X16040000Y-10010000D02*
X16060000Y-10030000D01*
X16060000Y-10010000D02*
X16040000Y-10030000D01*
X16040000Y-10090000D02*
X16060000Y-10110000D01*
X16060000Y-10090000D02*
X16040000Y-10110000D01*
X16040000Y-10260000D02*
X16060000Y-10280000D01*
X16060000Y-10260000D02*
X16040000Y-10280000D01*
X16050000Y-9765000D02*
X16070000Y-9785000D01*
X16070000Y-9765000D02*
X16050000Y-9785000D01*
X16060000Y-8468000D02*
X16080000Y-8488000D01*
X16080000Y-8468000D02*
X16060000Y-8488000D01*
X16060000Y-8650000D02*
X16080000Y-8670000D01*
X16080000Y-8650000D02*
X16060000Y-8670000D01*
X16067700Y-8280600D02*
X16087700Y-8300600D01*
X16087700Y-8280600D02*
X16067700Y-8300600D01*
X16070000Y-10620000D02*
X16090000Y-10640000D01*
X16090000Y-10620000D02*
X16070000Y-10640000D01*
X16080000Y-8930000D02*
X16100000Y-8950000D01*
X16100000Y-8930000D02*
X16080000Y-8950000D01*
X16080000Y-9010000D02*
X16100000Y-9030000D01*
X16100000Y-9010000D02*
X16080000Y-9030000D01*
X16080000Y-10880000D02*
X16100000Y-10900000D01*
X16100000Y-10880000D02*
X16080000Y-10900000D01*
X16110000Y-8320000D02*
X16130000Y-8340000D01*
X16130000Y-8320000D02*
X16110000Y-8340000D01*
X16120000Y-8510000D02*
X16140000Y-8530000D01*
X16140000Y-8510000D02*
X16120000Y-8530000D01*
X16127500Y-8970000D02*
X16147500Y-8990000D01*
X16147500Y-8970000D02*
X16127500Y-8990000D01*
X16130000Y-8880000D02*
X16150000Y-8900000D01*
X16150000Y-8880000D02*
X16130000Y-8900000D01*
X16130000Y-11240000D02*
X16150000Y-11260000D01*
X16150000Y-11240000D02*
X16130000Y-11260000D01*
X16170000Y-9010000D02*
X16190000Y-9030000D01*
X16190000Y-9010000D02*
X16170000Y-9030000D01*
X16170600Y-8935700D02*
X16190600Y-8955700D01*
X16190600Y-8935700D02*
X16170600Y-8955700D01*
X16180000Y-8468000D02*
X16200000Y-8488000D01*
X16200000Y-8468000D02*
X16180000Y-8488000D01*
X16180000Y-11170000D02*
X16200000Y-11190000D01*
X16200000Y-11170000D02*
X16180000Y-11190000D01*
X16240000Y-10160000D02*
X16260000Y-10180000D01*
X16260000Y-10160000D02*
X16240000Y-10180000D01*
X16240000Y-10380000D02*
X16260000Y-10400000D01*
X16260000Y-10380000D02*
X16240000Y-10400000D01*
X16240000Y-11120000D02*
X16260000Y-11140000D01*
X16260000Y-11120000D02*
X16240000Y-11140000D01*
X16270000Y-9430000D02*
X16290000Y-9450000D01*
X16290000Y-9430000D02*
X16270000Y-9450000D01*
X16270000Y-9500000D02*
X16290000Y-9520000D01*
X16290000Y-9500000D02*
X16270000Y-9520000D01*
X16270000Y-9570000D02*
X16290000Y-9590000D01*
X16290000Y-9570000D02*
X16270000Y-9590000D01*
X16270000Y-9810000D02*
X16290000Y-9830000D01*
X16290000Y-9810000D02*
X16270000Y-9830000D01*
X16290000Y-8712000D02*
X16310000Y-8732000D01*
X16310000Y-8712000D02*
X16290000Y-8732000D01*
X16290000Y-8808000D02*
X16310000Y-8828000D01*
X16310000Y-8808000D02*
X16290000Y-8828000D01*
X16290000Y-11020000D02*
X16310000Y-11040000D01*
X16310000Y-11020000D02*
X16290000Y-11040000D01*
X16310000Y-10540000D02*
X16330000Y-10560000D01*
X16330000Y-10540000D02*
X16310000Y-10560000D01*
X16315000Y-10380000D02*
X16335000Y-10400000D01*
X16335000Y-10380000D02*
X16315000Y-10400000D01*
X16320000Y-9810000D02*
X16340000Y-9830000D01*
X16340000Y-9810000D02*
X16320000Y-9830000D01*
X16320000Y-10160000D02*
X16340000Y-10180000D01*
X16340000Y-10160000D02*
X16320000Y-10180000D01*
X16350000Y-9190000D02*
X16370000Y-9210000D01*
X16370000Y-9190000D02*
X16350000Y-9210000D01*
X16350000Y-10930000D02*
X16370000Y-10950000D01*
X16370000Y-10930000D02*
X16350000Y-10950000D01*
X16370000Y-8750000D02*
X16390000Y-8770000D01*
X16390000Y-8750000D02*
X16370000Y-8770000D01*
X16390000Y-10801250D02*
X16410000Y-10821250D01*
X16410000Y-10801250D02*
X16390000Y-10821250D01*
X16420000Y-8690000D02*
X16440000Y-8710000D01*
X16440000Y-8690000D02*
X16420000Y-8710000D01*
X16420000Y-9280000D02*
X16440000Y-9300000D01*
X16440000Y-9280000D02*
X16420000Y-9300000D01*
X16420000Y-9430000D02*
X16440000Y-9450000D01*
X16440000Y-9430000D02*
X16420000Y-9450000D01*
X16420000Y-9630000D02*
X16440000Y-9650000D01*
X16440000Y-9630000D02*
X16420000Y-9650000D01*
X16420000Y-10240000D02*
X16440000Y-10260000D01*
X16440000Y-10240000D02*
X16420000Y-10260000D01*
X16450000Y-9820000D02*
X16470000Y-9840000D01*
X16470000Y-9820000D02*
X16450000Y-9840000D01*
X16460000Y-9960000D02*
X16480000Y-9980000D01*
X16480000Y-9960000D02*
X16460000Y-9980000D01*
X16475000Y-10360000D02*
X16495000Y-10380000D01*
X16495000Y-10360000D02*
X16475000Y-10380000D01*
X16490000Y-10640000D02*
X16510000Y-10660000D01*
X16510000Y-10640000D02*
X16490000Y-10660000D01*
X16490000Y-10690000D02*
X16510000Y-10710000D01*
X16510000Y-10690000D02*
X16490000Y-10710000D01*
X16490000Y-10740000D02*
X16510000Y-10760000D01*
X16510000Y-10740000D02*
X16490000Y-10760000D01*
X16497500Y-10245000D02*
X16517500Y-10265000D01*
X16517500Y-10245000D02*
X16497500Y-10265000D01*
X16497850Y-8452150D02*
X16517850Y-8472150D01*
X16517850Y-8452150D02*
X16497850Y-8472150D01*
X16500000Y-8690000D02*
X16520000Y-8710000D01*
X16520000Y-8690000D02*
X16500000Y-8710000D01*
X16510000Y-10950000D02*
X16530000Y-10970000D01*
X16530000Y-10950000D02*
X16510000Y-10970000D01*
X16520000Y-9930000D02*
X16540000Y-9950000D01*
X16540000Y-9930000D02*
X16520000Y-9950000D01*
X16520000Y-10000000D02*
X16540000Y-10020000D01*
X16540000Y-10000000D02*
X16520000Y-10020000D01*
X16539540Y-8894540D02*
X16559540Y-8914540D01*
X16559540Y-8894540D02*
X16539540Y-8914540D01*
X16540660Y-8812340D02*
X16560660Y-8832340D01*
X16560660Y-8812340D02*
X16540660Y-8832340D01*
X16557500Y-10515000D02*
X16577500Y-10535000D01*
X16577500Y-10515000D02*
X16557500Y-10535000D01*
X16560000Y-9510000D02*
X16580000Y-9530000D01*
X16580000Y-9510000D02*
X16560000Y-9530000D01*
X16570000Y-9190000D02*
X16590000Y-9210000D01*
X16590000Y-9190000D02*
X16570000Y-9210000D01*
X16580000Y-9360000D02*
X16600000Y-9380000D01*
X16600000Y-9360000D02*
X16580000Y-9380000D01*
X16599000Y-8621000D02*
X16619000Y-8641000D01*
X16619000Y-8621000D02*
X16599000Y-8641000D01*
X16600000Y-9272000D02*
X16620000Y-9292000D01*
X16620000Y-9272000D02*
X16600000Y-9292000D01*
X16605000Y-10435000D02*
X16625000Y-10455000D01*
X16625000Y-10435000D02*
X16605000Y-10455000D01*
X16610000Y-10080000D02*
X16630000Y-10100000D01*
X16630000Y-10080000D02*
X16610000Y-10100000D01*
X16610000Y-10290000D02*
X16630000Y-10310000D01*
X16630000Y-10290000D02*
X16610000Y-10310000D01*
X16662500Y-10655000D02*
X16682500Y-10675000D01*
X16682500Y-10655000D02*
X16662500Y-10675000D01*
X16670000Y-9650000D02*
X16690000Y-9670000D01*
X16690000Y-9650000D02*
X16670000Y-9670000D01*
X16670000Y-9880000D02*
X16690000Y-9900000D01*
X16690000Y-9880000D02*
X16670000Y-9900000D01*
X16672500Y-10597500D02*
X16692500Y-10617500D01*
X16692500Y-10597500D02*
X16672500Y-10617500D01*
X16680000Y-9480000D02*
X16700000Y-9500000D01*
X16700000Y-9480000D02*
X16680000Y-9500000D01*
X16730000Y-9190000D02*
X16750000Y-9210000D01*
X16750000Y-9190000D02*
X16730000Y-9210000D01*
X16730000Y-9370000D02*
X16750000Y-9390000D01*
X16750000Y-9370000D02*
X16730000Y-9390000D01*
X16730000Y-9500000D02*
X16750000Y-9520000D01*
X16750000Y-9500000D02*
X16730000Y-9520000D01*
D12*
X13810640Y-8503361D02*
G75*
G03*
X13810640Y-8503361I-15250J0D01*
G01*
X13895493Y-8588214D02*
G75*
G03*
X13895493Y-8588214I-15250J0D01*
G01*
X13904898Y-8409103D02*
G75*
G03*
X13904898Y-8409103I-15250J0D01*
G01*
X13980346Y-8673066D02*
G75*
G03*
X13980346Y-8673066I-15250J0D01*
G01*
X13989750Y-8493956D02*
G75*
G03*
X13989750Y-8493956I-15250J0D01*
G01*
X13999155Y-8314846D02*
G75*
G03*
X13999155Y-8314846I-15250J0D01*
G01*
X14065199Y-8757919D02*
G75*
G03*
X14065199Y-8757919I-15250J0D01*
G01*
X14074603Y-8578809D02*
G75*
G03*
X14074603Y-8578809I-15250J0D01*
G01*
X14084008Y-8399699D02*
G75*
G03*
X14084008Y-8399699I-15250J0D01*
G01*
X14093412Y-8220589D02*
G75*
G03*
X14093412Y-8220589I-15250J0D01*
G01*
X14159456Y-8663662D02*
G75*
G03*
X14159456Y-8663662I-15250J0D01*
G01*
X14168861Y-8484552D02*
G75*
G03*
X14168861Y-8484552I-15250J0D01*
G01*
X14178265Y-8305442D02*
G75*
G03*
X14178265Y-8305442I-15250J0D01*
G01*
X14253713Y-8569405D02*
G75*
G03*
X14253713Y-8569405I-15250J0D01*
G01*
X14263118Y-8390294D02*
G75*
G03*
X14263118Y-8390294I-15250J0D01*
G01*
X14347971Y-8475147D02*
G75*
G03*
X14347971Y-8475147I-15250J0D01*
G01*
D10*
X13447723Y-12200445D02*
X13447723Y-12000445D01*
X13447723Y-12000445D02*
X13495342Y-12000445D01*
X13495342Y-12000445D02*
X13523913Y-12009969D01*
X13523913Y-12009969D02*
X13542961Y-12029016D01*
X13542961Y-12029016D02*
X13552484Y-12048064D01*
X13552484Y-12048064D02*
X13562008Y-12086159D01*
X13562008Y-12086159D02*
X13562008Y-12114731D01*
X13562008Y-12114731D02*
X13552484Y-12152826D01*
X13552484Y-12152826D02*
X13542961Y-12171874D01*
X13542961Y-12171874D02*
X13523913Y-12190921D01*
X13523913Y-12190921D02*
X13495342Y-12200445D01*
X13495342Y-12200445D02*
X13447723Y-12200445D01*
X13647723Y-12200445D02*
X13647723Y-12067112D01*
X13647723Y-12105207D02*
X13657246Y-12086159D01*
X13657246Y-12086159D02*
X13666770Y-12076635D01*
X13666770Y-12076635D02*
X13685818Y-12067112D01*
X13685818Y-12067112D02*
X13704865Y-12067112D01*
X13771532Y-12200445D02*
X13771532Y-12067112D01*
X13771532Y-12000445D02*
X13762008Y-12009969D01*
X13762008Y-12009969D02*
X13771532Y-12019493D01*
X13771532Y-12019493D02*
X13781056Y-12009969D01*
X13781056Y-12009969D02*
X13771532Y-12000445D01*
X13771532Y-12000445D02*
X13771532Y-12019493D01*
X13895342Y-12200445D02*
X13876294Y-12190921D01*
X13876294Y-12190921D02*
X13866770Y-12171874D01*
X13866770Y-12171874D02*
X13866770Y-12000445D01*
X14000103Y-12200445D02*
X13981056Y-12190921D01*
X13981056Y-12190921D02*
X13971532Y-12171874D01*
X13971532Y-12171874D02*
X13971532Y-12000445D01*
X14228675Y-12200445D02*
X14228675Y-12000445D01*
X14228675Y-12000445D02*
X14295342Y-12143302D01*
X14295342Y-12143302D02*
X14362008Y-12000445D01*
X14362008Y-12000445D02*
X14362008Y-12200445D01*
X14542961Y-12200445D02*
X14542961Y-12095683D01*
X14542961Y-12095683D02*
X14533437Y-12076635D01*
X14533437Y-12076635D02*
X14514389Y-12067112D01*
X14514389Y-12067112D02*
X14476294Y-12067112D01*
X14476294Y-12067112D02*
X14457246Y-12076635D01*
X14542961Y-12190921D02*
X14523913Y-12200445D01*
X14523913Y-12200445D02*
X14476294Y-12200445D01*
X14476294Y-12200445D02*
X14457246Y-12190921D01*
X14457246Y-12190921D02*
X14447723Y-12171874D01*
X14447723Y-12171874D02*
X14447723Y-12152826D01*
X14447723Y-12152826D02*
X14457246Y-12133778D01*
X14457246Y-12133778D02*
X14476294Y-12124255D01*
X14476294Y-12124255D02*
X14523913Y-12124255D01*
X14523913Y-12124255D02*
X14542961Y-12114731D01*
X14638199Y-12067112D02*
X14638199Y-12267112D01*
X14638199Y-12076635D02*
X14657246Y-12067112D01*
X14657246Y-12067112D02*
X14695342Y-12067112D01*
X14695342Y-12067112D02*
X14714389Y-12076635D01*
X14714389Y-12076635D02*
X14723913Y-12086159D01*
X14723913Y-12086159D02*
X14733437Y-12105207D01*
X14733437Y-12105207D02*
X14733437Y-12162350D01*
X14733437Y-12162350D02*
X14723913Y-12181397D01*
X14723913Y-12181397D02*
X14714389Y-12190921D01*
X14714389Y-12190921D02*
X14695342Y-12200445D01*
X14695342Y-12200445D02*
X14657246Y-12200445D01*
X14657246Y-12200445D02*
X14638199Y-12190921D01*
X14819151Y-12181397D02*
X14828675Y-12190921D01*
X14828675Y-12190921D02*
X14819151Y-12200445D01*
X14819151Y-12200445D02*
X14809627Y-12190921D01*
X14809627Y-12190921D02*
X14819151Y-12181397D01*
X14819151Y-12181397D02*
X14819151Y-12200445D01*
X14819151Y-12076635D02*
X14828675Y-12086159D01*
X14828675Y-12086159D02*
X14819151Y-12095683D01*
X14819151Y-12095683D02*
X14809627Y-12086159D01*
X14809627Y-12086159D02*
X14819151Y-12076635D01*
X14819151Y-12076635D02*
X14819151Y-12095683D01*
D11*
X13180104Y-12517921D02*
X13200104Y-12537921D01*
X13200104Y-12517921D02*
X13180104Y-12537921D01*
D10*
X13485818Y-12420445D02*
X13504865Y-12420445D01*
X13504865Y-12420445D02*
X13523913Y-12429969D01*
X13523913Y-12429969D02*
X13533437Y-12439493D01*
X13533437Y-12439493D02*
X13542961Y-12458540D01*
X13542961Y-12458540D02*
X13552484Y-12496635D01*
X13552484Y-12496635D02*
X13552484Y-12544255D01*
X13552484Y-12544255D02*
X13542961Y-12582350D01*
X13542961Y-12582350D02*
X13533437Y-12601397D01*
X13533437Y-12601397D02*
X13523913Y-12610921D01*
X13523913Y-12610921D02*
X13504865Y-12620445D01*
X13504865Y-12620445D02*
X13485818Y-12620445D01*
X13485818Y-12620445D02*
X13466770Y-12610921D01*
X13466770Y-12610921D02*
X13457246Y-12601397D01*
X13457246Y-12601397D02*
X13447723Y-12582350D01*
X13447723Y-12582350D02*
X13438199Y-12544255D01*
X13438199Y-12544255D02*
X13438199Y-12496635D01*
X13438199Y-12496635D02*
X13447723Y-12458540D01*
X13447723Y-12458540D02*
X13457246Y-12439493D01*
X13457246Y-12439493D02*
X13466770Y-12429969D01*
X13466770Y-12429969D02*
X13485818Y-12420445D01*
X13638199Y-12601397D02*
X13647723Y-12610921D01*
X13647723Y-12610921D02*
X13638199Y-12620445D01*
X13638199Y-12620445D02*
X13628675Y-12610921D01*
X13628675Y-12610921D02*
X13638199Y-12601397D01*
X13638199Y-12601397D02*
X13638199Y-12620445D01*
X13723913Y-12439493D02*
X13733437Y-12429969D01*
X13733437Y-12429969D02*
X13752484Y-12420445D01*
X13752484Y-12420445D02*
X13800104Y-12420445D01*
X13800104Y-12420445D02*
X13819151Y-12429969D01*
X13819151Y-12429969D02*
X13828675Y-12439493D01*
X13828675Y-12439493D02*
X13838199Y-12458540D01*
X13838199Y-12458540D02*
X13838199Y-12477588D01*
X13838199Y-12477588D02*
X13828675Y-12506159D01*
X13828675Y-12506159D02*
X13714389Y-12620445D01*
X13714389Y-12620445D02*
X13838199Y-12620445D01*
X13962008Y-12420445D02*
X13981056Y-12420445D01*
X13981056Y-12420445D02*
X14000104Y-12429969D01*
X14000104Y-12429969D02*
X14009627Y-12439493D01*
X14009627Y-12439493D02*
X14019151Y-12458540D01*
X14019151Y-12458540D02*
X14028675Y-12496635D01*
X14028675Y-12496635D02*
X14028675Y-12544255D01*
X14028675Y-12544255D02*
X14019151Y-12582350D01*
X14019151Y-12582350D02*
X14009627Y-12601397D01*
X14009627Y-12601397D02*
X14000104Y-12610921D01*
X14000104Y-12610921D02*
X13981056Y-12620445D01*
X13981056Y-12620445D02*
X13962008Y-12620445D01*
X13962008Y-12620445D02*
X13942961Y-12610921D01*
X13942961Y-12610921D02*
X13933437Y-12601397D01*
X13933437Y-12601397D02*
X13923913Y-12582350D01*
X13923913Y-12582350D02*
X13914389Y-12544255D01*
X13914389Y-12544255D02*
X13914389Y-12496635D01*
X13914389Y-12496635D02*
X13923913Y-12458540D01*
X13923913Y-12458540D02*
X13933437Y-12439493D01*
X13933437Y-12439493D02*
X13942961Y-12429969D01*
X13942961Y-12429969D02*
X13962008Y-12420445D01*
X14152484Y-12420445D02*
X14171532Y-12420445D01*
X14171532Y-12420445D02*
X14190580Y-12429969D01*
X14190580Y-12429969D02*
X14200104Y-12439493D01*
X14200104Y-12439493D02*
X14209627Y-12458540D01*
X14209627Y-12458540D02*
X14219151Y-12496635D01*
X14219151Y-12496635D02*
X14219151Y-12544255D01*
X14219151Y-12544255D02*
X14209627Y-12582350D01*
X14209627Y-12582350D02*
X14200104Y-12601397D01*
X14200104Y-12601397D02*
X14190580Y-12610921D01*
X14190580Y-12610921D02*
X14171532Y-12620445D01*
X14171532Y-12620445D02*
X14152484Y-12620445D01*
X14152484Y-12620445D02*
X14133437Y-12610921D01*
X14133437Y-12610921D02*
X14123913Y-12601397D01*
X14123913Y-12601397D02*
X14114389Y-12582350D01*
X14114389Y-12582350D02*
X14104865Y-12544255D01*
X14104865Y-12544255D02*
X14104865Y-12496635D01*
X14104865Y-12496635D02*
X14114389Y-12458540D01*
X14114389Y-12458540D02*
X14123913Y-12439493D01*
X14123913Y-12439493D02*
X14133437Y-12429969D01*
X14133437Y-12429969D02*
X14152484Y-12420445D01*
X14304865Y-12620445D02*
X14304865Y-12487112D01*
X14304865Y-12506159D02*
X14314389Y-12496635D01*
X14314389Y-12496635D02*
X14333437Y-12487112D01*
X14333437Y-12487112D02*
X14362008Y-12487112D01*
X14362008Y-12487112D02*
X14381056Y-12496635D01*
X14381056Y-12496635D02*
X14390580Y-12515683D01*
X14390580Y-12515683D02*
X14390580Y-12620445D01*
X14390580Y-12515683D02*
X14400104Y-12496635D01*
X14400104Y-12496635D02*
X14419151Y-12487112D01*
X14419151Y-12487112D02*
X14447723Y-12487112D01*
X14447723Y-12487112D02*
X14466770Y-12496635D01*
X14466770Y-12496635D02*
X14476294Y-12515683D01*
X14476294Y-12515683D02*
X14476294Y-12620445D01*
X14571532Y-12620445D02*
X14571532Y-12487112D01*
X14571532Y-12506159D02*
X14581056Y-12496635D01*
X14581056Y-12496635D02*
X14600104Y-12487112D01*
X14600104Y-12487112D02*
X14628675Y-12487112D01*
X14628675Y-12487112D02*
X14647723Y-12496635D01*
X14647723Y-12496635D02*
X14657246Y-12515683D01*
X14657246Y-12515683D02*
X14657246Y-12620445D01*
X14657246Y-12515683D02*
X14666770Y-12496635D01*
X14666770Y-12496635D02*
X14685818Y-12487112D01*
X14685818Y-12487112D02*
X14714389Y-12487112D01*
X14714389Y-12487112D02*
X14733437Y-12496635D01*
X14733437Y-12496635D02*
X14742961Y-12515683D01*
X14742961Y-12515683D02*
X14742961Y-12620445D01*
X15133437Y-12410921D02*
X14962008Y-12668064D01*
X15390580Y-12420445D02*
X15409628Y-12420445D01*
X15409628Y-12420445D02*
X15428675Y-12429969D01*
X15428675Y-12429969D02*
X15438199Y-12439493D01*
X15438199Y-12439493D02*
X15447723Y-12458540D01*
X15447723Y-12458540D02*
X15457247Y-12496635D01*
X15457247Y-12496635D02*
X15457247Y-12544255D01*
X15457247Y-12544255D02*
X15447723Y-12582350D01*
X15447723Y-12582350D02*
X15438199Y-12601397D01*
X15438199Y-12601397D02*
X15428675Y-12610921D01*
X15428675Y-12610921D02*
X15409628Y-12620445D01*
X15409628Y-12620445D02*
X15390580Y-12620445D01*
X15390580Y-12620445D02*
X15371532Y-12610921D01*
X15371532Y-12610921D02*
X15362008Y-12601397D01*
X15362008Y-12601397D02*
X15352485Y-12582350D01*
X15352485Y-12582350D02*
X15342961Y-12544255D01*
X15342961Y-12544255D02*
X15342961Y-12496635D01*
X15342961Y-12496635D02*
X15352485Y-12458540D01*
X15352485Y-12458540D02*
X15362008Y-12439493D01*
X15362008Y-12439493D02*
X15371532Y-12429969D01*
X15371532Y-12429969D02*
X15390580Y-12420445D01*
X15542961Y-12601397D02*
X15552485Y-12610921D01*
X15552485Y-12610921D02*
X15542961Y-12620445D01*
X15542961Y-12620445D02*
X15533437Y-12610921D01*
X15533437Y-12610921D02*
X15542961Y-12601397D01*
X15542961Y-12601397D02*
X15542961Y-12620445D01*
X15676294Y-12420445D02*
X15695342Y-12420445D01*
X15695342Y-12420445D02*
X15714389Y-12429969D01*
X15714389Y-12429969D02*
X15723913Y-12439493D01*
X15723913Y-12439493D02*
X15733437Y-12458540D01*
X15733437Y-12458540D02*
X15742961Y-12496635D01*
X15742961Y-12496635D02*
X15742961Y-12544255D01*
X15742961Y-12544255D02*
X15733437Y-12582350D01*
X15733437Y-12582350D02*
X15723913Y-12601397D01*
X15723913Y-12601397D02*
X15714389Y-12610921D01*
X15714389Y-12610921D02*
X15695342Y-12620445D01*
X15695342Y-12620445D02*
X15676294Y-12620445D01*
X15676294Y-12620445D02*
X15657247Y-12610921D01*
X15657247Y-12610921D02*
X15647723Y-12601397D01*
X15647723Y-12601397D02*
X15638199Y-12582350D01*
X15638199Y-12582350D02*
X15628675Y-12544255D01*
X15628675Y-12544255D02*
X15628675Y-12496635D01*
X15628675Y-12496635D02*
X15638199Y-12458540D01*
X15638199Y-12458540D02*
X15647723Y-12439493D01*
X15647723Y-12439493D02*
X15657247Y-12429969D01*
X15657247Y-12429969D02*
X15676294Y-12420445D01*
X15866770Y-12420445D02*
X15885818Y-12420445D01*
X15885818Y-12420445D02*
X15904866Y-12429969D01*
X15904866Y-12429969D02*
X15914389Y-12439493D01*
X15914389Y-12439493D02*
X15923913Y-12458540D01*
X15923913Y-12458540D02*
X15933437Y-12496635D01*
X15933437Y-12496635D02*
X15933437Y-12544255D01*
X15933437Y-12544255D02*
X15923913Y-12582350D01*
X15923913Y-12582350D02*
X15914389Y-12601397D01*
X15914389Y-12601397D02*
X15904866Y-12610921D01*
X15904866Y-12610921D02*
X15885818Y-12620445D01*
X15885818Y-12620445D02*
X15866770Y-12620445D01*
X15866770Y-12620445D02*
X15847723Y-12610921D01*
X15847723Y-12610921D02*
X15838199Y-12601397D01*
X15838199Y-12601397D02*
X15828675Y-12582350D01*
X15828675Y-12582350D02*
X15819151Y-12544255D01*
X15819151Y-12544255D02*
X15819151Y-12496635D01*
X15819151Y-12496635D02*
X15828675Y-12458540D01*
X15828675Y-12458540D02*
X15838199Y-12439493D01*
X15838199Y-12439493D02*
X15847723Y-12429969D01*
X15847723Y-12429969D02*
X15866770Y-12420445D01*
X16000104Y-12420445D02*
X16133437Y-12420445D01*
X16133437Y-12420445D02*
X16047723Y-12620445D01*
X16219151Y-12620445D02*
X16257247Y-12620445D01*
X16257247Y-12620445D02*
X16276294Y-12610921D01*
X16276294Y-12610921D02*
X16285818Y-12601397D01*
X16285818Y-12601397D02*
X16304866Y-12572826D01*
X16304866Y-12572826D02*
X16314389Y-12534731D01*
X16314389Y-12534731D02*
X16314389Y-12458540D01*
X16314389Y-12458540D02*
X16304866Y-12439493D01*
X16304866Y-12439493D02*
X16295342Y-12429969D01*
X16295342Y-12429969D02*
X16276294Y-12420445D01*
X16276294Y-12420445D02*
X16238199Y-12420445D01*
X16238199Y-12420445D02*
X16219151Y-12429969D01*
X16219151Y-12429969D02*
X16209628Y-12439493D01*
X16209628Y-12439493D02*
X16200104Y-12458540D01*
X16200104Y-12458540D02*
X16200104Y-12506159D01*
X16200104Y-12506159D02*
X16209628Y-12525207D01*
X16209628Y-12525207D02*
X16219151Y-12534731D01*
X16219151Y-12534731D02*
X16238199Y-12544255D01*
X16238199Y-12544255D02*
X16276294Y-12544255D01*
X16276294Y-12544255D02*
X16295342Y-12534731D01*
X16295342Y-12534731D02*
X16304866Y-12525207D01*
X16304866Y-12525207D02*
X16314389Y-12506159D01*
X16390580Y-12420445D02*
X16390580Y-12458540D01*
X16466770Y-12420445D02*
X16466770Y-12458540D01*
X16762009Y-12696635D02*
X16752485Y-12687112D01*
X16752485Y-12687112D02*
X16733437Y-12658540D01*
X16733437Y-12658540D02*
X16723913Y-12639493D01*
X16723913Y-12639493D02*
X16714390Y-12610921D01*
X16714390Y-12610921D02*
X16704866Y-12563302D01*
X16704866Y-12563302D02*
X16704866Y-12525207D01*
X16704866Y-12525207D02*
X16714390Y-12477588D01*
X16714390Y-12477588D02*
X16723913Y-12449016D01*
X16723913Y-12449016D02*
X16733437Y-12429969D01*
X16733437Y-12429969D02*
X16752485Y-12401397D01*
X16752485Y-12401397D02*
X16762009Y-12391874D01*
X16933437Y-12420445D02*
X16838199Y-12420445D01*
X16838199Y-12420445D02*
X16828675Y-12515683D01*
X16828675Y-12515683D02*
X16838199Y-12506159D01*
X16838199Y-12506159D02*
X16857247Y-12496635D01*
X16857247Y-12496635D02*
X16904866Y-12496635D01*
X16904866Y-12496635D02*
X16923913Y-12506159D01*
X16923913Y-12506159D02*
X16933437Y-12515683D01*
X16933437Y-12515683D02*
X16942961Y-12534731D01*
X16942961Y-12534731D02*
X16942961Y-12582350D01*
X16942961Y-12582350D02*
X16933437Y-12601397D01*
X16933437Y-12601397D02*
X16923913Y-12610921D01*
X16923913Y-12610921D02*
X16904866Y-12620445D01*
X16904866Y-12620445D02*
X16857247Y-12620445D01*
X16857247Y-12620445D02*
X16838199Y-12610921D01*
X16838199Y-12610921D02*
X16828675Y-12601397D01*
X17133437Y-12620445D02*
X17019152Y-12620445D01*
X17076294Y-12620445D02*
X17076294Y-12420445D01*
X17076294Y-12420445D02*
X17057247Y-12449016D01*
X17057247Y-12449016D02*
X17038199Y-12468064D01*
X17038199Y-12468064D02*
X17019152Y-12477588D01*
X17257247Y-12420445D02*
X17276294Y-12420445D01*
X17276294Y-12420445D02*
X17295342Y-12429969D01*
X17295342Y-12429969D02*
X17304866Y-12439493D01*
X17304866Y-12439493D02*
X17314390Y-12458540D01*
X17314390Y-12458540D02*
X17323913Y-12496635D01*
X17323913Y-12496635D02*
X17323913Y-12544255D01*
X17323913Y-12544255D02*
X17314390Y-12582350D01*
X17314390Y-12582350D02*
X17304866Y-12601397D01*
X17304866Y-12601397D02*
X17295342Y-12610921D01*
X17295342Y-12610921D02*
X17276294Y-12620445D01*
X17276294Y-12620445D02*
X17257247Y-12620445D01*
X17257247Y-12620445D02*
X17238199Y-12610921D01*
X17238199Y-12610921D02*
X17228675Y-12601397D01*
X17228675Y-12601397D02*
X17219152Y-12582350D01*
X17219152Y-12582350D02*
X17209628Y-12544255D01*
X17209628Y-12544255D02*
X17209628Y-12496635D01*
X17209628Y-12496635D02*
X17219152Y-12458540D01*
X17219152Y-12458540D02*
X17228675Y-12439493D01*
X17228675Y-12439493D02*
X17238199Y-12429969D01*
X17238199Y-12429969D02*
X17257247Y-12420445D01*
X17562009Y-12620445D02*
X17562009Y-12420445D01*
X17647723Y-12620445D02*
X17647723Y-12515683D01*
X17647723Y-12515683D02*
X17638199Y-12496635D01*
X17638199Y-12496635D02*
X17619152Y-12487112D01*
X17619152Y-12487112D02*
X17590580Y-12487112D01*
X17590580Y-12487112D02*
X17571533Y-12496635D01*
X17571533Y-12496635D02*
X17562009Y-12506159D01*
X17771533Y-12620445D02*
X17752485Y-12610921D01*
X17752485Y-12610921D02*
X17742961Y-12601397D01*
X17742961Y-12601397D02*
X17733437Y-12582350D01*
X17733437Y-12582350D02*
X17733437Y-12525207D01*
X17733437Y-12525207D02*
X17742961Y-12506159D01*
X17742961Y-12506159D02*
X17752485Y-12496635D01*
X17752485Y-12496635D02*
X17771533Y-12487112D01*
X17771533Y-12487112D02*
X17800104Y-12487112D01*
X17800104Y-12487112D02*
X17819152Y-12496635D01*
X17819152Y-12496635D02*
X17828675Y-12506159D01*
X17828675Y-12506159D02*
X17838199Y-12525207D01*
X17838199Y-12525207D02*
X17838199Y-12582350D01*
X17838199Y-12582350D02*
X17828675Y-12601397D01*
X17828675Y-12601397D02*
X17819152Y-12610921D01*
X17819152Y-12610921D02*
X17800104Y-12620445D01*
X17800104Y-12620445D02*
X17771533Y-12620445D01*
X17952485Y-12620445D02*
X17933437Y-12610921D01*
X17933437Y-12610921D02*
X17923914Y-12591874D01*
X17923914Y-12591874D02*
X17923914Y-12420445D01*
X18104866Y-12610921D02*
X18085818Y-12620445D01*
X18085818Y-12620445D02*
X18047723Y-12620445D01*
X18047723Y-12620445D02*
X18028675Y-12610921D01*
X18028675Y-12610921D02*
X18019152Y-12591874D01*
X18019152Y-12591874D02*
X18019152Y-12515683D01*
X18019152Y-12515683D02*
X18028675Y-12496635D01*
X18028675Y-12496635D02*
X18047723Y-12487112D01*
X18047723Y-12487112D02*
X18085818Y-12487112D01*
X18085818Y-12487112D02*
X18104866Y-12496635D01*
X18104866Y-12496635D02*
X18114390Y-12515683D01*
X18114390Y-12515683D02*
X18114390Y-12534731D01*
X18114390Y-12534731D02*
X18019152Y-12553778D01*
X18190580Y-12610921D02*
X18209628Y-12620445D01*
X18209628Y-12620445D02*
X18247723Y-12620445D01*
X18247723Y-12620445D02*
X18266771Y-12610921D01*
X18266771Y-12610921D02*
X18276295Y-12591874D01*
X18276295Y-12591874D02*
X18276295Y-12582350D01*
X18276295Y-12582350D02*
X18266771Y-12563302D01*
X18266771Y-12563302D02*
X18247723Y-12553778D01*
X18247723Y-12553778D02*
X18219152Y-12553778D01*
X18219152Y-12553778D02*
X18200104Y-12544255D01*
X18200104Y-12544255D02*
X18190580Y-12525207D01*
X18190580Y-12525207D02*
X18190580Y-12515683D01*
X18190580Y-12515683D02*
X18200104Y-12496635D01*
X18200104Y-12496635D02*
X18219152Y-12487112D01*
X18219152Y-12487112D02*
X18247723Y-12487112D01*
X18247723Y-12487112D02*
X18266771Y-12496635D01*
X18342961Y-12696635D02*
X18352485Y-12687112D01*
X18352485Y-12687112D02*
X18371533Y-12658540D01*
X18371533Y-12658540D02*
X18381056Y-12639493D01*
X18381056Y-12639493D02*
X18390580Y-12610921D01*
X18390580Y-12610921D02*
X18400104Y-12563302D01*
X18400104Y-12563302D02*
X18400104Y-12525207D01*
X18400104Y-12525207D02*
X18390580Y-12477588D01*
X18390580Y-12477588D02*
X18381056Y-12449016D01*
X18381056Y-12449016D02*
X18371533Y-12429969D01*
X18371533Y-12429969D02*
X18352485Y-12401397D01*
X18352485Y-12401397D02*
X18342961Y-12391874D01*
D12*
X13200104Y-12791921D02*
G75*
G03*
X13200104Y-12791921I-15250J0D01*
G01*
D10*
X13485818Y-12684445D02*
X13504865Y-12684445D01*
X13504865Y-12684445D02*
X13523913Y-12693969D01*
X13523913Y-12693969D02*
X13533437Y-12703493D01*
X13533437Y-12703493D02*
X13542961Y-12722540D01*
X13542961Y-12722540D02*
X13552484Y-12760635D01*
X13552484Y-12760635D02*
X13552484Y-12808255D01*
X13552484Y-12808255D02*
X13542961Y-12846350D01*
X13542961Y-12846350D02*
X13533437Y-12865397D01*
X13533437Y-12865397D02*
X13523913Y-12874921D01*
X13523913Y-12874921D02*
X13504865Y-12884445D01*
X13504865Y-12884445D02*
X13485818Y-12884445D01*
X13485818Y-12884445D02*
X13466770Y-12874921D01*
X13466770Y-12874921D02*
X13457246Y-12865397D01*
X13457246Y-12865397D02*
X13447723Y-12846350D01*
X13447723Y-12846350D02*
X13438199Y-12808255D01*
X13438199Y-12808255D02*
X13438199Y-12760635D01*
X13438199Y-12760635D02*
X13447723Y-12722540D01*
X13447723Y-12722540D02*
X13457246Y-12703493D01*
X13457246Y-12703493D02*
X13466770Y-12693969D01*
X13466770Y-12693969D02*
X13485818Y-12684445D01*
X13638199Y-12865397D02*
X13647723Y-12874921D01*
X13647723Y-12874921D02*
X13638199Y-12884445D01*
X13638199Y-12884445D02*
X13628675Y-12874921D01*
X13628675Y-12874921D02*
X13638199Y-12865397D01*
X13638199Y-12865397D02*
X13638199Y-12884445D01*
X13714389Y-12684445D02*
X13838199Y-12684445D01*
X13838199Y-12684445D02*
X13771532Y-12760635D01*
X13771532Y-12760635D02*
X13800104Y-12760635D01*
X13800104Y-12760635D02*
X13819151Y-12770159D01*
X13819151Y-12770159D02*
X13828675Y-12779683D01*
X13828675Y-12779683D02*
X13838199Y-12798731D01*
X13838199Y-12798731D02*
X13838199Y-12846350D01*
X13838199Y-12846350D02*
X13828675Y-12865397D01*
X13828675Y-12865397D02*
X13819151Y-12874921D01*
X13819151Y-12874921D02*
X13800104Y-12884445D01*
X13800104Y-12884445D02*
X13742961Y-12884445D01*
X13742961Y-12884445D02*
X13723913Y-12874921D01*
X13723913Y-12874921D02*
X13714389Y-12865397D01*
X13962008Y-12684445D02*
X13981056Y-12684445D01*
X13981056Y-12684445D02*
X14000104Y-12693969D01*
X14000104Y-12693969D02*
X14009627Y-12703493D01*
X14009627Y-12703493D02*
X14019151Y-12722540D01*
X14019151Y-12722540D02*
X14028675Y-12760635D01*
X14028675Y-12760635D02*
X14028675Y-12808255D01*
X14028675Y-12808255D02*
X14019151Y-12846350D01*
X14019151Y-12846350D02*
X14009627Y-12865397D01*
X14009627Y-12865397D02*
X14000104Y-12874921D01*
X14000104Y-12874921D02*
X13981056Y-12884445D01*
X13981056Y-12884445D02*
X13962008Y-12884445D01*
X13962008Y-12884445D02*
X13942961Y-12874921D01*
X13942961Y-12874921D02*
X13933437Y-12865397D01*
X13933437Y-12865397D02*
X13923913Y-12846350D01*
X13923913Y-12846350D02*
X13914389Y-12808255D01*
X13914389Y-12808255D02*
X13914389Y-12760635D01*
X13914389Y-12760635D02*
X13923913Y-12722540D01*
X13923913Y-12722540D02*
X13933437Y-12703493D01*
X13933437Y-12703493D02*
X13942961Y-12693969D01*
X13942961Y-12693969D02*
X13962008Y-12684445D01*
X14209627Y-12684445D02*
X14114389Y-12684445D01*
X14114389Y-12684445D02*
X14104865Y-12779683D01*
X14104865Y-12779683D02*
X14114389Y-12770159D01*
X14114389Y-12770159D02*
X14133437Y-12760635D01*
X14133437Y-12760635D02*
X14181056Y-12760635D01*
X14181056Y-12760635D02*
X14200104Y-12770159D01*
X14200104Y-12770159D02*
X14209627Y-12779683D01*
X14209627Y-12779683D02*
X14219151Y-12798731D01*
X14219151Y-12798731D02*
X14219151Y-12846350D01*
X14219151Y-12846350D02*
X14209627Y-12865397D01*
X14209627Y-12865397D02*
X14200104Y-12874921D01*
X14200104Y-12874921D02*
X14181056Y-12884445D01*
X14181056Y-12884445D02*
X14133437Y-12884445D01*
X14133437Y-12884445D02*
X14114389Y-12874921D01*
X14114389Y-12874921D02*
X14104865Y-12865397D01*
X14304865Y-12884445D02*
X14304865Y-12751112D01*
X14304865Y-12770159D02*
X14314389Y-12760635D01*
X14314389Y-12760635D02*
X14333437Y-12751112D01*
X14333437Y-12751112D02*
X14362008Y-12751112D01*
X14362008Y-12751112D02*
X14381056Y-12760635D01*
X14381056Y-12760635D02*
X14390580Y-12779683D01*
X14390580Y-12779683D02*
X14390580Y-12884445D01*
X14390580Y-12779683D02*
X14400104Y-12760635D01*
X14400104Y-12760635D02*
X14419151Y-12751112D01*
X14419151Y-12751112D02*
X14447723Y-12751112D01*
X14447723Y-12751112D02*
X14466770Y-12760635D01*
X14466770Y-12760635D02*
X14476294Y-12779683D01*
X14476294Y-12779683D02*
X14476294Y-12884445D01*
X14571532Y-12884445D02*
X14571532Y-12751112D01*
X14571532Y-12770159D02*
X14581056Y-12760635D01*
X14581056Y-12760635D02*
X14600104Y-12751112D01*
X14600104Y-12751112D02*
X14628675Y-12751112D01*
X14628675Y-12751112D02*
X14647723Y-12760635D01*
X14647723Y-12760635D02*
X14657246Y-12779683D01*
X14657246Y-12779683D02*
X14657246Y-12884445D01*
X14657246Y-12779683D02*
X14666770Y-12760635D01*
X14666770Y-12760635D02*
X14685818Y-12751112D01*
X14685818Y-12751112D02*
X14714389Y-12751112D01*
X14714389Y-12751112D02*
X14733437Y-12760635D01*
X14733437Y-12760635D02*
X14742961Y-12779683D01*
X14742961Y-12779683D02*
X14742961Y-12884445D01*
X15133437Y-12674921D02*
X14962008Y-12932064D01*
X15390580Y-12684445D02*
X15409628Y-12684445D01*
X15409628Y-12684445D02*
X15428675Y-12693969D01*
X15428675Y-12693969D02*
X15438199Y-12703493D01*
X15438199Y-12703493D02*
X15447723Y-12722540D01*
X15447723Y-12722540D02*
X15457247Y-12760635D01*
X15457247Y-12760635D02*
X15457247Y-12808255D01*
X15457247Y-12808255D02*
X15447723Y-12846350D01*
X15447723Y-12846350D02*
X15438199Y-12865397D01*
X15438199Y-12865397D02*
X15428675Y-12874921D01*
X15428675Y-12874921D02*
X15409628Y-12884445D01*
X15409628Y-12884445D02*
X15390580Y-12884445D01*
X15390580Y-12884445D02*
X15371532Y-12874921D01*
X15371532Y-12874921D02*
X15362008Y-12865397D01*
X15362008Y-12865397D02*
X15352485Y-12846350D01*
X15352485Y-12846350D02*
X15342961Y-12808255D01*
X15342961Y-12808255D02*
X15342961Y-12760635D01*
X15342961Y-12760635D02*
X15352485Y-12722540D01*
X15352485Y-12722540D02*
X15362008Y-12703493D01*
X15362008Y-12703493D02*
X15371532Y-12693969D01*
X15371532Y-12693969D02*
X15390580Y-12684445D01*
X15542961Y-12865397D02*
X15552485Y-12874921D01*
X15552485Y-12874921D02*
X15542961Y-12884445D01*
X15542961Y-12884445D02*
X15533437Y-12874921D01*
X15533437Y-12874921D02*
X15542961Y-12865397D01*
X15542961Y-12865397D02*
X15542961Y-12884445D01*
X15676294Y-12684445D02*
X15695342Y-12684445D01*
X15695342Y-12684445D02*
X15714389Y-12693969D01*
X15714389Y-12693969D02*
X15723913Y-12703493D01*
X15723913Y-12703493D02*
X15733437Y-12722540D01*
X15733437Y-12722540D02*
X15742961Y-12760635D01*
X15742961Y-12760635D02*
X15742961Y-12808255D01*
X15742961Y-12808255D02*
X15733437Y-12846350D01*
X15733437Y-12846350D02*
X15723913Y-12865397D01*
X15723913Y-12865397D02*
X15714389Y-12874921D01*
X15714389Y-12874921D02*
X15695342Y-12884445D01*
X15695342Y-12884445D02*
X15676294Y-12884445D01*
X15676294Y-12884445D02*
X15657247Y-12874921D01*
X15657247Y-12874921D02*
X15647723Y-12865397D01*
X15647723Y-12865397D02*
X15638199Y-12846350D01*
X15638199Y-12846350D02*
X15628675Y-12808255D01*
X15628675Y-12808255D02*
X15628675Y-12760635D01*
X15628675Y-12760635D02*
X15638199Y-12722540D01*
X15638199Y-12722540D02*
X15647723Y-12703493D01*
X15647723Y-12703493D02*
X15657247Y-12693969D01*
X15657247Y-12693969D02*
X15676294Y-12684445D01*
X15933437Y-12884445D02*
X15819151Y-12884445D01*
X15876294Y-12884445D02*
X15876294Y-12684445D01*
X15876294Y-12684445D02*
X15857247Y-12713016D01*
X15857247Y-12713016D02*
X15838199Y-12732064D01*
X15838199Y-12732064D02*
X15819151Y-12741588D01*
X16009628Y-12703493D02*
X16019151Y-12693969D01*
X16019151Y-12693969D02*
X16038199Y-12684445D01*
X16038199Y-12684445D02*
X16085818Y-12684445D01*
X16085818Y-12684445D02*
X16104866Y-12693969D01*
X16104866Y-12693969D02*
X16114389Y-12703493D01*
X16114389Y-12703493D02*
X16123913Y-12722540D01*
X16123913Y-12722540D02*
X16123913Y-12741588D01*
X16123913Y-12741588D02*
X16114389Y-12770159D01*
X16114389Y-12770159D02*
X16000104Y-12884445D01*
X16000104Y-12884445D02*
X16123913Y-12884445D01*
X16247723Y-12684445D02*
X16266770Y-12684445D01*
X16266770Y-12684445D02*
X16285818Y-12693969D01*
X16285818Y-12693969D02*
X16295342Y-12703493D01*
X16295342Y-12703493D02*
X16304866Y-12722540D01*
X16304866Y-12722540D02*
X16314389Y-12760635D01*
X16314389Y-12760635D02*
X16314389Y-12808255D01*
X16314389Y-12808255D02*
X16304866Y-12846350D01*
X16304866Y-12846350D02*
X16295342Y-12865397D01*
X16295342Y-12865397D02*
X16285818Y-12874921D01*
X16285818Y-12874921D02*
X16266770Y-12884445D01*
X16266770Y-12884445D02*
X16247723Y-12884445D01*
X16247723Y-12884445D02*
X16228675Y-12874921D01*
X16228675Y-12874921D02*
X16219151Y-12865397D01*
X16219151Y-12865397D02*
X16209628Y-12846350D01*
X16209628Y-12846350D02*
X16200104Y-12808255D01*
X16200104Y-12808255D02*
X16200104Y-12760635D01*
X16200104Y-12760635D02*
X16209628Y-12722540D01*
X16209628Y-12722540D02*
X16219151Y-12703493D01*
X16219151Y-12703493D02*
X16228675Y-12693969D01*
X16228675Y-12693969D02*
X16247723Y-12684445D01*
X16390580Y-12684445D02*
X16390580Y-12722540D01*
X16466770Y-12684445D02*
X16466770Y-12722540D01*
X16762009Y-12960635D02*
X16752485Y-12951112D01*
X16752485Y-12951112D02*
X16733437Y-12922540D01*
X16733437Y-12922540D02*
X16723913Y-12903493D01*
X16723913Y-12903493D02*
X16714390Y-12874921D01*
X16714390Y-12874921D02*
X16704866Y-12827302D01*
X16704866Y-12827302D02*
X16704866Y-12789207D01*
X16704866Y-12789207D02*
X16714390Y-12741588D01*
X16714390Y-12741588D02*
X16723913Y-12713016D01*
X16723913Y-12713016D02*
X16733437Y-12693969D01*
X16733437Y-12693969D02*
X16752485Y-12665397D01*
X16752485Y-12665397D02*
X16762009Y-12655874D01*
X16942961Y-12884445D02*
X16828675Y-12884445D01*
X16885818Y-12884445D02*
X16885818Y-12684445D01*
X16885818Y-12684445D02*
X16866771Y-12713016D01*
X16866771Y-12713016D02*
X16847723Y-12732064D01*
X16847723Y-12732064D02*
X16828675Y-12741588D01*
X17114390Y-12684445D02*
X17076294Y-12684445D01*
X17076294Y-12684445D02*
X17057247Y-12693969D01*
X17057247Y-12693969D02*
X17047723Y-12703493D01*
X17047723Y-12703493D02*
X17028675Y-12732064D01*
X17028675Y-12732064D02*
X17019152Y-12770159D01*
X17019152Y-12770159D02*
X17019152Y-12846350D01*
X17019152Y-12846350D02*
X17028675Y-12865397D01*
X17028675Y-12865397D02*
X17038199Y-12874921D01*
X17038199Y-12874921D02*
X17057247Y-12884445D01*
X17057247Y-12884445D02*
X17095342Y-12884445D01*
X17095342Y-12884445D02*
X17114390Y-12874921D01*
X17114390Y-12874921D02*
X17123913Y-12865397D01*
X17123913Y-12865397D02*
X17133437Y-12846350D01*
X17133437Y-12846350D02*
X17133437Y-12798731D01*
X17133437Y-12798731D02*
X17123913Y-12779683D01*
X17123913Y-12779683D02*
X17114390Y-12770159D01*
X17114390Y-12770159D02*
X17095342Y-12760635D01*
X17095342Y-12760635D02*
X17057247Y-12760635D01*
X17057247Y-12760635D02*
X17038199Y-12770159D01*
X17038199Y-12770159D02*
X17028675Y-12779683D01*
X17028675Y-12779683D02*
X17019152Y-12798731D01*
X17371533Y-12884445D02*
X17371533Y-12684445D01*
X17457247Y-12884445D02*
X17457247Y-12779683D01*
X17457247Y-12779683D02*
X17447723Y-12760635D01*
X17447723Y-12760635D02*
X17428675Y-12751112D01*
X17428675Y-12751112D02*
X17400104Y-12751112D01*
X17400104Y-12751112D02*
X17381056Y-12760635D01*
X17381056Y-12760635D02*
X17371533Y-12770159D01*
X17581056Y-12884445D02*
X17562009Y-12874921D01*
X17562009Y-12874921D02*
X17552485Y-12865397D01*
X17552485Y-12865397D02*
X17542961Y-12846350D01*
X17542961Y-12846350D02*
X17542961Y-12789207D01*
X17542961Y-12789207D02*
X17552485Y-12770159D01*
X17552485Y-12770159D02*
X17562009Y-12760635D01*
X17562009Y-12760635D02*
X17581056Y-12751112D01*
X17581056Y-12751112D02*
X17609628Y-12751112D01*
X17609628Y-12751112D02*
X17628675Y-12760635D01*
X17628675Y-12760635D02*
X17638199Y-12770159D01*
X17638199Y-12770159D02*
X17647723Y-12789207D01*
X17647723Y-12789207D02*
X17647723Y-12846350D01*
X17647723Y-12846350D02*
X17638199Y-12865397D01*
X17638199Y-12865397D02*
X17628675Y-12874921D01*
X17628675Y-12874921D02*
X17609628Y-12884445D01*
X17609628Y-12884445D02*
X17581056Y-12884445D01*
X17762009Y-12884445D02*
X17742961Y-12874921D01*
X17742961Y-12874921D02*
X17733437Y-12855874D01*
X17733437Y-12855874D02*
X17733437Y-12684445D01*
X17914390Y-12874921D02*
X17895342Y-12884445D01*
X17895342Y-12884445D02*
X17857247Y-12884445D01*
X17857247Y-12884445D02*
X17838199Y-12874921D01*
X17838199Y-12874921D02*
X17828675Y-12855874D01*
X17828675Y-12855874D02*
X17828675Y-12779683D01*
X17828675Y-12779683D02*
X17838199Y-12760635D01*
X17838199Y-12760635D02*
X17857247Y-12751112D01*
X17857247Y-12751112D02*
X17895342Y-12751112D01*
X17895342Y-12751112D02*
X17914390Y-12760635D01*
X17914390Y-12760635D02*
X17923914Y-12779683D01*
X17923914Y-12779683D02*
X17923914Y-12798731D01*
X17923914Y-12798731D02*
X17828675Y-12817778D01*
X18000104Y-12874921D02*
X18019152Y-12884445D01*
X18019152Y-12884445D02*
X18057247Y-12884445D01*
X18057247Y-12884445D02*
X18076295Y-12874921D01*
X18076295Y-12874921D02*
X18085818Y-12855874D01*
X18085818Y-12855874D02*
X18085818Y-12846350D01*
X18085818Y-12846350D02*
X18076295Y-12827302D01*
X18076295Y-12827302D02*
X18057247Y-12817778D01*
X18057247Y-12817778D02*
X18028675Y-12817778D01*
X18028675Y-12817778D02*
X18009628Y-12808255D01*
X18009628Y-12808255D02*
X18000104Y-12789207D01*
X18000104Y-12789207D02*
X18000104Y-12779683D01*
X18000104Y-12779683D02*
X18009628Y-12760635D01*
X18009628Y-12760635D02*
X18028675Y-12751112D01*
X18028675Y-12751112D02*
X18057247Y-12751112D01*
X18057247Y-12751112D02*
X18076295Y-12760635D01*
X18152485Y-12960635D02*
X18162009Y-12951112D01*
X18162009Y-12951112D02*
X18181056Y-12922540D01*
X18181056Y-12922540D02*
X18190580Y-12903493D01*
X18190580Y-12903493D02*
X18200104Y-12874921D01*
X18200104Y-12874921D02*
X18209628Y-12827302D01*
X18209628Y-12827302D02*
X18209628Y-12789207D01*
X18209628Y-12789207D02*
X18200104Y-12741588D01*
X18200104Y-12741588D02*
X18190580Y-12713016D01*
X18190580Y-12713016D02*
X18181056Y-12693969D01*
X18181056Y-12693969D02*
X18162009Y-12665397D01*
X18162009Y-12665397D02*
X18152485Y-12655874D01*
M02*
