%TF.GenerationSoftware,KiCad,Pcbnew,7.0.1*%
%TF.CreationDate,2023-12-30T18:27:54+00:00*%
%TF.ProjectId,watch_main,77617463-685f-46d6-9169-6e2e6b696361,rev?*%
%TF.SameCoordinates,Original*%
%TF.FileFunction,Soldermask,Bot*%
%TF.FilePolarity,Negative*%
%FSLAX46Y46*%
G04 Gerber Fmt 4.6, Leading zero omitted, Abs format (unit mm)*
G04 Created by KiCad (PCBNEW 7.0.1) date 2023-12-30 18:27:54*
%MOMM*%
%LPD*%
G01*
G04 APERTURE LIST*
G04 Aperture macros list*
%AMRoundRect*
0 Rectangle with rounded corners*
0 $1 Rounding radius*
0 $2 $3 $4 $5 $6 $7 $8 $9 X,Y pos of 4 corners*
0 Add a 4 corners polygon primitive as box body*
4,1,4,$2,$3,$4,$5,$6,$7,$8,$9,$2,$3,0*
0 Add four circle primitives for the rounded corners*
1,1,$1+$1,$2,$3*
1,1,$1+$1,$4,$5*
1,1,$1+$1,$6,$7*
1,1,$1+$1,$8,$9*
0 Add four rect primitives between the rounded corners*
20,1,$1+$1,$2,$3,$4,$5,0*
20,1,$1+$1,$4,$5,$6,$7,0*
20,1,$1+$1,$6,$7,$8,$9,0*
20,1,$1+$1,$8,$9,$2,$3,0*%
%AMRotRect*
0 Rectangle, with rotation*
0 The origin of the aperture is its center*
0 $1 length*
0 $2 width*
0 $3 Rotation angle, in degrees counterclockwise*
0 Add horizontal line*
21,1,$1,$2,0,0,$3*%
G04 Aperture macros list end*
%ADD10C,0.304800*%
%ADD11RoundRect,0.140000X-0.170000X0.140000X-0.170000X-0.140000X0.170000X-0.140000X0.170000X0.140000X0*%
%ADD12RoundRect,0.140000X-0.021213X0.219203X-0.219203X0.021213X0.021213X-0.219203X0.219203X-0.021213X0*%
%ADD13RoundRect,0.140000X-0.140000X-0.170000X0.140000X-0.170000X0.140000X0.170000X-0.140000X0.170000X0*%
%ADD14RoundRect,0.140000X0.140000X0.170000X-0.140000X0.170000X-0.140000X-0.170000X0.140000X-0.170000X0*%
%ADD15RoundRect,0.140000X0.170000X-0.140000X0.170000X0.140000X-0.170000X0.140000X-0.170000X-0.140000X0*%
%ADD16RotRect,0.600000X0.800000X45.000000*%
%ADD17RoundRect,0.135000X0.135000X0.185000X-0.135000X0.185000X-0.135000X-0.185000X0.135000X-0.185000X0*%
%ADD18RoundRect,0.135000X-0.135000X-0.185000X0.135000X-0.185000X0.135000X0.185000X-0.135000X0.185000X0*%
%ADD19R,0.533400X0.304800*%
%ADD20R,0.304800X0.533400*%
%ADD21RoundRect,0.135000X0.185000X-0.135000X0.185000X0.135000X-0.185000X0.135000X-0.185000X-0.135000X0*%
%ADD22RoundRect,0.140000X0.219203X0.021213X0.021213X0.219203X-0.219203X-0.021213X-0.021213X-0.219203X0*%
%ADD23R,0.500000X1.000000*%
%ADD24R,0.720000X0.780000*%
%ADD25R,1.050000X1.080000*%
%ADD26R,1.050000X1.105000*%
%ADD27R,1.050000X1.200000*%
%ADD28R,1.050000X2.390000*%
%ADD29R,2.910000X0.550000*%
%ADD30R,0.550000X1.600000*%
%ADD31R,0.900000X0.220000*%
%ADD32R,0.850000X0.220000*%
%ADD33R,0.220000X0.550000*%
G04 APERTURE END LIST*
%TO.C,MIC1801*%
D10*
X165652400Y-90299800D02*
G75*
G03*
X165652400Y-90299800I-152400J0D01*
G01*
%TD*%
D11*
%TO.C,C909*%
X152600000Y-93120000D03*
X152600000Y-94080000D03*
%TD*%
D12*
%TO.C,C308*%
X142739411Y-81560589D03*
X142060589Y-82239411D03*
%TD*%
D13*
%TO.C,C206*%
X161320000Y-88900000D03*
X162280000Y-88900000D03*
%TD*%
D14*
%TO.C,C1403*%
X152580000Y-112100000D03*
X151620000Y-112100000D03*
%TD*%
%TO.C,C906*%
X155880000Y-91000000D03*
X154920000Y-91000000D03*
%TD*%
D13*
%TO.C,C310*%
X144120000Y-88600000D03*
X145080000Y-88600000D03*
%TD*%
D15*
%TO.C,C921*%
X149600000Y-97470000D03*
X149600000Y-96510000D03*
%TD*%
D14*
%TO.C,C922*%
X155880000Y-90000000D03*
X154920000Y-90000000D03*
%TD*%
D11*
%TO.C,C403*%
X148000000Y-105920000D03*
X148000000Y-106880000D03*
%TD*%
D15*
%TO.C,C1003*%
X153800000Y-80680000D03*
X153800000Y-79720000D03*
%TD*%
D13*
%TO.C,C912*%
X150120000Y-91700000D03*
X151080000Y-91700000D03*
%TD*%
D11*
%TO.C,C1304*%
X157000000Y-110650000D03*
X157000000Y-111610000D03*
%TD*%
D15*
%TO.C,C908*%
X151600000Y-97480000D03*
X151600000Y-96520000D03*
%TD*%
D11*
%TO.C,C1005*%
X149800000Y-80220000D03*
X149800000Y-81180000D03*
%TD*%
D16*
%TO.C,L301*%
X142917157Y-86582843D03*
X143482843Y-86017157D03*
%TD*%
D17*
%TO.C,R809*%
X153510000Y-106500000D03*
X152490000Y-106500000D03*
%TD*%
D15*
%TO.C,C903*%
X154100000Y-97460000D03*
X154100000Y-96500000D03*
%TD*%
%TO.C,C910*%
X152600000Y-97480000D03*
X152600000Y-96520000D03*
%TD*%
%TO.C,C203*%
X160700000Y-84780000D03*
X160700000Y-83820000D03*
%TD*%
D18*
%TO.C,R806*%
X154690000Y-85900000D03*
X155710000Y-85900000D03*
%TD*%
%TO.C,R805*%
X154690000Y-84900000D03*
X155710000Y-84900000D03*
%TD*%
D11*
%TO.C,C911*%
X148600000Y-93140000D03*
X148600000Y-94100000D03*
%TD*%
%TO.C,C307*%
X141700000Y-89320000D03*
X141700000Y-90280000D03*
%TD*%
D19*
%TO.C,U1301*%
X160330300Y-109149811D03*
X160330300Y-109649937D03*
X160330300Y-110150063D03*
X160330300Y-110650189D03*
D20*
X159700126Y-110789000D03*
X159200000Y-110789000D03*
X158699874Y-110789000D03*
D19*
X158069700Y-110650189D03*
X158069700Y-110150063D03*
X158069700Y-109649937D03*
X158069700Y-109149811D03*
D20*
X158699874Y-109011000D03*
X159200000Y-109011000D03*
X159700126Y-109011000D03*
%TD*%
D17*
%TO.C,R808*%
X166410000Y-94300000D03*
X165390000Y-94300000D03*
%TD*%
D13*
%TO.C,C917*%
X148420000Y-95300000D03*
X149380000Y-95300000D03*
%TD*%
D14*
%TO.C,C904*%
X152780000Y-95300000D03*
X151820000Y-95300000D03*
%TD*%
D12*
%TO.C,C303*%
X143419311Y-82294903D03*
X142740489Y-82973725D03*
%TD*%
D21*
%TO.C,R401*%
X138500000Y-106510000D03*
X138500000Y-105490000D03*
%TD*%
D11*
%TO.C,C905*%
X154100000Y-94100000D03*
X154100000Y-95060000D03*
%TD*%
%TO.C,C1102*%
X149100000Y-105920000D03*
X149100000Y-106880000D03*
%TD*%
D14*
%TO.C,C919*%
X147160000Y-94900000D03*
X146200000Y-94900000D03*
%TD*%
D11*
%TO.C,C901*%
X151000000Y-98740000D03*
X151000000Y-99700000D03*
%TD*%
D14*
%TO.C,C1302*%
X159680000Y-111900000D03*
X158720000Y-111900000D03*
%TD*%
%TO.C,C915*%
X147160000Y-93900000D03*
X146200000Y-93900000D03*
%TD*%
D11*
%TO.C,C920*%
X149800000Y-98720000D03*
X149800000Y-99680000D03*
%TD*%
D15*
%TO.C,C918*%
X148600000Y-97480000D03*
X148600000Y-96520000D03*
%TD*%
%TO.C,C1002*%
X154800000Y-80680000D03*
X154800000Y-79720000D03*
%TD*%
D12*
%TO.C,C309*%
X144139411Y-82960589D03*
X143460589Y-83639411D03*
%TD*%
D17*
%TO.C,R807*%
X166410000Y-95900000D03*
X165390000Y-95900000D03*
%TD*%
D11*
%TO.C,C902*%
X150600000Y-93120000D03*
X150600000Y-94080000D03*
%TD*%
D14*
%TO.C,C1402*%
X152580000Y-113100000D03*
X151620000Y-113100000D03*
%TD*%
%TO.C,C916*%
X149200000Y-91700000D03*
X148240000Y-91700000D03*
%TD*%
D13*
%TO.C,C305*%
X145320000Y-86500000D03*
X146280000Y-86500000D03*
%TD*%
D11*
%TO.C,C1001*%
X148400000Y-80220000D03*
X148400000Y-81180000D03*
%TD*%
D18*
%TO.C,R802*%
X154690000Y-86900000D03*
X155710000Y-86900000D03*
%TD*%
D22*
%TO.C,C311*%
X139449461Y-87922254D03*
X138770639Y-87243432D03*
%TD*%
D15*
%TO.C,C201*%
X161900000Y-84780000D03*
X161900000Y-83820000D03*
%TD*%
D17*
%TO.C,R810*%
X153510000Y-105500000D03*
X152490000Y-105500000D03*
%TD*%
D23*
%TO.C,J1101*%
X163550000Y-99100000D03*
X162450000Y-99100000D03*
X161350000Y-99100000D03*
X160250000Y-99100000D03*
X159150000Y-99100000D03*
X158050000Y-99100000D03*
X156950000Y-99100000D03*
X155850000Y-99100000D03*
D24*
X165310000Y-101780000D03*
D25*
X165325000Y-103050000D03*
D26*
X165325000Y-105612500D03*
D27*
X154675000Y-105090000D03*
D28*
X154675000Y-101905000D03*
D29*
X161986000Y-106335000D03*
X157796000Y-106335000D03*
%TD*%
D12*
%TO.C,C301*%
X144839411Y-83660589D03*
X144160589Y-84339411D03*
%TD*%
D30*
%TO.C,L901*%
X156875000Y-89300000D03*
X158325000Y-89300000D03*
%TD*%
D15*
%TO.C,C907*%
X150600000Y-97480000D03*
X150600000Y-96520000D03*
%TD*%
D16*
%TO.C,L302*%
X141617157Y-87882843D03*
X142182843Y-87317157D03*
%TD*%
D18*
%TO.C,R801*%
X154690000Y-87900000D03*
X155710000Y-87900000D03*
%TD*%
D11*
%TO.C,C914*%
X151600000Y-93120000D03*
X151600000Y-94080000D03*
%TD*%
D13*
%TO.C,C302*%
X145320000Y-87500000D03*
X146280000Y-87500000D03*
%TD*%
D15*
%TO.C,C205*%
X159500000Y-84780000D03*
X159500000Y-83820000D03*
%TD*%
D11*
%TO.C,C913*%
X149600000Y-93120000D03*
X149600000Y-94080000D03*
%TD*%
D14*
%TO.C,C208*%
X160280000Y-88900000D03*
X159320000Y-88900000D03*
%TD*%
%TO.C,C1004*%
X151580000Y-83700000D03*
X150620000Y-83700000D03*
%TD*%
D12*
%TO.C,C312*%
X145529361Y-84377746D03*
X144850539Y-85056568D03*
%TD*%
D31*
%TO.C,IC1101*%
X148900000Y-104300000D03*
D32*
X148875000Y-103900000D03*
X148875000Y-103500000D03*
X148875000Y-103100000D03*
D33*
X148900000Y-102525000D03*
X149300000Y-102525000D03*
X149700000Y-102525000D03*
X150100000Y-102525000D03*
D32*
X150125000Y-103100000D03*
X150125000Y-103500000D03*
X150125000Y-103900000D03*
X150125000Y-104300000D03*
D33*
X150100000Y-104875000D03*
X149700000Y-104875000D03*
X149300000Y-104875000D03*
X148900000Y-104875000D03*
%TD*%
M02*
