%TF.GenerationSoftware,KiCad,Pcbnew,7.0.1*%
%TF.CreationDate,2023-12-30T02:23:54+00:00*%
%TF.ProjectId,watch_main,77617463-685f-46d6-9169-6e2e6b696361,rev?*%
%TF.SameCoordinates,Original*%
%TF.FileFunction,Drillmap*%
%TF.FilePolarity,Positive*%
%FSLAX45Y45*%
G04 Gerber Fmt 4.5, Leading zero omitted, Abs format (unit mm)*
G04 Created by KiCad (PCBNEW 7.0.1) date 2023-12-30 02:23:54*
%MOMM*%
%LPD*%
G01*
G04 APERTURE LIST*
%ADD10C,0.200000*%
%ADD11C,0.020000*%
%ADD12C,0.030500*%
G04 APERTURE END LIST*
D10*
D11*
X13250000Y-10540000D02*
X13270000Y-10560000D01*
X13270000Y-10540000D02*
X13250000Y-10560000D01*
X13261300Y-9820000D02*
X13281300Y-9840000D01*
X13281300Y-9820000D02*
X13261300Y-9840000D01*
X13261300Y-9920000D02*
X13281300Y-9940000D01*
X13281300Y-9920000D02*
X13261300Y-9940000D01*
X13261300Y-10020000D02*
X13281300Y-10040000D01*
X13281300Y-10020000D02*
X13261300Y-10040000D01*
X13261300Y-10120000D02*
X13281300Y-10140000D01*
X13281300Y-10120000D02*
X13261300Y-10140000D01*
X13261300Y-10220000D02*
X13281300Y-10240000D01*
X13281300Y-10220000D02*
X13261300Y-10240000D01*
X13280000Y-10650000D02*
X13300000Y-10670000D01*
X13300000Y-10650000D02*
X13280000Y-10670000D01*
X13287500Y-8807500D02*
X13307500Y-8827500D01*
X13307500Y-8807500D02*
X13287500Y-8827500D01*
X13290000Y-10720000D02*
X13310000Y-10740000D01*
X13310000Y-10720000D02*
X13290000Y-10740000D01*
X13300000Y-10590000D02*
X13320000Y-10610000D01*
X13320000Y-10590000D02*
X13300000Y-10610000D01*
X13310000Y-10770000D02*
X13330000Y-10790000D01*
X13330000Y-10770000D02*
X13310000Y-10790000D01*
X13320000Y-10820000D02*
X13340000Y-10840000D01*
X13340000Y-10820000D02*
X13320000Y-10840000D01*
X13340000Y-8640000D02*
X13360000Y-8660000D01*
X13360000Y-8640000D02*
X13340000Y-8660000D01*
X13340000Y-8750000D02*
X13360000Y-8770000D01*
X13360000Y-8750000D02*
X13340000Y-8770000D01*
X13340000Y-8970000D02*
X13360000Y-8990000D01*
X13360000Y-8970000D02*
X13340000Y-8990000D01*
X13340000Y-10370000D02*
X13360000Y-10390000D01*
X13360000Y-10370000D02*
X13340000Y-10390000D01*
X13390000Y-8560000D02*
X13410000Y-8580000D01*
X13410000Y-8560000D02*
X13390000Y-8580000D01*
X13390000Y-8690000D02*
X13410000Y-8710000D01*
X13410000Y-8690000D02*
X13390000Y-8710000D01*
X13390000Y-8805000D02*
X13410000Y-8825000D01*
X13410000Y-8805000D02*
X13390000Y-8825000D01*
X13390000Y-8915000D02*
X13410000Y-8935000D01*
X13410000Y-8915000D02*
X13390000Y-8935000D01*
X13390000Y-10420000D02*
X13410000Y-10440000D01*
X13410000Y-10420000D02*
X13390000Y-10440000D01*
X13420000Y-10900000D02*
X13440000Y-10920000D01*
X13440000Y-10900000D02*
X13420000Y-10920000D01*
X13430000Y-10470000D02*
X13450000Y-10490000D01*
X13450000Y-10470000D02*
X13430000Y-10490000D01*
X13430000Y-10540000D02*
X13450000Y-10560000D01*
X13450000Y-10540000D02*
X13430000Y-10560000D01*
X13430000Y-10610000D02*
X13450000Y-10630000D01*
X13450000Y-10610000D02*
X13430000Y-10630000D01*
X13440000Y-8500000D02*
X13460000Y-8520000D01*
X13460000Y-8500000D02*
X13440000Y-8520000D01*
X13440000Y-8630000D02*
X13460000Y-8650000D01*
X13460000Y-8630000D02*
X13440000Y-8650000D01*
X13440000Y-8750000D02*
X13460000Y-8770000D01*
X13460000Y-8750000D02*
X13440000Y-8770000D01*
X13440000Y-8970000D02*
X13460000Y-8990000D01*
X13460000Y-8970000D02*
X13440000Y-8990000D01*
X13440000Y-10370000D02*
X13460000Y-10390000D01*
X13460000Y-10370000D02*
X13440000Y-10390000D01*
X13460000Y-10680000D02*
X13480000Y-10700000D01*
X13480000Y-10680000D02*
X13460000Y-10700000D01*
X13460000Y-10750000D02*
X13480000Y-10770000D01*
X13480000Y-10750000D02*
X13460000Y-10770000D01*
X13460000Y-11030000D02*
X13480000Y-11050000D01*
X13480000Y-11030000D02*
X13460000Y-11050000D01*
X13470000Y-10920000D02*
X13490000Y-10940000D01*
X13490000Y-10920000D02*
X13470000Y-10940000D01*
X13490000Y-8570000D02*
X13510000Y-8590000D01*
X13510000Y-8570000D02*
X13490000Y-8590000D01*
X13490000Y-8690000D02*
X13510000Y-8710000D01*
X13510000Y-8690000D02*
X13490000Y-8710000D01*
X13490000Y-8807500D02*
X13510000Y-8827500D01*
X13510000Y-8807500D02*
X13490000Y-8827500D01*
X13490000Y-8912500D02*
X13510000Y-8932500D01*
X13510000Y-8912500D02*
X13490000Y-8932500D01*
X13490000Y-10420000D02*
X13510000Y-10440000D01*
X13510000Y-10420000D02*
X13490000Y-10440000D01*
X13540000Y-8630000D02*
X13560000Y-8650000D01*
X13560000Y-8630000D02*
X13540000Y-8650000D01*
X13540000Y-8750000D02*
X13560000Y-8770000D01*
X13560000Y-8750000D02*
X13540000Y-8770000D01*
X13540000Y-8970000D02*
X13560000Y-8990000D01*
X13560000Y-8970000D02*
X13540000Y-8990000D01*
X13540000Y-10370000D02*
X13560000Y-10390000D01*
X13560000Y-10370000D02*
X13540000Y-10390000D01*
X13540000Y-11130000D02*
X13560000Y-11150000D01*
X13560000Y-11130000D02*
X13540000Y-11150000D01*
X13550000Y-8430000D02*
X13570000Y-8450000D01*
X13570000Y-8430000D02*
X13550000Y-8450000D01*
X13570000Y-10640000D02*
X13590000Y-10660000D01*
X13590000Y-10640000D02*
X13570000Y-10660000D01*
X13570000Y-10710000D02*
X13590000Y-10730000D01*
X13590000Y-10710000D02*
X13570000Y-10730000D01*
X13570000Y-10780000D02*
X13590000Y-10800000D01*
X13590000Y-10780000D02*
X13570000Y-10800000D01*
X13570000Y-11180000D02*
X13590000Y-11200000D01*
X13590000Y-11180000D02*
X13570000Y-11200000D01*
X13580000Y-10560000D02*
X13600000Y-10580000D01*
X13600000Y-10560000D02*
X13580000Y-10580000D01*
X13582500Y-10417500D02*
X13602500Y-10437500D01*
X13602500Y-10417500D02*
X13582500Y-10437500D01*
X13590000Y-8690000D02*
X13610000Y-8710000D01*
X13610000Y-8690000D02*
X13590000Y-8710000D01*
X13590000Y-8805000D02*
X13610000Y-8825000D01*
X13610000Y-8805000D02*
X13590000Y-8825000D01*
X13590000Y-8915000D02*
X13610000Y-8935000D01*
X13610000Y-8915000D02*
X13590000Y-8935000D01*
X13610000Y-8400000D02*
X13630000Y-8420000D01*
X13630000Y-8400000D02*
X13610000Y-8420000D01*
X13610000Y-8620000D02*
X13630000Y-8640000D01*
X13630000Y-8620000D02*
X13610000Y-8640000D01*
X13620000Y-8530000D02*
X13640000Y-8550000D01*
X13640000Y-8530000D02*
X13620000Y-8550000D01*
X13640000Y-8310000D02*
X13660000Y-8330000D01*
X13660000Y-8310000D02*
X13640000Y-8330000D01*
X13640000Y-8750000D02*
X13660000Y-8770000D01*
X13660000Y-8750000D02*
X13640000Y-8770000D01*
X13640000Y-8970000D02*
X13660000Y-8990000D01*
X13660000Y-8970000D02*
X13640000Y-8990000D01*
X13640000Y-10370000D02*
X13660000Y-10390000D01*
X13660000Y-10370000D02*
X13640000Y-10390000D01*
X13650000Y-8370000D02*
X13670000Y-8390000D01*
X13670000Y-8370000D02*
X13650000Y-8390000D01*
X13650000Y-8580000D02*
X13670000Y-8600000D01*
X13670000Y-8580000D02*
X13650000Y-8600000D01*
X13670000Y-8680000D02*
X13690000Y-8700000D01*
X13690000Y-8680000D02*
X13670000Y-8700000D01*
X13690000Y-8630000D02*
X13710000Y-8650000D01*
X13710000Y-8630000D02*
X13690000Y-8650000D01*
X13690000Y-10600000D02*
X13710000Y-10620000D01*
X13710000Y-10600000D02*
X13690000Y-10620000D01*
X13690663Y-8912767D02*
X13710663Y-8932767D01*
X13710663Y-8912767D02*
X13690663Y-8932767D01*
X13692500Y-8810000D02*
X13712500Y-8830000D01*
X13712500Y-8810000D02*
X13692500Y-8830000D01*
X13695000Y-8285000D02*
X13715000Y-8305000D01*
X13715000Y-8285000D02*
X13695000Y-8305000D01*
X13710000Y-8740000D02*
X13730000Y-8760000D01*
X13730000Y-8740000D02*
X13710000Y-8760000D01*
X13720000Y-8670000D02*
X13740000Y-8690000D01*
X13740000Y-8670000D02*
X13720000Y-8690000D01*
X13740000Y-8250000D02*
X13760000Y-8270000D01*
X13760000Y-8250000D02*
X13740000Y-8270000D01*
X13740000Y-8970000D02*
X13760000Y-8990000D01*
X13760000Y-8970000D02*
X13740000Y-8990000D01*
X13740000Y-10370000D02*
X13760000Y-10390000D01*
X13760000Y-10370000D02*
X13740000Y-10390000D01*
X13760000Y-8710000D02*
X13780000Y-8730000D01*
X13780000Y-8710000D02*
X13760000Y-8730000D01*
X13770000Y-8912500D02*
X13790000Y-8932500D01*
X13790000Y-8912500D02*
X13770000Y-8932500D01*
X13777500Y-8800000D02*
X13797500Y-8820000D01*
X13797500Y-8800000D02*
X13777500Y-8820000D01*
X13780000Y-8210000D02*
X13800000Y-8230000D01*
X13800000Y-8210000D02*
X13780000Y-8230000D01*
X13797500Y-10420000D02*
X13817500Y-10440000D01*
X13817500Y-10420000D02*
X13797500Y-10440000D01*
X13818000Y-8759000D02*
X13838000Y-8779000D01*
X13838000Y-8759000D02*
X13818000Y-8779000D01*
X13820000Y-8150000D02*
X13840000Y-8170000D01*
X13840000Y-8150000D02*
X13820000Y-8170000D01*
X13840000Y-8970000D02*
X13860000Y-8990000D01*
X13860000Y-8970000D02*
X13840000Y-8990000D01*
X13840000Y-9070000D02*
X13860000Y-9090000D01*
X13860000Y-9070000D02*
X13840000Y-9090000D01*
X13840000Y-9170000D02*
X13860000Y-9190000D01*
X13860000Y-9170000D02*
X13840000Y-9190000D01*
X13840000Y-9270000D02*
X13860000Y-9290000D01*
X13860000Y-9270000D02*
X13840000Y-9290000D01*
X13840000Y-9370000D02*
X13860000Y-9390000D01*
X13860000Y-9370000D02*
X13840000Y-9390000D01*
X13840000Y-9470000D02*
X13860000Y-9490000D01*
X13860000Y-9470000D02*
X13840000Y-9490000D01*
X13840000Y-9570000D02*
X13860000Y-9590000D01*
X13860000Y-9570000D02*
X13840000Y-9590000D01*
X13840000Y-9670000D02*
X13860000Y-9690000D01*
X13860000Y-9670000D02*
X13840000Y-9690000D01*
X13840000Y-9770000D02*
X13860000Y-9790000D01*
X13860000Y-9770000D02*
X13840000Y-9790000D01*
X13840000Y-9870000D02*
X13860000Y-9890000D01*
X13860000Y-9870000D02*
X13840000Y-9890000D01*
X13840000Y-9970000D02*
X13860000Y-9990000D01*
X13860000Y-9970000D02*
X13840000Y-9990000D01*
X13840000Y-10070000D02*
X13860000Y-10090000D01*
X13860000Y-10070000D02*
X13840000Y-10090000D01*
X13840000Y-10170000D02*
X13860000Y-10190000D01*
X13860000Y-10170000D02*
X13840000Y-10190000D01*
X13840000Y-10270000D02*
X13860000Y-10290000D01*
X13860000Y-10270000D02*
X13840000Y-10290000D01*
X13840000Y-10370000D02*
X13860000Y-10390000D01*
X13860000Y-10370000D02*
X13840000Y-10390000D01*
X13840000Y-10710000D02*
X13860000Y-10730000D01*
X13860000Y-10710000D02*
X13840000Y-10730000D01*
X13890000Y-8920000D02*
X13910000Y-8940000D01*
X13910000Y-8920000D02*
X13890000Y-8940000D01*
X13890000Y-9020000D02*
X13910000Y-9040000D01*
X13910000Y-9020000D02*
X13890000Y-9040000D01*
X13890000Y-9120000D02*
X13910000Y-9140000D01*
X13910000Y-9120000D02*
X13890000Y-9140000D01*
X13890000Y-9220000D02*
X13910000Y-9240000D01*
X13910000Y-9220000D02*
X13890000Y-9240000D01*
X13890000Y-9320000D02*
X13910000Y-9340000D01*
X13910000Y-9320000D02*
X13890000Y-9340000D01*
X13890000Y-9420000D02*
X13910000Y-9440000D01*
X13910000Y-9420000D02*
X13890000Y-9440000D01*
X13890000Y-9520000D02*
X13910000Y-9540000D01*
X13910000Y-9520000D02*
X13890000Y-9540000D01*
X13890000Y-9620000D02*
X13910000Y-9640000D01*
X13910000Y-9620000D02*
X13890000Y-9640000D01*
X13890000Y-9720000D02*
X13910000Y-9740000D01*
X13910000Y-9720000D02*
X13890000Y-9740000D01*
X13890000Y-9820000D02*
X13910000Y-9840000D01*
X13910000Y-9820000D02*
X13890000Y-9840000D01*
X13890000Y-9920000D02*
X13910000Y-9940000D01*
X13910000Y-9920000D02*
X13890000Y-9940000D01*
X13890000Y-10020000D02*
X13910000Y-10040000D01*
X13910000Y-10020000D02*
X13890000Y-10040000D01*
X13890000Y-10120000D02*
X13910000Y-10140000D01*
X13910000Y-10120000D02*
X13890000Y-10140000D01*
X13890000Y-10220000D02*
X13910000Y-10240000D01*
X13910000Y-10220000D02*
X13890000Y-10240000D01*
X13890000Y-10320000D02*
X13910000Y-10340000D01*
X13910000Y-10320000D02*
X13890000Y-10340000D01*
X13890000Y-10420000D02*
X13910000Y-10440000D01*
X13910000Y-10420000D02*
X13890000Y-10440000D01*
X13892500Y-8855000D02*
X13912500Y-8875000D01*
X13912500Y-8855000D02*
X13892500Y-8875000D01*
X13900000Y-8070000D02*
X13920000Y-8090000D01*
X13920000Y-8070000D02*
X13900000Y-8090000D01*
X13920000Y-10870000D02*
X13940000Y-10890000D01*
X13940000Y-10870000D02*
X13920000Y-10890000D01*
X13920000Y-11020000D02*
X13940000Y-11040000D01*
X13940000Y-11020000D02*
X13920000Y-11040000D01*
X13920000Y-11170000D02*
X13940000Y-11190000D01*
X13940000Y-11170000D02*
X13920000Y-11190000D01*
X13920000Y-11330000D02*
X13940000Y-11350000D01*
X13940000Y-11330000D02*
X13920000Y-11350000D01*
X13940000Y-8880000D02*
X13960000Y-8900000D01*
X13960000Y-8880000D02*
X13940000Y-8900000D01*
X13940000Y-8970000D02*
X13960000Y-8990000D01*
X13960000Y-8970000D02*
X13940000Y-8990000D01*
X13940000Y-9070000D02*
X13960000Y-9090000D01*
X13960000Y-9070000D02*
X13940000Y-9090000D01*
X13940000Y-9170000D02*
X13960000Y-9190000D01*
X13960000Y-9170000D02*
X13940000Y-9190000D01*
X13940000Y-9270000D02*
X13960000Y-9290000D01*
X13960000Y-9270000D02*
X13940000Y-9290000D01*
X13940000Y-9370000D02*
X13960000Y-9390000D01*
X13960000Y-9370000D02*
X13940000Y-9390000D01*
X13940000Y-9470000D02*
X13960000Y-9490000D01*
X13960000Y-9470000D02*
X13940000Y-9490000D01*
X13940000Y-9570000D02*
X13960000Y-9590000D01*
X13960000Y-9570000D02*
X13940000Y-9590000D01*
X13940000Y-9670000D02*
X13960000Y-9690000D01*
X13960000Y-9670000D02*
X13940000Y-9690000D01*
X13940000Y-9770000D02*
X13960000Y-9790000D01*
X13960000Y-9770000D02*
X13940000Y-9790000D01*
X13940000Y-9870000D02*
X13960000Y-9890000D01*
X13960000Y-9870000D02*
X13940000Y-9890000D01*
X13940000Y-9970000D02*
X13960000Y-9990000D01*
X13960000Y-9970000D02*
X13940000Y-9990000D01*
X13940000Y-10070000D02*
X13960000Y-10090000D01*
X13960000Y-10070000D02*
X13940000Y-10090000D01*
X13940000Y-10170000D02*
X13960000Y-10190000D01*
X13960000Y-10170000D02*
X13940000Y-10190000D01*
X13940000Y-10270000D02*
X13960000Y-10290000D01*
X13960000Y-10270000D02*
X13940000Y-10290000D01*
X13940000Y-10370000D02*
X13960000Y-10390000D01*
X13960000Y-10370000D02*
X13940000Y-10390000D01*
X13960000Y-10510000D02*
X13980000Y-10530000D01*
X13980000Y-10510000D02*
X13960000Y-10530000D01*
X13960000Y-10690000D02*
X13980000Y-10710000D01*
X13980000Y-10690000D02*
X13960000Y-10710000D01*
X13970000Y-8920000D02*
X13990000Y-8940000D01*
X13990000Y-8920000D02*
X13970000Y-8940000D01*
X13980000Y-8000000D02*
X14000000Y-8020000D01*
X14000000Y-8000000D02*
X13980000Y-8020000D01*
X13980000Y-11420000D02*
X14000000Y-11440000D01*
X14000000Y-11420000D02*
X13980000Y-11440000D01*
X14030000Y-11410000D02*
X14050000Y-11430000D01*
X14050000Y-11410000D02*
X14030000Y-11430000D01*
X14060000Y-8980000D02*
X14080000Y-9000000D01*
X14080000Y-8980000D02*
X14060000Y-9000000D01*
X14150000Y-8020000D02*
X14170000Y-8040000D01*
X14170000Y-8020000D02*
X14150000Y-8040000D01*
X14220000Y-8010000D02*
X14240000Y-8030000D01*
X14240000Y-8010000D02*
X14220000Y-8030000D01*
X14220000Y-8090000D02*
X14240000Y-8110000D01*
X14240000Y-8090000D02*
X14220000Y-8110000D01*
X14220000Y-9360000D02*
X14240000Y-9380000D01*
X14240000Y-9360000D02*
X14220000Y-9380000D01*
X14220000Y-9480000D02*
X14240000Y-9500000D01*
X14240000Y-9480000D02*
X14220000Y-9500000D01*
X14240000Y-11600000D02*
X14260000Y-11620000D01*
X14260000Y-11600000D02*
X14240000Y-11620000D01*
X14250000Y-8960000D02*
X14270000Y-8980000D01*
X14270000Y-8960000D02*
X14250000Y-8980000D01*
X14260000Y-11650000D02*
X14280000Y-11670000D01*
X14280000Y-11650000D02*
X14260000Y-11670000D01*
X14270000Y-8900000D02*
X14290000Y-8920000D01*
X14290000Y-8900000D02*
X14270000Y-8920000D01*
X14280000Y-9320000D02*
X14300000Y-9340000D01*
X14300000Y-9320000D02*
X14280000Y-9340000D01*
X14290000Y-8760000D02*
X14310000Y-8780000D01*
X14310000Y-8760000D02*
X14290000Y-8780000D01*
X14310000Y-9050000D02*
X14330000Y-9070000D01*
X14330000Y-9050000D02*
X14310000Y-9070000D01*
X14310000Y-9190000D02*
X14330000Y-9210000D01*
X14330000Y-9190000D02*
X14310000Y-9210000D01*
X14310000Y-9280000D02*
X14330000Y-9300000D01*
X14330000Y-9280000D02*
X14310000Y-9300000D01*
X14320000Y-8100000D02*
X14340000Y-8120000D01*
X14340000Y-8100000D02*
X14320000Y-8120000D01*
X14320000Y-8810000D02*
X14340000Y-8830000D01*
X14340000Y-8810000D02*
X14320000Y-8830000D01*
X14340000Y-9095000D02*
X14360000Y-9115000D01*
X14360000Y-9095000D02*
X14340000Y-9115000D01*
X14340000Y-9145000D02*
X14360000Y-9165000D01*
X14360000Y-9145000D02*
X14340000Y-9165000D01*
X14350000Y-8750000D02*
X14370000Y-8770000D01*
X14370000Y-8750000D02*
X14350000Y-8770000D01*
X14360000Y-9300000D02*
X14380000Y-9320000D01*
X14380000Y-9300000D02*
X14360000Y-9320000D01*
X14370000Y-9050000D02*
X14390000Y-9070000D01*
X14390000Y-9050000D02*
X14370000Y-9070000D01*
X14370000Y-9190000D02*
X14390000Y-9210000D01*
X14390000Y-9190000D02*
X14370000Y-9210000D01*
X14380000Y-9250000D02*
X14400000Y-9270000D01*
X14400000Y-9250000D02*
X14380000Y-9270000D01*
X14390000Y-7890000D02*
X14410000Y-7910000D01*
X14410000Y-7890000D02*
X14390000Y-7910000D01*
X14415000Y-9525000D02*
X14435000Y-9545000D01*
X14435000Y-9525000D02*
X14415000Y-9545000D01*
X14420000Y-8650000D02*
X14440000Y-8670000D01*
X14440000Y-8650000D02*
X14420000Y-8670000D01*
X14420000Y-9430000D02*
X14440000Y-9450000D01*
X14440000Y-9430000D02*
X14420000Y-9450000D01*
X14420000Y-9640000D02*
X14440000Y-9660000D01*
X14440000Y-9640000D02*
X14420000Y-9660000D01*
X14420000Y-9690000D02*
X14440000Y-9710000D01*
X14440000Y-9690000D02*
X14420000Y-9710000D01*
X14420000Y-10080000D02*
X14440000Y-10100000D01*
X14440000Y-10080000D02*
X14420000Y-10100000D01*
X14430000Y-8200000D02*
X14450000Y-8220000D01*
X14450000Y-8200000D02*
X14430000Y-8220000D01*
X14430000Y-8580000D02*
X14450000Y-8600000D01*
X14450000Y-8580000D02*
X14430000Y-8600000D01*
X14430000Y-8920000D02*
X14450000Y-8940000D01*
X14450000Y-8920000D02*
X14430000Y-8940000D01*
X14430000Y-9040000D02*
X14450000Y-9060000D01*
X14450000Y-9040000D02*
X14430000Y-9060000D01*
X14430000Y-9372500D02*
X14450000Y-9392500D01*
X14450000Y-9372500D02*
X14430000Y-9392500D01*
X14430000Y-9590000D02*
X14450000Y-9610000D01*
X14450000Y-9590000D02*
X14430000Y-9610000D01*
X14430000Y-9840000D02*
X14450000Y-9860000D01*
X14450000Y-9840000D02*
X14430000Y-9860000D01*
X14430000Y-9920000D02*
X14450000Y-9940000D01*
X14450000Y-9920000D02*
X14430000Y-9940000D01*
X14430000Y-11220000D02*
X14450000Y-11240000D01*
X14450000Y-11220000D02*
X14430000Y-11240000D01*
X14450000Y-10430000D02*
X14470000Y-10450000D01*
X14470000Y-10430000D02*
X14450000Y-10450000D01*
X14450000Y-10880000D02*
X14470000Y-10900000D01*
X14470000Y-10880000D02*
X14450000Y-10900000D01*
X14490000Y-7890000D02*
X14510000Y-7910000D01*
X14510000Y-7890000D02*
X14490000Y-7910000D01*
X14490000Y-7990000D02*
X14510000Y-8010000D01*
X14510000Y-7990000D02*
X14490000Y-8010000D01*
X14500000Y-10600000D02*
X14520000Y-10620000D01*
X14520000Y-10600000D02*
X14500000Y-10620000D01*
X14500000Y-10710000D02*
X14520000Y-10730000D01*
X14520000Y-10710000D02*
X14500000Y-10730000D01*
X14500000Y-10930000D02*
X14520000Y-10950000D01*
X14520000Y-10930000D02*
X14500000Y-10950000D01*
X14500000Y-11040000D02*
X14520000Y-11060000D01*
X14520000Y-11040000D02*
X14500000Y-11060000D01*
X14500000Y-11150000D02*
X14520000Y-11170000D01*
X14520000Y-11150000D02*
X14500000Y-11170000D01*
X14520000Y-8530000D02*
X14540000Y-8550000D01*
X14540000Y-8530000D02*
X14520000Y-8550000D01*
X14530000Y-8300000D02*
X14550000Y-8320000D01*
X14550000Y-8300000D02*
X14530000Y-8320000D01*
X14570000Y-8910000D02*
X14590000Y-8930000D01*
X14590000Y-8910000D02*
X14570000Y-8930000D01*
X14590000Y-7890000D02*
X14610000Y-7910000D01*
X14610000Y-7890000D02*
X14590000Y-7910000D01*
X14590000Y-7990000D02*
X14610000Y-8010000D01*
X14610000Y-7990000D02*
X14590000Y-8010000D01*
X14590000Y-8090000D02*
X14610000Y-8110000D01*
X14610000Y-8090000D02*
X14590000Y-8110000D01*
X14590000Y-8480000D02*
X14610000Y-8500000D01*
X14610000Y-8480000D02*
X14590000Y-8500000D01*
X14590000Y-8570000D02*
X14610000Y-8590000D01*
X14610000Y-8570000D02*
X14590000Y-8590000D01*
X14590000Y-8840000D02*
X14610000Y-8860000D01*
X14610000Y-8840000D02*
X14590000Y-8860000D01*
X14610000Y-9080000D02*
X14630000Y-9100000D01*
X14630000Y-9080000D02*
X14610000Y-9100000D01*
X14610000Y-9160000D02*
X14630000Y-9180000D01*
X14630000Y-9160000D02*
X14610000Y-9180000D01*
X14610000Y-9240000D02*
X14630000Y-9260000D01*
X14630000Y-9240000D02*
X14610000Y-9260000D01*
X14610000Y-9480000D02*
X14630000Y-9500000D01*
X14630000Y-9480000D02*
X14610000Y-9500000D01*
X14610000Y-9640000D02*
X14630000Y-9660000D01*
X14630000Y-9640000D02*
X14610000Y-9660000D01*
X14610000Y-9800000D02*
X14630000Y-9820000D01*
X14630000Y-9800000D02*
X14610000Y-9820000D01*
X14610000Y-10040000D02*
X14630000Y-10060000D01*
X14630000Y-10040000D02*
X14610000Y-10060000D01*
X14640000Y-8910000D02*
X14660000Y-8930000D01*
X14660000Y-8910000D02*
X14640000Y-8930000D01*
X14640000Y-10160000D02*
X14660000Y-10180000D01*
X14660000Y-10160000D02*
X14640000Y-10180000D01*
X14660000Y-8160000D02*
X14680000Y-8180000D01*
X14680000Y-8160000D02*
X14660000Y-8180000D01*
X14680000Y-8800000D02*
X14700000Y-8820000D01*
X14700000Y-8800000D02*
X14680000Y-8820000D01*
X14690000Y-7890000D02*
X14710000Y-7910000D01*
X14710000Y-7890000D02*
X14690000Y-7910000D01*
X14690000Y-7990000D02*
X14710000Y-8010000D01*
X14710000Y-7990000D02*
X14690000Y-8010000D01*
X14690000Y-8860000D02*
X14710000Y-8880000D01*
X14710000Y-8860000D02*
X14690000Y-8880000D01*
X14690000Y-9080000D02*
X14710000Y-9100000D01*
X14710000Y-9080000D02*
X14690000Y-9100000D01*
X14690000Y-9160000D02*
X14710000Y-9180000D01*
X14710000Y-9160000D02*
X14690000Y-9180000D01*
X14690000Y-9240000D02*
X14710000Y-9260000D01*
X14710000Y-9240000D02*
X14690000Y-9260000D01*
X14690000Y-9640000D02*
X14710000Y-9660000D01*
X14710000Y-9640000D02*
X14690000Y-9660000D01*
X14690000Y-9720000D02*
X14710000Y-9740000D01*
X14710000Y-9720000D02*
X14690000Y-9740000D01*
X14720000Y-10600000D02*
X14740000Y-10620000D01*
X14740000Y-10600000D02*
X14720000Y-10620000D01*
X14720000Y-10710000D02*
X14740000Y-10730000D01*
X14740000Y-10710000D02*
X14720000Y-10730000D01*
X14730000Y-11280000D02*
X14750000Y-11300000D01*
X14750000Y-11280000D02*
X14730000Y-11300000D01*
X14740000Y-8900000D02*
X14760000Y-8920000D01*
X14760000Y-8900000D02*
X14740000Y-8920000D01*
X14740000Y-11100000D02*
X14760000Y-11120000D01*
X14760000Y-11100000D02*
X14740000Y-11120000D01*
X14740000Y-11790000D02*
X14760000Y-11810000D01*
X14760000Y-11790000D02*
X14740000Y-11810000D01*
X14750000Y-10870000D02*
X14770000Y-10890000D01*
X14770000Y-10870000D02*
X14750000Y-10890000D01*
X14770000Y-9240000D02*
X14790000Y-9260000D01*
X14790000Y-9240000D02*
X14770000Y-9260000D01*
X14770000Y-9320000D02*
X14790000Y-9340000D01*
X14790000Y-9320000D02*
X14770000Y-9340000D01*
X14770000Y-9400000D02*
X14790000Y-9420000D01*
X14790000Y-9400000D02*
X14770000Y-9420000D01*
X14770000Y-9480000D02*
X14790000Y-9500000D01*
X14790000Y-9480000D02*
X14770000Y-9500000D01*
X14770000Y-9560000D02*
X14790000Y-9580000D01*
X14790000Y-9560000D02*
X14770000Y-9580000D01*
X14770000Y-9640000D02*
X14790000Y-9660000D01*
X14790000Y-9640000D02*
X14770000Y-9660000D01*
X14770000Y-9720000D02*
X14790000Y-9740000D01*
X14790000Y-9720000D02*
X14770000Y-9740000D01*
X14770000Y-11190000D02*
X14790000Y-11210000D01*
X14790000Y-11190000D02*
X14770000Y-11210000D01*
X14780000Y-11010000D02*
X14800000Y-11030000D01*
X14800000Y-11010000D02*
X14780000Y-11030000D01*
X14790000Y-7890000D02*
X14810000Y-7910000D01*
X14810000Y-7890000D02*
X14790000Y-7910000D01*
X14810000Y-11280000D02*
X14830000Y-11300000D01*
X14830000Y-11280000D02*
X14810000Y-11300000D01*
X14810000Y-11790000D02*
X14830000Y-11810000D01*
X14830000Y-11790000D02*
X14810000Y-11810000D01*
X14820000Y-11110000D02*
X14840000Y-11130000D01*
X14840000Y-11110000D02*
X14820000Y-11130000D01*
X14830000Y-10520000D02*
X14850000Y-10540000D01*
X14850000Y-10520000D02*
X14830000Y-10540000D01*
X14850000Y-9080000D02*
X14870000Y-9100000D01*
X14870000Y-9080000D02*
X14850000Y-9100000D01*
X14850000Y-9240000D02*
X14870000Y-9260000D01*
X14870000Y-9240000D02*
X14850000Y-9260000D01*
X14850000Y-10040000D02*
X14870000Y-10060000D01*
X14870000Y-10040000D02*
X14850000Y-10060000D01*
X14852500Y-8730000D02*
X14872500Y-8750000D01*
X14872500Y-8730000D02*
X14852500Y-8750000D01*
X14860000Y-10870000D02*
X14880000Y-10890000D01*
X14880000Y-10870000D02*
X14860000Y-10890000D01*
X14890000Y-7890000D02*
X14910000Y-7910000D01*
X14910000Y-7890000D02*
X14890000Y-7910000D01*
X14900000Y-8010000D02*
X14920000Y-8030000D01*
X14920000Y-8010000D02*
X14900000Y-8030000D01*
X14900000Y-8110000D02*
X14920000Y-8130000D01*
X14920000Y-8110000D02*
X14900000Y-8130000D01*
X14900000Y-8210000D02*
X14920000Y-8230000D01*
X14920000Y-8210000D02*
X14900000Y-8230000D01*
X14905000Y-8780000D02*
X14925000Y-8800000D01*
X14925000Y-8780000D02*
X14905000Y-8800000D01*
X14907500Y-8730000D02*
X14927500Y-8750000D01*
X14927500Y-8730000D02*
X14907500Y-8750000D01*
X14920000Y-11320000D02*
X14940000Y-11340000D01*
X14940000Y-11320000D02*
X14920000Y-11340000D01*
X14930000Y-9800000D02*
X14950000Y-9820000D01*
X14950000Y-9800000D02*
X14930000Y-9820000D01*
X14950000Y-8810000D02*
X14970000Y-8830000D01*
X14970000Y-8810000D02*
X14950000Y-8830000D01*
X14950000Y-9460000D02*
X14970000Y-9480000D01*
X14970000Y-9460000D02*
X14950000Y-9480000D01*
X14950000Y-9580000D02*
X14970000Y-9600000D01*
X14970000Y-9580000D02*
X14950000Y-9600000D01*
X14960000Y-10730000D02*
X14980000Y-10750000D01*
X14980000Y-10730000D02*
X14960000Y-10750000D01*
X14970000Y-10570000D02*
X14990000Y-10590000D01*
X14990000Y-10570000D02*
X14970000Y-10590000D01*
X14990000Y-7890000D02*
X15010000Y-7910000D01*
X15010000Y-7890000D02*
X14990000Y-7910000D01*
X15000000Y-9420000D02*
X15020000Y-9440000D01*
X15020000Y-9420000D02*
X15000000Y-9440000D01*
X15000000Y-9470000D02*
X15020000Y-9490000D01*
X15020000Y-9470000D02*
X15000000Y-9490000D01*
X15000000Y-9520000D02*
X15020000Y-9540000D01*
X15020000Y-9520000D02*
X15000000Y-9540000D01*
X15000000Y-9570000D02*
X15020000Y-9590000D01*
X15020000Y-9570000D02*
X15000000Y-9590000D01*
X15000000Y-9620000D02*
X15020000Y-9640000D01*
X15020000Y-9620000D02*
X15000000Y-9640000D01*
X15000000Y-10690000D02*
X15020000Y-10710000D01*
X15020000Y-10690000D02*
X15000000Y-10710000D01*
X15010000Y-9240000D02*
X15030000Y-9260000D01*
X15030000Y-9240000D02*
X15010000Y-9260000D01*
X15010000Y-9800000D02*
X15030000Y-9820000D01*
X15030000Y-9800000D02*
X15010000Y-9820000D01*
X15040000Y-10740000D02*
X15060000Y-10760000D01*
X15060000Y-10740000D02*
X15040000Y-10760000D01*
X15045000Y-8905000D02*
X15065000Y-8925000D01*
X15065000Y-8905000D02*
X15045000Y-8925000D01*
X15050000Y-8360000D02*
X15070000Y-8380000D01*
X15070000Y-8360000D02*
X15050000Y-8380000D01*
X15050000Y-9470000D02*
X15070000Y-9490000D01*
X15070000Y-9470000D02*
X15050000Y-9490000D01*
X15050000Y-9520000D02*
X15070000Y-9540000D01*
X15070000Y-9520000D02*
X15050000Y-9540000D01*
X15050000Y-9570000D02*
X15070000Y-9590000D01*
X15070000Y-9570000D02*
X15050000Y-9590000D01*
X15052000Y-11000000D02*
X15072000Y-11020000D01*
X15072000Y-11000000D02*
X15052000Y-11020000D01*
X15060000Y-10520000D02*
X15080000Y-10540000D01*
X15080000Y-10520000D02*
X15060000Y-10540000D01*
X15060000Y-11310000D02*
X15080000Y-11330000D01*
X15080000Y-11310000D02*
X15060000Y-11330000D01*
X15080000Y-10687500D02*
X15100000Y-10707500D01*
X15100000Y-10687500D02*
X15080000Y-10707500D01*
X15090000Y-7890000D02*
X15110000Y-7910000D01*
X15110000Y-7890000D02*
X15090000Y-7910000D01*
X15090000Y-9240000D02*
X15110000Y-9260000D01*
X15110000Y-9240000D02*
X15090000Y-9260000D01*
X15090000Y-9800000D02*
X15110000Y-9820000D01*
X15110000Y-9800000D02*
X15090000Y-9820000D01*
X15090000Y-10040000D02*
X15110000Y-10060000D01*
X15110000Y-10040000D02*
X15090000Y-10060000D01*
X15090000Y-10847500D02*
X15110000Y-10867500D01*
X15110000Y-10847500D02*
X15090000Y-10867500D01*
X15100000Y-8010000D02*
X15120000Y-8030000D01*
X15120000Y-8010000D02*
X15100000Y-8030000D01*
X15100000Y-8110000D02*
X15120000Y-8130000D01*
X15120000Y-8110000D02*
X15100000Y-8130000D01*
X15100000Y-8210000D02*
X15120000Y-8230000D01*
X15120000Y-8210000D02*
X15100000Y-8230000D01*
X15100000Y-9420000D02*
X15120000Y-9440000D01*
X15120000Y-9420000D02*
X15100000Y-9440000D01*
X15100000Y-9470000D02*
X15120000Y-9490000D01*
X15120000Y-9470000D02*
X15100000Y-9490000D01*
X15100000Y-9520000D02*
X15120000Y-9540000D01*
X15120000Y-9520000D02*
X15100000Y-9540000D01*
X15100000Y-9570000D02*
X15120000Y-9590000D01*
X15120000Y-9570000D02*
X15100000Y-9590000D01*
X15100000Y-9620000D02*
X15120000Y-9640000D01*
X15120000Y-9620000D02*
X15100000Y-9640000D01*
X15100000Y-11280000D02*
X15120000Y-11300000D01*
X15120000Y-11280000D02*
X15100000Y-11300000D01*
X15110000Y-10740000D02*
X15130000Y-10760000D01*
X15130000Y-10740000D02*
X15110000Y-10760000D01*
X15120000Y-10530000D02*
X15140000Y-10550000D01*
X15140000Y-10530000D02*
X15120000Y-10550000D01*
X15130000Y-8910000D02*
X15150000Y-8930000D01*
X15150000Y-8910000D02*
X15130000Y-8930000D01*
X15140000Y-11790000D02*
X15160000Y-11810000D01*
X15160000Y-11790000D02*
X15140000Y-11810000D01*
X15150000Y-8360000D02*
X15170000Y-8380000D01*
X15170000Y-8360000D02*
X15150000Y-8380000D01*
X15150000Y-9460000D02*
X15170000Y-9480000D01*
X15170000Y-9460000D02*
X15150000Y-9480000D01*
X15150000Y-9580000D02*
X15170000Y-9600000D01*
X15170000Y-9580000D02*
X15150000Y-9600000D01*
X15150000Y-10690000D02*
X15170000Y-10710000D01*
X15170000Y-10690000D02*
X15150000Y-10710000D01*
X15150000Y-10860000D02*
X15170000Y-10880000D01*
X15170000Y-10860000D02*
X15150000Y-10880000D01*
X15160000Y-11000000D02*
X15180000Y-11020000D01*
X15180000Y-11000000D02*
X15160000Y-11020000D01*
X15170000Y-9160000D02*
X15190000Y-9180000D01*
X15190000Y-9160000D02*
X15170000Y-9180000D01*
X15170000Y-9240000D02*
X15190000Y-9260000D01*
X15190000Y-9240000D02*
X15170000Y-9260000D01*
X15170000Y-9800000D02*
X15190000Y-9820000D01*
X15190000Y-9800000D02*
X15170000Y-9820000D01*
X15170000Y-10570000D02*
X15190000Y-10590000D01*
X15190000Y-10570000D02*
X15170000Y-10590000D01*
X15190000Y-7890000D02*
X15210000Y-7910000D01*
X15210000Y-7890000D02*
X15190000Y-7910000D01*
X15200000Y-8110000D02*
X15220000Y-8130000D01*
X15220000Y-8110000D02*
X15200000Y-8130000D01*
X15200000Y-11800000D02*
X15220000Y-11820000D01*
X15220000Y-11800000D02*
X15200000Y-11820000D01*
X15240000Y-10150000D02*
X15260000Y-10170000D01*
X15260000Y-10150000D02*
X15240000Y-10170000D01*
X15250000Y-9000000D02*
X15270000Y-9020000D01*
X15270000Y-9000000D02*
X15250000Y-9020000D01*
X15250000Y-9240000D02*
X15270000Y-9260000D01*
X15270000Y-9240000D02*
X15250000Y-9260000D01*
X15250000Y-9800000D02*
X15270000Y-9820000D01*
X15270000Y-9800000D02*
X15250000Y-9820000D01*
X15260000Y-11790000D02*
X15280000Y-11810000D01*
X15280000Y-11790000D02*
X15260000Y-11810000D01*
X15280000Y-11010000D02*
X15300000Y-11030000D01*
X15300000Y-11010000D02*
X15280000Y-11030000D01*
X15290000Y-7890000D02*
X15310000Y-7910000D01*
X15310000Y-7890000D02*
X15290000Y-7910000D01*
X15290000Y-11730000D02*
X15310000Y-11750000D01*
X15310000Y-11730000D02*
X15290000Y-11750000D01*
X15295000Y-10275000D02*
X15315000Y-10295000D01*
X15315000Y-10275000D02*
X15295000Y-10295000D01*
X15298000Y-7960000D02*
X15318000Y-7980000D01*
X15318000Y-7960000D02*
X15298000Y-7980000D01*
X15300000Y-8060000D02*
X15320000Y-8080000D01*
X15320000Y-8060000D02*
X15300000Y-8080000D01*
X15300000Y-8110000D02*
X15320000Y-8130000D01*
X15320000Y-8110000D02*
X15300000Y-8130000D01*
X15300000Y-8210000D02*
X15320000Y-8230000D01*
X15320000Y-8210000D02*
X15300000Y-8230000D01*
X15300000Y-8310000D02*
X15320000Y-8330000D01*
X15320000Y-8310000D02*
X15300000Y-8330000D01*
X15300000Y-10730000D02*
X15320000Y-10750000D01*
X15320000Y-10730000D02*
X15300000Y-10750000D01*
X15310000Y-11270000D02*
X15330000Y-11290000D01*
X15330000Y-11270000D02*
X15310000Y-11290000D01*
X15330000Y-9000000D02*
X15350000Y-9020000D01*
X15350000Y-9000000D02*
X15330000Y-9020000D01*
X15330000Y-9080000D02*
X15350000Y-9100000D01*
X15350000Y-9080000D02*
X15330000Y-9100000D01*
X15330000Y-9240000D02*
X15350000Y-9260000D01*
X15350000Y-9240000D02*
X15330000Y-9260000D01*
X15330000Y-9320000D02*
X15350000Y-9340000D01*
X15350000Y-9320000D02*
X15330000Y-9340000D01*
X15330000Y-9400000D02*
X15350000Y-9420000D01*
X15350000Y-9400000D02*
X15330000Y-9420000D01*
X15330000Y-9480000D02*
X15350000Y-9500000D01*
X15350000Y-9480000D02*
X15330000Y-9500000D01*
X15330000Y-9560000D02*
X15350000Y-9580000D01*
X15350000Y-9560000D02*
X15330000Y-9580000D01*
X15330000Y-9640000D02*
X15350000Y-9660000D01*
X15350000Y-9640000D02*
X15330000Y-9660000D01*
X15330000Y-9720000D02*
X15350000Y-9740000D01*
X15350000Y-9720000D02*
X15330000Y-9740000D01*
X15357500Y-10707500D02*
X15377500Y-10727500D01*
X15377500Y-10707500D02*
X15357500Y-10727500D01*
X15360000Y-11305000D02*
X15380000Y-11325000D01*
X15380000Y-11305000D02*
X15360000Y-11325000D01*
X15370000Y-10140000D02*
X15390000Y-10160000D01*
X15390000Y-10140000D02*
X15370000Y-10160000D01*
X15370000Y-10210000D02*
X15390000Y-10230000D01*
X15390000Y-10210000D02*
X15370000Y-10230000D01*
X15370000Y-10280000D02*
X15390000Y-10300000D01*
X15390000Y-10280000D02*
X15370000Y-10300000D01*
X15390000Y-7890000D02*
X15410000Y-7910000D01*
X15410000Y-7890000D02*
X15390000Y-7910000D01*
X15410000Y-9080000D02*
X15430000Y-9100000D01*
X15430000Y-9080000D02*
X15410000Y-9100000D01*
X15410000Y-9160000D02*
X15430000Y-9180000D01*
X15430000Y-9160000D02*
X15410000Y-9180000D01*
X15410000Y-9240000D02*
X15430000Y-9260000D01*
X15430000Y-9240000D02*
X15410000Y-9260000D01*
X15410000Y-9320000D02*
X15430000Y-9340000D01*
X15430000Y-9320000D02*
X15410000Y-9340000D01*
X15410000Y-9560000D02*
X15430000Y-9580000D01*
X15430000Y-9560000D02*
X15410000Y-9580000D01*
X15410000Y-10860000D02*
X15430000Y-10880000D01*
X15430000Y-10860000D02*
X15410000Y-10880000D01*
X15420000Y-11500000D02*
X15440000Y-11520000D01*
X15440000Y-11500000D02*
X15420000Y-11520000D01*
X15425000Y-11305000D02*
X15445000Y-11325000D01*
X15445000Y-11305000D02*
X15425000Y-11325000D01*
X15430000Y-10510000D02*
X15450000Y-10530000D01*
X15450000Y-10510000D02*
X15430000Y-10530000D01*
X15440000Y-10240000D02*
X15460000Y-10260000D01*
X15460000Y-10240000D02*
X15440000Y-10260000D01*
X15440000Y-10685000D02*
X15460000Y-10705000D01*
X15460000Y-10685000D02*
X15440000Y-10705000D01*
X15440000Y-10740000D02*
X15460000Y-10760000D01*
X15460000Y-10740000D02*
X15440000Y-10760000D01*
X15460000Y-8130000D02*
X15480000Y-8150000D01*
X15480000Y-8130000D02*
X15460000Y-8150000D01*
X15481250Y-8911250D02*
X15501250Y-8931250D01*
X15501250Y-8911250D02*
X15481250Y-8931250D01*
X15490000Y-7890000D02*
X15510000Y-7910000D01*
X15510000Y-7890000D02*
X15490000Y-7910000D01*
X15490000Y-8240000D02*
X15510000Y-8260000D01*
X15510000Y-8240000D02*
X15490000Y-8260000D01*
X15490000Y-8410000D02*
X15510000Y-8430000D01*
X15510000Y-8410000D02*
X15490000Y-8430000D01*
X15490000Y-9160000D02*
X15510000Y-9180000D01*
X15510000Y-9160000D02*
X15490000Y-9180000D01*
X15490000Y-9240000D02*
X15510000Y-9260000D01*
X15510000Y-9240000D02*
X15490000Y-9260000D01*
X15490000Y-9320000D02*
X15510000Y-9340000D01*
X15510000Y-9320000D02*
X15490000Y-9340000D01*
X15490000Y-9400000D02*
X15510000Y-9420000D01*
X15510000Y-9400000D02*
X15490000Y-9420000D01*
X15490000Y-9640000D02*
X15510000Y-9660000D01*
X15510000Y-9640000D02*
X15490000Y-9660000D01*
X15490000Y-9720000D02*
X15510000Y-9740000D01*
X15510000Y-9720000D02*
X15490000Y-9740000D01*
X15490000Y-11305000D02*
X15510000Y-11325000D01*
X15510000Y-11305000D02*
X15490000Y-11325000D01*
X15533000Y-7962000D02*
X15553000Y-7982000D01*
X15553000Y-7962000D02*
X15533000Y-7982000D01*
X15540000Y-8060000D02*
X15560000Y-8080000D01*
X15560000Y-8060000D02*
X15540000Y-8080000D01*
X15540000Y-8360000D02*
X15560000Y-8380000D01*
X15560000Y-8360000D02*
X15540000Y-8380000D01*
X15550000Y-8860000D02*
X15570000Y-8880000D01*
X15570000Y-8860000D02*
X15550000Y-8880000D01*
X15560000Y-11000000D02*
X15580000Y-11020000D01*
X15580000Y-11000000D02*
X15560000Y-11020000D01*
X15565000Y-8110000D02*
X15585000Y-8130000D01*
X15585000Y-8110000D02*
X15565000Y-8130000D01*
X15570000Y-9240000D02*
X15590000Y-9260000D01*
X15590000Y-9240000D02*
X15570000Y-9260000D01*
X15585000Y-8905000D02*
X15605000Y-8925000D01*
X15605000Y-8905000D02*
X15585000Y-8925000D01*
X15590000Y-8060000D02*
X15610000Y-8080000D01*
X15610000Y-8060000D02*
X15590000Y-8080000D01*
X15590000Y-8310000D02*
X15610000Y-8330000D01*
X15610000Y-8310000D02*
X15590000Y-8330000D01*
X15590000Y-11150000D02*
X15610000Y-11170000D01*
X15610000Y-11150000D02*
X15590000Y-11170000D01*
X15620000Y-8480000D02*
X15640000Y-8500000D01*
X15640000Y-8480000D02*
X15620000Y-8500000D01*
X15620000Y-11040000D02*
X15640000Y-11060000D01*
X15640000Y-11040000D02*
X15620000Y-11060000D01*
X15630000Y-8540000D02*
X15650000Y-8560000D01*
X15650000Y-8540000D02*
X15630000Y-8560000D01*
X15640000Y-10970000D02*
X15660000Y-10990000D01*
X15660000Y-10970000D02*
X15640000Y-10990000D01*
X15640000Y-11200000D02*
X15660000Y-11220000D01*
X15660000Y-11200000D02*
X15640000Y-11220000D01*
X15659700Y-8425600D02*
X15679700Y-8445600D01*
X15679700Y-8425600D02*
X15659700Y-8445600D01*
X15660000Y-9112500D02*
X15680000Y-9132500D01*
X15680000Y-9112500D02*
X15660000Y-9132500D01*
X15660000Y-9207500D02*
X15680000Y-9227500D01*
X15680000Y-9207500D02*
X15660000Y-9227500D01*
X15660000Y-10720000D02*
X15680000Y-10740000D01*
X15680000Y-10720000D02*
X15660000Y-10740000D01*
X15660000Y-10850000D02*
X15680000Y-10870000D01*
X15680000Y-10850000D02*
X15660000Y-10870000D01*
X15670000Y-9530000D02*
X15690000Y-9550000D01*
X15690000Y-9530000D02*
X15670000Y-9550000D01*
X15670000Y-11520000D02*
X15690000Y-11540000D01*
X15690000Y-11520000D02*
X15670000Y-11540000D01*
X15675000Y-9595000D02*
X15695000Y-9615000D01*
X15695000Y-9595000D02*
X15675000Y-9615000D01*
X15680000Y-8130000D02*
X15700000Y-8150000D01*
X15700000Y-8130000D02*
X15680000Y-8150000D01*
X15685000Y-9750000D02*
X15705000Y-9770000D01*
X15705000Y-9750000D02*
X15685000Y-9770000D01*
X15690000Y-8630000D02*
X15710000Y-8650000D01*
X15710000Y-8630000D02*
X15690000Y-8650000D01*
X15690000Y-8760000D02*
X15710000Y-8780000D01*
X15710000Y-8760000D02*
X15690000Y-8780000D01*
X15705642Y-10760000D02*
X15725642Y-10780000D01*
X15725642Y-10760000D02*
X15705642Y-10780000D01*
X15705642Y-10810000D02*
X15725642Y-10830000D01*
X15725642Y-10810000D02*
X15705642Y-10830000D01*
X15710000Y-8440000D02*
X15730000Y-8460000D01*
X15730000Y-8440000D02*
X15710000Y-8460000D01*
X15710000Y-11440000D02*
X15730000Y-11460000D01*
X15730000Y-11440000D02*
X15710000Y-11460000D01*
X15715000Y-11365000D02*
X15735000Y-11385000D01*
X15735000Y-11365000D02*
X15715000Y-11385000D01*
X15720000Y-8300000D02*
X15740000Y-8320000D01*
X15740000Y-8300000D02*
X15720000Y-8320000D01*
X15730000Y-9560000D02*
X15750000Y-9580000D01*
X15750000Y-9560000D02*
X15730000Y-9580000D01*
X15730000Y-9620000D02*
X15750000Y-9640000D01*
X15750000Y-9620000D02*
X15730000Y-9640000D01*
X15730000Y-9710000D02*
X15750000Y-9730000D01*
X15750000Y-9710000D02*
X15730000Y-9730000D01*
X15730000Y-10100000D02*
X15750000Y-10120000D01*
X15750000Y-10100000D02*
X15730000Y-10120000D01*
X15750000Y-8840000D02*
X15770000Y-8860000D01*
X15770000Y-8840000D02*
X15750000Y-8860000D01*
X15750000Y-8910000D02*
X15770000Y-8930000D01*
X15770000Y-8910000D02*
X15750000Y-8930000D01*
X15750000Y-8980000D02*
X15770000Y-9000000D01*
X15770000Y-8980000D02*
X15750000Y-9000000D01*
X15750000Y-9060000D02*
X15770000Y-9080000D01*
X15770000Y-9060000D02*
X15750000Y-9080000D01*
X15755000Y-10785000D02*
X15775000Y-10805000D01*
X15775000Y-10785000D02*
X15755000Y-10805000D01*
X15760000Y-8580000D02*
X15780000Y-8600000D01*
X15780000Y-8580000D02*
X15760000Y-8600000D01*
X15766363Y-8118637D02*
X15786363Y-8138637D01*
X15786363Y-8118637D02*
X15766363Y-8138637D01*
X15780000Y-10007500D02*
X15800000Y-10027500D01*
X15800000Y-10007500D02*
X15780000Y-10027500D01*
X15820000Y-8620000D02*
X15840000Y-8640000D01*
X15840000Y-8620000D02*
X15820000Y-8640000D01*
X15820000Y-10470000D02*
X15840000Y-10490000D01*
X15840000Y-10470000D02*
X15820000Y-10490000D01*
X15820000Y-11390000D02*
X15840000Y-11410000D01*
X15840000Y-11390000D02*
X15820000Y-11410000D01*
X15830000Y-10800000D02*
X15850000Y-10820000D01*
X15850000Y-10800000D02*
X15830000Y-10820000D01*
X15840000Y-8130000D02*
X15860000Y-8150000D01*
X15860000Y-8130000D02*
X15840000Y-8150000D01*
X15840000Y-9750000D02*
X15860000Y-9770000D01*
X15860000Y-9750000D02*
X15840000Y-9770000D01*
X15840000Y-10050000D02*
X15860000Y-10070000D01*
X15860000Y-10050000D02*
X15840000Y-10070000D01*
X15840000Y-10520000D02*
X15860000Y-10540000D01*
X15860000Y-10520000D02*
X15840000Y-10540000D01*
X15870000Y-8530000D02*
X15890000Y-8550000D01*
X15890000Y-8530000D02*
X15870000Y-8550000D01*
X15870000Y-10750000D02*
X15890000Y-10770000D01*
X15890000Y-10750000D02*
X15870000Y-10770000D01*
X15880000Y-10090000D02*
X15900000Y-10110000D01*
X15900000Y-10090000D02*
X15880000Y-10110000D01*
X15880000Y-10990000D02*
X15900000Y-11010000D01*
X15900000Y-10990000D02*
X15880000Y-11010000D01*
X15886000Y-8100000D02*
X15906000Y-8120000D01*
X15906000Y-8100000D02*
X15886000Y-8120000D01*
X15900000Y-10690000D02*
X15920000Y-10710000D01*
X15920000Y-10690000D02*
X15900000Y-10710000D01*
X15900000Y-11130000D02*
X15920000Y-11150000D01*
X15920000Y-11130000D02*
X15900000Y-11150000D01*
X15910000Y-11390000D02*
X15930000Y-11410000D01*
X15930000Y-11390000D02*
X15910000Y-11410000D01*
X15920000Y-8500000D02*
X15940000Y-8520000D01*
X15940000Y-8500000D02*
X15920000Y-8520000D01*
X15920000Y-9760000D02*
X15940000Y-9780000D01*
X15940000Y-9760000D02*
X15920000Y-9780000D01*
X15922000Y-8788000D02*
X15942000Y-8808000D01*
X15942000Y-8788000D02*
X15922000Y-8808000D01*
X15940000Y-8140000D02*
X15960000Y-8160000D01*
X15960000Y-8140000D02*
X15940000Y-8160000D01*
X15960000Y-9820000D02*
X15980000Y-9840000D01*
X15980000Y-9820000D02*
X15960000Y-9840000D01*
X15960000Y-10010000D02*
X15980000Y-10030000D01*
X15980000Y-10010000D02*
X15960000Y-10030000D01*
X16000000Y-8510000D02*
X16020000Y-8530000D01*
X16020000Y-8510000D02*
X16000000Y-8530000D01*
X16010000Y-8290000D02*
X16030000Y-8310000D01*
X16030000Y-8290000D02*
X16010000Y-8310000D01*
X16020000Y-11180000D02*
X16040000Y-11200000D01*
X16040000Y-11180000D02*
X16020000Y-11200000D01*
X16030000Y-10370000D02*
X16050000Y-10390000D01*
X16050000Y-10370000D02*
X16030000Y-10390000D01*
X16037500Y-8162500D02*
X16057500Y-8182500D01*
X16057500Y-8162500D02*
X16037500Y-8182500D01*
X16040000Y-8820000D02*
X16060000Y-8840000D01*
X16060000Y-8820000D02*
X16040000Y-8840000D01*
X16040000Y-10010000D02*
X16060000Y-10030000D01*
X16060000Y-10010000D02*
X16040000Y-10030000D01*
X16040000Y-10090000D02*
X16060000Y-10110000D01*
X16060000Y-10090000D02*
X16040000Y-10110000D01*
X16040000Y-10260000D02*
X16060000Y-10280000D01*
X16060000Y-10260000D02*
X16040000Y-10280000D01*
X16050000Y-9765000D02*
X16070000Y-9785000D01*
X16070000Y-9765000D02*
X16050000Y-9785000D01*
X16060000Y-8468000D02*
X16080000Y-8488000D01*
X16080000Y-8468000D02*
X16060000Y-8488000D01*
X16060000Y-8650000D02*
X16080000Y-8670000D01*
X16080000Y-8650000D02*
X16060000Y-8670000D01*
X16067700Y-8280600D02*
X16087700Y-8300600D01*
X16087700Y-8280600D02*
X16067700Y-8300600D01*
X16070000Y-10620000D02*
X16090000Y-10640000D01*
X16090000Y-10620000D02*
X16070000Y-10640000D01*
X16080000Y-8930000D02*
X16100000Y-8950000D01*
X16100000Y-8930000D02*
X16080000Y-8950000D01*
X16080000Y-9010000D02*
X16100000Y-9030000D01*
X16100000Y-9010000D02*
X16080000Y-9030000D01*
X16080000Y-10880000D02*
X16100000Y-10900000D01*
X16100000Y-10880000D02*
X16080000Y-10900000D01*
X16110000Y-8320000D02*
X16130000Y-8340000D01*
X16130000Y-8320000D02*
X16110000Y-8340000D01*
X16120000Y-8510000D02*
X16140000Y-8530000D01*
X16140000Y-8510000D02*
X16120000Y-8530000D01*
X16127500Y-8970000D02*
X16147500Y-8990000D01*
X16147500Y-8970000D02*
X16127500Y-8990000D01*
X16130000Y-8880000D02*
X16150000Y-8900000D01*
X16150000Y-8880000D02*
X16130000Y-8900000D01*
X16130000Y-11240000D02*
X16150000Y-11260000D01*
X16150000Y-11240000D02*
X16130000Y-11260000D01*
X16170000Y-9010000D02*
X16190000Y-9030000D01*
X16190000Y-9010000D02*
X16170000Y-9030000D01*
X16170600Y-8935700D02*
X16190600Y-8955700D01*
X16190600Y-8935700D02*
X16170600Y-8955700D01*
X16180000Y-8468000D02*
X16200000Y-8488000D01*
X16200000Y-8468000D02*
X16180000Y-8488000D01*
X16180000Y-11170000D02*
X16200000Y-11190000D01*
X16200000Y-11170000D02*
X16180000Y-11190000D01*
X16240000Y-10160000D02*
X16260000Y-10180000D01*
X16260000Y-10160000D02*
X16240000Y-10180000D01*
X16240000Y-10380000D02*
X16260000Y-10400000D01*
X16260000Y-10380000D02*
X16240000Y-10400000D01*
X16240000Y-11120000D02*
X16260000Y-11140000D01*
X16260000Y-11120000D02*
X16240000Y-11140000D01*
X16270000Y-9430000D02*
X16290000Y-9450000D01*
X16290000Y-9430000D02*
X16270000Y-9450000D01*
X16270000Y-9500000D02*
X16290000Y-9520000D01*
X16290000Y-9500000D02*
X16270000Y-9520000D01*
X16270000Y-9570000D02*
X16290000Y-9590000D01*
X16290000Y-9570000D02*
X16270000Y-9590000D01*
X16270000Y-9810000D02*
X16290000Y-9830000D01*
X16290000Y-9810000D02*
X16270000Y-9830000D01*
X16290000Y-8712000D02*
X16310000Y-8732000D01*
X16310000Y-8712000D02*
X16290000Y-8732000D01*
X16290000Y-8808000D02*
X16310000Y-8828000D01*
X16310000Y-8808000D02*
X16290000Y-8828000D01*
X16290000Y-11020000D02*
X16310000Y-11040000D01*
X16310000Y-11020000D02*
X16290000Y-11040000D01*
X16310000Y-10540000D02*
X16330000Y-10560000D01*
X16330000Y-10540000D02*
X16310000Y-10560000D01*
X16315000Y-10380000D02*
X16335000Y-10400000D01*
X16335000Y-10380000D02*
X16315000Y-10400000D01*
X16320000Y-9810000D02*
X16340000Y-9830000D01*
X16340000Y-9810000D02*
X16320000Y-9830000D01*
X16320000Y-10160000D02*
X16340000Y-10180000D01*
X16340000Y-10160000D02*
X16320000Y-10180000D01*
X16350000Y-9190000D02*
X16370000Y-9210000D01*
X16370000Y-9190000D02*
X16350000Y-9210000D01*
X16350000Y-10930000D02*
X16370000Y-10950000D01*
X16370000Y-10930000D02*
X16350000Y-10950000D01*
X16370000Y-8750000D02*
X16390000Y-8770000D01*
X16390000Y-8750000D02*
X16370000Y-8770000D01*
X16390000Y-10801250D02*
X16410000Y-10821250D01*
X16410000Y-10801250D02*
X16390000Y-10821250D01*
X16420000Y-8690000D02*
X16440000Y-8710000D01*
X16440000Y-8690000D02*
X16420000Y-8710000D01*
X16420000Y-9280000D02*
X16440000Y-9300000D01*
X16440000Y-9280000D02*
X16420000Y-9300000D01*
X16420000Y-9430000D02*
X16440000Y-9450000D01*
X16440000Y-9430000D02*
X16420000Y-9450000D01*
X16420000Y-9630000D02*
X16440000Y-9650000D01*
X16440000Y-9630000D02*
X16420000Y-9650000D01*
X16420000Y-10240000D02*
X16440000Y-10260000D01*
X16440000Y-10240000D02*
X16420000Y-10260000D01*
X16450000Y-9820000D02*
X16470000Y-9840000D01*
X16470000Y-9820000D02*
X16450000Y-9840000D01*
X16460000Y-9960000D02*
X16480000Y-9980000D01*
X16480000Y-9960000D02*
X16460000Y-9980000D01*
X16475000Y-10360000D02*
X16495000Y-10380000D01*
X16495000Y-10360000D02*
X16475000Y-10380000D01*
X16497500Y-10245000D02*
X16517500Y-10265000D01*
X16517500Y-10245000D02*
X16497500Y-10265000D01*
X16497850Y-8452150D02*
X16517850Y-8472150D01*
X16517850Y-8452150D02*
X16497850Y-8472150D01*
X16500000Y-8690000D02*
X16520000Y-8710000D01*
X16520000Y-8690000D02*
X16500000Y-8710000D01*
X16510000Y-10950000D02*
X16530000Y-10970000D01*
X16530000Y-10950000D02*
X16510000Y-10970000D01*
X16520000Y-9930000D02*
X16540000Y-9950000D01*
X16540000Y-9930000D02*
X16520000Y-9950000D01*
X16520000Y-10000000D02*
X16540000Y-10020000D01*
X16540000Y-10000000D02*
X16520000Y-10020000D01*
X16539540Y-8894540D02*
X16559540Y-8914540D01*
X16559540Y-8894540D02*
X16539540Y-8914540D01*
X16540660Y-8812340D02*
X16560660Y-8832340D01*
X16560660Y-8812340D02*
X16540660Y-8832340D01*
X16557500Y-10515000D02*
X16577500Y-10535000D01*
X16577500Y-10515000D02*
X16557500Y-10535000D01*
X16560000Y-9510000D02*
X16580000Y-9530000D01*
X16580000Y-9510000D02*
X16560000Y-9530000D01*
X16570000Y-9190000D02*
X16590000Y-9210000D01*
X16590000Y-9190000D02*
X16570000Y-9210000D01*
X16580000Y-9360000D02*
X16600000Y-9380000D01*
X16600000Y-9360000D02*
X16580000Y-9380000D01*
X16599000Y-8621000D02*
X16619000Y-8641000D01*
X16619000Y-8621000D02*
X16599000Y-8641000D01*
X16600000Y-9272000D02*
X16620000Y-9292000D01*
X16620000Y-9272000D02*
X16600000Y-9292000D01*
X16605000Y-10435000D02*
X16625000Y-10455000D01*
X16625000Y-10435000D02*
X16605000Y-10455000D01*
X16610000Y-10080000D02*
X16630000Y-10100000D01*
X16630000Y-10080000D02*
X16610000Y-10100000D01*
X16610000Y-10290000D02*
X16630000Y-10310000D01*
X16630000Y-10290000D02*
X16610000Y-10310000D01*
X16662500Y-10655000D02*
X16682500Y-10675000D01*
X16682500Y-10655000D02*
X16662500Y-10675000D01*
X16670000Y-9650000D02*
X16690000Y-9670000D01*
X16690000Y-9650000D02*
X16670000Y-9670000D01*
X16670000Y-9880000D02*
X16690000Y-9900000D01*
X16690000Y-9880000D02*
X16670000Y-9900000D01*
X16672500Y-10597500D02*
X16692500Y-10617500D01*
X16692500Y-10597500D02*
X16672500Y-10617500D01*
X16680000Y-9480000D02*
X16700000Y-9500000D01*
X16700000Y-9480000D02*
X16680000Y-9500000D01*
X16730000Y-9190000D02*
X16750000Y-9210000D01*
X16750000Y-9190000D02*
X16730000Y-9210000D01*
X16730000Y-9370000D02*
X16750000Y-9390000D01*
X16750000Y-9370000D02*
X16730000Y-9390000D01*
X16730000Y-9500000D02*
X16750000Y-9520000D01*
X16750000Y-9500000D02*
X16730000Y-9520000D01*
D12*
X13810640Y-8503361D02*
G75*
G03*
X13810640Y-8503361I-15250J0D01*
G01*
X13895493Y-8588214D02*
G75*
G03*
X13895493Y-8588214I-15250J0D01*
G01*
X13904898Y-8409103D02*
G75*
G03*
X13904898Y-8409103I-15250J0D01*
G01*
X13980346Y-8673066D02*
G75*
G03*
X13980346Y-8673066I-15250J0D01*
G01*
X13989750Y-8493956D02*
G75*
G03*
X13989750Y-8493956I-15250J0D01*
G01*
X13999155Y-8314846D02*
G75*
G03*
X13999155Y-8314846I-15250J0D01*
G01*
X14065199Y-8757919D02*
G75*
G03*
X14065199Y-8757919I-15250J0D01*
G01*
X14074603Y-8578809D02*
G75*
G03*
X14074603Y-8578809I-15250J0D01*
G01*
X14084008Y-8399699D02*
G75*
G03*
X14084008Y-8399699I-15250J0D01*
G01*
X14093412Y-8220589D02*
G75*
G03*
X14093412Y-8220589I-15250J0D01*
G01*
X14159456Y-8663662D02*
G75*
G03*
X14159456Y-8663662I-15250J0D01*
G01*
X14168861Y-8484552D02*
G75*
G03*
X14168861Y-8484552I-15250J0D01*
G01*
X14178265Y-8305442D02*
G75*
G03*
X14178265Y-8305442I-15250J0D01*
G01*
X14253713Y-8569405D02*
G75*
G03*
X14253713Y-8569405I-15250J0D01*
G01*
X14263118Y-8390294D02*
G75*
G03*
X14263118Y-8390294I-15250J0D01*
G01*
X14347971Y-8475147D02*
G75*
G03*
X14347971Y-8475147I-15250J0D01*
G01*
D10*
X247619Y-312524D02*
X247619Y-112524D01*
X247619Y-112524D02*
X295238Y-112524D01*
X295238Y-112524D02*
X323810Y-122048D01*
X323810Y-122048D02*
X342857Y-141095D01*
X342857Y-141095D02*
X352381Y-160143D01*
X352381Y-160143D02*
X361905Y-198238D01*
X361905Y-198238D02*
X361905Y-226809D01*
X361905Y-226809D02*
X352381Y-264905D01*
X352381Y-264905D02*
X342857Y-283952D01*
X342857Y-283952D02*
X323810Y-303000D01*
X323810Y-303000D02*
X295238Y-312524D01*
X295238Y-312524D02*
X247619Y-312524D01*
X447619Y-312524D02*
X447619Y-179190D01*
X447619Y-217286D02*
X457143Y-198238D01*
X457143Y-198238D02*
X466667Y-188714D01*
X466667Y-188714D02*
X485714Y-179190D01*
X485714Y-179190D02*
X504762Y-179190D01*
X571429Y-312524D02*
X571429Y-179190D01*
X571429Y-112524D02*
X561905Y-122048D01*
X561905Y-122048D02*
X571429Y-131571D01*
X571429Y-131571D02*
X580952Y-122048D01*
X580952Y-122048D02*
X571429Y-112524D01*
X571429Y-112524D02*
X571429Y-131571D01*
X695238Y-312524D02*
X676190Y-303000D01*
X676190Y-303000D02*
X666667Y-283952D01*
X666667Y-283952D02*
X666667Y-112524D01*
X800000Y-312524D02*
X780952Y-303000D01*
X780952Y-303000D02*
X771428Y-283952D01*
X771428Y-283952D02*
X771428Y-112524D01*
X1028571Y-312524D02*
X1028571Y-112524D01*
X1028571Y-112524D02*
X1095238Y-255381D01*
X1095238Y-255381D02*
X1161905Y-112524D01*
X1161905Y-112524D02*
X1161905Y-312524D01*
X1342857Y-312524D02*
X1342857Y-207762D01*
X1342857Y-207762D02*
X1333333Y-188714D01*
X1333333Y-188714D02*
X1314286Y-179190D01*
X1314286Y-179190D02*
X1276190Y-179190D01*
X1276190Y-179190D02*
X1257143Y-188714D01*
X1342857Y-303000D02*
X1323810Y-312524D01*
X1323810Y-312524D02*
X1276190Y-312524D01*
X1276190Y-312524D02*
X1257143Y-303000D01*
X1257143Y-303000D02*
X1247619Y-283952D01*
X1247619Y-283952D02*
X1247619Y-264905D01*
X1247619Y-264905D02*
X1257143Y-245857D01*
X1257143Y-245857D02*
X1276190Y-236333D01*
X1276190Y-236333D02*
X1323810Y-236333D01*
X1323810Y-236333D02*
X1342857Y-226809D01*
X1438095Y-179190D02*
X1438095Y-379190D01*
X1438095Y-188714D02*
X1457143Y-179190D01*
X1457143Y-179190D02*
X1495238Y-179190D01*
X1495238Y-179190D02*
X1514286Y-188714D01*
X1514286Y-188714D02*
X1523809Y-198238D01*
X1523809Y-198238D02*
X1533333Y-217286D01*
X1533333Y-217286D02*
X1533333Y-274429D01*
X1533333Y-274429D02*
X1523809Y-293476D01*
X1523809Y-293476D02*
X1514286Y-303000D01*
X1514286Y-303000D02*
X1495238Y-312524D01*
X1495238Y-312524D02*
X1457143Y-312524D01*
X1457143Y-312524D02*
X1438095Y-303000D01*
X1619048Y-293476D02*
X1628571Y-303000D01*
X1628571Y-303000D02*
X1619048Y-312524D01*
X1619048Y-312524D02*
X1609524Y-303000D01*
X1609524Y-303000D02*
X1619048Y-293476D01*
X1619048Y-293476D02*
X1619048Y-312524D01*
X1619048Y-188714D02*
X1628571Y-198238D01*
X1628571Y-198238D02*
X1619048Y-207762D01*
X1619048Y-207762D02*
X1609524Y-198238D01*
X1609524Y-198238D02*
X1619048Y-188714D01*
X1619048Y-188714D02*
X1619048Y-207762D01*
D11*
X-20000Y-630000D02*
X0Y-650000D01*
X0Y-630000D02*
X-20000Y-650000D01*
D10*
X285714Y-532524D02*
X304762Y-532524D01*
X304762Y-532524D02*
X323810Y-542048D01*
X323810Y-542048D02*
X333333Y-551571D01*
X333333Y-551571D02*
X342857Y-570619D01*
X342857Y-570619D02*
X352381Y-608714D01*
X352381Y-608714D02*
X352381Y-656333D01*
X352381Y-656333D02*
X342857Y-694429D01*
X342857Y-694429D02*
X333333Y-713476D01*
X333333Y-713476D02*
X323810Y-723000D01*
X323810Y-723000D02*
X304762Y-732524D01*
X304762Y-732524D02*
X285714Y-732524D01*
X285714Y-732524D02*
X266667Y-723000D01*
X266667Y-723000D02*
X257143Y-713476D01*
X257143Y-713476D02*
X247619Y-694429D01*
X247619Y-694429D02*
X238095Y-656333D01*
X238095Y-656333D02*
X238095Y-608714D01*
X238095Y-608714D02*
X247619Y-570619D01*
X247619Y-570619D02*
X257143Y-551571D01*
X257143Y-551571D02*
X266667Y-542048D01*
X266667Y-542048D02*
X285714Y-532524D01*
X438095Y-713476D02*
X447619Y-723000D01*
X447619Y-723000D02*
X438095Y-732524D01*
X438095Y-732524D02*
X428571Y-723000D01*
X428571Y-723000D02*
X438095Y-713476D01*
X438095Y-713476D02*
X438095Y-732524D01*
X523809Y-551571D02*
X533333Y-542048D01*
X533333Y-542048D02*
X552381Y-532524D01*
X552381Y-532524D02*
X600000Y-532524D01*
X600000Y-532524D02*
X619048Y-542048D01*
X619048Y-542048D02*
X628571Y-551571D01*
X628571Y-551571D02*
X638095Y-570619D01*
X638095Y-570619D02*
X638095Y-589667D01*
X638095Y-589667D02*
X628571Y-618238D01*
X628571Y-618238D02*
X514286Y-732524D01*
X514286Y-732524D02*
X638095Y-732524D01*
X761905Y-532524D02*
X780952Y-532524D01*
X780952Y-532524D02*
X800000Y-542048D01*
X800000Y-542048D02*
X809524Y-551571D01*
X809524Y-551571D02*
X819048Y-570619D01*
X819048Y-570619D02*
X828571Y-608714D01*
X828571Y-608714D02*
X828571Y-656333D01*
X828571Y-656333D02*
X819048Y-694429D01*
X819048Y-694429D02*
X809524Y-713476D01*
X809524Y-713476D02*
X800000Y-723000D01*
X800000Y-723000D02*
X780952Y-732524D01*
X780952Y-732524D02*
X761905Y-732524D01*
X761905Y-732524D02*
X742857Y-723000D01*
X742857Y-723000D02*
X733333Y-713476D01*
X733333Y-713476D02*
X723809Y-694429D01*
X723809Y-694429D02*
X714286Y-656333D01*
X714286Y-656333D02*
X714286Y-608714D01*
X714286Y-608714D02*
X723809Y-570619D01*
X723809Y-570619D02*
X733333Y-551571D01*
X733333Y-551571D02*
X742857Y-542048D01*
X742857Y-542048D02*
X761905Y-532524D01*
X952381Y-532524D02*
X971429Y-532524D01*
X971429Y-532524D02*
X990476Y-542048D01*
X990476Y-542048D02*
X1000000Y-551571D01*
X1000000Y-551571D02*
X1009524Y-570619D01*
X1009524Y-570619D02*
X1019048Y-608714D01*
X1019048Y-608714D02*
X1019048Y-656333D01*
X1019048Y-656333D02*
X1009524Y-694429D01*
X1009524Y-694429D02*
X1000000Y-713476D01*
X1000000Y-713476D02*
X990476Y-723000D01*
X990476Y-723000D02*
X971429Y-732524D01*
X971429Y-732524D02*
X952381Y-732524D01*
X952381Y-732524D02*
X933333Y-723000D01*
X933333Y-723000D02*
X923809Y-713476D01*
X923809Y-713476D02*
X914286Y-694429D01*
X914286Y-694429D02*
X904762Y-656333D01*
X904762Y-656333D02*
X904762Y-608714D01*
X904762Y-608714D02*
X914286Y-570619D01*
X914286Y-570619D02*
X923809Y-551571D01*
X923809Y-551571D02*
X933333Y-542048D01*
X933333Y-542048D02*
X952381Y-532524D01*
X1104762Y-732524D02*
X1104762Y-599190D01*
X1104762Y-618238D02*
X1114286Y-608714D01*
X1114286Y-608714D02*
X1133333Y-599190D01*
X1133333Y-599190D02*
X1161905Y-599190D01*
X1161905Y-599190D02*
X1180952Y-608714D01*
X1180952Y-608714D02*
X1190476Y-627762D01*
X1190476Y-627762D02*
X1190476Y-732524D01*
X1190476Y-627762D02*
X1200000Y-608714D01*
X1200000Y-608714D02*
X1219048Y-599190D01*
X1219048Y-599190D02*
X1247619Y-599190D01*
X1247619Y-599190D02*
X1266667Y-608714D01*
X1266667Y-608714D02*
X1276191Y-627762D01*
X1276191Y-627762D02*
X1276191Y-732524D01*
X1371429Y-732524D02*
X1371429Y-599190D01*
X1371429Y-618238D02*
X1380952Y-608714D01*
X1380952Y-608714D02*
X1400000Y-599190D01*
X1400000Y-599190D02*
X1428571Y-599190D01*
X1428571Y-599190D02*
X1447619Y-608714D01*
X1447619Y-608714D02*
X1457143Y-627762D01*
X1457143Y-627762D02*
X1457143Y-732524D01*
X1457143Y-627762D02*
X1466667Y-608714D01*
X1466667Y-608714D02*
X1485714Y-599190D01*
X1485714Y-599190D02*
X1514286Y-599190D01*
X1514286Y-599190D02*
X1533333Y-608714D01*
X1533333Y-608714D02*
X1542857Y-627762D01*
X1542857Y-627762D02*
X1542857Y-732524D01*
X1933333Y-523000D02*
X1761905Y-780143D01*
X2190476Y-532524D02*
X2209524Y-532524D01*
X2209524Y-532524D02*
X2228572Y-542048D01*
X2228572Y-542048D02*
X2238095Y-551571D01*
X2238095Y-551571D02*
X2247619Y-570619D01*
X2247619Y-570619D02*
X2257143Y-608714D01*
X2257143Y-608714D02*
X2257143Y-656333D01*
X2257143Y-656333D02*
X2247619Y-694429D01*
X2247619Y-694429D02*
X2238095Y-713476D01*
X2238095Y-713476D02*
X2228572Y-723000D01*
X2228572Y-723000D02*
X2209524Y-732524D01*
X2209524Y-732524D02*
X2190476Y-732524D01*
X2190476Y-732524D02*
X2171429Y-723000D01*
X2171429Y-723000D02*
X2161905Y-713476D01*
X2161905Y-713476D02*
X2152381Y-694429D01*
X2152381Y-694429D02*
X2142857Y-656333D01*
X2142857Y-656333D02*
X2142857Y-608714D01*
X2142857Y-608714D02*
X2152381Y-570619D01*
X2152381Y-570619D02*
X2161905Y-551571D01*
X2161905Y-551571D02*
X2171429Y-542048D01*
X2171429Y-542048D02*
X2190476Y-532524D01*
X2342857Y-713476D02*
X2352381Y-723000D01*
X2352381Y-723000D02*
X2342857Y-732524D01*
X2342857Y-732524D02*
X2333334Y-723000D01*
X2333334Y-723000D02*
X2342857Y-713476D01*
X2342857Y-713476D02*
X2342857Y-732524D01*
X2476191Y-532524D02*
X2495238Y-532524D01*
X2495238Y-532524D02*
X2514286Y-542048D01*
X2514286Y-542048D02*
X2523810Y-551571D01*
X2523810Y-551571D02*
X2533334Y-570619D01*
X2533334Y-570619D02*
X2542857Y-608714D01*
X2542857Y-608714D02*
X2542857Y-656333D01*
X2542857Y-656333D02*
X2533334Y-694429D01*
X2533334Y-694429D02*
X2523810Y-713476D01*
X2523810Y-713476D02*
X2514286Y-723000D01*
X2514286Y-723000D02*
X2495238Y-732524D01*
X2495238Y-732524D02*
X2476191Y-732524D01*
X2476191Y-732524D02*
X2457143Y-723000D01*
X2457143Y-723000D02*
X2447619Y-713476D01*
X2447619Y-713476D02*
X2438095Y-694429D01*
X2438095Y-694429D02*
X2428572Y-656333D01*
X2428572Y-656333D02*
X2428572Y-608714D01*
X2428572Y-608714D02*
X2438095Y-570619D01*
X2438095Y-570619D02*
X2447619Y-551571D01*
X2447619Y-551571D02*
X2457143Y-542048D01*
X2457143Y-542048D02*
X2476191Y-532524D01*
X2666667Y-532524D02*
X2685715Y-532524D01*
X2685715Y-532524D02*
X2704762Y-542048D01*
X2704762Y-542048D02*
X2714286Y-551571D01*
X2714286Y-551571D02*
X2723810Y-570619D01*
X2723810Y-570619D02*
X2733334Y-608714D01*
X2733334Y-608714D02*
X2733334Y-656333D01*
X2733334Y-656333D02*
X2723810Y-694429D01*
X2723810Y-694429D02*
X2714286Y-713476D01*
X2714286Y-713476D02*
X2704762Y-723000D01*
X2704762Y-723000D02*
X2685715Y-732524D01*
X2685715Y-732524D02*
X2666667Y-732524D01*
X2666667Y-732524D02*
X2647619Y-723000D01*
X2647619Y-723000D02*
X2638095Y-713476D01*
X2638095Y-713476D02*
X2628572Y-694429D01*
X2628572Y-694429D02*
X2619048Y-656333D01*
X2619048Y-656333D02*
X2619048Y-608714D01*
X2619048Y-608714D02*
X2628572Y-570619D01*
X2628572Y-570619D02*
X2638095Y-551571D01*
X2638095Y-551571D02*
X2647619Y-542048D01*
X2647619Y-542048D02*
X2666667Y-532524D01*
X2800000Y-532524D02*
X2933333Y-532524D01*
X2933333Y-532524D02*
X2847619Y-732524D01*
X3019048Y-732524D02*
X3057143Y-732524D01*
X3057143Y-732524D02*
X3076191Y-723000D01*
X3076191Y-723000D02*
X3085714Y-713476D01*
X3085714Y-713476D02*
X3104762Y-684905D01*
X3104762Y-684905D02*
X3114286Y-646810D01*
X3114286Y-646810D02*
X3114286Y-570619D01*
X3114286Y-570619D02*
X3104762Y-551571D01*
X3104762Y-551571D02*
X3095238Y-542048D01*
X3095238Y-542048D02*
X3076191Y-532524D01*
X3076191Y-532524D02*
X3038095Y-532524D01*
X3038095Y-532524D02*
X3019048Y-542048D01*
X3019048Y-542048D02*
X3009524Y-551571D01*
X3009524Y-551571D02*
X3000000Y-570619D01*
X3000000Y-570619D02*
X3000000Y-618238D01*
X3000000Y-618238D02*
X3009524Y-637286D01*
X3009524Y-637286D02*
X3019048Y-646810D01*
X3019048Y-646810D02*
X3038095Y-656333D01*
X3038095Y-656333D02*
X3076191Y-656333D01*
X3076191Y-656333D02*
X3095238Y-646810D01*
X3095238Y-646810D02*
X3104762Y-637286D01*
X3104762Y-637286D02*
X3114286Y-618238D01*
X3190476Y-532524D02*
X3190476Y-570619D01*
X3266667Y-532524D02*
X3266667Y-570619D01*
X3561905Y-808714D02*
X3552381Y-799190D01*
X3552381Y-799190D02*
X3533334Y-770619D01*
X3533334Y-770619D02*
X3523810Y-751571D01*
X3523810Y-751571D02*
X3514286Y-723000D01*
X3514286Y-723000D02*
X3504762Y-675381D01*
X3504762Y-675381D02*
X3504762Y-637286D01*
X3504762Y-637286D02*
X3514286Y-589667D01*
X3514286Y-589667D02*
X3523810Y-561095D01*
X3523810Y-561095D02*
X3533334Y-542048D01*
X3533334Y-542048D02*
X3552381Y-513476D01*
X3552381Y-513476D02*
X3561905Y-503952D01*
X3733334Y-532524D02*
X3638095Y-532524D01*
X3638095Y-532524D02*
X3628572Y-627762D01*
X3628572Y-627762D02*
X3638095Y-618238D01*
X3638095Y-618238D02*
X3657143Y-608714D01*
X3657143Y-608714D02*
X3704762Y-608714D01*
X3704762Y-608714D02*
X3723810Y-618238D01*
X3723810Y-618238D02*
X3733334Y-627762D01*
X3733334Y-627762D02*
X3742857Y-646810D01*
X3742857Y-646810D02*
X3742857Y-694429D01*
X3742857Y-694429D02*
X3733334Y-713476D01*
X3733334Y-713476D02*
X3723810Y-723000D01*
X3723810Y-723000D02*
X3704762Y-732524D01*
X3704762Y-732524D02*
X3657143Y-732524D01*
X3657143Y-732524D02*
X3638095Y-723000D01*
X3638095Y-723000D02*
X3628572Y-713476D01*
X3866667Y-532524D02*
X3885715Y-532524D01*
X3885715Y-532524D02*
X3904762Y-542048D01*
X3904762Y-542048D02*
X3914286Y-551571D01*
X3914286Y-551571D02*
X3923810Y-570619D01*
X3923810Y-570619D02*
X3933334Y-608714D01*
X3933334Y-608714D02*
X3933334Y-656333D01*
X3933334Y-656333D02*
X3923810Y-694429D01*
X3923810Y-694429D02*
X3914286Y-713476D01*
X3914286Y-713476D02*
X3904762Y-723000D01*
X3904762Y-723000D02*
X3885715Y-732524D01*
X3885715Y-732524D02*
X3866667Y-732524D01*
X3866667Y-732524D02*
X3847619Y-723000D01*
X3847619Y-723000D02*
X3838095Y-713476D01*
X3838095Y-713476D02*
X3828572Y-694429D01*
X3828572Y-694429D02*
X3819048Y-656333D01*
X3819048Y-656333D02*
X3819048Y-608714D01*
X3819048Y-608714D02*
X3828572Y-570619D01*
X3828572Y-570619D02*
X3838095Y-551571D01*
X3838095Y-551571D02*
X3847619Y-542048D01*
X3847619Y-542048D02*
X3866667Y-532524D01*
X4000000Y-532524D02*
X4133334Y-532524D01*
X4133334Y-532524D02*
X4047619Y-732524D01*
X4361905Y-732524D02*
X4361905Y-532524D01*
X4447619Y-732524D02*
X4447619Y-627762D01*
X4447619Y-627762D02*
X4438096Y-608714D01*
X4438096Y-608714D02*
X4419048Y-599190D01*
X4419048Y-599190D02*
X4390477Y-599190D01*
X4390477Y-599190D02*
X4371429Y-608714D01*
X4371429Y-608714D02*
X4361905Y-618238D01*
X4571429Y-732524D02*
X4552381Y-723000D01*
X4552381Y-723000D02*
X4542858Y-713476D01*
X4542858Y-713476D02*
X4533334Y-694429D01*
X4533334Y-694429D02*
X4533334Y-637286D01*
X4533334Y-637286D02*
X4542858Y-618238D01*
X4542858Y-618238D02*
X4552381Y-608714D01*
X4552381Y-608714D02*
X4571429Y-599190D01*
X4571429Y-599190D02*
X4600000Y-599190D01*
X4600000Y-599190D02*
X4619048Y-608714D01*
X4619048Y-608714D02*
X4628572Y-618238D01*
X4628572Y-618238D02*
X4638096Y-637286D01*
X4638096Y-637286D02*
X4638096Y-694429D01*
X4638096Y-694429D02*
X4628572Y-713476D01*
X4628572Y-713476D02*
X4619048Y-723000D01*
X4619048Y-723000D02*
X4600000Y-732524D01*
X4600000Y-732524D02*
X4571429Y-732524D01*
X4752381Y-732524D02*
X4733334Y-723000D01*
X4733334Y-723000D02*
X4723810Y-703952D01*
X4723810Y-703952D02*
X4723810Y-532524D01*
X4904762Y-723000D02*
X4885715Y-732524D01*
X4885715Y-732524D02*
X4847619Y-732524D01*
X4847619Y-732524D02*
X4828572Y-723000D01*
X4828572Y-723000D02*
X4819048Y-703952D01*
X4819048Y-703952D02*
X4819048Y-627762D01*
X4819048Y-627762D02*
X4828572Y-608714D01*
X4828572Y-608714D02*
X4847619Y-599190D01*
X4847619Y-599190D02*
X4885715Y-599190D01*
X4885715Y-599190D02*
X4904762Y-608714D01*
X4904762Y-608714D02*
X4914286Y-627762D01*
X4914286Y-627762D02*
X4914286Y-646810D01*
X4914286Y-646810D02*
X4819048Y-665857D01*
X4990477Y-723000D02*
X5009524Y-732524D01*
X5009524Y-732524D02*
X5047619Y-732524D01*
X5047619Y-732524D02*
X5066667Y-723000D01*
X5066667Y-723000D02*
X5076191Y-703952D01*
X5076191Y-703952D02*
X5076191Y-694429D01*
X5076191Y-694429D02*
X5066667Y-675381D01*
X5066667Y-675381D02*
X5047619Y-665857D01*
X5047619Y-665857D02*
X5019048Y-665857D01*
X5019048Y-665857D02*
X5000000Y-656333D01*
X5000000Y-656333D02*
X4990477Y-637286D01*
X4990477Y-637286D02*
X4990477Y-627762D01*
X4990477Y-627762D02*
X5000000Y-608714D01*
X5000000Y-608714D02*
X5019048Y-599190D01*
X5019048Y-599190D02*
X5047619Y-599190D01*
X5047619Y-599190D02*
X5066667Y-608714D01*
X5142858Y-808714D02*
X5152381Y-799190D01*
X5152381Y-799190D02*
X5171429Y-770619D01*
X5171429Y-770619D02*
X5180953Y-751571D01*
X5180953Y-751571D02*
X5190477Y-723000D01*
X5190477Y-723000D02*
X5200000Y-675381D01*
X5200000Y-675381D02*
X5200000Y-637286D01*
X5200000Y-637286D02*
X5190477Y-589667D01*
X5190477Y-589667D02*
X5180953Y-561095D01*
X5180953Y-561095D02*
X5171429Y-542048D01*
X5171429Y-542048D02*
X5152381Y-513476D01*
X5152381Y-513476D02*
X5142858Y-503952D01*
D12*
X0Y-904000D02*
G75*
G03*
X0Y-904000I-15250J0D01*
G01*
D10*
X285714Y-796524D02*
X304762Y-796524D01*
X304762Y-796524D02*
X323810Y-806048D01*
X323810Y-806048D02*
X333333Y-815571D01*
X333333Y-815571D02*
X342857Y-834619D01*
X342857Y-834619D02*
X352381Y-872714D01*
X352381Y-872714D02*
X352381Y-920333D01*
X352381Y-920333D02*
X342857Y-958428D01*
X342857Y-958428D02*
X333333Y-977476D01*
X333333Y-977476D02*
X323810Y-987000D01*
X323810Y-987000D02*
X304762Y-996524D01*
X304762Y-996524D02*
X285714Y-996524D01*
X285714Y-996524D02*
X266667Y-987000D01*
X266667Y-987000D02*
X257143Y-977476D01*
X257143Y-977476D02*
X247619Y-958428D01*
X247619Y-958428D02*
X238095Y-920333D01*
X238095Y-920333D02*
X238095Y-872714D01*
X238095Y-872714D02*
X247619Y-834619D01*
X247619Y-834619D02*
X257143Y-815571D01*
X257143Y-815571D02*
X266667Y-806048D01*
X266667Y-806048D02*
X285714Y-796524D01*
X438095Y-977476D02*
X447619Y-987000D01*
X447619Y-987000D02*
X438095Y-996524D01*
X438095Y-996524D02*
X428571Y-987000D01*
X428571Y-987000D02*
X438095Y-977476D01*
X438095Y-977476D02*
X438095Y-996524D01*
X514286Y-796524D02*
X638095Y-796524D01*
X638095Y-796524D02*
X571429Y-872714D01*
X571429Y-872714D02*
X600000Y-872714D01*
X600000Y-872714D02*
X619048Y-882238D01*
X619048Y-882238D02*
X628571Y-891762D01*
X628571Y-891762D02*
X638095Y-910809D01*
X638095Y-910809D02*
X638095Y-958428D01*
X638095Y-958428D02*
X628571Y-977476D01*
X628571Y-977476D02*
X619048Y-987000D01*
X619048Y-987000D02*
X600000Y-996524D01*
X600000Y-996524D02*
X542857Y-996524D01*
X542857Y-996524D02*
X523809Y-987000D01*
X523809Y-987000D02*
X514286Y-977476D01*
X761905Y-796524D02*
X780952Y-796524D01*
X780952Y-796524D02*
X800000Y-806048D01*
X800000Y-806048D02*
X809524Y-815571D01*
X809524Y-815571D02*
X819048Y-834619D01*
X819048Y-834619D02*
X828571Y-872714D01*
X828571Y-872714D02*
X828571Y-920333D01*
X828571Y-920333D02*
X819048Y-958428D01*
X819048Y-958428D02*
X809524Y-977476D01*
X809524Y-977476D02*
X800000Y-987000D01*
X800000Y-987000D02*
X780952Y-996524D01*
X780952Y-996524D02*
X761905Y-996524D01*
X761905Y-996524D02*
X742857Y-987000D01*
X742857Y-987000D02*
X733333Y-977476D01*
X733333Y-977476D02*
X723809Y-958428D01*
X723809Y-958428D02*
X714286Y-920333D01*
X714286Y-920333D02*
X714286Y-872714D01*
X714286Y-872714D02*
X723809Y-834619D01*
X723809Y-834619D02*
X733333Y-815571D01*
X733333Y-815571D02*
X742857Y-806048D01*
X742857Y-806048D02*
X761905Y-796524D01*
X1009524Y-796524D02*
X914286Y-796524D01*
X914286Y-796524D02*
X904762Y-891762D01*
X904762Y-891762D02*
X914286Y-882238D01*
X914286Y-882238D02*
X933333Y-872714D01*
X933333Y-872714D02*
X980952Y-872714D01*
X980952Y-872714D02*
X1000000Y-882238D01*
X1000000Y-882238D02*
X1009524Y-891762D01*
X1009524Y-891762D02*
X1019048Y-910809D01*
X1019048Y-910809D02*
X1019048Y-958428D01*
X1019048Y-958428D02*
X1009524Y-977476D01*
X1009524Y-977476D02*
X1000000Y-987000D01*
X1000000Y-987000D02*
X980952Y-996524D01*
X980952Y-996524D02*
X933333Y-996524D01*
X933333Y-996524D02*
X914286Y-987000D01*
X914286Y-987000D02*
X904762Y-977476D01*
X1104762Y-996524D02*
X1104762Y-863190D01*
X1104762Y-882238D02*
X1114286Y-872714D01*
X1114286Y-872714D02*
X1133333Y-863190D01*
X1133333Y-863190D02*
X1161905Y-863190D01*
X1161905Y-863190D02*
X1180952Y-872714D01*
X1180952Y-872714D02*
X1190476Y-891762D01*
X1190476Y-891762D02*
X1190476Y-996524D01*
X1190476Y-891762D02*
X1200000Y-872714D01*
X1200000Y-872714D02*
X1219048Y-863190D01*
X1219048Y-863190D02*
X1247619Y-863190D01*
X1247619Y-863190D02*
X1266667Y-872714D01*
X1266667Y-872714D02*
X1276191Y-891762D01*
X1276191Y-891762D02*
X1276191Y-996524D01*
X1371429Y-996524D02*
X1371429Y-863190D01*
X1371429Y-882238D02*
X1380952Y-872714D01*
X1380952Y-872714D02*
X1400000Y-863190D01*
X1400000Y-863190D02*
X1428571Y-863190D01*
X1428571Y-863190D02*
X1447619Y-872714D01*
X1447619Y-872714D02*
X1457143Y-891762D01*
X1457143Y-891762D02*
X1457143Y-996524D01*
X1457143Y-891762D02*
X1466667Y-872714D01*
X1466667Y-872714D02*
X1485714Y-863190D01*
X1485714Y-863190D02*
X1514286Y-863190D01*
X1514286Y-863190D02*
X1533333Y-872714D01*
X1533333Y-872714D02*
X1542857Y-891762D01*
X1542857Y-891762D02*
X1542857Y-996524D01*
X1933333Y-787000D02*
X1761905Y-1044143D01*
X2190476Y-796524D02*
X2209524Y-796524D01*
X2209524Y-796524D02*
X2228572Y-806048D01*
X2228572Y-806048D02*
X2238095Y-815571D01*
X2238095Y-815571D02*
X2247619Y-834619D01*
X2247619Y-834619D02*
X2257143Y-872714D01*
X2257143Y-872714D02*
X2257143Y-920333D01*
X2257143Y-920333D02*
X2247619Y-958428D01*
X2247619Y-958428D02*
X2238095Y-977476D01*
X2238095Y-977476D02*
X2228572Y-987000D01*
X2228572Y-987000D02*
X2209524Y-996524D01*
X2209524Y-996524D02*
X2190476Y-996524D01*
X2190476Y-996524D02*
X2171429Y-987000D01*
X2171429Y-987000D02*
X2161905Y-977476D01*
X2161905Y-977476D02*
X2152381Y-958428D01*
X2152381Y-958428D02*
X2142857Y-920333D01*
X2142857Y-920333D02*
X2142857Y-872714D01*
X2142857Y-872714D02*
X2152381Y-834619D01*
X2152381Y-834619D02*
X2161905Y-815571D01*
X2161905Y-815571D02*
X2171429Y-806048D01*
X2171429Y-806048D02*
X2190476Y-796524D01*
X2342857Y-977476D02*
X2352381Y-987000D01*
X2352381Y-987000D02*
X2342857Y-996524D01*
X2342857Y-996524D02*
X2333334Y-987000D01*
X2333334Y-987000D02*
X2342857Y-977476D01*
X2342857Y-977476D02*
X2342857Y-996524D01*
X2476191Y-796524D02*
X2495238Y-796524D01*
X2495238Y-796524D02*
X2514286Y-806048D01*
X2514286Y-806048D02*
X2523810Y-815571D01*
X2523810Y-815571D02*
X2533334Y-834619D01*
X2533334Y-834619D02*
X2542857Y-872714D01*
X2542857Y-872714D02*
X2542857Y-920333D01*
X2542857Y-920333D02*
X2533334Y-958428D01*
X2533334Y-958428D02*
X2523810Y-977476D01*
X2523810Y-977476D02*
X2514286Y-987000D01*
X2514286Y-987000D02*
X2495238Y-996524D01*
X2495238Y-996524D02*
X2476191Y-996524D01*
X2476191Y-996524D02*
X2457143Y-987000D01*
X2457143Y-987000D02*
X2447619Y-977476D01*
X2447619Y-977476D02*
X2438095Y-958428D01*
X2438095Y-958428D02*
X2428572Y-920333D01*
X2428572Y-920333D02*
X2428572Y-872714D01*
X2428572Y-872714D02*
X2438095Y-834619D01*
X2438095Y-834619D02*
X2447619Y-815571D01*
X2447619Y-815571D02*
X2457143Y-806048D01*
X2457143Y-806048D02*
X2476191Y-796524D01*
X2733334Y-996524D02*
X2619048Y-996524D01*
X2676191Y-996524D02*
X2676191Y-796524D01*
X2676191Y-796524D02*
X2657143Y-825095D01*
X2657143Y-825095D02*
X2638095Y-844143D01*
X2638095Y-844143D02*
X2619048Y-853667D01*
X2809524Y-815571D02*
X2819048Y-806048D01*
X2819048Y-806048D02*
X2838095Y-796524D01*
X2838095Y-796524D02*
X2885714Y-796524D01*
X2885714Y-796524D02*
X2904762Y-806048D01*
X2904762Y-806048D02*
X2914286Y-815571D01*
X2914286Y-815571D02*
X2923810Y-834619D01*
X2923810Y-834619D02*
X2923810Y-853667D01*
X2923810Y-853667D02*
X2914286Y-882238D01*
X2914286Y-882238D02*
X2800000Y-996524D01*
X2800000Y-996524D02*
X2923810Y-996524D01*
X3047619Y-796524D02*
X3066667Y-796524D01*
X3066667Y-796524D02*
X3085714Y-806048D01*
X3085714Y-806048D02*
X3095238Y-815571D01*
X3095238Y-815571D02*
X3104762Y-834619D01*
X3104762Y-834619D02*
X3114286Y-872714D01*
X3114286Y-872714D02*
X3114286Y-920333D01*
X3114286Y-920333D02*
X3104762Y-958428D01*
X3104762Y-958428D02*
X3095238Y-977476D01*
X3095238Y-977476D02*
X3085714Y-987000D01*
X3085714Y-987000D02*
X3066667Y-996524D01*
X3066667Y-996524D02*
X3047619Y-996524D01*
X3047619Y-996524D02*
X3028572Y-987000D01*
X3028572Y-987000D02*
X3019048Y-977476D01*
X3019048Y-977476D02*
X3009524Y-958428D01*
X3009524Y-958428D02*
X3000000Y-920333D01*
X3000000Y-920333D02*
X3000000Y-872714D01*
X3000000Y-872714D02*
X3009524Y-834619D01*
X3009524Y-834619D02*
X3019048Y-815571D01*
X3019048Y-815571D02*
X3028572Y-806048D01*
X3028572Y-806048D02*
X3047619Y-796524D01*
X3190476Y-796524D02*
X3190476Y-834619D01*
X3266667Y-796524D02*
X3266667Y-834619D01*
X3561905Y-1072714D02*
X3552381Y-1063190D01*
X3552381Y-1063190D02*
X3533334Y-1034619D01*
X3533334Y-1034619D02*
X3523810Y-1015571D01*
X3523810Y-1015571D02*
X3514286Y-987000D01*
X3514286Y-987000D02*
X3504762Y-939381D01*
X3504762Y-939381D02*
X3504762Y-901286D01*
X3504762Y-901286D02*
X3514286Y-853667D01*
X3514286Y-853667D02*
X3523810Y-825095D01*
X3523810Y-825095D02*
X3533334Y-806048D01*
X3533334Y-806048D02*
X3552381Y-777476D01*
X3552381Y-777476D02*
X3561905Y-767952D01*
X3742857Y-996524D02*
X3628572Y-996524D01*
X3685714Y-996524D02*
X3685714Y-796524D01*
X3685714Y-796524D02*
X3666667Y-825095D01*
X3666667Y-825095D02*
X3647619Y-844143D01*
X3647619Y-844143D02*
X3628572Y-853667D01*
X3914286Y-796524D02*
X3876191Y-796524D01*
X3876191Y-796524D02*
X3857143Y-806048D01*
X3857143Y-806048D02*
X3847619Y-815571D01*
X3847619Y-815571D02*
X3828572Y-844143D01*
X3828572Y-844143D02*
X3819048Y-882238D01*
X3819048Y-882238D02*
X3819048Y-958428D01*
X3819048Y-958428D02*
X3828572Y-977476D01*
X3828572Y-977476D02*
X3838095Y-987000D01*
X3838095Y-987000D02*
X3857143Y-996524D01*
X3857143Y-996524D02*
X3895238Y-996524D01*
X3895238Y-996524D02*
X3914286Y-987000D01*
X3914286Y-987000D02*
X3923810Y-977476D01*
X3923810Y-977476D02*
X3933334Y-958428D01*
X3933334Y-958428D02*
X3933334Y-910809D01*
X3933334Y-910809D02*
X3923810Y-891762D01*
X3923810Y-891762D02*
X3914286Y-882238D01*
X3914286Y-882238D02*
X3895238Y-872714D01*
X3895238Y-872714D02*
X3857143Y-872714D01*
X3857143Y-872714D02*
X3838095Y-882238D01*
X3838095Y-882238D02*
X3828572Y-891762D01*
X3828572Y-891762D02*
X3819048Y-910809D01*
X4171429Y-996524D02*
X4171429Y-796524D01*
X4257143Y-996524D02*
X4257143Y-891762D01*
X4257143Y-891762D02*
X4247619Y-872714D01*
X4247619Y-872714D02*
X4228572Y-863190D01*
X4228572Y-863190D02*
X4200000Y-863190D01*
X4200000Y-863190D02*
X4180953Y-872714D01*
X4180953Y-872714D02*
X4171429Y-882238D01*
X4380953Y-996524D02*
X4361905Y-987000D01*
X4361905Y-987000D02*
X4352381Y-977476D01*
X4352381Y-977476D02*
X4342858Y-958428D01*
X4342858Y-958428D02*
X4342858Y-901286D01*
X4342858Y-901286D02*
X4352381Y-882238D01*
X4352381Y-882238D02*
X4361905Y-872714D01*
X4361905Y-872714D02*
X4380953Y-863190D01*
X4380953Y-863190D02*
X4409524Y-863190D01*
X4409524Y-863190D02*
X4428572Y-872714D01*
X4428572Y-872714D02*
X4438096Y-882238D01*
X4438096Y-882238D02*
X4447619Y-901286D01*
X4447619Y-901286D02*
X4447619Y-958428D01*
X4447619Y-958428D02*
X4438096Y-977476D01*
X4438096Y-977476D02*
X4428572Y-987000D01*
X4428572Y-987000D02*
X4409524Y-996524D01*
X4409524Y-996524D02*
X4380953Y-996524D01*
X4561905Y-996524D02*
X4542858Y-987000D01*
X4542858Y-987000D02*
X4533334Y-967952D01*
X4533334Y-967952D02*
X4533334Y-796524D01*
X4714286Y-987000D02*
X4695239Y-996524D01*
X4695239Y-996524D02*
X4657143Y-996524D01*
X4657143Y-996524D02*
X4638096Y-987000D01*
X4638096Y-987000D02*
X4628572Y-967952D01*
X4628572Y-967952D02*
X4628572Y-891762D01*
X4628572Y-891762D02*
X4638096Y-872714D01*
X4638096Y-872714D02*
X4657143Y-863190D01*
X4657143Y-863190D02*
X4695239Y-863190D01*
X4695239Y-863190D02*
X4714286Y-872714D01*
X4714286Y-872714D02*
X4723810Y-891762D01*
X4723810Y-891762D02*
X4723810Y-910809D01*
X4723810Y-910809D02*
X4628572Y-929857D01*
X4800000Y-987000D02*
X4819048Y-996524D01*
X4819048Y-996524D02*
X4857143Y-996524D01*
X4857143Y-996524D02*
X4876191Y-987000D01*
X4876191Y-987000D02*
X4885715Y-967952D01*
X4885715Y-967952D02*
X4885715Y-958428D01*
X4885715Y-958428D02*
X4876191Y-939381D01*
X4876191Y-939381D02*
X4857143Y-929857D01*
X4857143Y-929857D02*
X4828572Y-929857D01*
X4828572Y-929857D02*
X4809524Y-920333D01*
X4809524Y-920333D02*
X4800000Y-901286D01*
X4800000Y-901286D02*
X4800000Y-891762D01*
X4800000Y-891762D02*
X4809524Y-872714D01*
X4809524Y-872714D02*
X4828572Y-863190D01*
X4828572Y-863190D02*
X4857143Y-863190D01*
X4857143Y-863190D02*
X4876191Y-872714D01*
X4952381Y-1072714D02*
X4961905Y-1063190D01*
X4961905Y-1063190D02*
X4980953Y-1034619D01*
X4980953Y-1034619D02*
X4990477Y-1015571D01*
X4990477Y-1015571D02*
X5000000Y-987000D01*
X5000000Y-987000D02*
X5009524Y-939381D01*
X5009524Y-939381D02*
X5009524Y-901286D01*
X5009524Y-901286D02*
X5000000Y-853667D01*
X5000000Y-853667D02*
X4990477Y-825095D01*
X4990477Y-825095D02*
X4980953Y-806048D01*
X4980953Y-806048D02*
X4961905Y-777476D01*
X4961905Y-777476D02*
X4952381Y-767952D01*
M02*
