%TF.GenerationSoftware,KiCad,Pcbnew,7.0.1*%
%TF.CreationDate,2023-12-30T02:23:50+00:00*%
%TF.ProjectId,watch_main,77617463-685f-46d6-9169-6e2e6b696361,rev?*%
%TF.SameCoordinates,Original*%
%TF.FileFunction,Paste,Top*%
%TF.FilePolarity,Positive*%
%FSLAX46Y46*%
G04 Gerber Fmt 4.6, Leading zero omitted, Abs format (unit mm)*
G04 Created by KiCad (PCBNEW 7.0.1) date 2023-12-30 02:23:50*
%MOMM*%
%LPD*%
G01*
G04 APERTURE LIST*
G04 Aperture macros list*
%AMRoundRect*
0 Rectangle with rounded corners*
0 $1 Rounding radius*
0 $2 $3 $4 $5 $6 $7 $8 $9 X,Y pos of 4 corners*
0 Add a 4 corners polygon primitive as box body*
4,1,4,$2,$3,$4,$5,$6,$7,$8,$9,$2,$3,0*
0 Add four circle primitives for the rounded corners*
1,1,$1+$1,$2,$3*
1,1,$1+$1,$4,$5*
1,1,$1+$1,$6,$7*
1,1,$1+$1,$8,$9*
0 Add four rect primitives between the rounded corners*
20,1,$1+$1,$2,$3,$4,$5,0*
20,1,$1+$1,$4,$5,$6,$7,0*
20,1,$1+$1,$6,$7,$8,$9,0*
20,1,$1+$1,$8,$9,$2,$3,0*%
%AMRotRect*
0 Rectangle, with rotation*
0 The origin of the aperture is its center*
0 $1 length*
0 $2 width*
0 $3 Rotation angle, in degrees counterclockwise*
0 Add horizontal line*
21,1,$1,$2,0,0,$3*%
%AMFreePoly0*
4,1,6,0.450000,-0.400000,-0.450000,-0.400000,-0.450000,0.650000,0.150000,1.200000,0.450000,1.200000,0.450000,-0.400000,0.450000,-0.400000,$1*%
%AMFreePoly1*
4,1,7,0.150000,0.000000,0.350000,0.000000,0.350000,-0.250000,-0.150000,-0.250000,-0.150000,0.250000,0.150000,0.250000,0.150000,0.000000,0.150000,0.000000,$1*%
%AMFreePoly2*
4,1,59,0.799098,0.828199,0.965410,0.754152,1.112692,0.647145,1.234508,0.511855,1.325534,0.354194,1.381790,0.181054,1.400820,0.000000,1.381790,-0.181054,1.325534,-0.354194,1.234508,-0.511855,1.112692,-0.647145,0.965410,-0.754152,0.799098,-0.828199,0.621025,-0.866050,0.438975,-0.866050,0.260902,-0.828199,0.094590,-0.754152,-0.052692,-0.647145,-0.174508,-0.511855,-0.265534,-0.354194,
-0.321790,-0.181054,-0.339094,-0.016420,0.056698,-0.016420,0.073606,-0.134009,0.129848,-0.257162,0.218508,-0.359481,0.332403,-0.432677,0.462306,-0.470820,0.597694,-0.470820,0.727597,-0.432677,0.841492,-0.359481,0.930152,-0.257162,0.986394,-0.134009,1.005662,0.000000,0.986394,0.134009,0.930152,0.257162,0.841492,0.359481,0.727597,0.432677,0.597694,0.470820,0.462306,0.470820,
0.332403,0.432677,0.218508,0.359481,0.129848,0.257162,0.073606,0.134009,0.056698,0.016420,0.063500,0.000000,0.056698,-0.016420,-0.339094,-0.016420,-0.339094,-0.016419,-0.340820,0.000000,-0.321790,0.181054,-0.265534,0.354194,-0.174508,0.511855,-0.052692,0.647145,0.094590,0.754152,0.260902,0.828199,0.438975,0.866050,0.621025,0.866050,0.799098,0.828199,0.799098,0.828199,
$1*%
G04 Aperture macros list end*
%ADD10RoundRect,0.140000X-0.170000X0.140000X-0.170000X-0.140000X0.170000X-0.140000X0.170000X0.140000X0*%
%ADD11RoundRect,0.140000X-0.140000X-0.170000X0.140000X-0.170000X0.140000X0.170000X-0.140000X0.170000X0*%
%ADD12RoundRect,0.140000X0.170000X-0.140000X0.170000X0.140000X-0.170000X0.140000X-0.170000X-0.140000X0*%
%ADD13RoundRect,0.135000X-0.185000X0.135000X-0.185000X-0.135000X0.185000X-0.135000X0.185000X0.135000X0*%
%ADD14R,0.200000X0.400000*%
%ADD15R,0.400000X0.400000*%
%ADD16R,0.360000X0.220000*%
%ADD17R,0.360000X0.210000*%
%ADD18RoundRect,0.147500X-0.147500X-0.172500X0.147500X-0.172500X0.147500X0.172500X-0.147500X0.172500X0*%
%ADD19R,0.900000X0.800000*%
%ADD20RoundRect,0.147500X0.172500X-0.147500X0.172500X0.147500X-0.172500X0.147500X-0.172500X-0.147500X0*%
%ADD21RotRect,1.100000X1.000000X225.000000*%
%ADD22C,0.400000*%
%ADD23C,0.250000*%
%ADD24R,0.400000X0.200000*%
%ADD25R,0.220000X0.360000*%
%ADD26RoundRect,0.135000X0.185000X-0.135000X0.185000X0.135000X-0.185000X0.135000X-0.185000X-0.135000X0*%
%ADD27R,0.300000X0.375000*%
%ADD28R,0.750000X0.300000*%
%ADD29R,0.750000X1.450000*%
%ADD30RoundRect,0.140000X0.140000X0.170000X-0.140000X0.170000X-0.140000X-0.170000X0.140000X-0.170000X0*%
%ADD31R,0.480000X0.400000*%
%ADD32R,0.750000X0.750000*%
%ADD33R,1.600000X0.900000*%
%ADD34FreePoly0,90.000000*%
%ADD35R,0.300000X0.350000*%
%ADD36R,0.350000X0.300000*%
%ADD37RoundRect,0.135000X-0.135000X-0.185000X0.135000X-0.185000X0.135000X0.185000X-0.135000X0.185000X0*%
%ADD38C,0.300000*%
%ADD39R,0.200000X0.300000*%
%ADD40R,0.250000X0.250000*%
%ADD41R,0.500000X0.300000*%
%ADD42FreePoly1,90.000000*%
%ADD43R,1.000000X1.700000*%
%ADD44R,0.550000X1.600000*%
%ADD45R,1.100000X0.600000*%
%ADD46R,1.200000X0.800000*%
%ADD47R,0.800000X1.000000*%
%ADD48R,0.800000X0.990000*%
%ADD49RoundRect,0.135000X0.135000X0.185000X-0.135000X0.185000X-0.135000X-0.185000X0.135000X-0.185000X0*%
%ADD50C,0.370000*%
%ADD51R,1.600000X0.550000*%
%ADD52RoundRect,0.140000X0.021213X-0.219203X0.219203X-0.021213X-0.021213X0.219203X-0.219203X0.021213X0*%
%ADD53RoundRect,0.147500X-0.226274X-0.017678X-0.017678X-0.226274X0.226274X0.017678X0.017678X0.226274X0*%
%ADD54RoundRect,0.140000X0.219203X0.021213X0.021213X0.219203X-0.219203X-0.021213X-0.021213X-0.219203X0*%
%ADD55R,0.800000X0.350000*%
%ADD56R,0.260000X0.600000*%
%ADD57R,0.762000X0.533400*%
%ADD58FreePoly2,90.000000*%
%ADD59RoundRect,0.147500X0.147500X0.172500X-0.147500X0.172500X-0.147500X-0.172500X0.147500X-0.172500X0*%
%ADD60C,0.406400*%
G04 APERTURE END LIST*
%TO.C,MIC1801*%
G36*
X165766867Y-89476068D02*
G01*
X166007611Y-89598733D01*
X166198667Y-89789789D01*
X166321332Y-90030533D01*
X166363600Y-90297400D01*
X166321332Y-90564267D01*
X166198667Y-90805011D01*
X166007611Y-90996067D01*
X165766867Y-91118732D01*
X165500000Y-91161000D01*
X165424732Y-91157714D01*
X165456832Y-90790815D01*
X165500000Y-90792700D01*
X165653056Y-90768458D01*
X165791130Y-90698106D01*
X165900706Y-90588530D01*
X165971058Y-90450456D01*
X165995300Y-90297400D01*
X165971058Y-90144344D01*
X165900706Y-90006270D01*
X165791130Y-89896694D01*
X165653056Y-89826342D01*
X165500000Y-89802100D01*
X165456832Y-89803985D01*
X165424732Y-89437086D01*
X165500000Y-89433800D01*
X165766867Y-89476068D01*
G37*
G36*
X165575268Y-89437086D02*
G01*
X165543168Y-89803985D01*
X165500000Y-89802100D01*
X165346944Y-89826342D01*
X165208870Y-89896694D01*
X165099294Y-90006270D01*
X165028942Y-90144344D01*
X165004700Y-90297400D01*
X165028942Y-90450456D01*
X165099294Y-90588530D01*
X165208870Y-90698106D01*
X165346944Y-90768458D01*
X165500000Y-90792700D01*
X165543168Y-90790815D01*
X165575268Y-91157714D01*
X165500000Y-91161000D01*
X165233133Y-91118732D01*
X164992389Y-90996067D01*
X164801333Y-90805011D01*
X164678668Y-90564267D01*
X164636400Y-90297400D01*
X164678668Y-90030533D01*
X164801333Y-89789789D01*
X164992389Y-89598733D01*
X165233133Y-89476068D01*
X165500000Y-89433800D01*
X165575268Y-89437086D01*
G37*
%TD*%
D10*
%TO.C,C207*%
X157700000Y-86920000D03*
X157700000Y-87880000D03*
%TD*%
D11*
%TO.C,C803*%
X141320000Y-98150000D03*
X142280000Y-98150000D03*
%TD*%
D12*
%TO.C,C402*%
X135200000Y-105980000D03*
X135200000Y-105020000D03*
%TD*%
%TO.C,C1601*%
X132720000Y-97442000D03*
X132720000Y-96482000D03*
%TD*%
D13*
%TO.C,R202*%
X165400000Y-85290000D03*
X165400000Y-86310000D03*
%TD*%
D14*
%TO.C,J501*%
X154350000Y-108000000D03*
X154000000Y-108000000D03*
X153650000Y-108000000D03*
X153300000Y-108000000D03*
X152950000Y-108000000D03*
X152600000Y-108000000D03*
X152250000Y-108000000D03*
X151900000Y-108000000D03*
X151550000Y-108000000D03*
X151200000Y-108000000D03*
X150850000Y-108000000D03*
X150500000Y-108000000D03*
X150150000Y-108000000D03*
X149800000Y-108000000D03*
X149450000Y-108000000D03*
X149450000Y-106400000D03*
X149800000Y-106400000D03*
X150150000Y-106400000D03*
X150500000Y-106400000D03*
X150850000Y-106400000D03*
X151200000Y-106400000D03*
X151550000Y-106400000D03*
X151900000Y-106400000D03*
X152250000Y-106400000D03*
X152600000Y-106400000D03*
X152950000Y-106400000D03*
X153300000Y-106400000D03*
X153650000Y-106400000D03*
X154000000Y-106400000D03*
X154350000Y-106400000D03*
D15*
X155500000Y-106400000D03*
D16*
X155030000Y-106490000D03*
X148770000Y-106490000D03*
D15*
X148300000Y-106400000D03*
X148300000Y-108000000D03*
D16*
X148770000Y-107910000D03*
X155030000Y-107910000D03*
D15*
X155500000Y-108000000D03*
%TD*%
D14*
%TO.C,J701*%
X157210000Y-83900000D03*
X157210000Y-82300000D03*
X157560000Y-83900000D03*
X157560000Y-82300000D03*
X157910000Y-83900000D03*
X157910000Y-82300000D03*
X158260000Y-83900000D03*
X158260000Y-82300000D03*
X158610000Y-83900000D03*
X158610000Y-82300000D03*
X158960000Y-83900000D03*
X158960000Y-82300000D03*
X159310000Y-83900000D03*
X159310000Y-82300000D03*
X159660000Y-83900000D03*
X159660000Y-82300000D03*
X160010000Y-83900000D03*
X160010000Y-82300000D03*
X160360000Y-83900000D03*
X160360000Y-82300000D03*
D15*
X156060000Y-82300000D03*
D17*
X156530000Y-82395000D03*
D15*
X156060000Y-83900000D03*
D17*
X156530000Y-83805000D03*
X161040000Y-83805000D03*
D15*
X161510000Y-83900000D03*
D17*
X161040000Y-82395000D03*
D15*
X161540000Y-82300000D03*
%TD*%
D10*
%TO.C,C401*%
X135400000Y-109820000D03*
X135400000Y-110780000D03*
%TD*%
D18*
%TO.C,L1601*%
X132715000Y-103800000D03*
X133685000Y-103800000D03*
%TD*%
D19*
%TO.C,Y301*%
X142100000Y-90650000D03*
X140700000Y-90650000D03*
X140700000Y-91750000D03*
X142100000Y-91750000D03*
%TD*%
D20*
%TO.C,L1602*%
X132720000Y-91665000D03*
X132720000Y-90695000D03*
%TD*%
D21*
%TO.C,U301*%
X143291852Y-84786827D03*
X142443324Y-83938299D03*
X141594796Y-83089771D03*
X140746268Y-82241243D03*
X142372613Y-85706066D03*
X141524085Y-84857538D03*
X140675557Y-84009010D03*
X139827029Y-83160482D03*
X141453374Y-86625305D03*
X140604846Y-85776777D03*
X139756318Y-84928249D03*
X138907790Y-84079721D03*
X140534136Y-87544544D03*
X139685607Y-86696016D03*
X138837079Y-85847488D03*
X137988551Y-84998959D03*
D22*
X145307106Y-84751472D03*
D23*
X144600000Y-85458579D03*
X143468629Y-86589950D03*
X143185786Y-86872792D03*
X142902943Y-87155635D03*
X142620101Y-87438478D03*
X142337258Y-87721320D03*
X142054415Y-88004163D03*
X141771572Y-88287006D03*
X141488730Y-88569849D03*
D22*
X140781623Y-89276955D03*
D23*
X142337258Y-81781624D03*
X137811775Y-86307107D03*
X141912994Y-81923045D03*
X142054415Y-81498781D03*
X137528932Y-86024264D03*
X141630151Y-81640202D03*
X141771572Y-81215938D03*
X137246089Y-85741421D03*
X141347308Y-81357359D03*
X141488730Y-80933095D03*
X136963246Y-85458579D03*
X141064466Y-81074517D03*
X141205887Y-80650253D03*
X136680404Y-85175736D03*
X140781623Y-80791674D03*
X140498780Y-81074517D03*
X140215938Y-81357359D03*
X139933095Y-81640202D03*
X139650252Y-81923045D03*
X139367409Y-82205888D03*
X139084567Y-82488730D03*
X138801724Y-82771573D03*
X138518881Y-83054416D03*
X138236039Y-83337258D03*
X137953196Y-83620101D03*
X137670353Y-83902944D03*
X137387510Y-84185787D03*
X137104668Y-84468629D03*
X136821825Y-84751472D03*
D22*
X140781623Y-80225989D03*
D23*
X140357359Y-80650253D03*
X140074516Y-80933095D03*
X139791674Y-81215938D03*
X139508831Y-81498781D03*
X139225988Y-81781624D03*
X138943145Y-82064466D03*
X138660303Y-82347309D03*
X138377460Y-82630152D03*
X138094617Y-82912994D03*
X137811775Y-83195837D03*
X137528932Y-83478680D03*
X137246089Y-83761523D03*
X136963246Y-84044365D03*
X136680404Y-84327208D03*
D22*
X136256140Y-84751472D03*
D23*
X144741421Y-84751472D03*
X144458578Y-85034315D03*
X144175736Y-85317157D03*
X143892893Y-85600000D03*
X143610050Y-85882843D03*
X143327207Y-86165686D03*
X143044365Y-86448528D03*
X142761522Y-86731371D03*
X142478679Y-87014214D03*
X142195837Y-87297056D03*
X141912994Y-87579899D03*
X141630151Y-87862742D03*
X141347308Y-88145585D03*
X141064466Y-88428427D03*
X140781623Y-88711270D03*
X144882842Y-84327208D03*
X140357359Y-88852691D03*
X144458578Y-84468629D03*
X144600000Y-84044365D03*
X140074516Y-88569849D03*
X144175736Y-84185787D03*
X144317157Y-83761523D03*
X139791674Y-88287006D03*
X143892893Y-83902944D03*
X144034314Y-83478680D03*
X139508831Y-88004163D03*
X143610050Y-83620101D03*
X143751471Y-83195837D03*
X139225988Y-87721320D03*
X143327207Y-83337258D03*
X143468629Y-82912994D03*
X138943145Y-87438478D03*
X143044365Y-83054416D03*
X143185786Y-82630152D03*
X138660303Y-87155635D03*
X142761522Y-82771573D03*
X142902943Y-82347309D03*
X138377460Y-86872792D03*
X142478679Y-82488730D03*
X142620101Y-82064466D03*
X138094617Y-86589950D03*
X142195837Y-82205888D03*
%TD*%
D24*
%TO.C,J601*%
X163500000Y-94050000D03*
X163500000Y-94400000D03*
X163500000Y-94750000D03*
X163500000Y-95100000D03*
X163500000Y-95450000D03*
X165100000Y-95450000D03*
X165100000Y-95100000D03*
X165100000Y-94400000D03*
X165100000Y-94750000D03*
X165100000Y-94050000D03*
D15*
X163500000Y-92900000D03*
X165100000Y-92900000D03*
D25*
X163590000Y-93350000D03*
X165010000Y-93350000D03*
X163590000Y-96150000D03*
X165010000Y-96150000D03*
D15*
X163500000Y-96600000D03*
X165100000Y-96600000D03*
%TD*%
D11*
%TO.C,C1305*%
X164020000Y-101700000D03*
X164980000Y-101700000D03*
%TD*%
%TO.C,C1407*%
X152520000Y-109500000D03*
X153480000Y-109500000D03*
%TD*%
D26*
%TO.C,R804*%
X167000000Y-105410000D03*
X167000000Y-104390000D03*
%TD*%
D19*
%TO.C,Y801*%
X157100000Y-103050000D03*
X155700000Y-103050000D03*
X155700000Y-104150000D03*
X157100000Y-104150000D03*
%TD*%
D12*
%TO.C,C1401*%
X150000000Y-112730000D03*
X150000000Y-111770000D03*
%TD*%
D10*
%TO.C,C1306*%
X163100000Y-102320000D03*
X163100000Y-103280000D03*
%TD*%
D27*
%TO.C,FL401*%
X134200000Y-108487500D03*
X134700000Y-108775000D03*
X135200000Y-108775000D03*
X135200000Y-108200000D03*
X134700000Y-108200000D03*
%TD*%
D28*
%TO.C,IC1302*%
X166000000Y-107650000D03*
X166000000Y-107000000D03*
X166000000Y-106350000D03*
X164000000Y-106350000D03*
X164000000Y-107000000D03*
X164000000Y-107650000D03*
D29*
X165000000Y-107000000D03*
%TD*%
D30*
%TO.C,C1408*%
X149680000Y-109500000D03*
X148720000Y-109500000D03*
%TD*%
D11*
%TO.C,C804*%
X141320000Y-101950000D03*
X142280000Y-101950000D03*
%TD*%
D23*
%TO.C,IC201*%
X159700000Y-87600000D03*
X159700000Y-87200000D03*
X159700000Y-86800000D03*
X159700000Y-86400000D03*
X159700000Y-86000000D03*
X159700000Y-85600000D03*
X160100000Y-87600000D03*
X160100000Y-87200000D03*
X160100000Y-86800000D03*
X160100000Y-86400000D03*
X160100000Y-86000000D03*
X160100000Y-85600000D03*
X160500000Y-87600000D03*
X160500000Y-87200000D03*
X160500000Y-86000000D03*
X160500000Y-85600000D03*
X160900000Y-87600000D03*
X160900000Y-87200000D03*
X160900000Y-86000000D03*
X160900000Y-85600000D03*
X161300000Y-87600000D03*
X161300000Y-87200000D03*
X161300000Y-86800000D03*
X161300000Y-86400000D03*
X161300000Y-86000000D03*
X161300000Y-85600000D03*
X161700000Y-87600000D03*
X161700000Y-87200000D03*
X161700000Y-86800000D03*
X161700000Y-86400000D03*
X161700000Y-86000000D03*
X161700000Y-85600000D03*
%TD*%
D12*
%TO.C,C1602*%
X132720000Y-93522000D03*
X132720000Y-92562000D03*
%TD*%
D30*
%TO.C,C1405*%
X151580000Y-109500000D03*
X150620000Y-109500000D03*
%TD*%
D12*
%TO.C,C802*%
X158300000Y-104080000D03*
X158300000Y-103120000D03*
%TD*%
D10*
%TO.C,C202*%
X163000000Y-85320000D03*
X163000000Y-86280000D03*
%TD*%
D31*
%TO.C,Q201*%
X156720000Y-80025000D03*
D32*
X157480000Y-80300000D03*
D31*
X156720000Y-80575000D03*
%TD*%
D13*
%TO.C,R201*%
X164200000Y-85290000D03*
X164200000Y-86310000D03*
%TD*%
D10*
%TO.C,C1801*%
X166700000Y-92820000D03*
X166700000Y-93780000D03*
%TD*%
D33*
%TO.C,U401*%
X146200000Y-112700000D03*
X146200000Y-111600000D03*
X146200000Y-110500000D03*
X146200000Y-109400000D03*
X146200000Y-108300000D03*
X146200000Y-107200000D03*
X146200000Y-106100000D03*
X146200000Y-105000000D03*
X146200000Y-103900000D03*
X137000000Y-103900000D03*
X137000000Y-105000000D03*
X137000000Y-106100000D03*
X137000000Y-107200000D03*
X137000000Y-108300000D03*
X137000000Y-109400000D03*
X137000000Y-110500000D03*
X137000000Y-111600000D03*
D34*
X137400000Y-112700000D03*
%TD*%
D11*
%TO.C,C316*%
X145320000Y-86700000D03*
X146280000Y-86700000D03*
%TD*%
D30*
%TO.C,C1307*%
X165480000Y-108812500D03*
X164520000Y-108812500D03*
%TD*%
D35*
%TO.C,IC1301*%
X164100000Y-104450000D03*
X164600000Y-104450000D03*
X165100000Y-104450000D03*
X165600000Y-104450000D03*
D36*
X165600000Y-103950000D03*
X165600000Y-103450000D03*
D35*
X165600000Y-102950000D03*
X165100000Y-102950000D03*
X164600000Y-102950000D03*
X164100000Y-102950000D03*
D36*
X164100000Y-103450000D03*
X164100000Y-103950000D03*
%TD*%
D30*
%TO.C,C1409*%
X149680000Y-110500000D03*
X148720000Y-110500000D03*
%TD*%
D18*
%TO.C,L1603*%
X132715000Y-89700000D03*
X133685000Y-89700000D03*
%TD*%
D10*
%TO.C,C801*%
X154500000Y-103120000D03*
X154500000Y-104080000D03*
%TD*%
D37*
%TO.C,R1601*%
X135098000Y-95035000D03*
X136118000Y-95035000D03*
%TD*%
D38*
%TO.C,U1401*%
X152800000Y-112300000D03*
X152300000Y-112300000D03*
X151800000Y-112300000D03*
X151300000Y-112300000D03*
X152800000Y-111800000D03*
X152300000Y-111800000D03*
X151800000Y-111800000D03*
X151300000Y-111800000D03*
X152800000Y-111300000D03*
X152300000Y-111300000D03*
X151800000Y-111300000D03*
X151300000Y-111296000D03*
D39*
X152800000Y-110800000D03*
X152304000Y-110800000D03*
X151800000Y-110800000D03*
X151300000Y-110800000D03*
%TD*%
D40*
%TO.C,IC401*%
X133400000Y-106987500D03*
X133800000Y-106987500D03*
X134200000Y-106987500D03*
X134200000Y-106587500D03*
X133800000Y-106587500D03*
X133400000Y-106587500D03*
%TD*%
D41*
%TO.C,U1102*%
X164100000Y-100200000D03*
X164100000Y-99700000D03*
X164100000Y-99200000D03*
X164100000Y-98700000D03*
X162050000Y-98700000D03*
X162050000Y-99200000D03*
X162050000Y-99700000D03*
D42*
X162050000Y-100200000D03*
D43*
X163075000Y-99450000D03*
%TD*%
D10*
%TO.C,C1501*%
X165200000Y-97720000D03*
X165200000Y-98680000D03*
%TD*%
%TO.C,C1404*%
X149000000Y-111770000D03*
X149000000Y-112730000D03*
%TD*%
D44*
%TO.C,L202*%
X160025000Y-89800000D03*
X158575000Y-89800000D03*
%TD*%
D45*
%TO.C,Y802*%
X141800000Y-100750000D03*
X141800000Y-99350000D03*
%TD*%
D46*
%TO.C,SW1501*%
X166800000Y-98900000D03*
X166800000Y-96600000D03*
X166800000Y-97750000D03*
D47*
X168350000Y-100450000D03*
D48*
X168350000Y-95050000D03*
%TD*%
D18*
%TO.C,L1604*%
X133515000Y-88700000D03*
X134485000Y-88700000D03*
%TD*%
D49*
%TO.C,R803*%
X165010000Y-105400000D03*
X163990000Y-105400000D03*
%TD*%
D11*
%TO.C,C1406*%
X154470000Y-109500000D03*
X155430000Y-109500000D03*
%TD*%
D10*
%TO.C,C204*%
X163000000Y-87220000D03*
X163000000Y-88180000D03*
%TD*%
D50*
%TO.C,IC1001*%
X148600000Y-82700000D03*
X148600000Y-81700000D03*
X148600000Y-80700000D03*
X148600000Y-79700000D03*
X149600000Y-83700000D03*
X149600000Y-82700000D03*
X149600000Y-81700000D03*
X149600000Y-80700000D03*
X149600000Y-79700000D03*
X150600000Y-83700000D03*
X150600000Y-82700000D03*
X150600000Y-81700000D03*
X150600000Y-80700000D03*
X150600000Y-79700000D03*
X151600000Y-83700000D03*
X151600000Y-82700000D03*
X151600000Y-81700000D03*
X151600000Y-80700000D03*
X151600000Y-79700000D03*
X152600000Y-83700000D03*
X152600000Y-82700000D03*
X152600000Y-81700000D03*
X152600000Y-80700000D03*
X152600000Y-79700000D03*
%TD*%
D51*
%TO.C,L1404*%
X154700000Y-112275000D03*
X154700000Y-110825000D03*
%TD*%
D52*
%TO.C,C306*%
X143960589Y-81439411D03*
X144639411Y-80760589D03*
%TD*%
D53*
%TO.C,L401*%
X132857053Y-104757053D03*
X133542947Y-105442947D03*
%TD*%
D10*
%TO.C,C1303*%
X162100000Y-102320000D03*
X162100000Y-103280000D03*
%TD*%
D54*
%TO.C,C315*%
X138239411Y-88699411D03*
X137560589Y-88020589D03*
%TD*%
D12*
%TO.C,C1301*%
X167000000Y-103480000D03*
X167000000Y-102520000D03*
%TD*%
D55*
%TO.C,ANT1601*%
X132931000Y-95661000D03*
D56*
X133184000Y-95036000D03*
D55*
X132931000Y-94411000D03*
D56*
X132678000Y-95036000D03*
%TD*%
D11*
%TO.C,C314*%
X145320000Y-87700000D03*
X146280000Y-87700000D03*
%TD*%
D52*
%TO.C,C304*%
X145060589Y-82439411D03*
X145739411Y-81760589D03*
%TD*%
D57*
%TO.C,MIC1801*%
X166337500Y-88223400D03*
X166337500Y-89045400D03*
X164662500Y-88223400D03*
X164662500Y-89045400D03*
D58*
X165500000Y-90814800D03*
%TD*%
D12*
%TO.C,C1101*%
X160600000Y-99480000D03*
X160600000Y-98520000D03*
%TD*%
D44*
%TO.C,L201*%
X162825000Y-89800000D03*
X161375000Y-89800000D03*
%TD*%
D59*
%TO.C,L303*%
X136485000Y-88700000D03*
X135515000Y-88700000D03*
%TD*%
D52*
%TO.C,C313*%
X142960589Y-80439411D03*
X143639411Y-79760589D03*
%TD*%
D60*
%TO.C,U801*%
X145000001Y-100899999D03*
X145000001Y-100099999D03*
X145000001Y-99300000D03*
X145000001Y-98500000D03*
X145000001Y-97700000D03*
X145000001Y-96900000D03*
X145000001Y-96100000D03*
X145000001Y-95300000D03*
X145000001Y-94500000D03*
X145000001Y-93700000D03*
X145000001Y-92900000D03*
X145000001Y-92100000D03*
X145000001Y-91300000D03*
X145000001Y-90500001D03*
X145000001Y-89700001D03*
X145800001Y-100899999D03*
X145800001Y-100099999D03*
X145800001Y-99300000D03*
X145800001Y-98500000D03*
X145800001Y-97700000D03*
X145800001Y-96900000D03*
X145800001Y-96100000D03*
X145800001Y-95300000D03*
X145800001Y-94500000D03*
X145800001Y-93700000D03*
X145800001Y-92900000D03*
X145800001Y-92100000D03*
X145800001Y-91300000D03*
X145800001Y-90500001D03*
X145800001Y-89700001D03*
X146600000Y-100899999D03*
X146600000Y-100099999D03*
X146600000Y-99300000D03*
X146600000Y-98500000D03*
X146600000Y-97700000D03*
X146600000Y-96900000D03*
X146600000Y-96100000D03*
X146600000Y-95300000D03*
X146600000Y-94500000D03*
X146600000Y-93700000D03*
X146600000Y-92900000D03*
X146600000Y-92100000D03*
X146600000Y-91300000D03*
X146600000Y-90500001D03*
X146600000Y-89700001D03*
X147400000Y-100899999D03*
X147400000Y-100099999D03*
X147400000Y-99300000D03*
X147400000Y-98500000D03*
X147400000Y-97700000D03*
X147400000Y-96900000D03*
X147400000Y-96100000D03*
X147400000Y-95300000D03*
X147400000Y-94500000D03*
X147400000Y-93700000D03*
X147400000Y-92900000D03*
X147400000Y-92100000D03*
X147400000Y-91300000D03*
X147400000Y-90500001D03*
X147400000Y-89700001D03*
X148200000Y-100899999D03*
X148200000Y-100099999D03*
X148200000Y-99300000D03*
X148200000Y-98500000D03*
X148200000Y-97700000D03*
X148200000Y-96900000D03*
X148200000Y-96100000D03*
X148200000Y-95300000D03*
X148200000Y-94500000D03*
X148200000Y-93700000D03*
X148200000Y-92900000D03*
X148200000Y-92100000D03*
X148200000Y-91300000D03*
X148200000Y-90500001D03*
X148200000Y-89700001D03*
X149000000Y-100899999D03*
X149000000Y-100099999D03*
X149000000Y-99300000D03*
X149000000Y-98500000D03*
X149000000Y-97700000D03*
X149000000Y-96900000D03*
X149000000Y-96100000D03*
X149000000Y-95300000D03*
X149000000Y-94500000D03*
X149000000Y-93700000D03*
X149000000Y-92900000D03*
X149000000Y-92100000D03*
X149000000Y-91300000D03*
X149000000Y-90500001D03*
X149000000Y-89700001D03*
X149800000Y-100899999D03*
X149800000Y-100099999D03*
X149800000Y-99300000D03*
X149800000Y-98500000D03*
X149800000Y-97700000D03*
X149800000Y-96900000D03*
X149800000Y-93700000D03*
X149800000Y-92900000D03*
X149800000Y-92100000D03*
X149800000Y-91300000D03*
X149800000Y-90500001D03*
X149800000Y-89700001D03*
X150600000Y-100899999D03*
X150600000Y-100099999D03*
X150600000Y-99300000D03*
X150600000Y-98500000D03*
X150600000Y-97700000D03*
X150600000Y-96900000D03*
X150600000Y-93700000D03*
X150600000Y-92900000D03*
X150600000Y-92100000D03*
X150600000Y-91300000D03*
X150600000Y-90500001D03*
X150600000Y-89700001D03*
X151400000Y-100899999D03*
X151400000Y-100099999D03*
X151400000Y-99300000D03*
X151400000Y-98500000D03*
X151400000Y-97700000D03*
X151400000Y-96900000D03*
X151400000Y-93700000D03*
X151400000Y-92900000D03*
X151400000Y-92100000D03*
X151400000Y-91300000D03*
X151400000Y-90500001D03*
X151400000Y-89700001D03*
X152200000Y-100899999D03*
X152200000Y-100099999D03*
X152200000Y-99300000D03*
X152200000Y-98500000D03*
X152200000Y-97700000D03*
X152200000Y-96900000D03*
X152200000Y-96100000D03*
X152200000Y-95300000D03*
X152200000Y-94500000D03*
X152200000Y-93700000D03*
X152200000Y-92900000D03*
X152200000Y-92100000D03*
X152200000Y-91300000D03*
X152200000Y-90500001D03*
X152200000Y-89700001D03*
X153000000Y-100899999D03*
X153000000Y-100099999D03*
X153000000Y-99300000D03*
X153000000Y-98500000D03*
X153000000Y-97700000D03*
X153000000Y-96900000D03*
X153000000Y-96100000D03*
X153000000Y-95300000D03*
X153000000Y-94500000D03*
X153000000Y-93700000D03*
X153000000Y-92900000D03*
X153000000Y-92100000D03*
X153000000Y-91300000D03*
X153000000Y-90500001D03*
X153000000Y-89700001D03*
X153800000Y-100899999D03*
X153800000Y-100099999D03*
X153800000Y-99300000D03*
X153800000Y-98500000D03*
X153800000Y-97700000D03*
X153800000Y-96900000D03*
X153800000Y-96100000D03*
X153800000Y-95300000D03*
X153800000Y-94500000D03*
X153800000Y-93700000D03*
X153800000Y-92900000D03*
X153800000Y-92100000D03*
X153800000Y-91300000D03*
X153800000Y-90500001D03*
X153800000Y-89700001D03*
X154600000Y-100899999D03*
X154600000Y-100099999D03*
X154600000Y-99300000D03*
X154600000Y-98500000D03*
X154600000Y-97700000D03*
X154600000Y-96900000D03*
X154600000Y-96100000D03*
X154600000Y-95300000D03*
X154600000Y-94500000D03*
X154600000Y-93700000D03*
X154600000Y-92900000D03*
X154600000Y-92100000D03*
X154600000Y-91300000D03*
X154600000Y-90500001D03*
X154600000Y-89700001D03*
X155399999Y-100899999D03*
X155399999Y-100099999D03*
X155399999Y-99300000D03*
X155399999Y-98500000D03*
X155399999Y-97700000D03*
X155399999Y-96900000D03*
X155399999Y-96100000D03*
X155399999Y-95300000D03*
X155399999Y-94500000D03*
X155399999Y-93700000D03*
X155399999Y-92900000D03*
X155399999Y-92100000D03*
X155399999Y-91300000D03*
X155399999Y-90500001D03*
X155399999Y-89700001D03*
X156199999Y-100899999D03*
X156199999Y-100099999D03*
X156199999Y-99300000D03*
X156199999Y-98500000D03*
X156199999Y-97700000D03*
X156199999Y-96900000D03*
X156199999Y-96100000D03*
X156199999Y-95300000D03*
X156199999Y-94500000D03*
X156199999Y-93700000D03*
X156199999Y-92900000D03*
X156199999Y-92100000D03*
X156199999Y-91300000D03*
X156199999Y-90500001D03*
X156199999Y-89700001D03*
%TD*%
M02*
