%TF.GenerationSoftware,KiCad,Pcbnew,7.0.1*%
%TF.CreationDate,2023-12-30T18:25:03+00:00*%
%TF.ProjectId,watch_test_rig,77617463-685f-4746-9573-745f7269672e,rev?*%
%TF.SameCoordinates,Original*%
%TF.FileFunction,Copper,L4,Bot*%
%TF.FilePolarity,Positive*%
%FSLAX46Y46*%
G04 Gerber Fmt 4.6, Leading zero omitted, Abs format (unit mm)*
G04 Created by KiCad (PCBNEW 7.0.1) date 2023-12-30 18:25:03*
%MOMM*%
%LPD*%
G01*
G04 APERTURE LIST*
%TA.AperFunction,SMDPad,CuDef*%
%ADD10C,2.000000*%
%TD*%
%TA.AperFunction,ComponentPad*%
%ADD11O,2.000000X0.900000*%
%TD*%
%TA.AperFunction,ComponentPad*%
%ADD12O,1.700000X0.900000*%
%TD*%
%TA.AperFunction,ComponentPad*%
%ADD13C,2.000000*%
%TD*%
%TA.AperFunction,ComponentPad*%
%ADD14C,3.600000*%
%TD*%
%TA.AperFunction,ConnectorPad*%
%ADD15C,5.600000*%
%TD*%
%TA.AperFunction,ComponentPad*%
%ADD16R,1.700000X1.700000*%
%TD*%
%TA.AperFunction,ComponentPad*%
%ADD17O,1.700000X1.700000*%
%TD*%
%TA.AperFunction,ViaPad*%
%ADD18C,0.450000*%
%TD*%
%TA.AperFunction,Conductor*%
%ADD19C,0.450000*%
%TD*%
%TA.AperFunction,Conductor*%
%ADD20C,0.250000*%
%TD*%
%TA.AperFunction,Conductor*%
%ADD21C,1.000000*%
%TD*%
%TA.AperFunction,Conductor*%
%ADD22C,0.150000*%
%TD*%
%TA.AperFunction,Conductor*%
%ADD23C,0.209600*%
%TD*%
G04 APERTURE END LIST*
D10*
%TO.P,PP122,1,1*%
%TO.N,/GPIO3*%
X146001035Y-92289603D03*
%TD*%
%TO.P,PP121,1,1*%
%TO.N,GND*%
X146001035Y-89739603D03*
%TD*%
%TO.P,PP120,1,1*%
%TO.N,GND*%
X165001035Y-103939603D03*
%TD*%
%TO.P,PP119,1,1*%
%TO.N,GND*%
X140001035Y-82789603D03*
%TD*%
%TO.P,PP118,1,1*%
%TO.N,GND*%
X154001035Y-112489603D03*
%TD*%
%TO.P,PP117,1,1*%
%TO.N,+VBAT*%
X168301035Y-79589603D03*
%TD*%
%TO.P,PP116,1,1*%
%TO.N,VBUS*%
X167201035Y-107689603D03*
%TD*%
%TO.P,PP115,1,1*%
%TO.N,/GPIO2*%
X165001035Y-106439603D03*
%TD*%
%TO.P,PP114,1,1*%
%TO.N,+1V8*%
X165001035Y-108939603D03*
%TD*%
%TO.P,PP113,1,1*%
%TO.N,/GPIO1*%
X167201035Y-105189603D03*
%TD*%
%TO.P,PP112,1,1*%
%TO.N,+3V3*%
X162801035Y-107689603D03*
%TD*%
%TO.P,PP111,1,1*%
%TO.N,/USB_DN*%
X162801035Y-105189603D03*
%TD*%
%TO.P,PP110,1,1*%
%TO.N,/USB_DP*%
X162801035Y-102689603D03*
%TD*%
%TO.P,PP109,1,1*%
%TO.N,/NRF_RST*%
X151501035Y-112489603D03*
%TD*%
%TO.P,PP108,1,1*%
%TO.N,/NRF_SWCLK*%
X146501035Y-110989603D03*
%TD*%
%TO.P,PP107,1,1*%
%TO.N,/NRF_SWDIO*%
X149001035Y-111989603D03*
%TD*%
%TO.P,PP106,1,1*%
%TO.N,/STM32_VCP_TX*%
X167201035Y-102689603D03*
%TD*%
%TO.P,PP105,1,1*%
%TO.N,/STM32_VCP_RX*%
X165001035Y-101439603D03*
%TD*%
%TO.P,PP104,1,1*%
%TO.N,/STM32_RST*%
X163351035Y-111189603D03*
%TD*%
%TO.P,PP103,1,1*%
%TO.N,/STM32_SWO*%
X159001035Y-112489603D03*
%TD*%
%TO.P,PP102,1,1*%
%TO.N,/STM32_SWCLK*%
X156501035Y-112489603D03*
%TD*%
%TO.P,PP101,1,1*%
%TO.N,/STM32_SWDIO*%
X160701035Y-110489603D03*
%TD*%
D11*
%TO.P,J103,S1,SHIELD*%
%TO.N,unconnected-(J103-SHIELD-PadS1)*%
X133270000Y-90675000D03*
%TO.P,J103,S2,SHIELD*%
%TO.N,unconnected-(J103-SHIELD-PadS2)*%
X133270000Y-99325000D03*
D12*
%TO.P,J103,S3,SHIELD*%
%TO.N,unconnected-(J103-SHIELD-PadS3)*%
X129100000Y-90675000D03*
%TO.P,J103,S4,SHIELD*%
%TO.N,unconnected-(J103-SHIELD-PadS4)*%
X129100000Y-99325000D03*
%TD*%
D13*
%TO.P,SW102,1,1*%
%TO.N,/STM32_RST*%
X180200000Y-111250000D03*
X173700000Y-111250000D03*
%TO.P,SW102,2,2*%
%TO.N,GND*%
X180200000Y-106750000D03*
X173700000Y-106750000D03*
%TD*%
D14*
%TO.P,H108,1,1*%
%TO.N,GND*%
X180000000Y-120000000D03*
D15*
X180000000Y-120000000D03*
%TD*%
D16*
%TO.P,SW101,1,A*%
%TO.N,VBUS*%
X132080000Y-77470000D03*
D17*
%TO.P,SW101,2,B*%
%TO.N,/VIN*%
X132080000Y-80010000D03*
%TO.P,SW101,3,C*%
%TO.N,unconnected-(SW101-C-Pad3)*%
X132080000Y-82550000D03*
%TD*%
D13*
%TO.P,SW103,1,1*%
%TO.N,/NRF_RST*%
X136250000Y-111250000D03*
X129750000Y-111250000D03*
%TO.P,SW103,2,2*%
%TO.N,GND*%
X136250000Y-106750000D03*
X129750000Y-106750000D03*
%TD*%
D14*
%TO.P,H106,1,1*%
%TO.N,GND*%
X180000000Y-70000000D03*
D15*
X180000000Y-70000000D03*
%TD*%
D16*
%TO.P,J106,1,Pin_1*%
%TO.N,GND*%
X171450000Y-78740000D03*
D17*
%TO.P,J106,2,Pin_2*%
%TO.N,/GPIO1*%
X173990000Y-78740000D03*
%TO.P,J106,3,Pin_3*%
%TO.N,GND*%
X171450000Y-81280000D03*
%TO.P,J106,4,Pin_4*%
%TO.N,/GPIO2*%
X173990000Y-81280000D03*
%TO.P,J106,5,Pin_5*%
%TO.N,GND*%
X171450000Y-83820000D03*
%TO.P,J106,6,Pin_6*%
%TO.N,/GPIO3*%
X173990000Y-83820000D03*
%TD*%
D14*
%TO.P,H107,1,1*%
%TO.N,GND*%
X130000000Y-120000000D03*
D15*
X130000000Y-120000000D03*
%TD*%
D14*
%TO.P,H105,1,1*%
%TO.N,GND*%
X130000000Y-70000000D03*
D15*
X130000000Y-70000000D03*
%TD*%
D16*
%TO.P,J104,1,Pin_1*%
%TO.N,GND*%
X171445000Y-90180000D03*
D17*
%TO.P,J104,2,Pin_2*%
%TO.N,+VBAT*%
X173985000Y-90180000D03*
%TO.P,J104,3,Pin_3*%
%TO.N,GND*%
X171445000Y-92720000D03*
%TO.P,J104,4,Pin_4*%
%TO.N,+1V8*%
X173985000Y-92720000D03*
%TO.P,J104,5,Pin_5*%
%TO.N,GND*%
X171445000Y-95260000D03*
%TO.P,J104,6,Pin_6*%
%TO.N,+3V3*%
X173985000Y-95260000D03*
%TO.P,J104,7,Pin_7*%
%TO.N,GND*%
X171445000Y-97800000D03*
%TO.P,J104,8,Pin_8*%
%TO.N,VBUS*%
X173985000Y-97800000D03*
%TD*%
D18*
%TO.N,GND*%
X154500000Y-102900000D03*
X154500000Y-104900000D03*
X156200000Y-102900000D03*
X156200000Y-104900000D03*
X137900000Y-98200000D03*
X137700000Y-91800000D03*
X136100000Y-95500000D03*
X137700000Y-93700000D03*
X146500000Y-104600000D03*
X157900000Y-104900000D03*
X157900000Y-102900000D03*
X140771574Y-96371572D03*
X139357360Y-94957359D03*
X137943147Y-96371572D03*
X139357360Y-97785786D03*
X140771574Y-99199999D03*
X142185787Y-97785786D03*
X143571573Y-99171573D03*
X144985787Y-100585786D03*
X142157360Y-100585786D03*
X143571573Y-102000000D03*
X144985787Y-103414213D03*
X146400000Y-102000000D03*
X152500000Y-104900000D03*
X150500000Y-104900000D03*
X148500000Y-104900000D03*
X148500000Y-102900000D03*
X150500000Y-102900000D03*
X152500000Y-102900000D03*
%TO.N,+1V8*%
X155500000Y-107950000D03*
%TO.N,GND*%
X150090000Y-97090000D03*
%TO.N,VBUS*%
X157910000Y-97090000D03*
X157910000Y-89090000D03*
X157910000Y-85090000D03*
X158000000Y-77000000D03*
X157910000Y-81090000D03*
%TO.N,/GPIO2*%
X156800000Y-100400000D03*
%TO.N,/GPIO1*%
X169000000Y-105189603D03*
%TO.N,GND*%
X147877500Y-78100000D03*
X175800000Y-103000000D03*
X134300000Y-103000000D03*
%TO.N,/NRF_SWDIO*%
X142460000Y-113140000D03*
%TO.N,/NRF_SWCLK*%
X144600000Y-111000000D03*
%TO.N,/NRF_RST*%
X151451035Y-115050000D03*
%TO.N,/STM32_SWO*%
X160700000Y-112500000D03*
%TO.N,/STM32_SWDIO*%
X161460000Y-113200000D03*
%TO.N,GND*%
X143730000Y-120800000D03*
X147540000Y-120800000D03*
X145000000Y-120800000D03*
X166540000Y-120700000D03*
X162730000Y-120700000D03*
X164000000Y-120700000D03*
%TO.N,/STM32_VCP_RX*%
X166500000Y-100000000D03*
%TO.N,/STM32_VCP_TX*%
X168989603Y-102689603D03*
%TO.N,/STM32_RST*%
X166540000Y-112360000D03*
%TO.N,GND*%
X147877500Y-90077500D03*
X147877500Y-94100000D03*
X147877500Y-82100000D03*
X147877500Y-86077500D03*
%TO.N,/GPIO3*%
X144500000Y-92289603D03*
%TO.N,/STM32_SWCLK*%
X162730000Y-113200000D03*
%TO.N,GND*%
X154001035Y-111100000D03*
X159200000Y-102800000D03*
X165700000Y-102800000D03*
X160400000Y-102800000D03*
X134962500Y-91000000D03*
X164300000Y-102800000D03*
X163639603Y-103939603D03*
X160400000Y-105000000D03*
X141589603Y-82789603D03*
X159200000Y-105000000D03*
X134962500Y-99000000D03*
X166360397Y-103939603D03*
X165700000Y-105100000D03*
X164300000Y-105100000D03*
%TO.N,/USB_DN*%
X159800000Y-104375000D03*
%TO.N,/USB_DP*%
X159800000Y-103425000D03*
%TD*%
D19*
%TO.N,+1V8*%
X153700000Y-104100000D02*
X153700000Y-96463427D01*
X165001035Y-108939603D02*
X164840638Y-109100000D01*
X153700000Y-96463427D02*
X153713427Y-96450000D01*
X153700000Y-104100000D02*
G75*
G03*
X158700000Y-109100000I5000000J0D01*
G01*
X164840638Y-109100000D02*
X158700000Y-109100000D01*
X173364214Y-92035787D02*
X173998427Y-92670000D01*
X158713427Y-91450000D02*
X171950000Y-91450000D01*
X158713427Y-91450027D02*
G75*
G03*
X153713427Y-96450000I-27J-4999973D01*
G01*
X173364214Y-92035787D02*
G75*
G03*
X171950000Y-91450000I-1414214J-1414213D01*
G01*
D20*
%TO.N,/STM32_RST*%
X173700000Y-111250000D02*
X172882893Y-112067107D01*
X172175786Y-112359990D02*
G75*
G03*
X172882893Y-112067107I14J999990D01*
G01*
D21*
%TO.N,+VBAT*%
X173985000Y-90180000D02*
G75*
G03*
X173281487Y-88481487I-2401900J100D01*
G01*
X168301029Y-82258394D02*
G75*
G03*
X169179715Y-84379715I2999971J-6D01*
G01*
D20*
%TO.N,/NRF_SWDIO*%
X147436424Y-113140017D02*
G75*
G03*
X148143531Y-112847107I-24J1000017D01*
G01*
%TO.N,/STM32_SWCLK*%
X161415786Y-114099990D02*
G75*
G03*
X162122893Y-113807107I14J999990D01*
G01*
X157818516Y-113807130D02*
G75*
G03*
X158525646Y-114100000I707084J707130D01*
G01*
%TO.N,/STM32_SWDIO*%
X161459990Y-112174214D02*
G75*
G03*
X161167107Y-111467107I-999990J14D01*
G01*
%TO.N,/STM32_RST*%
X166539997Y-112189603D02*
G75*
G03*
X165540000Y-111189603I-999997J3D01*
G01*
D19*
%TO.N,+3V3*%
X173310801Y-94585773D02*
G75*
G03*
X171896573Y-94000000I-1414201J-1414227D01*
G01*
X158750000Y-94000000D02*
G75*
G03*
X155250000Y-97500000I0J-3500000D01*
G01*
X155249997Y-104189603D02*
G75*
G03*
X158750000Y-107689603I3500003J3D01*
G01*
D22*
%TO.N,/GPIO2*%
X156799997Y-104439603D02*
G75*
G03*
X158800000Y-106439603I2000003J3D01*
G01*
D19*
%TO.N,+3V3*%
X173310787Y-94585787D02*
X173985000Y-95260000D01*
X155250000Y-104189603D02*
X155250000Y-97500000D01*
X158750000Y-94000000D02*
X171896573Y-94000000D01*
X162801035Y-107689603D02*
X158750000Y-107689603D01*
D22*
%TO.N,/GPIO2*%
X158800000Y-106439603D02*
X165001035Y-106439603D01*
X156800000Y-100400000D02*
X156800000Y-104439603D01*
D21*
%TO.N,+VBAT*%
X169179715Y-84379715D02*
X173281487Y-88481487D01*
X168301035Y-79589603D02*
X168301035Y-82258394D01*
D22*
%TO.N,/GPIO1*%
X169000000Y-105189603D02*
X167201035Y-105189603D01*
D20*
%TO.N,/STM32_RST*%
X172175786Y-112360000D02*
X166540000Y-112360000D01*
%TO.N,/NRF_SWDIO*%
X148143531Y-112847107D02*
X149001035Y-111989603D01*
X142460000Y-113140000D02*
X147436424Y-113140000D01*
%TO.N,/NRF_SWCLK*%
X144600000Y-111000000D02*
X146490638Y-111000000D01*
X146490638Y-111000000D02*
X146501035Y-110989603D01*
%TO.N,/NRF_RST*%
X151501035Y-115000000D02*
X151501035Y-112489603D01*
X151451035Y-115050000D02*
X151501035Y-115000000D01*
%TO.N,/STM32_SWCLK*%
X156501035Y-112489603D02*
X157818539Y-113807107D01*
X158525646Y-114100000D02*
X161415786Y-114100000D01*
X162122893Y-113807107D02*
X162730000Y-113200000D01*
%TO.N,/STM32_SWDIO*%
X160701035Y-111001035D02*
X160701035Y-110489603D01*
X161167107Y-111467107D02*
X160701035Y-111001035D01*
X161460000Y-113200000D02*
X161460000Y-112174214D01*
%TO.N,/STM32_SWO*%
X159011432Y-112500000D02*
X159001035Y-112489603D01*
X160700000Y-112500000D02*
X159011432Y-112500000D01*
%TO.N,/STM32_RST*%
X165540000Y-111189603D02*
X163351035Y-111189603D01*
X166540000Y-112360000D02*
X166540000Y-112189603D01*
%TO.N,/STM32_VCP_RX*%
X166440638Y-100000000D02*
X165001035Y-101439603D01*
X166500000Y-100000000D02*
X166440638Y-100000000D01*
%TO.N,/STM32_VCP_TX*%
X168989603Y-102689603D02*
X167201035Y-102689603D01*
%TO.N,GND*%
X147539603Y-89739603D02*
X147877500Y-90077500D01*
X146001035Y-89739603D02*
X147539603Y-89739603D01*
%TO.N,/GPIO3*%
X144500000Y-92289603D02*
X146001035Y-92289603D01*
%TO.N,GND*%
X154001035Y-111100000D02*
X154001035Y-112489603D01*
X165700000Y-105100000D02*
X165001035Y-104401035D01*
X165700000Y-102800000D02*
X165001035Y-103498965D01*
X164300000Y-105100000D02*
X165001035Y-104398965D01*
X166360397Y-103939603D02*
X165001035Y-103939603D01*
X165001035Y-104401035D02*
X165001035Y-103939603D01*
X165001035Y-104398965D02*
X165001035Y-103939603D01*
X165001035Y-103498965D02*
X165001035Y-103939603D01*
X141589603Y-82789603D02*
X140001035Y-82789603D01*
X164300000Y-102800000D02*
X165001035Y-103501035D01*
X165001035Y-103501035D02*
X165001035Y-103939603D01*
X163639603Y-103939603D02*
X165001035Y-103939603D01*
D23*
%TO.N,/USB_DN*%
X160095200Y-104079800D02*
X159800000Y-104375000D01*
X161691232Y-104079800D02*
X160095200Y-104079800D01*
X162801035Y-105189603D02*
X161691232Y-104079800D01*
%TO.N,/USB_DP*%
X161770438Y-103720200D02*
X160095200Y-103720200D01*
X162801035Y-102689603D02*
X161770438Y-103720200D01*
X160095200Y-103720200D02*
X159800000Y-103425000D01*
%TD*%
%TA.AperFunction,Conductor*%
%TO.N,VBUS*%
G36*
X178534604Y-67316453D02*
G01*
X178560712Y-67357433D01*
X178555775Y-67405772D01*
X178525257Y-67437191D01*
X178525851Y-67438094D01*
X178522252Y-67440460D01*
X178522250Y-67440462D01*
X178410150Y-67514191D01*
X178235094Y-67629327D01*
X177971817Y-67850242D01*
X177735954Y-68100242D01*
X177530716Y-68375925D01*
X177358868Y-68673574D01*
X177222736Y-68989162D01*
X177124167Y-69318410D01*
X177064484Y-69656887D01*
X177044500Y-70000000D01*
X177064484Y-70343112D01*
X177124167Y-70681589D01*
X177222736Y-71010837D01*
X177358868Y-71326425D01*
X177530716Y-71624074D01*
X177735954Y-71899757D01*
X177971817Y-72149757D01*
X178235094Y-72370672D01*
X178235098Y-72370675D01*
X178522250Y-72559538D01*
X178829386Y-72713788D01*
X179152353Y-72831338D01*
X179486783Y-72910599D01*
X179828153Y-72950500D01*
X180171844Y-72950500D01*
X180171847Y-72950500D01*
X180513217Y-72910599D01*
X180847647Y-72831338D01*
X181170614Y-72713788D01*
X181477750Y-72559538D01*
X181764902Y-72370675D01*
X182028187Y-72149753D01*
X182264044Y-71899759D01*
X182469284Y-71624074D01*
X182561414Y-71464499D01*
X182597181Y-71433133D01*
X182644653Y-71430021D01*
X182684208Y-71456452D01*
X182699500Y-71501500D01*
X182699500Y-118498500D01*
X182684208Y-118543548D01*
X182644653Y-118569979D01*
X182597181Y-118566867D01*
X182561414Y-118535500D01*
X182469283Y-118375925D01*
X182264045Y-118100242D01*
X182028182Y-117850242D01*
X181764905Y-117629327D01*
X181477750Y-117440462D01*
X181170610Y-117286210D01*
X180847648Y-117168662D01*
X180513222Y-117089402D01*
X180513220Y-117089401D01*
X180513217Y-117089401D01*
X180171847Y-117049500D01*
X179828153Y-117049500D01*
X179486783Y-117089401D01*
X179486780Y-117089401D01*
X179486777Y-117089402D01*
X179152351Y-117168662D01*
X178829389Y-117286210D01*
X178522249Y-117440462D01*
X178235094Y-117629327D01*
X177971817Y-117850242D01*
X177735954Y-118100242D01*
X177530716Y-118375925D01*
X177358868Y-118673574D01*
X177222736Y-118989162D01*
X177124167Y-119318410D01*
X177124166Y-119318415D01*
X177064484Y-119656887D01*
X177044500Y-120000000D01*
X177064484Y-120343113D01*
X177104803Y-120571774D01*
X177124167Y-120681589D01*
X177222736Y-121010837D01*
X177358868Y-121326425D01*
X177530716Y-121624074D01*
X177735954Y-121899757D01*
X177971817Y-122149757D01*
X178194975Y-122337008D01*
X178235098Y-122370675D01*
X178522250Y-122559538D01*
X178522252Y-122559539D01*
X178525851Y-122561906D01*
X178525257Y-122562808D01*
X178555775Y-122594228D01*
X178560712Y-122642567D01*
X178534604Y-122683547D01*
X178488707Y-122699500D01*
X131511293Y-122699500D01*
X131465396Y-122683547D01*
X131439288Y-122642567D01*
X131444225Y-122594228D01*
X131474742Y-122562808D01*
X131474149Y-122561906D01*
X131477747Y-122559539D01*
X131477750Y-122559538D01*
X131764902Y-122370675D01*
X132028187Y-122149753D01*
X132264044Y-121899759D01*
X132469284Y-121624074D01*
X132641131Y-121326426D01*
X132777262Y-121010841D01*
X132840383Y-120799999D01*
X143274867Y-120799999D01*
X143293302Y-120928225D01*
X143347117Y-121046062D01*
X143347118Y-121046063D01*
X143431951Y-121143967D01*
X143540931Y-121214004D01*
X143665228Y-121250500D01*
X143794770Y-121250500D01*
X143794772Y-121250500D01*
X143919069Y-121214004D01*
X144028049Y-121143967D01*
X144112882Y-121046063D01*
X144166697Y-120928226D01*
X144185133Y-120800000D01*
X144185133Y-120799999D01*
X144544867Y-120799999D01*
X144563302Y-120928225D01*
X144617117Y-121046062D01*
X144617118Y-121046063D01*
X144701951Y-121143967D01*
X144810931Y-121214004D01*
X144935228Y-121250500D01*
X145064770Y-121250500D01*
X145064772Y-121250500D01*
X145189069Y-121214004D01*
X145298049Y-121143967D01*
X145382882Y-121046063D01*
X145436697Y-120928226D01*
X145455133Y-120800000D01*
X145455133Y-120799999D01*
X147084867Y-120799999D01*
X147103302Y-120928225D01*
X147157117Y-121046062D01*
X147157118Y-121046063D01*
X147241951Y-121143967D01*
X147350931Y-121214004D01*
X147475228Y-121250500D01*
X147604770Y-121250500D01*
X147604772Y-121250500D01*
X147729069Y-121214004D01*
X147838049Y-121143967D01*
X147922882Y-121046063D01*
X147976697Y-120928226D01*
X147995133Y-120800000D01*
X147980755Y-120699999D01*
X162274867Y-120699999D01*
X162293302Y-120828225D01*
X162347117Y-120946062D01*
X162347118Y-120946063D01*
X162431951Y-121043967D01*
X162540931Y-121114004D01*
X162665228Y-121150500D01*
X162794770Y-121150500D01*
X162794772Y-121150500D01*
X162919069Y-121114004D01*
X163028049Y-121043967D01*
X163112882Y-120946063D01*
X163166697Y-120828226D01*
X163185133Y-120700000D01*
X163185133Y-120699999D01*
X163544867Y-120699999D01*
X163563302Y-120828225D01*
X163617117Y-120946062D01*
X163617118Y-120946063D01*
X163701951Y-121043967D01*
X163810931Y-121114004D01*
X163935228Y-121150500D01*
X164064770Y-121150500D01*
X164064772Y-121150500D01*
X164189069Y-121114004D01*
X164298049Y-121043967D01*
X164382882Y-120946063D01*
X164436697Y-120828226D01*
X164455133Y-120700000D01*
X164455133Y-120699999D01*
X166084867Y-120699999D01*
X166103302Y-120828225D01*
X166157117Y-120946062D01*
X166157118Y-120946063D01*
X166241951Y-121043967D01*
X166350931Y-121114004D01*
X166475228Y-121150500D01*
X166604770Y-121150500D01*
X166604772Y-121150500D01*
X166729069Y-121114004D01*
X166838049Y-121043967D01*
X166922882Y-120946063D01*
X166976697Y-120828226D01*
X166995133Y-120700000D01*
X166976697Y-120571774D01*
X166922882Y-120453937D01*
X166838049Y-120356033D01*
X166729069Y-120285996D01*
X166604772Y-120249500D01*
X166475228Y-120249500D01*
X166350931Y-120285995D01*
X166350931Y-120285996D01*
X166241951Y-120356033D01*
X166157117Y-120453937D01*
X166103302Y-120571774D01*
X166084867Y-120699999D01*
X164455133Y-120699999D01*
X164436697Y-120571774D01*
X164382882Y-120453937D01*
X164298049Y-120356033D01*
X164189069Y-120285996D01*
X164064772Y-120249500D01*
X163935228Y-120249500D01*
X163810931Y-120285995D01*
X163810931Y-120285996D01*
X163701951Y-120356033D01*
X163617117Y-120453937D01*
X163563302Y-120571774D01*
X163544867Y-120699999D01*
X163185133Y-120699999D01*
X163166697Y-120571774D01*
X163112882Y-120453937D01*
X163028049Y-120356033D01*
X162919069Y-120285996D01*
X162794772Y-120249500D01*
X162665228Y-120249500D01*
X162540931Y-120285995D01*
X162540931Y-120285996D01*
X162431951Y-120356033D01*
X162347117Y-120453937D01*
X162293302Y-120571774D01*
X162274867Y-120699999D01*
X147980755Y-120699999D01*
X147976697Y-120671774D01*
X147922882Y-120553937D01*
X147838049Y-120456033D01*
X147729069Y-120385996D01*
X147604772Y-120349500D01*
X147475228Y-120349500D01*
X147350931Y-120385995D01*
X147350931Y-120385996D01*
X147241951Y-120456033D01*
X147157117Y-120553937D01*
X147103302Y-120671774D01*
X147084867Y-120799999D01*
X145455133Y-120799999D01*
X145436697Y-120671774D01*
X145382882Y-120553937D01*
X145298049Y-120456033D01*
X145189069Y-120385996D01*
X145064772Y-120349500D01*
X144935228Y-120349500D01*
X144810931Y-120385995D01*
X144810931Y-120385996D01*
X144701951Y-120456033D01*
X144617117Y-120553937D01*
X144563302Y-120671774D01*
X144544867Y-120799999D01*
X144185133Y-120799999D01*
X144166697Y-120671774D01*
X144112882Y-120553937D01*
X144028049Y-120456033D01*
X143919069Y-120385996D01*
X143794772Y-120349500D01*
X143665228Y-120349500D01*
X143540931Y-120385995D01*
X143540931Y-120385996D01*
X143431951Y-120456033D01*
X143347117Y-120553937D01*
X143293302Y-120671774D01*
X143274867Y-120799999D01*
X132840383Y-120799999D01*
X132875834Y-120681585D01*
X132935516Y-120343113D01*
X132955500Y-120000000D01*
X132935516Y-119656887D01*
X132875834Y-119318415D01*
X132777262Y-118989159D01*
X132641131Y-118673574D01*
X132469284Y-118375926D01*
X132264044Y-118100241D01*
X132028187Y-117850247D01*
X132028185Y-117850245D01*
X132028182Y-117850242D01*
X131764905Y-117629327D01*
X131477750Y-117440462D01*
X131170610Y-117286210D01*
X130847648Y-117168662D01*
X130513222Y-117089402D01*
X130513220Y-117089401D01*
X130513217Y-117089401D01*
X130171847Y-117049500D01*
X129828153Y-117049500D01*
X129486783Y-117089401D01*
X129486780Y-117089401D01*
X129486777Y-117089402D01*
X129152351Y-117168662D01*
X128829389Y-117286210D01*
X128522249Y-117440462D01*
X128235094Y-117629327D01*
X127971817Y-117850242D01*
X127735954Y-118100242D01*
X127530716Y-118375925D01*
X127438586Y-118535500D01*
X127402819Y-118566867D01*
X127355347Y-118569979D01*
X127315792Y-118543548D01*
X127300500Y-118498500D01*
X127300500Y-113139999D01*
X142004867Y-113139999D01*
X142023302Y-113268225D01*
X142077117Y-113386062D01*
X142077118Y-113386063D01*
X142161951Y-113483967D01*
X142270931Y-113554004D01*
X142395228Y-113590500D01*
X142524770Y-113590500D01*
X142524772Y-113590500D01*
X142649069Y-113554004D01*
X142758049Y-113483967D01*
X142795246Y-113441038D01*
X142820429Y-113422187D01*
X142851170Y-113415500D01*
X147387850Y-113415500D01*
X147387853Y-113415501D01*
X147405763Y-113415500D01*
X147405850Y-113415517D01*
X147436431Y-113415517D01*
X147536815Y-113415515D01*
X147735111Y-113384103D01*
X147926053Y-113322058D01*
X148104937Y-113230907D01*
X148267361Y-113112895D01*
X148319152Y-113061102D01*
X148319153Y-113061102D01*
X148364489Y-113015765D01*
X148408287Y-112994583D01*
X148455771Y-113005174D01*
X148486016Y-113023901D01*
X148684837Y-113100924D01*
X148894425Y-113140103D01*
X149107644Y-113140103D01*
X149107645Y-113140103D01*
X149317233Y-113100924D01*
X149516054Y-113023901D01*
X149697337Y-112911655D01*
X149854907Y-112768010D01*
X149983401Y-112597858D01*
X149983400Y-112597858D01*
X149983402Y-112597857D01*
X150037305Y-112489603D01*
X150345605Y-112489603D01*
X150365278Y-112701912D01*
X150423629Y-112906992D01*
X150518667Y-113097857D01*
X150619144Y-113230907D01*
X150647163Y-113268010D01*
X150804733Y-113411655D01*
X150986016Y-113523901D01*
X151129263Y-113579395D01*
X151178267Y-113598379D01*
X151212585Y-113625562D01*
X151225535Y-113667382D01*
X151225535Y-114619002D01*
X151216483Y-114654467D01*
X151191542Y-114681255D01*
X151152985Y-114706032D01*
X151068153Y-114803935D01*
X151014337Y-114921774D01*
X150995902Y-115049999D01*
X151014337Y-115178225D01*
X151068152Y-115296062D01*
X151068153Y-115296063D01*
X151152986Y-115393967D01*
X151261966Y-115464004D01*
X151386263Y-115500500D01*
X151515805Y-115500500D01*
X151515807Y-115500500D01*
X151640104Y-115464004D01*
X151749084Y-115393967D01*
X151833917Y-115296063D01*
X151887732Y-115178226D01*
X151906168Y-115050000D01*
X151887732Y-114921774D01*
X151833917Y-114803937D01*
X151833916Y-114803936D01*
X151833916Y-114803935D01*
X151794610Y-114758574D01*
X151781201Y-114735974D01*
X151776535Y-114710114D01*
X151776535Y-113667382D01*
X151789485Y-113625562D01*
X151823803Y-113598379D01*
X151857111Y-113585475D01*
X152016054Y-113523901D01*
X152197337Y-113411655D01*
X152354907Y-113268010D01*
X152472044Y-113112897D01*
X152483402Y-113097857D01*
X152578440Y-112906992D01*
X152594487Y-112850592D01*
X152636791Y-112701913D01*
X152656464Y-112489603D01*
X152845605Y-112489603D01*
X152865278Y-112701912D01*
X152923629Y-112906992D01*
X153018667Y-113097857D01*
X153119144Y-113230907D01*
X153147163Y-113268010D01*
X153304733Y-113411655D01*
X153486016Y-113523901D01*
X153684837Y-113600924D01*
X153894425Y-113640103D01*
X154107644Y-113640103D01*
X154107645Y-113640103D01*
X154317233Y-113600924D01*
X154516054Y-113523901D01*
X154697337Y-113411655D01*
X154854907Y-113268010D01*
X154972044Y-113112897D01*
X154983402Y-113097857D01*
X155078440Y-112906992D01*
X155094487Y-112850592D01*
X155136791Y-112701913D01*
X155156464Y-112489603D01*
X155345605Y-112489603D01*
X155365278Y-112701912D01*
X155423629Y-112906992D01*
X155518667Y-113097857D01*
X155619144Y-113230907D01*
X155647163Y-113268010D01*
X155804733Y-113411655D01*
X155986016Y-113523901D01*
X156184837Y-113600924D01*
X156394425Y-113640103D01*
X156607644Y-113640103D01*
X156607645Y-113640103D01*
X156817233Y-113600924D01*
X157016054Y-113523901D01*
X157046296Y-113505175D01*
X157093781Y-113494583D01*
X157137580Y-113515764D01*
X157580892Y-113959076D01*
X157580902Y-113959090D01*
X157602377Y-113980563D01*
X157602470Y-113980701D01*
X157694700Y-114072925D01*
X157812704Y-114158654D01*
X157857132Y-114190930D01*
X158036024Y-114282071D01*
X158226972Y-114344105D01*
X158425273Y-114375504D01*
X158525659Y-114375500D01*
X161415782Y-114375500D01*
X161442919Y-114375500D01*
X161450498Y-114375500D01*
X161450592Y-114375490D01*
X161516166Y-114375491D01*
X161714462Y-114344087D01*
X161905404Y-114282049D01*
X162084290Y-114190904D01*
X162246716Y-114072898D01*
X162298513Y-114021102D01*
X162298515Y-114021101D01*
X162647442Y-113672174D01*
X162671449Y-113656133D01*
X162699768Y-113650500D01*
X162794770Y-113650500D01*
X162794772Y-113650500D01*
X162919069Y-113614004D01*
X163028049Y-113543967D01*
X163112882Y-113446063D01*
X163166697Y-113328226D01*
X163185133Y-113200000D01*
X163166697Y-113071774D01*
X163112882Y-112953937D01*
X163028049Y-112856033D01*
X162919069Y-112785996D01*
X162794772Y-112749500D01*
X162665228Y-112749500D01*
X162553904Y-112782187D01*
X162540931Y-112785996D01*
X162431951Y-112856033D01*
X162347117Y-112953937D01*
X162293302Y-113071774D01*
X162274866Y-113200002D01*
X162277830Y-113220619D01*
X162274796Y-113254517D01*
X162256909Y-113283473D01*
X161939460Y-113600924D01*
X161939457Y-113600927D01*
X161930650Y-113609733D01*
X161925271Y-113614607D01*
X161823936Y-113697768D01*
X161811875Y-113705827D01*
X161699467Y-113765909D01*
X161686064Y-113771461D01*
X161564106Y-113808455D01*
X161549878Y-113811285D01*
X161419307Y-113824143D01*
X161412055Y-113824499D01*
X161355207Y-113824499D01*
X161355201Y-113824500D01*
X158588468Y-113824500D01*
X158588453Y-113824497D01*
X158529268Y-113824499D01*
X158522015Y-113824143D01*
X158391542Y-113811299D01*
X158377314Y-113808469D01*
X158255343Y-113771475D01*
X158241940Y-113765924D01*
X158129538Y-113705849D01*
X158117476Y-113697790D01*
X158016389Y-113614836D01*
X158011006Y-113609958D01*
X157526203Y-113125155D01*
X157505494Y-113084743D01*
X157512286Y-113039847D01*
X157578440Y-112906992D01*
X157636791Y-112701913D01*
X157656464Y-112489603D01*
X157636791Y-112277293D01*
X157599728Y-112147032D01*
X157578440Y-112072213D01*
X157483402Y-111881348D01*
X157354909Y-111711199D01*
X157354907Y-111711196D01*
X157197337Y-111567551D01*
X157016054Y-111455305D01*
X156817233Y-111378282D01*
X156607645Y-111339103D01*
X156394425Y-111339103D01*
X156289746Y-111358671D01*
X156184836Y-111378282D01*
X155986015Y-111455305D01*
X155804736Y-111567549D01*
X155804733Y-111567551D01*
X155676342Y-111684596D01*
X155647160Y-111711199D01*
X155518667Y-111881348D01*
X155423629Y-112072213D01*
X155365278Y-112277293D01*
X155345605Y-112489603D01*
X155156464Y-112489603D01*
X155136791Y-112277293D01*
X155099728Y-112147032D01*
X155078440Y-112072213D01*
X154983402Y-111881348D01*
X154854909Y-111711199D01*
X154854907Y-111711196D01*
X154697337Y-111567551D01*
X154516054Y-111455305D01*
X154434574Y-111423739D01*
X154402757Y-111399990D01*
X154387794Y-111363213D01*
X154393995Y-111323995D01*
X154404479Y-111301040D01*
X154413089Y-111282187D01*
X154437732Y-111228227D01*
X154443285Y-111189603D01*
X154456168Y-111100000D01*
X154437732Y-110971774D01*
X154383917Y-110853937D01*
X154299084Y-110756033D01*
X154190104Y-110685996D01*
X154065807Y-110649500D01*
X153936263Y-110649500D01*
X153811966Y-110685995D01*
X153811966Y-110685996D01*
X153702986Y-110756033D01*
X153618152Y-110853937D01*
X153564337Y-110971774D01*
X153545902Y-111100000D01*
X153564337Y-111228225D01*
X153608075Y-111323995D01*
X153614275Y-111363212D01*
X153599313Y-111399989D01*
X153567495Y-111423739D01*
X153486014Y-111455305D01*
X153304736Y-111567549D01*
X153304733Y-111567551D01*
X153176342Y-111684596D01*
X153147160Y-111711199D01*
X153018667Y-111881348D01*
X152923629Y-112072213D01*
X152865278Y-112277293D01*
X152845605Y-112489603D01*
X152656464Y-112489603D01*
X152636791Y-112277293D01*
X152599728Y-112147032D01*
X152578440Y-112072213D01*
X152483402Y-111881348D01*
X152354909Y-111711199D01*
X152354907Y-111711196D01*
X152197337Y-111567551D01*
X152016054Y-111455305D01*
X151817233Y-111378282D01*
X151607645Y-111339103D01*
X151394425Y-111339103D01*
X151289746Y-111358671D01*
X151184836Y-111378282D01*
X150986015Y-111455305D01*
X150804736Y-111567549D01*
X150804733Y-111567551D01*
X150676342Y-111684596D01*
X150647160Y-111711199D01*
X150518667Y-111881348D01*
X150423629Y-112072213D01*
X150365278Y-112277293D01*
X150345605Y-112489603D01*
X150037305Y-112489603D01*
X150078440Y-112406992D01*
X150121692Y-112254980D01*
X150136791Y-112201913D01*
X150156464Y-111989603D01*
X150136791Y-111777293D01*
X150117985Y-111711199D01*
X150078440Y-111572213D01*
X149983402Y-111381348D01*
X149867768Y-111228227D01*
X149854907Y-111211196D01*
X149697337Y-111067551D01*
X149516054Y-110955305D01*
X149317233Y-110878282D01*
X149107645Y-110839103D01*
X148894425Y-110839103D01*
X148815071Y-110853937D01*
X148684836Y-110878282D01*
X148486015Y-110955305D01*
X148352960Y-111037690D01*
X148304733Y-111067551D01*
X148157347Y-111201912D01*
X148147160Y-111211199D01*
X148018667Y-111381348D01*
X147923629Y-111572213D01*
X147865278Y-111777293D01*
X147845605Y-111989603D01*
X147865278Y-112201912D01*
X147923629Y-112406993D01*
X147989781Y-112539845D01*
X147996574Y-112584742D01*
X147975866Y-112625154D01*
X147951289Y-112649732D01*
X147945908Y-112654609D01*
X147844563Y-112737783D01*
X147832501Y-112745843D01*
X147720100Y-112805925D01*
X147706698Y-112811476D01*
X147584734Y-112848476D01*
X147570508Y-112851306D01*
X147461664Y-112862029D01*
X147440212Y-112864143D01*
X147432959Y-112864500D01*
X142851170Y-112864500D01*
X142820429Y-112857813D01*
X142795246Y-112838961D01*
X142758049Y-112796033D01*
X142649069Y-112725996D01*
X142524772Y-112689500D01*
X142395228Y-112689500D01*
X142270930Y-112725996D01*
X142270931Y-112725996D01*
X142161951Y-112796033D01*
X142077117Y-112893937D01*
X142023302Y-113011774D01*
X142004867Y-113139999D01*
X127300500Y-113139999D01*
X127300500Y-111249999D01*
X128594570Y-111249999D01*
X128614243Y-111462309D01*
X128672594Y-111667389D01*
X128767632Y-111858254D01*
X128887526Y-112017016D01*
X128896128Y-112028407D01*
X129053698Y-112172052D01*
X129234981Y-112284298D01*
X129433802Y-112361321D01*
X129643390Y-112400500D01*
X129856609Y-112400500D01*
X129856610Y-112400500D01*
X130066198Y-112361321D01*
X130265019Y-112284298D01*
X130446302Y-112172052D01*
X130603872Y-112028407D01*
X130732366Y-111858255D01*
X130732365Y-111858255D01*
X130732367Y-111858254D01*
X130827405Y-111667389D01*
X130838947Y-111626825D01*
X130885756Y-111462310D01*
X130905429Y-111250000D01*
X130905429Y-111249999D01*
X135094570Y-111249999D01*
X135114243Y-111462309D01*
X135172594Y-111667389D01*
X135267632Y-111858254D01*
X135387526Y-112017016D01*
X135396128Y-112028407D01*
X135553698Y-112172052D01*
X135734981Y-112284298D01*
X135933802Y-112361321D01*
X136143390Y-112400500D01*
X136356609Y-112400500D01*
X136356610Y-112400500D01*
X136566198Y-112361321D01*
X136765019Y-112284298D01*
X136946302Y-112172052D01*
X137103872Y-112028407D01*
X137232366Y-111858255D01*
X137232365Y-111858255D01*
X137232367Y-111858254D01*
X137327405Y-111667389D01*
X137338947Y-111626825D01*
X137385756Y-111462310D01*
X137405429Y-111250000D01*
X137385756Y-111037690D01*
X137375032Y-111000000D01*
X144144867Y-111000000D01*
X144163302Y-111128225D01*
X144217117Y-111246062D01*
X144220529Y-111250000D01*
X144301951Y-111343967D01*
X144410931Y-111414004D01*
X144535228Y-111450500D01*
X144664770Y-111450500D01*
X144664772Y-111450500D01*
X144789069Y-111414004D01*
X144898049Y-111343967D01*
X144935246Y-111301038D01*
X144960429Y-111282187D01*
X144991170Y-111275500D01*
X145330335Y-111275500D01*
X145374930Y-111290447D01*
X145401510Y-111329249D01*
X145423629Y-111406993D01*
X145518667Y-111597857D01*
X145604261Y-111711199D01*
X145647163Y-111768010D01*
X145804733Y-111911655D01*
X145986016Y-112023901D01*
X146184837Y-112100924D01*
X146394425Y-112140103D01*
X146607644Y-112140103D01*
X146607645Y-112140103D01*
X146817233Y-112100924D01*
X147016054Y-112023901D01*
X147197337Y-111911655D01*
X147354907Y-111768010D01*
X147481086Y-111600924D01*
X147483402Y-111597857D01*
X147578440Y-111406992D01*
X147617985Y-111268009D01*
X147636791Y-111201913D01*
X147656464Y-110989603D01*
X147636791Y-110777293D01*
X147598224Y-110641745D01*
X147578440Y-110572213D01*
X147483402Y-110381348D01*
X147354909Y-110211199D01*
X147354907Y-110211196D01*
X147197337Y-110067551D01*
X147016054Y-109955305D01*
X146817233Y-109878282D01*
X146607645Y-109839103D01*
X146394425Y-109839103D01*
X146289630Y-109858692D01*
X146184836Y-109878282D01*
X145986015Y-109955305D01*
X145850678Y-110039103D01*
X145804733Y-110067551D01*
X145647163Y-110211196D01*
X145647160Y-110211199D01*
X145518667Y-110381348D01*
X145423629Y-110572213D01*
X145395593Y-110670751D01*
X145369013Y-110709553D01*
X145324418Y-110724500D01*
X144991170Y-110724500D01*
X144960429Y-110717813D01*
X144935246Y-110698961D01*
X144898049Y-110656033D01*
X144789069Y-110585996D01*
X144664772Y-110549500D01*
X144535228Y-110549500D01*
X144426761Y-110581348D01*
X144410931Y-110585996D01*
X144301951Y-110656033D01*
X144217117Y-110753937D01*
X144163302Y-110871774D01*
X144144867Y-111000000D01*
X137375032Y-111000000D01*
X137327405Y-110832611D01*
X137327405Y-110832610D01*
X137232367Y-110641745D01*
X137103874Y-110471596D01*
X137103872Y-110471593D01*
X136946302Y-110327948D01*
X136765019Y-110215702D01*
X136566198Y-110138679D01*
X136356610Y-110099500D01*
X136143390Y-110099500D01*
X136038595Y-110119089D01*
X135933801Y-110138679D01*
X135734980Y-110215702D01*
X135651245Y-110267549D01*
X135553698Y-110327948D01*
X135462380Y-110411196D01*
X135396125Y-110471596D01*
X135267632Y-110641745D01*
X135172594Y-110832610D01*
X135114243Y-111037690D01*
X135094570Y-111249999D01*
X130905429Y-111249999D01*
X130885756Y-111037690D01*
X130827405Y-110832611D01*
X130827405Y-110832610D01*
X130732367Y-110641745D01*
X130603874Y-110471596D01*
X130603872Y-110471593D01*
X130446302Y-110327948D01*
X130265019Y-110215702D01*
X130066198Y-110138679D01*
X129856610Y-110099500D01*
X129643390Y-110099500D01*
X129538595Y-110119089D01*
X129433801Y-110138679D01*
X129234980Y-110215702D01*
X129151245Y-110267549D01*
X129053698Y-110327948D01*
X128962380Y-110411196D01*
X128896125Y-110471596D01*
X128767632Y-110641745D01*
X128672594Y-110832610D01*
X128614243Y-111037690D01*
X128594570Y-111249999D01*
X127300500Y-111249999D01*
X127300500Y-106750000D01*
X128594570Y-106750000D01*
X128614243Y-106962309D01*
X128672594Y-107167389D01*
X128767632Y-107358254D01*
X128880080Y-107507156D01*
X128896128Y-107528407D01*
X129053698Y-107672052D01*
X129234981Y-107784298D01*
X129433802Y-107861321D01*
X129643390Y-107900500D01*
X129856609Y-107900500D01*
X129856610Y-107900500D01*
X130066198Y-107861321D01*
X130265019Y-107784298D01*
X130446302Y-107672052D01*
X130603872Y-107528407D01*
X130707508Y-107391171D01*
X130732367Y-107358254D01*
X130827405Y-107167389D01*
X130853706Y-107074952D01*
X130885756Y-106962310D01*
X130905429Y-106750000D01*
X135094570Y-106750000D01*
X135114243Y-106962309D01*
X135172594Y-107167389D01*
X135267632Y-107358254D01*
X135380080Y-107507156D01*
X135396128Y-107528407D01*
X135553698Y-107672052D01*
X135734981Y-107784298D01*
X135933802Y-107861321D01*
X136143390Y-107900500D01*
X136356609Y-107900500D01*
X136356610Y-107900500D01*
X136566198Y-107861321D01*
X136765019Y-107784298D01*
X136946302Y-107672052D01*
X137103872Y-107528407D01*
X137207508Y-107391171D01*
X137232367Y-107358254D01*
X137327405Y-107167389D01*
X137353706Y-107074952D01*
X137385756Y-106962310D01*
X137405429Y-106750000D01*
X137385756Y-106537690D01*
X137364481Y-106462916D01*
X137327405Y-106332610D01*
X137232367Y-106141745D01*
X137103874Y-105971596D01*
X137103872Y-105971593D01*
X136946302Y-105827948D01*
X136765019Y-105715702D01*
X136566198Y-105638679D01*
X136356610Y-105599500D01*
X136143390Y-105599500D01*
X136068882Y-105613428D01*
X135933801Y-105638679D01*
X135734980Y-105715702D01*
X135553701Y-105827946D01*
X135553698Y-105827948D01*
X135396128Y-105971593D01*
X135396125Y-105971596D01*
X135267632Y-106141745D01*
X135172594Y-106332610D01*
X135114243Y-106537690D01*
X135094570Y-106750000D01*
X130905429Y-106750000D01*
X130885756Y-106537690D01*
X130864481Y-106462916D01*
X130827405Y-106332610D01*
X130732367Y-106141745D01*
X130603874Y-105971596D01*
X130603872Y-105971593D01*
X130446302Y-105827948D01*
X130265019Y-105715702D01*
X130066198Y-105638679D01*
X129856610Y-105599500D01*
X129643390Y-105599500D01*
X129568882Y-105613428D01*
X129433801Y-105638679D01*
X129234980Y-105715702D01*
X129053701Y-105827946D01*
X129053698Y-105827948D01*
X128896128Y-105971593D01*
X128896125Y-105971596D01*
X128767632Y-106141745D01*
X128672594Y-106332610D01*
X128614243Y-106537690D01*
X128594570Y-106750000D01*
X127300500Y-106750000D01*
X127300500Y-104600000D01*
X146044867Y-104600000D01*
X146063302Y-104728225D01*
X146117117Y-104846062D01*
X146117118Y-104846063D01*
X146201951Y-104943967D01*
X146310931Y-105014004D01*
X146435228Y-105050500D01*
X146564770Y-105050500D01*
X146564772Y-105050500D01*
X146689069Y-105014004D01*
X146798049Y-104943967D01*
X146836146Y-104900000D01*
X148044867Y-104900000D01*
X148063302Y-105028225D01*
X148117117Y-105146062D01*
X148117118Y-105146063D01*
X148201951Y-105243967D01*
X148310931Y-105314004D01*
X148435228Y-105350500D01*
X148564770Y-105350500D01*
X148564772Y-105350500D01*
X148689069Y-105314004D01*
X148798049Y-105243967D01*
X148882882Y-105146063D01*
X148936697Y-105028226D01*
X148955133Y-104900000D01*
X148955133Y-104899999D01*
X150044867Y-104899999D01*
X150063302Y-105028225D01*
X150117117Y-105146062D01*
X150117118Y-105146063D01*
X150201951Y-105243967D01*
X150310931Y-105314004D01*
X150435228Y-105350500D01*
X150564770Y-105350500D01*
X150564772Y-105350500D01*
X150689069Y-105314004D01*
X150798049Y-105243967D01*
X150882882Y-105146063D01*
X150936697Y-105028226D01*
X150955133Y-104900000D01*
X150955133Y-104899999D01*
X152044867Y-104899999D01*
X152063302Y-105028225D01*
X152117117Y-105146062D01*
X152117118Y-105146063D01*
X152201951Y-105243967D01*
X152310931Y-105314004D01*
X152435228Y-105350500D01*
X152564770Y-105350500D01*
X152564772Y-105350500D01*
X152689069Y-105314004D01*
X152798049Y-105243967D01*
X152882882Y-105146063D01*
X152936697Y-105028226D01*
X152955133Y-104900000D01*
X152936697Y-104771774D01*
X152882882Y-104653937D01*
X152798049Y-104556033D01*
X152689069Y-104485996D01*
X152564772Y-104449500D01*
X152435228Y-104449500D01*
X152310930Y-104485996D01*
X152310931Y-104485996D01*
X152201951Y-104556033D01*
X152117117Y-104653937D01*
X152063302Y-104771774D01*
X152044867Y-104899999D01*
X150955133Y-104899999D01*
X150936697Y-104771774D01*
X150882882Y-104653937D01*
X150798049Y-104556033D01*
X150689069Y-104485996D01*
X150564772Y-104449500D01*
X150435228Y-104449500D01*
X150310930Y-104485996D01*
X150310931Y-104485996D01*
X150201951Y-104556033D01*
X150117117Y-104653937D01*
X150063302Y-104771774D01*
X150044867Y-104899999D01*
X148955133Y-104899999D01*
X148936697Y-104771774D01*
X148882882Y-104653937D01*
X148798049Y-104556033D01*
X148689069Y-104485996D01*
X148564772Y-104449500D01*
X148435228Y-104449500D01*
X148310930Y-104485996D01*
X148310931Y-104485996D01*
X148201951Y-104556033D01*
X148117117Y-104653937D01*
X148063302Y-104771774D01*
X148044867Y-104900000D01*
X146836146Y-104900000D01*
X146882882Y-104846063D01*
X146936697Y-104728226D01*
X146955133Y-104600000D01*
X146936697Y-104471774D01*
X146882882Y-104353937D01*
X146798049Y-104256033D01*
X146689069Y-104185996D01*
X146564772Y-104149500D01*
X146435228Y-104149500D01*
X146350544Y-104174365D01*
X146310931Y-104185996D01*
X146201951Y-104256033D01*
X146117117Y-104353937D01*
X146063302Y-104471774D01*
X146044867Y-104600000D01*
X127300500Y-104600000D01*
X127300500Y-103000000D01*
X133844867Y-103000000D01*
X133863302Y-103128225D01*
X133917117Y-103246062D01*
X133923125Y-103252996D01*
X134001951Y-103343967D01*
X134110931Y-103414004D01*
X134235228Y-103450500D01*
X134364770Y-103450500D01*
X134364772Y-103450500D01*
X134488361Y-103414212D01*
X144530654Y-103414212D01*
X144549089Y-103542438D01*
X144602904Y-103660275D01*
X144602905Y-103660276D01*
X144687738Y-103758180D01*
X144796718Y-103828217D01*
X144921015Y-103864713D01*
X145050557Y-103864713D01*
X145050559Y-103864713D01*
X145174856Y-103828217D01*
X145283836Y-103758180D01*
X145368669Y-103660276D01*
X145422484Y-103542439D01*
X145440920Y-103414213D01*
X145422484Y-103285987D01*
X145368669Y-103168150D01*
X145283836Y-103070246D01*
X145174856Y-103000209D01*
X145050559Y-102963713D01*
X144921015Y-102963713D01*
X144829298Y-102990643D01*
X144796718Y-103000209D01*
X144687738Y-103070246D01*
X144602904Y-103168150D01*
X144549089Y-103285987D01*
X144530654Y-103414212D01*
X134488361Y-103414212D01*
X134489069Y-103414004D01*
X134598049Y-103343967D01*
X134682882Y-103246063D01*
X134736697Y-103128226D01*
X134755133Y-103000000D01*
X134740755Y-102899999D01*
X148044867Y-102899999D01*
X148063302Y-103028225D01*
X148117117Y-103146062D01*
X148117118Y-103146063D01*
X148201951Y-103243967D01*
X148310931Y-103314004D01*
X148435228Y-103350500D01*
X148564770Y-103350500D01*
X148564772Y-103350500D01*
X148689069Y-103314004D01*
X148798049Y-103243967D01*
X148882882Y-103146063D01*
X148936697Y-103028226D01*
X148955133Y-102900000D01*
X150044867Y-102900000D01*
X150063302Y-103028225D01*
X150117117Y-103146062D01*
X150117118Y-103146063D01*
X150201951Y-103243967D01*
X150310931Y-103314004D01*
X150435228Y-103350500D01*
X150564770Y-103350500D01*
X150564772Y-103350500D01*
X150689069Y-103314004D01*
X150798049Y-103243967D01*
X150882882Y-103146063D01*
X150936697Y-103028226D01*
X150955133Y-102900000D01*
X152044867Y-102900000D01*
X152063302Y-103028225D01*
X152117117Y-103146062D01*
X152117118Y-103146063D01*
X152201951Y-103243967D01*
X152310931Y-103314004D01*
X152435228Y-103350500D01*
X152564770Y-103350500D01*
X152564772Y-103350500D01*
X152689069Y-103314004D01*
X152798049Y-103243967D01*
X152882882Y-103146063D01*
X152936697Y-103028226D01*
X152955133Y-102900000D01*
X152936697Y-102771774D01*
X152882882Y-102653937D01*
X152798049Y-102556033D01*
X152689069Y-102485996D01*
X152564772Y-102449500D01*
X152435228Y-102449500D01*
X152310930Y-102485996D01*
X152310931Y-102485996D01*
X152201951Y-102556033D01*
X152117117Y-102653937D01*
X152063302Y-102771774D01*
X152044867Y-102900000D01*
X150955133Y-102900000D01*
X150936697Y-102771774D01*
X150882882Y-102653937D01*
X150798049Y-102556033D01*
X150689069Y-102485996D01*
X150564772Y-102449500D01*
X150435228Y-102449500D01*
X150310930Y-102485996D01*
X150310931Y-102485996D01*
X150201951Y-102556033D01*
X150117117Y-102653937D01*
X150063302Y-102771774D01*
X150044867Y-102900000D01*
X148955133Y-102900000D01*
X148936697Y-102771774D01*
X148882882Y-102653937D01*
X148798049Y-102556033D01*
X148689069Y-102485996D01*
X148564772Y-102449500D01*
X148435228Y-102449500D01*
X148310930Y-102485996D01*
X148310931Y-102485996D01*
X148201951Y-102556033D01*
X148117117Y-102653937D01*
X148063302Y-102771774D01*
X148044867Y-102899999D01*
X134740755Y-102899999D01*
X134736697Y-102871774D01*
X134682882Y-102753937D01*
X134598049Y-102656033D01*
X134489069Y-102585996D01*
X134364772Y-102549500D01*
X134235228Y-102549500D01*
X134110930Y-102585996D01*
X134110931Y-102585996D01*
X134001951Y-102656033D01*
X133917117Y-102753937D01*
X133863302Y-102871774D01*
X133844867Y-103000000D01*
X127300500Y-103000000D01*
X127300500Y-102000000D01*
X143116440Y-102000000D01*
X143134875Y-102128225D01*
X143188690Y-102246062D01*
X143188691Y-102246063D01*
X143273524Y-102343967D01*
X143382504Y-102414004D01*
X143506801Y-102450500D01*
X143636343Y-102450500D01*
X143636345Y-102450500D01*
X143760642Y-102414004D01*
X143869622Y-102343967D01*
X143954455Y-102246063D01*
X144008270Y-102128226D01*
X144026706Y-102000000D01*
X145944867Y-102000000D01*
X145963302Y-102128225D01*
X146017117Y-102246062D01*
X146017118Y-102246063D01*
X146101951Y-102343967D01*
X146210931Y-102414004D01*
X146335228Y-102450500D01*
X146464770Y-102450500D01*
X146464772Y-102450500D01*
X146589069Y-102414004D01*
X146698049Y-102343967D01*
X146782882Y-102246063D01*
X146836697Y-102128226D01*
X146855133Y-102000000D01*
X146836697Y-101871774D01*
X146782882Y-101753937D01*
X146698049Y-101656033D01*
X146589069Y-101585996D01*
X146464772Y-101549500D01*
X146335228Y-101549500D01*
X146210930Y-101585996D01*
X146210931Y-101585996D01*
X146101951Y-101656033D01*
X146017117Y-101753937D01*
X145963302Y-101871774D01*
X145944867Y-102000000D01*
X144026706Y-102000000D01*
X144008270Y-101871774D01*
X143954455Y-101753937D01*
X143869622Y-101656033D01*
X143760642Y-101585996D01*
X143636345Y-101549500D01*
X143506801Y-101549500D01*
X143382503Y-101585996D01*
X143382504Y-101585996D01*
X143273524Y-101656033D01*
X143188690Y-101753937D01*
X143134875Y-101871774D01*
X143116440Y-102000000D01*
X127300500Y-102000000D01*
X127300500Y-100585785D01*
X141702227Y-100585785D01*
X141720662Y-100714011D01*
X141774477Y-100831848D01*
X141774478Y-100831849D01*
X141859311Y-100929753D01*
X141968291Y-100999790D01*
X142092588Y-101036286D01*
X142222130Y-101036286D01*
X142222132Y-101036286D01*
X142346429Y-100999790D01*
X142455409Y-100929753D01*
X142540242Y-100831849D01*
X142594057Y-100714012D01*
X142612493Y-100585786D01*
X142612493Y-100585785D01*
X144530654Y-100585785D01*
X144549089Y-100714011D01*
X144602904Y-100831848D01*
X144602905Y-100831849D01*
X144687738Y-100929753D01*
X144796718Y-100999790D01*
X144921015Y-101036286D01*
X145050557Y-101036286D01*
X145050559Y-101036286D01*
X145174856Y-100999790D01*
X145283836Y-100929753D01*
X145368669Y-100831849D01*
X145422484Y-100714012D01*
X145440920Y-100585786D01*
X145422484Y-100457560D01*
X145368669Y-100339723D01*
X145283836Y-100241819D01*
X145174856Y-100171782D01*
X145050559Y-100135286D01*
X144921015Y-100135286D01*
X144796718Y-100171781D01*
X144796718Y-100171782D01*
X144687738Y-100241819D01*
X144602904Y-100339723D01*
X144549089Y-100457560D01*
X144530654Y-100585785D01*
X142612493Y-100585785D01*
X142594057Y-100457560D01*
X142540242Y-100339723D01*
X142455409Y-100241819D01*
X142346429Y-100171782D01*
X142222132Y-100135286D01*
X142092588Y-100135286D01*
X141968291Y-100171781D01*
X141968291Y-100171782D01*
X141859311Y-100241819D01*
X141774477Y-100339723D01*
X141720662Y-100457560D01*
X141702227Y-100585785D01*
X127300500Y-100585785D01*
X127300500Y-99325000D01*
X128094317Y-99325000D01*
X128114956Y-99481762D01*
X128175464Y-99627842D01*
X128192850Y-99650499D01*
X128271718Y-99753282D01*
X128353455Y-99816001D01*
X128397157Y-99849535D01*
X128397158Y-99849535D01*
X128397159Y-99849536D01*
X128543238Y-99910044D01*
X128660639Y-99925500D01*
X129539360Y-99925500D01*
X129539361Y-99925500D01*
X129656762Y-99910044D01*
X129802841Y-99849536D01*
X129928282Y-99753282D01*
X130024536Y-99627841D01*
X130085044Y-99481762D01*
X130105682Y-99325000D01*
X132114317Y-99325000D01*
X132134956Y-99481762D01*
X132195464Y-99627842D01*
X132212850Y-99650499D01*
X132291718Y-99753282D01*
X132373455Y-99816001D01*
X132417157Y-99849535D01*
X132417158Y-99849535D01*
X132417159Y-99849536D01*
X132563238Y-99910044D01*
X132680639Y-99925500D01*
X133859360Y-99925500D01*
X133859361Y-99925500D01*
X133976762Y-99910044D01*
X134122841Y-99849536D01*
X134248282Y-99753282D01*
X134344536Y-99627841D01*
X134405044Y-99481762D01*
X134425682Y-99325000D01*
X134413184Y-99230069D01*
X134419534Y-99189032D01*
X134446989Y-99157876D01*
X134486903Y-99146413D01*
X134526706Y-99158254D01*
X134553863Y-99189671D01*
X134579615Y-99246059D01*
X134579617Y-99246061D01*
X134579618Y-99246063D01*
X134664451Y-99343967D01*
X134773431Y-99414004D01*
X134897728Y-99450500D01*
X135027270Y-99450500D01*
X135027272Y-99450500D01*
X135151569Y-99414004D01*
X135260549Y-99343967D01*
X135345382Y-99246063D01*
X135366419Y-99199998D01*
X140316441Y-99199998D01*
X140334876Y-99328224D01*
X140388691Y-99446061D01*
X140388692Y-99446062D01*
X140473525Y-99543966D01*
X140582505Y-99614003D01*
X140706802Y-99650499D01*
X140836344Y-99650499D01*
X140836346Y-99650499D01*
X140960643Y-99614003D01*
X141069623Y-99543966D01*
X141154456Y-99446062D01*
X141208271Y-99328225D01*
X141226707Y-99199999D01*
X141222620Y-99171572D01*
X143116440Y-99171572D01*
X143134875Y-99299798D01*
X143188690Y-99417635D01*
X143188691Y-99417636D01*
X143273524Y-99515540D01*
X143382504Y-99585577D01*
X143506801Y-99622073D01*
X143636343Y-99622073D01*
X143636345Y-99622073D01*
X143760642Y-99585577D01*
X143869622Y-99515540D01*
X143954455Y-99417636D01*
X144008270Y-99299799D01*
X144026706Y-99171573D01*
X144008270Y-99043347D01*
X143954455Y-98925510D01*
X143869622Y-98827606D01*
X143760642Y-98757569D01*
X143636345Y-98721073D01*
X143506801Y-98721073D01*
X143409989Y-98749499D01*
X143382504Y-98757569D01*
X143273524Y-98827606D01*
X143188690Y-98925510D01*
X143134875Y-99043347D01*
X143116440Y-99171572D01*
X141222620Y-99171572D01*
X141208271Y-99071773D01*
X141154456Y-98953936D01*
X141069623Y-98856032D01*
X140960643Y-98785995D01*
X140836346Y-98749499D01*
X140706802Y-98749499D01*
X140582504Y-98785995D01*
X140582505Y-98785995D01*
X140473525Y-98856032D01*
X140388691Y-98953936D01*
X140334876Y-99071773D01*
X140316441Y-99199998D01*
X135366419Y-99199998D01*
X135399197Y-99128226D01*
X135417633Y-99000000D01*
X135399197Y-98871774D01*
X135345382Y-98753937D01*
X135260549Y-98656033D01*
X135151569Y-98585996D01*
X135027272Y-98549500D01*
X134897728Y-98549500D01*
X134773431Y-98585995D01*
X134773431Y-98585996D01*
X134664451Y-98656033D01*
X134579617Y-98753937D01*
X134525802Y-98871774D01*
X134507367Y-99000000D01*
X134514971Y-99052890D01*
X134508815Y-99094642D01*
X134480838Y-99126239D01*
X134440139Y-99137404D01*
X134399955Y-99124506D01*
X134373357Y-99091739D01*
X134344536Y-99022158D01*
X134292187Y-98953936D01*
X134248282Y-98896718D01*
X134185561Y-98848590D01*
X134122842Y-98800464D01*
X133976762Y-98739956D01*
X133892129Y-98728814D01*
X133859361Y-98724500D01*
X132680639Y-98724500D01*
X132647871Y-98728814D01*
X132563237Y-98739956D01*
X132417157Y-98800464D01*
X132291718Y-98896718D01*
X132195464Y-99022157D01*
X132134956Y-99168237D01*
X132114317Y-99325000D01*
X130105682Y-99325000D01*
X130085044Y-99168238D01*
X130024536Y-99022159D01*
X130024535Y-99022158D01*
X130024535Y-99022157D01*
X129991001Y-98978455D01*
X129928282Y-98896718D01*
X129865561Y-98848590D01*
X129802842Y-98800464D01*
X129656762Y-98739956D01*
X129572129Y-98728814D01*
X129539361Y-98724500D01*
X128660639Y-98724500D01*
X128627871Y-98728814D01*
X128543237Y-98739956D01*
X128397157Y-98800464D01*
X128271718Y-98896718D01*
X128175464Y-99022157D01*
X128114956Y-99168237D01*
X128094317Y-99325000D01*
X127300500Y-99325000D01*
X127300500Y-97890000D01*
X132174317Y-97890000D01*
X132194956Y-98046762D01*
X132255464Y-98192842D01*
X132260957Y-98200000D01*
X132351718Y-98318282D01*
X132404181Y-98358538D01*
X132477157Y-98414535D01*
X132477158Y-98414535D01*
X132477159Y-98414536D01*
X132623238Y-98475044D01*
X132740639Y-98490500D01*
X132819360Y-98490500D01*
X132819361Y-98490500D01*
X132936762Y-98475044D01*
X133082841Y-98414536D01*
X133208282Y-98318282D01*
X133299043Y-98199999D01*
X137444867Y-98199999D01*
X137463302Y-98328225D01*
X137517117Y-98446062D01*
X137517118Y-98446063D01*
X137601951Y-98543967D01*
X137710931Y-98614004D01*
X137835228Y-98650500D01*
X137964770Y-98650500D01*
X137964772Y-98650500D01*
X138089069Y-98614004D01*
X138198049Y-98543967D01*
X138282882Y-98446063D01*
X138336697Y-98328226D01*
X138355133Y-98200000D01*
X138336697Y-98071774D01*
X138282882Y-97953937D01*
X138198049Y-97856033D01*
X138089069Y-97785996D01*
X138088350Y-97785785D01*
X138902227Y-97785785D01*
X138920662Y-97914011D01*
X138974477Y-98031848D01*
X138974478Y-98031849D01*
X139059311Y-98129753D01*
X139168291Y-98199790D01*
X139292588Y-98236286D01*
X139422130Y-98236286D01*
X139422132Y-98236286D01*
X139546429Y-98199790D01*
X139655409Y-98129753D01*
X139740242Y-98031849D01*
X139794057Y-97914012D01*
X139812493Y-97785786D01*
X139812493Y-97785785D01*
X141730654Y-97785785D01*
X141749089Y-97914011D01*
X141802904Y-98031848D01*
X141802905Y-98031849D01*
X141887738Y-98129753D01*
X141996718Y-98199790D01*
X142121015Y-98236286D01*
X142250557Y-98236286D01*
X142250559Y-98236286D01*
X142374856Y-98199790D01*
X142483836Y-98129753D01*
X142568669Y-98031849D01*
X142622484Y-97914012D01*
X142640920Y-97785786D01*
X142622484Y-97657560D01*
X142568669Y-97539723D01*
X142483836Y-97441819D01*
X142374856Y-97371782D01*
X142250559Y-97335286D01*
X142121015Y-97335286D01*
X142018236Y-97365464D01*
X141996718Y-97371782D01*
X141887738Y-97441819D01*
X141802904Y-97539723D01*
X141749089Y-97657560D01*
X141730654Y-97785785D01*
X139812493Y-97785785D01*
X139794057Y-97657560D01*
X139740242Y-97539723D01*
X139655409Y-97441819D01*
X139546429Y-97371782D01*
X139422132Y-97335286D01*
X139292588Y-97335286D01*
X139189809Y-97365464D01*
X139168291Y-97371782D01*
X139059311Y-97441819D01*
X138974477Y-97539723D01*
X138920662Y-97657560D01*
X138902227Y-97785785D01*
X138088350Y-97785785D01*
X137964772Y-97749500D01*
X137835228Y-97749500D01*
X137711650Y-97785785D01*
X137710931Y-97785996D01*
X137601951Y-97856033D01*
X137517117Y-97953937D01*
X137463302Y-98071774D01*
X137444867Y-98199999D01*
X133299043Y-98199999D01*
X133304536Y-98192841D01*
X133365044Y-98046762D01*
X133385682Y-97890000D01*
X133365044Y-97733238D01*
X133304536Y-97587159D01*
X133304535Y-97587158D01*
X133304535Y-97587157D01*
X133240728Y-97504003D01*
X133208282Y-97461718D01*
X133145561Y-97413590D01*
X133082842Y-97365464D01*
X132936762Y-97304956D01*
X132819361Y-97289500D01*
X132740639Y-97289500D01*
X132681938Y-97297228D01*
X132623237Y-97304956D01*
X132477157Y-97365464D01*
X132351718Y-97461718D01*
X132255464Y-97587157D01*
X132194956Y-97733237D01*
X132174317Y-97890000D01*
X127300500Y-97890000D01*
X127300500Y-97090000D01*
X149634867Y-97090000D01*
X149653302Y-97218225D01*
X149707117Y-97336062D01*
X149707118Y-97336063D01*
X149791951Y-97433967D01*
X149900931Y-97504004D01*
X150025228Y-97540500D01*
X150154770Y-97540500D01*
X150154772Y-97540500D01*
X150279069Y-97504004D01*
X150388049Y-97433967D01*
X150472882Y-97336063D01*
X150526697Y-97218226D01*
X150545133Y-97090000D01*
X150526697Y-96961774D01*
X150472882Y-96843937D01*
X150388049Y-96746033D01*
X150279069Y-96675996D01*
X150154772Y-96639500D01*
X150025228Y-96639500D01*
X149900931Y-96675995D01*
X149900931Y-96675996D01*
X149791951Y-96746033D01*
X149707117Y-96843937D01*
X149653302Y-96961774D01*
X149634867Y-97090000D01*
X127300500Y-97090000D01*
X127300500Y-96371571D01*
X137488014Y-96371571D01*
X137506449Y-96499797D01*
X137560264Y-96617634D01*
X137560265Y-96617635D01*
X137645098Y-96715539D01*
X137754078Y-96785576D01*
X137878375Y-96822072D01*
X138007917Y-96822072D01*
X138007919Y-96822072D01*
X138132216Y-96785576D01*
X138241196Y-96715539D01*
X138326029Y-96617635D01*
X138379844Y-96499798D01*
X138398280Y-96371572D01*
X138398280Y-96371571D01*
X140316441Y-96371571D01*
X140334876Y-96499797D01*
X140388691Y-96617634D01*
X140388692Y-96617635D01*
X140473525Y-96715539D01*
X140582505Y-96785576D01*
X140706802Y-96822072D01*
X140836344Y-96822072D01*
X140836346Y-96822072D01*
X140960643Y-96785576D01*
X141069623Y-96715539D01*
X141154456Y-96617635D01*
X141208271Y-96499798D01*
X141220588Y-96414132D01*
X153322140Y-96414132D01*
X153324437Y-96469660D01*
X153324500Y-96472717D01*
X153324500Y-104322335D01*
X153361218Y-104765471D01*
X153434408Y-105204076D01*
X153543570Y-105635144D01*
X153687950Y-106055708D01*
X153815998Y-106347627D01*
X153866570Y-106462920D01*
X153929262Y-106578764D01*
X154078208Y-106853993D01*
X154279558Y-107162181D01*
X154321416Y-107226249D01*
X154594534Y-107577152D01*
X154893498Y-107901912D01*
X154895704Y-107904308D01*
X155040670Y-108037760D01*
X155057275Y-108069283D01*
X155058884Y-108068549D01*
X155063302Y-108078224D01*
X155063303Y-108078226D01*
X155076181Y-108106425D01*
X155117117Y-108196062D01*
X155117118Y-108196063D01*
X155201951Y-108293967D01*
X155310931Y-108364004D01*
X155435228Y-108400500D01*
X155448023Y-108400500D01*
X155493474Y-108416103D01*
X155529796Y-108444373D01*
X155573751Y-108478584D01*
X155946009Y-108721793D01*
X156337080Y-108933430D01*
X156507572Y-109008214D01*
X156744291Y-109112049D01*
X157164855Y-109256429D01*
X157164864Y-109256432D01*
X157595922Y-109365591D01*
X158034522Y-109438780D01*
X158034528Y-109438781D01*
X158477665Y-109475500D01*
X158477668Y-109475500D01*
X158637340Y-109475500D01*
X158700000Y-109475500D01*
X158753989Y-109475500D01*
X159914693Y-109475500D01*
X159956513Y-109488450D01*
X159983696Y-109522768D01*
X159986727Y-109566442D01*
X159964548Y-109604184D01*
X159847163Y-109711196D01*
X159847160Y-109711199D01*
X159718667Y-109881348D01*
X159623629Y-110072213D01*
X159565278Y-110277293D01*
X159545605Y-110489603D01*
X159565278Y-110701912D01*
X159623629Y-110906992D01*
X159718667Y-111097857D01*
X159833562Y-111250000D01*
X159847163Y-111268010D01*
X160004733Y-111411655D01*
X160186016Y-111523901D01*
X160384837Y-111600924D01*
X160594425Y-111640103D01*
X160807644Y-111640103D01*
X160807645Y-111640103D01*
X160889650Y-111624773D01*
X160925134Y-111626825D01*
X160955571Y-111645187D01*
X160969730Y-111659346D01*
X160974607Y-111664728D01*
X161057768Y-111766063D01*
X161065827Y-111778124D01*
X161125909Y-111890532D01*
X161131461Y-111903935D01*
X161168455Y-112025893D01*
X161171285Y-112040121D01*
X161175803Y-112085996D01*
X161181077Y-112139557D01*
X161183573Y-112164897D01*
X161173654Y-112209767D01*
X161139160Y-112240131D01*
X161093393Y-112244278D01*
X161054004Y-112220609D01*
X160998049Y-112156033D01*
X160889069Y-112085996D01*
X160764772Y-112049500D01*
X160635228Y-112049500D01*
X160510931Y-112085996D01*
X160401951Y-112156033D01*
X160364753Y-112198961D01*
X160339571Y-112217813D01*
X160308830Y-112224500D01*
X160177652Y-112224500D01*
X160133057Y-112209553D01*
X160106477Y-112170751D01*
X160078440Y-112072213D01*
X159983402Y-111881348D01*
X159854909Y-111711199D01*
X159854907Y-111711196D01*
X159697337Y-111567551D01*
X159516054Y-111455305D01*
X159317233Y-111378282D01*
X159107645Y-111339103D01*
X158894425Y-111339103D01*
X158789746Y-111358671D01*
X158684836Y-111378282D01*
X158486015Y-111455305D01*
X158304736Y-111567549D01*
X158304733Y-111567551D01*
X158176342Y-111684596D01*
X158147160Y-111711199D01*
X158018667Y-111881348D01*
X157923629Y-112072213D01*
X157865278Y-112277293D01*
X157845605Y-112489603D01*
X157865278Y-112701912D01*
X157923629Y-112906992D01*
X158018667Y-113097857D01*
X158119144Y-113230907D01*
X158147163Y-113268010D01*
X158304733Y-113411655D01*
X158486016Y-113523901D01*
X158684837Y-113600924D01*
X158894425Y-113640103D01*
X159107644Y-113640103D01*
X159107645Y-113640103D01*
X159317233Y-113600924D01*
X159516054Y-113523901D01*
X159697337Y-113411655D01*
X159854907Y-113268010D01*
X159972044Y-113112897D01*
X159983402Y-113097857D01*
X160078440Y-112906993D01*
X160100560Y-112829249D01*
X160127140Y-112790447D01*
X160171735Y-112775500D01*
X160308830Y-112775500D01*
X160339571Y-112782187D01*
X160364753Y-112801038D01*
X160401951Y-112843967D01*
X160510931Y-112914004D01*
X160635228Y-112950500D01*
X160764770Y-112950500D01*
X160764772Y-112950500D01*
X160889069Y-112914004D01*
X160969035Y-112862612D01*
X161014321Y-112851054D01*
X161057501Y-112868939D01*
X161081351Y-112909135D01*
X161076355Y-112955606D01*
X161023302Y-113071774D01*
X161004867Y-113200000D01*
X161023302Y-113328225D01*
X161077117Y-113446062D01*
X161077118Y-113446063D01*
X161161951Y-113543967D01*
X161270931Y-113614004D01*
X161395228Y-113650500D01*
X161524770Y-113650500D01*
X161524772Y-113650500D01*
X161649069Y-113614004D01*
X161758049Y-113543967D01*
X161842882Y-113446063D01*
X161896697Y-113328226D01*
X161915133Y-113200000D01*
X161896697Y-113071774D01*
X161842882Y-112953937D01*
X161842881Y-112953936D01*
X161842881Y-112953935D01*
X161753574Y-112850868D01*
X161740166Y-112828269D01*
X161735500Y-112802409D01*
X161735500Y-112139656D01*
X161735490Y-112139557D01*
X161735490Y-112111655D01*
X161735491Y-112073834D01*
X161704087Y-111875538D01*
X161642049Y-111684596D01*
X161550904Y-111505710D01*
X161487529Y-111418479D01*
X161474140Y-111385437D01*
X161477759Y-111349964D01*
X161497544Y-111320302D01*
X161554907Y-111268010D01*
X161614118Y-111189603D01*
X162195605Y-111189603D01*
X162215278Y-111401912D01*
X162273629Y-111606992D01*
X162368667Y-111797857D01*
X162490247Y-111958852D01*
X162497163Y-111968010D01*
X162654733Y-112111655D01*
X162836016Y-112223901D01*
X163034837Y-112300924D01*
X163244425Y-112340103D01*
X163457644Y-112340103D01*
X163457645Y-112340103D01*
X163667233Y-112300924D01*
X163866054Y-112223901D01*
X164047337Y-112111655D01*
X164204907Y-111968010D01*
X164333401Y-111797858D01*
X164428440Y-111606992D01*
X164453518Y-111518851D01*
X164480099Y-111480049D01*
X164524694Y-111465103D01*
X165491422Y-111465103D01*
X165536362Y-111465103D01*
X165543614Y-111465458D01*
X165674094Y-111478310D01*
X165688311Y-111481137D01*
X165769319Y-111505711D01*
X165810282Y-111518137D01*
X165823684Y-111523689D01*
X165936080Y-111583766D01*
X165948142Y-111591825D01*
X166046663Y-111672680D01*
X166056921Y-111682938D01*
X166137775Y-111781459D01*
X166145834Y-111793521D01*
X166205912Y-111905919D01*
X166211464Y-111919322D01*
X166229244Y-111977939D01*
X166230808Y-112014826D01*
X166214357Y-112047877D01*
X166157116Y-112113938D01*
X166103303Y-112231771D01*
X166084867Y-112360000D01*
X166103302Y-112488225D01*
X166157117Y-112606062D01*
X166157118Y-112606063D01*
X166241951Y-112703967D01*
X166350931Y-112774004D01*
X166475228Y-112810500D01*
X166604770Y-112810500D01*
X166604772Y-112810500D01*
X166729069Y-112774004D01*
X166838049Y-112703967D01*
X166875246Y-112661038D01*
X166900429Y-112642187D01*
X166931170Y-112635500D01*
X172210498Y-112635500D01*
X172210592Y-112635490D01*
X172276166Y-112635491D01*
X172474462Y-112604087D01*
X172665404Y-112542049D01*
X172844290Y-112450904D01*
X173006716Y-112332898D01*
X173058513Y-112281102D01*
X173058515Y-112281101D01*
X173063453Y-112276162D01*
X173107251Y-112254980D01*
X173154736Y-112265571D01*
X173184981Y-112284298D01*
X173383802Y-112361321D01*
X173593390Y-112400500D01*
X173806609Y-112400500D01*
X173806610Y-112400500D01*
X174016198Y-112361321D01*
X174215019Y-112284298D01*
X174396302Y-112172052D01*
X174553872Y-112028407D01*
X174682366Y-111858255D01*
X174682365Y-111858255D01*
X174682367Y-111858254D01*
X174777405Y-111667389D01*
X174788947Y-111626825D01*
X174835756Y-111462310D01*
X174855429Y-111250000D01*
X179044570Y-111250000D01*
X179064243Y-111462309D01*
X179122594Y-111667389D01*
X179217632Y-111858254D01*
X179337526Y-112017016D01*
X179346128Y-112028407D01*
X179503698Y-112172052D01*
X179684981Y-112284298D01*
X179883802Y-112361321D01*
X180093390Y-112400500D01*
X180306609Y-112400500D01*
X180306610Y-112400500D01*
X180516198Y-112361321D01*
X180715019Y-112284298D01*
X180896302Y-112172052D01*
X181053872Y-112028407D01*
X181182366Y-111858255D01*
X181182365Y-111858255D01*
X181182367Y-111858254D01*
X181277405Y-111667389D01*
X181288947Y-111626825D01*
X181335756Y-111462310D01*
X181355429Y-111250000D01*
X181335756Y-111037690D01*
X181277405Y-110832611D01*
X181277405Y-110832610D01*
X181182367Y-110641745D01*
X181053874Y-110471596D01*
X181053872Y-110471593D01*
X180896302Y-110327948D01*
X180715019Y-110215702D01*
X180516198Y-110138679D01*
X180306610Y-110099500D01*
X180093390Y-110099500D01*
X179988595Y-110119089D01*
X179883801Y-110138679D01*
X179684980Y-110215702D01*
X179601245Y-110267549D01*
X179503698Y-110327948D01*
X179412380Y-110411196D01*
X179346125Y-110471596D01*
X179217632Y-110641745D01*
X179122594Y-110832610D01*
X179064243Y-111037690D01*
X179044570Y-111250000D01*
X174855429Y-111250000D01*
X174835756Y-111037690D01*
X174777405Y-110832611D01*
X174777405Y-110832610D01*
X174682367Y-110641745D01*
X174553874Y-110471596D01*
X174553872Y-110471593D01*
X174396302Y-110327948D01*
X174215019Y-110215702D01*
X174016198Y-110138679D01*
X173806610Y-110099500D01*
X173593390Y-110099500D01*
X173488595Y-110119089D01*
X173383801Y-110138679D01*
X173184980Y-110215702D01*
X173101245Y-110267549D01*
X173003698Y-110327948D01*
X172912380Y-110411196D01*
X172846125Y-110471596D01*
X172717632Y-110641745D01*
X172622594Y-110832610D01*
X172564243Y-111037690D01*
X172544570Y-111250000D01*
X172564243Y-111462309D01*
X172622594Y-111667390D01*
X172687743Y-111798228D01*
X172693863Y-111846696D01*
X172668445Y-111888415D01*
X172583936Y-111957768D01*
X172571875Y-111965827D01*
X172459467Y-112025909D01*
X172446064Y-112031461D01*
X172324106Y-112068455D01*
X172309878Y-112071285D01*
X172179307Y-112084143D01*
X172172055Y-112084499D01*
X172115207Y-112084499D01*
X172115201Y-112084500D01*
X166931170Y-112084500D01*
X166900429Y-112077813D01*
X166875244Y-112058959D01*
X166838049Y-112016033D01*
X166827930Y-112009530D01*
X166805972Y-111987727D01*
X166794849Y-111958852D01*
X166787374Y-111911655D01*
X166784091Y-111890924D01*
X166722050Y-111699982D01*
X166630904Y-111521096D01*
X166619726Y-111505711D01*
X166512897Y-111358672D01*
X166370930Y-111216705D01*
X166208506Y-111098697D01*
X166029623Y-111007551D01*
X165838681Y-110945510D01*
X165640384Y-110914103D01*
X165567133Y-110914103D01*
X164524694Y-110914103D01*
X164480099Y-110899157D01*
X164453519Y-110860355D01*
X164445625Y-110832611D01*
X164428440Y-110772214D01*
X164333401Y-110581348D01*
X164204907Y-110411196D01*
X164047337Y-110267551D01*
X163866054Y-110155305D01*
X163667233Y-110078282D01*
X163457645Y-110039103D01*
X163244425Y-110039103D01*
X163181194Y-110050923D01*
X163034836Y-110078282D01*
X162836015Y-110155305D01*
X162654736Y-110267549D01*
X162654733Y-110267551D01*
X162497163Y-110411196D01*
X162497160Y-110411199D01*
X162368667Y-110581348D01*
X162273629Y-110772213D01*
X162215278Y-110977293D01*
X162195605Y-111189603D01*
X161614118Y-111189603D01*
X161660469Y-111128225D01*
X161683402Y-111097857D01*
X161778440Y-110906992D01*
X161797756Y-110839103D01*
X161836791Y-110701913D01*
X161856464Y-110489603D01*
X161836791Y-110277293D01*
X161817985Y-110211199D01*
X161778440Y-110072213D01*
X161683402Y-109881348D01*
X161554909Y-109711199D01*
X161554907Y-109711196D01*
X161437521Y-109604184D01*
X161415343Y-109566442D01*
X161418374Y-109522768D01*
X161445557Y-109488450D01*
X161487377Y-109475500D01*
X163936820Y-109475500D01*
X163975776Y-109486584D01*
X164003062Y-109516516D01*
X164018667Y-109547857D01*
X164145059Y-109715224D01*
X164147163Y-109718010D01*
X164304733Y-109861655D01*
X164486016Y-109973901D01*
X164684837Y-110050924D01*
X164894425Y-110090103D01*
X165107644Y-110090103D01*
X165107645Y-110090103D01*
X165317233Y-110050924D01*
X165516054Y-109973901D01*
X165697337Y-109861655D01*
X165854907Y-109718010D01*
X165983401Y-109547858D01*
X165983400Y-109547858D01*
X165983402Y-109547857D01*
X166078440Y-109356992D01*
X166136791Y-109151912D01*
X166156464Y-108939603D01*
X166136791Y-108727293D01*
X166117691Y-108660164D01*
X166584026Y-108660164D01*
X166686239Y-108723450D01*
X166884974Y-108800441D01*
X167094472Y-108839603D01*
X167307598Y-108839603D01*
X167517095Y-108800441D01*
X167715830Y-108723450D01*
X167818042Y-108660164D01*
X167201035Y-108043156D01*
X166584026Y-108660164D01*
X166117691Y-108660164D01*
X166078440Y-108522213D01*
X165983402Y-108331348D01*
X165854909Y-108161199D01*
X165854907Y-108161196D01*
X165697337Y-108017551D01*
X165535041Y-107917061D01*
X165509352Y-107890157D01*
X165500000Y-107854148D01*
X165500000Y-107689603D01*
X166046107Y-107689603D01*
X166065772Y-107901819D01*
X166124097Y-108106809D01*
X166219096Y-108297594D01*
X166227870Y-108309212D01*
X166847481Y-107689603D01*
X167554588Y-107689603D01*
X168174199Y-108309212D01*
X168182974Y-108297593D01*
X168277972Y-108106809D01*
X168336297Y-107901819D01*
X168355962Y-107689603D01*
X168336297Y-107477386D01*
X168277972Y-107272393D01*
X168182975Y-107081612D01*
X168174199Y-107069991D01*
X167554588Y-107689603D01*
X166847481Y-107689603D01*
X166227869Y-107069991D01*
X166219095Y-107081611D01*
X166124097Y-107272393D01*
X166065772Y-107477386D01*
X166046107Y-107689603D01*
X165500000Y-107689603D01*
X165500000Y-107525058D01*
X165509352Y-107489049D01*
X165535041Y-107462144D01*
X165697337Y-107361655D01*
X165854907Y-107218010D01*
X165964738Y-107072571D01*
X165983402Y-107047857D01*
X166078440Y-106856992D01*
X166079294Y-106853991D01*
X166117691Y-106719040D01*
X166584027Y-106719040D01*
X167201034Y-107336048D01*
X167787081Y-106750000D01*
X172544570Y-106750000D01*
X172564243Y-106962309D01*
X172622594Y-107167389D01*
X172717632Y-107358254D01*
X172830080Y-107507156D01*
X172846128Y-107528407D01*
X173003698Y-107672052D01*
X173184981Y-107784298D01*
X173383802Y-107861321D01*
X173593390Y-107900500D01*
X173806609Y-107900500D01*
X173806610Y-107900500D01*
X174016198Y-107861321D01*
X174215019Y-107784298D01*
X174396302Y-107672052D01*
X174553872Y-107528407D01*
X174657508Y-107391171D01*
X174682367Y-107358254D01*
X174777405Y-107167389D01*
X174803706Y-107074952D01*
X174835756Y-106962310D01*
X174855429Y-106750000D01*
X179044570Y-106750000D01*
X179064243Y-106962309D01*
X179122594Y-107167389D01*
X179217632Y-107358254D01*
X179330080Y-107507156D01*
X179346128Y-107528407D01*
X179503698Y-107672052D01*
X179684981Y-107784298D01*
X179883802Y-107861321D01*
X180093390Y-107900500D01*
X180306609Y-107900500D01*
X180306610Y-107900500D01*
X180516198Y-107861321D01*
X180715019Y-107784298D01*
X180896302Y-107672052D01*
X181053872Y-107528407D01*
X181157508Y-107391171D01*
X181182367Y-107358254D01*
X181277405Y-107167389D01*
X181303706Y-107074952D01*
X181335756Y-106962310D01*
X181355429Y-106750000D01*
X181335756Y-106537690D01*
X181314481Y-106462916D01*
X181277405Y-106332610D01*
X181182367Y-106141745D01*
X181053874Y-105971596D01*
X181053872Y-105971593D01*
X180896302Y-105827948D01*
X180715019Y-105715702D01*
X180516198Y-105638679D01*
X180306610Y-105599500D01*
X180093390Y-105599500D01*
X180018882Y-105613428D01*
X179883801Y-105638679D01*
X179684980Y-105715702D01*
X179503701Y-105827946D01*
X179503698Y-105827948D01*
X179346128Y-105971593D01*
X179346125Y-105971596D01*
X179217632Y-106141745D01*
X179122594Y-106332610D01*
X179064243Y-106537690D01*
X179044570Y-106750000D01*
X174855429Y-106750000D01*
X174835756Y-106537690D01*
X174814481Y-106462916D01*
X174777405Y-106332610D01*
X174682367Y-106141745D01*
X174553874Y-105971596D01*
X174553872Y-105971593D01*
X174396302Y-105827948D01*
X174215019Y-105715702D01*
X174016198Y-105638679D01*
X173806610Y-105599500D01*
X173593390Y-105599500D01*
X173518882Y-105613428D01*
X173383801Y-105638679D01*
X173184980Y-105715702D01*
X173003701Y-105827946D01*
X173003698Y-105827948D01*
X172846128Y-105971593D01*
X172846125Y-105971596D01*
X172717632Y-106141745D01*
X172622594Y-106332610D01*
X172564243Y-106537690D01*
X172544570Y-106750000D01*
X167787081Y-106750000D01*
X167818041Y-106719040D01*
X167818042Y-106719040D01*
X167715830Y-106655755D01*
X167517095Y-106578764D01*
X167307598Y-106539603D01*
X167094472Y-106539603D01*
X166884974Y-106578764D01*
X166686239Y-106655755D01*
X166584027Y-106719040D01*
X166117691Y-106719040D01*
X166136791Y-106651913D01*
X166156464Y-106439603D01*
X166153929Y-106412250D01*
X166136791Y-106227293D01*
X166078440Y-106022213D01*
X165983402Y-105831348D01*
X165854907Y-105661196D01*
X165854905Y-105661194D01*
X165838321Y-105646076D01*
X165817533Y-105613428D01*
X165816070Y-105574750D01*
X165834334Y-105540624D01*
X165867326Y-105520388D01*
X165889069Y-105514004D01*
X165914005Y-105497979D01*
X165917240Y-105495899D01*
X165981110Y-105454852D01*
X166024845Y-105443199D01*
X166067185Y-105459194D01*
X166092292Y-105496854D01*
X166123629Y-105606992D01*
X166218667Y-105797857D01*
X166322190Y-105934941D01*
X166347163Y-105968010D01*
X166504733Y-106111655D01*
X166686016Y-106223901D01*
X166884837Y-106300924D01*
X167094425Y-106340103D01*
X167307644Y-106340103D01*
X167307645Y-106340103D01*
X167517233Y-106300924D01*
X167716054Y-106223901D01*
X167897337Y-106111655D01*
X168054907Y-105968010D01*
X168183401Y-105797858D01*
X168183400Y-105797858D01*
X168183402Y-105797857D01*
X168278440Y-105606993D01*
X168317745Y-105468852D01*
X168344325Y-105430050D01*
X168388920Y-105415103D01*
X168565505Y-105415103D01*
X168596246Y-105421790D01*
X168621429Y-105440641D01*
X168701951Y-105533570D01*
X168810931Y-105603607D01*
X168935228Y-105640103D01*
X169064770Y-105640103D01*
X169064772Y-105640103D01*
X169189069Y-105603607D01*
X169298049Y-105533570D01*
X169382882Y-105435666D01*
X169436697Y-105317829D01*
X169455133Y-105189603D01*
X169436697Y-105061377D01*
X169382882Y-104943540D01*
X169298049Y-104845636D01*
X169189069Y-104775599D01*
X169064772Y-104739103D01*
X168935228Y-104739103D01*
X168810931Y-104775599D01*
X168701951Y-104845636D01*
X168645874Y-104910354D01*
X168621431Y-104938563D01*
X168596246Y-104957416D01*
X168565505Y-104964103D01*
X168388920Y-104964103D01*
X168344325Y-104949156D01*
X168317745Y-104910354D01*
X168278440Y-104772212D01*
X168183402Y-104581348D01*
X168054909Y-104411199D01*
X168054907Y-104411196D01*
X167897337Y-104267551D01*
X167716054Y-104155305D01*
X167517233Y-104078282D01*
X167307645Y-104039103D01*
X167094425Y-104039103D01*
X166894671Y-104076443D01*
X166849020Y-104070400D01*
X166815781Y-104038529D01*
X166807827Y-103993174D01*
X166815530Y-103939603D01*
X166807827Y-103886030D01*
X166815781Y-103840676D01*
X166849020Y-103808805D01*
X166894670Y-103802762D01*
X167094425Y-103840103D01*
X167307644Y-103840103D01*
X167307645Y-103840103D01*
X167517233Y-103800924D01*
X167716054Y-103723901D01*
X167897337Y-103611655D01*
X168054907Y-103468010D01*
X168183401Y-103297858D01*
X168278440Y-103106992D01*
X168303518Y-103018851D01*
X168330099Y-102980049D01*
X168374694Y-102965103D01*
X168598433Y-102965103D01*
X168629174Y-102971790D01*
X168654356Y-102990641D01*
X168691554Y-103033570D01*
X168800534Y-103103607D01*
X168924831Y-103140103D01*
X169054373Y-103140103D01*
X169054375Y-103140103D01*
X169178672Y-103103607D01*
X169287652Y-103033570D01*
X169316741Y-102999999D01*
X175344867Y-102999999D01*
X175363302Y-103128225D01*
X175417117Y-103246062D01*
X175423125Y-103252996D01*
X175501951Y-103343967D01*
X175610931Y-103414004D01*
X175735228Y-103450500D01*
X175864770Y-103450500D01*
X175864772Y-103450500D01*
X175989069Y-103414004D01*
X176098049Y-103343967D01*
X176182882Y-103246063D01*
X176236697Y-103128226D01*
X176255133Y-103000000D01*
X176236697Y-102871774D01*
X176182882Y-102753937D01*
X176098049Y-102656033D01*
X175989069Y-102585996D01*
X175864772Y-102549500D01*
X175735228Y-102549500D01*
X175610930Y-102585996D01*
X175610931Y-102585996D01*
X175501951Y-102656033D01*
X175417117Y-102753937D01*
X175363302Y-102871774D01*
X175344867Y-102999999D01*
X169316741Y-102999999D01*
X169372485Y-102935666D01*
X169426300Y-102817829D01*
X169444736Y-102689603D01*
X169426300Y-102561377D01*
X169372485Y-102443540D01*
X169287652Y-102345636D01*
X169178672Y-102275599D01*
X169054375Y-102239103D01*
X168924831Y-102239103D01*
X168800534Y-102275599D01*
X168691554Y-102345636D01*
X168654356Y-102388564D01*
X168629174Y-102407416D01*
X168598433Y-102414103D01*
X168374694Y-102414103D01*
X168330099Y-102399157D01*
X168303519Y-102360355D01*
X168291958Y-102319724D01*
X168278440Y-102272214D01*
X168183401Y-102081348D01*
X168054907Y-101911196D01*
X167897337Y-101767551D01*
X167716054Y-101655305D01*
X167517233Y-101578282D01*
X167307645Y-101539103D01*
X167094425Y-101539103D01*
X166989630Y-101558692D01*
X166884836Y-101578282D01*
X166686015Y-101655305D01*
X166526720Y-101753937D01*
X166504733Y-101767551D01*
X166406622Y-101856992D01*
X166347160Y-101911199D01*
X166218667Y-102081348D01*
X166123630Y-102272211D01*
X166087290Y-102399932D01*
X166062183Y-102437591D01*
X166019843Y-102453586D01*
X165976110Y-102441933D01*
X165908683Y-102398601D01*
X165889068Y-102385995D01*
X165863981Y-102378629D01*
X165850073Y-102374546D01*
X165817081Y-102354309D01*
X165798817Y-102320184D01*
X165800280Y-102281506D01*
X165821068Y-102248858D01*
X165854907Y-102218010D01*
X165983401Y-102047858D01*
X165983400Y-102047858D01*
X165983402Y-102047857D01*
X166078440Y-101856992D01*
X166078440Y-101856991D01*
X166136791Y-101651913D01*
X166156464Y-101439603D01*
X166136791Y-101227293D01*
X166078440Y-101022214D01*
X166012286Y-100889358D01*
X166005494Y-100844461D01*
X166026201Y-100804051D01*
X166361300Y-100468952D01*
X166395325Y-100449578D01*
X166434475Y-100450278D01*
X166435228Y-100450500D01*
X166564770Y-100450500D01*
X166564772Y-100450500D01*
X166689069Y-100414004D01*
X166798049Y-100343967D01*
X166882882Y-100246063D01*
X166936697Y-100128226D01*
X166955133Y-100000000D01*
X166936697Y-99871774D01*
X166882882Y-99753937D01*
X166798049Y-99656033D01*
X166689069Y-99585996D01*
X166564772Y-99549500D01*
X166435228Y-99549500D01*
X166312361Y-99585576D01*
X166310931Y-99585996D01*
X166201951Y-99656033D01*
X166117117Y-99753937D01*
X166063302Y-99871774D01*
X166047339Y-99982807D01*
X166026418Y-100024602D01*
X165637579Y-100413441D01*
X165593781Y-100434622D01*
X165546298Y-100424031D01*
X165516054Y-100405305D01*
X165317233Y-100328282D01*
X165107645Y-100289103D01*
X164894425Y-100289103D01*
X164836132Y-100300000D01*
X164684836Y-100328282D01*
X164486015Y-100405305D01*
X164304736Y-100517549D01*
X164304733Y-100517551D01*
X164204880Y-100608580D01*
X164147160Y-100661199D01*
X164018667Y-100831348D01*
X163923629Y-101022213D01*
X163865278Y-101227293D01*
X163845605Y-101439603D01*
X163865278Y-101651912D01*
X163923629Y-101856992D01*
X164018667Y-102047857D01*
X164147162Y-102218009D01*
X164180496Y-102248398D01*
X164201284Y-102281046D01*
X164202747Y-102319724D01*
X164184483Y-102353849D01*
X164151490Y-102374086D01*
X164110932Y-102385995D01*
X164025641Y-102440807D01*
X163981906Y-102452460D01*
X163939565Y-102436465D01*
X163914459Y-102398805D01*
X163878440Y-102272212D01*
X163783402Y-102081348D01*
X163654909Y-101911199D01*
X163654907Y-101911196D01*
X163497337Y-101767551D01*
X163316054Y-101655305D01*
X163117233Y-101578282D01*
X162907645Y-101539103D01*
X162694425Y-101539103D01*
X162589630Y-101558692D01*
X162484836Y-101578282D01*
X162286015Y-101655305D01*
X162126720Y-101753937D01*
X162104733Y-101767551D01*
X162006622Y-101856992D01*
X161947160Y-101911199D01*
X161818667Y-102081348D01*
X161723629Y-102272213D01*
X161665278Y-102477293D01*
X161645605Y-102689602D01*
X161665278Y-102901912D01*
X161723629Y-103106992D01*
X161799278Y-103258916D01*
X161806071Y-103303814D01*
X161785362Y-103344226D01*
X161686363Y-103443226D01*
X161662356Y-103459267D01*
X161634037Y-103464900D01*
X160324991Y-103464900D01*
X160291082Y-103456674D01*
X160264712Y-103433824D01*
X160251744Y-103401431D01*
X160249806Y-103387949D01*
X160241794Y-103332225D01*
X160250956Y-103284695D01*
X160287540Y-103252996D01*
X160324589Y-103251232D01*
X160324589Y-103250500D01*
X160464770Y-103250500D01*
X160464772Y-103250500D01*
X160589069Y-103214004D01*
X160698049Y-103143967D01*
X160782882Y-103046063D01*
X160836697Y-102928226D01*
X160855133Y-102800000D01*
X160836697Y-102671774D01*
X160782882Y-102553937D01*
X160698049Y-102456033D01*
X160589069Y-102385996D01*
X160464772Y-102349500D01*
X160335228Y-102349500D01*
X160251494Y-102374086D01*
X160210931Y-102385996D01*
X160101951Y-102456033D01*
X160017117Y-102553937D01*
X159963302Y-102671774D01*
X159944867Y-102800000D01*
X159958205Y-102892772D01*
X159949044Y-102940303D01*
X159912462Y-102972002D01*
X159875411Y-102973768D01*
X159875411Y-102974500D01*
X159724589Y-102974500D01*
X159724589Y-102973768D01*
X159687536Y-102972001D01*
X159650954Y-102940302D01*
X159641794Y-102892772D01*
X159655133Y-102800000D01*
X159636697Y-102671774D01*
X159582882Y-102553937D01*
X159498049Y-102456033D01*
X159389069Y-102385996D01*
X159264772Y-102349500D01*
X159135228Y-102349500D01*
X159051494Y-102374086D01*
X159010931Y-102385996D01*
X158901951Y-102456033D01*
X158817117Y-102553937D01*
X158763302Y-102671774D01*
X158744867Y-102799999D01*
X158763302Y-102928225D01*
X158817117Y-103046062D01*
X158817118Y-103046063D01*
X158901951Y-103143967D01*
X159010931Y-103214004D01*
X159135228Y-103250500D01*
X159135230Y-103250500D01*
X159275411Y-103250500D01*
X159275411Y-103251233D01*
X159312458Y-103252995D01*
X159349043Y-103284694D01*
X159358205Y-103332227D01*
X159344867Y-103424999D01*
X159363302Y-103553225D01*
X159417117Y-103671062D01*
X159417118Y-103671063D01*
X159501951Y-103768967D01*
X159594146Y-103828217D01*
X159608975Y-103837747D01*
X159638897Y-103875797D01*
X159638897Y-103924203D01*
X159608975Y-103962253D01*
X159501951Y-104031033D01*
X159417117Y-104128937D01*
X159363302Y-104246774D01*
X159344867Y-104375000D01*
X159358205Y-104467772D01*
X159349044Y-104515303D01*
X159312462Y-104547002D01*
X159275411Y-104548768D01*
X159275411Y-104549500D01*
X159264772Y-104549500D01*
X159135228Y-104549500D01*
X159026761Y-104581348D01*
X159010931Y-104585996D01*
X158901951Y-104656033D01*
X158817117Y-104753937D01*
X158763302Y-104871774D01*
X158744867Y-105000000D01*
X158763302Y-105128225D01*
X158817117Y-105246062D01*
X158817118Y-105246063D01*
X158901951Y-105343967D01*
X159010931Y-105414004D01*
X159135228Y-105450500D01*
X159264770Y-105450500D01*
X159264772Y-105450500D01*
X159389069Y-105414004D01*
X159498049Y-105343967D01*
X159582882Y-105246063D01*
X159636697Y-105128226D01*
X159655133Y-105000000D01*
X159641794Y-104907225D01*
X159650956Y-104859695D01*
X159687540Y-104827996D01*
X159724589Y-104826232D01*
X159724589Y-104825500D01*
X159875411Y-104825500D01*
X159875411Y-104826233D01*
X159912458Y-104827995D01*
X159949043Y-104859694D01*
X159958205Y-104907227D01*
X159944867Y-104999999D01*
X159963302Y-105128225D01*
X160017117Y-105246062D01*
X160017118Y-105246063D01*
X160101951Y-105343967D01*
X160210931Y-105414004D01*
X160335228Y-105450500D01*
X160464770Y-105450500D01*
X160464772Y-105450500D01*
X160589069Y-105414004D01*
X160698049Y-105343967D01*
X160782882Y-105246063D01*
X160836697Y-105128226D01*
X160855133Y-105000000D01*
X160836697Y-104871774D01*
X160782882Y-104753937D01*
X160698049Y-104656033D01*
X160589069Y-104585996D01*
X160464772Y-104549500D01*
X160335228Y-104549500D01*
X160324589Y-104549500D01*
X160324589Y-104548768D01*
X160287536Y-104547001D01*
X160250954Y-104515302D01*
X160241794Y-104467772D01*
X160244422Y-104449500D01*
X160251744Y-104398567D01*
X160264712Y-104366176D01*
X160291082Y-104343326D01*
X160324991Y-104335100D01*
X161554831Y-104335100D01*
X161583150Y-104340733D01*
X161607157Y-104356774D01*
X161785362Y-104534979D01*
X161806071Y-104575391D01*
X161799278Y-104620289D01*
X161723629Y-104772213D01*
X161665278Y-104977293D01*
X161645605Y-105189603D01*
X161665278Y-105401912D01*
X161723629Y-105606992D01*
X161818667Y-105797857D01*
X161922190Y-105934941D01*
X161947163Y-105968010D01*
X162075953Y-106085419D01*
X162098132Y-106123161D01*
X162095101Y-106166835D01*
X162067918Y-106201153D01*
X162026098Y-106214103D01*
X158802636Y-106214103D01*
X158797357Y-106213914D01*
X158552745Y-106196418D01*
X158542294Y-106194916D01*
X158305232Y-106143347D01*
X158295102Y-106140372D01*
X158067807Y-106055595D01*
X158058203Y-106051209D01*
X157845274Y-105934941D01*
X157836392Y-105929233D01*
X157642189Y-105783855D01*
X157634209Y-105776941D01*
X157462663Y-105605395D01*
X157455749Y-105597416D01*
X157452475Y-105593043D01*
X157310364Y-105403205D01*
X157304657Y-105394323D01*
X157188391Y-105181398D01*
X157184005Y-105171795D01*
X157175722Y-105149588D01*
X157099222Y-104944485D01*
X157096254Y-104934379D01*
X157088775Y-104899999D01*
X157444867Y-104899999D01*
X157463302Y-105028225D01*
X157517117Y-105146062D01*
X157517118Y-105146063D01*
X157601951Y-105243967D01*
X157710931Y-105314004D01*
X157835228Y-105350500D01*
X157964770Y-105350500D01*
X157964772Y-105350500D01*
X158089069Y-105314004D01*
X158198049Y-105243967D01*
X158282882Y-105146063D01*
X158336697Y-105028226D01*
X158355133Y-104900000D01*
X158336697Y-104771774D01*
X158282882Y-104653937D01*
X158198049Y-104556033D01*
X158089069Y-104485996D01*
X157964772Y-104449500D01*
X157835228Y-104449500D01*
X157710930Y-104485996D01*
X157710931Y-104485996D01*
X157601951Y-104556033D01*
X157517117Y-104653937D01*
X157463302Y-104771774D01*
X157444867Y-104899999D01*
X157088775Y-104899999D01*
X157044682Y-104697307D01*
X157043181Y-104686857D01*
X157041237Y-104659683D01*
X157025688Y-104442287D01*
X157025500Y-104437009D01*
X157025500Y-102900000D01*
X157444867Y-102900000D01*
X157463302Y-103028225D01*
X157517117Y-103146062D01*
X157517118Y-103146063D01*
X157601951Y-103243967D01*
X157710931Y-103314004D01*
X157835228Y-103350500D01*
X157964770Y-103350500D01*
X157964772Y-103350500D01*
X158089069Y-103314004D01*
X158198049Y-103243967D01*
X158282882Y-103146063D01*
X158336697Y-103028226D01*
X158355133Y-102900000D01*
X158336697Y-102771774D01*
X158282882Y-102653937D01*
X158198049Y-102556033D01*
X158089069Y-102485996D01*
X157964772Y-102449500D01*
X157835228Y-102449500D01*
X157710930Y-102485996D01*
X157710931Y-102485996D01*
X157601951Y-102556033D01*
X157517117Y-102653937D01*
X157463302Y-102771774D01*
X157444867Y-102900000D01*
X157025500Y-102900000D01*
X157025500Y-100830998D01*
X157034552Y-100795533D01*
X157059493Y-100768745D01*
X157098049Y-100743967D01*
X157182881Y-100646064D01*
X157182880Y-100646064D01*
X157182882Y-100646063D01*
X157236697Y-100528226D01*
X157255133Y-100400000D01*
X157236697Y-100271774D01*
X157182882Y-100153937D01*
X157098049Y-100056033D01*
X156989069Y-99985996D01*
X156864772Y-99949500D01*
X156735228Y-99949500D01*
X156621792Y-99982807D01*
X156610931Y-99985996D01*
X156501951Y-100056033D01*
X156417117Y-100153937D01*
X156408968Y-100171782D01*
X156370167Y-100256742D01*
X156342863Y-100288253D01*
X156302856Y-100300000D01*
X155699500Y-100300000D01*
X155662500Y-100290086D01*
X155635414Y-100263000D01*
X155625500Y-100226000D01*
X155625500Y-97800000D01*
X170439659Y-97800000D01*
X170458976Y-97996132D01*
X170516186Y-98184728D01*
X170543745Y-98236286D01*
X170609090Y-98358538D01*
X170734117Y-98510883D01*
X170886462Y-98635910D01*
X171060273Y-98728814D01*
X171248868Y-98786024D01*
X171445000Y-98805341D01*
X171641132Y-98786024D01*
X171829727Y-98728814D01*
X172003538Y-98635910D01*
X172155883Y-98510883D01*
X172280910Y-98358538D01*
X172373814Y-98184727D01*
X172414683Y-98050000D01*
X173015839Y-98050000D01*
X173056651Y-98184538D01*
X173149506Y-98358256D01*
X173274472Y-98510527D01*
X173426743Y-98635493D01*
X173600461Y-98728348D01*
X173735000Y-98769160D01*
X173735000Y-98050000D01*
X174235000Y-98050000D01*
X174235000Y-98769160D01*
X174369538Y-98728348D01*
X174543256Y-98635493D01*
X174695527Y-98510527D01*
X174820493Y-98358256D01*
X174913348Y-98184538D01*
X174954161Y-98050000D01*
X174235000Y-98050000D01*
X173735000Y-98050000D01*
X173015839Y-98050000D01*
X172414683Y-98050000D01*
X172431024Y-97996132D01*
X172450341Y-97800000D01*
X172431024Y-97603868D01*
X172414683Y-97550000D01*
X173015839Y-97550000D01*
X173735000Y-97550000D01*
X173735000Y-96830839D01*
X174235000Y-96830839D01*
X174235000Y-97550000D01*
X174954160Y-97550000D01*
X174913348Y-97415461D01*
X174820493Y-97241743D01*
X174695527Y-97089472D01*
X174543256Y-96964506D01*
X174369538Y-96871651D01*
X174235000Y-96830839D01*
X173735000Y-96830839D01*
X173600461Y-96871651D01*
X173426743Y-96964506D01*
X173274472Y-97089472D01*
X173149506Y-97241743D01*
X173056651Y-97415461D01*
X173015839Y-97550000D01*
X172414683Y-97550000D01*
X172373814Y-97415273D01*
X172280910Y-97241462D01*
X172155883Y-97089117D01*
X172003538Y-96964090D01*
X171916632Y-96917637D01*
X171829728Y-96871186D01*
X171641132Y-96813976D01*
X171445000Y-96794659D01*
X171444999Y-96794659D01*
X171248867Y-96813976D01*
X171060271Y-96871186D01*
X170886462Y-96964090D01*
X170734117Y-97089117D01*
X170609090Y-97241462D01*
X170516186Y-97415271D01*
X170458976Y-97603867D01*
X170439659Y-97800000D01*
X155625500Y-97800000D01*
X155625500Y-97501946D01*
X155625601Y-97498073D01*
X155634132Y-97335286D01*
X155642413Y-97177265D01*
X155643223Y-97169567D01*
X155693172Y-96854204D01*
X155694777Y-96846649D01*
X155777425Y-96538200D01*
X155779810Y-96530865D01*
X155894244Y-96232751D01*
X155897378Y-96225712D01*
X156042348Y-95941194D01*
X156046207Y-95934511D01*
X156220119Y-95666708D01*
X156224657Y-95660462D01*
X156425613Y-95412302D01*
X156430777Y-95406567D01*
X156656567Y-95180777D01*
X156662302Y-95175613D01*
X156910462Y-94974657D01*
X156916708Y-94970119D01*
X157184511Y-94796207D01*
X157191194Y-94792348D01*
X157475712Y-94647378D01*
X157482751Y-94644244D01*
X157780865Y-94529810D01*
X157788200Y-94527425D01*
X158096649Y-94444777D01*
X158104204Y-94443172D01*
X158419571Y-94393222D01*
X158427265Y-94392413D01*
X158748072Y-94375601D01*
X158751946Y-94375500D01*
X158803989Y-94375500D01*
X170738854Y-94375500D01*
X170781464Y-94388999D01*
X170808528Y-94424570D01*
X170810173Y-94469237D01*
X170785799Y-94506701D01*
X170747519Y-94538118D01*
X170734117Y-94549117D01*
X170609090Y-94701462D01*
X170516186Y-94875271D01*
X170458976Y-95063867D01*
X170439659Y-95259999D01*
X170458976Y-95456132D01*
X170516186Y-95644728D01*
X170527941Y-95666719D01*
X170609090Y-95818538D01*
X170734117Y-95970883D01*
X170886462Y-96095910D01*
X171060273Y-96188814D01*
X171248868Y-96246024D01*
X171445000Y-96265341D01*
X171641132Y-96246024D01*
X171829727Y-96188814D01*
X172003538Y-96095910D01*
X172155883Y-95970883D01*
X172280910Y-95818538D01*
X172373814Y-95644727D01*
X172431024Y-95456132D01*
X172450341Y-95260000D01*
X172431024Y-95063868D01*
X172373814Y-94875273D01*
X172280910Y-94701462D01*
X172155883Y-94549117D01*
X172142481Y-94538118D01*
X172117225Y-94497129D01*
X172122532Y-94449277D01*
X172156155Y-94414818D01*
X172203860Y-94408338D01*
X172312280Y-94429902D01*
X172321618Y-94432404D01*
X172513663Y-94497593D01*
X172522600Y-94501295D01*
X172704486Y-94590988D01*
X172712861Y-94595823D01*
X172881492Y-94708496D01*
X172889160Y-94714380D01*
X172955168Y-94772266D01*
X173023767Y-94832425D01*
X173046131Y-94867742D01*
X173045790Y-94909543D01*
X172998976Y-95063867D01*
X172979659Y-95259999D01*
X172998976Y-95456132D01*
X173056186Y-95644728D01*
X173067941Y-95666719D01*
X173149090Y-95818538D01*
X173274117Y-95970883D01*
X173426462Y-96095910D01*
X173600273Y-96188814D01*
X173788868Y-96246024D01*
X173985000Y-96265341D01*
X174181132Y-96246024D01*
X174369727Y-96188814D01*
X174543538Y-96095910D01*
X174695883Y-95970883D01*
X174820910Y-95818538D01*
X174913814Y-95644727D01*
X174971024Y-95456132D01*
X174990341Y-95260000D01*
X174971024Y-95063868D01*
X174913814Y-94875273D01*
X174820910Y-94701462D01*
X174695883Y-94549117D01*
X174543538Y-94424090D01*
X174452633Y-94375500D01*
X174369728Y-94331186D01*
X174181132Y-94273976D01*
X174066745Y-94262709D01*
X174032888Y-94250595D01*
X174008738Y-94223949D01*
X174000000Y-94189066D01*
X174000000Y-93790934D01*
X174008738Y-93756051D01*
X174032888Y-93729405D01*
X174066745Y-93717290D01*
X174181132Y-93706024D01*
X174369727Y-93648814D01*
X174543538Y-93555910D01*
X174695883Y-93430883D01*
X174820910Y-93278538D01*
X174913814Y-93104727D01*
X174971024Y-92916132D01*
X174990341Y-92720000D01*
X174971024Y-92523868D01*
X174913814Y-92335273D01*
X174820910Y-92161462D01*
X174695883Y-92009117D01*
X174543538Y-91884090D01*
X174456632Y-91837637D01*
X174369728Y-91791186D01*
X174181132Y-91733976D01*
X173985000Y-91714659D01*
X173788867Y-91733976D01*
X173681368Y-91766585D01*
X173641907Y-91767553D01*
X173607562Y-91748097D01*
X173535396Y-91675932D01*
X173326805Y-91509586D01*
X173100884Y-91367630D01*
X172860494Y-91251864D01*
X172608664Y-91163745D01*
X172500106Y-91138967D01*
X172466749Y-91121535D01*
X172446280Y-91089951D01*
X172443995Y-91052385D01*
X172445500Y-91044820D01*
X172445500Y-89315180D01*
X172436767Y-89271278D01*
X172403504Y-89221496D01*
X172353722Y-89188233D01*
X172309820Y-89179500D01*
X170580180Y-89179500D01*
X170536278Y-89188232D01*
X170536278Y-89188233D01*
X170486496Y-89221496D01*
X170453233Y-89271278D01*
X170444500Y-89315181D01*
X170444500Y-91000500D01*
X170434586Y-91037500D01*
X170407500Y-91064586D01*
X170370500Y-91074500D01*
X158676539Y-91074500D01*
X158676215Y-91074526D01*
X158491094Y-91074526D01*
X158047958Y-91111242D01*
X157672138Y-91173954D01*
X157609352Y-91184431D01*
X157178294Y-91293587D01*
X156757723Y-91437968D01*
X156757720Y-91437969D01*
X156757712Y-91437972D01*
X156350514Y-91616583D01*
X155959436Y-91828222D01*
X155587184Y-92071425D01*
X155236281Y-92344541D01*
X155000051Y-92562005D01*
X154909127Y-92645706D01*
X154909124Y-92645709D01*
X154909121Y-92645712D01*
X154607964Y-92972854D01*
X154334842Y-93323758D01*
X154091637Y-93696012D01*
X153879998Y-94087083D01*
X153701380Y-94494289D01*
X153694612Y-94514004D01*
X153556996Y-94914866D01*
X153513764Y-95085584D01*
X153447836Y-95345925D01*
X153374645Y-95784529D01*
X153337927Y-96227665D01*
X153337927Y-96349306D01*
X153333918Y-96373333D01*
X153323784Y-96402853D01*
X153322140Y-96414132D01*
X141220588Y-96414132D01*
X141226707Y-96371572D01*
X141208271Y-96243346D01*
X141154456Y-96125509D01*
X141069623Y-96027605D01*
X140960643Y-95957568D01*
X140836346Y-95921072D01*
X140706802Y-95921072D01*
X140638217Y-95941210D01*
X140582505Y-95957568D01*
X140473525Y-96027605D01*
X140388691Y-96125509D01*
X140334876Y-96243346D01*
X140316441Y-96371571D01*
X138398280Y-96371571D01*
X138379844Y-96243346D01*
X138326029Y-96125509D01*
X138241196Y-96027605D01*
X138132216Y-95957568D01*
X138007919Y-95921072D01*
X137878375Y-95921072D01*
X137809790Y-95941210D01*
X137754078Y-95957568D01*
X137645098Y-96027605D01*
X137560264Y-96125509D01*
X137506449Y-96243346D01*
X137488014Y-96371571D01*
X127300500Y-96371571D01*
X127300500Y-95500000D01*
X135644867Y-95500000D01*
X135663302Y-95628225D01*
X135717117Y-95746062D01*
X135717118Y-95746063D01*
X135801951Y-95843967D01*
X135910931Y-95914004D01*
X136035228Y-95950500D01*
X136164770Y-95950500D01*
X136164772Y-95950500D01*
X136289069Y-95914004D01*
X136398049Y-95843967D01*
X136482882Y-95746063D01*
X136536697Y-95628226D01*
X136555133Y-95500000D01*
X136536697Y-95371774D01*
X136482882Y-95253937D01*
X136398049Y-95156033D01*
X136289069Y-95085996D01*
X136164772Y-95049500D01*
X136035228Y-95049500D01*
X135912334Y-95085584D01*
X135910931Y-95085996D01*
X135801951Y-95156033D01*
X135717117Y-95253937D01*
X135663302Y-95371774D01*
X135644867Y-95500000D01*
X127300500Y-95500000D01*
X127300500Y-94957359D01*
X138902227Y-94957359D01*
X138920662Y-95085584D01*
X138974477Y-95203421D01*
X138974478Y-95203422D01*
X139059311Y-95301326D01*
X139168291Y-95371363D01*
X139292588Y-95407859D01*
X139422130Y-95407859D01*
X139422132Y-95407859D01*
X139546429Y-95371363D01*
X139655409Y-95301326D01*
X139740242Y-95203422D01*
X139794057Y-95085585D01*
X139812493Y-94957359D01*
X139794057Y-94829133D01*
X139740242Y-94711296D01*
X139655409Y-94613392D01*
X139546429Y-94543355D01*
X139422132Y-94506859D01*
X139292588Y-94506859D01*
X139186127Y-94538118D01*
X139168291Y-94543355D01*
X139059311Y-94613392D01*
X138974477Y-94711296D01*
X138920662Y-94829133D01*
X138902227Y-94957359D01*
X127300500Y-94957359D01*
X127300500Y-93700000D01*
X137244867Y-93700000D01*
X137263302Y-93828225D01*
X137317117Y-93946062D01*
X137317118Y-93946063D01*
X137401951Y-94043967D01*
X137510931Y-94114004D01*
X137635228Y-94150500D01*
X137764770Y-94150500D01*
X137764772Y-94150500D01*
X137889069Y-94114004D01*
X137910861Y-94099999D01*
X147422367Y-94099999D01*
X147440802Y-94228225D01*
X147494617Y-94346062D01*
X147494618Y-94346063D01*
X147579451Y-94443967D01*
X147688431Y-94514004D01*
X147812728Y-94550500D01*
X147942270Y-94550500D01*
X147942272Y-94550500D01*
X148066569Y-94514004D01*
X148175549Y-94443967D01*
X148260382Y-94346063D01*
X148314197Y-94228226D01*
X148332633Y-94100000D01*
X148314197Y-93971774D01*
X148260382Y-93853937D01*
X148175549Y-93756033D01*
X148066569Y-93685996D01*
X147942272Y-93649500D01*
X147812728Y-93649500D01*
X147694078Y-93684338D01*
X147688431Y-93685996D01*
X147579451Y-93756033D01*
X147494617Y-93853937D01*
X147440802Y-93971774D01*
X147422367Y-94099999D01*
X137910861Y-94099999D01*
X137998049Y-94043967D01*
X138082882Y-93946063D01*
X138136697Y-93828226D01*
X138155133Y-93700000D01*
X138136697Y-93571774D01*
X138082882Y-93453937D01*
X137998049Y-93356033D01*
X137889069Y-93285996D01*
X137764772Y-93249500D01*
X137635228Y-93249500D01*
X137510930Y-93285996D01*
X137510931Y-93285996D01*
X137401951Y-93356033D01*
X137317117Y-93453937D01*
X137263302Y-93571774D01*
X137244867Y-93700000D01*
X127300500Y-93700000D01*
X127300500Y-92109999D01*
X132174317Y-92109999D01*
X132194956Y-92266762D01*
X132255464Y-92412842D01*
X132303591Y-92475561D01*
X132351718Y-92538282D01*
X132433455Y-92601001D01*
X132477157Y-92634535D01*
X132477158Y-92634535D01*
X132477159Y-92634536D01*
X132623238Y-92695044D01*
X132740639Y-92710500D01*
X132819360Y-92710500D01*
X132819361Y-92710500D01*
X132936762Y-92695044D01*
X133082841Y-92634536D01*
X133208282Y-92538282D01*
X133304536Y-92412841D01*
X133355583Y-92289603D01*
X144044867Y-92289603D01*
X144063302Y-92417828D01*
X144117117Y-92535665D01*
X144117118Y-92535666D01*
X144201951Y-92633570D01*
X144310931Y-92703607D01*
X144435228Y-92740103D01*
X144564770Y-92740103D01*
X144564772Y-92740103D01*
X144689069Y-92703607D01*
X144798049Y-92633570D01*
X144798052Y-92633566D01*
X144802663Y-92630603D01*
X144846398Y-92618950D01*
X144888739Y-92634945D01*
X144913845Y-92672602D01*
X144922667Y-92703606D01*
X144923631Y-92706994D01*
X145018668Y-92897857D01*
X145025904Y-92907439D01*
X145147163Y-93068010D01*
X145304733Y-93211655D01*
X145486016Y-93323901D01*
X145684837Y-93400924D01*
X145894425Y-93440103D01*
X146107644Y-93440103D01*
X146107645Y-93440103D01*
X146317233Y-93400924D01*
X146516054Y-93323901D01*
X146697337Y-93211655D01*
X146854907Y-93068010D01*
X146976166Y-92907439D01*
X146983402Y-92897857D01*
X147078440Y-92706992D01*
X147100175Y-92630603D01*
X147136791Y-92501913D01*
X147156464Y-92289603D01*
X147136791Y-92077293D01*
X147110266Y-91984068D01*
X147078440Y-91872213D01*
X146983402Y-91681348D01*
X146854909Y-91511199D01*
X146854907Y-91511196D01*
X146697337Y-91367551D01*
X146516054Y-91255305D01*
X146317233Y-91178282D01*
X146107645Y-91139103D01*
X145894425Y-91139103D01*
X145789630Y-91158692D01*
X145684836Y-91178282D01*
X145486015Y-91255305D01*
X145342824Y-91343966D01*
X145304733Y-91367551D01*
X145148929Y-91509586D01*
X145147160Y-91511199D01*
X145018668Y-91681348D01*
X144923631Y-91872210D01*
X144913846Y-91906602D01*
X144888739Y-91944260D01*
X144846398Y-91960255D01*
X144802664Y-91948602D01*
X144689070Y-91875599D01*
X144647636Y-91863433D01*
X144564772Y-91839103D01*
X144435228Y-91839103D01*
X144322473Y-91872210D01*
X144310931Y-91875599D01*
X144201951Y-91945636D01*
X144117117Y-92043540D01*
X144063302Y-92161377D01*
X144044867Y-92289603D01*
X133355583Y-92289603D01*
X133365044Y-92266762D01*
X133385682Y-92110000D01*
X133365044Y-91953238D01*
X133304536Y-91807159D01*
X133304535Y-91807158D01*
X133304535Y-91807157D01*
X133299043Y-91800000D01*
X137244867Y-91800000D01*
X137263302Y-91928225D01*
X137317117Y-92046062D01*
X137317118Y-92046063D01*
X137401951Y-92143967D01*
X137510931Y-92214004D01*
X137635228Y-92250500D01*
X137764770Y-92250500D01*
X137764772Y-92250500D01*
X137889069Y-92214004D01*
X137998049Y-92143967D01*
X138082882Y-92046063D01*
X138136697Y-91928226D01*
X138155133Y-91800000D01*
X138136697Y-91671774D01*
X138082882Y-91553937D01*
X137998049Y-91456033D01*
X137889069Y-91385996D01*
X137764772Y-91349500D01*
X137635228Y-91349500D01*
X137510930Y-91385996D01*
X137510931Y-91385996D01*
X137401951Y-91456033D01*
X137317117Y-91553937D01*
X137263302Y-91671774D01*
X137244867Y-91800000D01*
X133299043Y-91800000D01*
X133233558Y-91714659D01*
X133208282Y-91681718D01*
X133123399Y-91616585D01*
X133082842Y-91585464D01*
X132936762Y-91524956D01*
X132936761Y-91524955D01*
X132819361Y-91509500D01*
X132740639Y-91509500D01*
X132727734Y-91511199D01*
X132623237Y-91524956D01*
X132477157Y-91585464D01*
X132351718Y-91681718D01*
X132255464Y-91807157D01*
X132194956Y-91953237D01*
X132174317Y-92109999D01*
X127300500Y-92109999D01*
X127300500Y-90675000D01*
X128094317Y-90675000D01*
X128114956Y-90831762D01*
X128175464Y-90977842D01*
X128204675Y-91015910D01*
X128271718Y-91103282D01*
X128350514Y-91163744D01*
X128397157Y-91199535D01*
X128397158Y-91199535D01*
X128397159Y-91199536D01*
X128543238Y-91260044D01*
X128660639Y-91275500D01*
X129539360Y-91275500D01*
X129539361Y-91275500D01*
X129656762Y-91260044D01*
X129802841Y-91199536D01*
X129928282Y-91103282D01*
X130024536Y-90977841D01*
X130085044Y-90831762D01*
X130105682Y-90675000D01*
X132114317Y-90675000D01*
X132134956Y-90831762D01*
X132195464Y-90977842D01*
X132224675Y-91015910D01*
X132291718Y-91103282D01*
X132370514Y-91163744D01*
X132417157Y-91199535D01*
X132417158Y-91199535D01*
X132417159Y-91199536D01*
X132563238Y-91260044D01*
X132680639Y-91275500D01*
X133859360Y-91275500D01*
X133859361Y-91275500D01*
X133976762Y-91260044D01*
X134122841Y-91199536D01*
X134248282Y-91103282D01*
X134344536Y-90977841D01*
X134373357Y-90908258D01*
X134399955Y-90875493D01*
X134440138Y-90862595D01*
X134480838Y-90873760D01*
X134508815Y-90905357D01*
X134514971Y-90947108D01*
X134507366Y-90999999D01*
X134525802Y-91128225D01*
X134579617Y-91246062D01*
X134584646Y-91251866D01*
X134664451Y-91343967D01*
X134773431Y-91414004D01*
X134897728Y-91450500D01*
X135027270Y-91450500D01*
X135027272Y-91450500D01*
X135151569Y-91414004D01*
X135260549Y-91343967D01*
X135345382Y-91246063D01*
X135399197Y-91128226D01*
X135417633Y-91000000D01*
X135399197Y-90871774D01*
X135345382Y-90753937D01*
X135260549Y-90656033D01*
X135151569Y-90585996D01*
X135027272Y-90549500D01*
X134897728Y-90549500D01*
X134773431Y-90585995D01*
X134773431Y-90585996D01*
X134664451Y-90656033D01*
X134579616Y-90753939D01*
X134553863Y-90810329D01*
X134526706Y-90841745D01*
X134486902Y-90853586D01*
X134446988Y-90842123D01*
X134419534Y-90810966D01*
X134413184Y-90769929D01*
X134425682Y-90675000D01*
X134405044Y-90518238D01*
X134344536Y-90372159D01*
X134344535Y-90372158D01*
X134344535Y-90372157D01*
X134307246Y-90323562D01*
X134248282Y-90246718D01*
X134185561Y-90198590D01*
X134122842Y-90150464D01*
X133976762Y-90089956D01*
X133859361Y-90074500D01*
X132680639Y-90074500D01*
X132657852Y-90077500D01*
X132563237Y-90089956D01*
X132417157Y-90150464D01*
X132291718Y-90246718D01*
X132195464Y-90372157D01*
X132134956Y-90518237D01*
X132114317Y-90675000D01*
X130105682Y-90675000D01*
X130085044Y-90518238D01*
X130024536Y-90372159D01*
X130024535Y-90372158D01*
X130024535Y-90372157D01*
X129987246Y-90323562D01*
X129928282Y-90246718D01*
X129865561Y-90198590D01*
X129802842Y-90150464D01*
X129656762Y-90089956D01*
X129539361Y-90074500D01*
X128660639Y-90074500D01*
X128637852Y-90077500D01*
X128543237Y-90089956D01*
X128397157Y-90150464D01*
X128271718Y-90246718D01*
X128175464Y-90372157D01*
X128114956Y-90518237D01*
X128094317Y-90675000D01*
X127300500Y-90675000D01*
X127300500Y-89739603D01*
X144845605Y-89739603D01*
X144865278Y-89951912D01*
X144923629Y-90156992D01*
X145018667Y-90347857D01*
X145127146Y-90491504D01*
X145147163Y-90518010D01*
X145304733Y-90661655D01*
X145486016Y-90773901D01*
X145684837Y-90850924D01*
X145894425Y-90890103D01*
X146107644Y-90890103D01*
X146107645Y-90890103D01*
X146317233Y-90850924D01*
X146516054Y-90773901D01*
X146697337Y-90661655D01*
X146854907Y-90518010D01*
X146983401Y-90347858D01*
X147078440Y-90156992D01*
X147103518Y-90068851D01*
X147130099Y-90030049D01*
X147174694Y-90015103D01*
X147349274Y-90015103D01*
X147383183Y-90023329D01*
X147409553Y-90046179D01*
X147422521Y-90078572D01*
X147440802Y-90205725D01*
X147494617Y-90323562D01*
X147494618Y-90323563D01*
X147579451Y-90421467D01*
X147688431Y-90491504D01*
X147812728Y-90528000D01*
X147942270Y-90528000D01*
X147942272Y-90528000D01*
X148066569Y-90491504D01*
X148175549Y-90421467D01*
X148260382Y-90323563D01*
X148314197Y-90205726D01*
X148332633Y-90077500D01*
X148314197Y-89949274D01*
X148260382Y-89831437D01*
X148175549Y-89733533D01*
X148066569Y-89663496D01*
X147942272Y-89627000D01*
X147942270Y-89627000D01*
X147847268Y-89627000D01*
X147818949Y-89621367D01*
X147794942Y-89605326D01*
X147758748Y-89569132D01*
X147749545Y-89557918D01*
X147738227Y-89540979D01*
X147721282Y-89529656D01*
X147721277Y-89529652D01*
X147689068Y-89508131D01*
X147647097Y-89480087D01*
X147559590Y-89462681D01*
X147559586Y-89462681D01*
X147539603Y-89458706D01*
X147539602Y-89458706D01*
X147530793Y-89460458D01*
X147519618Y-89462681D01*
X147505183Y-89464103D01*
X147174694Y-89464103D01*
X147130099Y-89449157D01*
X147103519Y-89410355D01*
X147084664Y-89344090D01*
X147078440Y-89322214D01*
X146983401Y-89131348D01*
X146854907Y-88961196D01*
X146697337Y-88817551D01*
X146516054Y-88705305D01*
X146317233Y-88628282D01*
X146107645Y-88589103D01*
X145894425Y-88589103D01*
X145789631Y-88608692D01*
X145684836Y-88628282D01*
X145486015Y-88705305D01*
X145304736Y-88817549D01*
X145304733Y-88817551D01*
X145147163Y-88961196D01*
X145147160Y-88961199D01*
X145018667Y-89131348D01*
X144923629Y-89322213D01*
X144865278Y-89527293D01*
X144845605Y-89739603D01*
X127300500Y-89739603D01*
X127300500Y-86077499D01*
X147422367Y-86077499D01*
X147440802Y-86205725D01*
X147494617Y-86323562D01*
X147494618Y-86323563D01*
X147579451Y-86421467D01*
X147688431Y-86491504D01*
X147812728Y-86528000D01*
X147942270Y-86528000D01*
X147942272Y-86528000D01*
X148066569Y-86491504D01*
X148175549Y-86421467D01*
X148260382Y-86323563D01*
X148314197Y-86205726D01*
X148332633Y-86077500D01*
X148314197Y-85949274D01*
X148260382Y-85831437D01*
X148175549Y-85733533D01*
X148066569Y-85663496D01*
X147942272Y-85627000D01*
X147812728Y-85627000D01*
X147688430Y-85663496D01*
X147688431Y-85663496D01*
X147579451Y-85733533D01*
X147494617Y-85831437D01*
X147440802Y-85949274D01*
X147422367Y-86077499D01*
X127300500Y-86077499D01*
X127300500Y-82550000D01*
X131074659Y-82550000D01*
X131093976Y-82746132D01*
X131151186Y-82934728D01*
X131177571Y-82984090D01*
X131244090Y-83108538D01*
X131369117Y-83260883D01*
X131521462Y-83385910D01*
X131695273Y-83478814D01*
X131883868Y-83536024D01*
X132080000Y-83555341D01*
X132276132Y-83536024D01*
X132464727Y-83478814D01*
X132638538Y-83385910D01*
X132790883Y-83260883D01*
X132915910Y-83108538D01*
X133008814Y-82934727D01*
X133052837Y-82789603D01*
X138845605Y-82789603D01*
X138865278Y-83001912D01*
X138923629Y-83206992D01*
X139018667Y-83397857D01*
X139123007Y-83536023D01*
X139147163Y-83568010D01*
X139304733Y-83711655D01*
X139486016Y-83823901D01*
X139684837Y-83900924D01*
X139894425Y-83940103D01*
X140107644Y-83940103D01*
X140107645Y-83940103D01*
X140317233Y-83900924D01*
X140516054Y-83823901D01*
X140697337Y-83711655D01*
X140854907Y-83568010D01*
X140983401Y-83397858D01*
X141078440Y-83206992D01*
X141103518Y-83118851D01*
X141130099Y-83080049D01*
X141174694Y-83065103D01*
X141198433Y-83065103D01*
X141229174Y-83071790D01*
X141254356Y-83090641D01*
X141291554Y-83133570D01*
X141400534Y-83203607D01*
X141524831Y-83240103D01*
X141654373Y-83240103D01*
X141654375Y-83240103D01*
X141778672Y-83203607D01*
X141887652Y-83133570D01*
X141972485Y-83035666D01*
X142026300Y-82917829D01*
X142044736Y-82789603D01*
X142026300Y-82661377D01*
X141972485Y-82543540D01*
X141887652Y-82445636D01*
X141778672Y-82375599D01*
X141654375Y-82339103D01*
X141524831Y-82339103D01*
X141400534Y-82375599D01*
X141291554Y-82445636D01*
X141254356Y-82488564D01*
X141229174Y-82507416D01*
X141198433Y-82514103D01*
X141174694Y-82514103D01*
X141130099Y-82499157D01*
X141103519Y-82460355D01*
X141098856Y-82443966D01*
X141078440Y-82372214D01*
X140983401Y-82181348D01*
X140921969Y-82100000D01*
X147422367Y-82100000D01*
X147425017Y-82118435D01*
X147440802Y-82228225D01*
X147494617Y-82346062D01*
X147494618Y-82346063D01*
X147579451Y-82443967D01*
X147688431Y-82514004D01*
X147812728Y-82550500D01*
X147942270Y-82550500D01*
X147942272Y-82550500D01*
X148066569Y-82514004D01*
X148175549Y-82443967D01*
X148260382Y-82346063D01*
X148314197Y-82228226D01*
X148332633Y-82100000D01*
X148314197Y-81971774D01*
X148260382Y-81853937D01*
X148175549Y-81756033D01*
X148066569Y-81685996D01*
X147942272Y-81649500D01*
X147812728Y-81649500D01*
X147688431Y-81685995D01*
X147688431Y-81685996D01*
X147579451Y-81756033D01*
X147494617Y-81853937D01*
X147440802Y-81971774D01*
X147422367Y-82099999D01*
X147422367Y-82100000D01*
X140921969Y-82100000D01*
X140854907Y-82011196D01*
X140697337Y-81867551D01*
X140516054Y-81755305D01*
X140317233Y-81678282D01*
X140107645Y-81639103D01*
X139894425Y-81639103D01*
X139789631Y-81658692D01*
X139684836Y-81678282D01*
X139486015Y-81755305D01*
X139351592Y-81838537D01*
X139304733Y-81867551D01*
X139168810Y-81991462D01*
X139147160Y-82011199D01*
X139018667Y-82181348D01*
X138923629Y-82372213D01*
X138865278Y-82577293D01*
X138845605Y-82789603D01*
X133052837Y-82789603D01*
X133066024Y-82746132D01*
X133085341Y-82550000D01*
X133066024Y-82353868D01*
X133008814Y-82165273D01*
X132915910Y-81991462D01*
X132790883Y-81839117D01*
X132638538Y-81714090D01*
X132517699Y-81649500D01*
X132464728Y-81621186D01*
X132276132Y-81563976D01*
X132080000Y-81544659D01*
X131883867Y-81563976D01*
X131695271Y-81621186D01*
X131521462Y-81714090D01*
X131369117Y-81839117D01*
X131244090Y-81991462D01*
X131151186Y-82165271D01*
X131093976Y-82353867D01*
X131074659Y-82550000D01*
X127300500Y-82550000D01*
X127300500Y-80009999D01*
X131074659Y-80009999D01*
X131093976Y-80206132D01*
X131151186Y-80394728D01*
X131177571Y-80444090D01*
X131244090Y-80568538D01*
X131369117Y-80720883D01*
X131521462Y-80845910D01*
X131695273Y-80938814D01*
X131883868Y-80996024D01*
X132080000Y-81015341D01*
X132276132Y-80996024D01*
X132464727Y-80938814D01*
X132638538Y-80845910D01*
X132790883Y-80720883D01*
X132915910Y-80568538D01*
X133008814Y-80394727D01*
X133066024Y-80206132D01*
X133085341Y-80010000D01*
X133066024Y-79813868D01*
X133008814Y-79625273D01*
X132989747Y-79589602D01*
X167145605Y-79589602D01*
X167165278Y-79801912D01*
X167223629Y-80006992D01*
X167318667Y-80197857D01*
X167434458Y-80351186D01*
X167447163Y-80368010D01*
X167604733Y-80511655D01*
X167615223Y-80518150D01*
X167615491Y-80518316D01*
X167641183Y-80545223D01*
X167650535Y-80581232D01*
X167650535Y-82227735D01*
X167650529Y-82227765D01*
X167650529Y-82417783D01*
X167678309Y-82735326D01*
X167733666Y-83049268D01*
X167816167Y-83357165D01*
X167925193Y-83656710D01*
X167925195Y-83656714D01*
X168059914Y-83945617D01*
X168209513Y-84204727D01*
X168219300Y-84221679D01*
X168402142Y-84482802D01*
X168607037Y-84726985D01*
X168607041Y-84726989D01*
X168607042Y-84726990D01*
X168705395Y-84825341D01*
X168705396Y-84825342D01*
X172819794Y-88939740D01*
X172823104Y-88943274D01*
X172969382Y-89110069D01*
X172975275Y-89117749D01*
X173097171Y-89300181D01*
X173102011Y-89308565D01*
X173194963Y-89497061D01*
X173202109Y-89538246D01*
X173185797Y-89576733D01*
X173149092Y-89621458D01*
X173056186Y-89795271D01*
X173008669Y-89951913D01*
X172998976Y-89983868D01*
X172979659Y-90180000D01*
X172996191Y-90347857D01*
X172998976Y-90376132D01*
X173056186Y-90564728D01*
X173102637Y-90651632D01*
X173149090Y-90738538D01*
X173274117Y-90890883D01*
X173426462Y-91015910D01*
X173600273Y-91108814D01*
X173788868Y-91166024D01*
X173985000Y-91185341D01*
X174181132Y-91166024D01*
X174369727Y-91108814D01*
X174543538Y-91015910D01*
X174695883Y-90890883D01*
X174820910Y-90738538D01*
X174913814Y-90564727D01*
X174971024Y-90376132D01*
X174990341Y-90180000D01*
X174971024Y-89983868D01*
X174913814Y-89795273D01*
X174820910Y-89621462D01*
X174695883Y-89469117D01*
X174543538Y-89344090D01*
X174543536Y-89344089D01*
X174543535Y-89344088D01*
X174541648Y-89343079D01*
X174519330Y-89324762D01*
X174505721Y-89299298D01*
X174460557Y-89150399D01*
X174460556Y-89150395D01*
X174345783Y-88873295D01*
X174204400Y-88608781D01*
X174037770Y-88359399D01*
X173847497Y-88127551D01*
X173847491Y-88127545D01*
X173799568Y-88079621D01*
X173799568Y-88079622D01*
X169700004Y-83980058D01*
X169700001Y-83980054D01*
X169660049Y-83940103D01*
X169641140Y-83921194D01*
X169638306Y-83918196D01*
X169622870Y-83900923D01*
X169550551Y-83819999D01*
X170444659Y-83819999D01*
X170463976Y-84016132D01*
X170521186Y-84204728D01*
X170530247Y-84221679D01*
X170614090Y-84378538D01*
X170739117Y-84530883D01*
X170891462Y-84655910D01*
X171065273Y-84748814D01*
X171253868Y-84806024D01*
X171450000Y-84825341D01*
X171646132Y-84806024D01*
X171834727Y-84748814D01*
X172008538Y-84655910D01*
X172160883Y-84530883D01*
X172285910Y-84378538D01*
X172378814Y-84204727D01*
X172436024Y-84016132D01*
X172455341Y-83820000D01*
X172455341Y-83819999D01*
X172984659Y-83819999D01*
X173003976Y-84016132D01*
X173061186Y-84204728D01*
X173070247Y-84221679D01*
X173154090Y-84378538D01*
X173279117Y-84530883D01*
X173431462Y-84655910D01*
X173605273Y-84748814D01*
X173793868Y-84806024D01*
X173990000Y-84825341D01*
X174186132Y-84806024D01*
X174374727Y-84748814D01*
X174548538Y-84655910D01*
X174700883Y-84530883D01*
X174825910Y-84378538D01*
X174918814Y-84204727D01*
X174976024Y-84016132D01*
X174995341Y-83820000D01*
X174976024Y-83623868D01*
X174918814Y-83435273D01*
X174825910Y-83261462D01*
X174700883Y-83109117D01*
X174548538Y-82984090D01*
X174424571Y-82917828D01*
X174374728Y-82891186D01*
X174186132Y-82833976D01*
X173990000Y-82814659D01*
X173989999Y-82814659D01*
X173793867Y-82833976D01*
X173605271Y-82891186D01*
X173431462Y-82984090D01*
X173279117Y-83109117D01*
X173154090Y-83261462D01*
X173061186Y-83435271D01*
X173003976Y-83623867D01*
X172984659Y-83819999D01*
X172455341Y-83819999D01*
X172436024Y-83623868D01*
X172378814Y-83435273D01*
X172285910Y-83261462D01*
X172160883Y-83109117D01*
X172008538Y-82984090D01*
X171884571Y-82917828D01*
X171834728Y-82891186D01*
X171646132Y-82833976D01*
X171450000Y-82814659D01*
X171449999Y-82814659D01*
X171253867Y-82833976D01*
X171065271Y-82891186D01*
X170891462Y-82984090D01*
X170739117Y-83109117D01*
X170614090Y-83261462D01*
X170521186Y-83435271D01*
X170463976Y-83623867D01*
X170444659Y-83819999D01*
X169550551Y-83819999D01*
X169466881Y-83726373D01*
X169461717Y-83719899D01*
X169314054Y-83511788D01*
X169309642Y-83504766D01*
X169186214Y-83281442D01*
X169182613Y-83273966D01*
X169177194Y-83260883D01*
X169084961Y-83038215D01*
X169082227Y-83030402D01*
X169011580Y-82785184D01*
X169009742Y-82777133D01*
X168966995Y-82525537D01*
X168966069Y-82517314D01*
X168965883Y-82514004D01*
X168951650Y-82260567D01*
X168951535Y-82256419D01*
X168951535Y-81280000D01*
X170444659Y-81280000D01*
X170463976Y-81476132D01*
X170521186Y-81664728D01*
X170547571Y-81714090D01*
X170614090Y-81838538D01*
X170739117Y-81990883D01*
X170891462Y-82115910D01*
X171065273Y-82208814D01*
X171253868Y-82266024D01*
X171450000Y-82285341D01*
X171646132Y-82266024D01*
X171834727Y-82208814D01*
X172008538Y-82115910D01*
X172160883Y-81990883D01*
X172285910Y-81838538D01*
X172378814Y-81664727D01*
X172436024Y-81476132D01*
X172455341Y-81280000D01*
X172984659Y-81280000D01*
X173003976Y-81476132D01*
X173061186Y-81664728D01*
X173087571Y-81714090D01*
X173154090Y-81838538D01*
X173279117Y-81990883D01*
X173431462Y-82115910D01*
X173605273Y-82208814D01*
X173793868Y-82266024D01*
X173990000Y-82285341D01*
X174186132Y-82266024D01*
X174374727Y-82208814D01*
X174548538Y-82115910D01*
X174700883Y-81990883D01*
X174825910Y-81838538D01*
X174918814Y-81664727D01*
X174976024Y-81476132D01*
X174995341Y-81280000D01*
X174976024Y-81083868D01*
X174918814Y-80895273D01*
X174825910Y-80721462D01*
X174700883Y-80569117D01*
X174548538Y-80444090D01*
X174456186Y-80394727D01*
X174374728Y-80351186D01*
X174186132Y-80293976D01*
X173990000Y-80274659D01*
X173793867Y-80293976D01*
X173605271Y-80351186D01*
X173431462Y-80444090D01*
X173279117Y-80569117D01*
X173154090Y-80721462D01*
X173061186Y-80895271D01*
X173003976Y-81083867D01*
X172984659Y-81280000D01*
X172455341Y-81280000D01*
X172436024Y-81083868D01*
X172378814Y-80895273D01*
X172285910Y-80721462D01*
X172160883Y-80569117D01*
X172008538Y-80444090D01*
X171916186Y-80394727D01*
X171834728Y-80351186D01*
X171646132Y-80293976D01*
X171450000Y-80274659D01*
X171253867Y-80293976D01*
X171065271Y-80351186D01*
X170891462Y-80444090D01*
X170739117Y-80569117D01*
X170614090Y-80721462D01*
X170521186Y-80895271D01*
X170463976Y-81083867D01*
X170444659Y-81280000D01*
X168951535Y-81280000D01*
X168951535Y-80581232D01*
X168960887Y-80545223D01*
X168986579Y-80518316D01*
X168986735Y-80518218D01*
X168997337Y-80511655D01*
X169154907Y-80368010D01*
X169283401Y-80197858D01*
X169283400Y-80197858D01*
X169283402Y-80197857D01*
X169378440Y-80006992D01*
X169433389Y-79813868D01*
X169436791Y-79801913D01*
X169455054Y-79604820D01*
X170449500Y-79604820D01*
X170458233Y-79648722D01*
X170491496Y-79698504D01*
X170541278Y-79731767D01*
X170585180Y-79740500D01*
X172314819Y-79740500D01*
X172314820Y-79740500D01*
X172358722Y-79731767D01*
X172408504Y-79698504D01*
X172441767Y-79648722D01*
X172450500Y-79604820D01*
X172450500Y-78739999D01*
X172984659Y-78739999D01*
X173003976Y-78936132D01*
X173061186Y-79124728D01*
X173086568Y-79172213D01*
X173154090Y-79298538D01*
X173279117Y-79450883D01*
X173431462Y-79575910D01*
X173605273Y-79668814D01*
X173793868Y-79726024D01*
X173990000Y-79745341D01*
X174186132Y-79726024D01*
X174374727Y-79668814D01*
X174548538Y-79575910D01*
X174700883Y-79450883D01*
X174825910Y-79298538D01*
X174918814Y-79124727D01*
X174976024Y-78936132D01*
X174995341Y-78740000D01*
X174976024Y-78543868D01*
X174918814Y-78355273D01*
X174825910Y-78181462D01*
X174700883Y-78029117D01*
X174548538Y-77904090D01*
X174461632Y-77857638D01*
X174374728Y-77811186D01*
X174186132Y-77753976D01*
X174039152Y-77739500D01*
X173990000Y-77734659D01*
X173989999Y-77734659D01*
X173793867Y-77753976D01*
X173605271Y-77811186D01*
X173431462Y-77904090D01*
X173279117Y-78029117D01*
X173154090Y-78181462D01*
X173061186Y-78355271D01*
X173003976Y-78543867D01*
X172984659Y-78739999D01*
X172450500Y-78739999D01*
X172450500Y-77875180D01*
X172441767Y-77831278D01*
X172408504Y-77781496D01*
X172358722Y-77748233D01*
X172314820Y-77739500D01*
X170585180Y-77739500D01*
X170541278Y-77748233D01*
X170491496Y-77781496D01*
X170458233Y-77831278D01*
X170449500Y-77875180D01*
X170449500Y-79604820D01*
X169455054Y-79604820D01*
X169456464Y-79589603D01*
X169436791Y-79377293D01*
X169378440Y-79172214D01*
X169378440Y-79172213D01*
X169283402Y-78981348D01*
X169154909Y-78811199D01*
X169154907Y-78811196D01*
X168997337Y-78667551D01*
X168816054Y-78555305D01*
X168617233Y-78478282D01*
X168407645Y-78439103D01*
X168194425Y-78439103D01*
X168089630Y-78458692D01*
X167984836Y-78478282D01*
X167786015Y-78555305D01*
X167604736Y-78667549D01*
X167604733Y-78667551D01*
X167525262Y-78739999D01*
X167447160Y-78811199D01*
X167318667Y-78981348D01*
X167223629Y-79172213D01*
X167165278Y-79377293D01*
X167145605Y-79589602D01*
X132989747Y-79589602D01*
X132915910Y-79451462D01*
X132790883Y-79299117D01*
X132638538Y-79174090D01*
X132546186Y-79124727D01*
X132464728Y-79081186D01*
X132276132Y-79023976D01*
X132080000Y-79004659D01*
X131883867Y-79023976D01*
X131695271Y-79081186D01*
X131521462Y-79174090D01*
X131369117Y-79299117D01*
X131244090Y-79451462D01*
X131151186Y-79625271D01*
X131093976Y-79813867D01*
X131074659Y-80009999D01*
X127300500Y-80009999D01*
X127300500Y-77720000D01*
X131080001Y-77720000D01*
X131080001Y-78334777D01*
X131088702Y-78378526D01*
X131121855Y-78428143D01*
X131171473Y-78461296D01*
X131215226Y-78470000D01*
X131830000Y-78470000D01*
X131830000Y-77720000D01*
X132330000Y-77720000D01*
X132330000Y-78469999D01*
X132944777Y-78469999D01*
X132988526Y-78461297D01*
X133038143Y-78428144D01*
X133071296Y-78378526D01*
X133080000Y-78334774D01*
X133080000Y-78099999D01*
X147422367Y-78099999D01*
X147440802Y-78228225D01*
X147494617Y-78346062D01*
X147494618Y-78346063D01*
X147579451Y-78443967D01*
X147688431Y-78514004D01*
X147812728Y-78550500D01*
X147942270Y-78550500D01*
X147942272Y-78550500D01*
X148066569Y-78514004D01*
X148175549Y-78443967D01*
X148260382Y-78346063D01*
X148314197Y-78228226D01*
X148332633Y-78100000D01*
X148314197Y-77971774D01*
X148260382Y-77853937D01*
X148175549Y-77756033D01*
X148066569Y-77685996D01*
X147942272Y-77649500D01*
X147812728Y-77649500D01*
X147688431Y-77685995D01*
X147688431Y-77685996D01*
X147579451Y-77756033D01*
X147494617Y-77853937D01*
X147440802Y-77971774D01*
X147422367Y-78099999D01*
X133080000Y-78099999D01*
X133080000Y-77720000D01*
X132330000Y-77720000D01*
X131830000Y-77720000D01*
X131080001Y-77720000D01*
X127300500Y-77720000D01*
X127300500Y-77220000D01*
X131080000Y-77220000D01*
X131830000Y-77220000D01*
X131830000Y-76470001D01*
X131215223Y-76470001D01*
X131171473Y-76478702D01*
X131121856Y-76511855D01*
X131088703Y-76561473D01*
X131080000Y-76605226D01*
X131080000Y-77220000D01*
X127300500Y-77220000D01*
X127300500Y-76470000D01*
X132330000Y-76470000D01*
X132330000Y-77220000D01*
X133079999Y-77220000D01*
X133079999Y-76605223D01*
X133071297Y-76561473D01*
X133038144Y-76511856D01*
X132988526Y-76478703D01*
X132944774Y-76470000D01*
X132330000Y-76470000D01*
X127300500Y-76470000D01*
X127300500Y-71501500D01*
X127315792Y-71456452D01*
X127355347Y-71430021D01*
X127402819Y-71433133D01*
X127438586Y-71464500D01*
X127530716Y-71624074D01*
X127735954Y-71899757D01*
X127971817Y-72149757D01*
X128235094Y-72370672D01*
X128235098Y-72370675D01*
X128522250Y-72559538D01*
X128829386Y-72713788D01*
X129152353Y-72831338D01*
X129486783Y-72910599D01*
X129828153Y-72950500D01*
X130171844Y-72950500D01*
X130171847Y-72950500D01*
X130513217Y-72910599D01*
X130847647Y-72831338D01*
X131170614Y-72713788D01*
X131477750Y-72559538D01*
X131764902Y-72370675D01*
X132028187Y-72149753D01*
X132264044Y-71899759D01*
X132469284Y-71624074D01*
X132641131Y-71326426D01*
X132777262Y-71010841D01*
X132875834Y-70681585D01*
X132935516Y-70343113D01*
X132955500Y-70000000D01*
X132935516Y-69656887D01*
X132875834Y-69318415D01*
X132777262Y-68989159D01*
X132641131Y-68673574D01*
X132469284Y-68375926D01*
X132264044Y-68100241D01*
X132028187Y-67850247D01*
X132028185Y-67850245D01*
X132028182Y-67850242D01*
X131764905Y-67629327D01*
X131764902Y-67629325D01*
X131477750Y-67440462D01*
X131477747Y-67440460D01*
X131474149Y-67438094D01*
X131474742Y-67437191D01*
X131444225Y-67405772D01*
X131439288Y-67357433D01*
X131465396Y-67316453D01*
X131511293Y-67300500D01*
X178488707Y-67300500D01*
X178534604Y-67316453D01*
G37*
%TD.AperFunction*%
%TD*%
M02*
