%TF.GenerationSoftware,KiCad,Pcbnew,7.0.1*%
%TF.CreationDate,2023-12-30T18:25:07+00:00*%
%TF.ProjectId,watch_test_rig,77617463-685f-4746-9573-745f7269672e,rev?*%
%TF.SameCoordinates,Original*%
%TF.FileFunction,Drillmap*%
%TF.FilePolarity,Positive*%
%FSLAX45Y45*%
G04 Gerber Fmt 4.5, Leading zero omitted, Abs format (unit mm)*
G04 Created by KiCad (PCBNEW 7.0.1) date 2023-12-30 18:25:07*
%MOMM*%
%LPD*%
G01*
G04 APERTURE LIST*
%ADD10C,0.100000*%
%ADD11C,0.200000*%
%ADD12C,0.060000*%
G04 APERTURE END LIST*
D10*
X18000000Y-12300000D02*
X13000000Y-12300000D01*
X12700000Y-12000000D02*
G75*
G03*
X13000000Y-12300000I300000J0D01*
G01*
X13000000Y-6700000D02*
X18000000Y-6700000D01*
X13000000Y-6700000D02*
G75*
G03*
X12700000Y-7000000I0J-300000D01*
G01*
X12700000Y-12000000D02*
X12700000Y-7000000D01*
X18000000Y-12300000D02*
G75*
G03*
X18300000Y-12000000I0J300000D01*
G01*
X18300000Y-7000000D02*
X18300000Y-12000000D01*
X18300000Y-7000000D02*
G75*
G03*
X18000000Y-6700000I-300000J0D01*
G01*
D11*
D12*
X13248000Y-9181000D02*
X13308000Y-9241000D01*
X13308000Y-9181000D02*
X13248000Y-9241000D01*
X13248000Y-9759000D02*
X13308000Y-9819000D01*
X13308000Y-9759000D02*
X13248000Y-9819000D01*
D11*
X12942619Y-12617524D02*
X12942619Y-12417524D01*
X12942619Y-12417524D02*
X12990238Y-12417524D01*
X12990238Y-12417524D02*
X13018809Y-12427048D01*
X13018809Y-12427048D02*
X13037857Y-12446095D01*
X13037857Y-12446095D02*
X13047381Y-12465143D01*
X13047381Y-12465143D02*
X13056905Y-12503238D01*
X13056905Y-12503238D02*
X13056905Y-12531809D01*
X13056905Y-12531809D02*
X13047381Y-12569905D01*
X13047381Y-12569905D02*
X13037857Y-12588952D01*
X13037857Y-12588952D02*
X13018809Y-12608000D01*
X13018809Y-12608000D02*
X12990238Y-12617524D01*
X12990238Y-12617524D02*
X12942619Y-12617524D01*
X13142619Y-12617524D02*
X13142619Y-12484190D01*
X13142619Y-12522286D02*
X13152143Y-12503238D01*
X13152143Y-12503238D02*
X13161667Y-12493714D01*
X13161667Y-12493714D02*
X13180714Y-12484190D01*
X13180714Y-12484190D02*
X13199762Y-12484190D01*
X13266428Y-12617524D02*
X13266428Y-12484190D01*
X13266428Y-12417524D02*
X13256905Y-12427048D01*
X13256905Y-12427048D02*
X13266428Y-12436571D01*
X13266428Y-12436571D02*
X13275952Y-12427048D01*
X13275952Y-12427048D02*
X13266428Y-12417524D01*
X13266428Y-12417524D02*
X13266428Y-12436571D01*
X13390238Y-12617524D02*
X13371190Y-12608000D01*
X13371190Y-12608000D02*
X13361667Y-12588952D01*
X13361667Y-12588952D02*
X13361667Y-12417524D01*
X13495000Y-12617524D02*
X13475952Y-12608000D01*
X13475952Y-12608000D02*
X13466428Y-12588952D01*
X13466428Y-12588952D02*
X13466428Y-12417524D01*
X13723571Y-12617524D02*
X13723571Y-12417524D01*
X13723571Y-12417524D02*
X13790238Y-12560381D01*
X13790238Y-12560381D02*
X13856905Y-12417524D01*
X13856905Y-12417524D02*
X13856905Y-12617524D01*
X14037857Y-12617524D02*
X14037857Y-12512762D01*
X14037857Y-12512762D02*
X14028333Y-12493714D01*
X14028333Y-12493714D02*
X14009286Y-12484190D01*
X14009286Y-12484190D02*
X13971190Y-12484190D01*
X13971190Y-12484190D02*
X13952143Y-12493714D01*
X14037857Y-12608000D02*
X14018809Y-12617524D01*
X14018809Y-12617524D02*
X13971190Y-12617524D01*
X13971190Y-12617524D02*
X13952143Y-12608000D01*
X13952143Y-12608000D02*
X13942619Y-12588952D01*
X13942619Y-12588952D02*
X13942619Y-12569905D01*
X13942619Y-12569905D02*
X13952143Y-12550857D01*
X13952143Y-12550857D02*
X13971190Y-12541333D01*
X13971190Y-12541333D02*
X14018809Y-12541333D01*
X14018809Y-12541333D02*
X14037857Y-12531809D01*
X14133095Y-12484190D02*
X14133095Y-12684190D01*
X14133095Y-12493714D02*
X14152143Y-12484190D01*
X14152143Y-12484190D02*
X14190238Y-12484190D01*
X14190238Y-12484190D02*
X14209286Y-12493714D01*
X14209286Y-12493714D02*
X14218809Y-12503238D01*
X14218809Y-12503238D02*
X14228333Y-12522286D01*
X14228333Y-12522286D02*
X14228333Y-12579428D01*
X14228333Y-12579428D02*
X14218809Y-12598476D01*
X14218809Y-12598476D02*
X14209286Y-12608000D01*
X14209286Y-12608000D02*
X14190238Y-12617524D01*
X14190238Y-12617524D02*
X14152143Y-12617524D01*
X14152143Y-12617524D02*
X14133095Y-12608000D01*
X14314048Y-12598476D02*
X14323571Y-12608000D01*
X14323571Y-12608000D02*
X14314048Y-12617524D01*
X14314048Y-12617524D02*
X14304524Y-12608000D01*
X14304524Y-12608000D02*
X14314048Y-12598476D01*
X14314048Y-12598476D02*
X14314048Y-12617524D01*
X14314048Y-12493714D02*
X14323571Y-12503238D01*
X14323571Y-12503238D02*
X14314048Y-12512762D01*
X14314048Y-12512762D02*
X14304524Y-12503238D01*
X14304524Y-12503238D02*
X14314048Y-12493714D01*
X14314048Y-12493714D02*
X14314048Y-12512762D01*
D12*
X12635000Y-12915000D02*
X12695000Y-12975000D01*
X12695000Y-12915000D02*
X12635000Y-12975000D01*
D11*
X12980714Y-12837524D02*
X12999762Y-12837524D01*
X12999762Y-12837524D02*
X13018809Y-12847048D01*
X13018809Y-12847048D02*
X13028333Y-12856571D01*
X13028333Y-12856571D02*
X13037857Y-12875619D01*
X13037857Y-12875619D02*
X13047381Y-12913714D01*
X13047381Y-12913714D02*
X13047381Y-12961333D01*
X13047381Y-12961333D02*
X13037857Y-12999428D01*
X13037857Y-12999428D02*
X13028333Y-13018476D01*
X13028333Y-13018476D02*
X13018809Y-13028000D01*
X13018809Y-13028000D02*
X12999762Y-13037524D01*
X12999762Y-13037524D02*
X12980714Y-13037524D01*
X12980714Y-13037524D02*
X12961667Y-13028000D01*
X12961667Y-13028000D02*
X12952143Y-13018476D01*
X12952143Y-13018476D02*
X12942619Y-12999428D01*
X12942619Y-12999428D02*
X12933095Y-12961333D01*
X12933095Y-12961333D02*
X12933095Y-12913714D01*
X12933095Y-12913714D02*
X12942619Y-12875619D01*
X12942619Y-12875619D02*
X12952143Y-12856571D01*
X12952143Y-12856571D02*
X12961667Y-12847048D01*
X12961667Y-12847048D02*
X12980714Y-12837524D01*
X13133095Y-13018476D02*
X13142619Y-13028000D01*
X13142619Y-13028000D02*
X13133095Y-13037524D01*
X13133095Y-13037524D02*
X13123571Y-13028000D01*
X13123571Y-13028000D02*
X13133095Y-13018476D01*
X13133095Y-13018476D02*
X13133095Y-13037524D01*
X13314048Y-12837524D02*
X13275952Y-12837524D01*
X13275952Y-12837524D02*
X13256905Y-12847048D01*
X13256905Y-12847048D02*
X13247381Y-12856571D01*
X13247381Y-12856571D02*
X13228333Y-12885143D01*
X13228333Y-12885143D02*
X13218809Y-12923238D01*
X13218809Y-12923238D02*
X13218809Y-12999428D01*
X13218809Y-12999428D02*
X13228333Y-13018476D01*
X13228333Y-13018476D02*
X13237857Y-13028000D01*
X13237857Y-13028000D02*
X13256905Y-13037524D01*
X13256905Y-13037524D02*
X13295000Y-13037524D01*
X13295000Y-13037524D02*
X13314048Y-13028000D01*
X13314048Y-13028000D02*
X13323571Y-13018476D01*
X13323571Y-13018476D02*
X13333095Y-12999428D01*
X13333095Y-12999428D02*
X13333095Y-12951809D01*
X13333095Y-12951809D02*
X13323571Y-12932762D01*
X13323571Y-12932762D02*
X13314048Y-12923238D01*
X13314048Y-12923238D02*
X13295000Y-12913714D01*
X13295000Y-12913714D02*
X13256905Y-12913714D01*
X13256905Y-12913714D02*
X13237857Y-12923238D01*
X13237857Y-12923238D02*
X13228333Y-12932762D01*
X13228333Y-12932762D02*
X13218809Y-12951809D01*
X13456905Y-12837524D02*
X13475952Y-12837524D01*
X13475952Y-12837524D02*
X13495000Y-12847048D01*
X13495000Y-12847048D02*
X13504524Y-12856571D01*
X13504524Y-12856571D02*
X13514048Y-12875619D01*
X13514048Y-12875619D02*
X13523571Y-12913714D01*
X13523571Y-12913714D02*
X13523571Y-12961333D01*
X13523571Y-12961333D02*
X13514048Y-12999428D01*
X13514048Y-12999428D02*
X13504524Y-13018476D01*
X13504524Y-13018476D02*
X13495000Y-13028000D01*
X13495000Y-13028000D02*
X13475952Y-13037524D01*
X13475952Y-13037524D02*
X13456905Y-13037524D01*
X13456905Y-13037524D02*
X13437857Y-13028000D01*
X13437857Y-13028000D02*
X13428333Y-13018476D01*
X13428333Y-13018476D02*
X13418809Y-12999428D01*
X13418809Y-12999428D02*
X13409286Y-12961333D01*
X13409286Y-12961333D02*
X13409286Y-12913714D01*
X13409286Y-12913714D02*
X13418809Y-12875619D01*
X13418809Y-12875619D02*
X13428333Y-12856571D01*
X13428333Y-12856571D02*
X13437857Y-12847048D01*
X13437857Y-12847048D02*
X13456905Y-12837524D01*
X13647381Y-12837524D02*
X13666429Y-12837524D01*
X13666429Y-12837524D02*
X13685476Y-12847048D01*
X13685476Y-12847048D02*
X13695000Y-12856571D01*
X13695000Y-12856571D02*
X13704524Y-12875619D01*
X13704524Y-12875619D02*
X13714048Y-12913714D01*
X13714048Y-12913714D02*
X13714048Y-12961333D01*
X13714048Y-12961333D02*
X13704524Y-12999428D01*
X13704524Y-12999428D02*
X13695000Y-13018476D01*
X13695000Y-13018476D02*
X13685476Y-13028000D01*
X13685476Y-13028000D02*
X13666429Y-13037524D01*
X13666429Y-13037524D02*
X13647381Y-13037524D01*
X13647381Y-13037524D02*
X13628333Y-13028000D01*
X13628333Y-13028000D02*
X13618809Y-13018476D01*
X13618809Y-13018476D02*
X13609286Y-12999428D01*
X13609286Y-12999428D02*
X13599762Y-12961333D01*
X13599762Y-12961333D02*
X13599762Y-12913714D01*
X13599762Y-12913714D02*
X13609286Y-12875619D01*
X13609286Y-12875619D02*
X13618809Y-12856571D01*
X13618809Y-12856571D02*
X13628333Y-12847048D01*
X13628333Y-12847048D02*
X13647381Y-12837524D01*
X13799762Y-13037524D02*
X13799762Y-12904190D01*
X13799762Y-12923238D02*
X13809286Y-12913714D01*
X13809286Y-12913714D02*
X13828333Y-12904190D01*
X13828333Y-12904190D02*
X13856905Y-12904190D01*
X13856905Y-12904190D02*
X13875952Y-12913714D01*
X13875952Y-12913714D02*
X13885476Y-12932762D01*
X13885476Y-12932762D02*
X13885476Y-13037524D01*
X13885476Y-12932762D02*
X13895000Y-12913714D01*
X13895000Y-12913714D02*
X13914048Y-12904190D01*
X13914048Y-12904190D02*
X13942619Y-12904190D01*
X13942619Y-12904190D02*
X13961667Y-12913714D01*
X13961667Y-12913714D02*
X13971190Y-12932762D01*
X13971190Y-12932762D02*
X13971190Y-13037524D01*
X14066429Y-13037524D02*
X14066429Y-12904190D01*
X14066429Y-12923238D02*
X14075952Y-12913714D01*
X14075952Y-12913714D02*
X14095000Y-12904190D01*
X14095000Y-12904190D02*
X14123571Y-12904190D01*
X14123571Y-12904190D02*
X14142619Y-12913714D01*
X14142619Y-12913714D02*
X14152143Y-12932762D01*
X14152143Y-12932762D02*
X14152143Y-13037524D01*
X14152143Y-12932762D02*
X14161667Y-12913714D01*
X14161667Y-12913714D02*
X14180714Y-12904190D01*
X14180714Y-12904190D02*
X14209286Y-12904190D01*
X14209286Y-12904190D02*
X14228333Y-12913714D01*
X14228333Y-12913714D02*
X14237857Y-12932762D01*
X14237857Y-12932762D02*
X14237857Y-13037524D01*
X14628333Y-12828000D02*
X14456905Y-13085143D01*
X14885476Y-12837524D02*
X14904524Y-12837524D01*
X14904524Y-12837524D02*
X14923572Y-12847048D01*
X14923572Y-12847048D02*
X14933095Y-12856571D01*
X14933095Y-12856571D02*
X14942619Y-12875619D01*
X14942619Y-12875619D02*
X14952143Y-12913714D01*
X14952143Y-12913714D02*
X14952143Y-12961333D01*
X14952143Y-12961333D02*
X14942619Y-12999428D01*
X14942619Y-12999428D02*
X14933095Y-13018476D01*
X14933095Y-13018476D02*
X14923572Y-13028000D01*
X14923572Y-13028000D02*
X14904524Y-13037524D01*
X14904524Y-13037524D02*
X14885476Y-13037524D01*
X14885476Y-13037524D02*
X14866429Y-13028000D01*
X14866429Y-13028000D02*
X14856905Y-13018476D01*
X14856905Y-13018476D02*
X14847381Y-12999428D01*
X14847381Y-12999428D02*
X14837857Y-12961333D01*
X14837857Y-12961333D02*
X14837857Y-12913714D01*
X14837857Y-12913714D02*
X14847381Y-12875619D01*
X14847381Y-12875619D02*
X14856905Y-12856571D01*
X14856905Y-12856571D02*
X14866429Y-12847048D01*
X14866429Y-12847048D02*
X14885476Y-12837524D01*
X15037857Y-13018476D02*
X15047381Y-13028000D01*
X15047381Y-13028000D02*
X15037857Y-13037524D01*
X15037857Y-13037524D02*
X15028333Y-13028000D01*
X15028333Y-13028000D02*
X15037857Y-13018476D01*
X15037857Y-13018476D02*
X15037857Y-13037524D01*
X15171191Y-12837524D02*
X15190238Y-12837524D01*
X15190238Y-12837524D02*
X15209286Y-12847048D01*
X15209286Y-12847048D02*
X15218810Y-12856571D01*
X15218810Y-12856571D02*
X15228333Y-12875619D01*
X15228333Y-12875619D02*
X15237857Y-12913714D01*
X15237857Y-12913714D02*
X15237857Y-12961333D01*
X15237857Y-12961333D02*
X15228333Y-12999428D01*
X15228333Y-12999428D02*
X15218810Y-13018476D01*
X15218810Y-13018476D02*
X15209286Y-13028000D01*
X15209286Y-13028000D02*
X15190238Y-13037524D01*
X15190238Y-13037524D02*
X15171191Y-13037524D01*
X15171191Y-13037524D02*
X15152143Y-13028000D01*
X15152143Y-13028000D02*
X15142619Y-13018476D01*
X15142619Y-13018476D02*
X15133095Y-12999428D01*
X15133095Y-12999428D02*
X15123572Y-12961333D01*
X15123572Y-12961333D02*
X15123572Y-12913714D01*
X15123572Y-12913714D02*
X15133095Y-12875619D01*
X15133095Y-12875619D02*
X15142619Y-12856571D01*
X15142619Y-12856571D02*
X15152143Y-12847048D01*
X15152143Y-12847048D02*
X15171191Y-12837524D01*
X15314048Y-12856571D02*
X15323572Y-12847048D01*
X15323572Y-12847048D02*
X15342619Y-12837524D01*
X15342619Y-12837524D02*
X15390238Y-12837524D01*
X15390238Y-12837524D02*
X15409286Y-12847048D01*
X15409286Y-12847048D02*
X15418810Y-12856571D01*
X15418810Y-12856571D02*
X15428333Y-12875619D01*
X15428333Y-12875619D02*
X15428333Y-12894667D01*
X15428333Y-12894667D02*
X15418810Y-12923238D01*
X15418810Y-12923238D02*
X15304524Y-13037524D01*
X15304524Y-13037524D02*
X15428333Y-13037524D01*
X15495000Y-12837524D02*
X15618810Y-12837524D01*
X15618810Y-12837524D02*
X15552143Y-12913714D01*
X15552143Y-12913714D02*
X15580714Y-12913714D01*
X15580714Y-12913714D02*
X15599762Y-12923238D01*
X15599762Y-12923238D02*
X15609286Y-12932762D01*
X15609286Y-12932762D02*
X15618810Y-12951809D01*
X15618810Y-12951809D02*
X15618810Y-12999428D01*
X15618810Y-12999428D02*
X15609286Y-13018476D01*
X15609286Y-13018476D02*
X15599762Y-13028000D01*
X15599762Y-13028000D02*
X15580714Y-13037524D01*
X15580714Y-13037524D02*
X15523572Y-13037524D01*
X15523572Y-13037524D02*
X15504524Y-13028000D01*
X15504524Y-13028000D02*
X15495000Y-13018476D01*
X15790238Y-12837524D02*
X15752143Y-12837524D01*
X15752143Y-12837524D02*
X15733095Y-12847048D01*
X15733095Y-12847048D02*
X15723572Y-12856571D01*
X15723572Y-12856571D02*
X15704524Y-12885143D01*
X15704524Y-12885143D02*
X15695000Y-12923238D01*
X15695000Y-12923238D02*
X15695000Y-12999428D01*
X15695000Y-12999428D02*
X15704524Y-13018476D01*
X15704524Y-13018476D02*
X15714048Y-13028000D01*
X15714048Y-13028000D02*
X15733095Y-13037524D01*
X15733095Y-13037524D02*
X15771191Y-13037524D01*
X15771191Y-13037524D02*
X15790238Y-13028000D01*
X15790238Y-13028000D02*
X15799762Y-13018476D01*
X15799762Y-13018476D02*
X15809286Y-12999428D01*
X15809286Y-12999428D02*
X15809286Y-12951809D01*
X15809286Y-12951809D02*
X15799762Y-12932762D01*
X15799762Y-12932762D02*
X15790238Y-12923238D01*
X15790238Y-12923238D02*
X15771191Y-12913714D01*
X15771191Y-12913714D02*
X15733095Y-12913714D01*
X15733095Y-12913714D02*
X15714048Y-12923238D01*
X15714048Y-12923238D02*
X15704524Y-12932762D01*
X15704524Y-12932762D02*
X15695000Y-12951809D01*
X15885476Y-12837524D02*
X15885476Y-12875619D01*
X15961667Y-12837524D02*
X15961667Y-12875619D01*
X16256905Y-13113714D02*
X16247381Y-13104190D01*
X16247381Y-13104190D02*
X16228334Y-13075619D01*
X16228334Y-13075619D02*
X16218810Y-13056571D01*
X16218810Y-13056571D02*
X16209286Y-13028000D01*
X16209286Y-13028000D02*
X16199762Y-12980381D01*
X16199762Y-12980381D02*
X16199762Y-12942286D01*
X16199762Y-12942286D02*
X16209286Y-12894667D01*
X16209286Y-12894667D02*
X16218810Y-12866095D01*
X16218810Y-12866095D02*
X16228334Y-12847048D01*
X16228334Y-12847048D02*
X16247381Y-12818476D01*
X16247381Y-12818476D02*
X16256905Y-12808952D01*
X16323572Y-12856571D02*
X16333095Y-12847048D01*
X16333095Y-12847048D02*
X16352143Y-12837524D01*
X16352143Y-12837524D02*
X16399762Y-12837524D01*
X16399762Y-12837524D02*
X16418810Y-12847048D01*
X16418810Y-12847048D02*
X16428334Y-12856571D01*
X16428334Y-12856571D02*
X16437857Y-12875619D01*
X16437857Y-12875619D02*
X16437857Y-12894667D01*
X16437857Y-12894667D02*
X16428334Y-12923238D01*
X16428334Y-12923238D02*
X16314048Y-13037524D01*
X16314048Y-13037524D02*
X16437857Y-13037524D01*
X16675953Y-13037524D02*
X16675953Y-12837524D01*
X16761667Y-13037524D02*
X16761667Y-12932762D01*
X16761667Y-12932762D02*
X16752143Y-12913714D01*
X16752143Y-12913714D02*
X16733096Y-12904190D01*
X16733096Y-12904190D02*
X16704524Y-12904190D01*
X16704524Y-12904190D02*
X16685476Y-12913714D01*
X16685476Y-12913714D02*
X16675953Y-12923238D01*
X16885477Y-13037524D02*
X16866429Y-13028000D01*
X16866429Y-13028000D02*
X16856905Y-13018476D01*
X16856905Y-13018476D02*
X16847381Y-12999428D01*
X16847381Y-12999428D02*
X16847381Y-12942286D01*
X16847381Y-12942286D02*
X16856905Y-12923238D01*
X16856905Y-12923238D02*
X16866429Y-12913714D01*
X16866429Y-12913714D02*
X16885477Y-12904190D01*
X16885477Y-12904190D02*
X16914048Y-12904190D01*
X16914048Y-12904190D02*
X16933096Y-12913714D01*
X16933096Y-12913714D02*
X16942619Y-12923238D01*
X16942619Y-12923238D02*
X16952143Y-12942286D01*
X16952143Y-12942286D02*
X16952143Y-12999428D01*
X16952143Y-12999428D02*
X16942619Y-13018476D01*
X16942619Y-13018476D02*
X16933096Y-13028000D01*
X16933096Y-13028000D02*
X16914048Y-13037524D01*
X16914048Y-13037524D02*
X16885477Y-13037524D01*
X17066429Y-13037524D02*
X17047381Y-13028000D01*
X17047381Y-13028000D02*
X17037858Y-13008952D01*
X17037858Y-13008952D02*
X17037858Y-12837524D01*
X17218810Y-13028000D02*
X17199762Y-13037524D01*
X17199762Y-13037524D02*
X17161667Y-13037524D01*
X17161667Y-13037524D02*
X17142619Y-13028000D01*
X17142619Y-13028000D02*
X17133096Y-13008952D01*
X17133096Y-13008952D02*
X17133096Y-12932762D01*
X17133096Y-12932762D02*
X17142619Y-12913714D01*
X17142619Y-12913714D02*
X17161667Y-12904190D01*
X17161667Y-12904190D02*
X17199762Y-12904190D01*
X17199762Y-12904190D02*
X17218810Y-12913714D01*
X17218810Y-12913714D02*
X17228334Y-12932762D01*
X17228334Y-12932762D02*
X17228334Y-12951809D01*
X17228334Y-12951809D02*
X17133096Y-12970857D01*
X17304524Y-13028000D02*
X17323572Y-13037524D01*
X17323572Y-13037524D02*
X17361667Y-13037524D01*
X17361667Y-13037524D02*
X17380715Y-13028000D01*
X17380715Y-13028000D02*
X17390239Y-13008952D01*
X17390239Y-13008952D02*
X17390239Y-12999428D01*
X17390239Y-12999428D02*
X17380715Y-12980381D01*
X17380715Y-12980381D02*
X17361667Y-12970857D01*
X17361667Y-12970857D02*
X17333096Y-12970857D01*
X17333096Y-12970857D02*
X17314048Y-12961333D01*
X17314048Y-12961333D02*
X17304524Y-12942286D01*
X17304524Y-12942286D02*
X17304524Y-12932762D01*
X17304524Y-12932762D02*
X17314048Y-12913714D01*
X17314048Y-12913714D02*
X17333096Y-12904190D01*
X17333096Y-12904190D02*
X17361667Y-12904190D01*
X17361667Y-12904190D02*
X17380715Y-12913714D01*
X17456905Y-13113714D02*
X17466429Y-13104190D01*
X17466429Y-13104190D02*
X17485477Y-13075619D01*
X17485477Y-13075619D02*
X17495000Y-13056571D01*
X17495000Y-13056571D02*
X17504524Y-13028000D01*
X17504524Y-13028000D02*
X17514048Y-12980381D01*
X17514048Y-12980381D02*
X17514048Y-12942286D01*
X17514048Y-12942286D02*
X17504524Y-12894667D01*
X17504524Y-12894667D02*
X17495000Y-12866095D01*
X17495000Y-12866095D02*
X17485477Y-12847048D01*
X17485477Y-12847048D02*
X17466429Y-12818476D01*
X17466429Y-12818476D02*
X17456905Y-12808952D01*
X17818810Y-13113714D02*
X17809286Y-13104190D01*
X17809286Y-13104190D02*
X17790239Y-13075619D01*
X17790239Y-13075619D02*
X17780715Y-13056571D01*
X17780715Y-13056571D02*
X17771191Y-13028000D01*
X17771191Y-13028000D02*
X17761667Y-12980381D01*
X17761667Y-12980381D02*
X17761667Y-12942286D01*
X17761667Y-12942286D02*
X17771191Y-12894667D01*
X17771191Y-12894667D02*
X17780715Y-12866095D01*
X17780715Y-12866095D02*
X17790239Y-12847048D01*
X17790239Y-12847048D02*
X17809286Y-12818476D01*
X17809286Y-12818476D02*
X17818810Y-12808952D01*
X17895000Y-12904190D02*
X17895000Y-13037524D01*
X17895000Y-12923238D02*
X17904524Y-12913714D01*
X17904524Y-12913714D02*
X17923572Y-12904190D01*
X17923572Y-12904190D02*
X17952143Y-12904190D01*
X17952143Y-12904190D02*
X17971191Y-12913714D01*
X17971191Y-12913714D02*
X17980715Y-12932762D01*
X17980715Y-12932762D02*
X17980715Y-13037524D01*
X18104524Y-13037524D02*
X18085477Y-13028000D01*
X18085477Y-13028000D02*
X18075953Y-13018476D01*
X18075953Y-13018476D02*
X18066429Y-12999428D01*
X18066429Y-12999428D02*
X18066429Y-12942286D01*
X18066429Y-12942286D02*
X18075953Y-12923238D01*
X18075953Y-12923238D02*
X18085477Y-12913714D01*
X18085477Y-12913714D02*
X18104524Y-12904190D01*
X18104524Y-12904190D02*
X18133096Y-12904190D01*
X18133096Y-12904190D02*
X18152143Y-12913714D01*
X18152143Y-12913714D02*
X18161667Y-12923238D01*
X18161667Y-12923238D02*
X18171191Y-12942286D01*
X18171191Y-12942286D02*
X18171191Y-12999428D01*
X18171191Y-12999428D02*
X18161667Y-13018476D01*
X18161667Y-13018476D02*
X18152143Y-13028000D01*
X18152143Y-13028000D02*
X18133096Y-13037524D01*
X18133096Y-13037524D02*
X18104524Y-13037524D01*
X18228334Y-12904190D02*
X18304524Y-12904190D01*
X18256905Y-12837524D02*
X18256905Y-13008952D01*
X18256905Y-13008952D02*
X18266429Y-13028000D01*
X18266429Y-13028000D02*
X18285477Y-13037524D01*
X18285477Y-13037524D02*
X18304524Y-13037524D01*
X18523572Y-12904190D02*
X18523572Y-13104190D01*
X18523572Y-12913714D02*
X18542620Y-12904190D01*
X18542620Y-12904190D02*
X18580715Y-12904190D01*
X18580715Y-12904190D02*
X18599762Y-12913714D01*
X18599762Y-12913714D02*
X18609286Y-12923238D01*
X18609286Y-12923238D02*
X18618810Y-12942286D01*
X18618810Y-12942286D02*
X18618810Y-12999428D01*
X18618810Y-12999428D02*
X18609286Y-13018476D01*
X18609286Y-13018476D02*
X18599762Y-13028000D01*
X18599762Y-13028000D02*
X18580715Y-13037524D01*
X18580715Y-13037524D02*
X18542620Y-13037524D01*
X18542620Y-13037524D02*
X18523572Y-13028000D01*
X18733096Y-13037524D02*
X18714048Y-13028000D01*
X18714048Y-13028000D02*
X18704524Y-13008952D01*
X18704524Y-13008952D02*
X18704524Y-12837524D01*
X18895001Y-13037524D02*
X18895001Y-12932762D01*
X18895001Y-12932762D02*
X18885477Y-12913714D01*
X18885477Y-12913714D02*
X18866429Y-12904190D01*
X18866429Y-12904190D02*
X18828334Y-12904190D01*
X18828334Y-12904190D02*
X18809286Y-12913714D01*
X18895001Y-13028000D02*
X18875953Y-13037524D01*
X18875953Y-13037524D02*
X18828334Y-13037524D01*
X18828334Y-13037524D02*
X18809286Y-13028000D01*
X18809286Y-13028000D02*
X18799762Y-13008952D01*
X18799762Y-13008952D02*
X18799762Y-12989905D01*
X18799762Y-12989905D02*
X18809286Y-12970857D01*
X18809286Y-12970857D02*
X18828334Y-12961333D01*
X18828334Y-12961333D02*
X18875953Y-12961333D01*
X18875953Y-12961333D02*
X18895001Y-12951809D01*
X18961667Y-12904190D02*
X19037858Y-12904190D01*
X18990239Y-12837524D02*
X18990239Y-13008952D01*
X18990239Y-13008952D02*
X18999762Y-13028000D01*
X18999762Y-13028000D02*
X19018810Y-13037524D01*
X19018810Y-13037524D02*
X19037858Y-13037524D01*
X19180715Y-13028000D02*
X19161667Y-13037524D01*
X19161667Y-13037524D02*
X19123572Y-13037524D01*
X19123572Y-13037524D02*
X19104524Y-13028000D01*
X19104524Y-13028000D02*
X19095001Y-13008952D01*
X19095001Y-13008952D02*
X19095001Y-12932762D01*
X19095001Y-12932762D02*
X19104524Y-12913714D01*
X19104524Y-12913714D02*
X19123572Y-12904190D01*
X19123572Y-12904190D02*
X19161667Y-12904190D01*
X19161667Y-12904190D02*
X19180715Y-12913714D01*
X19180715Y-12913714D02*
X19190239Y-12932762D01*
X19190239Y-12932762D02*
X19190239Y-12951809D01*
X19190239Y-12951809D02*
X19095001Y-12970857D01*
X19361667Y-13037524D02*
X19361667Y-12837524D01*
X19361667Y-13028000D02*
X19342620Y-13037524D01*
X19342620Y-13037524D02*
X19304524Y-13037524D01*
X19304524Y-13037524D02*
X19285477Y-13028000D01*
X19285477Y-13028000D02*
X19275953Y-13018476D01*
X19275953Y-13018476D02*
X19266429Y-12999428D01*
X19266429Y-12999428D02*
X19266429Y-12942286D01*
X19266429Y-12942286D02*
X19275953Y-12923238D01*
X19275953Y-12923238D02*
X19285477Y-12913714D01*
X19285477Y-12913714D02*
X19304524Y-12904190D01*
X19304524Y-12904190D02*
X19342620Y-12904190D01*
X19342620Y-12904190D02*
X19361667Y-12913714D01*
X19437858Y-13113714D02*
X19447382Y-13104190D01*
X19447382Y-13104190D02*
X19466429Y-13075619D01*
X19466429Y-13075619D02*
X19475953Y-13056571D01*
X19475953Y-13056571D02*
X19485477Y-13028000D01*
X19485477Y-13028000D02*
X19495001Y-12980381D01*
X19495001Y-12980381D02*
X19495001Y-12942286D01*
X19495001Y-12942286D02*
X19485477Y-12894667D01*
X19485477Y-12894667D02*
X19475953Y-12866095D01*
X19475953Y-12866095D02*
X19466429Y-12847048D01*
X19466429Y-12847048D02*
X19447382Y-12818476D01*
X19447382Y-12818476D02*
X19437858Y-12808952D01*
M02*
