%TF.GenerationSoftware,KiCad,Pcbnew,7.0.1*%
%TF.CreationDate,2023-12-30T18:25:07+00:00*%
%TF.ProjectId,watch_test_rig,77617463-685f-4746-9573-745f7269672e,rev?*%
%TF.SameCoordinates,Original*%
%TF.FileFunction,Drillmap*%
%TF.FilePolarity,Positive*%
%FSLAX45Y45*%
G04 Gerber Fmt 4.5, Leading zero omitted, Abs format (unit mm)*
G04 Created by KiCad (PCBNEW 7.0.1) date 2023-12-30 18:25:07*
%MOMM*%
%LPD*%
G01*
G04 APERTURE LIST*
%ADD10C,0.100000*%
%ADD11C,0.200000*%
%ADD12C,0.030000*%
%ADD13C,0.060000*%
%ADD14C,0.110000*%
%ADD15C,0.320000*%
G04 APERTURE END LIST*
D10*
X18000000Y-12300000D02*
X13000000Y-12300000D01*
X12700000Y-12000000D02*
G75*
G03*
X13000000Y-12300000I300000J0D01*
G01*
X13000000Y-6700000D02*
X18000000Y-6700000D01*
X13000000Y-6700000D02*
G75*
G03*
X12700000Y-7000000I0J-300000D01*
G01*
X12700000Y-12000000D02*
X12700000Y-7000000D01*
X18000000Y-12300000D02*
G75*
G03*
X18300000Y-12000000I0J300000D01*
G01*
X18300000Y-7000000D02*
X18300000Y-12000000D01*
X18300000Y-7000000D02*
G75*
G03*
X18000000Y-6700000I-300000J0D01*
G01*
D11*
D12*
X13415000Y-10285000D02*
X13445000Y-10315000D01*
X13445000Y-10285000D02*
X13415000Y-10315000D01*
X13481250Y-9085000D02*
X13511250Y-9115000D01*
X13511250Y-9085000D02*
X13481250Y-9115000D01*
X13481250Y-9885000D02*
X13511250Y-9915000D01*
X13511250Y-9885000D02*
X13481250Y-9915000D01*
X13595000Y-9535000D02*
X13625000Y-9565000D01*
X13625000Y-9535000D02*
X13595000Y-9565000D01*
X13755000Y-9165000D02*
X13785000Y-9195000D01*
X13785000Y-9165000D02*
X13755000Y-9195000D01*
X13755000Y-9355000D02*
X13785000Y-9385000D01*
X13785000Y-9355000D02*
X13755000Y-9385000D01*
X13775000Y-9805000D02*
X13805000Y-9835000D01*
X13805000Y-9805000D02*
X13775000Y-9835000D01*
X13779315Y-9622157D02*
X13809315Y-9652157D01*
X13809315Y-9622157D02*
X13779315Y-9652157D01*
X13920736Y-9480736D02*
X13950736Y-9510736D01*
X13950736Y-9480736D02*
X13920736Y-9510736D01*
X13920736Y-9763579D02*
X13950736Y-9793579D01*
X13950736Y-9763579D02*
X13920736Y-9793579D01*
X14062157Y-9622157D02*
X14092157Y-9652157D01*
X14092157Y-9622157D02*
X14062157Y-9652157D01*
X14062157Y-9905000D02*
X14092157Y-9935000D01*
X14092157Y-9905000D02*
X14062157Y-9935000D01*
X14143960Y-8263960D02*
X14173960Y-8293960D01*
X14173960Y-8263960D02*
X14143960Y-8293960D01*
X14200736Y-10043579D02*
X14230736Y-10073579D01*
X14230736Y-10043579D02*
X14200736Y-10073579D01*
X14203579Y-9763579D02*
X14233579Y-9793579D01*
X14233579Y-9763579D02*
X14203579Y-9793579D01*
X14231000Y-11299000D02*
X14261000Y-11329000D01*
X14261000Y-11299000D02*
X14231000Y-11329000D01*
X14342157Y-9902157D02*
X14372157Y-9932157D01*
X14372157Y-9902157D02*
X14342157Y-9932157D01*
X14342157Y-10185000D02*
X14372157Y-10215000D01*
X14372157Y-10185000D02*
X14342157Y-10215000D01*
X14358000Y-12065000D02*
X14388000Y-12095000D01*
X14388000Y-12065000D02*
X14358000Y-12095000D01*
X14435000Y-9213960D02*
X14465000Y-9243960D01*
X14465000Y-9213960D02*
X14435000Y-9243960D01*
X14445000Y-11085000D02*
X14475000Y-11115000D01*
X14475000Y-11085000D02*
X14445000Y-11115000D01*
X14483579Y-10043579D02*
X14513579Y-10073579D01*
X14513579Y-10043579D02*
X14483579Y-10073579D01*
X14483579Y-10326421D02*
X14513579Y-10356421D01*
X14513579Y-10326421D02*
X14483579Y-10356421D01*
X14485000Y-12065000D02*
X14515000Y-12095000D01*
X14515000Y-12065000D02*
X14485000Y-12095000D01*
X14625000Y-10185000D02*
X14655000Y-10215000D01*
X14655000Y-10185000D02*
X14625000Y-10215000D01*
X14635000Y-10445000D02*
X14665000Y-10475000D01*
X14665000Y-10445000D02*
X14635000Y-10475000D01*
X14739000Y-12065000D02*
X14769000Y-12095000D01*
X14769000Y-12065000D02*
X14739000Y-12095000D01*
X14772750Y-7795000D02*
X14802750Y-7825000D01*
X14802750Y-7795000D02*
X14772750Y-7825000D01*
X14772750Y-8195000D02*
X14802750Y-8225000D01*
X14802750Y-8195000D02*
X14772750Y-8225000D01*
X14772750Y-8592750D02*
X14802750Y-8622750D01*
X14802750Y-8592750D02*
X14772750Y-8622750D01*
X14772750Y-8992750D02*
X14802750Y-9022750D01*
X14802750Y-8992750D02*
X14772750Y-9022750D01*
X14772750Y-9395000D02*
X14802750Y-9425000D01*
X14802750Y-9395000D02*
X14772750Y-9425000D01*
X14835000Y-10275000D02*
X14865000Y-10305000D01*
X14865000Y-10275000D02*
X14835000Y-10305000D01*
X14835000Y-10475000D02*
X14865000Y-10505000D01*
X14865000Y-10475000D02*
X14835000Y-10505000D01*
X14994000Y-9694000D02*
X15024000Y-9724000D01*
X15024000Y-9694000D02*
X14994000Y-9724000D01*
X15035000Y-10275000D02*
X15065000Y-10305000D01*
X15065000Y-10275000D02*
X15035000Y-10305000D01*
X15035000Y-10475000D02*
X15065000Y-10505000D01*
X15065000Y-10475000D02*
X15035000Y-10505000D01*
X15130103Y-11490000D02*
X15160103Y-11520000D01*
X15160103Y-11490000D02*
X15130103Y-11520000D01*
X15235000Y-10275000D02*
X15265000Y-10305000D01*
X15265000Y-10275000D02*
X15235000Y-10305000D01*
X15235000Y-10475000D02*
X15265000Y-10505000D01*
X15265000Y-10475000D02*
X15235000Y-10505000D01*
X15385103Y-11095000D02*
X15415103Y-11125000D01*
X15415103Y-11095000D02*
X15385103Y-11125000D01*
X15435000Y-10275000D02*
X15465000Y-10305000D01*
X15465000Y-10275000D02*
X15435000Y-10305000D01*
X15435000Y-10475000D02*
X15465000Y-10505000D01*
X15465000Y-10475000D02*
X15435000Y-10505000D01*
X15535000Y-10780000D02*
X15565000Y-10810000D01*
X15565000Y-10780000D02*
X15535000Y-10810000D01*
X15605000Y-10275000D02*
X15635000Y-10305000D01*
X15635000Y-10275000D02*
X15605000Y-10305000D01*
X15605000Y-10475000D02*
X15635000Y-10505000D01*
X15635000Y-10475000D02*
X15605000Y-10505000D01*
X15665000Y-10025000D02*
X15695000Y-10055000D01*
X15695000Y-10025000D02*
X15665000Y-10055000D01*
X15775000Y-10275000D02*
X15805000Y-10305000D01*
X15805000Y-10275000D02*
X15775000Y-10305000D01*
X15775000Y-10475000D02*
X15805000Y-10505000D01*
X15805000Y-10475000D02*
X15775000Y-10505000D01*
X15776000Y-8094000D02*
X15806000Y-8124000D01*
X15806000Y-8094000D02*
X15776000Y-8124000D01*
X15776000Y-8494000D02*
X15806000Y-8524000D01*
X15806000Y-8494000D02*
X15776000Y-8524000D01*
X15776000Y-8894000D02*
X15806000Y-8924000D01*
X15806000Y-8894000D02*
X15776000Y-8924000D01*
X15776000Y-9694000D02*
X15806000Y-9724000D01*
X15806000Y-9694000D02*
X15776000Y-9724000D01*
X15785000Y-7685000D02*
X15815000Y-7715000D01*
X15815000Y-7685000D02*
X15785000Y-7715000D01*
X15905000Y-10265000D02*
X15935000Y-10295000D01*
X15935000Y-10265000D02*
X15905000Y-10295000D01*
X15905000Y-10485000D02*
X15935000Y-10515000D01*
X15935000Y-10485000D02*
X15905000Y-10515000D01*
X15965000Y-10327500D02*
X15995000Y-10357500D01*
X15995000Y-10327500D02*
X15965000Y-10357500D01*
X15965000Y-10422500D02*
X15995000Y-10452500D01*
X15995000Y-10422500D02*
X15965000Y-10452500D01*
X16025000Y-10265000D02*
X16055000Y-10295000D01*
X16055000Y-10265000D02*
X16025000Y-10295000D01*
X16025000Y-10485000D02*
X16055000Y-10515000D01*
X16055000Y-10485000D02*
X16025000Y-10515000D01*
X16055000Y-11235000D02*
X16085000Y-11265000D01*
X16085000Y-11235000D02*
X16055000Y-11265000D01*
X16131000Y-11305000D02*
X16161000Y-11335000D01*
X16161000Y-11305000D02*
X16131000Y-11335000D01*
X16258000Y-11305000D02*
X16288000Y-11335000D01*
X16288000Y-11305000D02*
X16258000Y-11335000D01*
X16258000Y-12055000D02*
X16288000Y-12085000D01*
X16288000Y-12055000D02*
X16258000Y-12085000D01*
X16348960Y-10378960D02*
X16378960Y-10408960D01*
X16378960Y-10378960D02*
X16348960Y-10408960D01*
X16385000Y-12055000D02*
X16415000Y-12085000D01*
X16415000Y-12055000D02*
X16385000Y-12085000D01*
X16415000Y-10265000D02*
X16445000Y-10295000D01*
X16445000Y-10265000D02*
X16415000Y-10295000D01*
X16415000Y-10495000D02*
X16445000Y-10525000D01*
X16445000Y-10495000D02*
X16415000Y-10525000D01*
X16555000Y-10265000D02*
X16585000Y-10295000D01*
X16585000Y-10265000D02*
X16555000Y-10295000D01*
X16555000Y-10495000D02*
X16585000Y-10525000D01*
X16585000Y-10495000D02*
X16555000Y-10525000D01*
X16621040Y-10378960D02*
X16651040Y-10408960D01*
X16651040Y-10378960D02*
X16621040Y-10408960D01*
X16635000Y-9985000D02*
X16665000Y-10015000D01*
X16665000Y-9985000D02*
X16635000Y-10015000D01*
X16639000Y-11221000D02*
X16669000Y-11251000D01*
X16669000Y-11221000D02*
X16639000Y-11251000D01*
X16639000Y-12055000D02*
X16669000Y-12085000D01*
X16669000Y-12055000D02*
X16639000Y-12085000D01*
X16883960Y-10253960D02*
X16913960Y-10283960D01*
X16913960Y-10253960D02*
X16883960Y-10283960D01*
X16885000Y-10503960D02*
X16915000Y-10533960D01*
X16915000Y-10503960D02*
X16885000Y-10533960D01*
X17565000Y-10285000D02*
X17595000Y-10315000D01*
X17595000Y-10285000D02*
X17565000Y-10315000D01*
D13*
X12940000Y-9067500D02*
G75*
G03*
X12940000Y-9067500I-30000J0D01*
G01*
D11*
X12950000Y-9037500D02*
X12870000Y-9037500D01*
X12870000Y-9037500D02*
G75*
G03*
X12870000Y-9097500I0J-30000D01*
G01*
X12870000Y-9097500D02*
X12950000Y-9097500D01*
X12950000Y-9097500D02*
G75*
G03*
X12950000Y-9037500I0J30000D01*
G01*
D13*
X12940000Y-9932500D02*
G75*
G03*
X12940000Y-9932500I-30000J0D01*
G01*
D11*
X12950000Y-9902500D02*
X12870000Y-9902500D01*
X12870000Y-9902500D02*
G75*
G03*
X12870000Y-9962500I0J-30000D01*
G01*
X12870000Y-9962500D02*
X12950000Y-9962500D01*
X12950000Y-9962500D02*
G75*
G03*
X12950000Y-9902500I0J30000D01*
G01*
D13*
X13357000Y-9067500D02*
G75*
G03*
X13357000Y-9067500I-30000J0D01*
G01*
D11*
X13382000Y-9037500D02*
X13272000Y-9037500D01*
X13272000Y-9037500D02*
G75*
G03*
X13272000Y-9097500I0J-30000D01*
G01*
X13272000Y-9097500D02*
X13382000Y-9097500D01*
X13382000Y-9097500D02*
G75*
G03*
X13382000Y-9037500I0J30000D01*
G01*
D13*
X13357000Y-9932500D02*
G75*
G03*
X13357000Y-9932500I-30000J0D01*
G01*
D11*
X13382000Y-9902500D02*
X13272000Y-9902500D01*
X13272000Y-9902500D02*
G75*
G03*
X13272000Y-9962500I0J-30000D01*
G01*
X13272000Y-9962500D02*
X13382000Y-9962500D01*
X13382000Y-9962500D02*
G75*
G03*
X13382000Y-9902500I0J30000D01*
G01*
D10*
X13208000Y-7697000D02*
X13208000Y-7797000D01*
X13158000Y-7747000D02*
X13258000Y-7747000D01*
X13208000Y-7951000D02*
X13208000Y-8051000D01*
X13158000Y-8001000D02*
X13258000Y-8001000D01*
X13208000Y-8205000D02*
X13208000Y-8305000D01*
X13158000Y-8255000D02*
X13258000Y-8255000D01*
X17144500Y-8968000D02*
X17144500Y-9068000D01*
X17094500Y-9018000D02*
X17194500Y-9018000D01*
X17144500Y-9222000D02*
X17144500Y-9322000D01*
X17094500Y-9272000D02*
X17194500Y-9272000D01*
X17144500Y-9476000D02*
X17144500Y-9576000D01*
X17094500Y-9526000D02*
X17194500Y-9526000D01*
X17144500Y-9730000D02*
X17144500Y-9830000D01*
X17094500Y-9780000D02*
X17194500Y-9780000D01*
X17145000Y-7824000D02*
X17145000Y-7924000D01*
X17095000Y-7874000D02*
X17195000Y-7874000D01*
X17145000Y-8078000D02*
X17145000Y-8178000D01*
X17095000Y-8128000D02*
X17195000Y-8128000D01*
X17145000Y-8332000D02*
X17145000Y-8432000D01*
X17095000Y-8382000D02*
X17195000Y-8382000D01*
X17398500Y-8968000D02*
X17398500Y-9068000D01*
X17348500Y-9018000D02*
X17448500Y-9018000D01*
X17398500Y-9222000D02*
X17398500Y-9322000D01*
X17348500Y-9272000D02*
X17448500Y-9272000D01*
X17398500Y-9476000D02*
X17398500Y-9576000D01*
X17348500Y-9526000D02*
X17448500Y-9526000D01*
X17398500Y-9730000D02*
X17398500Y-9830000D01*
X17348500Y-9780000D02*
X17448500Y-9780000D01*
X17399000Y-7824000D02*
X17399000Y-7924000D01*
X17349000Y-7874000D02*
X17449000Y-7874000D01*
X17399000Y-8078000D02*
X17399000Y-8178000D01*
X17349000Y-8128000D02*
X17449000Y-8128000D01*
X17399000Y-8332000D02*
X17399000Y-8432000D01*
X17349000Y-8382000D02*
X17449000Y-8382000D01*
D14*
X13013891Y-10713891D02*
X13013891Y-10636109D01*
X12936109Y-10636109D01*
X12936109Y-10713891D01*
X13013891Y-10713891D01*
X13013891Y-11163891D02*
X13013891Y-11086109D01*
X12936109Y-11086109D01*
X12936109Y-11163891D01*
X13013891Y-11163891D01*
X13663891Y-10713891D02*
X13663891Y-10636109D01*
X13586109Y-10636109D01*
X13586109Y-10713891D01*
X13663891Y-10713891D01*
X13663891Y-11163891D02*
X13663891Y-11086109D01*
X13586109Y-11086109D01*
X13586109Y-11163891D01*
X13663891Y-11163891D01*
X17408891Y-10713891D02*
X17408891Y-10636109D01*
X17331109Y-10636109D01*
X17331109Y-10713891D01*
X17408891Y-10713891D01*
X17408891Y-11163891D02*
X17408891Y-11086109D01*
X17331109Y-11086109D01*
X17331109Y-11163891D01*
X17408891Y-11163891D01*
X18058891Y-10713891D02*
X18058891Y-10636109D01*
X17981109Y-10636109D01*
X17981109Y-10713891D01*
X18058891Y-10713891D01*
X18058891Y-11163891D02*
X18058891Y-11086109D01*
X17981109Y-11086109D01*
X17981109Y-11163891D01*
X18058891Y-11163891D01*
D15*
X13000000Y-7160000D02*
X13160000Y-7000000D01*
X13000000Y-6840000D01*
X12840000Y-7000000D01*
X13000000Y-7160000D01*
X13000000Y-12160000D02*
X13160000Y-12000000D01*
X13000000Y-11840000D01*
X12840000Y-12000000D01*
X13000000Y-12160000D01*
X18000000Y-7160000D02*
X18160000Y-7000000D01*
X18000000Y-6840000D01*
X17840000Y-7000000D01*
X18000000Y-7160000D01*
X18000000Y-12160000D02*
X18160000Y-12000000D01*
X18000000Y-11840000D01*
X17840000Y-12000000D01*
X18000000Y-12160000D01*
D11*
X12942619Y-12617524D02*
X12942619Y-12417524D01*
X12942619Y-12417524D02*
X12990238Y-12417524D01*
X12990238Y-12417524D02*
X13018809Y-12427048D01*
X13018809Y-12427048D02*
X13037857Y-12446095D01*
X13037857Y-12446095D02*
X13047381Y-12465143D01*
X13047381Y-12465143D02*
X13056905Y-12503238D01*
X13056905Y-12503238D02*
X13056905Y-12531809D01*
X13056905Y-12531809D02*
X13047381Y-12569905D01*
X13047381Y-12569905D02*
X13037857Y-12588952D01*
X13037857Y-12588952D02*
X13018809Y-12608000D01*
X13018809Y-12608000D02*
X12990238Y-12617524D01*
X12990238Y-12617524D02*
X12942619Y-12617524D01*
X13142619Y-12617524D02*
X13142619Y-12484190D01*
X13142619Y-12522286D02*
X13152143Y-12503238D01*
X13152143Y-12503238D02*
X13161667Y-12493714D01*
X13161667Y-12493714D02*
X13180714Y-12484190D01*
X13180714Y-12484190D02*
X13199762Y-12484190D01*
X13266428Y-12617524D02*
X13266428Y-12484190D01*
X13266428Y-12417524D02*
X13256905Y-12427048D01*
X13256905Y-12427048D02*
X13266428Y-12436571D01*
X13266428Y-12436571D02*
X13275952Y-12427048D01*
X13275952Y-12427048D02*
X13266428Y-12417524D01*
X13266428Y-12417524D02*
X13266428Y-12436571D01*
X13390238Y-12617524D02*
X13371190Y-12608000D01*
X13371190Y-12608000D02*
X13361667Y-12588952D01*
X13361667Y-12588952D02*
X13361667Y-12417524D01*
X13495000Y-12617524D02*
X13475952Y-12608000D01*
X13475952Y-12608000D02*
X13466428Y-12588952D01*
X13466428Y-12588952D02*
X13466428Y-12417524D01*
X13723571Y-12617524D02*
X13723571Y-12417524D01*
X13723571Y-12417524D02*
X13790238Y-12560381D01*
X13790238Y-12560381D02*
X13856905Y-12417524D01*
X13856905Y-12417524D02*
X13856905Y-12617524D01*
X14037857Y-12617524D02*
X14037857Y-12512762D01*
X14037857Y-12512762D02*
X14028333Y-12493714D01*
X14028333Y-12493714D02*
X14009286Y-12484190D01*
X14009286Y-12484190D02*
X13971190Y-12484190D01*
X13971190Y-12484190D02*
X13952143Y-12493714D01*
X14037857Y-12608000D02*
X14018809Y-12617524D01*
X14018809Y-12617524D02*
X13971190Y-12617524D01*
X13971190Y-12617524D02*
X13952143Y-12608000D01*
X13952143Y-12608000D02*
X13942619Y-12588952D01*
X13942619Y-12588952D02*
X13942619Y-12569905D01*
X13942619Y-12569905D02*
X13952143Y-12550857D01*
X13952143Y-12550857D02*
X13971190Y-12541333D01*
X13971190Y-12541333D02*
X14018809Y-12541333D01*
X14018809Y-12541333D02*
X14037857Y-12531809D01*
X14133095Y-12484190D02*
X14133095Y-12684190D01*
X14133095Y-12493714D02*
X14152143Y-12484190D01*
X14152143Y-12484190D02*
X14190238Y-12484190D01*
X14190238Y-12484190D02*
X14209286Y-12493714D01*
X14209286Y-12493714D02*
X14218809Y-12503238D01*
X14218809Y-12503238D02*
X14228333Y-12522286D01*
X14228333Y-12522286D02*
X14228333Y-12579428D01*
X14228333Y-12579428D02*
X14218809Y-12598476D01*
X14218809Y-12598476D02*
X14209286Y-12608000D01*
X14209286Y-12608000D02*
X14190238Y-12617524D01*
X14190238Y-12617524D02*
X14152143Y-12617524D01*
X14152143Y-12617524D02*
X14133095Y-12608000D01*
X14314048Y-12598476D02*
X14323571Y-12608000D01*
X14323571Y-12608000D02*
X14314048Y-12617524D01*
X14314048Y-12617524D02*
X14304524Y-12608000D01*
X14304524Y-12608000D02*
X14314048Y-12598476D01*
X14314048Y-12598476D02*
X14314048Y-12617524D01*
X14314048Y-12493714D02*
X14323571Y-12503238D01*
X14323571Y-12503238D02*
X14314048Y-12512762D01*
X14314048Y-12512762D02*
X14304524Y-12503238D01*
X14304524Y-12503238D02*
X14314048Y-12493714D01*
X14314048Y-12493714D02*
X14314048Y-12512762D01*
D12*
X12665000Y-12930000D02*
X12695000Y-12960000D01*
X12695000Y-12930000D02*
X12665000Y-12960000D01*
D11*
X12980714Y-12837524D02*
X12999762Y-12837524D01*
X12999762Y-12837524D02*
X13018809Y-12847048D01*
X13018809Y-12847048D02*
X13028333Y-12856571D01*
X13028333Y-12856571D02*
X13037857Y-12875619D01*
X13037857Y-12875619D02*
X13047381Y-12913714D01*
X13047381Y-12913714D02*
X13047381Y-12961333D01*
X13047381Y-12961333D02*
X13037857Y-12999428D01*
X13037857Y-12999428D02*
X13028333Y-13018476D01*
X13028333Y-13018476D02*
X13018809Y-13028000D01*
X13018809Y-13028000D02*
X12999762Y-13037524D01*
X12999762Y-13037524D02*
X12980714Y-13037524D01*
X12980714Y-13037524D02*
X12961667Y-13028000D01*
X12961667Y-13028000D02*
X12952143Y-13018476D01*
X12952143Y-13018476D02*
X12942619Y-12999428D01*
X12942619Y-12999428D02*
X12933095Y-12961333D01*
X12933095Y-12961333D02*
X12933095Y-12913714D01*
X12933095Y-12913714D02*
X12942619Y-12875619D01*
X12942619Y-12875619D02*
X12952143Y-12856571D01*
X12952143Y-12856571D02*
X12961667Y-12847048D01*
X12961667Y-12847048D02*
X12980714Y-12837524D01*
X13133095Y-13018476D02*
X13142619Y-13028000D01*
X13142619Y-13028000D02*
X13133095Y-13037524D01*
X13133095Y-13037524D02*
X13123571Y-13028000D01*
X13123571Y-13028000D02*
X13133095Y-13018476D01*
X13133095Y-13018476D02*
X13133095Y-13037524D01*
X13209286Y-12837524D02*
X13333095Y-12837524D01*
X13333095Y-12837524D02*
X13266428Y-12913714D01*
X13266428Y-12913714D02*
X13295000Y-12913714D01*
X13295000Y-12913714D02*
X13314048Y-12923238D01*
X13314048Y-12923238D02*
X13323571Y-12932762D01*
X13323571Y-12932762D02*
X13333095Y-12951809D01*
X13333095Y-12951809D02*
X13333095Y-12999428D01*
X13333095Y-12999428D02*
X13323571Y-13018476D01*
X13323571Y-13018476D02*
X13314048Y-13028000D01*
X13314048Y-13028000D02*
X13295000Y-13037524D01*
X13295000Y-13037524D02*
X13237857Y-13037524D01*
X13237857Y-13037524D02*
X13218809Y-13028000D01*
X13218809Y-13028000D02*
X13209286Y-13018476D01*
X13456905Y-12837524D02*
X13475952Y-12837524D01*
X13475952Y-12837524D02*
X13495000Y-12847048D01*
X13495000Y-12847048D02*
X13504524Y-12856571D01*
X13504524Y-12856571D02*
X13514048Y-12875619D01*
X13514048Y-12875619D02*
X13523571Y-12913714D01*
X13523571Y-12913714D02*
X13523571Y-12961333D01*
X13523571Y-12961333D02*
X13514048Y-12999428D01*
X13514048Y-12999428D02*
X13504524Y-13018476D01*
X13504524Y-13018476D02*
X13495000Y-13028000D01*
X13495000Y-13028000D02*
X13475952Y-13037524D01*
X13475952Y-13037524D02*
X13456905Y-13037524D01*
X13456905Y-13037524D02*
X13437857Y-13028000D01*
X13437857Y-13028000D02*
X13428333Y-13018476D01*
X13428333Y-13018476D02*
X13418809Y-12999428D01*
X13418809Y-12999428D02*
X13409286Y-12961333D01*
X13409286Y-12961333D02*
X13409286Y-12913714D01*
X13409286Y-12913714D02*
X13418809Y-12875619D01*
X13418809Y-12875619D02*
X13428333Y-12856571D01*
X13428333Y-12856571D02*
X13437857Y-12847048D01*
X13437857Y-12847048D02*
X13456905Y-12837524D01*
X13647381Y-12837524D02*
X13666429Y-12837524D01*
X13666429Y-12837524D02*
X13685476Y-12847048D01*
X13685476Y-12847048D02*
X13695000Y-12856571D01*
X13695000Y-12856571D02*
X13704524Y-12875619D01*
X13704524Y-12875619D02*
X13714048Y-12913714D01*
X13714048Y-12913714D02*
X13714048Y-12961333D01*
X13714048Y-12961333D02*
X13704524Y-12999428D01*
X13704524Y-12999428D02*
X13695000Y-13018476D01*
X13695000Y-13018476D02*
X13685476Y-13028000D01*
X13685476Y-13028000D02*
X13666429Y-13037524D01*
X13666429Y-13037524D02*
X13647381Y-13037524D01*
X13647381Y-13037524D02*
X13628333Y-13028000D01*
X13628333Y-13028000D02*
X13618809Y-13018476D01*
X13618809Y-13018476D02*
X13609286Y-12999428D01*
X13609286Y-12999428D02*
X13599762Y-12961333D01*
X13599762Y-12961333D02*
X13599762Y-12913714D01*
X13599762Y-12913714D02*
X13609286Y-12875619D01*
X13609286Y-12875619D02*
X13618809Y-12856571D01*
X13618809Y-12856571D02*
X13628333Y-12847048D01*
X13628333Y-12847048D02*
X13647381Y-12837524D01*
X13799762Y-13037524D02*
X13799762Y-12904190D01*
X13799762Y-12923238D02*
X13809286Y-12913714D01*
X13809286Y-12913714D02*
X13828333Y-12904190D01*
X13828333Y-12904190D02*
X13856905Y-12904190D01*
X13856905Y-12904190D02*
X13875952Y-12913714D01*
X13875952Y-12913714D02*
X13885476Y-12932762D01*
X13885476Y-12932762D02*
X13885476Y-13037524D01*
X13885476Y-12932762D02*
X13895000Y-12913714D01*
X13895000Y-12913714D02*
X13914048Y-12904190D01*
X13914048Y-12904190D02*
X13942619Y-12904190D01*
X13942619Y-12904190D02*
X13961667Y-12913714D01*
X13961667Y-12913714D02*
X13971190Y-12932762D01*
X13971190Y-12932762D02*
X13971190Y-13037524D01*
X14066429Y-13037524D02*
X14066429Y-12904190D01*
X14066429Y-12923238D02*
X14075952Y-12913714D01*
X14075952Y-12913714D02*
X14095000Y-12904190D01*
X14095000Y-12904190D02*
X14123571Y-12904190D01*
X14123571Y-12904190D02*
X14142619Y-12913714D01*
X14142619Y-12913714D02*
X14152143Y-12932762D01*
X14152143Y-12932762D02*
X14152143Y-13037524D01*
X14152143Y-12932762D02*
X14161667Y-12913714D01*
X14161667Y-12913714D02*
X14180714Y-12904190D01*
X14180714Y-12904190D02*
X14209286Y-12904190D01*
X14209286Y-12904190D02*
X14228333Y-12913714D01*
X14228333Y-12913714D02*
X14237857Y-12932762D01*
X14237857Y-12932762D02*
X14237857Y-13037524D01*
X14628333Y-12828000D02*
X14456905Y-13085143D01*
X14885476Y-12837524D02*
X14904524Y-12837524D01*
X14904524Y-12837524D02*
X14923572Y-12847048D01*
X14923572Y-12847048D02*
X14933095Y-12856571D01*
X14933095Y-12856571D02*
X14942619Y-12875619D01*
X14942619Y-12875619D02*
X14952143Y-12913714D01*
X14952143Y-12913714D02*
X14952143Y-12961333D01*
X14952143Y-12961333D02*
X14942619Y-12999428D01*
X14942619Y-12999428D02*
X14933095Y-13018476D01*
X14933095Y-13018476D02*
X14923572Y-13028000D01*
X14923572Y-13028000D02*
X14904524Y-13037524D01*
X14904524Y-13037524D02*
X14885476Y-13037524D01*
X14885476Y-13037524D02*
X14866429Y-13028000D01*
X14866429Y-13028000D02*
X14856905Y-13018476D01*
X14856905Y-13018476D02*
X14847381Y-12999428D01*
X14847381Y-12999428D02*
X14837857Y-12961333D01*
X14837857Y-12961333D02*
X14837857Y-12913714D01*
X14837857Y-12913714D02*
X14847381Y-12875619D01*
X14847381Y-12875619D02*
X14856905Y-12856571D01*
X14856905Y-12856571D02*
X14866429Y-12847048D01*
X14866429Y-12847048D02*
X14885476Y-12837524D01*
X15037857Y-13018476D02*
X15047381Y-13028000D01*
X15047381Y-13028000D02*
X15037857Y-13037524D01*
X15037857Y-13037524D02*
X15028333Y-13028000D01*
X15028333Y-13028000D02*
X15037857Y-13018476D01*
X15037857Y-13018476D02*
X15037857Y-13037524D01*
X15171191Y-12837524D02*
X15190238Y-12837524D01*
X15190238Y-12837524D02*
X15209286Y-12847048D01*
X15209286Y-12847048D02*
X15218810Y-12856571D01*
X15218810Y-12856571D02*
X15228333Y-12875619D01*
X15228333Y-12875619D02*
X15237857Y-12913714D01*
X15237857Y-12913714D02*
X15237857Y-12961333D01*
X15237857Y-12961333D02*
X15228333Y-12999428D01*
X15228333Y-12999428D02*
X15218810Y-13018476D01*
X15218810Y-13018476D02*
X15209286Y-13028000D01*
X15209286Y-13028000D02*
X15190238Y-13037524D01*
X15190238Y-13037524D02*
X15171191Y-13037524D01*
X15171191Y-13037524D02*
X15152143Y-13028000D01*
X15152143Y-13028000D02*
X15142619Y-13018476D01*
X15142619Y-13018476D02*
X15133095Y-12999428D01*
X15133095Y-12999428D02*
X15123572Y-12961333D01*
X15123572Y-12961333D02*
X15123572Y-12913714D01*
X15123572Y-12913714D02*
X15133095Y-12875619D01*
X15133095Y-12875619D02*
X15142619Y-12856571D01*
X15142619Y-12856571D02*
X15152143Y-12847048D01*
X15152143Y-12847048D02*
X15171191Y-12837524D01*
X15428333Y-13037524D02*
X15314048Y-13037524D01*
X15371191Y-13037524D02*
X15371191Y-12837524D01*
X15371191Y-12837524D02*
X15352143Y-12866095D01*
X15352143Y-12866095D02*
X15333095Y-12885143D01*
X15333095Y-12885143D02*
X15314048Y-12894667D01*
X15618810Y-13037524D02*
X15504524Y-13037524D01*
X15561667Y-13037524D02*
X15561667Y-12837524D01*
X15561667Y-12837524D02*
X15542619Y-12866095D01*
X15542619Y-12866095D02*
X15523572Y-12885143D01*
X15523572Y-12885143D02*
X15504524Y-12894667D01*
X15733095Y-12923238D02*
X15714048Y-12913714D01*
X15714048Y-12913714D02*
X15704524Y-12904190D01*
X15704524Y-12904190D02*
X15695000Y-12885143D01*
X15695000Y-12885143D02*
X15695000Y-12875619D01*
X15695000Y-12875619D02*
X15704524Y-12856571D01*
X15704524Y-12856571D02*
X15714048Y-12847048D01*
X15714048Y-12847048D02*
X15733095Y-12837524D01*
X15733095Y-12837524D02*
X15771191Y-12837524D01*
X15771191Y-12837524D02*
X15790238Y-12847048D01*
X15790238Y-12847048D02*
X15799762Y-12856571D01*
X15799762Y-12856571D02*
X15809286Y-12875619D01*
X15809286Y-12875619D02*
X15809286Y-12885143D01*
X15809286Y-12885143D02*
X15799762Y-12904190D01*
X15799762Y-12904190D02*
X15790238Y-12913714D01*
X15790238Y-12913714D02*
X15771191Y-12923238D01*
X15771191Y-12923238D02*
X15733095Y-12923238D01*
X15733095Y-12923238D02*
X15714048Y-12932762D01*
X15714048Y-12932762D02*
X15704524Y-12942286D01*
X15704524Y-12942286D02*
X15695000Y-12961333D01*
X15695000Y-12961333D02*
X15695000Y-12999428D01*
X15695000Y-12999428D02*
X15704524Y-13018476D01*
X15704524Y-13018476D02*
X15714048Y-13028000D01*
X15714048Y-13028000D02*
X15733095Y-13037524D01*
X15733095Y-13037524D02*
X15771191Y-13037524D01*
X15771191Y-13037524D02*
X15790238Y-13028000D01*
X15790238Y-13028000D02*
X15799762Y-13018476D01*
X15799762Y-13018476D02*
X15809286Y-12999428D01*
X15809286Y-12999428D02*
X15809286Y-12961333D01*
X15809286Y-12961333D02*
X15799762Y-12942286D01*
X15799762Y-12942286D02*
X15790238Y-12932762D01*
X15790238Y-12932762D02*
X15771191Y-12923238D01*
X15885476Y-12837524D02*
X15885476Y-12875619D01*
X15961667Y-12837524D02*
X15961667Y-12875619D01*
X16256905Y-13113714D02*
X16247381Y-13104190D01*
X16247381Y-13104190D02*
X16228334Y-13075619D01*
X16228334Y-13075619D02*
X16218810Y-13056571D01*
X16218810Y-13056571D02*
X16209286Y-13028000D01*
X16209286Y-13028000D02*
X16199762Y-12980381D01*
X16199762Y-12980381D02*
X16199762Y-12942286D01*
X16199762Y-12942286D02*
X16209286Y-12894667D01*
X16209286Y-12894667D02*
X16218810Y-12866095D01*
X16218810Y-12866095D02*
X16228334Y-12847048D01*
X16228334Y-12847048D02*
X16247381Y-12818476D01*
X16247381Y-12818476D02*
X16256905Y-12808952D01*
X16314048Y-12837524D02*
X16447381Y-12837524D01*
X16447381Y-12837524D02*
X16361667Y-13037524D01*
X16504524Y-12837524D02*
X16637857Y-12837524D01*
X16637857Y-12837524D02*
X16552143Y-13037524D01*
X16866429Y-13037524D02*
X16866429Y-12837524D01*
X16952143Y-13037524D02*
X16952143Y-12932762D01*
X16952143Y-12932762D02*
X16942619Y-12913714D01*
X16942619Y-12913714D02*
X16923572Y-12904190D01*
X16923572Y-12904190D02*
X16895000Y-12904190D01*
X16895000Y-12904190D02*
X16875953Y-12913714D01*
X16875953Y-12913714D02*
X16866429Y-12923238D01*
X17075953Y-13037524D02*
X17056905Y-13028000D01*
X17056905Y-13028000D02*
X17047381Y-13018476D01*
X17047381Y-13018476D02*
X17037858Y-12999428D01*
X17037858Y-12999428D02*
X17037858Y-12942286D01*
X17037858Y-12942286D02*
X17047381Y-12923238D01*
X17047381Y-12923238D02*
X17056905Y-12913714D01*
X17056905Y-12913714D02*
X17075953Y-12904190D01*
X17075953Y-12904190D02*
X17104524Y-12904190D01*
X17104524Y-12904190D02*
X17123572Y-12913714D01*
X17123572Y-12913714D02*
X17133096Y-12923238D01*
X17133096Y-12923238D02*
X17142619Y-12942286D01*
X17142619Y-12942286D02*
X17142619Y-12999428D01*
X17142619Y-12999428D02*
X17133096Y-13018476D01*
X17133096Y-13018476D02*
X17123572Y-13028000D01*
X17123572Y-13028000D02*
X17104524Y-13037524D01*
X17104524Y-13037524D02*
X17075953Y-13037524D01*
X17256905Y-13037524D02*
X17237858Y-13028000D01*
X17237858Y-13028000D02*
X17228334Y-13008952D01*
X17228334Y-13008952D02*
X17228334Y-12837524D01*
X17409286Y-13028000D02*
X17390239Y-13037524D01*
X17390239Y-13037524D02*
X17352143Y-13037524D01*
X17352143Y-13037524D02*
X17333096Y-13028000D01*
X17333096Y-13028000D02*
X17323572Y-13008952D01*
X17323572Y-13008952D02*
X17323572Y-12932762D01*
X17323572Y-12932762D02*
X17333096Y-12913714D01*
X17333096Y-12913714D02*
X17352143Y-12904190D01*
X17352143Y-12904190D02*
X17390239Y-12904190D01*
X17390239Y-12904190D02*
X17409286Y-12913714D01*
X17409286Y-12913714D02*
X17418810Y-12932762D01*
X17418810Y-12932762D02*
X17418810Y-12951809D01*
X17418810Y-12951809D02*
X17323572Y-12970857D01*
X17495000Y-13028000D02*
X17514048Y-13037524D01*
X17514048Y-13037524D02*
X17552143Y-13037524D01*
X17552143Y-13037524D02*
X17571191Y-13028000D01*
X17571191Y-13028000D02*
X17580715Y-13008952D01*
X17580715Y-13008952D02*
X17580715Y-12999428D01*
X17580715Y-12999428D02*
X17571191Y-12980381D01*
X17571191Y-12980381D02*
X17552143Y-12970857D01*
X17552143Y-12970857D02*
X17523572Y-12970857D01*
X17523572Y-12970857D02*
X17504524Y-12961333D01*
X17504524Y-12961333D02*
X17495000Y-12942286D01*
X17495000Y-12942286D02*
X17495000Y-12932762D01*
X17495000Y-12932762D02*
X17504524Y-12913714D01*
X17504524Y-12913714D02*
X17523572Y-12904190D01*
X17523572Y-12904190D02*
X17552143Y-12904190D01*
X17552143Y-12904190D02*
X17571191Y-12913714D01*
X17647381Y-13113714D02*
X17656905Y-13104190D01*
X17656905Y-13104190D02*
X17675953Y-13075619D01*
X17675953Y-13075619D02*
X17685477Y-13056571D01*
X17685477Y-13056571D02*
X17695000Y-13028000D01*
X17695000Y-13028000D02*
X17704524Y-12980381D01*
X17704524Y-12980381D02*
X17704524Y-12942286D01*
X17704524Y-12942286D02*
X17695000Y-12894667D01*
X17695000Y-12894667D02*
X17685477Y-12866095D01*
X17685477Y-12866095D02*
X17675953Y-12847048D01*
X17675953Y-12847048D02*
X17656905Y-12818476D01*
X17656905Y-12818476D02*
X17647381Y-12808952D01*
D13*
X12695000Y-13209000D02*
G75*
G03*
X12695000Y-13209000I-30000J0D01*
G01*
D11*
X12980714Y-13101524D02*
X12999762Y-13101524D01*
X12999762Y-13101524D02*
X13018809Y-13111048D01*
X13018809Y-13111048D02*
X13028333Y-13120571D01*
X13028333Y-13120571D02*
X13037857Y-13139619D01*
X13037857Y-13139619D02*
X13047381Y-13177714D01*
X13047381Y-13177714D02*
X13047381Y-13225333D01*
X13047381Y-13225333D02*
X13037857Y-13263428D01*
X13037857Y-13263428D02*
X13028333Y-13282476D01*
X13028333Y-13282476D02*
X13018809Y-13292000D01*
X13018809Y-13292000D02*
X12999762Y-13301524D01*
X12999762Y-13301524D02*
X12980714Y-13301524D01*
X12980714Y-13301524D02*
X12961667Y-13292000D01*
X12961667Y-13292000D02*
X12952143Y-13282476D01*
X12952143Y-13282476D02*
X12942619Y-13263428D01*
X12942619Y-13263428D02*
X12933095Y-13225333D01*
X12933095Y-13225333D02*
X12933095Y-13177714D01*
X12933095Y-13177714D02*
X12942619Y-13139619D01*
X12942619Y-13139619D02*
X12952143Y-13120571D01*
X12952143Y-13120571D02*
X12961667Y-13111048D01*
X12961667Y-13111048D02*
X12980714Y-13101524D01*
X13133095Y-13282476D02*
X13142619Y-13292000D01*
X13142619Y-13292000D02*
X13133095Y-13301524D01*
X13133095Y-13301524D02*
X13123571Y-13292000D01*
X13123571Y-13292000D02*
X13133095Y-13282476D01*
X13133095Y-13282476D02*
X13133095Y-13301524D01*
X13314048Y-13101524D02*
X13275952Y-13101524D01*
X13275952Y-13101524D02*
X13256905Y-13111048D01*
X13256905Y-13111048D02*
X13247381Y-13120571D01*
X13247381Y-13120571D02*
X13228333Y-13149143D01*
X13228333Y-13149143D02*
X13218809Y-13187238D01*
X13218809Y-13187238D02*
X13218809Y-13263428D01*
X13218809Y-13263428D02*
X13228333Y-13282476D01*
X13228333Y-13282476D02*
X13237857Y-13292000D01*
X13237857Y-13292000D02*
X13256905Y-13301524D01*
X13256905Y-13301524D02*
X13295000Y-13301524D01*
X13295000Y-13301524D02*
X13314048Y-13292000D01*
X13314048Y-13292000D02*
X13323571Y-13282476D01*
X13323571Y-13282476D02*
X13333095Y-13263428D01*
X13333095Y-13263428D02*
X13333095Y-13215809D01*
X13333095Y-13215809D02*
X13323571Y-13196762D01*
X13323571Y-13196762D02*
X13314048Y-13187238D01*
X13314048Y-13187238D02*
X13295000Y-13177714D01*
X13295000Y-13177714D02*
X13256905Y-13177714D01*
X13256905Y-13177714D02*
X13237857Y-13187238D01*
X13237857Y-13187238D02*
X13228333Y-13196762D01*
X13228333Y-13196762D02*
X13218809Y-13215809D01*
X13456905Y-13101524D02*
X13475952Y-13101524D01*
X13475952Y-13101524D02*
X13495000Y-13111048D01*
X13495000Y-13111048D02*
X13504524Y-13120571D01*
X13504524Y-13120571D02*
X13514048Y-13139619D01*
X13514048Y-13139619D02*
X13523571Y-13177714D01*
X13523571Y-13177714D02*
X13523571Y-13225333D01*
X13523571Y-13225333D02*
X13514048Y-13263428D01*
X13514048Y-13263428D02*
X13504524Y-13282476D01*
X13504524Y-13282476D02*
X13495000Y-13292000D01*
X13495000Y-13292000D02*
X13475952Y-13301524D01*
X13475952Y-13301524D02*
X13456905Y-13301524D01*
X13456905Y-13301524D02*
X13437857Y-13292000D01*
X13437857Y-13292000D02*
X13428333Y-13282476D01*
X13428333Y-13282476D02*
X13418809Y-13263428D01*
X13418809Y-13263428D02*
X13409286Y-13225333D01*
X13409286Y-13225333D02*
X13409286Y-13177714D01*
X13409286Y-13177714D02*
X13418809Y-13139619D01*
X13418809Y-13139619D02*
X13428333Y-13120571D01*
X13428333Y-13120571D02*
X13437857Y-13111048D01*
X13437857Y-13111048D02*
X13456905Y-13101524D01*
X13647381Y-13101524D02*
X13666429Y-13101524D01*
X13666429Y-13101524D02*
X13685476Y-13111048D01*
X13685476Y-13111048D02*
X13695000Y-13120571D01*
X13695000Y-13120571D02*
X13704524Y-13139619D01*
X13704524Y-13139619D02*
X13714048Y-13177714D01*
X13714048Y-13177714D02*
X13714048Y-13225333D01*
X13714048Y-13225333D02*
X13704524Y-13263428D01*
X13704524Y-13263428D02*
X13695000Y-13282476D01*
X13695000Y-13282476D02*
X13685476Y-13292000D01*
X13685476Y-13292000D02*
X13666429Y-13301524D01*
X13666429Y-13301524D02*
X13647381Y-13301524D01*
X13647381Y-13301524D02*
X13628333Y-13292000D01*
X13628333Y-13292000D02*
X13618809Y-13282476D01*
X13618809Y-13282476D02*
X13609286Y-13263428D01*
X13609286Y-13263428D02*
X13599762Y-13225333D01*
X13599762Y-13225333D02*
X13599762Y-13177714D01*
X13599762Y-13177714D02*
X13609286Y-13139619D01*
X13609286Y-13139619D02*
X13618809Y-13120571D01*
X13618809Y-13120571D02*
X13628333Y-13111048D01*
X13628333Y-13111048D02*
X13647381Y-13101524D01*
X13799762Y-13301524D02*
X13799762Y-13168190D01*
X13799762Y-13187238D02*
X13809286Y-13177714D01*
X13809286Y-13177714D02*
X13828333Y-13168190D01*
X13828333Y-13168190D02*
X13856905Y-13168190D01*
X13856905Y-13168190D02*
X13875952Y-13177714D01*
X13875952Y-13177714D02*
X13885476Y-13196762D01*
X13885476Y-13196762D02*
X13885476Y-13301524D01*
X13885476Y-13196762D02*
X13895000Y-13177714D01*
X13895000Y-13177714D02*
X13914048Y-13168190D01*
X13914048Y-13168190D02*
X13942619Y-13168190D01*
X13942619Y-13168190D02*
X13961667Y-13177714D01*
X13961667Y-13177714D02*
X13971190Y-13196762D01*
X13971190Y-13196762D02*
X13971190Y-13301524D01*
X14066429Y-13301524D02*
X14066429Y-13168190D01*
X14066429Y-13187238D02*
X14075952Y-13177714D01*
X14075952Y-13177714D02*
X14095000Y-13168190D01*
X14095000Y-13168190D02*
X14123571Y-13168190D01*
X14123571Y-13168190D02*
X14142619Y-13177714D01*
X14142619Y-13177714D02*
X14152143Y-13196762D01*
X14152143Y-13196762D02*
X14152143Y-13301524D01*
X14152143Y-13196762D02*
X14161667Y-13177714D01*
X14161667Y-13177714D02*
X14180714Y-13168190D01*
X14180714Y-13168190D02*
X14209286Y-13168190D01*
X14209286Y-13168190D02*
X14228333Y-13177714D01*
X14228333Y-13177714D02*
X14237857Y-13196762D01*
X14237857Y-13196762D02*
X14237857Y-13301524D01*
X14628333Y-13092000D02*
X14456905Y-13349143D01*
X14885476Y-13101524D02*
X14904524Y-13101524D01*
X14904524Y-13101524D02*
X14923572Y-13111048D01*
X14923572Y-13111048D02*
X14933095Y-13120571D01*
X14933095Y-13120571D02*
X14942619Y-13139619D01*
X14942619Y-13139619D02*
X14952143Y-13177714D01*
X14952143Y-13177714D02*
X14952143Y-13225333D01*
X14952143Y-13225333D02*
X14942619Y-13263428D01*
X14942619Y-13263428D02*
X14933095Y-13282476D01*
X14933095Y-13282476D02*
X14923572Y-13292000D01*
X14923572Y-13292000D02*
X14904524Y-13301524D01*
X14904524Y-13301524D02*
X14885476Y-13301524D01*
X14885476Y-13301524D02*
X14866429Y-13292000D01*
X14866429Y-13292000D02*
X14856905Y-13282476D01*
X14856905Y-13282476D02*
X14847381Y-13263428D01*
X14847381Y-13263428D02*
X14837857Y-13225333D01*
X14837857Y-13225333D02*
X14837857Y-13177714D01*
X14837857Y-13177714D02*
X14847381Y-13139619D01*
X14847381Y-13139619D02*
X14856905Y-13120571D01*
X14856905Y-13120571D02*
X14866429Y-13111048D01*
X14866429Y-13111048D02*
X14885476Y-13101524D01*
X15037857Y-13282476D02*
X15047381Y-13292000D01*
X15047381Y-13292000D02*
X15037857Y-13301524D01*
X15037857Y-13301524D02*
X15028333Y-13292000D01*
X15028333Y-13292000D02*
X15037857Y-13282476D01*
X15037857Y-13282476D02*
X15037857Y-13301524D01*
X15171191Y-13101524D02*
X15190238Y-13101524D01*
X15190238Y-13101524D02*
X15209286Y-13111048D01*
X15209286Y-13111048D02*
X15218810Y-13120571D01*
X15218810Y-13120571D02*
X15228333Y-13139619D01*
X15228333Y-13139619D02*
X15237857Y-13177714D01*
X15237857Y-13177714D02*
X15237857Y-13225333D01*
X15237857Y-13225333D02*
X15228333Y-13263428D01*
X15228333Y-13263428D02*
X15218810Y-13282476D01*
X15218810Y-13282476D02*
X15209286Y-13292000D01*
X15209286Y-13292000D02*
X15190238Y-13301524D01*
X15190238Y-13301524D02*
X15171191Y-13301524D01*
X15171191Y-13301524D02*
X15152143Y-13292000D01*
X15152143Y-13292000D02*
X15142619Y-13282476D01*
X15142619Y-13282476D02*
X15133095Y-13263428D01*
X15133095Y-13263428D02*
X15123572Y-13225333D01*
X15123572Y-13225333D02*
X15123572Y-13177714D01*
X15123572Y-13177714D02*
X15133095Y-13139619D01*
X15133095Y-13139619D02*
X15142619Y-13120571D01*
X15142619Y-13120571D02*
X15152143Y-13111048D01*
X15152143Y-13111048D02*
X15171191Y-13101524D01*
X15314048Y-13120571D02*
X15323572Y-13111048D01*
X15323572Y-13111048D02*
X15342619Y-13101524D01*
X15342619Y-13101524D02*
X15390238Y-13101524D01*
X15390238Y-13101524D02*
X15409286Y-13111048D01*
X15409286Y-13111048D02*
X15418810Y-13120571D01*
X15418810Y-13120571D02*
X15428333Y-13139619D01*
X15428333Y-13139619D02*
X15428333Y-13158667D01*
X15428333Y-13158667D02*
X15418810Y-13187238D01*
X15418810Y-13187238D02*
X15304524Y-13301524D01*
X15304524Y-13301524D02*
X15428333Y-13301524D01*
X15495000Y-13101524D02*
X15618810Y-13101524D01*
X15618810Y-13101524D02*
X15552143Y-13177714D01*
X15552143Y-13177714D02*
X15580714Y-13177714D01*
X15580714Y-13177714D02*
X15599762Y-13187238D01*
X15599762Y-13187238D02*
X15609286Y-13196762D01*
X15609286Y-13196762D02*
X15618810Y-13215809D01*
X15618810Y-13215809D02*
X15618810Y-13263428D01*
X15618810Y-13263428D02*
X15609286Y-13282476D01*
X15609286Y-13282476D02*
X15599762Y-13292000D01*
X15599762Y-13292000D02*
X15580714Y-13301524D01*
X15580714Y-13301524D02*
X15523572Y-13301524D01*
X15523572Y-13301524D02*
X15504524Y-13292000D01*
X15504524Y-13292000D02*
X15495000Y-13282476D01*
X15790238Y-13101524D02*
X15752143Y-13101524D01*
X15752143Y-13101524D02*
X15733095Y-13111048D01*
X15733095Y-13111048D02*
X15723572Y-13120571D01*
X15723572Y-13120571D02*
X15704524Y-13149143D01*
X15704524Y-13149143D02*
X15695000Y-13187238D01*
X15695000Y-13187238D02*
X15695000Y-13263428D01*
X15695000Y-13263428D02*
X15704524Y-13282476D01*
X15704524Y-13282476D02*
X15714048Y-13292000D01*
X15714048Y-13292000D02*
X15733095Y-13301524D01*
X15733095Y-13301524D02*
X15771191Y-13301524D01*
X15771191Y-13301524D02*
X15790238Y-13292000D01*
X15790238Y-13292000D02*
X15799762Y-13282476D01*
X15799762Y-13282476D02*
X15809286Y-13263428D01*
X15809286Y-13263428D02*
X15809286Y-13215809D01*
X15809286Y-13215809D02*
X15799762Y-13196762D01*
X15799762Y-13196762D02*
X15790238Y-13187238D01*
X15790238Y-13187238D02*
X15771191Y-13177714D01*
X15771191Y-13177714D02*
X15733095Y-13177714D01*
X15733095Y-13177714D02*
X15714048Y-13187238D01*
X15714048Y-13187238D02*
X15704524Y-13196762D01*
X15704524Y-13196762D02*
X15695000Y-13215809D01*
X15885476Y-13101524D02*
X15885476Y-13139619D01*
X15961667Y-13101524D02*
X15961667Y-13139619D01*
X16256905Y-13377714D02*
X16247381Y-13368190D01*
X16247381Y-13368190D02*
X16228334Y-13339619D01*
X16228334Y-13339619D02*
X16218810Y-13320571D01*
X16218810Y-13320571D02*
X16209286Y-13292000D01*
X16209286Y-13292000D02*
X16199762Y-13244381D01*
X16199762Y-13244381D02*
X16199762Y-13206286D01*
X16199762Y-13206286D02*
X16209286Y-13158667D01*
X16209286Y-13158667D02*
X16218810Y-13130095D01*
X16218810Y-13130095D02*
X16228334Y-13111048D01*
X16228334Y-13111048D02*
X16247381Y-13082476D01*
X16247381Y-13082476D02*
X16256905Y-13072952D01*
X16371191Y-13101524D02*
X16390238Y-13101524D01*
X16390238Y-13101524D02*
X16409286Y-13111048D01*
X16409286Y-13111048D02*
X16418810Y-13120571D01*
X16418810Y-13120571D02*
X16428334Y-13139619D01*
X16428334Y-13139619D02*
X16437857Y-13177714D01*
X16437857Y-13177714D02*
X16437857Y-13225333D01*
X16437857Y-13225333D02*
X16428334Y-13263428D01*
X16428334Y-13263428D02*
X16418810Y-13282476D01*
X16418810Y-13282476D02*
X16409286Y-13292000D01*
X16409286Y-13292000D02*
X16390238Y-13301524D01*
X16390238Y-13301524D02*
X16371191Y-13301524D01*
X16371191Y-13301524D02*
X16352143Y-13292000D01*
X16352143Y-13292000D02*
X16342619Y-13282476D01*
X16342619Y-13282476D02*
X16333095Y-13263428D01*
X16333095Y-13263428D02*
X16323572Y-13225333D01*
X16323572Y-13225333D02*
X16323572Y-13177714D01*
X16323572Y-13177714D02*
X16333095Y-13139619D01*
X16333095Y-13139619D02*
X16342619Y-13120571D01*
X16342619Y-13120571D02*
X16352143Y-13111048D01*
X16352143Y-13111048D02*
X16371191Y-13101524D01*
X16675953Y-13301524D02*
X16675953Y-13101524D01*
X16761667Y-13301524D02*
X16761667Y-13196762D01*
X16761667Y-13196762D02*
X16752143Y-13177714D01*
X16752143Y-13177714D02*
X16733096Y-13168190D01*
X16733096Y-13168190D02*
X16704524Y-13168190D01*
X16704524Y-13168190D02*
X16685476Y-13177714D01*
X16685476Y-13177714D02*
X16675953Y-13187238D01*
X16885477Y-13301524D02*
X16866429Y-13292000D01*
X16866429Y-13292000D02*
X16856905Y-13282476D01*
X16856905Y-13282476D02*
X16847381Y-13263428D01*
X16847381Y-13263428D02*
X16847381Y-13206286D01*
X16847381Y-13206286D02*
X16856905Y-13187238D01*
X16856905Y-13187238D02*
X16866429Y-13177714D01*
X16866429Y-13177714D02*
X16885477Y-13168190D01*
X16885477Y-13168190D02*
X16914048Y-13168190D01*
X16914048Y-13168190D02*
X16933096Y-13177714D01*
X16933096Y-13177714D02*
X16942619Y-13187238D01*
X16942619Y-13187238D02*
X16952143Y-13206286D01*
X16952143Y-13206286D02*
X16952143Y-13263428D01*
X16952143Y-13263428D02*
X16942619Y-13282476D01*
X16942619Y-13282476D02*
X16933096Y-13292000D01*
X16933096Y-13292000D02*
X16914048Y-13301524D01*
X16914048Y-13301524D02*
X16885477Y-13301524D01*
X17066429Y-13301524D02*
X17047381Y-13292000D01*
X17047381Y-13292000D02*
X17037858Y-13272952D01*
X17037858Y-13272952D02*
X17037858Y-13101524D01*
X17218810Y-13292000D02*
X17199762Y-13301524D01*
X17199762Y-13301524D02*
X17161667Y-13301524D01*
X17161667Y-13301524D02*
X17142619Y-13292000D01*
X17142619Y-13292000D02*
X17133096Y-13272952D01*
X17133096Y-13272952D02*
X17133096Y-13196762D01*
X17133096Y-13196762D02*
X17142619Y-13177714D01*
X17142619Y-13177714D02*
X17161667Y-13168190D01*
X17161667Y-13168190D02*
X17199762Y-13168190D01*
X17199762Y-13168190D02*
X17218810Y-13177714D01*
X17218810Y-13177714D02*
X17228334Y-13196762D01*
X17228334Y-13196762D02*
X17228334Y-13215809D01*
X17228334Y-13215809D02*
X17133096Y-13234857D01*
X17304524Y-13292000D02*
X17323572Y-13301524D01*
X17323572Y-13301524D02*
X17361667Y-13301524D01*
X17361667Y-13301524D02*
X17380715Y-13292000D01*
X17380715Y-13292000D02*
X17390239Y-13272952D01*
X17390239Y-13272952D02*
X17390239Y-13263428D01*
X17390239Y-13263428D02*
X17380715Y-13244381D01*
X17380715Y-13244381D02*
X17361667Y-13234857D01*
X17361667Y-13234857D02*
X17333096Y-13234857D01*
X17333096Y-13234857D02*
X17314048Y-13225333D01*
X17314048Y-13225333D02*
X17304524Y-13206286D01*
X17304524Y-13206286D02*
X17304524Y-13196762D01*
X17304524Y-13196762D02*
X17314048Y-13177714D01*
X17314048Y-13177714D02*
X17333096Y-13168190D01*
X17333096Y-13168190D02*
X17361667Y-13168190D01*
X17361667Y-13168190D02*
X17380715Y-13177714D01*
X17628334Y-13225333D02*
X17780715Y-13225333D01*
X17704524Y-13301524D02*
X17704524Y-13149143D01*
X18114048Y-13168190D02*
X18114048Y-13301524D01*
X18066429Y-13092000D02*
X18018810Y-13234857D01*
X18018810Y-13234857D02*
X18142620Y-13234857D01*
X18361667Y-13292000D02*
X18380715Y-13301524D01*
X18380715Y-13301524D02*
X18418810Y-13301524D01*
X18418810Y-13301524D02*
X18437858Y-13292000D01*
X18437858Y-13292000D02*
X18447382Y-13272952D01*
X18447382Y-13272952D02*
X18447382Y-13263428D01*
X18447382Y-13263428D02*
X18437858Y-13244381D01*
X18437858Y-13244381D02*
X18418810Y-13234857D01*
X18418810Y-13234857D02*
X18390239Y-13234857D01*
X18390239Y-13234857D02*
X18371191Y-13225333D01*
X18371191Y-13225333D02*
X18361667Y-13206286D01*
X18361667Y-13206286D02*
X18361667Y-13196762D01*
X18361667Y-13196762D02*
X18371191Y-13177714D01*
X18371191Y-13177714D02*
X18390239Y-13168190D01*
X18390239Y-13168190D02*
X18418810Y-13168190D01*
X18418810Y-13168190D02*
X18437858Y-13177714D01*
X18561667Y-13301524D02*
X18542620Y-13292000D01*
X18542620Y-13292000D02*
X18533096Y-13272952D01*
X18533096Y-13272952D02*
X18533096Y-13101524D01*
X18666429Y-13301524D02*
X18647382Y-13292000D01*
X18647382Y-13292000D02*
X18637858Y-13282476D01*
X18637858Y-13282476D02*
X18628334Y-13263428D01*
X18628334Y-13263428D02*
X18628334Y-13206286D01*
X18628334Y-13206286D02*
X18637858Y-13187238D01*
X18637858Y-13187238D02*
X18647382Y-13177714D01*
X18647382Y-13177714D02*
X18666429Y-13168190D01*
X18666429Y-13168190D02*
X18695001Y-13168190D01*
X18695001Y-13168190D02*
X18714048Y-13177714D01*
X18714048Y-13177714D02*
X18723572Y-13187238D01*
X18723572Y-13187238D02*
X18733096Y-13206286D01*
X18733096Y-13206286D02*
X18733096Y-13263428D01*
X18733096Y-13263428D02*
X18723572Y-13282476D01*
X18723572Y-13282476D02*
X18714048Y-13292000D01*
X18714048Y-13292000D02*
X18695001Y-13301524D01*
X18695001Y-13301524D02*
X18666429Y-13301524D01*
X18790239Y-13168190D02*
X18866429Y-13168190D01*
X18818810Y-13101524D02*
X18818810Y-13272952D01*
X18818810Y-13272952D02*
X18828334Y-13292000D01*
X18828334Y-13292000D02*
X18847382Y-13301524D01*
X18847382Y-13301524D02*
X18866429Y-13301524D01*
X18923572Y-13292000D02*
X18942620Y-13301524D01*
X18942620Y-13301524D02*
X18980715Y-13301524D01*
X18980715Y-13301524D02*
X18999763Y-13292000D01*
X18999763Y-13292000D02*
X19009286Y-13272952D01*
X19009286Y-13272952D02*
X19009286Y-13263428D01*
X19009286Y-13263428D02*
X18999763Y-13244381D01*
X18999763Y-13244381D02*
X18980715Y-13234857D01*
X18980715Y-13234857D02*
X18952143Y-13234857D01*
X18952143Y-13234857D02*
X18933096Y-13225333D01*
X18933096Y-13225333D02*
X18923572Y-13206286D01*
X18923572Y-13206286D02*
X18923572Y-13196762D01*
X18923572Y-13196762D02*
X18933096Y-13177714D01*
X18933096Y-13177714D02*
X18952143Y-13168190D01*
X18952143Y-13168190D02*
X18980715Y-13168190D01*
X18980715Y-13168190D02*
X18999763Y-13177714D01*
X19075953Y-13377714D02*
X19085477Y-13368190D01*
X19085477Y-13368190D02*
X19104524Y-13339619D01*
X19104524Y-13339619D02*
X19114048Y-13320571D01*
X19114048Y-13320571D02*
X19123572Y-13292000D01*
X19123572Y-13292000D02*
X19133096Y-13244381D01*
X19133096Y-13244381D02*
X19133096Y-13206286D01*
X19133096Y-13206286D02*
X19123572Y-13158667D01*
X19123572Y-13158667D02*
X19114048Y-13130095D01*
X19114048Y-13130095D02*
X19104524Y-13111048D01*
X19104524Y-13111048D02*
X19085477Y-13082476D01*
X19085477Y-13082476D02*
X19075953Y-13072952D01*
D10*
X12645000Y-13423000D02*
X12645000Y-13523000D01*
X12595000Y-13473000D02*
X12695000Y-13473000D01*
D11*
X13047381Y-13565524D02*
X12933095Y-13565524D01*
X12990238Y-13565524D02*
X12990238Y-13365524D01*
X12990238Y-13365524D02*
X12971190Y-13394095D01*
X12971190Y-13394095D02*
X12952143Y-13413143D01*
X12952143Y-13413143D02*
X12933095Y-13422667D01*
X13133095Y-13546476D02*
X13142619Y-13556000D01*
X13142619Y-13556000D02*
X13133095Y-13565524D01*
X13133095Y-13565524D02*
X13123571Y-13556000D01*
X13123571Y-13556000D02*
X13133095Y-13546476D01*
X13133095Y-13546476D02*
X13133095Y-13565524D01*
X13266428Y-13365524D02*
X13285476Y-13365524D01*
X13285476Y-13365524D02*
X13304524Y-13375048D01*
X13304524Y-13375048D02*
X13314048Y-13384571D01*
X13314048Y-13384571D02*
X13323571Y-13403619D01*
X13323571Y-13403619D02*
X13333095Y-13441714D01*
X13333095Y-13441714D02*
X13333095Y-13489333D01*
X13333095Y-13489333D02*
X13323571Y-13527428D01*
X13323571Y-13527428D02*
X13314048Y-13546476D01*
X13314048Y-13546476D02*
X13304524Y-13556000D01*
X13304524Y-13556000D02*
X13285476Y-13565524D01*
X13285476Y-13565524D02*
X13266428Y-13565524D01*
X13266428Y-13565524D02*
X13247381Y-13556000D01*
X13247381Y-13556000D02*
X13237857Y-13546476D01*
X13237857Y-13546476D02*
X13228333Y-13527428D01*
X13228333Y-13527428D02*
X13218809Y-13489333D01*
X13218809Y-13489333D02*
X13218809Y-13441714D01*
X13218809Y-13441714D02*
X13228333Y-13403619D01*
X13228333Y-13403619D02*
X13237857Y-13384571D01*
X13237857Y-13384571D02*
X13247381Y-13375048D01*
X13247381Y-13375048D02*
X13266428Y-13365524D01*
X13456905Y-13365524D02*
X13475952Y-13365524D01*
X13475952Y-13365524D02*
X13495000Y-13375048D01*
X13495000Y-13375048D02*
X13504524Y-13384571D01*
X13504524Y-13384571D02*
X13514048Y-13403619D01*
X13514048Y-13403619D02*
X13523571Y-13441714D01*
X13523571Y-13441714D02*
X13523571Y-13489333D01*
X13523571Y-13489333D02*
X13514048Y-13527428D01*
X13514048Y-13527428D02*
X13504524Y-13546476D01*
X13504524Y-13546476D02*
X13495000Y-13556000D01*
X13495000Y-13556000D02*
X13475952Y-13565524D01*
X13475952Y-13565524D02*
X13456905Y-13565524D01*
X13456905Y-13565524D02*
X13437857Y-13556000D01*
X13437857Y-13556000D02*
X13428333Y-13546476D01*
X13428333Y-13546476D02*
X13418809Y-13527428D01*
X13418809Y-13527428D02*
X13409286Y-13489333D01*
X13409286Y-13489333D02*
X13409286Y-13441714D01*
X13409286Y-13441714D02*
X13418809Y-13403619D01*
X13418809Y-13403619D02*
X13428333Y-13384571D01*
X13428333Y-13384571D02*
X13437857Y-13375048D01*
X13437857Y-13375048D02*
X13456905Y-13365524D01*
X13647381Y-13365524D02*
X13666429Y-13365524D01*
X13666429Y-13365524D02*
X13685476Y-13375048D01*
X13685476Y-13375048D02*
X13695000Y-13384571D01*
X13695000Y-13384571D02*
X13704524Y-13403619D01*
X13704524Y-13403619D02*
X13714048Y-13441714D01*
X13714048Y-13441714D02*
X13714048Y-13489333D01*
X13714048Y-13489333D02*
X13704524Y-13527428D01*
X13704524Y-13527428D02*
X13695000Y-13546476D01*
X13695000Y-13546476D02*
X13685476Y-13556000D01*
X13685476Y-13556000D02*
X13666429Y-13565524D01*
X13666429Y-13565524D02*
X13647381Y-13565524D01*
X13647381Y-13565524D02*
X13628333Y-13556000D01*
X13628333Y-13556000D02*
X13618809Y-13546476D01*
X13618809Y-13546476D02*
X13609286Y-13527428D01*
X13609286Y-13527428D02*
X13599762Y-13489333D01*
X13599762Y-13489333D02*
X13599762Y-13441714D01*
X13599762Y-13441714D02*
X13609286Y-13403619D01*
X13609286Y-13403619D02*
X13618809Y-13384571D01*
X13618809Y-13384571D02*
X13628333Y-13375048D01*
X13628333Y-13375048D02*
X13647381Y-13365524D01*
X13799762Y-13565524D02*
X13799762Y-13432190D01*
X13799762Y-13451238D02*
X13809286Y-13441714D01*
X13809286Y-13441714D02*
X13828333Y-13432190D01*
X13828333Y-13432190D02*
X13856905Y-13432190D01*
X13856905Y-13432190D02*
X13875952Y-13441714D01*
X13875952Y-13441714D02*
X13885476Y-13460762D01*
X13885476Y-13460762D02*
X13885476Y-13565524D01*
X13885476Y-13460762D02*
X13895000Y-13441714D01*
X13895000Y-13441714D02*
X13914048Y-13432190D01*
X13914048Y-13432190D02*
X13942619Y-13432190D01*
X13942619Y-13432190D02*
X13961667Y-13441714D01*
X13961667Y-13441714D02*
X13971190Y-13460762D01*
X13971190Y-13460762D02*
X13971190Y-13565524D01*
X14066429Y-13565524D02*
X14066429Y-13432190D01*
X14066429Y-13451238D02*
X14075952Y-13441714D01*
X14075952Y-13441714D02*
X14095000Y-13432190D01*
X14095000Y-13432190D02*
X14123571Y-13432190D01*
X14123571Y-13432190D02*
X14142619Y-13441714D01*
X14142619Y-13441714D02*
X14152143Y-13460762D01*
X14152143Y-13460762D02*
X14152143Y-13565524D01*
X14152143Y-13460762D02*
X14161667Y-13441714D01*
X14161667Y-13441714D02*
X14180714Y-13432190D01*
X14180714Y-13432190D02*
X14209286Y-13432190D01*
X14209286Y-13432190D02*
X14228333Y-13441714D01*
X14228333Y-13441714D02*
X14237857Y-13460762D01*
X14237857Y-13460762D02*
X14237857Y-13565524D01*
X14628333Y-13356000D02*
X14456905Y-13613143D01*
X14885476Y-13365524D02*
X14904524Y-13365524D01*
X14904524Y-13365524D02*
X14923572Y-13375048D01*
X14923572Y-13375048D02*
X14933095Y-13384571D01*
X14933095Y-13384571D02*
X14942619Y-13403619D01*
X14942619Y-13403619D02*
X14952143Y-13441714D01*
X14952143Y-13441714D02*
X14952143Y-13489333D01*
X14952143Y-13489333D02*
X14942619Y-13527428D01*
X14942619Y-13527428D02*
X14933095Y-13546476D01*
X14933095Y-13546476D02*
X14923572Y-13556000D01*
X14923572Y-13556000D02*
X14904524Y-13565524D01*
X14904524Y-13565524D02*
X14885476Y-13565524D01*
X14885476Y-13565524D02*
X14866429Y-13556000D01*
X14866429Y-13556000D02*
X14856905Y-13546476D01*
X14856905Y-13546476D02*
X14847381Y-13527428D01*
X14847381Y-13527428D02*
X14837857Y-13489333D01*
X14837857Y-13489333D02*
X14837857Y-13441714D01*
X14837857Y-13441714D02*
X14847381Y-13403619D01*
X14847381Y-13403619D02*
X14856905Y-13384571D01*
X14856905Y-13384571D02*
X14866429Y-13375048D01*
X14866429Y-13375048D02*
X14885476Y-13365524D01*
X15037857Y-13546476D02*
X15047381Y-13556000D01*
X15047381Y-13556000D02*
X15037857Y-13565524D01*
X15037857Y-13565524D02*
X15028333Y-13556000D01*
X15028333Y-13556000D02*
X15037857Y-13546476D01*
X15037857Y-13546476D02*
X15037857Y-13565524D01*
X15171191Y-13365524D02*
X15190238Y-13365524D01*
X15190238Y-13365524D02*
X15209286Y-13375048D01*
X15209286Y-13375048D02*
X15218810Y-13384571D01*
X15218810Y-13384571D02*
X15228333Y-13403619D01*
X15228333Y-13403619D02*
X15237857Y-13441714D01*
X15237857Y-13441714D02*
X15237857Y-13489333D01*
X15237857Y-13489333D02*
X15228333Y-13527428D01*
X15228333Y-13527428D02*
X15218810Y-13546476D01*
X15218810Y-13546476D02*
X15209286Y-13556000D01*
X15209286Y-13556000D02*
X15190238Y-13565524D01*
X15190238Y-13565524D02*
X15171191Y-13565524D01*
X15171191Y-13565524D02*
X15152143Y-13556000D01*
X15152143Y-13556000D02*
X15142619Y-13546476D01*
X15142619Y-13546476D02*
X15133095Y-13527428D01*
X15133095Y-13527428D02*
X15123572Y-13489333D01*
X15123572Y-13489333D02*
X15123572Y-13441714D01*
X15123572Y-13441714D02*
X15133095Y-13403619D01*
X15133095Y-13403619D02*
X15142619Y-13384571D01*
X15142619Y-13384571D02*
X15152143Y-13375048D01*
X15152143Y-13375048D02*
X15171191Y-13365524D01*
X15304524Y-13365524D02*
X15428333Y-13365524D01*
X15428333Y-13365524D02*
X15361667Y-13441714D01*
X15361667Y-13441714D02*
X15390238Y-13441714D01*
X15390238Y-13441714D02*
X15409286Y-13451238D01*
X15409286Y-13451238D02*
X15418810Y-13460762D01*
X15418810Y-13460762D02*
X15428333Y-13479809D01*
X15428333Y-13479809D02*
X15428333Y-13527428D01*
X15428333Y-13527428D02*
X15418810Y-13546476D01*
X15418810Y-13546476D02*
X15409286Y-13556000D01*
X15409286Y-13556000D02*
X15390238Y-13565524D01*
X15390238Y-13565524D02*
X15333095Y-13565524D01*
X15333095Y-13565524D02*
X15314048Y-13556000D01*
X15314048Y-13556000D02*
X15304524Y-13546476D01*
X15523572Y-13565524D02*
X15561667Y-13565524D01*
X15561667Y-13565524D02*
X15580714Y-13556000D01*
X15580714Y-13556000D02*
X15590238Y-13546476D01*
X15590238Y-13546476D02*
X15609286Y-13517905D01*
X15609286Y-13517905D02*
X15618810Y-13479809D01*
X15618810Y-13479809D02*
X15618810Y-13403619D01*
X15618810Y-13403619D02*
X15609286Y-13384571D01*
X15609286Y-13384571D02*
X15599762Y-13375048D01*
X15599762Y-13375048D02*
X15580714Y-13365524D01*
X15580714Y-13365524D02*
X15542619Y-13365524D01*
X15542619Y-13365524D02*
X15523572Y-13375048D01*
X15523572Y-13375048D02*
X15514048Y-13384571D01*
X15514048Y-13384571D02*
X15504524Y-13403619D01*
X15504524Y-13403619D02*
X15504524Y-13451238D01*
X15504524Y-13451238D02*
X15514048Y-13470286D01*
X15514048Y-13470286D02*
X15523572Y-13479809D01*
X15523572Y-13479809D02*
X15542619Y-13489333D01*
X15542619Y-13489333D02*
X15580714Y-13489333D01*
X15580714Y-13489333D02*
X15599762Y-13479809D01*
X15599762Y-13479809D02*
X15609286Y-13470286D01*
X15609286Y-13470286D02*
X15618810Y-13451238D01*
X15790238Y-13432190D02*
X15790238Y-13565524D01*
X15742619Y-13356000D02*
X15695000Y-13498857D01*
X15695000Y-13498857D02*
X15818810Y-13498857D01*
X15885476Y-13365524D02*
X15885476Y-13403619D01*
X15961667Y-13365524D02*
X15961667Y-13403619D01*
X16256905Y-13641714D02*
X16247381Y-13632190D01*
X16247381Y-13632190D02*
X16228334Y-13603619D01*
X16228334Y-13603619D02*
X16218810Y-13584571D01*
X16218810Y-13584571D02*
X16209286Y-13556000D01*
X16209286Y-13556000D02*
X16199762Y-13508381D01*
X16199762Y-13508381D02*
X16199762Y-13470286D01*
X16199762Y-13470286D02*
X16209286Y-13422667D01*
X16209286Y-13422667D02*
X16218810Y-13394095D01*
X16218810Y-13394095D02*
X16228334Y-13375048D01*
X16228334Y-13375048D02*
X16247381Y-13346476D01*
X16247381Y-13346476D02*
X16256905Y-13336952D01*
X16437857Y-13565524D02*
X16323572Y-13565524D01*
X16380714Y-13565524D02*
X16380714Y-13365524D01*
X16380714Y-13365524D02*
X16361667Y-13394095D01*
X16361667Y-13394095D02*
X16342619Y-13413143D01*
X16342619Y-13413143D02*
X16323572Y-13422667D01*
X16504524Y-13365524D02*
X16637857Y-13365524D01*
X16637857Y-13365524D02*
X16552143Y-13565524D01*
X16866429Y-13565524D02*
X16866429Y-13365524D01*
X16952143Y-13565524D02*
X16952143Y-13460762D01*
X16952143Y-13460762D02*
X16942619Y-13441714D01*
X16942619Y-13441714D02*
X16923572Y-13432190D01*
X16923572Y-13432190D02*
X16895000Y-13432190D01*
X16895000Y-13432190D02*
X16875953Y-13441714D01*
X16875953Y-13441714D02*
X16866429Y-13451238D01*
X17075953Y-13565524D02*
X17056905Y-13556000D01*
X17056905Y-13556000D02*
X17047381Y-13546476D01*
X17047381Y-13546476D02*
X17037858Y-13527428D01*
X17037858Y-13527428D02*
X17037858Y-13470286D01*
X17037858Y-13470286D02*
X17047381Y-13451238D01*
X17047381Y-13451238D02*
X17056905Y-13441714D01*
X17056905Y-13441714D02*
X17075953Y-13432190D01*
X17075953Y-13432190D02*
X17104524Y-13432190D01*
X17104524Y-13432190D02*
X17123572Y-13441714D01*
X17123572Y-13441714D02*
X17133096Y-13451238D01*
X17133096Y-13451238D02*
X17142619Y-13470286D01*
X17142619Y-13470286D02*
X17142619Y-13527428D01*
X17142619Y-13527428D02*
X17133096Y-13546476D01*
X17133096Y-13546476D02*
X17123572Y-13556000D01*
X17123572Y-13556000D02*
X17104524Y-13565524D01*
X17104524Y-13565524D02*
X17075953Y-13565524D01*
X17256905Y-13565524D02*
X17237858Y-13556000D01*
X17237858Y-13556000D02*
X17228334Y-13536952D01*
X17228334Y-13536952D02*
X17228334Y-13365524D01*
X17409286Y-13556000D02*
X17390239Y-13565524D01*
X17390239Y-13565524D02*
X17352143Y-13565524D01*
X17352143Y-13565524D02*
X17333096Y-13556000D01*
X17333096Y-13556000D02*
X17323572Y-13536952D01*
X17323572Y-13536952D02*
X17323572Y-13460762D01*
X17323572Y-13460762D02*
X17333096Y-13441714D01*
X17333096Y-13441714D02*
X17352143Y-13432190D01*
X17352143Y-13432190D02*
X17390239Y-13432190D01*
X17390239Y-13432190D02*
X17409286Y-13441714D01*
X17409286Y-13441714D02*
X17418810Y-13460762D01*
X17418810Y-13460762D02*
X17418810Y-13479809D01*
X17418810Y-13479809D02*
X17323572Y-13498857D01*
X17495000Y-13556000D02*
X17514048Y-13565524D01*
X17514048Y-13565524D02*
X17552143Y-13565524D01*
X17552143Y-13565524D02*
X17571191Y-13556000D01*
X17571191Y-13556000D02*
X17580715Y-13536952D01*
X17580715Y-13536952D02*
X17580715Y-13527428D01*
X17580715Y-13527428D02*
X17571191Y-13508381D01*
X17571191Y-13508381D02*
X17552143Y-13498857D01*
X17552143Y-13498857D02*
X17523572Y-13498857D01*
X17523572Y-13498857D02*
X17504524Y-13489333D01*
X17504524Y-13489333D02*
X17495000Y-13470286D01*
X17495000Y-13470286D02*
X17495000Y-13460762D01*
X17495000Y-13460762D02*
X17504524Y-13441714D01*
X17504524Y-13441714D02*
X17523572Y-13432190D01*
X17523572Y-13432190D02*
X17552143Y-13432190D01*
X17552143Y-13432190D02*
X17571191Y-13441714D01*
X17647381Y-13641714D02*
X17656905Y-13632190D01*
X17656905Y-13632190D02*
X17675953Y-13603619D01*
X17675953Y-13603619D02*
X17685477Y-13584571D01*
X17685477Y-13584571D02*
X17695000Y-13556000D01*
X17695000Y-13556000D02*
X17704524Y-13508381D01*
X17704524Y-13508381D02*
X17704524Y-13470286D01*
X17704524Y-13470286D02*
X17695000Y-13422667D01*
X17695000Y-13422667D02*
X17685477Y-13394095D01*
X17685477Y-13394095D02*
X17675953Y-13375048D01*
X17675953Y-13375048D02*
X17656905Y-13346476D01*
X17656905Y-13346476D02*
X17647381Y-13336952D01*
D14*
X12678891Y-13775891D02*
X12678891Y-13698109D01*
X12601109Y-13698109D01*
X12601109Y-13775891D01*
X12678891Y-13775891D01*
D11*
X13047381Y-13829524D02*
X12933095Y-13829524D01*
X12990238Y-13829524D02*
X12990238Y-13629524D01*
X12990238Y-13629524D02*
X12971190Y-13658095D01*
X12971190Y-13658095D02*
X12952143Y-13677143D01*
X12952143Y-13677143D02*
X12933095Y-13686667D01*
X13133095Y-13810476D02*
X13142619Y-13820000D01*
X13142619Y-13820000D02*
X13133095Y-13829524D01*
X13133095Y-13829524D02*
X13123571Y-13820000D01*
X13123571Y-13820000D02*
X13133095Y-13810476D01*
X13133095Y-13810476D02*
X13133095Y-13829524D01*
X13333095Y-13829524D02*
X13218809Y-13829524D01*
X13275952Y-13829524D02*
X13275952Y-13629524D01*
X13275952Y-13629524D02*
X13256905Y-13658095D01*
X13256905Y-13658095D02*
X13237857Y-13677143D01*
X13237857Y-13677143D02*
X13218809Y-13686667D01*
X13456905Y-13629524D02*
X13475952Y-13629524D01*
X13475952Y-13629524D02*
X13495000Y-13639048D01*
X13495000Y-13639048D02*
X13504524Y-13648571D01*
X13504524Y-13648571D02*
X13514048Y-13667619D01*
X13514048Y-13667619D02*
X13523571Y-13705714D01*
X13523571Y-13705714D02*
X13523571Y-13753333D01*
X13523571Y-13753333D02*
X13514048Y-13791428D01*
X13514048Y-13791428D02*
X13504524Y-13810476D01*
X13504524Y-13810476D02*
X13495000Y-13820000D01*
X13495000Y-13820000D02*
X13475952Y-13829524D01*
X13475952Y-13829524D02*
X13456905Y-13829524D01*
X13456905Y-13829524D02*
X13437857Y-13820000D01*
X13437857Y-13820000D02*
X13428333Y-13810476D01*
X13428333Y-13810476D02*
X13418809Y-13791428D01*
X13418809Y-13791428D02*
X13409286Y-13753333D01*
X13409286Y-13753333D02*
X13409286Y-13705714D01*
X13409286Y-13705714D02*
X13418809Y-13667619D01*
X13418809Y-13667619D02*
X13428333Y-13648571D01*
X13428333Y-13648571D02*
X13437857Y-13639048D01*
X13437857Y-13639048D02*
X13456905Y-13629524D01*
X13647381Y-13629524D02*
X13666429Y-13629524D01*
X13666429Y-13629524D02*
X13685476Y-13639048D01*
X13685476Y-13639048D02*
X13695000Y-13648571D01*
X13695000Y-13648571D02*
X13704524Y-13667619D01*
X13704524Y-13667619D02*
X13714048Y-13705714D01*
X13714048Y-13705714D02*
X13714048Y-13753333D01*
X13714048Y-13753333D02*
X13704524Y-13791428D01*
X13704524Y-13791428D02*
X13695000Y-13810476D01*
X13695000Y-13810476D02*
X13685476Y-13820000D01*
X13685476Y-13820000D02*
X13666429Y-13829524D01*
X13666429Y-13829524D02*
X13647381Y-13829524D01*
X13647381Y-13829524D02*
X13628333Y-13820000D01*
X13628333Y-13820000D02*
X13618809Y-13810476D01*
X13618809Y-13810476D02*
X13609286Y-13791428D01*
X13609286Y-13791428D02*
X13599762Y-13753333D01*
X13599762Y-13753333D02*
X13599762Y-13705714D01*
X13599762Y-13705714D02*
X13609286Y-13667619D01*
X13609286Y-13667619D02*
X13618809Y-13648571D01*
X13618809Y-13648571D02*
X13628333Y-13639048D01*
X13628333Y-13639048D02*
X13647381Y-13629524D01*
X13799762Y-13829524D02*
X13799762Y-13696190D01*
X13799762Y-13715238D02*
X13809286Y-13705714D01*
X13809286Y-13705714D02*
X13828333Y-13696190D01*
X13828333Y-13696190D02*
X13856905Y-13696190D01*
X13856905Y-13696190D02*
X13875952Y-13705714D01*
X13875952Y-13705714D02*
X13885476Y-13724762D01*
X13885476Y-13724762D02*
X13885476Y-13829524D01*
X13885476Y-13724762D02*
X13895000Y-13705714D01*
X13895000Y-13705714D02*
X13914048Y-13696190D01*
X13914048Y-13696190D02*
X13942619Y-13696190D01*
X13942619Y-13696190D02*
X13961667Y-13705714D01*
X13961667Y-13705714D02*
X13971190Y-13724762D01*
X13971190Y-13724762D02*
X13971190Y-13829524D01*
X14066429Y-13829524D02*
X14066429Y-13696190D01*
X14066429Y-13715238D02*
X14075952Y-13705714D01*
X14075952Y-13705714D02*
X14095000Y-13696190D01*
X14095000Y-13696190D02*
X14123571Y-13696190D01*
X14123571Y-13696190D02*
X14142619Y-13705714D01*
X14142619Y-13705714D02*
X14152143Y-13724762D01*
X14152143Y-13724762D02*
X14152143Y-13829524D01*
X14152143Y-13724762D02*
X14161667Y-13705714D01*
X14161667Y-13705714D02*
X14180714Y-13696190D01*
X14180714Y-13696190D02*
X14209286Y-13696190D01*
X14209286Y-13696190D02*
X14228333Y-13705714D01*
X14228333Y-13705714D02*
X14237857Y-13724762D01*
X14237857Y-13724762D02*
X14237857Y-13829524D01*
X14628333Y-13620000D02*
X14456905Y-13877143D01*
X14885476Y-13629524D02*
X14904524Y-13629524D01*
X14904524Y-13629524D02*
X14923572Y-13639048D01*
X14923572Y-13639048D02*
X14933095Y-13648571D01*
X14933095Y-13648571D02*
X14942619Y-13667619D01*
X14942619Y-13667619D02*
X14952143Y-13705714D01*
X14952143Y-13705714D02*
X14952143Y-13753333D01*
X14952143Y-13753333D02*
X14942619Y-13791428D01*
X14942619Y-13791428D02*
X14933095Y-13810476D01*
X14933095Y-13810476D02*
X14923572Y-13820000D01*
X14923572Y-13820000D02*
X14904524Y-13829524D01*
X14904524Y-13829524D02*
X14885476Y-13829524D01*
X14885476Y-13829524D02*
X14866429Y-13820000D01*
X14866429Y-13820000D02*
X14856905Y-13810476D01*
X14856905Y-13810476D02*
X14847381Y-13791428D01*
X14847381Y-13791428D02*
X14837857Y-13753333D01*
X14837857Y-13753333D02*
X14837857Y-13705714D01*
X14837857Y-13705714D02*
X14847381Y-13667619D01*
X14847381Y-13667619D02*
X14856905Y-13648571D01*
X14856905Y-13648571D02*
X14866429Y-13639048D01*
X14866429Y-13639048D02*
X14885476Y-13629524D01*
X15037857Y-13810476D02*
X15047381Y-13820000D01*
X15047381Y-13820000D02*
X15037857Y-13829524D01*
X15037857Y-13829524D02*
X15028333Y-13820000D01*
X15028333Y-13820000D02*
X15037857Y-13810476D01*
X15037857Y-13810476D02*
X15037857Y-13829524D01*
X15171191Y-13629524D02*
X15190238Y-13629524D01*
X15190238Y-13629524D02*
X15209286Y-13639048D01*
X15209286Y-13639048D02*
X15218810Y-13648571D01*
X15218810Y-13648571D02*
X15228333Y-13667619D01*
X15228333Y-13667619D02*
X15237857Y-13705714D01*
X15237857Y-13705714D02*
X15237857Y-13753333D01*
X15237857Y-13753333D02*
X15228333Y-13791428D01*
X15228333Y-13791428D02*
X15218810Y-13810476D01*
X15218810Y-13810476D02*
X15209286Y-13820000D01*
X15209286Y-13820000D02*
X15190238Y-13829524D01*
X15190238Y-13829524D02*
X15171191Y-13829524D01*
X15171191Y-13829524D02*
X15152143Y-13820000D01*
X15152143Y-13820000D02*
X15142619Y-13810476D01*
X15142619Y-13810476D02*
X15133095Y-13791428D01*
X15133095Y-13791428D02*
X15123572Y-13753333D01*
X15123572Y-13753333D02*
X15123572Y-13705714D01*
X15123572Y-13705714D02*
X15133095Y-13667619D01*
X15133095Y-13667619D02*
X15142619Y-13648571D01*
X15142619Y-13648571D02*
X15152143Y-13639048D01*
X15152143Y-13639048D02*
X15171191Y-13629524D01*
X15409286Y-13696190D02*
X15409286Y-13829524D01*
X15361667Y-13620000D02*
X15314048Y-13762857D01*
X15314048Y-13762857D02*
X15437857Y-13762857D01*
X15495000Y-13629524D02*
X15618810Y-13629524D01*
X15618810Y-13629524D02*
X15552143Y-13705714D01*
X15552143Y-13705714D02*
X15580714Y-13705714D01*
X15580714Y-13705714D02*
X15599762Y-13715238D01*
X15599762Y-13715238D02*
X15609286Y-13724762D01*
X15609286Y-13724762D02*
X15618810Y-13743809D01*
X15618810Y-13743809D02*
X15618810Y-13791428D01*
X15618810Y-13791428D02*
X15609286Y-13810476D01*
X15609286Y-13810476D02*
X15599762Y-13820000D01*
X15599762Y-13820000D02*
X15580714Y-13829524D01*
X15580714Y-13829524D02*
X15523572Y-13829524D01*
X15523572Y-13829524D02*
X15504524Y-13820000D01*
X15504524Y-13820000D02*
X15495000Y-13810476D01*
X15685476Y-13629524D02*
X15809286Y-13629524D01*
X15809286Y-13629524D02*
X15742619Y-13705714D01*
X15742619Y-13705714D02*
X15771191Y-13705714D01*
X15771191Y-13705714D02*
X15790238Y-13715238D01*
X15790238Y-13715238D02*
X15799762Y-13724762D01*
X15799762Y-13724762D02*
X15809286Y-13743809D01*
X15809286Y-13743809D02*
X15809286Y-13791428D01*
X15809286Y-13791428D02*
X15799762Y-13810476D01*
X15799762Y-13810476D02*
X15790238Y-13820000D01*
X15790238Y-13820000D02*
X15771191Y-13829524D01*
X15771191Y-13829524D02*
X15714048Y-13829524D01*
X15714048Y-13829524D02*
X15695000Y-13820000D01*
X15695000Y-13820000D02*
X15685476Y-13810476D01*
X15885476Y-13629524D02*
X15885476Y-13667619D01*
X15961667Y-13629524D02*
X15961667Y-13667619D01*
X16256905Y-13905714D02*
X16247381Y-13896190D01*
X16247381Y-13896190D02*
X16228334Y-13867619D01*
X16228334Y-13867619D02*
X16218810Y-13848571D01*
X16218810Y-13848571D02*
X16209286Y-13820000D01*
X16209286Y-13820000D02*
X16199762Y-13772381D01*
X16199762Y-13772381D02*
X16199762Y-13734286D01*
X16199762Y-13734286D02*
X16209286Y-13686667D01*
X16209286Y-13686667D02*
X16218810Y-13658095D01*
X16218810Y-13658095D02*
X16228334Y-13639048D01*
X16228334Y-13639048D02*
X16247381Y-13610476D01*
X16247381Y-13610476D02*
X16256905Y-13600952D01*
X16361667Y-13715238D02*
X16342619Y-13705714D01*
X16342619Y-13705714D02*
X16333095Y-13696190D01*
X16333095Y-13696190D02*
X16323572Y-13677143D01*
X16323572Y-13677143D02*
X16323572Y-13667619D01*
X16323572Y-13667619D02*
X16333095Y-13648571D01*
X16333095Y-13648571D02*
X16342619Y-13639048D01*
X16342619Y-13639048D02*
X16361667Y-13629524D01*
X16361667Y-13629524D02*
X16399762Y-13629524D01*
X16399762Y-13629524D02*
X16418810Y-13639048D01*
X16418810Y-13639048D02*
X16428334Y-13648571D01*
X16428334Y-13648571D02*
X16437857Y-13667619D01*
X16437857Y-13667619D02*
X16437857Y-13677143D01*
X16437857Y-13677143D02*
X16428334Y-13696190D01*
X16428334Y-13696190D02*
X16418810Y-13705714D01*
X16418810Y-13705714D02*
X16399762Y-13715238D01*
X16399762Y-13715238D02*
X16361667Y-13715238D01*
X16361667Y-13715238D02*
X16342619Y-13724762D01*
X16342619Y-13724762D02*
X16333095Y-13734286D01*
X16333095Y-13734286D02*
X16323572Y-13753333D01*
X16323572Y-13753333D02*
X16323572Y-13791428D01*
X16323572Y-13791428D02*
X16333095Y-13810476D01*
X16333095Y-13810476D02*
X16342619Y-13820000D01*
X16342619Y-13820000D02*
X16361667Y-13829524D01*
X16361667Y-13829524D02*
X16399762Y-13829524D01*
X16399762Y-13829524D02*
X16418810Y-13820000D01*
X16418810Y-13820000D02*
X16428334Y-13810476D01*
X16428334Y-13810476D02*
X16437857Y-13791428D01*
X16437857Y-13791428D02*
X16437857Y-13753333D01*
X16437857Y-13753333D02*
X16428334Y-13734286D01*
X16428334Y-13734286D02*
X16418810Y-13724762D01*
X16418810Y-13724762D02*
X16399762Y-13715238D01*
X16675953Y-13829524D02*
X16675953Y-13629524D01*
X16761667Y-13829524D02*
X16761667Y-13724762D01*
X16761667Y-13724762D02*
X16752143Y-13705714D01*
X16752143Y-13705714D02*
X16733096Y-13696190D01*
X16733096Y-13696190D02*
X16704524Y-13696190D01*
X16704524Y-13696190D02*
X16685476Y-13705714D01*
X16685476Y-13705714D02*
X16675953Y-13715238D01*
X16885477Y-13829524D02*
X16866429Y-13820000D01*
X16866429Y-13820000D02*
X16856905Y-13810476D01*
X16856905Y-13810476D02*
X16847381Y-13791428D01*
X16847381Y-13791428D02*
X16847381Y-13734286D01*
X16847381Y-13734286D02*
X16856905Y-13715238D01*
X16856905Y-13715238D02*
X16866429Y-13705714D01*
X16866429Y-13705714D02*
X16885477Y-13696190D01*
X16885477Y-13696190D02*
X16914048Y-13696190D01*
X16914048Y-13696190D02*
X16933096Y-13705714D01*
X16933096Y-13705714D02*
X16942619Y-13715238D01*
X16942619Y-13715238D02*
X16952143Y-13734286D01*
X16952143Y-13734286D02*
X16952143Y-13791428D01*
X16952143Y-13791428D02*
X16942619Y-13810476D01*
X16942619Y-13810476D02*
X16933096Y-13820000D01*
X16933096Y-13820000D02*
X16914048Y-13829524D01*
X16914048Y-13829524D02*
X16885477Y-13829524D01*
X17066429Y-13829524D02*
X17047381Y-13820000D01*
X17047381Y-13820000D02*
X17037858Y-13800952D01*
X17037858Y-13800952D02*
X17037858Y-13629524D01*
X17218810Y-13820000D02*
X17199762Y-13829524D01*
X17199762Y-13829524D02*
X17161667Y-13829524D01*
X17161667Y-13829524D02*
X17142619Y-13820000D01*
X17142619Y-13820000D02*
X17133096Y-13800952D01*
X17133096Y-13800952D02*
X17133096Y-13724762D01*
X17133096Y-13724762D02*
X17142619Y-13705714D01*
X17142619Y-13705714D02*
X17161667Y-13696190D01*
X17161667Y-13696190D02*
X17199762Y-13696190D01*
X17199762Y-13696190D02*
X17218810Y-13705714D01*
X17218810Y-13705714D02*
X17228334Y-13724762D01*
X17228334Y-13724762D02*
X17228334Y-13743809D01*
X17228334Y-13743809D02*
X17133096Y-13762857D01*
X17304524Y-13820000D02*
X17323572Y-13829524D01*
X17323572Y-13829524D02*
X17361667Y-13829524D01*
X17361667Y-13829524D02*
X17380715Y-13820000D01*
X17380715Y-13820000D02*
X17390239Y-13800952D01*
X17390239Y-13800952D02*
X17390239Y-13791428D01*
X17390239Y-13791428D02*
X17380715Y-13772381D01*
X17380715Y-13772381D02*
X17361667Y-13762857D01*
X17361667Y-13762857D02*
X17333096Y-13762857D01*
X17333096Y-13762857D02*
X17314048Y-13753333D01*
X17314048Y-13753333D02*
X17304524Y-13734286D01*
X17304524Y-13734286D02*
X17304524Y-13724762D01*
X17304524Y-13724762D02*
X17314048Y-13705714D01*
X17314048Y-13705714D02*
X17333096Y-13696190D01*
X17333096Y-13696190D02*
X17361667Y-13696190D01*
X17361667Y-13696190D02*
X17380715Y-13705714D01*
X17456905Y-13905714D02*
X17466429Y-13896190D01*
X17466429Y-13896190D02*
X17485477Y-13867619D01*
X17485477Y-13867619D02*
X17495000Y-13848571D01*
X17495000Y-13848571D02*
X17504524Y-13820000D01*
X17504524Y-13820000D02*
X17514048Y-13772381D01*
X17514048Y-13772381D02*
X17514048Y-13734286D01*
X17514048Y-13734286D02*
X17504524Y-13686667D01*
X17504524Y-13686667D02*
X17495000Y-13658095D01*
X17495000Y-13658095D02*
X17485477Y-13639048D01*
X17485477Y-13639048D02*
X17466429Y-13610476D01*
X17466429Y-13610476D02*
X17456905Y-13600952D01*
X12595000Y-14101000D02*
X12695000Y-14001000D01*
X12595000Y-13901000D01*
X12495000Y-14001000D01*
X12595000Y-14101000D01*
X12923571Y-13893524D02*
X13047381Y-13893524D01*
X13047381Y-13893524D02*
X12980714Y-13969714D01*
X12980714Y-13969714D02*
X13009286Y-13969714D01*
X13009286Y-13969714D02*
X13028333Y-13979238D01*
X13028333Y-13979238D02*
X13037857Y-13988762D01*
X13037857Y-13988762D02*
X13047381Y-14007809D01*
X13047381Y-14007809D02*
X13047381Y-14055428D01*
X13047381Y-14055428D02*
X13037857Y-14074476D01*
X13037857Y-14074476D02*
X13028333Y-14084000D01*
X13028333Y-14084000D02*
X13009286Y-14093524D01*
X13009286Y-14093524D02*
X12952143Y-14093524D01*
X12952143Y-14093524D02*
X12933095Y-14084000D01*
X12933095Y-14084000D02*
X12923571Y-14074476D01*
X13133095Y-14074476D02*
X13142619Y-14084000D01*
X13142619Y-14084000D02*
X13133095Y-14093524D01*
X13133095Y-14093524D02*
X13123571Y-14084000D01*
X13123571Y-14084000D02*
X13133095Y-14074476D01*
X13133095Y-14074476D02*
X13133095Y-14093524D01*
X13218809Y-13912571D02*
X13228333Y-13903048D01*
X13228333Y-13903048D02*
X13247381Y-13893524D01*
X13247381Y-13893524D02*
X13295000Y-13893524D01*
X13295000Y-13893524D02*
X13314048Y-13903048D01*
X13314048Y-13903048D02*
X13323571Y-13912571D01*
X13323571Y-13912571D02*
X13333095Y-13931619D01*
X13333095Y-13931619D02*
X13333095Y-13950667D01*
X13333095Y-13950667D02*
X13323571Y-13979238D01*
X13323571Y-13979238D02*
X13209286Y-14093524D01*
X13209286Y-14093524D02*
X13333095Y-14093524D01*
X13456905Y-13893524D02*
X13475952Y-13893524D01*
X13475952Y-13893524D02*
X13495000Y-13903048D01*
X13495000Y-13903048D02*
X13504524Y-13912571D01*
X13504524Y-13912571D02*
X13514048Y-13931619D01*
X13514048Y-13931619D02*
X13523571Y-13969714D01*
X13523571Y-13969714D02*
X13523571Y-14017333D01*
X13523571Y-14017333D02*
X13514048Y-14055428D01*
X13514048Y-14055428D02*
X13504524Y-14074476D01*
X13504524Y-14074476D02*
X13495000Y-14084000D01*
X13495000Y-14084000D02*
X13475952Y-14093524D01*
X13475952Y-14093524D02*
X13456905Y-14093524D01*
X13456905Y-14093524D02*
X13437857Y-14084000D01*
X13437857Y-14084000D02*
X13428333Y-14074476D01*
X13428333Y-14074476D02*
X13418809Y-14055428D01*
X13418809Y-14055428D02*
X13409286Y-14017333D01*
X13409286Y-14017333D02*
X13409286Y-13969714D01*
X13409286Y-13969714D02*
X13418809Y-13931619D01*
X13418809Y-13931619D02*
X13428333Y-13912571D01*
X13428333Y-13912571D02*
X13437857Y-13903048D01*
X13437857Y-13903048D02*
X13456905Y-13893524D01*
X13647381Y-13893524D02*
X13666429Y-13893524D01*
X13666429Y-13893524D02*
X13685476Y-13903048D01*
X13685476Y-13903048D02*
X13695000Y-13912571D01*
X13695000Y-13912571D02*
X13704524Y-13931619D01*
X13704524Y-13931619D02*
X13714048Y-13969714D01*
X13714048Y-13969714D02*
X13714048Y-14017333D01*
X13714048Y-14017333D02*
X13704524Y-14055428D01*
X13704524Y-14055428D02*
X13695000Y-14074476D01*
X13695000Y-14074476D02*
X13685476Y-14084000D01*
X13685476Y-14084000D02*
X13666429Y-14093524D01*
X13666429Y-14093524D02*
X13647381Y-14093524D01*
X13647381Y-14093524D02*
X13628333Y-14084000D01*
X13628333Y-14084000D02*
X13618809Y-14074476D01*
X13618809Y-14074476D02*
X13609286Y-14055428D01*
X13609286Y-14055428D02*
X13599762Y-14017333D01*
X13599762Y-14017333D02*
X13599762Y-13969714D01*
X13599762Y-13969714D02*
X13609286Y-13931619D01*
X13609286Y-13931619D02*
X13618809Y-13912571D01*
X13618809Y-13912571D02*
X13628333Y-13903048D01*
X13628333Y-13903048D02*
X13647381Y-13893524D01*
X13799762Y-14093524D02*
X13799762Y-13960190D01*
X13799762Y-13979238D02*
X13809286Y-13969714D01*
X13809286Y-13969714D02*
X13828333Y-13960190D01*
X13828333Y-13960190D02*
X13856905Y-13960190D01*
X13856905Y-13960190D02*
X13875952Y-13969714D01*
X13875952Y-13969714D02*
X13885476Y-13988762D01*
X13885476Y-13988762D02*
X13885476Y-14093524D01*
X13885476Y-13988762D02*
X13895000Y-13969714D01*
X13895000Y-13969714D02*
X13914048Y-13960190D01*
X13914048Y-13960190D02*
X13942619Y-13960190D01*
X13942619Y-13960190D02*
X13961667Y-13969714D01*
X13961667Y-13969714D02*
X13971190Y-13988762D01*
X13971190Y-13988762D02*
X13971190Y-14093524D01*
X14066429Y-14093524D02*
X14066429Y-13960190D01*
X14066429Y-13979238D02*
X14075952Y-13969714D01*
X14075952Y-13969714D02*
X14095000Y-13960190D01*
X14095000Y-13960190D02*
X14123571Y-13960190D01*
X14123571Y-13960190D02*
X14142619Y-13969714D01*
X14142619Y-13969714D02*
X14152143Y-13988762D01*
X14152143Y-13988762D02*
X14152143Y-14093524D01*
X14152143Y-13988762D02*
X14161667Y-13969714D01*
X14161667Y-13969714D02*
X14180714Y-13960190D01*
X14180714Y-13960190D02*
X14209286Y-13960190D01*
X14209286Y-13960190D02*
X14228333Y-13969714D01*
X14228333Y-13969714D02*
X14237857Y-13988762D01*
X14237857Y-13988762D02*
X14237857Y-14093524D01*
X14628333Y-13884000D02*
X14456905Y-14141143D01*
X14885476Y-13893524D02*
X14904524Y-13893524D01*
X14904524Y-13893524D02*
X14923572Y-13903048D01*
X14923572Y-13903048D02*
X14933095Y-13912571D01*
X14933095Y-13912571D02*
X14942619Y-13931619D01*
X14942619Y-13931619D02*
X14952143Y-13969714D01*
X14952143Y-13969714D02*
X14952143Y-14017333D01*
X14952143Y-14017333D02*
X14942619Y-14055428D01*
X14942619Y-14055428D02*
X14933095Y-14074476D01*
X14933095Y-14074476D02*
X14923572Y-14084000D01*
X14923572Y-14084000D02*
X14904524Y-14093524D01*
X14904524Y-14093524D02*
X14885476Y-14093524D01*
X14885476Y-14093524D02*
X14866429Y-14084000D01*
X14866429Y-14084000D02*
X14856905Y-14074476D01*
X14856905Y-14074476D02*
X14847381Y-14055428D01*
X14847381Y-14055428D02*
X14837857Y-14017333D01*
X14837857Y-14017333D02*
X14837857Y-13969714D01*
X14837857Y-13969714D02*
X14847381Y-13931619D01*
X14847381Y-13931619D02*
X14856905Y-13912571D01*
X14856905Y-13912571D02*
X14866429Y-13903048D01*
X14866429Y-13903048D02*
X14885476Y-13893524D01*
X15037857Y-14074476D02*
X15047381Y-14084000D01*
X15047381Y-14084000D02*
X15037857Y-14093524D01*
X15037857Y-14093524D02*
X15028333Y-14084000D01*
X15028333Y-14084000D02*
X15037857Y-14074476D01*
X15037857Y-14074476D02*
X15037857Y-14093524D01*
X15237857Y-14093524D02*
X15123572Y-14093524D01*
X15180714Y-14093524D02*
X15180714Y-13893524D01*
X15180714Y-13893524D02*
X15161667Y-13922095D01*
X15161667Y-13922095D02*
X15142619Y-13941143D01*
X15142619Y-13941143D02*
X15123572Y-13950667D01*
X15314048Y-13912571D02*
X15323572Y-13903048D01*
X15323572Y-13903048D02*
X15342619Y-13893524D01*
X15342619Y-13893524D02*
X15390238Y-13893524D01*
X15390238Y-13893524D02*
X15409286Y-13903048D01*
X15409286Y-13903048D02*
X15418810Y-13912571D01*
X15418810Y-13912571D02*
X15428333Y-13931619D01*
X15428333Y-13931619D02*
X15428333Y-13950667D01*
X15428333Y-13950667D02*
X15418810Y-13979238D01*
X15418810Y-13979238D02*
X15304524Y-14093524D01*
X15304524Y-14093524D02*
X15428333Y-14093524D01*
X15599762Y-13893524D02*
X15561667Y-13893524D01*
X15561667Y-13893524D02*
X15542619Y-13903048D01*
X15542619Y-13903048D02*
X15533095Y-13912571D01*
X15533095Y-13912571D02*
X15514048Y-13941143D01*
X15514048Y-13941143D02*
X15504524Y-13979238D01*
X15504524Y-13979238D02*
X15504524Y-14055428D01*
X15504524Y-14055428D02*
X15514048Y-14074476D01*
X15514048Y-14074476D02*
X15523572Y-14084000D01*
X15523572Y-14084000D02*
X15542619Y-14093524D01*
X15542619Y-14093524D02*
X15580714Y-14093524D01*
X15580714Y-14093524D02*
X15599762Y-14084000D01*
X15599762Y-14084000D02*
X15609286Y-14074476D01*
X15609286Y-14074476D02*
X15618810Y-14055428D01*
X15618810Y-14055428D02*
X15618810Y-14007809D01*
X15618810Y-14007809D02*
X15609286Y-13988762D01*
X15609286Y-13988762D02*
X15599762Y-13979238D01*
X15599762Y-13979238D02*
X15580714Y-13969714D01*
X15580714Y-13969714D02*
X15542619Y-13969714D01*
X15542619Y-13969714D02*
X15523572Y-13979238D01*
X15523572Y-13979238D02*
X15514048Y-13988762D01*
X15514048Y-13988762D02*
X15504524Y-14007809D01*
X15742619Y-13893524D02*
X15761667Y-13893524D01*
X15761667Y-13893524D02*
X15780714Y-13903048D01*
X15780714Y-13903048D02*
X15790238Y-13912571D01*
X15790238Y-13912571D02*
X15799762Y-13931619D01*
X15799762Y-13931619D02*
X15809286Y-13969714D01*
X15809286Y-13969714D02*
X15809286Y-14017333D01*
X15809286Y-14017333D02*
X15799762Y-14055428D01*
X15799762Y-14055428D02*
X15790238Y-14074476D01*
X15790238Y-14074476D02*
X15780714Y-14084000D01*
X15780714Y-14084000D02*
X15761667Y-14093524D01*
X15761667Y-14093524D02*
X15742619Y-14093524D01*
X15742619Y-14093524D02*
X15723572Y-14084000D01*
X15723572Y-14084000D02*
X15714048Y-14074476D01*
X15714048Y-14074476D02*
X15704524Y-14055428D01*
X15704524Y-14055428D02*
X15695000Y-14017333D01*
X15695000Y-14017333D02*
X15695000Y-13969714D01*
X15695000Y-13969714D02*
X15704524Y-13931619D01*
X15704524Y-13931619D02*
X15714048Y-13912571D01*
X15714048Y-13912571D02*
X15723572Y-13903048D01*
X15723572Y-13903048D02*
X15742619Y-13893524D01*
X15885476Y-13893524D02*
X15885476Y-13931619D01*
X15961667Y-13893524D02*
X15961667Y-13931619D01*
X16256905Y-14169714D02*
X16247381Y-14160190D01*
X16247381Y-14160190D02*
X16228334Y-14131619D01*
X16228334Y-14131619D02*
X16218810Y-14112571D01*
X16218810Y-14112571D02*
X16209286Y-14084000D01*
X16209286Y-14084000D02*
X16199762Y-14036381D01*
X16199762Y-14036381D02*
X16199762Y-13998286D01*
X16199762Y-13998286D02*
X16209286Y-13950667D01*
X16209286Y-13950667D02*
X16218810Y-13922095D01*
X16218810Y-13922095D02*
X16228334Y-13903048D01*
X16228334Y-13903048D02*
X16247381Y-13874476D01*
X16247381Y-13874476D02*
X16256905Y-13864952D01*
X16418810Y-13960190D02*
X16418810Y-14093524D01*
X16371191Y-13884000D02*
X16323572Y-14026857D01*
X16323572Y-14026857D02*
X16447381Y-14026857D01*
X16675953Y-14093524D02*
X16675953Y-13893524D01*
X16761667Y-14093524D02*
X16761667Y-13988762D01*
X16761667Y-13988762D02*
X16752143Y-13969714D01*
X16752143Y-13969714D02*
X16733096Y-13960190D01*
X16733096Y-13960190D02*
X16704524Y-13960190D01*
X16704524Y-13960190D02*
X16685476Y-13969714D01*
X16685476Y-13969714D02*
X16675953Y-13979238D01*
X16885477Y-14093524D02*
X16866429Y-14084000D01*
X16866429Y-14084000D02*
X16856905Y-14074476D01*
X16856905Y-14074476D02*
X16847381Y-14055428D01*
X16847381Y-14055428D02*
X16847381Y-13998286D01*
X16847381Y-13998286D02*
X16856905Y-13979238D01*
X16856905Y-13979238D02*
X16866429Y-13969714D01*
X16866429Y-13969714D02*
X16885477Y-13960190D01*
X16885477Y-13960190D02*
X16914048Y-13960190D01*
X16914048Y-13960190D02*
X16933096Y-13969714D01*
X16933096Y-13969714D02*
X16942619Y-13979238D01*
X16942619Y-13979238D02*
X16952143Y-13998286D01*
X16952143Y-13998286D02*
X16952143Y-14055428D01*
X16952143Y-14055428D02*
X16942619Y-14074476D01*
X16942619Y-14074476D02*
X16933096Y-14084000D01*
X16933096Y-14084000D02*
X16914048Y-14093524D01*
X16914048Y-14093524D02*
X16885477Y-14093524D01*
X17066429Y-14093524D02*
X17047381Y-14084000D01*
X17047381Y-14084000D02*
X17037858Y-14064952D01*
X17037858Y-14064952D02*
X17037858Y-13893524D01*
X17218810Y-14084000D02*
X17199762Y-14093524D01*
X17199762Y-14093524D02*
X17161667Y-14093524D01*
X17161667Y-14093524D02*
X17142619Y-14084000D01*
X17142619Y-14084000D02*
X17133096Y-14064952D01*
X17133096Y-14064952D02*
X17133096Y-13988762D01*
X17133096Y-13988762D02*
X17142619Y-13969714D01*
X17142619Y-13969714D02*
X17161667Y-13960190D01*
X17161667Y-13960190D02*
X17199762Y-13960190D01*
X17199762Y-13960190D02*
X17218810Y-13969714D01*
X17218810Y-13969714D02*
X17228334Y-13988762D01*
X17228334Y-13988762D02*
X17228334Y-14007809D01*
X17228334Y-14007809D02*
X17133096Y-14026857D01*
X17304524Y-14084000D02*
X17323572Y-14093524D01*
X17323572Y-14093524D02*
X17361667Y-14093524D01*
X17361667Y-14093524D02*
X17380715Y-14084000D01*
X17380715Y-14084000D02*
X17390239Y-14064952D01*
X17390239Y-14064952D02*
X17390239Y-14055428D01*
X17390239Y-14055428D02*
X17380715Y-14036381D01*
X17380715Y-14036381D02*
X17361667Y-14026857D01*
X17361667Y-14026857D02*
X17333096Y-14026857D01*
X17333096Y-14026857D02*
X17314048Y-14017333D01*
X17314048Y-14017333D02*
X17304524Y-13998286D01*
X17304524Y-13998286D02*
X17304524Y-13988762D01*
X17304524Y-13988762D02*
X17314048Y-13969714D01*
X17314048Y-13969714D02*
X17333096Y-13960190D01*
X17333096Y-13960190D02*
X17361667Y-13960190D01*
X17361667Y-13960190D02*
X17380715Y-13969714D01*
X17456905Y-14169714D02*
X17466429Y-14160190D01*
X17466429Y-14160190D02*
X17485477Y-14131619D01*
X17485477Y-14131619D02*
X17495000Y-14112571D01*
X17495000Y-14112571D02*
X17504524Y-14084000D01*
X17504524Y-14084000D02*
X17514048Y-14036381D01*
X17514048Y-14036381D02*
X17514048Y-13998286D01*
X17514048Y-13998286D02*
X17504524Y-13950667D01*
X17504524Y-13950667D02*
X17495000Y-13922095D01*
X17495000Y-13922095D02*
X17485477Y-13903048D01*
X17485477Y-13903048D02*
X17466429Y-13874476D01*
X17466429Y-13874476D02*
X17456905Y-13864952D01*
M02*
