%TF.GenerationSoftware,KiCad,Pcbnew,7.0.1*%
%TF.CreationDate,2023-12-30T18:25:03+00:00*%
%TF.ProjectId,watch_test_rig,77617463-685f-4746-9573-745f7269672e,rev?*%
%TF.SameCoordinates,Original*%
%TF.FileFunction,Copper,L1,Top*%
%TF.FilePolarity,Positive*%
%FSLAX46Y46*%
G04 Gerber Fmt 4.6, Leading zero omitted, Abs format (unit mm)*
G04 Created by KiCad (PCBNEW 7.0.1) date 2023-12-30 18:25:03*
%MOMM*%
%LPD*%
G01*
G04 APERTURE LIST*
G04 Aperture macros list*
%AMRoundRect*
0 Rectangle with rounded corners*
0 $1 Rounding radius*
0 $2 $3 $4 $5 $6 $7 $8 $9 X,Y pos of 4 corners*
0 Add a 4 corners polygon primitive as box body*
4,1,4,$2,$3,$4,$5,$6,$7,$8,$9,$2,$3,0*
0 Add four circle primitives for the rounded corners*
1,1,$1+$1,$2,$3*
1,1,$1+$1,$4,$5*
1,1,$1+$1,$6,$7*
1,1,$1+$1,$8,$9*
0 Add four rect primitives between the rounded corners*
20,1,$1+$1,$2,$3,$4,$5,0*
20,1,$1+$1,$4,$5,$6,$7,0*
20,1,$1+$1,$6,$7,$8,$9,0*
20,1,$1+$1,$8,$9,$2,$3,0*%
G04 Aperture macros list end*
%TA.AperFunction,SMDPad,CuDef*%
%ADD10R,1.140000X0.600000*%
%TD*%
%TA.AperFunction,SMDPad,CuDef*%
%ADD11R,1.140000X0.300000*%
%TD*%
%TA.AperFunction,ComponentPad*%
%ADD12O,2.000000X0.900000*%
%TD*%
%TA.AperFunction,ComponentPad*%
%ADD13O,1.700000X0.900000*%
%TD*%
%TA.AperFunction,SMDPad,CuDef*%
%ADD14RoundRect,0.218750X-0.218750X-0.256250X0.218750X-0.256250X0.218750X0.256250X-0.218750X0.256250X0*%
%TD*%
%TA.AperFunction,ComponentPad*%
%ADD15C,2.000000*%
%TD*%
%TA.AperFunction,SMDPad,CuDef*%
%ADD16RoundRect,0.140000X-0.140000X-0.170000X0.140000X-0.170000X0.140000X0.170000X-0.140000X0.170000X0*%
%TD*%
%TA.AperFunction,SMDPad,CuDef*%
%ADD17RoundRect,0.135000X0.135000X0.185000X-0.135000X0.185000X-0.135000X-0.185000X0.135000X-0.185000X0*%
%TD*%
%TA.AperFunction,ComponentPad*%
%ADD18C,3.600000*%
%TD*%
%TA.AperFunction,ConnectorPad*%
%ADD19C,5.600000*%
%TD*%
%TA.AperFunction,ComponentPad*%
%ADD20R,1.700000X1.700000*%
%TD*%
%TA.AperFunction,ComponentPad*%
%ADD21O,1.700000X1.700000*%
%TD*%
%TA.AperFunction,SMDPad,CuDef*%
%ADD22R,0.400000X0.250000*%
%TD*%
%TA.AperFunction,SMDPad,CuDef*%
%ADD23R,0.400000X0.700000*%
%TD*%
%TA.AperFunction,SMDPad,CuDef*%
%ADD24RoundRect,0.140000X0.140000X0.170000X-0.140000X0.170000X-0.140000X-0.170000X0.140000X-0.170000X0*%
%TD*%
%TA.AperFunction,SMDPad,CuDef*%
%ADD25RoundRect,0.135000X-0.185000X0.135000X-0.185000X-0.135000X0.185000X-0.135000X0.185000X0.135000X0*%
%TD*%
%TA.AperFunction,SMDPad,CuDef*%
%ADD26R,0.740000X2.400000*%
%TD*%
%TA.AperFunction,SMDPad,CuDef*%
%ADD27RoundRect,0.135000X0.185000X-0.135000X0.185000X0.135000X-0.185000X0.135000X-0.185000X-0.135000X0*%
%TD*%
%TA.AperFunction,ViaPad*%
%ADD28C,0.450000*%
%TD*%
%TA.AperFunction,Conductor*%
%ADD29C,0.250000*%
%TD*%
%TA.AperFunction,Conductor*%
%ADD30C,0.209600*%
%TD*%
G04 APERTURE END LIST*
D10*
%TO.P,J103,A1_B12,GND*%
%TO.N,GND*%
X133850000Y-91800000D03*
%TO.P,J103,A4_B9,VBUS*%
%TO.N,/VIN*%
X133850000Y-92600000D03*
D11*
%TO.P,J103,A5,CC1*%
%TO.N,/CC1*%
X133850000Y-93750000D03*
%TO.P,J103,A6,DP1*%
%TO.N,/USB_DN*%
X133850000Y-94750000D03*
%TO.P,J103,A7,DN1*%
%TO.N,/USB_DP*%
X133850000Y-95250000D03*
%TO.P,J103,A8,SBU1*%
%TO.N,unconnected-(J103-SBU1-PadA8)*%
X133850000Y-96250000D03*
D10*
%TO.P,J103,B1_A12,GND*%
%TO.N,GND*%
X133850000Y-98200000D03*
%TO.P,J103,B4_A9,VBUS*%
%TO.N,/VIN*%
X133850000Y-97400000D03*
D11*
%TO.P,J103,B5,CC2*%
%TO.N,/CC2*%
X133850000Y-96750000D03*
%TO.P,J103,B6,DP2*%
%TO.N,/USB_DN*%
X133850000Y-95750000D03*
%TO.P,J103,B7,DN2*%
%TO.N,/USB_DP*%
X133850000Y-94250000D03*
%TO.P,J103,B8,SBU2*%
%TO.N,unconnected-(J103-SBU2-PadB8)*%
X133850000Y-93250000D03*
D12*
%TO.P,J103,S1,SHIELD*%
%TO.N,unconnected-(J103-SHIELD-PadS1)*%
X133270000Y-90675000D03*
%TO.P,J103,S2,SHIELD*%
%TO.N,unconnected-(J103-SHIELD-PadS2)*%
X133270000Y-99325000D03*
D13*
%TO.P,J103,S3,SHIELD*%
%TO.N,unconnected-(J103-SHIELD-PadS3)*%
X129100000Y-90675000D03*
%TO.P,J103,S4,SHIELD*%
%TO.N,unconnected-(J103-SHIELD-PadS4)*%
X129100000Y-99325000D03*
%TD*%
D14*
%TO.P,D104,1,K*%
%TO.N,/GPIO2_K*%
X154940000Y-81090000D03*
%TO.P,D104,2,A*%
%TO.N,VBUS*%
X156515000Y-81090000D03*
%TD*%
D15*
%TO.P,SW102,1,1*%
%TO.N,/STM32_RST*%
X180200000Y-111250000D03*
X173700000Y-111250000D03*
%TO.P,SW102,2,2*%
%TO.N,GND*%
X180200000Y-106750000D03*
X173700000Y-106750000D03*
%TD*%
D16*
%TO.P,C101,1*%
%TO.N,GND*%
X176720000Y-103000000D03*
%TO.P,C101,2*%
%TO.N,/STM32_RST*%
X177680000Y-103000000D03*
%TD*%
D17*
%TO.P,R104,1*%
%TO.N,/GPIO1_K*%
X152237500Y-77090000D03*
%TO.P,R104,2*%
%TO.N,/GPIO1_D*%
X151217500Y-77090000D03*
%TD*%
D18*
%TO.P,H108,1,1*%
%TO.N,GND*%
X180000000Y-120000000D03*
D19*
X180000000Y-120000000D03*
%TD*%
D14*
%TO.P,D102,1,K*%
%TO.N,/GPIO1_K*%
X154940000Y-77090000D03*
%TO.P,D102,2,A*%
%TO.N,VBUS*%
X156515000Y-77090000D03*
%TD*%
D20*
%TO.P,SW101,1,A*%
%TO.N,VBUS*%
X132080000Y-77470000D03*
D21*
%TO.P,SW101,2,B*%
%TO.N,/VIN*%
X132080000Y-80010000D03*
%TO.P,SW101,3,C*%
%TO.N,unconnected-(SW101-C-Pad3)*%
X132080000Y-82550000D03*
%TD*%
D22*
%TO.P,Q102,1,G*%
%TO.N,/GPIO1*%
X147877500Y-76865000D03*
%TO.P,Q102,2,S*%
%TO.N,GND*%
X147877500Y-77315000D03*
D23*
%TO.P,Q102,3,D*%
%TO.N,/GPIO1_D*%
X148577500Y-77090000D03*
%TD*%
D22*
%TO.P,Q104,1,G*%
%TO.N,/GPIO2*%
X147877500Y-80865000D03*
%TO.P,Q104,2,S*%
%TO.N,GND*%
X147877500Y-81315000D03*
D23*
%TO.P,Q104,3,D*%
%TO.N,/GPIO2_D*%
X148577500Y-81090000D03*
%TD*%
D15*
%TO.P,SW103,1,1*%
%TO.N,/NRF_RST*%
X136250000Y-111250000D03*
X129750000Y-111250000D03*
%TO.P,SW103,2,2*%
%TO.N,GND*%
X136250000Y-106750000D03*
X129750000Y-106750000D03*
%TD*%
D18*
%TO.P,H106,1,1*%
%TO.N,GND*%
X180000000Y-70000000D03*
D19*
X180000000Y-70000000D03*
%TD*%
D14*
%TO.P,D103,1,K*%
%TO.N,/LED_1V8_K*%
X154930000Y-89090000D03*
%TO.P,D103,2,A*%
%TO.N,VBUS*%
X156505000Y-89090000D03*
%TD*%
D24*
%TO.P,C102,1*%
%TO.N,GND*%
X133480000Y-103000000D03*
%TO.P,C102,2*%
%TO.N,/NRF_RST*%
X132520000Y-103000000D03*
%TD*%
D17*
%TO.P,R108,1*%
%TO.N,/GPIO3_K*%
X152237500Y-85090000D03*
%TO.P,R108,2*%
%TO.N,/GPIO3_D*%
X151217500Y-85090000D03*
%TD*%
D25*
%TO.P,R102,1*%
%TO.N,/CC2*%
X136762500Y-97190000D03*
%TO.P,R102,2*%
%TO.N,GND*%
X136762500Y-98210000D03*
%TD*%
D26*
%TO.P,J101,1,RES*%
%TO.N,unconnected-(J101-RES-Pad1)*%
X160190000Y-118950000D03*
%TO.P,J101,2,RES*%
%TO.N,unconnected-(J101-RES-Pad2)*%
X160190000Y-115050000D03*
%TO.P,J101,3,VCC*%
%TO.N,+1V8*%
X161460000Y-118950000D03*
%TO.P,J101,4,JTMS/SWDIO*%
%TO.N,/STM32_SWDIO*%
X161460000Y-115050000D03*
%TO.P,J101,5,GND*%
%TO.N,GND*%
X162730000Y-118950000D03*
%TO.P,J101,6,JCLK/SWCLK*%
%TO.N,/STM32_SWCLK*%
X162730000Y-115050000D03*
%TO.P,J101,7,GND*%
%TO.N,GND*%
X164000000Y-118950000D03*
%TO.P,J101,8,JTDO/SWO*%
%TO.N,/STM32_SWO*%
X164000000Y-115050000D03*
%TO.P,J101,9,JRCLK*%
%TO.N,unconnected-(J101-JRCLK-Pad9)*%
X165270000Y-118950000D03*
%TO.P,J101,10,JTDI/NC*%
%TO.N,unconnected-(J101-JTDI{slash}NC-Pad10)*%
X165270000Y-115050000D03*
%TO.P,J101,11,GNDDETECT*%
%TO.N,GND*%
X166540000Y-118950000D03*
%TO.P,J101,12,NRST*%
%TO.N,/STM32_RST*%
X166540000Y-115050000D03*
%TO.P,J101,13,VCP_RX*%
%TO.N,/STM32_VCP_RX*%
X167810000Y-118950000D03*
%TO.P,J101,14,VCP_TX*%
%TO.N,/STM32_VCP_TX*%
X167810000Y-115050000D03*
%TD*%
D17*
%TO.P,R107,1*%
%TO.N,/LED_VBUS_K*%
X152237500Y-97090000D03*
%TO.P,R107,2*%
%TO.N,GND*%
X151217500Y-97090000D03*
%TD*%
D14*
%TO.P,D101,1,K*%
%TO.N,/LED_3V3_K*%
X154940000Y-93090000D03*
%TO.P,D101,2,A*%
%TO.N,VBUS*%
X156515000Y-93090000D03*
%TD*%
D20*
%TO.P,J106,1,Pin_1*%
%TO.N,GND*%
X171450000Y-78740000D03*
D21*
%TO.P,J106,2,Pin_2*%
%TO.N,/GPIO1*%
X173990000Y-78740000D03*
%TO.P,J106,3,Pin_3*%
%TO.N,GND*%
X171450000Y-81280000D03*
%TO.P,J106,4,Pin_4*%
%TO.N,/GPIO2*%
X173990000Y-81280000D03*
%TO.P,J106,5,Pin_5*%
%TO.N,GND*%
X171450000Y-83820000D03*
%TO.P,J106,6,Pin_6*%
%TO.N,/GPIO3*%
X173990000Y-83820000D03*
%TD*%
D26*
%TO.P,J102,1,VCC*%
%TO.N,+1V8*%
X142460000Y-118950000D03*
%TO.P,J102,2,JTMS/SWDIO*%
%TO.N,/NRF_SWDIO*%
X142460000Y-115050000D03*
%TO.P,J102,3,GND*%
%TO.N,GND*%
X143730000Y-118950000D03*
%TO.P,J102,4,JCLK/SWCLK*%
%TO.N,/NRF_SWCLK*%
X143730000Y-115050000D03*
%TO.P,J102,5,GND*%
%TO.N,GND*%
X145000000Y-118950000D03*
%TO.P,J102,6,JTDO/SWO*%
%TO.N,unconnected-(J102-JTDO{slash}SWO-Pad6)*%
X145000000Y-115050000D03*
%TO.P,J102,7,JRCLK*%
%TO.N,unconnected-(J102-JRCLK-Pad7)*%
X146270000Y-118950000D03*
%TO.P,J102,8,JTDI/NC*%
%TO.N,unconnected-(J102-JTDI{slash}NC-Pad8)*%
X146270000Y-115050000D03*
%TO.P,J102,9,GNDDETECT*%
%TO.N,GND*%
X147540000Y-118950000D03*
%TO.P,J102,10,NRST*%
%TO.N,/NRF_RST*%
X147540000Y-115050000D03*
%TD*%
D18*
%TO.P,H107,1,1*%
%TO.N,GND*%
X130000000Y-120000000D03*
D19*
X130000000Y-120000000D03*
%TD*%
D17*
%TO.P,R105,1*%
%TO.N,/LED_1V8_K*%
X152237500Y-89090000D03*
%TO.P,R105,2*%
%TO.N,/LED_1V8_D*%
X151217500Y-89090000D03*
%TD*%
%TO.P,R106,1*%
%TO.N,/GPIO2_K*%
X152237500Y-81090000D03*
%TO.P,R106,2*%
%TO.N,/GPIO2_D*%
X151217500Y-81090000D03*
%TD*%
D27*
%TO.P,R101,1*%
%TO.N,/CC1*%
X136762500Y-92810000D03*
%TO.P,R101,2*%
%TO.N,GND*%
X136762500Y-91790000D03*
%TD*%
D22*
%TO.P,Q103,1,G*%
%TO.N,+1V8*%
X147877500Y-88865000D03*
%TO.P,Q103,2,S*%
%TO.N,GND*%
X147877500Y-89315000D03*
D23*
%TO.P,Q103,3,D*%
%TO.N,/LED_1V8_D*%
X148577500Y-89090000D03*
%TD*%
D14*
%TO.P,D105,1,K*%
%TO.N,/LED_VBUS_K*%
X154940000Y-97090000D03*
%TO.P,D105,2,A*%
%TO.N,VBUS*%
X156515000Y-97090000D03*
%TD*%
%TO.P,D106,1,K*%
%TO.N,/GPIO3_K*%
X154940000Y-85090000D03*
%TO.P,D106,2,A*%
%TO.N,VBUS*%
X156515000Y-85090000D03*
%TD*%
D18*
%TO.P,H105,1,1*%
%TO.N,GND*%
X130000000Y-70000000D03*
D19*
X130000000Y-70000000D03*
%TD*%
D20*
%TO.P,J104,1,Pin_1*%
%TO.N,GND*%
X171445000Y-90180000D03*
D21*
%TO.P,J104,2,Pin_2*%
%TO.N,+VBAT*%
X173985000Y-90180000D03*
%TO.P,J104,3,Pin_3*%
%TO.N,GND*%
X171445000Y-92720000D03*
%TO.P,J104,4,Pin_4*%
%TO.N,+1V8*%
X173985000Y-92720000D03*
%TO.P,J104,5,Pin_5*%
%TO.N,GND*%
X171445000Y-95260000D03*
%TO.P,J104,6,Pin_6*%
%TO.N,+3V3*%
X173985000Y-95260000D03*
%TO.P,J104,7,Pin_7*%
%TO.N,GND*%
X171445000Y-97800000D03*
%TO.P,J104,8,Pin_8*%
%TO.N,VBUS*%
X173985000Y-97800000D03*
%TD*%
D17*
%TO.P,R103,1*%
%TO.N,/LED_3V3_K*%
X152237500Y-93090000D03*
%TO.P,R103,2*%
%TO.N,/LED_3V3_D*%
X151217500Y-93090000D03*
%TD*%
D22*
%TO.P,Q105,1,G*%
%TO.N,/GPIO3*%
X147877500Y-84865000D03*
%TO.P,Q105,2,S*%
%TO.N,GND*%
X147877500Y-85315000D03*
D23*
%TO.P,Q105,3,D*%
%TO.N,/GPIO3_D*%
X148577500Y-85090000D03*
%TD*%
D22*
%TO.P,Q101,1,G*%
%TO.N,+3V3*%
X147877500Y-92865000D03*
%TO.P,Q101,2,S*%
%TO.N,GND*%
X147877500Y-93315000D03*
D23*
%TO.P,Q101,3,D*%
%TO.N,/LED_3V3_D*%
X148577500Y-93090000D03*
%TD*%
D28*
%TO.N,GND*%
X154500000Y-102900000D03*
X154500000Y-104900000D03*
X156200000Y-102900000D03*
X156200000Y-104900000D03*
X137900000Y-98200000D03*
X137700000Y-91800000D03*
X136100000Y-95500000D03*
X137700000Y-93700000D03*
X146500000Y-104600000D03*
X157900000Y-104900000D03*
X157900000Y-102900000D03*
X140771574Y-96371572D03*
X139357360Y-94957359D03*
X137943147Y-96371572D03*
X139357360Y-97785786D03*
X140771574Y-99199999D03*
X142185787Y-97785786D03*
X143571573Y-99171573D03*
X144985787Y-100585786D03*
X142157360Y-100585786D03*
X143571573Y-102000000D03*
X144985787Y-103414213D03*
X146400000Y-102000000D03*
X152500000Y-104900000D03*
X150500000Y-104900000D03*
X148500000Y-104900000D03*
X148500000Y-102900000D03*
X150500000Y-102900000D03*
X152500000Y-102900000D03*
%TO.N,+1V8*%
X155500000Y-107950000D03*
%TO.N,GND*%
X150090000Y-97090000D03*
%TO.N,VBUS*%
X157910000Y-97090000D03*
X157910000Y-89090000D03*
X157910000Y-85090000D03*
X158000000Y-77000000D03*
X157910000Y-81090000D03*
%TO.N,/GPIO2*%
X156800000Y-100400000D03*
%TO.N,/GPIO1*%
X169000000Y-105189603D03*
%TO.N,GND*%
X147877500Y-78100000D03*
X175800000Y-103000000D03*
X134300000Y-103000000D03*
%TO.N,/NRF_SWDIO*%
X142460000Y-113140000D03*
%TO.N,/NRF_SWCLK*%
X144600000Y-111000000D03*
%TO.N,/NRF_RST*%
X151451035Y-115050000D03*
%TO.N,/STM32_SWO*%
X160700000Y-112500000D03*
%TO.N,/STM32_SWDIO*%
X161460000Y-113200000D03*
%TO.N,GND*%
X143730000Y-120800000D03*
X147540000Y-120800000D03*
X145000000Y-120800000D03*
X166540000Y-120700000D03*
X162730000Y-120700000D03*
X164000000Y-120700000D03*
%TO.N,/STM32_VCP_RX*%
X166500000Y-100000000D03*
%TO.N,/STM32_VCP_TX*%
X168989603Y-102689603D03*
%TO.N,/STM32_RST*%
X166540000Y-112360000D03*
%TO.N,GND*%
X147877500Y-90077500D03*
X147877500Y-94100000D03*
X147877500Y-82100000D03*
X147877500Y-86077500D03*
%TO.N,/GPIO3*%
X144500000Y-92289603D03*
%TO.N,/STM32_SWCLK*%
X162730000Y-113200000D03*
%TO.N,GND*%
X154001035Y-111100000D03*
X159200000Y-102800000D03*
X165700000Y-102800000D03*
X160400000Y-102800000D03*
X134962500Y-91000000D03*
X164300000Y-102800000D03*
X163639603Y-103939603D03*
X160400000Y-105000000D03*
X141589603Y-82789603D03*
X159200000Y-105000000D03*
X134962500Y-99000000D03*
X166360397Y-103939603D03*
X165700000Y-105100000D03*
X164300000Y-105100000D03*
%TO.N,/USB_DN*%
X159800000Y-104375000D03*
%TO.N,/USB_DP*%
X159800000Y-103425000D03*
%TD*%
D29*
%TO.N,/GPIO1*%
X148828450Y-100128404D02*
G75*
G03*
X151656854Y-101300000I2828450J2828404D01*
G01*
%TO.N,/GPIO2*%
X149521300Y-99521340D02*
G75*
G03*
X151642641Y-100400000I2121300J2121340D01*
G01*
X169646450Y-79646444D02*
G75*
G03*
X169292893Y-79500000I-353550J-353556D01*
G01*
X172856450Y-80146444D02*
G75*
G03*
X172502893Y-80000000I-353550J-353556D01*
G01*
X169853551Y-79853557D02*
G75*
G03*
X170207107Y-80000000I353549J353557D01*
G01*
%TO.N,/GPIO3*%
X172816450Y-82646444D02*
G75*
G03*
X172462893Y-82500000I-353550J-353556D01*
G01*
X170707107Y-82500005D02*
G75*
G03*
X170353554Y-82646446I-7J-499995D01*
G01*
X169292893Y-83499995D02*
G75*
G03*
X169646447Y-83353553I7J499995D01*
G01*
%TO.N,/GPIO1*%
X171628700Y-76378660D02*
G75*
G03*
X169507359Y-75500000I-2121300J-2121340D01*
G01*
%TO.N,/STM32_RST*%
X177680010Y-108315786D02*
G75*
G03*
X177972893Y-109022893I999990J-14D01*
G01*
%TO.N,GND*%
X137890000Y-98210000D02*
X137900000Y-98200000D01*
X136762500Y-98210000D02*
X137890000Y-98210000D01*
X137690000Y-91790000D02*
X137700000Y-91800000D01*
X136762500Y-91790000D02*
X137690000Y-91790000D01*
D30*
%TO.N,/USB_DP*%
X139141438Y-95887196D02*
G75*
G03*
X135358433Y-94320200I-3783038J-3783004D01*
G01*
%TO.N,/USB_DN*%
X138890012Y-96144244D02*
G75*
G03*
X135354456Y-94679800I-3535512J-3535556D01*
G01*
X145258563Y-102512805D02*
G75*
G03*
X149041567Y-104079800I3783037J3783005D01*
G01*
%TO.N,/USB_DP*%
X145509988Y-102255756D02*
G75*
G03*
X149045544Y-103720200I3535512J3535556D01*
G01*
D29*
%TO.N,/CC2*%
X136468950Y-96896444D02*
G75*
G03*
X136115393Y-96750000I-353550J-353556D01*
G01*
%TO.N,/CC1*%
X135408286Y-93749990D02*
G75*
G03*
X136115393Y-93457107I14J999990D01*
G01*
%TO.N,/GPIO1*%
X142500029Y-92557359D02*
G75*
G03*
X143378679Y-94678679I2999971J-41D01*
G01*
%TO.N,/GPIO2*%
X143500020Y-92671573D02*
G75*
G03*
X144085787Y-94085785I1999980J-27D01*
G01*
%TO.N,/NRF_RST*%
X132227114Y-108772900D02*
G75*
G03*
X132520000Y-108065786I-707114J707100D01*
G01*
%TO.N,/NRF_SWCLK*%
X144600000Y-111000000D02*
G75*
G03*
X143730000Y-111869991I0J-870000D01*
G01*
%TO.N,/STM32_SWO*%
X164000000Y-113500000D02*
G75*
G03*
X163000000Y-112500000I-1000000J0D01*
G01*
%TO.N,/NRF_RST*%
X141707100Y-116707114D02*
G75*
G03*
X142414214Y-117000000I707100J707114D01*
G01*
X146540000Y-117000000D02*
G75*
G03*
X147540000Y-116000000I0J1000000D01*
G01*
%TO.N,/STM32_VCP_TX*%
X168102883Y-103576303D02*
G75*
G03*
X167810000Y-104283420I707117J-707097D01*
G01*
%TO.N,/GPIO1*%
X146500000Y-76865000D02*
G75*
G03*
X142500000Y-80865000I0J-4000000D01*
G01*
%TO.N,/GPIO2*%
X146500000Y-80865000D02*
G75*
G03*
X143500000Y-83865000I0J-3000000D01*
G01*
%TO.N,/GPIO3*%
X146500000Y-84865000D02*
G75*
G03*
X144500000Y-86865000I0J-2000000D01*
G01*
%TO.N,+3V3*%
X173310801Y-94585773D02*
G75*
G03*
X171896573Y-94000000I-1414201J-1414227D01*
G01*
%TO.N,+1V8*%
X173350801Y-92085773D02*
G75*
G03*
X171936573Y-91500000I-1414201J-1414227D01*
G01*
%TO.N,+3V3*%
X165086486Y-93086418D02*
G75*
G03*
X167291953Y-94000000I2205514J2205418D01*
G01*
%TO.N,+1V8*%
X166757351Y-89257369D02*
G75*
G03*
X162514719Y-87500000I-4242651J-4242631D01*
G01*
%TO.N,+3V3*%
X164085801Y-92085773D02*
G75*
G03*
X162671573Y-91500000I-1414201J-1414227D01*
G01*
%TO.N,+1V8*%
X168414200Y-90914228D02*
G75*
G03*
X169828427Y-91500000I1414200J1414228D01*
G01*
%TO.N,+3V3*%
X173310787Y-94585787D02*
X173985000Y-95260000D01*
X148877500Y-91500000D02*
X162671573Y-91500000D01*
X147877500Y-92865000D02*
X147877500Y-92500000D01*
X148877500Y-91500000D02*
G75*
G03*
X147877500Y-92500000I0J-1000000D01*
G01*
X164085787Y-92085787D02*
X165086452Y-93086452D01*
X167291953Y-94000000D02*
X171896573Y-94000000D01*
%TO.N,/GPIO2*%
X148877500Y-79500000D02*
G75*
G03*
X147877500Y-80500000I0J-1000000D01*
G01*
%TO.N,/GPIO1*%
X148877500Y-75500000D02*
G75*
G03*
X147877500Y-76500000I0J-1000000D01*
G01*
%TO.N,/GPIO3*%
X148877500Y-83500000D02*
G75*
G03*
X147877500Y-84500000I0J-1000000D01*
G01*
%TO.N,+1V8*%
X148877500Y-87500000D02*
G75*
G03*
X147877500Y-88500000I0J-1000000D01*
G01*
%TO.N,/STM32_VCP_RX*%
X169000000Y-118950000D02*
G75*
G03*
X171500000Y-116450000I0J2500000D01*
G01*
X171500000Y-102096708D02*
G75*
G03*
X169403292Y-100000000I-2096700J8D01*
G01*
%TO.N,/GPIO1*%
X170007112Y-104182501D02*
G75*
G03*
X170300000Y-103475389I-707112J707101D01*
G01*
X170300000Y-102300000D02*
G75*
G03*
X169300000Y-101300000I-1000000J0D01*
G01*
%TO.N,+1V8*%
X155500000Y-107950000D02*
X155500000Y-120900000D01*
X160460000Y-121900000D02*
G75*
G03*
X161460000Y-120900000I0J1000000D01*
G01*
X142460000Y-120900000D02*
G75*
G03*
X143460000Y-121900000I1000000J0D01*
G01*
X154500000Y-121900000D02*
G75*
G03*
X155500000Y-120900000I0J1000000D01*
G01*
X142460000Y-120900000D02*
X142460000Y-118950000D01*
X154500000Y-121900000D02*
X143460000Y-121900000D01*
X155500000Y-120900000D02*
G75*
G03*
X156500000Y-121900000I1000000J0D01*
G01*
X155500000Y-120900000D02*
X155500000Y-120000000D01*
X160460000Y-121900000D02*
X156500000Y-121900000D01*
X161460000Y-118950000D02*
X161460000Y-120900000D01*
X173350787Y-92085787D02*
X173985000Y-92720000D01*
X166757360Y-89257360D02*
X168414214Y-90914214D01*
X148877500Y-87500000D02*
X162514719Y-87500000D01*
X169828427Y-91500000D02*
X171936573Y-91500000D01*
X147877500Y-88865000D02*
X147877500Y-88500000D01*
%TO.N,VBUS*%
X157910000Y-81090000D02*
X156515000Y-81090000D01*
X157910000Y-85090000D02*
X156515000Y-85090000D01*
X157910000Y-89090000D02*
X156505000Y-89090000D01*
X157910000Y-97090000D02*
X156515000Y-97090000D01*
%TO.N,GND*%
X150090000Y-97090000D02*
X151217500Y-97090000D01*
%TO.N,VBUS*%
X157910000Y-77090000D02*
X158000000Y-77000000D01*
X156515000Y-77090000D02*
X157910000Y-77090000D01*
%TO.N,/GPIO2*%
X172856447Y-80146447D02*
X173990000Y-81280000D01*
X169646447Y-79646447D02*
X169853554Y-79853554D01*
X170207107Y-80000000D02*
X172502893Y-80000000D01*
X148877500Y-79500000D02*
X169292893Y-79500000D01*
X147877500Y-80865000D02*
X147877500Y-80500000D01*
%TO.N,/GPIO3*%
X170707107Y-82500000D02*
X172462893Y-82500000D01*
X169646447Y-83353553D02*
X170353554Y-82646446D01*
X147877500Y-84865000D02*
X147877500Y-84500000D01*
X148877500Y-83500000D02*
X169292893Y-83500000D01*
X172816447Y-82646447D02*
X173990000Y-83820000D01*
%TO.N,/GPIO1*%
X171628680Y-76378680D02*
X173990000Y-78740000D01*
X147877500Y-76865000D02*
X147877500Y-76500000D01*
X148877500Y-75500000D02*
X169507359Y-75500000D01*
X146500000Y-76865000D02*
X147877500Y-76865000D01*
X148828427Y-100128427D02*
X143378679Y-94678679D01*
X169300000Y-101300000D02*
X151656854Y-101300000D01*
X170300000Y-103475389D02*
X170300000Y-102300000D01*
X169000000Y-105189603D02*
X170007107Y-104182496D01*
X142500000Y-92557359D02*
X142500000Y-80865000D01*
%TO.N,/GPIO2*%
X143500000Y-92671573D02*
X143500000Y-83865000D01*
X149521320Y-99521320D02*
X144085786Y-94085786D01*
X146500000Y-80865000D02*
X147877500Y-80865000D01*
X156800000Y-100400000D02*
X151642641Y-100400000D01*
%TO.N,/STM32_VCP_RX*%
X169000000Y-118950000D02*
X167810000Y-118950000D01*
X171500000Y-102096708D02*
X171500000Y-116450000D01*
X166500000Y-100000000D02*
X169403292Y-100000000D01*
%TO.N,GND*%
X147877500Y-78100000D02*
X147877500Y-77315000D01*
%TO.N,/STM32_RST*%
X180200000Y-111250000D02*
X173700000Y-111250000D01*
X177972893Y-109022893D02*
X180200000Y-111250000D01*
X177680000Y-103000000D02*
X177680000Y-108315786D01*
%TO.N,GND*%
X176720000Y-103000000D02*
X175800000Y-103000000D01*
X133480000Y-103000000D02*
X134300000Y-103000000D01*
%TO.N,/NRF_RST*%
X132227107Y-108772893D02*
X129750000Y-111250000D01*
X132520000Y-103000000D02*
X132520000Y-108065786D01*
X136250000Y-111250000D02*
X129750000Y-111250000D01*
X141707107Y-116707107D02*
X136250000Y-111250000D01*
X146540000Y-117000000D02*
X142414214Y-117000000D01*
X147540000Y-115050000D02*
X147540000Y-116000000D01*
%TO.N,/NRF_SWCLK*%
X143730000Y-115050000D02*
X143730000Y-111869991D01*
%TO.N,/NRF_SWDIO*%
X142460000Y-113140000D02*
X142460000Y-115050000D01*
%TO.N,/NRF_RST*%
X151451035Y-115050000D02*
X147540000Y-115050000D01*
%TO.N,/GPIO3*%
X146500000Y-84865000D02*
X147877500Y-84865000D01*
X144500000Y-92289603D02*
X144500000Y-86865000D01*
%TO.N,/STM32_SWO*%
X164000000Y-113500000D02*
X164000000Y-115050000D01*
X160700000Y-112500000D02*
X163000000Y-112500000D01*
%TO.N,/STM32_SWCLK*%
X162730000Y-113200000D02*
X162730000Y-115050000D01*
%TO.N,/STM32_SWDIO*%
X161460000Y-113200000D02*
X161460000Y-115050000D01*
%TO.N,GND*%
X166540000Y-120700000D02*
X166540000Y-118950000D01*
X162730000Y-120700000D02*
X162730000Y-118950000D01*
X147540000Y-120800000D02*
X147540000Y-118950000D01*
X143730000Y-120800000D02*
X143730000Y-118950000D01*
X143730000Y-118950000D02*
X145000000Y-118950000D01*
X145000000Y-120800000D02*
X145000000Y-118950000D01*
X164000000Y-118950000D02*
X164000000Y-120700000D01*
X164000000Y-118950000D02*
X162730000Y-118950000D01*
%TO.N,/STM32_VCP_TX*%
X167810000Y-104283420D02*
X167810000Y-115050000D01*
X168989603Y-102689603D02*
X168102893Y-103576313D01*
%TO.N,/STM32_RST*%
X166540000Y-112360000D02*
X166540000Y-115050000D01*
%TO.N,GND*%
X147877500Y-90077500D02*
X147877500Y-89315000D01*
X147877500Y-94100000D02*
X147877500Y-93315000D01*
X147877500Y-82100000D02*
X147877500Y-81315000D01*
X147877500Y-86077500D02*
X147877500Y-85315000D01*
X134962500Y-99000000D02*
X134162500Y-98200000D01*
X134162500Y-98200000D02*
X133850000Y-98200000D01*
X134162500Y-91800000D02*
X133850000Y-91800000D01*
X134962500Y-91000000D02*
X134162500Y-91800000D01*
%TO.N,/LED_3V3_K*%
X152237500Y-93090000D02*
X154940000Y-93090000D01*
%TO.N,/LED_1V8_K*%
X154930000Y-89090000D02*
X152237500Y-89090000D01*
%TO.N,/LED_VBUS_K*%
X154940000Y-97090000D02*
X152237500Y-97090000D01*
%TO.N,/LED_3V3_D*%
X148577500Y-93090000D02*
X151217500Y-93090000D01*
%TO.N,/LED_1V8_D*%
X151217500Y-89090000D02*
X148577500Y-89090000D01*
%TO.N,/GPIO1_K*%
X152237500Y-77090000D02*
X154940000Y-77090000D01*
D30*
%TO.N,/USB_DN*%
X134705001Y-94750000D02*
X134775201Y-94679800D01*
X133850000Y-95750000D02*
X134629600Y-95750000D01*
X134629600Y-94750000D02*
X133850000Y-94750000D01*
X138889990Y-96144266D02*
X145258546Y-102512822D01*
X133850000Y-94750000D02*
X134705001Y-94750000D01*
X134674800Y-95704800D02*
X134674800Y-94795200D01*
X159504800Y-104079800D02*
X159800000Y-104375000D01*
X134629600Y-95750000D02*
X134674800Y-95704800D01*
X134775201Y-94679800D02*
X135354456Y-94679800D01*
X134674800Y-94795200D02*
X134629600Y-94750000D01*
X149041567Y-104079800D02*
X159504800Y-104079800D01*
%TO.N,/USB_DP*%
X133025200Y-94345200D02*
X133120400Y-94250000D01*
X133025200Y-95204800D02*
X133025200Y-94345200D01*
X133850000Y-94250000D02*
X134705001Y-94250000D01*
X133070400Y-95250000D02*
X133025200Y-95204800D01*
X133850000Y-95250000D02*
X133070400Y-95250000D01*
X134705001Y-94250000D02*
X134775201Y-94320200D01*
X159504800Y-103720200D02*
X159800000Y-103425000D01*
X149045544Y-103720200D02*
X159504800Y-103720200D01*
X133120400Y-94250000D02*
X133850000Y-94250000D01*
X134775201Y-94320200D02*
X135358433Y-94320200D01*
X139141455Y-95887179D02*
X145510010Y-102255734D01*
D29*
%TO.N,/CC1*%
X135408286Y-93750000D02*
X133850000Y-93750000D01*
X136762500Y-92810000D02*
X136115393Y-93457107D01*
%TO.N,/CC2*%
X136468947Y-96896447D02*
X136762500Y-97190000D01*
X133850000Y-96750000D02*
X136115393Y-96750000D01*
%TO.N,/GPIO2_D*%
X151217500Y-81090000D02*
X148577500Y-81090000D01*
%TO.N,/GPIO1_D*%
X151217500Y-77090000D02*
X148577500Y-77090000D01*
%TO.N,/GPIO3_D*%
X148577500Y-85090000D02*
X151217500Y-85090000D01*
%TO.N,/GPIO2_K*%
X152237500Y-81090000D02*
X154940000Y-81090000D01*
%TO.N,/GPIO3_K*%
X152237500Y-85090000D02*
X154940000Y-85090000D01*
%TD*%
%TA.AperFunction,Conductor*%
%TO.N,GND*%
G36*
X137922459Y-91917003D02*
G01*
X138042808Y-91966853D01*
X138146154Y-92046154D01*
X147999999Y-101900000D01*
X148000000Y-101900000D01*
X160749117Y-101851890D01*
X160878634Y-101868485D01*
X160999412Y-101918113D01*
X161103180Y-101997375D01*
X161182832Y-102100843D01*
X161232916Y-102221432D01*
X161250000Y-102350886D01*
X161250000Y-103367522D01*
X161242116Y-103424999D01*
X161250000Y-103482478D01*
X161250000Y-104317522D01*
X161242116Y-104375000D01*
X161250000Y-104432478D01*
X161250000Y-105352634D01*
X161233067Y-105481521D01*
X161183419Y-105601662D01*
X161104424Y-105704901D01*
X161001444Y-105784234D01*
X160881467Y-105834276D01*
X160752638Y-105851630D01*
X151686925Y-105881354D01*
X146207650Y-105899319D01*
X146077917Y-105882600D01*
X145956986Y-105832741D01*
X145853168Y-105753168D01*
X137371644Y-97271644D01*
X137302263Y-97184740D01*
X137253851Y-97084629D01*
X137233180Y-96995185D01*
X137230230Y-96988504D01*
X137230230Y-96988502D01*
X137187116Y-96890859D01*
X137187114Y-96890857D01*
X137187114Y-96890856D01*
X137111641Y-96815383D01*
X137013999Y-96772269D01*
X136990125Y-96769500D01*
X136990123Y-96769500D01*
X136938312Y-96769500D01*
X136809161Y-96752497D01*
X136688812Y-96702647D01*
X136651314Y-96673873D01*
X136650609Y-96674929D01*
X136597585Y-96639500D01*
X136482730Y-96562757D01*
X136401425Y-96529081D01*
X136341594Y-96504299D01*
X136191772Y-96474498D01*
X136115391Y-96474499D01*
X136115389Y-96474500D01*
X135401112Y-96474500D01*
X135268022Y-96456424D01*
X135144575Y-96403507D01*
X135039713Y-96319581D01*
X134961034Y-96210728D01*
X134914237Y-96084832D01*
X134902713Y-95951016D01*
X134927297Y-95818974D01*
X134946297Y-95780044D01*
X134940798Y-95742973D01*
X134941351Y-95736223D01*
X134939688Y-95727861D01*
X134930100Y-95630511D01*
X134930100Y-95437416D01*
X134947958Y-95305114D01*
X135000256Y-95182282D01*
X135083248Y-95077711D01*
X135190996Y-94998887D01*
X135315786Y-94951452D01*
X135448683Y-94938801D01*
X135707124Y-94948953D01*
X135746182Y-94952026D01*
X135869505Y-94966621D01*
X136077228Y-94991205D01*
X136115923Y-94997334D01*
X136442871Y-95062366D01*
X136480969Y-95071512D01*
X136801787Y-95161989D01*
X136839050Y-95174096D01*
X137085145Y-95264883D01*
X137151788Y-95289468D01*
X137187975Y-95304456D01*
X137490722Y-95444022D01*
X137525621Y-95461803D01*
X137816480Y-95624689D01*
X137849863Y-95645147D01*
X138127036Y-95830345D01*
X138158726Y-95853369D01*
X138420520Y-96059748D01*
X138450314Y-96085194D01*
X138701713Y-96317582D01*
X138715840Y-96331165D01*
X145130651Y-102745977D01*
X145130842Y-102746133D01*
X145233765Y-102849057D01*
X145568695Y-103135118D01*
X145568700Y-103135121D01*
X145568704Y-103135125D01*
X145702989Y-103232689D01*
X145925037Y-103394018D01*
X146300594Y-103624162D01*
X146693050Y-103824131D01*
X147099985Y-103992691D01*
X147518891Y-104128805D01*
X147947185Y-104231631D01*
X148382227Y-104300538D01*
X148821333Y-104335099D01*
X148917161Y-104335099D01*
X148917170Y-104335100D01*
X149016420Y-104335100D01*
X149041565Y-104335100D01*
X158965836Y-104335100D01*
X159078858Y-104348068D01*
X159186005Y-104386298D01*
X159281709Y-104447803D01*
X159360995Y-104529387D01*
X159414353Y-104617872D01*
X159417118Y-104621063D01*
X159501951Y-104718967D01*
X159610931Y-104789004D01*
X159735228Y-104825500D01*
X159864771Y-104825500D01*
X159864772Y-104825500D01*
X159989069Y-104789004D01*
X160098049Y-104718967D01*
X160182882Y-104621063D01*
X160236697Y-104503226D01*
X160255133Y-104375000D01*
X160236697Y-104246774D01*
X160182882Y-104128937D01*
X160182880Y-104128934D01*
X160172997Y-104107294D01*
X160139306Y-104006070D01*
X160127902Y-103899998D01*
X160139306Y-103793926D01*
X160172998Y-103692702D01*
X160182878Y-103671067D01*
X160182882Y-103671063D01*
X160236697Y-103553226D01*
X160255133Y-103425000D01*
X160236697Y-103296774D01*
X160182882Y-103178937D01*
X160098049Y-103081033D01*
X159989069Y-103010996D01*
X159989068Y-103010995D01*
X159989067Y-103010995D01*
X159916436Y-102989669D01*
X159864772Y-102974500D01*
X159735228Y-102974500D01*
X159698733Y-102985215D01*
X159610932Y-103010995D01*
X159501949Y-103081034D01*
X159414353Y-103182127D01*
X159360995Y-103270613D01*
X159281709Y-103352197D01*
X159186005Y-103413702D01*
X159078858Y-103451932D01*
X158965836Y-103464900D01*
X149055327Y-103464900D01*
X149035742Y-103464515D01*
X149009463Y-103463482D01*
X148692875Y-103451046D01*
X148653817Y-103447973D01*
X148322777Y-103408795D01*
X148284076Y-103402665D01*
X147957128Y-103337633D01*
X147919030Y-103328487D01*
X147598212Y-103238010D01*
X147560949Y-103225903D01*
X147248211Y-103110531D01*
X147212010Y-103095537D01*
X146909283Y-102955980D01*
X146874374Y-102938193D01*
X146583530Y-102775316D01*
X146550129Y-102754848D01*
X146272967Y-102569657D01*
X146241273Y-102546630D01*
X145979479Y-102340251D01*
X145949685Y-102314805D01*
X145698285Y-102082416D01*
X145684158Y-102068833D01*
X139269746Y-95654421D01*
X139269556Y-95654265D01*
X139166236Y-95550944D01*
X139061870Y-95461806D01*
X138831306Y-95264883D01*
X138831301Y-95264879D01*
X138831296Y-95264875D01*
X138474968Y-95005986D01*
X138474964Y-95005983D01*
X138099407Y-94775839D01*
X137706951Y-94575870D01*
X137364599Y-94434061D01*
X137300018Y-94407310D01*
X137300015Y-94407309D01*
X136881109Y-94271196D01*
X136881102Y-94271194D01*
X136881098Y-94271193D01*
X136832510Y-94259528D01*
X136708605Y-94211593D01*
X136601739Y-94132661D01*
X136519490Y-94028327D01*
X136467686Y-93905989D01*
X136450000Y-93774316D01*
X136450000Y-93729499D01*
X136467003Y-93600348D01*
X136516853Y-93479999D01*
X136596154Y-93376653D01*
X136699500Y-93297352D01*
X136819849Y-93247502D01*
X136949000Y-93230499D01*
X136990125Y-93230499D01*
X137002059Y-93229114D01*
X137013998Y-93227730D01*
X137111641Y-93184616D01*
X137187116Y-93109141D01*
X137230230Y-93011498D01*
X137233000Y-92987623D01*
X137232999Y-92632378D01*
X137231505Y-92619500D01*
X137230230Y-92608505D01*
X137230230Y-92608502D01*
X137226720Y-92600554D01*
X137188544Y-92464679D01*
X137189941Y-92323545D01*
X137230800Y-92188447D01*
X137307853Y-92070194D01*
X137414935Y-91978246D01*
X137543480Y-91919961D01*
X137683203Y-91900000D01*
X137793308Y-91900000D01*
X137922459Y-91917003D01*
G37*
%TD.AperFunction*%
%TD*%
%TA.AperFunction,Conductor*%
%TO.N,VBUS*%
G36*
X178534604Y-67316453D02*
G01*
X178560712Y-67357433D01*
X178555775Y-67405772D01*
X178525257Y-67437191D01*
X178525851Y-67438094D01*
X178522252Y-67440460D01*
X178522250Y-67440462D01*
X178410150Y-67514191D01*
X178235094Y-67629327D01*
X177971817Y-67850242D01*
X177735954Y-68100242D01*
X177530716Y-68375925D01*
X177358868Y-68673574D01*
X177222736Y-68989162D01*
X177124167Y-69318410D01*
X177064484Y-69656887D01*
X177044500Y-70000000D01*
X177064484Y-70343112D01*
X177124167Y-70681589D01*
X177222736Y-71010837D01*
X177358868Y-71326425D01*
X177530716Y-71624074D01*
X177735954Y-71899757D01*
X177971817Y-72149757D01*
X178235094Y-72370672D01*
X178235098Y-72370675D01*
X178522250Y-72559538D01*
X178829386Y-72713788D01*
X179152353Y-72831338D01*
X179486783Y-72910599D01*
X179828153Y-72950500D01*
X180171844Y-72950500D01*
X180171847Y-72950500D01*
X180513217Y-72910599D01*
X180847647Y-72831338D01*
X181170614Y-72713788D01*
X181477750Y-72559538D01*
X181764902Y-72370675D01*
X182028187Y-72149753D01*
X182264044Y-71899759D01*
X182469284Y-71624074D01*
X182561414Y-71464499D01*
X182597181Y-71433133D01*
X182644653Y-71430021D01*
X182684208Y-71456452D01*
X182699500Y-71501500D01*
X182699500Y-118498500D01*
X182684208Y-118543548D01*
X182644653Y-118569979D01*
X182597181Y-118566867D01*
X182561414Y-118535500D01*
X182540052Y-118498500D01*
X182469284Y-118375926D01*
X182264044Y-118100241D01*
X182028187Y-117850247D01*
X182028185Y-117850245D01*
X182028182Y-117850242D01*
X181764905Y-117629327D01*
X181477750Y-117440462D01*
X181170610Y-117286210D01*
X180847648Y-117168662D01*
X180513222Y-117089402D01*
X180513220Y-117089401D01*
X180513217Y-117089401D01*
X180171847Y-117049500D01*
X179828153Y-117049500D01*
X179486783Y-117089401D01*
X179486780Y-117089401D01*
X179486777Y-117089402D01*
X179152351Y-117168662D01*
X178829389Y-117286210D01*
X178522249Y-117440462D01*
X178235094Y-117629327D01*
X177971817Y-117850242D01*
X177735954Y-118100242D01*
X177530716Y-118375925D01*
X177358868Y-118673574D01*
X177222736Y-118989162D01*
X177124167Y-119318410D01*
X177124166Y-119318415D01*
X177064484Y-119656887D01*
X177044500Y-120000000D01*
X177064484Y-120343113D01*
X177104803Y-120571774D01*
X177124167Y-120681589D01*
X177222736Y-121010837D01*
X177358868Y-121326425D01*
X177530716Y-121624074D01*
X177735954Y-121899757D01*
X177735956Y-121899759D01*
X177907940Y-122082052D01*
X177971817Y-122149757D01*
X178194975Y-122337008D01*
X178235098Y-122370675D01*
X178522250Y-122559538D01*
X178522252Y-122559539D01*
X178525851Y-122561906D01*
X178525257Y-122562808D01*
X178555775Y-122594228D01*
X178560712Y-122642567D01*
X178534604Y-122683547D01*
X178488707Y-122699500D01*
X131511293Y-122699500D01*
X131465396Y-122683547D01*
X131439288Y-122642567D01*
X131444225Y-122594228D01*
X131474742Y-122562808D01*
X131474149Y-122561906D01*
X131477747Y-122559539D01*
X131477750Y-122559538D01*
X131764902Y-122370675D01*
X132028187Y-122149753D01*
X132264044Y-121899759D01*
X132469284Y-121624074D01*
X132641131Y-121326426D01*
X132777262Y-121010841D01*
X132875834Y-120681585D01*
X132935516Y-120343113D01*
X132945900Y-120164820D01*
X141939500Y-120164820D01*
X141948233Y-120208722D01*
X141981496Y-120258504D01*
X142031278Y-120291767D01*
X142075180Y-120300500D01*
X142110500Y-120300500D01*
X142147500Y-120310414D01*
X142174586Y-120337500D01*
X142184500Y-120374500D01*
X142184500Y-121000384D01*
X142215907Y-121198681D01*
X142277948Y-121389623D01*
X142291858Y-121416922D01*
X142369095Y-121568508D01*
X142400180Y-121611293D01*
X142487101Y-121730930D01*
X142487103Y-121730932D01*
X142629068Y-121872897D01*
X142791492Y-121990905D01*
X142970378Y-122082052D01*
X143161320Y-122144093D01*
X143359616Y-122175500D01*
X143432867Y-122175500D01*
X143460000Y-122175500D01*
X143508578Y-122175500D01*
X154451422Y-122175500D01*
X154527133Y-122175500D01*
X154600384Y-122175500D01*
X154798680Y-122144093D01*
X154989622Y-122082052D01*
X155168508Y-121990905D01*
X155330932Y-121872897D01*
X155447676Y-121756152D01*
X155480847Y-121737002D01*
X155519153Y-121737002D01*
X155552323Y-121756152D01*
X155669068Y-121872897D01*
X155831492Y-121990905D01*
X156010378Y-122082052D01*
X156201320Y-122144093D01*
X156399616Y-122175500D01*
X156472867Y-122175500D01*
X156500000Y-122175500D01*
X156548578Y-122175500D01*
X160411422Y-122175500D01*
X160487133Y-122175500D01*
X160560384Y-122175500D01*
X160758680Y-122144093D01*
X160949622Y-122082052D01*
X161128508Y-121990905D01*
X161290932Y-121872897D01*
X161432897Y-121730932D01*
X161550905Y-121568508D01*
X161642052Y-121389622D01*
X161704093Y-121198680D01*
X161735500Y-121000384D01*
X161735500Y-120900000D01*
X161735500Y-120851422D01*
X161735500Y-120374500D01*
X161745414Y-120337500D01*
X161772500Y-120310414D01*
X161809500Y-120300500D01*
X161844819Y-120300500D01*
X161844820Y-120300500D01*
X161888722Y-120291767D01*
X161938504Y-120258504D01*
X161971767Y-120208722D01*
X161980500Y-120164820D01*
X162209500Y-120164820D01*
X162218233Y-120208722D01*
X162251496Y-120258504D01*
X162301278Y-120291767D01*
X162335391Y-120298552D01*
X162378572Y-120324697D01*
X162394941Y-120372450D01*
X162376879Y-120419589D01*
X162347118Y-120453935D01*
X162293302Y-120571774D01*
X162274867Y-120699999D01*
X162293302Y-120828225D01*
X162347117Y-120946062D01*
X162347118Y-120946063D01*
X162431951Y-121043967D01*
X162540931Y-121114004D01*
X162665228Y-121150500D01*
X162794770Y-121150500D01*
X162794772Y-121150500D01*
X162919069Y-121114004D01*
X163028049Y-121043967D01*
X163112882Y-120946063D01*
X163166697Y-120828226D01*
X163185133Y-120700000D01*
X163166697Y-120571774D01*
X163112882Y-120453937D01*
X163112881Y-120453936D01*
X163112881Y-120453935D01*
X163083120Y-120419589D01*
X163065058Y-120372451D01*
X163081427Y-120324697D01*
X163124607Y-120298553D01*
X163158722Y-120291767D01*
X163208504Y-120258504D01*
X163241767Y-120208722D01*
X163250500Y-120164820D01*
X163250500Y-119299500D01*
X163260414Y-119262500D01*
X163287500Y-119235414D01*
X163324500Y-119225500D01*
X163405500Y-119225500D01*
X163442500Y-119235414D01*
X163469586Y-119262500D01*
X163479500Y-119299500D01*
X163479500Y-120164820D01*
X163488233Y-120208722D01*
X163521496Y-120258504D01*
X163571278Y-120291767D01*
X163605391Y-120298552D01*
X163648572Y-120324697D01*
X163664941Y-120372450D01*
X163646879Y-120419589D01*
X163617118Y-120453935D01*
X163563302Y-120571774D01*
X163544867Y-120699999D01*
X163563302Y-120828225D01*
X163617117Y-120946062D01*
X163617118Y-120946063D01*
X163701951Y-121043967D01*
X163810931Y-121114004D01*
X163935228Y-121150500D01*
X164064770Y-121150500D01*
X164064772Y-121150500D01*
X164189069Y-121114004D01*
X164298049Y-121043967D01*
X164382882Y-120946063D01*
X164436697Y-120828226D01*
X164455133Y-120700000D01*
X164436697Y-120571774D01*
X164382882Y-120453937D01*
X164382881Y-120453936D01*
X164382881Y-120453935D01*
X164353120Y-120419589D01*
X164335058Y-120372451D01*
X164351427Y-120324697D01*
X164394607Y-120298553D01*
X164428722Y-120291767D01*
X164478504Y-120258504D01*
X164511767Y-120208722D01*
X164520500Y-120164820D01*
X164749500Y-120164820D01*
X164758233Y-120208722D01*
X164791496Y-120258504D01*
X164841278Y-120291767D01*
X164885180Y-120300500D01*
X165654819Y-120300500D01*
X165654820Y-120300500D01*
X165698722Y-120291767D01*
X165748504Y-120258504D01*
X165781767Y-120208722D01*
X165790500Y-120164820D01*
X166019500Y-120164820D01*
X166028233Y-120208722D01*
X166061496Y-120258504D01*
X166111278Y-120291767D01*
X166145391Y-120298552D01*
X166188572Y-120324697D01*
X166204941Y-120372450D01*
X166186879Y-120419589D01*
X166157118Y-120453935D01*
X166103302Y-120571774D01*
X166084867Y-120699999D01*
X166103302Y-120828225D01*
X166157117Y-120946062D01*
X166157118Y-120946063D01*
X166241951Y-121043967D01*
X166350931Y-121114004D01*
X166475228Y-121150500D01*
X166604770Y-121150500D01*
X166604772Y-121150500D01*
X166729069Y-121114004D01*
X166838049Y-121043967D01*
X166922882Y-120946063D01*
X166976697Y-120828226D01*
X166995133Y-120700000D01*
X166976697Y-120571774D01*
X166922882Y-120453937D01*
X166922881Y-120453936D01*
X166922881Y-120453935D01*
X166893120Y-120419589D01*
X166875058Y-120372451D01*
X166891427Y-120324697D01*
X166934607Y-120298553D01*
X166968722Y-120291767D01*
X167018504Y-120258504D01*
X167051767Y-120208722D01*
X167060500Y-120164820D01*
X167060500Y-117735180D01*
X167051767Y-117691278D01*
X167018504Y-117641496D01*
X166968722Y-117608233D01*
X166924820Y-117599500D01*
X166155180Y-117599500D01*
X166111278Y-117608233D01*
X166061496Y-117641496D01*
X166028233Y-117691278D01*
X166019500Y-117735180D01*
X166019500Y-120164820D01*
X165790500Y-120164820D01*
X165790500Y-117735180D01*
X165781767Y-117691278D01*
X165748504Y-117641496D01*
X165698722Y-117608233D01*
X165654820Y-117599500D01*
X164885180Y-117599500D01*
X164841278Y-117608233D01*
X164791496Y-117641496D01*
X164758233Y-117691278D01*
X164749500Y-117735180D01*
X164749500Y-120164820D01*
X164520500Y-120164820D01*
X164520500Y-117735180D01*
X164511767Y-117691278D01*
X164478504Y-117641496D01*
X164428722Y-117608233D01*
X164384820Y-117599500D01*
X163615180Y-117599500D01*
X163571277Y-117608233D01*
X163571278Y-117608233D01*
X163521496Y-117641496D01*
X163488233Y-117691278D01*
X163479500Y-117735181D01*
X163479500Y-118600500D01*
X163469586Y-118637500D01*
X163442500Y-118664586D01*
X163405500Y-118674500D01*
X163324500Y-118674500D01*
X163287500Y-118664586D01*
X163260414Y-118637500D01*
X163250500Y-118600500D01*
X163250500Y-117735181D01*
X163250500Y-117735180D01*
X163241767Y-117691278D01*
X163208504Y-117641496D01*
X163158722Y-117608233D01*
X163114820Y-117599500D01*
X162345180Y-117599500D01*
X162301278Y-117608233D01*
X162251496Y-117641496D01*
X162218233Y-117691278D01*
X162209500Y-117735180D01*
X162209500Y-120164820D01*
X161980500Y-120164820D01*
X161980500Y-117735180D01*
X161971767Y-117691278D01*
X161938504Y-117641496D01*
X161888722Y-117608233D01*
X161844820Y-117599500D01*
X161075180Y-117599500D01*
X161031278Y-117608233D01*
X160981496Y-117641496D01*
X160948233Y-117691278D01*
X160939500Y-117735180D01*
X160939500Y-120164820D01*
X160948233Y-120208722D01*
X160981496Y-120258504D01*
X161031278Y-120291767D01*
X161075180Y-120300500D01*
X161110500Y-120300500D01*
X161147500Y-120310414D01*
X161174586Y-120337500D01*
X161184500Y-120374500D01*
X161184500Y-120896362D01*
X161184144Y-120903616D01*
X161171293Y-121034090D01*
X161168463Y-121048317D01*
X161131465Y-121170282D01*
X161125913Y-121183684D01*
X161065836Y-121296081D01*
X161057777Y-121308143D01*
X160976922Y-121406664D01*
X160966664Y-121416922D01*
X160868143Y-121497777D01*
X160856081Y-121505836D01*
X160743684Y-121565913D01*
X160730282Y-121571465D01*
X160608317Y-121608463D01*
X160594090Y-121611293D01*
X160501137Y-121620448D01*
X160463613Y-121624144D01*
X160456362Y-121624500D01*
X156503638Y-121624500D01*
X156496385Y-121624144D01*
X156495674Y-121624074D01*
X156481799Y-121622707D01*
X156365910Y-121611293D01*
X156351682Y-121608463D01*
X156229717Y-121571465D01*
X156216315Y-121565913D01*
X156103918Y-121505836D01*
X156091856Y-121497777D01*
X155993335Y-121416922D01*
X155983077Y-121406664D01*
X155902222Y-121308143D01*
X155894163Y-121296081D01*
X155834086Y-121183684D01*
X155828534Y-121170282D01*
X155822533Y-121150500D01*
X155791534Y-121048311D01*
X155788707Y-121034094D01*
X155775855Y-120903614D01*
X155775500Y-120896362D01*
X155775500Y-120164820D01*
X159669500Y-120164820D01*
X159678233Y-120208722D01*
X159711496Y-120258504D01*
X159761278Y-120291767D01*
X159805180Y-120300500D01*
X160574819Y-120300500D01*
X160574820Y-120300500D01*
X160618722Y-120291767D01*
X160668504Y-120258504D01*
X160701767Y-120208722D01*
X160710500Y-120164820D01*
X160710500Y-117735180D01*
X160701767Y-117691278D01*
X160668504Y-117641496D01*
X160618722Y-117608233D01*
X160574820Y-117599500D01*
X159805180Y-117599500D01*
X159761278Y-117608233D01*
X159711496Y-117641496D01*
X159678233Y-117691278D01*
X159669500Y-117735180D01*
X159669500Y-120164820D01*
X155775500Y-120164820D01*
X155775500Y-116264820D01*
X159669500Y-116264820D01*
X159678233Y-116308722D01*
X159711496Y-116358504D01*
X159761278Y-116391767D01*
X159805180Y-116400500D01*
X160574819Y-116400500D01*
X160574820Y-116400500D01*
X160618722Y-116391767D01*
X160668504Y-116358504D01*
X160701767Y-116308722D01*
X160710500Y-116264820D01*
X160710500Y-113835180D01*
X160701767Y-113791278D01*
X160668504Y-113741496D01*
X160618722Y-113708233D01*
X160574820Y-113699500D01*
X159805180Y-113699500D01*
X159761278Y-113708233D01*
X159711496Y-113741496D01*
X159678233Y-113791278D01*
X159669500Y-113835180D01*
X159669500Y-116264820D01*
X155775500Y-116264820D01*
X155775500Y-112500000D01*
X160244867Y-112500000D01*
X160263302Y-112628225D01*
X160317117Y-112746062D01*
X160317118Y-112746063D01*
X160401951Y-112843967D01*
X160510931Y-112914004D01*
X160635228Y-112950500D01*
X160764770Y-112950500D01*
X160764772Y-112950500D01*
X160889069Y-112914004D01*
X160969035Y-112862612D01*
X161014321Y-112851054D01*
X161057501Y-112868939D01*
X161081351Y-112909135D01*
X161076355Y-112955606D01*
X161023302Y-113071774D01*
X161004867Y-113200000D01*
X161023302Y-113328225D01*
X161077118Y-113446064D01*
X161166426Y-113549132D01*
X161179834Y-113571731D01*
X161184500Y-113597591D01*
X161184500Y-113625500D01*
X161174586Y-113662500D01*
X161147500Y-113689586D01*
X161110500Y-113699500D01*
X161075180Y-113699500D01*
X161031278Y-113708233D01*
X160981496Y-113741496D01*
X160948233Y-113791278D01*
X160939500Y-113835180D01*
X160939500Y-116264820D01*
X160948233Y-116308722D01*
X160981496Y-116358504D01*
X161031278Y-116391767D01*
X161075180Y-116400500D01*
X161844819Y-116400500D01*
X161844820Y-116400500D01*
X161888722Y-116391767D01*
X161938504Y-116358504D01*
X161971767Y-116308722D01*
X161980500Y-116264820D01*
X161980500Y-113835180D01*
X161971767Y-113791278D01*
X161938504Y-113741496D01*
X161888722Y-113708233D01*
X161844820Y-113699500D01*
X161844819Y-113699500D01*
X161809500Y-113699500D01*
X161772500Y-113689586D01*
X161745414Y-113662500D01*
X161735500Y-113625500D01*
X161735500Y-113597591D01*
X161740166Y-113571731D01*
X161753574Y-113549132D01*
X161842881Y-113446064D01*
X161842880Y-113446064D01*
X161842882Y-113446063D01*
X161896697Y-113328226D01*
X161915133Y-113200000D01*
X161896697Y-113071774D01*
X161842882Y-112953937D01*
X161842881Y-112953936D01*
X161842881Y-112953935D01*
X161808280Y-112914004D01*
X161794377Y-112897959D01*
X161777056Y-112860031D01*
X161782990Y-112818759D01*
X161810296Y-112787247D01*
X161850303Y-112775500D01*
X162339697Y-112775500D01*
X162379704Y-112787247D01*
X162407010Y-112818759D01*
X162412944Y-112860031D01*
X162395622Y-112897960D01*
X162347118Y-112953935D01*
X162293302Y-113071774D01*
X162274867Y-113200000D01*
X162293302Y-113328225D01*
X162347118Y-113446064D01*
X162436426Y-113549132D01*
X162449834Y-113571731D01*
X162454500Y-113597591D01*
X162454500Y-113625500D01*
X162444586Y-113662500D01*
X162417500Y-113689586D01*
X162380500Y-113699500D01*
X162345180Y-113699500D01*
X162301278Y-113708233D01*
X162251496Y-113741496D01*
X162218233Y-113791278D01*
X162209500Y-113835180D01*
X162209500Y-116264820D01*
X162218233Y-116308722D01*
X162251496Y-116358504D01*
X162301278Y-116391767D01*
X162345180Y-116400500D01*
X163114819Y-116400500D01*
X163114820Y-116400500D01*
X163158722Y-116391767D01*
X163208504Y-116358504D01*
X163241767Y-116308722D01*
X163250500Y-116264820D01*
X163250500Y-113835180D01*
X163241767Y-113791278D01*
X163208504Y-113741496D01*
X163158722Y-113708233D01*
X163114820Y-113699500D01*
X163114819Y-113699500D01*
X163079500Y-113699500D01*
X163042500Y-113689586D01*
X163015414Y-113662500D01*
X163005500Y-113625500D01*
X163005500Y-113597591D01*
X163010166Y-113571731D01*
X163023574Y-113549132D01*
X163112881Y-113446064D01*
X163112880Y-113446064D01*
X163112882Y-113446063D01*
X163166697Y-113328226D01*
X163185133Y-113200000D01*
X163166697Y-113071774D01*
X163112882Y-112953937D01*
X163077152Y-112912701D01*
X163059256Y-112869358D01*
X163071005Y-112823959D01*
X163107683Y-112794738D01*
X163154559Y-112793430D01*
X163238058Y-112818759D01*
X163270282Y-112828534D01*
X163283684Y-112834086D01*
X163396081Y-112894163D01*
X163408143Y-112902222D01*
X163506664Y-112983077D01*
X163516922Y-112993335D01*
X163597777Y-113091856D01*
X163605836Y-113103918D01*
X163665913Y-113216315D01*
X163671465Y-113229717D01*
X163708463Y-113351682D01*
X163711293Y-113365910D01*
X163724144Y-113496385D01*
X163724500Y-113503638D01*
X163724500Y-113625500D01*
X163714586Y-113662500D01*
X163687500Y-113689586D01*
X163650500Y-113699500D01*
X163615180Y-113699500D01*
X163571278Y-113708233D01*
X163521496Y-113741496D01*
X163488233Y-113791278D01*
X163479500Y-113835180D01*
X163479500Y-116264820D01*
X163488233Y-116308722D01*
X163521496Y-116358504D01*
X163571278Y-116391767D01*
X163615180Y-116400500D01*
X164384819Y-116400500D01*
X164384820Y-116400500D01*
X164428722Y-116391767D01*
X164478504Y-116358504D01*
X164511767Y-116308722D01*
X164520500Y-116264820D01*
X164749500Y-116264820D01*
X164758233Y-116308722D01*
X164791496Y-116358504D01*
X164841278Y-116391767D01*
X164885180Y-116400500D01*
X165654819Y-116400500D01*
X165654820Y-116400500D01*
X165698722Y-116391767D01*
X165748504Y-116358504D01*
X165781767Y-116308722D01*
X165790500Y-116264820D01*
X166019500Y-116264820D01*
X166028233Y-116308722D01*
X166061496Y-116358504D01*
X166111278Y-116391767D01*
X166155180Y-116400500D01*
X166924819Y-116400500D01*
X166924820Y-116400500D01*
X166968722Y-116391767D01*
X167018504Y-116358504D01*
X167051767Y-116308722D01*
X167060500Y-116264820D01*
X167289500Y-116264820D01*
X167298233Y-116308722D01*
X167331496Y-116358504D01*
X167381278Y-116391767D01*
X167425180Y-116400500D01*
X168194819Y-116400500D01*
X168194820Y-116400500D01*
X168238722Y-116391767D01*
X168288504Y-116358504D01*
X168321767Y-116308722D01*
X168330500Y-116264820D01*
X168330500Y-113835180D01*
X168321767Y-113791278D01*
X168288504Y-113741496D01*
X168238722Y-113708233D01*
X168194820Y-113699500D01*
X168194819Y-113699500D01*
X168159500Y-113699500D01*
X168122500Y-113689586D01*
X168095414Y-113662500D01*
X168085500Y-113625500D01*
X168085500Y-104331996D01*
X168085501Y-104331993D01*
X168085500Y-104287049D01*
X168085856Y-104279799D01*
X168095125Y-104185665D01*
X168098704Y-104149314D01*
X168101530Y-104135104D01*
X168138531Y-104013126D01*
X168144077Y-103999734D01*
X168204163Y-103887317D01*
X168212209Y-103875274D01*
X168295305Y-103774017D01*
X168300163Y-103768657D01*
X168907044Y-103161777D01*
X168931052Y-103145736D01*
X168959371Y-103140103D01*
X169054373Y-103140103D01*
X169054375Y-103140103D01*
X169178672Y-103103607D01*
X169287652Y-103033570D01*
X169372485Y-102935666D01*
X169426300Y-102817829D01*
X169444736Y-102689603D01*
X169426300Y-102561377D01*
X169372485Y-102443540D01*
X169287652Y-102345636D01*
X169178672Y-102275599D01*
X169054375Y-102239103D01*
X168924831Y-102239103D01*
X168809839Y-102272867D01*
X168800534Y-102275599D01*
X168691554Y-102345636D01*
X168606720Y-102443540D01*
X168552905Y-102561377D01*
X168534469Y-102689605D01*
X168537433Y-102710222D01*
X168534399Y-102744121D01*
X168516512Y-102773076D01*
X167942433Y-103347156D01*
X167942429Y-103347160D01*
X167930572Y-103359016D01*
X167930517Y-103359052D01*
X167837092Y-103452479D01*
X167719083Y-103614910D01*
X167627941Y-103793794D01*
X167565901Y-103984745D01*
X167534498Y-104183040D01*
X167534500Y-104263861D01*
X167534500Y-113625500D01*
X167524586Y-113662500D01*
X167497500Y-113689586D01*
X167460500Y-113699500D01*
X167425180Y-113699500D01*
X167381278Y-113708233D01*
X167331496Y-113741496D01*
X167298233Y-113791278D01*
X167289500Y-113835180D01*
X167289500Y-116264820D01*
X167060500Y-116264820D01*
X167060500Y-113835180D01*
X167051767Y-113791278D01*
X167018504Y-113741496D01*
X166968722Y-113708233D01*
X166924820Y-113699500D01*
X166924819Y-113699500D01*
X166889500Y-113699500D01*
X166852500Y-113689586D01*
X166825414Y-113662500D01*
X166815500Y-113625500D01*
X166815500Y-112757591D01*
X166820166Y-112731731D01*
X166833574Y-112709132D01*
X166922881Y-112606064D01*
X166922880Y-112606064D01*
X166922882Y-112606063D01*
X166976697Y-112488226D01*
X166995133Y-112360000D01*
X166976697Y-112231774D01*
X166922882Y-112113937D01*
X166838049Y-112016033D01*
X166729069Y-111945996D01*
X166604772Y-111909500D01*
X166475228Y-111909500D01*
X166350930Y-111945996D01*
X166350931Y-111945996D01*
X166241951Y-112016033D01*
X166157117Y-112113937D01*
X166103302Y-112231774D01*
X166084867Y-112360000D01*
X166103302Y-112488225D01*
X166157118Y-112606064D01*
X166246426Y-112709132D01*
X166259834Y-112731731D01*
X166264500Y-112757591D01*
X166264500Y-113625500D01*
X166254586Y-113662500D01*
X166227500Y-113689586D01*
X166190500Y-113699500D01*
X166155180Y-113699500D01*
X166111278Y-113708233D01*
X166061496Y-113741496D01*
X166028233Y-113791278D01*
X166019500Y-113835180D01*
X166019500Y-116264820D01*
X165790500Y-116264820D01*
X165790500Y-113835180D01*
X165781767Y-113791278D01*
X165748504Y-113741496D01*
X165698722Y-113708233D01*
X165654820Y-113699500D01*
X164885180Y-113699500D01*
X164841278Y-113708233D01*
X164791496Y-113741496D01*
X164758233Y-113791278D01*
X164749500Y-113835180D01*
X164749500Y-116264820D01*
X164520500Y-116264820D01*
X164520500Y-113835180D01*
X164511767Y-113791278D01*
X164478504Y-113741496D01*
X164428722Y-113708233D01*
X164384820Y-113699500D01*
X164384819Y-113699500D01*
X164349500Y-113699500D01*
X164312500Y-113689586D01*
X164285414Y-113662500D01*
X164275500Y-113625500D01*
X164275500Y-113399616D01*
X164264193Y-113328225D01*
X164244093Y-113201320D01*
X164182052Y-113010378D01*
X164090905Y-112831492D01*
X163972897Y-112669068D01*
X163830932Y-112527103D01*
X163830932Y-112527102D01*
X163830930Y-112527101D01*
X163742098Y-112462561D01*
X163668508Y-112409095D01*
X163651639Y-112400500D01*
X163489623Y-112317948D01*
X163298681Y-112255907D01*
X163100384Y-112224500D01*
X163027133Y-112224500D01*
X161091170Y-112224500D01*
X161060429Y-112217813D01*
X161035246Y-112198961D01*
X160998049Y-112156033D01*
X160889069Y-112085996D01*
X160764772Y-112049500D01*
X160635228Y-112049500D01*
X160510931Y-112085995D01*
X160510931Y-112085996D01*
X160401951Y-112156033D01*
X160317117Y-112253937D01*
X160263302Y-112371774D01*
X160244867Y-112500000D01*
X155775500Y-112500000D01*
X155775500Y-108347591D01*
X155780166Y-108321731D01*
X155793574Y-108299132D01*
X155873289Y-108207134D01*
X155882882Y-108196063D01*
X155936697Y-108078226D01*
X155955133Y-107950000D01*
X155936697Y-107821774D01*
X155882882Y-107703937D01*
X155798049Y-107606033D01*
X155689069Y-107535996D01*
X155564772Y-107499500D01*
X155435228Y-107499500D01*
X155310930Y-107535996D01*
X155310931Y-107535996D01*
X155201951Y-107606033D01*
X155117117Y-107703937D01*
X155063302Y-107821774D01*
X155044867Y-107949999D01*
X155063302Y-108078225D01*
X155117118Y-108196064D01*
X155206426Y-108299132D01*
X155219834Y-108321731D01*
X155224500Y-108347591D01*
X155224500Y-120896362D01*
X155224144Y-120903616D01*
X155211293Y-121034090D01*
X155208463Y-121048317D01*
X155171465Y-121170282D01*
X155165913Y-121183684D01*
X155105836Y-121296081D01*
X155097777Y-121308143D01*
X155016922Y-121406664D01*
X155006664Y-121416922D01*
X154908143Y-121497777D01*
X154896081Y-121505836D01*
X154783684Y-121565913D01*
X154770282Y-121571465D01*
X154648317Y-121608463D01*
X154634090Y-121611293D01*
X154541137Y-121620448D01*
X154503613Y-121624144D01*
X154496362Y-121624500D01*
X143463638Y-121624500D01*
X143456385Y-121624144D01*
X143455674Y-121624074D01*
X143441799Y-121622707D01*
X143325910Y-121611293D01*
X143311682Y-121608463D01*
X143189717Y-121571465D01*
X143176315Y-121565913D01*
X143063918Y-121505836D01*
X143051856Y-121497777D01*
X142953335Y-121416922D01*
X142943077Y-121406664D01*
X142862222Y-121308143D01*
X142854163Y-121296081D01*
X142794086Y-121183684D01*
X142788534Y-121170282D01*
X142782533Y-121150500D01*
X142751534Y-121048311D01*
X142748707Y-121034094D01*
X142735855Y-120903614D01*
X142735500Y-120896362D01*
X142735500Y-120374500D01*
X142745414Y-120337500D01*
X142772500Y-120310414D01*
X142809500Y-120300500D01*
X142844819Y-120300500D01*
X142844820Y-120300500D01*
X142888722Y-120291767D01*
X142938504Y-120258504D01*
X142971767Y-120208722D01*
X142980500Y-120164820D01*
X143209500Y-120164820D01*
X143218233Y-120208722D01*
X143251496Y-120258504D01*
X143301278Y-120291767D01*
X143345180Y-120300500D01*
X143380500Y-120300500D01*
X143417500Y-120310414D01*
X143444586Y-120337500D01*
X143454500Y-120374500D01*
X143454500Y-120402409D01*
X143449834Y-120428269D01*
X143436426Y-120450868D01*
X143347118Y-120553935D01*
X143293302Y-120671774D01*
X143274867Y-120799999D01*
X143293302Y-120928225D01*
X143347117Y-121046062D01*
X143347118Y-121046063D01*
X143431951Y-121143967D01*
X143540931Y-121214004D01*
X143665228Y-121250500D01*
X143794770Y-121250500D01*
X143794772Y-121250500D01*
X143919069Y-121214004D01*
X144028049Y-121143967D01*
X144112882Y-121046063D01*
X144166697Y-120928226D01*
X144185133Y-120800000D01*
X144166697Y-120671774D01*
X144112882Y-120553937D01*
X144112881Y-120553936D01*
X144112881Y-120553935D01*
X144023574Y-120450868D01*
X144010166Y-120428269D01*
X144005500Y-120402409D01*
X144005500Y-120374500D01*
X144015414Y-120337500D01*
X144042500Y-120310414D01*
X144079500Y-120300500D01*
X144114819Y-120300500D01*
X144114820Y-120300500D01*
X144158722Y-120291767D01*
X144208504Y-120258504D01*
X144241767Y-120208722D01*
X144250500Y-120164820D01*
X144250500Y-119299500D01*
X144260414Y-119262500D01*
X144287500Y-119235414D01*
X144324500Y-119225500D01*
X144405500Y-119225500D01*
X144442500Y-119235414D01*
X144469586Y-119262500D01*
X144479500Y-119299500D01*
X144479500Y-120164820D01*
X144488233Y-120208722D01*
X144521496Y-120258504D01*
X144571278Y-120291767D01*
X144615180Y-120300500D01*
X144650500Y-120300500D01*
X144687500Y-120310414D01*
X144714586Y-120337500D01*
X144724500Y-120374500D01*
X144724500Y-120402409D01*
X144719834Y-120428269D01*
X144706426Y-120450868D01*
X144617118Y-120553935D01*
X144563302Y-120671774D01*
X144544867Y-120799999D01*
X144563302Y-120928225D01*
X144617117Y-121046062D01*
X144617118Y-121046063D01*
X144701951Y-121143967D01*
X144810931Y-121214004D01*
X144935228Y-121250500D01*
X145064770Y-121250500D01*
X145064772Y-121250500D01*
X145189069Y-121214004D01*
X145298049Y-121143967D01*
X145382882Y-121046063D01*
X145436697Y-120928226D01*
X145455133Y-120800000D01*
X145436697Y-120671774D01*
X145382882Y-120553937D01*
X145382881Y-120553936D01*
X145382881Y-120553935D01*
X145293574Y-120450868D01*
X145280166Y-120428269D01*
X145275500Y-120402409D01*
X145275500Y-120374500D01*
X145285414Y-120337500D01*
X145312500Y-120310414D01*
X145349500Y-120300500D01*
X145384819Y-120300500D01*
X145384820Y-120300500D01*
X145428722Y-120291767D01*
X145478504Y-120258504D01*
X145511767Y-120208722D01*
X145520500Y-120164820D01*
X145749500Y-120164820D01*
X145758233Y-120208722D01*
X145791496Y-120258504D01*
X145841278Y-120291767D01*
X145885180Y-120300500D01*
X146654819Y-120300500D01*
X146654820Y-120300500D01*
X146698722Y-120291767D01*
X146748504Y-120258504D01*
X146781767Y-120208722D01*
X146790500Y-120164820D01*
X147019500Y-120164820D01*
X147028233Y-120208722D01*
X147061496Y-120258504D01*
X147111278Y-120291767D01*
X147155180Y-120300500D01*
X147190500Y-120300500D01*
X147227500Y-120310414D01*
X147254586Y-120337500D01*
X147264500Y-120374500D01*
X147264500Y-120402409D01*
X147259834Y-120428269D01*
X147246426Y-120450868D01*
X147157118Y-120553935D01*
X147103302Y-120671774D01*
X147084867Y-120799999D01*
X147103302Y-120928225D01*
X147157117Y-121046062D01*
X147157118Y-121046063D01*
X147241951Y-121143967D01*
X147350931Y-121214004D01*
X147475228Y-121250500D01*
X147604770Y-121250500D01*
X147604772Y-121250500D01*
X147729069Y-121214004D01*
X147838049Y-121143967D01*
X147922882Y-121046063D01*
X147976697Y-120928226D01*
X147995133Y-120800000D01*
X147976697Y-120671774D01*
X147922882Y-120553937D01*
X147922881Y-120553936D01*
X147922881Y-120553935D01*
X147833574Y-120450868D01*
X147820166Y-120428269D01*
X147815500Y-120402409D01*
X147815500Y-120374500D01*
X147825414Y-120337500D01*
X147852500Y-120310414D01*
X147889500Y-120300500D01*
X147924819Y-120300500D01*
X147924820Y-120300500D01*
X147968722Y-120291767D01*
X148018504Y-120258504D01*
X148051767Y-120208722D01*
X148060500Y-120164820D01*
X148060500Y-117735180D01*
X148051767Y-117691278D01*
X148018504Y-117641496D01*
X147968722Y-117608233D01*
X147924820Y-117599500D01*
X147155180Y-117599500D01*
X147111278Y-117608233D01*
X147061496Y-117641496D01*
X147028233Y-117691278D01*
X147019500Y-117735180D01*
X147019500Y-120164820D01*
X146790500Y-120164820D01*
X146790500Y-117735180D01*
X146781767Y-117691278D01*
X146748504Y-117641496D01*
X146698722Y-117608233D01*
X146654820Y-117599500D01*
X145885180Y-117599500D01*
X145841278Y-117608233D01*
X145791496Y-117641496D01*
X145758233Y-117691278D01*
X145749500Y-117735180D01*
X145749500Y-120164820D01*
X145520500Y-120164820D01*
X145520500Y-117735180D01*
X145511767Y-117691278D01*
X145478504Y-117641496D01*
X145428722Y-117608233D01*
X145384820Y-117599500D01*
X144615180Y-117599500D01*
X144571277Y-117608233D01*
X144571278Y-117608233D01*
X144521496Y-117641496D01*
X144488233Y-117691278D01*
X144479500Y-117735181D01*
X144479500Y-118600500D01*
X144469586Y-118637500D01*
X144442500Y-118664586D01*
X144405500Y-118674500D01*
X144324500Y-118674500D01*
X144287500Y-118664586D01*
X144260414Y-118637500D01*
X144250500Y-118600500D01*
X144250500Y-117735181D01*
X144250500Y-117735180D01*
X144241767Y-117691278D01*
X144208504Y-117641496D01*
X144158722Y-117608233D01*
X144114820Y-117599500D01*
X143345180Y-117599500D01*
X143301278Y-117608233D01*
X143251496Y-117641496D01*
X143218233Y-117691278D01*
X143209500Y-117735180D01*
X143209500Y-120164820D01*
X142980500Y-120164820D01*
X142980500Y-117735180D01*
X142971767Y-117691278D01*
X142938504Y-117641496D01*
X142888722Y-117608233D01*
X142844820Y-117599500D01*
X142075180Y-117599500D01*
X142031278Y-117608233D01*
X141981496Y-117641496D01*
X141948233Y-117691278D01*
X141939500Y-117735180D01*
X141939500Y-120164820D01*
X132945900Y-120164820D01*
X132955500Y-120000000D01*
X132935516Y-119656887D01*
X132875834Y-119318415D01*
X132777262Y-118989159D01*
X132641131Y-118673574D01*
X132469284Y-118375926D01*
X132264044Y-118100241D01*
X132028187Y-117850247D01*
X132028185Y-117850245D01*
X132028182Y-117850242D01*
X131764905Y-117629327D01*
X131477750Y-117440462D01*
X131170610Y-117286210D01*
X130847648Y-117168662D01*
X130513222Y-117089402D01*
X130513220Y-117089401D01*
X130513217Y-117089401D01*
X130171847Y-117049500D01*
X129828153Y-117049500D01*
X129486783Y-117089401D01*
X129486780Y-117089401D01*
X129486777Y-117089402D01*
X129152351Y-117168662D01*
X128829389Y-117286210D01*
X128522249Y-117440462D01*
X128235094Y-117629327D01*
X127971817Y-117850242D01*
X127735954Y-118100242D01*
X127530716Y-118375925D01*
X127438586Y-118535500D01*
X127402819Y-118566867D01*
X127355347Y-118569979D01*
X127315792Y-118543548D01*
X127300500Y-118498500D01*
X127300500Y-111249999D01*
X128594570Y-111249999D01*
X128614243Y-111462309D01*
X128672594Y-111667389D01*
X128767632Y-111858254D01*
X128894024Y-112025621D01*
X128896128Y-112028407D01*
X129053698Y-112172052D01*
X129234981Y-112284298D01*
X129433802Y-112361321D01*
X129643390Y-112400500D01*
X129856609Y-112400500D01*
X129856610Y-112400500D01*
X130066198Y-112361321D01*
X130265019Y-112284298D01*
X130446302Y-112172052D01*
X130603872Y-112028407D01*
X130732366Y-111858255D01*
X130827405Y-111667389D01*
X130852483Y-111579248D01*
X130879064Y-111540446D01*
X130923659Y-111525500D01*
X135076341Y-111525500D01*
X135120936Y-111540446D01*
X135147516Y-111579248D01*
X135172594Y-111667387D01*
X135172596Y-111667391D01*
X135267633Y-111858254D01*
X135386113Y-112015146D01*
X135396128Y-112028407D01*
X135553698Y-112172052D01*
X135734981Y-112284298D01*
X135933802Y-112361321D01*
X136143390Y-112400500D01*
X136356609Y-112400500D01*
X136356610Y-112400500D01*
X136566198Y-112361321D01*
X136765019Y-112284298D01*
X136795261Y-112265572D01*
X136842746Y-112254980D01*
X136886545Y-112276161D01*
X141490620Y-116880236D01*
X141490650Y-116880281D01*
X141512293Y-116901924D01*
X141512294Y-116901924D01*
X141583278Y-116972905D01*
X141745693Y-117090905D01*
X141745707Y-117090915D01*
X141924594Y-117182059D01*
X142086112Y-117234537D01*
X142115536Y-117244097D01*
X142313833Y-117275501D01*
X142414218Y-117275500D01*
X146491422Y-117275500D01*
X146567133Y-117275500D01*
X146640384Y-117275500D01*
X146838680Y-117244093D01*
X147029622Y-117182052D01*
X147208508Y-117090905D01*
X147370932Y-116972897D01*
X147512897Y-116830932D01*
X147630905Y-116668508D01*
X147722052Y-116489622D01*
X147734396Y-116451630D01*
X147761278Y-116414632D01*
X147804774Y-116400500D01*
X147924819Y-116400500D01*
X147924820Y-116400500D01*
X147968722Y-116391767D01*
X148018504Y-116358504D01*
X148051767Y-116308722D01*
X148060500Y-116264820D01*
X148060500Y-115399500D01*
X148070414Y-115362500D01*
X148097500Y-115335414D01*
X148134500Y-115325500D01*
X151059865Y-115325500D01*
X151090606Y-115332187D01*
X151115788Y-115351038D01*
X151152986Y-115393967D01*
X151261966Y-115464004D01*
X151386263Y-115500500D01*
X151515805Y-115500500D01*
X151515807Y-115500500D01*
X151640104Y-115464004D01*
X151749084Y-115393967D01*
X151833917Y-115296063D01*
X151887732Y-115178226D01*
X151906168Y-115050000D01*
X151887732Y-114921774D01*
X151833917Y-114803937D01*
X151749084Y-114706033D01*
X151640104Y-114635996D01*
X151515807Y-114599500D01*
X151386263Y-114599500D01*
X151261966Y-114635996D01*
X151152986Y-114706033D01*
X151115788Y-114748961D01*
X151090606Y-114767813D01*
X151059865Y-114774500D01*
X148134500Y-114774500D01*
X148097500Y-114764586D01*
X148070414Y-114737500D01*
X148060500Y-114700500D01*
X148060500Y-113835181D01*
X148060500Y-113835180D01*
X148051767Y-113791278D01*
X148018504Y-113741496D01*
X147968722Y-113708233D01*
X147924820Y-113699500D01*
X147155180Y-113699500D01*
X147111278Y-113708233D01*
X147061496Y-113741496D01*
X147028233Y-113791278D01*
X147019500Y-113835180D01*
X147019500Y-116264820D01*
X147028233Y-116308722D01*
X147061495Y-116358503D01*
X147061496Y-116358504D01*
X147069184Y-116363641D01*
X147095477Y-116394629D01*
X147101440Y-116434829D01*
X147085275Y-116472115D01*
X147056921Y-116506664D01*
X147046664Y-116516922D01*
X146948143Y-116597777D01*
X146936081Y-116605836D01*
X146823684Y-116665913D01*
X146810282Y-116671465D01*
X146688317Y-116708463D01*
X146674090Y-116711293D01*
X146581137Y-116720448D01*
X146543613Y-116724144D01*
X146536362Y-116724500D01*
X142474799Y-116724500D01*
X142474793Y-116724499D01*
X142417846Y-116724499D01*
X142410594Y-116724143D01*
X142280119Y-116711295D01*
X142265891Y-116708465D01*
X142143931Y-116671470D01*
X142130528Y-116665919D01*
X142018118Y-116605836D01*
X142006057Y-116597776D01*
X141904799Y-116514678D01*
X141899417Y-116509801D01*
X141654436Y-116264820D01*
X141939500Y-116264820D01*
X141948233Y-116308722D01*
X141981496Y-116358504D01*
X142031278Y-116391767D01*
X142075180Y-116400500D01*
X142844819Y-116400500D01*
X142844820Y-116400500D01*
X142888722Y-116391767D01*
X142938504Y-116358504D01*
X142971767Y-116308722D01*
X142980500Y-116264820D01*
X143209500Y-116264820D01*
X143218233Y-116308722D01*
X143251496Y-116358504D01*
X143301278Y-116391767D01*
X143345180Y-116400500D01*
X144114819Y-116400500D01*
X144114820Y-116400500D01*
X144158722Y-116391767D01*
X144208504Y-116358504D01*
X144241767Y-116308722D01*
X144250500Y-116264820D01*
X144479500Y-116264820D01*
X144488233Y-116308722D01*
X144521496Y-116358504D01*
X144571278Y-116391767D01*
X144615180Y-116400500D01*
X145384819Y-116400500D01*
X145384820Y-116400500D01*
X145428722Y-116391767D01*
X145478504Y-116358504D01*
X145511767Y-116308722D01*
X145520500Y-116264820D01*
X145749500Y-116264820D01*
X145758233Y-116308722D01*
X145791496Y-116358504D01*
X145841278Y-116391767D01*
X145885180Y-116400500D01*
X146654819Y-116400500D01*
X146654820Y-116400500D01*
X146698722Y-116391767D01*
X146748504Y-116358504D01*
X146781767Y-116308722D01*
X146790500Y-116264820D01*
X146790500Y-113835180D01*
X146781767Y-113791278D01*
X146748504Y-113741496D01*
X146698722Y-113708233D01*
X146654820Y-113699500D01*
X145885180Y-113699500D01*
X145841278Y-113708233D01*
X145791496Y-113741496D01*
X145758233Y-113791278D01*
X145749500Y-113835180D01*
X145749500Y-116264820D01*
X145520500Y-116264820D01*
X145520500Y-113835180D01*
X145511767Y-113791278D01*
X145478504Y-113741496D01*
X145428722Y-113708233D01*
X145384820Y-113699500D01*
X144615180Y-113699500D01*
X144571278Y-113708233D01*
X144521496Y-113741496D01*
X144488233Y-113791278D01*
X144479500Y-113835180D01*
X144479500Y-116264820D01*
X144250500Y-116264820D01*
X144250500Y-113835180D01*
X144241767Y-113791278D01*
X144208504Y-113741496D01*
X144158722Y-113708233D01*
X144114820Y-113699500D01*
X144114819Y-113699500D01*
X144079500Y-113699500D01*
X144042500Y-113689586D01*
X144015414Y-113662500D01*
X144005500Y-113625500D01*
X144005500Y-111874153D01*
X144005965Y-111865867D01*
X144016793Y-111769773D01*
X144019474Y-111745981D01*
X144023159Y-111729840D01*
X144061622Y-111619921D01*
X144068809Y-111604996D01*
X144130770Y-111506386D01*
X144141092Y-111493443D01*
X144223445Y-111411091D01*
X144236391Y-111400767D01*
X144274415Y-111376875D01*
X144314161Y-111365535D01*
X144353790Y-111377281D01*
X144410931Y-111414004D01*
X144535228Y-111450500D01*
X144664770Y-111450500D01*
X144664772Y-111450500D01*
X144789069Y-111414004D01*
X144898049Y-111343967D01*
X144982882Y-111246063D01*
X145036697Y-111128226D01*
X145040755Y-111100000D01*
X153545902Y-111100000D01*
X153564337Y-111228225D01*
X153618152Y-111346062D01*
X153618153Y-111346063D01*
X153702986Y-111443967D01*
X153811966Y-111514004D01*
X153936263Y-111550500D01*
X154065805Y-111550500D01*
X154065807Y-111550500D01*
X154190104Y-111514004D01*
X154299084Y-111443967D01*
X154383917Y-111346063D01*
X154437732Y-111228226D01*
X154456168Y-111100000D01*
X154437732Y-110971774D01*
X154383917Y-110853937D01*
X154299084Y-110756033D01*
X154190104Y-110685996D01*
X154065807Y-110649500D01*
X153936263Y-110649500D01*
X153811966Y-110685995D01*
X153811966Y-110685996D01*
X153702986Y-110756033D01*
X153618152Y-110853937D01*
X153564337Y-110971774D01*
X153545902Y-111100000D01*
X145040755Y-111100000D01*
X145055133Y-111000000D01*
X145036697Y-110871774D01*
X144982882Y-110753937D01*
X144898049Y-110656033D01*
X144789069Y-110585996D01*
X144664772Y-110549500D01*
X144535228Y-110549500D01*
X144410931Y-110585995D01*
X144410931Y-110585996D01*
X144301949Y-110656034D01*
X144217117Y-110753937D01*
X144210052Y-110769407D01*
X144192949Y-110793023D01*
X144168052Y-110808199D01*
X144114043Y-110827857D01*
X143940459Y-110928075D01*
X143786921Y-111056908D01*
X143658080Y-111210452D01*
X143557861Y-111384034D01*
X143497272Y-111550500D01*
X143489308Y-111572381D01*
X143482313Y-111612052D01*
X143454500Y-111769773D01*
X143454500Y-113625500D01*
X143444586Y-113662500D01*
X143417500Y-113689586D01*
X143380500Y-113699500D01*
X143345180Y-113699500D01*
X143301278Y-113708233D01*
X143251496Y-113741496D01*
X143218233Y-113791278D01*
X143209500Y-113835180D01*
X143209500Y-116264820D01*
X142980500Y-116264820D01*
X142980500Y-113835180D01*
X142971767Y-113791278D01*
X142938504Y-113741496D01*
X142888722Y-113708233D01*
X142844820Y-113699500D01*
X142844819Y-113699500D01*
X142809500Y-113699500D01*
X142772500Y-113689586D01*
X142745414Y-113662500D01*
X142735500Y-113625500D01*
X142735500Y-113537591D01*
X142740166Y-113511731D01*
X142753574Y-113489132D01*
X142842881Y-113386064D01*
X142842880Y-113386064D01*
X142842882Y-113386063D01*
X142896697Y-113268226D01*
X142915133Y-113140000D01*
X142896697Y-113011774D01*
X142842882Y-112893937D01*
X142758049Y-112796033D01*
X142649069Y-112725996D01*
X142524772Y-112689500D01*
X142395228Y-112689500D01*
X142296604Y-112718458D01*
X142270931Y-112725996D01*
X142161951Y-112796033D01*
X142077117Y-112893937D01*
X142023302Y-113011774D01*
X142004867Y-113139999D01*
X142023302Y-113268225D01*
X142077118Y-113386064D01*
X142166426Y-113489132D01*
X142179834Y-113511731D01*
X142184500Y-113537591D01*
X142184500Y-113625500D01*
X142174586Y-113662500D01*
X142147500Y-113689586D01*
X142110500Y-113699500D01*
X142075180Y-113699500D01*
X142031278Y-113708233D01*
X141981496Y-113741496D01*
X141948233Y-113791278D01*
X141939500Y-113835180D01*
X141939500Y-116264820D01*
X141654436Y-116264820D01*
X137275168Y-111885552D01*
X137254459Y-111845140D01*
X137261251Y-111800244D01*
X137327405Y-111667389D01*
X137385756Y-111462310D01*
X137405429Y-111250000D01*
X137385756Y-111037690D01*
X137352484Y-110920752D01*
X137327405Y-110832610D01*
X137232367Y-110641745D01*
X137103874Y-110471596D01*
X137103872Y-110471593D01*
X136946302Y-110327948D01*
X136765019Y-110215702D01*
X136566198Y-110138679D01*
X136356610Y-110099500D01*
X136143390Y-110099500D01*
X136038595Y-110119089D01*
X135933801Y-110138679D01*
X135734980Y-110215702D01*
X135553701Y-110327946D01*
X135553698Y-110327948D01*
X135396128Y-110471593D01*
X135396125Y-110471596D01*
X135267633Y-110641745D01*
X135172596Y-110832608D01*
X135147516Y-110920752D01*
X135120936Y-110959554D01*
X135076341Y-110974500D01*
X130923659Y-110974500D01*
X130879064Y-110959554D01*
X130852484Y-110920752D01*
X130838548Y-110871774D01*
X130827405Y-110832611D01*
X130761251Y-110699755D01*
X130754459Y-110654858D01*
X130775166Y-110614448D01*
X132400235Y-108989380D01*
X132400281Y-108989349D01*
X132421923Y-108967705D01*
X132421924Y-108967706D01*
X132492905Y-108896722D01*
X132610913Y-108734296D01*
X132702058Y-108555408D01*
X132764097Y-108364464D01*
X132795501Y-108166167D01*
X132795500Y-108065782D01*
X132795500Y-108052906D01*
X132795500Y-106750000D01*
X135094570Y-106750000D01*
X135114243Y-106962309D01*
X135172594Y-107167389D01*
X135267632Y-107358254D01*
X135374298Y-107499500D01*
X135396128Y-107528407D01*
X135553698Y-107672052D01*
X135734981Y-107784298D01*
X135933802Y-107861321D01*
X136143390Y-107900500D01*
X136356609Y-107900500D01*
X136356610Y-107900500D01*
X136566198Y-107861321D01*
X136765019Y-107784298D01*
X136946302Y-107672052D01*
X137103872Y-107528407D01*
X137232366Y-107358255D01*
X137232365Y-107358255D01*
X137232367Y-107358254D01*
X137327405Y-107167389D01*
X137385756Y-106962309D01*
X137405429Y-106750000D01*
X137385756Y-106537690D01*
X137327405Y-106332610D01*
X137232367Y-106141745D01*
X137103874Y-105971596D01*
X137103872Y-105971593D01*
X136946302Y-105827948D01*
X136765019Y-105715702D01*
X136566198Y-105638679D01*
X136356610Y-105599500D01*
X136143390Y-105599500D01*
X136121420Y-105603607D01*
X135933801Y-105638679D01*
X135734980Y-105715702D01*
X135553701Y-105827946D01*
X135553698Y-105827948D01*
X135396128Y-105971593D01*
X135396125Y-105971596D01*
X135267632Y-106141745D01*
X135172594Y-106332610D01*
X135114243Y-106537690D01*
X135094570Y-106750000D01*
X132795500Y-106750000D01*
X132795500Y-103475947D01*
X132807482Y-103435576D01*
X132819222Y-103425581D01*
X132817235Y-103423594D01*
X132827018Y-103413811D01*
X132903813Y-103337016D01*
X132932306Y-103272484D01*
X132959601Y-103240377D01*
X133000000Y-103228376D01*
X133040399Y-103240377D01*
X133067693Y-103272484D01*
X133096187Y-103337016D01*
X133172984Y-103413813D01*
X133272338Y-103457682D01*
X133296627Y-103460500D01*
X133663372Y-103460499D01*
X133663373Y-103460499D01*
X133671468Y-103459559D01*
X133687662Y-103457682D01*
X133787016Y-103413813D01*
X133863813Y-103337016D01*
X133863813Y-103337015D01*
X133873594Y-103327235D01*
X133874736Y-103328377D01*
X133894477Y-103307229D01*
X133942639Y-103299990D01*
X133984868Y-103324252D01*
X134001951Y-103343967D01*
X134110931Y-103414004D01*
X134235228Y-103450500D01*
X134364770Y-103450500D01*
X134364772Y-103450500D01*
X134489069Y-103414004D01*
X134598049Y-103343967D01*
X134682882Y-103246063D01*
X134736697Y-103128226D01*
X134755133Y-103000000D01*
X134736697Y-102871774D01*
X134682882Y-102753937D01*
X134598049Y-102656033D01*
X134489069Y-102585996D01*
X134364772Y-102549500D01*
X134235228Y-102549500D01*
X134110930Y-102585996D01*
X134110931Y-102585996D01*
X134001948Y-102656035D01*
X133984867Y-102675748D01*
X133942639Y-102700008D01*
X133894479Y-102692772D01*
X133874736Y-102671622D01*
X133873594Y-102672765D01*
X133856862Y-102656033D01*
X133787016Y-102586187D01*
X133687662Y-102542318D01*
X133687660Y-102542317D01*
X133666559Y-102539869D01*
X133663372Y-102539500D01*
X133296626Y-102539500D01*
X133272339Y-102542317D01*
X133172984Y-102586187D01*
X133096186Y-102662985D01*
X133067693Y-102727514D01*
X133040397Y-102759623D01*
X132999998Y-102771623D01*
X132959600Y-102759622D01*
X132932306Y-102727516D01*
X132903813Y-102662984D01*
X132827016Y-102586187D01*
X132727662Y-102542318D01*
X132727660Y-102542317D01*
X132706559Y-102539869D01*
X132703372Y-102539500D01*
X132336626Y-102539500D01*
X132312339Y-102542317D01*
X132269173Y-102561377D01*
X132212984Y-102586187D01*
X132136187Y-102662984D01*
X132120302Y-102698960D01*
X132092317Y-102762339D01*
X132089500Y-102786627D01*
X132089500Y-103213373D01*
X132092317Y-103237660D01*
X132101501Y-103258460D01*
X132136187Y-103337016D01*
X132180669Y-103381498D01*
X132222765Y-103423594D01*
X132220777Y-103425581D01*
X132232518Y-103435576D01*
X132244500Y-103475947D01*
X132244500Y-108005201D01*
X132244499Y-108005207D01*
X132244499Y-108062153D01*
X132244143Y-108069405D01*
X132231295Y-108199880D01*
X132228465Y-108214108D01*
X132191470Y-108336068D01*
X132185919Y-108349471D01*
X132125838Y-108461878D01*
X132117778Y-108473940D01*
X132034674Y-108575204D01*
X132029797Y-108580585D01*
X130386544Y-110223838D01*
X130342746Y-110245019D01*
X130295263Y-110234428D01*
X130265019Y-110215702D01*
X130066198Y-110138679D01*
X129856610Y-110099500D01*
X129643390Y-110099500D01*
X129538595Y-110119089D01*
X129433801Y-110138679D01*
X129234980Y-110215702D01*
X129053701Y-110327946D01*
X129053698Y-110327948D01*
X128896128Y-110471593D01*
X128896125Y-110471596D01*
X128767632Y-110641745D01*
X128672594Y-110832610D01*
X128614243Y-111037690D01*
X128594570Y-111249999D01*
X127300500Y-111249999D01*
X127300500Y-106750000D01*
X128594570Y-106750000D01*
X128614243Y-106962309D01*
X128672594Y-107167389D01*
X128767632Y-107358254D01*
X128874298Y-107499500D01*
X128896128Y-107528407D01*
X129053698Y-107672052D01*
X129234981Y-107784298D01*
X129433802Y-107861321D01*
X129643390Y-107900500D01*
X129856609Y-107900500D01*
X129856610Y-107900500D01*
X130066198Y-107861321D01*
X130265019Y-107784298D01*
X130446302Y-107672052D01*
X130603872Y-107528407D01*
X130732366Y-107358255D01*
X130732365Y-107358255D01*
X130732367Y-107358254D01*
X130827405Y-107167389D01*
X130885756Y-106962309D01*
X130905429Y-106750000D01*
X130885756Y-106537690D01*
X130827405Y-106332610D01*
X130732367Y-106141745D01*
X130603874Y-105971596D01*
X130603872Y-105971593D01*
X130446302Y-105827948D01*
X130265019Y-105715702D01*
X130066198Y-105638679D01*
X129856610Y-105599500D01*
X129643390Y-105599500D01*
X129621420Y-105603607D01*
X129433801Y-105638679D01*
X129234980Y-105715702D01*
X129053701Y-105827946D01*
X129053698Y-105827948D01*
X128896128Y-105971593D01*
X128896125Y-105971596D01*
X128767632Y-106141745D01*
X128672594Y-106332610D01*
X128614243Y-106537690D01*
X128594570Y-106750000D01*
X127300500Y-106750000D01*
X127300500Y-101729500D01*
X127310414Y-101692500D01*
X127337500Y-101665414D01*
X127374500Y-101655500D01*
X136426001Y-101655500D01*
X136432707Y-101654617D01*
X136466246Y-101650202D01*
X136503246Y-101640288D01*
X136531622Y-101628534D01*
X136540748Y-101624754D01*
X136540748Y-101624753D01*
X136540750Y-101624753D01*
X136572955Y-101600041D01*
X136600041Y-101572955D01*
X136624753Y-101540750D01*
X136640288Y-101503246D01*
X136650202Y-101466246D01*
X136655500Y-101426000D01*
X136655500Y-98704499D01*
X136665414Y-98667499D01*
X136692500Y-98640413D01*
X136729500Y-98630499D01*
X136990124Y-98630499D01*
X137002060Y-98629114D01*
X137013998Y-98627730D01*
X137111641Y-98584616D01*
X137187116Y-98509141D01*
X137187116Y-98509140D01*
X137189083Y-98507174D01*
X137213090Y-98491133D01*
X137241409Y-98485500D01*
X137517495Y-98485500D01*
X137548236Y-98492187D01*
X137573418Y-98511038D01*
X137601951Y-98543967D01*
X137710931Y-98614004D01*
X137835228Y-98650500D01*
X137964770Y-98650500D01*
X137964772Y-98650500D01*
X138089069Y-98614004D01*
X138198049Y-98543967D01*
X138250921Y-98482948D01*
X138284314Y-98460922D01*
X138324292Y-98459494D01*
X138359172Y-98479082D01*
X145743213Y-105863123D01*
X145758572Y-105876586D01*
X145862390Y-105956159D01*
X145897714Y-105976502D01*
X145897716Y-105976503D01*
X146018641Y-106026360D01*
X146018645Y-106026361D01*
X146058042Y-106036825D01*
X146187775Y-106053544D01*
X146204080Y-106054563D01*
X146208157Y-106054818D01*
X146208159Y-106054817D01*
X146208160Y-106054818D01*
X160753148Y-106007129D01*
X160773397Y-106005738D01*
X160902226Y-105988384D01*
X160941327Y-105977793D01*
X161061304Y-105927751D01*
X161096342Y-105907419D01*
X161199322Y-105828086D01*
X161227919Y-105799395D01*
X161306914Y-105696156D01*
X161327131Y-105661051D01*
X161376779Y-105540910D01*
X161387242Y-105501776D01*
X161404175Y-105372889D01*
X161405500Y-105352634D01*
X161405500Y-105100000D01*
X163844867Y-105100000D01*
X163863302Y-105228225D01*
X163917117Y-105346062D01*
X163917118Y-105346063D01*
X164001951Y-105443967D01*
X164110931Y-105514004D01*
X164235228Y-105550500D01*
X164364770Y-105550500D01*
X164364772Y-105550500D01*
X164489069Y-105514004D01*
X164598049Y-105443967D01*
X164682882Y-105346063D01*
X164736697Y-105228226D01*
X164755133Y-105100000D01*
X165244867Y-105100000D01*
X165263302Y-105228225D01*
X165317117Y-105346062D01*
X165317118Y-105346063D01*
X165401951Y-105443967D01*
X165510931Y-105514004D01*
X165635228Y-105550500D01*
X165764770Y-105550500D01*
X165764772Y-105550500D01*
X165889069Y-105514004D01*
X165998049Y-105443967D01*
X166082882Y-105346063D01*
X166136697Y-105228226D01*
X166155133Y-105100000D01*
X166136697Y-104971774D01*
X166082882Y-104853937D01*
X165998049Y-104756033D01*
X165889069Y-104685996D01*
X165764772Y-104649500D01*
X165635228Y-104649500D01*
X165510931Y-104685995D01*
X165510931Y-104685996D01*
X165401951Y-104756033D01*
X165317117Y-104853937D01*
X165263302Y-104971774D01*
X165244867Y-105100000D01*
X164755133Y-105100000D01*
X164736697Y-104971774D01*
X164682882Y-104853937D01*
X164598049Y-104756033D01*
X164489069Y-104685996D01*
X164364772Y-104649500D01*
X164235228Y-104649500D01*
X164110931Y-104685995D01*
X164110931Y-104685996D01*
X164001951Y-104756033D01*
X163917117Y-104853937D01*
X163863302Y-104971774D01*
X163844867Y-105100000D01*
X161405500Y-105100000D01*
X161405500Y-104432478D01*
X161404058Y-104411347D01*
X161400451Y-104385053D01*
X161400451Y-104364947D01*
X161404058Y-104338653D01*
X161405500Y-104317522D01*
X161405500Y-103939603D01*
X163184470Y-103939603D01*
X163202905Y-104067828D01*
X163256720Y-104185665D01*
X163256721Y-104185666D01*
X163341554Y-104283570D01*
X163450534Y-104353607D01*
X163574831Y-104390103D01*
X163704373Y-104390103D01*
X163704375Y-104390103D01*
X163828672Y-104353607D01*
X163937652Y-104283570D01*
X164022485Y-104185666D01*
X164076300Y-104067829D01*
X164094736Y-103939603D01*
X165905264Y-103939603D01*
X165923699Y-104067828D01*
X165977514Y-104185665D01*
X165977515Y-104185666D01*
X166062348Y-104283570D01*
X166171328Y-104353607D01*
X166295625Y-104390103D01*
X166425167Y-104390103D01*
X166425169Y-104390103D01*
X166549466Y-104353607D01*
X166658446Y-104283570D01*
X166743279Y-104185666D01*
X166797094Y-104067829D01*
X166815530Y-103939603D01*
X166797094Y-103811377D01*
X166743279Y-103693540D01*
X166658446Y-103595636D01*
X166549466Y-103525599D01*
X166425169Y-103489103D01*
X166295625Y-103489103D01*
X166171328Y-103525598D01*
X166171328Y-103525599D01*
X166062348Y-103595636D01*
X165977514Y-103693540D01*
X165923699Y-103811377D01*
X165905264Y-103939603D01*
X164094736Y-103939603D01*
X164076300Y-103811377D01*
X164022485Y-103693540D01*
X163937652Y-103595636D01*
X163828672Y-103525599D01*
X163704375Y-103489103D01*
X163574831Y-103489103D01*
X163450534Y-103525598D01*
X163450534Y-103525599D01*
X163341554Y-103595636D01*
X163256720Y-103693540D01*
X163202905Y-103811377D01*
X163184470Y-103939603D01*
X161405500Y-103939603D01*
X161405500Y-103482478D01*
X161404058Y-103461347D01*
X161400451Y-103435050D01*
X161400451Y-103414940D01*
X161400470Y-103414803D01*
X161404057Y-103388654D01*
X161405500Y-103367522D01*
X161405500Y-102799999D01*
X163844867Y-102799999D01*
X163863302Y-102928225D01*
X163917117Y-103046062D01*
X163917118Y-103046063D01*
X164001951Y-103143967D01*
X164110931Y-103214004D01*
X164235228Y-103250500D01*
X164364770Y-103250500D01*
X164364772Y-103250500D01*
X164489069Y-103214004D01*
X164598049Y-103143967D01*
X164682882Y-103046063D01*
X164736697Y-102928226D01*
X164755133Y-102800000D01*
X164755133Y-102799999D01*
X165244867Y-102799999D01*
X165263302Y-102928225D01*
X165317117Y-103046062D01*
X165317118Y-103046063D01*
X165401951Y-103143967D01*
X165510931Y-103214004D01*
X165635228Y-103250500D01*
X165764770Y-103250500D01*
X165764772Y-103250500D01*
X165889069Y-103214004D01*
X165998049Y-103143967D01*
X166082882Y-103046063D01*
X166136697Y-102928226D01*
X166155133Y-102800000D01*
X166136697Y-102671774D01*
X166082882Y-102553937D01*
X165998049Y-102456033D01*
X165889069Y-102385996D01*
X165764772Y-102349500D01*
X165635228Y-102349500D01*
X165510931Y-102385995D01*
X165510931Y-102385996D01*
X165401951Y-102456033D01*
X165317117Y-102553937D01*
X165263302Y-102671774D01*
X165244867Y-102799999D01*
X164755133Y-102799999D01*
X164736697Y-102671774D01*
X164682882Y-102553937D01*
X164598049Y-102456033D01*
X164489069Y-102385996D01*
X164364772Y-102349500D01*
X164235228Y-102349500D01*
X164110931Y-102385995D01*
X164110931Y-102385996D01*
X164001951Y-102456033D01*
X163917117Y-102553937D01*
X163863302Y-102671774D01*
X163844867Y-102799999D01*
X161405500Y-102799999D01*
X161405500Y-102350886D01*
X161404163Y-102330541D01*
X161399655Y-102296385D01*
X161387079Y-102201089D01*
X161387079Y-102201087D01*
X161376523Y-102161788D01*
X161326439Y-102041199D01*
X161306050Y-102005987D01*
X161302456Y-102001318D01*
X161226395Y-101902515D01*
X161197572Y-101873802D01*
X161093806Y-101794541D01*
X161081890Y-101787701D01*
X161058513Y-101774282D01*
X161030403Y-101762731D01*
X160937732Y-101724652D01*
X160924070Y-101721038D01*
X160888130Y-101699154D01*
X160869931Y-101661214D01*
X160875358Y-101619487D01*
X160902656Y-101587464D01*
X160942998Y-101575500D01*
X169251422Y-101575500D01*
X169296362Y-101575500D01*
X169303614Y-101575855D01*
X169434094Y-101588707D01*
X169448311Y-101591534D01*
X169563666Y-101626527D01*
X169570282Y-101628534D01*
X169583684Y-101634086D01*
X169696081Y-101694163D01*
X169708143Y-101702222D01*
X169806664Y-101783077D01*
X169816922Y-101793335D01*
X169897777Y-101891856D01*
X169905836Y-101903918D01*
X169965913Y-102016315D01*
X169971465Y-102029717D01*
X170008463Y-102151682D01*
X170011293Y-102165910D01*
X170024144Y-102296385D01*
X170024500Y-102303638D01*
X170024500Y-103414803D01*
X170024499Y-103414809D01*
X170024499Y-103471754D01*
X170024143Y-103479006D01*
X170011294Y-103609483D01*
X170008464Y-103623711D01*
X169971468Y-103745674D01*
X169965916Y-103759077D01*
X169905839Y-103871475D01*
X169897780Y-103883537D01*
X169814659Y-103984822D01*
X169809782Y-103990203D01*
X169082558Y-104717429D01*
X169058551Y-104733470D01*
X169030232Y-104739103D01*
X168935228Y-104739103D01*
X168810930Y-104775599D01*
X168810931Y-104775599D01*
X168701951Y-104845636D01*
X168617117Y-104943540D01*
X168563302Y-105061377D01*
X168544867Y-105189602D01*
X168563302Y-105317828D01*
X168617117Y-105435665D01*
X168617118Y-105435666D01*
X168701951Y-105533570D01*
X168810931Y-105603607D01*
X168935228Y-105640103D01*
X169064770Y-105640103D01*
X169064772Y-105640103D01*
X169189069Y-105603607D01*
X169298049Y-105533570D01*
X169382882Y-105435666D01*
X169436697Y-105317829D01*
X169455133Y-105189603D01*
X169452168Y-105168983D01*
X169455202Y-105135085D01*
X169473087Y-105106130D01*
X170157157Y-104422060D01*
X170157164Y-104422056D01*
X170180237Y-104398983D01*
X170180267Y-104398962D01*
X170201921Y-104377307D01*
X170201922Y-104377308D01*
X170272904Y-104306325D01*
X170390911Y-104143898D01*
X170482057Y-103965011D01*
X170490313Y-103939603D01*
X170544095Y-103774071D01*
X170544094Y-103774071D01*
X170544096Y-103774068D01*
X170575501Y-103575770D01*
X170575500Y-103475386D01*
X170575500Y-103452482D01*
X170575500Y-102272867D01*
X170575500Y-102199616D01*
X170544093Y-102001320D01*
X170482052Y-101810378D01*
X170390905Y-101631492D01*
X170272897Y-101469068D01*
X170130932Y-101327103D01*
X170130931Y-101327102D01*
X170130930Y-101327101D01*
X170030031Y-101253794D01*
X169968508Y-101209095D01*
X169915465Y-101182068D01*
X169789623Y-101117948D01*
X169598681Y-101055907D01*
X169400384Y-101024500D01*
X169327133Y-101024500D01*
X151658483Y-101024500D01*
X151655254Y-101024430D01*
X151335471Y-101010464D01*
X151329040Y-101009901D01*
X151013310Y-100968331D01*
X151006953Y-100967210D01*
X150696045Y-100898280D01*
X150689809Y-100896609D01*
X150386091Y-100800843D01*
X150380025Y-100798635D01*
X150085805Y-100676762D01*
X150079954Y-100674033D01*
X150037330Y-100651844D01*
X149962247Y-100612757D01*
X149797494Y-100526990D01*
X149791903Y-100523763D01*
X149523310Y-100352647D01*
X149518022Y-100348944D01*
X149265372Y-100155075D01*
X149260427Y-100150925D01*
X149023906Y-99934190D01*
X149021574Y-99931958D01*
X143574954Y-94485337D01*
X143572102Y-94482320D01*
X143487675Y-94387845D01*
X143372670Y-94259152D01*
X143367500Y-94252669D01*
X143360875Y-94243332D01*
X143195510Y-94010266D01*
X143191097Y-94003241D01*
X143173706Y-93971774D01*
X143047332Y-93743110D01*
X143043732Y-93735634D01*
X143031467Y-93706024D01*
X142929997Y-93461046D01*
X142927256Y-93453213D01*
X142912647Y-93402500D01*
X142844978Y-93167603D01*
X142843137Y-93159539D01*
X142793349Y-92866488D01*
X142792423Y-92858273D01*
X142783854Y-92705642D01*
X143224500Y-92705642D01*
X143224519Y-92705842D01*
X143224519Y-92799357D01*
X143253130Y-93053328D01*
X143309998Y-93302497D01*
X143323644Y-93341496D01*
X143394408Y-93543736D01*
X143431380Y-93620511D01*
X143505296Y-93774003D01*
X143555521Y-93853937D01*
X143641270Y-93990410D01*
X143750936Y-94127929D01*
X143800618Y-94190230D01*
X143865827Y-94255440D01*
X143865840Y-94255456D01*
X149304820Y-99694436D01*
X149304900Y-99694556D01*
X149440280Y-99829934D01*
X149689061Y-100034099D01*
X149956651Y-100212893D01*
X149956653Y-100212894D01*
X149956656Y-100212896D01*
X150240488Y-100364604D01*
X150240494Y-100364606D01*
X150240495Y-100364607D01*
X150537819Y-100487759D01*
X150596307Y-100505500D01*
X150845798Y-100581179D01*
X151161447Y-100643961D01*
X151481729Y-100675502D01*
X151642645Y-100675500D01*
X156408830Y-100675500D01*
X156439571Y-100682187D01*
X156464753Y-100701038D01*
X156501951Y-100743967D01*
X156610931Y-100814004D01*
X156735228Y-100850500D01*
X156864770Y-100850500D01*
X156864772Y-100850500D01*
X156989069Y-100814004D01*
X157098049Y-100743967D01*
X157182882Y-100646063D01*
X157236697Y-100528226D01*
X157255133Y-100400000D01*
X157236697Y-100271774D01*
X157182882Y-100153937D01*
X157098049Y-100056033D01*
X157010860Y-100000000D01*
X166044867Y-100000000D01*
X166063302Y-100128225D01*
X166117117Y-100246062D01*
X166117118Y-100246063D01*
X166201951Y-100343967D01*
X166310931Y-100414004D01*
X166435228Y-100450500D01*
X166564770Y-100450500D01*
X166564772Y-100450500D01*
X166689069Y-100414004D01*
X166798049Y-100343967D01*
X166835246Y-100301038D01*
X166860429Y-100282187D01*
X166891170Y-100275500D01*
X169354715Y-100275500D01*
X169400864Y-100275500D01*
X169405703Y-100275657D01*
X169636173Y-100290763D01*
X169645769Y-100292027D01*
X169691082Y-100301040D01*
X169869907Y-100336610D01*
X169879238Y-100339110D01*
X170095648Y-100412570D01*
X170104585Y-100416272D01*
X170309557Y-100517352D01*
X170317922Y-100522182D01*
X170507946Y-100649152D01*
X170515616Y-100655037D01*
X170615272Y-100742433D01*
X170687436Y-100805719D01*
X170694280Y-100812563D01*
X170844958Y-100984378D01*
X170850849Y-100992055D01*
X170937236Y-101121343D01*
X170977812Y-101182068D01*
X170982649Y-101190447D01*
X170991846Y-101209095D01*
X171083726Y-101395411D01*
X171087430Y-101404354D01*
X171160886Y-101620750D01*
X171163391Y-101630100D01*
X171207972Y-101854230D01*
X171209236Y-101863826D01*
X171224342Y-102094296D01*
X171224500Y-102099136D01*
X171224500Y-116447764D01*
X171224365Y-116452232D01*
X171208551Y-116713664D01*
X171207474Y-116722535D01*
X171160666Y-116977959D01*
X171158527Y-116986635D01*
X171081278Y-117234537D01*
X171078110Y-117242893D01*
X170971532Y-117479698D01*
X170967379Y-117487610D01*
X170833040Y-117709834D01*
X170827963Y-117717188D01*
X170667826Y-117921587D01*
X170661901Y-117928276D01*
X170478276Y-118111901D01*
X170471587Y-118117826D01*
X170267188Y-118277963D01*
X170259834Y-118283040D01*
X170037610Y-118417379D01*
X170029698Y-118421532D01*
X169792893Y-118528110D01*
X169784537Y-118531278D01*
X169536635Y-118608527D01*
X169527959Y-118610666D01*
X169272535Y-118657474D01*
X169263664Y-118658551D01*
X169002232Y-118674365D01*
X168997764Y-118674500D01*
X168404500Y-118674500D01*
X168367500Y-118664586D01*
X168340414Y-118637500D01*
X168330500Y-118600500D01*
X168330500Y-117735181D01*
X168330500Y-117735180D01*
X168321767Y-117691278D01*
X168288504Y-117641496D01*
X168238722Y-117608233D01*
X168194820Y-117599500D01*
X167425180Y-117599500D01*
X167381278Y-117608233D01*
X167331496Y-117641496D01*
X167298233Y-117691278D01*
X167289500Y-117735180D01*
X167289500Y-120164820D01*
X167298233Y-120208722D01*
X167331496Y-120258504D01*
X167381278Y-120291767D01*
X167425180Y-120300500D01*
X168194819Y-120300500D01*
X168194820Y-120300500D01*
X168238722Y-120291767D01*
X168288504Y-120258504D01*
X168321767Y-120208722D01*
X168330500Y-120164820D01*
X168330500Y-119299500D01*
X168340414Y-119262500D01*
X168367500Y-119235414D01*
X168404500Y-119225500D01*
X169155866Y-119225500D01*
X169155869Y-119225500D01*
X169465646Y-119190596D01*
X169769568Y-119121228D01*
X170063811Y-119018268D01*
X170344677Y-118883010D01*
X170608633Y-118717156D01*
X170852359Y-118522791D01*
X171072791Y-118302359D01*
X171267156Y-118058633D01*
X171433010Y-117794677D01*
X171568268Y-117513811D01*
X171671228Y-117219568D01*
X171740596Y-116915646D01*
X171775500Y-116605869D01*
X171775500Y-116450000D01*
X171775500Y-116401422D01*
X171775500Y-111250000D01*
X172544570Y-111250000D01*
X172564243Y-111462309D01*
X172622594Y-111667389D01*
X172717632Y-111858254D01*
X172844024Y-112025621D01*
X172846128Y-112028407D01*
X173003698Y-112172052D01*
X173184981Y-112284298D01*
X173383802Y-112361321D01*
X173593390Y-112400500D01*
X173806609Y-112400500D01*
X173806610Y-112400500D01*
X174016198Y-112361321D01*
X174215019Y-112284298D01*
X174396302Y-112172052D01*
X174553872Y-112028407D01*
X174682366Y-111858255D01*
X174777405Y-111667389D01*
X174802483Y-111579248D01*
X174829064Y-111540446D01*
X174873659Y-111525500D01*
X179026341Y-111525500D01*
X179070936Y-111540446D01*
X179097516Y-111579248D01*
X179122594Y-111667387D01*
X179122596Y-111667391D01*
X179217633Y-111858254D01*
X179336113Y-112015146D01*
X179346128Y-112028407D01*
X179503698Y-112172052D01*
X179684981Y-112284298D01*
X179883802Y-112361321D01*
X180093390Y-112400500D01*
X180306609Y-112400500D01*
X180306610Y-112400500D01*
X180516198Y-112361321D01*
X180715019Y-112284298D01*
X180896302Y-112172052D01*
X181053872Y-112028407D01*
X181182366Y-111858255D01*
X181182365Y-111858255D01*
X181182367Y-111858254D01*
X181277405Y-111667389D01*
X181302484Y-111579248D01*
X181335756Y-111462310D01*
X181355429Y-111250000D01*
X181335756Y-111037690D01*
X181302484Y-110920752D01*
X181277405Y-110832610D01*
X181182367Y-110641745D01*
X181053874Y-110471596D01*
X181053872Y-110471593D01*
X180896302Y-110327948D01*
X180715019Y-110215702D01*
X180516198Y-110138679D01*
X180306610Y-110099500D01*
X180093390Y-110099500D01*
X179988595Y-110119089D01*
X179883801Y-110138679D01*
X179684981Y-110215701D01*
X179654735Y-110234429D01*
X179607251Y-110245019D01*
X179563454Y-110223838D01*
X178170269Y-108830653D01*
X178165392Y-108825271D01*
X178082231Y-108723936D01*
X178074172Y-108711875D01*
X178014090Y-108599467D01*
X178008538Y-108586064D01*
X178006876Y-108580585D01*
X177971543Y-108464101D01*
X177968715Y-108449884D01*
X177955855Y-108319300D01*
X177955500Y-108312054D01*
X177955500Y-108293967D01*
X177955501Y-108267212D01*
X177955500Y-108267209D01*
X177955500Y-106750000D01*
X179044570Y-106750000D01*
X179064243Y-106962309D01*
X179122594Y-107167389D01*
X179217632Y-107358254D01*
X179324298Y-107499500D01*
X179346128Y-107528407D01*
X179503698Y-107672052D01*
X179684981Y-107784298D01*
X179883802Y-107861321D01*
X180093390Y-107900500D01*
X180306609Y-107900500D01*
X180306610Y-107900500D01*
X180516198Y-107861321D01*
X180715019Y-107784298D01*
X180896302Y-107672052D01*
X181053872Y-107528407D01*
X181182366Y-107358255D01*
X181182365Y-107358255D01*
X181182367Y-107358254D01*
X181277405Y-107167389D01*
X181335756Y-106962309D01*
X181355429Y-106750000D01*
X181335756Y-106537690D01*
X181277405Y-106332610D01*
X181182367Y-106141745D01*
X181053874Y-105971596D01*
X181053872Y-105971593D01*
X180896302Y-105827948D01*
X180715019Y-105715702D01*
X180516198Y-105638679D01*
X180306610Y-105599500D01*
X180093390Y-105599500D01*
X180071420Y-105603607D01*
X179883801Y-105638679D01*
X179684980Y-105715702D01*
X179503701Y-105827946D01*
X179503698Y-105827948D01*
X179346128Y-105971593D01*
X179346125Y-105971596D01*
X179217632Y-106141745D01*
X179122594Y-106332610D01*
X179064243Y-106537690D01*
X179044570Y-106750000D01*
X177955500Y-106750000D01*
X177955500Y-103475947D01*
X177967482Y-103435576D01*
X177979222Y-103425581D01*
X177977235Y-103423594D01*
X177987018Y-103413811D01*
X178063813Y-103337016D01*
X178107682Y-103237662D01*
X178110500Y-103213373D01*
X178110499Y-102786628D01*
X178107682Y-102762338D01*
X178063813Y-102662984D01*
X177987016Y-102586187D01*
X177887662Y-102542318D01*
X177887660Y-102542317D01*
X177866559Y-102539869D01*
X177863372Y-102539500D01*
X177496626Y-102539500D01*
X177472339Y-102542317D01*
X177372984Y-102586187D01*
X177296186Y-102662985D01*
X177267693Y-102727514D01*
X177240397Y-102759623D01*
X177199998Y-102771623D01*
X177159600Y-102759622D01*
X177132306Y-102727516D01*
X177103813Y-102662984D01*
X177027016Y-102586187D01*
X176927662Y-102542318D01*
X176927660Y-102542317D01*
X176906559Y-102539869D01*
X176903372Y-102539500D01*
X176536626Y-102539500D01*
X176512339Y-102542317D01*
X176412984Y-102586187D01*
X176336187Y-102662983D01*
X176332617Y-102671068D01*
X176328500Y-102680391D01*
X176301206Y-102712499D01*
X176260807Y-102724500D01*
X176191170Y-102724500D01*
X176160429Y-102717813D01*
X176135246Y-102698961D01*
X176098049Y-102656033D01*
X175989069Y-102585996D01*
X175864772Y-102549500D01*
X175735228Y-102549500D01*
X175610930Y-102585996D01*
X175610931Y-102585996D01*
X175501951Y-102656033D01*
X175417117Y-102753937D01*
X175363302Y-102871774D01*
X175344867Y-102999999D01*
X175363302Y-103128225D01*
X175417117Y-103246062D01*
X175417118Y-103246063D01*
X175501951Y-103343967D01*
X175610931Y-103414004D01*
X175735228Y-103450500D01*
X175864770Y-103450500D01*
X175864772Y-103450500D01*
X175989069Y-103414004D01*
X176098049Y-103343967D01*
X176135246Y-103301038D01*
X176160429Y-103282187D01*
X176191170Y-103275500D01*
X176260807Y-103275500D01*
X176301206Y-103287501D01*
X176328500Y-103319608D01*
X176336187Y-103337016D01*
X176412984Y-103413813D01*
X176512338Y-103457682D01*
X176536627Y-103460500D01*
X176903372Y-103460499D01*
X176903373Y-103460499D01*
X176911468Y-103459559D01*
X176927662Y-103457682D01*
X177027016Y-103413813D01*
X177103813Y-103337016D01*
X177132306Y-103272484D01*
X177159601Y-103240377D01*
X177200000Y-103228376D01*
X177240399Y-103240377D01*
X177267693Y-103272484D01*
X177296187Y-103337016D01*
X177340669Y-103381498D01*
X177382765Y-103423594D01*
X177380777Y-103425581D01*
X177392518Y-103435576D01*
X177404500Y-103475947D01*
X177404500Y-108349748D01*
X177404509Y-108349845D01*
X177404509Y-108416166D01*
X177432520Y-108593042D01*
X177435913Y-108614462D01*
X177497951Y-108805404D01*
X177580643Y-108967699D01*
X177589097Y-108984292D01*
X177707101Y-109146715D01*
X177758897Y-109198513D01*
X179174830Y-110614446D01*
X179195539Y-110654858D01*
X179188747Y-110699756D01*
X179122593Y-110832614D01*
X179097516Y-110920751D01*
X179070936Y-110959553D01*
X179026341Y-110974500D01*
X174873659Y-110974500D01*
X174829064Y-110959554D01*
X174802484Y-110920752D01*
X174788548Y-110871774D01*
X174777405Y-110832611D01*
X174682366Y-110641745D01*
X174553872Y-110471593D01*
X174396302Y-110327948D01*
X174215019Y-110215702D01*
X174016198Y-110138679D01*
X173806610Y-110099500D01*
X173593390Y-110099500D01*
X173488595Y-110119089D01*
X173383801Y-110138679D01*
X173184980Y-110215702D01*
X173003701Y-110327946D01*
X173003698Y-110327948D01*
X172846128Y-110471593D01*
X172846125Y-110471596D01*
X172717632Y-110641745D01*
X172622594Y-110832610D01*
X172564243Y-111037690D01*
X172544570Y-111250000D01*
X171775500Y-111250000D01*
X171775500Y-106750000D01*
X172544570Y-106750000D01*
X172564243Y-106962309D01*
X172622594Y-107167389D01*
X172717632Y-107358254D01*
X172824298Y-107499500D01*
X172846128Y-107528407D01*
X173003698Y-107672052D01*
X173184981Y-107784298D01*
X173383802Y-107861321D01*
X173593390Y-107900500D01*
X173806609Y-107900500D01*
X173806610Y-107900500D01*
X174016198Y-107861321D01*
X174215019Y-107784298D01*
X174396302Y-107672052D01*
X174553872Y-107528407D01*
X174682366Y-107358255D01*
X174682365Y-107358255D01*
X174682367Y-107358254D01*
X174777405Y-107167389D01*
X174835756Y-106962309D01*
X174855429Y-106750000D01*
X174835756Y-106537690D01*
X174777405Y-106332610D01*
X174682367Y-106141745D01*
X174553874Y-105971596D01*
X174553872Y-105971593D01*
X174396302Y-105827948D01*
X174215019Y-105715702D01*
X174016198Y-105638679D01*
X173806610Y-105599500D01*
X173593390Y-105599500D01*
X173571420Y-105603607D01*
X173383801Y-105638679D01*
X173184980Y-105715702D01*
X173003701Y-105827946D01*
X173003698Y-105827948D01*
X172846128Y-105971593D01*
X172846125Y-105971596D01*
X172717632Y-106141745D01*
X172622594Y-106332610D01*
X172564243Y-106537690D01*
X172544570Y-106750000D01*
X171775500Y-106750000D01*
X171775500Y-102069575D01*
X171775501Y-101953217D01*
X171747749Y-101724654D01*
X171740910Y-101668329D01*
X171740192Y-101665414D01*
X171672230Y-101389679D01*
X171603744Y-101209095D01*
X171570465Y-101121343D01*
X171437097Y-100867232D01*
X171399362Y-100812563D01*
X171274071Y-100631046D01*
X171229893Y-100581179D01*
X171083765Y-100416234D01*
X170868955Y-100225930D01*
X170766303Y-100155075D01*
X170632770Y-100062904D01*
X170632769Y-100062903D01*
X170632767Y-100062902D01*
X170378656Y-99929534D01*
X170110323Y-99827770D01*
X169831670Y-99759089D01*
X169546786Y-99724499D01*
X169546783Y-99724499D01*
X169403291Y-99724500D01*
X166891170Y-99724500D01*
X166860429Y-99717813D01*
X166835246Y-99698961D01*
X166798049Y-99656033D01*
X166689069Y-99585996D01*
X166564772Y-99549500D01*
X166435228Y-99549500D01*
X166310930Y-99585996D01*
X166310931Y-99585996D01*
X166201951Y-99656033D01*
X166117117Y-99753937D01*
X166063302Y-99871774D01*
X166044867Y-100000000D01*
X157010860Y-100000000D01*
X156989069Y-99985996D01*
X156864772Y-99949500D01*
X156735228Y-99949500D01*
X156610931Y-99985996D01*
X156501951Y-100056033D01*
X156464753Y-100098961D01*
X156439571Y-100117813D01*
X156408830Y-100124500D01*
X151703226Y-100124500D01*
X151703220Y-100124499D01*
X151644718Y-100124499D01*
X151640570Y-100124383D01*
X151341736Y-100107605D01*
X151333490Y-100106676D01*
X151040469Y-100056894D01*
X151032378Y-100055047D01*
X150746776Y-99972770D01*
X150738943Y-99970029D01*
X150464351Y-99856293D01*
X150456875Y-99852693D01*
X150196742Y-99708927D01*
X150189715Y-99704512D01*
X149947311Y-99532521D01*
X149940823Y-99527347D01*
X149718042Y-99328261D01*
X149715025Y-99325409D01*
X148189616Y-97800000D01*
X170439659Y-97800000D01*
X170458976Y-97996132D01*
X170516186Y-98184728D01*
X170562637Y-98271632D01*
X170609090Y-98358538D01*
X170734117Y-98510883D01*
X170886462Y-98635910D01*
X171060273Y-98728814D01*
X171248868Y-98786024D01*
X171445000Y-98805341D01*
X171641132Y-98786024D01*
X171829727Y-98728814D01*
X172003538Y-98635910D01*
X172155883Y-98510883D01*
X172280910Y-98358538D01*
X172373814Y-98184727D01*
X172414683Y-98050000D01*
X173015839Y-98050000D01*
X173056651Y-98184538D01*
X173149506Y-98358256D01*
X173274472Y-98510527D01*
X173426743Y-98635493D01*
X173600461Y-98728348D01*
X173735000Y-98769160D01*
X173735000Y-98050000D01*
X174235000Y-98050000D01*
X174235000Y-98769160D01*
X174369538Y-98728348D01*
X174543256Y-98635493D01*
X174695527Y-98510527D01*
X174820493Y-98358256D01*
X174913348Y-98184538D01*
X174954161Y-98050000D01*
X174235000Y-98050000D01*
X173735000Y-98050000D01*
X173015839Y-98050000D01*
X172414683Y-98050000D01*
X172431024Y-97996132D01*
X172450341Y-97800000D01*
X172431024Y-97603868D01*
X172414683Y-97550000D01*
X173015839Y-97550000D01*
X173735000Y-97550000D01*
X173735000Y-96830839D01*
X174235000Y-96830839D01*
X174235000Y-97550000D01*
X174954160Y-97550000D01*
X174913348Y-97415461D01*
X174820493Y-97241743D01*
X174695527Y-97089472D01*
X174543256Y-96964506D01*
X174369538Y-96871651D01*
X174235000Y-96830839D01*
X173735000Y-96830839D01*
X173600461Y-96871651D01*
X173426743Y-96964506D01*
X173274472Y-97089472D01*
X173149506Y-97241743D01*
X173056651Y-97415461D01*
X173015839Y-97550000D01*
X172414683Y-97550000D01*
X172373814Y-97415273D01*
X172280910Y-97241462D01*
X172155883Y-97089117D01*
X172003538Y-96964090D01*
X171916632Y-96917637D01*
X171829728Y-96871186D01*
X171641132Y-96813976D01*
X171524612Y-96802500D01*
X171445000Y-96794659D01*
X171444999Y-96794659D01*
X171248867Y-96813976D01*
X171060271Y-96871186D01*
X170886462Y-96964090D01*
X170734117Y-97089117D01*
X170609090Y-97241462D01*
X170516186Y-97415271D01*
X170458976Y-97603867D01*
X170439659Y-97800000D01*
X148189616Y-97800000D01*
X147479616Y-97090000D01*
X149634867Y-97090000D01*
X149653302Y-97218225D01*
X149707117Y-97336062D01*
X149707118Y-97336063D01*
X149791951Y-97433967D01*
X149900931Y-97504004D01*
X150025228Y-97540500D01*
X150154770Y-97540500D01*
X150154772Y-97540500D01*
X150279069Y-97504004D01*
X150388049Y-97433967D01*
X150425246Y-97391038D01*
X150450429Y-97372187D01*
X150481170Y-97365500D01*
X150762150Y-97365500D01*
X150802549Y-97377500D01*
X150829844Y-97409609D01*
X150842884Y-97439141D01*
X150918359Y-97514616D01*
X151016002Y-97557730D01*
X151039877Y-97560500D01*
X151395122Y-97560499D01*
X151395123Y-97560499D01*
X151403080Y-97559575D01*
X151418998Y-97557730D01*
X151516641Y-97514616D01*
X151592116Y-97439141D01*
X151635230Y-97341498D01*
X151638000Y-97317623D01*
X151817000Y-97317623D01*
X151819769Y-97341496D01*
X151819770Y-97341498D01*
X151862884Y-97439141D01*
X151938359Y-97514616D01*
X152036002Y-97557730D01*
X152059877Y-97560500D01*
X152415122Y-97560499D01*
X152415123Y-97560499D01*
X152423080Y-97559575D01*
X152438998Y-97557730D01*
X152536641Y-97514616D01*
X152612116Y-97439141D01*
X152625155Y-97409609D01*
X152652451Y-97377500D01*
X152692850Y-97365500D01*
X154285699Y-97365500D01*
X154319567Y-97373705D01*
X154345924Y-97396500D01*
X154358926Y-97428831D01*
X154362457Y-97453067D01*
X154416580Y-97563779D01*
X154416581Y-97563780D01*
X154503720Y-97650919D01*
X154614433Y-97705043D01*
X154686205Y-97715500D01*
X155193794Y-97715499D01*
X155265567Y-97705043D01*
X155376280Y-97650919D01*
X155463419Y-97563780D01*
X155517543Y-97453067D01*
X155528000Y-97381295D01*
X155528000Y-97340000D01*
X155927501Y-97340000D01*
X155927501Y-97381246D01*
X155937943Y-97452923D01*
X155991992Y-97563484D01*
X156079015Y-97650507D01*
X156189575Y-97704556D01*
X156261254Y-97715000D01*
X156265000Y-97715000D01*
X156265000Y-97340000D01*
X156765000Y-97340000D01*
X156765000Y-97714999D01*
X156768746Y-97714999D01*
X156840423Y-97704556D01*
X156950984Y-97650507D01*
X157038007Y-97563484D01*
X157092056Y-97452924D01*
X157102500Y-97381246D01*
X157102500Y-97340000D01*
X156765000Y-97340000D01*
X156265000Y-97340000D01*
X155927501Y-97340000D01*
X155528000Y-97340000D01*
X155527999Y-96840000D01*
X155927500Y-96840000D01*
X156265000Y-96840000D01*
X156265000Y-96465001D01*
X156261254Y-96465001D01*
X156189576Y-96475443D01*
X156079015Y-96529492D01*
X155991992Y-96616515D01*
X155937943Y-96727075D01*
X155927500Y-96798754D01*
X155927500Y-96840000D01*
X155527999Y-96840000D01*
X155527999Y-96798706D01*
X155527409Y-96794659D01*
X155523874Y-96770390D01*
X155517543Y-96726933D01*
X155463419Y-96616220D01*
X155376280Y-96529081D01*
X155376279Y-96529080D01*
X155265568Y-96474957D01*
X155241643Y-96471471D01*
X155197227Y-96465000D01*
X156765000Y-96465000D01*
X156765000Y-96840000D01*
X157102499Y-96840000D01*
X157102499Y-96798754D01*
X157092056Y-96727076D01*
X157038007Y-96616515D01*
X156950984Y-96529492D01*
X156840424Y-96475443D01*
X156768746Y-96465000D01*
X156765000Y-96465000D01*
X155197227Y-96465000D01*
X155193795Y-96464500D01*
X155193793Y-96464500D01*
X154686205Y-96464500D01*
X154614432Y-96474957D01*
X154503720Y-96529080D01*
X154416580Y-96616220D01*
X154362456Y-96726931D01*
X154358926Y-96751168D01*
X154345924Y-96783499D01*
X154319567Y-96806295D01*
X154285699Y-96814500D01*
X152692850Y-96814500D01*
X152652451Y-96802500D01*
X152625155Y-96770390D01*
X152612116Y-96740859D01*
X152536641Y-96665384D01*
X152438998Y-96622270D01*
X152438996Y-96622269D01*
X152418255Y-96619863D01*
X152415122Y-96619500D01*
X152059876Y-96619500D01*
X152036003Y-96622269D01*
X151938358Y-96665384D01*
X151862885Y-96740857D01*
X151862884Y-96740858D01*
X151862884Y-96740859D01*
X151858332Y-96751168D01*
X151819769Y-96838503D01*
X151817000Y-96862377D01*
X151817000Y-97317623D01*
X151638000Y-97317623D01*
X151637999Y-96862378D01*
X151635230Y-96838502D01*
X151592116Y-96740859D01*
X151516641Y-96665384D01*
X151418998Y-96622270D01*
X151418996Y-96622269D01*
X151398255Y-96619863D01*
X151395122Y-96619500D01*
X151039876Y-96619500D01*
X151016003Y-96622269D01*
X150918358Y-96665384D01*
X150842884Y-96740858D01*
X150829845Y-96770390D01*
X150802549Y-96802500D01*
X150762150Y-96814500D01*
X150481170Y-96814500D01*
X150450429Y-96807813D01*
X150425246Y-96788961D01*
X150388049Y-96746033D01*
X150279069Y-96675996D01*
X150154772Y-96639500D01*
X150025228Y-96639500D01*
X149937070Y-96665385D01*
X149900931Y-96675996D01*
X149791951Y-96746033D01*
X149707117Y-96843937D01*
X149653302Y-96961774D01*
X149634867Y-97090000D01*
X147479616Y-97090000D01*
X144489615Y-94099999D01*
X147422367Y-94099999D01*
X147440802Y-94228225D01*
X147494617Y-94346062D01*
X147494618Y-94346063D01*
X147579451Y-94443967D01*
X147688431Y-94514004D01*
X147812728Y-94550500D01*
X147942270Y-94550500D01*
X147942272Y-94550500D01*
X148066569Y-94514004D01*
X148175549Y-94443967D01*
X148260382Y-94346063D01*
X148314197Y-94228226D01*
X148332633Y-94100000D01*
X148314197Y-93971774D01*
X148260382Y-93853937D01*
X148260381Y-93853936D01*
X148260381Y-93853935D01*
X148171074Y-93750868D01*
X148157666Y-93728269D01*
X148153000Y-93702409D01*
X148153000Y-93610110D01*
X148161724Y-93575253D01*
X148185835Y-93548616D01*
X148186004Y-93548504D01*
X148186005Y-93548501D01*
X148186337Y-93548280D01*
X148227469Y-93535776D01*
X148268610Y-93548247D01*
X148318776Y-93581766D01*
X148318778Y-93581767D01*
X148362680Y-93590500D01*
X148792319Y-93590500D01*
X148792320Y-93590500D01*
X148836222Y-93581767D01*
X148886004Y-93548504D01*
X148919267Y-93498722D01*
X148928000Y-93454820D01*
X148928000Y-93439500D01*
X148937914Y-93402500D01*
X148965000Y-93375414D01*
X149002000Y-93365500D01*
X150762150Y-93365500D01*
X150802549Y-93377500D01*
X150829844Y-93409609D01*
X150842884Y-93439141D01*
X150918359Y-93514616D01*
X151016002Y-93557730D01*
X151039877Y-93560500D01*
X151395122Y-93560499D01*
X151395123Y-93560499D01*
X151403080Y-93559576D01*
X151418998Y-93557730D01*
X151516641Y-93514616D01*
X151592116Y-93439141D01*
X151635230Y-93341498D01*
X151638000Y-93317623D01*
X151817000Y-93317623D01*
X151819769Y-93341496D01*
X151835667Y-93377500D01*
X151862884Y-93439141D01*
X151938359Y-93514616D01*
X152036002Y-93557730D01*
X152059877Y-93560500D01*
X152415122Y-93560499D01*
X152415123Y-93560499D01*
X152423080Y-93559576D01*
X152438998Y-93557730D01*
X152536641Y-93514616D01*
X152612116Y-93439141D01*
X152625155Y-93409609D01*
X152652451Y-93377500D01*
X152692850Y-93365500D01*
X154285699Y-93365500D01*
X154319567Y-93373705D01*
X154345924Y-93396500D01*
X154358926Y-93428831D01*
X154362457Y-93453067D01*
X154416580Y-93563779D01*
X154416581Y-93563780D01*
X154503720Y-93650919D01*
X154614433Y-93705043D01*
X154686205Y-93715500D01*
X155193794Y-93715499D01*
X155265567Y-93705043D01*
X155376280Y-93650919D01*
X155463419Y-93563780D01*
X155517543Y-93453067D01*
X155528000Y-93381295D01*
X155528000Y-93340000D01*
X155927501Y-93340000D01*
X155927501Y-93381246D01*
X155937943Y-93452923D01*
X155991992Y-93563484D01*
X156079015Y-93650507D01*
X156189575Y-93704556D01*
X156261254Y-93715000D01*
X156265000Y-93715000D01*
X156265000Y-93340000D01*
X156765000Y-93340000D01*
X156765000Y-93714999D01*
X156768746Y-93714999D01*
X156840423Y-93704556D01*
X156950984Y-93650507D01*
X157038007Y-93563484D01*
X157092056Y-93452924D01*
X157102500Y-93381246D01*
X157102500Y-93340000D01*
X156765000Y-93340000D01*
X156265000Y-93340000D01*
X155927501Y-93340000D01*
X155528000Y-93340000D01*
X155527999Y-92840000D01*
X155927500Y-92840000D01*
X156265000Y-92840000D01*
X156265000Y-92465001D01*
X156261254Y-92465001D01*
X156189576Y-92475443D01*
X156079015Y-92529492D01*
X155991992Y-92616515D01*
X155937943Y-92727075D01*
X155927500Y-92798754D01*
X155927500Y-92840000D01*
X155527999Y-92840000D01*
X155527999Y-92798706D01*
X155517543Y-92726933D01*
X155463419Y-92616220D01*
X155376280Y-92529081D01*
X155376279Y-92529080D01*
X155265568Y-92474957D01*
X155241642Y-92471471D01*
X155197227Y-92465000D01*
X156765000Y-92465000D01*
X156765000Y-92840000D01*
X157102499Y-92840000D01*
X157102499Y-92798754D01*
X157092056Y-92727076D01*
X157038007Y-92616515D01*
X156950984Y-92529492D01*
X156840424Y-92475443D01*
X156768746Y-92465000D01*
X156765000Y-92465000D01*
X155197227Y-92465000D01*
X155193795Y-92464500D01*
X155193793Y-92464500D01*
X154686205Y-92464500D01*
X154614432Y-92474957D01*
X154503720Y-92529080D01*
X154416580Y-92616220D01*
X154362456Y-92726931D01*
X154358926Y-92751168D01*
X154345924Y-92783499D01*
X154319567Y-92806295D01*
X154285699Y-92814500D01*
X152692850Y-92814500D01*
X152652451Y-92802500D01*
X152625155Y-92770390D01*
X152612116Y-92740859D01*
X152536641Y-92665384D01*
X152438998Y-92622270D01*
X152438996Y-92622269D01*
X152418255Y-92619863D01*
X152415122Y-92619500D01*
X152059876Y-92619500D01*
X152036003Y-92622269D01*
X151938358Y-92665384D01*
X151862885Y-92740857D01*
X151819769Y-92838503D01*
X151817000Y-92862377D01*
X151817000Y-93317623D01*
X151638000Y-93317623D01*
X151637999Y-92862378D01*
X151635230Y-92838502D01*
X151592116Y-92740859D01*
X151516641Y-92665384D01*
X151418998Y-92622270D01*
X151418996Y-92622269D01*
X151398255Y-92619863D01*
X151395122Y-92619500D01*
X151039876Y-92619500D01*
X151016003Y-92622269D01*
X150918358Y-92665384D01*
X150842884Y-92740858D01*
X150829845Y-92770390D01*
X150802549Y-92802500D01*
X150762150Y-92814500D01*
X149002000Y-92814500D01*
X148965000Y-92804586D01*
X148937914Y-92777500D01*
X148928000Y-92740500D01*
X148928000Y-92725181D01*
X148927500Y-92722666D01*
X148919267Y-92681278D01*
X148886004Y-92631496D01*
X148836222Y-92598233D01*
X148792320Y-92589500D01*
X148362680Y-92589500D01*
X148351304Y-92591763D01*
X148318778Y-92598233D01*
X148268610Y-92631753D01*
X148227520Y-92644223D01*
X148186423Y-92631776D01*
X148186004Y-92631496D01*
X148185922Y-92631441D01*
X148161748Y-92604792D01*
X148153000Y-92569890D01*
X148153000Y-92503638D01*
X148153356Y-92496385D01*
X148155419Y-92475443D01*
X148166207Y-92365903D01*
X148169034Y-92351689D01*
X148206035Y-92229713D01*
X148211586Y-92216315D01*
X148219602Y-92201318D01*
X148271666Y-92103913D01*
X148279718Y-92091861D01*
X148360578Y-91993333D01*
X148370835Y-91983077D01*
X148469361Y-91902218D01*
X148481413Y-91894166D01*
X148593818Y-91834084D01*
X148607213Y-91828535D01*
X148729189Y-91791534D01*
X148743403Y-91788707D01*
X148873885Y-91775855D01*
X148881138Y-91775500D01*
X148926078Y-91775500D01*
X162622996Y-91775500D01*
X162622999Y-91775501D01*
X162669149Y-91775500D01*
X162673988Y-91775658D01*
X162891836Y-91789933D01*
X162901432Y-91791197D01*
X163113167Y-91833312D01*
X163122491Y-91835810D01*
X163326931Y-91905204D01*
X163335863Y-91908904D01*
X163441625Y-91961058D01*
X163529484Y-92004385D01*
X163537866Y-92009225D01*
X163717361Y-92129156D01*
X163725041Y-92135049D01*
X163888953Y-92278794D01*
X163892488Y-92282104D01*
X164915811Y-93305427D01*
X164916181Y-93305731D01*
X165009590Y-93399143D01*
X165267404Y-93610735D01*
X165460069Y-93739475D01*
X165544717Y-93796038D01*
X165703570Y-93880950D01*
X165838856Y-93953265D01*
X166146991Y-94080905D01*
X166146999Y-94080907D01*
X166146998Y-94080907D01*
X166466148Y-94177727D01*
X166466150Y-94177727D01*
X166466152Y-94177728D01*
X166793268Y-94242801D01*
X167125186Y-94275498D01*
X167256203Y-94275498D01*
X167256209Y-94275500D01*
X167291949Y-94275500D01*
X167340527Y-94275501D01*
X167340530Y-94275500D01*
X170869031Y-94275500D01*
X170914558Y-94291162D01*
X170940813Y-94331520D01*
X170936682Y-94379488D01*
X170903914Y-94414761D01*
X170897118Y-94418394D01*
X170886463Y-94424089D01*
X170734117Y-94549117D01*
X170609090Y-94701462D01*
X170516186Y-94875271D01*
X170458976Y-95063867D01*
X170439659Y-95259999D01*
X170458976Y-95456132D01*
X170516186Y-95644728D01*
X170562637Y-95731632D01*
X170609090Y-95818538D01*
X170734117Y-95970883D01*
X170886462Y-96095910D01*
X171060273Y-96188814D01*
X171248868Y-96246024D01*
X171445000Y-96265341D01*
X171641132Y-96246024D01*
X171829727Y-96188814D01*
X172003538Y-96095910D01*
X172155883Y-95970883D01*
X172280910Y-95818538D01*
X172373814Y-95644727D01*
X172431024Y-95456132D01*
X172450341Y-95260000D01*
X172431024Y-95063868D01*
X172373814Y-94875273D01*
X172280910Y-94701462D01*
X172155883Y-94549117D01*
X172003538Y-94424090D01*
X172003535Y-94424088D01*
X171997904Y-94419467D01*
X171998635Y-94418576D01*
X171970555Y-94387845D01*
X171967534Y-94338650D01*
X171996079Y-94298470D01*
X172043526Y-94285129D01*
X172116836Y-94289933D01*
X172126432Y-94291197D01*
X172338167Y-94333312D01*
X172347491Y-94335810D01*
X172551931Y-94405204D01*
X172560863Y-94408904D01*
X172631964Y-94443966D01*
X172754484Y-94504385D01*
X172762866Y-94509225D01*
X172942361Y-94629156D01*
X172950041Y-94635049D01*
X173065576Y-94736369D01*
X173089589Y-94778757D01*
X173082048Y-94826887D01*
X173056186Y-94875271D01*
X172998976Y-95063868D01*
X172979659Y-95259999D01*
X172998976Y-95456132D01*
X173056186Y-95644728D01*
X173102637Y-95731632D01*
X173149090Y-95818538D01*
X173274117Y-95970883D01*
X173426462Y-96095910D01*
X173600273Y-96188814D01*
X173788868Y-96246024D01*
X173985000Y-96265341D01*
X174181132Y-96246024D01*
X174369727Y-96188814D01*
X174543538Y-96095910D01*
X174695883Y-95970883D01*
X174820910Y-95818538D01*
X174913814Y-95644727D01*
X174971024Y-95456132D01*
X174990341Y-95260000D01*
X174971024Y-95063868D01*
X174913814Y-94875273D01*
X174820910Y-94701462D01*
X174695883Y-94549117D01*
X174543538Y-94424090D01*
X174421973Y-94359112D01*
X174369728Y-94331186D01*
X174181132Y-94273976D01*
X173985000Y-94254659D01*
X173788867Y-94273976D01*
X173600273Y-94331186D01*
X173548026Y-94359112D01*
X173502285Y-94367048D01*
X173460818Y-94346176D01*
X173415244Y-94300604D01*
X173215421Y-94141253D01*
X172999014Y-94005279D01*
X172883879Y-93949835D01*
X172768744Y-93894390D01*
X172603710Y-93836644D01*
X172527503Y-93809979D01*
X172278332Y-93753110D01*
X172052970Y-93727722D01*
X172024358Y-93724499D01*
X171983553Y-93724499D01*
X171938026Y-93708837D01*
X171911771Y-93668479D01*
X171915902Y-93620511D01*
X171948668Y-93585238D01*
X172003538Y-93555910D01*
X172155883Y-93430883D01*
X172280910Y-93278538D01*
X172373814Y-93104727D01*
X172431024Y-92916132D01*
X172450341Y-92720000D01*
X172431024Y-92523868D01*
X172373814Y-92335273D01*
X172280910Y-92161462D01*
X172155883Y-92009117D01*
X172043575Y-91916947D01*
X172018888Y-91878313D01*
X172021700Y-91832550D01*
X172050931Y-91797227D01*
X172095357Y-91785904D01*
X172156836Y-91789933D01*
X172166432Y-91791197D01*
X172378167Y-91833312D01*
X172387491Y-91835810D01*
X172591931Y-91905204D01*
X172600863Y-91908904D01*
X172706625Y-91961058D01*
X172794484Y-92004385D01*
X172802866Y-92009225D01*
X172982361Y-92129156D01*
X172990041Y-92135049D01*
X173063785Y-92199720D01*
X173087798Y-92242108D01*
X173080257Y-92290238D01*
X173056186Y-92335271D01*
X172998976Y-92523868D01*
X172979659Y-92720000D01*
X172998976Y-92916132D01*
X173056186Y-93104728D01*
X173085477Y-93159526D01*
X173149090Y-93278538D01*
X173274117Y-93430883D01*
X173426462Y-93555910D01*
X173600273Y-93648814D01*
X173788868Y-93706024D01*
X173985000Y-93725341D01*
X174181132Y-93706024D01*
X174369727Y-93648814D01*
X174543538Y-93555910D01*
X174695883Y-93430883D01*
X174820910Y-93278538D01*
X174913814Y-93104727D01*
X174971024Y-92916132D01*
X174990341Y-92720000D01*
X174971024Y-92523868D01*
X174913814Y-92335273D01*
X174820910Y-92161462D01*
X174695883Y-92009117D01*
X174543538Y-91884090D01*
X174402112Y-91808496D01*
X174369728Y-91791186D01*
X174181132Y-91733976D01*
X173985000Y-91714659D01*
X173788868Y-91733976D01*
X173600273Y-91791186D01*
X173548023Y-91819113D01*
X173502283Y-91827049D01*
X173460816Y-91806176D01*
X173455244Y-91800604D01*
X173255421Y-91641253D01*
X173039014Y-91505279D01*
X172923879Y-91449835D01*
X172808744Y-91394390D01*
X172567505Y-91309980D01*
X172567504Y-91309979D01*
X172567502Y-91309979D01*
X172421459Y-91276647D01*
X172384509Y-91255715D01*
X172365151Y-91217917D01*
X172369759Y-91175702D01*
X172396812Y-91142974D01*
X172403504Y-91138504D01*
X172436767Y-91088722D01*
X172445500Y-91044820D01*
X172445500Y-90180000D01*
X172979659Y-90180000D01*
X172998976Y-90376132D01*
X173056186Y-90564728D01*
X173102637Y-90651632D01*
X173149090Y-90738538D01*
X173274117Y-90890883D01*
X173426462Y-91015910D01*
X173600273Y-91108814D01*
X173788868Y-91166024D01*
X173985000Y-91185341D01*
X174181132Y-91166024D01*
X174369727Y-91108814D01*
X174543538Y-91015910D01*
X174695883Y-90890883D01*
X174820910Y-90738538D01*
X174913814Y-90564727D01*
X174971024Y-90376132D01*
X174990341Y-90180000D01*
X174971024Y-89983868D01*
X174913814Y-89795273D01*
X174820910Y-89621462D01*
X174695883Y-89469117D01*
X174543538Y-89344090D01*
X174456632Y-89297638D01*
X174369728Y-89251186D01*
X174181132Y-89193976D01*
X173985000Y-89174659D01*
X173788867Y-89193976D01*
X173600271Y-89251186D01*
X173426462Y-89344090D01*
X173274117Y-89469117D01*
X173149090Y-89621462D01*
X173056186Y-89795271D01*
X173009470Y-89949274D01*
X172998976Y-89983868D01*
X172979659Y-90180000D01*
X172445500Y-90180000D01*
X172445500Y-89315180D01*
X172436767Y-89271278D01*
X172403504Y-89221496D01*
X172353722Y-89188233D01*
X172309820Y-89179500D01*
X170580180Y-89179500D01*
X170536278Y-89188233D01*
X170486496Y-89221496D01*
X170453233Y-89271278D01*
X170444500Y-89315180D01*
X170444500Y-91044820D01*
X170453233Y-91088722D01*
X170467042Y-91109389D01*
X170479424Y-91146869D01*
X170470775Y-91185384D01*
X170443556Y-91213972D01*
X170405513Y-91224500D01*
X169889012Y-91224500D01*
X169889006Y-91224499D01*
X169830850Y-91224499D01*
X169826011Y-91224341D01*
X169608164Y-91210066D01*
X169598567Y-91208802D01*
X169386845Y-91166691D01*
X169377495Y-91164186D01*
X169173075Y-91094797D01*
X169164132Y-91091093D01*
X168970512Y-90995612D01*
X168962130Y-90990772D01*
X168782642Y-90870846D01*
X168774962Y-90864954D01*
X168611053Y-90721213D01*
X168607518Y-90717902D01*
X166928168Y-89038552D01*
X166928061Y-89038463D01*
X166793672Y-88904074D01*
X166518211Y-88665385D01*
X166454904Y-88610529D01*
X166171297Y-88398223D01*
X166096058Y-88341899D01*
X165718949Y-88099544D01*
X165325531Y-87884720D01*
X164917772Y-87698501D01*
X164497774Y-87541849D01*
X164067688Y-87415564D01*
X163629664Y-87320275D01*
X163185957Y-87256479D01*
X162738856Y-87224500D01*
X162541852Y-87224500D01*
X148926078Y-87224500D01*
X148877500Y-87224500D01*
X148777116Y-87224500D01*
X148578818Y-87255907D01*
X148387876Y-87317948D01*
X148208993Y-87409094D01*
X148046569Y-87527101D01*
X147904601Y-87669069D01*
X147786594Y-87831493D01*
X147695448Y-88010376D01*
X147633407Y-88201318D01*
X147602000Y-88399616D01*
X147602000Y-88569890D01*
X147593262Y-88604774D01*
X147569112Y-88631417D01*
X147568996Y-88631496D01*
X147568995Y-88631496D01*
X147568995Y-88631497D01*
X147535733Y-88681278D01*
X147527000Y-88725181D01*
X147527000Y-89004819D01*
X147535733Y-89048723D01*
X147535845Y-89048890D01*
X147548315Y-89090000D01*
X147535845Y-89131110D01*
X147535733Y-89131276D01*
X147529910Y-89160546D01*
X147527000Y-89175180D01*
X147527000Y-89454820D01*
X147535733Y-89498722D01*
X147568996Y-89548504D01*
X147569112Y-89548582D01*
X147593262Y-89575226D01*
X147602000Y-89610110D01*
X147602000Y-89679909D01*
X147597334Y-89705769D01*
X147583926Y-89728368D01*
X147494618Y-89831435D01*
X147440802Y-89949274D01*
X147422367Y-90077499D01*
X147440802Y-90205725D01*
X147494617Y-90323562D01*
X147494618Y-90323563D01*
X147579451Y-90421467D01*
X147688431Y-90491504D01*
X147812728Y-90528000D01*
X147942270Y-90528000D01*
X147942272Y-90528000D01*
X148066569Y-90491504D01*
X148175549Y-90421467D01*
X148260382Y-90323563D01*
X148314197Y-90205726D01*
X148332633Y-90077500D01*
X148314197Y-89949274D01*
X148260382Y-89831437D01*
X148260381Y-89831436D01*
X148260381Y-89831435D01*
X148171074Y-89728368D01*
X148157666Y-89705769D01*
X148153000Y-89679909D01*
X148153000Y-89610110D01*
X148161724Y-89575253D01*
X148185835Y-89548616D01*
X148186004Y-89548504D01*
X148186005Y-89548501D01*
X148186337Y-89548280D01*
X148227469Y-89535776D01*
X148268610Y-89548247D01*
X148318776Y-89581766D01*
X148318778Y-89581767D01*
X148362680Y-89590500D01*
X148792319Y-89590500D01*
X148792320Y-89590500D01*
X148836222Y-89581767D01*
X148886004Y-89548504D01*
X148919267Y-89498722D01*
X148928000Y-89454820D01*
X148928000Y-89439500D01*
X148937914Y-89402500D01*
X148965000Y-89375414D01*
X149002000Y-89365500D01*
X150762150Y-89365500D01*
X150802549Y-89377500D01*
X150829844Y-89409609D01*
X150842884Y-89439141D01*
X150918359Y-89514616D01*
X151016002Y-89557730D01*
X151039877Y-89560500D01*
X151395122Y-89560499D01*
X151395123Y-89560499D01*
X151403080Y-89559576D01*
X151418998Y-89557730D01*
X151516641Y-89514616D01*
X151592116Y-89439141D01*
X151635230Y-89341498D01*
X151638000Y-89317623D01*
X151817000Y-89317623D01*
X151819769Y-89341496D01*
X151835667Y-89377500D01*
X151862884Y-89439141D01*
X151938359Y-89514616D01*
X152036002Y-89557730D01*
X152059877Y-89560500D01*
X152415122Y-89560499D01*
X152415123Y-89560499D01*
X152423080Y-89559576D01*
X152438998Y-89557730D01*
X152536641Y-89514616D01*
X152612116Y-89439141D01*
X152625155Y-89409609D01*
X152652451Y-89377500D01*
X152692850Y-89365500D01*
X154275699Y-89365500D01*
X154309567Y-89373705D01*
X154335924Y-89396500D01*
X154348926Y-89428831D01*
X154352457Y-89453067D01*
X154406580Y-89563779D01*
X154406581Y-89563780D01*
X154493720Y-89650919D01*
X154604433Y-89705043D01*
X154676205Y-89715500D01*
X155183794Y-89715499D01*
X155255567Y-89705043D01*
X155366280Y-89650919D01*
X155453419Y-89563780D01*
X155507543Y-89453067D01*
X155518000Y-89381295D01*
X155518000Y-89340000D01*
X155917501Y-89340000D01*
X155917501Y-89381246D01*
X155927943Y-89452923D01*
X155981992Y-89563484D01*
X156069015Y-89650507D01*
X156179575Y-89704556D01*
X156251254Y-89715000D01*
X156255000Y-89715000D01*
X156255000Y-89340000D01*
X156755000Y-89340000D01*
X156755000Y-89714999D01*
X156758746Y-89714999D01*
X156830423Y-89704556D01*
X156940984Y-89650507D01*
X157028007Y-89563484D01*
X157082056Y-89452924D01*
X157092500Y-89381246D01*
X157092500Y-89340000D01*
X156755000Y-89340000D01*
X156255000Y-89340000D01*
X155917501Y-89340000D01*
X155518000Y-89340000D01*
X155517999Y-88840000D01*
X155917500Y-88840000D01*
X156255000Y-88840000D01*
X156255000Y-88465001D01*
X156251254Y-88465001D01*
X156179576Y-88475443D01*
X156069015Y-88529492D01*
X155981992Y-88616515D01*
X155927943Y-88727075D01*
X155917500Y-88798754D01*
X155917500Y-88840000D01*
X155517999Y-88840000D01*
X155517999Y-88798706D01*
X155507543Y-88726933D01*
X155453419Y-88616220D01*
X155366280Y-88529081D01*
X155366279Y-88529080D01*
X155255568Y-88474957D01*
X155231643Y-88471471D01*
X155187227Y-88465000D01*
X156755000Y-88465000D01*
X156755000Y-88840000D01*
X157092499Y-88840000D01*
X157092499Y-88798754D01*
X157082056Y-88727076D01*
X157028007Y-88616515D01*
X156940984Y-88529492D01*
X156830424Y-88475443D01*
X156758746Y-88465000D01*
X156755000Y-88465000D01*
X155187227Y-88465000D01*
X155183795Y-88464500D01*
X155183793Y-88464500D01*
X154676205Y-88464500D01*
X154604432Y-88474957D01*
X154493720Y-88529080D01*
X154406580Y-88616220D01*
X154352456Y-88726931D01*
X154348926Y-88751168D01*
X154335924Y-88783499D01*
X154309567Y-88806295D01*
X154275699Y-88814500D01*
X152692850Y-88814500D01*
X152652451Y-88802500D01*
X152625155Y-88770390D01*
X152612116Y-88740859D01*
X152536641Y-88665384D01*
X152438998Y-88622270D01*
X152438996Y-88622269D01*
X152418255Y-88619863D01*
X152415122Y-88619500D01*
X152059876Y-88619500D01*
X152036003Y-88622269D01*
X151938358Y-88665384D01*
X151862885Y-88740857D01*
X151819769Y-88838503D01*
X151817000Y-88862377D01*
X151817000Y-89317623D01*
X151638000Y-89317623D01*
X151637999Y-88862378D01*
X151635230Y-88838502D01*
X151592116Y-88740859D01*
X151516641Y-88665384D01*
X151418998Y-88622270D01*
X151418996Y-88622269D01*
X151398255Y-88619863D01*
X151395122Y-88619500D01*
X151039876Y-88619500D01*
X151016003Y-88622269D01*
X150918358Y-88665384D01*
X150842884Y-88740858D01*
X150829845Y-88770390D01*
X150802549Y-88802500D01*
X150762150Y-88814500D01*
X149002000Y-88814500D01*
X148965000Y-88804586D01*
X148937914Y-88777500D01*
X148928000Y-88740500D01*
X148928000Y-88725181D01*
X148927500Y-88722666D01*
X148919267Y-88681278D01*
X148886004Y-88631496D01*
X148836222Y-88598233D01*
X148792320Y-88589500D01*
X148362680Y-88589500D01*
X148318777Y-88598233D01*
X148318778Y-88598233D01*
X148268610Y-88631753D01*
X148227520Y-88644223D01*
X148186423Y-88631776D01*
X148186004Y-88631496D01*
X148185922Y-88631441D01*
X148161748Y-88604792D01*
X148153000Y-88569890D01*
X148153000Y-88503638D01*
X148153356Y-88496385D01*
X148155419Y-88475443D01*
X148166207Y-88365903D01*
X148169034Y-88351689D01*
X148206035Y-88229713D01*
X148211586Y-88216315D01*
X148271666Y-88103913D01*
X148279718Y-88091861D01*
X148360578Y-87993333D01*
X148370835Y-87983077D01*
X148430076Y-87934459D01*
X148469361Y-87902218D01*
X148481413Y-87894166D01*
X148593818Y-87834084D01*
X148607213Y-87828535D01*
X148729189Y-87791534D01*
X148743403Y-87788707D01*
X148873885Y-87775855D01*
X148881138Y-87775500D01*
X148926078Y-87775500D01*
X162466140Y-87775500D01*
X162513264Y-87775500D01*
X162516168Y-87775556D01*
X162960973Y-87793034D01*
X162966724Y-87793487D01*
X163407342Y-87845639D01*
X163413074Y-87846547D01*
X163848228Y-87933105D01*
X163853855Y-87934456D01*
X164280896Y-88054896D01*
X164286409Y-88056688D01*
X164702660Y-88210252D01*
X164708013Y-88212469D01*
X165110951Y-88398227D01*
X165116112Y-88400857D01*
X165286689Y-88496385D01*
X165503220Y-88617649D01*
X165508174Y-88620685D01*
X165877074Y-88867178D01*
X165881775Y-88870594D01*
X166230190Y-89145263D01*
X166234608Y-89149036D01*
X166267564Y-89179500D01*
X166502311Y-89396500D01*
X166561718Y-89451415D01*
X166563813Y-89453429D01*
X168197151Y-91086767D01*
X168197205Y-91086848D01*
X168219394Y-91109036D01*
X168219394Y-91109037D01*
X168309757Y-91199397D01*
X168448425Y-91309979D01*
X168509579Y-91358747D01*
X168725989Y-91494723D01*
X168848953Y-91553937D01*
X168956257Y-91605610D01*
X169197495Y-91690020D01*
X169446668Y-91746889D01*
X169700641Y-91775501D01*
X169828431Y-91775500D01*
X170811964Y-91775500D01*
X170854574Y-91788999D01*
X170881638Y-91824570D01*
X170883283Y-91869237D01*
X170858909Y-91906701D01*
X170753347Y-91993335D01*
X170734117Y-92009117D01*
X170609090Y-92161462D01*
X170516186Y-92335271D01*
X170458976Y-92523867D01*
X170439659Y-92720000D01*
X170458976Y-92916132D01*
X170516186Y-93104728D01*
X170545477Y-93159526D01*
X170609090Y-93278538D01*
X170734117Y-93430883D01*
X170886462Y-93555910D01*
X170934835Y-93581766D01*
X170941331Y-93585238D01*
X170974100Y-93620512D01*
X170978230Y-93668481D01*
X170951975Y-93708838D01*
X170906448Y-93724500D01*
X167293778Y-93724500D01*
X167290146Y-93724411D01*
X167016873Y-93710981D01*
X167009646Y-93710269D01*
X166740810Y-93670387D01*
X166733687Y-93668970D01*
X166470055Y-93602928D01*
X166463106Y-93600820D01*
X166263725Y-93529477D01*
X166207211Y-93509254D01*
X166200509Y-93506478D01*
X166087281Y-93452923D01*
X165954819Y-93390270D01*
X165948414Y-93386846D01*
X165715304Y-93247119D01*
X165709266Y-93243084D01*
X165490974Y-93081180D01*
X165485366Y-93076577D01*
X165281914Y-92892173D01*
X165279290Y-92889674D01*
X165238426Y-92848809D01*
X165238421Y-92848805D01*
X164302849Y-91913233D01*
X164302797Y-91913154D01*
X164280606Y-91890964D01*
X164280607Y-91890964D01*
X164190244Y-91800604D01*
X163990422Y-91641254D01*
X163990423Y-91641254D01*
X163990421Y-91641253D01*
X163774014Y-91505279D01*
X163658879Y-91449835D01*
X163543744Y-91394390D01*
X163331925Y-91320274D01*
X163302503Y-91309979D01*
X163053332Y-91253110D01*
X162850787Y-91230292D01*
X162799359Y-91224499D01*
X162799357Y-91224499D01*
X162671569Y-91224500D01*
X148777116Y-91224500D01*
X148578818Y-91255907D01*
X148387876Y-91317948D01*
X148208993Y-91409094D01*
X148046569Y-91527101D01*
X147904601Y-91669069D01*
X147786594Y-91831493D01*
X147695448Y-92010376D01*
X147633407Y-92201318D01*
X147602000Y-92399616D01*
X147602000Y-92569890D01*
X147593262Y-92604774D01*
X147569112Y-92631417D01*
X147568996Y-92631496D01*
X147535733Y-92681278D01*
X147527000Y-92725180D01*
X147527000Y-93004820D01*
X147535733Y-93048722D01*
X147535844Y-93048889D01*
X147548315Y-93089996D01*
X147535847Y-93131106D01*
X147535734Y-93131275D01*
X147535733Y-93131277D01*
X147535733Y-93131278D01*
X147527000Y-93175180D01*
X147527000Y-93454820D01*
X147535733Y-93498722D01*
X147568996Y-93548504D01*
X147569112Y-93548582D01*
X147593262Y-93575226D01*
X147602000Y-93610110D01*
X147602000Y-93702409D01*
X147597334Y-93728269D01*
X147583926Y-93750868D01*
X147494618Y-93853935D01*
X147440802Y-93971774D01*
X147422367Y-94099999D01*
X144489615Y-94099999D01*
X144282313Y-93892697D01*
X144279010Y-93889171D01*
X144135061Y-93725025D01*
X144129169Y-93717345D01*
X144009244Y-93537859D01*
X144004404Y-93529477D01*
X143931307Y-93381246D01*
X143908924Y-93335857D01*
X143905221Y-93326916D01*
X143902066Y-93317622D01*
X143835831Y-93122493D01*
X143833328Y-93113149D01*
X143826969Y-93081180D01*
X143791217Y-92901429D01*
X143789953Y-92891832D01*
X143787134Y-92848809D01*
X143775657Y-92673670D01*
X143775500Y-92668855D01*
X143775500Y-92665384D01*
X143775501Y-92622999D01*
X143775500Y-92622996D01*
X143775500Y-83867083D01*
X143775616Y-83862934D01*
X143779744Y-83789421D01*
X143792398Y-83564088D01*
X143793328Y-83555848D01*
X143798213Y-83527101D01*
X143843112Y-83262839D01*
X143844958Y-83254753D01*
X143853675Y-83224495D01*
X143927244Y-82969131D01*
X143929974Y-82961330D01*
X144043727Y-82686703D01*
X144047308Y-82679268D01*
X144191098Y-82419099D01*
X144195498Y-82412099D01*
X144242353Y-82346063D01*
X144367506Y-82169675D01*
X144372657Y-82163215D01*
X144570723Y-81941581D01*
X144576586Y-81935719D01*
X144798215Y-81737657D01*
X144804675Y-81732506D01*
X145047101Y-81560496D01*
X145054099Y-81556098D01*
X145314268Y-81412308D01*
X145321703Y-81408727D01*
X145596330Y-81294974D01*
X145604131Y-81292244D01*
X145889756Y-81209957D01*
X145897839Y-81208112D01*
X146190856Y-81158327D01*
X146199088Y-81157398D01*
X146497934Y-81140615D01*
X146502083Y-81140500D01*
X146548578Y-81140500D01*
X147453000Y-81140500D01*
X147490000Y-81150414D01*
X147517086Y-81177500D01*
X147527000Y-81214500D01*
X147527000Y-81454820D01*
X147535733Y-81498722D01*
X147568996Y-81548504D01*
X147569112Y-81548582D01*
X147593262Y-81575226D01*
X147602000Y-81610110D01*
X147602000Y-81702409D01*
X147597334Y-81728269D01*
X147583926Y-81750868D01*
X147494618Y-81853935D01*
X147440802Y-81971774D01*
X147423331Y-82093297D01*
X147422367Y-82100000D01*
X147425017Y-82118435D01*
X147440802Y-82228225D01*
X147494617Y-82346062D01*
X147494618Y-82346063D01*
X147579451Y-82443967D01*
X147688431Y-82514004D01*
X147812728Y-82550500D01*
X147942270Y-82550500D01*
X147942272Y-82550500D01*
X148066569Y-82514004D01*
X148175549Y-82443967D01*
X148260382Y-82346063D01*
X148314197Y-82228226D01*
X148332633Y-82100000D01*
X148314197Y-81971774D01*
X148260382Y-81853937D01*
X148260381Y-81853936D01*
X148260381Y-81853935D01*
X148171074Y-81750868D01*
X148157666Y-81728269D01*
X148153000Y-81702409D01*
X148153000Y-81610110D01*
X148161724Y-81575253D01*
X148185835Y-81548616D01*
X148186004Y-81548504D01*
X148186005Y-81548501D01*
X148186337Y-81548280D01*
X148227469Y-81535776D01*
X148268610Y-81548247D01*
X148318776Y-81581766D01*
X148318778Y-81581767D01*
X148362680Y-81590500D01*
X148792319Y-81590500D01*
X148792320Y-81590500D01*
X148836222Y-81581767D01*
X148886004Y-81548504D01*
X148919267Y-81498722D01*
X148928000Y-81454820D01*
X148928000Y-81439500D01*
X148937914Y-81402500D01*
X148965000Y-81375414D01*
X149002000Y-81365500D01*
X150762150Y-81365500D01*
X150802549Y-81377500D01*
X150829844Y-81409609D01*
X150842884Y-81439141D01*
X150918359Y-81514616D01*
X151016002Y-81557730D01*
X151039877Y-81560500D01*
X151395122Y-81560499D01*
X151395123Y-81560499D01*
X151403080Y-81559575D01*
X151418998Y-81557730D01*
X151516641Y-81514616D01*
X151592116Y-81439141D01*
X151635230Y-81341498D01*
X151638000Y-81317623D01*
X151817000Y-81317623D01*
X151819769Y-81341496D01*
X151835667Y-81377500D01*
X151862884Y-81439141D01*
X151938359Y-81514616D01*
X152036002Y-81557730D01*
X152059877Y-81560500D01*
X152415122Y-81560499D01*
X152415123Y-81560499D01*
X152423080Y-81559575D01*
X152438998Y-81557730D01*
X152536641Y-81514616D01*
X152612116Y-81439141D01*
X152625155Y-81409609D01*
X152652451Y-81377500D01*
X152692850Y-81365500D01*
X154285699Y-81365500D01*
X154319567Y-81373705D01*
X154345924Y-81396500D01*
X154358926Y-81428831D01*
X154362457Y-81453067D01*
X154416580Y-81563779D01*
X154416581Y-81563779D01*
X154416581Y-81563780D01*
X154503720Y-81650919D01*
X154614433Y-81705043D01*
X154686205Y-81715500D01*
X155193794Y-81715499D01*
X155265567Y-81705043D01*
X155376280Y-81650919D01*
X155463419Y-81563780D01*
X155517543Y-81453067D01*
X155528000Y-81381295D01*
X155528000Y-81340000D01*
X155927501Y-81340000D01*
X155927501Y-81381246D01*
X155937943Y-81452923D01*
X155991992Y-81563484D01*
X156079015Y-81650507D01*
X156189575Y-81704556D01*
X156261254Y-81715000D01*
X156265000Y-81715000D01*
X156265000Y-81340000D01*
X156765000Y-81340000D01*
X156765000Y-81714999D01*
X156768746Y-81714999D01*
X156840423Y-81704556D01*
X156950984Y-81650507D01*
X157038007Y-81563484D01*
X157092056Y-81452924D01*
X157102500Y-81381246D01*
X157102500Y-81340000D01*
X156765000Y-81340000D01*
X156265000Y-81340000D01*
X155927501Y-81340000D01*
X155528000Y-81340000D01*
X155527999Y-80840000D01*
X155927500Y-80840000D01*
X156265000Y-80840000D01*
X156265000Y-80465001D01*
X156261254Y-80465001D01*
X156189576Y-80475443D01*
X156079015Y-80529492D01*
X155991992Y-80616515D01*
X155937943Y-80727075D01*
X155927500Y-80798754D01*
X155927500Y-80840000D01*
X155527999Y-80840000D01*
X155527999Y-80798706D01*
X155517543Y-80726933D01*
X155463419Y-80616220D01*
X155376280Y-80529081D01*
X155376279Y-80529080D01*
X155265568Y-80474957D01*
X155241643Y-80471471D01*
X155197227Y-80465000D01*
X156765000Y-80465000D01*
X156765000Y-80840000D01*
X157102499Y-80840000D01*
X157102499Y-80798754D01*
X157092056Y-80727076D01*
X157038007Y-80616515D01*
X156950984Y-80529492D01*
X156840424Y-80475443D01*
X156768746Y-80465000D01*
X156765000Y-80465000D01*
X155197227Y-80465000D01*
X155193795Y-80464500D01*
X155193793Y-80464500D01*
X154686205Y-80464500D01*
X154614432Y-80474957D01*
X154503720Y-80529080D01*
X154416580Y-80616220D01*
X154362456Y-80726931D01*
X154358926Y-80751168D01*
X154345924Y-80783499D01*
X154319567Y-80806295D01*
X154285699Y-80814500D01*
X152692850Y-80814500D01*
X152652451Y-80802500D01*
X152625155Y-80770390D01*
X152618713Y-80755800D01*
X152612116Y-80740859D01*
X152536641Y-80665384D01*
X152438998Y-80622270D01*
X152438996Y-80622269D01*
X152418255Y-80619863D01*
X152415122Y-80619500D01*
X152059876Y-80619500D01*
X152036003Y-80622269D01*
X151938358Y-80665384D01*
X151862885Y-80740857D01*
X151819769Y-80838503D01*
X151817000Y-80862377D01*
X151817000Y-81317623D01*
X151638000Y-81317623D01*
X151637999Y-80862378D01*
X151635230Y-80838502D01*
X151592116Y-80740859D01*
X151516641Y-80665384D01*
X151418998Y-80622270D01*
X151418996Y-80622269D01*
X151398255Y-80619863D01*
X151395122Y-80619500D01*
X151039876Y-80619500D01*
X151016003Y-80622269D01*
X150918358Y-80665384D01*
X150842884Y-80740858D01*
X150829845Y-80770390D01*
X150802549Y-80802500D01*
X150762150Y-80814500D01*
X149002000Y-80814500D01*
X148965000Y-80804586D01*
X148937914Y-80777500D01*
X148928000Y-80740500D01*
X148928000Y-80725181D01*
X148922348Y-80696768D01*
X148919267Y-80681278D01*
X148886004Y-80631496D01*
X148836222Y-80598233D01*
X148792320Y-80589500D01*
X148362680Y-80589500D01*
X148318778Y-80598232D01*
X148318778Y-80598233D01*
X148268610Y-80631753D01*
X148227520Y-80644223D01*
X148186423Y-80631776D01*
X148186004Y-80631496D01*
X148185922Y-80631441D01*
X148161748Y-80604792D01*
X148153000Y-80569890D01*
X148153000Y-80503638D01*
X148153356Y-80496385D01*
X148155419Y-80475443D01*
X148166207Y-80365903D01*
X148169034Y-80351689D01*
X148206035Y-80229713D01*
X148211586Y-80216315D01*
X148219602Y-80201318D01*
X148271666Y-80103913D01*
X148279718Y-80091861D01*
X148360578Y-79993333D01*
X148370835Y-79983077D01*
X148380041Y-79975522D01*
X148469361Y-79902218D01*
X148481413Y-79894166D01*
X148593818Y-79834084D01*
X148607213Y-79828535D01*
X148729189Y-79791534D01*
X148743403Y-79788707D01*
X148873885Y-79775855D01*
X148881138Y-79775500D01*
X148926078Y-79775500D01*
X169244316Y-79775500D01*
X169244319Y-79775501D01*
X169288048Y-79775500D01*
X169297705Y-79776132D01*
X169341344Y-79781877D01*
X169360002Y-79786877D01*
X169396146Y-79801848D01*
X169412875Y-79811506D01*
X169447765Y-79838277D01*
X169455044Y-79844660D01*
X169615905Y-80005521D01*
X169615909Y-80005526D01*
X169624397Y-80014014D01*
X169624398Y-80014015D01*
X169639213Y-80028830D01*
X169639220Y-80028844D01*
X169658745Y-80048367D01*
X169658745Y-80048368D01*
X169712755Y-80102376D01*
X169839772Y-80187243D01*
X169980905Y-80245701D01*
X170130731Y-80275501D01*
X170207111Y-80275500D01*
X170911448Y-80275500D01*
X170956975Y-80291162D01*
X170983230Y-80331519D01*
X170979100Y-80379488D01*
X170946331Y-80414762D01*
X170891463Y-80444089D01*
X170739117Y-80569117D01*
X170614090Y-80721462D01*
X170521186Y-80895271D01*
X170463976Y-81083867D01*
X170444659Y-81280000D01*
X170463976Y-81476132D01*
X170521186Y-81664728D01*
X170567229Y-81750868D01*
X170614090Y-81838538D01*
X170739117Y-81990883D01*
X170863909Y-82093298D01*
X170888283Y-82130763D01*
X170886638Y-82175430D01*
X170859574Y-82211001D01*
X170816964Y-82224500D01*
X170673874Y-82224500D01*
X170673826Y-82224504D01*
X170630730Y-82224504D01*
X170480905Y-82254304D01*
X170339773Y-82312761D01*
X170212760Y-82397626D01*
X170212757Y-82397628D01*
X170212758Y-82397628D01*
X170177934Y-82432450D01*
X170177933Y-82432451D01*
X170177931Y-82432452D01*
X170158749Y-82451635D01*
X170158748Y-82451636D01*
X170124398Y-82485985D01*
X170124397Y-82485986D01*
X169459988Y-83150396D01*
X169459983Y-83150401D01*
X169455067Y-83155316D01*
X169447793Y-83161694D01*
X169412872Y-83188489D01*
X169396143Y-83198147D01*
X169360001Y-83213117D01*
X169341341Y-83218117D01*
X169297667Y-83223866D01*
X169288009Y-83224499D01*
X169232314Y-83224499D01*
X169232308Y-83224500D01*
X148777116Y-83224500D01*
X148578818Y-83255907D01*
X148387876Y-83317948D01*
X148208993Y-83409094D01*
X148046569Y-83527101D01*
X147904601Y-83669069D01*
X147786594Y-83831493D01*
X147695448Y-84010376D01*
X147633407Y-84201318D01*
X147602000Y-84399616D01*
X147602000Y-84515500D01*
X147592086Y-84552500D01*
X147565000Y-84579586D01*
X147528000Y-84589500D01*
X146362355Y-84589500D01*
X146089085Y-84622680D01*
X145889530Y-84671866D01*
X145821794Y-84688562D01*
X145821792Y-84688562D01*
X145821791Y-84688563D01*
X145564403Y-84786177D01*
X145320644Y-84914111D01*
X145094089Y-85070491D01*
X144888037Y-85253037D01*
X144705491Y-85459089D01*
X144549111Y-85685644D01*
X144421177Y-85929403D01*
X144323563Y-86186791D01*
X144257680Y-86454085D01*
X144224500Y-86727355D01*
X144224500Y-91892012D01*
X144219834Y-91917872D01*
X144206426Y-91940471D01*
X144117118Y-92043538D01*
X144063302Y-92161377D01*
X144044867Y-92289603D01*
X144063302Y-92417828D01*
X144117117Y-92535665D01*
X144117118Y-92535666D01*
X144201951Y-92633570D01*
X144310931Y-92703607D01*
X144435228Y-92740103D01*
X144564770Y-92740103D01*
X144564772Y-92740103D01*
X144689069Y-92703607D01*
X144798049Y-92633570D01*
X144882882Y-92535666D01*
X144936697Y-92417829D01*
X144955133Y-92289603D01*
X144936697Y-92161377D01*
X144882882Y-92043540D01*
X144882881Y-92043539D01*
X144882881Y-92043538D01*
X144793574Y-91940471D01*
X144780166Y-91917872D01*
X144775500Y-91892012D01*
X144775500Y-86867636D01*
X144775689Y-86862357D01*
X144792675Y-86624861D01*
X144794177Y-86614410D01*
X144812974Y-86528000D01*
X144844230Y-86384317D01*
X144847204Y-86374192D01*
X144910039Y-86205726D01*
X144929493Y-86153567D01*
X144933871Y-86143980D01*
X145046722Y-85937309D01*
X145052423Y-85928436D01*
X145193545Y-85739920D01*
X145200445Y-85731957D01*
X145366957Y-85565445D01*
X145374920Y-85558545D01*
X145563436Y-85417423D01*
X145572309Y-85411722D01*
X145778980Y-85298871D01*
X145788567Y-85294493D01*
X146009192Y-85212203D01*
X146019317Y-85209230D01*
X146249412Y-85159176D01*
X146259858Y-85157675D01*
X146497357Y-85140688D01*
X146502636Y-85140500D01*
X146548578Y-85140500D01*
X147453000Y-85140500D01*
X147490000Y-85150414D01*
X147517086Y-85177500D01*
X147527000Y-85214500D01*
X147527000Y-85454820D01*
X147535733Y-85498722D01*
X147568996Y-85548504D01*
X147569112Y-85548582D01*
X147593262Y-85575226D01*
X147602000Y-85610110D01*
X147602000Y-85679909D01*
X147597334Y-85705769D01*
X147583926Y-85728368D01*
X147494618Y-85831435D01*
X147440802Y-85949274D01*
X147422367Y-86077499D01*
X147440802Y-86205725D01*
X147494617Y-86323562D01*
X147494618Y-86323563D01*
X147579451Y-86421467D01*
X147688431Y-86491504D01*
X147812728Y-86528000D01*
X147942270Y-86528000D01*
X147942272Y-86528000D01*
X148066569Y-86491504D01*
X148175549Y-86421467D01*
X148260382Y-86323563D01*
X148314197Y-86205726D01*
X148332633Y-86077500D01*
X148314197Y-85949274D01*
X148260382Y-85831437D01*
X148260381Y-85831436D01*
X148260381Y-85831435D01*
X148171074Y-85728368D01*
X148157666Y-85705769D01*
X148153000Y-85679909D01*
X148153000Y-85610110D01*
X148161724Y-85575253D01*
X148185835Y-85548616D01*
X148186004Y-85548504D01*
X148186005Y-85548501D01*
X148186337Y-85548280D01*
X148227469Y-85535776D01*
X148268610Y-85548247D01*
X148318776Y-85581766D01*
X148318778Y-85581767D01*
X148362680Y-85590500D01*
X148792319Y-85590500D01*
X148792320Y-85590500D01*
X148836222Y-85581767D01*
X148886004Y-85548504D01*
X148919267Y-85498722D01*
X148928000Y-85454820D01*
X148928000Y-85439500D01*
X148937914Y-85402500D01*
X148965000Y-85375414D01*
X149002000Y-85365500D01*
X150762150Y-85365500D01*
X150802549Y-85377500D01*
X150829844Y-85409609D01*
X150842884Y-85439141D01*
X150918359Y-85514616D01*
X151016002Y-85557730D01*
X151039877Y-85560500D01*
X151395122Y-85560499D01*
X151395123Y-85560499D01*
X151403080Y-85559576D01*
X151418998Y-85557730D01*
X151516641Y-85514616D01*
X151592116Y-85439141D01*
X151635230Y-85341498D01*
X151638000Y-85317623D01*
X151817000Y-85317623D01*
X151819769Y-85341496D01*
X151835667Y-85377500D01*
X151862884Y-85439141D01*
X151938359Y-85514616D01*
X152036002Y-85557730D01*
X152059877Y-85560500D01*
X152415122Y-85560499D01*
X152415123Y-85560499D01*
X152423080Y-85559576D01*
X152438998Y-85557730D01*
X152536641Y-85514616D01*
X152612116Y-85439141D01*
X152625155Y-85409609D01*
X152652451Y-85377500D01*
X152692850Y-85365500D01*
X154285699Y-85365500D01*
X154319567Y-85373705D01*
X154345924Y-85396500D01*
X154358926Y-85428831D01*
X154362457Y-85453067D01*
X154416580Y-85563779D01*
X154416581Y-85563779D01*
X154416581Y-85563780D01*
X154503720Y-85650919D01*
X154614433Y-85705043D01*
X154686205Y-85715500D01*
X155193794Y-85715499D01*
X155265567Y-85705043D01*
X155376280Y-85650919D01*
X155463419Y-85563780D01*
X155517543Y-85453067D01*
X155528000Y-85381295D01*
X155528000Y-85340000D01*
X155927501Y-85340000D01*
X155927501Y-85381246D01*
X155937943Y-85452923D01*
X155991992Y-85563484D01*
X156079015Y-85650507D01*
X156189575Y-85704556D01*
X156261254Y-85715000D01*
X156265000Y-85715000D01*
X156265000Y-85340000D01*
X156765000Y-85340000D01*
X156765000Y-85714999D01*
X156768746Y-85714999D01*
X156840423Y-85704556D01*
X156950984Y-85650507D01*
X157038007Y-85563484D01*
X157092056Y-85452924D01*
X157102500Y-85381246D01*
X157102500Y-85340000D01*
X156765000Y-85340000D01*
X156265000Y-85340000D01*
X155927501Y-85340000D01*
X155528000Y-85340000D01*
X155527999Y-84840000D01*
X155927500Y-84840000D01*
X156265000Y-84840000D01*
X156265000Y-84465001D01*
X156261254Y-84465001D01*
X156189576Y-84475443D01*
X156079015Y-84529492D01*
X155991992Y-84616515D01*
X155937943Y-84727075D01*
X155927500Y-84798754D01*
X155927500Y-84840000D01*
X155527999Y-84840000D01*
X155527999Y-84798706D01*
X155517543Y-84726933D01*
X155463419Y-84616220D01*
X155376280Y-84529081D01*
X155376280Y-84529080D01*
X155376279Y-84529080D01*
X155265568Y-84474957D01*
X155241643Y-84471471D01*
X155197227Y-84465000D01*
X156765000Y-84465000D01*
X156765000Y-84840000D01*
X157102499Y-84840000D01*
X157102499Y-84798754D01*
X157092056Y-84727076D01*
X157038007Y-84616515D01*
X156950984Y-84529492D01*
X156840424Y-84475443D01*
X156768746Y-84465000D01*
X156765000Y-84465000D01*
X155197227Y-84465000D01*
X155193795Y-84464500D01*
X155193793Y-84464500D01*
X154686205Y-84464500D01*
X154614432Y-84474957D01*
X154503720Y-84529080D01*
X154416580Y-84616220D01*
X154362456Y-84726931D01*
X154358926Y-84751168D01*
X154345924Y-84783499D01*
X154319567Y-84806295D01*
X154285699Y-84814500D01*
X152692850Y-84814500D01*
X152652451Y-84802500D01*
X152625155Y-84770390D01*
X152612116Y-84740859D01*
X152536641Y-84665384D01*
X152438998Y-84622270D01*
X152438996Y-84622269D01*
X152418255Y-84619863D01*
X152415122Y-84619500D01*
X152059876Y-84619500D01*
X152036003Y-84622269D01*
X151938358Y-84665384D01*
X151862885Y-84740857D01*
X151862884Y-84740858D01*
X151862884Y-84740859D01*
X151858332Y-84751168D01*
X151819769Y-84838503D01*
X151817000Y-84862377D01*
X151817000Y-85317623D01*
X151638000Y-85317623D01*
X151637999Y-84862378D01*
X151635230Y-84838502D01*
X151592116Y-84740859D01*
X151516641Y-84665384D01*
X151418998Y-84622270D01*
X151418996Y-84622269D01*
X151398255Y-84619863D01*
X151395122Y-84619500D01*
X151039876Y-84619500D01*
X151016003Y-84622269D01*
X150918358Y-84665384D01*
X150842884Y-84740858D01*
X150829845Y-84770390D01*
X150802549Y-84802500D01*
X150762150Y-84814500D01*
X149002000Y-84814500D01*
X148965000Y-84804586D01*
X148937914Y-84777500D01*
X148928000Y-84740500D01*
X148928000Y-84725181D01*
X148927500Y-84722666D01*
X148919267Y-84681278D01*
X148886004Y-84631496D01*
X148836222Y-84598233D01*
X148792320Y-84589500D01*
X148362680Y-84589500D01*
X148318778Y-84598232D01*
X148318778Y-84598233D01*
X148268610Y-84631753D01*
X148227520Y-84644223D01*
X148186423Y-84631776D01*
X148186004Y-84631496D01*
X148185922Y-84631441D01*
X148161748Y-84604792D01*
X148153000Y-84569890D01*
X148153000Y-84503638D01*
X148153356Y-84496385D01*
X148155419Y-84475443D01*
X148166207Y-84365903D01*
X148169034Y-84351689D01*
X148206035Y-84229713D01*
X148211586Y-84216315D01*
X148271666Y-84103913D01*
X148279718Y-84091861D01*
X148360578Y-83993333D01*
X148370835Y-83983077D01*
X148469361Y-83902218D01*
X148481413Y-83894166D01*
X148593818Y-83834084D01*
X148607213Y-83828535D01*
X148729189Y-83791534D01*
X148743403Y-83788707D01*
X148873885Y-83775855D01*
X148881138Y-83775500D01*
X169327956Y-83775500D01*
X169327999Y-83775495D01*
X169369269Y-83775496D01*
X169519095Y-83745696D01*
X169660227Y-83687238D01*
X169787244Y-83602371D01*
X169813575Y-83576038D01*
X169813578Y-83576037D01*
X169822066Y-83567548D01*
X169822069Y-83567547D01*
X170544939Y-82844675D01*
X170552201Y-82838307D01*
X170587128Y-82811508D01*
X170603849Y-82801854D01*
X170640003Y-82786879D01*
X170658654Y-82781882D01*
X170702333Y-82776132D01*
X170711989Y-82775500D01*
X170755681Y-82775501D01*
X170755684Y-82775500D01*
X170986282Y-82775500D01*
X171031809Y-82791162D01*
X171058064Y-82831519D01*
X171053934Y-82879488D01*
X171021166Y-82914761D01*
X170926887Y-82965155D01*
X170891462Y-82984090D01*
X170739117Y-83109117D01*
X170614090Y-83261462D01*
X170521186Y-83435271D01*
X170463976Y-83623867D01*
X170444659Y-83819999D01*
X170463976Y-84016132D01*
X170521186Y-84204728D01*
X170530817Y-84222746D01*
X170614090Y-84378538D01*
X170739117Y-84530883D01*
X170891462Y-84655910D01*
X171065273Y-84748814D01*
X171253868Y-84806024D01*
X171450000Y-84825341D01*
X171646132Y-84806024D01*
X171834727Y-84748814D01*
X172008538Y-84655910D01*
X172160883Y-84530883D01*
X172285910Y-84378538D01*
X172378814Y-84204727D01*
X172436024Y-84016132D01*
X172455341Y-83820000D01*
X172436024Y-83623868D01*
X172378814Y-83435273D01*
X172285910Y-83261462D01*
X172160883Y-83109117D01*
X172008538Y-82984090D01*
X171878833Y-82914761D01*
X171846066Y-82879488D01*
X171841936Y-82831519D01*
X171868191Y-82791162D01*
X171913718Y-82775500D01*
X172414316Y-82775500D01*
X172414319Y-82775501D01*
X172458048Y-82775500D01*
X172467705Y-82776132D01*
X172511344Y-82781877D01*
X172530002Y-82786877D01*
X172566146Y-82801848D01*
X172582875Y-82811506D01*
X172617765Y-82838277D01*
X172625044Y-82844660D01*
X173076184Y-83295800D01*
X173097057Y-83337267D01*
X173089121Y-83383008D01*
X173061186Y-83435271D01*
X173003976Y-83623868D01*
X172984659Y-83819999D01*
X173003976Y-84016132D01*
X173061186Y-84204728D01*
X173070817Y-84222746D01*
X173154090Y-84378538D01*
X173279117Y-84530883D01*
X173431462Y-84655910D01*
X173605273Y-84748814D01*
X173793868Y-84806024D01*
X173990000Y-84825341D01*
X174186132Y-84806024D01*
X174374727Y-84748814D01*
X174548538Y-84655910D01*
X174700883Y-84530883D01*
X174825910Y-84378538D01*
X174918814Y-84204727D01*
X174976024Y-84016132D01*
X174995341Y-83820000D01*
X174976024Y-83623868D01*
X174918814Y-83435273D01*
X174825910Y-83261462D01*
X174700883Y-83109117D01*
X174548538Y-82984090D01*
X174418835Y-82914762D01*
X174374728Y-82891186D01*
X174186132Y-82833976D01*
X174161185Y-82831519D01*
X173990000Y-82814659D01*
X173989999Y-82814659D01*
X173793868Y-82833976D01*
X173605271Y-82891186D01*
X173553008Y-82919121D01*
X173507267Y-82927057D01*
X173465800Y-82906184D01*
X173035138Y-82475522D01*
X173035125Y-82475501D01*
X172957247Y-82397626D01*
X172957246Y-82397625D01*
X172830230Y-82312757D01*
X172689096Y-82254300D01*
X172689091Y-82254299D01*
X172539271Y-82224499D01*
X172539270Y-82224499D01*
X172462889Y-82224500D01*
X172083036Y-82224500D01*
X172040426Y-82211001D01*
X172013362Y-82175430D01*
X172011717Y-82130763D01*
X172036090Y-82093298D01*
X172160883Y-81990883D01*
X172285910Y-81838538D01*
X172378814Y-81664727D01*
X172436024Y-81476132D01*
X172455341Y-81280000D01*
X172436024Y-81083868D01*
X172378814Y-80895273D01*
X172285910Y-80721462D01*
X172160883Y-80569117D01*
X172008538Y-80444090D01*
X171953668Y-80414761D01*
X171920900Y-80379488D01*
X171916770Y-80331519D01*
X171943025Y-80291162D01*
X171988552Y-80275500D01*
X172454316Y-80275500D01*
X172454319Y-80275501D01*
X172498048Y-80275500D01*
X172507705Y-80276132D01*
X172551344Y-80281877D01*
X172570002Y-80286877D01*
X172606146Y-80301848D01*
X172622875Y-80311506D01*
X172657765Y-80338277D01*
X172665044Y-80344660D01*
X173076184Y-80755800D01*
X173097057Y-80797267D01*
X173089121Y-80843008D01*
X173061186Y-80895271D01*
X173003976Y-81083868D01*
X172984659Y-81280000D01*
X173003976Y-81476132D01*
X173061186Y-81664728D01*
X173107229Y-81750868D01*
X173154090Y-81838538D01*
X173279117Y-81990883D01*
X173431462Y-82115910D01*
X173605273Y-82208814D01*
X173793868Y-82266024D01*
X173990000Y-82285341D01*
X174186132Y-82266024D01*
X174374727Y-82208814D01*
X174548538Y-82115910D01*
X174700883Y-81990883D01*
X174825910Y-81838538D01*
X174918814Y-81664727D01*
X174976024Y-81476132D01*
X174995341Y-81280000D01*
X174976024Y-81083868D01*
X174918814Y-80895273D01*
X174825910Y-80721462D01*
X174700883Y-80569117D01*
X174548538Y-80444090D01*
X174441837Y-80387057D01*
X174374728Y-80351186D01*
X174186132Y-80293976D01*
X173990000Y-80274659D01*
X173793868Y-80293976D01*
X173605271Y-80351186D01*
X173553008Y-80379121D01*
X173507267Y-80387057D01*
X173465800Y-80366184D01*
X173075138Y-79975522D01*
X173075125Y-79975501D01*
X172997247Y-79897626D01*
X172978461Y-79885074D01*
X172870230Y-79812757D01*
X172729096Y-79754300D01*
X172729091Y-79754299D01*
X172579271Y-79724499D01*
X172516862Y-79724499D01*
X172475749Y-79712027D01*
X172448494Y-79678816D01*
X172444285Y-79636062D01*
X172450500Y-79604820D01*
X172450500Y-77875180D01*
X172441767Y-77831278D01*
X172408504Y-77781496D01*
X172358722Y-77748233D01*
X172314820Y-77739500D01*
X170585180Y-77739500D01*
X170574915Y-77741542D01*
X170541278Y-77748233D01*
X170491496Y-77781496D01*
X170458233Y-77831278D01*
X170449500Y-77875181D01*
X170449500Y-79604819D01*
X170455715Y-79636062D01*
X170451504Y-79678818D01*
X170424249Y-79712029D01*
X170383137Y-79724500D01*
X170267692Y-79724500D01*
X170267686Y-79724499D01*
X170211951Y-79724499D01*
X170202293Y-79723866D01*
X170158657Y-79718122D01*
X170139997Y-79713122D01*
X170103853Y-79698151D01*
X170087124Y-79688493D01*
X170052233Y-79661721D01*
X170044954Y-79655338D01*
X169865138Y-79475522D01*
X169865125Y-79475501D01*
X169787247Y-79397626D01*
X169787246Y-79397625D01*
X169660230Y-79312757D01*
X169519096Y-79254300D01*
X169519091Y-79254299D01*
X169369271Y-79224499D01*
X169369270Y-79224499D01*
X169292889Y-79224500D01*
X148777116Y-79224500D01*
X148578818Y-79255907D01*
X148387876Y-79317948D01*
X148208993Y-79409094D01*
X148046569Y-79527101D01*
X147904601Y-79669069D01*
X147786594Y-79831493D01*
X147695448Y-80010376D01*
X147633407Y-80201318D01*
X147602000Y-80399616D01*
X147602000Y-80515500D01*
X147592086Y-80552500D01*
X147565000Y-80579586D01*
X147528000Y-80589500D01*
X146548578Y-80589500D01*
X146500000Y-80589500D01*
X146328338Y-80589500D01*
X146157617Y-80607443D01*
X145986892Y-80625387D01*
X145651072Y-80696768D01*
X145324555Y-80802860D01*
X145010915Y-80942501D01*
X144713583Y-81114166D01*
X144435836Y-81315960D01*
X144180693Y-81545693D01*
X143950960Y-81800836D01*
X143749166Y-82078583D01*
X143577501Y-82375915D01*
X143437860Y-82689555D01*
X143331768Y-83016072D01*
X143260387Y-83351892D01*
X143260387Y-83351896D01*
X143225142Y-83687238D01*
X143224500Y-83693342D01*
X143224500Y-92705642D01*
X142783854Y-92705642D01*
X142775615Y-92558904D01*
X142775500Y-92554772D01*
X142775500Y-92535665D01*
X142775501Y-92508785D01*
X142775500Y-92508782D01*
X142775500Y-80866817D01*
X142775589Y-80863186D01*
X142778468Y-80804586D01*
X142793256Y-80503547D01*
X142793965Y-80496353D01*
X142846534Y-80141962D01*
X142847944Y-80134875D01*
X142934997Y-79787340D01*
X142937093Y-79780431D01*
X143057790Y-79443107D01*
X143060560Y-79436419D01*
X143213735Y-79112557D01*
X143217141Y-79106184D01*
X143401329Y-78798885D01*
X143405353Y-78792863D01*
X143618772Y-78505101D01*
X143623352Y-78499521D01*
X143863951Y-78234061D01*
X143869061Y-78228951D01*
X144134521Y-77988352D01*
X144140101Y-77983772D01*
X144427863Y-77770353D01*
X144433885Y-77766329D01*
X144741184Y-77582141D01*
X144747557Y-77578735D01*
X145071419Y-77425560D01*
X145078107Y-77422790D01*
X145415431Y-77302093D01*
X145422340Y-77299997D01*
X145769875Y-77212944D01*
X145776962Y-77211534D01*
X146131353Y-77158965D01*
X146138547Y-77158256D01*
X146498188Y-77140588D01*
X146501819Y-77140500D01*
X146548578Y-77140500D01*
X147453000Y-77140500D01*
X147490000Y-77150414D01*
X147517086Y-77177500D01*
X147527000Y-77214500D01*
X147527000Y-77454820D01*
X147535733Y-77498722D01*
X147568996Y-77548504D01*
X147569112Y-77548582D01*
X147593262Y-77575226D01*
X147602000Y-77610110D01*
X147602000Y-77702409D01*
X147597334Y-77728269D01*
X147583926Y-77750868D01*
X147494618Y-77853935D01*
X147440802Y-77971774D01*
X147422367Y-78099999D01*
X147440802Y-78228225D01*
X147494617Y-78346062D01*
X147494618Y-78346063D01*
X147579451Y-78443967D01*
X147688431Y-78514004D01*
X147812728Y-78550500D01*
X147942270Y-78550500D01*
X147942272Y-78550500D01*
X148066569Y-78514004D01*
X148175549Y-78443967D01*
X148260382Y-78346063D01*
X148314197Y-78228226D01*
X148332633Y-78100000D01*
X148314197Y-77971774D01*
X148260382Y-77853937D01*
X148260381Y-77853936D01*
X148260381Y-77853935D01*
X148171074Y-77750868D01*
X148157666Y-77728269D01*
X148153000Y-77702409D01*
X148153000Y-77610110D01*
X148161724Y-77575253D01*
X148185835Y-77548616D01*
X148186004Y-77548504D01*
X148186005Y-77548501D01*
X148186337Y-77548280D01*
X148227469Y-77535776D01*
X148268610Y-77548247D01*
X148318776Y-77581766D01*
X148318778Y-77581767D01*
X148362680Y-77590500D01*
X148792319Y-77590500D01*
X148792320Y-77590500D01*
X148836222Y-77581767D01*
X148886004Y-77548504D01*
X148919267Y-77498722D01*
X148928000Y-77454820D01*
X148928000Y-77439500D01*
X148937914Y-77402500D01*
X148965000Y-77375414D01*
X149002000Y-77365500D01*
X150762150Y-77365500D01*
X150802549Y-77377500D01*
X150829844Y-77409609D01*
X150842884Y-77439141D01*
X150918359Y-77514616D01*
X151016002Y-77557730D01*
X151039877Y-77560500D01*
X151395122Y-77560499D01*
X151395123Y-77560499D01*
X151403080Y-77559576D01*
X151418998Y-77557730D01*
X151516641Y-77514616D01*
X151592116Y-77439141D01*
X151635230Y-77341498D01*
X151638000Y-77317623D01*
X151817000Y-77317623D01*
X151819769Y-77341496D01*
X151835667Y-77377500D01*
X151862884Y-77439141D01*
X151938359Y-77514616D01*
X152036002Y-77557730D01*
X152059877Y-77560500D01*
X152415122Y-77560499D01*
X152415123Y-77560499D01*
X152423080Y-77559576D01*
X152438998Y-77557730D01*
X152536641Y-77514616D01*
X152612116Y-77439141D01*
X152625155Y-77409609D01*
X152652451Y-77377500D01*
X152692850Y-77365500D01*
X154285699Y-77365500D01*
X154319567Y-77373705D01*
X154345924Y-77396500D01*
X154358926Y-77428831D01*
X154362457Y-77453067D01*
X154416580Y-77563779D01*
X154416581Y-77563779D01*
X154416581Y-77563780D01*
X154503720Y-77650919D01*
X154614433Y-77705043D01*
X154686205Y-77715500D01*
X155193794Y-77715499D01*
X155265567Y-77705043D01*
X155376280Y-77650919D01*
X155463419Y-77563780D01*
X155517543Y-77453067D01*
X155528000Y-77381295D01*
X155528000Y-77340000D01*
X155927501Y-77340000D01*
X155927501Y-77381246D01*
X155937943Y-77452923D01*
X155991992Y-77563484D01*
X156079015Y-77650507D01*
X156189575Y-77704556D01*
X156261254Y-77715000D01*
X156265000Y-77715000D01*
X156265000Y-77340000D01*
X156765000Y-77340000D01*
X156765000Y-77714999D01*
X156768746Y-77714999D01*
X156840423Y-77704556D01*
X156950984Y-77650507D01*
X157038007Y-77563484D01*
X157092056Y-77452924D01*
X157102500Y-77381246D01*
X157102500Y-77340000D01*
X156765000Y-77340000D01*
X156265000Y-77340000D01*
X155927501Y-77340000D01*
X155528000Y-77340000D01*
X155527999Y-76840000D01*
X155927500Y-76840000D01*
X156265000Y-76840000D01*
X156265000Y-76465001D01*
X156261254Y-76465001D01*
X156189576Y-76475443D01*
X156079015Y-76529492D01*
X155991992Y-76616515D01*
X155937943Y-76727075D01*
X155927500Y-76798754D01*
X155927500Y-76840000D01*
X155527999Y-76840000D01*
X155527999Y-76798706D01*
X155517543Y-76726933D01*
X155463419Y-76616220D01*
X155376280Y-76529081D01*
X155376279Y-76529080D01*
X155265568Y-76474957D01*
X155231544Y-76470000D01*
X155197227Y-76465000D01*
X156765000Y-76465000D01*
X156765000Y-76840000D01*
X157102499Y-76840000D01*
X157102499Y-76798754D01*
X157092056Y-76727076D01*
X157038007Y-76616515D01*
X156950984Y-76529492D01*
X156840424Y-76475443D01*
X156768746Y-76465000D01*
X156765000Y-76465000D01*
X155197227Y-76465000D01*
X155193795Y-76464500D01*
X155193793Y-76464500D01*
X154686205Y-76464500D01*
X154614432Y-76474957D01*
X154503720Y-76529080D01*
X154416580Y-76616220D01*
X154362456Y-76726931D01*
X154358926Y-76751168D01*
X154345924Y-76783499D01*
X154319567Y-76806295D01*
X154285699Y-76814500D01*
X152692850Y-76814500D01*
X152652451Y-76802500D01*
X152625155Y-76770390D01*
X152612116Y-76740859D01*
X152536641Y-76665384D01*
X152455898Y-76629732D01*
X152438996Y-76622269D01*
X152418255Y-76619863D01*
X152415122Y-76619500D01*
X152059876Y-76619500D01*
X152036003Y-76622269D01*
X151938358Y-76665384D01*
X151862885Y-76740857D01*
X151819769Y-76838503D01*
X151817000Y-76862377D01*
X151817000Y-77317623D01*
X151638000Y-77317623D01*
X151637999Y-76862378D01*
X151635230Y-76838502D01*
X151592116Y-76740859D01*
X151516641Y-76665384D01*
X151435898Y-76629732D01*
X151418996Y-76622269D01*
X151398255Y-76619863D01*
X151395122Y-76619500D01*
X151039876Y-76619500D01*
X151016003Y-76622269D01*
X150918358Y-76665384D01*
X150842884Y-76740858D01*
X150829845Y-76770390D01*
X150802549Y-76802500D01*
X150762150Y-76814500D01*
X149002000Y-76814500D01*
X148965000Y-76804586D01*
X148937914Y-76777500D01*
X148928000Y-76740500D01*
X148928000Y-76725181D01*
X148927500Y-76722666D01*
X148919267Y-76681278D01*
X148886004Y-76631496D01*
X148836222Y-76598233D01*
X148792320Y-76589500D01*
X148362680Y-76589500D01*
X148318777Y-76598233D01*
X148318778Y-76598233D01*
X148268610Y-76631753D01*
X148227520Y-76644223D01*
X148186423Y-76631776D01*
X148186004Y-76631496D01*
X148185922Y-76631441D01*
X148161748Y-76604792D01*
X148153000Y-76569890D01*
X148153000Y-76503638D01*
X148153356Y-76496385D01*
X148166207Y-76365903D01*
X148169034Y-76351689D01*
X148206035Y-76229713D01*
X148211586Y-76216315D01*
X148271666Y-76103913D01*
X148279718Y-76091861D01*
X148360578Y-75993333D01*
X148370835Y-75983077D01*
X148469361Y-75902218D01*
X148481413Y-75894166D01*
X148593818Y-75834084D01*
X148607213Y-75828535D01*
X148729189Y-75791534D01*
X148743403Y-75788707D01*
X148873885Y-75775855D01*
X148881138Y-75775500D01*
X148926078Y-75775500D01*
X169458782Y-75775500D01*
X169458785Y-75775501D01*
X169505281Y-75775500D01*
X169509429Y-75775616D01*
X169808263Y-75792394D01*
X169816508Y-75793322D01*
X170109534Y-75843106D01*
X170117618Y-75844951D01*
X170288443Y-75894163D01*
X170403223Y-75927229D01*
X170411056Y-75929970D01*
X170685648Y-76043706D01*
X170693124Y-76047306D01*
X170953260Y-76191074D01*
X170960282Y-76195485D01*
X171202692Y-76367481D01*
X171209172Y-76372648D01*
X171351681Y-76500000D01*
X171431956Y-76571737D01*
X171434973Y-76574589D01*
X173076184Y-78215800D01*
X173097057Y-78257267D01*
X173089121Y-78303008D01*
X173061186Y-78355271D01*
X173003976Y-78543868D01*
X172984659Y-78739999D01*
X173003976Y-78936132D01*
X173061186Y-79124728D01*
X173107637Y-79211632D01*
X173154090Y-79298538D01*
X173279117Y-79450883D01*
X173431462Y-79575910D01*
X173605273Y-79668814D01*
X173793868Y-79726024D01*
X173990000Y-79745341D01*
X174186132Y-79726024D01*
X174374727Y-79668814D01*
X174548538Y-79575910D01*
X174700883Y-79450883D01*
X174825910Y-79298538D01*
X174918814Y-79124727D01*
X174976024Y-78936132D01*
X174995341Y-78740000D01*
X174976024Y-78543868D01*
X174918814Y-78355273D01*
X174825910Y-78181462D01*
X174700883Y-78029117D01*
X174548538Y-77904090D01*
X174461632Y-77857638D01*
X174374728Y-77811186D01*
X174186132Y-77753976D01*
X174039152Y-77739500D01*
X173990000Y-77734659D01*
X173989999Y-77734659D01*
X173793868Y-77753976D01*
X173605271Y-77811186D01*
X173553008Y-77839121D01*
X173507267Y-77847057D01*
X173465800Y-77826184D01*
X171845180Y-76205564D01*
X171845099Y-76205443D01*
X171709719Y-76070065D01*
X171460938Y-75865900D01*
X171193348Y-75687106D01*
X171098733Y-75636534D01*
X170909512Y-75535396D01*
X170909509Y-75535395D01*
X170909504Y-75535392D01*
X170612180Y-75412240D01*
X170362686Y-75336561D01*
X170304202Y-75318821D01*
X170304199Y-75318820D01*
X170304198Y-75318820D01*
X170146377Y-75287429D01*
X169988553Y-75256039D01*
X169668271Y-75224498D01*
X169668268Y-75224498D01*
X169507355Y-75224500D01*
X148777116Y-75224500D01*
X148578818Y-75255907D01*
X148387876Y-75317948D01*
X148208993Y-75409094D01*
X148046569Y-75527101D01*
X147904601Y-75669069D01*
X147786594Y-75831493D01*
X147695448Y-76010376D01*
X147633407Y-76201318D01*
X147602000Y-76399616D01*
X147602000Y-76515500D01*
X147592086Y-76552500D01*
X147565000Y-76579586D01*
X147528000Y-76589500D01*
X146302329Y-76589500D01*
X145908686Y-76625975D01*
X145520074Y-76698620D01*
X145139832Y-76806808D01*
X144771191Y-76949621D01*
X144417298Y-77125838D01*
X144081176Y-77333956D01*
X143765699Y-77572193D01*
X143473536Y-77838536D01*
X143207193Y-78130699D01*
X142968956Y-78446176D01*
X142760838Y-78782298D01*
X142584621Y-79136191D01*
X142441808Y-79504832D01*
X142333620Y-79885074D01*
X142260975Y-80273686D01*
X142224500Y-80667329D01*
X142224500Y-92591475D01*
X142224527Y-92591763D01*
X142224527Y-92665384D01*
X142224527Y-92718270D01*
X142256068Y-93038549D01*
X142256069Y-93038554D01*
X142316323Y-93341498D01*
X142318849Y-93354195D01*
X142335658Y-93409610D01*
X142412267Y-93662170D01*
X142535418Y-93959491D01*
X142535421Y-93959496D01*
X142535422Y-93959499D01*
X142632569Y-94141253D01*
X142687130Y-94243332D01*
X142865927Y-94510925D01*
X143070082Y-94759695D01*
X143070087Y-94759700D01*
X143164683Y-94854299D01*
X143164685Y-94854301D01*
X148652805Y-100342421D01*
X148652808Y-100342423D01*
X148657784Y-100347399D01*
X148658030Y-100347601D01*
X148765636Y-100455208D01*
X149051632Y-100695191D01*
X149357454Y-100909334D01*
X149680777Y-101096009D01*
X150019140Y-101253794D01*
X150369966Y-101381488D01*
X150369969Y-101381489D01*
X150730577Y-101478118D01*
X150730584Y-101478119D01*
X150730587Y-101478120D01*
X151098257Y-101542955D01*
X151098261Y-101542955D01*
X151098265Y-101542956D01*
X151470174Y-101575498D01*
X151470179Y-101575498D01*
X151621104Y-101575498D01*
X151621110Y-101575500D01*
X151656851Y-101575500D01*
X151705429Y-101575501D01*
X151705432Y-101575500D01*
X153564456Y-101575500D01*
X153607907Y-101589600D01*
X153634800Y-101626527D01*
X153634886Y-101672208D01*
X153608133Y-101709236D01*
X153564735Y-101723499D01*
X148094981Y-101744139D01*
X148066512Y-101738560D01*
X148042376Y-101722466D01*
X138256108Y-91936198D01*
X138240811Y-91922783D01*
X138182109Y-91877739D01*
X138158622Y-91846941D01*
X138153911Y-91808496D01*
X138155133Y-91800000D01*
X138136697Y-91671774D01*
X138082882Y-91553937D01*
X137998049Y-91456033D01*
X137889069Y-91385996D01*
X137764772Y-91349500D01*
X137635228Y-91349500D01*
X137510931Y-91385996D01*
X137401951Y-91456033D01*
X137373418Y-91488961D01*
X137348236Y-91507813D01*
X137317495Y-91514500D01*
X137241409Y-91514500D01*
X137213090Y-91508867D01*
X137189083Y-91492826D01*
X137111642Y-91415385D01*
X137111642Y-91415384D01*
X137111641Y-91415384D01*
X137013998Y-91372270D01*
X137013996Y-91372269D01*
X136990123Y-91369500D01*
X136729500Y-91369500D01*
X136692500Y-91359586D01*
X136665414Y-91332500D01*
X136655500Y-91295500D01*
X136655500Y-82789603D01*
X141134470Y-82789603D01*
X141152905Y-82917828D01*
X141206720Y-83035665D01*
X141206721Y-83035666D01*
X141291554Y-83133570D01*
X141400534Y-83203607D01*
X141524831Y-83240103D01*
X141654373Y-83240103D01*
X141654375Y-83240103D01*
X141778672Y-83203607D01*
X141887652Y-83133570D01*
X141972485Y-83035666D01*
X142026300Y-82917829D01*
X142044736Y-82789603D01*
X142026300Y-82661377D01*
X141972485Y-82543540D01*
X141887652Y-82445636D01*
X141778672Y-82375599D01*
X141654375Y-82339103D01*
X141524831Y-82339103D01*
X141400534Y-82375598D01*
X141400534Y-82375599D01*
X141291554Y-82445636D01*
X141206720Y-82543540D01*
X141152905Y-82661377D01*
X141134470Y-82789603D01*
X136655500Y-82789603D01*
X136655500Y-79073999D01*
X136650379Y-79035099D01*
X136650202Y-79033754D01*
X136640288Y-78996754D01*
X136629712Y-78971221D01*
X136624754Y-78959251D01*
X136619004Y-78951758D01*
X136600041Y-78927045D01*
X136572955Y-78899959D01*
X136555733Y-78886744D01*
X136540748Y-78875245D01*
X136503252Y-78859714D01*
X136503248Y-78859713D01*
X136503246Y-78859712D01*
X136466246Y-78849798D01*
X136466243Y-78849797D01*
X136466241Y-78849797D01*
X136426001Y-78844500D01*
X136426000Y-78844500D01*
X132607203Y-78844500D01*
X132556618Y-78852957D01*
X132511088Y-78868621D01*
X132466008Y-78893073D01*
X132431332Y-78930863D01*
X132405076Y-78971221D01*
X132396013Y-78992009D01*
X132374419Y-79020209D01*
X132342172Y-79035099D01*
X132306701Y-79033248D01*
X132276135Y-79023976D01*
X132080000Y-79004659D01*
X131883868Y-79023976D01*
X131883865Y-79023976D01*
X131883863Y-79023977D01*
X131853297Y-79033248D01*
X131817826Y-79035099D01*
X131785579Y-79020208D01*
X131763985Y-78992006D01*
X131754924Y-78971222D01*
X131728667Y-78930863D01*
X131693991Y-78893073D01*
X131648911Y-78868621D01*
X131648910Y-78868620D01*
X131648909Y-78868620D01*
X131623021Y-78859714D01*
X131603381Y-78852957D01*
X131552797Y-78844500D01*
X127374500Y-78844500D01*
X127337500Y-78834586D01*
X127310414Y-78807500D01*
X127300500Y-78770500D01*
X127300500Y-77720000D01*
X131080001Y-77720000D01*
X131080001Y-78334777D01*
X131088702Y-78378526D01*
X131121855Y-78428143D01*
X131171473Y-78461296D01*
X131215226Y-78470000D01*
X131830000Y-78470000D01*
X131830000Y-77720000D01*
X132330000Y-77720000D01*
X132330000Y-78469999D01*
X132944777Y-78469999D01*
X132988526Y-78461297D01*
X133038143Y-78428144D01*
X133071296Y-78378526D01*
X133080000Y-78334774D01*
X133080000Y-77720000D01*
X132330000Y-77720000D01*
X131830000Y-77720000D01*
X131080001Y-77720000D01*
X127300500Y-77720000D01*
X127300500Y-77220000D01*
X131080000Y-77220000D01*
X131830000Y-77220000D01*
X131830000Y-76470001D01*
X131215223Y-76470001D01*
X131171473Y-76478702D01*
X131121856Y-76511855D01*
X131088703Y-76561473D01*
X131080000Y-76605226D01*
X131080000Y-77220000D01*
X127300500Y-77220000D01*
X127300500Y-76470000D01*
X132330000Y-76470000D01*
X132330000Y-77220000D01*
X133079999Y-77220000D01*
X133079999Y-76605223D01*
X133071297Y-76561473D01*
X133038144Y-76511856D01*
X132988526Y-76478703D01*
X132944774Y-76470000D01*
X132330000Y-76470000D01*
X127300500Y-76470000D01*
X127300500Y-71501500D01*
X127315792Y-71456452D01*
X127355347Y-71430021D01*
X127402819Y-71433133D01*
X127438586Y-71464500D01*
X127530716Y-71624074D01*
X127735954Y-71899757D01*
X127971817Y-72149757D01*
X128235094Y-72370672D01*
X128235098Y-72370675D01*
X128522250Y-72559538D01*
X128829386Y-72713788D01*
X129152353Y-72831338D01*
X129486783Y-72910599D01*
X129828153Y-72950500D01*
X130171844Y-72950500D01*
X130171847Y-72950500D01*
X130513217Y-72910599D01*
X130847647Y-72831338D01*
X131170614Y-72713788D01*
X131477750Y-72559538D01*
X131764902Y-72370675D01*
X132028187Y-72149753D01*
X132264044Y-71899759D01*
X132469284Y-71624074D01*
X132641131Y-71326426D01*
X132777262Y-71010841D01*
X132875834Y-70681585D01*
X132935516Y-70343113D01*
X132955500Y-70000000D01*
X132935516Y-69656887D01*
X132875834Y-69318415D01*
X132777262Y-68989159D01*
X132641131Y-68673574D01*
X132469284Y-68375926D01*
X132264044Y-68100241D01*
X132028187Y-67850247D01*
X132028185Y-67850245D01*
X132028182Y-67850242D01*
X131764905Y-67629327D01*
X131764902Y-67629325D01*
X131477750Y-67440462D01*
X131477747Y-67440460D01*
X131474149Y-67438094D01*
X131474742Y-67437191D01*
X131444225Y-67405772D01*
X131439288Y-67357433D01*
X131465396Y-67316453D01*
X131511293Y-67300500D01*
X178488707Y-67300500D01*
X178534604Y-67316453D01*
G37*
%TD.AperFunction*%
%TD*%
%TA.AperFunction,Conductor*%
%TO.N,/VIN*%
G36*
X131598324Y-79015662D02*
G01*
X131624579Y-79056019D01*
X131620449Y-79103988D01*
X131587680Y-79139262D01*
X131521742Y-79174506D01*
X131369472Y-79299472D01*
X131244506Y-79451743D01*
X131151651Y-79625461D01*
X131110839Y-79760000D01*
X133049160Y-79760000D01*
X133008348Y-79625461D01*
X132915493Y-79451743D01*
X132790527Y-79299472D01*
X132638257Y-79174506D01*
X132572320Y-79139262D01*
X132539551Y-79103988D01*
X132535421Y-79056019D01*
X132561676Y-79015662D01*
X132607203Y-79000000D01*
X136426000Y-79000000D01*
X136463000Y-79009914D01*
X136490086Y-79037000D01*
X136500000Y-79074000D01*
X136500000Y-91328910D01*
X136487999Y-91369309D01*
X136455891Y-91396604D01*
X136434495Y-91406051D01*
X136413358Y-91415384D01*
X136337885Y-91490857D01*
X136294769Y-91588503D01*
X136292000Y-91612377D01*
X136292000Y-91967623D01*
X136294769Y-91991496D01*
X136294770Y-91991498D01*
X136337884Y-92089141D01*
X136413359Y-92164616D01*
X136455891Y-92183395D01*
X136487999Y-92210691D01*
X136500000Y-92251090D01*
X136500000Y-92348910D01*
X136487999Y-92389309D01*
X136455891Y-92416604D01*
X136439141Y-92424000D01*
X136413358Y-92435384D01*
X136337885Y-92510857D01*
X136294769Y-92608503D01*
X136292000Y-92632377D01*
X136292000Y-92860231D01*
X136286367Y-92888550D01*
X136270326Y-92912557D01*
X135929597Y-93253287D01*
X135929593Y-93253291D01*
X135923149Y-93259734D01*
X135917771Y-93264607D01*
X135816436Y-93347768D01*
X135804375Y-93355827D01*
X135691967Y-93415909D01*
X135678564Y-93421461D01*
X135556606Y-93458455D01*
X135542378Y-93461285D01*
X135411807Y-93474143D01*
X135404555Y-93474499D01*
X135347707Y-93474499D01*
X135347701Y-93474500D01*
X134644500Y-93474500D01*
X134607500Y-93464586D01*
X134580414Y-93437500D01*
X134570500Y-93400500D01*
X134570500Y-93085181D01*
X134570500Y-93085180D01*
X134561767Y-93041278D01*
X134561355Y-93040661D01*
X134548884Y-92999548D01*
X134561234Y-92958839D01*
X134570000Y-92914776D01*
X134570000Y-92850000D01*
X133674000Y-92850000D01*
X133637000Y-92840086D01*
X133609914Y-92813000D01*
X133600000Y-92776000D01*
X133600000Y-92424000D01*
X133609914Y-92387000D01*
X133637000Y-92359914D01*
X133674000Y-92350000D01*
X134569999Y-92350000D01*
X134569999Y-92285223D01*
X134561237Y-92241169D01*
X134548884Y-92200445D01*
X134561358Y-92159333D01*
X134561767Y-92158722D01*
X134570500Y-92114820D01*
X134570500Y-91812268D01*
X134576133Y-91783949D01*
X134592174Y-91759942D01*
X134879942Y-91472174D01*
X134903949Y-91456133D01*
X134932268Y-91450500D01*
X135027270Y-91450500D01*
X135027272Y-91450500D01*
X135151569Y-91414004D01*
X135260549Y-91343967D01*
X135345382Y-91246063D01*
X135399197Y-91128226D01*
X135417633Y-91000000D01*
X135399197Y-90871774D01*
X135345382Y-90753937D01*
X135260549Y-90656033D01*
X135151569Y-90585996D01*
X135027272Y-90549500D01*
X134897728Y-90549500D01*
X134773431Y-90585995D01*
X134773431Y-90585996D01*
X134664451Y-90656033D01*
X134579616Y-90753939D01*
X134553863Y-90810329D01*
X134526706Y-90841745D01*
X134486902Y-90853586D01*
X134446988Y-90842123D01*
X134419534Y-90810966D01*
X134413184Y-90769929D01*
X134425682Y-90675000D01*
X134405044Y-90518238D01*
X134344536Y-90372159D01*
X134344535Y-90372158D01*
X134344535Y-90372157D01*
X134311001Y-90328455D01*
X134248282Y-90246718D01*
X134185561Y-90198590D01*
X134122842Y-90150464D01*
X133976762Y-90089956D01*
X133859361Y-90074500D01*
X132680639Y-90074500D01*
X132621938Y-90082228D01*
X132563237Y-90089956D01*
X132417157Y-90150464D01*
X132291718Y-90246718D01*
X132195464Y-90372157D01*
X132134956Y-90518237D01*
X132114317Y-90675000D01*
X132134956Y-90831762D01*
X132195464Y-90977842D01*
X132243590Y-91040561D01*
X132291718Y-91103282D01*
X132373455Y-91166001D01*
X132417157Y-91199535D01*
X132417158Y-91199535D01*
X132417159Y-91199536D01*
X132563238Y-91260044D01*
X132680639Y-91275500D01*
X132680640Y-91275500D01*
X133110558Y-91275500D01*
X133148601Y-91286028D01*
X133175820Y-91314616D01*
X133184469Y-91353131D01*
X133172087Y-91390612D01*
X133171496Y-91391495D01*
X133171496Y-91391496D01*
X133156457Y-91414004D01*
X133138233Y-91441278D01*
X133129500Y-91485181D01*
X133129500Y-91494042D01*
X133114208Y-91539090D01*
X133074653Y-91565520D01*
X133027181Y-91562409D01*
X132936762Y-91524956D01*
X132936761Y-91524955D01*
X132819361Y-91509500D01*
X132740639Y-91509500D01*
X132702660Y-91514500D01*
X132623237Y-91524956D01*
X132477157Y-91585464D01*
X132351718Y-91681718D01*
X132255464Y-91807157D01*
X132194956Y-91953237D01*
X132174317Y-92109999D01*
X132194956Y-92266762D01*
X132255464Y-92412842D01*
X132303591Y-92475561D01*
X132351718Y-92538282D01*
X132433455Y-92601001D01*
X132477157Y-92634535D01*
X132477158Y-92634535D01*
X132477159Y-92634536D01*
X132623238Y-92695044D01*
X132740639Y-92710500D01*
X132819360Y-92710500D01*
X132819361Y-92710500D01*
X132936762Y-92695044D01*
X133027684Y-92657382D01*
X133075152Y-92654271D01*
X133114708Y-92680701D01*
X133130000Y-92725750D01*
X133130000Y-92914776D01*
X133138762Y-92958830D01*
X133151115Y-92999550D01*
X133138645Y-93040661D01*
X133138233Y-93041276D01*
X133138232Y-93041278D01*
X133138233Y-93041278D01*
X133129500Y-93085180D01*
X133129500Y-93414820D01*
X133138233Y-93458722D01*
X133138344Y-93458889D01*
X133150815Y-93499996D01*
X133138347Y-93541106D01*
X133138234Y-93541275D01*
X133129500Y-93585181D01*
X133129500Y-93922109D01*
X133128416Y-93922109D01*
X133126539Y-93950750D01*
X133105258Y-93982600D01*
X133070904Y-93999543D01*
X133060177Y-94001676D01*
X133037608Y-94006166D01*
X133037607Y-94006166D01*
X133020786Y-94009511D01*
X132957656Y-94051694D01*
X132957658Y-94051692D01*
X132936338Y-94065938D01*
X132926144Y-94081194D01*
X132916943Y-94092406D01*
X132867606Y-94141743D01*
X132856394Y-94150944D01*
X132841138Y-94161138D01*
X132826892Y-94182458D01*
X132826894Y-94182456D01*
X132784711Y-94245587D01*
X132764897Y-94345199D01*
X132768478Y-94363198D01*
X132769900Y-94377635D01*
X132769900Y-95172365D01*
X132768478Y-95186802D01*
X132764897Y-95204800D01*
X132784711Y-95304413D01*
X132784712Y-95304414D01*
X132826894Y-95367543D01*
X132826895Y-95367544D01*
X132841139Y-95388861D01*
X132855996Y-95398788D01*
X132876410Y-95419202D01*
X132886339Y-95434061D01*
X132901594Y-95444254D01*
X132901600Y-95444259D01*
X132907657Y-95448306D01*
X132948392Y-95475524D01*
X132970787Y-95490488D01*
X132970789Y-95490489D01*
X133011257Y-95498537D01*
X133045253Y-95505300D01*
X133045256Y-95505300D01*
X133052395Y-95506720D01*
X133052407Y-95506722D01*
X133069937Y-95510209D01*
X133112703Y-95535842D01*
X133129500Y-95582787D01*
X133129500Y-95914819D01*
X133138233Y-95958723D01*
X133138345Y-95958890D01*
X133150815Y-96000000D01*
X133138345Y-96041110D01*
X133138233Y-96041276D01*
X133129500Y-96085181D01*
X133129500Y-96414819D01*
X133138233Y-96458723D01*
X133138345Y-96458890D01*
X133150815Y-96500000D01*
X133138345Y-96541110D01*
X133138233Y-96541276D01*
X133129500Y-96585181D01*
X133129500Y-96914819D01*
X133138233Y-96958722D01*
X133138644Y-96959337D01*
X133151115Y-97000447D01*
X133138763Y-97041169D01*
X133130000Y-97085226D01*
X133130000Y-97274249D01*
X133114708Y-97319297D01*
X133075153Y-97345727D01*
X133027682Y-97342616D01*
X132936763Y-97304956D01*
X132878061Y-97297228D01*
X132819361Y-97289500D01*
X132740639Y-97289500D01*
X132681938Y-97297228D01*
X132623237Y-97304956D01*
X132477157Y-97365464D01*
X132351718Y-97461718D01*
X132255464Y-97587157D01*
X132194956Y-97733237D01*
X132174317Y-97890000D01*
X132194956Y-98046762D01*
X132255464Y-98192842D01*
X132291695Y-98240058D01*
X132351718Y-98318282D01*
X132433455Y-98381001D01*
X132477157Y-98414535D01*
X132477158Y-98414535D01*
X132477159Y-98414536D01*
X132623238Y-98475044D01*
X132740639Y-98490500D01*
X132819360Y-98490500D01*
X132819361Y-98490500D01*
X132936762Y-98475044D01*
X133027181Y-98437590D01*
X133074653Y-98434480D01*
X133114208Y-98460910D01*
X133129500Y-98505958D01*
X133129500Y-98514820D01*
X133138233Y-98558722D01*
X133171496Y-98608504D01*
X133172087Y-98609388D01*
X133184469Y-98646869D01*
X133175820Y-98685384D01*
X133148601Y-98713972D01*
X133110558Y-98724500D01*
X132680639Y-98724500D01*
X132621938Y-98732227D01*
X132563237Y-98739956D01*
X132417157Y-98800464D01*
X132291718Y-98896718D01*
X132195464Y-99022157D01*
X132134956Y-99168237D01*
X132114317Y-99325000D01*
X132134956Y-99481762D01*
X132195464Y-99627842D01*
X132243590Y-99690561D01*
X132291718Y-99753282D01*
X132373455Y-99816001D01*
X132417157Y-99849535D01*
X132417158Y-99849535D01*
X132417159Y-99849536D01*
X132563238Y-99910044D01*
X132680639Y-99925500D01*
X133859360Y-99925500D01*
X133859361Y-99925500D01*
X133976762Y-99910044D01*
X134122841Y-99849536D01*
X134248282Y-99753282D01*
X134344536Y-99627841D01*
X134405044Y-99481762D01*
X134425682Y-99325000D01*
X134413184Y-99230069D01*
X134419534Y-99189032D01*
X134446989Y-99157876D01*
X134486903Y-99146413D01*
X134526706Y-99158254D01*
X134553863Y-99189671D01*
X134579615Y-99246059D01*
X134579617Y-99246061D01*
X134579618Y-99246063D01*
X134664451Y-99343967D01*
X134773431Y-99414004D01*
X134897728Y-99450500D01*
X135027270Y-99450500D01*
X135027272Y-99450500D01*
X135151569Y-99414004D01*
X135260549Y-99343967D01*
X135345382Y-99246063D01*
X135399197Y-99128226D01*
X135417633Y-99000000D01*
X135399197Y-98871774D01*
X135345382Y-98753937D01*
X135260549Y-98656033D01*
X135151569Y-98585996D01*
X135027272Y-98549500D01*
X135027270Y-98549500D01*
X134932268Y-98549500D01*
X134903949Y-98543867D01*
X134879942Y-98527826D01*
X134592174Y-98240058D01*
X134576133Y-98216051D01*
X134570500Y-98187732D01*
X134570500Y-97885181D01*
X134570500Y-97885180D01*
X134561767Y-97841278D01*
X134561355Y-97840662D01*
X134548884Y-97799548D01*
X134561234Y-97758839D01*
X134570000Y-97714776D01*
X134570000Y-97650000D01*
X133674000Y-97650000D01*
X133637000Y-97640086D01*
X133609914Y-97613000D01*
X133600000Y-97576000D01*
X133600000Y-97224000D01*
X133609914Y-97187000D01*
X133637000Y-97159914D01*
X133674000Y-97150000D01*
X134569999Y-97150000D01*
X134569999Y-97099500D01*
X134579913Y-97062500D01*
X134606999Y-97035414D01*
X134643999Y-97025500D01*
X136066816Y-97025500D01*
X136066819Y-97025501D01*
X136110548Y-97025500D01*
X136120205Y-97026132D01*
X136163844Y-97031877D01*
X136182502Y-97036877D01*
X136218646Y-97051848D01*
X136235374Y-97061505D01*
X136263046Y-97082737D01*
X136284368Y-97108716D01*
X136292000Y-97141447D01*
X136292000Y-97367623D01*
X136294769Y-97391496D01*
X136294770Y-97391498D01*
X136337884Y-97489141D01*
X136413359Y-97564616D01*
X136455891Y-97583395D01*
X136487999Y-97610691D01*
X136500000Y-97651090D01*
X136500000Y-97748910D01*
X136487999Y-97789309D01*
X136455891Y-97816604D01*
X136434495Y-97826051D01*
X136413358Y-97835384D01*
X136337885Y-97910857D01*
X136294769Y-98008503D01*
X136292000Y-98032377D01*
X136292000Y-98387623D01*
X136294769Y-98411496D01*
X136294770Y-98411498D01*
X136337884Y-98509141D01*
X136413359Y-98584616D01*
X136455891Y-98603395D01*
X136487999Y-98630691D01*
X136500000Y-98671090D01*
X136500000Y-101426000D01*
X136490086Y-101463000D01*
X136463000Y-101490086D01*
X136426000Y-101500000D01*
X127374500Y-101500000D01*
X127337500Y-101490086D01*
X127310414Y-101463000D01*
X127300500Y-101426000D01*
X127300500Y-99325000D01*
X128094317Y-99325000D01*
X128114956Y-99481762D01*
X128175464Y-99627842D01*
X128223590Y-99690561D01*
X128271718Y-99753282D01*
X128353455Y-99816001D01*
X128397157Y-99849535D01*
X128397158Y-99849535D01*
X128397159Y-99849536D01*
X128543238Y-99910044D01*
X128660639Y-99925500D01*
X129539360Y-99925500D01*
X129539361Y-99925500D01*
X129656762Y-99910044D01*
X129802841Y-99849536D01*
X129928282Y-99753282D01*
X130024536Y-99627841D01*
X130085044Y-99481762D01*
X130105682Y-99325000D01*
X130085044Y-99168238D01*
X130024536Y-99022159D01*
X130024535Y-99022158D01*
X130024535Y-99022157D01*
X129991001Y-98978455D01*
X129928282Y-98896718D01*
X129865561Y-98848590D01*
X129802842Y-98800464D01*
X129656762Y-98739956D01*
X129656761Y-98739955D01*
X129539361Y-98724500D01*
X128660639Y-98724500D01*
X128601938Y-98732227D01*
X128543237Y-98739956D01*
X128397157Y-98800464D01*
X128271718Y-98896718D01*
X128175464Y-99022157D01*
X128114956Y-99168237D01*
X128094317Y-99325000D01*
X127300500Y-99325000D01*
X127300500Y-90675000D01*
X128094317Y-90675000D01*
X128114956Y-90831762D01*
X128175464Y-90977842D01*
X128223590Y-91040561D01*
X128271718Y-91103282D01*
X128353455Y-91166001D01*
X128397157Y-91199535D01*
X128397158Y-91199535D01*
X128397159Y-91199536D01*
X128543238Y-91260044D01*
X128660639Y-91275500D01*
X129539360Y-91275500D01*
X129539361Y-91275500D01*
X129656762Y-91260044D01*
X129802841Y-91199536D01*
X129928282Y-91103282D01*
X130024536Y-90977841D01*
X130085044Y-90831762D01*
X130105682Y-90675000D01*
X130085044Y-90518238D01*
X130024536Y-90372159D01*
X130024535Y-90372158D01*
X130024535Y-90372157D01*
X129991001Y-90328455D01*
X129928282Y-90246718D01*
X129865561Y-90198590D01*
X129802842Y-90150464D01*
X129656762Y-90089956D01*
X129539361Y-90074500D01*
X128660639Y-90074500D01*
X128601938Y-90082228D01*
X128543237Y-90089956D01*
X128397157Y-90150464D01*
X128271718Y-90246718D01*
X128175464Y-90372157D01*
X128114956Y-90518237D01*
X128094317Y-90675000D01*
X127300500Y-90675000D01*
X127300500Y-82550000D01*
X131074659Y-82550000D01*
X131093976Y-82746132D01*
X131151186Y-82934728D01*
X131197638Y-83021632D01*
X131244090Y-83108538D01*
X131369117Y-83260883D01*
X131521462Y-83385910D01*
X131695273Y-83478814D01*
X131883868Y-83536024D01*
X132080000Y-83555341D01*
X132276132Y-83536024D01*
X132464727Y-83478814D01*
X132638538Y-83385910D01*
X132790883Y-83260883D01*
X132915910Y-83108538D01*
X133008814Y-82934727D01*
X133066024Y-82746132D01*
X133085341Y-82550000D01*
X133066024Y-82353868D01*
X133008814Y-82165273D01*
X132915910Y-81991462D01*
X132790883Y-81839117D01*
X132638538Y-81714090D01*
X132551632Y-81667637D01*
X132464728Y-81621186D01*
X132276132Y-81563976D01*
X132080000Y-81544659D01*
X131883867Y-81563976D01*
X131695271Y-81621186D01*
X131521462Y-81714090D01*
X131369117Y-81839117D01*
X131244090Y-81991462D01*
X131151186Y-82165271D01*
X131093976Y-82353867D01*
X131074659Y-82550000D01*
X127300500Y-82550000D01*
X127300500Y-80260000D01*
X131110839Y-80260000D01*
X131151651Y-80394538D01*
X131244506Y-80568256D01*
X131369472Y-80720527D01*
X131521743Y-80845493D01*
X131695461Y-80938348D01*
X131830000Y-80979160D01*
X131830000Y-80260000D01*
X132330000Y-80260000D01*
X132330000Y-80979160D01*
X132464538Y-80938348D01*
X132638256Y-80845493D01*
X132790527Y-80720527D01*
X132915493Y-80568256D01*
X133008348Y-80394538D01*
X133049161Y-80260000D01*
X132330000Y-80260000D01*
X131830000Y-80260000D01*
X131110839Y-80260000D01*
X127300500Y-80260000D01*
X127300500Y-79074000D01*
X127310414Y-79037000D01*
X127337500Y-79009914D01*
X127374500Y-79000000D01*
X131552797Y-79000000D01*
X131598324Y-79015662D01*
G37*
%TD.AperFunction*%
%TD*%
M02*
