%TF.GenerationSoftware,KiCad,Pcbnew,7.0.1*%
%TF.CreationDate,2023-12-30T18:25:03+00:00*%
%TF.ProjectId,watch_test_rig,77617463-685f-4746-9573-745f7269672e,rev?*%
%TF.SameCoordinates,Original*%
%TF.FileFunction,Legend,Bot*%
%TF.FilePolarity,Positive*%
%FSLAX46Y46*%
G04 Gerber Fmt 4.6, Leading zero omitted, Abs format (unit mm)*
G04 Created by KiCad (PCBNEW 7.0.1) date 2023-12-30 18:25:03*
%MOMM*%
%LPD*%
G01*
G04 APERTURE LIST*
%ADD10C,0.150000*%
%ADD11C,0.100000*%
%ADD12C,2.000000*%
%ADD13C,0.600000*%
%ADD14O,2.000000X0.900000*%
%ADD15O,1.700000X0.900000*%
%ADD16C,3.600000*%
%ADD17C,5.600000*%
%ADD18R,1.700000X1.700000*%
%ADD19O,1.700000X1.700000*%
G04 APERTURE END LIST*
D10*
G36*
X168433844Y-70922500D02*
G01*
X167888694Y-70922500D01*
X167871689Y-70922398D01*
X167854931Y-70922093D01*
X167838419Y-70921585D01*
X167822153Y-70920874D01*
X167806133Y-70919959D01*
X167790359Y-70918842D01*
X167774832Y-70917521D01*
X167759550Y-70915997D01*
X167744515Y-70914269D01*
X167729726Y-70912339D01*
X167708004Y-70909062D01*
X167686836Y-70905328D01*
X167666221Y-70901136D01*
X167646161Y-70896488D01*
X167633047Y-70893142D01*
X167613834Y-70887769D01*
X167595167Y-70881970D01*
X167577048Y-70875747D01*
X167559477Y-70869099D01*
X167542453Y-70862026D01*
X167525976Y-70854527D01*
X167510047Y-70846604D01*
X167494665Y-70838256D01*
X167479830Y-70829482D01*
X167465543Y-70820284D01*
X167456248Y-70813818D01*
X167442482Y-70803572D01*
X167428929Y-70792669D01*
X167415589Y-70781109D01*
X167402461Y-70768893D01*
X167389546Y-70756019D01*
X167376843Y-70742489D01*
X167364352Y-70728301D01*
X167352075Y-70713457D01*
X167340009Y-70697956D01*
X167328156Y-70681798D01*
X167324241Y-70676258D01*
X167312763Y-70659095D01*
X167301692Y-70641121D01*
X167291026Y-70622336D01*
X167284141Y-70609361D01*
X167277436Y-70596026D01*
X167270912Y-70582330D01*
X167264568Y-70568274D01*
X167258404Y-70553857D01*
X167252421Y-70539079D01*
X167246617Y-70523941D01*
X167240995Y-70508442D01*
X167235552Y-70492582D01*
X167230290Y-70476362D01*
X167225208Y-70459781D01*
X167220328Y-70442866D01*
X167215763Y-70425641D01*
X167211512Y-70408107D01*
X167207577Y-70390264D01*
X167203956Y-70372112D01*
X167200650Y-70353650D01*
X167197659Y-70334880D01*
X167194983Y-70315800D01*
X167192622Y-70296412D01*
X167190575Y-70276714D01*
X167188844Y-70256707D01*
X167187427Y-70236391D01*
X167186325Y-70215766D01*
X167185538Y-70194831D01*
X167185065Y-70173588D01*
X167184908Y-70152035D01*
X167184935Y-70149105D01*
X167390805Y-70149105D01*
X167390961Y-70170610D01*
X167391429Y-70191712D01*
X167392209Y-70212410D01*
X167393301Y-70232704D01*
X167394704Y-70252595D01*
X167396420Y-70272083D01*
X167398448Y-70291167D01*
X167400788Y-70309847D01*
X167403440Y-70328124D01*
X167406404Y-70345997D01*
X167409680Y-70363466D01*
X167413267Y-70380532D01*
X167417167Y-70397195D01*
X167421379Y-70413454D01*
X167425903Y-70429309D01*
X167430738Y-70444760D01*
X167433242Y-70452337D01*
X167438434Y-70467197D01*
X167443872Y-70481669D01*
X167449557Y-70495751D01*
X167455487Y-70509444D01*
X167461664Y-70522747D01*
X167471391Y-70541973D01*
X167481671Y-70560323D01*
X167492505Y-70577797D01*
X167503893Y-70594395D01*
X167515835Y-70610117D01*
X167528331Y-70624963D01*
X167541380Y-70638934D01*
X167547835Y-70645255D01*
X167561550Y-70657356D01*
X167576342Y-70668736D01*
X167592211Y-70679395D01*
X167604818Y-70686916D01*
X167618031Y-70694031D01*
X167631849Y-70700741D01*
X167646272Y-70707044D01*
X167661301Y-70712942D01*
X167676935Y-70718435D01*
X167682310Y-70720170D01*
X167699192Y-70725046D01*
X167717207Y-70729427D01*
X167736355Y-70733311D01*
X167756637Y-70736700D01*
X167778052Y-70739592D01*
X167792958Y-70741245D01*
X167808368Y-70742678D01*
X167824282Y-70743890D01*
X167840700Y-70744882D01*
X167857621Y-70745653D01*
X167875047Y-70746204D01*
X167892976Y-70746534D01*
X167911408Y-70746645D01*
X168233809Y-70746645D01*
X168233809Y-69574279D01*
X167916537Y-69574279D01*
X167894619Y-69574402D01*
X167873467Y-69574771D01*
X167853082Y-69575387D01*
X167833464Y-69576248D01*
X167814614Y-69577356D01*
X167796530Y-69578710D01*
X167779214Y-69580310D01*
X167762664Y-69582156D01*
X167746882Y-69584248D01*
X167731867Y-69586587D01*
X167710782Y-69590556D01*
X167691424Y-69595079D01*
X167673791Y-69600156D01*
X167657884Y-69605786D01*
X167644094Y-69611615D01*
X167630567Y-69618111D01*
X167617304Y-69625274D01*
X167604303Y-69633103D01*
X167591567Y-69641600D01*
X167579093Y-69650763D01*
X167566883Y-69660594D01*
X167554936Y-69671091D01*
X167543252Y-69682255D01*
X167531832Y-69694086D01*
X167520675Y-69706584D01*
X167509781Y-69719748D01*
X167499151Y-69733580D01*
X167488784Y-69748079D01*
X167478681Y-69763244D01*
X167468840Y-69779077D01*
X167459391Y-69795635D01*
X167450551Y-69813068D01*
X167442320Y-69831378D01*
X167434700Y-69850563D01*
X167427689Y-69870625D01*
X167421287Y-69891562D01*
X167415496Y-69913375D01*
X167410314Y-69936064D01*
X167405741Y-69959628D01*
X167401778Y-69984069D01*
X167398425Y-70009385D01*
X167395682Y-70035577D01*
X167393548Y-70062645D01*
X167392024Y-70090589D01*
X167391110Y-70119409D01*
X167390881Y-70134147D01*
X167390805Y-70149105D01*
X167184935Y-70149105D01*
X167185140Y-70126751D01*
X167185835Y-70101821D01*
X167186995Y-70077246D01*
X167188617Y-70053025D01*
X167190704Y-70029160D01*
X167193254Y-70005650D01*
X167196268Y-69982495D01*
X167199746Y-69959694D01*
X167203687Y-69937249D01*
X167208092Y-69915158D01*
X167212961Y-69893422D01*
X167218293Y-69872042D01*
X167224089Y-69851016D01*
X167230349Y-69830345D01*
X167237072Y-69810029D01*
X167244259Y-69790068D01*
X167251870Y-69770460D01*
X167259955Y-69751296D01*
X167268516Y-69732576D01*
X167277552Y-69714299D01*
X167287063Y-69696466D01*
X167297050Y-69679076D01*
X167307511Y-69662131D01*
X167318448Y-69645628D01*
X167329859Y-69629570D01*
X167341746Y-69613955D01*
X167354108Y-69598784D01*
X167366945Y-69584056D01*
X167380257Y-69569772D01*
X167394045Y-69555932D01*
X167408307Y-69542536D01*
X167423045Y-69529583D01*
X167434642Y-69519882D01*
X167446538Y-69510566D01*
X167458731Y-69501633D01*
X167471222Y-69493084D01*
X167484010Y-69484918D01*
X167497096Y-69477135D01*
X167510480Y-69469736D01*
X167524161Y-69462721D01*
X167538140Y-69456089D01*
X167552417Y-69449841D01*
X167566992Y-69443976D01*
X167581864Y-69438495D01*
X167597033Y-69433398D01*
X167612501Y-69428684D01*
X167628266Y-69424353D01*
X167644329Y-69420406D01*
X167656241Y-69417744D01*
X167675334Y-69414073D01*
X167695895Y-69410789D01*
X167710417Y-69408814D01*
X167725593Y-69407011D01*
X167741421Y-69405379D01*
X167757902Y-69403920D01*
X167775035Y-69402632D01*
X167792821Y-69401515D01*
X167811259Y-69400571D01*
X167830350Y-69399798D01*
X167850094Y-69399197D01*
X167870490Y-69398768D01*
X167891539Y-69398510D01*
X167913240Y-69398424D01*
X168433844Y-69398424D01*
X168433844Y-70922500D01*
G37*
G36*
X166520863Y-69797627D02*
G01*
X166548218Y-69799421D01*
X166574913Y-69802412D01*
X166600946Y-69806600D01*
X166626318Y-69811984D01*
X166651029Y-69818564D01*
X166675079Y-69826340D01*
X166698468Y-69835314D01*
X166721195Y-69845483D01*
X166743262Y-69856849D01*
X166764667Y-69869411D01*
X166785411Y-69883170D01*
X166805493Y-69898125D01*
X166824915Y-69914276D01*
X166843675Y-69931624D01*
X166861775Y-69950169D01*
X166870520Y-69959861D01*
X166887178Y-69979974D01*
X166902726Y-70001057D01*
X166917163Y-70023111D01*
X166930489Y-70046134D01*
X166942705Y-70070128D01*
X166953811Y-70095093D01*
X166963806Y-70121027D01*
X166972690Y-70147932D01*
X166980464Y-70175807D01*
X166983934Y-70190109D01*
X166987127Y-70204653D01*
X166990042Y-70219439D01*
X166992680Y-70234468D01*
X166995040Y-70249740D01*
X166997122Y-70265255D01*
X166998927Y-70281011D01*
X167000454Y-70297011D01*
X167001703Y-70313253D01*
X167002675Y-70329737D01*
X167003369Y-70346465D01*
X167003785Y-70363434D01*
X167003924Y-70380647D01*
X167003787Y-70397291D01*
X167003374Y-70413703D01*
X167002688Y-70429881D01*
X167001726Y-70445825D01*
X167000489Y-70461537D01*
X166998978Y-70477015D01*
X166997192Y-70492260D01*
X166995131Y-70507271D01*
X166992796Y-70522050D01*
X166990185Y-70536595D01*
X166984140Y-70564985D01*
X166976996Y-70592443D01*
X166968753Y-70618967D01*
X166959411Y-70644558D01*
X166948969Y-70669216D01*
X166937429Y-70692941D01*
X166924789Y-70715733D01*
X166911051Y-70737591D01*
X166896213Y-70758517D01*
X166880276Y-70778510D01*
X166863240Y-70797569D01*
X166845267Y-70815537D01*
X166826518Y-70832345D01*
X166806993Y-70847994D01*
X166786693Y-70862484D01*
X166765617Y-70875815D01*
X166743765Y-70887987D01*
X166721138Y-70898999D01*
X166697735Y-70908852D01*
X166673556Y-70917546D01*
X166648602Y-70925081D01*
X166622872Y-70931457D01*
X166596367Y-70936673D01*
X166569085Y-70940730D01*
X166541028Y-70943628D01*
X166512196Y-70945367D01*
X166497489Y-70945802D01*
X166482588Y-70945947D01*
X166459039Y-70945586D01*
X166436019Y-70944504D01*
X166413529Y-70942701D01*
X166391569Y-70940177D01*
X166370138Y-70936931D01*
X166349237Y-70932964D01*
X166328865Y-70928275D01*
X166309023Y-70922866D01*
X166289710Y-70916735D01*
X166270926Y-70909883D01*
X166252673Y-70902309D01*
X166234948Y-70894015D01*
X166217754Y-70884999D01*
X166201088Y-70875261D01*
X166184952Y-70864803D01*
X166169346Y-70853623D01*
X166154307Y-70841791D01*
X166139871Y-70829374D01*
X166126039Y-70816374D01*
X166112812Y-70802790D01*
X166100188Y-70788622D01*
X166088168Y-70773870D01*
X166076752Y-70758534D01*
X166065940Y-70742615D01*
X166055732Y-70726111D01*
X166046128Y-70709024D01*
X166037127Y-70691352D01*
X166028731Y-70673097D01*
X166020939Y-70654258D01*
X166013750Y-70634835D01*
X166007166Y-70614828D01*
X166001185Y-70594237D01*
X166193160Y-70570790D01*
X166195822Y-70578009D01*
X166201324Y-70592077D01*
X166207060Y-70605650D01*
X166216103Y-70625080D01*
X166225675Y-70643397D01*
X166235775Y-70660599D01*
X166246404Y-70676687D01*
X166257560Y-70691661D01*
X166269244Y-70705521D01*
X166281457Y-70718267D01*
X166294197Y-70729899D01*
X166307466Y-70740416D01*
X166316603Y-70746849D01*
X166330744Y-70755720D01*
X166345407Y-70763658D01*
X166360592Y-70770661D01*
X166376298Y-70776731D01*
X166392525Y-70781867D01*
X166409275Y-70786069D01*
X166426546Y-70789337D01*
X166444338Y-70791672D01*
X166462653Y-70793072D01*
X166481489Y-70793539D01*
X166498440Y-70793174D01*
X166515040Y-70792080D01*
X166531287Y-70790255D01*
X166547182Y-70787700D01*
X166562726Y-70784416D01*
X166577917Y-70780402D01*
X166592756Y-70775658D01*
X166607243Y-70770184D01*
X166621378Y-70763980D01*
X166635161Y-70757046D01*
X166648592Y-70749382D01*
X166661671Y-70740989D01*
X166674398Y-70731866D01*
X166686773Y-70722012D01*
X166698796Y-70711429D01*
X166710466Y-70700116D01*
X166721597Y-70688071D01*
X166732093Y-70675381D01*
X166741954Y-70662047D01*
X166751178Y-70648070D01*
X166759768Y-70633448D01*
X166767722Y-70618182D01*
X166775041Y-70602273D01*
X166781724Y-70585719D01*
X166787772Y-70568521D01*
X166793184Y-70550680D01*
X166797961Y-70532194D01*
X166802103Y-70513065D01*
X166805609Y-70493291D01*
X166808480Y-70472873D01*
X166810716Y-70451812D01*
X166812316Y-70430106D01*
X165996056Y-70430106D01*
X165995967Y-70425959D01*
X165995670Y-70410686D01*
X165995426Y-70394557D01*
X165995323Y-70379548D01*
X165995459Y-70362358D01*
X165995867Y-70345411D01*
X165996547Y-70328707D01*
X165997498Y-70312245D01*
X165998722Y-70296026D01*
X166000218Y-70280050D01*
X166000482Y-70277698D01*
X166190962Y-70277698D01*
X166802057Y-70277698D01*
X166800565Y-70259249D01*
X166798468Y-70241268D01*
X166795768Y-70223757D01*
X166792463Y-70206715D01*
X166788555Y-70190143D01*
X166784042Y-70174040D01*
X166778926Y-70158407D01*
X166773206Y-70143243D01*
X166766882Y-70128548D01*
X166759954Y-70114323D01*
X166752422Y-70100567D01*
X166744286Y-70087281D01*
X166735546Y-70074464D01*
X166726203Y-70062116D01*
X166716255Y-70050238D01*
X166705703Y-70038829D01*
X166700214Y-70033329D01*
X166688997Y-70022853D01*
X166677462Y-70013076D01*
X166665610Y-70003997D01*
X166653440Y-69995616D01*
X166640952Y-69987934D01*
X166621624Y-69977720D01*
X166601582Y-69969078D01*
X166580825Y-69962007D01*
X166566590Y-69958166D01*
X166552037Y-69955023D01*
X166537166Y-69952579D01*
X166521978Y-69950833D01*
X166506471Y-69949785D01*
X166490648Y-69949436D01*
X166473221Y-69949874D01*
X166456204Y-69951188D01*
X166439596Y-69953377D01*
X166423397Y-69956443D01*
X166407607Y-69960384D01*
X166392227Y-69965201D01*
X166377256Y-69970894D01*
X166362695Y-69977463D01*
X166348543Y-69984908D01*
X166334800Y-69993228D01*
X166321466Y-70002424D01*
X166308542Y-70012496D01*
X166296027Y-70023444D01*
X166283921Y-70035268D01*
X166272224Y-70047968D01*
X166260937Y-70061543D01*
X166250548Y-70075645D01*
X166240952Y-70091021D01*
X166232147Y-70107673D01*
X166224135Y-70125600D01*
X166216915Y-70144802D01*
X166210486Y-70165279D01*
X166206641Y-70179639D01*
X166203148Y-70194565D01*
X166200006Y-70210058D01*
X166197217Y-70226118D01*
X166194780Y-70242745D01*
X166192695Y-70259938D01*
X166190962Y-70277698D01*
X166000482Y-70277698D01*
X166001985Y-70264316D01*
X166004024Y-70248824D01*
X166006336Y-70233575D01*
X166008919Y-70218569D01*
X166011774Y-70203806D01*
X166014901Y-70189284D01*
X166021970Y-70160970D01*
X166030128Y-70133626D01*
X166039373Y-70107252D01*
X166049705Y-70081848D01*
X166061126Y-70057415D01*
X166073634Y-70033952D01*
X166087229Y-70011459D01*
X166101912Y-69989936D01*
X166117683Y-69969384D01*
X166134542Y-69949802D01*
X166152213Y-69931302D01*
X166170514Y-69913996D01*
X166189445Y-69897883D01*
X166209005Y-69882964D01*
X166229195Y-69869238D01*
X166250015Y-69856706D01*
X166271465Y-69845367D01*
X166293544Y-69835222D01*
X166316253Y-69826270D01*
X166339591Y-69818512D01*
X166363559Y-69811948D01*
X166388157Y-69806577D01*
X166413385Y-69802399D01*
X166439242Y-69799416D01*
X166465729Y-69797625D01*
X166492846Y-69797028D01*
X166520863Y-69797627D01*
G37*
G36*
X165848411Y-70599366D02*
G01*
X165664863Y-70570790D01*
X165661494Y-70590544D01*
X165657160Y-70609417D01*
X165651860Y-70627407D01*
X165645594Y-70644515D01*
X165638362Y-70660740D01*
X165630164Y-70676084D01*
X165621000Y-70690545D01*
X165610870Y-70704123D01*
X165599774Y-70716820D01*
X165587711Y-70728634D01*
X165579133Y-70736020D01*
X165565383Y-70746299D01*
X165550647Y-70755568D01*
X165534926Y-70763825D01*
X165518220Y-70771071D01*
X165500528Y-70777306D01*
X165481851Y-70782530D01*
X165462188Y-70786743D01*
X165441541Y-70789944D01*
X165419908Y-70792135D01*
X165404938Y-70793034D01*
X165389531Y-70793483D01*
X165381663Y-70793539D01*
X165365938Y-70793335D01*
X165350728Y-70792721D01*
X165336033Y-70791697D01*
X165314958Y-70789395D01*
X165295041Y-70786172D01*
X165276283Y-70782028D01*
X165258685Y-70776963D01*
X165242246Y-70770977D01*
X165226966Y-70764070D01*
X165212845Y-70756242D01*
X165199883Y-70747493D01*
X165191886Y-70741149D01*
X165180821Y-70731096D01*
X165167761Y-70717192D01*
X165156636Y-70702715D01*
X165147445Y-70687665D01*
X165140189Y-70672043D01*
X165134868Y-70655849D01*
X165131482Y-70639082D01*
X165130031Y-70621742D01*
X165129971Y-70617318D01*
X165130829Y-70601891D01*
X165133405Y-70587299D01*
X165139040Y-70570235D01*
X165147359Y-70554477D01*
X165158360Y-70540024D01*
X165169094Y-70529402D01*
X165181544Y-70519617D01*
X165184925Y-70517301D01*
X165199596Y-70509184D01*
X165215313Y-70502215D01*
X165229421Y-70496710D01*
X165245520Y-70490966D01*
X165263609Y-70484985D01*
X165283688Y-70478765D01*
X165298180Y-70474486D01*
X165313555Y-70470101D01*
X165329816Y-70465610D01*
X165346960Y-70461013D01*
X165364990Y-70456311D01*
X165374336Y-70453920D01*
X165399354Y-70447517D01*
X165423394Y-70441223D01*
X165446455Y-70435038D01*
X165468537Y-70428961D01*
X165489640Y-70422993D01*
X165509765Y-70417134D01*
X165528910Y-70411384D01*
X165547076Y-70405743D01*
X165564264Y-70400210D01*
X165580473Y-70394786D01*
X165595703Y-70389471D01*
X165609954Y-70384265D01*
X165629495Y-70376659D01*
X165646833Y-70369298D01*
X165657169Y-70364527D01*
X165671603Y-70357200D01*
X165685368Y-70349371D01*
X165698462Y-70341040D01*
X165710887Y-70332207D01*
X165722642Y-70322871D01*
X165733728Y-70313033D01*
X165744143Y-70302692D01*
X165756989Y-70288123D01*
X165768644Y-70272662D01*
X165776604Y-70260479D01*
X165786135Y-70243592D01*
X165794395Y-70226270D01*
X165801385Y-70208513D01*
X165807104Y-70190321D01*
X165811551Y-70171693D01*
X165814728Y-70152631D01*
X165816277Y-70138048D01*
X165817111Y-70123221D01*
X165817270Y-70113201D01*
X165816749Y-70095049D01*
X165815186Y-70077228D01*
X165812582Y-70059740D01*
X165808935Y-70042584D01*
X165804247Y-70025760D01*
X165798517Y-70009268D01*
X165791745Y-69993108D01*
X165783931Y-69977280D01*
X165775213Y-69961955D01*
X165765727Y-69947307D01*
X165755475Y-69933333D01*
X165744455Y-69920035D01*
X165732669Y-69907413D01*
X165720115Y-69895466D01*
X165706794Y-69884195D01*
X165692706Y-69873599D01*
X165678427Y-69863774D01*
X165662610Y-69854450D01*
X165648848Y-69847352D01*
X165634102Y-69840574D01*
X165618372Y-69834117D01*
X165601656Y-69827981D01*
X165583956Y-69822164D01*
X165574737Y-69819377D01*
X165560630Y-69815383D01*
X165546337Y-69811782D01*
X165531856Y-69808574D01*
X165517189Y-69805758D01*
X165502335Y-69803336D01*
X165487295Y-69801306D01*
X165472067Y-69799669D01*
X165456653Y-69798425D01*
X165441052Y-69797574D01*
X165425265Y-69797116D01*
X165414636Y-69797028D01*
X165398640Y-69797172D01*
X165382894Y-69797601D01*
X165367396Y-69798316D01*
X165352148Y-69799318D01*
X165337148Y-69800606D01*
X165322398Y-69802180D01*
X165300739Y-69805078D01*
X165279641Y-69808620D01*
X165259102Y-69812806D01*
X165239124Y-69817636D01*
X165219707Y-69823110D01*
X165200849Y-69829228D01*
X165188589Y-69833665D01*
X165170764Y-69840763D01*
X165153835Y-69848318D01*
X165137800Y-69856330D01*
X165122661Y-69864800D01*
X165108416Y-69873727D01*
X165095067Y-69883111D01*
X165082614Y-69892953D01*
X165071055Y-69903251D01*
X165060391Y-69914007D01*
X165050623Y-69925220D01*
X165044608Y-69932950D01*
X165036141Y-69945070D01*
X165028190Y-69957937D01*
X165020754Y-69971551D01*
X165013833Y-69985912D01*
X165007428Y-70001020D01*
X165001537Y-70016876D01*
X164996162Y-70033478D01*
X164991302Y-70050827D01*
X164986957Y-70068924D01*
X164983127Y-70087767D01*
X164980861Y-70100744D01*
X165162211Y-70125291D01*
X165164893Y-70110085D01*
X165168406Y-70095517D01*
X165174382Y-70077084D01*
X165181836Y-70059785D01*
X165190766Y-70043619D01*
X165201173Y-70028586D01*
X165213057Y-70014687D01*
X165226418Y-70001922D01*
X165233652Y-69995964D01*
X165249251Y-69985059D01*
X165266373Y-69975608D01*
X165280213Y-69969474D01*
X165294911Y-69964158D01*
X165310464Y-69959659D01*
X165326874Y-69955979D01*
X165344141Y-69953116D01*
X165362264Y-69951072D01*
X165381244Y-69949845D01*
X165401080Y-69949436D01*
X165416777Y-69949602D01*
X165431901Y-69950100D01*
X165453513Y-69951470D01*
X165473838Y-69953586D01*
X165492875Y-69956450D01*
X165510623Y-69960061D01*
X165527084Y-69964418D01*
X165542257Y-69969523D01*
X165556141Y-69975375D01*
X165572650Y-69984339D01*
X165583530Y-69991934D01*
X165596324Y-70002788D01*
X165607412Y-70014099D01*
X165616794Y-70025869D01*
X165626124Y-70041225D01*
X165632787Y-70057296D01*
X165636785Y-70074083D01*
X165638118Y-70091585D01*
X165637031Y-70107103D01*
X165633770Y-70121919D01*
X165628336Y-70136034D01*
X165620727Y-70149448D01*
X165615403Y-70156798D01*
X165604239Y-70169451D01*
X165592715Y-70179514D01*
X165579389Y-70188856D01*
X165564259Y-70197477D01*
X165550274Y-70204111D01*
X165544329Y-70206624D01*
X165530088Y-70211424D01*
X165512415Y-70216880D01*
X165494478Y-70222198D01*
X165478808Y-70226742D01*
X165461239Y-70231763D01*
X165441770Y-70237261D01*
X165420401Y-70243235D01*
X165405099Y-70247483D01*
X165388953Y-70251942D01*
X165380564Y-70254251D01*
X165356437Y-70260771D01*
X165333240Y-70267143D01*
X165310973Y-70273365D01*
X165289637Y-70279439D01*
X165269231Y-70285363D01*
X165249755Y-70291139D01*
X165231209Y-70296766D01*
X165213593Y-70302245D01*
X165196908Y-70307574D01*
X165181153Y-70312755D01*
X165166328Y-70317787D01*
X165152433Y-70322670D01*
X165133336Y-70329715D01*
X165116331Y-70336425D01*
X165106157Y-70340713D01*
X165091822Y-70347300D01*
X165078079Y-70354422D01*
X165064928Y-70362078D01*
X165052370Y-70370268D01*
X165040405Y-70378993D01*
X165029032Y-70388253D01*
X165014789Y-70401431D01*
X165001600Y-70415559D01*
X164989464Y-70430637D01*
X164983791Y-70438532D01*
X164973402Y-70455047D01*
X164966518Y-70468072D01*
X164960414Y-70481645D01*
X164955089Y-70495764D01*
X164950544Y-70510431D01*
X164946778Y-70525646D01*
X164943790Y-70541408D01*
X164941583Y-70557717D01*
X164940154Y-70574574D01*
X164939505Y-70591978D01*
X164939461Y-70597901D01*
X164939938Y-70615321D01*
X164941368Y-70632548D01*
X164943750Y-70649582D01*
X164947086Y-70666422D01*
X164951375Y-70683070D01*
X164956618Y-70699524D01*
X164962813Y-70715785D01*
X164969961Y-70731853D01*
X164978063Y-70747727D01*
X164987117Y-70763409D01*
X164993683Y-70773756D01*
X165004206Y-70788818D01*
X165015579Y-70803229D01*
X165027802Y-70816991D01*
X165040876Y-70830101D01*
X165054799Y-70842562D01*
X165069572Y-70854371D01*
X165085196Y-70865531D01*
X165101669Y-70876040D01*
X165118993Y-70885898D01*
X165137166Y-70895107D01*
X165149754Y-70900884D01*
X165169089Y-70908937D01*
X165188901Y-70916198D01*
X165209189Y-70922667D01*
X165229954Y-70928344D01*
X165251195Y-70933229D01*
X165265621Y-70936045D01*
X165280258Y-70938510D01*
X165295107Y-70940622D01*
X165310168Y-70942382D01*
X165325441Y-70943790D01*
X165340926Y-70944847D01*
X165356622Y-70945551D01*
X165372530Y-70945903D01*
X165380564Y-70945947D01*
X165406821Y-70945606D01*
X165432284Y-70944584D01*
X165456955Y-70942881D01*
X165480833Y-70940497D01*
X165503918Y-70937432D01*
X165526211Y-70933685D01*
X165547710Y-70929257D01*
X165568417Y-70924148D01*
X165588331Y-70918358D01*
X165607452Y-70911886D01*
X165625780Y-70904734D01*
X165643316Y-70896900D01*
X165660058Y-70888385D01*
X165676008Y-70879188D01*
X165691165Y-70869311D01*
X165705529Y-70858752D01*
X165719182Y-70847478D01*
X165732205Y-70835545D01*
X165744598Y-70822954D01*
X165756362Y-70809705D01*
X165767496Y-70795798D01*
X165778000Y-70781232D01*
X165787875Y-70766008D01*
X165797120Y-70750125D01*
X165805735Y-70733584D01*
X165813721Y-70716385D01*
X165821077Y-70698528D01*
X165827803Y-70680012D01*
X165833900Y-70660838D01*
X165839366Y-70641006D01*
X165844204Y-70620515D01*
X165848411Y-70599366D01*
G37*
G36*
X164723673Y-69609450D02*
G01*
X164723673Y-69398424D01*
X164538292Y-69398424D01*
X164538292Y-69609450D01*
X164723673Y-69609450D01*
G37*
G36*
X164723673Y-70922500D02*
G01*
X164723673Y-69820476D01*
X164538292Y-69820476D01*
X164538292Y-70922500D01*
X164723673Y-70922500D01*
G37*
G36*
X163874111Y-69797312D02*
G01*
X163891808Y-69798162D01*
X163909214Y-69799579D01*
X163926327Y-69801562D01*
X163943148Y-69804112D01*
X163959677Y-69807229D01*
X163975915Y-69810913D01*
X163991860Y-69815163D01*
X164007514Y-69819981D01*
X164022875Y-69825364D01*
X164037945Y-69831315D01*
X164052722Y-69837832D01*
X164067208Y-69844916D01*
X164081402Y-69852567D01*
X164095304Y-69860784D01*
X164108914Y-69869569D01*
X164122179Y-69878874D01*
X164135046Y-69888654D01*
X164147515Y-69898909D01*
X164159586Y-69909640D01*
X164171260Y-69920845D01*
X164182536Y-69932526D01*
X164193413Y-69944682D01*
X164203893Y-69957313D01*
X164213976Y-69970419D01*
X164223660Y-69984000D01*
X164232946Y-69998057D01*
X164241835Y-70012588D01*
X164250326Y-70027595D01*
X164258419Y-70043076D01*
X164266114Y-70059033D01*
X164273411Y-70075465D01*
X164280243Y-70092185D01*
X164286635Y-70109096D01*
X164292585Y-70126200D01*
X164298095Y-70143495D01*
X164303164Y-70160981D01*
X164307792Y-70178660D01*
X164311980Y-70196530D01*
X164315726Y-70214592D01*
X164319032Y-70232846D01*
X164321897Y-70251292D01*
X164324321Y-70269929D01*
X164326305Y-70288758D01*
X164327848Y-70307779D01*
X164328950Y-70326992D01*
X164329611Y-70346396D01*
X164329831Y-70365992D01*
X164329349Y-70394360D01*
X164327902Y-70422218D01*
X164325491Y-70449566D01*
X164322115Y-70476405D01*
X164317774Y-70502735D01*
X164312469Y-70528555D01*
X164306199Y-70553865D01*
X164298965Y-70578667D01*
X164290766Y-70602958D01*
X164281603Y-70626740D01*
X164271475Y-70650013D01*
X164260382Y-70672776D01*
X164248325Y-70695030D01*
X164235303Y-70716775D01*
X164221317Y-70738009D01*
X164206366Y-70758735D01*
X164190490Y-70778566D01*
X164173817Y-70797117D01*
X164156349Y-70814389D01*
X164138085Y-70830382D01*
X164119026Y-70845095D01*
X164099171Y-70858529D01*
X164078520Y-70870683D01*
X164057073Y-70881558D01*
X164034831Y-70891154D01*
X164011793Y-70899470D01*
X163987959Y-70906507D01*
X163963330Y-70912264D01*
X163937904Y-70916742D01*
X163911684Y-70919941D01*
X163884667Y-70921860D01*
X163856855Y-70922500D01*
X163834421Y-70921944D01*
X163812456Y-70920278D01*
X163790961Y-70917502D01*
X163769935Y-70913615D01*
X163749379Y-70908618D01*
X163729291Y-70902510D01*
X163709674Y-70895291D01*
X163690526Y-70886962D01*
X163671847Y-70877523D01*
X163653637Y-70866972D01*
X163635897Y-70855312D01*
X163618627Y-70842540D01*
X163601825Y-70828659D01*
X163585493Y-70813666D01*
X163569631Y-70797564D01*
X163554238Y-70780350D01*
X163554161Y-70802621D01*
X163554204Y-70823913D01*
X163554367Y-70844226D01*
X163554650Y-70863561D01*
X163555054Y-70881916D01*
X163555578Y-70899293D01*
X163556222Y-70915690D01*
X163556986Y-70931109D01*
X163558357Y-70952402D01*
X163560000Y-70971492D01*
X163561912Y-70988380D01*
X163564096Y-71003065D01*
X163567427Y-71019220D01*
X163570717Y-71030690D01*
X163576313Y-71047289D01*
X163582700Y-71063160D01*
X163589879Y-71078304D01*
X163597851Y-71092720D01*
X163606615Y-71106408D01*
X163616171Y-71119369D01*
X163626519Y-71131602D01*
X163637659Y-71143107D01*
X163649591Y-71153884D01*
X163662316Y-71163934D01*
X163671293Y-71170189D01*
X163685623Y-71178815D01*
X163700990Y-71186534D01*
X163717394Y-71193344D01*
X163734834Y-71199246D01*
X163753312Y-71204240D01*
X163772826Y-71208327D01*
X163793377Y-71211505D01*
X163814965Y-71213775D01*
X163829933Y-71214784D01*
X163845362Y-71215389D01*
X163861251Y-71215591D01*
X163875983Y-71215391D01*
X163897340Y-71214339D01*
X163917809Y-71212385D01*
X163937389Y-71209530D01*
X163956080Y-71205773D01*
X163973882Y-71201115D01*
X163990795Y-71195555D01*
X164006820Y-71189094D01*
X164021956Y-71181731D01*
X164036204Y-71173466D01*
X164049563Y-71164300D01*
X164055862Y-71159361D01*
X164067517Y-71148427D01*
X164077913Y-71136086D01*
X164087049Y-71122335D01*
X164094926Y-71107177D01*
X164101543Y-71090611D01*
X164106901Y-71072636D01*
X164110093Y-71058231D01*
X164112577Y-71043033D01*
X164292828Y-71016289D01*
X164292846Y-71037970D01*
X164291890Y-71058959D01*
X164289960Y-71079255D01*
X164287058Y-71098858D01*
X164283183Y-71117769D01*
X164278334Y-71135987D01*
X164272512Y-71153512D01*
X164265717Y-71170345D01*
X164257949Y-71186485D01*
X164249208Y-71201932D01*
X164239494Y-71216687D01*
X164228806Y-71230749D01*
X164217146Y-71244119D01*
X164204512Y-71256795D01*
X164190905Y-71268780D01*
X164176325Y-71280071D01*
X164160964Y-71290718D01*
X164145018Y-71300679D01*
X164128484Y-71309953D01*
X164111364Y-71318539D01*
X164093656Y-71326439D01*
X164075363Y-71333652D01*
X164056482Y-71340178D01*
X164037015Y-71346017D01*
X164016960Y-71351169D01*
X163996320Y-71355634D01*
X163975092Y-71359412D01*
X163953277Y-71362503D01*
X163930876Y-71364907D01*
X163907888Y-71366625D01*
X163884314Y-71367655D01*
X163860152Y-71367998D01*
X163839747Y-71367755D01*
X163819749Y-71367025D01*
X163800157Y-71365809D01*
X163780972Y-71364106D01*
X163762193Y-71361916D01*
X163743820Y-71359240D01*
X163725854Y-71356077D01*
X163708294Y-71352428D01*
X163691141Y-71348292D01*
X163674394Y-71343670D01*
X163658054Y-71338561D01*
X163642120Y-71332965D01*
X163626592Y-71326883D01*
X163611471Y-71320314D01*
X163596756Y-71313258D01*
X163582448Y-71305717D01*
X163575455Y-71301780D01*
X163561825Y-71293643D01*
X163548670Y-71285153D01*
X163535991Y-71276312D01*
X163523786Y-71267118D01*
X163512057Y-71257573D01*
X163500803Y-71247675D01*
X163490023Y-71237426D01*
X163479719Y-71226824D01*
X163469891Y-71215870D01*
X163460537Y-71204565D01*
X163447397Y-71186946D01*
X163439231Y-71174760D01*
X163431540Y-71162222D01*
X163424325Y-71149332D01*
X163417584Y-71136090D01*
X163414383Y-71129257D01*
X163408287Y-71114711D01*
X163402597Y-71098992D01*
X163397313Y-71082099D01*
X163392436Y-71064033D01*
X163387965Y-71044793D01*
X163383901Y-71024380D01*
X163380243Y-71002793D01*
X163376991Y-70980032D01*
X163374146Y-70956098D01*
X163371708Y-70930991D01*
X163369676Y-70904710D01*
X163368050Y-70877256D01*
X163366831Y-70848628D01*
X163366373Y-70833874D01*
X163366018Y-70818826D01*
X163365764Y-70803485D01*
X163365611Y-70787851D01*
X163365560Y-70771924D01*
X163365560Y-70358665D01*
X163538484Y-70358665D01*
X163538824Y-70384786D01*
X163539841Y-70410025D01*
X163541537Y-70434382D01*
X163543911Y-70457858D01*
X163546964Y-70480452D01*
X163550695Y-70502165D01*
X163555104Y-70522996D01*
X163560191Y-70542946D01*
X163565957Y-70562014D01*
X163572402Y-70580201D01*
X163579524Y-70597506D01*
X163587325Y-70613929D01*
X163595805Y-70629471D01*
X163604962Y-70644131D01*
X163614798Y-70657910D01*
X163625313Y-70670807D01*
X163636282Y-70682830D01*
X163647575Y-70694077D01*
X163659191Y-70704549D01*
X163671131Y-70714244D01*
X163683394Y-70723164D01*
X163695981Y-70731309D01*
X163708891Y-70738678D01*
X163722124Y-70745271D01*
X163735681Y-70751088D01*
X163749562Y-70756130D01*
X163763765Y-70760396D01*
X163778293Y-70763887D01*
X163793143Y-70766601D01*
X163808317Y-70768541D01*
X163823815Y-70769704D01*
X163839636Y-70770092D01*
X163855543Y-70769701D01*
X163871115Y-70768529D01*
X163886352Y-70766576D01*
X163901254Y-70763841D01*
X163915821Y-70760325D01*
X163930053Y-70756027D01*
X163943951Y-70750948D01*
X163957514Y-70745088D01*
X163970741Y-70738446D01*
X163983634Y-70731023D01*
X163996192Y-70722818D01*
X164008415Y-70713832D01*
X164020303Y-70704065D01*
X164031857Y-70693516D01*
X164043075Y-70682186D01*
X164053959Y-70670075D01*
X164064296Y-70657113D01*
X164073966Y-70643233D01*
X164082969Y-70628433D01*
X164091305Y-70612716D01*
X164098974Y-70596079D01*
X164105977Y-70578524D01*
X164112312Y-70560049D01*
X164117981Y-70540656D01*
X164122983Y-70520345D01*
X164127318Y-70499114D01*
X164130986Y-70476965D01*
X164133987Y-70453897D01*
X164136321Y-70429910D01*
X164137988Y-70405004D01*
X164138988Y-70379180D01*
X164139322Y-70352437D01*
X164138984Y-70327817D01*
X164137971Y-70303968D01*
X164136282Y-70280888D01*
X164133918Y-70258579D01*
X164130878Y-70237039D01*
X164127163Y-70216269D01*
X164122772Y-70196270D01*
X164117706Y-70177040D01*
X164111965Y-70158580D01*
X164105548Y-70140890D01*
X164098455Y-70123970D01*
X164090687Y-70107820D01*
X164082243Y-70092440D01*
X164073124Y-70077830D01*
X164063330Y-70063989D01*
X164052860Y-70050919D01*
X164047419Y-70044675D01*
X164036320Y-70032783D01*
X164024928Y-70021683D01*
X164013245Y-70011376D01*
X164001269Y-70001862D01*
X163989002Y-69993141D01*
X163976442Y-69985213D01*
X163963591Y-69978077D01*
X163943766Y-69968860D01*
X163923285Y-69961428D01*
X163902147Y-69955779D01*
X163887690Y-69953004D01*
X163872941Y-69951022D01*
X163857900Y-69949832D01*
X163842567Y-69949436D01*
X163827002Y-69949840D01*
X163811723Y-69951050D01*
X163796731Y-69953068D01*
X163782025Y-69955893D01*
X163767605Y-69959525D01*
X163753472Y-69963965D01*
X163739624Y-69969211D01*
X163726063Y-69975265D01*
X163712788Y-69982125D01*
X163699799Y-69989793D01*
X163687097Y-69998268D01*
X163674680Y-70007551D01*
X163662550Y-70017640D01*
X163650706Y-70028536D01*
X163639149Y-70040240D01*
X163627877Y-70052751D01*
X163617052Y-70066010D01*
X163606926Y-70080051D01*
X163597498Y-70094873D01*
X163588768Y-70110476D01*
X163580736Y-70126861D01*
X163573403Y-70144027D01*
X163566769Y-70161975D01*
X163560833Y-70180703D01*
X163555595Y-70200214D01*
X163551055Y-70220505D01*
X163547214Y-70241579D01*
X163544071Y-70263433D01*
X163541627Y-70286069D01*
X163539881Y-70309486D01*
X163538834Y-70333685D01*
X163538484Y-70358665D01*
X163365560Y-70358665D01*
X163365560Y-69820476D01*
X163536653Y-69820476D01*
X163536653Y-69952367D01*
X163552627Y-69933556D01*
X163569133Y-69915959D01*
X163586172Y-69899576D01*
X163603743Y-69884406D01*
X163621847Y-69870450D01*
X163640482Y-69857708D01*
X163659651Y-69846179D01*
X163679351Y-69835863D01*
X163699584Y-69826761D01*
X163720350Y-69818873D01*
X163741648Y-69812198D01*
X163763478Y-69806737D01*
X163785840Y-69802490D01*
X163808735Y-69799456D01*
X163832163Y-69797635D01*
X163856122Y-69797028D01*
X163874111Y-69797312D01*
G37*
G36*
X163090787Y-70922500D02*
G01*
X163090787Y-69820476D01*
X162924091Y-69820476D01*
X162924091Y-69975081D01*
X162908605Y-69953520D01*
X162892281Y-69933350D01*
X162875117Y-69914571D01*
X162857116Y-69897183D01*
X162838275Y-69881186D01*
X162818596Y-69866580D01*
X162798078Y-69853366D01*
X162776721Y-69841542D01*
X162754526Y-69831109D01*
X162731493Y-69822067D01*
X162707620Y-69814416D01*
X162682909Y-69808157D01*
X162657360Y-69803288D01*
X162630971Y-69799811D01*
X162603745Y-69797724D01*
X162575679Y-69797028D01*
X162557274Y-69797344D01*
X162539151Y-69798291D01*
X162521313Y-69799868D01*
X162503757Y-69802077D01*
X162486485Y-69804917D01*
X162469496Y-69808389D01*
X162452791Y-69812491D01*
X162436369Y-69817224D01*
X162420230Y-69822589D01*
X162404375Y-69828584D01*
X162393962Y-69832932D01*
X162378739Y-69839795D01*
X162364257Y-69847057D01*
X162350515Y-69854719D01*
X162337514Y-69862779D01*
X162325253Y-69871239D01*
X162310057Y-69883141D01*
X162296179Y-69895751D01*
X162283616Y-69909072D01*
X162272371Y-69923103D01*
X162269765Y-69926721D01*
X162259804Y-69941536D01*
X162250622Y-69957038D01*
X162242219Y-69973227D01*
X162234594Y-69990102D01*
X162227748Y-70007665D01*
X162221680Y-70025915D01*
X162217640Y-70040052D01*
X162214037Y-70054577D01*
X162211879Y-70064474D01*
X162208924Y-70082522D01*
X162206921Y-70099704D01*
X162205238Y-70119325D01*
X162204186Y-70135641D01*
X162203314Y-70153328D01*
X162202623Y-70172387D01*
X162202112Y-70192818D01*
X162201781Y-70214621D01*
X162201661Y-70229918D01*
X162201621Y-70245825D01*
X162201621Y-70922500D01*
X162387001Y-70922500D01*
X162387001Y-70250587D01*
X162387191Y-70229664D01*
X162387761Y-70209758D01*
X162388711Y-70190869D01*
X162390041Y-70172998D01*
X162391751Y-70156145D01*
X162393841Y-70140309D01*
X162396310Y-70125490D01*
X162400195Y-70107315D01*
X162404754Y-70090949D01*
X162408617Y-70079862D01*
X162414547Y-70066026D01*
X162421531Y-70052911D01*
X162429568Y-70040518D01*
X162438659Y-70028845D01*
X162448803Y-70017895D01*
X162460000Y-70007665D01*
X162472250Y-69998157D01*
X162485553Y-69989370D01*
X162499596Y-69981384D01*
X162514244Y-69974463D01*
X162529500Y-69968607D01*
X162545362Y-69963816D01*
X162561832Y-69960089D01*
X162578908Y-69957427D01*
X162596590Y-69955830D01*
X162614880Y-69955298D01*
X162629546Y-69955594D01*
X162651073Y-69957149D01*
X162672033Y-69960038D01*
X162692426Y-69964259D01*
X162712253Y-69969814D01*
X162731513Y-69976701D01*
X162750206Y-69984922D01*
X162768332Y-69994476D01*
X162785892Y-70005362D01*
X162802885Y-70017582D01*
X162819311Y-70031135D01*
X162834698Y-70046556D01*
X162844114Y-70058171D01*
X162852858Y-70070853D01*
X162860930Y-70084603D01*
X162868329Y-70099421D01*
X162875055Y-70115306D01*
X162881108Y-70132259D01*
X162886489Y-70150280D01*
X162891198Y-70169368D01*
X162895234Y-70189524D01*
X162898597Y-70210747D01*
X162901287Y-70233038D01*
X162903305Y-70256397D01*
X162904650Y-70280823D01*
X162905323Y-70306317D01*
X162905407Y-70319464D01*
X162905407Y-70922500D01*
X163090787Y-70922500D01*
G37*
G36*
X161501672Y-69797627D02*
G01*
X161529028Y-69799421D01*
X161555722Y-69802412D01*
X161581756Y-69806600D01*
X161607128Y-69811984D01*
X161631839Y-69818564D01*
X161655889Y-69826340D01*
X161679277Y-69835314D01*
X161702005Y-69845483D01*
X161724071Y-69856849D01*
X161745476Y-69869411D01*
X161766220Y-69883170D01*
X161786303Y-69898125D01*
X161805724Y-69914276D01*
X161824485Y-69931624D01*
X161842584Y-69950169D01*
X161851330Y-69959861D01*
X161867988Y-69979974D01*
X161883535Y-70001057D01*
X161897972Y-70023111D01*
X161911299Y-70046134D01*
X161923515Y-70070128D01*
X161934620Y-70095093D01*
X161944615Y-70121027D01*
X161953500Y-70147932D01*
X161961273Y-70175807D01*
X161964744Y-70190109D01*
X161967937Y-70204653D01*
X161970852Y-70219439D01*
X161973489Y-70234468D01*
X161975849Y-70249740D01*
X161977931Y-70265255D01*
X161979736Y-70281011D01*
X161981263Y-70297011D01*
X161982512Y-70313253D01*
X161983484Y-70329737D01*
X161984178Y-70346465D01*
X161984595Y-70363434D01*
X161984734Y-70380647D01*
X161984596Y-70397291D01*
X161984184Y-70413703D01*
X161983497Y-70429881D01*
X161982535Y-70445825D01*
X161981299Y-70461537D01*
X161979788Y-70477015D01*
X161978002Y-70492260D01*
X161975941Y-70507271D01*
X161973605Y-70522050D01*
X161970995Y-70536595D01*
X161964950Y-70564985D01*
X161957806Y-70592443D01*
X161949563Y-70618967D01*
X161940220Y-70644558D01*
X161929779Y-70669216D01*
X161918238Y-70692941D01*
X161905599Y-70715733D01*
X161891860Y-70737591D01*
X161877022Y-70758517D01*
X161861086Y-70778510D01*
X161844050Y-70797569D01*
X161826076Y-70815537D01*
X161807327Y-70832345D01*
X161787803Y-70847994D01*
X161767502Y-70862484D01*
X161746426Y-70875815D01*
X161724575Y-70887987D01*
X161701948Y-70898999D01*
X161678545Y-70908852D01*
X161654366Y-70917546D01*
X161629412Y-70925081D01*
X161603682Y-70931457D01*
X161577176Y-70936673D01*
X161549895Y-70940730D01*
X161521838Y-70943628D01*
X161493005Y-70945367D01*
X161478298Y-70945802D01*
X161463397Y-70945947D01*
X161439848Y-70945586D01*
X161416829Y-70944504D01*
X161394339Y-70942701D01*
X161372379Y-70940177D01*
X161350948Y-70936931D01*
X161330046Y-70932964D01*
X161309674Y-70928275D01*
X161289832Y-70922866D01*
X161270519Y-70916735D01*
X161251736Y-70909883D01*
X161233482Y-70902309D01*
X161215758Y-70894015D01*
X161198563Y-70884999D01*
X161181898Y-70875261D01*
X161165762Y-70864803D01*
X161150156Y-70853623D01*
X161135116Y-70841791D01*
X161120681Y-70829374D01*
X161106849Y-70816374D01*
X161093621Y-70802790D01*
X161080997Y-70788622D01*
X161068977Y-70773870D01*
X161057561Y-70758534D01*
X161046749Y-70742615D01*
X161036541Y-70726111D01*
X161026937Y-70709024D01*
X161017937Y-70691352D01*
X161009541Y-70673097D01*
X161001748Y-70654258D01*
X160994560Y-70634835D01*
X160987975Y-70614828D01*
X160981994Y-70594237D01*
X161173969Y-70570790D01*
X161176632Y-70578009D01*
X161182133Y-70592077D01*
X161187869Y-70605650D01*
X161196913Y-70625080D01*
X161206485Y-70643397D01*
X161216585Y-70660599D01*
X161227213Y-70676687D01*
X161238369Y-70691661D01*
X161250054Y-70705521D01*
X161262266Y-70718267D01*
X161275006Y-70729899D01*
X161288275Y-70740416D01*
X161297413Y-70746849D01*
X161311554Y-70755720D01*
X161326217Y-70763658D01*
X161341401Y-70770661D01*
X161357107Y-70776731D01*
X161373335Y-70781867D01*
X161390084Y-70786069D01*
X161407355Y-70789337D01*
X161425148Y-70791672D01*
X161443462Y-70793072D01*
X161462298Y-70793539D01*
X161479250Y-70793174D01*
X161495849Y-70792080D01*
X161512096Y-70790255D01*
X161527992Y-70787700D01*
X161543535Y-70784416D01*
X161558726Y-70780402D01*
X161573565Y-70775658D01*
X161588053Y-70770184D01*
X161602188Y-70763980D01*
X161615971Y-70757046D01*
X161629402Y-70749382D01*
X161642481Y-70740989D01*
X161655207Y-70731866D01*
X161667582Y-70722012D01*
X161679605Y-70711429D01*
X161691276Y-70700116D01*
X161702407Y-70688071D01*
X161712903Y-70675381D01*
X161722763Y-70662047D01*
X161731988Y-70648070D01*
X161740577Y-70633448D01*
X161748532Y-70618182D01*
X161755850Y-70602273D01*
X161762534Y-70585719D01*
X161768581Y-70568521D01*
X161773994Y-70550680D01*
X161778771Y-70532194D01*
X161782913Y-70513065D01*
X161786419Y-70493291D01*
X161789290Y-70472873D01*
X161791525Y-70451812D01*
X161793125Y-70430106D01*
X160976865Y-70430106D01*
X160976777Y-70425959D01*
X160976479Y-70410686D01*
X160976236Y-70394557D01*
X160976133Y-70379548D01*
X160976269Y-70362358D01*
X160976676Y-70345411D01*
X160977356Y-70328707D01*
X160978308Y-70312245D01*
X160979532Y-70296026D01*
X160981027Y-70280050D01*
X160981291Y-70277698D01*
X161171771Y-70277698D01*
X161782867Y-70277698D01*
X161781374Y-70259249D01*
X161779278Y-70241268D01*
X161776577Y-70223757D01*
X161773273Y-70206715D01*
X161769364Y-70190143D01*
X161764852Y-70174040D01*
X161759736Y-70158407D01*
X161754016Y-70143243D01*
X161747692Y-70128548D01*
X161740764Y-70114323D01*
X161733232Y-70100567D01*
X161725096Y-70087281D01*
X161716356Y-70074464D01*
X161707012Y-70062116D01*
X161697065Y-70050238D01*
X161686513Y-70038829D01*
X161681024Y-70033329D01*
X161669807Y-70022853D01*
X161658272Y-70013076D01*
X161646419Y-70003997D01*
X161634249Y-69995616D01*
X161621761Y-69987934D01*
X161602434Y-69977720D01*
X161582391Y-69969078D01*
X161561634Y-69962007D01*
X161547399Y-69958166D01*
X161532846Y-69955023D01*
X161517975Y-69952579D01*
X161502787Y-69950833D01*
X161487281Y-69949785D01*
X161471457Y-69949436D01*
X161454031Y-69949874D01*
X161437013Y-69951188D01*
X161420405Y-69953377D01*
X161404206Y-69956443D01*
X161388417Y-69960384D01*
X161373037Y-69965201D01*
X161358066Y-69970894D01*
X161343504Y-69977463D01*
X161329352Y-69984908D01*
X161315609Y-69993228D01*
X161302276Y-70002424D01*
X161289351Y-70012496D01*
X161276836Y-70023444D01*
X161264730Y-70035268D01*
X161253034Y-70047968D01*
X161241747Y-70061543D01*
X161231358Y-70075645D01*
X161221761Y-70091021D01*
X161212957Y-70107673D01*
X161204944Y-70125600D01*
X161197724Y-70144802D01*
X161191296Y-70165279D01*
X161187450Y-70179639D01*
X161183957Y-70194565D01*
X161180816Y-70210058D01*
X161178027Y-70226118D01*
X161175589Y-70242745D01*
X161173504Y-70259938D01*
X161171771Y-70277698D01*
X160981291Y-70277698D01*
X160982794Y-70264316D01*
X160984834Y-70248824D01*
X160987145Y-70233575D01*
X160989728Y-70218569D01*
X160992583Y-70203806D01*
X160995710Y-70189284D01*
X161002780Y-70160970D01*
X161010937Y-70133626D01*
X161020182Y-70107252D01*
X161030515Y-70081848D01*
X161041935Y-70057415D01*
X161054443Y-70033952D01*
X161068039Y-70011459D01*
X161082722Y-69989936D01*
X161098493Y-69969384D01*
X161115351Y-69949802D01*
X161133022Y-69931302D01*
X161151323Y-69913996D01*
X161170254Y-69897883D01*
X161189815Y-69882964D01*
X161210005Y-69869238D01*
X161230825Y-69856706D01*
X161252274Y-69845367D01*
X161274353Y-69835222D01*
X161297062Y-69826270D01*
X161320401Y-69818512D01*
X161344369Y-69811948D01*
X161368967Y-69806577D01*
X161394194Y-69802399D01*
X161420052Y-69799416D01*
X161446539Y-69797625D01*
X161473655Y-69797028D01*
X161501672Y-69797627D01*
G37*
G36*
X160057291Y-69953832D02*
G01*
X160063449Y-69945190D01*
X160073110Y-69932618D01*
X160083280Y-69920516D01*
X160093959Y-69908884D01*
X160105146Y-69897723D01*
X160116842Y-69887031D01*
X160129047Y-69876810D01*
X160141761Y-69867059D01*
X160154983Y-69857778D01*
X160168714Y-69848967D01*
X160182954Y-69840626D01*
X160192701Y-69835346D01*
X160207639Y-69828066D01*
X160222956Y-69821552D01*
X160238654Y-69815804D01*
X160254731Y-69810823D01*
X160271189Y-69806608D01*
X160288026Y-69803159D01*
X160305243Y-69800477D01*
X160322841Y-69798561D01*
X160340818Y-69797412D01*
X160359175Y-69797028D01*
X160375972Y-69797308D01*
X160392566Y-69798145D01*
X160408956Y-69799540D01*
X160425144Y-69801494D01*
X160441128Y-69804005D01*
X160456909Y-69807075D01*
X160472486Y-69810703D01*
X160487861Y-69814889D01*
X160503032Y-69819633D01*
X160518000Y-69824935D01*
X160532765Y-69830796D01*
X160547326Y-69837214D01*
X160561685Y-69844191D01*
X160575840Y-69851726D01*
X160589792Y-69859818D01*
X160603540Y-69868469D01*
X160616974Y-69877644D01*
X160629981Y-69887309D01*
X160642562Y-69897462D01*
X160654717Y-69908106D01*
X160666445Y-69919238D01*
X160677746Y-69930860D01*
X160688621Y-69942972D01*
X160699070Y-69955573D01*
X160709092Y-69968663D01*
X160718687Y-69982243D01*
X160727856Y-69996312D01*
X160736599Y-70010871D01*
X160744915Y-70025919D01*
X160752805Y-70041456D01*
X160760268Y-70057483D01*
X160767305Y-70074000D01*
X160773915Y-70090880D01*
X160780099Y-70107997D01*
X160785857Y-70125352D01*
X160791187Y-70142945D01*
X160796092Y-70160775D01*
X160800570Y-70178843D01*
X160804621Y-70197148D01*
X160808246Y-70215691D01*
X160811445Y-70234472D01*
X160814217Y-70253490D01*
X160816562Y-70272745D01*
X160818482Y-70292238D01*
X160819974Y-70311969D01*
X160821040Y-70331937D01*
X160821680Y-70352143D01*
X160821893Y-70372587D01*
X160821659Y-70393502D01*
X160820955Y-70414118D01*
X160819781Y-70434432D01*
X160818138Y-70454446D01*
X160816026Y-70474160D01*
X160813444Y-70493573D01*
X160810393Y-70512685D01*
X160806872Y-70531497D01*
X160802882Y-70550009D01*
X160798423Y-70568220D01*
X160793494Y-70586130D01*
X160788096Y-70603740D01*
X160782229Y-70621049D01*
X160775892Y-70638058D01*
X160769085Y-70654766D01*
X160761810Y-70671174D01*
X160754062Y-70687162D01*
X160745930Y-70702704D01*
X160737415Y-70717799D01*
X160728516Y-70732448D01*
X160719234Y-70746650D01*
X160709568Y-70760406D01*
X160699519Y-70773716D01*
X160689086Y-70786578D01*
X160678270Y-70798995D01*
X160667070Y-70810964D01*
X160655487Y-70822488D01*
X160643520Y-70833565D01*
X160631169Y-70844195D01*
X160618435Y-70854379D01*
X160605318Y-70864116D01*
X160591817Y-70873407D01*
X160577996Y-70882191D01*
X160564013Y-70890408D01*
X160549866Y-70898059D01*
X160535557Y-70905143D01*
X160521084Y-70911660D01*
X160506448Y-70917611D01*
X160491649Y-70922995D01*
X160476687Y-70927812D01*
X160461561Y-70932062D01*
X160446273Y-70935746D01*
X160430821Y-70938863D01*
X160415206Y-70941413D01*
X160399428Y-70943397D01*
X160383487Y-70944813D01*
X160367383Y-70945663D01*
X160351115Y-70945947D01*
X160326263Y-70945316D01*
X160302171Y-70943422D01*
X160278841Y-70940267D01*
X160256273Y-70935849D01*
X160234465Y-70930169D01*
X160213420Y-70923227D01*
X160193135Y-70915022D01*
X160173612Y-70905555D01*
X160154850Y-70894826D01*
X160136849Y-70882835D01*
X160119610Y-70869581D01*
X160103132Y-70855066D01*
X160087416Y-70839288D01*
X160072461Y-70822247D01*
X160058267Y-70803945D01*
X160044835Y-70784380D01*
X160044835Y-70922500D01*
X159873010Y-70922500D01*
X159873010Y-70387608D01*
X160041904Y-70387608D01*
X160042236Y-70412888D01*
X160043232Y-70437347D01*
X160044892Y-70460985D01*
X160047216Y-70483801D01*
X160050204Y-70505796D01*
X160053856Y-70526969D01*
X160058173Y-70547321D01*
X160063153Y-70566851D01*
X160068797Y-70585560D01*
X160075106Y-70603448D01*
X160082078Y-70620514D01*
X160089714Y-70636758D01*
X160098015Y-70652181D01*
X160106979Y-70666783D01*
X160116608Y-70680563D01*
X160126900Y-70693522D01*
X160137668Y-70705633D01*
X160148722Y-70716963D01*
X160160062Y-70727512D01*
X160171688Y-70737279D01*
X160183601Y-70746265D01*
X160202006Y-70758279D01*
X160221056Y-70768535D01*
X160240749Y-70777032D01*
X160261087Y-70783772D01*
X160282068Y-70788753D01*
X160303694Y-70791977D01*
X160318469Y-70793149D01*
X160333530Y-70793539D01*
X160348472Y-70793130D01*
X160363165Y-70791902D01*
X160384738Y-70788525D01*
X160405751Y-70783307D01*
X160426203Y-70776246D01*
X160446095Y-70767344D01*
X160459045Y-70760386D01*
X160471746Y-70752610D01*
X160484198Y-70744014D01*
X160496402Y-70734600D01*
X160508356Y-70724368D01*
X160520061Y-70713317D01*
X160531517Y-70701447D01*
X160542724Y-70688759D01*
X160553460Y-70675242D01*
X160563503Y-70660887D01*
X160572854Y-70645693D01*
X160581513Y-70629660D01*
X160589478Y-70612789D01*
X160596751Y-70595079D01*
X160603331Y-70576530D01*
X160609219Y-70557143D01*
X160614414Y-70536917D01*
X160618916Y-70515852D01*
X160622726Y-70493949D01*
X160625843Y-70471207D01*
X160628267Y-70447627D01*
X160629999Y-70423208D01*
X160631038Y-70397950D01*
X160631384Y-70371854D01*
X160631060Y-70344928D01*
X160630090Y-70318920D01*
X160628473Y-70293831D01*
X160626209Y-70269661D01*
X160623298Y-70246410D01*
X160619740Y-70224078D01*
X160615536Y-70202664D01*
X160610684Y-70182169D01*
X160605186Y-70162593D01*
X160599041Y-70143935D01*
X160592249Y-70126197D01*
X160584810Y-70109377D01*
X160576724Y-70093476D01*
X160567991Y-70078494D01*
X160558612Y-70064430D01*
X160548586Y-70051285D01*
X160543348Y-70045019D01*
X160532635Y-70033084D01*
X160521604Y-70021944D01*
X160510255Y-70011600D01*
X160498589Y-70002051D01*
X160486605Y-69993299D01*
X160468033Y-69981662D01*
X160448746Y-69971815D01*
X160428744Y-69963759D01*
X160408028Y-69957492D01*
X160386597Y-69953017D01*
X160371912Y-69951027D01*
X160356910Y-69949834D01*
X160341590Y-69949436D01*
X160325946Y-69949850D01*
X160310615Y-69951090D01*
X160295595Y-69953158D01*
X160280888Y-69956053D01*
X160266492Y-69959776D01*
X160252409Y-69964325D01*
X160238637Y-69969702D01*
X160225178Y-69975906D01*
X160212030Y-69982937D01*
X160199194Y-69990795D01*
X160186671Y-69999480D01*
X160174459Y-70008993D01*
X160162559Y-70019333D01*
X160150972Y-70030500D01*
X160139696Y-70042494D01*
X160128732Y-70055315D01*
X160118218Y-70069021D01*
X160108382Y-70083668D01*
X160099224Y-70099258D01*
X160090745Y-70115788D01*
X160082944Y-70133261D01*
X160075821Y-70151675D01*
X160069377Y-70171031D01*
X160063611Y-70191328D01*
X160058523Y-70212567D01*
X160054114Y-70234748D01*
X160050383Y-70257870D01*
X160047331Y-70281934D01*
X160044956Y-70306940D01*
X160043260Y-70332888D01*
X160042243Y-70359777D01*
X160041904Y-70387608D01*
X159873010Y-70387608D01*
X159873010Y-69398424D01*
X160057291Y-69398424D01*
X160057291Y-69953832D01*
G37*
G36*
X159004727Y-70922500D02*
G01*
X158832535Y-70922500D01*
X158832535Y-70784380D01*
X158818426Y-70803945D01*
X158803667Y-70822247D01*
X158788258Y-70839288D01*
X158772200Y-70855066D01*
X158755491Y-70869581D01*
X158738134Y-70882835D01*
X158720126Y-70894826D01*
X158701469Y-70905555D01*
X158682161Y-70915022D01*
X158662205Y-70923227D01*
X158641598Y-70930169D01*
X158620342Y-70935849D01*
X158598436Y-70940267D01*
X158575880Y-70943422D01*
X158552675Y-70945316D01*
X158528819Y-70945947D01*
X158504675Y-70945344D01*
X158480969Y-70943537D01*
X158457700Y-70940524D01*
X158434870Y-70936307D01*
X158412477Y-70930884D01*
X158390523Y-70924257D01*
X158369006Y-70916424D01*
X158347927Y-70907387D01*
X158327286Y-70897145D01*
X158307083Y-70885697D01*
X158287318Y-70873045D01*
X158267991Y-70859187D01*
X158249102Y-70844125D01*
X158230650Y-70827857D01*
X158212637Y-70810385D01*
X158195061Y-70791707D01*
X158178203Y-70771927D01*
X158162432Y-70751144D01*
X158147749Y-70729360D01*
X158134153Y-70706574D01*
X158121646Y-70682786D01*
X158110225Y-70657996D01*
X158099893Y-70632204D01*
X158090648Y-70605411D01*
X158082490Y-70577616D01*
X158078820Y-70563343D01*
X158075421Y-70548819D01*
X158072294Y-70534045D01*
X158069439Y-70519021D01*
X158066855Y-70503746D01*
X158064544Y-70488220D01*
X158062505Y-70472445D01*
X158060737Y-70456418D01*
X158059242Y-70440142D01*
X158058018Y-70423614D01*
X158057067Y-70406837D01*
X158056387Y-70389809D01*
X158055979Y-70372530D01*
X158055962Y-70370389D01*
X158245253Y-70370389D01*
X158245600Y-70396313D01*
X158246639Y-70421422D01*
X158248370Y-70445715D01*
X158250795Y-70469192D01*
X158253912Y-70491854D01*
X158257721Y-70513700D01*
X158262224Y-70534730D01*
X158267418Y-70554945D01*
X158273306Y-70574343D01*
X158279886Y-70592926D01*
X158287159Y-70610693D01*
X158295125Y-70627645D01*
X158303783Y-70643781D01*
X158313134Y-70659101D01*
X158323177Y-70673605D01*
X158333914Y-70687294D01*
X158339487Y-70693830D01*
X158350827Y-70706281D01*
X158362425Y-70717902D01*
X158374280Y-70728692D01*
X158386393Y-70738653D01*
X158398764Y-70747783D01*
X158411392Y-70756084D01*
X158424277Y-70763554D01*
X158437421Y-70770194D01*
X158457619Y-70778598D01*
X158478396Y-70785135D01*
X158499753Y-70789804D01*
X158514314Y-70791879D01*
X158529131Y-70793124D01*
X158544207Y-70793539D01*
X158562649Y-70792977D01*
X158580608Y-70791290D01*
X158598084Y-70788477D01*
X158615075Y-70784540D01*
X158631583Y-70779479D01*
X158647607Y-70773292D01*
X158663148Y-70765980D01*
X158678204Y-70757544D01*
X158692777Y-70747983D01*
X158706867Y-70737297D01*
X158720472Y-70725486D01*
X158733594Y-70712550D01*
X158746232Y-70698489D01*
X158758387Y-70683304D01*
X158770057Y-70666993D01*
X158781244Y-70649558D01*
X158790803Y-70632037D01*
X158799422Y-70612584D01*
X158804646Y-70598542D01*
X158809452Y-70583641D01*
X158813839Y-70567882D01*
X158817809Y-70551264D01*
X158821361Y-70533787D01*
X158824495Y-70515452D01*
X158827212Y-70496258D01*
X158829510Y-70476205D01*
X158831390Y-70455293D01*
X158832853Y-70433523D01*
X158833898Y-70410895D01*
X158834525Y-70387407D01*
X158834734Y-70363061D01*
X158834387Y-70338290D01*
X158833348Y-70314260D01*
X158831617Y-70290972D01*
X158829192Y-70268425D01*
X158826075Y-70246619D01*
X158822266Y-70225554D01*
X158817763Y-70205231D01*
X158812568Y-70185649D01*
X158806681Y-70166809D01*
X158800101Y-70148710D01*
X158792828Y-70131352D01*
X158784862Y-70114735D01*
X158776204Y-70098860D01*
X158766853Y-70083726D01*
X158756810Y-70069333D01*
X158746073Y-70055682D01*
X158740500Y-70049145D01*
X158729160Y-70036694D01*
X158717562Y-70025074D01*
X158705707Y-70014283D01*
X158693594Y-70004323D01*
X158681223Y-69995192D01*
X158668595Y-69986892D01*
X158655709Y-69979421D01*
X158642566Y-69972781D01*
X158622368Y-69964377D01*
X158601591Y-69957840D01*
X158580233Y-69953171D01*
X158565673Y-69951096D01*
X158550856Y-69949851D01*
X158535780Y-69949436D01*
X158520852Y-69949837D01*
X158498981Y-69951940D01*
X158477734Y-69955847D01*
X158457112Y-69961558D01*
X158437115Y-69969071D01*
X158417743Y-69978387D01*
X158398995Y-69989507D01*
X158386843Y-69997922D01*
X158374969Y-70007138D01*
X158363373Y-70017156D01*
X158352054Y-70027975D01*
X158341013Y-70039596D01*
X158330250Y-70052018D01*
X158319957Y-70065283D01*
X158310329Y-70079432D01*
X158301364Y-70094466D01*
X158293064Y-70110384D01*
X158285428Y-70127187D01*
X158278455Y-70144874D01*
X158272147Y-70163446D01*
X158266503Y-70182902D01*
X158261522Y-70203242D01*
X158257206Y-70224467D01*
X158253554Y-70246576D01*
X158250566Y-70269570D01*
X158248242Y-70293448D01*
X158246581Y-70318210D01*
X158245585Y-70343857D01*
X158245253Y-70370389D01*
X158055962Y-70370389D01*
X158055843Y-70355001D01*
X158055875Y-70347574D01*
X158056133Y-70332805D01*
X158056648Y-70318150D01*
X158057904Y-70296383D01*
X158059739Y-70274873D01*
X158062154Y-70253621D01*
X158065149Y-70232627D01*
X158068723Y-70211890D01*
X158072877Y-70191411D01*
X158077610Y-70171189D01*
X158082923Y-70151225D01*
X158088816Y-70131519D01*
X158093036Y-70118542D01*
X158099737Y-70099527D01*
X158106882Y-70081052D01*
X158114472Y-70063119D01*
X158122506Y-70045727D01*
X158130984Y-70028876D01*
X158139906Y-70012565D01*
X158149273Y-69996796D01*
X158159085Y-69981567D01*
X158169340Y-69966880D01*
X158180041Y-69952733D01*
X158187447Y-69943613D01*
X158199022Y-69930420D01*
X158211159Y-69917814D01*
X158223855Y-69905794D01*
X158237112Y-69894360D01*
X158250929Y-69883512D01*
X158265306Y-69873249D01*
X158280244Y-69863573D01*
X158295742Y-69854483D01*
X158311800Y-69845979D01*
X158328418Y-69838061D01*
X158339725Y-69833092D01*
X158356842Y-69826240D01*
X158374145Y-69820109D01*
X158391635Y-69814700D01*
X158409312Y-69810011D01*
X158427175Y-69806044D01*
X158445225Y-69802799D01*
X158463462Y-69800274D01*
X158481886Y-69798471D01*
X158500497Y-69797389D01*
X158519294Y-69797028D01*
X158541847Y-69797604D01*
X158563893Y-69799330D01*
X158585433Y-69802206D01*
X158606466Y-69806233D01*
X158626992Y-69811411D01*
X158647012Y-69817739D01*
X158666525Y-69825218D01*
X158685532Y-69833848D01*
X158704032Y-69843628D01*
X158722025Y-69854559D01*
X158739512Y-69866641D01*
X158756492Y-69879873D01*
X158772965Y-69894255D01*
X158788932Y-69909789D01*
X158804393Y-69926472D01*
X158819346Y-69944307D01*
X158819346Y-69398424D01*
X159004727Y-69398424D01*
X159004727Y-70922500D01*
G37*
G36*
X157844085Y-71346017D02*
G01*
X157864601Y-71175657D01*
X157849637Y-71179521D01*
X157835154Y-71182870D01*
X157817727Y-71186332D01*
X157801051Y-71188988D01*
X157785126Y-71190840D01*
X157769953Y-71191886D01*
X157758355Y-71192144D01*
X157743352Y-71191812D01*
X157725676Y-71190463D01*
X157709198Y-71188076D01*
X157693919Y-71184652D01*
X157679839Y-71180191D01*
X157664525Y-71173468D01*
X157659803Y-71170894D01*
X157646266Y-71162334D01*
X157633683Y-71152588D01*
X157622052Y-71141657D01*
X157611375Y-71129541D01*
X157601650Y-71116240D01*
X157598620Y-71111543D01*
X157591390Y-71097826D01*
X157584185Y-71081810D01*
X157577648Y-71065997D01*
X157570423Y-71047515D01*
X157564554Y-71031904D01*
X157558299Y-71014791D01*
X157551657Y-70996179D01*
X157544629Y-70976066D01*
X157542200Y-70969028D01*
X157537478Y-70955100D01*
X157532204Y-70940267D01*
X157527109Y-70926288D01*
X157525714Y-70922500D01*
X157940805Y-69820476D01*
X157741136Y-69820476D01*
X157513258Y-70458316D01*
X157507752Y-70473523D01*
X157502318Y-70488827D01*
X157496956Y-70504229D01*
X157491665Y-70519728D01*
X157486446Y-70535324D01*
X157481298Y-70551018D01*
X157476222Y-70566808D01*
X157471217Y-70582697D01*
X157466284Y-70598682D01*
X157461423Y-70614765D01*
X157456633Y-70630945D01*
X157451914Y-70647223D01*
X157447268Y-70663597D01*
X157442692Y-70680069D01*
X157438189Y-70696639D01*
X157433757Y-70713306D01*
X157429724Y-70697256D01*
X157425593Y-70681254D01*
X157421366Y-70665302D01*
X157417041Y-70649398D01*
X157412619Y-70633543D01*
X157408100Y-70617736D01*
X157403483Y-70601978D01*
X157398769Y-70586269D01*
X157393957Y-70570608D01*
X157389049Y-70554996D01*
X157384043Y-70539433D01*
X157378939Y-70523918D01*
X157373739Y-70508452D01*
X157368441Y-70493035D01*
X157363045Y-70477666D01*
X157357553Y-70462346D01*
X157123812Y-69820476D01*
X156938432Y-69820476D01*
X157354622Y-70940085D01*
X157362885Y-70962312D01*
X157370914Y-70983654D01*
X157378707Y-71004111D01*
X157386267Y-71023685D01*
X157393591Y-71042374D01*
X157400681Y-71060178D01*
X157407536Y-71077098D01*
X157414156Y-71093134D01*
X157420542Y-71108285D01*
X157426693Y-71122552D01*
X157435479Y-71142293D01*
X157443737Y-71160045D01*
X157451467Y-71175807D01*
X157458669Y-71189579D01*
X157468072Y-71206455D01*
X157477732Y-71222462D01*
X157487649Y-71237599D01*
X157497824Y-71251867D01*
X157508257Y-71265265D01*
X157518948Y-71277794D01*
X157529896Y-71289454D01*
X157541101Y-71300244D01*
X157552564Y-71310165D01*
X157564285Y-71319216D01*
X157572242Y-71324767D01*
X157588568Y-71334900D01*
X157605673Y-71343681D01*
X157623556Y-71351111D01*
X157637479Y-71355798D01*
X157651841Y-71359724D01*
X157666640Y-71362890D01*
X157681877Y-71365297D01*
X157697552Y-71366943D01*
X157713665Y-71367830D01*
X157724650Y-71367998D01*
X157741669Y-71367462D01*
X157759297Y-71365852D01*
X157773837Y-71363791D01*
X157788766Y-71361043D01*
X157804085Y-71357609D01*
X157819793Y-71353487D01*
X157835890Y-71348678D01*
X157844085Y-71346017D01*
G37*
G36*
X156187752Y-70922500D02*
G01*
X155611827Y-70922500D01*
X155593960Y-70922399D01*
X155576444Y-70922099D01*
X155559281Y-70921598D01*
X155542470Y-70920897D01*
X155526010Y-70919995D01*
X155509903Y-70918893D01*
X155494148Y-70917591D01*
X155478745Y-70916088D01*
X155463694Y-70914385D01*
X155448995Y-70912482D01*
X155427607Y-70909251D01*
X155407011Y-70905569D01*
X155387207Y-70901437D01*
X155368195Y-70896854D01*
X155355870Y-70893508D01*
X155337877Y-70888135D01*
X155320476Y-70882337D01*
X155303667Y-70876114D01*
X155287452Y-70869465D01*
X155271828Y-70862392D01*
X155256797Y-70854894D01*
X155242359Y-70846971D01*
X155228513Y-70838622D01*
X155215259Y-70829849D01*
X155202598Y-70820650D01*
X155194438Y-70814164D01*
X155182509Y-70803813D01*
X155170953Y-70792715D01*
X155159771Y-70780870D01*
X155148963Y-70768277D01*
X155138528Y-70754938D01*
X155128467Y-70740852D01*
X155118779Y-70726018D01*
X155109464Y-70710438D01*
X155100523Y-70694110D01*
X155091956Y-70677035D01*
X155086544Y-70665345D01*
X155079080Y-70647589D01*
X155072401Y-70629568D01*
X155066509Y-70611284D01*
X155061402Y-70592736D01*
X155057081Y-70573924D01*
X155053545Y-70554847D01*
X155050795Y-70535507D01*
X155048831Y-70515902D01*
X155047653Y-70496034D01*
X155047281Y-70477001D01*
X155254255Y-70477001D01*
X155254725Y-70495416D01*
X155256133Y-70513294D01*
X155258480Y-70530633D01*
X155261766Y-70547434D01*
X155265991Y-70563697D01*
X155271154Y-70579422D01*
X155277256Y-70594609D01*
X155284297Y-70609258D01*
X155291980Y-70623123D01*
X155300188Y-70636140D01*
X155308924Y-70648310D01*
X155320584Y-70662331D01*
X155333067Y-70675029D01*
X155346372Y-70686403D01*
X155360501Y-70696453D01*
X155369359Y-70701934D01*
X155385025Y-70710397D01*
X155398368Y-70716563D01*
X155412433Y-70722190D01*
X155427219Y-70727279D01*
X155442727Y-70731830D01*
X155458956Y-70735843D01*
X155475906Y-70739317D01*
X155492628Y-70741807D01*
X155509653Y-70743489D01*
X155525295Y-70744577D01*
X155542735Y-70745435D01*
X155561972Y-70746065D01*
X155577579Y-70746387D01*
X155594198Y-70746580D01*
X155611827Y-70746645D01*
X155987717Y-70746645D01*
X155987717Y-70207356D01*
X155638572Y-70207356D01*
X155620793Y-70207459D01*
X155603544Y-70207769D01*
X155586824Y-70208284D01*
X155570634Y-70209005D01*
X155554973Y-70209932D01*
X155539842Y-70211066D01*
X155525241Y-70212405D01*
X155504331Y-70214801D01*
X155484613Y-70217660D01*
X155466086Y-70220983D01*
X155448751Y-70224770D01*
X155432607Y-70229021D01*
X155417654Y-70233735D01*
X155412878Y-70235398D01*
X155398946Y-70240844D01*
X155381292Y-70249168D01*
X155364691Y-70258705D01*
X155349144Y-70269455D01*
X155334650Y-70281419D01*
X155321209Y-70294597D01*
X155308821Y-70308988D01*
X155297486Y-70324593D01*
X155289761Y-70336951D01*
X155280642Y-70354050D01*
X155272874Y-70371859D01*
X155267934Y-70385681D01*
X155263754Y-70399903D01*
X155260335Y-70414524D01*
X155257675Y-70429544D01*
X155255775Y-70444964D01*
X155254635Y-70460782D01*
X155254255Y-70477001D01*
X155047281Y-70477001D01*
X155047260Y-70475901D01*
X155047547Y-70459190D01*
X155048410Y-70442763D01*
X155049849Y-70426618D01*
X155051862Y-70410757D01*
X155054451Y-70395180D01*
X155057615Y-70379885D01*
X155061355Y-70364874D01*
X155065669Y-70350147D01*
X155070560Y-70335703D01*
X155076025Y-70321542D01*
X155082066Y-70307664D01*
X155088682Y-70294070D01*
X155095873Y-70280760D01*
X155103640Y-70267732D01*
X155111982Y-70254988D01*
X155120899Y-70242527D01*
X155130351Y-70230389D01*
X155140299Y-70218702D01*
X155150742Y-70207468D01*
X155161680Y-70196686D01*
X155173113Y-70186356D01*
X155185041Y-70176479D01*
X155197465Y-70167054D01*
X155210383Y-70158080D01*
X155223797Y-70149560D01*
X155237706Y-70141491D01*
X155252110Y-70133875D01*
X155267010Y-70126711D01*
X155282404Y-70119999D01*
X155298294Y-70113739D01*
X155314678Y-70107931D01*
X155331558Y-70102576D01*
X155318488Y-70095900D01*
X155299671Y-70085408D01*
X155281802Y-70074343D01*
X155264878Y-70062705D01*
X155248902Y-70050494D01*
X155233872Y-70037709D01*
X155219789Y-70024352D01*
X155206652Y-70010421D01*
X155194462Y-69995917D01*
X155183219Y-69980840D01*
X155172923Y-69965190D01*
X155166534Y-69954476D01*
X155157724Y-69938245D01*
X155149842Y-69921821D01*
X155142886Y-69905204D01*
X155136859Y-69888393D01*
X155131758Y-69871390D01*
X155127585Y-69854193D01*
X155124339Y-69836803D01*
X155122021Y-69819219D01*
X155121030Y-69806554D01*
X155317270Y-69806554D01*
X155317871Y-69826011D01*
X155319674Y-69844633D01*
X155322680Y-69862419D01*
X155326887Y-69879369D01*
X155332297Y-69895483D01*
X155338909Y-69910762D01*
X155346722Y-69925204D01*
X155355738Y-69938811D01*
X155358180Y-69942057D01*
X155368690Y-69954459D01*
X155380391Y-69965933D01*
X155393282Y-69976481D01*
X155407364Y-69986101D01*
X155422637Y-69994793D01*
X155439101Y-70002558D01*
X155456755Y-70009396D01*
X155470777Y-70013916D01*
X155486336Y-70018038D01*
X155504253Y-70021610D01*
X155519239Y-70023928D01*
X155535552Y-70025937D01*
X155553191Y-70027638D01*
X155572157Y-70029029D01*
X155592449Y-70030111D01*
X155614068Y-70030883D01*
X155629218Y-70031227D01*
X155644957Y-70031433D01*
X155661286Y-70031502D01*
X155987717Y-70031502D01*
X155987717Y-69574279D01*
X155685833Y-69574279D01*
X155665873Y-69574362D01*
X155646660Y-69574611D01*
X155628195Y-69575026D01*
X155610476Y-69575607D01*
X155593505Y-69576354D01*
X155577280Y-69577267D01*
X155561803Y-69578346D01*
X155547072Y-69579591D01*
X155526377Y-69581770D01*
X155507363Y-69584323D01*
X155490030Y-69587248D01*
X155474377Y-69590548D01*
X155456122Y-69595528D01*
X155439848Y-69601401D01*
X155424546Y-69608397D01*
X155410218Y-69616514D01*
X155396863Y-69625753D01*
X155384481Y-69636114D01*
X155373072Y-69647598D01*
X155362636Y-69660203D01*
X155353174Y-69673930D01*
X155344759Y-69688504D01*
X155337466Y-69703651D01*
X155331295Y-69719371D01*
X155326246Y-69735662D01*
X155322319Y-69752527D01*
X155319514Y-69769963D01*
X155317831Y-69787972D01*
X155317270Y-69806554D01*
X155121030Y-69806554D01*
X155120630Y-69801443D01*
X155120166Y-69783473D01*
X155120398Y-69770547D01*
X155121615Y-69751287D01*
X155123876Y-69732182D01*
X155127179Y-69713231D01*
X155131526Y-69694435D01*
X155136917Y-69675793D01*
X155143350Y-69657306D01*
X155150827Y-69638974D01*
X155159347Y-69620796D01*
X155168911Y-69602772D01*
X155179517Y-69584904D01*
X155187114Y-69573191D01*
X155199173Y-69556353D01*
X155212032Y-69540390D01*
X155225689Y-69525304D01*
X155240145Y-69511093D01*
X155255399Y-69497758D01*
X155271452Y-69485298D01*
X155288303Y-69473715D01*
X155305953Y-69463007D01*
X155324401Y-69453176D01*
X155343648Y-69444220D01*
X155356968Y-69438674D01*
X155370822Y-69433486D01*
X155385212Y-69428656D01*
X155400137Y-69424184D01*
X155415597Y-69420070D01*
X155431593Y-69416313D01*
X155448124Y-69412914D01*
X155465190Y-69409873D01*
X155482791Y-69407190D01*
X155500927Y-69404864D01*
X155519599Y-69402896D01*
X155538806Y-69401286D01*
X155558548Y-69400034D01*
X155578826Y-69399140D01*
X155599638Y-69398603D01*
X155620986Y-69398424D01*
X156187752Y-69398424D01*
X156187752Y-70922500D01*
G37*
G36*
X154382482Y-69797627D02*
G01*
X154409837Y-69799421D01*
X154436532Y-69802412D01*
X154462565Y-69806600D01*
X154487937Y-69811984D01*
X154512648Y-69818564D01*
X154536698Y-69826340D01*
X154560087Y-69835314D01*
X154582814Y-69845483D01*
X154604881Y-69856849D01*
X154626286Y-69869411D01*
X154647030Y-69883170D01*
X154667112Y-69898125D01*
X154686534Y-69914276D01*
X154705294Y-69931624D01*
X154723394Y-69950169D01*
X154732139Y-69959861D01*
X154748797Y-69979974D01*
X154764345Y-70001057D01*
X154778782Y-70023111D01*
X154792108Y-70046134D01*
X154804324Y-70070128D01*
X154815430Y-70095093D01*
X154825425Y-70121027D01*
X154834309Y-70147932D01*
X154842083Y-70175807D01*
X154845553Y-70190109D01*
X154848746Y-70204653D01*
X154851661Y-70219439D01*
X154854299Y-70234468D01*
X154856659Y-70249740D01*
X154858741Y-70265255D01*
X154860546Y-70281011D01*
X154862073Y-70297011D01*
X154863322Y-70313253D01*
X154864294Y-70329737D01*
X154864988Y-70346465D01*
X154865404Y-70363434D01*
X154865543Y-70380647D01*
X154865406Y-70397291D01*
X154864993Y-70413703D01*
X154864307Y-70429881D01*
X154863345Y-70445825D01*
X154862108Y-70461537D01*
X154860597Y-70477015D01*
X154858811Y-70492260D01*
X154856750Y-70507271D01*
X154854415Y-70522050D01*
X154851804Y-70536595D01*
X154845759Y-70564985D01*
X154838615Y-70592443D01*
X154830372Y-70618967D01*
X154821030Y-70644558D01*
X154810588Y-70669216D01*
X154799048Y-70692941D01*
X154786408Y-70715733D01*
X154772670Y-70737591D01*
X154757832Y-70758517D01*
X154741895Y-70778510D01*
X154724859Y-70797569D01*
X154706886Y-70815537D01*
X154688137Y-70832345D01*
X154668612Y-70847994D01*
X154648312Y-70862484D01*
X154627236Y-70875815D01*
X154605384Y-70887987D01*
X154582757Y-70898999D01*
X154559354Y-70908852D01*
X154535175Y-70917546D01*
X154510221Y-70925081D01*
X154484491Y-70931457D01*
X154457986Y-70936673D01*
X154430704Y-70940730D01*
X154402647Y-70943628D01*
X154373815Y-70945367D01*
X154359108Y-70945802D01*
X154344207Y-70945947D01*
X154320658Y-70945586D01*
X154297638Y-70944504D01*
X154275148Y-70942701D01*
X154253188Y-70940177D01*
X154231757Y-70936931D01*
X154210856Y-70932964D01*
X154190484Y-70928275D01*
X154170642Y-70922866D01*
X154151329Y-70916735D01*
X154132545Y-70909883D01*
X154114292Y-70902309D01*
X154096567Y-70894015D01*
X154079372Y-70884999D01*
X154062707Y-70875261D01*
X154046571Y-70864803D01*
X154030965Y-70853623D01*
X154015926Y-70841791D01*
X154001490Y-70829374D01*
X153987658Y-70816374D01*
X153974431Y-70802790D01*
X153961807Y-70788622D01*
X153949787Y-70773870D01*
X153938371Y-70758534D01*
X153927559Y-70742615D01*
X153917351Y-70726111D01*
X153907747Y-70709024D01*
X153898746Y-70691352D01*
X153890350Y-70673097D01*
X153882558Y-70654258D01*
X153875369Y-70634835D01*
X153868785Y-70614828D01*
X153862804Y-70594237D01*
X154054779Y-70570790D01*
X154057441Y-70578009D01*
X154062943Y-70592077D01*
X154068679Y-70605650D01*
X154077722Y-70625080D01*
X154087294Y-70643397D01*
X154097394Y-70660599D01*
X154108023Y-70676687D01*
X154119179Y-70691661D01*
X154130863Y-70705521D01*
X154143076Y-70718267D01*
X154155816Y-70729899D01*
X154169085Y-70740416D01*
X154178222Y-70746849D01*
X154192363Y-70755720D01*
X154207026Y-70763658D01*
X154222211Y-70770661D01*
X154237917Y-70776731D01*
X154254144Y-70781867D01*
X154270894Y-70786069D01*
X154288165Y-70789337D01*
X154305957Y-70791672D01*
X154324272Y-70793072D01*
X154343108Y-70793539D01*
X154360059Y-70793174D01*
X154376658Y-70792080D01*
X154392906Y-70790255D01*
X154408801Y-70787700D01*
X154424345Y-70784416D01*
X154439536Y-70780402D01*
X154454375Y-70775658D01*
X154468862Y-70770184D01*
X154482997Y-70763980D01*
X154496780Y-70757046D01*
X154510211Y-70749382D01*
X154523290Y-70740989D01*
X154536017Y-70731866D01*
X154548392Y-70722012D01*
X154560415Y-70711429D01*
X154572085Y-70700116D01*
X154583216Y-70688071D01*
X154593712Y-70675381D01*
X154603573Y-70662047D01*
X154612797Y-70648070D01*
X154621387Y-70633448D01*
X154629341Y-70618182D01*
X154636660Y-70602273D01*
X154643343Y-70585719D01*
X154649391Y-70568521D01*
X154654803Y-70550680D01*
X154659580Y-70532194D01*
X154663722Y-70513065D01*
X154667228Y-70493291D01*
X154670099Y-70472873D01*
X154672335Y-70451812D01*
X154673934Y-70430106D01*
X153857675Y-70430106D01*
X153857586Y-70425959D01*
X153857288Y-70410686D01*
X153857045Y-70394557D01*
X153856942Y-70379548D01*
X153857078Y-70362358D01*
X153857486Y-70345411D01*
X153858166Y-70328707D01*
X153859117Y-70312245D01*
X153860341Y-70296026D01*
X153861837Y-70280050D01*
X153862101Y-70277698D01*
X154052581Y-70277698D01*
X154663676Y-70277698D01*
X154662184Y-70259249D01*
X154660087Y-70241268D01*
X154657387Y-70223757D01*
X154654082Y-70206715D01*
X154650174Y-70190143D01*
X154645661Y-70174040D01*
X154640545Y-70158407D01*
X154634825Y-70143243D01*
X154628501Y-70128548D01*
X154621573Y-70114323D01*
X154614041Y-70100567D01*
X154605905Y-70087281D01*
X154597165Y-70074464D01*
X154587822Y-70062116D01*
X154577874Y-70050238D01*
X154567322Y-70038829D01*
X154561833Y-70033329D01*
X154550616Y-70022853D01*
X154539081Y-70013076D01*
X154527229Y-70003997D01*
X154515059Y-69995616D01*
X154502571Y-69987934D01*
X154483243Y-69977720D01*
X154463201Y-69969078D01*
X154442444Y-69962007D01*
X154428209Y-69958166D01*
X154413656Y-69955023D01*
X154398785Y-69952579D01*
X154383597Y-69950833D01*
X154368090Y-69949785D01*
X154352267Y-69949436D01*
X154334840Y-69949874D01*
X154317823Y-69951188D01*
X154301215Y-69953377D01*
X154285016Y-69956443D01*
X154269226Y-69960384D01*
X154253846Y-69965201D01*
X154238875Y-69970894D01*
X154224314Y-69977463D01*
X154210162Y-69984908D01*
X154196419Y-69993228D01*
X154183085Y-70002424D01*
X154170161Y-70012496D01*
X154157646Y-70023444D01*
X154145540Y-70035268D01*
X154133843Y-70047968D01*
X154122556Y-70061543D01*
X154112167Y-70075645D01*
X154102571Y-70091021D01*
X154093766Y-70107673D01*
X154085754Y-70125600D01*
X154078534Y-70144802D01*
X154072105Y-70165279D01*
X154068260Y-70179639D01*
X154064767Y-70194565D01*
X154061625Y-70210058D01*
X154058836Y-70226118D01*
X154056399Y-70242745D01*
X154054314Y-70259938D01*
X154052581Y-70277698D01*
X153862101Y-70277698D01*
X153863604Y-70264316D01*
X153865643Y-70248824D01*
X153867955Y-70233575D01*
X153870538Y-70218569D01*
X153873393Y-70203806D01*
X153876520Y-70189284D01*
X153883589Y-70160970D01*
X153891747Y-70133626D01*
X153900992Y-70107252D01*
X153911324Y-70081848D01*
X153922745Y-70057415D01*
X153935253Y-70033952D01*
X153948848Y-70011459D01*
X153963531Y-69989936D01*
X153979302Y-69969384D01*
X153996161Y-69949802D01*
X154013832Y-69931302D01*
X154032133Y-69913996D01*
X154051064Y-69897883D01*
X154070624Y-69882964D01*
X154090814Y-69869238D01*
X154111634Y-69856706D01*
X154133084Y-69845367D01*
X154155163Y-69835222D01*
X154177872Y-69826270D01*
X154201210Y-69818512D01*
X154225178Y-69811948D01*
X154249776Y-69806577D01*
X154275004Y-69802399D01*
X154300861Y-69799416D01*
X154327348Y-69797625D01*
X154354465Y-69797028D01*
X154382482Y-69797627D01*
G37*
G36*
X153635658Y-70922500D02*
G01*
X153635658Y-69820476D01*
X153468962Y-69820476D01*
X153468962Y-69975081D01*
X153453476Y-69953520D01*
X153437152Y-69933350D01*
X153419988Y-69914571D01*
X153401986Y-69897183D01*
X153383146Y-69881186D01*
X153363467Y-69866580D01*
X153342949Y-69853366D01*
X153321592Y-69841542D01*
X153299397Y-69831109D01*
X153276364Y-69822067D01*
X153252491Y-69814416D01*
X153227780Y-69808157D01*
X153202231Y-69803288D01*
X153175842Y-69799811D01*
X153148615Y-69797724D01*
X153120550Y-69797028D01*
X153102144Y-69797344D01*
X153084022Y-69798291D01*
X153066184Y-69799868D01*
X153048628Y-69802077D01*
X153031356Y-69804917D01*
X153014367Y-69808389D01*
X152997662Y-69812491D01*
X152981240Y-69817224D01*
X152965101Y-69822589D01*
X152949246Y-69828584D01*
X152938833Y-69832932D01*
X152923610Y-69839795D01*
X152909128Y-69847057D01*
X152895386Y-69854719D01*
X152882385Y-69862779D01*
X152870124Y-69871239D01*
X152854928Y-69883141D01*
X152841049Y-69895751D01*
X152828487Y-69909072D01*
X152817242Y-69923103D01*
X152814636Y-69926721D01*
X152804675Y-69941536D01*
X152795493Y-69957038D01*
X152787090Y-69973227D01*
X152779465Y-69990102D01*
X152772618Y-70007665D01*
X152766550Y-70025915D01*
X152762510Y-70040052D01*
X152758908Y-70054577D01*
X152756750Y-70064474D01*
X152753795Y-70082522D01*
X152751791Y-70099704D01*
X152750108Y-70119325D01*
X152749057Y-70135641D01*
X152748185Y-70153328D01*
X152747494Y-70172387D01*
X152746983Y-70192818D01*
X152746652Y-70214621D01*
X152746532Y-70229918D01*
X152746492Y-70245825D01*
X152746492Y-70922500D01*
X152931872Y-70922500D01*
X152931872Y-70250587D01*
X152932062Y-70229664D01*
X152932632Y-70209758D01*
X152933582Y-70190869D01*
X152934912Y-70172998D01*
X152936622Y-70156145D01*
X152938712Y-70140309D01*
X152941181Y-70125490D01*
X152945065Y-70107315D01*
X152949625Y-70090949D01*
X152953488Y-70079862D01*
X152959418Y-70066026D01*
X152966402Y-70052911D01*
X152974439Y-70040518D01*
X152983530Y-70028845D01*
X152993673Y-70017895D01*
X153004870Y-70007665D01*
X153017121Y-69998157D01*
X153030424Y-69989370D01*
X153044466Y-69981384D01*
X153059115Y-69974463D01*
X153074371Y-69968607D01*
X153090233Y-69963816D01*
X153106703Y-69960089D01*
X153123779Y-69957427D01*
X153141461Y-69955830D01*
X153159751Y-69955298D01*
X153174417Y-69955594D01*
X153195944Y-69957149D01*
X153216904Y-69960038D01*
X153237297Y-69964259D01*
X153257124Y-69969814D01*
X153276384Y-69976701D01*
X153295077Y-69984922D01*
X153313203Y-69994476D01*
X153330763Y-70005362D01*
X153347756Y-70017582D01*
X153364182Y-70031135D01*
X153379568Y-70046556D01*
X153388985Y-70058171D01*
X153397729Y-70070853D01*
X153405801Y-70084603D01*
X153413200Y-70099421D01*
X153419926Y-70115306D01*
X153425979Y-70132259D01*
X153431360Y-70150280D01*
X153436069Y-70169368D01*
X153440104Y-70189524D01*
X153443468Y-70210747D01*
X153446158Y-70233038D01*
X153448176Y-70256397D01*
X153449521Y-70280823D01*
X153450194Y-70306317D01*
X153450278Y-70319464D01*
X153450278Y-70922500D01*
X153635658Y-70922500D01*
G37*
G36*
X151928767Y-70423511D02*
G01*
X151740456Y-70406659D01*
X151738624Y-70421285D01*
X151735361Y-70442601D01*
X151731480Y-70463170D01*
X151726980Y-70482993D01*
X151721863Y-70502068D01*
X151716127Y-70520396D01*
X151709773Y-70537977D01*
X151702800Y-70554811D01*
X151695210Y-70570899D01*
X151687001Y-70586239D01*
X151678174Y-70600832D01*
X151668496Y-70614797D01*
X151657871Y-70628253D01*
X151646299Y-70641201D01*
X151633781Y-70653640D01*
X151620316Y-70665570D01*
X151605904Y-70676991D01*
X151590546Y-70687904D01*
X151574241Y-70698307D01*
X151556989Y-70708203D01*
X151538791Y-70717589D01*
X151526133Y-70723564D01*
X151506539Y-70731879D01*
X151486501Y-70739376D01*
X151466019Y-70746055D01*
X151445092Y-70751917D01*
X151423721Y-70756960D01*
X151409226Y-70759868D01*
X151394535Y-70762413D01*
X151379645Y-70764594D01*
X151364559Y-70766412D01*
X151349274Y-70767866D01*
X151333792Y-70768956D01*
X151318113Y-70769683D01*
X151302237Y-70770047D01*
X151294224Y-70770092D01*
X151273027Y-70769793D01*
X151252300Y-70768894D01*
X151232043Y-70767397D01*
X151212256Y-70765301D01*
X151192939Y-70762605D01*
X151174092Y-70759311D01*
X151155716Y-70755418D01*
X151137809Y-70750927D01*
X151120373Y-70745836D01*
X151103407Y-70740146D01*
X151092357Y-70736020D01*
X151076270Y-70729341D01*
X151060982Y-70722217D01*
X151046492Y-70714649D01*
X151032800Y-70706637D01*
X151019907Y-70698180D01*
X151007813Y-70689279D01*
X150996517Y-70679933D01*
X150982699Y-70666781D01*
X150970299Y-70652839D01*
X150961932Y-70641864D01*
X150951885Y-70626678D01*
X150943178Y-70611159D01*
X150935811Y-70595308D01*
X150929783Y-70579125D01*
X150925095Y-70562610D01*
X150921746Y-70545763D01*
X150919737Y-70528583D01*
X150919067Y-70511072D01*
X150919714Y-70493493D01*
X150921655Y-70476474D01*
X150924889Y-70460016D01*
X150929417Y-70444119D01*
X150935239Y-70428784D01*
X150942354Y-70414009D01*
X150950763Y-70399795D01*
X150960466Y-70386142D01*
X150971566Y-70372953D01*
X150984349Y-70360314D01*
X150998814Y-70348224D01*
X151010768Y-70339517D01*
X151023668Y-70331119D01*
X151037515Y-70323030D01*
X151052309Y-70315251D01*
X151068050Y-70307780D01*
X151084737Y-70300619D01*
X151096387Y-70296017D01*
X151113893Y-70289651D01*
X151130042Y-70284336D01*
X151148780Y-70278557D01*
X151170107Y-70272315D01*
X151185764Y-70267895D01*
X151202571Y-70263270D01*
X151220528Y-70258438D01*
X151239637Y-70253401D01*
X151259895Y-70248157D01*
X151281305Y-70242708D01*
X151303865Y-70237052D01*
X151327575Y-70231190D01*
X151352437Y-70225122D01*
X151365299Y-70222011D01*
X151390824Y-70215714D01*
X151415376Y-70209463D01*
X151438955Y-70203258D01*
X151461561Y-70197098D01*
X151483194Y-70190985D01*
X151503853Y-70184917D01*
X151523539Y-70178895D01*
X151542253Y-70172918D01*
X151559993Y-70166988D01*
X151576760Y-70161103D01*
X151592553Y-70155264D01*
X151607374Y-70149471D01*
X151621221Y-70143724D01*
X151640168Y-70135188D01*
X151656925Y-70126756D01*
X151670220Y-70119461D01*
X151683085Y-70111953D01*
X151701579Y-70100294D01*
X151719106Y-70088159D01*
X151735668Y-70075548D01*
X151751264Y-70062459D01*
X151765893Y-70048895D01*
X151779557Y-70034853D01*
X151792254Y-70020335D01*
X151803986Y-70005341D01*
X151814751Y-69989870D01*
X151818125Y-69984607D01*
X151827619Y-69968558D01*
X151836178Y-69952149D01*
X151843804Y-69935380D01*
X151850497Y-69918249D01*
X151856255Y-69900758D01*
X151861080Y-69882907D01*
X151864971Y-69864694D01*
X151867928Y-69846121D01*
X151869951Y-69827188D01*
X151871040Y-69807893D01*
X151871248Y-69794830D01*
X151870678Y-69773327D01*
X151868968Y-69752094D01*
X151866118Y-69731132D01*
X151862129Y-69710441D01*
X151856999Y-69690019D01*
X151850730Y-69669869D01*
X151843321Y-69649988D01*
X151834772Y-69630379D01*
X151825083Y-69611039D01*
X151814254Y-69591970D01*
X151806401Y-69579408D01*
X151798018Y-69567049D01*
X151789171Y-69555068D01*
X151779860Y-69543464D01*
X151770085Y-69532239D01*
X151759847Y-69521391D01*
X151749145Y-69510921D01*
X151737980Y-69500829D01*
X151726351Y-69491114D01*
X151714258Y-69481778D01*
X151701701Y-69472819D01*
X151688681Y-69464238D01*
X151675197Y-69456035D01*
X151661250Y-69448210D01*
X151646838Y-69440762D01*
X151631963Y-69433692D01*
X151616625Y-69427001D01*
X151600944Y-69420701D01*
X151585043Y-69414807D01*
X151568921Y-69409321D01*
X151552580Y-69404240D01*
X151536017Y-69399566D01*
X151519235Y-69395299D01*
X151502232Y-69391437D01*
X151485008Y-69387983D01*
X151467564Y-69384934D01*
X151449900Y-69382293D01*
X151432016Y-69380057D01*
X151413911Y-69378228D01*
X151395585Y-69376806D01*
X151377040Y-69375790D01*
X151358273Y-69375180D01*
X151339287Y-69374977D01*
X151318467Y-69375190D01*
X151297956Y-69375830D01*
X151277755Y-69376896D01*
X151257862Y-69378389D01*
X151238279Y-69380308D01*
X151219005Y-69382653D01*
X151200040Y-69385425D01*
X151181384Y-69388624D01*
X151163037Y-69392249D01*
X151144999Y-69396300D01*
X151127271Y-69400778D01*
X151109851Y-69405683D01*
X151092741Y-69411014D01*
X151075940Y-69416771D01*
X151059448Y-69422955D01*
X151043265Y-69429565D01*
X151027468Y-69436545D01*
X151012135Y-69443928D01*
X150997266Y-69451714D01*
X150982860Y-69459905D01*
X150968918Y-69468498D01*
X150955440Y-69477496D01*
X150942426Y-69486897D01*
X150929875Y-69496701D01*
X150917788Y-69506909D01*
X150906164Y-69517521D01*
X150895004Y-69528536D01*
X150884308Y-69539955D01*
X150874076Y-69551778D01*
X150864307Y-69564004D01*
X150855002Y-69576633D01*
X150846161Y-69589666D01*
X150837756Y-69603010D01*
X150829852Y-69616571D01*
X150822449Y-69630350D01*
X150815546Y-69644346D01*
X150809145Y-69658560D01*
X150803244Y-69672991D01*
X150797845Y-69687640D01*
X150792946Y-69702506D01*
X150788548Y-69717590D01*
X150784651Y-69732892D01*
X150781255Y-69748411D01*
X150778360Y-69764147D01*
X150775966Y-69780101D01*
X150774073Y-69796273D01*
X150772680Y-69812662D01*
X150771789Y-69829269D01*
X150963397Y-69843923D01*
X150965610Y-69826066D01*
X150968400Y-69808764D01*
X150971769Y-69792017D01*
X150975716Y-69775825D01*
X150980241Y-69760189D01*
X150985345Y-69745108D01*
X150991026Y-69730582D01*
X150997286Y-69716612D01*
X151004124Y-69703196D01*
X151011540Y-69690336D01*
X151019534Y-69678032D01*
X151032609Y-69660616D01*
X151046985Y-69644449D01*
X151062663Y-69629532D01*
X151068177Y-69624837D01*
X151085617Y-69611612D01*
X151098073Y-69603517D01*
X151111194Y-69596001D01*
X151124978Y-69589063D01*
X151139427Y-69582703D01*
X151154539Y-69576922D01*
X151170316Y-69571718D01*
X151186756Y-69567093D01*
X151203861Y-69563045D01*
X151221630Y-69559576D01*
X151240062Y-69556686D01*
X151259159Y-69554373D01*
X151278920Y-69552638D01*
X151299345Y-69551482D01*
X151320433Y-69550904D01*
X151331227Y-69550832D01*
X151353512Y-69551094D01*
X151375030Y-69551879D01*
X151395781Y-69553189D01*
X151415765Y-69555022D01*
X151434982Y-69557379D01*
X151453432Y-69560260D01*
X151471115Y-69563664D01*
X151488031Y-69567593D01*
X151504179Y-69572045D01*
X151519561Y-69577021D01*
X151534176Y-69582521D01*
X151548023Y-69588544D01*
X151567356Y-69598562D01*
X151584963Y-69609758D01*
X151595742Y-69617876D01*
X151610539Y-69630623D01*
X151623880Y-69643860D01*
X151635766Y-69657585D01*
X151646197Y-69671801D01*
X151655172Y-69686505D01*
X151662692Y-69701699D01*
X151668756Y-69717383D01*
X151673365Y-69733556D01*
X151676519Y-69750218D01*
X151678217Y-69767370D01*
X151678540Y-69779077D01*
X151678022Y-69794206D01*
X151676467Y-69808821D01*
X151672780Y-69827505D01*
X151667250Y-69845274D01*
X151659877Y-69862127D01*
X151650661Y-69878064D01*
X151639601Y-69893085D01*
X151626698Y-69907190D01*
X151619556Y-69913899D01*
X151607135Y-69923816D01*
X151591443Y-69933785D01*
X151572479Y-69943806D01*
X151558019Y-69950515D01*
X151542105Y-69957247D01*
X151524737Y-69964002D01*
X151505915Y-69970780D01*
X151485639Y-69977580D01*
X151463909Y-69984404D01*
X151440725Y-69991250D01*
X151416087Y-69998120D01*
X151389995Y-70005012D01*
X151362449Y-70011927D01*
X151348131Y-70015393D01*
X151333449Y-70018865D01*
X151318404Y-70022342D01*
X151303326Y-70025787D01*
X151288547Y-70029205D01*
X151274066Y-70032596D01*
X151245999Y-70039299D01*
X151219125Y-70045897D01*
X151193446Y-70052388D01*
X151168959Y-70058774D01*
X151145667Y-70065054D01*
X151123567Y-70071227D01*
X151102662Y-70077295D01*
X151082950Y-70083257D01*
X151064431Y-70089113D01*
X151047106Y-70094864D01*
X151030975Y-70100508D01*
X151016037Y-70106046D01*
X151002292Y-70111479D01*
X150983914Y-70119429D01*
X150967698Y-70127204D01*
X150952023Y-70135234D01*
X150936889Y-70143519D01*
X150922296Y-70152058D01*
X150908244Y-70160853D01*
X150894732Y-70169901D01*
X150881762Y-70179205D01*
X150869333Y-70188763D01*
X150857445Y-70198577D01*
X150846098Y-70208644D01*
X150835291Y-70218967D01*
X150825026Y-70229544D01*
X150810642Y-70245888D01*
X150797476Y-70262805D01*
X150789374Y-70274401D01*
X150778113Y-70292238D01*
X150767959Y-70310577D01*
X150758913Y-70329418D01*
X150750975Y-70348762D01*
X150744144Y-70368608D01*
X150738421Y-70388956D01*
X150733806Y-70409806D01*
X150730298Y-70431159D01*
X150727898Y-70453014D01*
X150726913Y-70467864D01*
X150726421Y-70482936D01*
X150726359Y-70490556D01*
X150726630Y-70505660D01*
X150727441Y-70520655D01*
X150728794Y-70535542D01*
X150730687Y-70550319D01*
X150733121Y-70564988D01*
X150736097Y-70579548D01*
X150739613Y-70594000D01*
X150743670Y-70608342D01*
X150748268Y-70622576D01*
X150753407Y-70636701D01*
X150759088Y-70650717D01*
X150765309Y-70664625D01*
X150772071Y-70678424D01*
X150779374Y-70692114D01*
X150787217Y-70705695D01*
X150795602Y-70719167D01*
X150804448Y-70732399D01*
X150813766Y-70745259D01*
X150823556Y-70757747D01*
X150833819Y-70769863D01*
X150844553Y-70781607D01*
X150855760Y-70792978D01*
X150867440Y-70803978D01*
X150879591Y-70814605D01*
X150892215Y-70824861D01*
X150905311Y-70834744D01*
X150918880Y-70844255D01*
X150932920Y-70853394D01*
X150947433Y-70862161D01*
X150962418Y-70870556D01*
X150977876Y-70878579D01*
X150993805Y-70886229D01*
X151010097Y-70893461D01*
X151026641Y-70900226D01*
X151043436Y-70906524D01*
X151060484Y-70912356D01*
X151077783Y-70917721D01*
X151095334Y-70922620D01*
X151113137Y-70927052D01*
X151131192Y-70931017D01*
X151149499Y-70934517D01*
X151168057Y-70937549D01*
X151186868Y-70940115D01*
X151205930Y-70942214D01*
X151225245Y-70943847D01*
X151244811Y-70945014D01*
X151264629Y-70945714D01*
X151284699Y-70945947D01*
X151310085Y-70945708D01*
X151334953Y-70944991D01*
X151359304Y-70943796D01*
X151383136Y-70942123D01*
X151406450Y-70939972D01*
X151429246Y-70937343D01*
X151451525Y-70934236D01*
X151473285Y-70930651D01*
X151494527Y-70926588D01*
X151515251Y-70922047D01*
X151535456Y-70917028D01*
X151555144Y-70911531D01*
X151574314Y-70905557D01*
X151592966Y-70899104D01*
X151611099Y-70892173D01*
X151628715Y-70884764D01*
X151645792Y-70876877D01*
X151662403Y-70868512D01*
X151678547Y-70859669D01*
X151694225Y-70850349D01*
X151709436Y-70840550D01*
X151724181Y-70830273D01*
X151738459Y-70819518D01*
X151752271Y-70808285D01*
X151765616Y-70796575D01*
X151778495Y-70784386D01*
X151790907Y-70771719D01*
X151802852Y-70758574D01*
X151814331Y-70744952D01*
X151825344Y-70730851D01*
X151835889Y-70716272D01*
X151845969Y-70701215D01*
X151855523Y-70685748D01*
X151864493Y-70670029D01*
X151872879Y-70654058D01*
X151880682Y-70637834D01*
X151887900Y-70621360D01*
X151894535Y-70604633D01*
X151900586Y-70587654D01*
X151906052Y-70570423D01*
X151910935Y-70552941D01*
X151915234Y-70535207D01*
X151918950Y-70517220D01*
X151922081Y-70498982D01*
X151924628Y-70480492D01*
X151926592Y-70461751D01*
X151927971Y-70442757D01*
X151928767Y-70423511D01*
G37*
G36*
X150484925Y-70922500D02*
G01*
X150484925Y-69820476D01*
X150318962Y-69820476D01*
X150318962Y-69972883D01*
X150309046Y-69958316D01*
X150298530Y-69944290D01*
X150287416Y-69930804D01*
X150275703Y-69917860D01*
X150263391Y-69905457D01*
X150250479Y-69893594D01*
X150236969Y-69882273D01*
X150222860Y-69871492D01*
X150208153Y-69861252D01*
X150192846Y-69851554D01*
X150182309Y-69845389D01*
X150166028Y-69836746D01*
X150149336Y-69828954D01*
X150132231Y-69822011D01*
X150114714Y-69815919D01*
X150096785Y-69810677D01*
X150078444Y-69806285D01*
X150059691Y-69802743D01*
X150040526Y-69800051D01*
X150020948Y-69798209D01*
X150000958Y-69797217D01*
X149987403Y-69797028D01*
X149972370Y-69797223D01*
X149957681Y-69797807D01*
X149936292Y-69799413D01*
X149915675Y-69801894D01*
X149895832Y-69805252D01*
X149876761Y-69809485D01*
X149858463Y-69814594D01*
X149840937Y-69820579D01*
X149824185Y-69827440D01*
X149808205Y-69835176D01*
X149792998Y-69843789D01*
X149788101Y-69846854D01*
X149773875Y-69856547D01*
X149760460Y-69866942D01*
X149747857Y-69878040D01*
X149736065Y-69889839D01*
X149725085Y-69902340D01*
X149714916Y-69915543D01*
X149705559Y-69929448D01*
X149697013Y-69944055D01*
X149689279Y-69959364D01*
X149682356Y-69975375D01*
X149678191Y-69986439D01*
X149661673Y-69963502D01*
X149644543Y-69942046D01*
X149626800Y-69922069D01*
X149608445Y-69903572D01*
X149589477Y-69886554D01*
X149569896Y-69871017D01*
X149549703Y-69856959D01*
X149528898Y-69844381D01*
X149507480Y-69833283D01*
X149485449Y-69823664D01*
X149462806Y-69815526D01*
X149439551Y-69808867D01*
X149415683Y-69803687D01*
X149391202Y-69799988D01*
X149366109Y-69797768D01*
X149340403Y-69797028D01*
X149320319Y-69797383D01*
X149300825Y-69798448D01*
X149281920Y-69800223D01*
X149263604Y-69802707D01*
X149245879Y-69805901D01*
X149228742Y-69809805D01*
X149212196Y-69814419D01*
X149196239Y-69819743D01*
X149180872Y-69825777D01*
X149166094Y-69832520D01*
X149151906Y-69839973D01*
X149138308Y-69848136D01*
X149125299Y-69857009D01*
X149112880Y-69866592D01*
X149101050Y-69876884D01*
X149089810Y-69887887D01*
X149079207Y-69899582D01*
X149069288Y-69912044D01*
X149060053Y-69925273D01*
X149051502Y-69939269D01*
X149043635Y-69954033D01*
X149036453Y-69969563D01*
X149029954Y-69985861D01*
X149024139Y-70002925D01*
X149019009Y-70020757D01*
X149014562Y-70039356D01*
X149010800Y-70058721D01*
X149007722Y-70078854D01*
X149005328Y-70099754D01*
X149003617Y-70121421D01*
X149002591Y-70143855D01*
X149002249Y-70167056D01*
X149002249Y-70922500D01*
X149186897Y-70922500D01*
X149186897Y-70226774D01*
X149187055Y-70206242D01*
X149187528Y-70186824D01*
X149188317Y-70168521D01*
X149189421Y-70151331D01*
X149190841Y-70135256D01*
X149192577Y-70120295D01*
X149195382Y-70102080D01*
X149198748Y-70085845D01*
X149202675Y-70071591D01*
X149204849Y-70065207D01*
X149211183Y-70050225D01*
X149218967Y-70036191D01*
X149228199Y-70023106D01*
X149238880Y-70010968D01*
X149251011Y-69999779D01*
X149264590Y-69989537D01*
X149270428Y-69985706D01*
X149285599Y-69976946D01*
X149301576Y-69969670D01*
X149318358Y-69963880D01*
X149335944Y-69959574D01*
X149350593Y-69957198D01*
X149365757Y-69955773D01*
X149381436Y-69955298D01*
X149402730Y-69955980D01*
X149423335Y-69958028D01*
X149443251Y-69961442D01*
X149462477Y-69966220D01*
X149481015Y-69972364D01*
X149498863Y-69979873D01*
X149516023Y-69988747D01*
X149532493Y-69998987D01*
X149548274Y-70010592D01*
X149563366Y-70023562D01*
X149573045Y-70032967D01*
X149586663Y-70048282D01*
X149598942Y-70065240D01*
X149609882Y-70083840D01*
X149616430Y-70097152D01*
X149622384Y-70111194D01*
X149627742Y-70125966D01*
X149632505Y-70141468D01*
X149636672Y-70157699D01*
X149640244Y-70174661D01*
X149643221Y-70192352D01*
X149645602Y-70210774D01*
X149647388Y-70229925D01*
X149648579Y-70249806D01*
X149649174Y-70270417D01*
X149649249Y-70280996D01*
X149649249Y-70922500D01*
X149834995Y-70922500D01*
X149834995Y-70204792D01*
X149835173Y-70189465D01*
X149835705Y-70174624D01*
X149837169Y-70153275D01*
X149839432Y-70133022D01*
X149842493Y-70113863D01*
X149846352Y-70095799D01*
X149851011Y-70078829D01*
X149856468Y-70062955D01*
X149862723Y-70048175D01*
X149869777Y-70034490D01*
X149877629Y-70021900D01*
X149880424Y-70017946D01*
X149892595Y-70003263D01*
X149906574Y-69990537D01*
X149922362Y-69979770D01*
X149935390Y-69972979D01*
X149949435Y-69967289D01*
X149964499Y-69962701D01*
X149980579Y-69959213D01*
X149997677Y-69956827D01*
X150015793Y-69955543D01*
X150028436Y-69955298D01*
X150047853Y-69955950D01*
X150066904Y-69957908D01*
X150085588Y-69961171D01*
X150103907Y-69965739D01*
X150121858Y-69971612D01*
X150139444Y-69978791D01*
X150156663Y-69987275D01*
X150173516Y-69997063D01*
X150189527Y-70008020D01*
X150204405Y-70020190D01*
X150218149Y-70033574D01*
X150230760Y-70048171D01*
X150242238Y-70063982D01*
X150250102Y-70076637D01*
X150257329Y-70089974D01*
X150263918Y-70103994D01*
X150269870Y-70118696D01*
X150275173Y-70134296D01*
X150279955Y-70151145D01*
X150284215Y-70169244D01*
X150287953Y-70188592D01*
X150291170Y-70209189D01*
X150293865Y-70231036D01*
X150295372Y-70246294D01*
X150296647Y-70262108D01*
X150297690Y-70278477D01*
X150298502Y-70295401D01*
X150299081Y-70312881D01*
X150299429Y-70330916D01*
X150299545Y-70349506D01*
X150299545Y-70922500D01*
X150484925Y-70922500D01*
G37*
G36*
X148735536Y-69609450D02*
G01*
X148735536Y-69398424D01*
X148550156Y-69398424D01*
X148550156Y-69609450D01*
X148735536Y-69609450D01*
G37*
G36*
X148735536Y-70922500D02*
G01*
X148735536Y-69820476D01*
X148550156Y-69820476D01*
X148550156Y-70922500D01*
X148735536Y-70922500D01*
G37*
G36*
X147865787Y-70752506D02*
G01*
X147839043Y-70922500D01*
X147853595Y-70926690D01*
X147867851Y-70930468D01*
X147886398Y-70934864D01*
X147904419Y-70938528D01*
X147921913Y-70941459D01*
X147938880Y-70943657D01*
X147955320Y-70945122D01*
X147971234Y-70945855D01*
X147978994Y-70945947D01*
X147997554Y-70945663D01*
X148015315Y-70944813D01*
X148032278Y-70943397D01*
X148048443Y-70941413D01*
X148063809Y-70938863D01*
X148078376Y-70935746D01*
X148096557Y-70930708D01*
X148113318Y-70924663D01*
X148128659Y-70917611D01*
X148135798Y-70913707D01*
X148149204Y-70905240D01*
X148161581Y-70896144D01*
X148172926Y-70886418D01*
X148185660Y-70873376D01*
X148196783Y-70859349D01*
X148206296Y-70844338D01*
X148214200Y-70828344D01*
X148219438Y-70813329D01*
X148223977Y-70794661D01*
X148226923Y-70778264D01*
X148229477Y-70759812D01*
X148231637Y-70739306D01*
X148232860Y-70724494D01*
X148233907Y-70708769D01*
X148234780Y-70692131D01*
X148235478Y-70674580D01*
X148236002Y-70656116D01*
X148236351Y-70636739D01*
X148236526Y-70616448D01*
X148236548Y-70605961D01*
X148236548Y-69967021D01*
X148372835Y-69967021D01*
X148372835Y-69820476D01*
X148236548Y-69820476D01*
X148236548Y-69554495D01*
X148052267Y-69445319D01*
X148052267Y-69820476D01*
X147865787Y-69820476D01*
X147865787Y-69967021D01*
X148052267Y-69967021D01*
X148052267Y-70620982D01*
X148052183Y-70635720D01*
X148051811Y-70653777D01*
X148051141Y-70670015D01*
X148049885Y-70687752D01*
X148048164Y-70702644D01*
X148044974Y-70718715D01*
X148042741Y-70725396D01*
X148035378Y-70738927D01*
X148025654Y-70750669D01*
X148013568Y-70760622D01*
X148010867Y-70762398D01*
X147996790Y-70768951D01*
X147981746Y-70772975D01*
X147966629Y-70775107D01*
X147949689Y-70775941D01*
X147947120Y-70775954D01*
X147930496Y-70774488D01*
X147913922Y-70770802D01*
X147898208Y-70765856D01*
X147884051Y-70760475D01*
X147868928Y-70753949D01*
X147865787Y-70752506D01*
G37*
G36*
X147687368Y-70922500D02*
G01*
X147687368Y-69398424D01*
X147501988Y-69398424D01*
X147501988Y-69946139D01*
X147485510Y-69928082D01*
X147468500Y-69911191D01*
X147450957Y-69895465D01*
X147432882Y-69880903D01*
X147414275Y-69867506D01*
X147395135Y-69855275D01*
X147375463Y-69844208D01*
X147355259Y-69834306D01*
X147334522Y-69825569D01*
X147313253Y-69817997D01*
X147291451Y-69811590D01*
X147269117Y-69806348D01*
X147246251Y-69802271D01*
X147222852Y-69799358D01*
X147198921Y-69797611D01*
X147174458Y-69797028D01*
X147159378Y-69797217D01*
X147144548Y-69797784D01*
X147122769Y-69799343D01*
X147101550Y-69801751D01*
X147080892Y-69805010D01*
X147060793Y-69809118D01*
X147041255Y-69814077D01*
X147022278Y-69819886D01*
X147003861Y-69826545D01*
X146986004Y-69834054D01*
X146968707Y-69842413D01*
X146963066Y-69845389D01*
X146946687Y-69854713D01*
X146931209Y-69864687D01*
X146916633Y-69875312D01*
X146902959Y-69886587D01*
X146890186Y-69898513D01*
X146878315Y-69911089D01*
X146867346Y-69924316D01*
X146857278Y-69938193D01*
X146848112Y-69952721D01*
X146839847Y-69967899D01*
X146834838Y-69978379D01*
X146827898Y-69994989D01*
X146821640Y-70012944D01*
X146816066Y-70032246D01*
X146811173Y-70052894D01*
X146808291Y-70067407D01*
X146805712Y-70082518D01*
X146803437Y-70098227D01*
X146801465Y-70114535D01*
X146799796Y-70131440D01*
X146798431Y-70148944D01*
X146797369Y-70167046D01*
X146796610Y-70185747D01*
X146796155Y-70205045D01*
X146796004Y-70224942D01*
X146796004Y-70922500D01*
X146981750Y-70922500D01*
X146981750Y-70223476D01*
X146981986Y-70206236D01*
X146982695Y-70189594D01*
X146983875Y-70173549D01*
X146985528Y-70158103D01*
X146987654Y-70143256D01*
X146991727Y-70122106D01*
X146996863Y-70102301D01*
X147003061Y-70083843D01*
X147010322Y-70066731D01*
X147018646Y-70050965D01*
X147028032Y-70036545D01*
X147038481Y-70023471D01*
X147042200Y-70019412D01*
X147053907Y-70007954D01*
X147066496Y-69997623D01*
X147079968Y-69988419D01*
X147094321Y-69980342D01*
X147109557Y-69973392D01*
X147125676Y-69967570D01*
X147142676Y-69962874D01*
X147160559Y-69959305D01*
X147179324Y-69956863D01*
X147198971Y-69955548D01*
X147212560Y-69955298D01*
X147227929Y-69955678D01*
X147243124Y-69956818D01*
X147258145Y-69958717D01*
X147272993Y-69961377D01*
X147287666Y-69964797D01*
X147302166Y-69968976D01*
X147316492Y-69973916D01*
X147330644Y-69979615D01*
X147344622Y-69986075D01*
X147358426Y-69993294D01*
X147367532Y-69998529D01*
X147380769Y-70006840D01*
X147393279Y-70015698D01*
X147405061Y-70025103D01*
X147416115Y-70035056D01*
X147426442Y-70045557D01*
X147439078Y-70060409D01*
X147450421Y-70076234D01*
X147458080Y-70088742D01*
X147465010Y-70101797D01*
X147471213Y-70115399D01*
X147476713Y-70129699D01*
X147481671Y-70144984D01*
X147486089Y-70161255D01*
X147489966Y-70178511D01*
X147493302Y-70196752D01*
X147496097Y-70215979D01*
X147498351Y-70236191D01*
X147500064Y-70257388D01*
X147500906Y-70272067D01*
X147501507Y-70287184D01*
X147501867Y-70302739D01*
X147501988Y-70318731D01*
X147501988Y-70922500D01*
X147687368Y-70922500D01*
G37*
G36*
X145012909Y-70746645D02*
G01*
X145012909Y-70922500D01*
X146011618Y-70922500D01*
X146011681Y-70905818D01*
X146010954Y-70889298D01*
X146009437Y-70872937D01*
X146007130Y-70856737D01*
X146004033Y-70840697D01*
X146000146Y-70824818D01*
X145995469Y-70809098D01*
X145990002Y-70793539D01*
X145982390Y-70774403D01*
X145973979Y-70755324D01*
X145964770Y-70736304D01*
X145954763Y-70717341D01*
X145943956Y-70698437D01*
X145936308Y-70685866D01*
X145928306Y-70673321D01*
X145919948Y-70660801D01*
X145911235Y-70648308D01*
X145902168Y-70635840D01*
X145892745Y-70623398D01*
X145882968Y-70610981D01*
X145872836Y-70598591D01*
X145867637Y-70592405D01*
X145856857Y-70579874D01*
X145845494Y-70567103D01*
X145833547Y-70554092D01*
X145821017Y-70540840D01*
X145807902Y-70527347D01*
X145794203Y-70513614D01*
X145779921Y-70499641D01*
X145765055Y-70485427D01*
X145749604Y-70470973D01*
X145733570Y-70456278D01*
X145716952Y-70441343D01*
X145699750Y-70426168D01*
X145681964Y-70410752D01*
X145663595Y-70395095D01*
X145644641Y-70379198D01*
X145625103Y-70363061D01*
X145609872Y-70350413D01*
X145594953Y-70337930D01*
X145580345Y-70325612D01*
X145566050Y-70313459D01*
X145552067Y-70301472D01*
X145538395Y-70289650D01*
X145525036Y-70277993D01*
X145511988Y-70266501D01*
X145499253Y-70255175D01*
X145486829Y-70244014D01*
X145474718Y-70233019D01*
X145462918Y-70222188D01*
X145451431Y-70211523D01*
X145440255Y-70201024D01*
X145429392Y-70190689D01*
X145408601Y-70170516D01*
X145389057Y-70151005D01*
X145370762Y-70132154D01*
X145353715Y-70113965D01*
X145337915Y-70096436D01*
X145323364Y-70079569D01*
X145310060Y-70063363D01*
X145298004Y-70047819D01*
X145292445Y-70040294D01*
X145281930Y-70025461D01*
X145272094Y-70010728D01*
X145262937Y-69996094D01*
X145254457Y-69981562D01*
X145246656Y-69967129D01*
X145239534Y-69952796D01*
X145233089Y-69938564D01*
X145227323Y-69924432D01*
X145222236Y-69910400D01*
X145215876Y-69889539D01*
X145211043Y-69868905D01*
X145207736Y-69848495D01*
X145205955Y-69828311D01*
X145205616Y-69814980D01*
X145206312Y-69794407D01*
X145208398Y-69774451D01*
X145211876Y-69755114D01*
X145216745Y-69736395D01*
X145223004Y-69718294D01*
X145230655Y-69700812D01*
X145239697Y-69683948D01*
X145250130Y-69667702D01*
X145261953Y-69652074D01*
X145275168Y-69637065D01*
X145284751Y-69627402D01*
X145299939Y-69613718D01*
X145315963Y-69601380D01*
X145332826Y-69590388D01*
X145350525Y-69580742D01*
X145369061Y-69572442D01*
X145388435Y-69565488D01*
X145408646Y-69559880D01*
X145429694Y-69555617D01*
X145451579Y-69552701D01*
X145466634Y-69551505D01*
X145482062Y-69550906D01*
X145489915Y-69550832D01*
X145506467Y-69551159D01*
X145522602Y-69552143D01*
X145538318Y-69553781D01*
X145553617Y-69556075D01*
X145568497Y-69559025D01*
X145582960Y-69562630D01*
X145597005Y-69566890D01*
X145617289Y-69574510D01*
X145636632Y-69583604D01*
X145655036Y-69594173D01*
X145672499Y-69606217D01*
X145689022Y-69619736D01*
X145704604Y-69634729D01*
X145718953Y-69651030D01*
X145731910Y-69668470D01*
X145743476Y-69687051D01*
X145750414Y-69700071D01*
X145756734Y-69713598D01*
X145762436Y-69727631D01*
X145767519Y-69742171D01*
X145771984Y-69757218D01*
X145775831Y-69772771D01*
X145779059Y-69788831D01*
X145781670Y-69805398D01*
X145783662Y-69822471D01*
X145785036Y-69840051D01*
X145785791Y-69858137D01*
X145785937Y-69867370D01*
X145976447Y-69847220D01*
X145973596Y-69820243D01*
X145969898Y-69794080D01*
X145965353Y-69768734D01*
X145959960Y-69744203D01*
X145953721Y-69720488D01*
X145946634Y-69697589D01*
X145938700Y-69675506D01*
X145929918Y-69654238D01*
X145920290Y-69633786D01*
X145909814Y-69614150D01*
X145898491Y-69595329D01*
X145886321Y-69577324D01*
X145873304Y-69560135D01*
X145859439Y-69543762D01*
X145844727Y-69528204D01*
X145829168Y-69513463D01*
X145812844Y-69499532D01*
X145795835Y-69486500D01*
X145778142Y-69474367D01*
X145759765Y-69463133D01*
X145740704Y-69452798D01*
X145720959Y-69443361D01*
X145700530Y-69434823D01*
X145679417Y-69427184D01*
X145657620Y-69420443D01*
X145635138Y-69414601D01*
X145611973Y-69409658D01*
X145588123Y-69405614D01*
X145563590Y-69402468D01*
X145538372Y-69400222D01*
X145512471Y-69398874D01*
X145485885Y-69398424D01*
X145459082Y-69398898D01*
X145432985Y-69400319D01*
X145407596Y-69402687D01*
X145382914Y-69406003D01*
X145358938Y-69410267D01*
X145335670Y-69415477D01*
X145313108Y-69421635D01*
X145291254Y-69428741D01*
X145270106Y-69436794D01*
X145249666Y-69445794D01*
X145229932Y-69455742D01*
X145210906Y-69466637D01*
X145192586Y-69478479D01*
X145174973Y-69491269D01*
X145158068Y-69505006D01*
X145141869Y-69519691D01*
X145126519Y-69535075D01*
X145112159Y-69550912D01*
X145098790Y-69567201D01*
X145086410Y-69583942D01*
X145075022Y-69601135D01*
X145064623Y-69618781D01*
X145055215Y-69636879D01*
X145046797Y-69655429D01*
X145039370Y-69674431D01*
X145032933Y-69693885D01*
X145027486Y-69713792D01*
X145023029Y-69734151D01*
X145019563Y-69754962D01*
X145017088Y-69776226D01*
X145015602Y-69797942D01*
X145015107Y-69820109D01*
X145015432Y-69837188D01*
X145016408Y-69854216D01*
X145018034Y-69871191D01*
X145020310Y-69888116D01*
X145023237Y-69904989D01*
X145026815Y-69921810D01*
X145031043Y-69938580D01*
X145035921Y-69955298D01*
X145041450Y-69971965D01*
X145047629Y-69988580D01*
X145052110Y-69999628D01*
X145059479Y-70016198D01*
X145067712Y-70032936D01*
X145076807Y-70049841D01*
X145086765Y-70066913D01*
X145097587Y-70084153D01*
X145109271Y-70101560D01*
X145121818Y-70119135D01*
X145130663Y-70130944D01*
X145139890Y-70142828D01*
X145149502Y-70154787D01*
X145159497Y-70166820D01*
X145169875Y-70178927D01*
X145175208Y-70185008D01*
X145186415Y-70197473D01*
X145198512Y-70210505D01*
X145211500Y-70224103D01*
X145225377Y-70238268D01*
X145240145Y-70253000D01*
X145255802Y-70268299D01*
X145272350Y-70284164D01*
X145289788Y-70300596D01*
X145308117Y-70317595D01*
X145327335Y-70335160D01*
X145347444Y-70353292D01*
X145368442Y-70371991D01*
X145390331Y-70391257D01*
X145401609Y-70401102D01*
X145413110Y-70411089D01*
X145424833Y-70421218D01*
X145436779Y-70431488D01*
X145448948Y-70441900D01*
X145461339Y-70452454D01*
X145481710Y-70469821D01*
X145501152Y-70486474D01*
X145519663Y-70502416D01*
X145537245Y-70517644D01*
X145553896Y-70532160D01*
X145569616Y-70545963D01*
X145584407Y-70559053D01*
X145598267Y-70571431D01*
X145611197Y-70583096D01*
X145623197Y-70594048D01*
X145634267Y-70604288D01*
X145649127Y-70618311D01*
X145661894Y-70630730D01*
X145672569Y-70641546D01*
X145675662Y-70644795D01*
X145687219Y-70657446D01*
X145698262Y-70670120D01*
X145708789Y-70682817D01*
X145718801Y-70695537D01*
X145728298Y-70708279D01*
X145737280Y-70721045D01*
X145745746Y-70733833D01*
X145753697Y-70746645D01*
X145012909Y-70746645D01*
G37*
G36*
X144347830Y-69398772D02*
G01*
X144367781Y-69399815D01*
X144387294Y-69401554D01*
X144406370Y-69403988D01*
X144425007Y-69407118D01*
X144443206Y-69410943D01*
X144460968Y-69415464D01*
X144478292Y-69420681D01*
X144495177Y-69426593D01*
X144511625Y-69433200D01*
X144527635Y-69440503D01*
X144543207Y-69448502D01*
X144558341Y-69457196D01*
X144573037Y-69466585D01*
X144587295Y-69476670D01*
X144601115Y-69487451D01*
X144614463Y-69498828D01*
X144627396Y-69510795D01*
X144639914Y-69523351D01*
X144652017Y-69536498D01*
X144663705Y-69550233D01*
X144674978Y-69564559D01*
X144685836Y-69579474D01*
X144696278Y-69594979D01*
X144706306Y-69611073D01*
X144715919Y-69627757D01*
X144725117Y-69645030D01*
X144733899Y-69662893D01*
X144742267Y-69681346D01*
X144750220Y-69700388D01*
X144757757Y-69720020D01*
X144764880Y-69740242D01*
X144768261Y-69750580D01*
X144774701Y-69771869D01*
X144780712Y-69793977D01*
X144786293Y-69816903D01*
X144791445Y-69840648D01*
X144796168Y-69865212D01*
X144800461Y-69890594D01*
X144804325Y-69916795D01*
X144807760Y-69943814D01*
X144810765Y-69971652D01*
X144813341Y-70000308D01*
X144814468Y-70014944D01*
X144815488Y-70029784D01*
X144816400Y-70044828D01*
X144817205Y-70060077D01*
X144817903Y-70075531D01*
X144818493Y-70091190D01*
X144818976Y-70107053D01*
X144819352Y-70123121D01*
X144819620Y-70139393D01*
X144819781Y-70155870D01*
X144819835Y-70172552D01*
X144819689Y-70199018D01*
X144819251Y-70225019D01*
X144818521Y-70250555D01*
X144817499Y-70275626D01*
X144816185Y-70300232D01*
X144814580Y-70324373D01*
X144812682Y-70348048D01*
X144810492Y-70371259D01*
X144808011Y-70394004D01*
X144805237Y-70416284D01*
X144802172Y-70438099D01*
X144798815Y-70459449D01*
X144795165Y-70480334D01*
X144791224Y-70500754D01*
X144786991Y-70520709D01*
X144782466Y-70540198D01*
X144777648Y-70559223D01*
X144772539Y-70577782D01*
X144767138Y-70595876D01*
X144761445Y-70613506D01*
X144755460Y-70630670D01*
X144749184Y-70647369D01*
X144742615Y-70663602D01*
X144735754Y-70679371D01*
X144728601Y-70694675D01*
X144721157Y-70709513D01*
X144713420Y-70723886D01*
X144705392Y-70737795D01*
X144697071Y-70751238D01*
X144688459Y-70764216D01*
X144679554Y-70776729D01*
X144670358Y-70788777D01*
X144654421Y-70807809D01*
X144637752Y-70825613D01*
X144620349Y-70842190D01*
X144602214Y-70857539D01*
X144583347Y-70871659D01*
X144563746Y-70884552D01*
X144543413Y-70896217D01*
X144522347Y-70906654D01*
X144500548Y-70915863D01*
X144478017Y-70923845D01*
X144454753Y-70930598D01*
X144430756Y-70936124D01*
X144406026Y-70940421D01*
X144380564Y-70943491D01*
X144354369Y-70945333D01*
X144327441Y-70945947D01*
X144306919Y-70945598D01*
X144286843Y-70944550D01*
X144267214Y-70942804D01*
X144248032Y-70940360D01*
X144229296Y-70937217D01*
X144211006Y-70933376D01*
X144193163Y-70928836D01*
X144175766Y-70923599D01*
X144158816Y-70917662D01*
X144142313Y-70911028D01*
X144126256Y-70903695D01*
X144110645Y-70895663D01*
X144095481Y-70886934D01*
X144080763Y-70877505D01*
X144066492Y-70867379D01*
X144052668Y-70856554D01*
X144039278Y-70845089D01*
X144026313Y-70833044D01*
X144013770Y-70820417D01*
X144001652Y-70807209D01*
X143989957Y-70793420D01*
X143978685Y-70779051D01*
X143967837Y-70764100D01*
X143957413Y-70748568D01*
X143947413Y-70732455D01*
X143937836Y-70715761D01*
X143928682Y-70698486D01*
X143919952Y-70680630D01*
X143911646Y-70662193D01*
X143903764Y-70643175D01*
X143896305Y-70623576D01*
X143889269Y-70603396D01*
X143882659Y-70582479D01*
X143876475Y-70560761D01*
X143870718Y-70538241D01*
X143865387Y-70514919D01*
X143860483Y-70490796D01*
X143856005Y-70465872D01*
X143851953Y-70440147D01*
X143848328Y-70413620D01*
X143845130Y-70386291D01*
X143842358Y-70358161D01*
X143840012Y-70329230D01*
X143838999Y-70314464D01*
X143838093Y-70299497D01*
X143837293Y-70284330D01*
X143836600Y-70268963D01*
X143836014Y-70253395D01*
X143835534Y-70237627D01*
X143835161Y-70221659D01*
X143834894Y-70205490D01*
X143834734Y-70189121D01*
X143834681Y-70172552D01*
X143834683Y-70172185D01*
X144025191Y-70172185D01*
X144025276Y-70195252D01*
X144025531Y-70217834D01*
X144025957Y-70239929D01*
X144026553Y-70261538D01*
X144027319Y-70282662D01*
X144028256Y-70303300D01*
X144029363Y-70323451D01*
X144030640Y-70343117D01*
X144032088Y-70362297D01*
X144033706Y-70380992D01*
X144035494Y-70399200D01*
X144037452Y-70416923D01*
X144039581Y-70434159D01*
X144041880Y-70450910D01*
X144044350Y-70467175D01*
X144046989Y-70482954D01*
X144049799Y-70498247D01*
X144052780Y-70513055D01*
X144059251Y-70541212D01*
X144066404Y-70567425D01*
X144074238Y-70591695D01*
X144082753Y-70614022D01*
X144091949Y-70634406D01*
X144101827Y-70652845D01*
X144112385Y-70669342D01*
X144123443Y-70684381D01*
X144134819Y-70698451D01*
X144146513Y-70711550D01*
X144158524Y-70723678D01*
X144170853Y-70734837D01*
X144183500Y-70745025D01*
X144196464Y-70754242D01*
X144209747Y-70762490D01*
X144223346Y-70769767D01*
X144237264Y-70776074D01*
X144251499Y-70781411D01*
X144266052Y-70785777D01*
X144280923Y-70789173D01*
X144296111Y-70791599D01*
X144311617Y-70793054D01*
X144327441Y-70793539D01*
X144343221Y-70793056D01*
X144358685Y-70791604D01*
X144373835Y-70789186D01*
X144388670Y-70785800D01*
X144403190Y-70781446D01*
X144417395Y-70776126D01*
X144431285Y-70769837D01*
X144444861Y-70762581D01*
X144458122Y-70754358D01*
X144471067Y-70745168D01*
X144483698Y-70735010D01*
X144496014Y-70723884D01*
X144508016Y-70711791D01*
X144519702Y-70698731D01*
X144531074Y-70684703D01*
X144542131Y-70669708D01*
X144547495Y-70661725D01*
X144557713Y-70644294D01*
X144567250Y-70624911D01*
X144576106Y-70603576D01*
X144584280Y-70580289D01*
X144591774Y-70555050D01*
X144598586Y-70527859D01*
X144601736Y-70513531D01*
X144604717Y-70498716D01*
X144607527Y-70483412D01*
X144610166Y-70467620D01*
X144612636Y-70451341D01*
X144614935Y-70434573D01*
X144617064Y-70417318D01*
X144619022Y-70399574D01*
X144620810Y-70381342D01*
X144622428Y-70362623D01*
X144623876Y-70343415D01*
X144625153Y-70323719D01*
X144626260Y-70303536D01*
X144627196Y-70282864D01*
X144627963Y-70261704D01*
X144628559Y-70240057D01*
X144628985Y-70217921D01*
X144629240Y-70195297D01*
X144629325Y-70172185D01*
X144629232Y-70149059D01*
X144628950Y-70126391D01*
X144628482Y-70104182D01*
X144627825Y-70082432D01*
X144626982Y-70061140D01*
X144625951Y-70040307D01*
X144624732Y-70019933D01*
X144623326Y-70000017D01*
X144621733Y-69980560D01*
X144619951Y-69961562D01*
X144617983Y-69943022D01*
X144615827Y-69924941D01*
X144613484Y-69907319D01*
X144610953Y-69890155D01*
X144608234Y-69873450D01*
X144605328Y-69857204D01*
X144602235Y-69841416D01*
X144598954Y-69826087D01*
X144595486Y-69811217D01*
X144591830Y-69796805D01*
X144583956Y-69769358D01*
X144575332Y-69743745D01*
X144565959Y-69719967D01*
X144555835Y-69698024D01*
X144544961Y-69677916D01*
X144533338Y-69659642D01*
X144528525Y-69652947D01*
X144518596Y-69640196D01*
X144508263Y-69628295D01*
X144497527Y-69617244D01*
X144486387Y-69607043D01*
X144474844Y-69597692D01*
X144462897Y-69589192D01*
X144444220Y-69578034D01*
X144424635Y-69568790D01*
X144404141Y-69561458D01*
X144389975Y-69557632D01*
X144375405Y-69554657D01*
X144360431Y-69552532D01*
X144345054Y-69551257D01*
X144329273Y-69550832D01*
X144313227Y-69551314D01*
X144297514Y-69552761D01*
X144282132Y-69555172D01*
X144267083Y-69558548D01*
X144252365Y-69562889D01*
X144237980Y-69568194D01*
X144223926Y-69574464D01*
X144210205Y-69581698D01*
X144196815Y-69589897D01*
X144183758Y-69599060D01*
X144171032Y-69609188D01*
X144158639Y-69620281D01*
X144146577Y-69632338D01*
X144134848Y-69645359D01*
X144123451Y-69659346D01*
X144112385Y-69674296D01*
X144107021Y-69682236D01*
X144096803Y-69699590D01*
X144087266Y-69718910D01*
X144078410Y-69740196D01*
X144070236Y-69763449D01*
X144062742Y-69788668D01*
X144055930Y-69815853D01*
X144052780Y-69830183D01*
X144049799Y-69845005D01*
X144046989Y-69860318D01*
X144044350Y-69876123D01*
X144041880Y-69892419D01*
X144039581Y-69909207D01*
X144037452Y-69926487D01*
X144035494Y-69944258D01*
X144033706Y-69962521D01*
X144032088Y-69981275D01*
X144030640Y-70000521D01*
X144029363Y-70020258D01*
X144028256Y-70040488D01*
X144027319Y-70061208D01*
X144026553Y-70082421D01*
X144025957Y-70104124D01*
X144025531Y-70126320D01*
X144025276Y-70149007D01*
X144025191Y-70172185D01*
X143834683Y-70172185D01*
X143834814Y-70144750D01*
X143835214Y-70117672D01*
X143835879Y-70091318D01*
X143836811Y-70065688D01*
X143838008Y-70040782D01*
X143839473Y-70016601D01*
X143841203Y-69993144D01*
X143843199Y-69970410D01*
X143845462Y-69948401D01*
X143847990Y-69927116D01*
X143850785Y-69906556D01*
X143853847Y-69886719D01*
X143857174Y-69867607D01*
X143860767Y-69849218D01*
X143864627Y-69831554D01*
X143868753Y-69814614D01*
X143873112Y-69798149D01*
X143877672Y-69782002D01*
X143882432Y-69766172D01*
X143887392Y-69750660D01*
X143892552Y-69735466D01*
X143897913Y-69720590D01*
X143903475Y-69706031D01*
X143909236Y-69691790D01*
X143915198Y-69677867D01*
X143921361Y-69664261D01*
X143930980Y-69644449D01*
X143941050Y-69625351D01*
X143951571Y-69606968D01*
X143962542Y-69589300D01*
X143970133Y-69577884D01*
X143981991Y-69561399D01*
X143994416Y-69545680D01*
X144007408Y-69530727D01*
X144020966Y-69516541D01*
X144035091Y-69503121D01*
X144049783Y-69490467D01*
X144065041Y-69478580D01*
X144080867Y-69467459D01*
X144097258Y-69457105D01*
X144114217Y-69447517D01*
X144119971Y-69444497D01*
X144137584Y-69436011D01*
X144155726Y-69428388D01*
X144174395Y-69421628D01*
X144193593Y-69415731D01*
X144213319Y-69410697D01*
X144233572Y-69406526D01*
X144254354Y-69403218D01*
X144275664Y-69400773D01*
X144297502Y-69399191D01*
X144312354Y-69398616D01*
X144327441Y-69398424D01*
X144347830Y-69398772D01*
G37*
G36*
X142676970Y-70746645D02*
G01*
X142676970Y-70922500D01*
X143675679Y-70922500D01*
X143675742Y-70905818D01*
X143675015Y-70889298D01*
X143673498Y-70872937D01*
X143671191Y-70856737D01*
X143668094Y-70840697D01*
X143664207Y-70824818D01*
X143659530Y-70809098D01*
X143654064Y-70793539D01*
X143646452Y-70774403D01*
X143638041Y-70755324D01*
X143628832Y-70736304D01*
X143618824Y-70717341D01*
X143608018Y-70698437D01*
X143600370Y-70685866D01*
X143592367Y-70673321D01*
X143584009Y-70660801D01*
X143575297Y-70648308D01*
X143566229Y-70635840D01*
X143556807Y-70623398D01*
X143547029Y-70610981D01*
X143536897Y-70598591D01*
X143531698Y-70592405D01*
X143520919Y-70579874D01*
X143509556Y-70567103D01*
X143497609Y-70554092D01*
X143485078Y-70540840D01*
X143471963Y-70527347D01*
X143458265Y-70513614D01*
X143443982Y-70499641D01*
X143429116Y-70485427D01*
X143413666Y-70470973D01*
X143397631Y-70456278D01*
X143381013Y-70441343D01*
X143363811Y-70426168D01*
X143346026Y-70410752D01*
X143327656Y-70395095D01*
X143308702Y-70379198D01*
X143289165Y-70363061D01*
X143273933Y-70350413D01*
X143259014Y-70337930D01*
X143244407Y-70325612D01*
X143230111Y-70313459D01*
X143216128Y-70301472D01*
X143202457Y-70289650D01*
X143189097Y-70277993D01*
X143176050Y-70266501D01*
X143163314Y-70255175D01*
X143150891Y-70244014D01*
X143138779Y-70233019D01*
X143126980Y-70222188D01*
X143115492Y-70211523D01*
X143104317Y-70201024D01*
X143093453Y-70190689D01*
X143072662Y-70170516D01*
X143053119Y-70151005D01*
X143034824Y-70132154D01*
X143017776Y-70113965D01*
X143001977Y-70096436D01*
X142987425Y-70079569D01*
X142974122Y-70063363D01*
X142962066Y-70047819D01*
X142956506Y-70040294D01*
X142945992Y-70025461D01*
X142936156Y-70010728D01*
X142926998Y-69996094D01*
X142918519Y-69981562D01*
X142910718Y-69967129D01*
X142903595Y-69952796D01*
X142897151Y-69938564D01*
X142891385Y-69924432D01*
X142886297Y-69910400D01*
X142879938Y-69889539D01*
X142875104Y-69868905D01*
X142871798Y-69848495D01*
X142870017Y-69828311D01*
X142869678Y-69814980D01*
X142870373Y-69794407D01*
X142872460Y-69774451D01*
X142875937Y-69755114D01*
X142880806Y-69736395D01*
X142887066Y-69718294D01*
X142894716Y-69700812D01*
X142903758Y-69683948D01*
X142914191Y-69667702D01*
X142926015Y-69652074D01*
X142939230Y-69637065D01*
X142948812Y-69627402D01*
X142964000Y-69613718D01*
X142980025Y-69601380D01*
X142996887Y-69590388D01*
X143014586Y-69580742D01*
X143033123Y-69572442D01*
X143052496Y-69565488D01*
X143072707Y-69559880D01*
X143093755Y-69555617D01*
X143115640Y-69552701D01*
X143130696Y-69551505D01*
X143146123Y-69550906D01*
X143153976Y-69550832D01*
X143170529Y-69551159D01*
X143186663Y-69552143D01*
X143202379Y-69553781D01*
X143217678Y-69556075D01*
X143232559Y-69559025D01*
X143247021Y-69562630D01*
X143261066Y-69566890D01*
X143281350Y-69574510D01*
X143300694Y-69583604D01*
X143319097Y-69594173D01*
X143336560Y-69606217D01*
X143353083Y-69619736D01*
X143368666Y-69634729D01*
X143383014Y-69651030D01*
X143395971Y-69668470D01*
X143407538Y-69687051D01*
X143414476Y-69700071D01*
X143420795Y-69713598D01*
X143426497Y-69727631D01*
X143431580Y-69742171D01*
X143436045Y-69757218D01*
X143439892Y-69772771D01*
X143443121Y-69788831D01*
X143445731Y-69805398D01*
X143447723Y-69822471D01*
X143449097Y-69840051D01*
X143449853Y-69858137D01*
X143449999Y-69867370D01*
X143640508Y-69847220D01*
X143637657Y-69820243D01*
X143633959Y-69794080D01*
X143629414Y-69768734D01*
X143624022Y-69744203D01*
X143617782Y-69720488D01*
X143610695Y-69697589D01*
X143602761Y-69675506D01*
X143593980Y-69654238D01*
X143584351Y-69633786D01*
X143573876Y-69614150D01*
X143562553Y-69595329D01*
X143550382Y-69577324D01*
X143537365Y-69560135D01*
X143523501Y-69543762D01*
X143508789Y-69528204D01*
X143493230Y-69513463D01*
X143476905Y-69499532D01*
X143459896Y-69486500D01*
X143442203Y-69474367D01*
X143423827Y-69463133D01*
X143404766Y-69452798D01*
X143385021Y-69443361D01*
X143364591Y-69434823D01*
X143343478Y-69427184D01*
X143321681Y-69420443D01*
X143299200Y-69414601D01*
X143276034Y-69409658D01*
X143252185Y-69405614D01*
X143227651Y-69402468D01*
X143202434Y-69400222D01*
X143176532Y-69398874D01*
X143149946Y-69398424D01*
X143123143Y-69398898D01*
X143097047Y-69400319D01*
X143071657Y-69402687D01*
X143046975Y-69406003D01*
X143023000Y-69410267D01*
X142999731Y-69415477D01*
X142977170Y-69421635D01*
X142955315Y-69428741D01*
X142934168Y-69436794D01*
X142913727Y-69445794D01*
X142893994Y-69455742D01*
X142874967Y-69466637D01*
X142856647Y-69478479D01*
X142839035Y-69491269D01*
X142822129Y-69505006D01*
X142805930Y-69519691D01*
X142790580Y-69535075D01*
X142776220Y-69550912D01*
X142762851Y-69567201D01*
X142750472Y-69583942D01*
X142739083Y-69601135D01*
X142728685Y-69618781D01*
X142719277Y-69636879D01*
X142710859Y-69655429D01*
X142703431Y-69674431D01*
X142696994Y-69693885D01*
X142691547Y-69713792D01*
X142687091Y-69734151D01*
X142683625Y-69754962D01*
X142681149Y-69776226D01*
X142679663Y-69797942D01*
X142679168Y-69820109D01*
X142679493Y-69837188D01*
X142680469Y-69854216D01*
X142682095Y-69871191D01*
X142684372Y-69888116D01*
X142687299Y-69904989D01*
X142690876Y-69921810D01*
X142695104Y-69938580D01*
X142699982Y-69955298D01*
X142705511Y-69971965D01*
X142711690Y-69988580D01*
X142716171Y-69999628D01*
X142723541Y-70016198D01*
X142731773Y-70032936D01*
X142740868Y-70049841D01*
X142750827Y-70066913D01*
X142761648Y-70084153D01*
X142773332Y-70101560D01*
X142785880Y-70119135D01*
X142794724Y-70130944D01*
X142803952Y-70142828D01*
X142813563Y-70154787D01*
X142823558Y-70166820D01*
X142833936Y-70178927D01*
X142839269Y-70185008D01*
X142850476Y-70197473D01*
X142862574Y-70210505D01*
X142875561Y-70224103D01*
X142889438Y-70238268D01*
X142904206Y-70253000D01*
X142919864Y-70268299D01*
X142936412Y-70284164D01*
X142953850Y-70300596D01*
X142972178Y-70317595D01*
X142991396Y-70335160D01*
X143011505Y-70353292D01*
X143032504Y-70371991D01*
X143054393Y-70391257D01*
X143065671Y-70401102D01*
X143077172Y-70411089D01*
X143088895Y-70421218D01*
X143100841Y-70431488D01*
X143113009Y-70441900D01*
X143125400Y-70452454D01*
X143145772Y-70469821D01*
X143165213Y-70486474D01*
X143183725Y-70502416D01*
X143201306Y-70517644D01*
X143217957Y-70532160D01*
X143233678Y-70545963D01*
X143248468Y-70559053D01*
X143262329Y-70571431D01*
X143275259Y-70583096D01*
X143287259Y-70594048D01*
X143298328Y-70604288D01*
X143313188Y-70618311D01*
X143325956Y-70630730D01*
X143336630Y-70641546D01*
X143339723Y-70644795D01*
X143351281Y-70657446D01*
X143362323Y-70670120D01*
X143372850Y-70682817D01*
X143382862Y-70695537D01*
X143392359Y-70708279D01*
X143401341Y-70721045D01*
X143409807Y-70733833D01*
X143417759Y-70746645D01*
X142676970Y-70746645D01*
G37*
G36*
X142482797Y-70525361D02*
G01*
X142297417Y-70500448D01*
X142293258Y-70519572D01*
X142288750Y-70538017D01*
X142283893Y-70555785D01*
X142278686Y-70572873D01*
X142273131Y-70589284D01*
X142267226Y-70605016D01*
X142260972Y-70620070D01*
X142254369Y-70634446D01*
X142247417Y-70648143D01*
X142240115Y-70661162D01*
X142228508Y-70679418D01*
X142216115Y-70696148D01*
X142202937Y-70711352D01*
X142188973Y-70725029D01*
X142174254Y-70737273D01*
X142158950Y-70748312D01*
X142143059Y-70758147D01*
X142126582Y-70766778D01*
X142109519Y-70774204D01*
X142091871Y-70780426D01*
X142073636Y-70785444D01*
X142054815Y-70789257D01*
X142035408Y-70791867D01*
X142015415Y-70793272D01*
X142001761Y-70793539D01*
X141985526Y-70793184D01*
X141969612Y-70792120D01*
X141954019Y-70790345D01*
X141938746Y-70787861D01*
X141923794Y-70784666D01*
X141909162Y-70780762D01*
X141894851Y-70776148D01*
X141880861Y-70770825D01*
X141867191Y-70764791D01*
X141853841Y-70758048D01*
X141840812Y-70750595D01*
X141828104Y-70742431D01*
X141815716Y-70733559D01*
X141803649Y-70723976D01*
X141791903Y-70713683D01*
X141780477Y-70702681D01*
X141769563Y-70691155D01*
X141759354Y-70679291D01*
X141749848Y-70667089D01*
X141741047Y-70654550D01*
X141732950Y-70641673D01*
X141725556Y-70628458D01*
X141718867Y-70614905D01*
X141712882Y-70601015D01*
X141707602Y-70586787D01*
X141703025Y-70572221D01*
X141699152Y-70557317D01*
X141695984Y-70542076D01*
X141693520Y-70526497D01*
X141691759Y-70510580D01*
X141690703Y-70494326D01*
X141690351Y-70477733D01*
X141690677Y-70461927D01*
X141691656Y-70446472D01*
X141693288Y-70431370D01*
X141695572Y-70416619D01*
X141698508Y-70402221D01*
X141704137Y-70381283D01*
X141711234Y-70361138D01*
X141719799Y-70341785D01*
X141729833Y-70323223D01*
X141741334Y-70305454D01*
X141754305Y-70288478D01*
X141768743Y-70272293D01*
X141773882Y-70267074D01*
X141789940Y-70252211D01*
X141806791Y-70238811D01*
X141824433Y-70226872D01*
X141842867Y-70216395D01*
X141862094Y-70207380D01*
X141882113Y-70199827D01*
X141902924Y-70193736D01*
X141917238Y-70190488D01*
X141931904Y-70187889D01*
X141946922Y-70185940D01*
X141962292Y-70184640D01*
X141978014Y-70183990D01*
X141986007Y-70183909D01*
X142003120Y-70184410D01*
X142021484Y-70185913D01*
X142037078Y-70187836D01*
X142053472Y-70190401D01*
X142070669Y-70193606D01*
X142088666Y-70197453D01*
X142107465Y-70201941D01*
X142117165Y-70204426D01*
X142096283Y-70029670D01*
X142081587Y-70030922D01*
X142066607Y-70031502D01*
X142051864Y-70031264D01*
X142030103Y-70030017D01*
X142008767Y-70027701D01*
X141987857Y-70024315D01*
X141967371Y-70019861D01*
X141947311Y-70014338D01*
X141927675Y-70007745D01*
X141908464Y-70000084D01*
X141889679Y-69991353D01*
X141871319Y-69981554D01*
X141853383Y-69970685D01*
X141836426Y-69958702D01*
X141821136Y-69945561D01*
X141807514Y-69931259D01*
X141795561Y-69915799D01*
X141785275Y-69899180D01*
X141776657Y-69881401D01*
X141769707Y-69862463D01*
X141764425Y-69842366D01*
X141760811Y-69821110D01*
X141759329Y-69806295D01*
X141758588Y-69790965D01*
X141758495Y-69783107D01*
X141759103Y-69764587D01*
X141760929Y-69746673D01*
X141763972Y-69729365D01*
X141768232Y-69712662D01*
X141773709Y-69696564D01*
X141780404Y-69681071D01*
X141788315Y-69666184D01*
X141797444Y-69651902D01*
X141807790Y-69638226D01*
X141819353Y-69625155D01*
X141827738Y-69616777D01*
X141841006Y-69604992D01*
X141854983Y-69594366D01*
X141869669Y-69584899D01*
X141885062Y-69576592D01*
X141901164Y-69569443D01*
X141917975Y-69563454D01*
X141935494Y-69558624D01*
X141953721Y-69554953D01*
X141972657Y-69552442D01*
X141992301Y-69551089D01*
X142005791Y-69550832D01*
X142025740Y-69551424D01*
X142045058Y-69553202D01*
X142063744Y-69556164D01*
X142081800Y-69560311D01*
X142099224Y-69565644D01*
X142116018Y-69572161D01*
X142132180Y-69579863D01*
X142147711Y-69588750D01*
X142162611Y-69598823D01*
X142176880Y-69610080D01*
X142186042Y-69618243D01*
X142199121Y-69631475D01*
X142211291Y-69645892D01*
X142222554Y-69661494D01*
X142232908Y-69678281D01*
X142242354Y-69696253D01*
X142250893Y-69715409D01*
X142258523Y-69735751D01*
X142263105Y-69749971D01*
X142267284Y-69764717D01*
X142271060Y-69779990D01*
X142274431Y-69795789D01*
X142277399Y-69812115D01*
X142278732Y-69820476D01*
X142464112Y-69787503D01*
X142459560Y-69764657D01*
X142454329Y-69742463D01*
X142448420Y-69720922D01*
X142441833Y-69700034D01*
X142434567Y-69679798D01*
X142426623Y-69660214D01*
X142418001Y-69641284D01*
X142408700Y-69623005D01*
X142398721Y-69605380D01*
X142388063Y-69588407D01*
X142376727Y-69572087D01*
X142364713Y-69556419D01*
X142352021Y-69541404D01*
X142338650Y-69527041D01*
X142324601Y-69513331D01*
X142309873Y-69500273D01*
X142294576Y-69487940D01*
X142278818Y-69476402D01*
X142262599Y-69465661D01*
X142245920Y-69455714D01*
X142228779Y-69446564D01*
X142211178Y-69438209D01*
X142193116Y-69430650D01*
X142174593Y-69423886D01*
X142155609Y-69417919D01*
X142136165Y-69412747D01*
X142116260Y-69408370D01*
X142095893Y-69404790D01*
X142075066Y-69402005D01*
X142053779Y-69400016D01*
X142032030Y-69398822D01*
X142009821Y-69398424D01*
X141994463Y-69398630D01*
X141979258Y-69399248D01*
X141964204Y-69400279D01*
X141949302Y-69401721D01*
X141934551Y-69403576D01*
X141919953Y-69405843D01*
X141905506Y-69408522D01*
X141884120Y-69413313D01*
X141863075Y-69419032D01*
X141842371Y-69425678D01*
X141822009Y-69433252D01*
X141801988Y-69441752D01*
X141782309Y-69451181D01*
X141763231Y-69461414D01*
X141745017Y-69472330D01*
X141727665Y-69483928D01*
X141711177Y-69496209D01*
X141695551Y-69509173D01*
X141680788Y-69522819D01*
X141666889Y-69537148D01*
X141653852Y-69552160D01*
X141641678Y-69567854D01*
X141630368Y-69584231D01*
X141623306Y-69595528D01*
X141613420Y-69612733D01*
X141604506Y-69630137D01*
X141596564Y-69647740D01*
X141589595Y-69665544D01*
X141583598Y-69683547D01*
X141578574Y-69701749D01*
X141574522Y-69720152D01*
X141571443Y-69738754D01*
X141569336Y-69757555D01*
X141568202Y-69776556D01*
X141567985Y-69789335D01*
X141568446Y-69807456D01*
X141569827Y-69825274D01*
X141572130Y-69842790D01*
X141575353Y-69860003D01*
X141579497Y-69876913D01*
X141584562Y-69893521D01*
X141590548Y-69909826D01*
X141597455Y-69925828D01*
X141605283Y-69941528D01*
X141614031Y-69956925D01*
X141620376Y-69967021D01*
X141630646Y-69981710D01*
X141641812Y-69995825D01*
X141653873Y-70009368D01*
X141666829Y-70022337D01*
X141680681Y-70034733D01*
X141695427Y-70046555D01*
X141711069Y-70057805D01*
X141727606Y-70068481D01*
X141745038Y-70078585D01*
X141763365Y-70088115D01*
X141776080Y-70094150D01*
X141759554Y-70098304D01*
X141743497Y-70102983D01*
X141727909Y-70108185D01*
X141712791Y-70113911D01*
X141698142Y-70120160D01*
X141683963Y-70126934D01*
X141670253Y-70134231D01*
X141657012Y-70142052D01*
X141644241Y-70150397D01*
X141631939Y-70159265D01*
X141620106Y-70168658D01*
X141608743Y-70178574D01*
X141597850Y-70189014D01*
X141587426Y-70199978D01*
X141577471Y-70211465D01*
X141567985Y-70223476D01*
X141558979Y-70235943D01*
X141550554Y-70248796D01*
X141542711Y-70262035D01*
X141535448Y-70275660D01*
X141528766Y-70289672D01*
X141522665Y-70304071D01*
X141517145Y-70318856D01*
X141512206Y-70334027D01*
X141507849Y-70349584D01*
X141504072Y-70365528D01*
X141500876Y-70381859D01*
X141498262Y-70398576D01*
X141496228Y-70415679D01*
X141494776Y-70433168D01*
X141493904Y-70451044D01*
X141493613Y-70469307D01*
X141494177Y-70493984D01*
X141495869Y-70518188D01*
X141498688Y-70541920D01*
X141502635Y-70565180D01*
X141507710Y-70587967D01*
X141513912Y-70610283D01*
X141521242Y-70632126D01*
X141529700Y-70653497D01*
X141539286Y-70674395D01*
X141549999Y-70694821D01*
X141561840Y-70714775D01*
X141574809Y-70734257D01*
X141588905Y-70753266D01*
X141604130Y-70771804D01*
X141620481Y-70789868D01*
X141637961Y-70807461D01*
X141656301Y-70824231D01*
X141675233Y-70839919D01*
X141694757Y-70854525D01*
X141714875Y-70868049D01*
X141735584Y-70880491D01*
X141756886Y-70891851D01*
X141778781Y-70902129D01*
X141801268Y-70911325D01*
X141824347Y-70919440D01*
X141848019Y-70926472D01*
X141872284Y-70932423D01*
X141897141Y-70937291D01*
X141922590Y-70941078D01*
X141948632Y-70943783D01*
X141975267Y-70945406D01*
X142002493Y-70945947D01*
X142027097Y-70945490D01*
X142051174Y-70944121D01*
X142074724Y-70941838D01*
X142097748Y-70938642D01*
X142120245Y-70934534D01*
X142142216Y-70929512D01*
X142163659Y-70923577D01*
X142184576Y-70916729D01*
X142204967Y-70908968D01*
X142224831Y-70900294D01*
X142244168Y-70890707D01*
X142262978Y-70880207D01*
X142281262Y-70868794D01*
X142299020Y-70856468D01*
X142316250Y-70843229D01*
X142332954Y-70829077D01*
X142348909Y-70814152D01*
X142363986Y-70798686D01*
X142378184Y-70782679D01*
X142391504Y-70766131D01*
X142403944Y-70749042D01*
X142415506Y-70731412D01*
X142426189Y-70713241D01*
X142435994Y-70694529D01*
X142444920Y-70675277D01*
X142452967Y-70655483D01*
X142460135Y-70635148D01*
X142466425Y-70614273D01*
X142471836Y-70592856D01*
X142476368Y-70570899D01*
X142480022Y-70548400D01*
X142482797Y-70525361D01*
G37*
D11*
%TO.C,U101*%
X137050001Y-86163702D02*
X137050001Y-102002061D01*
X139393146Y-80506848D02*
X144484129Y-75415865D01*
X148231152Y-74349994D02*
X162027503Y-74349994D01*
X151048965Y-110550000D02*
X151048965Y-110050000D01*
X151298965Y-109800000D02*
X158798965Y-109800000D01*
X158798965Y-110800000D02*
X151298965Y-110800000D01*
X159048965Y-110050000D02*
X159048965Y-110550000D01*
X163248966Y-92249999D02*
X163248967Y-89250000D01*
X164248967Y-88250000D02*
X165748965Y-88250002D01*
X165748964Y-93250001D02*
X164248966Y-93249999D01*
X166748965Y-89250002D02*
X166748964Y-92250001D01*
X169550000Y-78849993D02*
X165644059Y-75334646D01*
X173048965Y-98600000D02*
X173050000Y-100349994D01*
X173050000Y-88349994D02*
X173048965Y-90000000D01*
X173298965Y-90250003D02*
X174050000Y-90249997D01*
X174050000Y-90249997D02*
X174050000Y-91849994D01*
X174050000Y-95649994D02*
X174050000Y-98349994D01*
X174050000Y-98349994D02*
X173298965Y-98350000D01*
X139393147Y-80506848D02*
G75*
G03*
X137050001Y-86163702I5656710J-5656795D01*
G01*
X137050002Y-102002061D02*
G75*
G03*
X137437099Y-103718723I4000236J54D01*
G01*
X145570814Y-75374460D02*
G75*
G03*
X144484129Y-75415866I-520999J-607090D01*
G01*
X145570815Y-75374459D02*
G75*
G03*
X147749759Y-74714859I879168J1024525D01*
G01*
X148231152Y-74349994D02*
G75*
G03*
X147749760Y-74714859I2J-500002D01*
G01*
X151298965Y-109800000D02*
G75*
G03*
X151048965Y-110050000I-1J-249999D01*
G01*
X151048965Y-110550000D02*
G75*
G03*
X151298965Y-110800000I249999J-1D01*
G01*
X137437097Y-103718723D02*
G75*
G03*
X154150000Y-114829213I17612950J8368800D01*
G01*
X155949824Y-114828005D02*
G75*
G03*
X154150000Y-114829213I-899824J-131340D01*
G01*
X159049000Y-110050000D02*
G75*
G03*
X158798965Y-109800000I-250000J0D01*
G01*
X158798965Y-110800065D02*
G75*
G03*
X159048965Y-110550000I-65J250065D01*
G01*
X162322521Y-74595446D02*
G75*
G03*
X162027503Y-74349994I-294921J-54454D01*
G01*
X164248967Y-88249997D02*
G75*
G03*
X163248967Y-89250000I-17J-999983D01*
G01*
X163249001Y-92249999D02*
G75*
G03*
X164248966Y-93249999I999999J-1D01*
G01*
X165644071Y-75334633D02*
G75*
G03*
X164566045Y-75341639I-535171J-594667D01*
G01*
X162322505Y-74595449D02*
G75*
G03*
X164566046Y-75341640I1327505J245479D01*
G01*
X166748998Y-89250002D02*
G75*
G03*
X165748965Y-88250002I-999998J2D01*
G01*
X165748964Y-93250004D02*
G75*
G03*
X166748964Y-92250001I-24J1000024D01*
G01*
X173049997Y-88349994D02*
G75*
G03*
X169550000Y-78849994I-14642827J14D01*
G01*
X173298965Y-98350065D02*
G75*
G03*
X173048965Y-98600000I-65J-249935D01*
G01*
X155949824Y-114828004D02*
G75*
G03*
X173050000Y-100349993I-899813J18400412D01*
G01*
X173049000Y-90000000D02*
G75*
G03*
X173298965Y-90250000I250000J0D01*
G01*
%TD*%
%LPC*%
D12*
%TO.C,PP122*%
X146001035Y-92289603D03*
%TD*%
%TO.C,PP121*%
X146001035Y-89739603D03*
%TD*%
%TO.C,PP120*%
X165001035Y-103939603D03*
%TD*%
%TO.C,PP119*%
X140001035Y-82789603D03*
%TD*%
%TO.C,PP118*%
X154001035Y-112489603D03*
%TD*%
%TO.C,PP117*%
X168301035Y-79589603D03*
%TD*%
%TO.C,PP116*%
X167201035Y-107689603D03*
%TD*%
%TO.C,PP115*%
X165001035Y-106439603D03*
%TD*%
%TO.C,PP114*%
X165001035Y-108939603D03*
%TD*%
%TO.C,PP113*%
X167201035Y-105189603D03*
%TD*%
%TO.C,PP112*%
X162801035Y-107689603D03*
%TD*%
%TO.C,PP111*%
X162801035Y-105189603D03*
%TD*%
%TO.C,PP110*%
X162801035Y-102689603D03*
%TD*%
%TO.C,PP109*%
X151501035Y-112489603D03*
%TD*%
%TO.C,PP108*%
X146501035Y-110989603D03*
%TD*%
%TO.C,PP107*%
X149001035Y-111989603D03*
%TD*%
%TO.C,PP106*%
X167201035Y-102689603D03*
%TD*%
%TO.C,PP105*%
X165001035Y-101439603D03*
%TD*%
%TO.C,PP104*%
X163351035Y-111189603D03*
%TD*%
%TO.C,PP103*%
X159001035Y-112489603D03*
%TD*%
%TO.C,PP102*%
X156501035Y-112489603D03*
%TD*%
%TO.C,PP101*%
X160701035Y-110489603D03*
%TD*%
D13*
%TO.C,J103*%
X132780000Y-92110000D03*
X132780000Y-97890000D03*
D14*
X133270000Y-90675000D03*
X133270000Y-99325000D03*
D15*
X129100000Y-90675000D03*
X129100000Y-99325000D03*
%TD*%
D12*
%TO.C,SW102*%
X180200000Y-111250000D03*
X173700000Y-111250000D03*
X180200000Y-106750000D03*
X173700000Y-106750000D03*
%TD*%
D16*
%TO.C,H108*%
X180000000Y-120000000D03*
D17*
X180000000Y-120000000D03*
%TD*%
D18*
%TO.C,SW101*%
X132080000Y-77470000D03*
D19*
X132080000Y-80010000D03*
X132080000Y-82550000D03*
%TD*%
D12*
%TO.C,SW103*%
X136250000Y-111250000D03*
X129750000Y-111250000D03*
X136250000Y-106750000D03*
X129750000Y-106750000D03*
%TD*%
D16*
%TO.C,H106*%
X180000000Y-70000000D03*
D17*
X180000000Y-70000000D03*
%TD*%
D18*
%TO.C,J106*%
X171450000Y-78740000D03*
D19*
X173990000Y-78740000D03*
X171450000Y-81280000D03*
X173990000Y-81280000D03*
X171450000Y-83820000D03*
X173990000Y-83820000D03*
%TD*%
D16*
%TO.C,H107*%
X130000000Y-120000000D03*
D17*
X130000000Y-120000000D03*
%TD*%
D16*
%TO.C,H105*%
X130000000Y-70000000D03*
D17*
X130000000Y-70000000D03*
%TD*%
D18*
%TO.C,J104*%
X171445000Y-90180000D03*
D19*
X173985000Y-90180000D03*
X171445000Y-92720000D03*
X173985000Y-92720000D03*
X171445000Y-95260000D03*
X173985000Y-95260000D03*
X171445000Y-97800000D03*
X173985000Y-97800000D03*
%TD*%
M02*
