%TF.GenerationSoftware,KiCad,Pcbnew,7.0.1*%
%TF.CreationDate,2023-12-30T18:25:03+00:00*%
%TF.ProjectId,watch_test_rig,77617463-685f-4746-9573-745f7269672e,rev?*%
%TF.SameCoordinates,Original*%
%TF.FileFunction,Paste,Top*%
%TF.FilePolarity,Positive*%
%FSLAX46Y46*%
G04 Gerber Fmt 4.6, Leading zero omitted, Abs format (unit mm)*
G04 Created by KiCad (PCBNEW 7.0.1) date 2023-12-30 18:25:03*
%MOMM*%
%LPD*%
G01*
G04 APERTURE LIST*
G04 Aperture macros list*
%AMRoundRect*
0 Rectangle with rounded corners*
0 $1 Rounding radius*
0 $2 $3 $4 $5 $6 $7 $8 $9 X,Y pos of 4 corners*
0 Add a 4 corners polygon primitive as box body*
4,1,4,$2,$3,$4,$5,$6,$7,$8,$9,$2,$3,0*
0 Add four circle primitives for the rounded corners*
1,1,$1+$1,$2,$3*
1,1,$1+$1,$4,$5*
1,1,$1+$1,$6,$7*
1,1,$1+$1,$8,$9*
0 Add four rect primitives between the rounded corners*
20,1,$1+$1,$2,$3,$4,$5,0*
20,1,$1+$1,$4,$5,$6,$7,0*
20,1,$1+$1,$6,$7,$8,$9,0*
20,1,$1+$1,$8,$9,$2,$3,0*%
G04 Aperture macros list end*
%ADD10R,1.140000X0.600000*%
%ADD11R,1.140000X0.300000*%
%ADD12RoundRect,0.218750X-0.218750X-0.256250X0.218750X-0.256250X0.218750X0.256250X-0.218750X0.256250X0*%
%ADD13RoundRect,0.140000X-0.140000X-0.170000X0.140000X-0.170000X0.140000X0.170000X-0.140000X0.170000X0*%
%ADD14RoundRect,0.135000X0.135000X0.185000X-0.135000X0.185000X-0.135000X-0.185000X0.135000X-0.185000X0*%
%ADD15R,0.400000X0.250000*%
%ADD16R,0.400000X0.700000*%
%ADD17RoundRect,0.140000X0.140000X0.170000X-0.140000X0.170000X-0.140000X-0.170000X0.140000X-0.170000X0*%
%ADD18RoundRect,0.135000X-0.185000X0.135000X-0.185000X-0.135000X0.185000X-0.135000X0.185000X0.135000X0*%
%ADD19R,0.740000X2.400000*%
%ADD20RoundRect,0.135000X0.185000X-0.135000X0.185000X0.135000X-0.185000X0.135000X-0.185000X-0.135000X0*%
G04 APERTURE END LIST*
D10*
%TO.C,J103*%
X133850000Y-91800000D03*
X133850000Y-92600000D03*
D11*
X133850000Y-93750000D03*
X133850000Y-94750000D03*
X133850000Y-95250000D03*
X133850000Y-96250000D03*
D10*
X133850000Y-98200000D03*
X133850000Y-97400000D03*
D11*
X133850000Y-96750000D03*
X133850000Y-95750000D03*
X133850000Y-94250000D03*
X133850000Y-93250000D03*
%TD*%
D12*
%TO.C,D104*%
X154940000Y-81090000D03*
X156515000Y-81090000D03*
%TD*%
D13*
%TO.C,C101*%
X176720000Y-103000000D03*
X177680000Y-103000000D03*
%TD*%
D14*
%TO.C,R104*%
X152237500Y-77090000D03*
X151217500Y-77090000D03*
%TD*%
D12*
%TO.C,D102*%
X154940000Y-77090000D03*
X156515000Y-77090000D03*
%TD*%
D15*
%TO.C,Q102*%
X147877500Y-76865000D03*
X147877500Y-77315000D03*
D16*
X148577500Y-77090000D03*
%TD*%
D15*
%TO.C,Q104*%
X147877500Y-80865000D03*
X147877500Y-81315000D03*
D16*
X148577500Y-81090000D03*
%TD*%
D12*
%TO.C,D103*%
X154930000Y-89090000D03*
X156505000Y-89090000D03*
%TD*%
D17*
%TO.C,C102*%
X133480000Y-103000000D03*
X132520000Y-103000000D03*
%TD*%
D14*
%TO.C,R108*%
X152237500Y-85090000D03*
X151217500Y-85090000D03*
%TD*%
D18*
%TO.C,R102*%
X136762500Y-97190000D03*
X136762500Y-98210000D03*
%TD*%
D19*
%TO.C,J101*%
X160190000Y-118950000D03*
X160190000Y-115050000D03*
X161460000Y-118950000D03*
X161460000Y-115050000D03*
X162730000Y-118950000D03*
X162730000Y-115050000D03*
X164000000Y-118950000D03*
X164000000Y-115050000D03*
X165270000Y-118950000D03*
X165270000Y-115050000D03*
X166540000Y-118950000D03*
X166540000Y-115050000D03*
X167810000Y-118950000D03*
X167810000Y-115050000D03*
%TD*%
D14*
%TO.C,R107*%
X152237500Y-97090000D03*
X151217500Y-97090000D03*
%TD*%
D12*
%TO.C,D101*%
X154940000Y-93090000D03*
X156515000Y-93090000D03*
%TD*%
D19*
%TO.C,J102*%
X142460000Y-118950000D03*
X142460000Y-115050000D03*
X143730000Y-118950000D03*
X143730000Y-115050000D03*
X145000000Y-118950000D03*
X145000000Y-115050000D03*
X146270000Y-118950000D03*
X146270000Y-115050000D03*
X147540000Y-118950000D03*
X147540000Y-115050000D03*
%TD*%
D14*
%TO.C,R105*%
X152237500Y-89090000D03*
X151217500Y-89090000D03*
%TD*%
%TO.C,R106*%
X152237500Y-81090000D03*
X151217500Y-81090000D03*
%TD*%
D20*
%TO.C,R101*%
X136762500Y-92810000D03*
X136762500Y-91790000D03*
%TD*%
D15*
%TO.C,Q103*%
X147877500Y-88865000D03*
X147877500Y-89315000D03*
D16*
X148577500Y-89090000D03*
%TD*%
D12*
%TO.C,D105*%
X154940000Y-97090000D03*
X156515000Y-97090000D03*
%TD*%
%TO.C,D106*%
X154940000Y-85090000D03*
X156515000Y-85090000D03*
%TD*%
D14*
%TO.C,R103*%
X152237500Y-93090000D03*
X151217500Y-93090000D03*
%TD*%
D15*
%TO.C,Q105*%
X147877500Y-84865000D03*
X147877500Y-85315000D03*
D16*
X148577500Y-85090000D03*
%TD*%
D15*
%TO.C,Q101*%
X147877500Y-92865000D03*
X147877500Y-93315000D03*
D16*
X148577500Y-93090000D03*
%TD*%
M02*
