%TF.GenerationSoftware,KiCad,Pcbnew,7.0.1*%
%TF.CreationDate,2024-01-06T01:51:31+00:00*%
%TF.ProjectId,rfid_module,72666964-5f6d-46f6-9475-6c652e6b6963,rev?*%
%TF.SameCoordinates,Original*%
%TF.FileFunction,Drillmap*%
%TF.FilePolarity,Positive*%
%FSLAX45Y45*%
G04 Gerber Fmt 4.5, Leading zero omitted, Abs format (unit mm)*
G04 Created by KiCad (PCBNEW 7.0.1) date 2024-01-06 01:51:31*
%MOMM*%
%LPD*%
G01*
G04 APERTURE LIST*
%ADD10C,0.200000*%
%ADD11C,0.030000*%
G04 APERTURE END LIST*
D10*
D11*
X9475000Y-6735000D02*
X9505000Y-6765000D01*
X9505000Y-6735000D02*
X9475000Y-6765000D01*
X9535000Y-5735000D02*
X9565000Y-5765000D01*
X9565000Y-5735000D02*
X9535000Y-5765000D01*
X9535000Y-5885000D02*
X9565000Y-5915000D01*
X9565000Y-5885000D02*
X9535000Y-5915000D01*
X9535000Y-6035000D02*
X9565000Y-6065000D01*
X9565000Y-6035000D02*
X9535000Y-6065000D01*
X9535000Y-6185000D02*
X9565000Y-6215000D01*
X9565000Y-6185000D02*
X9535000Y-6215000D01*
X9535000Y-6335000D02*
X9565000Y-6365000D01*
X9565000Y-6335000D02*
X9535000Y-6365000D01*
X9535000Y-6485000D02*
X9565000Y-6515000D01*
X9565000Y-6485000D02*
X9535000Y-6515000D01*
X9685000Y-5735000D02*
X9715000Y-5765000D01*
X9715000Y-5735000D02*
X9685000Y-5765000D01*
X9685000Y-5885000D02*
X9715000Y-5915000D01*
X9715000Y-5885000D02*
X9685000Y-5915000D01*
X9685000Y-6035000D02*
X9715000Y-6065000D01*
X9715000Y-6035000D02*
X9685000Y-6065000D01*
X9685000Y-6185000D02*
X9715000Y-6215000D01*
X9715000Y-6185000D02*
X9685000Y-6215000D01*
X9685000Y-6335000D02*
X9715000Y-6365000D01*
X9715000Y-6335000D02*
X9685000Y-6365000D01*
X9685000Y-6485000D02*
X9715000Y-6515000D01*
X9715000Y-6485000D02*
X9685000Y-6515000D01*
X9735000Y-6835000D02*
X9765000Y-6865000D01*
X9765000Y-6835000D02*
X9735000Y-6865000D01*
X9765000Y-6145000D02*
X9795000Y-6175000D01*
X9795000Y-6145000D02*
X9765000Y-6175000D01*
X9815000Y-6105000D02*
X9845000Y-6135000D01*
X9845000Y-6105000D02*
X9815000Y-6135000D01*
X9825000Y-6255000D02*
X9855000Y-6285000D01*
X9855000Y-6255000D02*
X9825000Y-6285000D01*
X9825000Y-6355000D02*
X9855000Y-6385000D01*
X9855000Y-6355000D02*
X9825000Y-6385000D01*
X9825000Y-6560000D02*
X9855000Y-6590000D01*
X9855000Y-6560000D02*
X9825000Y-6590000D01*
X9945000Y-6255000D02*
X9975000Y-6285000D01*
X9975000Y-6255000D02*
X9945000Y-6285000D01*
X9945000Y-6455000D02*
X9975000Y-6485000D01*
X9975000Y-6455000D02*
X9945000Y-6485000D01*
X9945000Y-6555000D02*
X9975000Y-6585000D01*
X9975000Y-6555000D02*
X9945000Y-6585000D01*
X10061225Y-6248775D02*
X10091225Y-6278775D01*
X10091225Y-6248775D02*
X10061225Y-6278775D01*
X10065000Y-6555000D02*
X10095000Y-6585000D01*
X10095000Y-6555000D02*
X10065000Y-6585000D01*
X10074000Y-5764000D02*
X10104000Y-5794000D01*
X10104000Y-5764000D02*
X10074000Y-5794000D01*
X10125000Y-6106000D02*
X10155000Y-6136000D01*
X10155000Y-6106000D02*
X10125000Y-6136000D01*
X10147500Y-5937500D02*
X10177500Y-5967500D01*
X10177500Y-5937500D02*
X10147500Y-5967500D01*
X10245000Y-6605000D02*
X10275000Y-6635000D01*
X10275000Y-6605000D02*
X10245000Y-6635000D01*
X10285000Y-6140000D02*
X10315000Y-6170000D01*
X10315000Y-6140000D02*
X10285000Y-6170000D01*
X10295000Y-6655000D02*
X10325000Y-6685000D01*
X10325000Y-6655000D02*
X10295000Y-6685000D01*
X10305000Y-6355000D02*
X10335000Y-6385000D01*
X10335000Y-6355000D02*
X10305000Y-6385000D01*
X10345000Y-6605000D02*
X10375000Y-6635000D01*
X10375000Y-6605000D02*
X10345000Y-6635000D01*
X10405000Y-6105000D02*
X10435000Y-6135000D01*
X10435000Y-6105000D02*
X10405000Y-6135000D01*
X10425000Y-6555000D02*
X10455000Y-6585000D01*
X10455000Y-6555000D02*
X10425000Y-6585000D01*
X10445000Y-5600000D02*
X10475000Y-5630000D01*
X10475000Y-5600000D02*
X10445000Y-5630000D01*
X10520000Y-6165000D02*
X10550000Y-6195000D01*
X10550000Y-6165000D02*
X10520000Y-6195000D01*
X10535000Y-5905000D02*
X10565000Y-5935000D01*
X10565000Y-5905000D02*
X10535000Y-5935000D01*
X10545000Y-6555000D02*
X10575000Y-6585000D01*
X10575000Y-6555000D02*
X10545000Y-6585000D01*
X10555000Y-6335000D02*
X10585000Y-6365000D01*
X10585000Y-6335000D02*
X10555000Y-6365000D01*
X10555000Y-6405000D02*
X10585000Y-6435000D01*
X10585000Y-6405000D02*
X10555000Y-6435000D01*
X10555000Y-6695000D02*
X10585000Y-6725000D01*
X10585000Y-6695000D02*
X10555000Y-6725000D01*
X10585000Y-6165000D02*
X10615000Y-6195000D01*
X10615000Y-6165000D02*
X10585000Y-6195000D01*
X10595000Y-5685000D02*
X10625000Y-5715000D01*
X10625000Y-5685000D02*
X10595000Y-5715000D01*
X10615000Y-6715000D02*
X10645000Y-6745000D01*
X10645000Y-6715000D02*
X10615000Y-6745000D01*
X10665000Y-6435000D02*
X10695000Y-6465000D01*
X10695000Y-6435000D02*
X10665000Y-6465000D01*
X10785000Y-6690000D02*
X10815000Y-6720000D01*
X10815000Y-6690000D02*
X10785000Y-6720000D01*
X10815000Y-6465000D02*
X10845000Y-6495000D01*
X10845000Y-6465000D02*
X10815000Y-6495000D01*
X11015000Y-6025000D02*
X11045000Y-6055000D01*
X11045000Y-6025000D02*
X11015000Y-6055000D01*
X11085000Y-6155000D02*
X11115000Y-6185000D01*
X11115000Y-6155000D02*
X11085000Y-6185000D01*
X11085000Y-6444000D02*
X11115000Y-6474000D01*
X11115000Y-6444000D02*
X11085000Y-6474000D01*
X11095000Y-5665000D02*
X11125000Y-5695000D01*
X11125000Y-5665000D02*
X11095000Y-5695000D01*
X11147500Y-6447500D02*
X11177500Y-6477500D01*
X11177500Y-6447500D02*
X11147500Y-6477500D01*
X11262511Y-5645000D02*
X11292511Y-5675000D01*
X11292511Y-5645000D02*
X11262511Y-5675000D01*
X11285000Y-6055000D02*
X11315000Y-6085000D01*
X11315000Y-6055000D02*
X11285000Y-6085000D01*
X11335000Y-5855000D02*
X11365000Y-5885000D01*
X11365000Y-5855000D02*
X11335000Y-5885000D01*
X11395254Y-6244544D02*
X11425254Y-6274544D01*
X11425254Y-6244544D02*
X11395254Y-6274544D01*
X11433000Y-5855000D02*
X11463000Y-5885000D01*
X11463000Y-5855000D02*
X11433000Y-5885000D01*
X11495000Y-6125000D02*
X11525000Y-6155000D01*
X11525000Y-6125000D02*
X11495000Y-6155000D01*
X11545000Y-5615000D02*
X11575000Y-5645000D01*
X11575000Y-5615000D02*
X11545000Y-5645000D01*
X11555000Y-5965000D02*
X11585000Y-5995000D01*
X11585000Y-5965000D02*
X11555000Y-5995000D01*
D10*
X9664683Y-7257537D02*
X9664683Y-7057537D01*
X9664683Y-7057537D02*
X9712302Y-7057537D01*
X9712302Y-7057537D02*
X9740873Y-7067060D01*
X9740873Y-7067060D02*
X9759921Y-7086108D01*
X9759921Y-7086108D02*
X9769445Y-7105156D01*
X9769445Y-7105156D02*
X9778968Y-7143251D01*
X9778968Y-7143251D02*
X9778968Y-7171822D01*
X9778968Y-7171822D02*
X9769445Y-7209918D01*
X9769445Y-7209918D02*
X9759921Y-7228965D01*
X9759921Y-7228965D02*
X9740873Y-7248013D01*
X9740873Y-7248013D02*
X9712302Y-7257537D01*
X9712302Y-7257537D02*
X9664683Y-7257537D01*
X9864683Y-7257537D02*
X9864683Y-7124203D01*
X9864683Y-7162299D02*
X9874206Y-7143251D01*
X9874206Y-7143251D02*
X9883730Y-7133727D01*
X9883730Y-7133727D02*
X9902778Y-7124203D01*
X9902778Y-7124203D02*
X9921826Y-7124203D01*
X9988492Y-7257537D02*
X9988492Y-7124203D01*
X9988492Y-7057537D02*
X9978968Y-7067060D01*
X9978968Y-7067060D02*
X9988492Y-7076584D01*
X9988492Y-7076584D02*
X9998016Y-7067060D01*
X9998016Y-7067060D02*
X9988492Y-7057537D01*
X9988492Y-7057537D02*
X9988492Y-7076584D01*
X10112302Y-7257537D02*
X10093254Y-7248013D01*
X10093254Y-7248013D02*
X10083730Y-7228965D01*
X10083730Y-7228965D02*
X10083730Y-7057537D01*
X10217064Y-7257537D02*
X10198016Y-7248013D01*
X10198016Y-7248013D02*
X10188492Y-7228965D01*
X10188492Y-7228965D02*
X10188492Y-7057537D01*
X10445635Y-7257537D02*
X10445635Y-7057537D01*
X10445635Y-7057537D02*
X10512302Y-7200394D01*
X10512302Y-7200394D02*
X10578968Y-7057537D01*
X10578968Y-7057537D02*
X10578968Y-7257537D01*
X10759921Y-7257537D02*
X10759921Y-7152775D01*
X10759921Y-7152775D02*
X10750397Y-7133727D01*
X10750397Y-7133727D02*
X10731349Y-7124203D01*
X10731349Y-7124203D02*
X10693254Y-7124203D01*
X10693254Y-7124203D02*
X10674206Y-7133727D01*
X10759921Y-7248013D02*
X10740873Y-7257537D01*
X10740873Y-7257537D02*
X10693254Y-7257537D01*
X10693254Y-7257537D02*
X10674206Y-7248013D01*
X10674206Y-7248013D02*
X10664683Y-7228965D01*
X10664683Y-7228965D02*
X10664683Y-7209918D01*
X10664683Y-7209918D02*
X10674206Y-7190870D01*
X10674206Y-7190870D02*
X10693254Y-7181346D01*
X10693254Y-7181346D02*
X10740873Y-7181346D01*
X10740873Y-7181346D02*
X10759921Y-7171822D01*
X10855159Y-7124203D02*
X10855159Y-7324203D01*
X10855159Y-7133727D02*
X10874206Y-7124203D01*
X10874206Y-7124203D02*
X10912302Y-7124203D01*
X10912302Y-7124203D02*
X10931349Y-7133727D01*
X10931349Y-7133727D02*
X10940873Y-7143251D01*
X10940873Y-7143251D02*
X10950397Y-7162299D01*
X10950397Y-7162299D02*
X10950397Y-7219441D01*
X10950397Y-7219441D02*
X10940873Y-7238489D01*
X10940873Y-7238489D02*
X10931349Y-7248013D01*
X10931349Y-7248013D02*
X10912302Y-7257537D01*
X10912302Y-7257537D02*
X10874206Y-7257537D01*
X10874206Y-7257537D02*
X10855159Y-7248013D01*
X11036111Y-7238489D02*
X11045635Y-7248013D01*
X11045635Y-7248013D02*
X11036111Y-7257537D01*
X11036111Y-7257537D02*
X11026587Y-7248013D01*
X11026587Y-7248013D02*
X11036111Y-7238489D01*
X11036111Y-7238489D02*
X11036111Y-7257537D01*
X11036111Y-7133727D02*
X11045635Y-7143251D01*
X11045635Y-7143251D02*
X11036111Y-7152775D01*
X11036111Y-7152775D02*
X11026587Y-7143251D01*
X11026587Y-7143251D02*
X11036111Y-7133727D01*
X11036111Y-7133727D02*
X11036111Y-7152775D01*
D11*
X9387064Y-7570013D02*
X9417064Y-7600013D01*
X9417064Y-7570013D02*
X9387064Y-7600013D01*
D10*
X9702778Y-7477537D02*
X9721826Y-7477537D01*
X9721826Y-7477537D02*
X9740873Y-7487060D01*
X9740873Y-7487060D02*
X9750397Y-7496584D01*
X9750397Y-7496584D02*
X9759921Y-7515632D01*
X9759921Y-7515632D02*
X9769445Y-7553727D01*
X9769445Y-7553727D02*
X9769445Y-7601346D01*
X9769445Y-7601346D02*
X9759921Y-7639441D01*
X9759921Y-7639441D02*
X9750397Y-7658489D01*
X9750397Y-7658489D02*
X9740873Y-7668013D01*
X9740873Y-7668013D02*
X9721826Y-7677537D01*
X9721826Y-7677537D02*
X9702778Y-7677537D01*
X9702778Y-7677537D02*
X9683730Y-7668013D01*
X9683730Y-7668013D02*
X9674206Y-7658489D01*
X9674206Y-7658489D02*
X9664683Y-7639441D01*
X9664683Y-7639441D02*
X9655159Y-7601346D01*
X9655159Y-7601346D02*
X9655159Y-7553727D01*
X9655159Y-7553727D02*
X9664683Y-7515632D01*
X9664683Y-7515632D02*
X9674206Y-7496584D01*
X9674206Y-7496584D02*
X9683730Y-7487060D01*
X9683730Y-7487060D02*
X9702778Y-7477537D01*
X9855159Y-7658489D02*
X9864683Y-7668013D01*
X9864683Y-7668013D02*
X9855159Y-7677537D01*
X9855159Y-7677537D02*
X9845635Y-7668013D01*
X9845635Y-7668013D02*
X9855159Y-7658489D01*
X9855159Y-7658489D02*
X9855159Y-7677537D01*
X9931349Y-7477537D02*
X10055159Y-7477537D01*
X10055159Y-7477537D02*
X9988492Y-7553727D01*
X9988492Y-7553727D02*
X10017064Y-7553727D01*
X10017064Y-7553727D02*
X10036111Y-7563251D01*
X10036111Y-7563251D02*
X10045635Y-7572775D01*
X10045635Y-7572775D02*
X10055159Y-7591822D01*
X10055159Y-7591822D02*
X10055159Y-7639441D01*
X10055159Y-7639441D02*
X10045635Y-7658489D01*
X10045635Y-7658489D02*
X10036111Y-7668013D01*
X10036111Y-7668013D02*
X10017064Y-7677537D01*
X10017064Y-7677537D02*
X9959921Y-7677537D01*
X9959921Y-7677537D02*
X9940873Y-7668013D01*
X9940873Y-7668013D02*
X9931349Y-7658489D01*
X10178968Y-7477537D02*
X10198016Y-7477537D01*
X10198016Y-7477537D02*
X10217064Y-7487060D01*
X10217064Y-7487060D02*
X10226587Y-7496584D01*
X10226587Y-7496584D02*
X10236111Y-7515632D01*
X10236111Y-7515632D02*
X10245635Y-7553727D01*
X10245635Y-7553727D02*
X10245635Y-7601346D01*
X10245635Y-7601346D02*
X10236111Y-7639441D01*
X10236111Y-7639441D02*
X10226587Y-7658489D01*
X10226587Y-7658489D02*
X10217064Y-7668013D01*
X10217064Y-7668013D02*
X10198016Y-7677537D01*
X10198016Y-7677537D02*
X10178968Y-7677537D01*
X10178968Y-7677537D02*
X10159921Y-7668013D01*
X10159921Y-7668013D02*
X10150397Y-7658489D01*
X10150397Y-7658489D02*
X10140873Y-7639441D01*
X10140873Y-7639441D02*
X10131349Y-7601346D01*
X10131349Y-7601346D02*
X10131349Y-7553727D01*
X10131349Y-7553727D02*
X10140873Y-7515632D01*
X10140873Y-7515632D02*
X10150397Y-7496584D01*
X10150397Y-7496584D02*
X10159921Y-7487060D01*
X10159921Y-7487060D02*
X10178968Y-7477537D01*
X10369445Y-7477537D02*
X10388492Y-7477537D01*
X10388492Y-7477537D02*
X10407540Y-7487060D01*
X10407540Y-7487060D02*
X10417064Y-7496584D01*
X10417064Y-7496584D02*
X10426587Y-7515632D01*
X10426587Y-7515632D02*
X10436111Y-7553727D01*
X10436111Y-7553727D02*
X10436111Y-7601346D01*
X10436111Y-7601346D02*
X10426587Y-7639441D01*
X10426587Y-7639441D02*
X10417064Y-7658489D01*
X10417064Y-7658489D02*
X10407540Y-7668013D01*
X10407540Y-7668013D02*
X10388492Y-7677537D01*
X10388492Y-7677537D02*
X10369445Y-7677537D01*
X10369445Y-7677537D02*
X10350397Y-7668013D01*
X10350397Y-7668013D02*
X10340873Y-7658489D01*
X10340873Y-7658489D02*
X10331349Y-7639441D01*
X10331349Y-7639441D02*
X10321826Y-7601346D01*
X10321826Y-7601346D02*
X10321826Y-7553727D01*
X10321826Y-7553727D02*
X10331349Y-7515632D01*
X10331349Y-7515632D02*
X10340873Y-7496584D01*
X10340873Y-7496584D02*
X10350397Y-7487060D01*
X10350397Y-7487060D02*
X10369445Y-7477537D01*
X10521826Y-7677537D02*
X10521826Y-7544203D01*
X10521826Y-7563251D02*
X10531349Y-7553727D01*
X10531349Y-7553727D02*
X10550397Y-7544203D01*
X10550397Y-7544203D02*
X10578968Y-7544203D01*
X10578968Y-7544203D02*
X10598016Y-7553727D01*
X10598016Y-7553727D02*
X10607540Y-7572775D01*
X10607540Y-7572775D02*
X10607540Y-7677537D01*
X10607540Y-7572775D02*
X10617064Y-7553727D01*
X10617064Y-7553727D02*
X10636111Y-7544203D01*
X10636111Y-7544203D02*
X10664683Y-7544203D01*
X10664683Y-7544203D02*
X10683730Y-7553727D01*
X10683730Y-7553727D02*
X10693254Y-7572775D01*
X10693254Y-7572775D02*
X10693254Y-7677537D01*
X10788492Y-7677537D02*
X10788492Y-7544203D01*
X10788492Y-7563251D02*
X10798016Y-7553727D01*
X10798016Y-7553727D02*
X10817064Y-7544203D01*
X10817064Y-7544203D02*
X10845635Y-7544203D01*
X10845635Y-7544203D02*
X10864683Y-7553727D01*
X10864683Y-7553727D02*
X10874207Y-7572775D01*
X10874207Y-7572775D02*
X10874207Y-7677537D01*
X10874207Y-7572775D02*
X10883730Y-7553727D01*
X10883730Y-7553727D02*
X10902778Y-7544203D01*
X10902778Y-7544203D02*
X10931349Y-7544203D01*
X10931349Y-7544203D02*
X10950397Y-7553727D01*
X10950397Y-7553727D02*
X10959921Y-7572775D01*
X10959921Y-7572775D02*
X10959921Y-7677537D01*
X11350397Y-7468013D02*
X11178969Y-7725156D01*
X11607540Y-7477537D02*
X11626588Y-7477537D01*
X11626588Y-7477537D02*
X11645635Y-7487060D01*
X11645635Y-7487060D02*
X11655159Y-7496584D01*
X11655159Y-7496584D02*
X11664683Y-7515632D01*
X11664683Y-7515632D02*
X11674207Y-7553727D01*
X11674207Y-7553727D02*
X11674207Y-7601346D01*
X11674207Y-7601346D02*
X11664683Y-7639441D01*
X11664683Y-7639441D02*
X11655159Y-7658489D01*
X11655159Y-7658489D02*
X11645635Y-7668013D01*
X11645635Y-7668013D02*
X11626588Y-7677537D01*
X11626588Y-7677537D02*
X11607540Y-7677537D01*
X11607540Y-7677537D02*
X11588492Y-7668013D01*
X11588492Y-7668013D02*
X11578968Y-7658489D01*
X11578968Y-7658489D02*
X11569445Y-7639441D01*
X11569445Y-7639441D02*
X11559921Y-7601346D01*
X11559921Y-7601346D02*
X11559921Y-7553727D01*
X11559921Y-7553727D02*
X11569445Y-7515632D01*
X11569445Y-7515632D02*
X11578968Y-7496584D01*
X11578968Y-7496584D02*
X11588492Y-7487060D01*
X11588492Y-7487060D02*
X11607540Y-7477537D01*
X11759921Y-7658489D02*
X11769445Y-7668013D01*
X11769445Y-7668013D02*
X11759921Y-7677537D01*
X11759921Y-7677537D02*
X11750397Y-7668013D01*
X11750397Y-7668013D02*
X11759921Y-7658489D01*
X11759921Y-7658489D02*
X11759921Y-7677537D01*
X11893254Y-7477537D02*
X11912302Y-7477537D01*
X11912302Y-7477537D02*
X11931349Y-7487060D01*
X11931349Y-7487060D02*
X11940873Y-7496584D01*
X11940873Y-7496584D02*
X11950397Y-7515632D01*
X11950397Y-7515632D02*
X11959921Y-7553727D01*
X11959921Y-7553727D02*
X11959921Y-7601346D01*
X11959921Y-7601346D02*
X11950397Y-7639441D01*
X11950397Y-7639441D02*
X11940873Y-7658489D01*
X11940873Y-7658489D02*
X11931349Y-7668013D01*
X11931349Y-7668013D02*
X11912302Y-7677537D01*
X11912302Y-7677537D02*
X11893254Y-7677537D01*
X11893254Y-7677537D02*
X11874207Y-7668013D01*
X11874207Y-7668013D02*
X11864683Y-7658489D01*
X11864683Y-7658489D02*
X11855159Y-7639441D01*
X11855159Y-7639441D02*
X11845635Y-7601346D01*
X11845635Y-7601346D02*
X11845635Y-7553727D01*
X11845635Y-7553727D02*
X11855159Y-7515632D01*
X11855159Y-7515632D02*
X11864683Y-7496584D01*
X11864683Y-7496584D02*
X11874207Y-7487060D01*
X11874207Y-7487060D02*
X11893254Y-7477537D01*
X12150397Y-7677537D02*
X12036111Y-7677537D01*
X12093254Y-7677537D02*
X12093254Y-7477537D01*
X12093254Y-7477537D02*
X12074207Y-7506108D01*
X12074207Y-7506108D02*
X12055159Y-7525156D01*
X12055159Y-7525156D02*
X12036111Y-7534679D01*
X12340873Y-7677537D02*
X12226588Y-7677537D01*
X12283730Y-7677537D02*
X12283730Y-7477537D01*
X12283730Y-7477537D02*
X12264683Y-7506108D01*
X12264683Y-7506108D02*
X12245635Y-7525156D01*
X12245635Y-7525156D02*
X12226588Y-7534679D01*
X12455159Y-7563251D02*
X12436111Y-7553727D01*
X12436111Y-7553727D02*
X12426588Y-7544203D01*
X12426588Y-7544203D02*
X12417064Y-7525156D01*
X12417064Y-7525156D02*
X12417064Y-7515632D01*
X12417064Y-7515632D02*
X12426588Y-7496584D01*
X12426588Y-7496584D02*
X12436111Y-7487060D01*
X12436111Y-7487060D02*
X12455159Y-7477537D01*
X12455159Y-7477537D02*
X12493254Y-7477537D01*
X12493254Y-7477537D02*
X12512302Y-7487060D01*
X12512302Y-7487060D02*
X12521826Y-7496584D01*
X12521826Y-7496584D02*
X12531349Y-7515632D01*
X12531349Y-7515632D02*
X12531349Y-7525156D01*
X12531349Y-7525156D02*
X12521826Y-7544203D01*
X12521826Y-7544203D02*
X12512302Y-7553727D01*
X12512302Y-7553727D02*
X12493254Y-7563251D01*
X12493254Y-7563251D02*
X12455159Y-7563251D01*
X12455159Y-7563251D02*
X12436111Y-7572775D01*
X12436111Y-7572775D02*
X12426588Y-7582299D01*
X12426588Y-7582299D02*
X12417064Y-7601346D01*
X12417064Y-7601346D02*
X12417064Y-7639441D01*
X12417064Y-7639441D02*
X12426588Y-7658489D01*
X12426588Y-7658489D02*
X12436111Y-7668013D01*
X12436111Y-7668013D02*
X12455159Y-7677537D01*
X12455159Y-7677537D02*
X12493254Y-7677537D01*
X12493254Y-7677537D02*
X12512302Y-7668013D01*
X12512302Y-7668013D02*
X12521826Y-7658489D01*
X12521826Y-7658489D02*
X12531349Y-7639441D01*
X12531349Y-7639441D02*
X12531349Y-7601346D01*
X12531349Y-7601346D02*
X12521826Y-7582299D01*
X12521826Y-7582299D02*
X12512302Y-7572775D01*
X12512302Y-7572775D02*
X12493254Y-7563251D01*
X12607540Y-7477537D02*
X12607540Y-7515632D01*
X12683730Y-7477537D02*
X12683730Y-7515632D01*
X12978969Y-7753727D02*
X12969445Y-7744203D01*
X12969445Y-7744203D02*
X12950397Y-7715632D01*
X12950397Y-7715632D02*
X12940873Y-7696584D01*
X12940873Y-7696584D02*
X12931350Y-7668013D01*
X12931350Y-7668013D02*
X12921826Y-7620394D01*
X12921826Y-7620394D02*
X12921826Y-7582299D01*
X12921826Y-7582299D02*
X12931350Y-7534679D01*
X12931350Y-7534679D02*
X12940873Y-7506108D01*
X12940873Y-7506108D02*
X12950397Y-7487060D01*
X12950397Y-7487060D02*
X12969445Y-7458489D01*
X12969445Y-7458489D02*
X12978969Y-7448965D01*
X13140873Y-7477537D02*
X13102778Y-7477537D01*
X13102778Y-7477537D02*
X13083730Y-7487060D01*
X13083730Y-7487060D02*
X13074207Y-7496584D01*
X13074207Y-7496584D02*
X13055159Y-7525156D01*
X13055159Y-7525156D02*
X13045635Y-7563251D01*
X13045635Y-7563251D02*
X13045635Y-7639441D01*
X13045635Y-7639441D02*
X13055159Y-7658489D01*
X13055159Y-7658489D02*
X13064683Y-7668013D01*
X13064683Y-7668013D02*
X13083730Y-7677537D01*
X13083730Y-7677537D02*
X13121826Y-7677537D01*
X13121826Y-7677537D02*
X13140873Y-7668013D01*
X13140873Y-7668013D02*
X13150397Y-7658489D01*
X13150397Y-7658489D02*
X13159921Y-7639441D01*
X13159921Y-7639441D02*
X13159921Y-7591822D01*
X13159921Y-7591822D02*
X13150397Y-7572775D01*
X13150397Y-7572775D02*
X13140873Y-7563251D01*
X13140873Y-7563251D02*
X13121826Y-7553727D01*
X13121826Y-7553727D02*
X13083730Y-7553727D01*
X13083730Y-7553727D02*
X13064683Y-7563251D01*
X13064683Y-7563251D02*
X13055159Y-7572775D01*
X13055159Y-7572775D02*
X13045635Y-7591822D01*
X13283730Y-7477537D02*
X13302778Y-7477537D01*
X13302778Y-7477537D02*
X13321826Y-7487060D01*
X13321826Y-7487060D02*
X13331350Y-7496584D01*
X13331350Y-7496584D02*
X13340873Y-7515632D01*
X13340873Y-7515632D02*
X13350397Y-7553727D01*
X13350397Y-7553727D02*
X13350397Y-7601346D01*
X13350397Y-7601346D02*
X13340873Y-7639441D01*
X13340873Y-7639441D02*
X13331350Y-7658489D01*
X13331350Y-7658489D02*
X13321826Y-7668013D01*
X13321826Y-7668013D02*
X13302778Y-7677537D01*
X13302778Y-7677537D02*
X13283730Y-7677537D01*
X13283730Y-7677537D02*
X13264683Y-7668013D01*
X13264683Y-7668013D02*
X13255159Y-7658489D01*
X13255159Y-7658489D02*
X13245635Y-7639441D01*
X13245635Y-7639441D02*
X13236111Y-7601346D01*
X13236111Y-7601346D02*
X13236111Y-7553727D01*
X13236111Y-7553727D02*
X13245635Y-7515632D01*
X13245635Y-7515632D02*
X13255159Y-7496584D01*
X13255159Y-7496584D02*
X13264683Y-7487060D01*
X13264683Y-7487060D02*
X13283730Y-7477537D01*
X13588492Y-7677537D02*
X13588492Y-7477537D01*
X13674207Y-7677537D02*
X13674207Y-7572775D01*
X13674207Y-7572775D02*
X13664683Y-7553727D01*
X13664683Y-7553727D02*
X13645635Y-7544203D01*
X13645635Y-7544203D02*
X13617064Y-7544203D01*
X13617064Y-7544203D02*
X13598016Y-7553727D01*
X13598016Y-7553727D02*
X13588492Y-7563251D01*
X13798016Y-7677537D02*
X13778969Y-7668013D01*
X13778969Y-7668013D02*
X13769445Y-7658489D01*
X13769445Y-7658489D02*
X13759921Y-7639441D01*
X13759921Y-7639441D02*
X13759921Y-7582299D01*
X13759921Y-7582299D02*
X13769445Y-7563251D01*
X13769445Y-7563251D02*
X13778969Y-7553727D01*
X13778969Y-7553727D02*
X13798016Y-7544203D01*
X13798016Y-7544203D02*
X13826588Y-7544203D01*
X13826588Y-7544203D02*
X13845635Y-7553727D01*
X13845635Y-7553727D02*
X13855159Y-7563251D01*
X13855159Y-7563251D02*
X13864683Y-7582299D01*
X13864683Y-7582299D02*
X13864683Y-7639441D01*
X13864683Y-7639441D02*
X13855159Y-7658489D01*
X13855159Y-7658489D02*
X13845635Y-7668013D01*
X13845635Y-7668013D02*
X13826588Y-7677537D01*
X13826588Y-7677537D02*
X13798016Y-7677537D01*
X13978969Y-7677537D02*
X13959921Y-7668013D01*
X13959921Y-7668013D02*
X13950397Y-7648965D01*
X13950397Y-7648965D02*
X13950397Y-7477537D01*
X14131350Y-7668013D02*
X14112302Y-7677537D01*
X14112302Y-7677537D02*
X14074207Y-7677537D01*
X14074207Y-7677537D02*
X14055159Y-7668013D01*
X14055159Y-7668013D02*
X14045635Y-7648965D01*
X14045635Y-7648965D02*
X14045635Y-7572775D01*
X14045635Y-7572775D02*
X14055159Y-7553727D01*
X14055159Y-7553727D02*
X14074207Y-7544203D01*
X14074207Y-7544203D02*
X14112302Y-7544203D01*
X14112302Y-7544203D02*
X14131350Y-7553727D01*
X14131350Y-7553727D02*
X14140873Y-7572775D01*
X14140873Y-7572775D02*
X14140873Y-7591822D01*
X14140873Y-7591822D02*
X14045635Y-7610870D01*
X14217064Y-7668013D02*
X14236112Y-7677537D01*
X14236112Y-7677537D02*
X14274207Y-7677537D01*
X14274207Y-7677537D02*
X14293254Y-7668013D01*
X14293254Y-7668013D02*
X14302778Y-7648965D01*
X14302778Y-7648965D02*
X14302778Y-7639441D01*
X14302778Y-7639441D02*
X14293254Y-7620394D01*
X14293254Y-7620394D02*
X14274207Y-7610870D01*
X14274207Y-7610870D02*
X14245635Y-7610870D01*
X14245635Y-7610870D02*
X14226588Y-7601346D01*
X14226588Y-7601346D02*
X14217064Y-7582299D01*
X14217064Y-7582299D02*
X14217064Y-7572775D01*
X14217064Y-7572775D02*
X14226588Y-7553727D01*
X14226588Y-7553727D02*
X14245635Y-7544203D01*
X14245635Y-7544203D02*
X14274207Y-7544203D01*
X14274207Y-7544203D02*
X14293254Y-7553727D01*
X14369445Y-7753727D02*
X14378969Y-7744203D01*
X14378969Y-7744203D02*
X14398016Y-7715632D01*
X14398016Y-7715632D02*
X14407540Y-7696584D01*
X14407540Y-7696584D02*
X14417064Y-7668013D01*
X14417064Y-7668013D02*
X14426588Y-7620394D01*
X14426588Y-7620394D02*
X14426588Y-7582299D01*
X14426588Y-7582299D02*
X14417064Y-7534679D01*
X14417064Y-7534679D02*
X14407540Y-7506108D01*
X14407540Y-7506108D02*
X14398016Y-7487060D01*
X14398016Y-7487060D02*
X14378969Y-7458489D01*
X14378969Y-7458489D02*
X14369445Y-7448965D01*
M02*
