%TF.GenerationSoftware,KiCad,Pcbnew,7.0.1*%
%TF.CreationDate,2024-01-02T21:49:50+00:00*%
%TF.ProjectId,rfid_module,72666964-5f6d-46f6-9475-6c652e6b6963,rev?*%
%TF.SameCoordinates,Original*%
%TF.FileFunction,Soldermask,Top*%
%TF.FilePolarity,Negative*%
%FSLAX46Y46*%
G04 Gerber Fmt 4.6, Leading zero omitted, Abs format (unit mm)*
G04 Created by KiCad (PCBNEW 7.0.1) date 2024-01-02 21:49:50*
%MOMM*%
%LPD*%
G01*
G04 APERTURE LIST*
G04 Aperture macros list*
%AMRoundRect*
0 Rectangle with rounded corners*
0 $1 Rounding radius*
0 $2 $3 $4 $5 $6 $7 $8 $9 X,Y pos of 4 corners*
0 Add a 4 corners polygon primitive as box body*
4,1,4,$2,$3,$4,$5,$6,$7,$8,$9,$2,$3,0*
0 Add four circle primitives for the rounded corners*
1,1,$1+$1,$2,$3*
1,1,$1+$1,$4,$5*
1,1,$1+$1,$6,$7*
1,1,$1+$1,$8,$9*
0 Add four rect primitives between the rounded corners*
20,1,$1+$1,$2,$3,$4,$5,0*
20,1,$1+$1,$4,$5,$6,$7,0*
20,1,$1+$1,$6,$7,$8,$9,0*
20,1,$1+$1,$8,$9,$2,$3,0*%
%AMFreePoly0*
4,1,14,0.111820,0.364320,0.125000,0.332500,0.125000,-0.332500,0.111820,-0.364320,0.080000,-0.377500,0.053640,-0.377501,0.021819,-0.364318,-0.111820,-0.230680,-0.125000,-0.198860,-0.125000,0.332500,-0.111820,0.364320,-0.080000,0.377500,0.080000,0.377500,0.111820,0.364320,0.111820,0.364320,$1*%
%AMFreePoly1*
4,1,14,0.111820,0.364320,0.125000,0.332500,0.125001,-0.198860,0.111818,-0.230680,-0.021820,-0.364320,-0.053640,-0.377500,-0.080000,-0.377500,-0.111820,-0.364320,-0.125000,-0.332500,-0.125000,0.332500,-0.111820,0.364320,-0.080000,0.377500,0.080000,0.377500,0.111820,0.364320,0.111820,0.364320,$1*%
%AMFreePoly2*
4,1,15,-0.198858,0.125000,0.332500,0.125000,0.364320,0.111820,0.377500,0.080000,0.377500,-0.080000,0.364320,-0.111820,0.332500,-0.125000,-0.332500,-0.125000,-0.364320,-0.111820,-0.377500,-0.080000,-0.377500,-0.053640,-0.364320,-0.021819,-0.230680,0.111820,-0.198860,0.125001,-0.198858,0.125000,-0.198858,0.125000,$1*%
%AMFreePoly3*
4,1,14,0.364320,0.111820,0.377500,0.080000,0.377500,-0.080000,0.364320,-0.111820,0.332500,-0.125000,-0.198860,-0.125001,-0.230680,-0.111818,-0.364320,0.021820,-0.377500,0.053640,-0.377500,0.080000,-0.364320,0.111820,-0.332500,0.125000,0.332500,0.125000,0.364320,0.111820,0.364320,0.111820,$1*%
%AMFreePoly4*
4,1,14,-0.021820,0.364320,0.111820,0.230679,0.125000,0.198858,0.125000,-0.332500,0.111820,-0.364320,0.080000,-0.377500,-0.080000,-0.377500,-0.111820,-0.364320,-0.125000,-0.332500,-0.125000,0.332500,-0.111820,0.364320,-0.080000,0.377500,-0.053640,0.377500,-0.021820,0.364320,-0.021820,0.364320,$1*%
%AMFreePoly5*
4,1,15,0.053642,0.377500,0.080000,0.377500,0.111820,0.364320,0.125000,0.332500,0.125000,-0.332500,0.111820,-0.364320,0.080000,-0.377500,-0.080000,-0.377500,-0.111820,-0.364320,-0.125000,-0.332500,-0.125000,0.198860,-0.111820,0.230680,0.021820,0.364320,0.053640,0.377501,0.053642,0.377500,0.053642,0.377500,$1*%
%AMFreePoly6*
4,1,14,0.364320,0.111820,0.377500,0.080000,0.377501,0.053640,0.364318,0.021819,0.230680,-0.111820,0.198860,-0.125000,-0.332500,-0.125000,-0.364320,-0.111820,-0.377500,-0.080000,-0.377500,0.080000,-0.364320,0.111820,-0.332500,0.125000,0.332500,0.125000,0.364320,0.111820,0.364320,0.111820,$1*%
%AMFreePoly7*
4,1,14,0.230680,0.111820,0.364320,-0.021821,0.377500,-0.053642,0.377500,-0.080000,0.364320,-0.111820,0.332500,-0.125000,-0.332500,-0.125000,-0.364320,-0.111820,-0.377500,-0.080000,-0.377500,0.080000,-0.364320,0.111820,-0.332500,0.125000,0.198860,0.125000,0.230680,0.111820,0.230680,0.111820,$1*%
G04 Aperture macros list end*
%ADD10C,1.500000*%
%ADD11RoundRect,0.140000X0.170000X-0.140000X0.170000X0.140000X-0.170000X0.140000X-0.170000X-0.140000X0*%
%ADD12RoundRect,0.135000X0.185000X-0.135000X0.185000X0.135000X-0.185000X0.135000X-0.185000X-0.135000X0*%
%ADD13R,0.250000X0.400000*%
%ADD14R,0.700000X0.400000*%
%ADD15RoundRect,0.140000X-0.140000X-0.170000X0.140000X-0.170000X0.140000X0.170000X-0.140000X0.170000X0*%
%ADD16R,0.400000X0.250000*%
%ADD17R,0.400000X0.700000*%
%ADD18RoundRect,0.135000X0.135000X0.185000X-0.135000X0.185000X-0.135000X-0.185000X0.135000X-0.185000X0*%
%ADD19RoundRect,0.062500X-0.117500X-0.062500X0.117500X-0.062500X0.117500X0.062500X-0.117500X0.062500X0*%
%ADD20C,0.216000*%
%ADD21RoundRect,0.135000X-0.135000X-0.185000X0.135000X-0.185000X0.135000X0.185000X-0.135000X0.185000X0*%
%ADD22R,0.800000X0.600000*%
%ADD23RoundRect,0.135000X-0.185000X0.135000X-0.185000X-0.135000X0.185000X-0.135000X0.185000X0.135000X0*%
%ADD24RoundRect,0.140000X0.140000X0.170000X-0.140000X0.170000X-0.140000X-0.170000X0.140000X-0.170000X0*%
%ADD25C,0.298000*%
%ADD26RoundRect,0.140000X-0.170000X0.140000X-0.170000X-0.140000X0.170000X-0.140000X0.170000X0.140000X0*%
%ADD27RoundRect,0.100000X0.400000X1.300000X-0.400000X1.300000X-0.400000X-1.300000X0.400000X-1.300000X0*%
%ADD28FreePoly0,180.000000*%
%ADD29RoundRect,0.062500X0.062500X0.375000X-0.062500X0.375000X-0.062500X-0.375000X0.062500X-0.375000X0*%
%ADD30FreePoly1,180.000000*%
%ADD31FreePoly2,180.000000*%
%ADD32RoundRect,0.062500X0.375000X0.062500X-0.375000X0.062500X-0.375000X-0.062500X0.375000X-0.062500X0*%
%ADD33FreePoly3,180.000000*%
%ADD34FreePoly4,180.000000*%
%ADD35FreePoly5,180.000000*%
%ADD36FreePoly6,180.000000*%
%ADD37FreePoly7,180.000000*%
%ADD38R,1.760000X1.760000*%
%ADD39R,0.300000X0.800000*%
%ADD40R,0.800000X0.300000*%
G04 APERTURE END LIST*
D10*
%TO.C,TP203*%
X103200000Y-67600000D03*
%TD*%
%TO.C,TP101*%
X100700000Y-67600000D03*
%TD*%
D11*
%TO.C,C204*%
X104700000Y-60180000D03*
X104700000Y-59220000D03*
%TD*%
D12*
%TO.C,R204*%
X109600000Y-56410000D03*
X109600000Y-55390000D03*
%TD*%
D13*
%TO.C,Q203*%
X106775000Y-56150000D03*
X107225000Y-56150000D03*
D14*
X107000000Y-55450000D03*
%TD*%
D12*
%TO.C,R212*%
X103600000Y-60210000D03*
X103600000Y-59190000D03*
%TD*%
D15*
%TO.C,C205*%
X96060000Y-64600000D03*
X95100000Y-64600000D03*
%TD*%
D16*
%TO.C,Q401*%
X114750000Y-60125000D03*
X114750000Y-59675000D03*
D17*
X114050000Y-59900000D03*
%TD*%
D11*
%TO.C,C208*%
X100000000Y-65760000D03*
X100000000Y-64800000D03*
%TD*%
D12*
%TO.C,R206*%
X106900000Y-58210000D03*
X106900000Y-57190000D03*
%TD*%
D18*
%TO.C,R503*%
X111910000Y-57700000D03*
X110890000Y-57700000D03*
%TD*%
D19*
%TO.C,D201*%
X95100000Y-65800000D03*
X95940000Y-65800000D03*
%TD*%
D18*
%TO.C,R217*%
X97090000Y-65800000D03*
X98110000Y-65800000D03*
%TD*%
D14*
%TO.C,Q202*%
X108400000Y-55450000D03*
D13*
X108175000Y-56150000D03*
X108625000Y-56150000D03*
%TD*%
D12*
%TO.C,R202*%
X108000000Y-58210000D03*
X108000000Y-57190000D03*
%TD*%
D10*
%TO.C,TP202*%
X98200000Y-67600000D03*
%TD*%
D15*
%TO.C,C202*%
X97120000Y-62100000D03*
X98080000Y-62100000D03*
%TD*%
D20*
%TO.C,IC501*%
X113800000Y-55600000D03*
X113800000Y-56000000D03*
X113800000Y-56400000D03*
X113400000Y-55600000D03*
X113400000Y-56000000D03*
X113400000Y-56400000D03*
%TD*%
D21*
%TO.C,R203*%
X98110000Y-63400000D03*
X97090000Y-63400000D03*
%TD*%
D22*
%TO.C,L501*%
X115400000Y-56400000D03*
X115400000Y-55600000D03*
%TD*%
D23*
%TO.C,R205*%
X99200000Y-62240000D03*
X99200000Y-63260000D03*
%TD*%
D11*
%TO.C,C502*%
X112000000Y-56380000D03*
X112000000Y-55420000D03*
%TD*%
D18*
%TO.C,R219*%
X107610000Y-67300000D03*
X106590000Y-67300000D03*
%TD*%
D24*
%TO.C,C501*%
X115880000Y-57700000D03*
X114920000Y-57700000D03*
%TD*%
D10*
%TO.C,TP201*%
X95700000Y-67600000D03*
%TD*%
D12*
%TO.C,R211*%
X104700000Y-63300000D03*
X104700000Y-62280000D03*
%TD*%
D25*
%TO.C,IC202*%
X108300000Y-65200000D03*
X108800000Y-65200000D03*
X109300000Y-65200000D03*
X108300000Y-65700000D03*
X108800000Y-65700000D03*
X109300000Y-65700000D03*
%TD*%
D21*
%TO.C,R502*%
X112890000Y-57700000D03*
X113910000Y-57700000D03*
%TD*%
D15*
%TO.C,C207*%
X98080000Y-64600000D03*
X97120000Y-64600000D03*
%TD*%
D23*
%TO.C,R501*%
X110800000Y-55390000D03*
X110800000Y-56410000D03*
%TD*%
D16*
%TO.C,Q201*%
X109150000Y-57475000D03*
X109150000Y-57925000D03*
D17*
X109850000Y-57700000D03*
%TD*%
D26*
%TO.C,C201*%
X96000000Y-62220000D03*
X96000000Y-63180000D03*
%TD*%
D18*
%TO.C,R221*%
X104490000Y-64900000D03*
X105510000Y-64900000D03*
%TD*%
D27*
%TO.C,L201*%
X95100000Y-56700000D03*
X105300000Y-56700000D03*
%TD*%
D21*
%TO.C,R222*%
X102290000Y-65800000D03*
X103310000Y-65800000D03*
%TD*%
D28*
%TO.C,U301*%
X111300000Y-63397500D03*
D29*
X110800000Y-63337500D03*
X110300000Y-63337500D03*
X109800000Y-63337500D03*
X109300000Y-63337500D03*
X108800000Y-63337500D03*
D30*
X108300000Y-63397500D03*
D31*
X107802500Y-62900000D03*
D32*
X107862500Y-62400000D03*
X107862500Y-61900000D03*
X107862500Y-61400000D03*
X107862500Y-60900000D03*
X107862500Y-60400000D03*
D33*
X107802500Y-59900000D03*
D34*
X108300000Y-59402500D03*
D29*
X108800000Y-59462500D03*
X109300000Y-59462500D03*
X109800000Y-59462500D03*
X110300000Y-59462500D03*
X110800000Y-59462500D03*
D35*
X111300000Y-59402500D03*
D36*
X111797500Y-59900000D03*
D32*
X111737500Y-60400000D03*
X111737500Y-60900000D03*
X111737500Y-61400000D03*
X111737500Y-61900000D03*
X111737500Y-62400000D03*
D37*
X111797500Y-62900000D03*
%TD*%
D11*
%TO.C,C209*%
X105400000Y-68280000D03*
X105400000Y-67320000D03*
%TD*%
D21*
%TO.C,R201*%
X105690000Y-59300000D03*
X106710000Y-59300000D03*
%TD*%
D24*
%TO.C,C301*%
X114880000Y-60900000D03*
X113920000Y-60900000D03*
%TD*%
D18*
%TO.C,R207*%
X106710000Y-60400000D03*
X105690000Y-60400000D03*
%TD*%
%TO.C,R401*%
X114910000Y-58800000D03*
X113890000Y-58800000D03*
%TD*%
D11*
%TO.C,C302*%
X113000000Y-62380000D03*
X113000000Y-61420000D03*
%TD*%
D38*
%TO.C,IC201*%
X101950000Y-62500000D03*
D39*
X102700000Y-64000000D03*
X102200000Y-64000000D03*
X101700000Y-64000000D03*
X101200000Y-64000000D03*
D40*
X100450000Y-63250000D03*
X100450000Y-62750000D03*
X100450000Y-62250000D03*
X100450000Y-61750000D03*
D39*
X101200000Y-61000000D03*
X101700000Y-61000000D03*
X102200000Y-61000000D03*
X102700000Y-61000000D03*
D40*
X103450000Y-61750000D03*
X103450000Y-62250000D03*
X103450000Y-62750000D03*
X103450000Y-63250000D03*
%TD*%
M02*
