%TF.GenerationSoftware,KiCad,Pcbnew,7.0.1*%
%TF.CreationDate,2024-01-08T11:07:59+00:00*%
%TF.ProjectId,rfid_module,72666964-5f6d-46f6-9475-6c652e6b6963,rev?*%
%TF.SameCoordinates,Original*%
%TF.FileFunction,Copper,L2,Inr*%
%TF.FilePolarity,Positive*%
%FSLAX46Y46*%
G04 Gerber Fmt 4.6, Leading zero omitted, Abs format (unit mm)*
G04 Created by KiCad (PCBNEW 7.0.1) date 2024-01-08 11:07:59*
%MOMM*%
%LPD*%
G01*
G04 APERTURE LIST*
%TA.AperFunction,ViaPad*%
%ADD10C,0.400000*%
%TD*%
G04 APERTURE END LIST*
D10*
%TO.N,GND*%
X113500000Y-58700000D03*
X95500000Y-63500000D03*
X97000000Y-57500000D03*
X115600000Y-56300000D03*
X104600000Y-56150000D03*
X97000000Y-60500000D03*
X111000000Y-64590000D03*
X97800000Y-61600000D03*
X97000000Y-65000000D03*
X99600000Y-65700000D03*
X94900000Y-67500000D03*
X95500000Y-57500000D03*
X95500000Y-59000000D03*
X98400000Y-63700000D03*
X106800000Y-64500000D03*
X105500000Y-59200000D03*
X115700000Y-59800000D03*
X104400000Y-65700000D03*
X97500000Y-68500000D03*
X101400000Y-61210000D03*
X95500000Y-65000000D03*
X95500000Y-60500000D03*
X97000000Y-62000000D03*
X106300000Y-67300000D03*
X103200000Y-63700000D03*
X101625000Y-59525000D03*
X97000000Y-63500000D03*
X103100000Y-66700000D03*
X95500000Y-62000000D03*
X97000000Y-59000000D03*
X108000000Y-67050000D03*
X110300000Y-60400000D03*
X100890000Y-57790000D03*
%TO.N,/RFID/AMP1_IN*%
X98400000Y-62700000D03*
%TO.N,+3V3*%
X98300000Y-61200000D03*
X114480000Y-58700000D03*
X106100000Y-57000000D03*
X108300000Y-64800000D03*
X105700000Y-64200000D03*
%TO.N,/RFID/1V65_UNREG*%
X105700000Y-63500000D03*
%TO.N,/RFID/SIGNAL_ENVELOPE*%
X98400000Y-65750000D03*
%TO.N,/RFID/AMP2_OUT*%
X102600000Y-66200000D03*
%TO.N,/RFID/AMP2_NEG*%
X100800000Y-65700000D03*
%TO.N,/RFID/AMP3_OUT*%
X103600000Y-66200000D03*
%TO.N,/RFID/AMP3_NEG*%
X105700000Y-67100000D03*
%TO.N,/RFID/RF_IN*%
X111625000Y-64625000D03*
X105600000Y-65700000D03*
%TO.N,+1V65*%
X99600000Y-64700000D03*
%TO.N,/RFID/SHDN*%
X103000000Y-61550000D03*
X104200000Y-61200000D03*
%TO.N,/RFID/AMP1_OUT*%
X100762250Y-62637750D03*
%TO.N,/RFID/AMP1_NEG*%
X99600000Y-62700000D03*
%TO.N,/Pogo Connector/SWDIO*%
X106000000Y-61800000D03*
%TO.N,/Pogo Connector/SWCLK*%
X105350000Y-61800000D03*
%TO.N,/Pogo Connector/LPUART1_TX*%
X112775108Y-56600000D03*
%TO.N,/RFID/PULL*%
X114102543Y-62595436D03*
%TO.N,/Pogo Connector/IRQN*%
X111000000Y-61700000D03*
%TO.N,/Pogo Connector/NRST*%
X113000000Y-60700000D03*
%TO.N,IOREF*%
X115100000Y-61400000D03*
%TO.N,/Pogo Connector/LPUART1_RX_1V8*%
X111100000Y-56800000D03*
%TD*%
%TA.AperFunction,Conductor*%
%TO.N,GND*%
G36*
X115479287Y-55769877D02*
G01*
X115491283Y-55769876D01*
X115491285Y-55769877D01*
X115535244Y-55769875D01*
X115542494Y-55770230D01*
X115668089Y-55782598D01*
X115682309Y-55785426D01*
X115799588Y-55821001D01*
X115812983Y-55826550D01*
X115921035Y-55884305D01*
X115921056Y-55884316D01*
X115933119Y-55892376D01*
X116027847Y-55970120D01*
X116038105Y-55980379D01*
X116115838Y-56075103D01*
X116123898Y-56087165D01*
X116181662Y-56195245D01*
X116187213Y-56208649D01*
X116222779Y-56325917D01*
X116225608Y-56340146D01*
X116238014Y-56466199D01*
X116238370Y-56473452D01*
X116238366Y-56528937D01*
X116238371Y-56528968D01*
X116238371Y-56991211D01*
X116236943Y-57005672D01*
X116233757Y-57021658D01*
X116233647Y-57022212D01*
X116222566Y-57048912D01*
X116217323Y-57056743D01*
X116196850Y-57077165D01*
X116182803Y-57086520D01*
X116169985Y-57093345D01*
X116122231Y-57113028D01*
X116121996Y-57113170D01*
X116090131Y-57126301D01*
X115934025Y-57230233D01*
X115801244Y-57362662D01*
X115696898Y-57518487D01*
X115625016Y-57691698D01*
X115588366Y-57875618D01*
X115588365Y-57969395D01*
X115588364Y-58063154D01*
X115625008Y-58247074D01*
X115651388Y-58310646D01*
X115696885Y-58420285D01*
X115799438Y-58573445D01*
X115801227Y-58576116D01*
X115934006Y-58708550D01*
X116090106Y-58812485D01*
X116121827Y-58825557D01*
X116121925Y-58825617D01*
X116170076Y-58845444D01*
X116182910Y-58852273D01*
X116196888Y-58861579D01*
X116217371Y-58882009D01*
X116222570Y-58889775D01*
X116233654Y-58916496D01*
X116236944Y-58933025D01*
X116238368Y-58947490D01*
X116238362Y-58970616D01*
X116238306Y-58973486D01*
X116224153Y-59335731D01*
X116223702Y-59341493D01*
X116181467Y-59700285D01*
X116180567Y-59705994D01*
X116110463Y-60060375D01*
X116109121Y-60065997D01*
X116011570Y-60413842D01*
X116009793Y-60419342D01*
X115885395Y-60758501D01*
X115883195Y-60763845D01*
X115732702Y-61092276D01*
X115730091Y-61097432D01*
X115625221Y-61285892D01*
X115597479Y-61314041D01*
X115559206Y-61323898D01*
X115521318Y-61312650D01*
X115494624Y-61283506D01*
X115489497Y-61273444D01*
X115431326Y-61159277D01*
X115340723Y-61068674D01*
X115226555Y-61010502D01*
X115100000Y-60990458D01*
X114973444Y-61010502D01*
X114859278Y-61068673D01*
X114768673Y-61159278D01*
X114710502Y-61273444D01*
X114695419Y-61368673D01*
X114690458Y-61400000D01*
X114710502Y-61526555D01*
X114768674Y-61640723D01*
X114859277Y-61731326D01*
X114973445Y-61789498D01*
X115100000Y-61809542D01*
X115131748Y-61804513D01*
X115174398Y-61810444D01*
X115206527Y-61839120D01*
X115217250Y-61880829D01*
X115202933Y-61921445D01*
X115124385Y-62028246D01*
X115123572Y-62029331D01*
X114893319Y-62330677D01*
X114892486Y-62331748D01*
X114874262Y-62354714D01*
X114657325Y-62628090D01*
X114656511Y-62629098D01*
X114643795Y-62644531D01*
X114603498Y-62669538D01*
X114556295Y-62664946D01*
X114521574Y-62632641D01*
X114517114Y-62606505D01*
X114513918Y-62607012D01*
X114512085Y-62595436D01*
X114492041Y-62468881D01*
X114433869Y-62354713D01*
X114343266Y-62264110D01*
X114229098Y-62205938D01*
X114102543Y-62185894D01*
X113975987Y-62205938D01*
X113861821Y-62264109D01*
X113771216Y-62354714D01*
X113713045Y-62468880D01*
X113713044Y-62468881D01*
X113713045Y-62468881D01*
X113693001Y-62595436D01*
X113713045Y-62721991D01*
X113771217Y-62836159D01*
X113861820Y-62926762D01*
X113975988Y-62984934D01*
X114102543Y-63004978D01*
X114183723Y-62992120D01*
X114227602Y-62998633D01*
X114259874Y-63029073D01*
X114268937Y-63072499D01*
X114251535Y-63113306D01*
X114170791Y-63207716D01*
X114169895Y-63208743D01*
X113920480Y-63489728D01*
X113919566Y-63490740D01*
X113665401Y-63766664D01*
X113664466Y-63767660D01*
X113405784Y-64038285D01*
X113404830Y-64039265D01*
X113141719Y-64304530D01*
X113140745Y-64305494D01*
X112873221Y-64565402D01*
X112872228Y-64566349D01*
X112600419Y-64820792D01*
X112599407Y-64821722D01*
X112323259Y-65070767D01*
X112322227Y-65071680D01*
X112042002Y-65315098D01*
X112040952Y-65315993D01*
X111756609Y-65553834D01*
X111755540Y-65554711D01*
X111467203Y-65786873D01*
X111466116Y-65787732D01*
X111173847Y-66014177D01*
X111172741Y-66015017D01*
X110876588Y-66235702D01*
X110875465Y-66236523D01*
X110575536Y-66451373D01*
X110574395Y-66452174D01*
X110270774Y-66661125D01*
X110269615Y-66661907D01*
X109962286Y-66864965D01*
X109961110Y-66865726D01*
X109650321Y-67062718D01*
X109649127Y-67063459D01*
X109334792Y-67254435D01*
X109333582Y-67255154D01*
X109015959Y-67439946D01*
X109014732Y-67440645D01*
X108693613Y-67619361D01*
X108692370Y-67620037D01*
X108368123Y-67792457D01*
X108366864Y-67793111D01*
X108039406Y-67959265D01*
X108038131Y-67959897D01*
X107707566Y-68119711D01*
X107706276Y-68120319D01*
X107372702Y-68273729D01*
X107371397Y-68274314D01*
X107034843Y-68421281D01*
X107033523Y-68421842D01*
X106694131Y-68562282D01*
X106692798Y-68562819D01*
X106350531Y-68696722D01*
X106349183Y-68697234D01*
X106005342Y-68824087D01*
X106002254Y-68825149D01*
X105698314Y-68922277D01*
X105693420Y-68923658D01*
X105384695Y-68999396D01*
X105379718Y-69000437D01*
X105066534Y-69054790D01*
X105061496Y-69055487D01*
X104745306Y-69088204D01*
X104740233Y-69088553D01*
X104421240Y-69099521D01*
X104418697Y-69099565D01*
X95223664Y-69099565D01*
X95216409Y-69099208D01*
X95091470Y-69086899D01*
X95077243Y-69084069D01*
X94959971Y-69048494D01*
X94946569Y-69042943D01*
X94838483Y-68985169D01*
X94826428Y-68977114D01*
X94731687Y-68899361D01*
X94721441Y-68889115D01*
X94643687Y-68794373D01*
X94635630Y-68782315D01*
X94577859Y-68674233D01*
X94572308Y-68660833D01*
X94542573Y-68562819D01*
X94536729Y-68543557D01*
X94533901Y-68529342D01*
X94521545Y-68403926D01*
X94521190Y-68396672D01*
X94521190Y-67100000D01*
X105290458Y-67100000D01*
X105310502Y-67226555D01*
X105368674Y-67340723D01*
X105459277Y-67431326D01*
X105573445Y-67489498D01*
X105700000Y-67509542D01*
X105826555Y-67489498D01*
X105940723Y-67431326D01*
X106031326Y-67340723D01*
X106089498Y-67226555D01*
X106109542Y-67100000D01*
X106089498Y-66973445D01*
X106031326Y-66859277D01*
X105940723Y-66768674D01*
X105826555Y-66710502D01*
X105700000Y-66690458D01*
X105573444Y-66710502D01*
X105459278Y-66768673D01*
X105368673Y-66859278D01*
X105310502Y-66973444D01*
X105310501Y-66973445D01*
X105310502Y-66973445D01*
X105290458Y-67100000D01*
X94521190Y-67100000D01*
X94521190Y-66200000D01*
X102190458Y-66200000D01*
X102210502Y-66326555D01*
X102268674Y-66440723D01*
X102359277Y-66531326D01*
X102473445Y-66589498D01*
X102600000Y-66609542D01*
X102726555Y-66589498D01*
X102840723Y-66531326D01*
X102931326Y-66440723D01*
X102989498Y-66326555D01*
X103009542Y-66200000D01*
X103190458Y-66200000D01*
X103210502Y-66326555D01*
X103268674Y-66440723D01*
X103359277Y-66531326D01*
X103473445Y-66589498D01*
X103600000Y-66609542D01*
X103726555Y-66589498D01*
X103840723Y-66531326D01*
X103931326Y-66440723D01*
X103989498Y-66326555D01*
X104009542Y-66200000D01*
X103989498Y-66073445D01*
X103931326Y-65959277D01*
X103840723Y-65868674D01*
X103726555Y-65810502D01*
X103600000Y-65790458D01*
X103473444Y-65810502D01*
X103359278Y-65868673D01*
X103268673Y-65959278D01*
X103210502Y-66073444D01*
X103200040Y-66139497D01*
X103190458Y-66200000D01*
X103009542Y-66200000D01*
X102989498Y-66073445D01*
X102931326Y-65959277D01*
X102840723Y-65868674D01*
X102726555Y-65810502D01*
X102600000Y-65790458D01*
X102473444Y-65810502D01*
X102359278Y-65868673D01*
X102268673Y-65959278D01*
X102210502Y-66073444D01*
X102200040Y-66139497D01*
X102190458Y-66200000D01*
X94521190Y-66200000D01*
X94521190Y-65750000D01*
X97990458Y-65750000D01*
X98010502Y-65876555D01*
X98068674Y-65990723D01*
X98159277Y-66081326D01*
X98273445Y-66139498D01*
X98400000Y-66159542D01*
X98526555Y-66139498D01*
X98640723Y-66081326D01*
X98731326Y-65990723D01*
X98789498Y-65876555D01*
X98809542Y-65750000D01*
X98801623Y-65700000D01*
X100390458Y-65700000D01*
X100410502Y-65826555D01*
X100468674Y-65940723D01*
X100559277Y-66031326D01*
X100673445Y-66089498D01*
X100800000Y-66109542D01*
X100926555Y-66089498D01*
X101040723Y-66031326D01*
X101131326Y-65940723D01*
X101189498Y-65826555D01*
X101209542Y-65700000D01*
X105190458Y-65700000D01*
X105210502Y-65826555D01*
X105268674Y-65940723D01*
X105359277Y-66031326D01*
X105473445Y-66089498D01*
X105600000Y-66109542D01*
X105726555Y-66089498D01*
X105840723Y-66031326D01*
X105931326Y-65940723D01*
X105989498Y-65826555D01*
X106009542Y-65700000D01*
X105989498Y-65573445D01*
X105931326Y-65459277D01*
X105840723Y-65368674D01*
X105726555Y-65310502D01*
X105600000Y-65290458D01*
X105473444Y-65310502D01*
X105359278Y-65368673D01*
X105268673Y-65459278D01*
X105210502Y-65573444D01*
X105210501Y-65573445D01*
X105210502Y-65573445D01*
X105190458Y-65700000D01*
X101209542Y-65700000D01*
X101189498Y-65573445D01*
X101131326Y-65459277D01*
X101040723Y-65368674D01*
X100926555Y-65310502D01*
X100800000Y-65290458D01*
X100673444Y-65310502D01*
X100559278Y-65368673D01*
X100468673Y-65459278D01*
X100410502Y-65573444D01*
X100410501Y-65573445D01*
X100410502Y-65573445D01*
X100390458Y-65700000D01*
X98801623Y-65700000D01*
X98789498Y-65623445D01*
X98731326Y-65509277D01*
X98640723Y-65418674D01*
X98526555Y-65360502D01*
X98400000Y-65340458D01*
X98273444Y-65360502D01*
X98159278Y-65418673D01*
X98068673Y-65509278D01*
X98010502Y-65623444D01*
X98010501Y-65623445D01*
X98010502Y-65623445D01*
X97990458Y-65750000D01*
X94521190Y-65750000D01*
X94521190Y-64700000D01*
X99190458Y-64700000D01*
X99210502Y-64826555D01*
X99268674Y-64940723D01*
X99359277Y-65031326D01*
X99473445Y-65089498D01*
X99600000Y-65109542D01*
X99726555Y-65089498D01*
X99840723Y-65031326D01*
X99931326Y-64940723D01*
X99989498Y-64826555D01*
X99993704Y-64800000D01*
X107890458Y-64800000D01*
X107910502Y-64926555D01*
X107968674Y-65040723D01*
X108059277Y-65131326D01*
X108173445Y-65189498D01*
X108300000Y-65209542D01*
X108426555Y-65189498D01*
X108540723Y-65131326D01*
X108631326Y-65040723D01*
X108689498Y-64926555D01*
X108709542Y-64800000D01*
X108689498Y-64673445D01*
X108664814Y-64625000D01*
X111215458Y-64625000D01*
X111235502Y-64751555D01*
X111293674Y-64865723D01*
X111384277Y-64956326D01*
X111498445Y-65014498D01*
X111625000Y-65034542D01*
X111751555Y-65014498D01*
X111865723Y-64956326D01*
X111956326Y-64865723D01*
X112014498Y-64751555D01*
X112034542Y-64625000D01*
X112014498Y-64498445D01*
X111956326Y-64384277D01*
X111865723Y-64293674D01*
X111751555Y-64235502D01*
X111625000Y-64215458D01*
X111498444Y-64235502D01*
X111384278Y-64293673D01*
X111293673Y-64384278D01*
X111235502Y-64498444D01*
X111223623Y-64573445D01*
X111215458Y-64625000D01*
X108664814Y-64625000D01*
X108631326Y-64559277D01*
X108540723Y-64468674D01*
X108426555Y-64410502D01*
X108300000Y-64390458D01*
X108173444Y-64410502D01*
X108059278Y-64468673D01*
X107968673Y-64559278D01*
X107910502Y-64673444D01*
X107910501Y-64673445D01*
X107910502Y-64673445D01*
X107890458Y-64800000D01*
X99993704Y-64800000D01*
X100009542Y-64700000D01*
X99989498Y-64573445D01*
X99931326Y-64459277D01*
X99840723Y-64368674D01*
X99726555Y-64310502D01*
X99600000Y-64290458D01*
X99473444Y-64310502D01*
X99359278Y-64368673D01*
X99268673Y-64459278D01*
X99210502Y-64573444D01*
X99202336Y-64625000D01*
X99190458Y-64700000D01*
X94521190Y-64700000D01*
X94521190Y-64200000D01*
X105290458Y-64200000D01*
X105310502Y-64326555D01*
X105368674Y-64440723D01*
X105459277Y-64531326D01*
X105573445Y-64589498D01*
X105700000Y-64609542D01*
X105826555Y-64589498D01*
X105940723Y-64531326D01*
X106031326Y-64440723D01*
X106089498Y-64326555D01*
X106109542Y-64200000D01*
X106089498Y-64073445D01*
X106031326Y-63959277D01*
X105974372Y-63902323D01*
X105955221Y-63869153D01*
X105955221Y-63830847D01*
X105974372Y-63797676D01*
X106031326Y-63740723D01*
X106089498Y-63626555D01*
X106109542Y-63500000D01*
X106089498Y-63373445D01*
X106031326Y-63259277D01*
X105940723Y-63168674D01*
X105826555Y-63110502D01*
X105700000Y-63090458D01*
X105573444Y-63110502D01*
X105459278Y-63168673D01*
X105368673Y-63259278D01*
X105310502Y-63373444D01*
X105310501Y-63373445D01*
X105310502Y-63373445D01*
X105290458Y-63500000D01*
X105310502Y-63626555D01*
X105368674Y-63740723D01*
X105425624Y-63797673D01*
X105425625Y-63797674D01*
X105444778Y-63830848D01*
X105444778Y-63869152D01*
X105425625Y-63902326D01*
X105368674Y-63959277D01*
X105310502Y-64073444D01*
X105310501Y-64073445D01*
X105310502Y-64073445D01*
X105290458Y-64200000D01*
X94521190Y-64200000D01*
X94521190Y-62700000D01*
X97990458Y-62700000D01*
X98010502Y-62826555D01*
X98068674Y-62940723D01*
X98159277Y-63031326D01*
X98273445Y-63089498D01*
X98400000Y-63109542D01*
X98526555Y-63089498D01*
X98640723Y-63031326D01*
X98731326Y-62940723D01*
X98789498Y-62826555D01*
X98809542Y-62700000D01*
X99190458Y-62700000D01*
X99210502Y-62826555D01*
X99268674Y-62940723D01*
X99359277Y-63031326D01*
X99473445Y-63089498D01*
X99600000Y-63109542D01*
X99726555Y-63089498D01*
X99840723Y-63031326D01*
X99931326Y-62940723D01*
X99989498Y-62826555D01*
X100009542Y-62700000D01*
X99999683Y-62637750D01*
X100352708Y-62637750D01*
X100372752Y-62764305D01*
X100430924Y-62878473D01*
X100521527Y-62969076D01*
X100635695Y-63027248D01*
X100762250Y-63047292D01*
X100888805Y-63027248D01*
X101002973Y-62969076D01*
X101093576Y-62878473D01*
X101151748Y-62764305D01*
X101171792Y-62637750D01*
X101151748Y-62511195D01*
X101093576Y-62397027D01*
X101002973Y-62306424D01*
X100888805Y-62248252D01*
X100762250Y-62228208D01*
X100635694Y-62248252D01*
X100521528Y-62306423D01*
X100430923Y-62397028D01*
X100372752Y-62511194D01*
X100372751Y-62511195D01*
X100372752Y-62511195D01*
X100352708Y-62637750D01*
X99999683Y-62637750D01*
X99989498Y-62573445D01*
X99931326Y-62459277D01*
X99840723Y-62368674D01*
X99726555Y-62310502D01*
X99600000Y-62290458D01*
X99473444Y-62310502D01*
X99359278Y-62368673D01*
X99268673Y-62459278D01*
X99210502Y-62573444D01*
X99201126Y-62632641D01*
X99190458Y-62700000D01*
X98809542Y-62700000D01*
X98789498Y-62573445D01*
X98731326Y-62459277D01*
X98640723Y-62368674D01*
X98526555Y-62310502D01*
X98400000Y-62290458D01*
X98273444Y-62310502D01*
X98159278Y-62368673D01*
X98068673Y-62459278D01*
X98010502Y-62573444D01*
X98001126Y-62632641D01*
X97990458Y-62700000D01*
X94521190Y-62700000D01*
X94521190Y-61200000D01*
X97890458Y-61200000D01*
X97910502Y-61326555D01*
X97968674Y-61440723D01*
X98059277Y-61531326D01*
X98173445Y-61589498D01*
X98300000Y-61609542D01*
X98426555Y-61589498D01*
X98504074Y-61550000D01*
X102590458Y-61550000D01*
X102610502Y-61676555D01*
X102668674Y-61790723D01*
X102759277Y-61881326D01*
X102873445Y-61939498D01*
X103000000Y-61959542D01*
X103126555Y-61939498D01*
X103240723Y-61881326D01*
X103322049Y-61800000D01*
X104940458Y-61800000D01*
X104960502Y-61926555D01*
X105018674Y-62040723D01*
X105109277Y-62131326D01*
X105223445Y-62189498D01*
X105350000Y-62209542D01*
X105476555Y-62189498D01*
X105590723Y-62131326D01*
X105622676Y-62099372D01*
X105655847Y-62080221D01*
X105694153Y-62080221D01*
X105727323Y-62099372D01*
X105759277Y-62131326D01*
X105873445Y-62189498D01*
X106000000Y-62209542D01*
X106126555Y-62189498D01*
X106240723Y-62131326D01*
X106331326Y-62040723D01*
X106389498Y-61926555D01*
X106409542Y-61800000D01*
X106393704Y-61700000D01*
X110590458Y-61700000D01*
X110610502Y-61826555D01*
X110668674Y-61940723D01*
X110759277Y-62031326D01*
X110873445Y-62089498D01*
X111000000Y-62109542D01*
X111126555Y-62089498D01*
X111240723Y-62031326D01*
X111331326Y-61940723D01*
X111389498Y-61826555D01*
X111409542Y-61700000D01*
X111389498Y-61573445D01*
X111331326Y-61459277D01*
X111240723Y-61368674D01*
X111126555Y-61310502D01*
X111000000Y-61290458D01*
X110873444Y-61310502D01*
X110759278Y-61368673D01*
X110668673Y-61459278D01*
X110610502Y-61573444D01*
X110610501Y-61573445D01*
X110610502Y-61573445D01*
X110590458Y-61700000D01*
X106393704Y-61700000D01*
X106389498Y-61673445D01*
X106331326Y-61559277D01*
X106240723Y-61468674D01*
X106126555Y-61410502D01*
X106000000Y-61390458D01*
X105873444Y-61410502D01*
X105759277Y-61468674D01*
X105727325Y-61500626D01*
X105694152Y-61519778D01*
X105655848Y-61519778D01*
X105622675Y-61500626D01*
X105590723Y-61468674D01*
X105476555Y-61410502D01*
X105350000Y-61390458D01*
X105223444Y-61410502D01*
X105109278Y-61468673D01*
X105018673Y-61559278D01*
X104960502Y-61673444D01*
X104951335Y-61731326D01*
X104940458Y-61800000D01*
X103322049Y-61800000D01*
X103331326Y-61790723D01*
X103389498Y-61676555D01*
X103409542Y-61550000D01*
X103389498Y-61423445D01*
X103331326Y-61309277D01*
X103240723Y-61218674D01*
X103204074Y-61200000D01*
X103790458Y-61200000D01*
X103810502Y-61326555D01*
X103868674Y-61440723D01*
X103959277Y-61531326D01*
X104073445Y-61589498D01*
X104200000Y-61609542D01*
X104326555Y-61589498D01*
X104440723Y-61531326D01*
X104531326Y-61440723D01*
X104589498Y-61326555D01*
X104609542Y-61200000D01*
X104589498Y-61073445D01*
X104531326Y-60959277D01*
X104440723Y-60868674D01*
X104326555Y-60810502D01*
X104200000Y-60790458D01*
X104073444Y-60810502D01*
X103959278Y-60868673D01*
X103868673Y-60959278D01*
X103810502Y-61073444D01*
X103807103Y-61094904D01*
X103790458Y-61200000D01*
X103204074Y-61200000D01*
X103126555Y-61160502D01*
X103000000Y-61140458D01*
X102873444Y-61160502D01*
X102759278Y-61218673D01*
X102668673Y-61309278D01*
X102610502Y-61423444D01*
X102598278Y-61500626D01*
X102590458Y-61550000D01*
X98504074Y-61550000D01*
X98540723Y-61531326D01*
X98631326Y-61440723D01*
X98689498Y-61326555D01*
X98709542Y-61200000D01*
X98689498Y-61073445D01*
X98631326Y-60959277D01*
X98540723Y-60868674D01*
X98426555Y-60810502D01*
X98300000Y-60790458D01*
X98173444Y-60810502D01*
X98059278Y-60868673D01*
X97968673Y-60959278D01*
X97910502Y-61073444D01*
X97907103Y-61094904D01*
X97890458Y-61200000D01*
X94521190Y-61200000D01*
X94521190Y-60700000D01*
X112590458Y-60700000D01*
X112610502Y-60826555D01*
X112668674Y-60940723D01*
X112759277Y-61031326D01*
X112873445Y-61089498D01*
X113000000Y-61109542D01*
X113126555Y-61089498D01*
X113240723Y-61031326D01*
X113331326Y-60940723D01*
X113389498Y-60826555D01*
X113409542Y-60700000D01*
X113389498Y-60573445D01*
X113331326Y-60459277D01*
X113240723Y-60368674D01*
X113126555Y-60310502D01*
X113000000Y-60290458D01*
X112873444Y-60310502D01*
X112759278Y-60368673D01*
X112668673Y-60459278D01*
X112610502Y-60573444D01*
X112610501Y-60573445D01*
X112610502Y-60573445D01*
X112590458Y-60700000D01*
X94521190Y-60700000D01*
X94521190Y-58700000D01*
X114070458Y-58700000D01*
X114090502Y-58826555D01*
X114148674Y-58940723D01*
X114239277Y-59031326D01*
X114353445Y-59089498D01*
X114480000Y-59109542D01*
X114606555Y-59089498D01*
X114720723Y-59031326D01*
X114811326Y-58940723D01*
X114869498Y-58826555D01*
X114889542Y-58700000D01*
X114869498Y-58573445D01*
X114811326Y-58459277D01*
X114720723Y-58368674D01*
X114606555Y-58310502D01*
X114480000Y-58290458D01*
X114353444Y-58310502D01*
X114239278Y-58368673D01*
X114148673Y-58459278D01*
X114090502Y-58573444D01*
X114090501Y-58573445D01*
X114090502Y-58573445D01*
X114070458Y-58700000D01*
X94521190Y-58700000D01*
X94521190Y-57000000D01*
X105690458Y-57000000D01*
X105710502Y-57126555D01*
X105768674Y-57240723D01*
X105859277Y-57331326D01*
X105973445Y-57389498D01*
X106100000Y-57409542D01*
X106226555Y-57389498D01*
X106340723Y-57331326D01*
X106431326Y-57240723D01*
X106489498Y-57126555D01*
X106509542Y-57000000D01*
X106489498Y-56873445D01*
X106452076Y-56800000D01*
X110690458Y-56800000D01*
X110710502Y-56926555D01*
X110768674Y-57040723D01*
X110859277Y-57131326D01*
X110973445Y-57189498D01*
X111100000Y-57209542D01*
X111226555Y-57189498D01*
X111340723Y-57131326D01*
X111431326Y-57040723D01*
X111489498Y-56926555D01*
X111509542Y-56800000D01*
X111489498Y-56673445D01*
X111452076Y-56600000D01*
X112365566Y-56600000D01*
X112385610Y-56726555D01*
X112443782Y-56840723D01*
X112534385Y-56931326D01*
X112648553Y-56989498D01*
X112775108Y-57009542D01*
X112901663Y-56989498D01*
X113015831Y-56931326D01*
X113106434Y-56840723D01*
X113164606Y-56726555D01*
X113184650Y-56600000D01*
X113164606Y-56473445D01*
X113106434Y-56359277D01*
X113015831Y-56268674D01*
X112901663Y-56210502D01*
X112775108Y-56190458D01*
X112648552Y-56210502D01*
X112534386Y-56268673D01*
X112443781Y-56359278D01*
X112385610Y-56473444D01*
X112372015Y-56559278D01*
X112365566Y-56600000D01*
X111452076Y-56600000D01*
X111431326Y-56559277D01*
X111340723Y-56468674D01*
X111226555Y-56410502D01*
X111100000Y-56390458D01*
X110973444Y-56410502D01*
X110859278Y-56468673D01*
X110768673Y-56559278D01*
X110710502Y-56673444D01*
X110710501Y-56673445D01*
X110710502Y-56673445D01*
X110690458Y-56800000D01*
X106452076Y-56800000D01*
X106431326Y-56759277D01*
X106340723Y-56668674D01*
X106226555Y-56610502D01*
X106100000Y-56590458D01*
X105973444Y-56610502D01*
X105859278Y-56668673D01*
X105768673Y-56759278D01*
X105710502Y-56873444D01*
X105710501Y-56873445D01*
X105710502Y-56873445D01*
X105690458Y-57000000D01*
X94521190Y-57000000D01*
X94521190Y-56472452D01*
X94521547Y-56465196D01*
X94531224Y-56366987D01*
X94533869Y-56340146D01*
X94536698Y-56325925D01*
X94536701Y-56325917D01*
X94572277Y-56208646D01*
X94577828Y-56195248D01*
X94577830Y-56195245D01*
X94635603Y-56087161D01*
X94643655Y-56075109D01*
X94721412Y-55980363D01*
X94731657Y-55970118D01*
X94826403Y-55892359D01*
X94838450Y-55884309D01*
X94946544Y-55826529D01*
X94959926Y-55820984D01*
X95077218Y-55785399D01*
X95091440Y-55782570D01*
X95216636Y-55770232D01*
X95223895Y-55769875D01*
X115479269Y-55769875D01*
X115479287Y-55769877D01*
G37*
%TD.AperFunction*%
%TD*%
M02*
