M48
; DRILL file {KiCad 7.0.1} date Tue Jan  2 21:49:54 2024
; FORMAT={-:-/ absolute / inch / decimal}
; #@! TF.CreationDate,2024-01-02T21:49:54+00:00
; #@! TF.GenerationSoftware,Kicad,Pcbnew,7.0.1
; #@! TF.FileFunction,Plated,1,8,PTH
FMAT,2
INCH
; #@! TA.AperFunction,Plated,PTH,ViaDrill
T1C0.0118
%
G90
G05
T1
X3.7819Y-2.5157
X3.8031Y-2.7008
X3.8071Y-2.6142
X3.8189Y-2.6378
X3.8224Y-2.3902
X3.8819Y-2.5669
X3.8839Y-2.6161
X3.9055Y-2.4173
X3.9154Y-2.3878
X3.9449Y-2.4016
X3.9724Y-2.5472
X3.9724Y-2.5945
X3.9803Y-2.5709
X3.9902Y-2.437
X3.9902Y-2.4606
X3.9902Y-2.4843
X4.0138Y-2.437
X4.0138Y-2.4606
X4.0138Y-2.4843
X4.0157Y-2.689
X4.0236Y-2.3583
X4.0236Y-2.5551
X4.0374Y-2.437
X4.0374Y-2.4606
X4.0374Y-2.4843
X4.0512Y-2.3303
X4.0512Y-2.5551
X4.0728Y-2.4016
X4.0787Y-2.5551
X4.0984Y-2.5197
X4.1024Y-2.5906
X4.122Y-2.4134
X4.126Y-2.5197
X4.1339Y-2.5906
X4.1535Y-2.4488
X4.1575Y-2.5118
X4.161Y-2.3106
X4.1614Y-2.4843
X4.1654Y-2.5906
X4.1732Y-2.4094
X4.2126Y-2.5472
X4.2323Y-2.5669
X4.2362Y-2.2106
X4.2362Y-2.5394
X4.2598Y-2.6339
X4.2854Y-2.3799
X4.3031Y-2.6102
X4.3543Y-2.5748
X4.3858Y-2.5472
X4.4402Y-2.1819
X4.4449Y-2.3346
X4.4567Y-2.3858
X4.4744Y-2.4319
X4.4756Y-2.4559
X4.4764Y-2.2402
X4.4996Y-2.4293
X4.5039Y-2.248
X4.5512Y-2.3386
X4.5551Y-2.3701
X4.5591Y-2.2992
T0
M30
