%TF.GenerationSoftware,KiCad,Pcbnew,7.0.1*%
%TF.CreationDate,2024-01-06T01:51:29+00:00*%
%TF.ProjectId,rfid_module,72666964-5f6d-46f6-9475-6c652e6b6963,rev?*%
%TF.SameCoordinates,Original*%
%TF.FileFunction,Legend,Bot*%
%TF.FilePolarity,Positive*%
%FSLAX46Y46*%
G04 Gerber Fmt 4.6, Leading zero omitted, Abs format (unit mm)*
G04 Created by KiCad (PCBNEW 7.0.1) date 2024-01-06 01:51:29*
%MOMM*%
%LPD*%
G01*
G04 APERTURE LIST*
G04 Aperture macros list*
%AMRoundRect*
0 Rectangle with rounded corners*
0 $1 Rounding radius*
0 $2 $3 $4 $5 $6 $7 $8 $9 X,Y pos of 4 corners*
0 Add a 4 corners polygon primitive as box body*
4,1,4,$2,$3,$4,$5,$6,$7,$8,$9,$2,$3,0*
0 Add four circle primitives for the rounded corners*
1,1,$1+$1,$2,$3*
1,1,$1+$1,$4,$5*
1,1,$1+$1,$6,$7*
1,1,$1+$1,$8,$9*
0 Add four rect primitives between the rounded corners*
20,1,$1+$1,$2,$3,$4,$5,0*
20,1,$1+$1,$4,$5,$6,$7,0*
20,1,$1+$1,$6,$7,$8,$9,0*
20,1,$1+$1,$8,$9,$2,$3,0*%
G04 Aperture macros list end*
%ADD10C,0.160000*%
%ADD11C,0.120000*%
%ADD12RoundRect,0.140000X0.140000X0.170000X-0.140000X0.170000X-0.140000X-0.170000X0.140000X-0.170000X0*%
%ADD13RoundRect,0.140000X-0.170000X0.140000X-0.170000X-0.140000X0.170000X-0.140000X0.170000X0.140000X0*%
%ADD14RoundRect,0.135000X-0.185000X0.135000X-0.185000X-0.135000X0.185000X-0.135000X0.185000X0.135000X0*%
%ADD15RoundRect,0.140000X0.170000X-0.140000X0.170000X0.140000X-0.170000X0.140000X-0.170000X-0.140000X0*%
%ADD16RoundRect,0.135000X0.185000X-0.135000X0.185000X0.135000X-0.185000X0.135000X-0.185000X-0.135000X0*%
%ADD17C,2.000000*%
%ADD18RoundRect,0.062500X0.062500X0.137500X-0.062500X0.137500X-0.062500X-0.137500X0.062500X-0.137500X0*%
%ADD19RoundRect,0.100000X-0.250000X0.100000X-0.250000X-0.100000X0.250000X-0.100000X0.250000X0.100000X0*%
G04 APERTURE END LIST*
D10*
G36*
X103097451Y-57620000D02*
G01*
X102791269Y-57620000D01*
X102780150Y-57619932D01*
X102769314Y-57619731D01*
X102758761Y-57619395D01*
X102748490Y-57618925D01*
X102738501Y-57618320D01*
X102728794Y-57617581D01*
X102719370Y-57616708D01*
X102710229Y-57615701D01*
X102701370Y-57614559D01*
X102692793Y-57613283D01*
X102684499Y-57611872D01*
X102676487Y-57610327D01*
X102668757Y-57608648D01*
X102657692Y-57605878D01*
X102647263Y-57602805D01*
X102642798Y-57601334D01*
X102634040Y-57598284D01*
X102625513Y-57595090D01*
X102617216Y-57591753D01*
X102609150Y-57588273D01*
X102601315Y-57584649D01*
X102593710Y-57580881D01*
X102586335Y-57576970D01*
X102579191Y-57572916D01*
X102572277Y-57568718D01*
X102565594Y-57564377D01*
X102559142Y-57559892D01*
X102549895Y-57552895D01*
X102541167Y-57545576D01*
X102532957Y-57537934D01*
X102526049Y-57530939D01*
X102519344Y-57523679D01*
X102512842Y-57516156D01*
X102506543Y-57508368D01*
X102500446Y-57500317D01*
X102494553Y-57492001D01*
X102488863Y-57483421D01*
X102483376Y-57474577D01*
X102478092Y-57465469D01*
X102473011Y-57456097D01*
X102468133Y-57446461D01*
X102463458Y-57436561D01*
X102458986Y-57426397D01*
X102454717Y-57415968D01*
X102450651Y-57405276D01*
X102446789Y-57394319D01*
X102443784Y-57385126D01*
X102440973Y-57375717D01*
X102438355Y-57366093D01*
X102435932Y-57356254D01*
X102433702Y-57346199D01*
X102431667Y-57335930D01*
X102429825Y-57325445D01*
X102428177Y-57314745D01*
X102426723Y-57303829D01*
X102425463Y-57292699D01*
X102424397Y-57281353D01*
X102423524Y-57269792D01*
X102422846Y-57258016D01*
X102422361Y-57246024D01*
X102422070Y-57233817D01*
X102421973Y-57221395D01*
X102422029Y-57213775D01*
X102590208Y-57213775D01*
X102590273Y-57225393D01*
X102590467Y-57236703D01*
X102590792Y-57247705D01*
X102591246Y-57258398D01*
X102591830Y-57268783D01*
X102592544Y-57278859D01*
X102593387Y-57288628D01*
X102594360Y-57298087D01*
X102595463Y-57307239D01*
X102596696Y-57316082D01*
X102598058Y-57324617D01*
X102599550Y-57332843D01*
X102601172Y-57340761D01*
X102603848Y-57352060D01*
X102606816Y-57362665D01*
X102608906Y-57369360D01*
X102612184Y-57378952D01*
X102615634Y-57388005D01*
X102619255Y-57396519D01*
X102623048Y-57404494D01*
X102627013Y-57411930D01*
X102631149Y-57418826D01*
X102636932Y-57427182D01*
X102643019Y-57434579D01*
X102649412Y-57441018D01*
X102656120Y-57446715D01*
X102663249Y-57451985D01*
X102670799Y-57456827D01*
X102678770Y-57461242D01*
X102687163Y-57465229D01*
X102695977Y-57468789D01*
X102705213Y-57471921D01*
X102714869Y-57474626D01*
X102718803Y-57475573D01*
X102727559Y-57477282D01*
X102737500Y-57478748D01*
X102745733Y-57479687D01*
X102754632Y-57480488D01*
X102764198Y-57481152D01*
X102774430Y-57481679D01*
X102785328Y-57482068D01*
X102796892Y-57482320D01*
X102804972Y-57482411D01*
X102813348Y-57482442D01*
X102934688Y-57482442D01*
X102934688Y-56944717D01*
X102861611Y-56944717D01*
X102855459Y-56944725D01*
X102843538Y-56944786D01*
X102832129Y-56944908D01*
X102821231Y-56945091D01*
X102810845Y-56945335D01*
X102800969Y-56945640D01*
X102791606Y-56946007D01*
X102782754Y-56946434D01*
X102774413Y-56946923D01*
X102766583Y-56947472D01*
X102755798Y-56948411D01*
X102746163Y-56949487D01*
X102737679Y-56950701D01*
X102728156Y-56952533D01*
X102722504Y-56953850D01*
X102714264Y-56956095D01*
X102706309Y-56958663D01*
X102698639Y-56961554D01*
X102691253Y-56964768D01*
X102684153Y-56968304D01*
X102677339Y-56972164D01*
X102668695Y-56977812D01*
X102660559Y-56984034D01*
X102652929Y-56990830D01*
X102651086Y-56992610D01*
X102643973Y-57000166D01*
X102638910Y-57006290D01*
X102634081Y-57012806D01*
X102629485Y-57019713D01*
X102625123Y-57027012D01*
X102620995Y-57034702D01*
X102617100Y-57042784D01*
X102613438Y-57051257D01*
X102610011Y-57060122D01*
X102606816Y-57069378D01*
X102604805Y-57075850D01*
X102602032Y-57086196D01*
X102599550Y-57097308D01*
X102598058Y-57105141D01*
X102596696Y-57113315D01*
X102595463Y-57121829D01*
X102594360Y-57130683D01*
X102593387Y-57139878D01*
X102592544Y-57149414D01*
X102591830Y-57159290D01*
X102591246Y-57169506D01*
X102590792Y-57180062D01*
X102590467Y-57190959D01*
X102590273Y-57202197D01*
X102590208Y-57213775D01*
X102422029Y-57213775D01*
X102422077Y-57207250D01*
X102422386Y-57193390D01*
X102422901Y-57179815D01*
X102423622Y-57166526D01*
X102424549Y-57153522D01*
X102425683Y-57140804D01*
X102427022Y-57128371D01*
X102428568Y-57116224D01*
X102430320Y-57104362D01*
X102432277Y-57092786D01*
X102434441Y-57081495D01*
X102436811Y-57070490D01*
X102439387Y-57059770D01*
X102442169Y-57049335D01*
X102445157Y-57039186D01*
X102448352Y-57029323D01*
X102451744Y-57019672D01*
X102455325Y-57010211D01*
X102459095Y-57000939D01*
X102463055Y-56991856D01*
X102467204Y-56982962D01*
X102471543Y-56974258D01*
X102476070Y-56965743D01*
X102480787Y-56957418D01*
X102485693Y-56949281D01*
X102490789Y-56941334D01*
X102496074Y-56933576D01*
X102501548Y-56926008D01*
X102507211Y-56918629D01*
X102513064Y-56911439D01*
X102519106Y-56904438D01*
X102525337Y-56897627D01*
X102531742Y-56891014D01*
X102538303Y-56884658D01*
X102545022Y-56878558D01*
X102551898Y-56872714D01*
X102558932Y-56867127D01*
X102566123Y-56861796D01*
X102573470Y-56856722D01*
X102580976Y-56851905D01*
X102588638Y-56847343D01*
X102596457Y-56843039D01*
X102604434Y-56838990D01*
X102612568Y-56835198D01*
X102620860Y-56831663D01*
X102629308Y-56828384D01*
X102637914Y-56825362D01*
X102646677Y-56822595D01*
X102656989Y-56819837D01*
X102668144Y-56817350D01*
X102676047Y-56815842D01*
X102684325Y-56814455D01*
X102692976Y-56813189D01*
X102702002Y-56812043D01*
X102711401Y-56811018D01*
X102721175Y-56810114D01*
X102731322Y-56809330D01*
X102741844Y-56808667D01*
X102752739Y-56808124D01*
X102764009Y-56807702D01*
X102775652Y-56807400D01*
X102787670Y-56807220D01*
X102800061Y-56807159D01*
X103097451Y-56807159D01*
X103097451Y-57620000D01*
G37*
G36*
X102081488Y-57020071D02*
G01*
X102095525Y-57021040D01*
X102109246Y-57022654D01*
X102122654Y-57024914D01*
X102135747Y-57027820D01*
X102148525Y-57031371D01*
X102160989Y-57035568D01*
X102173139Y-57040411D01*
X102184974Y-57045900D01*
X102196495Y-57052034D01*
X102207701Y-57058814D01*
X102218592Y-57066240D01*
X102229170Y-57074311D01*
X102239432Y-57083029D01*
X102249381Y-57092391D01*
X102259015Y-57102400D01*
X102268195Y-57112954D01*
X102276783Y-57124003D01*
X102284779Y-57135547D01*
X102292183Y-57147585D01*
X102298994Y-57160118D01*
X102305213Y-57173145D01*
X102310840Y-57186667D01*
X102315874Y-57200683D01*
X102320317Y-57215194D01*
X102324166Y-57230200D01*
X102325869Y-57237888D01*
X102327424Y-57245700D01*
X102328831Y-57253636D01*
X102330089Y-57261695D01*
X102331200Y-57269878D01*
X102332162Y-57278185D01*
X102332977Y-57286615D01*
X102333643Y-57295169D01*
X102334161Y-57303846D01*
X102334531Y-57312647D01*
X102334754Y-57321572D01*
X102334828Y-57330621D01*
X102334602Y-57345698D01*
X102333927Y-57360449D01*
X102332801Y-57374873D01*
X102331225Y-57388970D01*
X102329199Y-57402741D01*
X102326722Y-57416185D01*
X102323795Y-57429302D01*
X102320417Y-57442093D01*
X102316590Y-57454557D01*
X102312311Y-57466694D01*
X102307583Y-57478505D01*
X102302404Y-57489989D01*
X102296775Y-57501146D01*
X102290696Y-57511977D01*
X102284166Y-57522481D01*
X102277186Y-57532658D01*
X102267742Y-57544749D01*
X102257677Y-57556060D01*
X102246993Y-57566590D01*
X102235689Y-57576341D01*
X102223766Y-57585312D01*
X102211222Y-57593502D01*
X102198059Y-57600913D01*
X102184276Y-57607543D01*
X102169874Y-57613393D01*
X102162440Y-57616026D01*
X102154851Y-57618464D01*
X102147108Y-57620706D01*
X102139209Y-57622754D01*
X102131155Y-57624607D01*
X102122947Y-57626264D01*
X102114584Y-57627727D01*
X102106065Y-57628995D01*
X102097392Y-57630067D01*
X102088564Y-57630945D01*
X102079580Y-57631627D01*
X102070442Y-57632115D01*
X102061149Y-57632407D01*
X102051701Y-57632505D01*
X102039810Y-57632343D01*
X102028172Y-57631857D01*
X102016785Y-57631048D01*
X102005649Y-57629916D01*
X101994766Y-57628459D01*
X101984135Y-57626680D01*
X101973755Y-57624576D01*
X101963627Y-57622149D01*
X101953752Y-57619398D01*
X101944128Y-57616324D01*
X101934756Y-57612926D01*
X101925635Y-57609204D01*
X101916767Y-57605159D01*
X101908151Y-57600790D01*
X101899786Y-57596097D01*
X101891673Y-57591081D01*
X101883797Y-57585731D01*
X101876188Y-57580084D01*
X101868849Y-57574141D01*
X101861778Y-57567903D01*
X101854976Y-57561367D01*
X101848442Y-57554536D01*
X101842178Y-57547409D01*
X101836181Y-57539986D01*
X101830454Y-57532266D01*
X101824995Y-57524250D01*
X101819805Y-57515938D01*
X101814883Y-57507330D01*
X101810231Y-57498426D01*
X101805846Y-57489226D01*
X101801731Y-57479729D01*
X101797884Y-57469937D01*
X101951855Y-57444926D01*
X101954343Y-57452136D01*
X101957991Y-57461156D01*
X101962018Y-57469499D01*
X101966424Y-57477163D01*
X101971208Y-57484150D01*
X101976370Y-57490459D01*
X101981912Y-57496091D01*
X101989371Y-57502177D01*
X101992493Y-57504330D01*
X102000693Y-57509105D01*
X102009456Y-57513012D01*
X102016872Y-57515512D01*
X102024648Y-57517457D01*
X102032785Y-57518846D01*
X102041281Y-57519680D01*
X102050138Y-57519958D01*
X102056737Y-57519803D01*
X102066378Y-57518994D01*
X102075710Y-57517491D01*
X102084733Y-57515294D01*
X102093447Y-57512403D01*
X102101852Y-57508818D01*
X102109947Y-57504540D01*
X102117734Y-57499568D01*
X102125211Y-57493901D01*
X102132379Y-57487542D01*
X102139238Y-57480488D01*
X102141439Y-57477990D01*
X102147643Y-57470126D01*
X102153245Y-57461705D01*
X102158247Y-57452728D01*
X102162647Y-57443195D01*
X102166447Y-57433105D01*
X102169645Y-57422459D01*
X102172242Y-57411256D01*
X102173640Y-57403478D01*
X102174770Y-57395453D01*
X102175633Y-57387181D01*
X102176229Y-57378662D01*
X102176558Y-57369895D01*
X101789678Y-57369895D01*
X101789547Y-57358871D01*
X101789570Y-57348027D01*
X101789747Y-57337361D01*
X101790078Y-57326875D01*
X101790562Y-57316567D01*
X101791200Y-57306438D01*
X101791992Y-57296489D01*
X101792938Y-57286718D01*
X101794038Y-57277126D01*
X101795006Y-57269853D01*
X101943062Y-57269853D01*
X102173823Y-57269853D01*
X102173765Y-57262018D01*
X102173185Y-57250652D01*
X102172015Y-57239750D01*
X102170254Y-57229312D01*
X102167903Y-57219337D01*
X102164961Y-57209826D01*
X102161427Y-57200778D01*
X102157304Y-57192194D01*
X102152589Y-57184074D01*
X102147283Y-57176418D01*
X102141387Y-57169225D01*
X102137192Y-57164753D01*
X102130643Y-57158586D01*
X102123790Y-57153068D01*
X102116630Y-57148200D01*
X102109165Y-57143980D01*
X102101394Y-57140410D01*
X102093317Y-57137489D01*
X102084935Y-57135217D01*
X102076247Y-57133594D01*
X102067253Y-57132620D01*
X102057954Y-57132295D01*
X102052099Y-57132433D01*
X102043525Y-57133154D01*
X102035203Y-57134494D01*
X102027131Y-57136451D01*
X102019309Y-57139027D01*
X102011739Y-57142222D01*
X102004419Y-57146034D01*
X101997350Y-57150465D01*
X101990531Y-57155514D01*
X101983964Y-57161181D01*
X101977647Y-57167466D01*
X101973642Y-57171965D01*
X101968096Y-57179188D01*
X101963102Y-57186981D01*
X101958662Y-57195345D01*
X101954774Y-57204278D01*
X101951440Y-57213782D01*
X101948658Y-57223856D01*
X101946430Y-57234500D01*
X101944754Y-57245714D01*
X101943944Y-57253507D01*
X101943380Y-57261553D01*
X101943062Y-57269853D01*
X101795006Y-57269853D01*
X101795291Y-57267714D01*
X101796699Y-57258480D01*
X101798260Y-57249425D01*
X101799975Y-57240549D01*
X101801843Y-57231853D01*
X101803866Y-57223335D01*
X101806042Y-57214996D01*
X101808372Y-57206836D01*
X101810856Y-57198855D01*
X101813493Y-57191054D01*
X101816285Y-57183431D01*
X101819230Y-57175987D01*
X101822329Y-57168722D01*
X101828988Y-57154729D01*
X101836263Y-57141452D01*
X101844153Y-57128891D01*
X101852658Y-57117046D01*
X101861778Y-57105917D01*
X101866533Y-57100616D01*
X101876366Y-57090518D01*
X101886627Y-57081093D01*
X101897317Y-57072342D01*
X101908436Y-57064263D01*
X101919984Y-57056858D01*
X101931961Y-57050126D01*
X101944367Y-57044067D01*
X101957202Y-57038682D01*
X101970466Y-57033970D01*
X101984159Y-57029930D01*
X101998281Y-57026564D01*
X102012832Y-57023872D01*
X102027811Y-57021852D01*
X102043220Y-57020506D01*
X102051085Y-57020085D01*
X102059058Y-57019832D01*
X102067137Y-57019748D01*
X102081488Y-57020071D01*
G37*
G36*
X101721290Y-57457431D02*
G01*
X101566342Y-57432421D01*
X101564297Y-57440299D01*
X101561897Y-57447813D01*
X101558148Y-57457265D01*
X101553770Y-57466070D01*
X101548763Y-57474228D01*
X101543127Y-57481738D01*
X101536863Y-57488601D01*
X101529969Y-57494817D01*
X101526286Y-57497683D01*
X101518336Y-57502903D01*
X101509629Y-57507428D01*
X101500164Y-57511256D01*
X101492569Y-57513671D01*
X101484548Y-57515694D01*
X101476101Y-57517326D01*
X101467228Y-57518565D01*
X101457929Y-57519414D01*
X101448205Y-57519871D01*
X101441485Y-57519958D01*
X101430534Y-57519764D01*
X101420101Y-57519181D01*
X101410187Y-57518211D01*
X101400791Y-57516853D01*
X101391914Y-57515106D01*
X101383556Y-57512972D01*
X101375716Y-57510449D01*
X101368395Y-57507538D01*
X101359441Y-57503053D01*
X101351408Y-57497878D01*
X101344502Y-57491785D01*
X101339025Y-57484936D01*
X101334977Y-57477332D01*
X101332357Y-57468972D01*
X101331167Y-57459856D01*
X101331087Y-57456650D01*
X101331771Y-57448236D01*
X101333823Y-57440579D01*
X101337766Y-57432870D01*
X101342029Y-57427536D01*
X101348447Y-57422824D01*
X101356136Y-57418904D01*
X101364087Y-57415721D01*
X101373439Y-57412614D01*
X101381932Y-57410184D01*
X101391321Y-57407803D01*
X101393809Y-57407215D01*
X101405350Y-57404645D01*
X101416624Y-57402089D01*
X101427631Y-57399547D01*
X101438371Y-57397018D01*
X101448844Y-57394503D01*
X101459049Y-57392002D01*
X101468987Y-57389514D01*
X101478659Y-57387041D01*
X101488063Y-57384581D01*
X101497200Y-57382134D01*
X101506070Y-57379702D01*
X101514672Y-57377283D01*
X101523008Y-57374878D01*
X101531076Y-57372487D01*
X101538878Y-57370109D01*
X101546412Y-57367745D01*
X101560679Y-57363059D01*
X101573877Y-57358428D01*
X101586007Y-57353851D01*
X101597068Y-57349330D01*
X101607060Y-57344863D01*
X101615984Y-57340451D01*
X101623840Y-57336095D01*
X101630627Y-57331793D01*
X101639003Y-57325713D01*
X101646838Y-57319343D01*
X101654133Y-57312682D01*
X101660888Y-57305732D01*
X101667103Y-57298492D01*
X101672777Y-57290962D01*
X101677911Y-57283141D01*
X101682504Y-57275031D01*
X101686557Y-57266630D01*
X101690069Y-57257940D01*
X101693041Y-57248960D01*
X101695473Y-57239689D01*
X101697364Y-57230128D01*
X101698715Y-57220278D01*
X101699526Y-57210137D01*
X101699796Y-57199706D01*
X101699563Y-57190276D01*
X101698862Y-57181037D01*
X101697694Y-57171989D01*
X101696059Y-57163131D01*
X101693957Y-57154464D01*
X101691388Y-57145988D01*
X101688352Y-57137703D01*
X101684849Y-57129609D01*
X101680878Y-57121705D01*
X101676440Y-57113992D01*
X101671536Y-57106471D01*
X101666164Y-57099139D01*
X101660325Y-57091999D01*
X101654019Y-57085050D01*
X101647246Y-57078291D01*
X101640006Y-57071723D01*
X101632250Y-57065429D01*
X101623980Y-57059542D01*
X101615196Y-57054060D01*
X101605897Y-57048984D01*
X101596084Y-57044315D01*
X101585756Y-57040051D01*
X101574914Y-57036193D01*
X101563558Y-57032742D01*
X101551687Y-57029697D01*
X101539301Y-57027057D01*
X101526401Y-57024824D01*
X101512987Y-57022997D01*
X101499058Y-57021576D01*
X101484615Y-57020560D01*
X101469658Y-57019951D01*
X101454186Y-57019748D01*
X101439454Y-57019909D01*
X101425203Y-57020389D01*
X101411433Y-57021191D01*
X101398144Y-57022313D01*
X101385336Y-57023755D01*
X101373008Y-57025519D01*
X101361162Y-57027602D01*
X101349796Y-57030006D01*
X101338911Y-57032731D01*
X101328507Y-57035777D01*
X101318584Y-57039143D01*
X101309142Y-57042829D01*
X101300181Y-57046836D01*
X101291700Y-57051164D01*
X101283700Y-57055812D01*
X101276181Y-57060781D01*
X101269021Y-57066064D01*
X101262147Y-57071656D01*
X101255557Y-57077556D01*
X101249254Y-57083764D01*
X101243235Y-57090281D01*
X101237503Y-57097106D01*
X101232055Y-57104240D01*
X101226893Y-57111681D01*
X101222017Y-57119431D01*
X101217426Y-57127490D01*
X101213120Y-57135857D01*
X101209100Y-57144532D01*
X101205365Y-57153516D01*
X101201916Y-57162807D01*
X101198753Y-57172408D01*
X101195874Y-57182316D01*
X101341639Y-57207327D01*
X101344246Y-57198507D01*
X101347378Y-57190218D01*
X101351036Y-57182460D01*
X101355218Y-57175233D01*
X101359926Y-57168538D01*
X101365159Y-57162374D01*
X101370917Y-57156741D01*
X101377200Y-57151639D01*
X101384045Y-57147106D01*
X101391586Y-57143176D01*
X101399823Y-57139852D01*
X101408756Y-57137131D01*
X101418386Y-57135016D01*
X101428711Y-57133504D01*
X101436912Y-57132768D01*
X101445504Y-57132371D01*
X101451450Y-57132295D01*
X101462577Y-57132445D01*
X101473095Y-57132893D01*
X101483006Y-57133640D01*
X101492309Y-57134686D01*
X101501004Y-57136031D01*
X101509091Y-57137674D01*
X101518928Y-57140330D01*
X101527684Y-57143518D01*
X101535359Y-57147236D01*
X101538791Y-57149295D01*
X101545643Y-57154941D01*
X101550813Y-57161279D01*
X101554299Y-57168308D01*
X101556102Y-57176030D01*
X101556377Y-57180753D01*
X101555412Y-57188654D01*
X101552518Y-57195945D01*
X101547694Y-57202625D01*
X101541890Y-57207969D01*
X101540941Y-57208695D01*
X101534114Y-57212752D01*
X101526894Y-57216056D01*
X101517875Y-57219582D01*
X101507056Y-57223333D01*
X101498843Y-57225957D01*
X101489831Y-57228680D01*
X101480018Y-57231502D01*
X101469406Y-57234424D01*
X101457994Y-57237445D01*
X101445781Y-57240565D01*
X101432769Y-57243785D01*
X101418957Y-57247103D01*
X101404346Y-57250521D01*
X101396740Y-57252267D01*
X101389106Y-57254026D01*
X101374275Y-57257620D01*
X101360023Y-57261314D01*
X101346352Y-57265109D01*
X101333260Y-57269005D01*
X101320749Y-57273001D01*
X101308818Y-57277098D01*
X101297466Y-57281296D01*
X101286695Y-57285595D01*
X101276504Y-57289994D01*
X101266893Y-57294494D01*
X101257862Y-57299095D01*
X101249412Y-57303797D01*
X101241541Y-57308599D01*
X101234250Y-57313503D01*
X101227540Y-57318507D01*
X101224402Y-57321046D01*
X101218558Y-57326328D01*
X101210498Y-57334731D01*
X101203287Y-57343712D01*
X101196924Y-57353270D01*
X101191410Y-57363404D01*
X101186744Y-57374116D01*
X101184105Y-57381577D01*
X101181842Y-57389295D01*
X101179957Y-57397270D01*
X101178449Y-57405501D01*
X101177318Y-57413988D01*
X101176564Y-57422732D01*
X101176187Y-57431733D01*
X101176140Y-57436329D01*
X101176401Y-57446280D01*
X101177187Y-57456058D01*
X101178496Y-57465661D01*
X101180328Y-57475090D01*
X101182684Y-57484345D01*
X101185564Y-57493427D01*
X101188968Y-57502334D01*
X101192895Y-57511067D01*
X101197345Y-57519626D01*
X101202319Y-57528012D01*
X101207817Y-57536223D01*
X101213838Y-57544260D01*
X101220383Y-57552123D01*
X101227452Y-57559812D01*
X101235044Y-57567327D01*
X101243160Y-57574668D01*
X101251788Y-57581672D01*
X101260919Y-57588224D01*
X101270552Y-57594323D01*
X101280688Y-57599972D01*
X101291325Y-57605168D01*
X101302465Y-57609912D01*
X101314107Y-57614205D01*
X101326251Y-57618046D01*
X101338898Y-57621434D01*
X101352046Y-57624371D01*
X101365697Y-57626857D01*
X101379850Y-57628890D01*
X101394506Y-57630471D01*
X101409663Y-57631601D01*
X101425323Y-57632279D01*
X101433341Y-57632448D01*
X101441485Y-57632505D01*
X101456214Y-57632321D01*
X101470553Y-57631769D01*
X101484503Y-57630849D01*
X101498064Y-57629562D01*
X101511235Y-57627906D01*
X101524018Y-57625883D01*
X101536411Y-57623491D01*
X101548414Y-57620732D01*
X101560029Y-57617605D01*
X101571254Y-57614110D01*
X101582090Y-57610247D01*
X101592537Y-57606017D01*
X101602594Y-57601418D01*
X101612263Y-57596451D01*
X101621542Y-57591117D01*
X101630431Y-57585415D01*
X101638915Y-57579396D01*
X101647024Y-57573114D01*
X101654760Y-57566568D01*
X101662122Y-57559757D01*
X101669109Y-57552682D01*
X101675723Y-57545344D01*
X101681963Y-57537741D01*
X101687828Y-57529874D01*
X101693320Y-57521743D01*
X101698438Y-57513348D01*
X101703181Y-57504689D01*
X101707551Y-57495765D01*
X101711547Y-57486578D01*
X101715168Y-57477127D01*
X101718416Y-57467411D01*
X101721290Y-57457431D01*
G37*
G36*
X101044053Y-56944717D02*
G01*
X101044053Y-56807159D01*
X100889496Y-56807159D01*
X100889496Y-56944717D01*
X101044053Y-56944717D01*
G37*
G36*
X101044053Y-57620000D02*
G01*
X101044053Y-57032254D01*
X100889496Y-57032254D01*
X100889496Y-57620000D01*
X101044053Y-57620000D01*
G37*
G36*
X100534356Y-57020053D02*
G01*
X100547071Y-57020966D01*
X100559519Y-57022489D01*
X100571700Y-57024621D01*
X100583613Y-57027362D01*
X100595260Y-57030712D01*
X100606639Y-57034671D01*
X100617752Y-57039239D01*
X100628597Y-57044416D01*
X100639175Y-57050202D01*
X100649486Y-57056598D01*
X100659529Y-57063602D01*
X100669306Y-57071216D01*
X100678815Y-57079438D01*
X100688058Y-57088270D01*
X100697033Y-57097711D01*
X100705574Y-57107728D01*
X100713565Y-57118288D01*
X100721004Y-57129392D01*
X100727893Y-57141039D01*
X100734230Y-57153230D01*
X100740016Y-57165964D01*
X100745252Y-57179242D01*
X100749936Y-57193063D01*
X100754069Y-57207428D01*
X100757651Y-57222336D01*
X100759235Y-57229993D01*
X100760682Y-57237787D01*
X100761990Y-57245716D01*
X100763162Y-57253782D01*
X100764195Y-57261983D01*
X100765090Y-57270320D01*
X100765848Y-57278793D01*
X100766468Y-57287402D01*
X100766950Y-57296146D01*
X100767295Y-57305027D01*
X100767501Y-57314043D01*
X100767570Y-57323196D01*
X100767359Y-57337749D01*
X100766727Y-57352001D01*
X100765674Y-57365953D01*
X100764200Y-57379603D01*
X100762304Y-57392954D01*
X100759986Y-57406003D01*
X100757248Y-57418752D01*
X100754088Y-57431200D01*
X100750507Y-57443347D01*
X100746504Y-57455194D01*
X100742080Y-57466739D01*
X100737235Y-57477984D01*
X100731969Y-57488929D01*
X100726281Y-57499573D01*
X100720172Y-57509915D01*
X100713641Y-57519958D01*
X100704877Y-57532072D01*
X100695729Y-57543405D01*
X100686198Y-57553956D01*
X100676284Y-57563726D01*
X100665987Y-57572714D01*
X100655307Y-57580921D01*
X100644244Y-57588346D01*
X100632797Y-57594989D01*
X100620967Y-57600851D01*
X100608754Y-57605931D01*
X100596158Y-57610230D01*
X100583179Y-57613747D01*
X100569817Y-57616482D01*
X100556071Y-57618436D01*
X100541942Y-57619609D01*
X100527431Y-57620000D01*
X100514383Y-57619663D01*
X100501617Y-57618653D01*
X100489134Y-57616970D01*
X100476933Y-57614614D01*
X100465015Y-57611585D01*
X100453379Y-57607882D01*
X100442026Y-57603506D01*
X100430955Y-57598457D01*
X100420166Y-57592735D01*
X100409660Y-57586340D01*
X100399436Y-57579271D01*
X100389494Y-57571530D01*
X100379835Y-57563115D01*
X100370459Y-57554026D01*
X100361364Y-57544265D01*
X100352553Y-57533831D01*
X100352553Y-57618241D01*
X100352616Y-57627556D01*
X100352807Y-57636305D01*
X100353125Y-57644487D01*
X100353746Y-57654515D01*
X100354593Y-57663535D01*
X100355666Y-57671548D01*
X100357325Y-57680147D01*
X100359782Y-57688387D01*
X100362527Y-57694848D01*
X100366396Y-57702270D01*
X100370751Y-57708968D01*
X100376620Y-57716048D01*
X100383189Y-57722084D01*
X100390459Y-57727076D01*
X100396402Y-57730288D01*
X100405149Y-57734080D01*
X100414837Y-57737310D01*
X100422719Y-57739364D01*
X100431131Y-57741102D01*
X100440071Y-57742524D01*
X100449540Y-57743630D01*
X100459539Y-57744420D01*
X100470066Y-57744894D01*
X100481122Y-57745052D01*
X100489767Y-57744928D01*
X100497968Y-57744557D01*
X100508214Y-57743678D01*
X100517672Y-57742359D01*
X100526343Y-57740601D01*
X100534226Y-57738402D01*
X100542972Y-57735036D01*
X100550487Y-57730983D01*
X100551465Y-57730357D01*
X100557692Y-57725073D01*
X100562835Y-57718218D01*
X100566379Y-57711092D01*
X100569127Y-57702812D01*
X100570808Y-57695031D01*
X100747249Y-57670020D01*
X100747296Y-57671303D01*
X100747542Y-57679595D01*
X100747640Y-57687606D01*
X100747398Y-57696738D01*
X100746672Y-57705668D01*
X100745462Y-57714396D01*
X100743769Y-57722923D01*
X100741591Y-57731249D01*
X100738930Y-57739373D01*
X100735784Y-57747296D01*
X100732155Y-57755017D01*
X100728042Y-57762537D01*
X100723445Y-57769855D01*
X100718364Y-57776971D01*
X100712799Y-57783886D01*
X100706750Y-57790600D01*
X100700217Y-57797112D01*
X100693200Y-57803423D01*
X100685700Y-57809532D01*
X100681732Y-57812489D01*
X100673292Y-57818122D01*
X100664179Y-57823379D01*
X100654392Y-57828261D01*
X100643933Y-57832767D01*
X100632800Y-57836898D01*
X100620994Y-57840653D01*
X100608514Y-57844033D01*
X100595362Y-57847037D01*
X100581536Y-57849666D01*
X100567037Y-57851919D01*
X100551865Y-57853797D01*
X100544027Y-57854595D01*
X100536020Y-57855299D01*
X100527845Y-57855909D01*
X100519502Y-57856425D01*
X100510990Y-57856848D01*
X100502310Y-57857176D01*
X100493462Y-57857411D01*
X100484445Y-57857552D01*
X100475260Y-57857599D01*
X100465524Y-57857534D01*
X100456002Y-57857339D01*
X100446693Y-57857015D01*
X100437598Y-57856561D01*
X100428717Y-57855977D01*
X100420049Y-57855263D01*
X100411595Y-57854420D01*
X100403355Y-57853447D01*
X100395329Y-57852344D01*
X100387516Y-57851111D01*
X100376198Y-57849019D01*
X100365360Y-57846635D01*
X100355003Y-57843959D01*
X100345128Y-57840990D01*
X100338785Y-57838865D01*
X100329574Y-57835490D01*
X100320728Y-57831892D01*
X100312245Y-57828071D01*
X100304127Y-57824027D01*
X100296373Y-57819759D01*
X100288982Y-57815269D01*
X100281956Y-57810555D01*
X100275294Y-57805617D01*
X100268996Y-57800457D01*
X100263062Y-57795073D01*
X100259257Y-57791323D01*
X100253753Y-57785375D01*
X100248493Y-57779038D01*
X100243477Y-57772314D01*
X100238704Y-57765201D01*
X100234176Y-57757700D01*
X100229891Y-57749812D01*
X100225850Y-57741535D01*
X100222053Y-57732869D01*
X100218500Y-57723816D01*
X100215190Y-57714375D01*
X100212153Y-57704278D01*
X100209413Y-57693256D01*
X100207753Y-57685396D01*
X100206226Y-57677124D01*
X100204832Y-57668442D01*
X100203570Y-57659349D01*
X100202441Y-57649846D01*
X100201445Y-57639932D01*
X100200582Y-57629607D01*
X100199851Y-57618872D01*
X100199254Y-57607726D01*
X100198789Y-57596170D01*
X100198457Y-57584203D01*
X100198258Y-57571825D01*
X100198191Y-57559036D01*
X100198191Y-57321632D01*
X100349817Y-57321632D01*
X100349855Y-57327340D01*
X100350161Y-57338491D01*
X100350771Y-57349290D01*
X100351687Y-57359736D01*
X100352908Y-57369829D01*
X100354435Y-57379570D01*
X100356267Y-57388958D01*
X100358404Y-57397994D01*
X100360846Y-57406676D01*
X100363594Y-57415007D01*
X100366647Y-57422984D01*
X100370005Y-57430609D01*
X100373669Y-57437882D01*
X100377638Y-57444801D01*
X100381912Y-57451368D01*
X100388896Y-57460558D01*
X100393849Y-57466236D01*
X100401533Y-57474067D01*
X100409522Y-57481074D01*
X100417818Y-57487257D01*
X100426419Y-57492615D01*
X100435325Y-57497148D01*
X100444538Y-57500858D01*
X100454056Y-57503743D01*
X100463879Y-57505804D01*
X100474009Y-57507040D01*
X100484444Y-57507452D01*
X100490973Y-57507274D01*
X100500525Y-57506336D01*
X100509784Y-57504595D01*
X100518751Y-57502050D01*
X100527427Y-57498701D01*
X100535810Y-57494548D01*
X100543902Y-57489592D01*
X100551701Y-57483832D01*
X100559209Y-57477269D01*
X100566424Y-57469901D01*
X100573348Y-57461730D01*
X100579773Y-57452694D01*
X100585566Y-57442730D01*
X100589077Y-57435572D01*
X100592308Y-57428002D01*
X100595257Y-57420020D01*
X100597925Y-57411625D01*
X100600313Y-57402819D01*
X100602419Y-57393600D01*
X100604245Y-57383969D01*
X100605790Y-57373926D01*
X100607054Y-57363471D01*
X100608037Y-57352604D01*
X100608739Y-57341325D01*
X100609160Y-57329633D01*
X100609301Y-57317529D01*
X100609160Y-57305993D01*
X100608739Y-57294833D01*
X100608037Y-57284048D01*
X100607054Y-57273639D01*
X100605790Y-57263605D01*
X100604245Y-57253947D01*
X100602419Y-57244664D01*
X100600313Y-57235757D01*
X100597925Y-57227225D01*
X100595257Y-57219069D01*
X100592308Y-57211288D01*
X100589077Y-57203883D01*
X100585566Y-57196853D01*
X100579773Y-57187013D01*
X100573348Y-57178018D01*
X100568754Y-57172481D01*
X100561580Y-57164846D01*
X100554065Y-57158014D01*
X100546211Y-57151986D01*
X100538016Y-57146762D01*
X100529482Y-57142342D01*
X100520607Y-57138725D01*
X100511392Y-57135912D01*
X100501838Y-57133903D01*
X100491943Y-57132697D01*
X100481708Y-57132295D01*
X100474653Y-57132478D01*
X100464360Y-57133436D01*
X100454414Y-57135214D01*
X100444815Y-57137814D01*
X100435562Y-57141234D01*
X100426657Y-57145475D01*
X100418098Y-57150537D01*
X100409887Y-57156420D01*
X100402022Y-57163124D01*
X100394504Y-57170649D01*
X100387333Y-57178995D01*
X100385025Y-57181950D01*
X100378540Y-57191396D01*
X100374583Y-57198178D01*
X100370920Y-57205348D01*
X100367549Y-57212906D01*
X100364472Y-57220852D01*
X100361687Y-57229185D01*
X100359196Y-57237906D01*
X100356998Y-57247015D01*
X100355093Y-57256511D01*
X100353481Y-57266395D01*
X100352162Y-57276667D01*
X100351136Y-57287327D01*
X100350403Y-57298374D01*
X100349964Y-57309810D01*
X100349817Y-57321632D01*
X100198191Y-57321632D01*
X100198191Y-57032254D01*
X100342783Y-57032254D01*
X100342783Y-57110216D01*
X100351724Y-57099261D01*
X100360961Y-57089012D01*
X100370494Y-57079471D01*
X100380323Y-57070636D01*
X100390448Y-57062508D01*
X100400870Y-57055087D01*
X100411588Y-57048373D01*
X100422602Y-57042365D01*
X100433911Y-57037064D01*
X100445518Y-57032470D01*
X100457420Y-57028583D01*
X100469618Y-57025403D01*
X100482113Y-57022929D01*
X100494904Y-57021162D01*
X100507990Y-57020102D01*
X100521373Y-57019748D01*
X100534356Y-57020053D01*
G37*
G36*
X99518219Y-57620000D02*
G01*
X99672581Y-57620000D01*
X99672581Y-57316552D01*
X99672620Y-57304777D01*
X99672736Y-57293532D01*
X99672931Y-57282819D01*
X99673203Y-57272637D01*
X99673554Y-57262987D01*
X99673982Y-57253867D01*
X99674488Y-57245279D01*
X99675072Y-57237222D01*
X99676094Y-57226133D01*
X99677291Y-57216239D01*
X99678663Y-57207540D01*
X99680765Y-57197801D01*
X99682546Y-57191891D01*
X99685904Y-57183347D01*
X99689873Y-57175423D01*
X99694453Y-57168120D01*
X99699643Y-57161437D01*
X99705443Y-57155373D01*
X99711855Y-57149930D01*
X99714590Y-57147927D01*
X99721771Y-57143424D01*
X99729390Y-57139684D01*
X99737448Y-57136707D01*
X99745945Y-57134494D01*
X99754881Y-57133043D01*
X99764256Y-57132356D01*
X99768128Y-57132295D01*
X99778060Y-57132646D01*
X99787729Y-57133700D01*
X99797135Y-57135455D01*
X99806279Y-57137913D01*
X99815160Y-57141073D01*
X99823779Y-57144935D01*
X99832135Y-57149499D01*
X99840229Y-57154766D01*
X99847880Y-57160566D01*
X99854908Y-57166831D01*
X99861313Y-57173560D01*
X99867096Y-57180753D01*
X99872255Y-57188410D01*
X99876792Y-57196531D01*
X99880706Y-57205116D01*
X99883997Y-57214166D01*
X99886745Y-57224378D01*
X99888565Y-57233324D01*
X99890180Y-57243372D01*
X99891588Y-57254522D01*
X99892412Y-57262569D01*
X99893145Y-57271105D01*
X99893786Y-57280131D01*
X99894336Y-57289648D01*
X99894793Y-57299654D01*
X99895160Y-57310150D01*
X99895435Y-57321137D01*
X99895618Y-57332613D01*
X99895709Y-57344579D01*
X99895721Y-57350746D01*
X99895721Y-57620000D01*
X100050082Y-57620000D01*
X100050082Y-57032254D01*
X99906663Y-57032254D01*
X99906663Y-57118032D01*
X99896959Y-57106130D01*
X99886946Y-57094996D01*
X99876626Y-57084631D01*
X99865996Y-57075033D01*
X99855059Y-57066203D01*
X99843813Y-57058140D01*
X99832259Y-57050846D01*
X99820396Y-57044319D01*
X99808225Y-57038560D01*
X99795746Y-57033569D01*
X99782959Y-57029346D01*
X99769863Y-57025891D01*
X99756458Y-57023204D01*
X99742745Y-57021284D01*
X99728724Y-57020132D01*
X99714395Y-57019748D01*
X99704875Y-57019911D01*
X99695513Y-57020401D01*
X99686310Y-57021217D01*
X99677264Y-57022359D01*
X99668376Y-57023827D01*
X99659646Y-57025622D01*
X99651075Y-57027742D01*
X99642661Y-57030190D01*
X99634405Y-57032963D01*
X99626307Y-57036063D01*
X99620996Y-57038311D01*
X99613228Y-57041880D01*
X99605824Y-57045629D01*
X99598785Y-57049556D01*
X99592109Y-57053661D01*
X99583774Y-57059413D01*
X99576086Y-57065483D01*
X99569046Y-57071870D01*
X99562653Y-57078574D01*
X99556907Y-57085596D01*
X99551693Y-57092899D01*
X99546893Y-57100446D01*
X99542509Y-57108237D01*
X99538540Y-57116273D01*
X99534986Y-57124553D01*
X99531848Y-57133077D01*
X99529125Y-57141845D01*
X99526816Y-57150858D01*
X99524801Y-57160438D01*
X99523467Y-57168273D01*
X99522283Y-57176664D01*
X99521250Y-57185611D01*
X99520368Y-57195115D01*
X99519638Y-57205175D01*
X99519059Y-57215791D01*
X99518630Y-57226964D01*
X99518353Y-57238694D01*
X99518253Y-57246822D01*
X99518219Y-57255198D01*
X99518219Y-57620000D01*
G37*
G36*
X99156827Y-57020071D02*
G01*
X99170863Y-57021040D01*
X99184585Y-57022654D01*
X99197992Y-57024914D01*
X99211085Y-57027820D01*
X99223864Y-57031371D01*
X99236328Y-57035568D01*
X99248477Y-57040411D01*
X99260312Y-57045900D01*
X99271833Y-57052034D01*
X99283039Y-57058814D01*
X99293931Y-57066240D01*
X99304508Y-57074311D01*
X99314771Y-57083029D01*
X99324719Y-57092391D01*
X99334353Y-57102400D01*
X99343534Y-57112954D01*
X99352122Y-57124003D01*
X99360118Y-57135547D01*
X99367521Y-57147585D01*
X99374333Y-57160118D01*
X99380552Y-57173145D01*
X99386178Y-57186667D01*
X99391213Y-57200683D01*
X99395655Y-57215194D01*
X99399505Y-57230200D01*
X99401208Y-57237888D01*
X99402762Y-57245700D01*
X99404169Y-57253636D01*
X99405428Y-57261695D01*
X99406538Y-57269878D01*
X99407501Y-57278185D01*
X99408315Y-57286615D01*
X99408981Y-57295169D01*
X99409500Y-57303846D01*
X99409870Y-57312647D01*
X99410092Y-57321572D01*
X99410166Y-57330621D01*
X99409941Y-57345698D01*
X99409265Y-57360449D01*
X99408140Y-57374873D01*
X99406563Y-57388970D01*
X99404537Y-57402741D01*
X99402060Y-57416185D01*
X99399133Y-57429302D01*
X99395756Y-57442093D01*
X99391928Y-57454557D01*
X99387650Y-57466694D01*
X99382922Y-57478505D01*
X99377743Y-57489989D01*
X99372114Y-57501146D01*
X99366034Y-57511977D01*
X99359505Y-57522481D01*
X99352525Y-57532658D01*
X99343080Y-57544749D01*
X99333016Y-57556060D01*
X99322332Y-57566590D01*
X99311028Y-57576341D01*
X99299104Y-57585312D01*
X99286561Y-57593502D01*
X99273398Y-57600913D01*
X99259615Y-57607543D01*
X99245212Y-57613393D01*
X99237778Y-57616026D01*
X99230190Y-57618464D01*
X99222446Y-57620706D01*
X99214547Y-57622754D01*
X99206494Y-57624607D01*
X99198285Y-57626264D01*
X99189922Y-57627727D01*
X99181404Y-57628995D01*
X99172730Y-57630067D01*
X99163902Y-57630945D01*
X99154919Y-57631627D01*
X99145781Y-57632115D01*
X99136488Y-57632407D01*
X99127040Y-57632505D01*
X99115149Y-57632343D01*
X99103510Y-57631857D01*
X99092123Y-57631048D01*
X99080988Y-57629916D01*
X99070104Y-57628459D01*
X99059473Y-57626680D01*
X99049093Y-57624576D01*
X99038966Y-57622149D01*
X99029090Y-57619398D01*
X99019466Y-57616324D01*
X99010094Y-57612926D01*
X99000974Y-57609204D01*
X98992106Y-57605159D01*
X98983489Y-57600790D01*
X98975125Y-57596097D01*
X98967012Y-57591081D01*
X98959135Y-57585731D01*
X98951527Y-57580084D01*
X98944187Y-57574141D01*
X98937117Y-57567903D01*
X98930314Y-57561367D01*
X98923781Y-57554536D01*
X98917516Y-57547409D01*
X98911520Y-57539986D01*
X98905792Y-57532266D01*
X98900334Y-57524250D01*
X98895143Y-57515938D01*
X98890222Y-57507330D01*
X98885569Y-57498426D01*
X98881185Y-57489226D01*
X98877069Y-57479729D01*
X98873223Y-57469937D01*
X99027193Y-57444926D01*
X99029681Y-57452136D01*
X99033330Y-57461156D01*
X99037356Y-57469499D01*
X99041762Y-57477163D01*
X99046546Y-57484150D01*
X99051709Y-57490459D01*
X99057250Y-57496091D01*
X99064709Y-57502177D01*
X99067831Y-57504330D01*
X99076032Y-57509105D01*
X99084795Y-57513012D01*
X99092211Y-57515512D01*
X99099987Y-57517457D01*
X99108123Y-57518846D01*
X99116620Y-57519680D01*
X99125477Y-57519958D01*
X99132076Y-57519803D01*
X99141717Y-57518994D01*
X99151049Y-57517491D01*
X99160072Y-57515294D01*
X99168785Y-57512403D01*
X99177190Y-57508818D01*
X99185286Y-57504540D01*
X99193072Y-57499568D01*
X99200549Y-57493901D01*
X99207717Y-57487542D01*
X99214576Y-57480488D01*
X99216778Y-57477990D01*
X99222981Y-57470126D01*
X99228584Y-57461705D01*
X99233585Y-57452728D01*
X99237986Y-57443195D01*
X99241785Y-57433105D01*
X99244983Y-57422459D01*
X99247580Y-57411256D01*
X99248978Y-57403478D01*
X99250108Y-57395453D01*
X99250972Y-57387181D01*
X99251568Y-57378662D01*
X99251897Y-57369895D01*
X98865016Y-57369895D01*
X98864885Y-57358871D01*
X98864908Y-57348027D01*
X98865085Y-57337361D01*
X98865416Y-57326875D01*
X98865900Y-57316567D01*
X98866539Y-57306438D01*
X98867331Y-57296489D01*
X98868277Y-57286718D01*
X98869376Y-57277126D01*
X98870345Y-57269853D01*
X99018401Y-57269853D01*
X99249161Y-57269853D01*
X99249103Y-57262018D01*
X99248524Y-57250652D01*
X99247354Y-57239750D01*
X99245593Y-57229312D01*
X99243241Y-57219337D01*
X99240299Y-57209826D01*
X99236766Y-57200778D01*
X99232642Y-57192194D01*
X99227927Y-57184074D01*
X99222622Y-57176418D01*
X99216726Y-57169225D01*
X99212530Y-57164753D01*
X99205982Y-57158586D01*
X99199128Y-57153068D01*
X99191968Y-57148200D01*
X99184503Y-57143980D01*
X99176732Y-57140410D01*
X99168656Y-57137489D01*
X99160273Y-57135217D01*
X99151585Y-57133594D01*
X99142592Y-57132620D01*
X99133292Y-57132295D01*
X99127437Y-57132433D01*
X99118864Y-57133154D01*
X99110541Y-57134494D01*
X99102469Y-57136451D01*
X99094648Y-57139027D01*
X99087077Y-57142222D01*
X99079757Y-57146034D01*
X99072688Y-57150465D01*
X99065870Y-57155514D01*
X99059302Y-57161181D01*
X99052985Y-57167466D01*
X99048981Y-57171965D01*
X99043434Y-57179188D01*
X99038441Y-57186981D01*
X99034000Y-57195345D01*
X99030113Y-57204278D01*
X99026778Y-57213782D01*
X99023997Y-57223856D01*
X99021768Y-57234500D01*
X99020093Y-57245714D01*
X99019283Y-57253507D01*
X99018719Y-57261553D01*
X99018401Y-57269853D01*
X98870345Y-57269853D01*
X98870630Y-57267714D01*
X98872037Y-57258480D01*
X98873598Y-57249425D01*
X98875313Y-57240549D01*
X98877182Y-57231853D01*
X98879204Y-57223335D01*
X98881380Y-57214996D01*
X98883710Y-57206836D01*
X98886194Y-57198855D01*
X98888832Y-57191054D01*
X98891623Y-57183431D01*
X98894568Y-57175987D01*
X98897667Y-57168722D01*
X98904327Y-57154729D01*
X98911602Y-57141452D01*
X98919491Y-57128891D01*
X98927996Y-57117046D01*
X98937117Y-57105917D01*
X98941872Y-57100616D01*
X98951704Y-57090518D01*
X98961965Y-57081093D01*
X98972656Y-57072342D01*
X98983775Y-57064263D01*
X98995323Y-57056858D01*
X99007300Y-57050126D01*
X99019706Y-57044067D01*
X99032541Y-57038682D01*
X99045805Y-57033970D01*
X99059498Y-57029930D01*
X99073619Y-57026564D01*
X99088170Y-57023872D01*
X99103150Y-57021852D01*
X99118559Y-57020506D01*
X99126424Y-57020085D01*
X99134396Y-57019832D01*
X99142476Y-57019748D01*
X99156827Y-57020071D01*
G37*
G36*
X98361290Y-57101032D02*
G01*
X98370332Y-57091189D01*
X98379580Y-57081981D01*
X98389035Y-57073408D01*
X98398695Y-57065471D01*
X98408562Y-57058168D01*
X98418635Y-57051500D01*
X98428914Y-57045467D01*
X98439398Y-57040069D01*
X98450089Y-57035307D01*
X98460986Y-57031179D01*
X98472090Y-57027686D01*
X98483399Y-57024829D01*
X98494914Y-57022606D01*
X98506635Y-57021018D01*
X98518563Y-57020066D01*
X98530696Y-57019748D01*
X98543865Y-57020051D01*
X98556748Y-57020960D01*
X98569346Y-57022475D01*
X98581658Y-57024596D01*
X98593684Y-57027324D01*
X98605426Y-57030657D01*
X98616881Y-57034596D01*
X98628052Y-57039141D01*
X98638936Y-57044292D01*
X98649536Y-57050050D01*
X98659850Y-57056413D01*
X98669878Y-57063382D01*
X98679621Y-57070958D01*
X98689079Y-57079139D01*
X98698251Y-57087926D01*
X98707137Y-57097320D01*
X98715584Y-57107296D01*
X98723486Y-57117830D01*
X98730844Y-57128923D01*
X98737656Y-57140575D01*
X98743923Y-57152786D01*
X98749645Y-57165555D01*
X98754822Y-57178883D01*
X98759454Y-57192770D01*
X98763542Y-57207215D01*
X98767084Y-57222219D01*
X98768651Y-57229931D01*
X98770081Y-57237782D01*
X98771375Y-57245773D01*
X98772533Y-57253904D01*
X98773555Y-57262174D01*
X98774441Y-57270584D01*
X98775190Y-57279134D01*
X98775803Y-57287823D01*
X98776280Y-57296652D01*
X98776621Y-57305621D01*
X98776825Y-57314729D01*
X98776893Y-57323977D01*
X98776823Y-57333025D01*
X98776613Y-57341947D01*
X98776263Y-57350743D01*
X98775773Y-57359414D01*
X98775142Y-57367959D01*
X98774372Y-57376379D01*
X98773462Y-57384673D01*
X98772411Y-57392841D01*
X98771221Y-57400884D01*
X98769890Y-57408802D01*
X98768420Y-57416594D01*
X98766809Y-57424260D01*
X98763168Y-57439216D01*
X98758966Y-57453670D01*
X98754204Y-57467622D01*
X98748882Y-57481071D01*
X98742999Y-57494018D01*
X98736557Y-57506463D01*
X98729554Y-57518406D01*
X98721990Y-57529846D01*
X98713867Y-57540785D01*
X98705184Y-57551221D01*
X98696107Y-57561064D01*
X98686804Y-57570272D01*
X98677276Y-57578845D01*
X98667521Y-57586782D01*
X98657541Y-57594085D01*
X98647335Y-57600753D01*
X98636902Y-57606786D01*
X98626244Y-57612184D01*
X98615360Y-57616946D01*
X98604250Y-57621074D01*
X98592914Y-57624567D01*
X98581352Y-57627424D01*
X98569565Y-57629647D01*
X98557551Y-57631235D01*
X98545311Y-57632187D01*
X98532846Y-57632505D01*
X98526669Y-57632411D01*
X98517416Y-57631918D01*
X98508177Y-57631003D01*
X98498952Y-57629665D01*
X98489740Y-57627905D01*
X98480542Y-57625722D01*
X98471358Y-57623117D01*
X98462187Y-57620089D01*
X98453030Y-57616639D01*
X98443887Y-57612766D01*
X98434758Y-57608471D01*
X98428727Y-57605342D01*
X98419869Y-57600270D01*
X98411237Y-57594745D01*
X98402833Y-57588766D01*
X98394655Y-57582334D01*
X98386703Y-57575449D01*
X98378979Y-57568110D01*
X98371481Y-57560318D01*
X98364210Y-57552073D01*
X98357165Y-57543374D01*
X98350348Y-57534221D01*
X98350348Y-57620000D01*
X98206928Y-57620000D01*
X98206928Y-57330425D01*
X98360899Y-57330425D01*
X98360935Y-57336290D01*
X98361229Y-57347743D01*
X98361815Y-57358829D01*
X98362694Y-57369547D01*
X98363866Y-57379896D01*
X98365332Y-57389878D01*
X98367090Y-57399492D01*
X98369142Y-57408738D01*
X98371487Y-57417617D01*
X98374125Y-57426127D01*
X98377055Y-57434269D01*
X98380279Y-57442044D01*
X98383797Y-57449451D01*
X98387607Y-57456489D01*
X98391710Y-57463160D01*
X98398414Y-57472477D01*
X98403141Y-57478226D01*
X98410463Y-57486155D01*
X98418064Y-57493250D01*
X98425942Y-57499509D01*
X98434099Y-57504934D01*
X98442534Y-57509525D01*
X98451247Y-57513281D01*
X98460239Y-57516202D01*
X98469508Y-57518288D01*
X98479056Y-57519540D01*
X98488882Y-57519958D01*
X98493054Y-57519896D01*
X98501222Y-57519401D01*
X98509157Y-57518412D01*
X98520621Y-57516001D01*
X98531560Y-57512477D01*
X98541974Y-57507840D01*
X98551861Y-57502091D01*
X98561224Y-57495228D01*
X98567173Y-57490035D01*
X98572889Y-57484347D01*
X98578372Y-57478165D01*
X98583621Y-57471488D01*
X98588636Y-57464316D01*
X98593418Y-57456650D01*
X98595005Y-57453862D01*
X98599463Y-57444862D01*
X98603468Y-57434911D01*
X98607019Y-57424009D01*
X98609135Y-57416212D01*
X98611049Y-57407993D01*
X98612762Y-57399351D01*
X98614273Y-57390285D01*
X98615583Y-57380797D01*
X98616691Y-57370886D01*
X98617598Y-57360553D01*
X98618303Y-57349796D01*
X98618807Y-57338616D01*
X98619109Y-57327014D01*
X98619210Y-57314989D01*
X98619065Y-57303784D01*
X98618630Y-57292934D01*
X98617905Y-57282438D01*
X98616890Y-57272295D01*
X98615585Y-57262507D01*
X98613989Y-57253073D01*
X98612104Y-57243994D01*
X98609929Y-57235268D01*
X98607463Y-57226897D01*
X98604708Y-57218879D01*
X98601663Y-57211216D01*
X98598327Y-57203907D01*
X98594702Y-57196953D01*
X98588720Y-57187184D01*
X98582085Y-57178213D01*
X98577375Y-57172653D01*
X98570049Y-57164985D01*
X98562411Y-57158124D01*
X98554461Y-57152070D01*
X98546197Y-57146824D01*
X98537622Y-57142385D01*
X98528733Y-57138753D01*
X98519532Y-57135928D01*
X98510019Y-57133910D01*
X98500193Y-57132699D01*
X98490054Y-57132295D01*
X98483052Y-57132477D01*
X98472848Y-57133431D01*
X98463005Y-57135202D01*
X98453522Y-57137790D01*
X98444400Y-57141197D01*
X98435639Y-57145420D01*
X98427238Y-57150461D01*
X98419198Y-57156319D01*
X98411519Y-57162995D01*
X98404200Y-57170488D01*
X98397242Y-57178799D01*
X98395006Y-57181751D01*
X98388724Y-57191298D01*
X98384891Y-57198239D01*
X98381342Y-57205642D01*
X98378077Y-57213505D01*
X98375095Y-57221829D01*
X98372398Y-57230614D01*
X98369985Y-57239860D01*
X98367855Y-57249567D01*
X98366010Y-57259735D01*
X98364448Y-57270364D01*
X98363170Y-57281454D01*
X98362176Y-57293006D01*
X98361467Y-57305018D01*
X98361041Y-57317491D01*
X98360899Y-57330425D01*
X98206928Y-57330425D01*
X98206928Y-56807159D01*
X98361290Y-56807159D01*
X98361290Y-57101032D01*
G37*
G36*
X97753809Y-57620000D02*
G01*
X97610389Y-57620000D01*
X97610389Y-57534221D01*
X97605940Y-57540257D01*
X97599069Y-57548951D01*
X97591961Y-57557217D01*
X97584616Y-57565053D01*
X97577034Y-57572460D01*
X97569215Y-57579437D01*
X97561159Y-57585986D01*
X97552866Y-57592104D01*
X97544336Y-57597794D01*
X97535569Y-57603054D01*
X97526565Y-57607885D01*
X97520478Y-57610866D01*
X97511328Y-57614978D01*
X97502153Y-57618656D01*
X97492955Y-57621902D01*
X97483732Y-57624715D01*
X97474485Y-57627095D01*
X97465214Y-57629043D01*
X97455920Y-57630557D01*
X97446601Y-57631639D01*
X97437258Y-57632288D01*
X97427891Y-57632505D01*
X97415310Y-57632188D01*
X97402966Y-57631238D01*
X97390861Y-57629654D01*
X97378994Y-57627437D01*
X97367365Y-57624586D01*
X97355974Y-57621102D01*
X97344821Y-57616984D01*
X97333906Y-57612233D01*
X97323230Y-57606848D01*
X97312792Y-57600829D01*
X97302591Y-57594178D01*
X97292629Y-57586892D01*
X97282906Y-57578974D01*
X97273420Y-57570421D01*
X97264172Y-57561235D01*
X97255163Y-57551416D01*
X97250787Y-57546269D01*
X97242452Y-57535571D01*
X97234673Y-57524336D01*
X97227449Y-57512563D01*
X97220782Y-57500253D01*
X97214669Y-57487406D01*
X97209113Y-57474022D01*
X97204112Y-57460100D01*
X97199667Y-57445641D01*
X97195777Y-57430644D01*
X97194041Y-57422944D01*
X97192443Y-57415110D01*
X97190985Y-57407142D01*
X97189665Y-57399039D01*
X97188484Y-57390802D01*
X97187442Y-57382431D01*
X97186539Y-57373925D01*
X97185775Y-57365285D01*
X97185150Y-57356510D01*
X97184664Y-57347602D01*
X97184317Y-57338558D01*
X97184119Y-57329839D01*
X97342308Y-57329839D01*
X97342449Y-57341944D01*
X97342870Y-57353637D01*
X97343572Y-57364921D01*
X97344555Y-57375793D01*
X97345819Y-57386255D01*
X97347364Y-57396307D01*
X97349190Y-57405947D01*
X97351297Y-57415177D01*
X97353684Y-57423997D01*
X97356352Y-57432406D01*
X97359302Y-57440404D01*
X97362532Y-57447991D01*
X97366043Y-57455168D01*
X97371836Y-57465164D01*
X97378261Y-57474235D01*
X97382815Y-57479772D01*
X97389868Y-57487407D01*
X97397190Y-57494239D01*
X97404779Y-57500267D01*
X97412637Y-57505491D01*
X97420762Y-57509911D01*
X97429155Y-57513528D01*
X97437816Y-57516341D01*
X97446745Y-57518350D01*
X97455942Y-57519556D01*
X97465407Y-57519958D01*
X97469533Y-57519895D01*
X97477633Y-57519391D01*
X97485528Y-57518383D01*
X97493219Y-57516872D01*
X97504371Y-57513661D01*
X97515063Y-57509316D01*
X97525295Y-57503838D01*
X97531861Y-57499556D01*
X97538222Y-57494770D01*
X97544378Y-57489481D01*
X97550330Y-57483688D01*
X97556077Y-57477391D01*
X97561620Y-57470590D01*
X97566958Y-57463286D01*
X97572092Y-57455478D01*
X97575547Y-57449594D01*
X97580310Y-57440043D01*
X97584573Y-57429624D01*
X97587136Y-57422196D01*
X97589476Y-57414381D01*
X97591593Y-57406179D01*
X97593488Y-57397592D01*
X97595159Y-57388618D01*
X97596608Y-57379258D01*
X97597834Y-57369512D01*
X97598837Y-57359380D01*
X97599617Y-57348862D01*
X97600174Y-57337957D01*
X97600508Y-57326666D01*
X97600620Y-57314989D01*
X97600584Y-57309271D01*
X97600297Y-57298111D01*
X97599723Y-57287318D01*
X97598862Y-57276893D01*
X97597714Y-57266837D01*
X97596279Y-57257148D01*
X97594557Y-57247827D01*
X97592548Y-57238874D01*
X97590252Y-57230289D01*
X97587669Y-57222072D01*
X97584800Y-57214222D01*
X97581643Y-57206741D01*
X97576369Y-57196208D01*
X97570450Y-57186504D01*
X97563886Y-57177627D01*
X97559197Y-57172137D01*
X97551892Y-57164567D01*
X97544261Y-57157794D01*
X97536303Y-57151818D01*
X97528019Y-57146639D01*
X97519409Y-57142256D01*
X97510473Y-57138670D01*
X97501210Y-57135881D01*
X97491621Y-57133889D01*
X97481706Y-57132694D01*
X97471464Y-57132295D01*
X97464461Y-57132477D01*
X97454257Y-57133431D01*
X97444414Y-57135202D01*
X97434932Y-57137790D01*
X97425810Y-57141197D01*
X97417048Y-57145420D01*
X97408648Y-57150461D01*
X97400608Y-57156319D01*
X97392929Y-57162995D01*
X97385610Y-57170488D01*
X97378652Y-57178799D01*
X97376416Y-57181751D01*
X97370134Y-57191289D01*
X97366301Y-57198219D01*
X97362752Y-57205605D01*
X97359486Y-57213447D01*
X97356505Y-57221746D01*
X97353808Y-57230502D01*
X97351394Y-57239713D01*
X97349265Y-57249382D01*
X97347419Y-57259506D01*
X97345858Y-57270087D01*
X97344580Y-57281125D01*
X97343586Y-57292619D01*
X97342876Y-57304569D01*
X97342450Y-57316976D01*
X97342308Y-57329839D01*
X97184119Y-57329839D01*
X97184109Y-57329381D01*
X97184039Y-57320069D01*
X97184107Y-57311062D01*
X97184312Y-57302186D01*
X97184652Y-57293443D01*
X97185129Y-57284831D01*
X97185742Y-57276352D01*
X97186491Y-57268004D01*
X97187377Y-57259789D01*
X97188399Y-57251706D01*
X97189557Y-57243754D01*
X97190851Y-57235935D01*
X97193848Y-57220693D01*
X97197391Y-57205979D01*
X97201478Y-57191793D01*
X97206110Y-57178135D01*
X97211287Y-57165006D01*
X97217010Y-57152404D01*
X97223277Y-57140331D01*
X97230089Y-57128786D01*
X97237446Y-57117769D01*
X97245348Y-57107280D01*
X97253795Y-57097320D01*
X97262659Y-57087926D01*
X97271811Y-57079139D01*
X97281252Y-57070958D01*
X97290981Y-57063382D01*
X97300999Y-57056413D01*
X97311305Y-57050050D01*
X97321900Y-57044292D01*
X97332783Y-57039141D01*
X97343955Y-57034596D01*
X97355415Y-57030657D01*
X97367164Y-57027324D01*
X97379201Y-57024596D01*
X97391527Y-57022475D01*
X97404142Y-57020960D01*
X97417044Y-57020051D01*
X97430236Y-57019748D01*
X97442346Y-57020066D01*
X97454251Y-57021018D01*
X97465952Y-57022606D01*
X97477448Y-57024829D01*
X97488740Y-57027686D01*
X97499827Y-57031179D01*
X97510709Y-57035307D01*
X97521387Y-57040069D01*
X97531861Y-57045467D01*
X97542130Y-57051500D01*
X97552194Y-57058168D01*
X97562054Y-57065471D01*
X97571709Y-57073408D01*
X97581160Y-57081981D01*
X97590406Y-57091189D01*
X97599447Y-57101032D01*
X97599447Y-56807159D01*
X97753809Y-56807159D01*
X97753809Y-57620000D01*
G37*
G36*
X97136558Y-57032254D02*
G01*
X96972232Y-57032254D01*
X96832525Y-57448443D01*
X96696335Y-57032254D01*
X96536307Y-57032254D01*
X96742448Y-57598702D01*
X96779182Y-57706950D01*
X96782977Y-57715941D01*
X96786741Y-57724524D01*
X96790474Y-57732698D01*
X96794176Y-57740463D01*
X96797847Y-57747820D01*
X96801487Y-57754767D01*
X96806292Y-57763395D01*
X96811043Y-57771296D01*
X96815738Y-57778471D01*
X96818066Y-57781786D01*
X96822743Y-57788081D01*
X96828830Y-57795521D01*
X96835184Y-57802484D01*
X96841805Y-57808970D01*
X96848694Y-57814979D01*
X96855849Y-57820510D01*
X96860271Y-57823600D01*
X96867992Y-57828436D01*
X96876257Y-57832927D01*
X96885066Y-57837076D01*
X96892505Y-57840147D01*
X96900292Y-57842999D01*
X96908426Y-57845630D01*
X96916909Y-57848042D01*
X96919084Y-57848611D01*
X96927969Y-57850717D01*
X96937134Y-57852543D01*
X96946580Y-57854088D01*
X96956307Y-57855352D01*
X96966315Y-57856335D01*
X96976604Y-57857037D01*
X96984504Y-57857380D01*
X96992563Y-57857564D01*
X96998024Y-57857599D01*
X97006361Y-57857523D01*
X97014668Y-57857297D01*
X97022944Y-57856919D01*
X97031189Y-57856390D01*
X97039403Y-57855710D01*
X97047586Y-57854879D01*
X97055738Y-57853896D01*
X97063859Y-57852763D01*
X97071950Y-57851478D01*
X97080009Y-57850043D01*
X97085365Y-57849002D01*
X97099043Y-57737041D01*
X97090070Y-57738918D01*
X97081323Y-57740546D01*
X97072802Y-57741922D01*
X97064507Y-57743049D01*
X97056437Y-57743925D01*
X97048594Y-57744551D01*
X97039108Y-57744981D01*
X97033585Y-57745052D01*
X97023756Y-57744741D01*
X97014418Y-57743808D01*
X97005571Y-57742254D01*
X96997215Y-57740078D01*
X96989350Y-57737281D01*
X96981976Y-57733862D01*
X96975094Y-57729821D01*
X96968702Y-57725158D01*
X96962802Y-57719874D01*
X96957393Y-57713968D01*
X96954060Y-57709685D01*
X96949296Y-57702921D01*
X96944747Y-57695816D01*
X96940416Y-57688372D01*
X96936300Y-57680587D01*
X96932402Y-57672462D01*
X96928719Y-57663998D01*
X96925253Y-57655193D01*
X96922003Y-57646048D01*
X96918970Y-57636563D01*
X96916153Y-57626738D01*
X96914395Y-57620000D01*
X97136558Y-57032254D01*
G37*
G36*
X103936866Y-58964000D02*
G01*
X103662533Y-58964000D01*
X103652924Y-58963923D01*
X103643540Y-58963841D01*
X103634380Y-58963752D01*
X103625444Y-58963658D01*
X103616733Y-58963557D01*
X103608247Y-58963450D01*
X103599984Y-58963337D01*
X103591946Y-58963218D01*
X103576544Y-58962961D01*
X103562039Y-58962681D01*
X103548431Y-58962375D01*
X103535722Y-58962046D01*
X103523909Y-58961691D01*
X103512995Y-58961313D01*
X103502978Y-58960910D01*
X103493858Y-58960482D01*
X103485637Y-58960031D01*
X103474987Y-58959307D01*
X103466357Y-58958528D01*
X103462322Y-58958053D01*
X103454375Y-58956963D01*
X103446590Y-58955687D01*
X103435216Y-58953424D01*
X103424205Y-58950741D01*
X103413559Y-58947640D01*
X103403277Y-58944119D01*
X103393359Y-58940180D01*
X103383805Y-58935821D01*
X103374615Y-58931044D01*
X103365789Y-58925847D01*
X103357327Y-58920231D01*
X103351879Y-58916266D01*
X103343980Y-58910012D01*
X103336407Y-58903391D01*
X103329161Y-58896402D01*
X103322240Y-58889045D01*
X103315646Y-58881321D01*
X103309379Y-58873230D01*
X103303437Y-58864771D01*
X103297822Y-58855944D01*
X103292533Y-58846750D01*
X103287571Y-58837189D01*
X103284471Y-58830656D01*
X103280197Y-58820814D01*
X103276372Y-58810920D01*
X103272998Y-58800975D01*
X103270073Y-58790979D01*
X103267599Y-58780931D01*
X103265574Y-58770831D01*
X103263999Y-58760680D01*
X103262874Y-58750477D01*
X103262199Y-58740223D01*
X103261974Y-58729917D01*
X103262110Y-58722297D01*
X103430209Y-58722297D01*
X103430566Y-58732628D01*
X103431638Y-58742422D01*
X103433424Y-58751679D01*
X103435924Y-58760399D01*
X103439139Y-58768581D01*
X103443068Y-58776226D01*
X103447712Y-58783333D01*
X103453070Y-58789903D01*
X103458950Y-58795912D01*
X103465258Y-58801334D01*
X103471993Y-58806170D01*
X103479155Y-58810420D01*
X103486745Y-58814083D01*
X103494762Y-58817161D01*
X103503207Y-58819652D01*
X103512079Y-58821557D01*
X103518994Y-58822702D01*
X103527918Y-58823694D01*
X103535929Y-58824338D01*
X103545071Y-58824896D01*
X103555342Y-58825369D01*
X103566744Y-58825755D01*
X103574972Y-58825965D01*
X103583703Y-58826137D01*
X103592936Y-58826270D01*
X103602672Y-58826366D01*
X103612909Y-58826423D01*
X103623649Y-58826442D01*
X103774298Y-58826442D01*
X103774298Y-58613853D01*
X103642993Y-58613853D01*
X103636121Y-58613864D01*
X103622832Y-58613954D01*
X103610153Y-58614134D01*
X103598083Y-58614405D01*
X103586622Y-58614765D01*
X103575770Y-58615215D01*
X103565527Y-58615756D01*
X103555893Y-58616386D01*
X103546868Y-58617107D01*
X103538452Y-58617917D01*
X103526971Y-58619302D01*
X103516860Y-58620889D01*
X103508119Y-58622679D01*
X103498597Y-58625381D01*
X103496536Y-58626103D01*
X103488598Y-58629257D01*
X103481149Y-58632838D01*
X103474188Y-58636847D01*
X103467715Y-58641283D01*
X103460312Y-58647429D01*
X103453671Y-58654243D01*
X103447794Y-58661725D01*
X103446712Y-58663286D01*
X103441818Y-58671415D01*
X103437782Y-58680078D01*
X103434605Y-58689275D01*
X103432682Y-58697018D01*
X103431308Y-58705102D01*
X103430484Y-58713528D01*
X103430209Y-58722297D01*
X103262110Y-58722297D01*
X103262129Y-58721244D01*
X103262594Y-58712713D01*
X103263369Y-58704324D01*
X103264453Y-58696077D01*
X103265848Y-58687972D01*
X103267552Y-58680009D01*
X103269566Y-58672188D01*
X103271891Y-58664509D01*
X103274525Y-58656972D01*
X103277468Y-58649577D01*
X103280722Y-58642323D01*
X103284286Y-58635212D01*
X103288159Y-58628243D01*
X103292343Y-58621415D01*
X103296836Y-58614730D01*
X103301639Y-58608187D01*
X103306707Y-58601832D01*
X103312041Y-58595715D01*
X103317643Y-58589834D01*
X103323511Y-58584190D01*
X103329647Y-58578782D01*
X103336050Y-58573611D01*
X103342720Y-58568676D01*
X103349657Y-58563979D01*
X103356862Y-58559517D01*
X103364333Y-58555293D01*
X103372072Y-58551305D01*
X103380078Y-58547553D01*
X103388351Y-58544038D01*
X103396891Y-58540760D01*
X103405698Y-58537719D01*
X103414773Y-58534914D01*
X103408336Y-58531816D01*
X103398999Y-58526816D01*
X103390043Y-58521395D01*
X103381468Y-58515551D01*
X103373275Y-58509284D01*
X103365463Y-58502595D01*
X103358032Y-58495484D01*
X103350982Y-58487950D01*
X103344314Y-58479993D01*
X103338027Y-58471615D01*
X103332121Y-58462813D01*
X103328430Y-58456768D01*
X103323340Y-58447563D01*
X103318785Y-58438193D01*
X103314767Y-58428659D01*
X103311284Y-58418959D01*
X103308337Y-58409095D01*
X103305926Y-58399066D01*
X103304050Y-58388872D01*
X103303050Y-58381138D01*
X103459909Y-58381138D01*
X103460284Y-58390719D01*
X103461411Y-58399823D01*
X103463288Y-58408451D01*
X103465917Y-58416602D01*
X103469297Y-58424278D01*
X103473428Y-58431477D01*
X103478309Y-58438200D01*
X103483942Y-58444446D01*
X103490183Y-58450158D01*
X103496985Y-58455278D01*
X103504349Y-58459806D01*
X103512274Y-58463741D01*
X103520762Y-58467084D01*
X103529811Y-58469835D01*
X103539422Y-58471994D01*
X103549595Y-58473560D01*
X103558555Y-58474348D01*
X103568252Y-58474882D01*
X103576999Y-58475227D01*
X103587010Y-58475523D01*
X103598284Y-58475772D01*
X103606503Y-58475911D01*
X103615284Y-58476028D01*
X103624626Y-58476124D01*
X103634530Y-58476199D01*
X103644996Y-58476253D01*
X103656023Y-58476285D01*
X103667613Y-58476295D01*
X103774298Y-58476295D01*
X103774298Y-58288717D01*
X103680900Y-58288717D01*
X103666892Y-58288728D01*
X103653593Y-58288760D01*
X103641003Y-58288813D01*
X103629120Y-58288888D01*
X103617946Y-58288984D01*
X103607480Y-58289102D01*
X103597723Y-58289240D01*
X103588674Y-58289401D01*
X103580333Y-58289582D01*
X103569149Y-58289895D01*
X103559560Y-58290256D01*
X103551564Y-58290664D01*
X103541779Y-58291452D01*
X103534335Y-58292566D01*
X103524961Y-58294554D01*
X103516216Y-58297115D01*
X103508099Y-58300251D01*
X103500612Y-58303960D01*
X103493753Y-58308244D01*
X103487523Y-58313101D01*
X103480620Y-58319980D01*
X103476919Y-58324502D01*
X103471559Y-58332595D01*
X103467999Y-58339571D01*
X103465087Y-58346993D01*
X103462821Y-58354861D01*
X103461203Y-58363174D01*
X103460232Y-58371933D01*
X103459909Y-58381138D01*
X103303050Y-58381138D01*
X103302711Y-58378513D01*
X103301907Y-58367989D01*
X103301639Y-58357300D01*
X103301736Y-58350698D01*
X103302245Y-58340949D01*
X103303190Y-58331386D01*
X103304572Y-58322008D01*
X103306389Y-58312816D01*
X103308643Y-58303809D01*
X103311333Y-58294988D01*
X103314459Y-58286352D01*
X103318021Y-58277901D01*
X103322020Y-58269637D01*
X103326454Y-58261557D01*
X103329581Y-58256275D01*
X103334453Y-58248605D01*
X103339546Y-58241236D01*
X103344858Y-58234170D01*
X103350390Y-58227406D01*
X103356142Y-58220944D01*
X103362114Y-58214785D01*
X103368305Y-58208927D01*
X103374717Y-58203372D01*
X103381348Y-58198120D01*
X103388199Y-58193169D01*
X103392879Y-58190015D01*
X103400044Y-58185543D01*
X103407384Y-58181384D01*
X103414900Y-58177538D01*
X103422591Y-58174004D01*
X103430457Y-58170783D01*
X103438498Y-58167875D01*
X103446714Y-58165279D01*
X103455105Y-58162995D01*
X103463672Y-58161024D01*
X103472414Y-58159366D01*
X103475392Y-58158861D01*
X103484898Y-58157442D01*
X103495258Y-58156168D01*
X103506474Y-58155038D01*
X103514427Y-58154365D01*
X103522759Y-58153756D01*
X103531472Y-58153211D01*
X103540565Y-58152730D01*
X103550037Y-58152313D01*
X103559890Y-58151961D01*
X103570123Y-58151672D01*
X103580736Y-58151448D01*
X103591730Y-58151288D01*
X103603103Y-58151191D01*
X103614856Y-58151159D01*
X103936866Y-58151159D01*
X103936866Y-58964000D01*
G37*
G36*
X102922075Y-58364071D02*
G01*
X102936112Y-58365040D01*
X102949833Y-58366654D01*
X102963241Y-58368914D01*
X102976334Y-58371820D01*
X102989112Y-58375371D01*
X103001576Y-58379568D01*
X103013726Y-58384411D01*
X103025561Y-58389900D01*
X103037082Y-58396034D01*
X103048288Y-58402814D01*
X103059179Y-58410240D01*
X103069757Y-58418311D01*
X103080019Y-58427029D01*
X103089968Y-58436391D01*
X103099602Y-58446400D01*
X103108782Y-58456954D01*
X103117370Y-58468003D01*
X103125366Y-58479547D01*
X103132770Y-58491585D01*
X103139581Y-58504118D01*
X103145800Y-58517145D01*
X103151427Y-58530667D01*
X103156461Y-58544683D01*
X103160904Y-58559194D01*
X103164753Y-58574200D01*
X103166456Y-58581888D01*
X103168011Y-58589700D01*
X103169418Y-58597636D01*
X103170676Y-58605695D01*
X103171787Y-58613878D01*
X103172749Y-58622185D01*
X103173564Y-58630615D01*
X103174230Y-58639169D01*
X103174748Y-58647846D01*
X103175118Y-58656647D01*
X103175341Y-58665572D01*
X103175415Y-58674621D01*
X103175189Y-58689698D01*
X103174514Y-58704449D01*
X103173388Y-58718873D01*
X103171812Y-58732970D01*
X103169786Y-58746741D01*
X103167309Y-58760185D01*
X103164382Y-58773302D01*
X103161004Y-58786093D01*
X103157177Y-58798557D01*
X103152898Y-58810694D01*
X103148170Y-58822505D01*
X103142991Y-58833989D01*
X103137362Y-58845146D01*
X103131283Y-58855977D01*
X103124753Y-58866481D01*
X103117773Y-58876658D01*
X103108329Y-58888749D01*
X103098264Y-58900060D01*
X103087580Y-58910590D01*
X103076276Y-58920341D01*
X103064353Y-58929312D01*
X103051809Y-58937502D01*
X103038646Y-58944913D01*
X103024863Y-58951543D01*
X103010461Y-58957393D01*
X103003027Y-58960026D01*
X102995438Y-58962464D01*
X102987695Y-58964706D01*
X102979796Y-58966754D01*
X102971742Y-58968607D01*
X102963534Y-58970264D01*
X102955171Y-58971727D01*
X102946652Y-58972995D01*
X102937979Y-58974067D01*
X102929151Y-58974945D01*
X102920167Y-58975627D01*
X102911029Y-58976115D01*
X102901736Y-58976407D01*
X102892288Y-58976505D01*
X102880397Y-58976343D01*
X102868759Y-58975857D01*
X102857372Y-58975048D01*
X102846236Y-58973916D01*
X102835353Y-58972459D01*
X102824722Y-58970680D01*
X102814342Y-58968576D01*
X102804214Y-58966149D01*
X102794339Y-58963398D01*
X102784715Y-58960324D01*
X102775343Y-58956926D01*
X102766222Y-58953204D01*
X102757354Y-58949159D01*
X102748738Y-58944790D01*
X102740373Y-58940097D01*
X102732260Y-58935081D01*
X102724384Y-58929731D01*
X102716775Y-58924084D01*
X102709436Y-58918141D01*
X102702365Y-58911903D01*
X102695563Y-58905367D01*
X102689029Y-58898536D01*
X102682765Y-58891409D01*
X102676768Y-58883986D01*
X102671041Y-58876266D01*
X102665582Y-58868250D01*
X102660392Y-58859938D01*
X102655470Y-58851330D01*
X102650818Y-58842426D01*
X102646433Y-58833226D01*
X102642318Y-58823729D01*
X102638471Y-58813937D01*
X102792442Y-58788926D01*
X102794930Y-58796136D01*
X102798578Y-58805156D01*
X102802605Y-58813499D01*
X102807011Y-58821163D01*
X102811795Y-58828150D01*
X102816957Y-58834459D01*
X102822499Y-58840091D01*
X102829958Y-58846177D01*
X102833080Y-58848330D01*
X102841280Y-58853105D01*
X102850043Y-58857012D01*
X102857459Y-58859512D01*
X102865235Y-58861457D01*
X102873372Y-58862846D01*
X102881868Y-58863680D01*
X102890725Y-58863958D01*
X102897324Y-58863803D01*
X102906965Y-58862994D01*
X102916297Y-58861491D01*
X102925320Y-58859294D01*
X102934034Y-58856403D01*
X102942439Y-58852818D01*
X102950534Y-58848540D01*
X102958321Y-58843568D01*
X102965798Y-58837901D01*
X102972966Y-58831542D01*
X102979825Y-58824488D01*
X102982026Y-58821990D01*
X102988230Y-58814126D01*
X102993832Y-58805705D01*
X102998834Y-58796728D01*
X103003234Y-58787195D01*
X103007034Y-58777105D01*
X103010232Y-58766459D01*
X103012829Y-58755256D01*
X103014227Y-58747478D01*
X103015357Y-58739453D01*
X103016220Y-58731181D01*
X103016816Y-58722662D01*
X103017145Y-58713895D01*
X102630265Y-58713895D01*
X102630134Y-58702871D01*
X102630157Y-58692027D01*
X102630334Y-58681361D01*
X102630665Y-58670875D01*
X102631149Y-58660567D01*
X102631787Y-58650438D01*
X102632579Y-58640489D01*
X102633525Y-58630718D01*
X102634625Y-58621126D01*
X102635593Y-58613853D01*
X102783649Y-58613853D01*
X103014410Y-58613853D01*
X103014352Y-58606018D01*
X103013772Y-58594652D01*
X103012602Y-58583750D01*
X103010841Y-58573312D01*
X103008490Y-58563337D01*
X103005548Y-58553826D01*
X103002014Y-58544778D01*
X102997891Y-58536194D01*
X102993176Y-58528074D01*
X102987870Y-58520418D01*
X102981974Y-58513225D01*
X102977779Y-58508753D01*
X102971230Y-58502586D01*
X102964377Y-58497068D01*
X102957217Y-58492200D01*
X102949752Y-58487980D01*
X102941981Y-58484410D01*
X102933904Y-58481489D01*
X102925522Y-58479217D01*
X102916834Y-58477594D01*
X102907840Y-58476620D01*
X102898541Y-58476295D01*
X102892686Y-58476433D01*
X102884112Y-58477154D01*
X102875790Y-58478494D01*
X102867718Y-58480451D01*
X102859896Y-58483027D01*
X102852326Y-58486222D01*
X102845006Y-58490034D01*
X102837937Y-58494465D01*
X102831118Y-58499514D01*
X102824551Y-58505181D01*
X102818234Y-58511466D01*
X102814229Y-58515965D01*
X102808683Y-58523188D01*
X102803689Y-58530981D01*
X102799249Y-58539345D01*
X102795361Y-58548278D01*
X102792027Y-58557782D01*
X102789245Y-58567856D01*
X102787017Y-58578500D01*
X102785341Y-58589714D01*
X102784531Y-58597507D01*
X102783967Y-58605553D01*
X102783649Y-58613853D01*
X102635593Y-58613853D01*
X102635878Y-58611714D01*
X102637286Y-58602480D01*
X102638847Y-58593425D01*
X102640562Y-58584549D01*
X102642430Y-58575853D01*
X102644453Y-58567335D01*
X102646629Y-58558996D01*
X102648959Y-58550836D01*
X102651443Y-58542855D01*
X102654080Y-58535054D01*
X102656872Y-58527431D01*
X102659817Y-58519987D01*
X102662916Y-58512722D01*
X102669575Y-58498729D01*
X102676850Y-58485452D01*
X102684740Y-58472891D01*
X102693245Y-58461046D01*
X102702365Y-58449917D01*
X102707120Y-58444616D01*
X102716953Y-58434518D01*
X102727214Y-58425093D01*
X102737904Y-58416342D01*
X102749023Y-58408263D01*
X102760571Y-58400858D01*
X102772548Y-58394126D01*
X102784954Y-58388067D01*
X102797789Y-58382682D01*
X102811053Y-58377970D01*
X102824746Y-58373930D01*
X102838868Y-58370564D01*
X102853419Y-58367872D01*
X102868398Y-58365852D01*
X102883807Y-58364506D01*
X102891672Y-58364085D01*
X102899645Y-58363832D01*
X102907724Y-58363748D01*
X102922075Y-58364071D01*
G37*
G36*
X101976671Y-58964000D02*
G01*
X102131032Y-58964000D01*
X102131032Y-58660552D01*
X102131071Y-58648777D01*
X102131188Y-58637532D01*
X102131383Y-58626819D01*
X102131655Y-58616637D01*
X102132005Y-58606987D01*
X102132434Y-58597867D01*
X102132940Y-58589279D01*
X102133523Y-58581222D01*
X102134545Y-58570133D01*
X102135742Y-58560239D01*
X102137114Y-58551540D01*
X102139216Y-58541801D01*
X102140997Y-58535891D01*
X102144356Y-58527347D01*
X102148325Y-58519423D01*
X102152904Y-58512120D01*
X102158094Y-58505437D01*
X102163895Y-58499373D01*
X102170306Y-58493930D01*
X102173042Y-58491927D01*
X102180222Y-58487424D01*
X102187842Y-58483684D01*
X102195900Y-58480707D01*
X102204397Y-58478494D01*
X102213332Y-58477043D01*
X102222707Y-58476356D01*
X102226580Y-58476295D01*
X102236512Y-58476646D01*
X102246180Y-58477700D01*
X102255587Y-58479455D01*
X102264731Y-58481913D01*
X102273612Y-58485073D01*
X102282231Y-58488935D01*
X102290587Y-58493499D01*
X102298680Y-58498766D01*
X102306331Y-58504566D01*
X102313359Y-58510831D01*
X102319765Y-58517560D01*
X102325547Y-58524753D01*
X102330707Y-58532410D01*
X102335244Y-58540531D01*
X102339158Y-58549116D01*
X102342449Y-58558166D01*
X102345197Y-58568378D01*
X102347017Y-58577324D01*
X102348631Y-58587372D01*
X102350039Y-58598522D01*
X102350864Y-58606569D01*
X102351596Y-58615105D01*
X102352238Y-58624131D01*
X102352787Y-58633648D01*
X102353245Y-58643654D01*
X102353611Y-58654150D01*
X102353886Y-58665137D01*
X102354069Y-58676613D01*
X102354161Y-58688579D01*
X102354172Y-58694746D01*
X102354172Y-58964000D01*
X102508534Y-58964000D01*
X102508534Y-58376254D01*
X102365115Y-58376254D01*
X102365115Y-58462032D01*
X102355410Y-58450130D01*
X102345398Y-58438996D01*
X102335077Y-58428631D01*
X102324448Y-58419033D01*
X102313511Y-58410203D01*
X102302265Y-58402140D01*
X102290711Y-58394846D01*
X102278848Y-58388319D01*
X102266677Y-58382560D01*
X102254198Y-58377569D01*
X102241410Y-58373346D01*
X102228314Y-58369891D01*
X102214910Y-58367204D01*
X102201197Y-58365284D01*
X102187176Y-58364132D01*
X102172847Y-58363748D01*
X102163327Y-58363911D01*
X102153965Y-58364401D01*
X102144761Y-58365217D01*
X102135716Y-58366359D01*
X102126828Y-58367827D01*
X102118098Y-58369622D01*
X102109526Y-58371742D01*
X102101112Y-58374190D01*
X102092857Y-58376963D01*
X102084759Y-58380063D01*
X102079448Y-58382311D01*
X102071680Y-58385880D01*
X102064276Y-58389629D01*
X102057236Y-58393556D01*
X102050560Y-58397661D01*
X102042226Y-58403413D01*
X102034538Y-58409483D01*
X102027498Y-58415870D01*
X102021105Y-58422574D01*
X102015359Y-58429596D01*
X102010144Y-58436899D01*
X102005345Y-58444446D01*
X102000961Y-58452237D01*
X101996992Y-58460273D01*
X101993438Y-58468553D01*
X101990299Y-58477077D01*
X101987576Y-58485845D01*
X101985268Y-58494858D01*
X101983253Y-58504438D01*
X101981918Y-58512273D01*
X101980734Y-58520664D01*
X101979702Y-58529611D01*
X101978820Y-58539115D01*
X101978090Y-58549175D01*
X101977510Y-58559791D01*
X101977082Y-58570964D01*
X101976805Y-58582694D01*
X101976704Y-58590822D01*
X101976671Y-58599198D01*
X101976671Y-58964000D01*
G37*
G36*
X101552665Y-58701390D02*
G01*
X101394396Y-58688884D01*
X101392498Y-58698396D01*
X101390372Y-58707587D01*
X101388016Y-58716458D01*
X101385432Y-58725008D01*
X101382619Y-58733237D01*
X101379576Y-58741146D01*
X101376305Y-58748735D01*
X101372805Y-58756002D01*
X101369075Y-58762949D01*
X101363052Y-58772769D01*
X101356514Y-58781868D01*
X101349460Y-58790245D01*
X101341891Y-58797901D01*
X101336559Y-58802604D01*
X101328085Y-58809099D01*
X101319074Y-58814955D01*
X101309528Y-58820172D01*
X101299446Y-58824751D01*
X101288829Y-58828690D01*
X101277675Y-58831991D01*
X101269942Y-58833836D01*
X101261970Y-58835398D01*
X101253761Y-58836676D01*
X101245313Y-58837669D01*
X101236627Y-58838379D01*
X101227703Y-58838805D01*
X101218541Y-58838947D01*
X101208873Y-58838820D01*
X101199508Y-58838437D01*
X101190445Y-58837800D01*
X101181685Y-58836908D01*
X101173226Y-58835761D01*
X101165070Y-58834358D01*
X101157216Y-58832701D01*
X101146002Y-58829738D01*
X101135468Y-58826201D01*
X101125614Y-58822090D01*
X101116440Y-58817406D01*
X101107946Y-58812148D01*
X101100132Y-58806316D01*
X101093008Y-58800065D01*
X101086586Y-58793622D01*
X101080864Y-58786986D01*
X101075842Y-58780158D01*
X101071521Y-58773137D01*
X101067901Y-58765925D01*
X101064982Y-58758520D01*
X101062763Y-58750922D01*
X101061245Y-58743132D01*
X101060427Y-58735150D01*
X101060272Y-58729722D01*
X101060682Y-58721134D01*
X101061913Y-58712957D01*
X101063964Y-58705190D01*
X101066836Y-58697833D01*
X101070528Y-58690886D01*
X101075041Y-58684350D01*
X101077075Y-58681850D01*
X101082933Y-58675807D01*
X101090001Y-58670012D01*
X101096529Y-58665555D01*
X101103832Y-58661256D01*
X101111910Y-58657116D01*
X101120764Y-58653135D01*
X101130393Y-58649312D01*
X101135498Y-58647461D01*
X101143818Y-58644670D01*
X101151552Y-58642249D01*
X101160568Y-58639546D01*
X101170864Y-58636561D01*
X101178440Y-58634415D01*
X101186586Y-58632143D01*
X101195301Y-58629747D01*
X101204585Y-58627225D01*
X101214439Y-58624578D01*
X101224862Y-58621806D01*
X101235854Y-58618908D01*
X101247416Y-58615886D01*
X101259547Y-58612738D01*
X101265826Y-58611117D01*
X101273920Y-58609015D01*
X101281862Y-58606884D01*
X101289651Y-58604726D01*
X101297288Y-58602538D01*
X101312105Y-58598079D01*
X101326313Y-58593508D01*
X101339912Y-58588823D01*
X101352902Y-58584025D01*
X101365283Y-58579114D01*
X101377055Y-58574090D01*
X101388217Y-58568953D01*
X101398771Y-58563704D01*
X101408715Y-58558341D01*
X101418051Y-58552866D01*
X101426777Y-58547277D01*
X101434894Y-58541575D01*
X101442402Y-58535761D01*
X101449302Y-58529833D01*
X101458293Y-58521316D01*
X101466704Y-58512568D01*
X101474535Y-58503590D01*
X101481786Y-58494382D01*
X101488457Y-58484942D01*
X101494548Y-58475273D01*
X101500058Y-58465372D01*
X101504989Y-58455242D01*
X101509340Y-58444880D01*
X101513110Y-58434289D01*
X101516300Y-58423466D01*
X101518911Y-58412414D01*
X101520941Y-58401130D01*
X101522391Y-58389617D01*
X101523261Y-58377872D01*
X101523551Y-58365898D01*
X101523246Y-58354318D01*
X101522329Y-58342878D01*
X101520800Y-58331580D01*
X101518660Y-58320423D01*
X101515909Y-58309406D01*
X101512547Y-58298530D01*
X101508573Y-58287795D01*
X101503988Y-58277201D01*
X101498791Y-58266747D01*
X101494987Y-58259857D01*
X101490911Y-58253029D01*
X101488771Y-58249638D01*
X101484279Y-58242950D01*
X101479548Y-58236464D01*
X101474577Y-58230182D01*
X101469366Y-58224102D01*
X101463916Y-58218226D01*
X101458226Y-58212553D01*
X101452296Y-58207083D01*
X101446126Y-58201815D01*
X101439717Y-58196751D01*
X101433069Y-58191890D01*
X101426180Y-58187232D01*
X101419052Y-58182777D01*
X101411684Y-58178524D01*
X101404077Y-58174475D01*
X101396230Y-58170629D01*
X101388143Y-58166986D01*
X101379807Y-58163555D01*
X101371260Y-58160346D01*
X101362502Y-58157358D01*
X101353534Y-58154591D01*
X101344355Y-58152045D01*
X101334965Y-58149721D01*
X101325365Y-58147619D01*
X101315554Y-58145737D01*
X101305533Y-58144077D01*
X101295300Y-58142638D01*
X101284857Y-58141421D01*
X101274204Y-58140425D01*
X101263340Y-58139650D01*
X101252265Y-58139097D01*
X101240979Y-58138765D01*
X101229483Y-58138654D01*
X101220080Y-58138721D01*
X101210823Y-58138920D01*
X101201713Y-58139253D01*
X101192749Y-58139720D01*
X101183932Y-58140319D01*
X101175261Y-58141051D01*
X101166737Y-58141917D01*
X101158359Y-58142916D01*
X101150129Y-58144048D01*
X101142044Y-58145314D01*
X101134106Y-58146712D01*
X101126315Y-58148244D01*
X101118670Y-58149909D01*
X101103820Y-58153638D01*
X101089556Y-58157900D01*
X101075879Y-58162695D01*
X101062787Y-58168022D01*
X101050282Y-58173882D01*
X101038363Y-58180276D01*
X101027030Y-58187201D01*
X101016283Y-58194660D01*
X101006123Y-58202651D01*
X101001262Y-58206847D01*
X100991948Y-58215549D01*
X100983204Y-58224606D01*
X100975029Y-58234019D01*
X100967423Y-58243788D01*
X100960386Y-58253913D01*
X100953919Y-58264393D01*
X100948021Y-58275229D01*
X100942693Y-58286421D01*
X100937934Y-58297968D01*
X100933745Y-58309871D01*
X100930124Y-58322130D01*
X100927074Y-58334744D01*
X100924592Y-58347714D01*
X100922680Y-58361040D01*
X100921338Y-58374722D01*
X100920565Y-58388759D01*
X101083328Y-58388759D01*
X101085481Y-58377808D01*
X101088056Y-58367452D01*
X101091054Y-58357690D01*
X101094475Y-58348523D01*
X101098318Y-58339949D01*
X101102583Y-58331970D01*
X101107271Y-58324585D01*
X101112381Y-58317794D01*
X101117913Y-58311597D01*
X101123869Y-58305995D01*
X101128073Y-58302590D01*
X101134824Y-58297876D01*
X101142178Y-58293625D01*
X101150138Y-58289839D01*
X101158701Y-58286516D01*
X101167870Y-58283656D01*
X101177642Y-58281261D01*
X101188020Y-58279329D01*
X101199001Y-58277860D01*
X101210588Y-58276856D01*
X101218648Y-58276443D01*
X101226976Y-58276237D01*
X101231242Y-58276212D01*
X101239964Y-58276323D01*
X101248448Y-58276657D01*
X101256695Y-58277215D01*
X101264703Y-58277995D01*
X101272473Y-58278998D01*
X101283681Y-58280920D01*
X101294354Y-58283344D01*
X101304491Y-58286269D01*
X101314092Y-58289695D01*
X101323157Y-58293623D01*
X101331686Y-58298053D01*
X101339680Y-58302984D01*
X101342226Y-58304739D01*
X101349656Y-58310784D01*
X101355827Y-58317440D01*
X101360738Y-58324706D01*
X101364391Y-58332583D01*
X101366783Y-58341070D01*
X101367917Y-58350168D01*
X101368018Y-58353979D01*
X101367426Y-58362515D01*
X101365651Y-58370660D01*
X101362694Y-58378413D01*
X101358553Y-58385776D01*
X101353229Y-58392747D01*
X101346723Y-58399328D01*
X101343789Y-58401850D01*
X101337262Y-58406646D01*
X101329187Y-58411506D01*
X101319562Y-58416432D01*
X101312285Y-58419752D01*
X101304320Y-58423101D01*
X101295666Y-58426480D01*
X101286324Y-58429887D01*
X101276293Y-58433323D01*
X101265574Y-58436788D01*
X101254166Y-58440282D01*
X101242070Y-58443806D01*
X101229286Y-58447358D01*
X101215812Y-58450939D01*
X101201651Y-58454549D01*
X101194312Y-58456365D01*
X101179704Y-58459985D01*
X101165580Y-58463613D01*
X101151940Y-58467251D01*
X101138783Y-58470898D01*
X101126111Y-58474554D01*
X101113923Y-58478219D01*
X101102218Y-58481893D01*
X101090997Y-58485577D01*
X101080261Y-58489269D01*
X101070008Y-58492971D01*
X101060239Y-58496682D01*
X101050954Y-58500402D01*
X101042153Y-58504131D01*
X101033835Y-58507870D01*
X101026002Y-58511617D01*
X101018653Y-58515374D01*
X101011642Y-58519222D01*
X101004825Y-58523242D01*
X100998203Y-58527434D01*
X100988632Y-58534047D01*
X100979497Y-58541047D01*
X100970799Y-58548436D01*
X100962537Y-58556212D01*
X100954711Y-58564377D01*
X100947321Y-58572930D01*
X100940368Y-58581871D01*
X100933851Y-58591200D01*
X100929748Y-58597635D01*
X100923987Y-58607632D01*
X100918792Y-58618058D01*
X100915643Y-58625247D01*
X100912747Y-58632627D01*
X100910102Y-58640198D01*
X100907709Y-58647959D01*
X100905568Y-58655912D01*
X100903679Y-58664055D01*
X100902042Y-58672389D01*
X100900657Y-58680914D01*
X100899523Y-58689629D01*
X100898642Y-58698536D01*
X100898012Y-58707633D01*
X100897634Y-58716921D01*
X100897508Y-58726400D01*
X100897658Y-58735061D01*
X100898110Y-58743653D01*
X100898861Y-58752176D01*
X100899914Y-58760631D01*
X100901267Y-58769017D01*
X100902921Y-58777334D01*
X100904876Y-58785582D01*
X100907131Y-58793762D01*
X100909687Y-58801873D01*
X100912544Y-58809916D01*
X100915702Y-58817890D01*
X100919160Y-58825795D01*
X100922919Y-58833631D01*
X100926979Y-58841399D01*
X100931340Y-58849098D01*
X100936001Y-58856728D01*
X100940937Y-58864202D01*
X100946122Y-58871431D01*
X100951555Y-58878417D01*
X100957238Y-58885158D01*
X100963169Y-58891655D01*
X100969349Y-58897907D01*
X100975778Y-58903916D01*
X100982456Y-58909680D01*
X100989382Y-58915200D01*
X100996558Y-58920475D01*
X101003982Y-58925507D01*
X101011655Y-58930294D01*
X101019577Y-58934837D01*
X101027748Y-58939136D01*
X101036167Y-58943190D01*
X101044835Y-58947000D01*
X101053763Y-58950573D01*
X101062961Y-58953915D01*
X101072430Y-58957027D01*
X101082168Y-58959908D01*
X101092177Y-58962559D01*
X101102455Y-58964980D01*
X101113004Y-58967169D01*
X101123824Y-58969129D01*
X101134913Y-58970857D01*
X101146273Y-58972356D01*
X101157902Y-58973623D01*
X101169802Y-58974661D01*
X101181972Y-58975467D01*
X101194413Y-58976044D01*
X101207123Y-58976389D01*
X101220104Y-58976505D01*
X101229585Y-58976436D01*
X101238927Y-58976231D01*
X101248130Y-58975888D01*
X101257195Y-58975409D01*
X101266122Y-58974792D01*
X101274910Y-58974039D01*
X101283559Y-58973148D01*
X101292070Y-58972121D01*
X101300443Y-58970956D01*
X101308676Y-58969654D01*
X101316772Y-58968216D01*
X101324729Y-58966640D01*
X101332547Y-58964928D01*
X101340227Y-58963078D01*
X101355170Y-58958968D01*
X101369560Y-58954310D01*
X101383396Y-58949104D01*
X101396677Y-58943350D01*
X101409404Y-58937047D01*
X101421578Y-58930197D01*
X101433197Y-58922799D01*
X101444262Y-58914852D01*
X101454773Y-58906358D01*
X101464749Y-58897314D01*
X101474211Y-58887768D01*
X101483159Y-58877720D01*
X101491592Y-58867169D01*
X101499511Y-58856117D01*
X101506915Y-58844562D01*
X101513805Y-58832504D01*
X101520181Y-58819945D01*
X101526042Y-58806883D01*
X101531389Y-58793320D01*
X101536221Y-58779253D01*
X101540538Y-58764685D01*
X101544342Y-58749615D01*
X101546051Y-58741891D01*
X101547631Y-58734042D01*
X101549082Y-58726067D01*
X101550405Y-58717967D01*
X101551599Y-58709741D01*
X101552665Y-58701390D01*
G37*
G36*
X100777731Y-58376254D02*
G01*
X100635289Y-58376254D01*
X100635289Y-58455974D01*
X100625625Y-58444806D01*
X100615734Y-58434359D01*
X100605616Y-58424632D01*
X100595270Y-58415625D01*
X100584696Y-58407340D01*
X100573896Y-58399774D01*
X100562867Y-58392929D01*
X100551611Y-58386805D01*
X100540128Y-58381401D01*
X100528417Y-58376718D01*
X100516479Y-58372755D01*
X100504314Y-58369512D01*
X100491921Y-58366991D01*
X100479300Y-58365189D01*
X100466452Y-58364109D01*
X100453377Y-58363748D01*
X100442993Y-58363942D01*
X100432870Y-58364525D01*
X100423008Y-58365495D01*
X100413407Y-58366853D01*
X100404067Y-58368600D01*
X100394988Y-58370734D01*
X100386170Y-58373257D01*
X100377613Y-58376168D01*
X100369317Y-58379467D01*
X100361282Y-58383154D01*
X100356071Y-58385828D01*
X100348471Y-58390130D01*
X100341132Y-58394831D01*
X100334054Y-58399931D01*
X100327238Y-58405428D01*
X100320682Y-58411324D01*
X100314387Y-58417619D01*
X100308354Y-58424312D01*
X100302581Y-58431404D01*
X100297070Y-58438893D01*
X100291819Y-58446782D01*
X100288464Y-58452262D01*
X100281194Y-58444108D01*
X100273816Y-58436353D01*
X100266333Y-58428995D01*
X100258743Y-58422037D01*
X100251046Y-58415477D01*
X100243243Y-58409315D01*
X100235334Y-58403551D01*
X100227318Y-58398187D01*
X100219196Y-58393220D01*
X100210967Y-58388652D01*
X100205422Y-58385828D01*
X100197017Y-58381882D01*
X100188509Y-58378324D01*
X100179899Y-58375155D01*
X100171185Y-58372373D01*
X100162368Y-58369980D01*
X100153448Y-58367974D01*
X100144425Y-58366357D01*
X100135299Y-58365128D01*
X100126071Y-58364287D01*
X100116739Y-58363835D01*
X100110460Y-58363748D01*
X100102501Y-58363851D01*
X100090853Y-58364392D01*
X100079551Y-58365397D01*
X100068596Y-58366865D01*
X100057988Y-58368797D01*
X100047727Y-58371193D01*
X100037813Y-58374052D01*
X100028246Y-58377375D01*
X100019025Y-58381162D01*
X100010152Y-58385412D01*
X100001625Y-58390127D01*
X99993471Y-58395252D01*
X99985716Y-58400811D01*
X99978359Y-58406802D01*
X99971400Y-58413226D01*
X99964840Y-58420083D01*
X99958678Y-58427372D01*
X99952915Y-58435094D01*
X99947550Y-58443249D01*
X99942583Y-58451837D01*
X99938015Y-58460858D01*
X99935191Y-58467112D01*
X99932328Y-58474555D01*
X99929746Y-58482815D01*
X99927446Y-58491893D01*
X99925428Y-58501788D01*
X99923691Y-58512501D01*
X99922236Y-58524031D01*
X99921422Y-58532172D01*
X99920734Y-58540676D01*
X99920170Y-58549544D01*
X99919732Y-58558775D01*
X99919419Y-58568369D01*
X99919232Y-58578326D01*
X99919169Y-58588647D01*
X99919169Y-58964000D01*
X100073726Y-58964000D01*
X100073726Y-58624209D01*
X100073788Y-58613390D01*
X100073976Y-58603060D01*
X100074289Y-58593221D01*
X100074727Y-58583872D01*
X100075291Y-58575013D01*
X100075979Y-58566644D01*
X100076793Y-58558765D01*
X100078248Y-58547865D01*
X100079985Y-58538067D01*
X100082003Y-58529373D01*
X100084303Y-58521780D01*
X100087808Y-58513372D01*
X100089748Y-58509903D01*
X100095436Y-58502026D01*
X100101850Y-58495200D01*
X100108991Y-58489423D01*
X100116859Y-58484697D01*
X100125453Y-58481021D01*
X100134774Y-58478396D01*
X100144822Y-58476821D01*
X100152834Y-58476328D01*
X100155596Y-58476295D01*
X100163647Y-58476610D01*
X100171582Y-58477553D01*
X100179401Y-58479126D01*
X100187103Y-58481327D01*
X100194690Y-58484157D01*
X100202161Y-58487616D01*
X100209516Y-58491704D01*
X100216754Y-58496421D01*
X100223639Y-58501749D01*
X100230029Y-58507668D01*
X100235924Y-58514181D01*
X100241325Y-58521285D01*
X100246232Y-58528982D01*
X100250643Y-58537271D01*
X100254560Y-58546152D01*
X100257983Y-58555625D01*
X100260217Y-58563313D01*
X100262232Y-58571794D01*
X100264028Y-58581068D01*
X100265603Y-58591135D01*
X100266959Y-58601996D01*
X100268094Y-58613651D01*
X100268729Y-58621861D01*
X100269267Y-58630424D01*
X100269706Y-58639340D01*
X100270048Y-58648608D01*
X100270292Y-58658229D01*
X100270439Y-58668202D01*
X100270488Y-58678528D01*
X100270488Y-58964000D01*
X100424849Y-58964000D01*
X100424849Y-58638082D01*
X100424881Y-58627478D01*
X100424978Y-58617355D01*
X100425138Y-58607713D01*
X100425362Y-58598551D01*
X100425651Y-58589871D01*
X100426003Y-58581671D01*
X100426653Y-58570273D01*
X100427446Y-58559957D01*
X100428384Y-58550723D01*
X100429466Y-58542571D01*
X100431133Y-58533384D01*
X100433056Y-58526121D01*
X100435845Y-58518559D01*
X100439783Y-58510316D01*
X100444367Y-58502979D01*
X100449597Y-58496550D01*
X100455473Y-58491027D01*
X100458653Y-58488605D01*
X100465540Y-58484422D01*
X100473307Y-58481104D01*
X100481953Y-58478652D01*
X100489830Y-58477269D01*
X100498318Y-58476488D01*
X100505547Y-58476295D01*
X100514374Y-58476604D01*
X100522974Y-58477529D01*
X100531348Y-58479071D01*
X100539497Y-58481229D01*
X100547420Y-58484004D01*
X100555116Y-58487396D01*
X100562587Y-58491405D01*
X100569832Y-58496030D01*
X100576713Y-58501187D01*
X100583094Y-58506887D01*
X100588974Y-58513130D01*
X100594354Y-58519917D01*
X100599233Y-58527247D01*
X100603611Y-58535121D01*
X100607488Y-58543538D01*
X100610865Y-58552499D01*
X100613750Y-58562492D01*
X100615661Y-58570984D01*
X100617356Y-58580331D01*
X100618835Y-58590534D01*
X100620097Y-58601592D01*
X100620818Y-58609439D01*
X100621443Y-58617666D01*
X100621972Y-58626273D01*
X100622405Y-58635261D01*
X100622742Y-58644628D01*
X100622982Y-58654376D01*
X100623126Y-58664504D01*
X100623175Y-58675011D01*
X100623175Y-58964000D01*
X100777731Y-58964000D01*
X100777731Y-58376254D01*
G37*
G36*
X99770474Y-58288717D02*
G01*
X99770474Y-58151159D01*
X99615917Y-58151159D01*
X99615917Y-58288717D01*
X99770474Y-58288717D01*
G37*
G36*
X99770474Y-58964000D02*
G01*
X99770474Y-58376254D01*
X99615917Y-58376254D01*
X99615917Y-58964000D01*
X99770474Y-58964000D01*
G37*
G36*
X99191716Y-58376254D02*
G01*
X99191716Y-58488801D01*
X99297229Y-58488801D01*
X99297229Y-58743986D01*
X99297218Y-58753429D01*
X99297183Y-58762368D01*
X99297126Y-58770801D01*
X99297046Y-58778729D01*
X99296883Y-58789674D01*
X99296668Y-58799481D01*
X99296402Y-58808152D01*
X99295967Y-58817945D01*
X99295294Y-58827343D01*
X99294298Y-58834453D01*
X99291600Y-58842074D01*
X99287413Y-58848818D01*
X99281739Y-58854683D01*
X99280425Y-58855751D01*
X99273270Y-58860079D01*
X99265236Y-58862804D01*
X99257256Y-58863886D01*
X99254438Y-58863958D01*
X99245704Y-58863436D01*
X99237398Y-58862203D01*
X99228157Y-58860245D01*
X99220091Y-58858157D01*
X99211426Y-58855605D01*
X99202164Y-58852588D01*
X99192302Y-58849108D01*
X99179015Y-58956184D01*
X99189251Y-58959815D01*
X99199733Y-58963090D01*
X99210463Y-58966007D01*
X99221440Y-58968567D01*
X99232665Y-58970770D01*
X99244137Y-58972615D01*
X99251922Y-58973647D01*
X99259817Y-58974520D01*
X99267822Y-58975235D01*
X99275937Y-58975790D01*
X99284162Y-58976187D01*
X99292497Y-58976425D01*
X99300941Y-58976505D01*
X99311267Y-58976279D01*
X99321336Y-58975601D01*
X99331148Y-58974471D01*
X99340704Y-58972890D01*
X99350004Y-58970857D01*
X99359047Y-58968371D01*
X99367833Y-58965434D01*
X99376364Y-58962046D01*
X99384442Y-58958299D01*
X99391971Y-58954291D01*
X99398950Y-58950020D01*
X99405380Y-58945486D01*
X99412644Y-58939449D01*
X99419050Y-58933003D01*
X99424597Y-58926146D01*
X99425603Y-58924725D01*
X99430254Y-58917185D01*
X99434438Y-58908853D01*
X99437448Y-58901618D01*
X99440159Y-58893875D01*
X99442571Y-58885626D01*
X99444684Y-58876870D01*
X99446497Y-58867607D01*
X99447292Y-58862785D01*
X99448437Y-58854966D01*
X99449429Y-58845383D01*
X99450073Y-58837037D01*
X99450631Y-58827699D01*
X99451103Y-58817368D01*
X99451490Y-58806045D01*
X99451700Y-58797944D01*
X99451871Y-58789403D01*
X99452005Y-58780420D01*
X99452100Y-58770996D01*
X99452158Y-58761131D01*
X99452177Y-58750824D01*
X99452177Y-58488801D01*
X99523105Y-58488801D01*
X99523105Y-58376254D01*
X99452177Y-58376254D01*
X99452177Y-58263706D01*
X99297229Y-58176170D01*
X99297229Y-58376254D01*
X99191716Y-58376254D01*
G37*
G36*
X98932623Y-58151159D02*
G01*
X98932623Y-58446986D01*
X98923179Y-58436907D01*
X98913505Y-58427477D01*
X98903603Y-58418698D01*
X98893471Y-58410570D01*
X98883111Y-58403091D01*
X98872521Y-58396263D01*
X98861703Y-58390085D01*
X98850655Y-58384558D01*
X98839379Y-58379681D01*
X98827874Y-58375454D01*
X98816139Y-58371877D01*
X98804176Y-58368951D01*
X98791984Y-58366675D01*
X98779562Y-58365049D01*
X98766912Y-58364073D01*
X98754033Y-58363748D01*
X98744124Y-58363923D01*
X98734400Y-58364449D01*
X98724862Y-58365325D01*
X98715510Y-58366551D01*
X98706343Y-58368127D01*
X98697361Y-58370054D01*
X98688565Y-58372332D01*
X98679954Y-58374959D01*
X98671529Y-58377937D01*
X98663289Y-58381265D01*
X98657899Y-58383678D01*
X98650061Y-58387512D01*
X98642594Y-58391537D01*
X98635498Y-58395755D01*
X98628773Y-58400165D01*
X98622419Y-58404767D01*
X98614524Y-58411203D01*
X98607288Y-58417981D01*
X98600712Y-58425101D01*
X98594795Y-58432562D01*
X98593419Y-58434481D01*
X98588210Y-58442306D01*
X98583429Y-58450345D01*
X98579076Y-58458597D01*
X98575149Y-58467063D01*
X98571651Y-58475743D01*
X98568579Y-58484636D01*
X98565935Y-58493743D01*
X98563719Y-58503064D01*
X98561841Y-58513094D01*
X98560597Y-58521469D01*
X98559494Y-58530576D01*
X98558532Y-58540415D01*
X98557710Y-58550985D01*
X98557030Y-58562287D01*
X98556654Y-58570228D01*
X98556341Y-58578494D01*
X98556091Y-58587085D01*
X98555903Y-58596001D01*
X98555778Y-58605243D01*
X98555716Y-58614810D01*
X98555708Y-58619715D01*
X98555708Y-58964000D01*
X98710069Y-58964000D01*
X98710069Y-58649806D01*
X98710104Y-58638397D01*
X98710207Y-58627521D01*
X98710378Y-58617178D01*
X98710619Y-58607368D01*
X98710928Y-58598091D01*
X98711306Y-58589346D01*
X98711752Y-58581134D01*
X98712551Y-58569815D01*
X98713504Y-58559695D01*
X98714612Y-58550774D01*
X98715874Y-58543051D01*
X98717797Y-58534618D01*
X98718862Y-58531201D01*
X98721939Y-58523577D01*
X98725674Y-58516459D01*
X98730068Y-58509846D01*
X98735119Y-58503739D01*
X98740829Y-58498138D01*
X98747198Y-58493042D01*
X98749930Y-58491145D01*
X98757162Y-58486867D01*
X98764939Y-58483314D01*
X98773260Y-58480486D01*
X98782124Y-58478384D01*
X98791532Y-58477006D01*
X98799450Y-58476426D01*
X98805617Y-58476295D01*
X98815112Y-58476595D01*
X98824350Y-58477492D01*
X98833332Y-58478988D01*
X98842058Y-58481083D01*
X98850527Y-58483775D01*
X98858740Y-58487066D01*
X98866696Y-58490956D01*
X98874396Y-58495444D01*
X98881714Y-58500485D01*
X98888525Y-58506130D01*
X98894830Y-58512379D01*
X98900627Y-58519233D01*
X98905918Y-58526692D01*
X98910702Y-58534755D01*
X98914980Y-58543422D01*
X98918750Y-58552695D01*
X98921230Y-58560198D01*
X98923465Y-58568347D01*
X98925456Y-58577142D01*
X98927204Y-58586583D01*
X98928708Y-58596670D01*
X98929968Y-58607402D01*
X98930984Y-58618780D01*
X98931526Y-58626724D01*
X98931959Y-58634955D01*
X98932285Y-58643473D01*
X98932501Y-58652278D01*
X98932610Y-58661370D01*
X98932623Y-58666023D01*
X98932623Y-58964000D01*
X99086985Y-58964000D01*
X99086985Y-58151159D01*
X98932623Y-58151159D01*
G37*
G36*
X97602965Y-58813937D02*
G01*
X97602965Y-58964000D01*
X98144403Y-58964000D01*
X98143166Y-58953946D01*
X98141655Y-58943959D01*
X98139869Y-58934040D01*
X98137808Y-58924188D01*
X98135473Y-58914403D01*
X98132862Y-58904685D01*
X98129977Y-58895034D01*
X98126817Y-58885451D01*
X98123383Y-58875935D01*
X98119673Y-58866486D01*
X98115689Y-58857104D01*
X98111430Y-58847789D01*
X98106896Y-58838541D01*
X98102088Y-58829361D01*
X98097004Y-58820247D01*
X98091646Y-58811201D01*
X98085816Y-58801980D01*
X98079315Y-58792391D01*
X98072144Y-58782435D01*
X98064303Y-58772110D01*
X98055792Y-58761418D01*
X98046611Y-58750357D01*
X98036760Y-58738929D01*
X98026238Y-58727133D01*
X98020726Y-58721097D01*
X98015046Y-58714969D01*
X98009199Y-58708749D01*
X98003185Y-58702437D01*
X97997002Y-58696033D01*
X97990653Y-58689537D01*
X97984135Y-58682949D01*
X97977451Y-58676269D01*
X97970598Y-58669497D01*
X97963578Y-58662634D01*
X97956391Y-58655678D01*
X97949036Y-58648630D01*
X97941513Y-58641490D01*
X97933823Y-58634259D01*
X97925966Y-58626935D01*
X97917941Y-58619519D01*
X97911486Y-58613547D01*
X97905190Y-58607697D01*
X97899051Y-58601969D01*
X97893071Y-58596362D01*
X97887248Y-58590877D01*
X97876077Y-58580272D01*
X97865538Y-58570155D01*
X97855631Y-58560524D01*
X97846356Y-58551380D01*
X97837713Y-58542723D01*
X97829702Y-58534553D01*
X97822322Y-58526870D01*
X97815575Y-58519674D01*
X97809460Y-58512965D01*
X97803977Y-58506743D01*
X97796937Y-58498323D01*
X97791319Y-58490999D01*
X97789762Y-58488801D01*
X97784070Y-58479908D01*
X97778938Y-58471037D01*
X97774366Y-58462185D01*
X97770354Y-58453355D01*
X97766902Y-58444545D01*
X97764009Y-58435756D01*
X97761676Y-58426987D01*
X97759903Y-58418239D01*
X97758690Y-58409511D01*
X97758037Y-58400804D01*
X97757913Y-58395011D01*
X97758157Y-58385620D01*
X97758888Y-58376645D01*
X97760108Y-58368085D01*
X97761815Y-58359941D01*
X97764009Y-58352213D01*
X97767694Y-58342554D01*
X97772246Y-58333635D01*
X97777666Y-58325454D01*
X97783952Y-58318012D01*
X97785659Y-58316267D01*
X97792925Y-58309810D01*
X97800851Y-58304214D01*
X97809436Y-58299479D01*
X97818680Y-58295605D01*
X97828585Y-58292591D01*
X97836445Y-58290896D01*
X97844677Y-58289685D01*
X97853280Y-58288959D01*
X97862253Y-58288717D01*
X97871164Y-58288971D01*
X97879724Y-58289734D01*
X97887934Y-58291004D01*
X97895794Y-58292784D01*
X97903303Y-58295071D01*
X97912771Y-58298912D01*
X97921615Y-58303656D01*
X97929837Y-58309304D01*
X97937436Y-58315856D01*
X97939239Y-58317635D01*
X97945995Y-58325463D01*
X97950570Y-58332120D01*
X97954721Y-58339449D01*
X97958451Y-58347452D01*
X97961758Y-58356128D01*
X97964642Y-58365477D01*
X97967105Y-58375499D01*
X97969144Y-58386195D01*
X97970761Y-58397564D01*
X97971605Y-58405517D01*
X97972260Y-58413769D01*
X98126231Y-58398528D01*
X98125319Y-58390334D01*
X98124292Y-58382286D01*
X98123150Y-58374383D01*
X98121893Y-58366627D01*
X98119034Y-58351554D01*
X98115716Y-58337065D01*
X98111939Y-58323160D01*
X98107702Y-58309841D01*
X98103006Y-58297106D01*
X98097850Y-58284956D01*
X98092235Y-58273390D01*
X98086160Y-58262409D01*
X98079626Y-58252013D01*
X98072632Y-58242201D01*
X98065179Y-58232974D01*
X98057266Y-58224331D01*
X98048894Y-58216274D01*
X98040062Y-58208801D01*
X98030835Y-58201821D01*
X98021326Y-58195291D01*
X98011534Y-58189212D01*
X98001460Y-58183583D01*
X97991103Y-58178404D01*
X97980464Y-58173675D01*
X97969542Y-58169397D01*
X97958339Y-58165570D01*
X97946852Y-58162192D01*
X97935084Y-58159265D01*
X97923032Y-58156788D01*
X97910699Y-58154762D01*
X97898083Y-58153186D01*
X97885185Y-58152060D01*
X97872004Y-58151384D01*
X97858541Y-58151159D01*
X97843841Y-58151410D01*
X97829540Y-58152161D01*
X97815637Y-58153412D01*
X97802133Y-58155165D01*
X97789027Y-58157418D01*
X97776320Y-58160172D01*
X97764011Y-58163426D01*
X97752100Y-58167182D01*
X97740588Y-58171438D01*
X97729474Y-58176194D01*
X97718758Y-58181452D01*
X97708441Y-58187210D01*
X97698523Y-58193468D01*
X97689003Y-58200228D01*
X97679881Y-58207488D01*
X97671158Y-58215249D01*
X97662900Y-58223358D01*
X97655175Y-58231714D01*
X97647983Y-58240315D01*
X97641324Y-58249162D01*
X97635197Y-58258254D01*
X97629603Y-58267593D01*
X97624542Y-58277177D01*
X97620013Y-58287007D01*
X97616018Y-58297083D01*
X97612555Y-58307405D01*
X97609625Y-58317972D01*
X97607227Y-58328785D01*
X97605363Y-58339844D01*
X97604031Y-58351148D01*
X97603232Y-58362699D01*
X97602965Y-58374495D01*
X97603137Y-58384599D01*
X97603652Y-58394613D01*
X97604511Y-58404538D01*
X97605713Y-58414374D01*
X97607259Y-58424120D01*
X97609148Y-58433777D01*
X97611380Y-58443345D01*
X97613956Y-58452824D01*
X97616876Y-58462213D01*
X97620139Y-58471513D01*
X97622505Y-58477663D01*
X97626367Y-58486865D01*
X97630629Y-58496153D01*
X97635288Y-58505527D01*
X97640347Y-58514987D01*
X97645803Y-58524532D01*
X97651658Y-58534163D01*
X97657911Y-58543881D01*
X97662302Y-58550406D01*
X97666869Y-58556971D01*
X97671613Y-58563573D01*
X97676535Y-58570213D01*
X97681634Y-58576892D01*
X97684249Y-58580245D01*
X97689920Y-58587188D01*
X97696380Y-58594680D01*
X97703631Y-58602722D01*
X97711672Y-58611313D01*
X97717471Y-58617346D01*
X97723621Y-58623623D01*
X97730123Y-58630144D01*
X97736975Y-58636909D01*
X97744179Y-58643919D01*
X97751734Y-58651173D01*
X97759639Y-58658672D01*
X97767896Y-58666414D01*
X97776504Y-58674401D01*
X97785463Y-58682632D01*
X97794389Y-58690786D01*
X97802896Y-58698593D01*
X97810985Y-58706052D01*
X97818656Y-58713162D01*
X97825909Y-58719925D01*
X97832743Y-58726339D01*
X97839159Y-58732405D01*
X97845156Y-58738124D01*
X97853369Y-58746049D01*
X97860640Y-58753190D01*
X97866970Y-58759549D01*
X97873946Y-58766809D01*
X97878080Y-58771341D01*
X97884005Y-58778151D01*
X97889567Y-58784904D01*
X97894767Y-58791600D01*
X97899604Y-58798238D01*
X97904079Y-58804819D01*
X97908970Y-58812641D01*
X97909734Y-58813937D01*
X97602965Y-58813937D01*
G37*
G36*
X97254937Y-58151482D02*
G01*
X97268963Y-58152451D01*
X97282586Y-58154065D01*
X97295805Y-58156325D01*
X97308622Y-58159231D01*
X97321036Y-58162782D01*
X97333046Y-58166979D01*
X97344654Y-58171822D01*
X97355859Y-58177311D01*
X97366660Y-58183445D01*
X97377059Y-58190225D01*
X97387055Y-58197651D01*
X97396647Y-58205722D01*
X97405837Y-58214440D01*
X97414623Y-58223802D01*
X97423007Y-58233811D01*
X97427876Y-58240213D01*
X97432590Y-58246864D01*
X97437149Y-58253765D01*
X97441554Y-58260916D01*
X97445805Y-58268316D01*
X97449901Y-58275966D01*
X97453842Y-58283865D01*
X97457629Y-58292014D01*
X97461261Y-58300413D01*
X97464738Y-58309061D01*
X97468061Y-58317958D01*
X97471230Y-58327106D01*
X97474244Y-58336503D01*
X97477103Y-58346149D01*
X97479808Y-58356045D01*
X97482358Y-58366191D01*
X97484754Y-58376586D01*
X97486995Y-58387231D01*
X97489081Y-58398125D01*
X97491013Y-58409269D01*
X97492791Y-58420663D01*
X97494414Y-58432306D01*
X97495882Y-58444198D01*
X97497196Y-58456341D01*
X97498355Y-58468733D01*
X97499360Y-58481374D01*
X97500210Y-58494265D01*
X97500905Y-58507406D01*
X97501446Y-58520796D01*
X97501833Y-58534436D01*
X97502064Y-58548325D01*
X97502142Y-58562464D01*
X97502072Y-58576870D01*
X97501861Y-58590999D01*
X97501510Y-58604850D01*
X97501018Y-58618423D01*
X97500386Y-58631720D01*
X97499614Y-58644738D01*
X97498701Y-58657479D01*
X97497648Y-58669943D01*
X97496454Y-58682130D01*
X97495120Y-58694039D01*
X97493645Y-58705670D01*
X97492030Y-58717024D01*
X97490275Y-58728101D01*
X97488379Y-58738900D01*
X97486342Y-58749422D01*
X97484165Y-58759666D01*
X97481848Y-58769633D01*
X97479391Y-58779322D01*
X97476792Y-58788734D01*
X97474054Y-58797869D01*
X97471175Y-58806726D01*
X97468155Y-58815305D01*
X97464995Y-58823607D01*
X97461695Y-58831632D01*
X97458254Y-58839379D01*
X97454673Y-58846849D01*
X97450952Y-58854042D01*
X97447089Y-58860956D01*
X97438944Y-58873954D01*
X97430237Y-58885842D01*
X97421046Y-58896821D01*
X97411500Y-58907091D01*
X97401598Y-58916653D01*
X97391341Y-58925507D01*
X97380728Y-58933652D01*
X97369759Y-58941090D01*
X97358435Y-58947818D01*
X97346754Y-58953839D01*
X97334719Y-58959151D01*
X97322327Y-58963755D01*
X97309580Y-58967651D01*
X97296477Y-58970838D01*
X97283019Y-58973317D01*
X97269204Y-58975088D01*
X97255034Y-58976151D01*
X97240509Y-58976505D01*
X97226104Y-58976182D01*
X97212100Y-58975213D01*
X97198498Y-58973599D01*
X97185298Y-58971339D01*
X97172499Y-58968433D01*
X97160101Y-58964882D01*
X97148105Y-58960685D01*
X97136510Y-58955842D01*
X97125317Y-58950353D01*
X97114525Y-58944219D01*
X97104135Y-58937439D01*
X97094146Y-58930013D01*
X97084559Y-58921942D01*
X97075373Y-58913224D01*
X97066589Y-58903862D01*
X97058206Y-58893853D01*
X97053337Y-58887450D01*
X97048623Y-58880795D01*
X97044064Y-58873888D01*
X97039659Y-58866730D01*
X97035408Y-58859319D01*
X97031313Y-58851657D01*
X97027371Y-58843743D01*
X97023585Y-58835577D01*
X97019952Y-58827159D01*
X97016475Y-58818489D01*
X97013152Y-58809567D01*
X97009983Y-58800393D01*
X97006969Y-58790968D01*
X97004110Y-58781291D01*
X97001405Y-58771361D01*
X96998855Y-58761180D01*
X96996459Y-58750747D01*
X96994218Y-58740062D01*
X96992132Y-58729126D01*
X96990200Y-58717937D01*
X96988422Y-58706497D01*
X96986799Y-58694804D01*
X96985331Y-58682860D01*
X96984017Y-58670664D01*
X96982858Y-58658216D01*
X96981853Y-58645516D01*
X96981003Y-58632564D01*
X96980308Y-58619361D01*
X96979767Y-58605905D01*
X96979380Y-58592198D01*
X96979149Y-58578239D01*
X96979071Y-58564027D01*
X97140467Y-58564027D01*
X97140483Y-58572559D01*
X97140530Y-58580934D01*
X97140608Y-58589152D01*
X97140717Y-58597214D01*
X97140858Y-58605119D01*
X97141234Y-58620461D01*
X97141734Y-58635176D01*
X97142360Y-58649266D01*
X97143111Y-58662730D01*
X97143987Y-58675568D01*
X97144989Y-58687780D01*
X97146115Y-58699367D01*
X97147367Y-58710327D01*
X97148744Y-58720661D01*
X97150246Y-58730370D01*
X97151873Y-58739453D01*
X97153626Y-58747910D01*
X97156489Y-58759422D01*
X97158813Y-58767571D01*
X97161316Y-58775239D01*
X97164931Y-58784716D01*
X97168863Y-58793338D01*
X97173113Y-58801105D01*
X97177680Y-58808017D01*
X97183836Y-58815455D01*
X97190488Y-58821557D01*
X97193271Y-58823663D01*
X97200428Y-58828333D01*
X97207872Y-58832154D01*
X97215602Y-58835126D01*
X97223618Y-58837249D01*
X97231920Y-58838523D01*
X97240509Y-58838947D01*
X97243978Y-58838881D01*
X97252443Y-58838134D01*
X97260613Y-58836557D01*
X97268487Y-58834150D01*
X97276065Y-58830912D01*
X97283348Y-58826845D01*
X97290334Y-58821948D01*
X97294336Y-58818423D01*
X97300715Y-58811213D01*
X97305557Y-58804243D01*
X97310167Y-58796205D01*
X97314545Y-58787097D01*
X97317676Y-58779566D01*
X97320677Y-58771433D01*
X97323547Y-58762699D01*
X97326287Y-58753364D01*
X97328836Y-58742935D01*
X97330396Y-58735141D01*
X97331845Y-58726673D01*
X97333182Y-58717532D01*
X97334408Y-58707718D01*
X97335522Y-58697231D01*
X97336525Y-58686071D01*
X97337417Y-58674237D01*
X97338197Y-58661730D01*
X97338865Y-58648551D01*
X97339422Y-58634697D01*
X97339868Y-58620171D01*
X97340202Y-58604971D01*
X97340328Y-58597119D01*
X97340425Y-58589099D01*
X97340495Y-58580910D01*
X97340537Y-58572553D01*
X97340551Y-58564027D01*
X97340535Y-58555508D01*
X97340488Y-58547143D01*
X97340410Y-58538933D01*
X97340300Y-58530878D01*
X97339987Y-58515232D01*
X97339549Y-58500207D01*
X97338986Y-58485801D01*
X97338298Y-58472015D01*
X97337484Y-58458849D01*
X97336545Y-58446302D01*
X97335481Y-58434376D01*
X97334292Y-58423069D01*
X97332978Y-58412382D01*
X97331538Y-58402314D01*
X97329973Y-58392867D01*
X97328284Y-58384039D01*
X97326469Y-58375831D01*
X97324528Y-58368242D01*
X97322204Y-58360093D01*
X97319702Y-58352425D01*
X97316087Y-58342948D01*
X97312154Y-58334326D01*
X97307905Y-58326559D01*
X97303337Y-58319647D01*
X97297182Y-58312209D01*
X97290530Y-58306107D01*
X97287747Y-58304001D01*
X97280589Y-58299331D01*
X97273146Y-58295510D01*
X97265416Y-58292538D01*
X97257400Y-58290415D01*
X97249097Y-58289141D01*
X97240509Y-58288717D01*
X97237041Y-58288785D01*
X97228584Y-58289549D01*
X97220432Y-58291162D01*
X97212586Y-58293625D01*
X97205045Y-58296936D01*
X97197809Y-58301097D01*
X97190879Y-58306107D01*
X97185527Y-58310989D01*
X97180413Y-58316939D01*
X97175537Y-58323958D01*
X97170900Y-58332046D01*
X97166500Y-58341202D01*
X97163357Y-58348770D01*
X97160348Y-58356939D01*
X97157472Y-58365710D01*
X97154731Y-58375081D01*
X97152182Y-58385474D01*
X97150622Y-58393244D01*
X97149173Y-58401687D01*
X97147836Y-58410803D01*
X97146610Y-58420593D01*
X97145495Y-58431056D01*
X97144493Y-58442192D01*
X97143601Y-58454001D01*
X97142821Y-58466483D01*
X97142152Y-58479639D01*
X97141595Y-58493467D01*
X97141149Y-58507969D01*
X97140815Y-58523144D01*
X97140690Y-58530984D01*
X97140592Y-58538993D01*
X97140523Y-58547169D01*
X97140481Y-58555514D01*
X97140467Y-58564027D01*
X96979071Y-58564027D01*
X96979148Y-58549793D01*
X96979378Y-58535814D01*
X96979762Y-58522090D01*
X96980299Y-58508621D01*
X96980989Y-58495407D01*
X96981833Y-58482447D01*
X96982830Y-58469743D01*
X96983981Y-58457293D01*
X96985285Y-58445099D01*
X96986742Y-58433159D01*
X96988353Y-58421474D01*
X96990117Y-58410045D01*
X96992035Y-58398870D01*
X96994106Y-58387950D01*
X96996330Y-58377285D01*
X96998708Y-58366875D01*
X97001240Y-58356719D01*
X97003925Y-58346819D01*
X97006763Y-58337174D01*
X97009754Y-58327784D01*
X97012899Y-58318648D01*
X97016198Y-58309768D01*
X97019650Y-58301142D01*
X97023255Y-58292771D01*
X97027013Y-58284656D01*
X97030926Y-58276795D01*
X97034991Y-58269189D01*
X97039210Y-58261838D01*
X97043582Y-58254742D01*
X97048108Y-58247901D01*
X97052787Y-58241315D01*
X97057620Y-58234983D01*
X97066074Y-58224833D01*
X97074924Y-58215337D01*
X97084172Y-58206496D01*
X97093817Y-58198310D01*
X97103858Y-58190779D01*
X97114296Y-58183903D01*
X97125132Y-58177682D01*
X97136364Y-58172115D01*
X97147993Y-58167204D01*
X97160019Y-58162947D01*
X97172441Y-58159345D01*
X97185261Y-58156398D01*
X97198478Y-58154106D01*
X97212091Y-58152469D01*
X97226102Y-58151487D01*
X97240509Y-58151159D01*
X97254937Y-58151482D01*
G37*
G36*
X96357131Y-58813937D02*
G01*
X96357131Y-58964000D01*
X96898569Y-58964000D01*
X96897332Y-58953946D01*
X96895821Y-58943959D01*
X96894035Y-58934040D01*
X96891974Y-58924188D01*
X96889639Y-58914403D01*
X96887028Y-58904685D01*
X96884143Y-58895034D01*
X96880983Y-58885451D01*
X96877549Y-58875935D01*
X96873839Y-58866486D01*
X96869855Y-58857104D01*
X96865596Y-58847789D01*
X96861062Y-58838541D01*
X96856254Y-58829361D01*
X96851170Y-58820247D01*
X96845812Y-58811201D01*
X96839982Y-58801980D01*
X96833481Y-58792391D01*
X96826310Y-58782435D01*
X96818469Y-58772110D01*
X96809958Y-58761418D01*
X96800777Y-58750357D01*
X96790926Y-58738929D01*
X96780404Y-58727133D01*
X96774892Y-58721097D01*
X96769212Y-58714969D01*
X96763365Y-58708749D01*
X96757351Y-58702437D01*
X96751168Y-58696033D01*
X96744819Y-58689537D01*
X96738301Y-58682949D01*
X96731617Y-58676269D01*
X96724764Y-58669497D01*
X96717744Y-58662634D01*
X96710557Y-58655678D01*
X96703202Y-58648630D01*
X96695680Y-58641490D01*
X96687990Y-58634259D01*
X96680132Y-58626935D01*
X96672107Y-58619519D01*
X96665652Y-58613547D01*
X96659356Y-58607697D01*
X96653217Y-58601969D01*
X96647237Y-58596362D01*
X96641414Y-58590877D01*
X96630243Y-58580272D01*
X96619704Y-58570155D01*
X96609797Y-58560524D01*
X96600522Y-58551380D01*
X96591879Y-58542723D01*
X96583868Y-58534553D01*
X96576488Y-58526870D01*
X96569741Y-58519674D01*
X96563626Y-58512965D01*
X96558143Y-58506743D01*
X96551103Y-58498323D01*
X96545485Y-58490999D01*
X96543928Y-58488801D01*
X96538236Y-58479908D01*
X96533104Y-58471037D01*
X96528532Y-58462185D01*
X96524520Y-58453355D01*
X96521068Y-58444545D01*
X96518175Y-58435756D01*
X96515842Y-58426987D01*
X96514070Y-58418239D01*
X96512857Y-58409511D01*
X96512203Y-58400804D01*
X96512079Y-58395011D01*
X96512323Y-58385620D01*
X96513054Y-58376645D01*
X96514274Y-58368085D01*
X96515981Y-58359941D01*
X96518175Y-58352213D01*
X96521860Y-58342554D01*
X96526413Y-58333635D01*
X96531832Y-58325454D01*
X96538118Y-58318012D01*
X96539825Y-58316267D01*
X96547091Y-58309810D01*
X96555017Y-58304214D01*
X96563602Y-58299479D01*
X96572847Y-58295605D01*
X96582751Y-58292591D01*
X96590611Y-58290896D01*
X96598843Y-58289685D01*
X96607446Y-58288959D01*
X96616419Y-58288717D01*
X96625330Y-58288971D01*
X96633890Y-58289734D01*
X96642100Y-58291004D01*
X96649960Y-58292784D01*
X96657469Y-58295071D01*
X96666937Y-58298912D01*
X96675782Y-58303656D01*
X96684003Y-58309304D01*
X96691602Y-58315856D01*
X96693405Y-58317635D01*
X96700161Y-58325463D01*
X96704736Y-58332120D01*
X96708888Y-58339449D01*
X96712617Y-58347452D01*
X96715924Y-58356128D01*
X96718809Y-58365477D01*
X96721271Y-58375499D01*
X96723310Y-58386195D01*
X96724927Y-58397564D01*
X96725771Y-58405517D01*
X96726426Y-58413769D01*
X96880397Y-58398528D01*
X96879485Y-58390334D01*
X96878458Y-58382286D01*
X96877316Y-58374383D01*
X96876059Y-58366627D01*
X96873200Y-58351554D01*
X96869883Y-58337065D01*
X96866105Y-58323160D01*
X96861868Y-58309841D01*
X96857172Y-58297106D01*
X96852016Y-58284956D01*
X96846401Y-58273390D01*
X96840326Y-58262409D01*
X96833792Y-58252013D01*
X96826798Y-58242201D01*
X96819345Y-58232974D01*
X96811432Y-58224331D01*
X96803060Y-58216274D01*
X96794228Y-58208801D01*
X96785001Y-58201821D01*
X96775492Y-58195291D01*
X96765700Y-58189212D01*
X96755626Y-58183583D01*
X96745269Y-58178404D01*
X96734630Y-58173675D01*
X96723709Y-58169397D01*
X96712505Y-58165570D01*
X96701018Y-58162192D01*
X96689250Y-58159265D01*
X96677199Y-58156788D01*
X96664865Y-58154762D01*
X96652249Y-58153186D01*
X96639351Y-58152060D01*
X96626170Y-58151384D01*
X96612707Y-58151159D01*
X96598007Y-58151410D01*
X96583706Y-58152161D01*
X96569803Y-58153412D01*
X96556299Y-58155165D01*
X96543193Y-58157418D01*
X96530486Y-58160172D01*
X96518177Y-58163426D01*
X96506266Y-58167182D01*
X96494754Y-58171438D01*
X96483640Y-58176194D01*
X96472925Y-58181452D01*
X96462608Y-58187210D01*
X96452689Y-58193468D01*
X96443169Y-58200228D01*
X96434047Y-58207488D01*
X96425324Y-58215249D01*
X96417066Y-58223358D01*
X96409341Y-58231714D01*
X96402149Y-58240315D01*
X96395490Y-58249162D01*
X96389363Y-58258254D01*
X96383769Y-58267593D01*
X96378708Y-58277177D01*
X96374179Y-58287007D01*
X96370184Y-58297083D01*
X96366721Y-58307405D01*
X96363791Y-58317972D01*
X96361393Y-58328785D01*
X96359529Y-58339844D01*
X96358197Y-58351148D01*
X96357398Y-58362699D01*
X96357131Y-58374495D01*
X96357303Y-58384599D01*
X96357818Y-58394613D01*
X96358677Y-58404538D01*
X96359879Y-58414374D01*
X96361425Y-58424120D01*
X96363314Y-58433777D01*
X96365546Y-58443345D01*
X96368122Y-58452824D01*
X96371042Y-58462213D01*
X96374305Y-58471513D01*
X96376671Y-58477663D01*
X96380534Y-58486865D01*
X96384795Y-58496153D01*
X96389455Y-58505527D01*
X96394513Y-58514987D01*
X96399969Y-58524532D01*
X96405824Y-58534163D01*
X96412078Y-58543881D01*
X96416468Y-58550406D01*
X96421035Y-58556971D01*
X96425780Y-58563573D01*
X96430701Y-58570213D01*
X96435800Y-58576892D01*
X96438415Y-58580245D01*
X96444086Y-58587188D01*
X96450547Y-58594680D01*
X96457797Y-58602722D01*
X96465838Y-58611313D01*
X96471637Y-58617346D01*
X96477787Y-58623623D01*
X96484289Y-58630144D01*
X96491141Y-58636909D01*
X96498345Y-58643919D01*
X96505900Y-58651173D01*
X96513805Y-58658672D01*
X96522062Y-58666414D01*
X96530670Y-58674401D01*
X96539630Y-58682632D01*
X96548555Y-58690786D01*
X96557062Y-58698593D01*
X96565151Y-58706052D01*
X96572822Y-58713162D01*
X96580075Y-58719925D01*
X96586909Y-58726339D01*
X96593325Y-58732405D01*
X96599323Y-58738124D01*
X96607535Y-58746049D01*
X96614806Y-58753190D01*
X96621136Y-58759549D01*
X96628112Y-58766809D01*
X96632246Y-58771341D01*
X96638171Y-58778151D01*
X96643733Y-58784904D01*
X96648933Y-58791600D01*
X96653770Y-58798238D01*
X96658245Y-58804819D01*
X96663136Y-58812641D01*
X96663900Y-58813937D01*
X96357131Y-58813937D01*
G37*
G36*
X96282686Y-58664460D02*
G01*
X96282686Y-58801431D01*
X95953056Y-58801431D01*
X95953056Y-58964000D01*
X95803579Y-58964000D01*
X95803579Y-58801431D01*
X95703537Y-58801431D01*
X95703537Y-58663874D01*
X95803579Y-58663874D01*
X95803579Y-58398919D01*
X95953056Y-58398919D01*
X95953056Y-58663874D01*
X96138094Y-58663874D01*
X95953056Y-58398919D01*
X95803579Y-58398919D01*
X95803579Y-58163665D01*
X95933126Y-58163665D01*
X96282686Y-58664460D01*
G37*
D11*
%TO.C,C211*%
X107807836Y-65960000D02*
X107592164Y-65960000D01*
X107807836Y-65240000D02*
X107592164Y-65240000D01*
%TO.C,C303*%
X114107836Y-56660000D02*
X113892164Y-56660000D01*
X114107836Y-55940000D02*
X113892164Y-55940000D01*
%TO.C,C204*%
X104160000Y-62592164D02*
X104160000Y-62807836D01*
X103440000Y-62592164D02*
X103440000Y-62807836D01*
%TO.C,R212*%
X102980000Y-62546359D02*
X102980000Y-62853641D01*
X102220000Y-62546359D02*
X102220000Y-62853641D01*
%TO.C,R218*%
X101780000Y-66546359D02*
X101780000Y-66853641D01*
X101020000Y-66546359D02*
X101020000Y-66853641D01*
%TO.C,C203*%
X103440000Y-64807836D02*
X103440000Y-64592164D01*
X104160000Y-64807836D02*
X104160000Y-64592164D01*
%TO.C,C213*%
X105840000Y-65807836D02*
X105840000Y-65592164D01*
X106560000Y-65807836D02*
X106560000Y-65592164D01*
%TO.C,R215*%
X99820000Y-66853641D02*
X99820000Y-66546359D01*
X100580000Y-66853641D02*
X100580000Y-66546359D01*
%TO.C,R214*%
X101780000Y-64546359D02*
X101780000Y-64853641D01*
X101020000Y-64546359D02*
X101020000Y-64853641D01*
%TO.C,C210*%
X102140000Y-67807836D02*
X102140000Y-67592164D01*
X102860000Y-67807836D02*
X102860000Y-67592164D01*
%TO.C,J401*%
X112975003Y-57934999D02*
X112975000Y-62935000D01*
X112385299Y-63968216D02*
X110190958Y-65265945D01*
X110190958Y-55604055D02*
X112385302Y-56901783D01*
X108959042Y-65265945D02*
X106764698Y-63968217D01*
X108959042Y-55604055D02*
X106764701Y-56901784D01*
X106174997Y-62935001D02*
X106175000Y-57935000D01*
X112385299Y-63968216D02*
G75*
G03*
X112975000Y-62935000I-610302J1033217D01*
G01*
X112975002Y-57934999D02*
G75*
G03*
X112385302Y-56901783I-1200002J-1D01*
G01*
X108959042Y-65265945D02*
G75*
G03*
X110190958Y-65265945I615958J1030944D01*
G01*
X110190958Y-55604055D02*
G75*
G03*
X108959042Y-55604055I-615958J-1030944D01*
G01*
X106174998Y-62935001D02*
G75*
G03*
X106764698Y-63968217I1200002J1D01*
G01*
X106764701Y-56901784D02*
G75*
G03*
X106175000Y-57935000I610299J-1033216D01*
G01*
X110676136Y-59185000D02*
G75*
G03*
X110676136Y-59185000I-1101136J0D01*
G01*
X110776041Y-59185000D02*
G75*
G03*
X110776041Y-59185000I-1201041J0D01*
G01*
%TO.C,R217*%
X98180000Y-64546359D02*
X98180000Y-64853641D01*
X97420000Y-64546359D02*
X97420000Y-64853641D01*
%TO.C,R216*%
X97420000Y-66853641D02*
X97420000Y-66546359D01*
X98180000Y-66853641D02*
X98180000Y-66546359D01*
%TO.C,C202*%
X98640000Y-62807836D02*
X98640000Y-62592164D01*
X99360000Y-62807836D02*
X99360000Y-62592164D01*
%TO.C,R203*%
X98620000Y-64853641D02*
X98620000Y-64546359D01*
X99380000Y-64853641D02*
X99380000Y-64546359D01*
%TO.C,C304*%
X114107836Y-57860000D02*
X113892164Y-57860000D01*
X114107836Y-57140000D02*
X113892164Y-57140000D01*
%TO.C,C501*%
X105040000Y-56907836D02*
X105040000Y-56692164D01*
X105760000Y-56907836D02*
X105760000Y-56692164D01*
%TO.C,R211*%
X104620000Y-63853641D02*
X104620000Y-63546359D01*
X105380000Y-63853641D02*
X105380000Y-63546359D01*
%TO.C,Q204*%
X98700000Y-67550000D02*
X99300000Y-67550000D01*
%TO.C,R213*%
X102220000Y-64853641D02*
X102220000Y-64546359D01*
X102980000Y-64853641D02*
X102980000Y-64546359D01*
%TO.C,R210*%
X100580000Y-62546359D02*
X100580000Y-62853641D01*
X99820000Y-62546359D02*
X99820000Y-62853641D01*
%TO.C,C201*%
X97440000Y-62807836D02*
X97440000Y-62592164D01*
X98160000Y-62807836D02*
X98160000Y-62592164D01*
%TO.C,R221*%
X104620000Y-67853641D02*
X104620000Y-67546359D01*
X105380000Y-67853641D02*
X105380000Y-67546359D01*
%TO.C,R222*%
X104620000Y-65853641D02*
X104620000Y-65546359D01*
X105380000Y-65853641D02*
X105380000Y-65546359D01*
%TO.C,R208*%
X99820000Y-64853641D02*
X99820000Y-64546359D01*
X100580000Y-64853641D02*
X100580000Y-64546359D01*
%TO.C,R220*%
X104180000Y-67546359D02*
X104180000Y-67853641D01*
X103420000Y-67546359D02*
X103420000Y-67853641D01*
%TO.C,C206*%
X101040000Y-62787836D02*
X101040000Y-62572164D01*
X101760000Y-62787836D02*
X101760000Y-62572164D01*
%TD*%
%LPC*%
D12*
%TO.C,C211*%
X108180000Y-65600000D03*
X107220000Y-65600000D03*
%TD*%
%TO.C,C303*%
X114480000Y-56300000D03*
X113520000Y-56300000D03*
%TD*%
D13*
%TO.C,C204*%
X103800000Y-62220000D03*
X103800000Y-63180000D03*
%TD*%
D14*
%TO.C,R212*%
X102600000Y-62190000D03*
X102600000Y-63210000D03*
%TD*%
%TO.C,R218*%
X101400000Y-66190000D03*
X101400000Y-67210000D03*
%TD*%
D15*
%TO.C,C203*%
X103800000Y-65180000D03*
X103800000Y-64220000D03*
%TD*%
%TO.C,C213*%
X106200000Y-66180000D03*
X106200000Y-65220000D03*
%TD*%
D16*
%TO.C,R215*%
X100200000Y-67210000D03*
X100200000Y-66190000D03*
%TD*%
D14*
%TO.C,R214*%
X101400000Y-64190000D03*
X101400000Y-65210000D03*
%TD*%
D15*
%TO.C,C210*%
X102500000Y-68180000D03*
X102500000Y-67220000D03*
%TD*%
D17*
%TO.C,J401*%
X107375000Y-57935000D03*
X107375000Y-60435000D03*
X107375000Y-62935000D03*
X109575000Y-56685000D03*
X109575000Y-59185000D03*
X109575000Y-61685000D03*
X109575000Y-64185000D03*
X111775000Y-57935000D03*
X111775000Y-60435000D03*
X111775000Y-62935000D03*
%TD*%
D14*
%TO.C,R217*%
X97800000Y-64190000D03*
X97800000Y-65210000D03*
%TD*%
D16*
%TO.C,R216*%
X97800000Y-67210000D03*
X97800000Y-66190000D03*
%TD*%
D15*
%TO.C,C202*%
X99000000Y-63180000D03*
X99000000Y-62220000D03*
%TD*%
D16*
%TO.C,R203*%
X99000000Y-65210000D03*
X99000000Y-64190000D03*
%TD*%
D12*
%TO.C,C304*%
X114480000Y-57500000D03*
X113520000Y-57500000D03*
%TD*%
D15*
%TO.C,C501*%
X105400000Y-57280000D03*
X105400000Y-56320000D03*
%TD*%
D16*
%TO.C,R211*%
X105000000Y-64210000D03*
X105000000Y-63190000D03*
%TD*%
D18*
%TO.C,Q204*%
X99225000Y-67050000D03*
X98775000Y-67050000D03*
D19*
X99000000Y-66350000D03*
%TD*%
D16*
%TO.C,R213*%
X102600000Y-65210000D03*
X102600000Y-64190000D03*
%TD*%
D14*
%TO.C,R210*%
X100200000Y-62190000D03*
X100200000Y-63210000D03*
%TD*%
D15*
%TO.C,C201*%
X97800000Y-63180000D03*
X97800000Y-62220000D03*
%TD*%
D16*
%TO.C,R221*%
X105000000Y-68210000D03*
X105000000Y-67190000D03*
%TD*%
%TO.C,R222*%
X105000000Y-66210000D03*
X105000000Y-65190000D03*
%TD*%
%TO.C,R208*%
X100200000Y-65210000D03*
X100200000Y-64190000D03*
%TD*%
D14*
%TO.C,R220*%
X103800000Y-67190000D03*
X103800000Y-68210000D03*
%TD*%
D15*
%TO.C,C206*%
X101400000Y-63160000D03*
X101400000Y-62200000D03*
%TD*%
M02*
