%TF.GenerationSoftware,KiCad,Pcbnew,7.0.1*%
%TF.CreationDate,2024-01-06T01:51:29+00:00*%
%TF.ProjectId,rfid_module,72666964-5f6d-46f6-9475-6c652e6b6963,rev?*%
%TF.SameCoordinates,Original*%
%TF.FileFunction,Soldermask,Top*%
%TF.FilePolarity,Negative*%
%FSLAX46Y46*%
G04 Gerber Fmt 4.6, Leading zero omitted, Abs format (unit mm)*
G04 Created by KiCad (PCBNEW 7.0.1) date 2024-01-06 01:51:29*
%MOMM*%
%LPD*%
G01*
G04 APERTURE LIST*
G04 Aperture macros list*
%AMRoundRect*
0 Rectangle with rounded corners*
0 $1 Rounding radius*
0 $2 $3 $4 $5 $6 $7 $8 $9 X,Y pos of 4 corners*
0 Add a 4 corners polygon primitive as box body*
4,1,4,$2,$3,$4,$5,$6,$7,$8,$9,$2,$3,0*
0 Add four circle primitives for the rounded corners*
1,1,$1+$1,$2,$3*
1,1,$1+$1,$4,$5*
1,1,$1+$1,$6,$7*
1,1,$1+$1,$8,$9*
0 Add four rect primitives between the rounded corners*
20,1,$1+$1,$2,$3,$4,$5,0*
20,1,$1+$1,$4,$5,$6,$7,0*
20,1,$1+$1,$6,$7,$8,$9,0*
20,1,$1+$1,$8,$9,$2,$3,0*%
%AMFreePoly0*
4,1,14,0.230680,0.111820,0.364320,-0.021821,0.377500,-0.053642,0.377500,-0.080000,0.364320,-0.111820,0.332500,-0.125000,-0.332500,-0.125000,-0.364320,-0.111820,-0.377500,-0.080000,-0.377500,0.080000,-0.364320,0.111820,-0.332500,0.125000,0.198860,0.125000,0.230680,0.111820,0.230680,0.111820,$1*%
%AMFreePoly1*
4,1,14,0.364320,0.111820,0.377500,0.080000,0.377501,0.053640,0.364318,0.021819,0.230680,-0.111820,0.198860,-0.125000,-0.332500,-0.125000,-0.364320,-0.111820,-0.377500,-0.080000,-0.377500,0.080000,-0.364320,0.111820,-0.332500,0.125000,0.332500,0.125000,0.364320,0.111820,0.364320,0.111820,$1*%
%AMFreePoly2*
4,1,15,0.053642,0.377500,0.080000,0.377500,0.111820,0.364320,0.125000,0.332500,0.125000,-0.332500,0.111820,-0.364320,0.080000,-0.377500,-0.080000,-0.377500,-0.111820,-0.364320,-0.125000,-0.332500,-0.125000,0.198860,-0.111820,0.230680,0.021820,0.364320,0.053640,0.377501,0.053642,0.377500,0.053642,0.377500,$1*%
%AMFreePoly3*
4,1,14,-0.021820,0.364320,0.111820,0.230679,0.125000,0.198858,0.125000,-0.332500,0.111820,-0.364320,0.080000,-0.377500,-0.080000,-0.377500,-0.111820,-0.364320,-0.125000,-0.332500,-0.125000,0.332500,-0.111820,0.364320,-0.080000,0.377500,-0.053640,0.377500,-0.021820,0.364320,-0.021820,0.364320,$1*%
%AMFreePoly4*
4,1,14,0.364320,0.111820,0.377500,0.080000,0.377500,-0.080000,0.364320,-0.111820,0.332500,-0.125000,-0.198860,-0.125001,-0.230680,-0.111818,-0.364320,0.021820,-0.377500,0.053640,-0.377500,0.080000,-0.364320,0.111820,-0.332500,0.125000,0.332500,0.125000,0.364320,0.111820,0.364320,0.111820,$1*%
%AMFreePoly5*
4,1,15,-0.198858,0.125000,0.332500,0.125000,0.364320,0.111820,0.377500,0.080000,0.377500,-0.080000,0.364320,-0.111820,0.332500,-0.125000,-0.332500,-0.125000,-0.364320,-0.111820,-0.377500,-0.080000,-0.377500,-0.053640,-0.364321,-0.021819,-0.230680,0.111820,-0.198860,0.125001,-0.198858,0.125000,-0.198858,0.125000,$1*%
%AMFreePoly6*
4,1,14,0.111820,0.364320,0.125000,0.332500,0.125001,-0.198860,0.111818,-0.230680,-0.021820,-0.364320,-0.053640,-0.377500,-0.080000,-0.377500,-0.111820,-0.364320,-0.125000,-0.332500,-0.125000,0.332500,-0.111820,0.364320,-0.080000,0.377500,0.080000,0.377500,0.111820,0.364320,0.111820,0.364320,$1*%
%AMFreePoly7*
4,1,14,0.111820,0.364320,0.125000,0.332500,0.125000,-0.332500,0.111820,-0.364320,0.080000,-0.377500,0.053640,-0.377501,0.021819,-0.364318,-0.111820,-0.230680,-0.125000,-0.198860,-0.125000,0.332500,-0.111820,0.364320,-0.080000,0.377500,0.080000,0.377500,0.111820,0.364320,0.111820,0.364320,$1*%
G04 Aperture macros list end*
%ADD10RoundRect,0.135000X0.185000X-0.135000X0.185000X0.135000X-0.185000X0.135000X-0.185000X-0.135000X0*%
%ADD11RoundRect,0.062500X-0.062500X-0.137500X0.062500X-0.137500X0.062500X0.137500X-0.062500X0.137500X0*%
%ADD12RoundRect,0.100000X-0.250000X0.100000X-0.250000X-0.100000X0.250000X-0.100000X0.250000X0.100000X0*%
%ADD13C,1.500000*%
%ADD14RoundRect,0.140000X0.170000X-0.140000X0.170000X0.140000X-0.170000X0.140000X-0.170000X-0.140000X0*%
%ADD15RoundRect,0.062500X0.137500X-0.062500X0.137500X0.062500X-0.137500X0.062500X-0.137500X-0.062500X0*%
%ADD16RoundRect,0.100000X-0.100000X-0.250000X0.100000X-0.250000X0.100000X0.250000X-0.100000X0.250000X0*%
%ADD17RoundRect,0.140000X0.140000X0.170000X-0.140000X0.170000X-0.140000X-0.170000X0.140000X-0.170000X0*%
%ADD18RoundRect,0.135000X-0.185000X0.135000X-0.185000X-0.135000X0.185000X-0.135000X0.185000X0.135000X0*%
%ADD19RoundRect,0.062500X-0.117500X-0.062500X0.117500X-0.062500X0.117500X0.062500X-0.117500X0.062500X0*%
%ADD20C,0.250000*%
%ADD21R,0.800000X0.600000*%
%ADD22C,0.298000*%
%ADD23RoundRect,0.135000X0.135000X0.185000X-0.135000X0.185000X-0.135000X-0.185000X0.135000X-0.185000X0*%
%ADD24RoundRect,0.135000X-0.135000X-0.185000X0.135000X-0.185000X0.135000X0.185000X-0.135000X0.185000X0*%
%ADD25RoundRect,0.100000X-1.300000X0.400000X-1.300000X-0.400000X1.300000X-0.400000X1.300000X0.400000X0*%
%ADD26FreePoly0,225.000000*%
%ADD27RoundRect,0.062500X0.220971X0.309359X-0.309359X-0.220971X-0.220971X-0.309359X0.309359X0.220971X0*%
%ADD28FreePoly1,225.000000*%
%ADD29FreePoly2,225.000000*%
%ADD30RoundRect,0.062500X-0.220971X0.309359X-0.309359X0.220971X0.220971X-0.309359X0.309359X-0.220971X0*%
%ADD31FreePoly3,225.000000*%
%ADD32FreePoly4,225.000000*%
%ADD33FreePoly5,225.000000*%
%ADD34FreePoly6,225.000000*%
%ADD35FreePoly7,225.000000*%
%ADD36R,0.800000X0.300000*%
%ADD37R,0.300000X0.800000*%
%ADD38R,1.760000X1.760000*%
%ADD39RoundRect,0.140000X-0.140000X-0.170000X0.140000X-0.170000X0.140000X0.170000X-0.140000X0.170000X0*%
G04 APERTURE END LIST*
D10*
%TO.C,R209*%
X100200000Y-63210000D03*
X100200000Y-62190000D03*
%TD*%
%TO.C,R204*%
X101400000Y-57210000D03*
X101400000Y-56190000D03*
%TD*%
D11*
%TO.C,Q203*%
X98775000Y-57050000D03*
X99225000Y-57050000D03*
D12*
X99000000Y-56350000D03*
%TD*%
D13*
%TO.C,TP203*%
X103700000Y-68100000D03*
%TD*%
D14*
%TO.C,C205*%
X99000000Y-65180000D03*
X99000000Y-64220000D03*
%TD*%
D15*
%TO.C,Q401*%
X109600000Y-57450000D03*
X109600000Y-57000000D03*
D16*
X108900000Y-57225000D03*
%TD*%
D17*
%TO.C,C208*%
X101880000Y-66500000D03*
X100920000Y-66500000D03*
%TD*%
D10*
%TO.C,R206*%
X99000000Y-59210000D03*
X99000000Y-58190000D03*
%TD*%
D18*
%TO.C,R503*%
X102600000Y-58190000D03*
X102600000Y-59210000D03*
%TD*%
%TO.C,R223*%
X106300000Y-65490000D03*
X106300000Y-66510000D03*
%TD*%
D19*
%TO.C,D201*%
X99520000Y-66500000D03*
X98680000Y-66500000D03*
%TD*%
D12*
%TO.C,Q202*%
X100200000Y-56350000D03*
D11*
X99975000Y-57050000D03*
X100425000Y-57050000D03*
%TD*%
D10*
%TO.C,R202*%
X100200000Y-59210000D03*
X100200000Y-58190000D03*
%TD*%
D13*
%TO.C,TP202*%
X98700000Y-68100000D03*
%TD*%
D20*
%TO.C,IC501*%
X105600000Y-56400000D03*
X105600000Y-56800000D03*
X105600000Y-57200000D03*
X105200000Y-56400000D03*
X105200000Y-56800000D03*
X105200000Y-57200000D03*
%TD*%
D21*
%TO.C,L501*%
X107400000Y-57200000D03*
X107400000Y-56400000D03*
%TD*%
D10*
%TO.C,R205*%
X99000000Y-63210000D03*
X99000000Y-62190000D03*
%TD*%
D14*
%TO.C,C502*%
X103800000Y-57180000D03*
X103800000Y-56220000D03*
%TD*%
D10*
%TO.C,R219*%
X108500000Y-66510000D03*
X108500000Y-65490000D03*
%TD*%
D13*
%TO.C,TP201*%
X96200000Y-68100000D03*
%TD*%
D22*
%TO.C,IC202*%
X109800000Y-64950000D03*
X110300000Y-64950000D03*
X110800000Y-64950000D03*
X109800000Y-65450000D03*
X110300000Y-65450000D03*
X110800000Y-65450000D03*
%TD*%
D23*
%TO.C,R402*%
X111910000Y-56100000D03*
X110890000Y-56100000D03*
%TD*%
D18*
%TO.C,R502*%
X103800000Y-58190000D03*
X103800000Y-59210000D03*
%TD*%
D14*
%TO.C,C207*%
X100200000Y-65180000D03*
X100200000Y-64220000D03*
%TD*%
D18*
%TO.C,R501*%
X102600000Y-56190000D03*
X102600000Y-57210000D03*
%TD*%
D11*
%TO.C,Q201*%
X101175000Y-59050000D03*
X101625000Y-59050000D03*
D12*
X101400000Y-58350000D03*
%TD*%
D24*
%TO.C,R504*%
X104890000Y-58700000D03*
X105910000Y-58700000D03*
%TD*%
D25*
%TO.C,L201*%
X96200000Y-56300000D03*
X96200000Y-66500000D03*
%TD*%
D26*
%TO.C,U301*%
X113973106Y-60348214D03*
D27*
X113577126Y-60037087D03*
X113223573Y-59683534D03*
X112870019Y-59329981D03*
X112516466Y-58976427D03*
X112162913Y-58622874D03*
D28*
X111851786Y-58226894D03*
D29*
X111148214Y-58226894D03*
D30*
X110837087Y-58622874D03*
X110483534Y-58976427D03*
X110129981Y-59329981D03*
X109776427Y-59683534D03*
X109422874Y-60037087D03*
D31*
X109026894Y-60348214D03*
D32*
X109026894Y-61051786D03*
D27*
X109422874Y-61362913D03*
X109776427Y-61716466D03*
X110129981Y-62070019D03*
X110483534Y-62423573D03*
X110837087Y-62777126D03*
D33*
X111148214Y-63173106D03*
D34*
X111851786Y-63173106D03*
D30*
X112162913Y-62777126D03*
X112516466Y-62423573D03*
X112870019Y-62070019D03*
X113223573Y-61716466D03*
X113577126Y-61362913D03*
D35*
X113973106Y-61051786D03*
%TD*%
D14*
%TO.C,C209*%
X107400000Y-66480000D03*
X107400000Y-65520000D03*
%TD*%
D10*
%TO.C,R201*%
X100200000Y-61210000D03*
X100200000Y-60190000D03*
%TD*%
D17*
%TO.C,C301*%
X114480000Y-57100000D03*
X113520000Y-57100000D03*
%TD*%
D18*
%TO.C,R207*%
X99000000Y-60190000D03*
X99000000Y-61210000D03*
%TD*%
D13*
%TO.C,TP101*%
X101200000Y-68100000D03*
%TD*%
D24*
%TO.C,R401*%
X108740000Y-56125000D03*
X109760000Y-56125000D03*
%TD*%
D17*
%TO.C,C302*%
X114480000Y-58100000D03*
X113520000Y-58100000D03*
%TD*%
D36*
%TO.C,IC201*%
X104500000Y-64550000D03*
X104500000Y-64050000D03*
X104500000Y-63550000D03*
X104500000Y-63050000D03*
D37*
X103750000Y-62300000D03*
X103250000Y-62300000D03*
X102750000Y-62300000D03*
X102250000Y-62300000D03*
D36*
X101500000Y-63050000D03*
X101500000Y-63550000D03*
X101500000Y-64050000D03*
X101500000Y-64550000D03*
D37*
X102250000Y-65300000D03*
X102750000Y-65300000D03*
X103250000Y-65300000D03*
X103750000Y-65300000D03*
D38*
X103000000Y-63800000D03*
%TD*%
D39*
%TO.C,C212*%
X104320000Y-66500000D03*
X105280000Y-66500000D03*
%TD*%
M02*
