%TF.GenerationSoftware,KiCad,Pcbnew,7.0.1*%
%TF.CreationDate,2024-01-02T21:49:50+00:00*%
%TF.ProjectId,rfid_module,72666964-5f6d-46f6-9475-6c652e6b6963,rev?*%
%TF.SameCoordinates,Original*%
%TF.FileFunction,Copper,L1,Top*%
%TF.FilePolarity,Positive*%
%FSLAX46Y46*%
G04 Gerber Fmt 4.6, Leading zero omitted, Abs format (unit mm)*
G04 Created by KiCad (PCBNEW 7.0.1) date 2024-01-02 21:49:50*
%MOMM*%
%LPD*%
G01*
G04 APERTURE LIST*
G04 Aperture macros list*
%AMRoundRect*
0 Rectangle with rounded corners*
0 $1 Rounding radius*
0 $2 $3 $4 $5 $6 $7 $8 $9 X,Y pos of 4 corners*
0 Add a 4 corners polygon primitive as box body*
4,1,4,$2,$3,$4,$5,$6,$7,$8,$9,$2,$3,0*
0 Add four circle primitives for the rounded corners*
1,1,$1+$1,$2,$3*
1,1,$1+$1,$4,$5*
1,1,$1+$1,$6,$7*
1,1,$1+$1,$8,$9*
0 Add four rect primitives between the rounded corners*
20,1,$1+$1,$2,$3,$4,$5,0*
20,1,$1+$1,$4,$5,$6,$7,0*
20,1,$1+$1,$6,$7,$8,$9,0*
20,1,$1+$1,$8,$9,$2,$3,0*%
%AMFreePoly0*
4,1,14,0.111820,0.364320,0.125000,0.332500,0.125000,-0.332500,0.111820,-0.364320,0.080000,-0.377500,0.053640,-0.377501,0.021819,-0.364318,-0.111820,-0.230680,-0.125000,-0.198860,-0.125000,0.332500,-0.111820,0.364320,-0.080000,0.377500,0.080000,0.377500,0.111820,0.364320,0.111820,0.364320,$1*%
%AMFreePoly1*
4,1,14,0.111820,0.364320,0.125000,0.332500,0.125001,-0.198860,0.111818,-0.230680,-0.021820,-0.364320,-0.053640,-0.377500,-0.080000,-0.377500,-0.111820,-0.364320,-0.125000,-0.332500,-0.125000,0.332500,-0.111820,0.364320,-0.080000,0.377500,0.080000,0.377500,0.111820,0.364320,0.111820,0.364320,$1*%
%AMFreePoly2*
4,1,15,-0.198858,0.125000,0.332500,0.125000,0.364320,0.111820,0.377500,0.080000,0.377500,-0.080000,0.364320,-0.111820,0.332500,-0.125000,-0.332500,-0.125000,-0.364320,-0.111820,-0.377500,-0.080000,-0.377500,-0.053640,-0.364320,-0.021819,-0.230680,0.111820,-0.198860,0.125001,-0.198858,0.125000,-0.198858,0.125000,$1*%
%AMFreePoly3*
4,1,14,0.364320,0.111820,0.377500,0.080000,0.377500,-0.080000,0.364320,-0.111820,0.332500,-0.125000,-0.198860,-0.125001,-0.230680,-0.111818,-0.364320,0.021820,-0.377500,0.053640,-0.377500,0.080000,-0.364320,0.111820,-0.332500,0.125000,0.332500,0.125000,0.364320,0.111820,0.364320,0.111820,$1*%
%AMFreePoly4*
4,1,14,-0.021820,0.364320,0.111820,0.230679,0.125000,0.198858,0.125000,-0.332500,0.111820,-0.364320,0.080000,-0.377500,-0.080000,-0.377500,-0.111820,-0.364320,-0.125000,-0.332500,-0.125000,0.332500,-0.111820,0.364320,-0.080000,0.377500,-0.053640,0.377500,-0.021820,0.364320,-0.021820,0.364320,$1*%
%AMFreePoly5*
4,1,15,0.053642,0.377500,0.080000,0.377500,0.111820,0.364320,0.125000,0.332500,0.125000,-0.332500,0.111820,-0.364320,0.080000,-0.377500,-0.080000,-0.377500,-0.111820,-0.364320,-0.125000,-0.332500,-0.125000,0.198860,-0.111820,0.230680,0.021820,0.364320,0.053640,0.377501,0.053642,0.377500,0.053642,0.377500,$1*%
%AMFreePoly6*
4,1,14,0.364320,0.111820,0.377500,0.080000,0.377501,0.053640,0.364318,0.021819,0.230680,-0.111820,0.198860,-0.125000,-0.332500,-0.125000,-0.364320,-0.111820,-0.377500,-0.080000,-0.377500,0.080000,-0.364320,0.111820,-0.332500,0.125000,0.332500,0.125000,0.364320,0.111820,0.364320,0.111820,$1*%
%AMFreePoly7*
4,1,14,0.230680,0.111820,0.364320,-0.021821,0.377500,-0.053642,0.377500,-0.080000,0.364320,-0.111820,0.332500,-0.125000,-0.332500,-0.125000,-0.364320,-0.111820,-0.377500,-0.080000,-0.377500,0.080000,-0.364320,0.111820,-0.332500,0.125000,0.198860,0.125000,0.230680,0.111820,0.230680,0.111820,$1*%
G04 Aperture macros list end*
%TA.AperFunction,SMDPad,CuDef*%
%ADD10C,1.500000*%
%TD*%
%TA.AperFunction,SMDPad,CuDef*%
%ADD11RoundRect,0.140000X0.170000X-0.140000X0.170000X0.140000X-0.170000X0.140000X-0.170000X-0.140000X0*%
%TD*%
%TA.AperFunction,SMDPad,CuDef*%
%ADD12RoundRect,0.135000X0.185000X-0.135000X0.185000X0.135000X-0.185000X0.135000X-0.185000X-0.135000X0*%
%TD*%
%TA.AperFunction,SMDPad,CuDef*%
%ADD13R,0.250000X0.400000*%
%TD*%
%TA.AperFunction,SMDPad,CuDef*%
%ADD14R,0.700000X0.400000*%
%TD*%
%TA.AperFunction,SMDPad,CuDef*%
%ADD15RoundRect,0.140000X-0.140000X-0.170000X0.140000X-0.170000X0.140000X0.170000X-0.140000X0.170000X0*%
%TD*%
%TA.AperFunction,SMDPad,CuDef*%
%ADD16R,0.400000X0.250000*%
%TD*%
%TA.AperFunction,SMDPad,CuDef*%
%ADD17R,0.400000X0.700000*%
%TD*%
%TA.AperFunction,SMDPad,CuDef*%
%ADD18RoundRect,0.135000X0.135000X0.185000X-0.135000X0.185000X-0.135000X-0.185000X0.135000X-0.185000X0*%
%TD*%
%TA.AperFunction,SMDPad,CuDef*%
%ADD19RoundRect,0.062500X-0.117500X-0.062500X0.117500X-0.062500X0.117500X0.062500X-0.117500X0.062500X0*%
%TD*%
%TA.AperFunction,SMDPad,CuDef*%
%ADD20C,0.216000*%
%TD*%
%TA.AperFunction,SMDPad,CuDef*%
%ADD21RoundRect,0.135000X-0.135000X-0.185000X0.135000X-0.185000X0.135000X0.185000X-0.135000X0.185000X0*%
%TD*%
%TA.AperFunction,SMDPad,CuDef*%
%ADD22R,0.800000X0.600000*%
%TD*%
%TA.AperFunction,SMDPad,CuDef*%
%ADD23RoundRect,0.135000X-0.185000X0.135000X-0.185000X-0.135000X0.185000X-0.135000X0.185000X0.135000X0*%
%TD*%
%TA.AperFunction,SMDPad,CuDef*%
%ADD24RoundRect,0.140000X0.140000X0.170000X-0.140000X0.170000X-0.140000X-0.170000X0.140000X-0.170000X0*%
%TD*%
%TA.AperFunction,SMDPad,CuDef*%
%ADD25C,0.298000*%
%TD*%
%TA.AperFunction,SMDPad,CuDef*%
%ADD26RoundRect,0.140000X-0.170000X0.140000X-0.170000X-0.140000X0.170000X-0.140000X0.170000X0.140000X0*%
%TD*%
%TA.AperFunction,SMDPad,CuDef*%
%ADD27RoundRect,0.100000X0.400000X1.300000X-0.400000X1.300000X-0.400000X-1.300000X0.400000X-1.300000X0*%
%TD*%
%TA.AperFunction,SMDPad,CuDef*%
%ADD28FreePoly0,180.000000*%
%TD*%
%TA.AperFunction,SMDPad,CuDef*%
%ADD29RoundRect,0.062500X0.062500X0.375000X-0.062500X0.375000X-0.062500X-0.375000X0.062500X-0.375000X0*%
%TD*%
%TA.AperFunction,SMDPad,CuDef*%
%ADD30FreePoly1,180.000000*%
%TD*%
%TA.AperFunction,SMDPad,CuDef*%
%ADD31FreePoly2,180.000000*%
%TD*%
%TA.AperFunction,SMDPad,CuDef*%
%ADD32RoundRect,0.062500X0.375000X0.062500X-0.375000X0.062500X-0.375000X-0.062500X0.375000X-0.062500X0*%
%TD*%
%TA.AperFunction,SMDPad,CuDef*%
%ADD33FreePoly3,180.000000*%
%TD*%
%TA.AperFunction,SMDPad,CuDef*%
%ADD34FreePoly4,180.000000*%
%TD*%
%TA.AperFunction,SMDPad,CuDef*%
%ADD35FreePoly5,180.000000*%
%TD*%
%TA.AperFunction,SMDPad,CuDef*%
%ADD36FreePoly6,180.000000*%
%TD*%
%TA.AperFunction,SMDPad,CuDef*%
%ADD37FreePoly7,180.000000*%
%TD*%
%TA.AperFunction,SMDPad,CuDef*%
%ADD38R,1.760000X1.760000*%
%TD*%
%TA.AperFunction,SMDPad,CuDef*%
%ADD39R,0.300000X0.800000*%
%TD*%
%TA.AperFunction,SMDPad,CuDef*%
%ADD40R,0.800000X0.300000*%
%TD*%
%TA.AperFunction,ViaPad*%
%ADD41C,0.400000*%
%TD*%
%TA.AperFunction,Conductor*%
%ADD42C,0.300000*%
%TD*%
%TA.AperFunction,Conductor*%
%ADD43C,0.150000*%
%TD*%
G04 APERTURE END LIST*
D10*
%TO.P,TP203,1,1*%
%TO.N,/RFID/RF_IN*%
X103200000Y-67600000D03*
%TD*%
%TO.P,TP101,1,1*%
%TO.N,GND*%
X100700000Y-67600000D03*
%TD*%
D11*
%TO.P,C204,1*%
%TO.N,/RFID/1V65_UNREG*%
X104700000Y-60180000D03*
%TO.P,C204,2*%
%TO.N,GND*%
X104700000Y-59220000D03*
%TD*%
D12*
%TO.P,R204,1*%
%TO.N,/RFID/GATE*%
X109600000Y-56410000D03*
%TO.P,R204,2*%
%TO.N,/Boost Converter/VRF*%
X109600000Y-55390000D03*
%TD*%
D13*
%TO.P,Q203,1,G*%
%TO.N,/RFID/OUTN_G*%
X106775000Y-56150000D03*
%TO.P,Q203,2,S*%
%TO.N,GND*%
X107225000Y-56150000D03*
D14*
%TO.P,Q203,3,D*%
%TO.N,/RFID/OUT_SHIFT*%
X107000000Y-55450000D03*
%TD*%
D12*
%TO.P,R212,1*%
%TO.N,/RFID/1V65_UNREG*%
X103600000Y-60210000D03*
%TO.P,R212,2*%
%TO.N,GND*%
X103600000Y-59190000D03*
%TD*%
D15*
%TO.P,C205,2*%
%TO.N,GND*%
X96060000Y-64600000D03*
%TO.P,C205,1*%
%TO.N,/RFID/RF*%
X95100000Y-64600000D03*
%TD*%
D16*
%TO.P,Q401,1,G*%
%TO.N,IOREF*%
X114750000Y-60125000D03*
%TO.P,Q401,2,S*%
%TO.N,/Pogo Connector/LPUART1_RX_1V8*%
X114750000Y-59675000D03*
D17*
%TO.P,Q401,3,D*%
%TO.N,/Pogo Connector/LPUART1_RX*%
X114050000Y-59900000D03*
%TD*%
D11*
%TO.P,C208,1*%
%TO.N,/RFID/AMP2_OUT*%
X100000000Y-65760000D03*
%TO.P,C208,2*%
%TO.N,/RFID/AMP2_NEG*%
X100000000Y-64800000D03*
%TD*%
D12*
%TO.P,R206,1*%
%TO.N,/RFID/OUT*%
X106900000Y-58210000D03*
%TO.P,R206,2*%
%TO.N,/RFID/OUT_G*%
X106900000Y-57190000D03*
%TD*%
D18*
%TO.P,R503,1*%
%TO.N,/Boost Converter/FB*%
X111910000Y-57700000D03*
%TO.P,R503,2*%
%TO.N,/Boost Converter/FB_OFFSET*%
X110890000Y-57700000D03*
%TD*%
D19*
%TO.P,D201,2,A*%
%TO.N,/RFID/RF*%
X95100000Y-65800000D03*
%TO.P,D201,1,K*%
%TO.N,/RFID/SIGNAL_ENVELOPE*%
X95940000Y-65800000D03*
%TD*%
D18*
%TO.P,R217,2*%
%TO.N,/RFID/SIGNAL_ENVELOPE*%
X97090000Y-65800000D03*
%TO.P,R217,1*%
%TO.N,GND*%
X98110000Y-65800000D03*
%TD*%
D14*
%TO.P,Q202,1,D*%
%TO.N,/RFID/OUT_SHIFT*%
X108400000Y-55450000D03*
D13*
%TO.P,Q202,2,G*%
%TO.N,/RFID/GATE*%
X108175000Y-56150000D03*
%TO.P,Q202,3,S*%
%TO.N,/Boost Converter/VRF*%
X108625000Y-56150000D03*
%TD*%
D12*
%TO.P,R202,1*%
%TO.N,/RFID/OUTN*%
X108000000Y-58210000D03*
%TO.P,R202,2*%
%TO.N,/RFID/OUTN_G*%
X108000000Y-57190000D03*
%TD*%
D10*
%TO.P,TP202,1,1*%
%TO.N,/RFID/SIGNAL_ENVELOPE*%
X98200000Y-67600000D03*
%TD*%
D15*
%TO.P,C202,1*%
%TO.N,/RFID/SIGNAL*%
X97120000Y-62100000D03*
%TO.P,C202,2*%
%TO.N,/RFID/AMP1_IN*%
X98080000Y-62100000D03*
%TD*%
D20*
%TO.P,IC501,A1,LX*%
%TO.N,/Boost Converter/LX*%
X113800000Y-55600000D03*
%TO.P,IC501,A2,IN*%
%TO.N,+3V3*%
X113800000Y-56000000D03*
%TO.P,IC501,A3,EN*%
%TO.N,/Boost Converter/EN*%
X113800000Y-56400000D03*
%TO.P,IC501,B1,GND*%
%TO.N,GND*%
X113400000Y-55600000D03*
%TO.P,IC501,B2,OUT*%
%TO.N,/Boost Converter/VRF*%
X113400000Y-56000000D03*
%TO.P,IC501,B3,FB*%
%TO.N,/Boost Converter/FB*%
X113400000Y-56400000D03*
%TD*%
D21*
%TO.P,R203,2*%
%TO.N,/RFID/SIGNAL*%
X98110000Y-63400000D03*
%TO.P,R203,1*%
%TO.N,/RFID/SIGNAL_ENVELOPE*%
X97090000Y-63400000D03*
%TD*%
D22*
%TO.P,L501,1*%
%TO.N,+3V3*%
X115400000Y-56400000D03*
%TO.P,L501,2*%
%TO.N,/Boost Converter/LX*%
X115400000Y-55600000D03*
%TD*%
D23*
%TO.P,R205,1*%
%TO.N,/RFID/AMP1_IN*%
X99200000Y-62240000D03*
%TO.P,R205,2*%
%TO.N,+1V65*%
X99200000Y-63260000D03*
%TD*%
D11*
%TO.P,C502,1*%
%TO.N,/Boost Converter/VRF*%
X112000000Y-56380000D03*
%TO.P,C502,2*%
%TO.N,GND*%
X112000000Y-55420000D03*
%TD*%
D18*
%TO.P,R219,1*%
%TO.N,GND*%
X107610000Y-67300000D03*
%TO.P,R219,2*%
%TO.N,/RFID/CARRIER_RAW*%
X106590000Y-67300000D03*
%TD*%
D24*
%TO.P,C501,1*%
%TO.N,+3V3*%
X115880000Y-57700000D03*
%TO.P,C501,2*%
%TO.N,GND*%
X114920000Y-57700000D03*
%TD*%
D10*
%TO.P,TP201,1,1*%
%TO.N,/RFID/RF*%
X95700000Y-67600000D03*
%TD*%
D12*
%TO.P,R211,1*%
%TO.N,+3V3*%
X104700000Y-63300000D03*
%TO.P,R211,2*%
%TO.N,/RFID/1V65_UNREG*%
X104700000Y-62280000D03*
%TD*%
D25*
%TO.P,IC202,A1,VCC*%
%TO.N,+3V3*%
X108300000Y-65200000D03*
%TO.P,IC202,A2,OUT*%
%TO.N,/RFID/CARRIER*%
X108800000Y-65200000D03*
%TO.P,IC202,A3,VEE*%
%TO.N,GND*%
X109300000Y-65200000D03*
%TO.P,IC202,B1,IN+*%
%TO.N,/RFID/CARRIER_RAW*%
X108300000Y-65700000D03*
%TO.P,IC202,B2,REF(VEE)*%
%TO.N,GND*%
X108800000Y-65700000D03*
%TO.P,IC202,B3,IN-*%
X109300000Y-65700000D03*
%TD*%
D21*
%TO.P,R502,1*%
%TO.N,/Boost Converter/FB*%
X112890000Y-57700000D03*
%TO.P,R502,2*%
%TO.N,GND*%
X113910000Y-57700000D03*
%TD*%
D15*
%TO.P,C207,2*%
%TO.N,GND*%
X98080000Y-64600000D03*
%TO.P,C207,1*%
%TO.N,/RFID/SIGNAL_ENVELOPE*%
X97120000Y-64600000D03*
%TD*%
D23*
%TO.P,R501,1*%
%TO.N,/Boost Converter/VRF*%
X110800000Y-55390000D03*
%TO.P,R501,2*%
%TO.N,/Boost Converter/FB*%
X110800000Y-56410000D03*
%TD*%
D16*
%TO.P,Q201,1,G*%
%TO.N,/RFID/OUT_G*%
X109150000Y-57475000D03*
%TO.P,Q201,2,S*%
%TO.N,GND*%
X109150000Y-57925000D03*
D17*
%TO.P,Q201,3,D*%
%TO.N,/RFID/GATE*%
X109850000Y-57700000D03*
%TD*%
D26*
%TO.P,C201,1*%
%TO.N,/RFID/SIGNAL*%
X96000000Y-62220000D03*
%TO.P,C201,2*%
%TO.N,GND*%
X96000000Y-63180000D03*
%TD*%
D18*
%TO.P,R221,2*%
%TO.N,/RFID/AMP3_NEG*%
X104490000Y-64900000D03*
%TO.P,R221,1*%
%TO.N,/RFID/AMP3_IN*%
X105510000Y-64900000D03*
%TD*%
D27*
%TO.P,L201,2*%
%TO.N,/RFID/RF*%
X95100000Y-56700000D03*
%TO.P,L201,1*%
%TO.N,/RFID/OUT_SHIFT*%
X105300000Y-56700000D03*
%TD*%
D21*
%TO.P,R222,1*%
%TO.N,/RFID/AMP3_OUT*%
X102290000Y-65800000D03*
%TO.P,R222,2*%
%TO.N,/RFID/RF_IN*%
X103310000Y-65800000D03*
%TD*%
D28*
%TO.P,U301,28,PB8*%
%TO.N,unconnected-(U301-PB8-Pad28)*%
X111300000Y-63397500D03*
D29*
%TO.P,U301,27,PB7*%
%TO.N,unconnected-(U301-PB7-Pad27)*%
X110800000Y-63337500D03*
%TO.P,U301,26,PB6*%
%TO.N,/RFID/PULL*%
X110300000Y-63337500D03*
%TO.P,U301,25,PB5*%
%TO.N,unconnected-(U301-PB5-Pad25)*%
X109800000Y-63337500D03*
%TO.P,U301,24,PB4*%
%TO.N,/RFID/CARRIER*%
X109300000Y-63337500D03*
%TO.P,U301,23,PB3*%
%TO.N,/Pogo Connector/IRQN*%
X108800000Y-63337500D03*
D30*
%TO.P,U301,22,PA15*%
%TO.N,/RFID/RF_IN*%
X108300000Y-63397500D03*
D31*
%TO.P,U301,21,PA14*%
%TO.N,/Pogo Connector/SWCLK*%
X107802500Y-62900000D03*
D32*
%TO.P,U301,20,PA13*%
%TO.N,/Pogo Connector/SWDIO*%
X107862500Y-62400000D03*
%TO.P,U301,19,PA12/PA10*%
%TO.N,unconnected-(U301-PA12{slash}PA10-Pad19)*%
X107862500Y-61900000D03*
%TO.P,U301,18,PA11/PA9*%
%TO.N,/RFID/SHDN*%
X107862500Y-61400000D03*
%TO.P,U301,17,PC6*%
%TO.N,unconnected-(U301-PC6-Pad17)*%
X107862500Y-60900000D03*
%TO.P,U301,16,PA8*%
%TO.N,/RFID/OUT*%
X107862500Y-60400000D03*
D33*
%TO.P,U301,15,PB1*%
%TO.N,unconnected-(U301-PB1-Pad15)*%
X107802500Y-59900000D03*
D34*
%TO.P,U301,14,PB0*%
%TO.N,unconnected-(U301-PB0-Pad14)*%
X108300000Y-59402500D03*
D29*
%TO.P,U301,13,PA7*%
%TO.N,/RFID/OUTN*%
X108800000Y-59462500D03*
%TO.P,U301,12,PA6*%
%TO.N,GND*%
X109300000Y-59462500D03*
%TO.P,U301,11,PA5*%
%TO.N,/Boost Converter/FB_OFFSET*%
X109800000Y-59462500D03*
%TO.P,U301,10,PA4*%
%TO.N,/Boost Converter/EN*%
X110300000Y-59462500D03*
%TO.P,U301,9,PA3*%
%TO.N,/Pogo Connector/LPUART1_RX*%
X110800000Y-59462500D03*
D35*
%TO.P,U301,8,PA2*%
%TO.N,/Pogo Connector/LPUART1_TX*%
X111300000Y-59402500D03*
D36*
%TO.P,U301,7,PA1*%
%TO.N,unconnected-(U301-PA1-Pad7)*%
X111797500Y-59900000D03*
D32*
%TO.P,U301,6,PA0*%
%TO.N,unconnected-(U301-PA0-Pad6)*%
X111737500Y-60400000D03*
%TO.P,U301,5,PF2*%
%TO.N,/Pogo Connector/NRST*%
X111737500Y-60900000D03*
%TO.P,U301,4,VSS*%
%TO.N,GND*%
X111737500Y-61400000D03*
%TO.P,U301,3,VDD*%
%TO.N,+3V3*%
X111737500Y-61900000D03*
%TO.P,U301,2,PC15*%
%TO.N,unconnected-(U301-PC15-Pad2)*%
X111737500Y-62400000D03*
D37*
%TO.P,U301,1,PC14*%
%TO.N,unconnected-(U301-PC14-Pad1)*%
X111797500Y-62900000D03*
%TD*%
D11*
%TO.P,C209,1*%
%TO.N,/RFID/RF*%
X105400000Y-68280000D03*
%TO.P,C209,2*%
%TO.N,/RFID/CARRIER_RAW*%
X105400000Y-67320000D03*
%TD*%
D21*
%TO.P,R201,1*%
%TO.N,GND*%
X105690000Y-59300000D03*
%TO.P,R201,2*%
%TO.N,/RFID/OUTN*%
X106710000Y-59300000D03*
%TD*%
D24*
%TO.P,C301,1*%
%TO.N,+3V3*%
X114880000Y-60900000D03*
%TO.P,C301,2*%
%TO.N,GND*%
X113920000Y-60900000D03*
%TD*%
D18*
%TO.P,R207,1*%
%TO.N,/RFID/OUT*%
X106710000Y-60400000D03*
%TO.P,R207,2*%
%TO.N,+3V3*%
X105690000Y-60400000D03*
%TD*%
%TO.P,R401,1*%
%TO.N,+3V3*%
X114910000Y-58800000D03*
%TO.P,R401,2*%
%TO.N,/Pogo Connector/LPUART1_RX*%
X113890000Y-58800000D03*
%TD*%
D11*
%TO.P,C302,1*%
%TO.N,+3V3*%
X113000000Y-62380000D03*
%TO.P,C302,2*%
%TO.N,GND*%
X113000000Y-61420000D03*
%TD*%
D38*
%TO.P,IC201,17,EP*%
%TO.N,GND*%
X101950000Y-62500000D03*
D39*
%TO.P,IC201,16,IN1-*%
%TO.N,/RFID/AMP3_NEG*%
X102700000Y-64000000D03*
%TO.P,IC201,15,OUT1*%
%TO.N,/RFID/AMP3_OUT*%
X102200000Y-64000000D03*
%TO.P,IC201,14,OUT4*%
%TO.N,/RFID/AMP2_OUT*%
X101700000Y-64000000D03*
%TO.P,IC201,13,IN4-*%
%TO.N,/RFID/AMP2_NEG*%
X101200000Y-64000000D03*
D40*
%TO.P,IC201,12,IN4+*%
%TO.N,+1V65*%
X100450000Y-63250000D03*
%TO.P,IC201,11,V-*%
%TO.N,GND*%
X100450000Y-62750000D03*
%TO.P,IC201,10,IN3+*%
%TO.N,/RFID/AMP1_IN*%
X100450000Y-62250000D03*
%TO.P,IC201,9,IN3-*%
%TO.N,/RFID/AMP1_NEG*%
X100450000Y-61750000D03*
D39*
%TO.P,IC201,8,OUT3*%
%TO.N,/RFID/AMP1_OUT*%
X101200000Y-61000000D03*
%TO.P,IC201,7,~{SHDN34}*%
%TO.N,/RFID/SHDN*%
X101700000Y-61000000D03*
%TO.P,IC201,6,~{SHDN12}*%
X102200000Y-61000000D03*
%TO.P,IC201,5,OUT2*%
%TO.N,+1V65*%
X102700000Y-61000000D03*
D40*
%TO.P,IC201,4,IN2-*%
X103450000Y-61750000D03*
%TO.P,IC201,3,IN2+*%
%TO.N,/RFID/1V65_UNREG*%
X103450000Y-62250000D03*
%TO.P,IC201,2,V+*%
%TO.N,+3V3*%
X103450000Y-62750000D03*
%TO.P,IC201,1,IN1+*%
%TO.N,+1V65*%
X103450000Y-63250000D03*
%TD*%
D41*
%TO.N,GND*%
X113649000Y-61771000D03*
%TO.N,+3V3*%
X114291000Y-61703000D03*
%TO.N,IOREF*%
X115700000Y-60200000D03*
%TO.N,GND*%
X108850000Y-60450000D03*
X107600000Y-56150000D03*
%TO.N,+1V65*%
X97090000Y-60710000D03*
%TO.N,GND*%
X108200000Y-66900000D03*
%TO.N,/RFID/PULL*%
X110600000Y-65400000D03*
%TO.N,GND*%
X102900000Y-59190000D03*
%TO.N,/RFID/SHDN*%
X104700000Y-61300000D03*
%TO.N,+1V65*%
X104100000Y-64000000D03*
%TO.N,GND*%
X105600000Y-63800000D03*
X107000000Y-64700000D03*
%TO.N,/Pogo Connector/IRQN*%
X107600000Y-64500000D03*
%TO.N,+3V3*%
X104800000Y-64000000D03*
%TO.N,/Pogo Connector/SWCLK*%
X105700000Y-63100000D03*
%TO.N,/Pogo Connector/SWDIO*%
X105500000Y-62200000D03*
%TO.N,GND*%
X105690000Y-58690000D03*
%TO.N,/RFID/SHDN*%
X102200000Y-59900000D03*
%TO.N,/RFID/RF_IN*%
X104200000Y-65800000D03*
%TO.N,GND*%
X105000000Y-65800000D03*
%TO.N,+3V3*%
X106000000Y-61200000D03*
%TO.N,/RFID/AMP3_IN*%
X105800000Y-65800000D03*
%TO.N,GND*%
X99450000Y-60650000D03*
%TO.N,+1V65*%
X98650000Y-66450000D03*
%TO.N,GND*%
X102000000Y-68300000D03*
X102900000Y-64900000D03*
%TO.N,/RFID/AMP3_NEG*%
X103600000Y-64900000D03*
%TO.N,GND*%
X101100000Y-65300000D03*
%TO.N,/RFID/AMP3_OUT*%
X102200000Y-64900000D03*
%TO.N,/RFID/AMP2_OUT*%
X100900000Y-65900000D03*
%TO.N,/RFID/AMP2_NEG*%
X100900000Y-64700000D03*
%TO.N,GND*%
X98600000Y-65200000D03*
%TO.N,/RFID/AMP1_OUT*%
X100200000Y-61000000D03*
%TO.N,/RFID/AMP1_NEG*%
X99200000Y-61400000D03*
%TO.N,GND*%
X102550000Y-62500000D03*
X101950000Y-62500000D03*
X102550000Y-63100000D03*
X101950000Y-63100000D03*
X101350000Y-63100000D03*
X101350000Y-62500000D03*
X102550000Y-61900000D03*
X101950000Y-61900000D03*
X101350000Y-61900000D03*
%TO.N,+1V65*%
X103450000Y-61000000D03*
%TO.N,GND*%
X109300000Y-66300000D03*
%TO.N,+3V3*%
X107500000Y-65200000D03*
%TO.N,GND*%
X97000000Y-67000000D03*
X96600000Y-68600000D03*
%TO.N,/RFID/SIGNAL_ENVELOPE*%
X96700000Y-66400000D03*
%TO.N,GND*%
X96060000Y-63900000D03*
%TO.N,IOREF*%
X111400000Y-64700000D03*
%TO.N,/Boost Converter/EN*%
X113700000Y-56900000D03*
%TO.N,GND*%
X114400000Y-57100000D03*
X112780000Y-55420000D03*
%TO.N,+3V3*%
X115800000Y-58400000D03*
X113680000Y-62380000D03*
%TO.N,/Pogo Connector/LPUART1_TX*%
X112900000Y-59300000D03*
%TO.N,/Pogo Connector/NRST*%
X113200000Y-60600000D03*
%TO.N,/Pogo Connector/LPUART1_RX_1V8*%
X115600000Y-59400000D03*
%TD*%
D42*
%TO.N,GND*%
X113298000Y-61420000D02*
X113649000Y-61771000D01*
X113000000Y-61420000D02*
X113298000Y-61420000D01*
X113649000Y-61771000D02*
X113649000Y-61171000D01*
X113649000Y-61171000D02*
X113920000Y-60900000D01*
%TO.N,+3V3*%
X114880000Y-61033000D02*
X114880000Y-60900000D01*
X114291000Y-61622000D02*
X114880000Y-61033000D01*
X114291000Y-61703000D02*
X114291000Y-61622000D01*
D43*
%TO.N,IOREF*%
X114479452Y-62333193D02*
X115119310Y-61537448D01*
X113807143Y-63101736D02*
X114479452Y-62333193D01*
X112369899Y-64551918D02*
X113103583Y-63841707D01*
X115119310Y-61537448D02*
X115700000Y-60750583D01*
X115700000Y-60750583D02*
X115700000Y-60200000D01*
X112203651Y-64700000D02*
X112369899Y-64551918D01*
X111400000Y-64700000D02*
X112203651Y-64700000D01*
X113103583Y-63841707D02*
X113807143Y-63101736D01*
X114750000Y-60125000D02*
X115625000Y-60125000D01*
X115625000Y-60125000D02*
X115700000Y-60200000D01*
%TO.N,GND*%
X109300000Y-60000000D02*
X108850000Y-60450000D01*
X109300000Y-59462500D02*
X109300000Y-60000000D01*
X107600000Y-56150000D02*
X107225000Y-56150000D01*
D42*
X102900000Y-59190000D02*
X103600000Y-59190000D01*
X105690000Y-58690000D02*
X105690000Y-59300000D01*
X104670000Y-59190000D02*
X104700000Y-59220000D01*
X103600000Y-59190000D02*
X104670000Y-59190000D01*
X105610000Y-59220000D02*
X105690000Y-59300000D01*
X104700000Y-59220000D02*
X105610000Y-59220000D01*
D43*
%TO.N,/Pogo Connector/SWDIO*%
X105500000Y-62200000D02*
X105700000Y-62400000D01*
X105700000Y-62400000D02*
X107862500Y-62400000D01*
%TO.N,+3V3*%
X104800000Y-64000000D02*
X104800000Y-63400000D01*
X104800000Y-63400000D02*
X104700000Y-63300000D01*
%TO.N,/RFID/SIGNAL_ENVELOPE*%
X97090000Y-65990000D02*
X97090000Y-65800000D01*
X98200000Y-67100000D02*
X97090000Y-65990000D01*
X98200000Y-67600000D02*
X98200000Y-67100000D01*
%TO.N,/RFID/CARRIER_RAW*%
X107600000Y-65700000D02*
X108300000Y-65700000D01*
X106590000Y-66710000D02*
X107600000Y-65700000D01*
X106590000Y-67300000D02*
X106590000Y-66710000D01*
D42*
%TO.N,GND*%
X107800000Y-67300000D02*
X108200000Y-66900000D01*
X107610000Y-67300000D02*
X107800000Y-67300000D01*
D43*
%TO.N,/RFID/PULL*%
X110300000Y-65100000D02*
X110600000Y-65400000D01*
X110300000Y-63337500D02*
X110300000Y-65100000D01*
%TO.N,/RFID/OUT_SHIFT*%
X105300000Y-55450000D02*
X105300000Y-56700000D01*
X107000000Y-55450000D02*
X105300000Y-55450000D01*
%TO.N,/RFID/1V65_UNREG*%
X104200000Y-60680000D02*
X104700000Y-60180000D01*
X104700000Y-62280000D02*
X104200000Y-61780000D01*
X104200000Y-61780000D02*
X104200000Y-60680000D01*
%TO.N,/RFID/SHDN*%
X106900000Y-61400000D02*
X107862500Y-61400000D01*
X106600000Y-61700000D02*
X106900000Y-61400000D01*
X105100000Y-61700000D02*
X106600000Y-61700000D01*
X104700000Y-61300000D02*
X105100000Y-61700000D01*
%TO.N,+3V3*%
X106000000Y-61200000D02*
X105690000Y-60890000D01*
X105690000Y-60890000D02*
X105690000Y-60400000D01*
%TO.N,+1V65*%
X104100000Y-63400000D02*
X104100000Y-64000000D01*
X103950000Y-63250000D02*
X104100000Y-63400000D01*
X103450000Y-63250000D02*
X103950000Y-63250000D01*
%TO.N,/RFID/RF_IN*%
X106802500Y-63397500D02*
X108300000Y-63397500D01*
X106400000Y-66100000D02*
X106400000Y-63800000D01*
X106100000Y-66400000D02*
X106400000Y-66100000D01*
X104800000Y-66400000D02*
X106100000Y-66400000D01*
X106400000Y-63800000D02*
X106802500Y-63397500D01*
X104200000Y-65800000D02*
X104800000Y-66400000D01*
%TO.N,/Pogo Connector/IRQN*%
X108400000Y-64500000D02*
X108800000Y-64100000D01*
X108800000Y-64100000D02*
X108800000Y-63337500D01*
X107600000Y-64500000D02*
X108400000Y-64500000D01*
%TO.N,/RFID/CARRIER*%
X109300000Y-64300000D02*
X109300000Y-63337500D01*
X108800000Y-64800000D02*
X109300000Y-64300000D01*
X108800000Y-65200000D02*
X108800000Y-64800000D01*
%TO.N,/Pogo Connector/SWCLK*%
X105700000Y-63100000D02*
X105900000Y-62900000D01*
X105900000Y-62900000D02*
X107802500Y-62900000D01*
%TO.N,+3V3*%
X104700000Y-63300000D02*
X104700000Y-63400000D01*
%TO.N,GND*%
X109300000Y-58075000D02*
X109300000Y-59462500D01*
X109150000Y-57925000D02*
X109300000Y-58075000D01*
%TO.N,+3V3*%
X104150000Y-62750000D02*
X104700000Y-63300000D01*
X103450000Y-62750000D02*
X104150000Y-62750000D01*
%TO.N,/RFID/1V65_UNREG*%
X103450000Y-62250000D02*
X104670000Y-62250000D01*
X104670000Y-62250000D02*
X104700000Y-62280000D01*
%TO.N,/RFID/SHDN*%
X102200000Y-61000000D02*
X102200000Y-59900000D01*
%TO.N,/RFID/1V65_UNREG*%
X103630000Y-60180000D02*
X103600000Y-60210000D01*
X104700000Y-60180000D02*
X103630000Y-60180000D01*
%TO.N,/RFID/AMP3_IN*%
X105510000Y-65510000D02*
X105510000Y-64900000D01*
X105800000Y-65800000D02*
X105510000Y-65510000D01*
%TO.N,/RFID/RF_IN*%
X103310000Y-65800000D02*
X104200000Y-65800000D01*
%TO.N,/RFID/SHDN*%
X102200000Y-61000000D02*
X101700000Y-61000000D01*
%TO.N,/RFID/AMP3_NEG*%
X104490000Y-64900000D02*
X103600000Y-64900000D01*
%TO.N,GND*%
X101400000Y-68300000D02*
X102000000Y-68300000D01*
X100700000Y-67600000D02*
X101400000Y-68300000D01*
%TO.N,/RFID/SIGNAL_ENVELOPE*%
X97090000Y-66010000D02*
X97090000Y-65800000D01*
X96700000Y-66400000D02*
X97090000Y-66010000D01*
%TO.N,GND*%
X98110000Y-65690000D02*
X98110000Y-65800000D01*
X98600000Y-65200000D02*
X98080000Y-64680000D01*
X98600000Y-65200000D02*
X98110000Y-65690000D01*
X98080000Y-64680000D02*
X98080000Y-64600000D01*
%TO.N,/RFID/AMP3_NEG*%
X103300000Y-64000000D02*
X102700000Y-64000000D01*
X103600000Y-64300000D02*
X103300000Y-64000000D01*
X103600000Y-64900000D02*
X103600000Y-64300000D01*
%TO.N,/RFID/AMP2_OUT*%
X101300000Y-65900000D02*
X101700000Y-65500000D01*
X100900000Y-65900000D02*
X101300000Y-65900000D01*
X101700000Y-65500000D02*
X101700000Y-64000000D01*
X100900000Y-65900000D02*
X100760000Y-65760000D01*
X100760000Y-65760000D02*
X100000000Y-65760000D01*
%TO.N,/RFID/RF_IN*%
X103310000Y-67490000D02*
X103200000Y-67600000D01*
X103310000Y-65800000D02*
X103310000Y-67490000D01*
%TO.N,/RFID/AMP3_OUT*%
X102290000Y-64990000D02*
X102200000Y-64900000D01*
X102290000Y-65800000D02*
X102290000Y-64990000D01*
X102200000Y-64000000D02*
X102200000Y-64900000D01*
%TO.N,/RFID/AMP2_NEG*%
X100800000Y-64800000D02*
X100900000Y-64700000D01*
X100000000Y-64800000D02*
X100800000Y-64800000D01*
X101200000Y-64500000D02*
X101200000Y-64000000D01*
X101000000Y-64700000D02*
X101200000Y-64500000D01*
X100900000Y-64700000D02*
X101000000Y-64700000D01*
%TO.N,/RFID/AMP1_OUT*%
X101200000Y-61000000D02*
X100200000Y-61000000D01*
%TO.N,/RFID/AMP1_NEG*%
X99500000Y-61400000D02*
X99200000Y-61400000D01*
X99850000Y-61750000D02*
X99500000Y-61400000D01*
X99850000Y-61750000D02*
X100450000Y-61750000D01*
%TO.N,+1V65*%
X99210000Y-63250000D02*
X99200000Y-63260000D01*
X100450000Y-63250000D02*
X99210000Y-63250000D01*
%TO.N,GND*%
X96000000Y-63840000D02*
X96060000Y-63900000D01*
X96000000Y-63180000D02*
X96000000Y-63840000D01*
D42*
%TO.N,+1V65*%
X102700000Y-61000000D02*
X103450000Y-61000000D01*
X103450000Y-61000000D02*
X103450000Y-61750000D01*
D43*
%TO.N,/RFID/AMP1_IN*%
X98220000Y-62240000D02*
X98080000Y-62100000D01*
X99200000Y-62240000D02*
X98220000Y-62240000D01*
X99210000Y-62250000D02*
X99200000Y-62240000D01*
X100450000Y-62250000D02*
X99210000Y-62250000D01*
%TO.N,GND*%
X101700000Y-62750000D02*
X101950000Y-62500000D01*
X100450000Y-62750000D02*
X101700000Y-62750000D01*
%TO.N,/RFID/SIGNAL*%
X97120000Y-62220000D02*
X97120000Y-62100000D01*
X98110000Y-63210000D02*
X97120000Y-62220000D01*
X98110000Y-63400000D02*
X98110000Y-63210000D01*
%TO.N,/RFID/SIGNAL_ENVELOPE*%
X97090000Y-64570000D02*
X97120000Y-64600000D01*
X97090000Y-63400000D02*
X97090000Y-64570000D01*
%TO.N,/RFID/SIGNAL*%
X96000000Y-62220000D02*
X97000000Y-62220000D01*
X97000000Y-62220000D02*
X97120000Y-62100000D01*
%TO.N,GND*%
X109300000Y-65700000D02*
X109300000Y-66300000D01*
%TO.N,+3V3*%
X108300000Y-65200000D02*
X107500000Y-65200000D01*
%TO.N,GND*%
X108800000Y-65700000D02*
X109300000Y-65700000D01*
X109300000Y-65700000D02*
X109300000Y-65200000D01*
%TO.N,/RFID/SIGNAL_ENVELOPE*%
X97090000Y-64630000D02*
X97120000Y-64600000D01*
X97090000Y-65800000D02*
X97090000Y-64630000D01*
%TO.N,GND*%
X96060000Y-63900000D02*
X96060000Y-64600000D01*
%TO.N,/RFID/RF*%
X97500000Y-68800000D02*
X96300000Y-67600000D01*
X96300000Y-67600000D02*
X95700000Y-67600000D01*
X104880000Y-68800000D02*
X97500000Y-68800000D01*
X105400000Y-68280000D02*
X104880000Y-68800000D01*
%TO.N,/RFID/SIGNAL_ENVELOPE*%
X95940000Y-65800000D02*
X97090000Y-65800000D01*
%TO.N,/RFID/RF*%
X95100000Y-67200000D02*
X95100000Y-56700000D01*
X95700000Y-67800000D02*
X95100000Y-67200000D01*
%TO.N,/RFID/CARRIER_RAW*%
X106570000Y-67320000D02*
X106590000Y-67300000D01*
X105400000Y-67320000D02*
X106570000Y-67320000D01*
%TO.N,GND*%
X114920000Y-57700000D02*
X114920000Y-57620000D01*
X114920000Y-57620000D02*
X114400000Y-57100000D01*
X113910000Y-57590000D02*
X114400000Y-57100000D01*
X113910000Y-57700000D02*
X113910000Y-57590000D01*
%TO.N,/Boost Converter/EN*%
X113400000Y-57200000D02*
X113700000Y-56900000D01*
X113800000Y-56800000D02*
X113700000Y-56900000D01*
X113800000Y-56400000D02*
X113800000Y-56800000D01*
%TO.N,/RFID/OUT*%
X106200000Y-59900000D02*
X106700000Y-60400000D01*
X106700000Y-60400000D02*
X106710000Y-60400000D01*
X106710000Y-60400000D02*
X107862500Y-60400000D01*
%TO.N,GND*%
X112960000Y-55600000D02*
X113400000Y-55600000D01*
X112980000Y-61400000D02*
X113000000Y-61420000D01*
X111737500Y-61400000D02*
X112980000Y-61400000D01*
X112780000Y-55420000D02*
X112000000Y-55420000D01*
X112780000Y-55420000D02*
X112960000Y-55600000D01*
%TO.N,+3V3*%
X111737500Y-61900000D02*
X112520000Y-61900000D01*
X115400000Y-58800000D02*
X115800000Y-58400000D01*
D42*
X113680000Y-62380000D02*
X113000000Y-62380000D01*
D43*
X114910000Y-58800000D02*
X115400000Y-58800000D01*
X112520000Y-61900000D02*
X113000000Y-62380000D01*
%TO.N,/RFID/OUT_SHIFT*%
X108400000Y-55450000D02*
X107000000Y-55450000D01*
%TO.N,/RFID/OUT_G*%
X106900000Y-57190000D02*
X107410000Y-57700000D01*
X108725000Y-57475000D02*
X109150000Y-57475000D01*
X108500000Y-57700000D02*
X108725000Y-57475000D01*
X107410000Y-57700000D02*
X108500000Y-57700000D01*
%TO.N,/Pogo Connector/LPUART1_TX*%
X112797500Y-59402500D02*
X111300000Y-59402500D01*
X112900000Y-59300000D02*
X112797500Y-59402500D01*
%TO.N,/RFID/OUT*%
X106900000Y-58210000D02*
X106200000Y-58910000D01*
X106200000Y-58910000D02*
X106200000Y-59900000D01*
%TO.N,/RFID/GATE*%
X109600000Y-56410000D02*
X109600000Y-57000000D01*
X108675000Y-57000000D02*
X109600000Y-57000000D01*
X109850000Y-57250000D02*
X109850000Y-57700000D01*
X109600000Y-57000000D02*
X109850000Y-57250000D01*
X108175000Y-56150000D02*
X108175000Y-56500000D01*
X108175000Y-56500000D02*
X108675000Y-57000000D01*
%TO.N,/RFID/OUTN_G*%
X107510000Y-56700000D02*
X108000000Y-57190000D01*
X106975000Y-56700000D02*
X107510000Y-56700000D01*
X106775000Y-56150000D02*
X106775000Y-56500000D01*
X106775000Y-56500000D02*
X106975000Y-56700000D01*
%TO.N,/Pogo Connector/LPUART1_RX*%
X114000000Y-59850000D02*
X114000000Y-58910000D01*
X114050000Y-59900000D02*
X114000000Y-59850000D01*
X111000000Y-58800000D02*
X110800000Y-59000000D01*
X110800000Y-59000000D02*
X110800000Y-59462500D01*
X113890000Y-58800000D02*
X111000000Y-58800000D01*
X114000000Y-58910000D02*
X113890000Y-58800000D01*
%TO.N,/RFID/OUTN*%
X106800000Y-59300000D02*
X107890000Y-58210000D01*
X106710000Y-59300000D02*
X106800000Y-59300000D01*
X107890000Y-58210000D02*
X108000000Y-58210000D01*
X108800000Y-59462500D02*
X108800000Y-58500000D01*
X108800000Y-58500000D02*
X108510000Y-58210000D01*
X108510000Y-58210000D02*
X108000000Y-58210000D01*
%TO.N,/Pogo Connector/NRST*%
X112900000Y-60900000D02*
X113200000Y-60600000D01*
X111737500Y-60900000D02*
X112900000Y-60900000D01*
%TO.N,/Pogo Connector/LPUART1_RX_1V8*%
X115600000Y-59400000D02*
X115325000Y-59675000D01*
X115325000Y-59675000D02*
X114750000Y-59675000D01*
%TO.N,/Boost Converter/FB_OFFSET*%
X109800000Y-59462500D02*
X109800000Y-58695000D01*
X109800000Y-58695000D02*
X110795000Y-57700000D01*
X110795000Y-57700000D02*
X110890000Y-57700000D01*
%TO.N,/Boost Converter/EN*%
X110700000Y-58400000D02*
X110300000Y-58800000D01*
X113400000Y-57200000D02*
X113400000Y-58100000D01*
X113100000Y-58400000D02*
X110700000Y-58400000D01*
X113400000Y-58100000D02*
X113100000Y-58400000D01*
X110300000Y-58800000D02*
X110300000Y-59462500D01*
%TO.N,/Boost Converter/FB*%
X112890000Y-56910000D02*
X112890000Y-57700000D01*
X111910000Y-57700000D02*
X112890000Y-57700000D01*
X110800000Y-56500000D02*
X111910000Y-57610000D01*
X113400000Y-56400000D02*
X112890000Y-56910000D01*
X111910000Y-57610000D02*
X111910000Y-57700000D01*
X110800000Y-56410000D02*
X110800000Y-56500000D01*
%TD*%
%TA.AperFunction,Conductor*%
%TO.N,/Boost Converter/VRF*%
G36*
X111545709Y-55066141D02*
G01*
X111571975Y-55106451D01*
X111567905Y-55154388D01*
X111554321Y-55185154D01*
X111542317Y-55212339D01*
X111539500Y-55236627D01*
X111539500Y-55603373D01*
X111542317Y-55627660D01*
X111542318Y-55627662D01*
X111586187Y-55727016D01*
X111662984Y-55803813D01*
X111762338Y-55847682D01*
X111786627Y-55850500D01*
X112213372Y-55850499D01*
X112213373Y-55850499D01*
X112221468Y-55849560D01*
X112237662Y-55847682D01*
X112337016Y-55803813D01*
X112412066Y-55728762D01*
X112445237Y-55709611D01*
X112483543Y-55709611D01*
X112516713Y-55728762D01*
X112539277Y-55751326D01*
X112653445Y-55809498D01*
X112780000Y-55829542D01*
X112862317Y-55816503D01*
X112885402Y-55816495D01*
X112885721Y-55816545D01*
X112904298Y-55822040D01*
X112912068Y-55825500D01*
X112936427Y-55825500D01*
X112948004Y-55826411D01*
X112952007Y-55827045D01*
X112972065Y-55830222D01*
X112972065Y-55830221D01*
X112972066Y-55830222D01*
X112980278Y-55828022D01*
X112999431Y-55825500D01*
X113249750Y-55825500D01*
X113290859Y-55837969D01*
X113299138Y-55843501D01*
X113383264Y-55860235D01*
X113399999Y-55863564D01*
X113399999Y-55863563D01*
X113400000Y-55863564D01*
X113411563Y-55861264D01*
X113454318Y-55865475D01*
X113487529Y-55892730D01*
X113500000Y-55933842D01*
X113500000Y-56066158D01*
X113487529Y-56107270D01*
X113454318Y-56134525D01*
X113411563Y-56138736D01*
X113399999Y-56136435D01*
X113299138Y-56156499D01*
X113213632Y-56213632D01*
X113156497Y-56299140D01*
X113154555Y-56308904D01*
X113134304Y-56346789D01*
X112736100Y-56744993D01*
X112733291Y-56747658D01*
X112696273Y-56780991D01*
X112673276Y-56795085D01*
X112646756Y-56800000D01*
X111629347Y-56800000D01*
X111602067Y-56794788D01*
X111578630Y-56779887D01*
X111374349Y-56587623D01*
X111293781Y-56511794D01*
X111276569Y-56487259D01*
X111270499Y-56457911D01*
X111270499Y-56232378D01*
X111267730Y-56208502D01*
X111224616Y-56110859D01*
X111149141Y-56035384D01*
X111054728Y-55993696D01*
X111051496Y-55992269D01*
X111030755Y-55989863D01*
X111027622Y-55989500D01*
X110572376Y-55989500D01*
X110548511Y-55992269D01*
X110548502Y-55992270D01*
X110545271Y-55993696D01*
X110515385Y-56000000D01*
X109884616Y-56000000D01*
X109854726Y-55993695D01*
X109851498Y-55992269D01*
X109830104Y-55989787D01*
X109827622Y-55989500D01*
X109372376Y-55989500D01*
X109348503Y-55992269D01*
X109250858Y-56035384D01*
X109175385Y-56110857D01*
X109132269Y-56208503D01*
X109129500Y-56232377D01*
X109129500Y-56587623D01*
X109132269Y-56611496D01*
X109147553Y-56646110D01*
X109151623Y-56694050D01*
X109125357Y-56734360D01*
X109079858Y-56750000D01*
X108774557Y-56750000D01*
X108746238Y-56744367D01*
X108722231Y-56728326D01*
X108521674Y-56527769D01*
X108505633Y-56503762D01*
X108500000Y-56475443D01*
X108500000Y-55874500D01*
X108509914Y-55837500D01*
X108537000Y-55810414D01*
X108574000Y-55800500D01*
X108764819Y-55800500D01*
X108764820Y-55800500D01*
X108808722Y-55791767D01*
X108858504Y-55758504D01*
X108891767Y-55708722D01*
X108900500Y-55664820D01*
X108900500Y-55235180D01*
X108891767Y-55191278D01*
X108874616Y-55165610D01*
X108862235Y-55128131D01*
X108870884Y-55089616D01*
X108898102Y-55061028D01*
X108936146Y-55050500D01*
X111500210Y-55050500D01*
X111545709Y-55066141D01*
G37*
%TD.AperFunction*%
%TD*%
%TA.AperFunction,Conductor*%
%TO.N,/Boost Converter/LX*%
G36*
X115763000Y-55309914D02*
G01*
X115790086Y-55337000D01*
X115800000Y-55374000D01*
X115800000Y-55826000D01*
X115790086Y-55863000D01*
X115763000Y-55890086D01*
X115726000Y-55900000D01*
X115030652Y-55900000D01*
X115002333Y-55894367D01*
X114978326Y-55878326D01*
X114800000Y-55700000D01*
X113774000Y-55700000D01*
X113737000Y-55690086D01*
X113709914Y-55663000D01*
X113700000Y-55626000D01*
X113700000Y-55374000D01*
X113709914Y-55337000D01*
X113737000Y-55309914D01*
X113774000Y-55300000D01*
X115726000Y-55300000D01*
X115763000Y-55309914D01*
G37*
%TD.AperFunction*%
%TD*%
%TA.AperFunction,Conductor*%
%TO.N,+3V3*%
G36*
X114697667Y-55905633D02*
G01*
X114721674Y-55921674D01*
X114900000Y-56100000D01*
X115800000Y-56100000D01*
X115800000Y-56700000D01*
X114509163Y-56700000D01*
X114490479Y-56690479D01*
X113900000Y-56100000D01*
X113774000Y-56100000D01*
X113737000Y-56090086D01*
X113709914Y-56063000D01*
X113700000Y-56026000D01*
X113700000Y-55974000D01*
X113709914Y-55937000D01*
X113737000Y-55909914D01*
X113774000Y-55900000D01*
X114669348Y-55900000D01*
X114697667Y-55905633D01*
G37*
%TD.AperFunction*%
%TD*%
%TA.AperFunction,Conductor*%
%TO.N,+3V3*%
G36*
X116162500Y-56109914D02*
G01*
X116189586Y-56137000D01*
X116199500Y-56174000D01*
X116199500Y-59226000D01*
X116189586Y-59263000D01*
X116162500Y-59290086D01*
X116125500Y-59300000D01*
X116048375Y-59300000D01*
X116009710Y-59289095D01*
X115982442Y-59259597D01*
X115931326Y-59159277D01*
X115840723Y-59068674D01*
X115726555Y-59010502D01*
X115600000Y-58990458D01*
X115473444Y-59010502D01*
X115359278Y-59068673D01*
X115359277Y-59068673D01*
X115359277Y-59068674D01*
X115268674Y-59159277D01*
X115217557Y-59259597D01*
X115190290Y-59289095D01*
X115151625Y-59300000D01*
X114574000Y-59300000D01*
X114537000Y-59290086D01*
X114509914Y-59263000D01*
X114500000Y-59226000D01*
X114500000Y-58177492D01*
X114515641Y-58131993D01*
X114555951Y-58105727D01*
X114603890Y-58109797D01*
X114612982Y-58113811D01*
X114612984Y-58113813D01*
X114712338Y-58157682D01*
X114736627Y-58160500D01*
X115103372Y-58160499D01*
X115103373Y-58160499D01*
X115111468Y-58159559D01*
X115127662Y-58157682D01*
X115227016Y-58113813D01*
X115303813Y-58037016D01*
X115347682Y-57937662D01*
X115350500Y-57913373D01*
X115350499Y-57486628D01*
X115347682Y-57462338D01*
X115303813Y-57362984D01*
X115227016Y-57286187D01*
X115127662Y-57242318D01*
X115127660Y-57242317D01*
X115103373Y-57239500D01*
X114889057Y-57239500D01*
X114860738Y-57233867D01*
X114836732Y-57217827D01*
X114823809Y-57204903D01*
X114805758Y-57175446D01*
X114803047Y-57141005D01*
X114809542Y-57100000D01*
X114789498Y-56973445D01*
X114731326Y-56859277D01*
X114640723Y-56768674D01*
X114526555Y-56710502D01*
X114526554Y-56710501D01*
X114516112Y-56705181D01*
X114516775Y-56703879D01*
X114509163Y-56700000D01*
X115800000Y-56700000D01*
X115800000Y-56100000D01*
X116125500Y-56100000D01*
X116162500Y-56109914D01*
G37*
%TD.AperFunction*%
%TD*%
%TA.AperFunction,Conductor*%
%TO.N,+1V65*%
G36*
X99663000Y-62909914D02*
G01*
X99690086Y-62937000D01*
X99700000Y-62974000D01*
X99700000Y-63969348D01*
X99694367Y-63997667D01*
X99678326Y-64021674D01*
X99400000Y-64300000D01*
X99400000Y-66469348D01*
X99394367Y-66497667D01*
X99378326Y-66521674D01*
X99121674Y-66778326D01*
X99097667Y-66794367D01*
X99069348Y-66800000D01*
X98828772Y-66800000D01*
X98781827Y-66783203D01*
X98775884Y-66778326D01*
X98758538Y-66764090D01*
X98758537Y-66764089D01*
X98584728Y-66671186D01*
X98452519Y-66631081D01*
X98414563Y-66604349D01*
X98400000Y-66560267D01*
X98400000Y-66384518D01*
X98411226Y-66345333D01*
X98441498Y-66318038D01*
X98451898Y-66312952D01*
X98472102Y-66303076D01*
X98563076Y-66212102D01*
X98619582Y-66096518D01*
X98630500Y-66021582D01*
X98630500Y-65715959D01*
X98645260Y-65671612D01*
X98683650Y-65644956D01*
X98789069Y-65614004D01*
X98898049Y-65543967D01*
X98982882Y-65446063D01*
X99036697Y-65328226D01*
X99055133Y-65200000D01*
X99036697Y-65071774D01*
X98982882Y-64953937D01*
X98898049Y-64856033D01*
X98789069Y-64785996D01*
X98664772Y-64749500D01*
X98664771Y-64749500D01*
X98663651Y-64749171D01*
X98625259Y-64722515D01*
X98610499Y-64678170D01*
X98610499Y-64399266D01*
X98600910Y-64338725D01*
X98600000Y-64327151D01*
X98600000Y-63753694D01*
X98607519Y-63721193D01*
X98619582Y-63696517D01*
X98630500Y-63621582D01*
X98630500Y-63178418D01*
X98619582Y-63103482D01*
X98607519Y-63078807D01*
X98600000Y-63046306D01*
X98600000Y-62974000D01*
X98609914Y-62937000D01*
X98637000Y-62909914D01*
X98674000Y-62900000D01*
X99626000Y-62900000D01*
X99663000Y-62909914D01*
G37*
%TD.AperFunction*%
%TD*%
M02*
