%TF.GenerationSoftware,KiCad,Pcbnew,7.0.1*%
%TF.CreationDate,2024-01-08T11:07:59+00:00*%
%TF.ProjectId,rfid_module,72666964-5f6d-46f6-9475-6c652e6b6963,rev?*%
%TF.SameCoordinates,Original*%
%TF.FileFunction,Copper,L1,Top*%
%TF.FilePolarity,Positive*%
%FSLAX46Y46*%
G04 Gerber Fmt 4.6, Leading zero omitted, Abs format (unit mm)*
G04 Created by KiCad (PCBNEW 7.0.1) date 2024-01-08 11:07:59*
%MOMM*%
%LPD*%
G01*
G04 APERTURE LIST*
G04 Aperture macros list*
%AMRoundRect*
0 Rectangle with rounded corners*
0 $1 Rounding radius*
0 $2 $3 $4 $5 $6 $7 $8 $9 X,Y pos of 4 corners*
0 Add a 4 corners polygon primitive as box body*
4,1,4,$2,$3,$4,$5,$6,$7,$8,$9,$2,$3,0*
0 Add four circle primitives for the rounded corners*
1,1,$1+$1,$2,$3*
1,1,$1+$1,$4,$5*
1,1,$1+$1,$6,$7*
1,1,$1+$1,$8,$9*
0 Add four rect primitives between the rounded corners*
20,1,$1+$1,$2,$3,$4,$5,0*
20,1,$1+$1,$4,$5,$6,$7,0*
20,1,$1+$1,$6,$7,$8,$9,0*
20,1,$1+$1,$8,$9,$2,$3,0*%
%AMFreePoly0*
4,1,14,0.230680,0.111820,0.364320,-0.021821,0.377500,-0.053642,0.377500,-0.080000,0.364320,-0.111820,0.332500,-0.125000,-0.332500,-0.125000,-0.364320,-0.111820,-0.377500,-0.080000,-0.377500,0.080000,-0.364320,0.111820,-0.332500,0.125000,0.198860,0.125000,0.230680,0.111820,0.230680,0.111820,$1*%
%AMFreePoly1*
4,1,14,0.364320,0.111820,0.377500,0.080000,0.377501,0.053640,0.364318,0.021819,0.230680,-0.111820,0.198860,-0.125000,-0.332500,-0.125000,-0.364320,-0.111820,-0.377500,-0.080000,-0.377500,0.080000,-0.364320,0.111820,-0.332500,0.125000,0.332500,0.125000,0.364320,0.111820,0.364320,0.111820,$1*%
%AMFreePoly2*
4,1,15,0.053642,0.377500,0.080000,0.377500,0.111820,0.364320,0.125000,0.332500,0.125000,-0.332500,0.111820,-0.364320,0.080000,-0.377500,-0.080000,-0.377500,-0.111820,-0.364320,-0.125000,-0.332500,-0.125000,0.198860,-0.111820,0.230680,0.021820,0.364320,0.053640,0.377501,0.053642,0.377500,0.053642,0.377500,$1*%
%AMFreePoly3*
4,1,14,-0.021820,0.364320,0.111820,0.230679,0.125000,0.198858,0.125000,-0.332500,0.111820,-0.364320,0.080000,-0.377500,-0.080000,-0.377500,-0.111820,-0.364320,-0.125000,-0.332500,-0.125000,0.332500,-0.111820,0.364320,-0.080000,0.377500,-0.053640,0.377500,-0.021820,0.364320,-0.021820,0.364320,$1*%
%AMFreePoly4*
4,1,14,0.364320,0.111820,0.377500,0.080000,0.377500,-0.080000,0.364320,-0.111820,0.332500,-0.125000,-0.198860,-0.125001,-0.230680,-0.111818,-0.364320,0.021820,-0.377500,0.053640,-0.377500,0.080000,-0.364320,0.111820,-0.332500,0.125000,0.332500,0.125000,0.364320,0.111820,0.364320,0.111820,$1*%
%AMFreePoly5*
4,1,15,-0.198858,0.125000,0.332500,0.125000,0.364320,0.111820,0.377500,0.080000,0.377500,-0.080000,0.364320,-0.111820,0.332500,-0.125000,-0.332500,-0.125000,-0.364320,-0.111820,-0.377500,-0.080000,-0.377500,-0.053640,-0.364321,-0.021819,-0.230680,0.111820,-0.198860,0.125001,-0.198858,0.125000,-0.198858,0.125000,$1*%
%AMFreePoly6*
4,1,14,0.111820,0.364320,0.125000,0.332500,0.125001,-0.198860,0.111818,-0.230680,-0.021820,-0.364320,-0.053640,-0.377500,-0.080000,-0.377500,-0.111820,-0.364320,-0.125000,-0.332500,-0.125000,0.332500,-0.111820,0.364320,-0.080000,0.377500,0.080000,0.377500,0.111820,0.364320,0.111820,0.364320,$1*%
%AMFreePoly7*
4,1,14,0.111820,0.364320,0.125000,0.332500,0.125000,-0.332500,0.111820,-0.364320,0.080000,-0.377500,0.053640,-0.377501,0.021819,-0.364318,-0.111820,-0.230680,-0.125000,-0.198860,-0.125000,0.332500,-0.111820,0.364320,-0.080000,0.377500,0.080000,0.377500,0.111820,0.364320,0.111820,0.364320,$1*%
G04 Aperture macros list end*
%TA.AperFunction,SMDPad,CuDef*%
%ADD10RoundRect,0.135000X0.185000X-0.135000X0.185000X0.135000X-0.185000X0.135000X-0.185000X-0.135000X0*%
%TD*%
%TA.AperFunction,SMDPad,CuDef*%
%ADD11RoundRect,0.062500X-0.062500X-0.137500X0.062500X-0.137500X0.062500X0.137500X-0.062500X0.137500X0*%
%TD*%
%TA.AperFunction,SMDPad,CuDef*%
%ADD12RoundRect,0.100000X-0.250000X0.100000X-0.250000X-0.100000X0.250000X-0.100000X0.250000X0.100000X0*%
%TD*%
%TA.AperFunction,SMDPad,CuDef*%
%ADD13C,1.500000*%
%TD*%
%TA.AperFunction,SMDPad,CuDef*%
%ADD14RoundRect,0.140000X0.170000X-0.140000X0.170000X0.140000X-0.170000X0.140000X-0.170000X-0.140000X0*%
%TD*%
%TA.AperFunction,SMDPad,CuDef*%
%ADD15RoundRect,0.062500X0.137500X-0.062500X0.137500X0.062500X-0.137500X0.062500X-0.137500X-0.062500X0*%
%TD*%
%TA.AperFunction,SMDPad,CuDef*%
%ADD16RoundRect,0.100000X-0.100000X-0.250000X0.100000X-0.250000X0.100000X0.250000X-0.100000X0.250000X0*%
%TD*%
%TA.AperFunction,SMDPad,CuDef*%
%ADD17RoundRect,0.140000X0.140000X0.170000X-0.140000X0.170000X-0.140000X-0.170000X0.140000X-0.170000X0*%
%TD*%
%TA.AperFunction,SMDPad,CuDef*%
%ADD18RoundRect,0.135000X-0.185000X0.135000X-0.185000X-0.135000X0.185000X-0.135000X0.185000X0.135000X0*%
%TD*%
%TA.AperFunction,SMDPad,CuDef*%
%ADD19RoundRect,0.062500X-0.117500X-0.062500X0.117500X-0.062500X0.117500X0.062500X-0.117500X0.062500X0*%
%TD*%
%TA.AperFunction,SMDPad,CuDef*%
%ADD20C,0.250000*%
%TD*%
%TA.AperFunction,SMDPad,CuDef*%
%ADD21R,0.800000X0.600000*%
%TD*%
%TA.AperFunction,SMDPad,CuDef*%
%ADD22C,0.298000*%
%TD*%
%TA.AperFunction,SMDPad,CuDef*%
%ADD23RoundRect,0.135000X0.135000X0.185000X-0.135000X0.185000X-0.135000X-0.185000X0.135000X-0.185000X0*%
%TD*%
%TA.AperFunction,SMDPad,CuDef*%
%ADD24RoundRect,0.135000X-0.135000X-0.185000X0.135000X-0.185000X0.135000X0.185000X-0.135000X0.185000X0*%
%TD*%
%TA.AperFunction,SMDPad,CuDef*%
%ADD25RoundRect,0.100000X-1.300000X0.400000X-1.300000X-0.400000X1.300000X-0.400000X1.300000X0.400000X0*%
%TD*%
%TA.AperFunction,SMDPad,CuDef*%
%ADD26FreePoly0,225.000000*%
%TD*%
%TA.AperFunction,SMDPad,CuDef*%
%ADD27RoundRect,0.062500X0.220971X0.309359X-0.309359X-0.220971X-0.220971X-0.309359X0.309359X0.220971X0*%
%TD*%
%TA.AperFunction,SMDPad,CuDef*%
%ADD28FreePoly1,225.000000*%
%TD*%
%TA.AperFunction,SMDPad,CuDef*%
%ADD29FreePoly2,225.000000*%
%TD*%
%TA.AperFunction,SMDPad,CuDef*%
%ADD30RoundRect,0.062500X-0.220971X0.309359X-0.309359X0.220971X0.220971X-0.309359X0.309359X-0.220971X0*%
%TD*%
%TA.AperFunction,SMDPad,CuDef*%
%ADD31FreePoly3,225.000000*%
%TD*%
%TA.AperFunction,SMDPad,CuDef*%
%ADD32FreePoly4,225.000000*%
%TD*%
%TA.AperFunction,SMDPad,CuDef*%
%ADD33FreePoly5,225.000000*%
%TD*%
%TA.AperFunction,SMDPad,CuDef*%
%ADD34FreePoly6,225.000000*%
%TD*%
%TA.AperFunction,SMDPad,CuDef*%
%ADD35FreePoly7,225.000000*%
%TD*%
%TA.AperFunction,SMDPad,CuDef*%
%ADD36R,0.800000X0.300000*%
%TD*%
%TA.AperFunction,SMDPad,CuDef*%
%ADD37R,0.300000X0.800000*%
%TD*%
%TA.AperFunction,SMDPad,CuDef*%
%ADD38R,1.760000X1.760000*%
%TD*%
%TA.AperFunction,SMDPad,CuDef*%
%ADD39RoundRect,0.140000X-0.140000X-0.170000X0.140000X-0.170000X0.140000X0.170000X-0.140000X0.170000X0*%
%TD*%
%TA.AperFunction,ViaPad*%
%ADD40C,0.400000*%
%TD*%
%TA.AperFunction,Conductor*%
%ADD41C,0.150000*%
%TD*%
%TA.AperFunction,Conductor*%
%ADD42C,0.300000*%
%TD*%
%TA.AperFunction,Conductor*%
%ADD43C,0.090000*%
%TD*%
G04 APERTURE END LIST*
D10*
%TO.P,R209,1*%
%TO.N,/RFID/AMP1_NEG*%
X100200000Y-63210000D03*
%TO.P,R209,2*%
%TO.N,/RFID/AMP1_OUT*%
X100200000Y-62190000D03*
%TD*%
%TO.P,R204,1*%
%TO.N,/RFID/GATE*%
X101400000Y-57210000D03*
%TO.P,R204,2*%
%TO.N,/Boost Converter/VRF*%
X101400000Y-56190000D03*
%TD*%
D11*
%TO.P,Q203,1,G*%
%TO.N,/RFID/OUTN_G*%
X98775000Y-57050000D03*
%TO.P,Q203,2,S*%
%TO.N,GND*%
X99225000Y-57050000D03*
D12*
%TO.P,Q203,3,D*%
%TO.N,/RFID/OUT_SHIFT*%
X99000000Y-56350000D03*
%TD*%
D13*
%TO.P,TP203,1,1*%
%TO.N,/RFID/RF_IN*%
X103700000Y-68100000D03*
%TD*%
D14*
%TO.P,C205,1*%
%TO.N,/RFID/RF*%
X99000000Y-65180000D03*
%TO.P,C205,2*%
%TO.N,GND*%
X99000000Y-64220000D03*
%TD*%
D15*
%TO.P,Q401,1,G*%
%TO.N,IOREF*%
X109600000Y-57450000D03*
%TO.P,Q401,2,S*%
%TO.N,/Pogo Connector/LPUART1_RX_1V8*%
X109600000Y-57000000D03*
D16*
%TO.P,Q401,3,D*%
%TO.N,/Pogo Connector/LPUART1_RX*%
X108900000Y-57225000D03*
%TD*%
D17*
%TO.P,C208,1*%
%TO.N,/RFID/AMP2_OUT*%
X101880000Y-66500000D03*
%TO.P,C208,2*%
%TO.N,/RFID/AMP2_NEG*%
X100920000Y-66500000D03*
%TD*%
D10*
%TO.P,R206,1*%
%TO.N,/RFID/OUT*%
X99000000Y-59210000D03*
%TO.P,R206,2*%
%TO.N,/RFID/OUT_G*%
X99000000Y-58190000D03*
%TD*%
D18*
%TO.P,R503,1*%
%TO.N,/Boost Converter/FB*%
X102600000Y-58190000D03*
%TO.P,R503,2*%
%TO.N,/Boost Converter/FB_OFFSET*%
X102600000Y-59210000D03*
%TD*%
%TO.P,R223,1*%
%TO.N,/RFID/RF_IN*%
X106300000Y-65490000D03*
%TO.P,R223,2*%
%TO.N,GND*%
X106300000Y-66510000D03*
%TD*%
D19*
%TO.P,D201,1,K*%
%TO.N,/RFID/SIGNAL_ENVELOPE*%
X99520000Y-66500000D03*
%TO.P,D201,2,A*%
%TO.N,/RFID/RF*%
X98680000Y-66500000D03*
%TD*%
D12*
%TO.P,Q202,1,D*%
%TO.N,/RFID/OUT_SHIFT*%
X100200000Y-56350000D03*
D11*
%TO.P,Q202,2,G*%
%TO.N,/RFID/GATE*%
X99975000Y-57050000D03*
%TO.P,Q202,3,S*%
%TO.N,/Boost Converter/VRF*%
X100425000Y-57050000D03*
%TD*%
D10*
%TO.P,R202,1*%
%TO.N,/RFID/OUTN*%
X100200000Y-59210000D03*
%TO.P,R202,2*%
%TO.N,/RFID/OUTN_G*%
X100200000Y-58190000D03*
%TD*%
D13*
%TO.P,TP202,1,1*%
%TO.N,/RFID/SIGNAL_ENVELOPE*%
X98700000Y-68100000D03*
%TD*%
D20*
%TO.P,IC501,A1,LX*%
%TO.N,/Boost Converter/LX*%
X105600000Y-56400000D03*
%TO.P,IC501,A2,IN*%
%TO.N,+3V3*%
X105600000Y-56800000D03*
%TO.P,IC501,A3,EN*%
%TO.N,/Boost Converter/EN*%
X105600000Y-57200000D03*
%TO.P,IC501,B1,GND*%
%TO.N,GND*%
X105200000Y-56400000D03*
%TO.P,IC501,B2,OUT*%
%TO.N,/Boost Converter/VRF*%
X105200000Y-56800000D03*
%TO.P,IC501,B3,FB*%
%TO.N,/Boost Converter/FB*%
X105200000Y-57200000D03*
%TD*%
D21*
%TO.P,L501,1*%
%TO.N,+3V3*%
X107400000Y-57200000D03*
%TO.P,L501,2*%
%TO.N,/Boost Converter/LX*%
X107400000Y-56400000D03*
%TD*%
D10*
%TO.P,R205,1*%
%TO.N,/RFID/AMP1_IN*%
X99000000Y-63210000D03*
%TO.P,R205,2*%
%TO.N,+1V65*%
X99000000Y-62190000D03*
%TD*%
D14*
%TO.P,C502,1*%
%TO.N,/Boost Converter/VRF*%
X103800000Y-57180000D03*
%TO.P,C502,2*%
%TO.N,GND*%
X103800000Y-56220000D03*
%TD*%
D10*
%TO.P,R219,1*%
%TO.N,GND*%
X108500000Y-66510000D03*
%TO.P,R219,2*%
%TO.N,/RFID/CARRIER_RAW*%
X108500000Y-65490000D03*
%TD*%
D13*
%TO.P,TP201,1,1*%
%TO.N,/RFID/RF*%
X96200000Y-68100000D03*
%TD*%
D22*
%TO.P,IC202,A1,VCC*%
%TO.N,+3V3*%
X109800000Y-64950000D03*
%TO.P,IC202,A2,OUT*%
%TO.N,/RFID/CARRIER*%
X110300000Y-64950000D03*
%TO.P,IC202,A3,VEE*%
%TO.N,GND*%
X110800000Y-64950000D03*
%TO.P,IC202,B1,IN+*%
%TO.N,/RFID/CARRIER_RAW*%
X109800000Y-65450000D03*
%TO.P,IC202,B2,REF(VEE)*%
%TO.N,GND*%
X110300000Y-65450000D03*
%TO.P,IC202,B3,IN-*%
X110800000Y-65450000D03*
%TD*%
D23*
%TO.P,R402,1*%
%TO.N,IOREF*%
X111910000Y-56100000D03*
%TO.P,R402,2*%
%TO.N,/Pogo Connector/LPUART1_RX_1V8*%
X110890000Y-56100000D03*
%TD*%
D18*
%TO.P,R502,1*%
%TO.N,/Boost Converter/FB*%
X103800000Y-58190000D03*
%TO.P,R502,2*%
%TO.N,GND*%
X103800000Y-59210000D03*
%TD*%
D14*
%TO.P,C207,1*%
%TO.N,/RFID/SIGNAL_ENVELOPE*%
X100200000Y-65180000D03*
%TO.P,C207,2*%
%TO.N,GND*%
X100200000Y-64220000D03*
%TD*%
D18*
%TO.P,R501,1*%
%TO.N,/Boost Converter/VRF*%
X102600000Y-56190000D03*
%TO.P,R501,2*%
%TO.N,/Boost Converter/FB*%
X102600000Y-57210000D03*
%TD*%
D11*
%TO.P,Q201,1,G*%
%TO.N,/RFID/OUT_G*%
X101175000Y-59050000D03*
%TO.P,Q201,2,S*%
%TO.N,GND*%
X101625000Y-59050000D03*
D12*
%TO.P,Q201,3,D*%
%TO.N,/RFID/GATE*%
X101400000Y-58350000D03*
%TD*%
D24*
%TO.P,R504,1*%
%TO.N,/Boost Converter/EN*%
X104890000Y-58700000D03*
%TO.P,R504,2*%
%TO.N,GND*%
X105910000Y-58700000D03*
%TD*%
D25*
%TO.P,L201,1*%
%TO.N,/RFID/OUT_SHIFT*%
X96200000Y-56300000D03*
%TO.P,L201,2*%
%TO.N,/RFID/RF*%
X96200000Y-66500000D03*
%TD*%
D26*
%TO.P,U301,1,PC14*%
%TO.N,unconnected-(U301-PC14-Pad1)*%
X113973106Y-60348214D03*
D27*
%TO.P,U301,2,PC15*%
%TO.N,unconnected-(U301-PC15-Pad2)*%
X113577126Y-60037087D03*
%TO.P,U301,3,VDD*%
%TO.N,+3V3*%
X113223573Y-59683534D03*
%TO.P,U301,4,VSS*%
%TO.N,GND*%
X112870019Y-59329981D03*
%TO.P,U301,5,PF2*%
%TO.N,/Pogo Connector/NRST*%
X112516466Y-58976427D03*
%TO.P,U301,6,PA0*%
%TO.N,unconnected-(U301-PA0-Pad6)*%
X112162913Y-58622874D03*
D28*
%TO.P,U301,7,PA1*%
%TO.N,unconnected-(U301-PA1-Pad7)*%
X111851786Y-58226894D03*
D29*
%TO.P,U301,8,PA2*%
%TO.N,/Pogo Connector/LPUART1_TX*%
X111148214Y-58226894D03*
D30*
%TO.P,U301,9,PA3*%
%TO.N,/Pogo Connector/LPUART1_RX*%
X110837087Y-58622874D03*
%TO.P,U301,10,PA4*%
%TO.N,/Boost Converter/EN*%
X110483534Y-58976427D03*
%TO.P,U301,11,PA5*%
%TO.N,/Boost Converter/FB_OFFSET*%
X110129981Y-59329981D03*
%TO.P,U301,12,PA6*%
%TO.N,unconnected-(U301-PA6-Pad12)*%
X109776427Y-59683534D03*
%TO.P,U301,13,PA7*%
%TO.N,/RFID/OUTN*%
X109422874Y-60037087D03*
D31*
%TO.P,U301,14,PB0*%
%TO.N,unconnected-(U301-PB0-Pad14)*%
X109026894Y-60348214D03*
D32*
%TO.P,U301,15,PB1*%
%TO.N,unconnected-(U301-PB1-Pad15)*%
X109026894Y-61051786D03*
D27*
%TO.P,U301,16,PA8*%
%TO.N,/RFID/OUT*%
X109422874Y-61362913D03*
%TO.P,U301,17,PC6*%
%TO.N,unconnected-(U301-PC6-Pad17)*%
X109776427Y-61716466D03*
%TO.P,U301,18,PA11/PA9*%
%TO.N,/RFID/SHDN*%
X110129981Y-62070019D03*
%TO.P,U301,19,PA12/PA10*%
%TO.N,unconnected-(U301-PA12{slash}PA10-Pad19)*%
X110483534Y-62423573D03*
%TO.P,U301,20,PA13*%
%TO.N,/Pogo Connector/SWDIO*%
X110837087Y-62777126D03*
D33*
%TO.P,U301,21,PA14*%
%TO.N,/Pogo Connector/SWCLK*%
X111148214Y-63173106D03*
D34*
%TO.P,U301,22,PA15*%
%TO.N,/RFID/CARRIER*%
X111851786Y-63173106D03*
D30*
%TO.P,U301,23,PB3*%
%TO.N,/Pogo Connector/IRQN*%
X112162913Y-62777126D03*
%TO.P,U301,24,PB4*%
%TO.N,/RFID/RF_IN*%
X112516466Y-62423573D03*
%TO.P,U301,25,PB5*%
%TO.N,unconnected-(U301-PB5-Pad25)*%
X112870019Y-62070019D03*
%TO.P,U301,26,PB6*%
%TO.N,/RFID/PULL*%
X113223573Y-61716466D03*
%TO.P,U301,27,PB7*%
%TO.N,unconnected-(U301-PB7-Pad27)*%
X113577126Y-61362913D03*
D35*
%TO.P,U301,28,PB8*%
%TO.N,unconnected-(U301-PB8-Pad28)*%
X113973106Y-61051786D03*
%TD*%
D14*
%TO.P,C209,1*%
%TO.N,/RFID/RF*%
X107400000Y-66480000D03*
%TO.P,C209,2*%
%TO.N,/RFID/CARRIER_RAW*%
X107400000Y-65520000D03*
%TD*%
D10*
%TO.P,R201,1*%
%TO.N,GND*%
X100200000Y-61210000D03*
%TO.P,R201,2*%
%TO.N,/RFID/OUTN*%
X100200000Y-60190000D03*
%TD*%
D17*
%TO.P,C301,1*%
%TO.N,+3V3*%
X114480000Y-57100000D03*
%TO.P,C301,2*%
%TO.N,GND*%
X113520000Y-57100000D03*
%TD*%
D18*
%TO.P,R207,1*%
%TO.N,/RFID/OUT*%
X99000000Y-60190000D03*
%TO.P,R207,2*%
%TO.N,+3V3*%
X99000000Y-61210000D03*
%TD*%
D13*
%TO.P,TP101,1,1*%
%TO.N,GND*%
X101200000Y-68100000D03*
%TD*%
D24*
%TO.P,R401,1*%
%TO.N,+3V3*%
X108740000Y-56125000D03*
%TO.P,R401,2*%
%TO.N,/Pogo Connector/LPUART1_RX*%
X109760000Y-56125000D03*
%TD*%
D17*
%TO.P,C302,1*%
%TO.N,+3V3*%
X114480000Y-58100000D03*
%TO.P,C302,2*%
%TO.N,GND*%
X113520000Y-58100000D03*
%TD*%
D36*
%TO.P,IC201,1,IN1+*%
%TO.N,+1V65*%
X104500000Y-64550000D03*
%TO.P,IC201,2,V+*%
%TO.N,+3V3*%
X104500000Y-64050000D03*
%TO.P,IC201,3,IN2+*%
%TO.N,/RFID/1V65_UNREG*%
X104500000Y-63550000D03*
%TO.P,IC201,4,IN2-*%
%TO.N,+1V65*%
X104500000Y-63050000D03*
D37*
%TO.P,IC201,5,OUT2*%
X103750000Y-62300000D03*
%TO.P,IC201,6,~{SHDN12}*%
%TO.N,/RFID/SHDN*%
X103250000Y-62300000D03*
%TO.P,IC201,7,~{SHDN34}*%
X102750000Y-62300000D03*
%TO.P,IC201,8,OUT3*%
%TO.N,/RFID/AMP1_OUT*%
X102250000Y-62300000D03*
D36*
%TO.P,IC201,9,IN3-*%
%TO.N,/RFID/AMP1_NEG*%
X101500000Y-63050000D03*
%TO.P,IC201,10,IN3+*%
%TO.N,/RFID/AMP1_IN*%
X101500000Y-63550000D03*
%TO.P,IC201,11,V-*%
%TO.N,GND*%
X101500000Y-64050000D03*
%TO.P,IC201,12,IN4+*%
%TO.N,+1V65*%
X101500000Y-64550000D03*
D37*
%TO.P,IC201,13,IN4-*%
%TO.N,/RFID/AMP2_NEG*%
X102250000Y-65300000D03*
%TO.P,IC201,14,OUT4*%
%TO.N,/RFID/AMP2_OUT*%
X102750000Y-65300000D03*
%TO.P,IC201,15,OUT1*%
%TO.N,/RFID/AMP3_OUT*%
X103250000Y-65300000D03*
%TO.P,IC201,16,IN1-*%
%TO.N,/RFID/AMP3_NEG*%
X103750000Y-65300000D03*
D38*
%TO.P,IC201,17,EP*%
%TO.N,GND*%
X103000000Y-63800000D03*
%TD*%
D39*
%TO.P,C212,1*%
%TO.N,/RFID/AMP3_OUT*%
X104320000Y-66500000D03*
%TO.P,C212,2*%
%TO.N,/RFID/AMP3_NEG*%
X105280000Y-66500000D03*
%TD*%
D40*
%TO.N,GND*%
X113500000Y-58700000D03*
X95500000Y-63500000D03*
X97000000Y-57500000D03*
X115600000Y-56300000D03*
X104600000Y-56150000D03*
X97000000Y-60500000D03*
X111000000Y-64590000D03*
X97800000Y-61600000D03*
X97000000Y-65000000D03*
X99600000Y-65700000D03*
X94900000Y-67500000D03*
X95500000Y-57500000D03*
X95500000Y-59000000D03*
X98400000Y-63700000D03*
X106800000Y-64500000D03*
X105500000Y-59200000D03*
X115700000Y-59800000D03*
X104400000Y-65700000D03*
X97500000Y-68500000D03*
X101400000Y-61210000D03*
X95500000Y-65000000D03*
X95500000Y-60500000D03*
X97000000Y-62000000D03*
X106300000Y-67300000D03*
X103200000Y-63700000D03*
X101625000Y-59525000D03*
X97000000Y-63500000D03*
X103100000Y-66700000D03*
X95500000Y-62000000D03*
X97000000Y-59000000D03*
X108000000Y-67050000D03*
X110300000Y-60400000D03*
X100890000Y-57790000D03*
%TO.N,/RFID/AMP1_IN*%
X98400000Y-62700000D03*
%TO.N,+3V3*%
X98300000Y-61200000D03*
X114480000Y-58700000D03*
X106100000Y-57000000D03*
X108300000Y-64800000D03*
X105700000Y-64200000D03*
%TO.N,/RFID/1V65_UNREG*%
X105700000Y-63500000D03*
%TO.N,/RFID/SIGNAL_ENVELOPE*%
X98400000Y-65750000D03*
%TO.N,/RFID/AMP2_OUT*%
X102600000Y-66200000D03*
%TO.N,/RFID/AMP2_NEG*%
X100800000Y-65700000D03*
%TO.N,/RFID/AMP3_OUT*%
X103600000Y-66200000D03*
%TO.N,/RFID/AMP3_NEG*%
X105700000Y-67100000D03*
%TO.N,/RFID/RF_IN*%
X111625000Y-64625000D03*
X105600000Y-65700000D03*
%TO.N,+1V65*%
X99600000Y-64700000D03*
%TO.N,/RFID/SHDN*%
X103000000Y-61550000D03*
X104200000Y-61200000D03*
%TO.N,/RFID/AMP1_OUT*%
X100762250Y-62637750D03*
%TO.N,/RFID/AMP1_NEG*%
X99600000Y-62700000D03*
%TO.N,/Pogo Connector/SWDIO*%
X106000000Y-61800000D03*
%TO.N,/Pogo Connector/SWCLK*%
X105350000Y-61800000D03*
%TO.N,/Pogo Connector/LPUART1_TX*%
X112775108Y-56600000D03*
%TO.N,/RFID/PULL*%
X114102543Y-62595436D03*
%TO.N,/Pogo Connector/IRQN*%
X111000000Y-61700000D03*
%TO.N,/Pogo Connector/NRST*%
X113000000Y-60700000D03*
%TO.N,IOREF*%
X115100000Y-61400000D03*
%TO.N,/Pogo Connector/LPUART1_RX_1V8*%
X111100000Y-56800000D03*
%TD*%
D41*
%TO.N,GND*%
X113520000Y-58680000D02*
X113500000Y-58700000D01*
D42*
X110300000Y-65548329D02*
X110300000Y-65450000D01*
X101500000Y-64050000D02*
X102750000Y-64050000D01*
X108500000Y-66510000D02*
X108813554Y-66196446D01*
D41*
X105900000Y-58800000D02*
X105500000Y-59200000D01*
X101500000Y-64050000D02*
X100370000Y-64050000D01*
X101625000Y-59525000D02*
X101625000Y-59050000D01*
X110800000Y-64950000D02*
X110800000Y-65450000D01*
X100900000Y-57770000D02*
X100830000Y-57700000D01*
X110887868Y-64702132D02*
X111000000Y-64590000D01*
X103100000Y-66700000D02*
X101846446Y-67953554D01*
X101492893Y-68100000D02*
X101200000Y-68100000D01*
X98400000Y-63700000D02*
X98920000Y-64220000D01*
D42*
X108500000Y-66510000D02*
X108500000Y-66550000D01*
X113520000Y-58100000D02*
X113520000Y-58680000D01*
D41*
X99000000Y-64220000D02*
X100200000Y-64220000D01*
X98920000Y-64220000D02*
X99000000Y-64220000D01*
X105500000Y-59200000D02*
X105490000Y-59210000D01*
X112870019Y-59329981D02*
X113500000Y-58700000D01*
D42*
X109167107Y-66050000D02*
X109710000Y-66050000D01*
D41*
X100830000Y-57700000D02*
X100183416Y-57700000D01*
D42*
X102750000Y-64050000D02*
X103000000Y-63800000D01*
D41*
X105490000Y-59210000D02*
X103800000Y-59210000D01*
X100370000Y-64050000D02*
X100200000Y-64220000D01*
D42*
X109712139Y-66047861D02*
X109865545Y-66047861D01*
D41*
X99656917Y-57481917D02*
X99225000Y-57050000D01*
D42*
X109710000Y-66050000D02*
X109712139Y-66047861D01*
D41*
X101400000Y-61210000D02*
X100200000Y-61210000D01*
D42*
X113520000Y-57100000D02*
X113520000Y-58100000D01*
D41*
X110300000Y-65450000D02*
X110800000Y-65450000D01*
X105900000Y-58700000D02*
X105900000Y-58800000D01*
D42*
X108500000Y-66550000D02*
X108000000Y-67050000D01*
D41*
X110800000Y-64950000D02*
X110800000Y-64914264D01*
X106300000Y-66510000D02*
X106300000Y-67300000D01*
D42*
X109865540Y-66047827D02*
G75*
G03*
X110300000Y-65548329I-69940J499527D01*
G01*
D41*
X101492893Y-68099995D02*
G75*
G03*
X101846446Y-67953554I7J499995D01*
G01*
D42*
X109167107Y-66050005D02*
G75*
G03*
X108813554Y-66196446I-7J-499995D01*
G01*
D41*
X99656905Y-57481929D02*
G75*
G03*
X100183416Y-57700000I526495J526529D01*
G01*
X110887886Y-64702150D02*
G75*
G03*
X110800000Y-64914264I212114J-212150D01*
G01*
%TO.N,/RFID/AMP1_IN*%
X100957843Y-63550000D02*
X101500000Y-63550000D01*
X99000000Y-63210000D02*
X99343554Y-63553554D01*
X99000000Y-63210000D02*
X98910000Y-63210000D01*
X98910000Y-63210000D02*
X98400000Y-62700000D01*
X99697107Y-63700000D02*
X100642157Y-63700000D01*
X100783579Y-63641421D02*
X100816422Y-63608578D01*
X99343551Y-63553557D02*
G75*
G03*
X99697107Y-63700000I353549J353557D01*
G01*
X100957843Y-63550031D02*
G75*
G03*
X100816423Y-63608579I-43J-199969D01*
G01*
X100642157Y-63699969D02*
G75*
G03*
X100783578Y-63641420I43J199969D01*
G01*
%TO.N,+3V3*%
X107692893Y-57200000D02*
X107400000Y-57200000D01*
X114480000Y-58700000D02*
X114067868Y-59112132D01*
X108740000Y-56360000D02*
X108046446Y-57053554D01*
X98310000Y-61210000D02*
X98300000Y-61200000D01*
X113619239Y-59287868D02*
X113223573Y-59683534D01*
D42*
X114480000Y-57100000D02*
X114480000Y-58100000D01*
X114480000Y-58700000D02*
X114480000Y-58100000D01*
D41*
X99000000Y-61210000D02*
X98310000Y-61210000D01*
D42*
X104500000Y-64050000D02*
X105550000Y-64050000D01*
X109437821Y-64800000D02*
X108300000Y-64800000D01*
D41*
X113855736Y-59200000D02*
X113831371Y-59200000D01*
D42*
X105550000Y-64050000D02*
X105700000Y-64200000D01*
D41*
X108740000Y-56125000D02*
X108740000Y-56360000D01*
X113855736Y-59200025D02*
G75*
G03*
X114067868Y-59112132I-36J300025D01*
G01*
X107692893Y-57199995D02*
G75*
G03*
X108046446Y-57053554I7J499995D01*
G01*
X113831371Y-59199980D02*
G75*
G03*
X113619239Y-59287868I29J-300020D01*
G01*
D42*
X109799980Y-64950020D02*
G75*
G03*
X109437821Y-64800000I-362180J-362180D01*
G01*
D41*
%TO.N,/RFID/1V65_UNREG*%
X105650000Y-63550000D02*
X104500000Y-63550000D01*
X105700000Y-63500000D02*
X105650000Y-63550000D01*
%TO.N,/RFID/RF*%
X96832172Y-68732172D02*
X96200000Y-68100000D01*
X106590970Y-68307899D02*
X106252345Y-68440376D01*
X107207770Y-68046237D02*
X106926737Y-68168959D01*
X107312132Y-67971152D02*
X107299845Y-67983439D01*
X104384935Y-69025065D02*
X97539279Y-69025065D01*
X105732783Y-68622618D02*
X104390000Y-69020000D01*
X106141809Y-68481156D02*
X105732783Y-68622618D01*
X106252345Y-68440376D02*
X106141809Y-68481156D01*
X99000000Y-65180000D02*
X98427107Y-65180000D01*
X107400000Y-66480000D02*
X107400000Y-67759020D01*
X96200000Y-68100000D02*
X96200000Y-66500000D01*
X106926737Y-68168959D02*
X106590970Y-68307899D01*
X96900000Y-66500000D02*
X96200000Y-66500000D01*
X98680000Y-66500000D02*
X96200000Y-66500000D01*
X98073553Y-65326447D02*
X96900000Y-66500000D01*
X107207771Y-68046239D02*
G75*
G03*
X107299845Y-67983439I-120071J274939D01*
G01*
X98427107Y-65180005D02*
G75*
G03*
X98073553Y-65326447I-7J-499995D01*
G01*
X107312122Y-67971142D02*
G75*
G03*
X107400000Y-67759020I-212122J212142D01*
G01*
X96832190Y-68732154D02*
G75*
G03*
X97539279Y-69025065I707110J707054D01*
G01*
%TO.N,/RFID/SIGNAL_ENVELOPE*%
X99520000Y-67072893D02*
X99520000Y-66500000D01*
X99520000Y-66500000D02*
X100053554Y-65966446D01*
X99520000Y-66500000D02*
X98916446Y-65896446D01*
X98562893Y-65750000D02*
X98400000Y-65750000D01*
X100200000Y-65612893D02*
X100200000Y-65180000D01*
X98700000Y-68100000D02*
X99373554Y-67426446D01*
X100053557Y-65966449D02*
G75*
G03*
X100200000Y-65612893I-353557J353549D01*
G01*
X98916449Y-65896443D02*
G75*
G03*
X98562893Y-65750000I-353549J-353557D01*
G01*
X99373557Y-67426449D02*
G75*
G03*
X99520000Y-67072893I-353557J353549D01*
G01*
%TO.N,/RFID/AMP2_OUT*%
X102175736Y-66500000D02*
X101880000Y-66500000D01*
X102600000Y-66200000D02*
X102662132Y-66137868D01*
X102600000Y-66200000D02*
X102387868Y-66412132D01*
X102750000Y-65925736D02*
X102750000Y-65300000D01*
X102175736Y-66500025D02*
G75*
G03*
X102387868Y-66412132I-36J300025D01*
G01*
X102662114Y-66137850D02*
G75*
G03*
X102750000Y-65925736I-212114J212150D01*
G01*
%TO.N,/RFID/AMP2_NEG*%
X100800000Y-65700000D02*
X100800000Y-66380000D01*
X100800000Y-65700000D02*
X101375736Y-65700000D01*
X101587868Y-65612132D02*
X101812132Y-65387868D01*
X100800000Y-66380000D02*
X100920000Y-66500000D01*
X102024264Y-65300000D02*
X102250000Y-65300000D01*
X102024264Y-65299975D02*
G75*
G03*
X101812132Y-65387868I36J-300025D01*
G01*
X101375736Y-65700025D02*
G75*
G03*
X101587868Y-65612132I-36J300025D01*
G01*
%TO.N,/RFID/CARRIER_RAW*%
X108540000Y-65450000D02*
X108470000Y-65520000D01*
X109800000Y-65450000D02*
X108540000Y-65450000D01*
X108470000Y-65520000D02*
X107400000Y-65520000D01*
%TO.N,/RFID/AMP3_OUT*%
X104220000Y-66500000D02*
X104024264Y-66500000D01*
X103600000Y-66200000D02*
X103337868Y-65937868D01*
X103250000Y-65725736D02*
X103250000Y-65300000D01*
X103812132Y-66412132D02*
X103600000Y-66200000D01*
X103249975Y-65725736D02*
G75*
G03*
X103337868Y-65937868I300025J36D01*
G01*
X103812150Y-66412114D02*
G75*
G03*
X104024264Y-66500000I212150J212114D01*
G01*
%TO.N,/RFID/AMP3_NEG*%
X105280000Y-66500000D02*
X105280000Y-66800000D01*
X104600000Y-65150000D02*
X103900000Y-65150000D01*
X105280000Y-66500000D02*
X105100000Y-66320000D01*
X103900000Y-65150000D02*
X103750000Y-65300000D01*
X105100000Y-66320000D02*
X105100000Y-65650000D01*
X105580000Y-67100000D02*
X105700000Y-67100000D01*
X105100000Y-65650000D02*
G75*
G03*
X104600000Y-65150000I-500000J0D01*
G01*
X105280000Y-66800000D02*
G75*
G03*
X105580000Y-67100000I300000J0D01*
G01*
%TO.N,/RFID/RF_IN*%
X103700000Y-68200000D02*
X104100000Y-67800000D01*
X111625000Y-64625000D02*
X111625000Y-64622417D01*
X112817892Y-62724999D02*
X112516466Y-62423573D01*
X106850000Y-67300000D02*
X106850000Y-66247107D01*
X104100000Y-67800000D02*
X106350000Y-67800000D01*
X106106982Y-65490000D02*
X106300000Y-65490000D01*
X111625000Y-64622417D02*
X112862975Y-63384442D01*
X106703553Y-65893553D02*
X106300000Y-65490000D01*
X106350000Y-67800000D02*
G75*
G03*
X106850000Y-67300000I0J500000D01*
G01*
X106849995Y-66247107D02*
G75*
G03*
X106703553Y-65893553I-499995J7D01*
G01*
X106106982Y-65489994D02*
G75*
G03*
X105600000Y-65700000I18J-717006D01*
G01*
X112863013Y-63384471D02*
G75*
G03*
X112817892Y-62724999I-403513J303671D01*
G01*
%TO.N,+1V65*%
X102607107Y-61050000D02*
X103092893Y-61050000D01*
X103750000Y-61707107D02*
X103750000Y-62300000D01*
X103446447Y-61196447D02*
X103603554Y-61353554D01*
X105382843Y-64700000D02*
X105800000Y-64700000D01*
X101500000Y-64550000D02*
X101032843Y-64550000D01*
X106300000Y-64200000D02*
X106300000Y-63500000D01*
X99110000Y-62190000D02*
X99453554Y-61846446D01*
X97900000Y-64200000D02*
X97900000Y-62690000D01*
X104550000Y-63000000D02*
X104500000Y-63050000D01*
X99600000Y-64700000D02*
X100717157Y-64700000D01*
X104000000Y-62300000D02*
X103750000Y-62300000D01*
X99000000Y-62190000D02*
X99110000Y-62190000D01*
X104500000Y-64550000D02*
X105067157Y-64550000D01*
X101896447Y-61553553D02*
X102253554Y-61196446D01*
X98400000Y-62190000D02*
X99000000Y-62190000D01*
X100891421Y-64608579D02*
X100858578Y-64641422D01*
X105800000Y-63000000D02*
X104550000Y-63000000D01*
X105208579Y-64608579D02*
X105241422Y-64641422D01*
X104500000Y-63050000D02*
X104500000Y-62800000D01*
X99807107Y-61700000D02*
X101542893Y-61700000D01*
X99600000Y-64700000D02*
X98400000Y-64700000D01*
X103749995Y-61707107D02*
G75*
G03*
X103603554Y-61353554I-499995J7D01*
G01*
X105800000Y-64700000D02*
G75*
G03*
X106300000Y-64200000I0J500000D01*
G01*
X97900000Y-64200000D02*
G75*
G03*
X98400000Y-64700000I500000J0D01*
G01*
X105208600Y-64608558D02*
G75*
G03*
X105067157Y-64550000I-141400J-141442D01*
G01*
X100717157Y-64699969D02*
G75*
G03*
X100858577Y-64641421I43J199969D01*
G01*
X101032843Y-64550031D02*
G75*
G03*
X100891422Y-64608580I-43J-199969D01*
G01*
X102607107Y-61050005D02*
G75*
G03*
X102253554Y-61196446I-7J-499995D01*
G01*
X101542893Y-61699995D02*
G75*
G03*
X101896447Y-61553553I7J499995D01*
G01*
X99807107Y-61700005D02*
G75*
G03*
X99453554Y-61846446I-7J-499995D01*
G01*
X105241401Y-64641443D02*
G75*
G03*
X105382843Y-64700000I141399J141443D01*
G01*
X106300000Y-63500000D02*
G75*
G03*
X105800000Y-63000000I-500000J0D01*
G01*
X104500000Y-62800000D02*
G75*
G03*
X104000000Y-62300000I-500000J0D01*
G01*
X103446450Y-61196444D02*
G75*
G03*
X103092893Y-61050000I-353550J-353556D01*
G01*
X98400000Y-62190000D02*
G75*
G03*
X97900000Y-62690000I0J-500000D01*
G01*
%TO.N,/RFID/SHDN*%
X103000000Y-61550000D02*
X103103554Y-61653554D01*
X106478680Y-61200000D02*
X104200000Y-61200000D01*
X109492893Y-62500000D02*
X108814214Y-62500000D01*
X110129981Y-62070019D02*
X109846446Y-62353554D01*
X108107107Y-62207107D02*
X107539340Y-61639340D01*
X102896447Y-61653553D02*
X103000000Y-61550000D01*
X103250000Y-62007107D02*
X103250000Y-62300000D01*
X102750000Y-62300000D02*
X102750000Y-62007107D01*
X102750000Y-62300000D02*
X103250000Y-62300000D01*
X109492893Y-62499995D02*
G75*
G03*
X109846446Y-62353554I7J499995D01*
G01*
X107539350Y-61639330D02*
G75*
G03*
X106478680Y-61200000I-1060650J-1060670D01*
G01*
X108107100Y-62207114D02*
G75*
G03*
X108814214Y-62500000I707100J707114D01*
G01*
X103249995Y-62007107D02*
G75*
G03*
X103103554Y-61653554I-499995J7D01*
G01*
X102896444Y-61653550D02*
G75*
G03*
X102750000Y-62007107I353556J-353550D01*
G01*
%TO.N,/RFID/AMP1_OUT*%
X100762250Y-62637750D02*
X100314500Y-62190000D01*
X100762250Y-62637750D02*
X100953554Y-62446446D01*
X101307107Y-62300000D02*
X102250000Y-62300000D01*
X100314500Y-62190000D02*
X100200000Y-62190000D01*
X101307107Y-62300005D02*
G75*
G03*
X100953554Y-62446446I-7J-499995D01*
G01*
%TO.N,/RFID/AMP1_NEG*%
X101400000Y-63150000D02*
X100260000Y-63150000D01*
X101500000Y-63050000D02*
X101400000Y-63150000D01*
X99690000Y-62700000D02*
X100200000Y-63210000D01*
X100260000Y-63150000D02*
X100200000Y-63210000D01*
X99600000Y-62700000D02*
X99690000Y-62700000D01*
%TO.N,/RFID/CARRIER*%
X110592877Y-64207123D02*
X111626894Y-63173106D01*
X111626894Y-63173106D02*
X111851786Y-63173106D01*
X110300000Y-64950000D02*
X110300000Y-64914214D01*
X110592891Y-64207137D02*
G75*
G03*
X110300000Y-64914214I707009J-707063D01*
G01*
D42*
%TO.N,/RFID/OUT_SHIFT*%
X99000000Y-56350000D02*
X96250000Y-56350000D01*
X100200000Y-56350000D02*
X99000000Y-56350000D01*
X96250000Y-56350000D02*
X96200000Y-56300000D01*
D41*
%TO.N,/RFID/OUT_G*%
X99363553Y-58553553D02*
X99000000Y-58190000D01*
X101175000Y-59050000D02*
X100971446Y-58846446D01*
X100617893Y-58700000D02*
X99717107Y-58700000D01*
X99363550Y-58553556D02*
G75*
G03*
X99717107Y-58700000I353550J353556D01*
G01*
X100971449Y-58846443D02*
G75*
G03*
X100617893Y-58700000I-353549J-353557D01*
G01*
%TO.N,/Pogo Connector/SWDIO*%
X106000000Y-61800000D02*
X106585786Y-61800000D01*
X107292893Y-62092893D02*
X107760660Y-62560660D01*
X108821320Y-63000000D02*
X110489949Y-63000000D01*
X110702081Y-62912132D02*
X110837087Y-62777126D01*
X107292900Y-62092886D02*
G75*
G03*
X106585786Y-61800000I-707100J-707114D01*
G01*
X110489949Y-63000034D02*
G75*
G03*
X110702081Y-62912132I-49J300034D01*
G01*
X107760650Y-62560670D02*
G75*
G03*
X108821320Y-63000000I1060650J1060670D01*
G01*
%TO.N,/Pogo Connector/SWCLK*%
X106614466Y-62300000D02*
X106612869Y-62298403D01*
X107435786Y-62914213D02*
X106968019Y-62446446D01*
X110756397Y-63498320D02*
X108851680Y-63498320D01*
X111148214Y-63173106D02*
X110909188Y-63412132D01*
X108851680Y-63498320D02*
X108850000Y-63500000D01*
X105553553Y-62153553D02*
X105350000Y-61950000D01*
X106612869Y-62298403D02*
X105841491Y-62298403D01*
X105350000Y-61950000D02*
X105350000Y-61800000D01*
X105553541Y-62153565D02*
G75*
G03*
X105841491Y-62298402I369359J375665D01*
G01*
X110756394Y-63498311D02*
G75*
G03*
X110909187Y-63412131I-93894J345011D01*
G01*
X107435786Y-62914213D02*
G75*
G03*
X108850000Y-63500000I1414214J1414213D01*
G01*
X106968036Y-62446429D02*
G75*
G03*
X106614466Y-62300000I-353536J-353571D01*
G01*
%TO.N,/Pogo Connector/LPUART1_TX*%
X112775108Y-56600000D02*
X111148214Y-58226894D01*
%TO.N,/RFID/OUT*%
X99717107Y-60700000D02*
X106571573Y-60700000D01*
X99000000Y-60190000D02*
X99363554Y-60553554D01*
X109096448Y-61689339D02*
X109422874Y-61362913D01*
X107985786Y-61285785D02*
X108389341Y-61689340D01*
X99000000Y-59210000D02*
X99000000Y-60190000D01*
X99363551Y-60553557D02*
G75*
G03*
X99717107Y-60700000I353549J353557D01*
G01*
X107985799Y-61285772D02*
G75*
G03*
X106571573Y-60700000I-1414199J-1414228D01*
G01*
X108389347Y-61689334D02*
G75*
G03*
X109096448Y-61689339I353553J353534D01*
G01*
%TO.N,/RFID/PULL*%
X114102543Y-62595436D02*
X113223573Y-61716466D01*
D43*
%TO.N,/RFID/GATE*%
X100653579Y-57366421D02*
X100751422Y-57268578D01*
X99975000Y-57050000D02*
X99975000Y-57192157D01*
X100892843Y-57210000D02*
X101400000Y-57210000D01*
X100207843Y-57425000D02*
X100512157Y-57425000D01*
D41*
X101400000Y-58350000D02*
X101400000Y-57210000D01*
D43*
X100033579Y-57333579D02*
X100066422Y-57366422D01*
X99975031Y-57192157D02*
G75*
G03*
X100033580Y-57333578I199969J-43D01*
G01*
X100892843Y-57210031D02*
G75*
G03*
X100751423Y-57268579I-43J-199969D01*
G01*
X100512157Y-57424969D02*
G75*
G03*
X100653578Y-57366420I43J199969D01*
G01*
X100066401Y-57366443D02*
G75*
G03*
X100207843Y-57425000I141399J141443D01*
G01*
D41*
%TO.N,/RFID/OUTN_G*%
X100200000Y-58190000D02*
X99890000Y-58190000D01*
X99890000Y-58190000D02*
X99459080Y-57759080D01*
X98775000Y-57300000D02*
X98775000Y-57050000D01*
X99459060Y-57759100D02*
G75*
G03*
X99075000Y-57600000I-384060J-384000D01*
G01*
X98775000Y-57300000D02*
G75*
G03*
X99075000Y-57600000I300000J0D01*
G01*
%TO.N,/Pogo Connector/LPUART1_RX*%
X109807106Y-57800000D02*
X109200000Y-57800000D01*
X109760000Y-56125000D02*
X108900000Y-56985000D01*
X110837087Y-58622874D02*
X110160659Y-57946446D01*
X108900000Y-56985000D02*
X108900000Y-57225000D01*
X108900000Y-57500000D02*
X108900000Y-57225000D01*
X108900000Y-57500000D02*
G75*
G03*
X109200000Y-57800000I300000J0D01*
G01*
X110160656Y-57946449D02*
G75*
G03*
X109807106Y-57800000I-353556J-353551D01*
G01*
%TO.N,/RFID/OUTN*%
X109132234Y-59746447D02*
X109422874Y-60037087D01*
X100200000Y-60190000D02*
X106402893Y-60190000D01*
X100200000Y-60190000D02*
X100200000Y-59210000D01*
X106756447Y-60043553D02*
X107053554Y-59746446D01*
X107407107Y-59600000D02*
X108778680Y-59600000D01*
X107407107Y-59600005D02*
G75*
G03*
X107053554Y-59746446I-7J-499995D01*
G01*
X109132244Y-59746437D02*
G75*
G03*
X108778680Y-59600000I-353544J-353563D01*
G01*
X106402893Y-60189995D02*
G75*
G03*
X106756447Y-60043553I7J499995D01*
G01*
%TO.N,/Pogo Connector/IRQN*%
X111085787Y-61700000D02*
X111000000Y-61700000D01*
X112162913Y-62777126D02*
X111085787Y-61700000D01*
%TO.N,/Pogo Connector/NRST*%
X112250001Y-59242892D02*
X112516466Y-58976427D01*
X113000000Y-60700000D02*
X112250000Y-59949999D01*
X112249955Y-59242846D02*
G75*
G03*
X112250000Y-59949999I353645J-353554D01*
G01*
%TO.N,IOREF*%
X109600000Y-57450000D02*
X111042893Y-57450000D01*
X115100000Y-61400000D02*
X115100000Y-57100000D01*
X111396447Y-57303553D02*
X111763554Y-56936446D01*
X114100000Y-56100000D02*
X111910000Y-56100000D01*
X111910000Y-56582893D02*
X111910000Y-56100000D01*
X111763557Y-56936449D02*
G75*
G03*
X111910000Y-56582893I-353557J353549D01*
G01*
X115100000Y-57100000D02*
G75*
G03*
X114100000Y-56100000I-1000000J0D01*
G01*
X111042893Y-57449995D02*
G75*
G03*
X111396447Y-57303553I7J499995D01*
G01*
%TO.N,/Pogo Connector/LPUART1_RX_1V8*%
X111046447Y-56853553D02*
X111100000Y-56800000D01*
X110890000Y-56100000D02*
X110890000Y-56382893D01*
X109600000Y-57000000D02*
X110692893Y-57000000D01*
X111036447Y-56736447D02*
X111100000Y-56800000D01*
X110890005Y-56382893D02*
G75*
G03*
X111036447Y-56736447I499995J-7D01*
G01*
X110692893Y-56999995D02*
G75*
G03*
X111046447Y-56853553I7J499995D01*
G01*
%TO.N,/Boost Converter/FB_OFFSET*%
X105892893Y-59700000D02*
X103297107Y-59700000D01*
X110129981Y-59329981D02*
X109846446Y-59046446D01*
X106753553Y-59046447D02*
X106246446Y-59553554D01*
X102943553Y-59553553D02*
X102600000Y-59210000D01*
X109492893Y-58900000D02*
X107107107Y-58900000D01*
X105892893Y-59699995D02*
G75*
G03*
X106246446Y-59553554I7J499995D01*
G01*
X107107107Y-58900005D02*
G75*
G03*
X106753553Y-59046447I-7J-499995D01*
G01*
X109846449Y-59046443D02*
G75*
G03*
X109492893Y-58900000I-353549J-353557D01*
G01*
X102943550Y-59553556D02*
G75*
G03*
X103297107Y-59700000I353550J353556D01*
G01*
%TO.N,/Boost Converter/EN*%
X110483534Y-58976427D02*
X109853553Y-58346446D01*
X107450000Y-58200000D02*
X105597107Y-58200000D01*
X106407107Y-58200000D02*
X107450000Y-58200000D01*
X106053553Y-58053553D02*
X105746446Y-57746446D01*
X105600000Y-57392893D02*
X105600000Y-57200000D01*
X109500000Y-58200000D02*
X107450000Y-58200000D01*
X105243553Y-58346447D02*
X104890000Y-58700000D01*
X105597107Y-58200005D02*
G75*
G03*
X105243553Y-58346447I-7J-499995D01*
G01*
X109853553Y-58346446D02*
G75*
G03*
X109500000Y-58200000I-353553J-353554D01*
G01*
X105600005Y-57392893D02*
G75*
G03*
X105746446Y-57746446I499995J-7D01*
G01*
X106053550Y-58053556D02*
G75*
G03*
X106407107Y-58200000I353550J353556D01*
G01*
%TO.N,/Boost Converter/FB*%
X105200000Y-57200000D02*
X104356446Y-58043554D01*
X102600000Y-57210000D02*
X102600000Y-58190000D01*
X104002893Y-58190000D02*
X103800000Y-58190000D01*
X102600000Y-58190000D02*
X103800000Y-58190000D01*
X104002893Y-58189995D02*
G75*
G03*
X104356446Y-58043554I7J499995D01*
G01*
%TD*%
%TA.AperFunction,Conductor*%
%TO.N,/Boost Converter/VRF*%
G36*
X103167542Y-55775508D02*
G01*
X103191549Y-55791549D01*
X103322826Y-55922826D01*
X103338867Y-55946833D01*
X103344500Y-55975152D01*
X103344500Y-55991786D01*
X103342537Y-56001093D01*
X103343608Y-56001218D01*
X103339500Y-56036627D01*
X103339500Y-56403376D01*
X103342539Y-56429581D01*
X103347123Y-56445929D01*
X103349798Y-56466249D01*
X103359711Y-56503245D01*
X103375245Y-56540748D01*
X103386744Y-56555734D01*
X103399959Y-56572955D01*
X103427045Y-56600041D01*
X103451758Y-56619004D01*
X103459251Y-56624754D01*
X103491258Y-56638011D01*
X103496754Y-56640288D01*
X103533754Y-56650202D01*
X103565950Y-56654440D01*
X103573999Y-56655500D01*
X103574000Y-56655500D01*
X105065030Y-56655500D01*
X105079467Y-56656922D01*
X105199998Y-56680897D01*
X105199998Y-56680896D01*
X105200000Y-56680897D01*
X105240056Y-56672929D01*
X105287221Y-56679138D01*
X105320860Y-56712777D01*
X105327070Y-56759943D01*
X105319102Y-56799999D01*
X105327070Y-56840055D01*
X105320861Y-56887221D01*
X105287221Y-56920861D01*
X105240055Y-56927070D01*
X105200000Y-56919102D01*
X105092505Y-56940485D01*
X105015097Y-56992207D01*
X105002306Y-56999044D01*
X105000001Y-56999998D01*
X104421674Y-57578326D01*
X104397667Y-57594367D01*
X104369348Y-57600000D01*
X103230652Y-57600000D01*
X103202333Y-57594367D01*
X103178326Y-57578326D01*
X103086350Y-57486350D01*
X103065935Y-57447614D01*
X103068806Y-57422893D01*
X103066440Y-57422619D01*
X103067730Y-57411498D01*
X103070500Y-57387623D01*
X103070499Y-57032378D01*
X103067730Y-57008502D01*
X103024616Y-56910859D01*
X102949141Y-56835384D01*
X102854728Y-56793696D01*
X102851496Y-56792269D01*
X102830755Y-56789863D01*
X102827622Y-56789500D01*
X102372376Y-56789500D01*
X102348502Y-56792269D01*
X102348502Y-56792270D01*
X102345271Y-56793696D01*
X102315385Y-56800000D01*
X101684616Y-56800000D01*
X101654726Y-56793695D01*
X101651498Y-56792269D01*
X101630104Y-56789787D01*
X101627622Y-56789500D01*
X101172376Y-56789500D01*
X101148502Y-56792269D01*
X101148502Y-56792270D01*
X101145271Y-56793696D01*
X101115385Y-56800000D01*
X101099999Y-56800000D01*
X101085273Y-56814726D01*
X101062841Y-56830093D01*
X101050858Y-56835384D01*
X100975384Y-56910858D01*
X100968226Y-56927070D01*
X100949097Y-56970391D01*
X100921803Y-57002499D01*
X100881404Y-57014500D01*
X100862861Y-57014500D01*
X100862634Y-57014524D01*
X100840816Y-57014520D01*
X100740224Y-57041453D01*
X100650027Y-57093507D01*
X100633574Y-57109953D01*
X100633534Y-57109987D01*
X100617521Y-57126000D01*
X100613204Y-57130317D01*
X100592157Y-57151356D01*
X100575847Y-57167661D01*
X100575823Y-57167696D01*
X100565197Y-57178323D01*
X100541189Y-57194366D01*
X100512869Y-57200000D01*
X100374000Y-57200000D01*
X100337000Y-57190086D01*
X100309914Y-57163000D01*
X100300000Y-57126000D01*
X100300000Y-56774500D01*
X100309914Y-56737500D01*
X100337000Y-56710414D01*
X100374000Y-56700500D01*
X100479399Y-56700500D01*
X100484475Y-56700000D01*
X100600000Y-56700000D01*
X100600000Y-56690602D01*
X100608737Y-56655719D01*
X100628069Y-56634389D01*
X100630599Y-56630602D01*
X100630601Y-56630601D01*
X100685966Y-56547740D01*
X100700500Y-56474674D01*
X100700500Y-56225326D01*
X100685966Y-56152260D01*
X100667138Y-56124081D01*
X100664340Y-56119893D01*
X100652225Y-56071528D01*
X100673542Y-56026457D01*
X100908450Y-55791549D01*
X100932458Y-55775508D01*
X100960777Y-55769875D01*
X103139223Y-55769875D01*
X103167542Y-55775508D01*
G37*
%TD.AperFunction*%
%TD*%
%TA.AperFunction,Conductor*%
%TO.N,+3V3*%
G36*
X106197667Y-56705633D02*
G01*
X106221674Y-56721673D01*
X106400000Y-56900000D01*
X107826000Y-56900000D01*
X107863000Y-56909914D01*
X107890086Y-56937000D01*
X107900000Y-56974000D01*
X107900000Y-57726000D01*
X107890086Y-57763000D01*
X107863000Y-57790086D01*
X107826000Y-57800000D01*
X106149557Y-57800000D01*
X106121238Y-57794367D01*
X106097231Y-57778326D01*
X105909332Y-57590427D01*
X105902955Y-57583156D01*
X105868204Y-57537867D01*
X105858553Y-57521151D01*
X105838582Y-57472935D01*
X105833585Y-57454281D01*
X105828624Y-57416595D01*
X105826132Y-57397666D01*
X105825500Y-57388010D01*
X105825500Y-57380848D01*
X105837972Y-57339735D01*
X105859515Y-57307495D01*
X105880897Y-57200000D01*
X105859515Y-57092505D01*
X105798624Y-57001376D01*
X105707495Y-56940485D01*
X105689975Y-56937000D01*
X105600000Y-56919102D01*
X105588437Y-56921403D01*
X105545682Y-56917192D01*
X105512471Y-56889937D01*
X105500000Y-56848825D01*
X105500000Y-56774000D01*
X105509914Y-56737000D01*
X105537000Y-56709914D01*
X105574000Y-56700000D01*
X106169348Y-56700000D01*
X106197667Y-56705633D01*
G37*
%TD.AperFunction*%
%TD*%
%TA.AperFunction,Conductor*%
%TO.N,GND*%
G36*
X105263000Y-55779789D02*
G01*
X105290086Y-55806875D01*
X105300000Y-55843875D01*
X105300000Y-56426000D01*
X105290086Y-56463000D01*
X105263000Y-56490086D01*
X105226000Y-56500000D01*
X103574000Y-56500000D01*
X103537000Y-56490086D01*
X103509914Y-56463000D01*
X103500000Y-56426000D01*
X103500000Y-55843875D01*
X103509914Y-55806875D01*
X103537000Y-55779789D01*
X103574000Y-55769875D01*
X105226000Y-55769875D01*
X105263000Y-55779789D01*
G37*
%TD.AperFunction*%
%TD*%
%TA.AperFunction,Conductor*%
%TO.N,/Boost Converter/LX*%
G36*
X107863000Y-55779789D02*
G01*
X107890086Y-55806875D01*
X107900000Y-55843875D01*
X107900000Y-56626000D01*
X107890086Y-56663000D01*
X107863000Y-56690086D01*
X107826000Y-56700000D01*
X106530652Y-56700000D01*
X106502333Y-56694367D01*
X106478326Y-56678326D01*
X106300000Y-56500000D01*
X105574000Y-56500000D01*
X105537000Y-56490086D01*
X105509914Y-56463000D01*
X105500000Y-56426000D01*
X105500000Y-55843875D01*
X105509914Y-55806875D01*
X105537000Y-55779789D01*
X105574000Y-55769875D01*
X107826000Y-55769875D01*
X107863000Y-55779789D01*
G37*
%TD.AperFunction*%
%TD*%
M02*
