M48
; DRILL file {KiCad 7.0.1} date Sat Jan  6 01:51:31 2024
; FORMAT={-:-/ absolute / inch / decimal}
; #@! TF.CreationDate,2024-01-06T01:51:31+00:00
; #@! TF.GenerationSoftware,Kicad,Pcbnew,7.0.1
; #@! TF.FileFunction,Plated,1,4,PTH
FMAT,2
INCH
; #@! TA.AperFunction,Plated,PTH,ViaDrill
T1C0.0118
%
G90
G05
T1
X3.7362Y-2.6575
X3.7598Y-2.2638
X3.7598Y-2.3228
X3.7598Y-2.3819
X3.7598Y-2.4409
X3.7598Y-2.5
X3.7598Y-2.5591
X3.8189Y-2.2638
X3.8189Y-2.3228
X3.8189Y-2.3819
X3.8189Y-2.4409
X3.8189Y-2.5
X3.8189Y-2.5591
X3.8386Y-2.6969
X3.8504Y-2.4252
X3.8701Y-2.4094
X3.874Y-2.4685
X3.874Y-2.5079
X3.874Y-2.5886
X3.9213Y-2.4685
X3.9213Y-2.5472
X3.9213Y-2.5866
X3.967Y-2.4661
X3.9685Y-2.5866
X3.972Y-2.2752
X3.9921Y-2.4098
X4.001Y-2.3435
X4.0394Y-2.6063
X4.0551Y-2.4232
X4.0591Y-2.626
X4.063Y-2.5079
X4.0787Y-2.6063
X4.1024Y-2.4094
X4.1102Y-2.5866
X4.1181Y-2.2106
X4.1476Y-2.4331
X4.1535Y-2.3307
X4.1575Y-2.5866
X4.1614Y-2.5
X4.1614Y-2.5276
X4.1614Y-2.6417
X4.1732Y-2.4331
X4.1772Y-2.2441
X4.185Y-2.6496
X4.2047Y-2.5394
X4.252Y-2.6398
X4.2638Y-2.5512
X4.3425Y-2.378
X4.3701Y-2.4291
X4.3701Y-2.5429
X4.374Y-2.2362
X4.3947Y-2.5443
X4.44Y-2.2283
X4.4488Y-2.3898
X4.4685Y-2.311
X4.4922Y-2.4644
X4.5071Y-2.311
X4.5315Y-2.4173
X4.5512Y-2.2165
X4.5551Y-2.3543
T0
M30
