M48
; DRILL file {KiCad 7.0.1} date Sat Jan  6 02:21:34 2024
; FORMAT={-:-/ absolute / inch / decimal}
; #@! TF.CreationDate,2024-01-06T02:21:34+00:00
; #@! TF.GenerationSoftware,Kicad,Pcbnew,7.0.1
; #@! TF.FileFunction,Plated,1,2,PTH
FMAT,2
INCH
; #@! TA.AperFunction,Plated,PTH,ComponentDrill
T1C0.0630
; #@! TA.AperFunction,Plated,PTH,ComponentDrill
T2C0.1260
%
G90
G05
T1
X5.315Y-3.1811
X5.5512Y-3.4547
X5.5512Y-3.5551
X5.5709Y-4.2913
X5.6693Y-4.3307
X5.7677Y-4.3504
X5.8661Y-4.3504
X5.9646Y-4.3504
X6.063Y-4.3504
X6.1299Y-4.2717
X6.2126Y-3.9646
X6.2126Y-4.063
X6.2126Y-4.1614
X6.2323Y-4.2992
X6.2992Y-3.9154
X6.2992Y-4.0138
X6.2992Y-4.1122
X6.2992Y-4.2106
X6.3858Y-3.9646
X6.3858Y-4.063
X6.3858Y-4.1614
X6.4291Y-3.0551
T2
X4.9213Y-2.6772
X4.9213Y-4.6457
X6.8898Y-2.6772
X6.8898Y-4.6457
T0
M30
