%TF.GenerationSoftware,KiCad,Pcbnew,7.0.1*%
%TF.CreationDate,2023-12-31T16:06:10+00:00*%
%TF.ProjectId,watch_test_rig_support,77617463-685f-4746-9573-745f7269675f,rev?*%
%TF.SameCoordinates,Original*%
%TF.FileFunction,Drillmap*%
%TF.FilePolarity,Positive*%
%FSLAX45Y45*%
G04 Gerber Fmt 4.5, Leading zero omitted, Abs format (unit mm)*
G04 Created by KiCad (PCBNEW 7.0.1) date 2023-12-31 16:06:10*
%MOMM*%
%LPD*%
G01*
G04 APERTURE LIST*
%ADD10C,0.100000*%
%ADD11C,0.200000*%
%ADD12C,0.160000*%
%ADD13C,0.320000*%
G04 APERTURE END LIST*
D10*
X17800000Y-6800000D02*
G75*
G03*
X17500000Y-6500000I-300000J0D01*
G01*
X17500000Y-12100000D02*
G75*
G03*
X17800000Y-11800000I0J300000D01*
G01*
X12500000Y-6500000D02*
G75*
G03*
X12200000Y-6800000I0J-300000D01*
G01*
X12500000Y-6500000D02*
X17500000Y-6500000D01*
X12200000Y-11800000D02*
G75*
G03*
X12500000Y-12100000I300000J0D01*
G01*
X12200000Y-11800000D02*
X12200000Y-6800000D01*
X17500000Y-12100000D02*
X12500000Y-12100000D01*
X17800000Y-6800000D02*
X17800000Y-11800000D01*
D11*
D12*
X13420000Y-8000000D02*
X13580000Y-8160000D01*
X13580000Y-8000000D02*
X13420000Y-8160000D01*
X14020000Y-8695000D02*
X14180000Y-8855000D01*
X14180000Y-8695000D02*
X14020000Y-8855000D01*
X14020000Y-8950000D02*
X14180000Y-9110000D01*
X14180000Y-8950000D02*
X14020000Y-9110000D01*
X14070000Y-10820000D02*
X14230000Y-10980000D01*
X14230000Y-10820000D02*
X14070000Y-10980000D01*
X14320000Y-10920000D02*
X14480000Y-11080000D01*
X14480000Y-10920000D02*
X14320000Y-11080000D01*
X14570000Y-10970000D02*
X14730000Y-11130000D01*
X14730000Y-10970000D02*
X14570000Y-11130000D01*
X14820000Y-10970000D02*
X14980000Y-11130000D01*
X14980000Y-10970000D02*
X14820000Y-11130000D01*
X15070000Y-10970000D02*
X15230000Y-11130000D01*
X15230000Y-10970000D02*
X15070000Y-11130000D01*
X15320000Y-10970000D02*
X15480000Y-11130000D01*
X15480000Y-10970000D02*
X15320000Y-11130000D01*
X15490000Y-10770000D02*
X15650000Y-10930000D01*
X15650000Y-10770000D02*
X15490000Y-10930000D01*
X15700000Y-9990000D02*
X15860000Y-10150000D01*
X15860000Y-9990000D02*
X15700000Y-10150000D01*
X15700000Y-10240000D02*
X15860000Y-10400000D01*
X15860000Y-10240000D02*
X15700000Y-10400000D01*
X15700000Y-10490000D02*
X15860000Y-10650000D01*
X15860000Y-10490000D02*
X15700000Y-10650000D01*
X15750000Y-10840000D02*
X15910000Y-11000000D01*
X15910000Y-10840000D02*
X15750000Y-11000000D01*
X15920000Y-9865000D02*
X16080000Y-10025000D01*
X16080000Y-9865000D02*
X15920000Y-10025000D01*
X15920000Y-10115000D02*
X16080000Y-10275000D01*
X16080000Y-10115000D02*
X15920000Y-10275000D01*
X15920000Y-10365000D02*
X16080000Y-10525000D01*
X16080000Y-10365000D02*
X15920000Y-10525000D01*
X15920000Y-10615000D02*
X16080000Y-10775000D01*
X16080000Y-10615000D02*
X15920000Y-10775000D01*
X16140000Y-9990000D02*
X16300000Y-10150000D01*
X16300000Y-9990000D02*
X16140000Y-10150000D01*
X16140000Y-10240000D02*
X16300000Y-10400000D01*
X16300000Y-10240000D02*
X16140000Y-10400000D01*
X16140000Y-10490000D02*
X16300000Y-10650000D01*
X16300000Y-10490000D02*
X16140000Y-10650000D01*
X16250000Y-7680000D02*
X16410000Y-7840000D01*
X16410000Y-7680000D02*
X16250000Y-7840000D01*
D13*
X12660000Y-6800000D02*
G75*
G03*
X12660000Y-6800000I-160000J0D01*
G01*
X12660000Y-11800000D02*
G75*
G03*
X12660000Y-11800000I-160000J0D01*
G01*
X17660000Y-6800000D02*
G75*
G03*
X17660000Y-6800000I-160000J0D01*
G01*
X17660000Y-11800000D02*
G75*
G03*
X17660000Y-11800000I-160000J0D01*
G01*
D11*
X12442619Y-12417524D02*
X12442619Y-12217524D01*
X12442619Y-12217524D02*
X12490238Y-12217524D01*
X12490238Y-12217524D02*
X12518809Y-12227048D01*
X12518809Y-12227048D02*
X12537857Y-12246095D01*
X12537857Y-12246095D02*
X12547381Y-12265143D01*
X12547381Y-12265143D02*
X12556905Y-12303238D01*
X12556905Y-12303238D02*
X12556905Y-12331809D01*
X12556905Y-12331809D02*
X12547381Y-12369905D01*
X12547381Y-12369905D02*
X12537857Y-12388952D01*
X12537857Y-12388952D02*
X12518809Y-12408000D01*
X12518809Y-12408000D02*
X12490238Y-12417524D01*
X12490238Y-12417524D02*
X12442619Y-12417524D01*
X12642619Y-12417524D02*
X12642619Y-12284190D01*
X12642619Y-12322286D02*
X12652143Y-12303238D01*
X12652143Y-12303238D02*
X12661667Y-12293714D01*
X12661667Y-12293714D02*
X12680714Y-12284190D01*
X12680714Y-12284190D02*
X12699762Y-12284190D01*
X12766428Y-12417524D02*
X12766428Y-12284190D01*
X12766428Y-12217524D02*
X12756905Y-12227048D01*
X12756905Y-12227048D02*
X12766428Y-12236571D01*
X12766428Y-12236571D02*
X12775952Y-12227048D01*
X12775952Y-12227048D02*
X12766428Y-12217524D01*
X12766428Y-12217524D02*
X12766428Y-12236571D01*
X12890238Y-12417524D02*
X12871190Y-12408000D01*
X12871190Y-12408000D02*
X12861667Y-12388952D01*
X12861667Y-12388952D02*
X12861667Y-12217524D01*
X12995000Y-12417524D02*
X12975952Y-12408000D01*
X12975952Y-12408000D02*
X12966428Y-12388952D01*
X12966428Y-12388952D02*
X12966428Y-12217524D01*
X13223571Y-12417524D02*
X13223571Y-12217524D01*
X13223571Y-12217524D02*
X13290238Y-12360381D01*
X13290238Y-12360381D02*
X13356905Y-12217524D01*
X13356905Y-12217524D02*
X13356905Y-12417524D01*
X13537857Y-12417524D02*
X13537857Y-12312762D01*
X13537857Y-12312762D02*
X13528333Y-12293714D01*
X13528333Y-12293714D02*
X13509286Y-12284190D01*
X13509286Y-12284190D02*
X13471190Y-12284190D01*
X13471190Y-12284190D02*
X13452143Y-12293714D01*
X13537857Y-12408000D02*
X13518809Y-12417524D01*
X13518809Y-12417524D02*
X13471190Y-12417524D01*
X13471190Y-12417524D02*
X13452143Y-12408000D01*
X13452143Y-12408000D02*
X13442619Y-12388952D01*
X13442619Y-12388952D02*
X13442619Y-12369905D01*
X13442619Y-12369905D02*
X13452143Y-12350857D01*
X13452143Y-12350857D02*
X13471190Y-12341333D01*
X13471190Y-12341333D02*
X13518809Y-12341333D01*
X13518809Y-12341333D02*
X13537857Y-12331809D01*
X13633095Y-12284190D02*
X13633095Y-12484190D01*
X13633095Y-12293714D02*
X13652143Y-12284190D01*
X13652143Y-12284190D02*
X13690238Y-12284190D01*
X13690238Y-12284190D02*
X13709286Y-12293714D01*
X13709286Y-12293714D02*
X13718809Y-12303238D01*
X13718809Y-12303238D02*
X13728333Y-12322286D01*
X13728333Y-12322286D02*
X13728333Y-12379428D01*
X13728333Y-12379428D02*
X13718809Y-12398476D01*
X13718809Y-12398476D02*
X13709286Y-12408000D01*
X13709286Y-12408000D02*
X13690238Y-12417524D01*
X13690238Y-12417524D02*
X13652143Y-12417524D01*
X13652143Y-12417524D02*
X13633095Y-12408000D01*
X13814048Y-12398476D02*
X13823571Y-12408000D01*
X13823571Y-12408000D02*
X13814048Y-12417524D01*
X13814048Y-12417524D02*
X13804524Y-12408000D01*
X13804524Y-12408000D02*
X13814048Y-12398476D01*
X13814048Y-12398476D02*
X13814048Y-12417524D01*
X13814048Y-12293714D02*
X13823571Y-12303238D01*
X13823571Y-12303238D02*
X13814048Y-12312762D01*
X13814048Y-12312762D02*
X13804524Y-12303238D01*
X13804524Y-12303238D02*
X13814048Y-12293714D01*
X13814048Y-12293714D02*
X13814048Y-12312762D01*
D12*
X12035000Y-12665000D02*
X12195000Y-12825000D01*
X12195000Y-12665000D02*
X12035000Y-12825000D01*
D11*
X12547381Y-12837524D02*
X12433095Y-12837524D01*
X12490238Y-12837524D02*
X12490238Y-12637524D01*
X12490238Y-12637524D02*
X12471190Y-12666095D01*
X12471190Y-12666095D02*
X12452143Y-12685143D01*
X12452143Y-12685143D02*
X12433095Y-12694667D01*
X12633095Y-12818476D02*
X12642619Y-12828000D01*
X12642619Y-12828000D02*
X12633095Y-12837524D01*
X12633095Y-12837524D02*
X12623571Y-12828000D01*
X12623571Y-12828000D02*
X12633095Y-12818476D01*
X12633095Y-12818476D02*
X12633095Y-12837524D01*
X12814048Y-12637524D02*
X12775952Y-12637524D01*
X12775952Y-12637524D02*
X12756905Y-12647048D01*
X12756905Y-12647048D02*
X12747381Y-12656571D01*
X12747381Y-12656571D02*
X12728333Y-12685143D01*
X12728333Y-12685143D02*
X12718809Y-12723238D01*
X12718809Y-12723238D02*
X12718809Y-12799428D01*
X12718809Y-12799428D02*
X12728333Y-12818476D01*
X12728333Y-12818476D02*
X12737857Y-12828000D01*
X12737857Y-12828000D02*
X12756905Y-12837524D01*
X12756905Y-12837524D02*
X12795000Y-12837524D01*
X12795000Y-12837524D02*
X12814048Y-12828000D01*
X12814048Y-12828000D02*
X12823571Y-12818476D01*
X12823571Y-12818476D02*
X12833095Y-12799428D01*
X12833095Y-12799428D02*
X12833095Y-12751809D01*
X12833095Y-12751809D02*
X12823571Y-12732762D01*
X12823571Y-12732762D02*
X12814048Y-12723238D01*
X12814048Y-12723238D02*
X12795000Y-12713714D01*
X12795000Y-12713714D02*
X12756905Y-12713714D01*
X12756905Y-12713714D02*
X12737857Y-12723238D01*
X12737857Y-12723238D02*
X12728333Y-12732762D01*
X12728333Y-12732762D02*
X12718809Y-12751809D01*
X12956905Y-12637524D02*
X12975952Y-12637524D01*
X12975952Y-12637524D02*
X12995000Y-12647048D01*
X12995000Y-12647048D02*
X13004524Y-12656571D01*
X13004524Y-12656571D02*
X13014048Y-12675619D01*
X13014048Y-12675619D02*
X13023571Y-12713714D01*
X13023571Y-12713714D02*
X13023571Y-12761333D01*
X13023571Y-12761333D02*
X13014048Y-12799428D01*
X13014048Y-12799428D02*
X13004524Y-12818476D01*
X13004524Y-12818476D02*
X12995000Y-12828000D01*
X12995000Y-12828000D02*
X12975952Y-12837524D01*
X12975952Y-12837524D02*
X12956905Y-12837524D01*
X12956905Y-12837524D02*
X12937857Y-12828000D01*
X12937857Y-12828000D02*
X12928333Y-12818476D01*
X12928333Y-12818476D02*
X12918809Y-12799428D01*
X12918809Y-12799428D02*
X12909286Y-12761333D01*
X12909286Y-12761333D02*
X12909286Y-12713714D01*
X12909286Y-12713714D02*
X12918809Y-12675619D01*
X12918809Y-12675619D02*
X12928333Y-12656571D01*
X12928333Y-12656571D02*
X12937857Y-12647048D01*
X12937857Y-12647048D02*
X12956905Y-12637524D01*
X13147381Y-12637524D02*
X13166429Y-12637524D01*
X13166429Y-12637524D02*
X13185476Y-12647048D01*
X13185476Y-12647048D02*
X13195000Y-12656571D01*
X13195000Y-12656571D02*
X13204524Y-12675619D01*
X13204524Y-12675619D02*
X13214048Y-12713714D01*
X13214048Y-12713714D02*
X13214048Y-12761333D01*
X13214048Y-12761333D02*
X13204524Y-12799428D01*
X13204524Y-12799428D02*
X13195000Y-12818476D01*
X13195000Y-12818476D02*
X13185476Y-12828000D01*
X13185476Y-12828000D02*
X13166429Y-12837524D01*
X13166429Y-12837524D02*
X13147381Y-12837524D01*
X13147381Y-12837524D02*
X13128333Y-12828000D01*
X13128333Y-12828000D02*
X13118809Y-12818476D01*
X13118809Y-12818476D02*
X13109286Y-12799428D01*
X13109286Y-12799428D02*
X13099762Y-12761333D01*
X13099762Y-12761333D02*
X13099762Y-12713714D01*
X13099762Y-12713714D02*
X13109286Y-12675619D01*
X13109286Y-12675619D02*
X13118809Y-12656571D01*
X13118809Y-12656571D02*
X13128333Y-12647048D01*
X13128333Y-12647048D02*
X13147381Y-12637524D01*
X13299762Y-12837524D02*
X13299762Y-12704190D01*
X13299762Y-12723238D02*
X13309286Y-12713714D01*
X13309286Y-12713714D02*
X13328333Y-12704190D01*
X13328333Y-12704190D02*
X13356905Y-12704190D01*
X13356905Y-12704190D02*
X13375952Y-12713714D01*
X13375952Y-12713714D02*
X13385476Y-12732762D01*
X13385476Y-12732762D02*
X13385476Y-12837524D01*
X13385476Y-12732762D02*
X13395000Y-12713714D01*
X13395000Y-12713714D02*
X13414048Y-12704190D01*
X13414048Y-12704190D02*
X13442619Y-12704190D01*
X13442619Y-12704190D02*
X13461667Y-12713714D01*
X13461667Y-12713714D02*
X13471190Y-12732762D01*
X13471190Y-12732762D02*
X13471190Y-12837524D01*
X13566429Y-12837524D02*
X13566429Y-12704190D01*
X13566429Y-12723238D02*
X13575952Y-12713714D01*
X13575952Y-12713714D02*
X13595000Y-12704190D01*
X13595000Y-12704190D02*
X13623571Y-12704190D01*
X13623571Y-12704190D02*
X13642619Y-12713714D01*
X13642619Y-12713714D02*
X13652143Y-12732762D01*
X13652143Y-12732762D02*
X13652143Y-12837524D01*
X13652143Y-12732762D02*
X13661667Y-12713714D01*
X13661667Y-12713714D02*
X13680714Y-12704190D01*
X13680714Y-12704190D02*
X13709286Y-12704190D01*
X13709286Y-12704190D02*
X13728333Y-12713714D01*
X13728333Y-12713714D02*
X13737857Y-12732762D01*
X13737857Y-12732762D02*
X13737857Y-12837524D01*
X14128333Y-12628000D02*
X13956905Y-12885143D01*
X14385476Y-12637524D02*
X14404524Y-12637524D01*
X14404524Y-12637524D02*
X14423572Y-12647048D01*
X14423572Y-12647048D02*
X14433095Y-12656571D01*
X14433095Y-12656571D02*
X14442619Y-12675619D01*
X14442619Y-12675619D02*
X14452143Y-12713714D01*
X14452143Y-12713714D02*
X14452143Y-12761333D01*
X14452143Y-12761333D02*
X14442619Y-12799428D01*
X14442619Y-12799428D02*
X14433095Y-12818476D01*
X14433095Y-12818476D02*
X14423572Y-12828000D01*
X14423572Y-12828000D02*
X14404524Y-12837524D01*
X14404524Y-12837524D02*
X14385476Y-12837524D01*
X14385476Y-12837524D02*
X14366429Y-12828000D01*
X14366429Y-12828000D02*
X14356905Y-12818476D01*
X14356905Y-12818476D02*
X14347381Y-12799428D01*
X14347381Y-12799428D02*
X14337857Y-12761333D01*
X14337857Y-12761333D02*
X14337857Y-12713714D01*
X14337857Y-12713714D02*
X14347381Y-12675619D01*
X14347381Y-12675619D02*
X14356905Y-12656571D01*
X14356905Y-12656571D02*
X14366429Y-12647048D01*
X14366429Y-12647048D02*
X14385476Y-12637524D01*
X14537857Y-12818476D02*
X14547381Y-12828000D01*
X14547381Y-12828000D02*
X14537857Y-12837524D01*
X14537857Y-12837524D02*
X14528333Y-12828000D01*
X14528333Y-12828000D02*
X14537857Y-12818476D01*
X14537857Y-12818476D02*
X14537857Y-12837524D01*
X14671191Y-12637524D02*
X14690238Y-12637524D01*
X14690238Y-12637524D02*
X14709286Y-12647048D01*
X14709286Y-12647048D02*
X14718810Y-12656571D01*
X14718810Y-12656571D02*
X14728333Y-12675619D01*
X14728333Y-12675619D02*
X14737857Y-12713714D01*
X14737857Y-12713714D02*
X14737857Y-12761333D01*
X14737857Y-12761333D02*
X14728333Y-12799428D01*
X14728333Y-12799428D02*
X14718810Y-12818476D01*
X14718810Y-12818476D02*
X14709286Y-12828000D01*
X14709286Y-12828000D02*
X14690238Y-12837524D01*
X14690238Y-12837524D02*
X14671191Y-12837524D01*
X14671191Y-12837524D02*
X14652143Y-12828000D01*
X14652143Y-12828000D02*
X14642619Y-12818476D01*
X14642619Y-12818476D02*
X14633095Y-12799428D01*
X14633095Y-12799428D02*
X14623572Y-12761333D01*
X14623572Y-12761333D02*
X14623572Y-12713714D01*
X14623572Y-12713714D02*
X14633095Y-12675619D01*
X14633095Y-12675619D02*
X14642619Y-12656571D01*
X14642619Y-12656571D02*
X14652143Y-12647048D01*
X14652143Y-12647048D02*
X14671191Y-12637524D01*
X14909286Y-12637524D02*
X14871191Y-12637524D01*
X14871191Y-12637524D02*
X14852143Y-12647048D01*
X14852143Y-12647048D02*
X14842619Y-12656571D01*
X14842619Y-12656571D02*
X14823572Y-12685143D01*
X14823572Y-12685143D02*
X14814048Y-12723238D01*
X14814048Y-12723238D02*
X14814048Y-12799428D01*
X14814048Y-12799428D02*
X14823572Y-12818476D01*
X14823572Y-12818476D02*
X14833095Y-12828000D01*
X14833095Y-12828000D02*
X14852143Y-12837524D01*
X14852143Y-12837524D02*
X14890238Y-12837524D01*
X14890238Y-12837524D02*
X14909286Y-12828000D01*
X14909286Y-12828000D02*
X14918810Y-12818476D01*
X14918810Y-12818476D02*
X14928333Y-12799428D01*
X14928333Y-12799428D02*
X14928333Y-12751809D01*
X14928333Y-12751809D02*
X14918810Y-12732762D01*
X14918810Y-12732762D02*
X14909286Y-12723238D01*
X14909286Y-12723238D02*
X14890238Y-12713714D01*
X14890238Y-12713714D02*
X14852143Y-12713714D01*
X14852143Y-12713714D02*
X14833095Y-12723238D01*
X14833095Y-12723238D02*
X14823572Y-12732762D01*
X14823572Y-12732762D02*
X14814048Y-12751809D01*
X14995000Y-12637524D02*
X15118810Y-12637524D01*
X15118810Y-12637524D02*
X15052143Y-12713714D01*
X15052143Y-12713714D02*
X15080714Y-12713714D01*
X15080714Y-12713714D02*
X15099762Y-12723238D01*
X15099762Y-12723238D02*
X15109286Y-12732762D01*
X15109286Y-12732762D02*
X15118810Y-12751809D01*
X15118810Y-12751809D02*
X15118810Y-12799428D01*
X15118810Y-12799428D02*
X15109286Y-12818476D01*
X15109286Y-12818476D02*
X15099762Y-12828000D01*
X15099762Y-12828000D02*
X15080714Y-12837524D01*
X15080714Y-12837524D02*
X15023572Y-12837524D01*
X15023572Y-12837524D02*
X15004524Y-12828000D01*
X15004524Y-12828000D02*
X14995000Y-12818476D01*
X15242619Y-12637524D02*
X15261667Y-12637524D01*
X15261667Y-12637524D02*
X15280714Y-12647048D01*
X15280714Y-12647048D02*
X15290238Y-12656571D01*
X15290238Y-12656571D02*
X15299762Y-12675619D01*
X15299762Y-12675619D02*
X15309286Y-12713714D01*
X15309286Y-12713714D02*
X15309286Y-12761333D01*
X15309286Y-12761333D02*
X15299762Y-12799428D01*
X15299762Y-12799428D02*
X15290238Y-12818476D01*
X15290238Y-12818476D02*
X15280714Y-12828000D01*
X15280714Y-12828000D02*
X15261667Y-12837524D01*
X15261667Y-12837524D02*
X15242619Y-12837524D01*
X15242619Y-12837524D02*
X15223572Y-12828000D01*
X15223572Y-12828000D02*
X15214048Y-12818476D01*
X15214048Y-12818476D02*
X15204524Y-12799428D01*
X15204524Y-12799428D02*
X15195000Y-12761333D01*
X15195000Y-12761333D02*
X15195000Y-12713714D01*
X15195000Y-12713714D02*
X15204524Y-12675619D01*
X15204524Y-12675619D02*
X15214048Y-12656571D01*
X15214048Y-12656571D02*
X15223572Y-12647048D01*
X15223572Y-12647048D02*
X15242619Y-12637524D01*
X15385476Y-12637524D02*
X15385476Y-12675619D01*
X15461667Y-12637524D02*
X15461667Y-12675619D01*
X15756905Y-12913714D02*
X15747381Y-12904190D01*
X15747381Y-12904190D02*
X15728334Y-12875619D01*
X15728334Y-12875619D02*
X15718810Y-12856571D01*
X15718810Y-12856571D02*
X15709286Y-12828000D01*
X15709286Y-12828000D02*
X15699762Y-12780381D01*
X15699762Y-12780381D02*
X15699762Y-12742286D01*
X15699762Y-12742286D02*
X15709286Y-12694667D01*
X15709286Y-12694667D02*
X15718810Y-12666095D01*
X15718810Y-12666095D02*
X15728334Y-12647048D01*
X15728334Y-12647048D02*
X15747381Y-12618476D01*
X15747381Y-12618476D02*
X15756905Y-12608952D01*
X15823572Y-12656571D02*
X15833095Y-12647048D01*
X15833095Y-12647048D02*
X15852143Y-12637524D01*
X15852143Y-12637524D02*
X15899762Y-12637524D01*
X15899762Y-12637524D02*
X15918810Y-12647048D01*
X15918810Y-12647048D02*
X15928334Y-12656571D01*
X15928334Y-12656571D02*
X15937857Y-12675619D01*
X15937857Y-12675619D02*
X15937857Y-12694667D01*
X15937857Y-12694667D02*
X15928334Y-12723238D01*
X15928334Y-12723238D02*
X15814048Y-12837524D01*
X15814048Y-12837524D02*
X15937857Y-12837524D01*
X16014048Y-12656571D02*
X16023572Y-12647048D01*
X16023572Y-12647048D02*
X16042619Y-12637524D01*
X16042619Y-12637524D02*
X16090238Y-12637524D01*
X16090238Y-12637524D02*
X16109286Y-12647048D01*
X16109286Y-12647048D02*
X16118810Y-12656571D01*
X16118810Y-12656571D02*
X16128334Y-12675619D01*
X16128334Y-12675619D02*
X16128334Y-12694667D01*
X16128334Y-12694667D02*
X16118810Y-12723238D01*
X16118810Y-12723238D02*
X16004524Y-12837524D01*
X16004524Y-12837524D02*
X16128334Y-12837524D01*
X16366429Y-12837524D02*
X16366429Y-12637524D01*
X16452143Y-12837524D02*
X16452143Y-12732762D01*
X16452143Y-12732762D02*
X16442619Y-12713714D01*
X16442619Y-12713714D02*
X16423572Y-12704190D01*
X16423572Y-12704190D02*
X16395000Y-12704190D01*
X16395000Y-12704190D02*
X16375953Y-12713714D01*
X16375953Y-12713714D02*
X16366429Y-12723238D01*
X16575953Y-12837524D02*
X16556905Y-12828000D01*
X16556905Y-12828000D02*
X16547381Y-12818476D01*
X16547381Y-12818476D02*
X16537857Y-12799428D01*
X16537857Y-12799428D02*
X16537857Y-12742286D01*
X16537857Y-12742286D02*
X16547381Y-12723238D01*
X16547381Y-12723238D02*
X16556905Y-12713714D01*
X16556905Y-12713714D02*
X16575953Y-12704190D01*
X16575953Y-12704190D02*
X16604524Y-12704190D01*
X16604524Y-12704190D02*
X16623572Y-12713714D01*
X16623572Y-12713714D02*
X16633096Y-12723238D01*
X16633096Y-12723238D02*
X16642619Y-12742286D01*
X16642619Y-12742286D02*
X16642619Y-12799428D01*
X16642619Y-12799428D02*
X16633096Y-12818476D01*
X16633096Y-12818476D02*
X16623572Y-12828000D01*
X16623572Y-12828000D02*
X16604524Y-12837524D01*
X16604524Y-12837524D02*
X16575953Y-12837524D01*
X16756905Y-12837524D02*
X16737857Y-12828000D01*
X16737857Y-12828000D02*
X16728334Y-12808952D01*
X16728334Y-12808952D02*
X16728334Y-12637524D01*
X16909286Y-12828000D02*
X16890239Y-12837524D01*
X16890239Y-12837524D02*
X16852143Y-12837524D01*
X16852143Y-12837524D02*
X16833096Y-12828000D01*
X16833096Y-12828000D02*
X16823572Y-12808952D01*
X16823572Y-12808952D02*
X16823572Y-12732762D01*
X16823572Y-12732762D02*
X16833096Y-12713714D01*
X16833096Y-12713714D02*
X16852143Y-12704190D01*
X16852143Y-12704190D02*
X16890239Y-12704190D01*
X16890239Y-12704190D02*
X16909286Y-12713714D01*
X16909286Y-12713714D02*
X16918810Y-12732762D01*
X16918810Y-12732762D02*
X16918810Y-12751809D01*
X16918810Y-12751809D02*
X16823572Y-12770857D01*
X16995000Y-12828000D02*
X17014048Y-12837524D01*
X17014048Y-12837524D02*
X17052143Y-12837524D01*
X17052143Y-12837524D02*
X17071191Y-12828000D01*
X17071191Y-12828000D02*
X17080715Y-12808952D01*
X17080715Y-12808952D02*
X17080715Y-12799428D01*
X17080715Y-12799428D02*
X17071191Y-12780381D01*
X17071191Y-12780381D02*
X17052143Y-12770857D01*
X17052143Y-12770857D02*
X17023572Y-12770857D01*
X17023572Y-12770857D02*
X17004524Y-12761333D01*
X17004524Y-12761333D02*
X16995000Y-12742286D01*
X16995000Y-12742286D02*
X16995000Y-12732762D01*
X16995000Y-12732762D02*
X17004524Y-12713714D01*
X17004524Y-12713714D02*
X17023572Y-12704190D01*
X17023572Y-12704190D02*
X17052143Y-12704190D01*
X17052143Y-12704190D02*
X17071191Y-12713714D01*
X17147381Y-12913714D02*
X17156905Y-12904190D01*
X17156905Y-12904190D02*
X17175953Y-12875619D01*
X17175953Y-12875619D02*
X17185477Y-12856571D01*
X17185477Y-12856571D02*
X17195000Y-12828000D01*
X17195000Y-12828000D02*
X17204524Y-12780381D01*
X17204524Y-12780381D02*
X17204524Y-12742286D01*
X17204524Y-12742286D02*
X17195000Y-12694667D01*
X17195000Y-12694667D02*
X17185477Y-12666095D01*
X17185477Y-12666095D02*
X17175953Y-12647048D01*
X17175953Y-12647048D02*
X17156905Y-12618476D01*
X17156905Y-12618476D02*
X17147381Y-12608952D01*
X12195000Y-13025000D02*
G75*
G03*
X12195000Y-13025000I-100000J0D01*
G01*
X12423571Y-12917524D02*
X12547381Y-12917524D01*
X12547381Y-12917524D02*
X12480714Y-12993714D01*
X12480714Y-12993714D02*
X12509286Y-12993714D01*
X12509286Y-12993714D02*
X12528333Y-13003238D01*
X12528333Y-13003238D02*
X12537857Y-13012762D01*
X12537857Y-13012762D02*
X12547381Y-13031809D01*
X12547381Y-13031809D02*
X12547381Y-13079428D01*
X12547381Y-13079428D02*
X12537857Y-13098476D01*
X12537857Y-13098476D02*
X12528333Y-13108000D01*
X12528333Y-13108000D02*
X12509286Y-13117524D01*
X12509286Y-13117524D02*
X12452143Y-13117524D01*
X12452143Y-13117524D02*
X12433095Y-13108000D01*
X12433095Y-13108000D02*
X12423571Y-13098476D01*
X12633095Y-13098476D02*
X12642619Y-13108000D01*
X12642619Y-13108000D02*
X12633095Y-13117524D01*
X12633095Y-13117524D02*
X12623571Y-13108000D01*
X12623571Y-13108000D02*
X12633095Y-13098476D01*
X12633095Y-13098476D02*
X12633095Y-13117524D01*
X12718809Y-12936571D02*
X12728333Y-12927048D01*
X12728333Y-12927048D02*
X12747381Y-12917524D01*
X12747381Y-12917524D02*
X12795000Y-12917524D01*
X12795000Y-12917524D02*
X12814048Y-12927048D01*
X12814048Y-12927048D02*
X12823571Y-12936571D01*
X12823571Y-12936571D02*
X12833095Y-12955619D01*
X12833095Y-12955619D02*
X12833095Y-12974667D01*
X12833095Y-12974667D02*
X12823571Y-13003238D01*
X12823571Y-13003238D02*
X12709286Y-13117524D01*
X12709286Y-13117524D02*
X12833095Y-13117524D01*
X12956905Y-12917524D02*
X12975952Y-12917524D01*
X12975952Y-12917524D02*
X12995000Y-12927048D01*
X12995000Y-12927048D02*
X13004524Y-12936571D01*
X13004524Y-12936571D02*
X13014048Y-12955619D01*
X13014048Y-12955619D02*
X13023571Y-12993714D01*
X13023571Y-12993714D02*
X13023571Y-13041333D01*
X13023571Y-13041333D02*
X13014048Y-13079428D01*
X13014048Y-13079428D02*
X13004524Y-13098476D01*
X13004524Y-13098476D02*
X12995000Y-13108000D01*
X12995000Y-13108000D02*
X12975952Y-13117524D01*
X12975952Y-13117524D02*
X12956905Y-13117524D01*
X12956905Y-13117524D02*
X12937857Y-13108000D01*
X12937857Y-13108000D02*
X12928333Y-13098476D01*
X12928333Y-13098476D02*
X12918809Y-13079428D01*
X12918809Y-13079428D02*
X12909286Y-13041333D01*
X12909286Y-13041333D02*
X12909286Y-12993714D01*
X12909286Y-12993714D02*
X12918809Y-12955619D01*
X12918809Y-12955619D02*
X12928333Y-12936571D01*
X12928333Y-12936571D02*
X12937857Y-12927048D01*
X12937857Y-12927048D02*
X12956905Y-12917524D01*
X13147381Y-12917524D02*
X13166429Y-12917524D01*
X13166429Y-12917524D02*
X13185476Y-12927048D01*
X13185476Y-12927048D02*
X13195000Y-12936571D01*
X13195000Y-12936571D02*
X13204524Y-12955619D01*
X13204524Y-12955619D02*
X13214048Y-12993714D01*
X13214048Y-12993714D02*
X13214048Y-13041333D01*
X13214048Y-13041333D02*
X13204524Y-13079428D01*
X13204524Y-13079428D02*
X13195000Y-13098476D01*
X13195000Y-13098476D02*
X13185476Y-13108000D01*
X13185476Y-13108000D02*
X13166429Y-13117524D01*
X13166429Y-13117524D02*
X13147381Y-13117524D01*
X13147381Y-13117524D02*
X13128333Y-13108000D01*
X13128333Y-13108000D02*
X13118809Y-13098476D01*
X13118809Y-13098476D02*
X13109286Y-13079428D01*
X13109286Y-13079428D02*
X13099762Y-13041333D01*
X13099762Y-13041333D02*
X13099762Y-12993714D01*
X13099762Y-12993714D02*
X13109286Y-12955619D01*
X13109286Y-12955619D02*
X13118809Y-12936571D01*
X13118809Y-12936571D02*
X13128333Y-12927048D01*
X13128333Y-12927048D02*
X13147381Y-12917524D01*
X13299762Y-13117524D02*
X13299762Y-12984190D01*
X13299762Y-13003238D02*
X13309286Y-12993714D01*
X13309286Y-12993714D02*
X13328333Y-12984190D01*
X13328333Y-12984190D02*
X13356905Y-12984190D01*
X13356905Y-12984190D02*
X13375952Y-12993714D01*
X13375952Y-12993714D02*
X13385476Y-13012762D01*
X13385476Y-13012762D02*
X13385476Y-13117524D01*
X13385476Y-13012762D02*
X13395000Y-12993714D01*
X13395000Y-12993714D02*
X13414048Y-12984190D01*
X13414048Y-12984190D02*
X13442619Y-12984190D01*
X13442619Y-12984190D02*
X13461667Y-12993714D01*
X13461667Y-12993714D02*
X13471190Y-13012762D01*
X13471190Y-13012762D02*
X13471190Y-13117524D01*
X13566429Y-13117524D02*
X13566429Y-12984190D01*
X13566429Y-13003238D02*
X13575952Y-12993714D01*
X13575952Y-12993714D02*
X13595000Y-12984190D01*
X13595000Y-12984190D02*
X13623571Y-12984190D01*
X13623571Y-12984190D02*
X13642619Y-12993714D01*
X13642619Y-12993714D02*
X13652143Y-13012762D01*
X13652143Y-13012762D02*
X13652143Y-13117524D01*
X13652143Y-13012762D02*
X13661667Y-12993714D01*
X13661667Y-12993714D02*
X13680714Y-12984190D01*
X13680714Y-12984190D02*
X13709286Y-12984190D01*
X13709286Y-12984190D02*
X13728333Y-12993714D01*
X13728333Y-12993714D02*
X13737857Y-13012762D01*
X13737857Y-13012762D02*
X13737857Y-13117524D01*
X14128333Y-12908000D02*
X13956905Y-13165143D01*
X14385476Y-12917524D02*
X14404524Y-12917524D01*
X14404524Y-12917524D02*
X14423572Y-12927048D01*
X14423572Y-12927048D02*
X14433095Y-12936571D01*
X14433095Y-12936571D02*
X14442619Y-12955619D01*
X14442619Y-12955619D02*
X14452143Y-12993714D01*
X14452143Y-12993714D02*
X14452143Y-13041333D01*
X14452143Y-13041333D02*
X14442619Y-13079428D01*
X14442619Y-13079428D02*
X14433095Y-13098476D01*
X14433095Y-13098476D02*
X14423572Y-13108000D01*
X14423572Y-13108000D02*
X14404524Y-13117524D01*
X14404524Y-13117524D02*
X14385476Y-13117524D01*
X14385476Y-13117524D02*
X14366429Y-13108000D01*
X14366429Y-13108000D02*
X14356905Y-13098476D01*
X14356905Y-13098476D02*
X14347381Y-13079428D01*
X14347381Y-13079428D02*
X14337857Y-13041333D01*
X14337857Y-13041333D02*
X14337857Y-12993714D01*
X14337857Y-12993714D02*
X14347381Y-12955619D01*
X14347381Y-12955619D02*
X14356905Y-12936571D01*
X14356905Y-12936571D02*
X14366429Y-12927048D01*
X14366429Y-12927048D02*
X14385476Y-12917524D01*
X14537857Y-13098476D02*
X14547381Y-13108000D01*
X14547381Y-13108000D02*
X14537857Y-13117524D01*
X14537857Y-13117524D02*
X14528333Y-13108000D01*
X14528333Y-13108000D02*
X14537857Y-13098476D01*
X14537857Y-13098476D02*
X14537857Y-13117524D01*
X14737857Y-13117524D02*
X14623572Y-13117524D01*
X14680714Y-13117524D02*
X14680714Y-12917524D01*
X14680714Y-12917524D02*
X14661667Y-12946095D01*
X14661667Y-12946095D02*
X14642619Y-12965143D01*
X14642619Y-12965143D02*
X14623572Y-12974667D01*
X14814048Y-12936571D02*
X14823572Y-12927048D01*
X14823572Y-12927048D02*
X14842619Y-12917524D01*
X14842619Y-12917524D02*
X14890238Y-12917524D01*
X14890238Y-12917524D02*
X14909286Y-12927048D01*
X14909286Y-12927048D02*
X14918810Y-12936571D01*
X14918810Y-12936571D02*
X14928333Y-12955619D01*
X14928333Y-12955619D02*
X14928333Y-12974667D01*
X14928333Y-12974667D02*
X14918810Y-13003238D01*
X14918810Y-13003238D02*
X14804524Y-13117524D01*
X14804524Y-13117524D02*
X14928333Y-13117524D01*
X15099762Y-12917524D02*
X15061667Y-12917524D01*
X15061667Y-12917524D02*
X15042619Y-12927048D01*
X15042619Y-12927048D02*
X15033095Y-12936571D01*
X15033095Y-12936571D02*
X15014048Y-12965143D01*
X15014048Y-12965143D02*
X15004524Y-13003238D01*
X15004524Y-13003238D02*
X15004524Y-13079428D01*
X15004524Y-13079428D02*
X15014048Y-13098476D01*
X15014048Y-13098476D02*
X15023572Y-13108000D01*
X15023572Y-13108000D02*
X15042619Y-13117524D01*
X15042619Y-13117524D02*
X15080714Y-13117524D01*
X15080714Y-13117524D02*
X15099762Y-13108000D01*
X15099762Y-13108000D02*
X15109286Y-13098476D01*
X15109286Y-13098476D02*
X15118810Y-13079428D01*
X15118810Y-13079428D02*
X15118810Y-13031809D01*
X15118810Y-13031809D02*
X15109286Y-13012762D01*
X15109286Y-13012762D02*
X15099762Y-13003238D01*
X15099762Y-13003238D02*
X15080714Y-12993714D01*
X15080714Y-12993714D02*
X15042619Y-12993714D01*
X15042619Y-12993714D02*
X15023572Y-13003238D01*
X15023572Y-13003238D02*
X15014048Y-13012762D01*
X15014048Y-13012762D02*
X15004524Y-13031809D01*
X15242619Y-12917524D02*
X15261667Y-12917524D01*
X15261667Y-12917524D02*
X15280714Y-12927048D01*
X15280714Y-12927048D02*
X15290238Y-12936571D01*
X15290238Y-12936571D02*
X15299762Y-12955619D01*
X15299762Y-12955619D02*
X15309286Y-12993714D01*
X15309286Y-12993714D02*
X15309286Y-13041333D01*
X15309286Y-13041333D02*
X15299762Y-13079428D01*
X15299762Y-13079428D02*
X15290238Y-13098476D01*
X15290238Y-13098476D02*
X15280714Y-13108000D01*
X15280714Y-13108000D02*
X15261667Y-13117524D01*
X15261667Y-13117524D02*
X15242619Y-13117524D01*
X15242619Y-13117524D02*
X15223572Y-13108000D01*
X15223572Y-13108000D02*
X15214048Y-13098476D01*
X15214048Y-13098476D02*
X15204524Y-13079428D01*
X15204524Y-13079428D02*
X15195000Y-13041333D01*
X15195000Y-13041333D02*
X15195000Y-12993714D01*
X15195000Y-12993714D02*
X15204524Y-12955619D01*
X15204524Y-12955619D02*
X15214048Y-12936571D01*
X15214048Y-12936571D02*
X15223572Y-12927048D01*
X15223572Y-12927048D02*
X15242619Y-12917524D01*
X15385476Y-12917524D02*
X15385476Y-12955619D01*
X15461667Y-12917524D02*
X15461667Y-12955619D01*
X15756905Y-13193714D02*
X15747381Y-13184190D01*
X15747381Y-13184190D02*
X15728334Y-13155619D01*
X15728334Y-13155619D02*
X15718810Y-13136571D01*
X15718810Y-13136571D02*
X15709286Y-13108000D01*
X15709286Y-13108000D02*
X15699762Y-13060381D01*
X15699762Y-13060381D02*
X15699762Y-13022286D01*
X15699762Y-13022286D02*
X15709286Y-12974667D01*
X15709286Y-12974667D02*
X15718810Y-12946095D01*
X15718810Y-12946095D02*
X15728334Y-12927048D01*
X15728334Y-12927048D02*
X15747381Y-12898476D01*
X15747381Y-12898476D02*
X15756905Y-12888952D01*
X15918810Y-12984190D02*
X15918810Y-13117524D01*
X15871191Y-12908000D02*
X15823572Y-13050857D01*
X15823572Y-13050857D02*
X15947381Y-13050857D01*
X16175953Y-13117524D02*
X16175953Y-12917524D01*
X16261667Y-13117524D02*
X16261667Y-13012762D01*
X16261667Y-13012762D02*
X16252143Y-12993714D01*
X16252143Y-12993714D02*
X16233096Y-12984190D01*
X16233096Y-12984190D02*
X16204524Y-12984190D01*
X16204524Y-12984190D02*
X16185476Y-12993714D01*
X16185476Y-12993714D02*
X16175953Y-13003238D01*
X16385476Y-13117524D02*
X16366429Y-13108000D01*
X16366429Y-13108000D02*
X16356905Y-13098476D01*
X16356905Y-13098476D02*
X16347381Y-13079428D01*
X16347381Y-13079428D02*
X16347381Y-13022286D01*
X16347381Y-13022286D02*
X16356905Y-13003238D01*
X16356905Y-13003238D02*
X16366429Y-12993714D01*
X16366429Y-12993714D02*
X16385476Y-12984190D01*
X16385476Y-12984190D02*
X16414048Y-12984190D01*
X16414048Y-12984190D02*
X16433096Y-12993714D01*
X16433096Y-12993714D02*
X16442619Y-13003238D01*
X16442619Y-13003238D02*
X16452143Y-13022286D01*
X16452143Y-13022286D02*
X16452143Y-13079428D01*
X16452143Y-13079428D02*
X16442619Y-13098476D01*
X16442619Y-13098476D02*
X16433096Y-13108000D01*
X16433096Y-13108000D02*
X16414048Y-13117524D01*
X16414048Y-13117524D02*
X16385476Y-13117524D01*
X16566429Y-13117524D02*
X16547381Y-13108000D01*
X16547381Y-13108000D02*
X16537857Y-13088952D01*
X16537857Y-13088952D02*
X16537857Y-12917524D01*
X16718810Y-13108000D02*
X16699762Y-13117524D01*
X16699762Y-13117524D02*
X16661667Y-13117524D01*
X16661667Y-13117524D02*
X16642619Y-13108000D01*
X16642619Y-13108000D02*
X16633096Y-13088952D01*
X16633096Y-13088952D02*
X16633096Y-13012762D01*
X16633096Y-13012762D02*
X16642619Y-12993714D01*
X16642619Y-12993714D02*
X16661667Y-12984190D01*
X16661667Y-12984190D02*
X16699762Y-12984190D01*
X16699762Y-12984190D02*
X16718810Y-12993714D01*
X16718810Y-12993714D02*
X16728334Y-13012762D01*
X16728334Y-13012762D02*
X16728334Y-13031809D01*
X16728334Y-13031809D02*
X16633096Y-13050857D01*
X16804524Y-13108000D02*
X16823572Y-13117524D01*
X16823572Y-13117524D02*
X16861667Y-13117524D01*
X16861667Y-13117524D02*
X16880715Y-13108000D01*
X16880715Y-13108000D02*
X16890239Y-13088952D01*
X16890239Y-13088952D02*
X16890239Y-13079428D01*
X16890239Y-13079428D02*
X16880715Y-13060381D01*
X16880715Y-13060381D02*
X16861667Y-13050857D01*
X16861667Y-13050857D02*
X16833096Y-13050857D01*
X16833096Y-13050857D02*
X16814048Y-13041333D01*
X16814048Y-13041333D02*
X16804524Y-13022286D01*
X16804524Y-13022286D02*
X16804524Y-13012762D01*
X16804524Y-13012762D02*
X16814048Y-12993714D01*
X16814048Y-12993714D02*
X16833096Y-12984190D01*
X16833096Y-12984190D02*
X16861667Y-12984190D01*
X16861667Y-12984190D02*
X16880715Y-12993714D01*
X16956905Y-13193714D02*
X16966429Y-13184190D01*
X16966429Y-13184190D02*
X16985477Y-13155619D01*
X16985477Y-13155619D02*
X16995000Y-13136571D01*
X16995000Y-13136571D02*
X17004524Y-13108000D01*
X17004524Y-13108000D02*
X17014048Y-13060381D01*
X17014048Y-13060381D02*
X17014048Y-13022286D01*
X17014048Y-13022286D02*
X17004524Y-12974667D01*
X17004524Y-12974667D02*
X16995000Y-12946095D01*
X16995000Y-12946095D02*
X16985477Y-12927048D01*
X16985477Y-12927048D02*
X16966429Y-12898476D01*
X16966429Y-12898476D02*
X16956905Y-12888952D01*
M02*
