M48
; DRILL file {KiCad 7.0.1} date Mon Dec 25 16:17:58 2023
; FORMAT={-:-/ absolute / inch / decimal}
; #@! TF.CreationDate,2023-12-25T16:17:58+00:00
; #@! TF.GenerationSoftware,Kicad,Pcbnew,7.0.1
; #@! TF.FileFunction,Plated,1,2,PTH
FMAT,2
INCH
; #@! TA.AperFunction,Plated,PTH,ViaDrill
T1C0.0157
; #@! TA.AperFunction,Plated,PTH,ComponentDrill
T2C0.0236
; #@! TA.AperFunction,Plated,PTH,ComponentDrill
T3C0.0394
; #@! TA.AperFunction,Plated,PTH,ComponentDrill
T4C0.0433
; #@! TA.AperFunction,Plated,PTH,ComponentDrill
T5C0.0630
; #@! TA.AperFunction,Plated,PTH,ComponentDrill
T6C0.1260
%
G90
G05
T1
X4.7795Y-3.9488
X4.8425Y-2.6181
X4.8425Y-2.9094
X4.8661Y-4.252
X4.8661Y-4.302
X4.8661Y-4.352
X4.8661Y-4.452
X4.8701Y-3.6516
X4.8701Y-3.7008
X4.8705Y-3.8008
X4.937Y-2.7638
X5.1378Y-2.7953
X5.1969Y-4.7047
X5.2864Y-2.6545
X5.4439Y-2.6545
X5.6014Y-2.6545
X5.689Y-4.7047
X5.7589Y-2.6545
X6.3858Y-3.0591
X6.6929Y-3.3661
T3
X5.1756Y-2.4016
X5.2756Y-2.4016
X5.3756Y-2.4016
X6.749Y-2.4305
X6.749Y-2.5305
X6.8482Y-4.9498
X6.8482Y-5.0498
X6.849Y-2.4305
X6.849Y-2.5305
X6.9482Y-4.9498
X6.9482Y-5.0498
X6.949Y-2.4305
X6.949Y-2.5305
X7.0482Y-4.9498
X7.0482Y-5.0498
X7.049Y-2.4305
X7.049Y-2.5305
X7.149Y-2.4305
X7.149Y-2.5305
T4
X5.0295Y-4.872
X5.0295Y-5.128
X5.2067Y-4.872
X5.2067Y-5.128
X5.5217Y-4.872
X5.5217Y-5.128
X5.6988Y-4.872
X5.6988Y-5.128
T5
X6.2638Y-3.374
X6.2913Y-3.2598
X6.3701Y-3.3898
X6.4882Y-3.7402
X6.563Y-3.6535
X6.563Y-3.9134
X6.5709Y-3.8071
X6.6339Y-3.0157
X6.7913Y-2.9882
X6.8386Y-3.1142
X6.937Y-3.7441
X7.0039Y-4.4488
X7.0472Y-3.6575
X7.0669Y-3.315
X7.1378Y-4.4409
X7.1772Y-2.9882
X7.185Y-3.3031
X7.2047Y-3.122
X7.311Y-4.3386
X7.3189Y-3.0315
X7.3661Y-3.4449
X7.4094Y-4.2441
T6
X4.6457Y-2.2835
X4.6457Y-5.1969
X6.0827Y-2.815
X6.0827Y-4.6654
X7.815Y-2.815
X7.815Y-4.6654
X8.3465Y-2.2835
X8.3465Y-5.1969
T2
G00X4.626Y-2.5935
M15
G01X4.5945Y-2.5935
M16
G05
G00X4.626Y-2.9341
M15
G01X4.5945Y-2.9341
M16
G05
G00X4.7961Y-2.5935
M15
G01X4.7528Y-2.5935
M16
G05
G00X4.7961Y-2.9341
M15
G01X4.7528Y-2.9341
M16
G05
T0
M30
