%TF.GenerationSoftware,KiCad,Pcbnew,7.0.1*%
%TF.CreationDate,2023-12-25T16:17:55+00:00*%
%TF.ProjectId,watch_test_rig,77617463-685f-4746-9573-745f7269672e,rev?*%
%TF.SameCoordinates,Original*%
%TF.FileFunction,Paste,Top*%
%TF.FilePolarity,Positive*%
%FSLAX46Y46*%
G04 Gerber Fmt 4.6, Leading zero omitted, Abs format (unit mm)*
G04 Created by KiCad (PCBNEW 7.0.1) date 2023-12-25 16:17:55*
%MOMM*%
%LPD*%
G01*
G04 APERTURE LIST*
G04 Aperture macros list*
%AMRoundRect*
0 Rectangle with rounded corners*
0 $1 Rounding radius*
0 $2 $3 $4 $5 $6 $7 $8 $9 X,Y pos of 4 corners*
0 Add a 4 corners polygon primitive as box body*
4,1,4,$2,$3,$4,$5,$6,$7,$8,$9,$2,$3,0*
0 Add four circle primitives for the rounded corners*
1,1,$1+$1,$2,$3*
1,1,$1+$1,$4,$5*
1,1,$1+$1,$6,$7*
1,1,$1+$1,$8,$9*
0 Add four rect primitives between the rounded corners*
20,1,$1+$1,$2,$3,$4,$5,0*
20,1,$1+$1,$4,$5,$6,$7,0*
20,1,$1+$1,$6,$7,$8,$9,0*
20,1,$1+$1,$8,$9,$2,$3,0*%
G04 Aperture macros list end*
%ADD10RoundRect,0.218750X-0.256250X0.218750X-0.256250X-0.218750X0.256250X-0.218750X0.256250X0.218750X0*%
%ADD11RoundRect,0.140000X0.140000X0.170000X-0.140000X0.170000X-0.140000X-0.170000X0.140000X-0.170000X0*%
%ADD12RoundRect,0.135000X0.185000X-0.135000X0.185000X0.135000X-0.185000X0.135000X-0.185000X-0.135000X0*%
%ADD13R,0.250000X0.400000*%
%ADD14R,0.700000X0.400000*%
%ADD15R,2.400000X0.740000*%
%ADD16RoundRect,0.135000X-0.185000X0.135000X-0.185000X-0.135000X0.185000X-0.135000X0.185000X0.135000X0*%
%ADD17R,1.140000X0.600000*%
%ADD18R,1.140000X0.300000*%
G04 APERTURE END LIST*
D10*
%TO.C,D104*%
X130500000Y-75712500D03*
X130500000Y-77287500D03*
%TD*%
D11*
%TO.C,C101*%
X142980000Y-119500000D03*
X142020000Y-119500000D03*
%TD*%
D12*
%TO.C,R104*%
X130500000Y-73010000D03*
X130500000Y-71990000D03*
%TD*%
D10*
%TO.C,D102*%
X138500000Y-77277500D03*
X138500000Y-75702500D03*
%TD*%
D13*
%TO.C,Q102*%
X138725000Y-68650000D03*
X138275000Y-68650000D03*
D14*
X138500000Y-69350000D03*
%TD*%
D13*
%TO.C,Q104*%
X146725000Y-68650000D03*
X146275000Y-68650000D03*
D14*
X146500000Y-69350000D03*
%TD*%
D10*
%TO.C,D103*%
X142500000Y-75712500D03*
X142500000Y-77287500D03*
%TD*%
D11*
%TO.C,C102*%
X130480000Y-119500000D03*
X129520000Y-119500000D03*
%TD*%
D12*
%TO.C,R102*%
X138500000Y-73010000D03*
X138500000Y-71990000D03*
%TD*%
D15*
%TO.C,J101*%
X125950000Y-106730000D03*
X129850000Y-106730000D03*
X125950000Y-108000000D03*
X129850000Y-108000000D03*
X125950000Y-109270000D03*
X129850000Y-109270000D03*
X125950000Y-110540000D03*
X129850000Y-110540000D03*
X125950000Y-111810000D03*
X129850000Y-111810000D03*
X125950000Y-113080000D03*
X129850000Y-113080000D03*
X125950000Y-114350000D03*
X129850000Y-114350000D03*
%TD*%
D16*
%TO.C,R107*%
X125400000Y-69000000D03*
X125400000Y-67980000D03*
%TD*%
D10*
%TO.C,D101*%
X134500000Y-75712500D03*
X134500000Y-77287500D03*
%TD*%
D15*
%TO.C,J102*%
X126050000Y-91460000D03*
X129950000Y-91460000D03*
X126050000Y-92730000D03*
X129950000Y-92730000D03*
X126050000Y-94000000D03*
X129950000Y-94000000D03*
X126050000Y-95270000D03*
X129950000Y-95270000D03*
X126050000Y-96540000D03*
X129950000Y-96540000D03*
%TD*%
D12*
%TO.C,R105*%
X146500000Y-73010000D03*
X146500000Y-71990000D03*
%TD*%
%TO.C,R106*%
X125400000Y-71490000D03*
X125400000Y-72510000D03*
%TD*%
%TO.C,R101*%
X134500000Y-73010000D03*
X134500000Y-71990000D03*
%TD*%
D13*
%TO.C,Q103*%
X142725000Y-68650000D03*
X142275000Y-68650000D03*
D14*
X142500000Y-69350000D03*
%TD*%
D10*
%TO.C,D105*%
X146500000Y-77287500D03*
X146500000Y-75712500D03*
%TD*%
D17*
%TO.C,J103*%
X121850000Y-67000000D03*
X121850000Y-67800000D03*
D18*
X121850000Y-68950000D03*
X121850000Y-69950000D03*
X121850000Y-70450000D03*
X121850000Y-71450000D03*
D17*
X121850000Y-73400000D03*
X121850000Y-72600000D03*
D18*
X121850000Y-71950000D03*
X121850000Y-70950000D03*
X121850000Y-69450000D03*
X121850000Y-68450000D03*
%TD*%
D12*
%TO.C,R103*%
X142500000Y-73010000D03*
X142500000Y-71990000D03*
%TD*%
D13*
%TO.C,Q101*%
X134725000Y-68650000D03*
X134275000Y-68650000D03*
D14*
X134500000Y-69350000D03*
%TD*%
M02*
